<svg width="280" height="571" viewBox="0 0 280 571" fill="none" xmlns="http://www.w3.org/2000/svg">
<path d="M241.02 0H37.31C16.7 0 0 16.7 0 37.31V533.59C0 554.2 16.7 570.9 37.31 570.9H241.02C261.62 570.9 278.32 554.2 278.32 533.59V37.31C278.32 16.7 261.62 0 241.02 0V0ZM264.07 532.75C264.07 546.41 253 557.48 239.34 557.48H38.14C24.48 557.48 13.41 546.41 13.41 532.75V38.98C13.41 25.32 24.48 14.25 38.14 14.25H239.34C253 14.25 264.07 25.32 264.07 38.98V532.75Z" fill="#0C0C0C"/>
<g filter="url(#filter0_f_1169_57995)">
<path d="M39.8197 2.52H238.49C258.864 2.52 275.38 19.0362 275.38 39.41V531.5C275.38 551.874 258.864 568.39 238.49 568.39H39.8197C19.4459 568.39 2.92973 551.874 2.92973 531.5V39.41C2.92973 19.0362 19.4459 2.52 39.8197 2.52Z" stroke="white" stroke-opacity="0.4" stroke-width="0.42"/>
</g>
<path fill-rule="evenodd" clip-rule="evenodd" d="M36.8902 8.59001C21.3802 8.59001 8.8102 21.16 8.8102 36.67V530.02C8.8102 547.96 23.3502 562.5 41.2902 562.5V565.85C21.5002 565.85 5.4502 549.81 5.4502 530.01V36.68C5.4502 19.32 19.5202 5.24001 36.8902 5.24001H242.49C261.82 5.24001 277.49 20.91 277.49 40.24H274.14C274.14 22.76 259.97 8.59001 242.49 8.59001H36.8902V8.59001Z" fill="url(#paint0_linear_1169_57995)"/>
<path fill-rule="evenodd" clip-rule="evenodd" d="M201.2 5.66H241.44C258.8 5.66 272.88 19.73 272.88 37.1V534.44C272.88 551.8 258.8 565.88 241.44 565.88H37.5201C20.1601 565.88 6.08008 551.81 6.08008 534.44V500.7H9.43008V534.44C9.43008 549.95 22.0001 562.52 37.5101 562.52H241.44C256.95 562.52 269.52 549.95 269.52 534.44V37.1C269.52 21.59 256.95 9.02 241.44 9.02H201.2V5.67V5.66Z" fill="url(#paint1_linear_1169_57995)"/>
<path fill-rule="evenodd" clip-rule="evenodd" d="M201.2 5.66H241.44C258.8 5.66 272.88 19.73 272.88 37.1V534.44C272.88 551.8 258.8 565.88 241.44 565.88H37.5201C20.1601 565.88 6.08008 551.81 6.08008 534.44V500.7H9.43008V534.44C9.43008 549.95 22.0001 562.52 37.5101 562.52H241.44C256.95 562.52 269.52 549.95 269.52 534.44V37.1C269.52 21.59 256.95 9.02 241.44 9.02H201.2V5.67V5.66Z" fill="url(#paint2_radial_1169_57995)"/>
<path d="M241.86 8.38H36.4698C21.1898 8.38 8.7998 20.77 8.7998 36.05V534.85C8.7998 550.13 21.1898 562.52 36.4698 562.52H241.86C257.14 562.52 269.52 550.13 269.52 534.85V36.05C269.52 20.77 257.14 8.38 241.86 8.38V8.38ZM264.07 532.75C264.07 546.41 253 557.48 239.34 557.48H38.1398C24.4798 557.48 13.4098 546.41 13.4098 532.75V38.98C13.4098 25.32 24.4798 14.25 38.1398 14.25H239.34C253 14.25 264.07 25.32 264.07 38.98V532.75Z" fill="black"/>
<path d="M277.485 136.647H278.743C279.437 136.647 280 137.21 280 137.904V175.209C280 175.904 279.437 176.467 278.743 176.467H277.485V136.647Z" fill="#313232"/>
<path d="M277.485 136.647H278.743C279.437 136.647 280 137.21 280 137.904V175.209C280 175.904 279.437 176.467 278.743 176.467H277.485V136.647Z" fill="url(#paint3_linear_1169_57995)"/>
<path d="M277.485 136.647H278.743C279.437 136.647 280 137.21 280 137.904V175.209C280 175.904 279.437 176.467 278.743 176.467H277.485V136.647Z" fill="url(#paint4_linear_1169_57995)"/>
<path d="M277.485 136.647H278.743C279.437 136.647 280 137.21 280 137.904V175.209C280 175.904 279.437 176.467 278.743 176.467H277.485V136.647Z" fill="url(#paint5_radial_1169_57995)"/>
<path d="M277.485 215.03H278.743C279.437 215.03 280 215.593 280 216.287V293.413C280 294.107 279.437 294.67 278.743 294.67H277.485V215.03Z" fill="#070707"/>
<circle cx="30.5985" cy="31.0182" r="9.22156" fill="black"/>
<circle cx="30.5982" cy="31.0181" r="6.70659" fill="#0B0B0B"/>
<circle cx="30.5986" cy="31.018" r="3.77246" fill="#020202"/>
<path d="M30.599 33.533C29.21 33.533 29.3415 31.018 30.599 31.018C32.066 31.018 32.066 28.5031 30.599 28.5031M30.599 33.3234C30.3249 33.3234 30.1352 33.2037 30.0084 33.0207C29.8763 32.83 29.8087 32.5625 29.816 32.281C29.8234 31.9999 29.9051 31.728 30.044 31.5324C30.1796 31.3414 30.3644 31.2276 30.599 31.2276C31.0331 31.2276 31.3682 31.0384 31.5896 30.7537C31.8066 30.4747 31.9088 30.1126 31.9088 29.7606C31.9088 29.5061 31.8554 29.2464 31.7439 29.0166C32.4373 29.4141 32.9043 30.1615 32.9043 31.018C32.9043 32.2913 31.8722 33.3234 30.599 33.3234ZM30.599 28.7126C30.8983 28.7126 31.1134 28.8378 31.2587 29.0247C31.4085 29.2172 31.4897 29.4839 31.4897 29.7606C31.4897 30.0372 31.4085 30.3039 31.2587 30.4964C31.1134 30.6833 30.8983 30.8085 30.599 30.8085C30.2048 30.8085 29.9016 31.009 29.7023 31.2896C29.5063 31.5656 29.4061 31.9224 29.397 32.27C29.3898 32.5453 29.4394 32.8294 29.5573 33.0752C28.8074 32.6948 28.2936 31.9164 28.2936 31.018C28.2936 29.7448 29.3257 28.7126 30.599 28.7126Z" fill="url(#paint6_radial_1169_57995)" fill-opacity="0.5"/>
<path d="M30.599 33.533C29.21 33.533 29.3415 31.018 30.599 31.018C32.066 31.018 32.066 28.5031 30.599 28.5031M30.599 33.3234C30.3249 33.3234 30.1352 33.2037 30.0084 33.0207C29.8763 32.83 29.8087 32.5625 29.816 32.281C29.8234 31.9999 29.9051 31.728 30.044 31.5324C30.1796 31.3414 30.3644 31.2276 30.599 31.2276C31.0331 31.2276 31.3682 31.0384 31.5896 30.7537C31.8066 30.4747 31.9088 30.1126 31.9088 29.7606C31.9088 29.5061 31.8554 29.2464 31.7439 29.0166C32.4373 29.4141 32.9043 30.1615 32.9043 31.018C32.9043 32.2913 31.8722 33.3234 30.599 33.3234ZM30.599 28.7126C30.8983 28.7126 31.1134 28.8378 31.2587 29.0247C31.4085 29.2172 31.4897 29.4839 31.4897 29.7606C31.4897 30.0372 31.4085 30.3039 31.2587 30.4964C31.1134 30.6833 30.8983 30.8085 30.599 30.8085C30.2048 30.8085 29.9016 31.009 29.7023 31.2896C29.5063 31.5656 29.4061 31.9224 29.397 32.27C29.3898 32.5453 29.4394 32.8294 29.5573 33.0752C28.8074 32.6948 28.2936 31.9164 28.2936 31.018C28.2936 29.7448 29.3257 28.7126 30.599 28.7126Z" fill="url(#paint7_radial_1169_57995)"/>
<path d="M30.599 33.533C29.21 33.533 29.3415 31.018 30.599 31.018C32.066 31.018 32.066 28.5031 30.599 28.5031M30.599 33.3234C30.3249 33.3234 30.1352 33.2037 30.0084 33.0207C29.8763 32.83 29.8087 32.5625 29.816 32.281C29.8234 31.9999 29.9051 31.728 30.044 31.5324C30.1796 31.3414 30.3644 31.2276 30.599 31.2276C31.0331 31.2276 31.3682 31.0384 31.5896 30.7537C31.8066 30.4747 31.9088 30.1126 31.9088 29.7606C31.9088 29.5061 31.8554 29.2464 31.7439 29.0166C32.4373 29.4141 32.9043 30.1615 32.9043 31.018C32.9043 32.2913 31.8722 33.3234 30.599 33.3234ZM30.599 28.7126C30.8983 28.7126 31.1134 28.8378 31.2587 29.0247C31.4085 29.2172 31.4897 29.4839 31.4897 29.7606C31.4897 30.0372 31.4085 30.3039 31.2587 30.4964C31.1134 30.6833 30.8983 30.8085 30.599 30.8085C30.2048 30.8085 29.9016 31.009 29.7023 31.2896C29.5063 31.5656 29.4061 31.9224 29.397 32.27C29.3898 32.5453 29.4394 32.8294 29.5573 33.0752C28.8074 32.6948 28.2936 31.9164 28.2936 31.018C28.2936 29.7448 29.3257 28.7126 30.599 28.7126Z" fill="url(#paint8_radial_1169_57995)"/>
<path d="M30.599 33.533C29.21 33.533 29.3415 31.018 30.599 31.018C32.066 31.018 32.066 28.5031 30.599 28.5031M30.599 33.3234C30.3249 33.3234 30.1352 33.2037 30.0084 33.0207C29.8763 32.83 29.8087 32.5625 29.816 32.281C29.8234 31.9999 29.9051 31.728 30.044 31.5324C30.1796 31.3414 30.3644 31.2276 30.599 31.2276C31.0331 31.2276 31.3682 31.0384 31.5896 30.7537C31.8066 30.4747 31.9088 30.1126 31.9088 29.7606C31.9088 29.5061 31.8554 29.2464 31.7439 29.0166C32.4373 29.4141 32.9043 30.1615 32.9043 31.018C32.9043 32.2913 31.8722 33.3234 30.599 33.3234ZM30.599 28.7126C30.8983 28.7126 31.1134 28.8378 31.2587 29.0247C31.4085 29.2172 31.4897 29.4839 31.4897 29.7606C31.4897 30.0372 31.4085 30.3039 31.2587 30.4964C31.1134 30.6833 30.8983 30.8085 30.599 30.8085C30.2048 30.8085 29.9016 31.009 29.7023 31.2896C29.5063 31.5656 29.4061 31.9224 29.397 32.27C29.3898 32.5453 29.4394 32.8294 29.5573 33.0752C28.8074 32.6948 28.2936 31.9164 28.2936 31.018C28.2936 29.7448 29.3257 28.7126 30.599 28.7126Z" stroke="#020202" stroke-width="0.419162"/>
<path d="M13 14H264V40H13V14Z" fill="black" fill-opacity="0.1"/>
<path d="M47.9155 25.1367V33H46.9219V26.3774L44.9185 27.1079V26.2109L47.7598 25.1367H47.9155ZM55.9614 32.1836V33H50.8428V32.2856L53.4048 29.4336C53.7199 29.0827 53.9634 28.7855 54.1353 28.542C54.3107 28.2949 54.4325 28.0747 54.5005 27.8813C54.5721 27.6844 54.6079 27.4839 54.6079 27.2798C54.6079 27.022 54.5542 26.7892 54.4468 26.5815C54.3429 26.3703 54.189 26.202 53.9849 26.0767C53.7808 25.9513 53.5337 25.8887 53.2437 25.8887C52.8963 25.8887 52.6063 25.9567 52.3735 26.0928C52.1444 26.2253 51.9725 26.4115 51.8579 26.6514C51.7433 26.8913 51.686 27.167 51.686 27.4785H50.6924C50.6924 27.0381 50.7891 26.6353 50.9824 26.27C51.1758 25.9048 51.4622 25.6147 51.8418 25.3999C52.2214 25.1815 52.6886 25.0723 53.2437 25.0723C53.7378 25.0723 54.1603 25.16 54.5112 25.3354C54.8621 25.5073 55.1307 25.7508 55.3169 26.0659C55.5067 26.3774 55.6016 26.7427 55.6016 27.1616C55.6016 27.3908 55.5622 27.6235 55.4834 27.8599C55.4082 28.0926 55.3026 28.3254 55.1665 28.5581C55.034 28.7909 54.8783 29.02 54.6992 29.2456C54.5238 29.4712 54.3358 29.6932 54.1353 29.9116L52.0405 32.1836H55.9614ZM57.0894 32.4736C57.0894 32.3053 57.1413 32.1639 57.2451 32.0493C57.3525 31.9312 57.5065 31.8721 57.707 31.8721C57.9076 31.8721 58.0597 31.9312 58.1636 32.0493C58.271 32.1639 58.3247 32.3053 58.3247 32.4736C58.3247 32.6383 58.271 32.778 58.1636 32.8926C58.0597 33.0072 57.9076 33.0645 57.707 33.0645C57.5065 33.0645 57.3525 33.0072 57.2451 32.8926C57.1413 32.778 57.0894 32.6383 57.0894 32.4736ZM57.0947 27.731C57.0947 27.5627 57.1466 27.4212 57.2505 27.3066C57.3579 27.1885 57.5119 27.1294 57.7124 27.1294C57.9129 27.1294 58.0651 27.1885 58.1689 27.3066C58.2764 27.4212 58.3301 27.5627 58.3301 27.731C58.3301 27.8957 58.2764 28.0353 58.1689 28.1499C58.0651 28.2645 57.9129 28.3218 57.7124 28.3218C57.5119 28.3218 57.3579 28.2645 57.2505 28.1499C57.1466 28.0353 57.0947 27.8957 57.0947 27.731ZM64.813 32.1836V33H59.6943V32.2856L62.2563 29.4336C62.5715 29.0827 62.8149 28.7855 62.9868 28.542C63.1623 28.2949 63.284 28.0747 63.3521 27.8813C63.4237 27.6844 63.4595 27.4839 63.4595 27.2798C63.4595 27.022 63.4058 26.7892 63.2983 26.5815C63.1945 26.3703 63.0405 26.202 62.8364 26.0767C62.6323 25.9513 62.3853 25.8887 62.0952 25.8887C61.7479 25.8887 61.4578 25.9567 61.2251 26.0928C60.9959 26.2253 60.8241 26.4115 60.7095 26.6514C60.5949 26.8913 60.5376 27.167 60.5376 27.4785H59.5439C59.5439 27.0381 59.6406 26.6353 59.834 26.27C60.0273 25.9048 60.3138 25.6147 60.6934 25.3999C61.0729 25.1815 61.5402 25.0723 62.0952 25.0723C62.5894 25.0723 63.0119 25.16 63.3628 25.3354C63.7137 25.5073 63.9823 25.7508 64.1685 26.0659C64.3582 26.3774 64.4531 26.7427 64.4531 27.1616C64.4531 27.3908 64.4137 27.6235 64.335 27.8599C64.2598 28.0926 64.1541 28.3254 64.0181 28.5581C63.8856 28.7909 63.7298 29.02 63.5508 29.2456C63.3753 29.4712 63.1873 29.6932 62.9868 29.9116L60.8921 32.1836H64.813ZM67.1333 29.2778L66.3384 29.0737L66.7305 25.1797H70.7427V26.0981H67.5737L67.3374 28.2251C67.4806 28.1427 67.6615 28.0658 67.8799 27.9941C68.1019 27.9225 68.3561 27.8867 68.6426 27.8867C69.0042 27.8867 69.3283 27.9494 69.6147 28.0747C69.9012 28.1965 70.1447 28.3719 70.3452 28.6011C70.5493 28.8302 70.7051 29.106 70.8125 29.4282C70.9199 29.7505 70.9736 30.1104 70.9736 30.5078C70.9736 30.8838 70.9217 31.2293 70.8179 31.5444C70.7176 31.8595 70.5654 32.1353 70.3613 32.3716C70.1572 32.6043 69.8994 32.7852 69.5879 32.9141C69.2799 33.043 68.9165 33.1074 68.4976 33.1074C68.1825 33.1074 67.8835 33.0645 67.6006 32.9785C67.3213 32.889 67.0706 32.7547 66.8486 32.5757C66.6302 32.3931 66.4512 32.1675 66.3115 31.8989C66.1755 31.6268 66.0895 31.3081 66.0537 30.9429H66.999C67.042 31.2365 67.1279 31.4836 67.2568 31.6841C67.3857 31.8846 67.554 32.0368 67.7617 32.1406C67.973 32.2409 68.2183 32.291 68.4976 32.291C68.7339 32.291 68.9434 32.2498 69.126 32.1675C69.3086 32.0851 69.4626 31.967 69.5879 31.813C69.7132 31.659 69.8081 31.4728 69.8726 31.2544C69.9406 31.036 69.9746 30.7907 69.9746 30.5186C69.9746 30.2715 69.9406 30.0423 69.8726 29.8311C69.8045 29.6198 69.7025 29.4354 69.5664 29.2778C69.4339 29.1203 69.271 28.9985 69.0776 28.9126C68.8843 28.8231 68.6623 28.7783 68.4116 28.7783C68.0786 28.7783 67.8262 28.8231 67.6543 28.9126C67.486 29.0021 67.3123 29.1239 67.1333 29.2778Z" fill="white"/>
<path d="M244.872 29.0625H250.117V32.5416C250.117 32.7948 249.911 33 249.658 33H245.33C245.077 33 244.872 32.7948 244.872 32.5416V29.0625Z" fill="white"/>
<path d="M244.872 25.8646C244.872 25.6115 245.077 25.4062 245.33 25.4062H249.658C249.911 25.4062 250.117 25.6115 250.117 25.8646V29.0625H244.872V25.8646Z" fill="white" fill-opacity="0.35"/>
<path d="M246.184 24.4584C246.184 24.2052 246.389 24 246.642 24H248.348C248.601 24 248.806 24.2052 248.806 24.4584V25.4063H246.184V24.4584Z" fill="white" fill-opacity="0.35"/>
<line x1="212.6" y1="31.1021" x2="212.6" y2="32.5134" stroke="white" stroke-width="1.2" stroke-linecap="round"/>
<line x1="215.035" y1="28.4907" x2="215.035" y2="32.5134" stroke="white" stroke-width="1.2" stroke-linecap="round"/>
<line x1="217.164" y1="26.2058" x2="217.164" y2="32.5134" stroke="white" stroke-width="1.2" stroke-linecap="round"/>
<line x1="219.6" y1="24.2473" x2="219.6" y2="32.5134" stroke="white" stroke-opacity="0.35" stroke-width="1.2" stroke-linecap="round"/>
<path d="M224.475 29.2778L223.68 29.0737L224.072 25.1797H228.084V26.0981H224.916L224.679 28.2251C224.822 28.1427 225.003 28.0658 225.222 27.9941C225.444 27.9225 225.698 27.8867 225.984 27.8867C226.346 27.8867 226.67 27.9494 226.957 28.0747C227.243 28.1965 227.486 28.3719 227.687 28.6011C227.891 28.8302 228.047 29.106 228.154 29.4282C228.262 29.7505 228.315 30.1104 228.315 30.5078C228.315 30.8838 228.264 31.2293 228.16 31.5444C228.059 31.8595 227.907 32.1353 227.703 32.3716C227.499 32.6043 227.241 32.7852 226.93 32.9141C226.622 33.043 226.258 33.1074 225.839 33.1074C225.524 33.1074 225.225 33.0645 224.942 32.9785C224.663 32.889 224.412 32.7547 224.19 32.5757C223.972 32.3931 223.793 32.1675 223.653 31.8989C223.517 31.6268 223.431 31.3081 223.396 30.9429H224.341C224.384 31.2365 224.47 31.4836 224.599 31.6841C224.728 31.8846 224.896 32.0368 225.104 32.1406C225.315 32.2409 225.56 32.291 225.839 32.291C226.076 32.291 226.285 32.2498 226.468 32.1675C226.65 32.0851 226.804 31.967 226.93 31.813C227.055 31.659 227.15 31.4728 227.214 31.2544C227.282 31.036 227.316 30.7907 227.316 30.5186C227.316 30.2715 227.282 30.0423 227.214 29.8311C227.146 29.6198 227.044 29.4354 226.908 29.2778C226.776 29.1203 226.613 28.9985 226.419 28.9126C226.226 28.8231 226.004 28.7783 225.753 28.7783C225.42 28.7783 225.168 28.8231 224.996 28.9126C224.828 29.0021 224.654 29.1239 224.475 29.2778ZM230.856 28.6011H231.565C231.912 28.6011 232.199 28.5438 232.424 28.4292C232.653 28.311 232.824 28.1517 232.935 27.9512C233.049 27.7471 233.106 27.5179 233.106 27.2637C233.106 26.9629 233.056 26.7104 232.956 26.5063C232.856 26.3022 232.705 26.1483 232.505 26.0444C232.304 25.9406 232.05 25.8887 231.742 25.8887C231.463 25.8887 231.216 25.9442 231.001 26.0552C230.79 26.1626 230.623 26.3166 230.501 26.5171C230.383 26.7176 230.324 26.9539 230.324 27.2261H229.331C229.331 26.8286 229.431 26.467 229.631 26.1411C229.832 25.8153 230.113 25.5557 230.475 25.3623C230.84 25.1689 231.262 25.0723 231.742 25.0723C232.215 25.0723 232.628 25.1564 232.983 25.3247C233.337 25.4894 233.613 25.7365 233.81 26.0659C234.007 26.3918 234.105 26.7982 234.105 27.2852C234.105 27.4821 234.059 27.6934 233.966 27.9189C233.876 28.141 233.735 28.3486 233.542 28.542C233.352 28.7354 233.105 28.8947 232.8 29.02C232.496 29.1418 232.131 29.2026 231.705 29.2026H230.856V28.6011ZM230.856 29.4175V28.8213H231.705C232.202 28.8213 232.614 28.8804 232.94 28.9985C233.266 29.1167 233.522 29.2743 233.708 29.4712C233.898 29.6681 234.03 29.8848 234.105 30.1211C234.184 30.3538 234.224 30.5866 234.224 30.8193C234.224 31.1846 234.161 31.5086 234.036 31.7915C233.914 32.0744 233.74 32.3143 233.515 32.5112C233.293 32.7082 233.031 32.8568 232.73 32.957C232.43 33.0573 232.102 33.1074 231.748 33.1074C231.407 33.1074 231.087 33.0591 230.786 32.9624C230.489 32.8657 230.226 32.7261 229.997 32.5435C229.767 32.3573 229.588 32.1299 229.459 31.8613C229.331 31.5892 229.266 31.2795 229.266 30.9321H230.26C230.26 31.2043 230.319 31.4424 230.437 31.6465C230.559 31.8506 230.731 32.0099 230.953 32.1245C231.178 32.2355 231.443 32.291 231.748 32.291C232.052 32.291 232.313 32.2391 232.532 32.1353C232.754 32.0278 232.924 31.8667 233.042 31.6519C233.164 31.437 233.225 31.1667 233.225 30.8408C233.225 30.515 233.157 30.2482 233.021 30.0405C232.884 29.8293 232.691 29.6735 232.44 29.5732C232.193 29.4694 231.902 29.4175 231.565 29.4175H230.856ZM235.507 27.0972V26.6836C235.507 26.3864 235.572 26.116 235.701 25.8726C235.83 25.6291 236.014 25.4339 236.254 25.2871C236.494 25.1403 236.778 25.0669 237.108 25.0669C237.444 25.0669 237.731 25.1403 237.967 25.2871C238.207 25.4339 238.392 25.6291 238.521 25.8726C238.649 26.116 238.714 26.3864 238.714 26.6836V27.0972C238.714 27.3872 238.649 27.654 238.521 27.8975C238.395 28.141 238.213 28.3361 237.973 28.4829C237.736 28.6297 237.452 28.7031 237.119 28.7031C236.786 28.7031 236.497 28.6297 236.254 28.4829C236.014 28.3361 235.83 28.141 235.701 27.8975C235.572 27.654 235.507 27.3872 235.507 27.0972ZM236.254 26.6836V27.0972C236.254 27.2619 236.284 27.4176 236.345 27.5645C236.41 27.7113 236.506 27.8312 236.635 27.9243C236.764 28.0138 236.925 28.0586 237.119 28.0586C237.312 28.0586 237.471 28.0138 237.597 27.9243C237.722 27.8312 237.815 27.7113 237.876 27.5645C237.937 27.4176 237.967 27.2619 237.967 27.0972V26.6836C237.967 26.5153 237.935 26.3577 237.871 26.2109C237.81 26.0605 237.715 25.9406 237.586 25.8511C237.461 25.758 237.301 25.7114 237.108 25.7114C236.918 25.7114 236.759 25.758 236.63 25.8511C236.505 25.9406 236.41 26.0605 236.345 26.2109C236.284 26.3577 236.254 26.5153 236.254 26.6836ZM239.315 31.5015V31.0825C239.315 30.7889 239.38 30.5203 239.509 30.2769C239.638 30.0334 239.822 29.8382 240.062 29.6914C240.302 29.5446 240.587 29.4712 240.916 29.4712C241.253 29.4712 241.539 29.5446 241.775 29.6914C242.015 29.8382 242.2 30.0334 242.329 30.2769C242.458 30.5203 242.522 30.7889 242.522 31.0825V31.5015C242.522 31.7951 242.458 32.0636 242.329 32.3071C242.203 32.5506 242.021 32.7458 241.781 32.8926C241.544 33.0394 241.26 33.1128 240.927 33.1128C240.594 33.1128 240.307 33.0394 240.067 32.8926C239.827 32.7458 239.641 32.5506 239.509 32.3071C239.38 32.0636 239.315 31.7951 239.315 31.5015ZM240.062 31.0825V31.5015C240.062 31.6662 240.092 31.8237 240.153 31.9741C240.218 32.1209 240.314 32.2409 240.443 32.334C240.572 32.4235 240.733 32.4683 240.927 32.4683C241.12 32.4683 241.279 32.4235 241.405 32.334C241.534 32.2409 241.629 32.1209 241.689 31.9741C241.75 31.8273 241.781 31.6698 241.781 31.5015V31.0825C241.781 30.9142 241.749 30.7567 241.684 30.6099C241.623 30.4631 241.528 30.3449 241.399 30.2554C241.274 30.1623 241.113 30.1157 240.916 30.1157C240.726 30.1157 240.567 30.1623 240.438 30.2554C240.313 30.3449 240.218 30.4631 240.153 30.6099C240.092 30.7567 240.062 30.9142 240.062 31.0825ZM241.163 26.2915L237.344 32.4038L236.786 32.0493L240.604 25.937L241.163 26.2915Z" fill="white"/>
<rect x="13" y="547.843" width="251" height="9.74324" fill="black" fill-opacity="0.1"/>
<line x1="100.848" y1="552.715" x2="176.153" y2="552.715" stroke="white" stroke-width="2.78378" stroke-linecap="round"/>
<g filter="url(#filter1_b_1169_57995)">
<rect x="18" y="501.911" width="241.239" height="41.7568" rx="20.8784" fill="black" fill-opacity="0.4"/>
<rect x="18.174" y="502.085" width="240.891" height="41.4088" rx="20.7044" stroke="white" stroke-opacity="0.4" stroke-width="0.347973"/>
</g>
<path d="M37.3387 528.529C38.5157 529.706 40.0258 530.492 41.6645 530.783C43.3033 531.073 44.9917 530.853 46.5014 530.153C46.8628 529.975 47.2539 529.865 47.6551 529.828C48.6189 529.834 49.8181 530.768 50.4417 530.146C51.0653 529.523 50.1299 528.322 50.1299 527.353C50.1638 526.954 50.2715 526.564 50.4474 526.205C51.0718 524.858 51.3151 523.365 51.1507 521.89C50.9863 520.415 50.4206 519.013 49.515 517.836C48.6094 516.66 47.3987 515.754 46.0144 515.218C44.6301 514.682 43.1253 514.535 41.6636 514.795C40.2019 515.054 38.8392 515.709 37.7237 516.688C36.6082 517.668 35.7827 518.935 35.3368 520.35C34.8909 521.766 34.8418 523.278 35.1947 524.72C35.5477 526.162 36.2892 527.479 37.3387 528.529V528.529Z" stroke="white" stroke-width="1.04392" stroke-linecap="round" stroke-linejoin="round"/>
<path d="M39.8805 523.94C39.9866 523.939 40.0916 523.917 40.189 523.875C40.3843 523.788 40.5405 523.632 40.6275 523.437C40.6691 523.339 40.6911 523.234 40.6924 523.128C40.6921 523.019 40.67 522.912 40.6275 522.811C40.5881 522.713 40.5271 522.624 40.4488 522.552C40.2943 522.405 40.0895 522.323 39.8764 522.323C39.6634 522.323 39.4585 522.405 39.304 522.552C39.2309 522.628 39.1706 522.716 39.1254 522.811C39.0855 522.912 39.0662 523.02 39.0686 523.128C39.0683 523.234 39.089 523.338 39.1294 523.436C39.1698 523.533 39.2292 523.622 39.304 523.696C39.3792 523.773 39.4689 523.834 39.5678 523.876C39.6668 523.918 39.7731 523.94 39.8805 523.94" fill="white"/>
<path d="M43.1354 523.94C43.3521 523.938 43.5593 523.85 43.7118 523.696C43.8591 523.543 43.9432 523.34 43.9473 523.128C43.9461 523.019 43.9241 522.912 43.8824 522.811C43.8629 522.763 43.8384 522.717 43.8093 522.673C43.7809 522.63 43.7482 522.589 43.7118 522.552C43.6354 522.475 43.5443 522.414 43.4439 522.373C43.2444 522.294 43.0218 522.295 42.8233 522.377C42.6248 522.459 42.4659 522.614 42.3803 522.811C42.3404 522.912 42.3211 523.02 42.3234 523.128C42.3218 523.234 42.3412 523.339 42.3803 523.437C42.4226 523.534 42.4832 523.622 42.5589 523.696C42.631 523.775 42.7198 523.836 42.8187 523.875C42.919 523.917 43.0266 523.939 43.1354 523.94" fill="white"/>
<path d="M46.3913 523.94C46.4975 523.939 46.6024 523.917 46.6999 523.875C46.7988 523.836 46.8876 523.775 46.9597 523.696C47.0357 523.622 47.0963 523.534 47.1381 523.437C47.1799 523.339 47.202 523.234 47.2033 523.128C47.2029 523.019 47.1809 522.912 47.1383 522.811C47.099 522.713 47.038 522.624 46.9597 522.552C46.8452 522.44 46.7007 522.363 46.5436 522.331C46.3866 522.3 46.2237 522.314 46.0747 522.373C45.9758 522.412 45.887 522.473 45.8149 522.552C45.7736 522.586 45.7379 522.628 45.7093 522.673C45.685 522.714 45.6606 522.763 45.6362 522.811C45.5945 522.912 45.5725 523.019 45.5713 523.128C45.5726 523.234 45.5946 523.339 45.6362 523.437C45.6756 523.536 45.7366 523.624 45.8149 523.696C45.8901 523.773 45.9797 523.834 46.0787 523.876C46.1777 523.918 46.2839 523.94 46.3913 523.94" fill="white"/>
<path d="M87.3074 530.277C91.6172 530.277 95.111 526.783 95.111 522.473C95.111 518.164 91.6172 514.67 87.3074 514.67C82.9977 514.67 79.5039 518.164 79.5039 522.473C79.5039 526.783 82.9977 530.277 87.3074 530.277Z" stroke="white" stroke-width="1.04392" stroke-linecap="round" stroke-linejoin="round"/>
<path d="M84.5947 525.184L85.8881 521.054L90.0185 519.761L88.725 523.893L84.5947 525.184Z" stroke="white" stroke-width="1.04392" stroke-linecap="round" stroke-linejoin="round"/>
<g clip-path="url(#clip0_1169_57995)">
<path d="M190.444 530.048H183.381C181.732 530.048 180.393 528.708 180.393 527.06V519.282C180.393 517.633 181.732 516.294 183.381 516.294H190.444C192.093 516.294 193.432 517.633 193.432 519.282V527.06C193.424 528.708 192.093 530.048 190.444 530.048Z" stroke="white" stroke-width="1.04392" stroke-linecap="round" stroke-linejoin="round"/>
<path d="M195.584 519.866L194.123 520.865C193.692 521.157 193.433 521.693 193.433 522.278V524.064C193.433 524.649 193.692 525.184 194.123 525.477L195.584 526.475C196.502 527.109 197.655 526.321 197.655 525.063V521.279C197.655 520.02 196.502 519.233 195.584 519.866Z" stroke="white" stroke-width="1.04392" stroke-linecap="round" stroke-linejoin="round"/>
<path d="M185.744 520.102C185.744 520.394 185.655 520.686 185.492 520.93C185.33 521.173 185.094 521.368 184.826 521.482C184.55 521.596 184.25 521.628 183.966 521.563C183.665 521.506 183.405 521.368 183.194 521.157C182.983 520.946 182.845 520.686 182.788 520.394C182.732 520.102 182.764 519.801 182.87 519.533C182.983 519.257 183.178 519.022 183.422 518.859C183.665 518.697 183.958 518.608 184.25 518.608C184.648 518.608 185.021 518.762 185.305 519.046C185.581 519.33 185.744 519.704 185.744 520.102Z" stroke="white" stroke-width="1.04392" stroke-linecap="round" stroke-linejoin="round"/>
</g>
<path d="M234.002 525.635C230.86 525.635 228.181 526.11 228.181 528.012C228.181 529.913 230.845 530.404 234.002 530.404C237.143 530.404 239.824 529.929 239.824 528.028C239.824 526.127 237.16 525.635 234.002 525.635Z" stroke="white" stroke-width="1.04392" stroke-linecap="round" stroke-linejoin="round"/>
<path d="M234.005 522.919C234.99 522.916 235.934 522.521 236.628 521.823C237.323 521.125 237.712 520.179 237.711 519.194C237.709 518.209 237.317 517.265 236.619 516.569C235.922 515.873 234.977 515.482 233.992 515.482C233.007 515.482 232.062 515.873 231.365 516.569C230.668 517.265 230.275 518.209 230.273 519.194C230.272 520.179 230.661 521.125 231.356 521.823C232.05 522.521 232.994 522.916 233.979 522.919H234.005Z" stroke="white" stroke-width="0.994507" stroke-linecap="round" stroke-linejoin="round"/>
<g filter="url(#filter2_d_1169_57995)">
<circle cx="138.427" cy="522.789" r="16.0068" fill="white"/>
</g>
<path fill-rule="evenodd" clip-rule="evenodd" d="M138.442 515.83C138.835 515.83 139.153 516.148 139.153 516.541V529.347C139.153 529.739 138.835 530.058 138.442 530.058C138.049 530.058 137.73 529.739 137.73 529.347V516.541C137.73 516.148 138.049 515.83 138.442 515.83Z" fill="#111111"/>
<path fill-rule="evenodd" clip-rule="evenodd" d="M131.467 522.774C131.467 522.381 131.785 522.062 132.178 522.062H144.984C145.377 522.062 145.695 522.381 145.695 522.774C145.695 523.167 145.377 523.485 144.984 523.485H132.178C131.785 523.485 131.467 523.167 131.467 522.774Z" fill="#111111"/>
<path d="M84.8237 26.508L83.6691 27.9609C83.5909 28.0529 83.5126 28.1264 83.3952 28.1816C83.2973 28.2368 83.1799 28.2736 83.0625 28.292C82.9451 28.3103 82.8277 28.3103 82.7103 28.2736C82.5928 28.2368 82.495 28.2 82.3972 28.1264L82.3776 28.108C82.2602 28.0345 82.1819 27.9241 82.1036 27.8138C82.0449 27.7034 82.0058 27.5563 82.0058 27.4276V26.8759C81.7318 26.8759 81.4774 26.9862 81.2817 27.1517C81.086 27.3356 80.9882 27.5747 80.9882 27.8322V32.0437C80.9882 32.5586 80.5773 32.9816 80.0293 33C79.8924 33 79.7554 32.9816 79.638 32.9448C79.5205 32.908 79.4031 32.8345 79.3053 32.7425C79.2074 32.6506 79.1292 32.5586 79.0705 32.4299C79.0118 32.3195 78.9922 32.1908 78.9922 32.0621V27.8322C78.9922 27.4644 79.0705 27.0966 79.227 26.7471C79.3836 26.3977 79.5988 26.0851 79.8728 25.8276C80.1467 25.5701 80.4794 25.3494 80.8512 25.2207C81.223 25.0736 81.6144 25 82.0058 25H84.0018C84.5889 25 84.9998 25.3862 84.9998 25.9379C84.9998 26.1586 84.9411 26.3609 84.8237 26.508Z" fill="white"/>
<path d="M77.5048 25H75.9784C75.4501 25 75 25.4046 75 25.9195V25.9379C75 26.4529 75.4501 26.8575 75.9784 26.8575H77.5048C78.0527 26.8575 78.4832 26.4529 78.4832 25.9379V25.9195C78.5028 25.4046 78.0527 25 77.5048 25Z" fill="white"/>
<defs>
<filter id="filter0_f_1169_57995" x="1.87973" y="1.47" width="274.55" height="567.97" filterUnits="userSpaceOnUse" color-interpolation-filters="sRGB">
<feFlood flood-opacity="0" result="BackgroundImageFix"/>
<feBlend mode="normal" in="SourceGraphic" in2="BackgroundImageFix" result="shape"/>
<feGaussianBlur stdDeviation="0.42" result="effect1_foregroundBlur_1169_57995"/>
</filter>
<filter id="filter1_b_1169_57995" x="1.2973" y="485.208" width="274.645" height="75.1621" filterUnits="userSpaceOnUse" color-interpolation-filters="sRGB">
<feFlood flood-opacity="0" result="BackgroundImageFix"/>
<feGaussianBlur in="BackgroundImage" stdDeviation="8.35135"/>
<feComposite in2="SourceAlpha" operator="in" result="effect1_backgroundBlur_1169_57995"/>
<feBlend mode="normal" in="SourceGraphic" in2="effect1_backgroundBlur_1169_57995" result="shape"/>
</filter>
<filter id="filter2_d_1169_57995" x="119.636" y="506.782" width="37.5812" height="37.5811" filterUnits="userSpaceOnUse" color-interpolation-filters="sRGB">
<feFlood flood-opacity="0" result="BackgroundImageFix"/>
<feColorMatrix in="SourceAlpha" type="matrix" values="0 0 0 0 0 0 0 0 0 0 0 0 0 0 0 0 0 0 127 0" result="hardAlpha"/>
<feOffset dy="2.78378"/>
<feGaussianBlur stdDeviation="1.39189"/>
<feComposite in2="hardAlpha" operator="out"/>
<feColorMatrix type="matrix" values="0 0 0 0 1 0 0 0 0 1 0 0 0 0 1 0 0 0 0.1 0"/>
<feBlend mode="normal" in2="BackgroundImageFix" result="effect1_dropShadow_1169_57995"/>
<feBlend mode="normal" in="SourceGraphic" in2="effect1_dropShadow_1169_57995" result="shape"/>
</filter>
<linearGradient id="paint0_linear_1169_57995" x1="11.4702" y1="225.88" x2="135.96" y2="282.88" gradientUnits="userSpaceOnUse">
<stop stop-color="white" stop-opacity="0.54"/>
<stop offset="0.95" stop-color="white" stop-opacity="0"/>
</linearGradient>
<linearGradient id="paint1_linear_1169_57995" x1="252.14" y1="338.74" x2="129.12" y2="280.89" gradientUnits="userSpaceOnUse">
<stop stop-color="white" stop-opacity="0.54"/>
<stop offset="1" stop-color="white" stop-opacity="0"/>
</linearGradient>
<radialGradient id="paint2_radial_1169_57995" cx="0" cy="0" r="1" gradientUnits="userSpaceOnUse" gradientTransform="translate(272.498 554.981) rotate(-133.78) scale(152.68 72.23)">
<stop/>
<stop offset="1" stop-opacity="0"/>
</radialGradient>
<linearGradient id="paint3_linear_1169_57995" x1="277.485" y1="157.185" x2="280" y2="157.185" gradientUnits="userSpaceOnUse">
<stop stop-color="#313131"/>
<stop offset="0.630208" stop-color="#717174"/>
<stop offset="1" stop-color="#444445"/>
</linearGradient>
<linearGradient id="paint4_linear_1169_57995" x1="278.743" y1="136.647" x2="278.743" y2="176.467" gradientUnits="userSpaceOnUse">
<stop stop-color="#343434"/>
<stop offset="0.140406" stop-color="#353535" stop-opacity="0"/>
<stop offset="0.885417" stop-color="#494949" stop-opacity="0.525253"/>
<stop offset="1" stop-color="#1B1B1B"/>
</linearGradient>
<radialGradient id="paint5_radial_1169_57995" cx="0" cy="0" r="1" gradientUnits="userSpaceOnUse" gradientTransform="translate(278.114 138.742) rotate(90) scale(1.46707)">
<stop stop-color="white"/>
<stop offset="0.757464" stop-color="white" stop-opacity="0.35"/>
<stop offset="1" stop-color="white" stop-opacity="0"/>
</radialGradient>
<radialGradient id="paint6_radial_1169_57995" cx="0" cy="0" r="1" gradientUnits="userSpaceOnUse" gradientTransform="translate(30.599 31.018) rotate(90) scale(2.51497)">
<stop stop-color="#8EA1B9" stop-opacity="0"/>
<stop offset="0.395833" stop-color="#96A7BF" stop-opacity="0"/>
<stop offset="1" stop-color="#9BABC3"/>
</radialGradient>
<radialGradient id="paint7_radial_1169_57995" cx="0" cy="0" r="1" gradientUnits="userSpaceOnUse" gradientTransform="translate(30.599 29.9701) rotate(141.34) scale(1.34197)">
<stop stop-color="#8EA1B9"/>
<stop offset="1" stop-color="#90A2BA" stop-opacity="0"/>
</radialGradient>
<radialGradient id="paint8_radial_1169_57995" cx="0" cy="0" r="1" gradientUnits="userSpaceOnUse" gradientTransform="translate(31.8564 32.4851) rotate(-140.194) scale(1.63688)">
<stop stop-color="#A8CEFE"/>
<stop offset="1" stop-color="#90A2BA" stop-opacity="0"/>
</radialGradient>
<clipPath id="clip0_1169_57995">
<rect width="19.4865" height="19.4865" fill="white" transform="translate(179.58 513.046)"/>
</clipPath>
</defs>
</svg>
