<svg width="280" height="571" viewBox="0 0 280 571" fill="none" xmlns="http://www.w3.org/2000/svg">
<path d="M241.02 0H37.31C16.7 0 0 16.7 0 37.31V533.59C0 554.2 16.7 570.9 37.31 570.9H241.02C261.62 570.9 278.32 554.2 278.32 533.59V37.31C278.32 16.7 261.62 0 241.02 0V0ZM264.07 532.75C264.07 546.41 253 557.48 239.34 557.48H38.14C24.48 557.48 13.41 546.41 13.41 532.75V38.98C13.41 25.32 24.48 14.25 38.14 14.25H239.34C253 14.25 264.07 25.32 264.07 38.98V532.75Z" fill="#0C0C0C"/>
<g filter="url(#filter0_f_1169_57995)">
<path d="M39.8197 2.52H238.49C258.864 2.52 275.38 19.0362 275.38 39.41V531.5C275.38 551.874 258.864 568.39 238.49 568.39H39.8197C19.4459 568.39 2.92973 551.874 2.92973 531.5V39.41C2.92973 19.0362 19.4459 2.52 39.8197 2.52Z" stroke="white" stroke-opacity="0.4" stroke-width="0.42"/>
</g>
<path fill-rule="evenodd" clip-rule="evenodd" d="M36.8902 8.59001C21.3802 8.59001 8.8102 21.16 8.8102 36.67V530.02C8.8102 547.96 23.3502 562.5 41.2902 562.5V565.85C21.5002 565.85 5.4502 549.81 5.4502 530.01V36.68C5.4502 19.32 19.5202 5.24001 36.8902 5.24001H242.49C261.82 5.24001 277.49 20.91 277.49 40.24H274.14C274.14 22.76 259.97 8.59001 242.49 8.59001H36.8902V8.59001Z" fill="url(#paint0_linear_1169_57995)"/>
<path fill-rule="evenodd" clip-rule="evenodd" d="M201.2 5.66H241.44C258.8 5.66 272.88 19.73 272.88 37.1V534.44C272.88 551.8 258.8 565.88 241.44 565.88H37.5201C20.1601 565.88 6.08008 551.81 6.08008 534.44V500.7H9.43008V534.44C9.43008 549.95 22.0001 562.52 37.5101 562.52H241.44C256.95 562.52 269.52 549.95 269.52 534.44V37.1C269.52 21.59 256.95 9.02 241.44 9.02H201.2V5.67V5.66Z" fill="url(#paint1_linear_1169_57995)"/>
<path fill-rule="evenodd" clip-rule="evenodd" d="M201.2 5.66H241.44C258.8 5.66 272.88 19.73 272.88 37.1V534.44C272.88 551.8 258.8 565.88 241.44 565.88H37.5201C20.1601 565.88 6.08008 551.81 6.08008 534.44V500.7H9.43008V534.44C9.43008 549.95 22.0001 562.52 37.5101 562.52H241.44C256.95 562.52 269.52 549.95 269.52 534.44V37.1C269.52 21.59 256.95 9.02 241.44 9.02H201.2V5.67V5.66Z" fill="url(#paint2_radial_1169_57995)"/>
<path d="M241.86 8.38H36.4698C21.1898 8.38 8.7998 20.77 8.7998 36.05V534.85C8.7998 550.13 21.1898 562.52 36.4698 562.52H241.86C257.14 562.52 269.52 550.13 269.52 534.85V36.05C269.52 20.77 257.14 8.38 241.86 8.38V8.38ZM264.07 532.75C264.07 546.41 253 557.48 239.34 557.48H38.1398C24.4798 557.48 13.4098 546.41 13.4098 532.75V38.98C13.4098 25.32 24.4798 14.25 38.1398 14.25H239.34C253 14.25 264.07 25.32 264.07 38.98V532.75Z" fill="black"/>
<path d="M277.485 136.647H278.743C279.437 136.647 280 137.21 280 137.904V175.209C280 175.904 279.437 176.467 278.743 176.467H277.485V136.647Z" fill="#313232"/>
<path d="M277.485 136.647H278.743C279.437 136.647 280 137.21 280 137.904V175.209C280 175.904 279.437 176.467 278.743 176.467H277.485V136.647Z" fill="url(#paint3_linear_1169_57995)"/>
<path d="M277.485 136.647H278.743C279.437 136.647 280 137.21 280 137.904V175.209C280 175.904 279.437 176.467 278.743 176.467H277.485V136.647Z" fill="url(#paint4_linear_1169_57995)"/>
<path d="M277.485 136.647H278.743C279.437 136.647 280 137.21 280 137.904V175.209C280 175.904 279.437 176.467 278.743 176.467H277.485V136.647Z" fill="url(#paint5_radial_1169_57995)"/>
<path d="M277.485 215.03H278.743C279.437 215.03 280 215.593 280 216.287V293.413C280 294.107 279.437 294.67 278.743 294.67H277.485V215.03Z" fill="#070707"/>
<circle cx="30.5985" cy="31.0182" r="9.22156" fill="black"/>
<circle cx="30.5982" cy="31.0181" r="6.70659" fill="#0B0B0B"/>
<circle cx="30.5986" cy="31.018" r="3.77246" fill="#020202"/>
<path d="M30.599 33.533C29.21 33.533 29.3415 31.018 30.599 31.018C32.066 31.018 32.066 28.5031 30.599 28.5031M30.599 33.3234C30.3249 33.3234 30.1352 33.2037 30.0084 33.0207C29.8763 32.83 29.8087 32.5625 29.816 32.281C29.8234 31.9999 29.9051 31.728 30.044 31.5324C30.1796 31.3414 30.3644 31.2276 30.599 31.2276C31.0331 31.2276 31.3682 31.0384 31.5896 30.7537C31.8066 30.4747 31.9088 30.1126 31.9088 29.7606C31.9088 29.5061 31.8554 29.2464 31.7439 29.0166C32.4373 29.4141 32.9043 30.1615 32.9043 31.018C32.9043 32.2913 31.8722 33.3234 30.599 33.3234ZM30.599 28.7126C30.8983 28.7126 31.1134 28.8378 31.2587 29.0247C31.4085 29.2172 31.4897 29.4839 31.4897 29.7606C31.4897 30.0372 31.4085 30.3039 31.2587 30.4964C31.1134 30.6833 30.8983 30.8085 30.599 30.8085C30.2048 30.8085 29.9016 31.009 29.7023 31.2896C29.5063 31.5656 29.4061 31.9224 29.397 32.27C29.3898 32.5453 29.4394 32.8294 29.5573 33.0752C28.8074 32.6948 28.2936 31.9164 28.2936 31.018C28.2936 29.7448 29.3257 28.7126 30.599 28.7126Z" fill="url(#paint6_radial_1169_57995)" fill-opacity="0.5"/>
<path d="M30.599 33.533C29.21 33.533 29.3415 31.018 30.599 31.018C32.066 31.018 32.066 28.5031 30.599 28.5031M30.599 33.3234C30.3249 33.3234 30.1352 33.2037 30.0084 33.0207C29.8763 32.83 29.8087 32.5625 29.816 32.281C29.8234 31.9999 29.9051 31.728 30.044 31.5324C30.1796 31.3414 30.3644 31.2276 30.599 31.2276C31.0331 31.2276 31.3682 31.0384 31.5896 30.7537C31.8066 30.4747 31.9088 30.1126 31.9088 29.7606C31.9088 29.5061 31.8554 29.2464 31.7439 29.0166C32.4373 29.4141 32.9043 30.1615 32.9043 31.018C32.9043 32.2913 31.8722 33.3234 30.599 33.3234ZM30.599 28.7126C30.8983 28.7126 31.1134 28.8378 31.2587 29.0247C31.4085 29.2172 31.4897 29.4839 31.4897 29.7606C31.4897 30.0372 31.4085 30.3039 31.2587 30.4964C31.1134 30.6833 30.8983 30.8085 30.599 30.8085C30.2048 30.8085 29.9016 31.009 29.7023 31.2896C29.5063 31.5656 29.4061 31.9224 29.397 32.27C29.3898 32.5453 29.4394 32.8294 29.5573 33.0752C28.8074 32.6948 28.2936 31.9164 28.2936 31.018C28.2936 29.7448 29.3257 28.7126 30.599 28.7126Z" fill="url(#paint7_radial_1169_57995)"/>
<path d="M30.599 33.533C29.21 33.533 29.3415 31.018 30.599 31.018C32.066 31.018 32.066 28.5031 30.599 28.5031M30.599 33.3234C30.3249 33.3234 30.1352 33.2037 30.0084 33.0207C29.8763 32.83 29.8087 32.5625 29.816 32.281C29.8234 31.9999 29.9051 31.728 30.044 31.5324C30.1796 31.3414 30.3644 31.2276 30.599 31.2276C31.0331 31.2276 31.3682 31.0384 31.5896 30.7537C31.8066 30.4747 31.9088 30.1126 31.9088 29.7606C31.9088 29.5061 31.8554 29.2464 31.7439 29.0166C32.4373 29.4141 32.9043 30.1615 32.9043 31.018C32.9043 32.2913 31.8722 33.3234 30.599 33.3234ZM30.599 28.7126C30.8983 28.7126 31.1134 28.8378 31.2587 29.0247C31.4085 29.2172 31.4897 29.4839 31.4897 29.7606C31.4897 30.0372 31.4085 30.3039 31.2587 30.4964C31.1134 30.6833 30.8983 30.8085 30.599 30.8085C30.2048 30.8085 29.9016 31.009 29.7023 31.2896C29.5063 31.5656 29.4061 31.9224 29.397 32.27C29.3898 32.5453 29.4394 32.8294 29.5573 33.0752C28.8074 32.6948 28.2936 31.9164 28.2936 31.018C28.2936 29.7448 29.3257 28.7126 30.599 28.7126Z" fill="url(#paint8_radial_1169_57995)"/>
<path d="M30.599 33.533C29.21 33.533 29.3415 31.018 30.599 31.018C32.066 31.018 32.066 28.5031 30.599 28.5031M30.599 33.3234C30.3249 33.3234 30.1352 33.2037 30.0084 33.0207C29.8763 32.83 29.8087 32.5625 29.816 32.281C29.8234 31.9999 29.9051 31.728 30.044 31.5324C30.1796 31.3414 30.3644 31.2276 30.599 31.2276C31.0331 31.2276 31.3682 31.0384 31.5896 30.7537C31.8066 30.4747 31.9088 30.1126 31.9088 29.7606C31.9088 29.5061 31.8554 29.2464 31.7439 29.0166C32.4373 29.4141 32.9043 30.1615 32.9043 31.018C32.9043 32.2913 31.8722 33.3234 30.599 33.3234ZM30.599 28.7126C30.8983 28.7126 31.1134 28.8378 31.2587 29.0247C31.4085 29.2172 31.4897 29.4839 31.4897 29.7606C31.4897 30.0372 31.4085 30.3039 31.2587 30.4964C31.1134 30.6833 30.8983 30.8085 30.599 30.8085C30.2048 30.8085 29.9016 31.009 29.7023 31.2896C29.5063 31.5656 29.4061 31.9224 29.397 32.27C29.3898 32.5453 29.4394 32.8294 29.5573 33.0752C28.8074 32.6948 28.2936 31.9164 28.2936 31.018C28.2936 29.7448 29.3257 28.7126 30.599 28.7126Z" stroke="#020202" stroke-width="0.419162"/>
<path d="M13 14H264V40H13V14Z" fill="black" fill-opacity="0.1"/>
<path d="M47.9155 25.1367V33H46.9219V26.3774L44.9185 27.1079V26.2109L47.7598 25.1367H47.9155ZM55.9614 32.1836V33H50.8428V32.2856L53.4048 29.4336C53.7199 29.0827 53.9634 28.7855 54.1353 28.542C54.3107 28.2949 54.4325 28.0747 54.5005 27.8813C54.5721 27.6844 54.6079 27.4839 54.6079 27.2798C54.6079 27.022 54.5542 26.7892 54.4468 26.5815C54.3429 26.3703 54.189 26.202 53.9849 26.0767C53.7808 25.9513 53.5337 25.8887 53.2437 25.8887C52.8963 25.8887 52.6063 25.9567 52.3735 26.0928C52.1444 26.2253 51.9725 26.4115 51.8579 26.6514C51.7433 26.8913 51.686 27.167 51.686 27.4785H50.6924C50.6924 27.0381 50.7891 26.6353 50.9824 26.27C51.1758 25.9048 51.4622 25.6147 51.8418 25.3999C52.2214 25.1815 52.6886 25.0723 53.2437 25.0723C53.7378 25.0723 54.1603 25.16 54.5112 25.3354C54.8621 25.5073 55.1307 25.7508 55.3169 26.0659C55.5067 26.3774 55.6016 26.7427 55.6016 27.1616C55.6016 27.3908 55.5622 27.6235 55.4834 27.8599C55.4082 28.0926 55.3026 28.3254 55.1665 28.5581C55.034 28.7909 54.8783 29.02 54.6992 29.2456C54.5238 29.4712 54.3358 29.6932 54.1353 29.9116L52.0405 32.1836H55.9614ZM57.0894 32.4736C57.0894 32.3053 57.1413 32.1639 57.2451 32.0493C57.3525 31.9312 57.5065 31.8721 57.707 31.8721C57.9076 31.8721 58.0597 31.9312 58.1636 32.0493C58.271 32.1639 58.3247 32.3053 58.3247 32.4736C58.3247 32.6383 58.271 32.778 58.1636 32.8926C58.0597 33.0072 57.9076 33.0645 57.707 33.0645C57.5065 33.0645 57.3525 33.0072 57.2451 32.8926C57.1413 32.778 57.0894 32.6383 57.0894 32.4736ZM57.0947 27.731C57.0947 27.5627 57.1466 27.4212 57.2505 27.3066C57.3579 27.1885 57.5119 27.1294 57.7124 27.1294C57.9129 27.1294 58.0651 27.1885 58.1689 27.3066C58.2764 27.4212 58.3301 27.5627 58.3301 27.731C58.3301 27.8957 58.2764 28.0353 58.1689 28.1499C58.0651 28.2645 57.9129 28.3218 57.7124 28.3218C57.5119 28.3218 57.3579 28.2645 57.2505 28.1499C57.1466 28.0353 57.0947 27.8957 57.0947 27.731ZM64.813 32.1836V33H59.6943V32.2856L62.2563 29.4336C62.5715 29.0827 62.8149 28.7855 62.9868 28.542C63.1623 28.2949 63.284 28.0747 63.3521 27.8813C63.4237 27.6844 63.4595 27.4839 63.4595 27.2798C63.4595 27.022 63.4058 26.7892 63.2983 26.5815C63.1945 26.3703 63.0405 26.202 62.8364 26.0767C62.6323 25.9513 62.3853 25.8887 62.0952 25.8887C61.7479 25.8887 61.4578 25.9567 61.2251 26.0928C60.9959 26.2253 60.8241 26.4115 60.7095 26.6514C60.5949 26.8913 60.5376 27.167 60.5376 27.4785H59.5439C59.5439 27.0381 59.6406 26.6353 59.834 26.27C60.0273 25.9048 60.3138 25.6147 60.6934 25.3999C61.0729 25.1815 61.5402 25.0723 62.0952 25.0723C62.5894 25.0723 63.0119 25.16 63.3628 25.3354C63.7137 25.5073 63.9823 25.7508 64.1685 26.0659C64.3582 26.3774 64.4531 26.7427 64.4531 27.1616C64.4531 27.3908 64.4137 27.6235 64.335 27.8599C64.2598 28.0926 64.1541 28.3254 64.0181 28.5581C63.8856 28.7909 63.7298 29.02 63.5508 29.2456C63.3753 29.4712 63.1873 29.6932 62.9868 29.9116L60.8921 32.1836H64.813ZM67.1333 29.2778L66.3384 29.0737L66.7305 25.1797H70.7427V26.0981H67.5737L67.3374 28.2251C67.4806 28.1427 67.6615 28.0658 67.8799 27.9941C68.1019 27.9225 68.3561 27.8867 68.6426 27.8867C69.0042 27.8867 69.3283 27.9494 69.6147 28.0747C69.9012 28.1965 70.1447 28.3719 70.3452 28.6011C70.5493 28.8302 70.7051 29.106 70.8125 29.4282C70.9199 29.7505 70.9736 30.1104 70.9736 30.5078C70.9736 30.8838 70.9217 31.2293 70.8179 31.5444C70.7176 31.8595 70.5654 32.1353 70.3613 32.3716C70.1572 32.6043 69.8994 32.7852 69.5879 32.9141C69.2799 33.043 68.9165 33.1074 68.4976 33.1074C68.1825 33.1074 67.8835 33.0645 67.6006 32.9785C67.3213 32.889 67.0706 32.7547 66.8486 32.5757C66.6302 32.3931 66.4512 32.1675 66.3115 31.8989C66.1755 31.6268 66.0895 31.3081 66.0537 30.9429H66.999C67.042 31.2365 67.1279 31.4836 67.2568 31.6841C67.3857 31.8846 67.554 32.0368 67.7617 32.1406C67.973 32.2409 68.2183 32.291 68.4976 32.291C68.7339 32.291 68.9434 32.2498 69.126 32.1675C69.3086 32.0851 69.4626 31.967 69.5879 31.813C69.7132 31.659 69.8081 31.4728 69.8726 31.2544C69.9406 31.036 69.9746 30.7907 69.9746 30.5186C69.9746 30.2715 69.9406 30.0423 69.8726 29.8311C69.8045 29.6198 69.7025 29.4354 69.5664 29.2778C69.4339 29.1203 69.271 28.9985 69.0776 28.9126C68.8843 28.8231 68.6623 28.7783 68.4116 28.7783C68.0786 28.7783 67.8262 28.8231 67.6543 28.9126C67.486 29.0021 67.3123 29.1239 67.1333 29.2778Z" fill="white"/>
<path d="M244.872 29.0625H250.117V32.5416C250.117 32.7948 249.911 33 249.658 33H245.33C245.077 33 244.872 32.7948 244.872 32.5416V29.0625Z" fill="white"/>
<path d="M244.872 25.8646C244.872 25.6115 245.077 25.4062 245.33 25.4062H249.658C249.911 25.4062 250.117 25.6115 250.117 25.8646V29.0625H244.872V25.8646Z" fill="white" fill-opacity="0.35"/>
<path d="M246.184 24.4584C246.184 24.2052 246.389 24 246.642 24H248.348C248.601 24 248.806 24.2052 248.806 24.4584V25.4063H246.184V24.4584Z" fill="white" fill-opacity="0.35"/>
<line x1="212.6" y1="31.1021" x2="212.6" y2="32.5134" stroke="white" stroke-width="1.2" stroke-linecap="round"/>
<line x1="215.035" y1="28.4907" x2="215.035" y2="32.5134" stroke="white" stroke-width="1.2" stroke-linecap="round"/>
<line x1="217.164" y1="26.2058" x2="217.164" y2="32.5134" stroke="white" stroke-width="1.2" stroke-linecap="round"/>
<line x1="219.6" y1="24.2473" x2="219.6" y2="32.5134" stroke="white" stroke-opacity="0.35" stroke-width="1.2" stroke-linecap="round"/>
<path d="M224.475 29.2778L223.68 29.0737L224.072 25.1797H228.084V26.0981H224.916L224.679 28.2251C224.822 28.1427 225.003 28.0658 225.222 27.9941C225.444 27.9225 225.698 27.8867 225.984 27.8867C226.346 27.8867 226.67 27.9494 226.957 28.0747C227.243 28.1965 227.486 28.3719 227.687 28.6011C227.891 28.8302 228.047 29.106 228.154 29.4282C228.262 29.7505 228.315 30.1104 228.315 30.5078C228.315 30.8838 228.264 31.2293 228.16 31.5444C228.059 31.8595 227.907 32.1353 227.703 32.3716C227.499 32.6043 227.241 32.7852 226.93 32.9141C226.622 33.043 226.258 33.1074 225.839 33.1074C225.524 33.1074 225.225 33.0645 224.942 32.9785C224.663 32.889 224.412 32.7547 224.19 32.5757C223.972 32.3931 223.793 32.1675 223.653 31.8989C223.517 31.6268 223.431 31.3081 223.396 30.9429H224.341C224.384 31.2365 224.47 31.4836 224.599 31.6841C224.728 31.8846 224.896 32.0368 225.104 32.1406C225.315 32.2409 225.56 32.291 225.839 32.291C226.076 32.291 226.285 32.2498 226.468 32.1675C226.65 32.0851 226.804 31.967 226.93 31.813C227.055 31.659 227.15 31.4728 227.214 31.2544C227.282 31.036 227.316 30.7907 227.316 30.5186C227.316 30.2715 227.282 30.0423 227.214 29.8311C227.146 29.6198 227.044 29.4354 226.908 29.2778C226.776 29.1203 226.613 28.9985 226.419 28.9126C226.226 28.8231 226.004 28.7783 225.753 28.7783C225.42 28.7783 225.168 28.8231 224.996 28.9126C224.828 29.0021 224.654 29.1239 224.475 29.2778ZM230.856 28.6011H231.565C231.912 28.6011 232.199 28.5438 232.424 28.4292C232.653 28.311 232.824 28.1517 232.935 27.9512C233.049 27.7471 233.106 27.5179 233.106 27.2637C233.106 26.9629 233.056 26.7104 232.956 26.5063C232.856 26.3022 232.705 26.1483 232.505 26.0444C232.304 25.9406 232.05 25.8887 231.742 25.8887C231.463 25.8887 231.216 25.9442 231.001 26.0552C230.79 26.1626 230.623 26.3166 230.501 26.5171C230.383 26.7176 230.324 26.9539 230.324 27.2261H229.331C229.331 26.8286 229.431 26.467 229.631 26.1411C229.832 25.8153 230.113 25.5557 230.475 25.3623C230.84 25.1689 231.262 25.0723 231.742 25.0723C232.215 25.0723 232.628 25.1564 232.983 25.3247C233.337 25.4894 233.613 25.7365 233.81 26.0659C234.007 26.3918 234.105 26.7982 234.105 27.2852C234.105 27.4821 234.059 27.6934 233.966 27.9189C233.876 28.141 233.735 28.3486 233.542 28.542C233.352 28.7354 233.105 28.8947 232.8 29.02C232.496 29.1418 232.131 29.2026 231.705 29.2026H230.856V28.6011ZM230.856 29.4175V28.8213H231.705C232.202 28.8213 232.614 28.8804 232.94 28.9985C233.266 29.1167 233.522 29.2743 233.708 29.4712C233.898 29.6681 234.03 29.8848 234.105 30.1211C234.184 30.3538 234.224 30.5866 234.224 30.8193C234.224 31.1846 234.161 31.5086 234.036 31.7915C233.914 32.0744 233.74 32.3143 233.515 32.5112C233.293 32.7082 233.031 32.8568 232.73 32.957C232.43 33.0573 232.102 33.1074 231.748 33.1074C231.407 33.1074 231.087 33.0591 230.786 32.9624C230.489 32.8657 230.226 32.7261 229.997 32.5435C229.767 32.3573 229.588 32.1299 229.459 31.8613C229.331 31.5892 229.266 31.2795 229.266 30.9321H230.26C230.26 31.2043 230.319 31.4424 230.437 31.6465C230.559 31.8506 230.731 32.0099 230.953 32.1245C231.178 32.2355 231.443 32.291 231.748 32.291C232.052 32.291 232.313 32.2391 232.532 32.1353C232.754 32.0278 232.924 31.8667 233.042 31.6519C233.164 31.437 233.225 31.1667 233.225 30.8408C233.225 30.515 233.157 30.2482 233.021 30.0405C232.884 29.8293 232.691 29.6735 232.44 29.5732C232.193 29.4694 231.902 29.4175 231.565 29.4175H230.856ZM235.507 27.0972V26.6836C235.507 26.3864 235.572 26.116 235.701 25.8726C235.83 25.6291 236.014 25.4339 236.254 25.2871C236.494 25.1403 236.778 25.0669 237.108 25.0669C237.444 25.0669 237.731 25.1403 237.967 25.2871C238.207 25.4339 238.392 25.6291 238.521 25.8726C238.649 26.116 238.714 26.3864 238.714 26.6836V27.0972C238.714 27.3872 238.649 27.654 238.521 27.8975C238.395 28.141 238.213 28.3361 237.973 28.4829C237.736 28.6297 237.452 28.7031 237.119 28.7031C236.786 28.7031 236.497 28.6297 236.254 28.4829C236.014 28.3361 235.83 28.141 235.701 27.8975C235.572 27.654 235.507 27.3872 235.507 27.0972ZM236.254 26.6836V27.0972C236.254 27.2619 236.284 27.4176 236.345 27.5645C236.41 27.7113 236.506 27.8312 236.635 27.9243C236.764 28.0138 236.925 28.0586 237.119 28.0586C237.312 28.0586 237.471 28.0138 237.597 27.9243C237.722 27.8312 237.815 27.7113 237.876 27.5645C237.937 27.4176 237.967 27.2619 237.967 27.0972V26.6836C237.967 26.5153 237.935 26.3577 237.871 26.2109C237.81 26.0605 237.715 25.9406 237.586 25.8511C237.461 25.758 237.301 25.7114 237.108 25.7114C236.918 25.7114 236.759 25.758 236.63 25.8511C236.505 25.9406 236.41 26.0605 236.345 26.2109C236.284 26.3577 236.254 26.5153 236.254 26.6836ZM239.315 31.5015V31.0825C239.315 30.7889 239.38 30.5203 239.509 30.2769C239.638 30.0334 239.822 29.8382 240.062 29.6914C240.302 29.5446 240.587 29.4712 240.916 29.4712C241.253 29.4712 241.539 29.5446 241.775 29.6914C242.015 29.8382 242.2 30.0334 242.329 30.2769C242.458 30.5203 242.522 30.7889 242.522 31.0825V31.5015C242.522 31.7951 242.458 32.0636 242.329 32.3071C242.203 32.5506 242.021 32.7458 241.781 32.8926C241.544 33.0394 241.26 33.1128 240.927 33.1128C240.594 33.1128 240.307 33.0394 240.067 32.8926C239.827 32.7458 239.641 32.5506 239.509 32.3071C239.38 32.0636 239.315 31.7951 239.315 31.5015ZM240.062 31.0825V31.5015C240.062 31.6662 240.092 31.8237 240.153 31.9741C240.218 32.1209 240.314 32.2409 240.443 32.334C240.572 32.4235 240.733 32.4683 240.927 32.4683C241.12 32.4683 241.279 32.4235 241.405 32.334C241.534 32.2409 241.629 32.1209 241.689 31.9741C241.75 31.8273 241.781 31.6698 241.781 31.5015V31.0825C241.781 30.9142 241.749 30.7567 241.684 30.6099C241.623 30.4631 241.528 30.3449 241.399 30.2554C241.274 30.1623 241.113 30.1157 240.916 30.1157C240.726 30.1157 240.567 30.1623 240.438 30.2554C240.313 30.3449 240.218 30.4631 240.153 30.6099C240.092 30.7567 240.062 30.9142 240.062 31.0825ZM241.163 26.2915L237.344 32.4038L236.786 32.0493L240.604 25.937L241.163 26.2915Z" fill="white"/>
<rect x="13" y="547.843" width="251" height="9.74324" fill="black" fill-opacity="0.1"/>
<line x1="100.848" y1="552.715" x2="176.153" y2="552.715" stroke="white" stroke-width="2.78378" stroke-linecap="round"/>
<g filter="url(#filter1_b_1169_57995)">
<rect x="18" y="501.911" width="241.239" height="41.7568" rx="20.8784" fill="black" fill-opacity="0.4"/>
<rect x="18.174" y="502.085" width="240.891" height="41.4088" rx="20.7044" stroke="white" stroke-opacity="0.4" stroke-width="0.347973"/>
</g>
<path d="M37.3387 528.529C38.5157 529.706 40.0258 530.492 41.6645 530.783C43.3033 531.073 44.9917 530.853 46.5014 530.153C46.8628 529.975 47.2539 529.865 47.6551 529.828C48.6189 529.834 49.8181 530.768 50.4417 530.146C51.0653 529.523 50.1299 528.322 50.1299 527.353C50.1638 526.954 50.2715 526.564 50.4474 526.205C51.0718 524.858 51.3151 523.365 51.1507 521.89C50.9863 520.415 50.4206 519.013 49.515 517.836C48.6094 516.66 47.3987 515.754 46.0144 515.218C44.6301 514.682 43.1253 514.535 41.6636 514.795C40.2019 515.054 38.8392 515.709 37.7237 516.688C36.6082 517.668 35.7827 518.935 35.3368 520.35C34.8909 521.766 34.8418 523.278 35.1947 524.72C35.5477 526.162 36.2892 527.479 37.3387 528.529V528.529Z" stroke="white" stroke-width="1.04392" stroke-linecap="round" stroke-linejoin="round"/>
<path d="M39.8805 523.94C39.9866 523.939 40.0916 523.917 40.189 523.875C40.3843 523.788 40.5405 523.632 40.6275 523.437C40.6691 523.339 40.6911 523.234 40.6924 523.128C40.6921 523.019 40.67 522.912 40.6275 522.811C40.5881 522.713 40.5271 522.624 40.4488 522.552C40.2943 522.405 40.0895 522.323 39.8764 522.323C39.6634 522.323 39.4585 522.405 39.304 522.552C39.2309 522.628 39.1706 522.716 39.1254 522.811C39.0855 522.912 39.0662 523.02 39.0686 523.128C39.0683 523.234 39.089 523.338 39.1294 523.436C39.1698 523.533 39.2292 523.622 39.304 523.696C39.3792 523.773 39.4689 523.834 39.5678 523.876C39.6668 523.918 39.7731 523.94 39.8805 523.94" fill="white"/>
<path d="M43.1354 523.94C43.3521 523.938 43.5593 523.85 43.7118 523.696C43.8591 523.543 43.9432 523.34 43.9473 523.128C43.9461 523.019 43.9241 522.912 43.8824 522.811C43.8629 522.763 43.8384 522.717 43.8093 522.673C43.7809 522.63 43.7482 522.589 43.7118 522.552C43.6354 522.475 43.5443 522.414 43.4439 522.373C43.2444 522.294 43.0218 522.295 42.8233 522.377C42.6248 522.459 42.4659 522.614 42.3803 522.811C42.3404 522.912 42.3211 523.02 42.3234 523.128C42.3218 523.234 42.3412 523.339 42.3803 523.437C42.4226 523.534 42.4832 523.622 42.5589 523.696C42.631 523.775 42.7198 523.836 42.8187 523.875C42.919 523.917 43.0266 523.939 43.1354 523.94" fill="white"/>
<path d="M46.3913 523.94C46.4975 523.939 46.6024 523.917 46.6999 523.875C46.7988 523.836 46.8876 523.775 46.9597 523.696C47.0357 523.622 47.0963 523.534 47.1381 523.437C47.1799 523.339 47.202 523.234 47.2033 523.128C47.2029 523.019 47.1809 522.912 47.1383 522.811C47.099 522.713 47.038 522.624 46.9597 522.552C46.8452 522.44 46.7007 522.363 46.5436 522.331C46.3866 522.3 46.2237 522.314 46.0747 522.373C45.9758 522.412 45.887 522.473 45.8149 522.552C45.7736 522.586 45.7379 522.628 45.7093 522.673C45.685 522.714 45.6606 522.763 45.6362 522.811C45.5945 522.912 45.5725 523.019 45.5713 523.128C45.5726 523.234 45.5946 523.339 45.6362 523.437C45.6756 523.536 45.7366 523.624 45.8149 523.696C45.8901 523.773 45.9797 523.834 46.0787 523.876C46.1777 523.918 46.2839 523.94 46.3913 523.94" fill="white"/>
<path d="M87.3074 530.277C91.6172 530.277 95.111 526.783 95.111 522.473C95.111 518.164 91.6172 514.67 87.3074 514.67C82.9977 514.67 79.5039 518.164 79.5039 522.473C79.5039 526.783 82.9977 530.277 87.3074 530.277Z" stroke="white" stroke-width="1.04392" stroke-linecap="round" stroke-linejoin="round"/>
<path d="M84.5947 525.184L85.8881 521.054L90.0185 519.761L88.725 523.893L84.5947 525.184Z" stroke="white" stroke-width="1.04392" stroke-linecap="round" stroke-linejoin="round"/>
<g clip-path="url(#clip0_1169_57995)">
<path d="M190.444 530.048H183.381C181.732 530.048 180.393 528.708 180.393 527.06V519.282C180.393 517.633 181.732 516.294 183.381 516.294H190.444C192.093 516.294 193.432 517.633 193.432 519.282V527.06C193.424 528.708 192.093 530.048 190.444 530.048Z" stroke="white" stroke-width="1.04392" stroke-linecap="round" stroke-linejoin="round"/>
<path d="M195.584 519.866L194.123 520.865C193.692 521.157 193.433 521.693 193.433 522.278V524.064C193.433 524.649 193.692 525.184 194.123 525.477L195.584 526.475C196.502 527.109 197.655 526.321 197.655 525.063V521.279C197.655 520.02 196.502 519.233 195.584 519.866Z" stroke="white" stroke-width="1.04392" stroke-linecap="round" stroke-linejoin="round"/>
<path d="M185.744 520.102C185.744 520.394 185.655 520.686 185.492 520.93C185.33 521.173 185.094 521.368 184.826 521.482C184.55 521.596 184.25 521.628 183.966 521.563C183.665 521.506 183.405 521.368 183.194 521.157C182.983 520.946 182.845 520.686 182.788 520.394C182.732 520.102 182.764 519.801 182.87 519.533C182.983 519.257 183.178 519.022 183.422 518.859C183.665 518.697 183.958 518.608 184.25 518.608C184.648 518.608 185.021 518.762 185.305 519.046C185.581 519.33 185.744 519.704 185.744 520.102Z" stroke="white" stroke-width="1.04392" stroke-linecap="round" stroke-linejoin="round"/>
</g>
<path d="M234.002 525.635C230.86 525.635 228.181 526.11 228.181 528.012C228.181 529.913 230.845 530.404 234.002 530.404C237.143 530.404 239.824 529.929 239.824 528.028C239.824 526.127 237.16 525.635 234.002 525.635Z" stroke="white" stroke-width="1.04392" stroke-linecap="round" stroke-linejoin="round"/>
<path d="M234.005 522.919C234.99 522.916 235.934 522.521 236.628 521.823C237.323 521.125 237.712 520.179 237.711 519.194C237.709 518.209 237.317 517.265 236.619 516.569C235.922 515.873 234.977 515.482 233.992 515.482C233.007 515.482 232.062 515.873 231.365 516.569C230.668 517.265 230.275 518.209 230.273 519.194C230.272 520.179 230.661 521.125 231.356 521.823C232.05 522.521 232.994 522.916 233.979 522.919H234.005Z" stroke="white" stroke-width="0.994507" stroke-linecap="round" stroke-linejoin="round"/>
<g filter="url(#filter2_d_1169_57995)">
<circle cx="138.427" cy="522.789" r="16.0068" fill="white"/>
</g>
<path fill-rule="evenodd" clip-rule="evenodd" d="M138.442 515.83C138.835 515.83 139.153 516.148 139.153 516.541V529.347C139.153 529.739 138.835 530.058 138.442 530.058C138.049 530.058 137.73 529.739 137.73 529.347V516.541C137.73 516.148 138.049 515.83 138.442 515.83Z" fill="#111111"/>
<path fill-rule="evenodd" clip-rule="evenodd" d="M131.467 522.774C131.467 522.381 131.785 522.062 132.178 522.062H144.984C145.377 522.062 145.695 522.381 145.695 522.774C145.695 523.167 145.377 523.485 144.984 523.485H132.178C131.785 523.485 131.467 523.167 131.467 522.774Z" fill="#111111"/>
<path d="M84.8237 26.508L83.6691 27.9609C83.5909 28.0529 83.5126 28.1264 83.3952 28.1816C83.2973 28.2368 83.1799 28.2736 83.0625 28.292C82.9451 28.3103 82.8277 28.3103 82.7103 28.2736C82.5928 28.2368 82.495 28.2 82.3972 28.1264L82.3776 28.108C82.2602 28.0345 82.1819 27.9241 82.1036 27.8138C82.0449 27.7034 82.0058 27.5563 82.0058 27.4276V26.8759C81.7318 26.8759 81.4774 26.9862 81.2817 27.1517C81.086 27.3356 80.9882 27.5747 80.9882 27.8322V32.0437C80.9882 32.5586 80.5773 32.9816 80.0293 33C79.8924 33 79.7554 32.9816 79.638 32.9448C79.5205 32.908 79.4031 32.8345 79.3053 32.7425C79.2074 32.6506 79.1292 32.5586 79.0705 32.4299C79.0118 32.3195 78.9922 32.1908 78.9922 32.0621V27.8322C78.9922 27.4644 79.0705 27.0966 79.227 26.7471C79.3836 26.3977 79.5988 26.0851 79.8728 25.8276C80.1467 25.5701 80.4794 25.3494 80.8512 25.2207C81.223 25.0736 81.6144 25 82.0058 25H84.0018C84.5889 25 84.9998 25.3862 84.9998 25.9379C84.9998 26.1586 84.9411 26.3609 84.8237 26.508Z" fill="white"/>
<path d="M77.5048 25H75.9784C75.4501 25 75 25.4046 75 25.9195V25.9379C75 26.4529 75.4501 26.8575 75.9784 26.8575H77.5048C78.0527 26.8575 78.4832 26.4529 78.4832 25.9379V25.9195C78.5028 25.4046 78.0527 25 77.5048 25Z" fill="white"/>
<g filter="url(#filter3_d_1169_57995)">
<path d="M112.823 51.8194V58.7538H111.637V51.8194H112.823ZM115 51.8194V52.772H109.48V51.8194H115ZM117.029 53.6006V58.7538H115.876V53.6006H117.029ZM115.8 52.2481C115.8 52.0734 115.857 51.929 115.971 51.8147C116.089 51.6972 116.251 51.6385 116.457 51.6385C116.66 51.6385 116.821 51.6972 116.938 51.8147C117.056 51.929 117.114 52.0734 117.114 52.2481C117.114 52.4195 117.056 52.5624 116.938 52.6767C116.821 52.791 116.66 52.8482 116.457 52.8482C116.251 52.8482 116.089 52.791 115.971 52.6767C115.857 52.5624 115.8 52.4195 115.8 52.2481ZM119.424 54.7008V58.7538H118.276V53.6006H119.358L119.424 54.7008ZM119.219 55.9867L118.848 55.9819C118.851 55.6168 118.902 55.2818 119 54.977C119.102 54.6722 119.242 54.4103 119.419 54.1912C119.6 53.9721 119.816 53.8039 120.067 53.6864C120.318 53.5657 120.597 53.5054 120.905 53.5054C121.153 53.5054 121.377 53.5403 121.577 53.6102C121.78 53.6768 121.953 53.7864 122.096 53.9388C122.242 54.0912 122.353 54.2896 122.429 54.5341C122.506 54.7754 122.544 55.0723 122.544 55.4247V58.7538H121.391V55.42C121.391 55.1723 121.355 54.977 121.282 54.8342C121.212 54.6881 121.109 54.5849 120.972 54.5246C120.839 54.4611 120.672 54.4293 120.472 54.4293C120.275 54.4293 120.099 54.4706 119.943 54.5532C119.788 54.6357 119.656 54.7484 119.548 54.8913C119.443 55.0342 119.362 55.1993 119.305 55.3866C119.248 55.5739 119.219 55.774 119.219 55.9867ZM126.606 57.3583C126.606 57.244 126.578 57.1408 126.52 57.0488C126.463 56.9535 126.354 56.8678 126.192 56.7916C126.033 56.7154 125.798 56.6455 125.487 56.582C125.214 56.5217 124.963 56.4503 124.735 56.3677C124.509 56.282 124.315 56.1788 124.153 56.0581C123.992 55.9375 123.866 55.7946 123.777 55.6295C123.688 55.4644 123.644 55.2739 123.644 55.058C123.644 54.8484 123.69 54.65 123.782 54.4627C123.874 54.2753 124.006 54.1102 124.177 53.9674C124.349 53.8245 124.557 53.7118 124.801 53.6292C125.049 53.5467 125.325 53.5054 125.63 53.5054C126.062 53.5054 126.432 53.5784 126.74 53.7245C127.051 53.8674 127.289 54.0626 127.454 54.3103C127.619 54.5547 127.702 54.831 127.702 55.139H126.554C126.554 55.0024 126.519 54.8754 126.449 54.758C126.382 54.6373 126.281 54.5405 126.144 54.4674C126.008 54.3912 125.836 54.3531 125.63 54.3531C125.433 54.3531 125.27 54.3849 125.139 54.4484C125.012 54.5087 124.917 54.5881 124.854 54.6865C124.793 54.7849 124.763 54.8929 124.763 55.0104C124.763 55.0961 124.779 55.1739 124.811 55.2437C124.846 55.3104 124.903 55.3723 124.982 55.4295C125.062 55.4835 125.17 55.5343 125.306 55.5819C125.446 55.6295 125.62 55.6755 125.83 55.72C126.224 55.8025 126.562 55.9089 126.844 56.0391C127.13 56.1661 127.349 56.3312 127.502 56.5344C127.654 56.7344 127.73 56.9884 127.73 57.2964C127.73 57.525 127.681 57.7346 127.583 57.9251C127.487 58.1124 127.348 58.2759 127.163 58.4156C126.979 58.5521 126.759 58.6585 126.501 58.7347C126.247 58.8109 125.962 58.849 125.644 58.849C125.177 58.849 124.782 58.7665 124.458 58.6014C124.134 58.4331 123.888 58.2188 123.72 57.9584C123.555 57.6949 123.472 57.4218 123.472 57.1392H124.582C124.595 57.352 124.654 57.5218 124.758 57.6488C124.866 57.7727 125 57.8632 125.158 57.9203C125.32 57.9743 125.487 58.0013 125.658 58.0013C125.865 58.0013 126.038 57.9743 126.178 57.9203C126.317 57.8632 126.424 57.787 126.497 57.6917C126.57 57.5933 126.606 57.4821 126.606 57.3583Z" fill="white"/>
</g>
<path d="M137.898 59.0856V51.4219" stroke="white" stroke-opacity="0.2" stroke-width="1.39339" stroke-linecap="round"/>
<path d="M150.696 57.7012L152.739 51.8194H153.734L151.167 58.7538H150.458L150.696 57.7012ZM148.786 51.8194L150.81 57.7012L151.062 58.7538H150.353L147.79 51.8194H148.786ZM155.492 53.6006V58.7538H154.606V53.6006H155.492ZM154.539 52.2338C154.539 52.0909 154.582 51.9703 154.668 51.8718C154.757 51.7734 154.887 51.7242 155.058 51.7242C155.226 51.7242 155.355 51.7734 155.444 51.8718C155.536 51.9703 155.582 52.0909 155.582 52.2338C155.582 52.3703 155.536 52.4878 155.444 52.5862C155.355 52.6815 155.226 52.7291 155.058 52.7291C154.887 52.7291 154.757 52.6815 154.668 52.5862C154.582 52.4878 154.539 52.3703 154.539 52.2338ZM156.901 51.4384H157.787V57.7536L157.711 58.7538H156.901V51.4384ZM161.269 56.1343V56.2344C161.269 56.609 161.224 56.9567 161.135 57.2774C161.046 57.5949 160.916 57.8711 160.745 58.106C160.573 58.341 160.364 58.5236 160.116 58.6537C159.868 58.7839 159.584 58.849 159.264 58.849C158.936 58.849 158.649 58.7934 158.401 58.6823C158.157 58.568 157.951 58.4045 157.782 58.1918C157.614 57.979 157.479 57.7219 157.378 57.4202C157.279 57.1186 157.211 56.7789 157.173 56.401V55.9629C157.211 55.5819 157.279 55.2406 157.378 54.9389C157.479 54.6373 157.614 54.3801 157.782 54.1674C157.951 53.9515 158.157 53.788 158.401 53.6768C158.646 53.5625 158.93 53.5054 159.254 53.5054C159.578 53.5054 159.865 53.5689 160.116 53.6959C160.367 53.8197 160.576 53.9975 160.745 54.2293C160.916 54.4611 161.046 54.7389 161.135 55.0628C161.224 55.3834 161.269 55.7406 161.269 56.1343ZM160.383 56.2344V56.1343C160.383 55.8772 160.359 55.6359 160.311 55.4104C160.264 55.1818 160.187 54.9818 160.083 54.8103C159.978 54.6357 159.84 54.4992 159.668 54.4008C159.497 54.2992 159.286 54.2484 159.035 54.2484C158.813 54.2484 158.619 54.2865 158.454 54.3627C158.292 54.4389 158.154 54.542 158.04 54.6722C157.925 54.7992 157.832 54.9453 157.759 55.1104C157.689 55.2723 157.636 55.4406 157.601 55.6152V56.763C157.652 56.9853 157.735 57.1996 157.849 57.4059C157.966 57.6091 158.122 57.7758 158.316 57.906C158.513 58.0362 158.755 58.1013 159.044 58.1013C159.283 58.1013 159.486 58.0537 159.654 57.9584C159.825 57.86 159.964 57.725 160.068 57.5536C160.176 57.3821 160.256 57.1837 160.307 56.9583C160.357 56.7328 160.383 56.4915 160.383 56.2344ZM164.521 58.849C164.163 58.849 163.837 58.7887 163.545 58.668C163.256 58.5442 163.007 58.3712 162.797 58.1489C162.591 57.9267 162.432 57.6631 162.321 57.3583C162.21 57.0535 162.154 56.7201 162.154 56.3582V56.1582C162.154 55.739 162.216 55.366 162.34 55.0389C162.464 54.7087 162.632 54.4293 162.845 54.2007C163.058 53.9721 163.299 53.7991 163.569 53.6816C163.839 53.5641 164.118 53.5054 164.407 53.5054C164.775 53.5054 165.093 53.5689 165.36 53.6959C165.629 53.8229 165.85 54.0007 166.022 54.2293C166.193 54.4547 166.32 54.7214 166.403 55.0294C166.485 55.3342 166.526 55.6676 166.526 56.0296V56.4249H162.678V55.7057H165.645V55.639C165.633 55.4104 165.585 55.1882 165.502 54.9723C165.423 54.7564 165.296 54.5786 165.121 54.4389C164.947 54.2992 164.709 54.2293 164.407 54.2293C164.207 54.2293 164.023 54.2722 163.855 54.3579C163.686 54.4404 163.542 54.5643 163.421 54.7294C163.301 54.8945 163.207 55.0961 163.14 55.3342C163.074 55.5724 163.04 55.847 163.04 56.1582V56.3582C163.04 56.6027 163.074 56.8328 163.14 57.0488C163.21 57.2615 163.31 57.4488 163.44 57.6107C163.574 57.7727 163.734 57.8997 163.921 57.9917C164.112 58.0838 164.328 58.1299 164.569 58.1299C164.88 58.1299 165.144 58.0664 165.36 57.9394C165.576 57.8124 165.764 57.6425 165.926 57.4298L166.46 57.8536C166.349 58.0219 166.207 58.1822 166.036 58.3346C165.864 58.487 165.653 58.6109 165.402 58.7061C165.155 58.8014 164.861 58.849 164.521 58.849ZM170.556 57.3869C170.556 57.2599 170.527 57.1424 170.47 57.0345C170.416 56.9233 170.303 56.8233 170.132 56.7344C169.963 56.6423 169.709 56.563 169.37 56.4963C169.084 56.436 168.825 56.3645 168.593 56.282C168.365 56.1994 168.17 56.0994 168.008 55.9819C167.849 55.8645 167.727 55.7263 167.641 55.5676C167.555 55.4088 167.512 55.2231 167.512 55.0104C167.512 54.8072 167.557 54.6151 167.646 54.4341C167.738 54.2531 167.866 54.0928 168.031 53.9531C168.2 53.8134 168.401 53.7038 168.636 53.6245C168.871 53.5451 169.133 53.5054 169.422 53.5054C169.835 53.5054 170.187 53.5784 170.479 53.7245C170.771 53.8705 170.995 54.0658 171.151 54.3103C171.306 54.5516 171.384 54.8199 171.384 55.1151H170.503C170.503 54.9723 170.46 54.8342 170.375 54.7008C170.292 54.5643 170.17 54.4516 170.008 54.3627C169.849 54.2738 169.654 54.2293 169.422 54.2293C169.178 54.2293 168.979 54.2674 168.827 54.3436C168.678 54.4166 168.568 54.5103 168.498 54.6246C168.431 54.7389 168.398 54.8596 168.398 54.9866C168.398 55.0818 168.414 55.1675 168.446 55.2437C168.481 55.3168 168.541 55.385 168.627 55.4485C168.712 55.5089 168.833 55.566 168.989 55.62C169.144 55.674 169.343 55.7279 169.584 55.7819C170.006 55.8772 170.354 55.9915 170.627 56.1248C170.9 56.2582 171.103 56.4217 171.237 56.6154C171.37 56.809 171.437 57.044 171.437 57.3202C171.437 57.5456 171.389 57.752 171.294 57.9394C171.202 58.1267 171.067 58.2886 170.889 58.4251C170.714 58.5585 170.505 58.6633 170.26 58.7395C170.019 58.8125 169.748 58.849 169.446 58.849C168.992 58.849 168.608 58.768 168.293 58.6061C167.979 58.4442 167.741 58.2346 167.579 57.9775C167.417 57.7203 167.336 57.4488 167.336 57.1631H168.222C168.235 57.4044 168.304 57.5964 168.431 57.7393C168.558 57.879 168.714 57.979 168.898 58.0394C169.082 58.0965 169.265 58.1251 169.446 58.1251C169.687 58.1251 169.889 58.0933 170.051 58.0298C170.216 57.9663 170.341 57.879 170.427 57.7679C170.513 57.6568 170.556 57.5298 170.556 57.3869Z" fill="white" fill-opacity="0.6"/>
<path d="M253.755 62.2943C253.625 62.2943 253.5 62.2425 253.408 62.1503L250.21 58.9528C250.118 58.8607 250.066 58.7357 250.066 58.6054C250.066 58.4751 250.118 58.3501 250.21 58.258C250.302 58.1659 250.427 58.1141 250.558 58.1141C250.688 58.1141 250.813 58.1659 250.905 58.258L254.103 61.4555C254.171 61.5242 254.218 61.6117 254.237 61.7071C254.256 61.8024 254.246 61.9011 254.209 61.9909C254.172 62.0807 254.109 62.1574 254.028 62.2114C253.947 62.2654 253.852 62.2943 253.755 62.2943V62.2943Z" fill="white"/>
<path d="M246.234 49.4508C245.279 49.4508 244.345 49.7342 243.55 50.2651C242.756 50.796 242.136 51.5505 241.771 52.4334C241.405 53.3162 241.309 54.2876 241.496 55.2248C241.682 56.162 242.142 57.0229 242.818 57.6986C243.494 58.3743 244.355 58.8344 245.292 59.0209C246.229 59.2073 247.201 59.1116 248.083 58.7459C248.966 58.3803 249.721 57.761 250.252 56.9665C250.782 56.1719 251.066 55.2378 251.066 54.2823C251.064 53.0013 250.555 51.7733 249.649 50.8675C248.743 49.9618 247.515 49.4523 246.234 49.4508V49.4508ZM246.234 48.3604C247.406 48.3604 248.551 48.7077 249.524 49.3584C250.498 50.0091 251.257 50.934 251.706 52.0161C252.154 53.0981 252.271 54.2888 252.043 55.4376C251.814 56.5863 251.25 57.6415 250.422 58.4697C249.594 59.2979 248.538 59.8619 247.39 60.0904C246.241 60.3189 245.05 60.2016 243.968 59.7534C242.886 59.3052 241.961 58.5462 241.311 57.5723C240.66 56.5985 240.312 55.4535 240.312 54.2823C240.312 52.7117 240.936 51.2054 242.047 50.0948C243.158 48.9843 244.664 48.3604 246.234 48.3604V48.3604Z" fill="white"/>
<g clip-path="url(#clip1_1169_57995)">
<g filter="url(#filter4_d_1169_57995)">
<path d="M23.5283 53.5229H35.9504" stroke="white" stroke-width="1.04505" stroke-linecap="round" stroke-linejoin="round" shape-rendering="crispEdges"/>
</g>
<g filter="url(#filter5_d_1169_57995)">
<path d="M32.835 56.7626C32.6964 56.7626 32.5635 56.7075 32.4655 56.6095C32.3675 56.5115 32.3125 56.3786 32.3125 56.24C32.3125 56.1015 32.3675 55.9685 32.4655 55.8705C32.5635 55.7725 32.6964 55.7175 32.835 55.7175V55.7175C32.9736 55.7175 33.1065 55.7725 33.2045 55.8705C33.3025 55.9685 33.3575 56.1015 33.3575 56.24C33.3575 56.3786 33.3025 56.5115 33.2045 56.6095C33.1065 56.7075 32.9736 56.7626 32.835 56.7626V56.7626Z" fill="white"/>
</g>
<g filter="url(#filter6_d_1169_57995)">
<path d="M29.7422 56.7626C29.6037 56.7626 29.4708 56.7075 29.3728 56.6095C29.2748 56.5115 29.2197 56.3786 29.2197 56.24C29.2197 56.1015 29.2748 55.9685 29.3728 55.8705C29.4708 55.7725 29.6037 55.7175 29.7422 55.7175V55.7175C29.8808 55.7175 30.0137 55.7725 30.1117 55.8705C30.2097 55.9685 30.2648 56.1015 30.2648 56.24C30.2648 56.3786 30.2097 56.5115 30.1117 56.6095C30.0137 56.7075 29.8808 56.7626 29.7422 56.7626V56.7626Z" fill="white"/>
</g>
<g filter="url(#filter7_d_1169_57995)">
<path d="M26.6485 56.7626C26.5099 56.7626 26.377 56.7075 26.279 56.6095C26.181 56.5115 26.126 56.3786 26.126 56.24C26.126 56.1015 26.181 55.9685 26.279 55.8705C26.377 55.7725 26.5099 55.7175 26.6485 55.7175V55.7175C26.7871 55.7175 26.92 55.7725 27.018 55.8705C27.116 55.9685 27.171 56.1015 27.171 56.24C27.171 56.3786 27.116 56.5115 27.018 56.6095C26.92 56.7075 26.7871 56.7626 26.6485 56.7626V56.7626Z" fill="white"/>
</g>
<g filter="url(#filter8_d_1169_57995)">
<path d="M32.8351 59.4727C32.697 59.4709 32.5652 59.4153 32.4676 59.3177C32.37 59.2201 32.3144 59.0882 32.3125 58.9502C32.3116 58.8819 32.3243 58.8141 32.3498 58.7508C32.3753 58.6874 32.4131 58.6297 32.4611 58.5811C32.509 58.5325 32.5662 58.4939 32.6292 58.4676C32.6922 58.4412 32.7598 58.4277 32.8281 58.4277V58.4277C32.9667 58.4277 33.0996 58.4827 33.1976 58.5807C33.2956 58.6787 33.3506 58.8116 33.3506 58.9502C33.3506 59.0888 33.2956 59.2216 33.1976 59.3196C33.0996 59.4176 32.9667 59.4727 32.8281 59.4727H32.8351Z" fill="white"/>
</g>
<g filter="url(#filter9_d_1169_57995)">
<path d="M29.7423 59.4727C29.6043 59.4709 29.4724 59.4153 29.3748 59.3177C29.2772 59.2201 29.2216 59.0882 29.2198 58.9502C29.2189 58.8819 29.2315 58.8141 29.257 58.7508C29.2825 58.6874 29.3203 58.6297 29.3683 58.5811C29.4163 58.5325 29.4734 58.4939 29.5364 58.4676C29.5994 58.4412 29.667 58.4277 29.7353 58.4277V58.4277C29.8739 58.4277 30.0068 58.4827 30.1048 58.5807C30.2028 58.6787 30.2578 58.8116 30.2578 58.9502C30.2578 59.0888 30.2028 59.2216 30.1048 59.3196C30.0068 59.4176 29.8739 59.4727 29.7353 59.4727H29.7423Z" fill="white"/>
</g>
<g filter="url(#filter10_d_1169_57995)">
<path d="M26.6487 59.4727C26.5095 59.4727 26.3758 59.4178 26.2767 59.32C26.1776 59.2222 26.121 59.0894 26.1192 58.9502C26.1183 58.8813 26.1311 58.8128 26.1571 58.749C26.183 58.6852 26.2214 58.6273 26.2701 58.5786C26.3189 58.5299 26.3768 58.4914 26.4406 58.4655C26.5045 58.4395 26.5728 58.4267 26.6417 58.4276V58.4276C26.7803 58.4276 26.9132 58.4826 27.0112 58.5806C27.1092 58.6786 27.1642 58.8116 27.1642 58.9502C27.1642 59.0887 27.1092 59.2216 27.0112 59.3196C26.9132 59.4176 26.7803 59.4727 26.6417 59.4727H26.6487Z" fill="white"/>
</g>
<g filter="url(#filter11_d_1169_57995)">
<path d="M32.5498 48.3604V50.6525" stroke="white" stroke-width="1.04505" stroke-linecap="round" stroke-linejoin="round" shape-rendering="crispEdges"/>
</g>
<g filter="url(#filter12_d_1169_57995)">
<path d="M26.9209 48.3604V50.6525" stroke="white" stroke-width="1.04505" stroke-linecap="round" stroke-linejoin="round" shape-rendering="crispEdges"/>
</g>
<g filter="url(#filter13_d_1169_57995)">
<path d="M32.6754 49.4612H26.7744C24.7261 49.4612 23.4512 50.6037 23.4512 52.6938V58.9641C23.4512 61.0959 24.7261 62.2595 26.7744 62.2595H32.6754C34.7237 62.2595 35.9987 61.1169 35.9987 59.0198V52.659C36.0126 50.6037 34.7655 49.4612 32.6754 49.4612Z" stroke="white" stroke-width="1.04505" stroke-linecap="round" stroke-linejoin="round" shape-rendering="crispEdges"/>
</g>
</g>
<rect x="19.9668" y="69.2613" width="28.3904" height="1.39339" rx="0.696697" fill="white"/>
<rect x="49.751" y="69.2613" width="28.3904" height="1.39339" rx="0.696697" fill="white" fill-opacity="0.2"/>
<rect x="79.5342" y="69.2613" width="28.3904" height="1.39339" rx="0.696697" fill="white" fill-opacity="0.2"/>
<rect x="109.318" y="69.2613" width="28.3904" height="1.39339" rx="0.696697" fill="white" fill-opacity="0.2"/>
<rect x="139.102" y="69.2613" width="28.3904" height="1.39339" rx="0.696697" fill="white" fill-opacity="0.2"/>
<rect x="168.886" y="69.2613" width="28.3904" height="1.39339" rx="0.696697" fill="white" fill-opacity="0.2"/>
<rect x="198.67" y="69.2613" width="28.3904" height="1.39339" rx="0.696697" fill="white" fill-opacity="0.2"/>
<rect x="228.453" y="69.2613" width="28.3904" height="1.39339" rx="0.696697" fill="white" fill-opacity="0.2"/>
<defs>
<filter id="filter0_f_1169_57995" x="1.87973" y="1.47" width="274.55" height="567.97" filterUnits="userSpaceOnUse" color-interpolation-filters="sRGB">
<feFlood flood-opacity="0" result="BackgroundImageFix"/>
<feBlend mode="normal" in="SourceGraphic" in2="BackgroundImageFix" result="shape"/>
<feGaussianBlur stdDeviation="0.42" result="effect1_foregroundBlur_1169_57995"/>
</filter>
<filter id="filter1_b_1169_57995" x="1.2973" y="485.208" width="274.645" height="75.1621" filterUnits="userSpaceOnUse" color-interpolation-filters="sRGB">
<feFlood flood-opacity="0" result="BackgroundImageFix"/>
<feGaussianBlur in="BackgroundImage" stdDeviation="8.35135"/>
<feComposite in2="SourceAlpha" operator="in" result="effect1_backgroundBlur_1169_57995"/>
<feBlend mode="normal" in="SourceGraphic" in2="effect1_backgroundBlur_1169_57995" result="shape"/>
</filter>
<filter id="filter2_d_1169_57995" x="119.636" y="506.782" width="37.5812" height="37.5811" filterUnits="userSpaceOnUse" color-interpolation-filters="sRGB">
<feFlood flood-opacity="0" result="BackgroundImageFix"/>
<feColorMatrix in="SourceAlpha" type="matrix" values="0 0 0 0 0 0 0 0 0 0 0 0 0 0 0 0 0 0 127 0" result="hardAlpha"/>
<feOffset dy="2.78378"/>
<feGaussianBlur stdDeviation="1.39189"/>
<feComposite in2="hardAlpha" operator="out"/>
<feColorMatrix type="matrix" values="0 0 0 0 1 0 0 0 0 1 0 0 0 0 1 0 0 0 0.1 0"/>
<feBlend mode="normal" in2="BackgroundImageFix" result="effect1_dropShadow_1169_57995"/>
<feBlend mode="normal" in="SourceGraphic" in2="effect1_dropShadow_1169_57995" result="shape"/>
</filter>
<filter id="filter3_d_1169_57995" x="106.694" y="49.1025" width="23.8236" height="12.7841" filterUnits="userSpaceOnUse" color-interpolation-filters="sRGB">
<feFlood flood-opacity="0" result="BackgroundImageFix"/>
<feColorMatrix in="SourceAlpha" type="matrix" values="0 0 0 0 0 0 0 0 0 0 0 0 0 0 0 0 0 0 127 0" result="hardAlpha"/>
<feOffset dy="0.250811"/>
<feGaussianBlur stdDeviation="1.39339"/>
<feComposite in2="hardAlpha" operator="out"/>
<feColorMatrix type="matrix" values="0 0 0 0 0 0 0 0 0 0 0 0 0 0 0 0 0 0 0.16 0"/>
<feBlend mode="normal" in2="BackgroundImageFix" result="effect1_dropShadow_1169_57995"/>
<feBlend mode="normal" in="SourceGraphic" in2="effect1_dropShadow_1169_57995" result="shape"/>
</filter>
<filter id="filter4_d_1169_57995" x="20.2191" y="50.4644" width="19.0404" height="6.61862" filterUnits="userSpaceOnUse" color-interpolation-filters="sRGB">
<feFlood flood-opacity="0" result="BackgroundImageFix"/>
<feColorMatrix in="SourceAlpha" type="matrix" values="0 0 0 0 0 0 0 0 0 0 0 0 0 0 0 0 0 0 127 0" result="hardAlpha"/>
<feOffset dy="0.250811"/>
<feGaussianBlur stdDeviation="1.39339"/>
<feComposite in2="hardAlpha" operator="out"/>
<feColorMatrix type="matrix" values="0 0 0 0 0 0 0 0 0 0 0 0 0 0 0 0 0 0 0.16 0"/>
<feBlend mode="normal" in2="BackgroundImageFix" result="effect1_dropShadow_1169_57995"/>
<feBlend mode="normal" in="SourceGraphic" in2="effect1_dropShadow_1169_57995" result="shape"/>
</filter>
<filter id="filter5_d_1169_57995" x="29.5257" y="53.1815" width="6.6185" height="6.61862" filterUnits="userSpaceOnUse" color-interpolation-filters="sRGB">
<feFlood flood-opacity="0" result="BackgroundImageFix"/>
<feColorMatrix in="SourceAlpha" type="matrix" values="0 0 0 0 0 0 0 0 0 0 0 0 0 0 0 0 0 0 127 0" result="hardAlpha"/>
<feOffset dy="0.250811"/>
<feGaussianBlur stdDeviation="1.39339"/>
<feComposite in2="hardAlpha" operator="out"/>
<feColorMatrix type="matrix" values="0 0 0 0 0 0 0 0 0 0 0 0 0 0 0 0 0 0 0.16 0"/>
<feBlend mode="normal" in2="BackgroundImageFix" result="effect1_dropShadow_1169_57995"/>
<feBlend mode="normal" in="SourceGraphic" in2="effect1_dropShadow_1169_57995" result="shape"/>
</filter>
<filter id="filter6_d_1169_57995" x="26.4329" y="53.1815" width="6.6185" height="6.61862" filterUnits="userSpaceOnUse" color-interpolation-filters="sRGB">
<feFlood flood-opacity="0" result="BackgroundImageFix"/>
<feColorMatrix in="SourceAlpha" type="matrix" values="0 0 0 0 0 0 0 0 0 0 0 0 0 0 0 0 0 0 127 0" result="hardAlpha"/>
<feOffset dy="0.250811"/>
<feGaussianBlur stdDeviation="1.39339"/>
<feComposite in2="hardAlpha" operator="out"/>
<feColorMatrix type="matrix" values="0 0 0 0 0 0 0 0 0 0 0 0 0 0 0 0 0 0 0.16 0"/>
<feBlend mode="normal" in2="BackgroundImageFix" result="effect1_dropShadow_1169_57995"/>
<feBlend mode="normal" in="SourceGraphic" in2="effect1_dropShadow_1169_57995" result="shape"/>
</filter>
<filter id="filter7_d_1169_57995" x="23.3392" y="53.1815" width="6.6185" height="6.61862" filterUnits="userSpaceOnUse" color-interpolation-filters="sRGB">
<feFlood flood-opacity="0" result="BackgroundImageFix"/>
<feColorMatrix in="SourceAlpha" type="matrix" values="0 0 0 0 0 0 0 0 0 0 0 0 0 0 0 0 0 0 127 0" result="hardAlpha"/>
<feOffset dy="0.250811"/>
<feGaussianBlur stdDeviation="1.39339"/>
<feComposite in2="hardAlpha" operator="out"/>
<feColorMatrix type="matrix" values="0 0 0 0 0 0 0 0 0 0 0 0 0 0 0 0 0 0 0.16 0"/>
<feBlend mode="normal" in2="BackgroundImageFix" result="effect1_dropShadow_1169_57995"/>
<feBlend mode="normal" in="SourceGraphic" in2="effect1_dropShadow_1169_57995" result="shape"/>
</filter>
<filter id="filter8_d_1169_57995" x="29.5257" y="55.8917" width="6.61166" height="6.61862" filterUnits="userSpaceOnUse" color-interpolation-filters="sRGB">
<feFlood flood-opacity="0" result="BackgroundImageFix"/>
<feColorMatrix in="SourceAlpha" type="matrix" values="0 0 0 0 0 0 0 0 0 0 0 0 0 0 0 0 0 0 127 0" result="hardAlpha"/>
<feOffset dy="0.250811"/>
<feGaussianBlur stdDeviation="1.39339"/>
<feComposite in2="hardAlpha" operator="out"/>
<feColorMatrix type="matrix" values="0 0 0 0 0 0 0 0 0 0 0 0 0 0 0 0 0 0 0.16 0"/>
<feBlend mode="normal" in2="BackgroundImageFix" result="effect1_dropShadow_1169_57995"/>
<feBlend mode="normal" in="SourceGraphic" in2="effect1_dropShadow_1169_57995" result="shape"/>
</filter>
<filter id="filter9_d_1169_57995" x="26.4329" y="55.8917" width="6.61166" height="6.61862" filterUnits="userSpaceOnUse" color-interpolation-filters="sRGB">
<feFlood flood-opacity="0" result="BackgroundImageFix"/>
<feColorMatrix in="SourceAlpha" type="matrix" values="0 0 0 0 0 0 0 0 0 0 0 0 0 0 0 0 0 0 127 0" result="hardAlpha"/>
<feOffset dy="0.250811"/>
<feGaussianBlur stdDeviation="1.39339"/>
<feComposite in2="hardAlpha" operator="out"/>
<feColorMatrix type="matrix" values="0 0 0 0 0 0 0 0 0 0 0 0 0 0 0 0 0 0 0.16 0"/>
<feBlend mode="normal" in2="BackgroundImageFix" result="effect1_dropShadow_1169_57995"/>
<feBlend mode="normal" in="SourceGraphic" in2="effect1_dropShadow_1169_57995" result="shape"/>
</filter>
<filter id="filter10_d_1169_57995" x="23.3324" y="55.8916" width="6.6185" height="6.61866" filterUnits="userSpaceOnUse" color-interpolation-filters="sRGB">
<feFlood flood-opacity="0" result="BackgroundImageFix"/>
<feColorMatrix in="SourceAlpha" type="matrix" values="0 0 0 0 0 0 0 0 0 0 0 0 0 0 0 0 0 0 127 0" result="hardAlpha"/>
<feOffset dy="0.250811"/>
<feGaussianBlur stdDeviation="1.39339"/>
<feComposite in2="hardAlpha" operator="out"/>
<feColorMatrix type="matrix" values="0 0 0 0 0 0 0 0 0 0 0 0 0 0 0 0 0 0 0.16 0"/>
<feBlend mode="normal" in2="BackgroundImageFix" result="effect1_dropShadow_1169_57995"/>
<feBlend mode="normal" in="SourceGraphic" in2="effect1_dropShadow_1169_57995" result="shape"/>
</filter>
<filter id="filter11_d_1169_57995" x="29.2406" y="45.3019" width="6.6185" height="8.91078" filterUnits="userSpaceOnUse" color-interpolation-filters="sRGB">
<feFlood flood-opacity="0" result="BackgroundImageFix"/>
<feColorMatrix in="SourceAlpha" type="matrix" values="0 0 0 0 0 0 0 0 0 0 0 0 0 0 0 0 0 0 127 0" result="hardAlpha"/>
<feOffset dy="0.250811"/>
<feGaussianBlur stdDeviation="1.39339"/>
<feComposite in2="hardAlpha" operator="out"/>
<feColorMatrix type="matrix" values="0 0 0 0 0 0 0 0 0 0 0 0 0 0 0 0 0 0 0.16 0"/>
<feBlend mode="normal" in2="BackgroundImageFix" result="effect1_dropShadow_1169_57995"/>
<feBlend mode="normal" in="SourceGraphic" in2="effect1_dropShadow_1169_57995" result="shape"/>
</filter>
<filter id="filter12_d_1169_57995" x="23.6117" y="45.3019" width="6.6185" height="8.91078" filterUnits="userSpaceOnUse" color-interpolation-filters="sRGB">
<feFlood flood-opacity="0" result="BackgroundImageFix"/>
<feColorMatrix in="SourceAlpha" type="matrix" values="0 0 0 0 0 0 0 0 0 0 0 0 0 0 0 0 0 0 127 0" result="hardAlpha"/>
<feOffset dy="0.250811"/>
<feGaussianBlur stdDeviation="1.39339"/>
<feComposite in2="hardAlpha" operator="out"/>
<feColorMatrix type="matrix" values="0 0 0 0 0 0 0 0 0 0 0 0 0 0 0 0 0 0 0.16 0"/>
<feBlend mode="normal" in2="BackgroundImageFix" result="effect1_dropShadow_1169_57995"/>
<feBlend mode="normal" in="SourceGraphic" in2="effect1_dropShadow_1169_57995" result="shape"/>
</filter>
<filter id="filter13_d_1169_57995" x="20.1419" y="46.4027" width="19.1663" height="19.4169" filterUnits="userSpaceOnUse" color-interpolation-filters="sRGB">
<feFlood flood-opacity="0" result="BackgroundImageFix"/>
<feColorMatrix in="SourceAlpha" type="matrix" values="0 0 0 0 0 0 0 0 0 0 0 0 0 0 0 0 0 0 127 0" result="hardAlpha"/>
<feOffset dy="0.250811"/>
<feGaussianBlur stdDeviation="1.39339"/>
<feComposite in2="hardAlpha" operator="out"/>
<feColorMatrix type="matrix" values="0 0 0 0 0 0 0 0 0 0 0 0 0 0 0 0 0 0 0.16 0"/>
<feBlend mode="normal" in2="BackgroundImageFix" result="effect1_dropShadow_1169_57995"/>
<feBlend mode="normal" in="SourceGraphic" in2="effect1_dropShadow_1169_57995" result="shape"/>
</filter>
<linearGradient id="paint0_linear_1169_57995" x1="11.4702" y1="225.88" x2="135.96" y2="282.88" gradientUnits="userSpaceOnUse">
<stop stop-color="white" stop-opacity="0.54"/>
<stop offset="0.95" stop-color="white" stop-opacity="0"/>
</linearGradient>
<linearGradient id="paint1_linear_1169_57995" x1="252.14" y1="338.74" x2="129.12" y2="280.89" gradientUnits="userSpaceOnUse">
<stop stop-color="white" stop-opacity="0.54"/>
<stop offset="1" stop-color="white" stop-opacity="0"/>
</linearGradient>
<radialGradient id="paint2_radial_1169_57995" cx="0" cy="0" r="1" gradientUnits="userSpaceOnUse" gradientTransform="translate(272.498 554.981) rotate(-133.78) scale(152.68 72.23)">
<stop/>
<stop offset="1" stop-opacity="0"/>
</radialGradient>
<linearGradient id="paint3_linear_1169_57995" x1="277.485" y1="157.185" x2="280" y2="157.185" gradientUnits="userSpaceOnUse">
<stop stop-color="#313131"/>
<stop offset="0.630208" stop-color="#717174"/>
<stop offset="1" stop-color="#444445"/>
</linearGradient>
<linearGradient id="paint4_linear_1169_57995" x1="278.743" y1="136.647" x2="278.743" y2="176.467" gradientUnits="userSpaceOnUse">
<stop stop-color="#343434"/>
<stop offset="0.140406" stop-color="#353535" stop-opacity="0"/>
<stop offset="0.885417" stop-color="#494949" stop-opacity="0.525253"/>
<stop offset="1" stop-color="#1B1B1B"/>
</linearGradient>
<radialGradient id="paint5_radial_1169_57995" cx="0" cy="0" r="1" gradientUnits="userSpaceOnUse" gradientTransform="translate(278.114 138.742) rotate(90) scale(1.46707)">
<stop stop-color="white"/>
<stop offset="0.757464" stop-color="white" stop-opacity="0.35"/>
<stop offset="1" stop-color="white" stop-opacity="0"/>
</radialGradient>
<radialGradient id="paint6_radial_1169_57995" cx="0" cy="0" r="1" gradientUnits="userSpaceOnUse" gradientTransform="translate(30.599 31.018) rotate(90) scale(2.51497)">
<stop stop-color="#8EA1B9" stop-opacity="0"/>
<stop offset="0.395833" stop-color="#96A7BF" stop-opacity="0"/>
<stop offset="1" stop-color="#9BABC3"/>
</radialGradient>
<radialGradient id="paint7_radial_1169_57995" cx="0" cy="0" r="1" gradientUnits="userSpaceOnUse" gradientTransform="translate(30.599 29.9701) rotate(141.34) scale(1.34197)">
<stop stop-color="#8EA1B9"/>
<stop offset="1" stop-color="#90A2BA" stop-opacity="0"/>
</radialGradient>
<radialGradient id="paint8_radial_1169_57995" cx="0" cy="0" r="1" gradientUnits="userSpaceOnUse" gradientTransform="translate(31.8564 32.4851) rotate(-140.194) scale(1.63688)">
<stop stop-color="#A8CEFE"/>
<stop offset="1" stop-color="#90A2BA" stop-opacity="0"/>
</radialGradient>
<clipPath id="clip0_1169_57995">
<rect width="19.4865" height="19.4865" fill="white" transform="translate(179.58 513.046)"/>
</clipPath>
<clipPath id="clip1_1169_57995">
<rect width="16.7207" height="16.7207" fill="white" transform="translate(21.3604 46.967)"/>
</clipPath>
</defs>
</svg>
