<svg width="144" height="48" viewBox="0 0 144 48" fill="none" xmlns="http://www.w3.org/2000/svg">
<g filter="url(#filter0_b_825_53565)">
<path d="M134.002 0H9.62028C9.25029 0 8.88473 0 8.51573 0.00233261C8.20683 0.00466521 7.90039 0.0116642 7.58853 0.0174951C6.91703 0.0373241 6.23715 0.0863124 5.56663 0.22861C4.89119 0.368576 4.26354 0.607683 3.64869 0.977424C3.04468 1.34367 2.49288 1.81955 2.0155 2.38524C1.53269 2.95093 1.13265 3.60644 0.826705 4.32142C0.512873 5.04808 0.313836 5.79456 0.196089 6.59469C0.0744003 7.3855 0.0325247 8.18564 0.0152813 8.98578C0.00592008 9.35202 0.00493532 9.71943 0 10.0857C0 10.5184 0 10.9523 0 11.3897V36.3863C0 36.8272 0 37.2587 0 37.6927C0.00493532 38.0635 0.00592008 38.4228 0.0152814 38.7938C0.0325248 39.5939 0.0744005 40.394 0.196089 41.1848C0.313836 41.9849 0.512873 42.7349 0.826705 43.4592C1.13265 44.1707 1.53269 44.8263 2.0155 45.3873C2.49288 45.9576 3.04468 46.4324 3.64869 46.7951C4.26354 47.1683 4.89119 47.404 5.56663 47.5485C6.23715 47.6909 6.91703 47.7376 7.58853 47.7597C7.90039 47.7678 8.20683 47.7724 8.51573 47.7724C8.88473 47.7748 9.25029 47.7748 9.62028 47.7748H134.002C134.365 47.7748 134.733 47.7748 135.096 47.7724C135.403 47.7724 135.719 47.7678 136.026 47.7597C136.702 47.7376 137.38 47.6909 138.044 47.5485C138.72 47.404 139.349 47.1683 139.969 46.7951C140.572 46.4324 141.124 45.9576 141.601 45.3873C142.082 44.8263 142.482 44.1707 142.793 43.4592C143.103 42.7349 143.304 41.9849 143.418 41.1848C143.542 40.394 143.582 39.5939 143.605 38.7938C143.609 38.4228 143.609 38.0635 143.609 37.6927C143.617 37.2587 143.617 36.8272 143.617 36.3863V11.3897C143.617 10.9523 143.617 10.5184 143.609 10.0857C143.609 9.71943 143.609 9.35202 143.605 8.98578C143.582 8.18564 143.542 7.3855 143.418 6.59469C143.304 5.79456 143.103 5.04808 142.793 4.32142C142.482 3.60644 142.082 2.95093 141.601 2.38524C141.124 1.81955 140.572 1.34367 139.969 0.977424C139.349 0.607683 138.72 0.368576 138.044 0.22861C137.38 0.0863124 136.702 0.0373241 136.026 0.0174951C135.719 0.0116642 135.403 0.00466521 135.096 0.00233261C134.733 0 134.365 0 134.002 0Z" fill="white" fill-opacity="0.02"/>
<path d="M5.68806 0.814566L5.68806 0.814573L5.69086 0.813978C6.30938 0.682715 6.94733 0.635188 7.60298 0.615734C7.66943 0.61449 7.73525 0.613202 7.8006 0.611924C8.04391 0.607165 8.28077 0.602532 8.51986 0.600723C8.88654 0.598407 9.2501 0.598405 9.62028 0.598405H134.002C134.365 0.598405 134.732 0.598407 135.092 0.600722C135.339 0.602598 135.591 0.607524 135.843 0.612467C135.899 0.613566 135.956 0.614665 136.012 0.615732C136.672 0.635192 137.307 0.682738 137.919 0.813733L137.923 0.814583C138.534 0.94115 139.099 1.15598 139.661 1.49028C140.205 1.82112 140.707 2.25327 141.144 2.77097L141.145 2.77277C141.584 3.28936 141.954 3.89325 142.244 4.55888C142.531 5.23288 142.718 5.92757 142.826 6.67927L142.827 6.68754C142.945 7.43742 142.983 8.20446 143.007 8.99783C143.011 9.35846 143.011 9.72078 143.011 10.0857L143.011 10.0965C143.019 10.5229 143.019 10.9514 143.019 11.3897V36.3863C143.019 36.8281 143.019 37.2542 143.011 37.6818V37.6927C143.011 38.0621 143.011 38.4165 143.007 38.7818C142.983 39.5751 142.945 40.3421 142.827 41.0919L142.826 41.1002C142.718 41.8529 142.53 42.5513 142.244 43.2224C141.954 43.8847 141.584 44.4875 141.147 44.9978L141.142 45.0034C140.706 45.5249 140.205 45.9553 139.661 46.2822C139.101 46.6188 138.536 46.8315 137.919 46.9633L137.919 46.9634C137.308 47.0944 136.673 47.1398 136.008 47.1615C135.706 47.1695 135.397 47.174 135.096 47.174L135.092 47.174C134.732 47.1764 134.365 47.1764 134.002 47.1764H9.62028C9.24998 47.1764 8.88634 47.1764 8.5196 47.174H8.51573C8.21368 47.174 7.91331 47.1695 7.60656 47.1615C6.94738 47.1398 6.30981 47.0945 5.69184 46.9633C5.0757 46.8315 4.5117 46.6189 3.95921 46.2835L3.95677 46.2821C3.41248 45.9552 2.91103 45.5248 2.47437 45.0032L2.47441 45.0031L2.46906 44.9969C2.02956 44.4863 1.66063 43.8837 1.37644 43.2228L1.37578 43.2213C1.08583 42.5521 0.89941 41.8539 0.78813 41.0976L0.787532 41.0938C0.671663 40.3408 0.630567 39.5706 0.613551 38.7809L0.613496 38.7787C0.607217 38.5299 0.604811 38.2896 0.602334 38.0423C0.601174 37.9265 0.599999 37.8092 0.598405 37.6887V37.6876V37.685V37.6825V37.68V37.6774V37.6749V37.6723V37.6698V37.6672V37.6647V37.6622V37.6596V37.6571V37.6545V37.652V37.6494V37.6469V37.6444V37.6418V37.6393V37.6367V37.6342V37.6317V37.6291V37.6266V37.624V37.6215V37.619V37.6164V37.6139V37.6113V37.6088V37.6062V37.6037V37.6012V37.5986V37.5961V37.5935V37.591V37.5885V37.5859V37.5834V37.5808V37.5783V37.5758V37.5732V37.5707V37.5681V37.5656V37.5631V37.5605V37.558V37.5554V37.5529V37.5504V37.5478V37.5453V37.5427V37.5402V37.5377V37.5351V37.5326V37.53V37.5275V37.525V37.5224V37.5199V37.5173V37.5148V37.5123V37.5097V37.5072V37.5046V37.5021V37.4996V37.497V37.4945V37.4919V37.4894V37.4869V37.4843V37.4818V37.4792V37.4767V37.4742V37.4716V37.4691V37.4665V37.464V37.4615V37.4589V37.4564V37.4538V37.4513V37.4488V37.4462V37.4437V37.4411V37.4386V37.4361V37.4335V37.431V37.4284V37.4259V37.4234V37.4208V37.4183V37.4157V37.4132V37.4107V37.4081V37.4056V37.403V37.4005V37.398V37.3954V37.3929V37.3904V37.3878V37.3853V37.3827V37.3802V37.3777V37.3751V37.3726V37.37V37.3675V37.365V37.3624V37.3599V37.3573V37.3548V37.3523V37.3497V37.3472V37.3446V37.3421V37.3396V37.337V37.3345V37.3319V37.3294V37.3269V37.3243V37.3218V37.3192V37.3167V37.3142V37.3116V37.3091V37.3065V37.304V37.3014V37.2989V37.2964V37.2938V37.2913V37.2887V37.2862V37.2837V37.2811V37.2786V37.276V37.2735V37.271V37.2684V37.2659V37.2633V37.2608V37.2583V37.2557V37.2532V37.2506V37.2481V37.2456V37.243V37.2405V37.2379V37.2354V37.2328V37.2303V37.2278V37.2252V37.2227V37.2201V37.2176V37.2151V37.2125V37.21V37.2074V37.2049V37.2024V37.1998V37.1973V37.1947V37.1922V37.1896V37.1871V37.1846V37.182V37.1795V37.1769V37.1744V37.1718V37.1693V37.1668V37.1642V37.1617V37.1591V37.1566V37.154V37.1515V37.149V37.1464V37.1439V37.1413V37.1388V37.1362V37.1337V37.1312V37.1286V37.1261V37.1235V37.121V37.1184V37.1159V37.1134V37.1108V37.1083V37.1057V37.1032V37.1006V37.0981V37.0956V37.093V37.0905V37.0879V37.0854V37.0828V37.0803V37.0777V37.0752V37.0727V37.0701V37.0676V37.065V37.0625V37.0599V37.0574V37.0548V37.0523V37.0497V37.0472V37.0447V37.0421V37.0396V37.037V37.0345V37.0319V37.0294V37.0268V37.0243V37.0217V37.0192V37.0166V37.0141V37.0116V37.009V37.0065V37.0039V37.0014V36.9988V36.9963V36.9937V36.9912V36.9886V36.9861V36.9835V36.981V36.9784V36.9759V36.9733V36.9708V36.9682V36.9657V36.9631V36.9606V36.958V36.9555V36.9529V36.9504V36.9479V36.9453V36.9428V36.9402V36.9377V36.9351V36.9326V36.93V36.9275V36.9249V36.9224V36.9198V36.9173V36.9147V36.9122V36.9096V36.9071V36.9045V36.902V36.8994V36.8968V36.8943V36.8917V36.8892V36.8866V36.8841V36.8815V36.879V36.8764V36.8739V36.8713V36.8688V36.8662V36.8637V36.8611V36.8586V36.856V36.8535V36.8509V36.8484V36.8458V36.8432V36.8407V36.8381V36.8356V36.833V36.8305V36.8279V36.8254V36.8228V36.8203V36.8177V36.8151V36.8126V36.81V36.8075V36.8049V36.8024V36.7998V36.7973V36.7947V36.7921V36.7896V36.787V36.7845V36.7819V36.7794V36.7768V36.7743V36.7717V36.7691V36.7666V36.764V36.7615V36.7589V36.7563V36.7538V36.7512V36.7487V36.7461V36.7436V36.741V36.7384V36.7359V36.7333V36.7308V36.7282V36.7256V36.7231V36.7205V36.718V36.7154V36.7128V36.7103V36.7077V36.7052V36.7026V36.7V36.6975V36.6949V36.6923V36.6898V36.6872V36.6847V36.6821V36.6795V36.677V36.6744V36.6718V36.6693V36.6667V36.6642V36.6616V36.659V36.6565V36.6539V36.6513V36.6488V36.6462V36.6436V36.6411V36.6385V36.636V36.6334V36.6308V36.6283V36.6257V36.6231V36.6206V36.618V36.6154V36.6129V36.6103V36.6077V36.6052V36.6026V36.6V36.5975V36.5949V36.5923V36.5897V36.5872V36.5846V36.582V36.5795V36.5769V36.5743V36.5718V36.5692V36.5666V36.5641V36.5615V36.5589V36.5563V36.5538V36.5512V36.5486V36.5461V36.5435V36.5409V36.5383V36.5358V36.5332V36.5306V36.5281V36.5255V36.5229V36.5203V36.5178V36.5152V36.5126V36.51V36.5075V36.5049V36.5023V36.4997V36.4972V36.4946V36.492V36.4894V36.4869V36.4843V36.4817V36.4791V36.4766V36.474V36.4714V36.4688V36.4663V36.4637V36.4611V36.4585V36.4559V36.4534V36.4508V36.4482V36.4456V36.4431V36.4405V36.4379V36.4353V36.4327V36.4302V36.4276V36.425V36.4224V36.4198V36.4173V36.4147V36.4121V36.4095V36.4069V36.4043V36.4018V36.3992V36.3966V36.394V36.3914V36.3888V36.3863V11.3897V11.3871V11.3845V11.382V11.3794V11.3769V11.3743V11.3717V11.3692V11.3666V11.364V11.3615V11.3589V11.3564V11.3538V11.3512V11.3487V11.3461V11.3436V11.341V11.3384V11.3359V11.3333V11.3307V11.3282V11.3256V11.3231V11.3205V11.3179V11.3154V11.3128V11.3103V11.3077V11.3051V11.3026V11.3V11.2975V11.2949V11.2923V11.2898V11.2872V11.2847V11.2821V11.2795V11.277V11.2744V11.2719V11.2693V11.2667V11.2642V11.2616V11.2591V11.2565V11.254V11.2514V11.2488V11.2463V11.2437V11.2412V11.2386V11.236V11.2335V11.2309V11.2284V11.2258V11.2233V11.2207V11.2181V11.2156V11.213V11.2105V11.2079V11.2054V11.2028V11.2002V11.1977V11.1951V11.1926V11.19V11.1875V11.1849V11.1823V11.1798V11.1772V11.1747V11.1721V11.1696V11.167V11.1644V11.1619V11.1593V11.1568V11.1542V11.1517V11.1491V11.1466V11.144V11.1414V11.1389V11.1363V11.1338V11.1312V11.1287V11.1261V11.1236V11.121V11.1184V11.1159V11.1133V11.1108V11.1082V11.1057V11.1031V11.1006V11.098V11.0955V11.0929V11.0903V11.0878V11.0852V11.0827V11.0801V11.0776V11.075V11.0725V11.0699V11.0674V11.0648V11.0623V11.0597V11.0571V11.0546V11.052V11.0495V11.0469V11.0444V11.0418V11.0393V11.0367V11.0342V11.0316V11.0291V11.0265V11.024V11.0214V11.0189V11.0163V11.0137V11.0112V11.0086V11.0061V11.0035V11.001V10.9984V10.9959V10.9933V10.9908V10.9882V10.9857V10.9831V10.9806V10.978V10.9755V10.9729V10.9704V10.9678V10.9653V10.9627V10.9602V10.9576V10.9551V10.9525V10.95V10.9474V10.9449V10.9423V10.9398V10.9372V10.9347V10.9321V10.9296V10.927V10.9245V10.9219V10.9194V10.9168V10.9143V10.9117V10.9092V10.9066V10.9041V10.9015V10.899V10.8964V10.8939V10.8913V10.8888V10.8862V10.8837V10.8811V10.8786V10.876V10.8735V10.8709V10.8684V10.8658V10.8633V10.8607V10.8582V10.8556V10.8531V10.8505V10.848V10.8454V10.8429V10.8403V10.8378V10.8352V10.8327V10.8302V10.8276V10.8251V10.8225V10.82V10.8174V10.8149V10.8123V10.8098V10.8072V10.8047V10.8021V10.7996V10.797V10.7945V10.7919V10.7894V10.7868V10.7843V10.7818V10.7792V10.7767V10.7741V10.7716V10.769V10.7665V10.7639V10.7614V10.7588V10.7563V10.7537V10.7512V10.7487V10.7461V10.7436V10.741V10.7385V10.7359V10.7334V10.7308V10.7283V10.7257V10.7232V10.7206V10.7181V10.7156V10.713V10.7105V10.7079V10.7054V10.7028V10.7003V10.6977V10.6952V10.6927V10.6901V10.6876V10.685V10.6825V10.6799V10.6774V10.6748V10.6723V10.6697V10.6672V10.6647V10.6621V10.6596V10.657V10.6545V10.6519V10.6494V10.6469V10.6443V10.6418V10.6392V10.6367V10.6341V10.6316V10.629V10.6265V10.624V10.6214V10.6189V10.6163V10.6138V10.6112V10.6087V10.6062V10.6036V10.6011V10.5985V10.596V10.5934V10.5909V10.5884V10.5858V10.5833V10.5807V10.5782V10.5756V10.5731V10.5706V10.568V10.5655V10.5629V10.5604V10.5578V10.5553V10.5528V10.5502V10.5477V10.5451V10.5426V10.54V10.5375V10.535V10.5324V10.5299V10.5273V10.5248V10.5223V10.5197V10.5172V10.5146V10.5121V10.5095V10.507V10.5045V10.5019V10.4994V10.4968V10.4943V10.4918V10.4892V10.4867V10.4841V10.4816V10.4791V10.4765V10.474V10.4714V10.4689V10.4664V10.4638V10.4613V10.4587V10.4562V10.4536V10.4511V10.4486V10.446V10.4435V10.4409V10.4384V10.4359V10.4333V10.4308V10.4282V10.4257V10.4232V10.4206V10.4181V10.4155V10.413V10.4105V10.4079V10.4054V10.4028V10.4003V10.3978V10.3952V10.3927V10.3902V10.3876V10.3851V10.3825V10.38V10.3775V10.3749V10.3724V10.3698V10.3673V10.3648V10.3622V10.3597V10.3571V10.3546V10.3521V10.3495V10.347V10.3444V10.3419V10.3394V10.3368V10.3343V10.3318V10.3292V10.3267V10.3241V10.3216V10.3191V10.3165V10.314V10.3114V10.3089V10.3064V10.3038V10.3013V10.2988V10.2962V10.2937V10.2911V10.2886V10.2861V10.2835V10.281V10.2785V10.2759V10.2734V10.2708V10.2683V10.2658V10.2632V10.2607V10.2582V10.2556V10.2531V10.2505V10.248V10.2455V10.2429V10.2404V10.2379V10.2353V10.2328V10.2302V10.2277V10.2252V10.2226V10.2201V10.2176V10.215V10.2125V10.2099V10.2074V10.2049V10.2023V10.1998V10.1973V10.1947V10.1922V10.1896V10.1871V10.1846V10.182V10.1795V10.177V10.1744V10.1719V10.1694V10.1668V10.1643V10.1617V10.1592V10.1567V10.1541V10.1516V10.1491V10.1465V10.144V10.1415V10.1389V10.1364V10.1339V10.1313V10.1288V10.1262V10.1237V10.1212V10.1186V10.1161V10.1136V10.111V10.1085V10.106V10.1034V10.1009V10.0983V10.0958V10.0933V10.0907V10.0897C0.600021 9.96904 0.601206 9.85041 0.602379 9.73294C0.604841 9.48651 0.607251 9.2452 0.613495 9.00107L0.613547 8.99867C0.630567 8.2089 0.671663 7.43869 0.787532 6.6857L0.787545 6.68571L0.788118 6.68182C0.89932 5.92616 1.08566 5.23111 1.37607 4.55869L1.37686 4.55684C1.66081 3.89325 2.02987 3.29018 2.47066 2.77372L2.47067 2.77373L2.47283 2.77117C2.9102 2.25289 3.41262 1.82053 3.958 1.48969C4.51295 1.1561 5.07681 0.941228 5.68806 0.814566Z" stroke="white" stroke-opacity="0.2" stroke-width="1.19681"/>
</g>
<path d="M29.6475 24.2465C29.6176 20.961 32.3432 19.3622 32.4679 19.2874C30.9245 17.0414 28.5317 16.7342 27.6912 16.7104C25.6815 16.4999 23.7332 17.9105 22.709 17.9105C21.6651 17.9105 20.0883 16.7313 18.3903 16.7662C16.2046 16.8 14.1589 18.0629 13.0371 20.0242C10.7225 24.0235 12.449 29.901 14.6662 33.1337C15.7755 34.7167 17.072 36.4849 18.7684 36.4222C20.4285 36.3535 21.0485 35.3658 23.0523 35.3658C25.0375 35.3658 25.6192 36.4222 27.35 36.3823C29.1313 36.3535 30.2536 34.7923 31.324 33.1944C32.606 31.3795 33.1208 29.5923 33.1413 29.5008C33.0998 29.4868 29.6815 28.1857 29.6475 24.2465Z" fill="white"/>
<path d="M26.3781 14.5844C27.2706 13.4698 27.8816 11.954 27.712 10.4153C26.4196 10.4725 24.8034 11.3068 23.8731 12.3975C23.0501 13.3577 22.3143 14.9323 22.5043 16.4122C23.9559 16.5198 25.4464 15.6815 26.3781 14.5844Z" fill="white"/>
<path d="M50.6339 32.4018H44.9689L43.6084 36.4106H41.209L46.5748 21.5784H49.0677L54.4335 36.4106H51.9931L50.6339 32.4018ZM45.5556 30.5519H50.046L47.8323 24.0453H47.7704L45.5556 30.5519Z" fill="white"/>
<path d="M66.0217 31.0047C66.0217 34.365 64.2195 36.524 61.4998 36.524C59.9559 36.524 58.7298 35.8347 58.0905 34.6321H58.0391V39.9881H55.8149V25.5968H57.9678V27.3953H58.0087C58.627 26.2348 59.9453 25.4836 61.4589 25.4836C64.209 25.4836 66.0217 27.6531 66.0217 31.0047ZM63.7356 31.0047C63.7356 28.8148 62.6019 27.3755 60.8722 27.3755C59.1728 27.3755 58.0297 28.8451 58.0297 31.0047C58.0297 33.1835 59.1728 34.6426 60.8722 34.6426C62.6019 34.6426 63.7356 33.2138 63.7356 31.0047Z" fill="white"/>
<path d="M77.9474 31.0047C77.9474 34.365 76.1458 36.524 73.4261 36.524C71.8821 36.524 70.6561 35.8347 70.0168 34.6321H69.9654V39.9881H67.7412V25.5968H69.8941V27.3953H69.935C70.5532 26.2348 71.8716 25.4836 73.3851 25.4836C76.1352 25.4836 77.9474 27.6531 77.9474 31.0047ZM75.6619 31.0047C75.6619 28.8148 74.5282 27.3755 72.7984 27.3755C71.0991 27.3755 69.956 28.8451 69.956 31.0047C69.956 33.1835 71.0991 34.6426 72.7984 34.6426C74.5282 34.6426 75.6619 33.2138 75.6619 31.0047Z" fill="white"/>
<path d="M85.8295 32.2783C85.9943 33.7491 87.426 34.7149 89.3825 34.7149C91.2572 34.7149 92.6059 33.7491 92.6059 32.423C92.6059 31.2718 91.7925 30.5824 89.8664 30.11L87.9403 29.6464C85.2112 28.9886 83.9443 27.7149 83.9443 25.6481C83.9443 23.089 86.1789 21.3313 89.3521 21.3313C92.4926 21.3313 94.6454 23.089 94.7179 25.6481H92.4727C92.3383 24.1679 91.1123 23.2745 89.3206 23.2745C87.5289 23.2745 86.3028 24.1784 86.3028 25.4941C86.3028 26.5427 87.0859 27.1597 89.0015 27.6321L90.6389 28.0333C93.6882 28.753 94.9551 29.9759 94.9551 32.1454C94.9551 34.9202 92.7404 36.6581 89.2177 36.6581C85.9218 36.6581 83.6965 34.961 83.5527 32.2783H85.8295V32.2783Z" fill="white"/>
<path d="M99.755 23.0376V25.5966H101.816V27.3544H99.755V33.3163C99.755 34.2424 100.168 34.674 101.073 34.674C101.3 34.674 101.661 34.6425 101.805 34.6226V36.3699C101.558 36.4317 101.064 36.4725 100.57 36.4725C98.3758 36.4725 97.5203 35.6502 97.5203 33.5531V27.3544H95.9448V25.5966H97.5203V23.0376H99.755Z" fill="white"/>
<path d="M103.009 31.0045C103.009 27.6016 105.017 25.4636 108.148 25.4636C111.289 25.4636 113.288 27.6016 113.288 31.0045C113.288 34.4162 111.3 36.5448 108.148 36.5448C104.997 36.5448 103.009 34.4162 103.009 31.0045ZM111.022 31.0045C111.022 28.67 109.95 27.2925 108.148 27.2925C106.346 27.2925 105.275 28.6805 105.275 31.0045C105.275 33.3478 106.346 34.7147 108.148 34.7147C109.95 34.7147 111.022 33.3478 111.022 31.0045Z" fill="white"/>
<path d="M115.122 25.5968H117.243V27.4373H117.295C117.635 26.2138 118.624 25.4836 119.901 25.4836C120.22 25.4836 120.488 25.5256 120.663 25.5665V27.6426C120.488 27.5703 120.096 27.5085 119.664 27.5085C118.232 27.5085 117.346 28.4754 117.346 29.9969V36.4108H115.122V25.5968V25.5968Z" fill="white"/>
<path d="M130.918 33.2346C130.619 35.1976 128.703 36.5448 126.252 36.5448C123.1 36.5448 121.144 34.4372 121.144 31.0558C121.144 27.6634 123.111 25.4636 126.159 25.4636C129.157 25.4636 131.042 27.5188 131.042 30.7981V31.5585H123.389V31.6927C123.389 33.5425 124.553 34.7556 126.304 34.7556C127.539 34.7556 128.508 34.1701 128.806 33.2346H130.918V33.2346ZM123.399 30.0072H128.816C128.765 28.3516 127.704 27.2622 126.159 27.2622C124.624 27.2622 123.513 28.3726 123.399 30.0072Z" fill="white"/>
<path d="M47.7785 17.2585C47.2456 17.5385 46.577 17.6784 45.7729 17.6784C44.7351 17.6784 43.906 17.3503 43.2858 16.694C42.6656 16.0346 42.3555 15.1637 42.3555 14.0813C42.3555 12.9181 42.7045 11.9818 43.4027 11.2727C44.1008 10.5635 44.9875 10.2089 46.0628 10.2089C46.7547 10.2089 47.3266 10.3069 47.7785 10.5029V11.478C47.2611 11.1918 46.6923 11.0487 46.0721 11.0487C45.2649 11.0487 44.6073 11.3178 44.0993 11.8559C43.5912 12.3908 43.3372 13.114 43.3372 14.0253C43.3372 14.89 43.5741 15.5774 44.0478 16.0875C44.5216 16.5945 45.1418 16.848 45.9085 16.848C46.6253 16.848 47.2487 16.6862 47.7785 16.3628V17.2585Z" fill="white"/>
<path d="M48.7649 15.0331C48.7649 14.1808 49.0034 13.509 49.4802 13.0176C49.9571 12.523 50.6038 12.2758 51.4204 12.2758C52.1964 12.2758 52.8042 12.5137 53.2436 12.9896C53.6862 13.4624 53.9075 14.1171 53.9075 14.9538C53.9075 15.7687 53.6722 16.4265 53.2016 16.9273C52.7309 17.428 52.0998 17.6784 51.3082 17.6784C50.5352 17.6784 49.9181 17.4358 49.4569 16.9506C48.9956 16.4654 48.7649 15.8262 48.7649 15.0331ZM49.7 15.0051C49.7 15.5992 49.8496 16.0673 50.1488 16.4094C50.4511 16.7515 50.8562 16.9226 51.3643 16.9226C51.8879 16.9226 52.2868 16.7562 52.5611 16.4234C52.8353 16.0875 52.9725 15.6069 52.9725 14.9818C52.9725 14.3535 52.8353 13.8714 52.5611 13.5355C52.2868 13.1995 51.8879 13.0316 51.3643 13.0316C50.85 13.0316 50.4433 13.2073 50.1441 13.5588C49.848 13.9102 49.7 14.3924 49.7 15.0051Z" fill="white"/>
<path d="M62.6405 17.5571H61.7241V14.5945C61.7241 14.0347 61.6369 13.635 61.4623 13.3955C61.2878 13.1529 61.0011 13.0316 60.6021 13.0316C60.2655 13.0316 59.9772 13.1887 59.7373 13.5028C59.4973 13.8169 59.3773 14.1886 59.3773 14.6179V17.5571H58.461V14.5012C58.461 13.5215 58.0823 13.0316 57.3249 13.0316C56.9759 13.0316 56.686 13.1809 56.4554 13.4795C56.2279 13.7781 56.1141 14.1591 56.1141 14.6225V17.5571H55.1978V12.3971H56.1141V13.2135H56.1328C56.5006 12.5884 57.0382 12.2758 57.7457 12.2758C58.0916 12.2758 58.3971 12.3706 58.662 12.5604C58.9269 12.7501 59.1108 13.0067 59.2137 13.3302C59.597 12.6272 60.1705 12.2758 60.9341 12.2758C62.0717 12.2758 62.6405 12.9756 62.6405 14.3752V17.5571Z" fill="white"/>
<path d="M64.0617 10.5775C64.0617 10.4158 64.1162 10.2805 64.2253 10.1716C64.3375 10.0596 64.4746 10.0037 64.6367 10.0037C64.8019 10.0037 64.9406 10.0581 65.0528 10.167C65.1681 10.2758 65.2258 10.4127 65.2258 10.5775C65.2258 10.7393 65.1681 10.8746 65.0528 10.9834C64.9406 11.0892 64.8019 11.142 64.6367 11.142C64.4715 11.142 64.3344 11.0892 64.2253 10.9834C64.1162 10.8746 64.0617 10.7393 64.0617 10.5775ZM64.1692 17.5571V12.3971H65.0855V17.5571H64.1692Z" fill="white"/>
<path d="M71.0976 17.5571H70.186V14.6225C70.186 13.5619 69.7979 13.0316 69.0219 13.0316C68.6198 13.0316 68.2895 13.1809 68.0308 13.4795C67.7721 13.7781 67.6427 14.156 67.6427 14.6132V17.5571H66.7264V12.3971H67.6427V13.2509H67.6614C68.051 12.6008 68.6167 12.2758 69.3585 12.2758C69.9257 12.2758 70.3574 12.4577 70.6535 12.8216C70.9496 13.1824 71.0976 13.7096 71.0976 14.4032V17.5571Z" fill="white"/>
<path d="M77.1144 17.1232C77.1144 19.033 76.1856 19.9879 74.328 19.9879C73.686 19.9879 73.1281 19.8681 72.6544 19.6286V18.7468C73.231 19.0672 73.7842 19.2274 74.314 19.2274C75.57 19.2274 76.1981 18.568 76.1981 17.2492V16.7033H76.1794C75.7867 17.3534 75.2007 17.6784 74.4215 17.6784C73.7733 17.6784 73.2543 17.4467 72.8648 16.9833C72.4752 16.5198 72.2804 15.9055 72.2804 15.1404C72.2804 14.2602 72.4954 13.5634 72.9255 13.0502C73.3556 12.5339 73.9291 12.2758 74.646 12.2758C75.3347 12.2758 75.8459 12.5495 76.1794 13.0969H76.1981V12.3971H77.1144V17.1232ZM76.1981 14.4872C76.2012 14.0891 76.0672 13.747 75.796 13.4608C75.5249 13.1747 75.1914 13.0316 74.7956 13.0316C74.2969 13.0316 73.9089 13.2151 73.6315 13.5821C73.3541 13.946 73.2154 14.4468 73.2154 15.0844C73.2154 15.6318 73.3494 16.075 73.6174 16.4141C73.8855 16.7531 74.2408 16.9226 74.6834 16.9226C75.129 16.9226 75.4937 16.7609 75.7773 16.4374C76.0609 16.1139 76.2012 15.7034 76.1981 15.2057V14.4872Z" fill="white"/>
<path d="M81.364 16.1995C81.5853 16.3923 81.8814 16.5509 82.2522 16.6753C82.6231 16.7998 82.9753 16.862 83.3088 16.862C84.3248 16.862 84.8329 16.5012 84.8329 15.7796C84.8329 15.5774 84.7783 15.3954 84.6692 15.2337C84.5601 15.072 84.4105 14.9289 84.2204 14.8045C84.0303 14.6801 83.6734 14.4888 83.1498 14.2306C82.4237 13.8698 81.9452 13.5355 81.7146 13.2275C81.484 12.9165 81.3687 12.5619 81.3687 12.1638C81.3687 11.5635 81.6102 11.0876 82.0933 10.7361C82.5764 10.3847 83.1857 10.2089 83.9212 10.2089C84.6412 10.2089 85.1695 10.296 85.5061 10.4702V11.4873C85.0697 11.1856 84.5181 11.0347 83.8511 11.0347C83.4085 11.0347 83.047 11.1281 82.7665 11.3147C82.4891 11.4982 82.3504 11.7548 82.3504 12.0845C82.3504 12.3769 82.447 12.6148 82.6403 12.7983C82.8335 12.9818 83.2527 13.2322 83.8978 13.5495C84.6085 13.8885 85.1056 14.2275 85.3892 14.5665C85.6728 14.9056 85.8146 15.2866 85.8146 15.7096C85.8146 16.3441 85.584 16.8309 85.1227 17.1699C84.6614 17.5089 84.021 17.6784 83.2013 17.6784C82.9145 17.6784 82.5795 17.638 82.1961 17.5571C81.8159 17.4794 81.5385 17.3814 81.364 17.2632V16.1995Z" fill="white"/>
<path d="M86.7636 15.0331C86.7636 14.1808 87.0021 13.509 87.4789 13.0176C87.9558 12.523 88.6025 12.2758 89.4191 12.2758C90.1951 12.2758 90.8029 12.5137 91.2423 12.9896C91.6849 13.4624 91.9062 14.1171 91.9062 14.9538C91.9062 15.7687 91.6709 16.4265 91.2003 16.9273C90.7296 17.428 90.0985 17.6784 89.3069 17.6784C88.5339 17.6784 87.9168 17.4358 87.4556 16.9506C86.9943 16.4654 86.7636 15.8262 86.7636 15.0331ZM87.6987 15.0051C87.6987 15.5992 87.8483 16.0673 88.1475 16.4094C88.4498 16.7515 88.8549 16.9226 89.363 16.9226C89.8866 16.9226 90.2855 16.7562 90.5598 16.4234C90.834 16.0875 90.9712 15.6069 90.9712 14.9818C90.9712 14.3535 90.834 13.8714 90.5598 13.5355C90.2855 13.1995 89.8866 13.0316 89.363 13.0316C88.8487 13.0316 88.442 13.2073 88.1428 13.5588C87.8467 13.9102 87.6987 14.3924 87.6987 15.0051Z" fill="white"/>
<path d="M92.8505 15.0331C92.8505 14.1808 93.089 13.509 93.5658 13.0176C94.0427 12.523 94.6894 12.2758 95.506 12.2758C96.282 12.2758 96.8898 12.5137 97.3292 12.9896C97.7718 13.4624 97.9931 14.1171 97.9931 14.9538C97.9931 15.7687 97.7578 16.4265 97.2872 16.9273C96.8165 17.428 96.1854 17.6784 95.3938 17.6784C94.6208 17.6784 94.0037 17.4358 93.5425 16.9506C93.0812 16.4654 92.8505 15.8262 92.8505 15.0331ZM93.7856 15.0051C93.7856 15.5992 93.9352 16.0673 94.2344 16.4094C94.5367 16.7515 94.9418 16.9226 95.4499 16.9226C95.9735 16.9226 96.3724 16.7562 96.6467 16.4234C96.9209 16.0875 97.0581 15.6069 97.0581 14.9818C97.0581 14.3535 96.9209 13.8714 96.6467 13.5355C96.3724 13.1995 95.9735 13.0316 95.4499 13.0316C94.9356 13.0316 94.5289 13.2073 94.2297 13.5588C93.9336 13.9102 93.7856 14.3924 93.7856 15.0051Z" fill="white"/>
<path d="M103.655 17.5571H102.743V14.6225C102.743 13.5619 102.355 13.0316 101.579 13.0316C101.177 13.0316 100.846 13.1809 100.588 13.4795C100.329 13.7781 100.2 14.156 100.2 14.6132V17.5571H99.2834V12.3971H100.2V13.2509H100.218C100.608 12.6008 101.174 12.2758 101.915 12.2758C102.483 12.2758 102.914 12.4577 103.21 12.8216C103.507 13.1824 103.655 13.7096 103.655 14.4032V17.5571Z" fill="white"/>
<defs>
<filter id="filter0_b_825_53565" x="-2.39362" y="-2.39362" width="148.404" height="52.5621" filterUnits="userSpaceOnUse" color-interpolation-filters="sRGB">
<feFlood flood-opacity="0" result="BackgroundImageFix"/>
<feGaussianBlur in="BackgroundImage" stdDeviation="1.19681"/>
<feComposite in2="SourceAlpha" operator="in" result="effect1_backgroundBlur_825_53565"/>
<feBlend mode="normal" in="SourceGraphic" in2="effect1_backgroundBlur_825_53565" result="shape"/>
</filter>
</defs>
</svg>
