<svg width="162" height="48" viewBox="0 0 162 48" fill="none" xmlns="http://www.w3.org/2000/svg">
<g filter="url(#filter0_b_825_53566)">
<path d="M151.183 0H11.2535C10.8372 0 10.426 0 10.0109 0.00233261C9.66334 0.00466521 9.3186 0.0116642 8.96776 0.0174951C8.21232 0.0373241 7.44746 0.0863124 6.69313 0.22861C5.93326 0.368576 5.22714 0.607683 4.53544 0.977424C3.85593 1.34367 3.23516 1.81955 2.69811 2.38524C2.15494 2.95093 1.70489 3.60644 1.36071 4.32142C1.00765 5.04808 0.78373 5.79456 0.651264 6.59469C0.514364 7.3855 0.467254 8.18564 0.447856 8.98578C0.437324 9.35202 0.436216 9.71943 0.430664 10.0857C0.430664 10.5184 0.430664 10.9523 0.430664 11.3897V36.3863C0.430664 36.8272 0.430664 37.2587 0.430664 37.6927C0.436216 38.0635 0.437324 38.4228 0.447856 38.7938C0.467254 39.5939 0.514365 40.394 0.651265 41.1848C0.78373 41.9849 1.00765 42.7349 1.36071 43.4592C1.70489 44.1707 2.15494 44.8263 2.69811 45.3873C3.23516 45.9576 3.85593 46.4324 4.53544 46.7951C5.22714 47.1683 5.93326 47.404 6.69313 47.5485C7.44746 47.6909 8.21232 47.7376 8.96776 47.7597C9.3186 47.7678 9.66334 47.7724 10.0109 47.7724C10.426 47.7748 10.8372 47.7748 11.2535 47.7748H151.183C151.591 47.7748 152.006 47.7748 152.414 47.7724C152.76 47.7724 153.114 47.7678 153.46 47.7597C154.221 47.7376 154.983 47.6909 155.73 47.5485C156.491 47.404 157.198 47.1683 157.896 46.7951C158.575 46.4324 159.195 45.9576 159.732 45.3873C160.273 44.8263 160.723 44.1707 161.073 43.4592C161.421 42.7349 161.647 41.9849 161.776 41.1848C161.916 40.394 161.96 39.5939 161.987 38.7938C161.991 38.4228 161.991 38.0635 161.991 37.6927C162 37.2587 162 36.8272 162 36.3863V11.3897C162 10.9523 162 10.5184 161.991 10.0857C161.991 9.71943 161.991 9.35202 161.987 8.98578C161.96 8.18564 161.916 7.3855 161.776 6.59469C161.647 5.79456 161.421 5.04808 161.073 4.32142C160.723 3.60644 160.273 2.95093 159.732 2.38524C159.195 1.81955 158.575 1.34367 157.896 0.977424C157.198 0.607683 156.491 0.368576 155.73 0.22861C154.983 0.0863124 154.221 0.0373241 153.46 0.0174951C153.114 0.0116642 152.76 0.00466521 152.414 0.00233261C152.006 0 151.591 0 151.183 0Z" fill="white" fill-opacity="0.02"/>
<path d="M153.447 0.615768C153.384 0.614701 153.321 0.613599 153.257 0.612498C152.973 0.607554 152.689 0.602609 152.41 0.600726L8.98059 0.615769M153.447 0.615768C154.194 0.635309 154.919 0.68317 155.618 0.816458L155.622 0.817128C156.324 0.946404 156.973 1.16579 157.614 1.50515M153.447 0.615768C153.448 0.615784 153.449 0.615799 153.45 0.615815L153.46 0.0174951L153.445 0.615696C153.445 0.61572 153.446 0.615744 153.447 0.615768ZM157.614 1.50515C158.235 1.84087 158.805 2.27747 159.298 2.79706L159.299 2.79879C159.795 3.31681 160.21 3.92002 160.535 4.58212M157.614 1.50515C157.613 1.50476 157.613 1.50437 157.612 1.50398L157.896 0.977424L157.616 1.50629C157.616 1.50591 157.615 1.50553 157.614 1.50515ZM160.535 4.58212C160.856 5.25305 161.065 5.94332 161.185 6.68959L161.187 6.69881C161.318 7.44409 161.362 8.20735 161.388 9.00003M160.535 4.58212C160.534 4.58138 160.534 4.58065 160.534 4.57991L161.073 4.32142L160.536 4.5847C160.535 4.58384 160.535 4.58298 160.535 4.58212ZM161.388 9.00003C161.393 9.35973 161.393 9.72119 161.393 10.0857L161.393 10.0979C161.402 10.5235 161.402 10.9512 161.402 11.3897V36.3863C161.402 36.8282 161.402 37.2537 161.393 37.6805L161.393 37.6805V37.6927C161.393 38.0619 161.393 38.4157 161.388 38.7803M161.388 9.00003C161.388 8.99769 161.388 8.99536 161.388 8.99302L161.987 8.98578L161.389 9.00571C161.389 9.0038 161.388 9.00195 161.388 9.00003ZM161.388 38.7803C161.362 39.5727 161.318 40.3356 161.187 41.0806L161.185 41.0899C161.065 41.8368 160.855 42.5302 160.535 43.1978M161.388 38.7803C161.388 38.7781 161.389 38.776 161.389 38.7738L161.987 38.7938L161.388 38.7866C161.388 38.7845 161.388 38.7824 161.388 38.7803ZM160.535 43.1978C160.21 43.8571 159.795 44.4597 159.301 44.9719L159.296 44.9772C158.804 45.5005 158.235 45.9354 157.614 46.2673M160.535 43.1978C160.535 43.1969 160.536 43.1959 160.536 43.1949L161.073 43.4592L160.534 43.2C160.534 43.1993 160.535 43.1986 160.535 43.1978ZM157.614 46.2673C156.975 46.6091 156.326 46.8262 155.619 46.9606L155.618 46.9607C154.919 47.0939 154.194 47.1396 153.444 47.1615M157.614 46.2673L157.896 46.7951L157.614 46.2674C157.614 46.2674 157.614 46.2673 157.614 46.2673ZM153.444 47.1615C153.103 47.1695 152.754 47.174 152.414 47.174L152.41 47.174C152.004 47.1764 151.591 47.1764 151.183 47.1764H11.2535C10.837 47.1764 10.4274 47.1764 10.0143 47.174H10.0109C9.66914 47.174 9.32949 47.1695 8.98287 47.1614C8.23859 47.1396 7.51181 47.094 6.80493 46.9606M153.444 47.1615C153.445 47.1614 153.446 47.1614 153.446 47.1614L153.46 47.7597L153.443 47.1615C153.443 47.1615 153.444 47.1615 153.444 47.1615ZM6.80493 46.9606C6.0981 46.8262 5.45123 46.6093 4.8196 46.2684L4.81724 46.2672C4.19556 45.9353 3.62664 45.5004 3.13375 44.977L3.1338 44.977L3.12802 44.971C2.63176 44.4585 2.21751 43.8562 1.89939 43.1986L1.8986 43.197C1.57414 42.5314 1.36594 41.8379 1.24163 41.087L1.24165 41.087L1.2409 41.0827C1.11132 40.3342 1.0652 39.5676 1.04609 38.7793L1.04602 38.7768C1.03897 38.5285 1.03628 38.2892 1.03349 38.0422C1.03219 37.9265 1.03087 37.809 1.02907 37.6882V37.6876V37.685V37.6825V37.68V37.6774V37.6749V37.6723V37.6698V37.6672V37.6647V37.6622V37.6596V37.6571V37.6545V37.652V37.6494V37.6469V37.6444V37.6418V37.6393V37.6367V37.6342V37.6317V37.6291V37.6266V37.624V37.6215V37.619V37.6164V37.6139V37.6113V37.6088V37.6062V37.6037V37.6012V37.5986V37.5961V37.5935V37.591V37.5885V37.5859V37.5834V37.5808V37.5783V37.5758V37.5732V37.5707V37.5681V37.5656V37.5631V37.5605V37.558V37.5554V37.5529V37.5504V37.5478V37.5453V37.5427V37.5402V37.5377V37.5351V37.5326V37.53V37.5275V37.525V37.5224V37.5199V37.5173V37.5148V37.5123V37.5097V37.5072V37.5046V37.5021V37.4996V37.497V37.4945V37.4919V37.4894V37.4869V37.4843V37.4818V37.4792V37.4767V37.4742V37.4716V37.4691V37.4665V37.464V37.4615V37.4589V37.4564V37.4538V37.4513V37.4488V37.4462V37.4437V37.4411V37.4386V37.4361V37.4335V37.431V37.4284V37.4259V37.4234V37.4208V37.4183V37.4157V37.4132V37.4107V37.4081V37.4056V37.403V37.4005V37.398V37.3954V37.3929V37.3904V37.3878V37.3853V37.3827V37.3802V37.3777V37.3751V37.3726V37.37V37.3675V37.365V37.3624V37.3599V37.3573V37.3548V37.3523V37.3497V37.3472V37.3446V37.3421V37.3396V37.337V37.3345V37.3319V37.3294V37.3269V37.3243V37.3218V37.3192V37.3167V37.3142V37.3116V37.3091V37.3065V37.304V37.3014V37.2989V37.2964V37.2938V37.2913V37.2887V37.2862V37.2837V37.2811V37.2786V37.276V37.2735V37.271V37.2684V37.2659V37.2633V37.2608V37.2583V37.2557V37.2532V37.2506V37.2481V37.2456V37.243V37.2405V37.2379V37.2354V37.2328V37.2303V37.2278V37.2252V37.2227V37.2201V37.2176V37.2151V37.2125V37.21V37.2074V37.2049V37.2024V37.1998V37.1973V37.1947V37.1922V37.1896V37.1871V37.1846V37.182V37.1795V37.1769V37.1744V37.1718V37.1693V37.1668V37.1642V37.1617V37.1591V37.1566V37.154V37.1515V37.149V37.1464V37.1439V37.1413V37.1388V37.1362V37.1337V37.1312V37.1286V37.1261V37.1235V37.121V37.1184V37.1159V37.1134V37.1108V37.1083V37.1057V37.1032V37.1006V37.0981V37.0956V37.093V37.0905V37.0879V37.0854V37.0828V37.0803V37.0777V37.0752V37.0727V37.0701V37.0676V37.065V37.0625V37.0599V37.0574V37.0548V37.0523V37.0497V37.0472V37.0447V37.0421V37.0396V37.037V37.0345V37.0319V37.0294V37.0268V37.0243V37.0217V37.0192V37.0166V37.0141V37.0116V37.009V37.0065V37.0039V37.0014V36.9988V36.9963V36.9937V36.9912V36.9886V36.9861V36.9835V36.981V36.9784V36.9759V36.9733V36.9708V36.9682V36.9657V36.9631V36.9606V36.958V36.9555V36.9529V36.9504V36.9479V36.9453V36.9428V36.9402V36.9377V36.9351V36.9326V36.93V36.9275V36.9249V36.9224V36.9198V36.9173V36.9147V36.9122V36.9096V36.9071V36.9045V36.902V36.8994V36.8968V36.8943V36.8917V36.8892V36.8866V36.8841V36.8815V36.879V36.8764V36.8739V36.8713V36.8688V36.8662V36.8637V36.8611V36.8586V36.856V36.8535V36.8509V36.8484V36.8458V36.8432V36.8407V36.8381V36.8356V36.833V36.8305V36.8279V36.8254V36.8228V36.8203V36.8177V36.8151V36.8126V36.81V36.8075V36.8049V36.8024V36.7998V36.7973V36.7947V36.7921V36.7896V36.787V36.7845V36.7819V36.7794V36.7768V36.7743V36.7717V36.7691V36.7666V36.764V36.7615V36.7589V36.7563V36.7538V36.7512V36.7487V36.7461V36.7436V36.741V36.7384V36.7359V36.7333V36.7308V36.7282V36.7256V36.7231V36.7205V36.718V36.7154V36.7128V36.7103V36.7077V36.7052V36.7026V36.7V36.6975V36.6949V36.6923V36.6898V36.6872V36.6847V36.6821V36.6795V36.677V36.6744V36.6718V36.6693V36.6667V36.6642V36.6616V36.659V36.6565V36.6539V36.6513V36.6488V36.6462V36.6436V36.6411V36.6385V36.636V36.6334V36.6308V36.6283V36.6257V36.6231V36.6206V36.618V36.6154V36.6129V36.6103V36.6077V36.6052V36.6026V36.6V36.5975V36.5949V36.5923V36.5897V36.5872V36.5846V36.582V36.5795V36.5769V36.5743V36.5718V36.5692V36.5666V36.5641V36.5615V36.5589V36.5563V36.5538V36.5512V36.5486V36.5461V36.5435V36.5409V36.5383V36.5358V36.5332V36.5306V36.5281V36.5255V36.5229V36.5203V36.5178V36.5152V36.5126V36.51V36.5075V36.5049V36.5023V36.4997V36.4972V36.4946V36.492V36.4894V36.4869V36.4843V36.4817V36.4791V36.4766V36.474V36.4714V36.4688V36.4663V36.4637V36.4611V36.4585V36.4559V36.4534V36.4508V36.4482V36.4456V36.4431V36.4405V36.4379V36.4353V36.4327V36.4302V36.4276V36.425V36.4224V36.4198V36.4173V36.4147V36.4121V36.4095V36.4069V36.4043V36.4018V36.3992V36.3966V36.394V36.3914V36.3888V36.3863V11.3897V11.3871V11.3845V11.382V11.3794V11.3769V11.3743V11.3717V11.3692V11.3666V11.364V11.3615V11.3589V11.3564V11.3538V11.3512V11.3487V11.3461V11.3436V11.341V11.3384V11.3359V11.3333V11.3307V11.3282V11.3256V11.3231V11.3205V11.3179V11.3154V11.3128V11.3103V11.3077V11.3051V11.3026V11.3V11.2975V11.2949V11.2923V11.2898V11.2872V11.2847V11.2821V11.2795V11.277V11.2744V11.2719V11.2693V11.2667V11.2642V11.2616V11.2591V11.2565V11.254V11.2514V11.2488V11.2463V11.2437V11.2412V11.2386V11.236V11.2335V11.2309V11.2284V11.2258V11.2233V11.2207V11.2181V11.2156V11.213V11.2105V11.2079V11.2054V11.2028V11.2002V11.1977V11.1951V11.1926V11.19V11.1875V11.1849V11.1823V11.1798V11.1772V11.1747V11.1721V11.1696V11.167V11.1644V11.1619V11.1593V11.1568V11.1542V11.1517V11.1491V11.1466V11.144V11.1414V11.1389V11.1363V11.1338V11.1312V11.1287V11.1261V11.1236V11.121V11.1184V11.1159V11.1133V11.1108V11.1082V11.1057V11.1031V11.1006V11.098V11.0955V11.0929V11.0903V11.0878V11.0852V11.0827V11.0801V11.0776V11.075V11.0725V11.0699V11.0674V11.0648V11.0623V11.0597V11.0571V11.0546V11.052V11.0495V11.0469V11.0444V11.0418V11.0393V11.0367V11.0342V11.0316V11.0291V11.0265V11.024V11.0214V11.0189V11.0163V11.0137V11.0112V11.0086V11.0061V11.0035V11.001V10.9984V10.9959V10.9933V10.9908V10.9882V10.9857V10.9831V10.9806V10.978V10.9755V10.9729V10.9704V10.9678V10.9653V10.9627V10.9602V10.9576V10.9551V10.9525V10.95V10.9474V10.9449V10.9423V10.9398V10.9372V10.9347V10.9321V10.9296V10.927V10.9245V10.9219V10.9194V10.9168V10.9143V10.9117V10.9092V10.9066V10.9041V10.9015V10.899V10.8964V10.8939V10.8913V10.8888V10.8862V10.8837V10.8811V10.8786V10.876V10.8735V10.8709V10.8684V10.8658V10.8633V10.8607V10.8582V10.8556V10.8531V10.8505V10.848V10.8454V10.8429V10.8403V10.8378V10.8352V10.8327V10.8302V10.8276V10.8251V10.8225V10.82V10.8174V10.8149V10.8123V10.8098V10.8072V10.8047V10.8021V10.7996V10.797V10.7945V10.7919V10.7894V10.7868V10.7843V10.7818V10.7792V10.7767V10.7741V10.7716V10.769V10.7665V10.7639V10.7614V10.7588V10.7563V10.7537V10.7512V10.7487V10.7461V10.7436V10.741V10.7385V10.7359V10.7334V10.7308V10.7283V10.7257V10.7232V10.7206V10.7181V10.7156V10.713V10.7105V10.7079V10.7054V10.7028V10.7003V10.6977V10.6952V10.6927V10.6901V10.6876V10.685V10.6825V10.6799V10.6774V10.6748V10.6723V10.6697V10.6672V10.6647V10.6621V10.6596V10.657V10.6545V10.6519V10.6494V10.6469V10.6443V10.6418V10.6392V10.6367V10.6341V10.6316V10.629V10.6265V10.624V10.6214V10.6189V10.6163V10.6138V10.6112V10.6087V10.6062V10.6036V10.6011V10.5985V10.596V10.5934V10.5909V10.5884V10.5858V10.5833V10.5807V10.5782V10.5756V10.5731V10.5706V10.568V10.5655V10.5629V10.5604V10.5578V10.5553V10.5528V10.5502V10.5477V10.5451V10.5426V10.54V10.5375V10.535V10.5324V10.5299V10.5273V10.5248V10.5223V10.5197V10.5172V10.5146V10.5121V10.5095V10.507V10.5045V10.5019V10.4994V10.4968V10.4943V10.4918V10.4892V10.4867V10.4841V10.4816V10.4791V10.4765V10.474V10.4714V10.4689V10.4664V10.4638V10.4613V10.4587V10.4562V10.4536V10.4511V10.4486V10.446V10.4435V10.4409V10.4384V10.4359V10.4333V10.4308V10.4282V10.4257V10.4232V10.4206V10.4181V10.4155V10.413V10.4105V10.4079V10.4054V10.4028V10.4003V10.3978V10.3952V10.3927V10.3902V10.3876V10.3851V10.3825V10.38V10.3775V10.3749V10.3724V10.3698V10.3673V10.3648V10.3622V10.3597V10.3571V10.3546V10.3521V10.3495V10.347V10.3444V10.3419V10.3394V10.3368V10.3343V10.3318V10.3292V10.3267V10.3241V10.3216V10.3191V10.3165V10.314V10.3114V10.3089V10.3064V10.3038V10.3013V10.2988V10.2962V10.2937V10.2911V10.2886V10.2861V10.2835V10.281V10.2785V10.2759V10.2734V10.2708V10.2683V10.2658V10.2632V10.2607V10.2582V10.2556V10.2531V10.2505V10.248V10.2455V10.2429V10.2404V10.2379V10.2353V10.2328V10.2302V10.2277V10.2252V10.2226V10.2201V10.2176V10.215V10.2125V10.2099V10.2074V10.2049V10.2023V10.1998V10.1973V10.1947V10.1922V10.1896V10.1871V10.1846V10.182V10.1795V10.177V10.1744V10.1719V10.1694V10.1668V10.1643V10.1617V10.1592V10.1567V10.1541V10.1516V10.1491V10.1465V10.144V10.1415V10.1389V10.1364V10.1339V10.1313V10.1288V10.1262V10.1237V10.1212V10.1186V10.1161V10.1136V10.111V10.1085V10.106V10.1034V10.1009V10.0983V10.0958V10.0933V10.0907V10.0902C1.03089 9.96915 1.03223 9.85039 1.03355 9.73295C1.03631 9.48686 1.03901 9.24653 1.04602 9.00298L1.04608 9.00028C1.0652 8.21186 1.11132 7.4453 1.2409 6.69677L1.24091 6.69677L1.24163 6.69243C1.36583 5.94224 1.57393 5.25188 1.89894 4.58294L1.89895 4.58294L1.89989 4.58098C2.21774 3.92071 2.63211 3.31797 3.12975 2.7997L3.12975 2.7997L3.13208 2.79725C3.62584 2.27717 4.1958 1.84039 4.81846 1.50467M6.80493 46.9606L6.69316 47.5483L6.8041 46.9605C6.80438 46.9605 6.80466 46.9606 6.80493 46.9606ZM4.81846 1.50467C5.45241 1.16593 6.09919 0.946482 6.80153 0.817114L6.80153 0.81712L6.80405 0.816643C7.51171 0.683151 8.23913 0.635305 8.98059 0.615769M4.81846 1.50467C4.81876 1.50451 4.81906 1.50435 4.81935 1.50419L4.53544 0.977424L4.81753 1.50516C4.81784 1.505 4.81815 1.50483 4.81846 1.50467ZM8.98059 0.615769C8.97963 0.615785 8.97866 0.615801 8.9777 0.615817L8.96776 0.0174951L8.98346 0.615694C8.9825 0.615719 8.98155 0.615744 8.98059 0.615769ZM10.0149 0.600724L10.0109 0.00233261L10.0142 0.600728C10.0143 0.600727 10.0144 0.600727 10.0145 0.600726C10.0146 0.600725 10.0148 0.600725 10.0149 0.600724Z" stroke="white" stroke-opacity="0.2" stroke-width="1.19681"/>
</g>
<path d="M12.987 9.0906C12.586 9.45222 12.3467 10.0554 12.3467 10.8561V10.6751V37.0959V36.9218C12.3467 37.6612 12.552 38.2323 12.8997 38.6L12.9884 38.6849V38.6853C13.2698 38.9392 13.6307 39.0739 14.0443 39.0735C14.4484 39.0735 14.903 38.9447 15.3829 38.6728L32.7268 28.8225L38.6843 25.4386C39.4409 25.0089 39.8656 24.4547 39.9366 23.8901V23.8878C39.8656 23.3219 39.4409 22.768 38.6843 22.3384L32.7263 18.9549L15.3829 9.10455C14.9021 8.83214 14.4471 8.70288 14.0419 8.70288C13.6288 8.70288 13.2684 8.83724 12.9871 9.0906H12.987Z" fill="#00C1FF"/>
<path d="M12.9885 38.6851L12.8997 38.6001C12.552 38.2324 12.3467 37.6614 12.3467 36.922V37.096V10.6817V10.8562C12.3467 10.0555 12.586 9.45235 12.987 9.09072L27.7913 23.8884L12.9885 38.6851Z" fill="url(#paint0_linear_825_53566)"/>
<path d="M32.7264 28.8225L27.791 23.8883L32.726 18.955L38.684 22.3384C39.4406 22.7681 39.8653 23.3219 39.9363 23.8878V23.8901C39.8653 24.4547 39.4406 25.009 38.684 25.4386L32.7265 28.8225" fill="url(#paint1_linear_825_53566)"/>
<path d="M14.044 39.0737C13.6305 39.0741 13.2696 38.9393 12.9883 38.6855V38.6851L27.7911 23.8884L32.7266 28.8226L15.3826 38.673C14.9028 38.945 14.4481 39.0737 14.044 39.0737Z" fill="url(#paint2_linear_825_53566)"/>
<path d="M27.7917 23.8884L12.9873 9.09078C13.2687 8.83742 13.6291 8.70306 14.0421 8.70306C14.4473 8.70306 14.9024 8.83226 15.3832 9.10473L32.7266 18.9551L27.7916 23.8884" fill="url(#paint3_linear_825_53566)"/>
<path d="M14.0444 39.2485C13.6309 39.2485 13.2695 39.1137 12.9881 38.8599L12.9876 38.8603C12.9865 38.8592 12.9852 38.8581 12.9839 38.8571L12.9069 38.782C12.9045 38.7796 12.9023 38.7769 12.8994 38.7741L12.9882 38.6854C13.2696 38.9392 13.6304 39.074 14.044 39.0735C14.4481 39.0735 14.9027 38.9448 15.3826 38.6728L32.7265 28.8225L32.8376 28.9336L32.7251 28.9975L15.3825 38.8473C14.9452 39.0951 14.5293 39.2243 14.1536 39.2458C14.1172 39.2476 14.0808 39.2485 14.0444 39.2485" fill="url(#paint4_linear_825_53566)"/>
<path d="M12.8997 38.7744C12.552 38.4067 12.3467 37.8361 12.3467 37.0962V36.9222C12.3467 37.6616 12.552 38.2326 12.8997 38.6004L12.9884 38.6853L12.8997 38.7744" fill="url(#paint5_linear_825_53566)"/>
<path d="M32.8379 28.9338L32.7268 28.8227L38.6843 25.4388C39.4409 25.0092 39.8657 24.4549 39.9367 23.8903C39.9367 24.0975 39.8904 24.3047 39.7986 24.5063C39.6132 24.9126 39.2418 25.2966 38.6844 25.6133L32.8379 28.9338" fill="url(#paint6_linear_825_53566)"/>
<path d="M39.9365 23.8882C39.8655 23.3223 39.4407 22.7685 38.6841 22.3387L32.7261 18.9553L32.8372 18.8442H32.8377L38.6841 22.1647C39.5183 22.6387 39.936 23.2634 39.9365 23.8882" fill="url(#paint7_linear_825_53566)"/>
<path d="M12.3467 10.8562V10.6737C12.3467 10.6079 12.3485 10.5435 12.3518 10.481V10.4782C12.3518 10.4773 12.3518 10.4764 12.3522 10.4755V10.4684C12.3881 9.83154 12.586 9.33475 12.8997 9.00303L12.987 9.09068C12.586 9.45236 12.3467 10.0555 12.3467 10.8562Z" fill="url(#paint8_linear_825_53566)"/>
<path d="M32.726 18.9551L15.3826 9.10465C14.9018 8.83223 14.4468 8.70303 14.0416 8.70303C13.6285 8.70303 13.2681 8.83739 12.9868 9.09075L12.8994 9.00304C12.9267 8.97417 12.955 8.94633 12.9844 8.91957C12.9853 8.9186 12.9868 8.91763 12.9877 8.91672C13.2668 8.66529 13.6234 8.53094 14.0328 8.52852H14.0416C14.4468 8.52852 14.9018 8.65778 15.3826 8.9303L32.8376 18.8436L32.8371 18.844L32.726 18.9551" fill="url(#paint9_linear_825_53566)"/>
<path d="M128.397 35.8311H130.626V20.9001H128.397L128.397 35.8311ZM148.479 26.2786L145.923 32.752H145.847L143.194 26.2786H140.792L144.77 35.3263L142.502 40.359H144.829L150.958 26.2786L148.479 26.2786ZM135.835 34.1353C135.103 34.1353 134.085 33.7704 134.085 32.8672C134.085 31.7147 135.354 31.273 136.449 31.273C137.43 31.273 137.89 31.4842 138.486 31.7727C138.313 33.1555 137.122 34.1353 135.835 34.1353ZM136.104 25.9519C134.489 25.9519 132.818 26.6629 132.126 28.2381L134.105 29.0639C134.528 28.2381 135.315 27.9688 136.142 27.9688C137.295 27.9688 138.467 28.6607 138.486 29.8901V30.0436C138.082 29.8131 137.218 29.4674 136.161 29.4674C134.028 29.4674 131.856 30.6389 131.856 32.8289C131.856 34.8267 133.605 36.1139 135.565 36.1139C137.064 36.1139 137.89 35.4415 138.41 34.6541H138.486V35.8064H140.638V30.0818C140.638 27.4314 138.659 25.9519 136.104 25.9519ZM122.324 28.0961H119.153V22.9782H122.324C123.991 22.9782 124.937 24.3577 124.937 25.5371C124.937 26.6942 123.991 28.0961 122.324 28.0961ZM122.267 20.9001H116.925V35.8311H119.153V30.1742H122.267C124.738 30.1742 127.167 28.3859 127.167 25.5371C127.167 22.6884 124.738 20.9001 122.267 20.9001ZM93.1346 34.138C91.5943 34.138 90.3047 32.849 90.3047 31.0784C90.3047 29.2892 91.5943 27.9805 93.1346 27.9805C94.6553 27.9805 95.8488 29.2892 95.8488 31.0784C95.8488 32.849 94.6553 34.138 93.1346 34.138ZM95.6947 27.1146H95.6177C95.1174 26.5183 94.1544 25.9795 92.9419 25.9795C90.4009 25.9795 88.0718 28.2114 88.0718 31.0784C88.0718 33.9263 90.4008 36.1391 92.9419 36.1391C94.1544 36.1391 95.1174 35.6002 95.6177 34.9848H95.6947V35.7159C95.6947 37.6596 94.6553 38.6986 92.9806 38.6986C91.6139 38.6986 90.7668 37.7169 90.42 36.8897L88.4761 37.6978C89.0343 39.0447 90.5166 40.6997 92.9806 40.6997C95.5986 40.6997 97.8123 39.16 97.8123 35.408V26.2874H95.6947V27.1146ZM99.3522 35.8311H101.585V20.8996H99.3522V35.8311ZM104.877 30.9053C104.819 28.9425 106.398 27.9422 107.533 27.9422C108.419 27.9422 109.17 28.3845 109.42 29.0201L104.877 30.9053ZM111.807 29.2122C111.384 28.0766 110.093 25.9795 107.456 25.9795C104.838 25.9795 102.663 28.0383 102.663 31.0593C102.663 33.9072 104.819 36.1391 107.706 36.1391C110.036 36.1391 111.384 34.7151 111.942 33.8879L110.209 32.7332C109.632 33.58 108.842 34.138 107.706 34.138C106.571 34.138 105.763 33.6183 105.242 32.5988L112.038 29.7893L111.807 29.2122ZM57.6692 27.5382V29.6932H62.8281C62.6741 30.9053 62.2698 31.7904 61.6538 32.4062C60.9033 33.1568 59.729 33.9841 57.6692 33.9841C54.4929 33.9841 52.0098 31.425 52.0098 28.2501C52.0098 25.0753 54.4929 22.5158 57.6692 22.5158C59.3826 22.5158 60.6335 23.1895 61.5576 24.0553L63.0783 22.5354C61.7887 21.3036 60.0753 20.3608 57.6692 20.3608C53.3186 20.3608 49.6611 23.9014 49.6611 28.2501C49.6611 32.5988 53.3186 36.1391 57.6692 36.1391C60.0179 36.1391 61.7887 35.3698 63.1745 33.9263C64.599 32.5023 65.042 30.5013 65.042 28.8852C65.042 28.3845 65.0036 27.9231 64.9262 27.5382H57.6692ZM70.9071 34.138C69.3668 34.138 68.0385 32.868 68.0385 31.0593C68.0385 29.2313 69.3668 27.9805 70.9071 27.9805C72.4469 27.9805 73.7752 29.2313 73.7752 31.0593C73.7752 32.8681 72.4469 34.138 70.9071 34.138ZM70.9071 25.9795C68.0963 25.9795 65.8055 28.1153 65.8055 31.0593C65.8055 33.9841 68.0963 36.1391 70.9071 36.1391C73.7174 36.1391 76.0082 33.9841 76.0082 31.0593C76.0082 28.1153 73.7174 25.9795 70.9071 25.9795ZM82.0352 34.138C80.4956 34.138 79.1671 32.868 79.1671 31.0593C79.1671 29.2313 80.4956 27.9805 82.0353 27.9805C83.5751 27.9805 84.9035 29.2313 84.9035 31.0593C84.9035 32.8681 83.5751 34.138 82.0352 34.138ZM82.0352 25.9795C79.2246 25.9795 76.9342 28.1153 76.9342 31.0593C76.9342 33.9841 79.2246 36.1391 82.0353 36.1391C84.8456 36.1391 87.1365 33.9841 87.1365 31.0593C87.1365 28.1153 84.8456 25.9795 82.0352 25.9795Z" fill="white"/>
<path d="M56.5871 14.8699C56.0542 15.1498 55.3856 15.2898 54.5815 15.2898C53.5437 15.2898 52.7146 14.9616 52.0944 14.3053C51.4742 13.6459 51.1641 12.775 51.1641 11.6926C51.1641 10.5294 51.5131 9.59317 52.2113 8.88401C52.9094 8.17485 53.7961 7.82027 54.8714 7.82027C55.5633 7.82027 56.1352 7.91825 56.5871 8.1142V9.08929C56.0697 8.80314 55.5009 8.66006 54.8807 8.66006C54.0735 8.66006 53.4159 8.92911 52.9079 9.4672C52.3998 10.0022 52.1458 10.7253 52.1458 11.6367C52.1458 12.5013 52.3827 13.1887 52.8564 13.6988C53.3302 14.2058 53.9504 14.4593 54.7171 14.4593C55.4339 14.4593 56.0573 14.2976 56.5871 13.9741V14.8699Z" fill="white"/>
<path d="M57.5735 12.6444C57.5735 11.7922 57.812 11.1203 58.2888 10.6289C58.7657 10.1344 59.4124 9.88709 60.229 9.88709C61.005 9.88709 61.6128 10.125 62.0522 10.6009C62.4948 11.0737 62.7161 11.7284 62.7161 12.5651C62.7161 13.38 62.4808 14.0378 62.0101 14.5386C61.5395 15.0394 60.9084 15.2898 60.1168 15.2898C59.3438 15.2898 58.7267 15.0471 58.2654 14.5619C57.8042 14.0767 57.5735 13.4375 57.5735 12.6444ZM58.5085 12.6164C58.5085 13.2105 58.6581 13.6786 58.9573 14.0207C59.2597 14.3629 59.6648 14.5339 60.1729 14.5339C60.6965 14.5339 61.0954 14.3675 61.3697 14.0347C61.6439 13.6988 61.7811 13.2183 61.7811 12.5931C61.7811 11.9648 61.6439 11.4827 61.3697 11.1468C61.0954 10.8109 60.6965 10.6429 60.1729 10.6429C59.6586 10.6429 59.2519 10.8186 58.9527 11.1701C58.6566 11.5216 58.5085 12.0037 58.5085 12.6164Z" fill="white"/>
<path d="M71.449 15.1685H70.5327V12.2059C70.5327 11.646 70.4455 11.2463 70.2709 11.0068C70.0964 10.7642 69.8097 10.6429 69.4107 10.6429C69.0741 10.6429 68.7858 10.8 68.5458 11.1141C68.3059 11.4283 68.1859 11.8 68.1859 12.2292V15.1685H67.2696V12.1125C67.2696 11.1328 66.8909 10.6429 66.1335 10.6429C65.7845 10.6429 65.4946 10.7922 65.264 11.0908C65.0365 11.3894 64.9227 11.7704 64.9227 12.2338V15.1685H64.0064V10.0084H64.9227V10.8249H64.9414C65.3092 10.1997 65.8468 9.88709 66.5543 9.88709C66.9002 9.88709 67.2057 9.98196 67.4706 10.1717C67.7355 10.3614 67.9194 10.618 68.0222 10.9415C68.4056 10.2386 68.9791 9.88709 69.7427 9.88709C70.8803 9.88709 71.449 10.5869 71.449 11.9866V15.1685Z" fill="white"/>
<path d="M72.8703 8.18885C72.8703 8.02711 72.9248 7.89181 73.0339 7.78295C73.1461 7.67098 73.2832 7.61499 73.4453 7.61499C73.6105 7.61499 73.7492 7.66942 73.8614 7.77828C73.9767 7.88715 74.0343 8.024 74.0343 8.18885C74.0343 8.35059 73.9767 8.48589 73.8614 8.59475C73.7492 8.7005 73.6105 8.75337 73.4453 8.75337C73.2801 8.75337 73.143 8.7005 73.0339 8.59475C72.9248 8.48589 72.8703 8.35059 72.8703 8.18885ZM72.9778 15.1685V10.0084H73.8941V15.1685H72.9778Z" fill="white"/>
<path d="M79.9062 15.1685H78.9946V12.2338C78.9946 11.1732 78.6065 10.6429 77.8305 10.6429C77.4284 10.6429 77.098 10.7922 76.8394 11.0908C76.5807 11.3894 76.4513 11.7673 76.4513 12.2245V15.1685H75.535V10.0084H76.4513V10.8622H76.47C76.8596 10.2121 77.4253 9.88709 78.1671 9.88709C78.7343 9.88709 79.166 10.069 79.4621 10.433C79.7581 10.7938 79.9062 11.321 79.9062 12.0146V15.1685Z" fill="white"/>
<path d="M85.923 14.7346C85.923 16.6443 84.9942 17.5992 83.1366 17.5992C82.4946 17.5992 81.9367 17.4794 81.463 17.2399V16.3582C82.0396 16.6785 82.5928 16.8387 83.1226 16.8387C84.3786 16.8387 85.0067 16.1793 85.0067 14.8605V14.3147H84.988C84.5953 14.9647 84.0093 15.2898 83.2301 15.2898C82.5819 15.2898 82.0629 15.058 81.6734 14.5946C81.2838 14.1312 81.089 13.5169 81.089 12.7517C81.089 11.8715 81.304 11.1748 81.7341 10.6616C82.1642 10.1453 82.7377 9.88709 83.4545 9.88709C84.1433 9.88709 84.6545 10.1608 84.988 10.7082H85.0067V10.0084H85.923V14.7346ZM85.0067 12.0985C85.0098 11.7004 84.8758 11.3583 84.6046 11.0721C84.3334 10.786 84 10.6429 83.6041 10.6429C83.1055 10.6429 82.7174 10.8264 82.4401 11.1934C82.1627 11.5573 82.024 12.0581 82.024 12.6957C82.024 13.2432 82.158 13.6864 82.426 14.0254C82.6941 14.3644 83.0494 14.5339 83.4919 14.5339C83.9376 14.5339 84.3023 14.3722 84.5859 14.0487C84.8695 13.7253 85.0098 13.3147 85.0067 12.817V12.0985Z" fill="white"/>
<path d="M90.1726 13.8108C90.3939 14.0036 90.6899 14.1623 91.0608 14.2867C91.4317 14.4111 91.7839 14.4733 92.1174 14.4733C93.1334 14.4733 93.6414 14.1125 93.6414 13.3909C93.6414 13.1887 93.5869 13.0068 93.4778 12.845C93.3687 12.6833 93.2191 12.5402 93.029 12.4158C92.8389 12.2914 92.482 12.1001 91.9584 11.8419C91.2322 11.4811 90.7538 11.1468 90.5232 10.8389C90.2926 10.5278 90.1772 10.1732 90.1772 9.77512C90.1772 9.17483 90.4188 8.69894 90.9019 8.34748C91.385 7.99601 91.9943 7.82027 92.7298 7.82027C93.4498 7.82027 93.978 7.90736 94.3147 8.08154V9.09862C93.8783 8.79692 93.3267 8.64607 92.6597 8.64607C92.2171 8.64607 91.8556 8.73938 91.5751 8.926C91.2977 9.10951 91.159 9.36611 91.159 9.69581C91.159 9.98818 91.2556 10.2261 91.4489 10.4096C91.6421 10.5931 92.0613 10.8435 92.7064 11.1608C93.417 11.4998 93.9142 11.8388 94.1978 12.1779C94.4814 12.5169 94.6232 12.8979 94.6232 13.3209C94.6232 13.9554 94.3926 14.4422 93.9313 14.7812C93.47 15.1202 92.8295 15.2898 92.0099 15.2898C91.7231 15.2898 91.3881 15.2493 91.0047 15.1685C90.6245 15.0907 90.3471 14.9927 90.1726 14.8745V13.8108Z" fill="white"/>
<path d="M95.5722 12.6444C95.5722 11.7922 95.8107 11.1203 96.2875 10.6289C96.7644 10.1344 97.4111 9.88709 98.2277 9.88709C99.0037 9.88709 99.6115 10.125 100.051 10.6009C100.493 11.0737 100.715 11.7284 100.715 12.5651C100.715 13.38 100.479 14.0378 100.009 14.5386C99.5382 15.0394 98.9071 15.2898 98.1155 15.2898C97.3425 15.2898 96.7254 15.0471 96.2641 14.5619C95.8029 14.0767 95.5722 13.4375 95.5722 12.6444ZM96.5072 12.6164C96.5072 13.2105 96.6568 13.6786 96.956 14.0207C97.2584 14.3629 97.6635 14.5339 98.1716 14.5339C98.6952 14.5339 99.0941 14.3675 99.3684 14.0347C99.6426 13.6988 99.7798 13.2183 99.7798 12.5931C99.7798 11.9648 99.6426 11.4827 99.3684 11.1468C99.0941 10.8109 98.6952 10.6429 98.1716 10.6429C97.6573 10.6429 97.2506 10.8186 96.9514 11.1701C96.6553 11.5216 96.5072 12.0037 96.5072 12.6164Z" fill="white"/>
<path d="M101.659 12.6444C101.659 11.7922 101.898 11.1203 102.374 10.6289C102.851 10.1344 103.498 9.88709 104.315 9.88709C105.091 9.88709 105.698 10.125 106.138 10.6009C106.58 11.0737 106.802 11.7284 106.802 12.5651C106.802 13.38 106.566 14.0378 106.096 14.5386C105.625 15.0394 104.994 15.2898 104.202 15.2898C103.429 15.2898 102.812 15.0471 102.351 14.5619C101.89 14.0767 101.659 13.4375 101.659 12.6444ZM102.594 12.6164C102.594 13.2105 102.744 13.6786 103.043 14.0207C103.345 14.3629 103.75 14.5339 104.258 14.5339C104.782 14.5339 105.181 14.3675 105.455 14.0347C105.73 13.6988 105.867 13.2183 105.867 12.5931C105.867 11.9648 105.73 11.4827 105.455 11.1468C105.181 10.8109 104.782 10.6429 104.258 10.6429C103.744 10.6429 103.337 10.8186 103.038 11.1701C102.742 11.5216 102.594 12.0037 102.594 12.6164Z" fill="white"/>
<path d="M112.463 15.1685H111.552V12.2338C111.552 11.1732 111.163 10.6429 110.387 10.6429C109.985 10.6429 109.655 10.7922 109.396 11.0908C109.138 11.3894 109.008 11.7673 109.008 12.2245V15.1685H108.092V10.0084H109.008V10.8622H109.027C109.417 10.2121 109.982 9.88709 110.724 9.88709C111.291 9.88709 111.723 10.069 112.019 10.433C112.315 10.7938 112.463 11.321 112.463 12.0146V15.1685Z" fill="white"/>
<defs>
<filter id="filter0_b_825_53566" x="-1.96295" y="-2.39362" width="166.357" height="52.5621" filterUnits="userSpaceOnUse" color-interpolation-filters="sRGB">
<feFlood flood-opacity="0" result="BackgroundImageFix"/>
<feGaussianBlur in="BackgroundImage" stdDeviation="1.19681"/>
<feComposite in2="SourceAlpha" operator="in" result="effect1_backgroundBlur_825_53566"/>
<feBlend mode="normal" in="SourceGraphic" in2="effect1_backgroundBlur_825_53566" result="shape"/>
</filter>
<linearGradient id="paint0_linear_825_53566" x1="21.8075" y1="10.4026" x2="9.0756" y2="23.181" gradientUnits="userSpaceOnUse">
<stop stop-color="#00A0FF"/>
<stop offset="0.00657" stop-color="#00A1FF"/>
<stop offset="0.2601" stop-color="#00BEFF"/>
<stop offset="0.5122" stop-color="#00D2FF"/>
<stop offset="0.7604" stop-color="#00DFFF"/>
<stop offset="1" stop-color="#00E3FF"/>
</linearGradient>
<linearGradient id="paint1_linear_825_53566" x1="40.8582" y1="23.8031" x2="11.9457" y2="23.8031" gradientUnits="userSpaceOnUse">
<stop stop-color="#FFE000"/>
<stop offset="0.4087" stop-color="#FFBD00"/>
<stop offset="0.7754" stop-color="#FFA500"/>
<stop offset="1" stop-color="#FF9C00"/>
</linearGradient>
<linearGradient id="paint2_linear_825_53566" x1="30.1063" y1="28.5796" x2="8.53076" y2="50.0759" gradientUnits="userSpaceOnUse">
<stop stop-color="#FF3A44"/>
<stop offset="1" stop-color="#C31162"/>
</linearGradient>
<linearGradient id="paint3_linear_825_53566" x1="9.17181" y1="6.89695" x2="18.7875" y2="16.4921" gradientUnits="userSpaceOnUse">
<stop stop-color="#32A071"/>
<stop offset="0.0685" stop-color="#2DA771"/>
<stop offset="0.4762" stop-color="#15CF74"/>
<stop offset="0.8009" stop-color="#06E775"/>
<stop offset="1" stop-color="#00F076"/>
</linearGradient>
<linearGradient id="paint4_linear_825_53566" x1="30.0954" y1="32.0022" x2="12.8169" y2="49.344" gradientUnits="userSpaceOnUse">
<stop stop-color="#CC2E36"/>
<stop offset="1" stop-color="#9C0E4E"/>
</linearGradient>
<linearGradient id="paint5_linear_825_53566" x1="14.3188" y1="10.4028" x2="3.10219" y2="21.6606" gradientUnits="userSpaceOnUse">
<stop stop-color="#008DE0"/>
<stop offset="0.00657" stop-color="#008DE0"/>
<stop offset="0.2601" stop-color="#00A7E0"/>
<stop offset="0.5122" stop-color="#00B8E0"/>
<stop offset="0.7604" stop-color="#00C4E0"/>
<stop offset="1" stop-color="#00C7E0"/>
</linearGradient>
<linearGradient id="paint6_linear_825_53566" x1="40.8586" y1="23.8892" x2="11.9461" y2="23.8892" gradientUnits="userSpaceOnUse">
<stop stop-color="#E0C500"/>
<stop offset="0.4087" stop-color="#E0A600"/>
<stop offset="0.7754" stop-color="#E09100"/>
<stop offset="1" stop-color="#E08900"/>
</linearGradient>
<linearGradient id="paint7_linear_825_53566" x1="40.8583" y1="23.8894" x2="11.9459" y2="23.8894" gradientUnits="userSpaceOnUse">
<stop stop-color="#FFE840"/>
<stop offset="0.4087" stop-color="#FFCE40"/>
<stop offset="0.7754" stop-color="#FFBC40"/>
<stop offset="1" stop-color="#FFB540"/>
</linearGradient>
<linearGradient id="paint8_linear_825_53566" x1="14.3066" y1="10.4229" x2="3.50205" y2="20.7972" gradientUnits="userSpaceOnUse">
<stop stop-color="#40B8FF"/>
<stop offset="0.00657" stop-color="#40B9FF"/>
<stop offset="0.2601" stop-color="#40CEFF"/>
<stop offset="0.5122" stop-color="#40DDFF"/>
<stop offset="0.7604" stop-color="#40E7FF"/>
<stop offset="1" stop-color="#40EAFF"/>
</linearGradient>
<linearGradient id="paint9_linear_825_53566" x1="9.14964" y1="10.0263" x2="16.8653" y2="17.7703" gradientUnits="userSpaceOnUse">
<stop stop-color="#65B895"/>
<stop offset="0.0685" stop-color="#62BD95"/>
<stop offset="0.4762" stop-color="#50DB97"/>
<stop offset="0.8009" stop-color="#44ED98"/>
<stop offset="1" stop-color="#40F498"/>
</linearGradient>
</defs>
</svg>
