<svg width="277" height="570" viewBox="0 0 277 570" fill="none" xmlns="http://www.w3.org/2000/svg">
<g clip-path="url(#clip0_1125_58830)">
<path d="M232.87 0.5H43.86C20.05 0.5 0.75 19.8 0.75 43.62V526.15C0.75 549.96 20.05 569.26 43.86 569.26H232.87C256.68 569.26 275.98 549.96 275.98 526.15V43.62C275.98 19.8 256.68 0.5 232.87 0.5ZM263.2 526.9C263.2 542.82 250.29 555.73 234.37 555.73H42.36C26.44 555.73 13.53 542.82 13.53 526.9V43.11C13.53 27.19 26.44 14.29 42.36 14.29H234.37C250.29 14.29 263.2 27.19 263.2 43.11V526.9Z" fill="black"/>
<g filter="url(#filter0_i_1125_58830)">
<path d="M232.86 2.12988H43.8699C20.9556 2.12988 2.37988 20.7056 2.37988 43.6199V526.14C2.37988 549.054 20.9556 567.63 43.8699 567.63H232.86C255.774 567.63 274.35 549.054 274.35 526.14V43.6199C274.35 20.7056 255.774 2.12988 232.86 2.12988Z" stroke="#A4A59F" stroke-width="3.26"/>
</g>
<g filter="url(#filter1_i_1125_58830)">
<path d="M233.62 0.25H43.11C19.4391 0.25 0.25 19.4391 0.25 43.11V526.65C0.25 550.321 19.4391 569.51 43.11 569.51H233.62C257.291 569.51 276.48 550.321 276.48 526.65V43.11C276.48 19.4391 257.291 0.25 233.62 0.25Z" stroke="#1B1C16" stroke-width="0.5"/>
</g>
<g filter="url(#filter2_i_1125_58830)">
<path d="M232.87 1H43.86C20.3271 1 1.25 20.0771 1.25 43.61V526.15C1.25 549.683 20.3271 568.76 43.86 568.76H232.87C256.403 568.76 275.48 549.683 275.48 526.15V43.61C275.48 20.0771 256.403 1 232.87 1Z" stroke="url(#paint0_linear_1125_58830)"/>
</g>
<rect x="74" y="11" width="135" height="5" fill="black"/>
<rect x="58.6562" y="565.504" width="3.50933" height="4.26133" fill="#F4F3EE" fill-opacity="0.7"/>
<rect x="2.75781" y="509.355" width="4.26133" height="3.25867" fill="#F4F3EE" fill-opacity="0.7"/>
<rect x="2.75781" y="57.4026" width="4.512" height="4.512" fill="#E4E4E3" fill-opacity="0.65"/>
<rect x="274.981" y="509.355" width="4.512" height="3.25867" fill="#F4F3EE" fill-opacity="0.7"/>
<rect x="274.981" y="57.6533" width="4.512" height="4.26133" fill="#E4E4E3" fill-opacity="0.65"/>
<rect x="220.086" width="4.26133" height="4.26133" fill="#E4E4E3" fill-opacity="0.65"/>
<g filter="url(#filter3_iiiiii_1125_58830)">
<rect y="185.995" width="2.75733" height="43.3653" rx="1.00267" fill="#C8C9C4"/>
</g>
<rect x="0.188" y="186.183" width="2.38133" height="42.9893" rx="0.814667" stroke="url(#paint1_linear_1125_58830)" stroke-width="0.376"/>
<g filter="url(#filter4_iiiiii_1125_58830)">
<rect y="131.099" width="2.75733" height="43.3653" rx="1.00267" fill="#C8C9C4"/>
</g>
<rect x="0.188" y="131.287" width="2.38133" height="42.9893" rx="0.814667" stroke="url(#paint2_linear_1125_58830)" stroke-width="0.376"/>
<g filter="url(#filter5_iiiiii_1125_58830)">
<rect y="90.24" width="2.75733" height="21.3067" rx="1.00267" fill="#C8C9C4"/>
</g>
<rect x="0.188" y="90.428" width="2.38133" height="20.9307" rx="0.814667" stroke="url(#paint3_linear_1125_58830)" stroke-width="0.376"/>
<path fill-rule="evenodd" clip-rule="evenodd" d="M70.6971 14.288C70.697 14.288 70.6971 14.288 70.6971 14.288ZM210.781 14.288C209.798 14.3975 209.307 15.0038 209.307 16.544C209.307 29.4784 199.447 33.2969 194.517 33.5894H88.6108C73.1985 33.5894 73.3892 21.2892 73.4407 17.968L73.4407 17.9675C73.4433 17.8048 73.4455 17.6637 73.4455 17.5467C73.4455 15.0438 72.6956 14.2903 70.6971 14.288H210.781ZM210.781 14.288C211.014 14.2621 211.275 14.264 211.563 14.288L210.781 14.288Z" fill="black"/>
<g filter="url(#filter6_iii_1125_58830)">
<rect x="125.584" y="18.5493" width="31.0827" height="4.512" rx="2.256" fill="#141414"/>
</g>
<rect x="125.709" y="18.6746" width="30.832" height="4.26133" rx="2.13067" stroke="#0E0E0E" stroke-width="0.250667"/>
<g filter="url(#filter7_d_1125_58830)">
<circle cx="169.2" cy="21.0561" r="4.512" stroke="url(#paint4_radial_1125_58830)" stroke-width="1.00267"/>
</g>
<circle cx="169.2" cy="21.0561" r="3.10827" fill="url(#paint5_radial_1125_58830)"/>
<circle cx="169.2" cy="21.0561" r="3.10827" fill="url(#paint6_angular_1125_58830)"/>
<circle cx="169.2" cy="21.0561" r="3.10827" fill="url(#paint7_angular_1125_58830)"/>
<circle cx="169.2" cy="21.0561" r="3.10827" stroke="#080F21" stroke-width="0.200533"/>
<line x1="169.2" y1="18.0481" x2="169.2" y2="24.0641" stroke="black" stroke-width="0.501333"/>
<g clip-path="url(#clip1_1125_58830)">
<path opacity="0.36" fill-rule="evenodd" clip-rule="evenodd" d="M239.008 23.2275H249.301C250.167 23.2275 250.482 23.3178 250.799 23.4873C251.116 23.6567 251.364 23.9054 251.534 24.2223C251.703 24.5391 251.793 24.8535 251.793 25.7202V28.721C251.793 29.5877 251.703 29.902 251.534 30.2189C251.364 30.5358 251.116 30.7845 250.799 30.9539C250.482 31.1234 250.167 31.2136 249.301 31.2136H239.008C238.142 31.2136 237.827 31.1234 237.51 30.9539C237.193 30.7845 236.945 30.5358 236.775 30.2189C236.606 29.902 236.516 29.5877 236.516 28.721V25.7202C236.516 24.8535 236.606 24.5391 236.775 24.2223C236.945 23.9054 237.193 23.6567 237.51 23.4873C237.827 23.3178 238.142 23.2275 239.008 23.2275ZM239.008 23.9219C238.323 23.9219 238.083 23.9681 237.838 24.0996C237.642 24.2043 237.492 24.3539 237.387 24.5497C237.256 24.7955 237.21 25.0348 237.21 25.7202V28.7209C237.21 29.4063 237.256 29.6456 237.387 29.8914C237.492 30.0872 237.642 30.2368 237.838 30.3415C238.083 30.473 238.323 30.5192 239.008 30.5192H249.3C249.986 30.5192 250.225 30.473 250.471 30.3415C250.667 30.2368 250.816 30.0872 250.921 29.8914C251.052 29.6456 251.099 29.4063 251.099 28.7209V25.7202C251.099 25.0348 251.052 24.7955 250.921 24.5497C250.816 24.3539 250.667 24.2043 250.471 24.0996C250.225 23.9681 249.986 23.9219 249.3 23.9219H239.008ZM253.53 27.179C253.53 28.0377 252.488 28.5679 252.488 28.5679V25.7901C252.488 25.7901 253.53 26.3203 253.53 27.179Z" fill="white" fill-opacity="0.8"/>
<rect x="237.905" y="24.5586" width="12.5" height="5.32407" rx="1.11111" fill="white" fill-opacity="0.8"/>
<path d="M223.322 26.4768C223.415 26.5809 223.563 26.5763 223.661 26.4677C224.763 25.2866 226.213 24.6621 227.833 24.6621C229.467 24.6621 230.921 25.2866 232.019 26.4768C232.113 26.5718 232.256 26.5673 232.35 26.4677L232.974 25.8296C233.064 25.7391 233.064 25.6215 232.992 25.5355C231.917 24.1914 229.913 23.2275 227.833 23.2275C225.758 23.2275 223.75 24.1869 222.679 25.5355C222.608 25.6215 222.608 25.7391 222.692 25.8296L223.322 26.4768ZM225.187 28.3593C225.294 28.4634 225.437 28.4544 225.539 28.3412C226.084 27.7394 226.954 27.314 227.838 27.3185C228.726 27.314 229.596 27.7484 230.154 28.3548C230.248 28.4634 230.381 28.4589 230.484 28.3548L231.185 27.6579C231.27 27.5764 231.278 27.4633 231.203 27.3728C230.506 26.5175 229.235 25.902 227.838 25.902C226.436 25.902 225.165 26.5175 224.468 27.3728C224.393 27.4633 224.402 27.5719 224.486 27.6579L225.187 28.3593ZM227.838 30.8664C227.945 30.8664 228.039 30.8166 228.222 30.6401L229.315 29.5721C229.395 29.4952 229.413 29.3685 229.342 29.278C229.029 28.8752 228.463 28.5494 227.838 28.5494C227.195 28.5494 226.619 28.8888 226.312 29.3142C226.258 29.3956 226.285 29.4952 226.361 29.5721L227.454 30.6401C227.632 30.8121 227.731 30.8664 227.838 30.8664Z" fill="white" fill-opacity="0.8"/>
<rect x="207.349" y="28.436" width="2.08333" height="2.77778" rx="0.694444" fill="white"/>
<rect x="210.474" y="27.0471" width="2.08333" height="4.16667" rx="0.694444" fill="white"/>
<rect x="213.599" y="25.311" width="2.08333" height="5.90278" rx="0.694444" fill="white"/>
<rect x="216.724" y="23.9221" width="2.08333" height="7.29167" rx="0.694444" fill="white"/>
<path d="M41.4194 29.1149C41.4194 29.5794 41.3109 29.9711 41.0939 30.2898C40.8769 30.6051 40.5785 30.8442 40.1987 31.007C39.8223 31.1663 39.3951 31.246 38.917 31.246C38.4389 31.246 38.0099 31.1663 37.6302 31.007C37.2504 30.8442 36.9503 30.6051 36.7299 30.2898C36.5095 29.9711 36.3993 29.5794 36.3993 29.1149C36.3993 28.8029 36.462 28.5215 36.5875 28.2705C36.7129 28.0162 36.8876 27.7992 37.1114 27.6195C37.3386 27.4364 37.6047 27.2974 37.9099 27.2024C38.2151 27.1041 38.5474 27.0549 38.9068 27.0549C39.3883 27.0549 39.819 27.1397 40.1987 27.3092C40.5785 27.4788 40.8769 27.7178 41.0939 28.0264C41.3109 28.335 41.4194 28.6978 41.4194 29.1149ZM39.9444 29.0182C39.9444 28.791 39.9003 28.5961 39.8122 28.4333C39.7274 28.2672 39.607 28.14 39.4511 28.0518C39.2951 27.9637 39.1137 27.9196 38.9068 27.9196C38.7 27.9196 38.5186 27.9637 38.3626 28.0518C38.2066 28.14 38.0845 28.2672 37.9964 28.4333C37.9116 28.5961 37.8692 28.791 37.8692 29.0182C37.8692 29.242 37.9116 29.4353 37.9964 29.5981C38.0845 29.7608 38.2066 29.8863 38.3626 29.9744C38.522 30.0592 38.7068 30.1016 38.917 30.1016C39.1272 30.1016 39.3086 30.0592 39.4612 29.9744C39.6172 29.8863 39.7359 29.7608 39.8173 29.5981C39.902 29.4353 39.9444 29.242 39.9444 29.0182ZM41.2618 25.702C41.2618 26.0784 41.1617 26.4124 40.9617 26.704C40.7616 26.9922 40.4836 27.2177 40.1275 27.3805C39.7749 27.5432 39.3714 27.6246 38.917 27.6246C38.4592 27.6246 38.0523 27.5432 37.6963 27.3805C37.3403 27.2177 37.0622 26.9922 36.8621 26.704C36.6621 26.4124 36.5621 26.0784 36.5621 25.702C36.5621 25.2544 36.6621 24.878 36.8621 24.5728C37.0656 24.2643 37.3436 24.0303 37.6963 23.8709C38.0523 23.7116 38.4558 23.6319 38.9068 23.6319C39.3646 23.6319 39.7698 23.7116 40.1224 23.8709C40.4785 24.0303 40.7565 24.2643 40.9566 24.5728C41.16 24.878 41.2618 25.2544 41.2618 25.702ZM39.7969 25.7681C39.7969 25.568 39.7613 25.3951 39.6901 25.2493C39.6189 25.1001 39.5172 24.9848 39.3849 24.9034C39.2561 24.8221 39.0967 24.7814 38.9068 24.7814C38.7237 24.7814 38.566 24.8204 38.4338 24.8984C38.3049 24.9763 38.2049 25.0899 38.1337 25.2391C38.0659 25.3849 38.032 25.5613 38.032 25.7681C38.032 25.9682 38.0659 26.1445 38.1337 26.2971C38.2049 26.4463 38.3066 26.5633 38.4389 26.648C38.5711 26.7328 38.7305 26.7752 38.917 26.7752C39.1035 26.7752 39.2612 26.7328 39.39 26.648C39.5223 26.5633 39.6223 26.4463 39.6901 26.2971C39.7613 26.1445 39.7969 25.9682 39.7969 25.7681ZM42.5282 30.4373C42.5282 30.2203 42.6028 30.0389 42.752 29.8931C42.9046 29.7473 43.1064 29.6744 43.3573 29.6744C43.6082 29.6744 43.8083 29.7473 43.9575 29.8931C44.1101 30.0389 44.1864 30.2203 44.1864 30.4373C44.1864 30.6543 44.1101 30.8357 43.9575 30.9815C43.8083 31.1273 43.6082 31.2002 43.3573 31.2002C43.1064 31.2002 42.9046 31.1273 42.752 30.9815C42.6028 30.8357 42.5282 30.6543 42.5282 30.4373ZM42.5282 26.2411C42.5282 26.0241 42.6028 25.8427 42.752 25.6969C42.9046 25.5511 43.1064 25.4782 43.3573 25.4782C43.6082 25.4782 43.8083 25.5511 43.9575 25.6969C44.1101 25.8427 44.1864 26.0241 44.1864 26.2411C44.1864 26.4581 44.1101 26.6396 43.9575 26.7854C43.8083 26.9312 43.6082 27.0041 43.3573 27.0041C43.1064 27.0041 42.9046 26.9312 42.752 26.7854C42.6028 26.6396 42.5282 26.4581 42.5282 26.2411ZM46.8516 26.8057H47.6348C47.8858 26.8057 48.0926 26.7633 48.2554 26.6785C48.4181 26.5904 48.5385 26.4683 48.6165 26.3123C48.6979 26.153 48.7386 25.9682 48.7386 25.7579C48.7386 25.568 48.7013 25.4002 48.6267 25.2544C48.5555 25.1052 48.4453 24.9899 48.2961 24.9085C48.1469 24.8238 47.9587 24.7814 47.7315 24.7814C47.5518 24.7814 47.3856 24.817 47.233 24.8882C47.0804 24.9594 46.9584 25.0594 46.8668 25.1883C46.7753 25.3171 46.7295 25.4731 46.7295 25.6562H45.2596C45.2596 25.2493 45.3681 24.895 45.5851 24.5932C45.8055 24.2914 46.1005 24.0557 46.4701 23.8862C46.8397 23.7166 47.2466 23.6319 47.6908 23.6319C48.1926 23.6319 48.6318 23.7133 49.0081 23.876C49.3845 24.0354 49.6778 24.2711 49.8881 24.583C50.0983 24.895 50.2034 25.2815 50.2034 25.7427C50.2034 25.9766 50.1492 26.2038 50.0406 26.4242C49.9321 26.6412 49.7762 26.8379 49.5727 27.0142C49.3727 27.1872 49.1285 27.3262 48.8403 27.4313C48.5521 27.533 48.2282 27.5839 47.8688 27.5839H46.8516V26.8057ZM46.8516 27.9196V27.1617H47.8688C48.2723 27.1617 48.6267 27.2075 48.9318 27.2991C49.237 27.3906 49.493 27.5229 49.6999 27.6958C49.9067 27.8653 50.0627 28.0671 50.1678 28.3011C50.2729 28.5316 50.3255 28.7877 50.3255 29.0691C50.3255 29.415 50.2594 29.7235 50.1271 29.9948C49.9949 30.2627 49.8084 30.4899 49.5676 30.6764C49.3303 30.8628 49.0522 31.0053 48.7335 31.1036C48.4147 31.1985 48.0672 31.246 47.6908 31.246C47.3788 31.246 47.072 31.2036 46.7702 31.1189C46.4718 31.0307 46.2005 30.9001 45.9564 30.7272C45.7156 30.5509 45.5224 30.3305 45.3765 30.066C45.2341 29.7981 45.1629 29.4811 45.1629 29.1149H46.6329C46.6329 29.3048 46.6803 29.4743 46.7753 29.6235C46.8702 29.7727 47.0008 29.8897 47.1669 29.9744C47.3365 30.0592 47.5246 30.1016 47.7315 30.1016C47.9655 30.1016 48.1655 30.0592 48.3317 29.9744C48.5012 29.8863 48.6301 29.7642 48.7182 29.6082C48.8098 29.4489 48.8556 29.2641 48.8556 29.0538C48.8556 28.7826 48.8064 28.5656 48.708 28.4028C48.6097 28.2366 48.469 28.1146 48.2859 28.0366C48.1028 27.9586 47.8858 27.9196 47.6348 27.9196H46.8516ZM52.7109 27.7721L51.5411 27.4924L51.9633 23.7387H56.1238V24.9238H53.1687L52.9856 26.5667C53.0839 26.509 53.2331 26.448 53.4332 26.3835C53.6332 26.3157 53.857 26.2818 54.1046 26.2818C54.464 26.2818 54.7827 26.3378 55.0608 26.4497C55.3388 26.5616 55.5745 26.7243 55.7678 26.9379C55.9645 27.1516 56.1136 27.4127 56.2154 27.7212C56.3171 28.0298 56.368 28.3791 56.368 28.769C56.368 29.0979 56.3171 29.4116 56.2154 29.71C56.1136 30.005 55.9594 30.2694 55.7525 30.5034C55.5457 30.734 55.2863 30.9154 54.9743 31.0476C54.6624 31.1799 54.2928 31.246 53.8655 31.246C53.5468 31.246 53.2382 31.1985 52.9398 31.1036C52.6448 31.0087 52.3786 30.8679 52.1413 30.6814C51.9073 30.4949 51.7191 30.2694 51.5767 30.005C51.4377 29.7371 51.3648 29.4319 51.358 29.0894H52.8127C52.833 29.2997 52.8873 29.4811 52.9754 29.6337C53.067 29.7829 53.1874 29.8982 53.3365 29.9795C53.4857 30.0609 53.6604 30.1016 53.8604 30.1016C54.0469 30.1016 54.2063 30.066 54.3385 29.9948C54.4708 29.9236 54.5776 29.8252 54.659 29.6998C54.7404 29.5709 54.7997 29.4217 54.837 29.2522C54.8777 29.0793 54.898 28.8928 54.898 28.6927C54.898 28.4926 54.8743 28.3112 54.8268 28.1485C54.7794 27.9857 54.7064 27.845 54.6081 27.7263C54.5098 27.6076 54.3843 27.5161 54.2317 27.4517C54.0825 27.3872 53.9079 27.355 53.7078 27.355C53.4366 27.355 53.2263 27.3974 53.0771 27.4822C52.9313 27.5669 52.8093 27.6636 52.7109 27.7721Z" fill="white" fill-opacity="0.8"/>
<g clip-path="url(#clip2_1125_58830)">
<g filter="url(#filter8_d_1125_58830)">
<path d="M113.161 49.6213V56.5332H111.979V49.6213H113.161ZM115.33 49.6213V50.5707H109.828V49.6213H115.33ZM117.353 51.3968V56.5332H116.204V51.3968H117.353ZM116.128 50.0486C116.128 49.8745 116.185 49.7305 116.299 49.6166C116.416 49.4995 116.577 49.4409 116.783 49.4409C116.986 49.4409 117.145 49.4995 117.263 49.6166C117.38 49.7305 117.438 49.8745 117.438 50.0486C117.438 50.2195 117.38 50.3619 117.263 50.4758C117.145 50.5897 116.986 50.6467 116.783 50.6467C116.577 50.6467 116.416 50.5897 116.299 50.4758C116.185 50.3619 116.128 50.2195 116.128 50.0486ZM119.741 52.4934V56.5332H118.596V51.3968H119.674L119.741 52.4934ZM119.536 53.7751L119.166 53.7703C119.169 53.4064 119.22 53.0725 119.318 52.7687C119.419 52.4649 119.559 52.2038 119.736 51.9854C119.916 51.767 120.131 51.5993 120.381 51.4822C120.631 51.3619 120.91 51.3018 121.217 51.3018C121.464 51.3018 121.687 51.3366 121.886 51.4063C122.089 51.4727 122.261 51.5819 122.404 51.7338C122.549 51.8857 122.66 52.0835 122.736 52.3272C122.812 52.5677 122.85 52.8636 122.85 53.2149V56.5332H121.701V53.2102C121.701 52.9633 121.665 52.7687 121.592 52.6263C121.522 52.4807 121.419 52.3778 121.283 52.3177C121.15 52.2544 120.984 52.2228 120.785 52.2228C120.589 52.2228 120.413 52.2639 120.258 52.3462C120.103 52.4285 119.972 52.5408 119.864 52.6832C119.76 52.8257 119.679 52.9902 119.622 53.1769C119.565 53.3637 119.536 53.5631 119.536 53.7751ZM126.899 55.1423C126.899 55.0283 126.871 54.9255 126.814 54.8337C126.757 54.7388 126.648 54.6533 126.486 54.5774C126.328 54.5014 126.094 54.4318 125.784 54.3685C125.512 54.3084 125.262 54.2372 125.034 54.1549C124.809 54.0694 124.616 53.9666 124.454 53.8463C124.293 53.726 124.168 53.5836 124.079 53.4191C123.991 53.2545 123.947 53.0646 123.947 52.8494C123.947 52.6405 123.992 52.4427 124.084 52.256C124.176 52.0693 124.307 51.9047 124.478 51.7623C124.649 51.6199 124.856 51.5075 125.1 51.4252C125.347 51.343 125.622 51.3018 125.926 51.3018C126.357 51.3018 126.725 51.3746 127.032 51.5202C127.342 51.6626 127.58 51.8572 127.744 52.1041C127.909 52.3478 127.991 52.6231 127.991 52.9301H126.847C126.847 52.794 126.812 52.6674 126.743 52.5503C126.676 52.4301 126.575 52.3335 126.439 52.2607C126.303 52.1848 126.132 52.1468 125.926 52.1468C125.73 52.1468 125.567 52.1785 125.437 52.2418C125.311 52.3019 125.216 52.381 125.152 52.4791C125.092 52.5772 125.062 52.6848 125.062 52.8019C125.062 52.8874 125.078 52.9649 125.11 53.0345C125.144 53.101 125.201 53.1627 125.28 53.2197C125.36 53.2735 125.467 53.3241 125.603 53.3716C125.743 53.4191 125.917 53.4649 126.125 53.5093C126.518 53.5915 126.855 53.6976 127.137 53.8273C127.421 53.9539 127.64 54.1185 127.792 54.321C127.944 54.5204 128.02 54.7736 128.02 55.0806C128.02 55.3084 127.971 55.5173 127.872 55.7072C127.778 55.8939 127.638 56.0569 127.455 56.1962C127.271 56.3322 127.051 56.4383 126.795 56.5142C126.542 56.5902 126.257 56.6281 125.94 56.6281C125.475 56.6281 125.081 56.5459 124.758 56.3813C124.435 56.2136 124.19 55.9999 124.022 55.7404C123.858 55.4777 123.776 55.2056 123.776 54.9239H124.882C124.894 55.136 124.953 55.3053 125.057 55.4319C125.165 55.5553 125.298 55.6455 125.456 55.7024C125.618 55.7562 125.784 55.7831 125.955 55.7831C126.16 55.7831 126.333 55.7562 126.472 55.7024C126.611 55.6455 126.717 55.5695 126.79 55.4746C126.863 55.3765 126.899 55.2657 126.899 55.1423Z" fill="white"/>
</g>
<path d="M138.155 56.8528V49.2139" stroke="white" stroke-opacity="0.2" stroke-width="1.38889" stroke-linecap="round"/>
<path d="M150.91 55.4841L152.947 49.6213H153.939L151.38 56.5332H150.673L150.91 55.4841ZM149.007 49.6213L151.024 55.4841L151.276 56.5332H150.569L148.015 49.6213H149.007ZM155.691 51.3968V56.5332H154.808V51.3968H155.691ZM154.741 50.0343C154.741 49.8919 154.784 49.7716 154.87 49.6735C154.958 49.5754 155.088 49.5264 155.259 49.5264C155.427 49.5264 155.555 49.5754 155.643 49.6735C155.735 49.7716 155.781 49.8919 155.781 50.0343C155.781 50.1704 155.735 50.2875 155.643 50.3856C155.555 50.4806 155.427 50.528 155.259 50.528C155.088 50.528 154.958 50.4806 154.87 50.3856C154.784 50.2875 154.741 50.1704 154.741 50.0343ZM157.096 49.2415H157.979V55.5363L157.903 56.5332H157.096V49.2415ZM161.449 53.9223V54.0219C161.449 54.3954 161.405 54.7419 161.316 55.0616C161.228 55.3781 161.098 55.6534 160.927 55.8876C160.756 56.1218 160.547 56.3038 160.3 56.4335C160.053 56.5633 159.77 56.6281 159.451 56.6281C159.125 56.6281 158.838 56.5728 158.591 56.462C158.348 56.3481 158.142 56.1851 157.974 55.973C157.806 55.761 157.672 55.5046 157.571 55.204C157.473 54.9033 157.405 54.5647 157.367 54.1881V53.7514C157.405 53.3716 157.473 53.0314 157.571 52.7307C157.672 52.4301 157.806 52.1737 157.974 51.9617C158.142 51.7465 158.348 51.5835 158.591 51.4727C158.835 51.3588 159.118 51.3018 159.441 51.3018C159.764 51.3018 160.05 51.3651 160.3 51.4917C160.55 51.6151 160.759 51.7924 160.927 52.0234C161.098 52.2544 161.228 52.5313 161.316 52.8541C161.405 53.1738 161.449 53.5298 161.449 53.9223ZM160.566 54.0219V53.9223C160.566 53.6659 160.542 53.4254 160.495 53.2007C160.447 52.9728 160.372 52.7734 160.267 52.6025C160.163 52.4285 160.025 52.2924 159.854 52.1943C159.683 52.093 159.473 52.0424 159.223 52.0424C159.001 52.0424 158.808 52.0803 158.644 52.1563C158.482 52.2323 158.344 52.3351 158.231 52.4649C158.117 52.5915 158.023 52.737 157.95 52.9016C157.881 53.063 157.829 53.2307 157.794 53.4048V54.5489C157.844 54.7704 157.927 54.984 158.041 55.1898C158.158 55.3923 158.313 55.5584 158.506 55.6882C158.702 55.818 158.944 55.8828 159.232 55.8828C159.47 55.8828 159.672 55.8354 159.84 55.7404C160.011 55.6423 160.148 55.5078 160.253 55.3369C160.36 55.166 160.44 54.9682 160.49 54.7435C160.541 54.5188 160.566 54.2783 160.566 54.0219ZM164.691 56.6281C164.334 56.6281 164.009 56.568 163.718 56.4478C163.43 56.3243 163.182 56.1518 162.973 55.9303C162.767 55.7088 162.609 55.4461 162.498 55.1423C162.387 54.8385 162.332 54.5062 162.332 54.1454V53.946C162.332 53.5282 162.394 53.1564 162.517 52.8304C162.641 52.5013 162.808 52.2228 163.02 51.9949C163.232 51.767 163.473 51.5946 163.742 51.4775C164.011 51.3604 164.29 51.3018 164.578 51.3018C164.945 51.3018 165.261 51.3651 165.527 51.4917C165.796 51.6183 166.016 51.7955 166.187 52.0234C166.358 52.2481 166.484 52.5139 166.567 52.8209C166.649 53.1247 166.69 53.457 166.69 53.8178V54.2118H162.854V53.495H165.812V53.4285C165.799 53.2007 165.752 52.9791 165.669 52.7639C165.59 52.5487 165.464 52.3715 165.29 52.2323C165.116 52.093 164.878 52.0234 164.578 52.0234C164.378 52.0234 164.195 52.0661 164.027 52.1516C163.859 52.2338 163.715 52.3573 163.595 52.5218C163.475 52.6864 163.381 52.8874 163.315 53.1247C163.248 53.3621 163.215 53.6358 163.215 53.946V54.1454C163.215 54.3891 163.248 54.6185 163.315 54.8337C163.384 55.0458 163.484 55.2325 163.614 55.3939C163.747 55.5553 163.907 55.6819 164.093 55.7737C164.283 55.8654 164.498 55.9113 164.739 55.9113C165.049 55.9113 165.312 55.848 165.527 55.7214C165.742 55.5948 165.93 55.4255 166.092 55.2135L166.624 55.636C166.513 55.8037 166.372 55.9635 166.201 56.1155C166.03 56.2674 165.82 56.3908 165.57 56.4857C165.323 56.5807 165.03 56.6281 164.691 56.6281ZM170.706 55.1708C170.706 55.0442 170.678 54.9271 170.621 54.8195C170.567 54.7087 170.455 54.609 170.284 54.5204C170.116 54.4286 169.863 54.3495 169.524 54.283C169.239 54.2229 168.981 54.1517 168.75 54.0694C168.522 53.9871 168.328 53.8874 168.166 53.7703C168.008 53.6532 167.886 53.5156 167.801 53.3573C167.715 53.1991 167.673 53.014 167.673 52.8019C167.673 52.5994 167.717 52.4079 167.806 52.2275C167.897 52.0471 168.026 51.8873 168.19 51.748C168.358 51.6088 168.559 51.4996 168.793 51.4205C169.027 51.3414 169.288 51.3018 169.576 51.3018C169.988 51.3018 170.339 51.3746 170.63 51.5202C170.921 51.6658 171.144 51.8604 171.3 52.1041C171.455 52.3446 171.532 52.612 171.532 52.9064H170.654C170.654 52.7639 170.611 52.6263 170.526 52.4934C170.443 52.3573 170.322 52.2449 170.16 52.1563C170.002 52.0677 169.807 52.0234 169.576 52.0234C169.333 52.0234 169.135 52.0614 168.983 52.1373C168.834 52.2101 168.725 52.3035 168.655 52.4174C168.589 52.5313 168.556 52.6516 168.556 52.7782C168.556 52.8731 168.571 52.9586 168.603 53.0345C168.638 53.1073 168.698 53.1754 168.784 53.2387C168.869 53.2988 168.989 53.3558 169.144 53.4096C169.299 53.4634 169.497 53.5172 169.738 53.571C170.159 53.6659 170.505 53.7798 170.777 53.9128C171.05 54.0457 171.252 54.2087 171.385 54.4017C171.518 54.5948 171.584 54.829 171.584 55.1043C171.584 55.329 171.537 55.5347 171.442 55.7214C171.35 55.9082 171.216 56.0696 171.038 56.2056C170.864 56.3386 170.655 56.443 170.412 56.519C170.171 56.5918 169.901 56.6281 169.6 56.6281C169.147 56.6281 168.765 56.5474 168.451 56.386C168.138 56.2246 167.901 56.0158 167.739 55.7594C167.578 55.5031 167.497 55.2325 167.497 54.9476H168.38C168.393 55.1882 168.462 55.3796 168.589 55.5221C168.715 55.6613 168.871 55.761 169.054 55.8211C169.238 55.8781 169.42 55.9066 169.6 55.9066C169.841 55.9066 170.042 55.8749 170.203 55.8116C170.368 55.7483 170.493 55.6613 170.578 55.5505C170.663 55.4398 170.706 55.3132 170.706 55.1708Z" fill="white" fill-opacity="0.6"/>
<path d="M253.388 60.0331C253.258 60.0331 253.133 59.9815 253.042 59.8896L249.854 56.7024C249.763 56.6106 249.711 56.486 249.711 56.3562C249.711 56.2263 249.763 56.1017 249.854 56.0099C249.946 55.918 250.071 55.8665 250.201 55.8665C250.331 55.8665 250.455 55.918 250.547 56.0099L253.734 59.197C253.803 59.2655 253.849 59.3528 253.868 59.4478C253.887 59.5428 253.877 59.6413 253.84 59.7307C253.803 59.8202 253.74 59.8967 253.66 59.9505C253.579 60.0044 253.485 60.0331 253.388 60.0331V60.0331Z" fill="white"/>
<path d="M245.891 47.2313C244.939 47.2313 244.007 47.5137 243.216 48.0429C242.424 48.572 241.806 49.3242 241.442 50.2041C241.077 51.0841 240.982 52.0524 241.168 52.9866C241.354 53.9208 241.812 54.7789 242.486 55.4524C243.159 56.1259 244.017 56.5845 244.952 56.7703C245.886 56.9562 246.854 56.8608 247.734 56.4963C248.614 56.1318 249.366 55.5145 249.895 54.7226C250.424 53.9306 250.707 52.9995 250.707 52.0471C250.705 50.7703 250.198 49.5462 249.295 48.6434C248.392 47.7405 247.168 47.2327 245.891 47.2313V47.2313ZM245.891 46.1443C247.059 46.1443 248.2 46.4905 249.17 47.1391C250.141 47.7877 250.898 48.7096 251.345 49.7882C251.791 50.8668 251.908 52.0536 251.68 53.1986C251.453 54.3437 250.89 55.3954 250.065 56.221C249.239 57.0465 248.188 57.6087 247.043 57.8364C245.898 58.0642 244.711 57.9473 243.632 57.5005C242.554 57.0538 241.632 56.2972 240.983 55.3265C240.334 54.3558 239.988 53.2145 239.988 52.0471C239.988 50.4815 240.61 48.9802 241.717 47.8732C242.824 46.7662 244.326 46.1443 245.891 46.1443V46.1443Z" fill="white"/>
<g clip-path="url(#clip3_1125_58830)">
<g filter="url(#filter9_d_1125_58830)">
<path d="M24.0918 51.2903H36.4738" stroke="white" stroke-width="1.04167" stroke-linecap="round" stroke-linejoin="round" shape-rendering="crispEdges"/>
</g>
<g filter="url(#filter10_d_1125_58830)">
<path d="M33.3695 54.5194C33.2313 54.5194 33.0989 54.4645 33.0012 54.3669C32.9035 54.2692 32.8486 54.1368 32.8486 53.9986C32.8486 53.8605 32.9035 53.728 33.0012 53.6303C33.0989 53.5326 33.2313 53.4778 33.3695 53.4778V53.4778C33.5076 53.4778 33.6401 53.5326 33.7377 53.6303C33.8354 53.728 33.8903 53.8605 33.8903 53.9986C33.8903 54.1368 33.8354 54.2692 33.7377 54.3669C33.6401 54.4645 33.5076 54.5194 33.3695 54.5194V54.5194Z" fill="white"/>
</g>
<g filter="url(#filter11_d_1125_58830)">
<path d="M30.2865 54.5194C30.1483 54.5194 30.0158 54.4645 29.9182 54.3669C29.8205 54.2692 29.7656 54.1368 29.7656 53.9986C29.7656 53.8605 29.8205 53.728 29.9182 53.6303C30.0158 53.5326 30.1483 53.4778 30.2865 53.4778V53.4778C30.4246 53.4778 30.5571 53.5326 30.6547 53.6303C30.7524 53.728 30.8073 53.8605 30.8073 53.9986C30.8073 54.1368 30.7524 54.2692 30.6547 54.3669C30.5571 54.4645 30.4246 54.5194 30.2865 54.5194V54.5194Z" fill="white"/>
</g>
<g filter="url(#filter12_d_1125_58830)">
<path d="M27.2035 54.5194C27.0653 54.5194 26.9328 54.4645 26.8352 54.3669C26.7375 54.2692 26.6826 54.1368 26.6826 53.9986C26.6826 53.8605 26.7375 53.728 26.8352 53.6303C26.9328 53.5326 27.0653 53.4778 27.2035 53.4778V53.4778C27.3416 53.4778 27.4741 53.5326 27.5717 53.6303C27.6694 53.728 27.7243 53.8605 27.7243 53.9986C27.7243 54.1368 27.6694 54.2692 27.5717 54.3669C27.4741 54.4645 27.3416 54.5194 27.2035 54.5194V54.5194Z" fill="white"/>
</g>
<g filter="url(#filter13_d_1125_58830)">
<path d="M33.3695 57.2209C33.2319 57.2191 33.1005 57.1636 33.0032 57.0663C32.9059 56.969 32.8505 56.8376 32.8487 56.7C32.8478 56.632 32.8604 56.5644 32.8858 56.5012C32.9112 56.4381 32.9489 56.3806 32.9967 56.3321C33.0445 56.2837 33.1015 56.2452 33.1643 56.219C33.2271 56.1927 33.2945 56.1792 33.3626 56.1792V56.1792C33.5007 56.1792 33.6332 56.234 33.7308 56.3317C33.8285 56.4294 33.8834 56.5619 33.8834 56.7C33.8834 56.8382 33.8285 56.9706 33.7308 57.0683C33.6332 57.166 33.5007 57.2209 33.3626 57.2209H33.3695Z" fill="white"/>
</g>
<g filter="url(#filter14_d_1125_58830)">
<path d="M30.2865 57.2209C30.1489 57.2191 30.0175 57.1636 29.9202 57.0663C29.8229 56.969 29.7675 56.8376 29.7657 56.7C29.7648 56.632 29.7774 56.5644 29.8028 56.5012C29.8282 56.4381 29.8659 56.3806 29.9137 56.3321C29.9615 56.2837 30.0185 56.2452 30.0813 56.219C30.1441 56.1927 30.2115 56.1792 30.2796 56.1792V56.1792C30.4177 56.1792 30.5502 56.234 30.6478 56.3317C30.7455 56.4294 30.8004 56.5619 30.8004 56.7C30.8004 56.8382 30.7455 56.9706 30.6478 57.0683C30.5502 57.166 30.4177 57.2209 30.2796 57.2209H30.2865Z" fill="white"/>
</g>
<g filter="url(#filter15_d_1125_58830)">
<path d="M27.2036 57.2209C27.0648 57.2209 26.9316 57.1662 26.8328 57.0687C26.7341 56.9713 26.6777 56.8388 26.6758 56.7001C26.6749 56.6314 26.6877 56.5632 26.7136 56.4996C26.7394 56.436 26.7777 56.3783 26.8263 56.3297C26.8748 56.2812 26.9326 56.2428 26.9962 56.217C27.0599 56.1911 27.128 56.1783 27.1967 56.1792V56.1792C27.3348 56.1792 27.4673 56.2341 27.5649 56.3317C27.6626 56.4294 27.7175 56.5619 27.7175 56.7001C27.7175 56.8382 27.6626 56.9707 27.5649 57.0683C27.4673 57.166 27.3348 57.2209 27.1967 57.2209H27.2036Z" fill="white"/>
</g>
<g filter="url(#filter16_d_1125_58830)">
<path d="M33.085 46.1445V48.4293" stroke="white" stroke-width="1.04167" stroke-linecap="round" stroke-linejoin="round" shape-rendering="crispEdges"/>
</g>
<g filter="url(#filter17_d_1125_58830)">
<path d="M27.4746 46.1445V48.4293" stroke="white" stroke-width="1.04167" stroke-linecap="round" stroke-linejoin="round" shape-rendering="crispEdges"/>
</g>
<g filter="url(#filter18_d_1125_58830)">
<path d="M33.2101 47.2417H27.3281C25.2865 47.2417 24.0156 48.3805 24.0156 50.4638V56.7138C24.0156 58.8388 25.2865 59.9986 27.3281 59.9986H33.2101C35.2517 59.9986 36.5226 58.8597 36.5226 56.7695V50.4292C36.5364 48.3806 35.2934 47.2417 33.2101 47.2417Z" stroke="white" stroke-width="1.04167" stroke-linecap="round" stroke-linejoin="round" shape-rendering="crispEdges"/>
</g>
</g>
<rect x="20.5439" y="66.9778" width="28.2986" height="1.38889" rx="0.694444" fill="white"/>
<rect x="50.2314" y="66.9778" width="28.2986" height="1.38889" rx="0.694444" fill="white" fill-opacity="0.2"/>
<rect x="79.9189" y="66.9778" width="28.2986" height="1.38889" rx="0.694444" fill="white" fill-opacity="0.2"/>
<rect x="109.606" y="66.9778" width="28.2986" height="1.38889" rx="0.694444" fill="white" fill-opacity="0.2"/>
<rect x="139.294" y="66.9778" width="28.2986" height="1.38889" rx="0.694444" fill="white" fill-opacity="0.2"/>
<rect x="168.981" y="66.9778" width="28.2986" height="1.38889" rx="0.694444" fill="white" fill-opacity="0.2"/>
<rect x="198.669" y="66.9778" width="28.2986" height="1.38889" rx="0.694444" fill="white" fill-opacity="0.2"/>
<rect x="228.356" y="66.9778" width="28.2986" height="1.38889" rx="0.694444" fill="white" fill-opacity="0.2"/>
</g>
<line x1="101.1" y1="550.061" x2="176.1" y2="550.061" stroke="white" stroke-width="2.77778" stroke-linecap="round"/>
<g filter="url(#filter19_b_1125_58830)">
<rect x="18.46" y="499.894" width="240.278" height="41.6667" rx="20.8333" fill="black" fill-opacity="0.2"/>
<rect x="18.6336" y="500.068" width="239.931" height="41.3194" rx="20.6597" stroke="white" stroke-opacity="0.5" stroke-width="0.347222"/>
</g>
<path d="M37.7291 526.455C38.9036 527.629 40.4103 528.414 42.0456 528.704C43.6808 528.994 45.3655 528.774 46.872 528.075C47.2327 527.898 47.6229 527.788 48.0233 527.751C48.985 527.757 50.1816 528.69 50.8038 528.068C51.426 527.447 50.4927 526.249 50.4927 525.281C50.5266 524.883 50.634 524.495 50.8095 524.136C51.4326 522.792 51.6753 521.303 51.5113 519.83C51.3473 518.358 50.7827 516.959 49.8791 515.785C48.9755 514.612 47.7674 513.708 46.3861 513.173C45.0048 512.638 43.5032 512.492 42.0446 512.75C40.5861 513.009 39.2263 513.662 38.1133 514.64C37.0002 515.617 36.1764 516.881 35.7315 518.294C35.2866 519.707 35.2375 521.215 35.5897 522.654C35.9419 524.093 36.6818 525.407 37.7291 526.455V526.455Z" stroke="white" stroke-width="1.04167" stroke-linecap="round" stroke-linejoin="round"/>
<path d="M40.2655 521.876C40.3714 521.875 40.4761 521.853 40.5733 521.811C40.7682 521.724 40.924 521.568 41.0108 521.373C41.0523 521.276 41.0744 521.171 41.0756 521.066C41.0753 520.957 41.0532 520.85 41.0108 520.75C40.9716 520.651 40.9107 520.562 40.8326 520.49C40.6784 520.344 40.474 520.262 40.2614 520.262C40.0488 520.262 39.8444 520.344 39.6902 520.49C39.6173 520.567 39.5571 520.654 39.512 520.75C39.4722 520.85 39.4529 520.958 39.4553 521.066C39.455 521.171 39.4756 521.275 39.516 521.373C39.5563 521.47 39.6155 521.558 39.6902 521.633C39.7653 521.709 39.8547 521.77 39.9535 521.812C40.0522 521.854 40.1583 521.875 40.2655 521.876" fill="white"/>
<path d="M43.5125 521.876C43.7288 521.874 43.9355 521.787 44.0878 521.633C44.2347 521.48 44.3186 521.278 44.3227 521.066C44.3215 520.957 44.2995 520.85 44.2579 520.75C44.2385 520.702 44.2141 520.655 44.185 520.612C44.1566 520.569 44.1241 520.528 44.0878 520.491C44.0114 520.414 43.9205 520.353 43.8204 520.312C43.6213 520.233 43.3992 520.234 43.2011 520.316C43.003 520.398 42.8445 520.553 42.7591 520.75C42.7193 520.85 42.7 520.958 42.7023 521.066C42.7008 521.171 42.72 521.276 42.7591 521.374C42.8012 521.471 42.8618 521.559 42.9373 521.633C43.0093 521.711 43.0979 521.772 43.1966 521.811C43.2966 521.853 43.404 521.875 43.5125 521.876" fill="white"/>
<path d="M46.7626 521.876C46.8685 521.875 46.9732 521.853 47.0705 521.811C47.1692 521.772 47.2578 521.711 47.3298 521.633C47.4056 521.559 47.466 521.471 47.5077 521.373C47.5495 521.276 47.5716 521.171 47.5728 521.066C47.5725 520.957 47.5504 520.85 47.508 520.75C47.4687 520.651 47.4078 520.562 47.3298 520.49C47.2155 520.379 47.0713 520.302 46.9146 520.271C46.7579 520.239 46.5953 520.253 46.4467 520.312C46.348 520.351 46.2594 520.412 46.1874 520.49C46.1462 520.525 46.1106 520.566 46.0821 520.612C46.0578 520.652 46.0335 520.701 46.0092 520.75C45.9675 520.85 45.9455 520.957 45.9443 521.066C45.9456 521.171 45.9676 521.276 46.0092 521.373C46.0484 521.472 46.1093 521.561 46.1874 521.633C46.2624 521.709 46.3519 521.77 46.4506 521.812C46.5494 521.854 46.6554 521.875 46.7626 521.876" fill="white"/>
<path d="M87.5884 528.199C91.8889 528.199 95.3751 524.713 95.3751 520.412C95.3751 516.112 91.8889 512.626 87.5884 512.626C83.288 512.626 79.8018 516.112 79.8018 520.412C79.8018 524.713 83.288 528.199 87.5884 528.199Z" stroke="white" stroke-width="1.04167" stroke-linecap="round" stroke-linejoin="round"/>
<path d="M84.8818 523.118L86.1725 518.996L90.2939 517.706L89.0032 521.829L84.8818 523.118Z" stroke="white" stroke-width="1.04167" stroke-linecap="round" stroke-linejoin="round"/>
<g clip-path="url(#clip4_1125_58830)">
<path d="M190.504 527.971H183.455C181.81 527.971 180.474 526.634 180.474 524.989V517.228C180.474 515.583 181.81 514.246 183.455 514.246H190.504C192.148 514.246 193.485 515.583 193.485 517.228V524.989C193.477 526.634 192.148 527.971 190.504 527.971Z" stroke="white" stroke-width="1.04167" stroke-linecap="round" stroke-linejoin="round"/>
<path d="M195.632 517.811L194.174 518.808C193.745 519.099 193.485 519.634 193.485 520.217V522C193.485 522.583 193.745 523.118 194.174 523.409L195.632 524.406C196.548 525.038 197.698 524.252 197.698 522.996V519.221C197.698 517.965 196.548 517.179 195.632 517.811Z" stroke="white" stroke-width="1.04167" stroke-linecap="round" stroke-linejoin="round"/>
<path d="M185.813 518.046C185.813 518.338 185.724 518.629 185.561 518.873C185.399 519.116 185.164 519.31 184.897 519.423C184.622 519.537 184.322 519.569 184.038 519.504C183.739 519.448 183.479 519.31 183.269 519.099C183.058 518.889 182.92 518.629 182.864 518.338C182.807 518.046 182.839 517.746 182.945 517.479C183.058 517.204 183.252 516.969 183.495 516.807C183.739 516.645 184.03 516.555 184.322 516.555C184.719 516.555 185.092 516.709 185.375 516.993C185.651 517.276 185.813 517.649 185.813 518.046Z" stroke="white" stroke-width="1.04167" stroke-linecap="round" stroke-linejoin="round"/>
</g>
<path d="M233.968 523.567C230.833 523.567 228.159 524.041 228.159 525.939C228.159 527.836 230.818 528.326 233.968 528.326C237.102 528.326 239.777 527.852 239.777 525.955C239.777 524.058 237.119 523.567 233.968 523.567Z" stroke="white" stroke-width="1.04167" stroke-linecap="round" stroke-linejoin="round"/>
<path d="M233.972 520.857C234.955 520.854 235.896 520.461 236.589 519.764C237.283 519.067 237.671 518.123 237.669 517.14C237.668 516.157 237.276 515.215 236.58 514.521C235.885 513.826 234.942 513.436 233.959 513.436C232.976 513.436 232.033 513.826 231.337 514.521C230.641 515.215 230.25 516.157 230.248 517.14C230.246 518.123 230.635 519.067 231.328 519.764C232.021 520.461 232.963 520.854 233.946 520.857H233.972Z" stroke="white" stroke-width="0.992361" stroke-linecap="round" stroke-linejoin="round"/>
<g filter="url(#filter20_d_1125_58830)">
<circle cx="138.599" cy="520.728" r="15.9722" fill="white"/>
</g>
<path fill-rule="evenodd" clip-rule="evenodd" d="M138.614 513.783C139.006 513.783 139.324 514.101 139.324 514.493V527.271C139.324 527.663 139.006 527.981 138.614 527.981C138.222 527.981 137.904 527.663 137.904 527.271V514.493C137.904 514.101 138.222 513.783 138.614 513.783Z" fill="#111111"/>
<path fill-rule="evenodd" clip-rule="evenodd" d="M131.654 520.712C131.654 520.32 131.972 520.002 132.364 520.002H145.142C145.534 520.002 145.852 520.32 145.852 520.712C145.852 521.104 145.534 521.422 145.142 521.422H132.364C131.972 521.422 131.654 521.104 131.654 520.712Z" fill="#111111"/>
</g>
</g>
<defs>
<filter id="filter0_i_1125_58830" x="0.75" y="0.5" width="275.229" height="568.76" filterUnits="userSpaceOnUse" color-interpolation-filters="sRGB">
<feFlood flood-opacity="0" result="BackgroundImageFix"/>
<feBlend mode="normal" in="SourceGraphic" in2="BackgroundImageFix" result="shape"/>
<feColorMatrix in="SourceAlpha" type="matrix" values="0 0 0 0 0 0 0 0 0 0 0 0 0 0 0 0 0 0 127 0" result="hardAlpha"/>
<feMorphology radius="3.76" operator="erode" in="SourceAlpha" result="effect1_innerShadow_1125_58830"/>
<feOffset/>
<feGaussianBlur stdDeviation="0.125333"/>
<feComposite in2="hardAlpha" operator="arithmetic" k2="-1" k3="1"/>
<feColorMatrix type="matrix" values="0 0 0 0 0.247059 0 0 0 0 0.247059 0 0 0 0 0.247059 0 0 0 1 0"/>
<feBlend mode="normal" in2="shape" result="effect1_innerShadow_1125_58830"/>
</filter>
<filter id="filter1_i_1125_58830" x="0" y="0" width="276.73" height="569.76" filterUnits="userSpaceOnUse" color-interpolation-filters="sRGB">
<feFlood flood-opacity="0" result="BackgroundImageFix"/>
<feBlend mode="normal" in="SourceGraphic" in2="BackgroundImageFix" result="shape"/>
<feColorMatrix in="SourceAlpha" type="matrix" values="0 0 0 0 0 0 0 0 0 0 0 0 0 0 0 0 0 0 127 0" result="hardAlpha"/>
<feMorphology radius="1.25333" operator="erode" in="SourceAlpha" result="effect1_innerShadow_1125_58830"/>
<feOffset/>
<feGaussianBlur stdDeviation="0.125333"/>
<feComposite in2="hardAlpha" operator="arithmetic" k2="-1" k3="1"/>
<feColorMatrix type="matrix" values="0 0 0 0 0.465764 0 0 0 0 0.475 0 0 0 0 0.419583 0 0 0 1 0"/>
<feBlend mode="normal" in2="shape" result="effect1_innerShadow_1125_58830"/>
</filter>
<filter id="filter2_i_1125_58830" x="0.75" y="0.5" width="275.23" height="568.76" filterUnits="userSpaceOnUse" color-interpolation-filters="sRGB">
<feFlood flood-opacity="0" result="BackgroundImageFix"/>
<feBlend mode="normal" in="SourceGraphic" in2="BackgroundImageFix" result="shape"/>
<feColorMatrix in="SourceAlpha" type="matrix" values="0 0 0 0 0 0 0 0 0 0 0 0 0 0 0 0 0 0 127 0" result="hardAlpha"/>
<feMorphology radius="1.25333" operator="erode" in="SourceAlpha" result="effect1_innerShadow_1125_58830"/>
<feOffset/>
<feGaussianBlur stdDeviation="0.125333"/>
<feComposite in2="hardAlpha" operator="arithmetic" k2="-1" k3="1"/>
<feColorMatrix type="matrix" values="0 0 0 0 0.686275 0 0 0 0 0.690196 0 0 0 0 0.670588 0 0 0 1 0"/>
<feBlend mode="normal" in2="shape" result="effect1_innerShadow_1125_58830"/>
</filter>
<filter id="filter3_iiiiii_1125_58830" x="0" y="185.493" width="3.76048" height="44.3679" filterUnits="userSpaceOnUse" color-interpolation-filters="sRGB">
<feFlood flood-opacity="0" result="BackgroundImageFix"/>
<feBlend mode="normal" in="SourceGraphic" in2="BackgroundImageFix" result="shape"/>
<feColorMatrix in="SourceAlpha" type="matrix" values="0 0 0 0 0 0 0 0 0 0 0 0 0 0 0 0 0 0 127 0" result="hardAlpha"/>
<feOffset dx="1.25333"/>
<feComposite in2="hardAlpha" operator="arithmetic" k2="-1" k3="1"/>
<feColorMatrix type="matrix" values="0 0 0 0 0.854902 0 0 0 0 0.858824 0 0 0 0 0.839216 0 0 0 1 0"/>
<feBlend mode="normal" in2="shape" result="effect1_innerShadow_1125_58830"/>
<feColorMatrix in="SourceAlpha" type="matrix" values="0 0 0 0 0 0 0 0 0 0 0 0 0 0 0 0 0 0 127 0" result="hardAlpha"/>
<feOffset dx="1.25333"/>
<feGaussianBlur stdDeviation="0.501333"/>
<feComposite in2="hardAlpha" operator="arithmetic" k2="-1" k3="1"/>
<feColorMatrix type="matrix" values="0 0 0 0 0.854902 0 0 0 0 0.858824 0 0 0 0 0.839216 0 0 0 1 0"/>
<feBlend mode="normal" in2="effect1_innerShadow_1125_58830" result="effect2_innerShadow_1125_58830"/>
<feColorMatrix in="SourceAlpha" type="matrix" values="0 0 0 0 0 0 0 0 0 0 0 0 0 0 0 0 0 0 127 0" result="hardAlpha"/>
<feOffset dy="-2.00533"/>
<feGaussianBlur stdDeviation="0.250667"/>
<feComposite in2="hardAlpha" operator="arithmetic" k2="-1" k3="1"/>
<feColorMatrix type="matrix" values="0 0 0 0 0.254902 0 0 0 0 0.258824 0 0 0 0 0.235294 0 0 0 1 0"/>
<feBlend mode="normal" in2="effect2_innerShadow_1125_58830" result="effect3_innerShadow_1125_58830"/>
<feColorMatrix in="SourceAlpha" type="matrix" values="0 0 0 0 0 0 0 0 0 0 0 0 0 0 0 0 0 0 127 0" result="hardAlpha"/>
<feOffset dy="2.00533"/>
<feGaussianBlur stdDeviation="0.250667"/>
<feComposite in2="hardAlpha" operator="arithmetic" k2="-1" k3="1"/>
<feColorMatrix type="matrix" values="0 0 0 0 0.254902 0 0 0 0 0.258824 0 0 0 0 0.235294 0 0 0 1 0"/>
<feBlend mode="normal" in2="effect3_innerShadow_1125_58830" result="effect4_innerShadow_1125_58830"/>
<feColorMatrix in="SourceAlpha" type="matrix" values="0 0 0 0 0 0 0 0 0 0 0 0 0 0 0 0 0 0 127 0" result="hardAlpha"/>
<feOffset dy="0.752"/>
<feComposite in2="hardAlpha" operator="arithmetic" k2="-1" k3="1"/>
<feColorMatrix type="matrix" values="0 0 0 0 0.94902 0 0 0 0 0.952941 0 0 0 0 0.929412 0 0 0 1 0"/>
<feBlend mode="normal" in2="effect4_innerShadow_1125_58830" result="effect5_innerShadow_1125_58830"/>
<feColorMatrix in="SourceAlpha" type="matrix" values="0 0 0 0 0 0 0 0 0 0 0 0 0 0 0 0 0 0 127 0" result="hardAlpha"/>
<feOffset dy="-0.752"/>
<feComposite in2="hardAlpha" operator="arithmetic" k2="-1" k3="1"/>
<feColorMatrix type="matrix" values="0 0 0 0 0.94902 0 0 0 0 0.952941 0 0 0 0 0.929412 0 0 0 1 0"/>
<feBlend mode="normal" in2="effect5_innerShadow_1125_58830" result="effect6_innerShadow_1125_58830"/>
</filter>
<filter id="filter4_iiiiii_1125_58830" x="0" y="130.597" width="3.76048" height="44.3679" filterUnits="userSpaceOnUse" color-interpolation-filters="sRGB">
<feFlood flood-opacity="0" result="BackgroundImageFix"/>
<feBlend mode="normal" in="SourceGraphic" in2="BackgroundImageFix" result="shape"/>
<feColorMatrix in="SourceAlpha" type="matrix" values="0 0 0 0 0 0 0 0 0 0 0 0 0 0 0 0 0 0 127 0" result="hardAlpha"/>
<feOffset dx="1.25333"/>
<feComposite in2="hardAlpha" operator="arithmetic" k2="-1" k3="1"/>
<feColorMatrix type="matrix" values="0 0 0 0 0.854902 0 0 0 0 0.858824 0 0 0 0 0.839216 0 0 0 1 0"/>
<feBlend mode="normal" in2="shape" result="effect1_innerShadow_1125_58830"/>
<feColorMatrix in="SourceAlpha" type="matrix" values="0 0 0 0 0 0 0 0 0 0 0 0 0 0 0 0 0 0 127 0" result="hardAlpha"/>
<feOffset dx="1.25333"/>
<feGaussianBlur stdDeviation="0.501333"/>
<feComposite in2="hardAlpha" operator="arithmetic" k2="-1" k3="1"/>
<feColorMatrix type="matrix" values="0 0 0 0 0.854902 0 0 0 0 0.858824 0 0 0 0 0.839216 0 0 0 1 0"/>
<feBlend mode="normal" in2="effect1_innerShadow_1125_58830" result="effect2_innerShadow_1125_58830"/>
<feColorMatrix in="SourceAlpha" type="matrix" values="0 0 0 0 0 0 0 0 0 0 0 0 0 0 0 0 0 0 127 0" result="hardAlpha"/>
<feOffset dy="-2.00533"/>
<feGaussianBlur stdDeviation="0.250667"/>
<feComposite in2="hardAlpha" operator="arithmetic" k2="-1" k3="1"/>
<feColorMatrix type="matrix" values="0 0 0 0 0.254902 0 0 0 0 0.258824 0 0 0 0 0.235294 0 0 0 1 0"/>
<feBlend mode="normal" in2="effect2_innerShadow_1125_58830" result="effect3_innerShadow_1125_58830"/>
<feColorMatrix in="SourceAlpha" type="matrix" values="0 0 0 0 0 0 0 0 0 0 0 0 0 0 0 0 0 0 127 0" result="hardAlpha"/>
<feOffset dy="2.00533"/>
<feGaussianBlur stdDeviation="0.250667"/>
<feComposite in2="hardAlpha" operator="arithmetic" k2="-1" k3="1"/>
<feColorMatrix type="matrix" values="0 0 0 0 0.254902 0 0 0 0 0.258824 0 0 0 0 0.235294 0 0 0 1 0"/>
<feBlend mode="normal" in2="effect3_innerShadow_1125_58830" result="effect4_innerShadow_1125_58830"/>
<feColorMatrix in="SourceAlpha" type="matrix" values="0 0 0 0 0 0 0 0 0 0 0 0 0 0 0 0 0 0 127 0" result="hardAlpha"/>
<feOffset dy="0.752"/>
<feComposite in2="hardAlpha" operator="arithmetic" k2="-1" k3="1"/>
<feColorMatrix type="matrix" values="0 0 0 0 0.94902 0 0 0 0 0.952941 0 0 0 0 0.929412 0 0 0 1 0"/>
<feBlend mode="normal" in2="effect4_innerShadow_1125_58830" result="effect5_innerShadow_1125_58830"/>
<feColorMatrix in="SourceAlpha" type="matrix" values="0 0 0 0 0 0 0 0 0 0 0 0 0 0 0 0 0 0 127 0" result="hardAlpha"/>
<feOffset dy="-0.752"/>
<feComposite in2="hardAlpha" operator="arithmetic" k2="-1" k3="1"/>
<feColorMatrix type="matrix" values="0 0 0 0 0.94902 0 0 0 0 0.952941 0 0 0 0 0.929412 0 0 0 1 0"/>
<feBlend mode="normal" in2="effect5_innerShadow_1125_58830" result="effect6_innerShadow_1125_58830"/>
</filter>
<filter id="filter5_iiiiii_1125_58830" x="0" y="89.7387" width="3.76048" height="22.3093" filterUnits="userSpaceOnUse" color-interpolation-filters="sRGB">
<feFlood flood-opacity="0" result="BackgroundImageFix"/>
<feBlend mode="normal" in="SourceGraphic" in2="BackgroundImageFix" result="shape"/>
<feColorMatrix in="SourceAlpha" type="matrix" values="0 0 0 0 0 0 0 0 0 0 0 0 0 0 0 0 0 0 127 0" result="hardAlpha"/>
<feOffset dx="1.25333"/>
<feComposite in2="hardAlpha" operator="arithmetic" k2="-1" k3="1"/>
<feColorMatrix type="matrix" values="0 0 0 0 0.854902 0 0 0 0 0.858824 0 0 0 0 0.839216 0 0 0 1 0"/>
<feBlend mode="normal" in2="shape" result="effect1_innerShadow_1125_58830"/>
<feColorMatrix in="SourceAlpha" type="matrix" values="0 0 0 0 0 0 0 0 0 0 0 0 0 0 0 0 0 0 127 0" result="hardAlpha"/>
<feOffset dx="1.25333"/>
<feGaussianBlur stdDeviation="0.501333"/>
<feComposite in2="hardAlpha" operator="arithmetic" k2="-1" k3="1"/>
<feColorMatrix type="matrix" values="0 0 0 0 0.854902 0 0 0 0 0.858824 0 0 0 0 0.839216 0 0 0 1 0"/>
<feBlend mode="normal" in2="effect1_innerShadow_1125_58830" result="effect2_innerShadow_1125_58830"/>
<feColorMatrix in="SourceAlpha" type="matrix" values="0 0 0 0 0 0 0 0 0 0 0 0 0 0 0 0 0 0 127 0" result="hardAlpha"/>
<feOffset dy="-2.00533"/>
<feGaussianBlur stdDeviation="0.250667"/>
<feComposite in2="hardAlpha" operator="arithmetic" k2="-1" k3="1"/>
<feColorMatrix type="matrix" values="0 0 0 0 0.254902 0 0 0 0 0.258824 0 0 0 0 0.235294 0 0 0 1 0"/>
<feBlend mode="normal" in2="effect2_innerShadow_1125_58830" result="effect3_innerShadow_1125_58830"/>
<feColorMatrix in="SourceAlpha" type="matrix" values="0 0 0 0 0 0 0 0 0 0 0 0 0 0 0 0 0 0 127 0" result="hardAlpha"/>
<feOffset dy="2.00533"/>
<feGaussianBlur stdDeviation="0.250667"/>
<feComposite in2="hardAlpha" operator="arithmetic" k2="-1" k3="1"/>
<feColorMatrix type="matrix" values="0 0 0 0 0.254902 0 0 0 0 0.258824 0 0 0 0 0.235294 0 0 0 1 0"/>
<feBlend mode="normal" in2="effect3_innerShadow_1125_58830" result="effect4_innerShadow_1125_58830"/>
<feColorMatrix in="SourceAlpha" type="matrix" values="0 0 0 0 0 0 0 0 0 0 0 0 0 0 0 0 0 0 127 0" result="hardAlpha"/>
<feOffset dy="0.752"/>
<feComposite in2="hardAlpha" operator="arithmetic" k2="-1" k3="1"/>
<feColorMatrix type="matrix" values="0 0 0 0 0.94902 0 0 0 0 0.952941 0 0 0 0 0.929412 0 0 0 1 0"/>
<feBlend mode="normal" in2="effect4_innerShadow_1125_58830" result="effect5_innerShadow_1125_58830"/>
<feColorMatrix in="SourceAlpha" type="matrix" values="0 0 0 0 0 0 0 0 0 0 0 0 0 0 0 0 0 0 127 0" result="hardAlpha"/>
<feOffset dy="-0.752"/>
<feComposite in2="hardAlpha" operator="arithmetic" k2="-1" k3="1"/>
<feColorMatrix type="matrix" values="0 0 0 0 0.94902 0 0 0 0 0.952941 0 0 0 0 0.929412 0 0 0 1 0"/>
<feBlend mode="normal" in2="effect5_innerShadow_1125_58830" result="effect6_innerShadow_1125_58830"/>
</filter>
<filter id="filter6_iii_1125_58830" x="125.584" y="18.5493" width="31.083" height="4.51196" filterUnits="userSpaceOnUse" color-interpolation-filters="sRGB">
<feFlood flood-opacity="0" result="BackgroundImageFix"/>
<feBlend mode="normal" in="SourceGraphic" in2="BackgroundImageFix" result="shape"/>
<feColorMatrix in="SourceAlpha" type="matrix" values="0 0 0 0 0 0 0 0 0 0 0 0 0 0 0 0 0 0 127 0" result="hardAlpha"/>
<feMorphology radius="0.250667" operator="erode" in="SourceAlpha" result="effect1_innerShadow_1125_58830"/>
<feOffset/>
<feGaussianBlur stdDeviation="0.626667"/>
<feComposite in2="hardAlpha" operator="arithmetic" k2="-1" k3="1"/>
<feColorMatrix type="matrix" values="0 0 0 0 0 0 0 0 0 0 0 0 0 0 0 0 0 0 1 0"/>
<feBlend mode="normal" in2="shape" result="effect1_innerShadow_1125_58830"/>
<feColorMatrix in="SourceAlpha" type="matrix" values="0 0 0 0 0 0 0 0 0 0 0 0 0 0 0 0 0 0 127 0" result="hardAlpha"/>
<feOffset dx="0.752"/>
<feComposite in2="hardAlpha" operator="arithmetic" k2="-1" k3="1"/>
<feColorMatrix type="matrix" values="0 0 0 0 0.164706 0 0 0 0 0.164706 0 0 0 0 0.164706 0 0 0 1 0"/>
<feBlend mode="normal" in2="effect1_innerShadow_1125_58830" result="effect2_innerShadow_1125_58830"/>
<feColorMatrix in="SourceAlpha" type="matrix" values="0 0 0 0 0 0 0 0 0 0 0 0 0 0 0 0 0 0 127 0" result="hardAlpha"/>
<feOffset dx="-0.752"/>
<feComposite in2="hardAlpha" operator="arithmetic" k2="-1" k3="1"/>
<feColorMatrix type="matrix" values="0 0 0 0 0.164706 0 0 0 0 0.164706 0 0 0 0 0.164706 0 0 0 1 0"/>
<feBlend mode="normal" in2="effect2_innerShadow_1125_58830" result="effect3_innerShadow_1125_58830"/>
</filter>
<filter id="filter7_d_1125_58830" x="163.861" y="15.7169" width="10.6781" height="10.6783" filterUnits="userSpaceOnUse" color-interpolation-filters="sRGB">
<feFlood flood-opacity="0" result="BackgroundImageFix"/>
<feColorMatrix in="SourceAlpha" type="matrix" values="0 0 0 0 0 0 0 0 0 0 0 0 0 0 0 0 0 0 127 0" result="hardAlpha"/>
<feMorphology radius="0.0752" operator="dilate" in="SourceAlpha" result="effect1_dropShadow_1125_58830"/>
<feOffset/>
<feGaussianBlur stdDeviation="0.125333"/>
<feColorMatrix type="matrix" values="0 0 0 0 0.0705882 0 0 0 0 0.0313726 0 0 0 0 0.0235294 0 0 0 1 0"/>
<feBlend mode="normal" in2="BackgroundImageFix" result="effect1_dropShadow_1125_58830"/>
<feBlend mode="normal" in="SourceGraphic" in2="effect1_dropShadow_1125_58830" result="shape"/>
</filter>
<filter id="filter8_d_1125_58830" x="107.05" y="46.9131" width="23.747" height="12.7428" filterUnits="userSpaceOnUse" color-interpolation-filters="sRGB">
<feFlood flood-opacity="0" result="BackgroundImageFix"/>
<feColorMatrix in="SourceAlpha" type="matrix" values="0 0 0 0 0 0 0 0 0 0 0 0 0 0 0 0 0 0 127 0" result="hardAlpha"/>
<feOffset dy="0.25"/>
<feGaussianBlur stdDeviation="1.38889"/>
<feComposite in2="hardAlpha" operator="out"/>
<feColorMatrix type="matrix" values="0 0 0 0 0 0 0 0 0 0 0 0 0 0 0 0 0 0 0.16 0"/>
<feBlend mode="normal" in2="BackgroundImageFix" result="effect1_dropShadow_1125_58830"/>
<feBlend mode="normal" in="SourceGraphic" in2="effect1_dropShadow_1125_58830" result="shape"/>
</filter>
<filter id="filter9_d_1125_58830" x="20.7935" y="48.2418" width="18.9784" height="6.59706" filterUnits="userSpaceOnUse" color-interpolation-filters="sRGB">
<feFlood flood-opacity="0" result="BackgroundImageFix"/>
<feColorMatrix in="SourceAlpha" type="matrix" values="0 0 0 0 0 0 0 0 0 0 0 0 0 0 0 0 0 0 127 0" result="hardAlpha"/>
<feOffset dy="0.25"/>
<feGaussianBlur stdDeviation="1.38889"/>
<feComposite in2="hardAlpha" operator="out"/>
<feColorMatrix type="matrix" values="0 0 0 0 0 0 0 0 0 0 0 0 0 0 0 0 0 0 0.16 0"/>
<feBlend mode="normal" in2="BackgroundImageFix" result="effect1_dropShadow_1125_58830"/>
<feBlend mode="normal" in="SourceGraphic" in2="effect1_dropShadow_1125_58830" result="shape"/>
</filter>
<filter id="filter10_d_1125_58830" x="30.0709" y="50.95" width="6.59755" height="6.5973" filterUnits="userSpaceOnUse" color-interpolation-filters="sRGB">
<feFlood flood-opacity="0" result="BackgroundImageFix"/>
<feColorMatrix in="SourceAlpha" type="matrix" values="0 0 0 0 0 0 0 0 0 0 0 0 0 0 0 0 0 0 127 0" result="hardAlpha"/>
<feOffset dy="0.25"/>
<feGaussianBlur stdDeviation="1.38889"/>
<feComposite in2="hardAlpha" operator="out"/>
<feColorMatrix type="matrix" values="0 0 0 0 0 0 0 0 0 0 0 0 0 0 0 0 0 0 0.16 0"/>
<feBlend mode="normal" in2="BackgroundImageFix" result="effect1_dropShadow_1125_58830"/>
<feBlend mode="normal" in="SourceGraphic" in2="effect1_dropShadow_1125_58830" result="shape"/>
</filter>
<filter id="filter11_d_1125_58830" x="26.9878" y="50.95" width="6.59755" height="6.5973" filterUnits="userSpaceOnUse" color-interpolation-filters="sRGB">
<feFlood flood-opacity="0" result="BackgroundImageFix"/>
<feColorMatrix in="SourceAlpha" type="matrix" values="0 0 0 0 0 0 0 0 0 0 0 0 0 0 0 0 0 0 127 0" result="hardAlpha"/>
<feOffset dy="0.25"/>
<feGaussianBlur stdDeviation="1.38889"/>
<feComposite in2="hardAlpha" operator="out"/>
<feColorMatrix type="matrix" values="0 0 0 0 0 0 0 0 0 0 0 0 0 0 0 0 0 0 0.16 0"/>
<feBlend mode="normal" in2="BackgroundImageFix" result="effect1_dropShadow_1125_58830"/>
<feBlend mode="normal" in="SourceGraphic" in2="effect1_dropShadow_1125_58830" result="shape"/>
</filter>
<filter id="filter12_d_1125_58830" x="23.9048" y="50.95" width="6.59755" height="6.5973" filterUnits="userSpaceOnUse" color-interpolation-filters="sRGB">
<feFlood flood-opacity="0" result="BackgroundImageFix"/>
<feColorMatrix in="SourceAlpha" type="matrix" values="0 0 0 0 0 0 0 0 0 0 0 0 0 0 0 0 0 0 127 0" result="hardAlpha"/>
<feOffset dy="0.25"/>
<feGaussianBlur stdDeviation="1.38889"/>
<feComposite in2="hardAlpha" operator="out"/>
<feColorMatrix type="matrix" values="0 0 0 0 0 0 0 0 0 0 0 0 0 0 0 0 0 0 0.16 0"/>
<feBlend mode="normal" in2="BackgroundImageFix" result="effect1_dropShadow_1125_58830"/>
<feBlend mode="normal" in="SourceGraphic" in2="effect1_dropShadow_1125_58830" result="shape"/>
</filter>
<filter id="filter13_d_1125_58830" x="30.0709" y="53.6514" width="6.59071" height="6.5973" filterUnits="userSpaceOnUse" color-interpolation-filters="sRGB">
<feFlood flood-opacity="0" result="BackgroundImageFix"/>
<feColorMatrix in="SourceAlpha" type="matrix" values="0 0 0 0 0 0 0 0 0 0 0 0 0 0 0 0 0 0 127 0" result="hardAlpha"/>
<feOffset dy="0.25"/>
<feGaussianBlur stdDeviation="1.38889"/>
<feComposite in2="hardAlpha" operator="out"/>
<feColorMatrix type="matrix" values="0 0 0 0 0 0 0 0 0 0 0 0 0 0 0 0 0 0 0.16 0"/>
<feBlend mode="normal" in2="BackgroundImageFix" result="effect1_dropShadow_1125_58830"/>
<feBlend mode="normal" in="SourceGraphic" in2="effect1_dropShadow_1125_58830" result="shape"/>
</filter>
<filter id="filter14_d_1125_58830" x="26.9878" y="53.6514" width="6.59071" height="6.5973" filterUnits="userSpaceOnUse" color-interpolation-filters="sRGB">
<feFlood flood-opacity="0" result="BackgroundImageFix"/>
<feColorMatrix in="SourceAlpha" type="matrix" values="0 0 0 0 0 0 0 0 0 0 0 0 0 0 0 0 0 0 127 0" result="hardAlpha"/>
<feOffset dy="0.25"/>
<feGaussianBlur stdDeviation="1.38889"/>
<feComposite in2="hardAlpha" operator="out"/>
<feColorMatrix type="matrix" values="0 0 0 0 0 0 0 0 0 0 0 0 0 0 0 0 0 0 0.16 0"/>
<feBlend mode="normal" in2="BackgroundImageFix" result="effect1_dropShadow_1125_58830"/>
<feBlend mode="normal" in="SourceGraphic" in2="effect1_dropShadow_1125_58830" result="shape"/>
</filter>
<filter id="filter15_d_1125_58830" x="23.898" y="53.6514" width="6.59755" height="6.5973" filterUnits="userSpaceOnUse" color-interpolation-filters="sRGB">
<feFlood flood-opacity="0" result="BackgroundImageFix"/>
<feColorMatrix in="SourceAlpha" type="matrix" values="0 0 0 0 0 0 0 0 0 0 0 0 0 0 0 0 0 0 127 0" result="hardAlpha"/>
<feOffset dy="0.25"/>
<feGaussianBlur stdDeviation="1.38889"/>
<feComposite in2="hardAlpha" operator="out"/>
<feColorMatrix type="matrix" values="0 0 0 0 0 0 0 0 0 0 0 0 0 0 0 0 0 0 0.16 0"/>
<feBlend mode="normal" in2="BackgroundImageFix" result="effect1_dropShadow_1125_58830"/>
<feBlend mode="normal" in="SourceGraphic" in2="effect1_dropShadow_1125_58830" result="shape"/>
</filter>
<filter id="filter16_d_1125_58830" x="29.7867" y="43.096" width="6.59657" height="8.88197" filterUnits="userSpaceOnUse" color-interpolation-filters="sRGB">
<feFlood flood-opacity="0" result="BackgroundImageFix"/>
<feColorMatrix in="SourceAlpha" type="matrix" values="0 0 0 0 0 0 0 0 0 0 0 0 0 0 0 0 0 0 127 0" result="hardAlpha"/>
<feOffset dy="0.25"/>
<feGaussianBlur stdDeviation="1.38889"/>
<feComposite in2="hardAlpha" operator="out"/>
<feColorMatrix type="matrix" values="0 0 0 0 0 0 0 0 0 0 0 0 0 0 0 0 0 0 0.16 0"/>
<feBlend mode="normal" in2="BackgroundImageFix" result="effect1_dropShadow_1125_58830"/>
<feBlend mode="normal" in="SourceGraphic" in2="effect1_dropShadow_1125_58830" result="shape"/>
</filter>
<filter id="filter17_d_1125_58830" x="24.1763" y="43.096" width="6.59657" height="8.88197" filterUnits="userSpaceOnUse" color-interpolation-filters="sRGB">
<feFlood flood-opacity="0" result="BackgroundImageFix"/>
<feColorMatrix in="SourceAlpha" type="matrix" values="0 0 0 0 0 0 0 0 0 0 0 0 0 0 0 0 0 0 127 0" result="hardAlpha"/>
<feOffset dy="0.25"/>
<feGaussianBlur stdDeviation="1.38889"/>
<feComposite in2="hardAlpha" operator="out"/>
<feColorMatrix type="matrix" values="0 0 0 0 0 0 0 0 0 0 0 0 0 0 0 0 0 0 0.16 0"/>
<feBlend mode="normal" in2="BackgroundImageFix" result="effect1_dropShadow_1125_58830"/>
<feBlend mode="normal" in="SourceGraphic" in2="effect1_dropShadow_1125_58830" result="shape"/>
</filter>
<filter id="filter18_d_1125_58830" x="20.7173" y="44.1932" width="19.1044" height="19.3541" filterUnits="userSpaceOnUse" color-interpolation-filters="sRGB">
<feFlood flood-opacity="0" result="BackgroundImageFix"/>
<feColorMatrix in="SourceAlpha" type="matrix" values="0 0 0 0 0 0 0 0 0 0 0 0 0 0 0 0 0 0 127 0" result="hardAlpha"/>
<feOffset dy="0.25"/>
<feGaussianBlur stdDeviation="1.38889"/>
<feComposite in2="hardAlpha" operator="out"/>
<feColorMatrix type="matrix" values="0 0 0 0 0 0 0 0 0 0 0 0 0 0 0 0 0 0 0.16 0"/>
<feBlend mode="normal" in2="BackgroundImageFix" result="effect1_dropShadow_1125_58830"/>
<feBlend mode="normal" in="SourceGraphic" in2="effect1_dropShadow_1125_58830" result="shape"/>
</filter>
<filter id="filter19_b_1125_58830" x="1.79329" y="483.228" width="273.611" height="75.0001" filterUnits="userSpaceOnUse" color-interpolation-filters="sRGB">
<feFlood flood-opacity="0" result="BackgroundImageFix"/>
<feGaussianBlur in="BackgroundImage" stdDeviation="8.33333"/>
<feComposite in2="SourceAlpha" operator="in" result="effect1_backgroundBlur_1125_58830"/>
<feBlend mode="normal" in="SourceGraphic" in2="effect1_backgroundBlur_1125_58830" result="shape"/>
</filter>
<filter id="filter20_d_1125_58830" x="119.849" y="504.755" width="37.4999" height="37.4999" filterUnits="userSpaceOnUse" color-interpolation-filters="sRGB">
<feFlood flood-opacity="0" result="BackgroundImageFix"/>
<feColorMatrix in="SourceAlpha" type="matrix" values="0 0 0 0 0 0 0 0 0 0 0 0 0 0 0 0 0 0 127 0" result="hardAlpha"/>
<feOffset dy="2.77778"/>
<feGaussianBlur stdDeviation="1.38889"/>
<feComposite in2="hardAlpha" operator="out"/>
<feColorMatrix type="matrix" values="0 0 0 0 1 0 0 0 0 1 0 0 0 0 1 0 0 0 0.1 0"/>
<feBlend mode="normal" in2="BackgroundImageFix" result="effect1_dropShadow_1125_58830"/>
<feBlend mode="normal" in="SourceGraphic" in2="effect1_dropShadow_1125_58830" result="shape"/>
</filter>
<linearGradient id="paint0_linear_1125_58830" x1="138.37" y1="0.5" x2="138.37" y2="569.26" gradientUnits="userSpaceOnUse">
<stop stop-color="#F4F5F0"/>
<stop offset="1" stop-color="#FBFBFB"/>
</linearGradient>
<linearGradient id="paint1_linear_1125_58830" x1="-1.504" y1="204.871" x2="4.26133" y2="204.871" gradientUnits="userSpaceOnUse">
<stop stop-color="#7D7E79"/>
<stop offset="0.25" stop-color="#7E817A"/>
<stop offset="0.5" stop-color="#43443E"/>
<stop offset="0.682292" stop-color="#1B1C16"/>
<stop offset="0.937329" stop-color="#83847F"/>
</linearGradient>
<linearGradient id="paint2_linear_1125_58830" x1="-1.504" y1="149.975" x2="4.26133" y2="149.975" gradientUnits="userSpaceOnUse">
<stop stop-color="#7D7E79"/>
<stop offset="0.25" stop-color="#7E817A"/>
<stop offset="0.5" stop-color="#43443E"/>
<stop offset="0.682292" stop-color="#1B1C16"/>
<stop offset="0.937329" stop-color="#83847F"/>
</linearGradient>
<linearGradient id="paint3_linear_1125_58830" x1="-1.504" y1="99.5147" x2="4.26133" y2="99.5147" gradientUnits="userSpaceOnUse">
<stop stop-color="#7D7E79"/>
<stop offset="0.25" stop-color="#7E817A"/>
<stop offset="0.5" stop-color="#43443E"/>
<stop offset="0.682292" stop-color="#1B1C16"/>
<stop offset="0.937329" stop-color="#83847F"/>
</linearGradient>
<radialGradient id="paint4_radial_1125_58830" cx="0" cy="0" r="1" gradientUnits="userSpaceOnUse" gradientTransform="translate(166.067 16.5441) rotate(55.2222) scale(10.9865)">
<stop stop-color="#0B0B0B"/>
<stop offset="1" stop-color="#121212"/>
</radialGradient>
<radialGradient id="paint5_radial_1125_58830" cx="0" cy="0" r="1" gradientUnits="userSpaceOnUse" gradientTransform="translate(169.2 21.0561) rotate(90) scale(3.008)">
<stop offset="0.213542"/>
<stop offset="0.270833" stop-color="#081A32"/>
<stop offset="0.395833" stop-color="#1F3A58"/>
<stop offset="0.515625" stop-color="#375F90"/>
<stop offset="0.713542" stop-color="#274871"/>
<stop offset="0.916667" stop-color="#0D1528"/>
</radialGradient>
<radialGradient id="paint6_angular_1125_58830" cx="0" cy="0" r="1" gradientUnits="userSpaceOnUse" gradientTransform="translate(169.2 21.0561) rotate(90) scale(3.008)">
<stop offset="0.411458" stop-opacity="0"/>
<stop offset="0.510417"/>
<stop offset="0.817708" stop-opacity="0"/>
</radialGradient>
<radialGradient id="paint7_angular_1125_58830" cx="0" cy="0" r="1" gradientUnits="userSpaceOnUse" gradientTransform="translate(169.2 21.0561) rotate(90) scale(3.008)">
<stop/>
<stop offset="0.166667" stop-opacity="0"/>
<stop offset="0.885417" stop-opacity="0"/>
</radialGradient>
<clipPath id="clip0_1125_58830">
<rect width="276.74" height="569.77" fill="white"/>
</clipPath>
<clipPath id="clip1_1125_58830">
<rect width="249.66" height="541.44" fill="white" transform="translate(13.5996 14.2)"/>
</clipPath>
<clipPath id="clip2_1125_58830">
<rect width="250" height="30.5556" fill="white" transform="translate(13.5996 37.811)"/>
</clipPath>
<clipPath id="clip3_1125_58830">
<rect width="16.6667" height="16.6667" fill="white" transform="translate(21.9326 44.7554)"/>
</clipPath>
<clipPath id="clip4_1125_58830">
<rect width="19.4444" height="19.4444" fill="white" transform="translate(179.664 511.005)"/>
</clipPath>
</defs>
</svg>
