<svg id="Capa_2" data-name="Capa 2" xmlns="http://www.w3.org/2000/svg" xmlns:xlink="http://www.w3.org/1999/xlink" viewBox="0 0 400 400"><defs><style>.cls-1{fill:#313d84;}.cls-2{fill:#3f4cc9;}.cls-3{fill:#f5f5f5;}.cls-4{fill:#a7aed6;}.cls-5{fill:#313b47;}.cls-6{fill:#ccc;}.cls-7{fill:#07adc2;}.cls-8{fill:#fbffff;}.cls-9{fill:#6e4430;}.cls-10{fill:#dd993e;}.cls-11{fill:#3a2e26;}.cls-12{fill:url(#Degradado_sin_nombre_12);}.cls-13{fill:url(#Degradado_sin_nombre_12-2);}.cls-14{fill:#686868;}.cls-15{fill:url(#Degradado_sin_nombre_12-3);}.cls-16{fill:#939286;}.cls-17{fill:#e5e4c8;}.cls-18{fill:#fff;}.cls-19{fill:#999698;}.cls-20{fill:#575756;}.cls-21{fill:#d9d7da;}.cls-22{fill:#27273d;}.cls-23{fill:url(#Degradado_sin_nombre_12-4);}.cls-24{fill:#26313d;}.cls-25{fill:url(#Degradado_sin_nombre_49);}.cls-26{opacity:0.93;fill:url(#Nueva_muestra_de_degradado_2);}.cls-27{fill:url(#Degradado_sin_nombre_49-2);}.cls-28{fill:url(#Degradado_sin_nombre_12-5);}.cls-29{fill:url(#Degradado_sin_nombre_11);}.cls-30{fill:url(#Degradado_sin_nombre_12-6);}</style><linearGradient id="Degradado_sin_nombre_12" x1="175.04" y1="258.08" x2="318.27" y2="258.08" gradientUnits="userSpaceOnUse"><stop offset="0.08" stop-color="#797d86"/><stop offset="0.47" stop-color="#a8abb0"/><stop offset="0.82" stop-color="#cbcccf"/><stop offset="1" stop-color="#d8d9db"/></linearGradient><linearGradient id="Degradado_sin_nombre_12-2" x1="175.04" y1="261.33" x2="318.42" y2="261.33" xlink:href="#Degradado_sin_nombre_12"/><linearGradient id="Degradado_sin_nombre_12-3" x1="145.64" y1="255.93" x2="336.59" y2="255.93" xlink:href="#Degradado_sin_nombre_12"/><linearGradient id="Degradado_sin_nombre_12-4" x1="126.31" y1="634.85" x2="151.43" y2="634.85" gradientTransform="translate(137.65 -509.53) rotate(8.6)" xlink:href="#Degradado_sin_nombre_12"/><linearGradient id="Degradado_sin_nombre_49" x1="1700.88" y1="2333.98" x2="1700.88" y2="2949.51" gradientTransform="translate(-1277.33 -2313.34) scale(0.83 0.87)" gradientUnits="userSpaceOnUse"><stop offset="0" stop-color="#fff"/><stop offset="0.14" stop-color="#c9cbce"/><stop offset="0.31" stop-color="#92969c"/><stop offset="0.47" stop-color="#656a73"/><stop offset="0.62" stop-color="#424853"/><stop offset="0.77" stop-color="#29303c"/><stop offset="0.9" stop-color="#19212e"/><stop offset="1" stop-color="#141c29"/></linearGradient><linearGradient id="Nueva_muestra_de_degradado_2" x1="71.72" y1="175.99" x2="200.53" y2="175.99" gradientTransform="translate(158.78 -45.34) rotate(43.56)" gradientUnits="userSpaceOnUse"><stop offset="0" stop-color="#e340a1"/><stop offset="0.49" stop-color="#664ad6"/><stop offset="0.99" stop-color="#14b2f5"/></linearGradient><linearGradient id="Degradado_sin_nombre_49-2" x1="1752.54" y1="2435.57" x2="1752.54" y2="2932.89" gradientTransform="translate(-1298.38 -2313.92) scale(0.82 0.87)" xlink:href="#Degradado_sin_nombre_49"/><linearGradient id="Degradado_sin_nombre_12-5" x1="1646.54" y1="2609.6" x2="1605.56" y2="2650.64" gradientTransform="matrix(0.62, -0.48, -0.61, -0.79, 759.92, 3028.6)" xlink:href="#Degradado_sin_nombre_12"/><linearGradient id="Degradado_sin_nombre_11" x1="1613.18" y1="2632.07" x2="1567.31" y2="2664.83" gradientTransform="matrix(0.62, -0.48, -0.61, -0.79, 759.92, 3028.6)" gradientUnits="userSpaceOnUse"><stop offset="0" stop-color="#797d86"/><stop offset="0.09" stop-color="#95999f"/><stop offset="0.2" stop-color="#aeb0b5"/><stop offset="0.32" stop-color="#c1c2c6"/><stop offset="0.47" stop-color="#cecfd2"/><stop offset="0.65" stop-color="#d6d7d9"/><stop offset="1" stop-color="#d8d9db"/></linearGradient><linearGradient id="Degradado_sin_nombre_12-6" x1="-4.84" y1="690.53" x2="41.77" y2="690.53" gradientTransform="translate(137.65 -509.53) rotate(8.6)" xlink:href="#Degradado_sin_nombre_12"/></defs><title>i</title><path class="cls-1" d="M303.29,135.35a39.78,39.78,0,0,1-2.05-4.6c0-.51.08-3.28.08-3.28l6.86,2.77s-1.54,1.61-2.12,2S303.29,135.35,303.29,135.35Z"/><path class="cls-2" d="M306.74,110.21l2.31,20.11s-2.95,1.09-3.94,3-2.85,3.83,2.74,5.15a14.19,14.19,0,0,0,9.41-.77l1.65-1.64-4.38-27.92S310.17,111.29,306.74,110.21Z"/><path class="cls-3" d="M303.69,87.4l3.06,23.32a11.33,11.33,0,0,0,8.32-2.41l-3.39-22.44S307,88,303.69,87.4Z"/><path class="cls-2" d="M300.4,66.38l2.74,21.9a15.46,15.46,0,0,0,8.43-1.76l-2.3-15.21-7.22,1Z"/><path class="cls-1" d="M304.82,72.22l10.29,66.13a7.07,7.07,0,0,1-6.57.43c-3.87-1.53-4.23-4.59-3.43-5.76a11.16,11.16,0,0,1,3.29-2.41l-7.23-58.76"/><path class="cls-4" d="M307.3,88l-3.94.29L306.28,110a5.68,5.68,0,0,0,4.6.07Z"/><path class="cls-3" d="M204.72,103.06l4.16,21s7.88,13.46,32.73,3.94,36.68-19.38,47.3-19.05a31.49,31.49,0,0,1,17.73,6.24L302.59,85.1s-19.38-7.33-36.67.22-28,16.31-37.45,18.5S204.72,103.06,204.72,103.06Z"/><path class="cls-2" d="M201,82l3.76,21.38s20.47,7.81,40.61-2.7,31.24-22.48,57.81-12.4l-2.63-21.17A43.59,43.59,0,0,0,275.26,64c-14.45,2.49-27.15,12.12-36.79,17.23S208.84,88.71,201,82Z"/><path class="cls-2" d="M274.82,130.61c-13.14,6-22.77,13.57-38.68,16.06s-23.5-1.61-23.5-1.61l-3.43-20.36S220,128.46,235,126.05s35.69-18.18,48.39-20a38.69,38.69,0,0,1,22.89,4l2.73,20.26a65.78,65.78,0,0,0-15.43-3.4C286.39,126.48,274.82,130.61,274.82,130.61Z"/><path class="cls-1" d="M215.59,86.2,224.31,147s2.92,1.17,11.83-.29a77.15,77.15,0,0,0,15-3.95l-8.79-63.46a66.17,66.17,0,0,1-15.73,5.51A67.46,67.46,0,0,1,215.59,86.2Z"/><path class="cls-5" d="M227.19,148.57a50.45,50.45,0,0,1-15.3-2.4,1,1,0,0,1,.61-1.93c20.76,6.55,37-2,51.41-9.46,6-3.12,11.62-6.07,16.93-7.49,13.67-3.64,23-.3,26.72,1.57l-8-61.12a31.7,31.7,0,0,0-8.25-2.87,42.9,42.9,0,0,0-22.6,1.59c-8.22,2.77-14.38,6.38-20.34,9.87-7.73,4.53-15,8.81-25.53,10.32-18.68,2.69-24-5.23-24.21-5.56a1,1,0,0,1,1.71-1.1c.08.12,5,7.13,22.21,4.65,10.11-1.45,17.24-5.63,24.79-10.06,6.05-3.54,12.31-7.21,20.73-10,19.35-6.5,32.42,1.37,33,1.71a1,1,0,0,1,.47.73l8.32,63.64a1,1,0,0,1-.48,1,1,1,0,0,1-1.11,0c-.1-.07-10.09-6.82-26.89-2.34-5.09,1.36-10.63,4.26-16.51,7.32C254.33,142.07,241.88,148.57,227.19,148.57Z"/><path class="cls-5" d="M310.69,140.07a10.21,10.21,0,0,1-5-1.27c-6.1-3.37-5.09-10.8-5-11.11a1,1,0,1,1,2,.29c0,.29-.82,6.37,4,9,4.62,2.56,9.61-.42,11.11-1.46l-9.63-63.44a13.87,13.87,0,0,1-6.78,1.25,1,1,0,0,1,.27-2,12.76,12.76,0,0,0,6.83-1.64,1,1,0,0,1,.93,0,1,1,0,0,1,.55.75l9.93,65.4a1,1,0,0,1-.37.94A15.62,15.62,0,0,1,310.69,140.07Z"/><path class="cls-4" d="M218.26,106s16.05,1.1,27.07-5.33l2.92,21.17s-10.8,6.06-26.86,4.89Z"/><path class="cls-6" d="M192.32,74.91S213,171,221.08,276.58h9.82S213.48,138.16,198.68,74.41Z"/><path class="cls-5" d="M232.25,277.77H220l-.09-1.1c-8-104.27-28.53-200.55-28.73-201.51l-.29-1.32,8.72-.69.23,1c14.65,63.08,32.07,200.91,32.25,202.3Zm-10.07-2.37h7.38c-1.83-14.32-18-139.69-31.81-199.73l-4,.32C196.25,87.89,214.65,178,222.18,275.4Z"/><circle class="cls-6" cx="194.97" cy="74.12" r="5.99"/><path class="cls-5" d="M195,81.28a7.17,7.17,0,1,1,7.17-7.16A7.17,7.17,0,0,1,195,81.28Zm0-12a4.81,4.81,0,1,0,4.8,4.81A4.81,4.81,0,0,0,195,69.31Z"/><rect class="cls-6" x="202.2" y="270.67" width="45.33" height="10.29" rx="5.15"/><path class="cls-5" d="M243.47,282.15H206.25a5.24,5.24,0,0,1-5.23-5.24v-2.18a5.24,5.24,0,0,1,5.23-5.24h37.22a5.25,5.25,0,0,1,5.24,5.24v2.18A5.25,5.25,0,0,1,243.47,282.15Zm-37.22-10.29a2.87,2.87,0,0,0-2.87,2.87v2.18a2.88,2.88,0,0,0,2.87,2.87h37.22a2.88,2.88,0,0,0,2.87-2.87v-2.18a2.87,2.87,0,0,0-2.87-2.87Z"/><path class="cls-5" d="M304.18,137.47a1,1,0,0,1-.86-.46,3.32,3.32,0,0,1-.3-2.76c.55-1.75,2.38-3.24,5.44-4.44a1,1,0,1,1,.74,1.89c-3.17,1.24-4,2.48-4.23,3.11a1.37,1.37,0,0,0,0,1.1,1,1,0,0,1-.29,1.39A.94.94,0,0,1,304.18,137.47Z"/><path class="cls-7" d="M74.29,125.73s-2.92,6.42-5.11,13.07-4.38,20.72-4.38,20.72L38.52,130.26s10.15-.73,16.86-1.25S74.29,125.73,74.29,125.73Z"/><path class="cls-7" d="M72.9,197.59s12.77,15,17.3,18.5A150.2,150.2,0,0,0,103,224.41l30.51,37.66-7-.29s-14.15-6.13-32.11-26.71-22-34.16-22-34.16Z"/><path class="cls-7" d="M162.2,278.62l-36.49-43.77s10.36-1.32,34.15-6,30.95-17,30.95-17l31.42,33.06,43-1.2,4.38,2.63L208.91,266.5Z"/><path class="cls-8" d="M61.88,128.77l-13.87,1S86.53,205,104.27,229.12,144,262.76,144,262.76l14.68-.61s-17.69-5.66-38.53-29.29C103.49,214,79.82,172,61.88,128.77Z"/><path class="cls-8" d="M68.59,128.19l14.45-2s30.33,64,52.08,95,48.25,31.8,73,31.67,40.64-1.23,40.64-1.23l-14.81,6s-17.81,2.58-46.76,1.09S139.6,240.39,127.78,224C111.2,201.05,68.59,128.19,68.59,128.19Z"/><path class="cls-8" d="M93.85,125.71l12.26-2s34.68,69.73,51.67,94.74c5.15,7.58,12.54,14.36,20,17.81,12,5.54,25.37,4.3,36.93,4.38,18.76.14,61,.73,61,.73l-16.93,7.57s-61.57,0-68.09-.4a52.77,52.77,0,0,1-37.51-19.85C140.15,212.06,93.85,125.71,93.85,125.71Z"/><polygon class="cls-9" points="263.4 286.05 195.08 319.11 201.43 326.67 270.29 293.6 263.4 286.05"/><polygon class="cls-9" points="244.9 266.67 177.78 298.2 184.46 306.52 251.68 273.68 244.9 266.67"/><polygon class="cls-9" points="192.67 211.6 196.72 199.34 218.84 222.77 204.17 223.31 192.67 211.6"/><polygon class="cls-9" points="219.32 239.95 279.71 303.13 287.05 301.6 288.58 295.03 235.52 239.19 219.32 239.95"/><polygon class="cls-10" points="205.87 209.27 288.58 295.03 282.88 296.23 198.53 209.78 205.87 209.27"/><path class="cls-11" d="M280,304.57a1.17,1.17,0,0,1-.86-.37l-88.32-93a1.18,1.18,0,0,1,1.72-1.63L280.32,302l5.44-1.66,1.76-5.16-91.46-93.78a1.18,1.18,0,1,1,1.69-1.65l92,94.3a1.2,1.2,0,0,1,.27,1.21l-2.19,6.42a1.17,1.17,0,0,1-.78.75l-6.71,2A1,1,0,0,1,280,304.57Z"/><path class="cls-11" d="M282.59,297.85a1.14,1.14,0,0,1-.84-.36L193.29,207a1.18,1.18,0,1,1,1.69-1.65l88,90,5.6-1.56a1.18,1.18,0,0,1,.64,2.28l-6.28,1.75A1.12,1.12,0,0,1,282.59,297.85Z"/><polygon class="cls-9" points="56.26 166.82 25.93 133.98 26.37 126.64 36.33 126.64 62.94 158.06 62.28 162.55 56.26 166.82"/><polygon class="cls-10" points="26.37 126.64 60.13 164.41 62.17 163.54 62.94 158.06 36.33 126.64 26.37 126.64"/><path class="cls-11" d="M60.71,165.16a1.18,1.18,0,0,1-.87-.38L26.12,128.29a1.2,1.2,0,0,1,.07-1.68,1.18,1.18,0,0,1,1.67.07l33.72,36.49a1.18,1.18,0,0,1-.07,1.67A1.12,1.12,0,0,1,60.71,165.16Z"/><polygon class="cls-9" points="48.92 279.92 60.53 195.73 72.9 197.59 60.2 282.22 56.59 284.19 48.92 279.92"/><path class="cls-11" d="M209.9,267.2a1.19,1.19,0,0,1-1.12-.8,1.17,1.17,0,0,1,.73-1.5l25.71-9a1.18,1.18,0,0,1,.79,2.23l-25.72,9A1.07,1.07,0,0,1,209.9,267.2Z"/><path class="cls-11" d="M248,253.93a1.18,1.18,0,0,1-.4-2.29l27.7-9.71a1.19,1.19,0,0,1,.78,2.24l-27.69,9.7A1.32,1.32,0,0,1,248,253.93Z"/><path class="cls-11" d="M125.89,262.82a1.2,1.2,0,0,1-.67-.21C103,247.46,89.67,231.38,82.4,220.55c-7.91-11.77-10.52-19.86-10.63-20.2a1.18,1.18,0,0,1,.77-1.48,1.19,1.19,0,0,1,1.49.77h0c0,.08,2.64,8.17,10.4,19.69,7.15,10.63,20.27,26.42,42.12,41.33a1.18,1.18,0,0,1-.66,2.16Z"/><path class="cls-11" d="M161.72,279.17a1.18,1.18,0,0,1-.28-2.33l34.74-8.76a1.18,1.18,0,0,1,.58,2.29L162,279.13A1.35,1.35,0,0,1,161.72,279.17Z"/><path class="cls-11" d="M39.1,131.58a1.18,1.18,0,0,1-.06-2.36,379,379,0,0,0,41.46-5.09,1.18,1.18,0,0,1,.42,2.33,380,380,0,0,1-41.75,5.12Z"/><path class="cls-11" d="M178.08,299.75a1.18,1.18,0,0,1-.51-2.25l67.15-31.83a1.18,1.18,0,0,1,1,2.14l-67.15,31.82A1.11,1.11,0,0,1,178.08,299.75Z"/><path class="cls-11" d="M184.64,307.49a1.19,1.19,0,0,1-.52-2.25l66.72-32.55a1.18,1.18,0,1,1,1,2.12l-66.71,32.56A1.17,1.17,0,0,1,184.64,307.49Z"/><path class="cls-11" d="M280,304.57a1.12,1.12,0,0,1-.44-.09,1.17,1.17,0,0,1-.66-1.53l2.77-7a1.18,1.18,0,0,1,2.2.87l-2.77,7A1.2,1.2,0,0,1,280,304.57Z"/><path class="cls-11" d="M55.53,167.49a1.22,1.22,0,0,1-.88-.38L25.38,134.85a1.16,1.16,0,0,1-.3-.85l.29-7.15a1.18,1.18,0,0,1,1.14-1.13l9.05-.3a1.16,1.16,0,0,1,.93.41l27.3,31.24A1.18,1.18,0,1,1,62,158.62L35.08,127.81l-7.39.24-.23,5.57,28.94,31.9a1.17,1.17,0,0,1-.87,2Z"/><path class="cls-11" d="M56.62,285.66a1.14,1.14,0,0,1-.64-.19l-7.88-5.11a1.17,1.17,0,0,1-.53-1.16l12-84.22a1.18,1.18,0,1,1,2.34.33L50,278.79l6.64,4.3,2.67-1.54,12.33-83.66a1.18,1.18,0,0,1,1.34-1,1.2,1.2,0,0,1,1,1.34L61.59,282.46a1.18,1.18,0,0,1-.58.85l-3.8,2.19A1.11,1.11,0,0,1,56.62,285.66Z"/><path class="cls-11" d="M55.75,284.93h-.18a1.18,1.18,0,0,1-1-1.34l13-87.59a1.18,1.18,0,1,1,2.34.35l-13,87.58A1.19,1.19,0,0,1,55.75,284.93Z"/><path class="cls-11" d="M195.23,320.09a1.18,1.18,0,0,1-.5-2.25l68.82-32.17a1.18,1.18,0,1,1,1,2.14L195.73,320A1.1,1.1,0,0,1,195.23,320.09Z"/><path class="cls-11" d="M201,327.34a1.19,1.19,0,0,1-1.07-.68,1.18,1.18,0,0,1,.57-1.57l69.18-32.7a1.17,1.17,0,0,1,1.57.56,1.19,1.19,0,0,1-.56,1.58l-69.18,32.7A1.3,1.3,0,0,1,201,327.34Z"/><path class="cls-12" d="M273.72,235.77c26.93,40.94,34.81,61.31,40.51,58.9s3.7-5.08,3.7-5.08-31.63-67.15-41.49-68-89.87.62-89.87.62-11.68,2.7-11.53,10.15S273.72,235.77,273.72,235.77Z"/><path class="cls-13" d="M273.72,235.77c26.93,40.94,34.81,61.31,40.51,58.9l.33-.15-38.34-66.71s-14.55.25-18.85,0c-3.3-.18-57.26,1.26-81.87,1.92a6.71,6.71,0,0,0-.46,2.6C175.18,239.78,273.72,235.77,273.72,235.77Z"/><path class="cls-14" d="M273.72,235.77c26.93,40.94,34.81,61.31,40.51,58.9l.33-.15s-35.25-64.18-39.09-65.46c-5-1.67-13.8-1-18.1-1.24-3.3-.18-57.26,1.26-81.87,1.92a6.71,6.71,0,0,0-.46,2.6C175.18,239.78,273.72,235.77,273.72,235.77Z"/><path class="cls-5" d="M313.24,295.89c-4.26,0-9.22-8.06-19.74-25.16-5.48-8.9-12.29-20-21.17-33.48l1.69-1.12c8.9,13.53,15.72,24.62,21.2,33.53,9.73,15.81,15.6,25.35,18.61,24.08,1.74-.74,2.79-1.62,3-2.55a2,2,0,0,0-.31-1.58l-.07-.09-.05-.11c-.08-.17-7.86-16.81-16.73-33.33-5.21-9.7-9.77-17.45-13.55-23-6-8.87-8.71-10.36-9.8-10.45-9.68-.87-89,.61-89.76.63l0-2c3.27-.06,80.19-1.5,90-.62,1.66.14,4.64,1.48,11.3,11.34,3.82,5.66,8.42,13.47,13.66,23.22,8.56,15.94,16.1,32,16.74,33.34a4.06,4.06,0,0,1,.59,3.23c-.41,1.59-1.82,2.91-4.2,3.91A3.35,3.35,0,0,1,313.24,295.89Z"/><path class="cls-15" d="M317.07,271.46s-28.68-17.3-47.95-22.55c0,0-99.85,2-114.74-.22S144,238.79,165,236.6s89.55-3.51,101.6-1.75,51.5,23.78,62.44,32.1c0,0,9.72,5.64,7.05,9.11C331.64,281.89,317.07,271.46,317.07,271.46Z"/><path class="cls-14" d="M304.85,259.5c-5.28-2.64-27-15.37-34.85-17.1-7.19-1.58-105.18-2.76-105.18-2.76l-14-.92c-7.48,3.58-6.72,8.45,3.58,10,14.89,2.19,114.74.22,114.74.22,19.27,5.25,47.95,22.55,47.95,22.55s10.21,7.29,16,6.52l-.34-1.49S314.58,264.34,304.85,259.5Z"/><path class="cls-5" d="M332.44,278.8a20.79,20.79,0,0,1-7.88-2.17,66.53,66.53,0,0,1-8-4.31c-.7-.42-28.78-17.23-47.55-22.4-5.81.12-100.1,1.93-114.75-.23-6.26-.92-9.67-2.9-9.61-5.57.08-4,7.86-7.24,20.29-8.53,21.7-2.26,90.24-3.44,101.85-1.75,12,1.75,51.58,23.71,62.87,32.27.88.53,6.57,4.09,7.3,7.89a3.89,3.89,0,0,1-.73,3.2A4.41,4.41,0,0,1,332.44,278.8Zm-63.19-30.91.14,0c19.18,5.23,47.92,22.49,48.21,22.66l0,0c5.88,3.77,15,7.93,17,5.37a1.86,1.86,0,0,0,.36-1.59c-.49-2.55-4.78-5.6-6.39-6.56l-.1-.07c-11.1-8.44-50.19-30.2-62-31.91-11.53-1.68-79.73-.5-101.35,1.76-12.67,1.32-18.43,4.63-18.47,6.55,0,1.18,2.4,2.72,7.87,3.52,14.64,2.16,113.57.23,114.57.21Z"/><path class="cls-16" d="M336.72,307.69a53,53,0,0,0,17.34-4.92c3.58-4,3.55-4.95,3.36-4.79-.86.74-.82-1-.82-1l-14.05-4-34.72,12.95s-.51.82.71,1.81a2,2,0,0,0-.24,2.22c6.32.76,12.76-1,19.14-1.6C330.53,308.06,333.64,308,336.72,307.69Z"/><path class="cls-17" d="M357.76,298.28c-5.91,6.6-15,8.78-21,9.41-3.08.32-6.19.37-9.28.68-6.38.63-12.82,2.36-19.14,1.6a1,1,0,0,0,.07.15,4.51,4.51,0,0,1,0,3.19,30.41,30.41,0,0,0,8.52-.17c3.63-.51,7.19-1.37,10.83-1.8,2.46-.3,4.95-.39,7.41-.69a46.51,46.51,0,0,0,18.29-6.25C353.56,304,357.54,298.87,357.76,298.28Z"/><path class="cls-18" d="M335.09,310.65c-2.46.3-4.95.39-7.41.69-3.64.43-7.2,1.29-10.83,1.8a30.41,30.41,0,0,1-8.52.17,4.84,4.84,0,0,0-.15.6c0,.31-.06,2.57,4.29,2.54s8.86-2.38,15.75-2.51,17.63-3.53,21.15-5.88,9.67-9.84,9.67-9.84-1.39.28-1.28.06C352.09,305.8,341.54,309.88,335.09,310.65Z"/><path class="cls-19" d="M305.06,294.6a8.39,8.39,0,0,0,1.11,4.77c1.34,1.87-1.15,1.56,1.95,6.29,0,0,12.54-1.17,16.87-.09s11.48.81,19.7-.76a18.41,18.41,0,0,0,9.67-5.78s5,0,8.23-7.43c.46-1.08-.43-4.2-.43-4.2s-1.6-3.65-4.64-4c-13.45,8.25-18.74,5.47-20.77,4.83s-11.43-5-12.46-5.23-3.62-2.09-6.24,4.65-3.25,9.65-7.47,6.4C307.81,291.88,307.49,290.06,305.06,294.6Z"/><path class="cls-20" d="M356.22,287.07c-1.43,2.52-1.26,2.79-.07,5.11s.1,4.08.74,5.41,1.93.79,3.59-2,3.51-4.47,1.83-7.75S358.82,282.52,356.22,287.07Z"/><path class="cls-21" d="M306.24,299.68l3.83,1.4s.92-1.64,5.12-1.28,16.05-1.38,17.77-1.42,11.27-1,12.6-.86,6.85-2.44,6.85-2.44-3.54,4.7-7,5.21A53.29,53.29,0,0,0,333.84,303c-4.79,1.17-10.14,2.55-10.14,2.55s-4.72-1.61-15.87.35A13.15,13.15,0,0,1,306.24,299.68Z"/><path class="cls-21" d="M327.87,287.37s-5.17,2.34-5.16,3,3.12-.25,4.6-1.15-.24,2.75-.25,3.41.87,1.72,1.86-1.47,1.1-2.86,1.1-2.86L334.1,287l-2.66-1-2.77-.82Z"/><path class="cls-21" d="M333.89,289.51s-4.85,2.22-4.82,2.91,2.95-.18,4.34-1.05-.18,2.73-.17,3.38.85,1.73,1.72-1.42.53-2.67.53-2.67l4.29-1.38-2.54-1-2.64-.86Z"/><path class="cls-21" d="M340.1,290.78s-4.64,2.12-4.6,2.78,2.82-.16,4.14-1c0,0-.16,2.63-.15,3.26s.82,1.66,1.65-1.37.49-3.26.49-3.26l2.92-2-1.25.39-2.53-.84Z"/><path class="cls-22" d="M308.16,305.23a5.77,5.77,0,0,1-1.45-3.4c-.08-.61-.11-1.23-.21-1.83a9.24,9.24,0,0,0-.58-1.85c-.46-1.16-1.07-2.43-.78-3.71.23-1,1-2.11,2.1-2.15,1.32-.05,2.31,1.29,3.33,1.95a4.52,4.52,0,0,0,3.71.76c2.18-.67,2.73-3.12,3.19-5.07a14.09,14.09,0,0,1,1.33-3.68,12.58,12.58,0,0,1,1.18-1.79,5.78,5.78,0,0,1,1.55-1.49,3.4,3.4,0,0,1,3.33.25c1.22.6,2.39,1.28,3.62,1.85a81.1,81.1,0,0,0,8.1,3.13c2.48.84,5.18,1.72,7.83,1.33a23.21,23.21,0,0,0,4.08-1.18,30.31,30.31,0,0,0,3.89-1.66c.63-.33,1.25-.69,1.85-1.08a16.07,16.07,0,0,1,1.56-1,5,5,0,0,1,3.68-.5c.37.14.5.38.75.67s.75-.09.53-.41a2,2,0,0,1-.13-.18l-.53.41a11.11,11.11,0,0,1,1.23,1.88,7,7,0,0,1-.23,7.84,36.5,36.5,0,0,1-2.21,3.57,55.3,55.3,0,0,1-5.13,6.48,18.28,18.28,0,0,1-6.27,4.57,72,72,0,0,1-7.63,2.43,66.13,66.13,0,0,1-8.59,1.78c-2.95.42-5.92.73-8.88,1.09-1.14.14-2.29.26-3.42.5s-2,.48-3,.71c-1.88.42-4.11,1-6,.29a3,3,0,0,1-1.23-.8,1.9,1.9,0,0,1-.32-1.77,12.88,12.88,0,0,0,.34-1.75,5.12,5.12,0,0,0-.36-1.85,1.62,1.62,0,0,1,.2-1.72.34.34,0,0,0-.07-.53,1.13,1.13,0,0,1-.25-1.63c.27-.34-.21-.82-.48-.48a1.81,1.81,0,0,0,.39,2.69l-.07-.53c-1,1-.27,2.29-.06,3.45s-.71,2.49-.3,3.75a3.23,3.23,0,0,0,2.26,1.89,8,8,0,0,0,3,.18c2.2-.22,4.32-.9,6.48-1.33,1.34-.27,2.72-.38,4.08-.54l4.77-.57a79.85,79.85,0,0,0,9.24-1.54c2.87-.71,5.73-1.55,8.52-2.51a20,20,0,0,0,3.46-1.5,17.7,17.7,0,0,0,3.3-2.48,47,47,0,0,0,5.56-6.54c.87-1.2,1.71-2.42,2.47-3.69a16.73,16.73,0,0,0,1.89-3.9,6.83,6.83,0,0,0-.18-4.17,10.85,10.85,0,0,0-1.34-2.76q-.36-.49-.75-1c-.24-.3-.71.09-.53.41,0,.07.09.12.13.18l.53-.41a2.28,2.28,0,0,0-.73-.72,3.46,3.46,0,0,0-1.49-.31,6.72,6.72,0,0,0-3.68,1.15,28.14,28.14,0,0,1-8.1,3.83,11.76,11.76,0,0,1-4.15.7,18.59,18.59,0,0,1-4.24-.88,79.58,79.58,0,0,1-8.48-3.1c-1.35-.6-2.66-1.26-3.95-2a6,6,0,0,0-3.3-1,4.67,4.67,0,0,0-3.16,2.15,13.46,13.46,0,0,0-2.05,3.71c-.41,1.13-.6,2.33-.93,3.49a4.6,4.6,0,0,1-1.69,2.75,3.63,3.63,0,0,1-3.95-.47c-1.08-.72-2-1.89-3.37-2a2.85,2.85,0,0,0-2.55,1.62,4.41,4.41,0,0,0-.24,3.38,23,23,0,0,1,1.26,3.93,11.82,11.82,0,0,0,.72,3.59,5.7,5.7,0,0,0,1.08,1.57c.29.32.77-.16.47-.48Z"/><path class="cls-22" d="M355.22,290.39a10.68,10.68,0,0,0,.71,2.27,6.36,6.36,0,0,1,.63,2.25c0,1-.59,2.07-.26,3a1.22,1.22,0,0,0,1.63.62,5.09,5.09,0,0,0,1.9-1.61,22,22,0,0,0,2.73-4.28,6.79,6.79,0,0,0,.76-2.13,4.51,4.51,0,0,0-.41-2.37,13,13,0,0,0-1.19-2.2,5.74,5.74,0,0,0-1.51-1.77c-1.29-.84-2.61.55-3.37,1.48a6.2,6.2,0,0,0-1.64,4.6c.06.43.73.43.68,0a5.35,5.35,0,0,1,1.27-3.91c.49-.63,1.6-2.12,2.55-1.69a4.26,4.26,0,0,1,1.43,1.63,13,13,0,0,1,1.08,1.93,4,4,0,0,1,.43,2.31,6.55,6.55,0,0,1-.68,1.82,23.42,23.42,0,0,1-2.31,3.73,7.12,7.12,0,0,1-1.6,1.64c-.32.21-.95.46-1.12-.07a3.6,3.6,0,0,1,.14-1.56,5.28,5.28,0,0,0,.15-1.48c-.18-1.56-1.11-2.89-1.35-4.44C355.8,289.78,355.15,290,355.22,290.39Z"/><path class="cls-22" d="M307.79,306l6.08-.53a37.56,37.56,0,0,1,6.09-.16c4.11.32,8.21.79,12.33,1a42.11,42.11,0,0,0,6.15-.12c1.33-.13,2.65-.35,4-.58a22,22,0,0,0,6.16-1.88,29.59,29.59,0,0,0,8.26-6.54c.3-.32-.17-.8-.47-.48a30.89,30.89,0,0,1-7.38,6,20.5,20.5,0,0,1-6.13,2.09,44.34,44.34,0,0,1-9.48.82c-2-.05-4.05-.22-6.07-.39s-4-.31-6-.5c-1.09-.1-2.18-.2-3.27-.2s-2.32.08-3.47.18l-6.74.6c-.43,0-.44.71,0,.67Z"/><path class="cls-22" d="M312.53,305.18a7.06,7.06,0,0,1-2.56-2.7c-.53-1.23.54-2.05,1.62-2.34a17.6,17.6,0,0,1,4.47-.24c1.9,0,3.81-.1,5.71-.2,3.79-.21,7.56-.53,11.33-.92a55.4,55.4,0,0,1,5.61-.24,46,46,0,0,0,5.62-.37,17.86,17.86,0,0,0,5.66-1.43,17.38,17.38,0,0,0,4.37-3.31l-.57-.33a5,5,0,0,1-1.77,2.42,22.3,22.3,0,0,1-2.37,2,20.32,20.32,0,0,1-5.47,2.88,14,14,0,0,1-2.91.67c-1,.11-2,.09-3,.28-2.19.4-4.29,1.2-6.44,1.74-2.66.65-5.32,1.27-8,1.85-.42.1-.24.75.18.66q3.72-.82,7.43-1.72c2.25-.55,4.44-1.37,6.72-1.82,1.05-.21,2.09-.2,3.16-.32a14.8,14.8,0,0,0,3-.66,21,21,0,0,0,5.59-2.89A24.63,24.63,0,0,0,352.5,296a5.65,5.65,0,0,0,1.94-2.72.34.34,0,0,0-.56-.33,16.88,16.88,0,0,1-4.1,3.14,16.3,16.3,0,0,1-5.45,1.4,44.79,44.79,0,0,1-5.79.37c-1,0-2,0-3,0s-2,.16-3,.26c-3.91.42-7.84.73-11.76.92-2,.09-4,.15-6,.16a10.51,10.51,0,0,0-4.06.46,2.27,2.27,0,0,0-1.5,3,7.42,7.42,0,0,0,2.87,3.11c.36.25.7-.34.34-.58Z"/><path class="cls-22" d="M309.82,300.09,306,298.8c-.41-.14-.59.51-.18.65l3.78,1.29c.41.14.59-.51.18-.65Z"/><path class="cls-22" d="M331.06,285.69a31.48,31.48,0,0,0-4.34,1.43,23.57,23.57,0,0,0-4,2,.85.85,0,0,0-.31,1.24,1.28,1.28,0,0,0,1.54.33c.73-.26,1.43-.64,2.16-.94s1.47-.59,2.22-.85a46.49,46.49,0,0,1,5.19-1.47c.42-.09.24-.74-.18-.65a44.2,44.2,0,0,0-7.63,2.41c-.59.24-1.16.51-1.75.77-.23.1-.81.35-1,0s.38-.46.57-.56a28.63,28.63,0,0,1,3.47-1.71,29.43,29.43,0,0,1,4.2-1.37.34.34,0,0,0-.18-.66Z"/><path class="cls-22" d="M328.08,286.82a6.62,6.62,0,0,1,.38-1,7.54,7.54,0,0,1,.58-1,.34.34,0,1,0-.58-.35,7.73,7.73,0,0,0-1,2.19.33.33,0,0,0,.24.41.35.35,0,0,0,.42-.23Z"/><path class="cls-22" d="M327.6,288.88a11.05,11.05,0,0,0-.57,4.31.35.35,0,0,0,.25.33,1.35,1.35,0,0,0,1.25-.37,2.68,2.68,0,0,0,.66-1.27c.32-1.1.63-2.2.95-3.29a.34.34,0,0,0-.65-.18l-.8,2.76a6,6,0,0,1-.39,1.18c-.16.3-.47.61-.84.52l.24.32a10.55,10.55,0,0,1,.56-4.13c.14-.41-.52-.59-.66-.18Z"/><path class="cls-22" d="M337.54,287.78a28.91,28.91,0,0,0-4.44,1.48c-.74.31-1.47.63-2.18,1-.32.16-.64.32-.95.49a4,4,0,0,0-.93.58.87.87,0,0,0,.42,1.4c.66.23,1.37-.25,2-.5,1.39-.61,2.82-1.14,4.26-1.64a39,39,0,0,1,4.72-1.35c.43-.09.25-.74-.18-.65a46,46,0,0,0-7.42,2.34c-.56.22-1.12.45-1.67.69l-.73.33a1.17,1.17,0,0,1-.6.16.36.36,0,0,1-.27-.15c0-.16.06-.2.18-.27a24.57,24.57,0,0,1,3.64-1.79,28.13,28.13,0,0,1,4.38-1.46c.42-.1.24-.75-.18-.65Z"/><path class="cls-22" d="M333.88,289.22c.05-.17.09-.33.15-.49l.09-.26,0-.09s0,0,0,0l0-.07a6.9,6.9,0,0,1,.48-.89.33.33,0,0,0-.12-.46.34.34,0,0,0-.46.12,6.67,6.67,0,0,0-.86,2,.34.34,0,0,0,.24.41.34.34,0,0,0,.41-.23Z"/><path class="cls-22" d="M333.44,291.08A10.41,10.41,0,0,0,333,295a.34.34,0,0,0,.25.33,1.16,1.16,0,0,0,1.13-.32,2.42,2.42,0,0,0,.56-1.16c.25-1,.5-2,.74-3a.34.34,0,0,0-.65-.18l-.62,2.5c-.11.43-.28,1.68-1,1.48l.25.32a9.87,9.87,0,0,1,.37-3.74c.13-.41-.52-.59-.65-.18Z"/><path class="cls-22" d="M343,289a17.89,17.89,0,0,0-4.32,2c-.71.42-1.41.86-2.12,1.29-.45.28-1.32.58-1.24,1.25s.82.81,1.36.65a8.71,8.71,0,0,0,1.68-.82c1.2-.69,2.35-1.47,3.54-2.2a14.62,14.62,0,0,1,4-1.93c.42-.1.24-.75-.18-.65-2.2.54-4.14,2-6,3.16a22.87,22.87,0,0,1-2.88,1.66,1.56,1.56,0,0,1-.59.18c-.11,0-.16,0-.17-.12s0-.08.1-.15a5.38,5.38,0,0,1,.92-.56l1.8-1.1a17.54,17.54,0,0,1,4.29-2A.34.34,0,0,0,343,289Z"/><path class="cls-22" d="M340.65,290.3c0-.12.08-.25.13-.37l0-.07c0-.05,0,.07,0,0v0c0-.05.05-.09.07-.13a4.63,4.63,0,0,1,.39-.59.3.3,0,0,0,0-.26.31.31,0,0,0-.15-.2.3.3,0,0,0-.26,0,.35.35,0,0,0-.2.16,3.48,3.48,0,0,0-.4.6,6.37,6.37,0,0,0-.29.72.34.34,0,1,0,.66.18Z"/><path class="cls-22" d="M339.55,291.87a10.33,10.33,0,0,0-.3,4.07.34.34,0,0,0,.25.32c1.22.25,1.71-1.15,1.9-2.09s.26-1.95.55-2.88c.14-.42-.52-.6-.65-.18a19,19,0,0,0-.48,2.5,7.3,7.3,0,0,1-.28,1.14c-.12.35-.39,1-.86.86l.25.33a9.78,9.78,0,0,1,.27-3.89c.16-.41-.5-.59-.65-.18Z"/><path class="cls-22" d="M313.38,305.22a.15.15,0,0,1-.11,0,8.23,8.23,0,0,1-.63-.57.17.17,0,1,1,.23-.25,6.14,6.14,0,0,0,.62.56.17.17,0,0,1,0,.24A.18.18,0,0,1,313.38,305.22Z"/><path class="cls-22" d="M311.67,303.39a.17.17,0,0,1-.14-.07A2.49,2.49,0,0,1,311,302a1,1,0,0,1,.09-.43.17.17,0,0,1,.22-.08.16.16,0,0,1,.09.22.68.68,0,0,0-.06.29,2.18,2.18,0,0,0,.44,1.1.17.17,0,0,1-.05.23Zm1-2.27a.15.15,0,0,1-.16-.13.17.17,0,0,1,.13-.2,14.93,14.93,0,0,1,1.68-.19.17.17,0,1,1,0,.34,13.9,13.9,0,0,0-1.63.18Zm10.17,0h-.18a.17.17,0,1,1,0-.33h.17c.41,0,.89,0,1.48-.05a.15.15,0,0,1,.18.16.17.17,0,0,1-.16.18C323.78,301.06,323.29,301.08,322.88,301.08ZM321,301h0l-1.66-.07a.17.17,0,0,1-.17-.17.18.18,0,0,1,.18-.17l1.66.07a.17.17,0,0,1,.17.18A.17.17,0,0,1,321,301Zm5-.1a.17.17,0,0,1-.17-.16.17.17,0,0,1,.15-.18l1.66-.15a.17.17,0,0,1,.19.15.17.17,0,0,1-.15.18l-1.67.15Zm-8.34,0h0c-.56,0-1.12,0-1.66,0h0a.17.17,0,1,1,0-.34c.54,0,1.1,0,1.67,0a.16.16,0,0,1,.16.17A.17.17,0,0,1,317.7,300.9Zm11.66-.31a.18.18,0,0,1-.17-.15.17.17,0,0,1,.15-.19l1.66-.18a.17.17,0,1,1,0,.34l-1.66.18Zm3.32-.36a.17.17,0,0,1-.17-.15.17.17,0,0,1,.15-.19l1.66-.18a.17.17,0,0,1,.19.15.17.17,0,0,1-.15.18l-1.66.19Zm3.32-.37a.16.16,0,0,1-.17-.15.17.17,0,0,1,.15-.18l1.66-.17a.18.18,0,0,1,.19.15.18.18,0,0,1-.15.19l-1.66.16Zm6.65-.28a.17.17,0,0,1-.17-.16.18.18,0,0,1,.17-.18,8.73,8.73,0,0,0,1.62-.2.18.18,0,0,1,.2.13.17.17,0,0,1-.13.2,8.57,8.57,0,0,1-1.68.21Zm-3.33,0a.16.16,0,0,1-.16-.16.17.17,0,0,1,.15-.18c.69,0,1.22-.07,1.61-.07H341a.17.17,0,0,1,.17.17.18.18,0,0,1-.17.17h-.07c-.39,0-.9,0-1.58.07Zm6.59-.63a.18.18,0,0,1-.16-.11.17.17,0,0,1,.1-.22c.49-.17,1-.39,1.53-.63a.17.17,0,0,1,.14.31,16.58,16.58,0,0,1-1.56.64Zm3-1.39a.17.17,0,0,1-.09-.32c.48-.26,1-.54,1.43-.85a.17.17,0,0,1,.23.06.16.16,0,0,1-.05.23c-.48.3-1,.59-1.44.86Z"/><path class="cls-22" d="M351.73,295.76a.21.21,0,0,1-.14-.07.18.18,0,0,1,0-.24c.43-.31.67-.5.67-.5a.17.17,0,0,1,.24,0,.15.15,0,0,1,0,.23s-.25.2-.68.51A.13.13,0,0,1,351.73,295.76Z"/><path class="cls-22" d="M309,304.18a.17.17,0,0,1-.14-.08,5,5,0,0,1-.7-1.59.17.17,0,1,1,.33-.07,4.76,4.76,0,0,0,.66,1.48.17.17,0,0,1-.05.23A.17.17,0,0,1,309,304.18Zm-1.26-2.84h-.06a7.45,7.45,0,0,1-1.52-.84.17.17,0,0,1,0-.23.18.18,0,0,1,.24-.05,7.18,7.18,0,0,0,1.43.8.18.18,0,0,1,.11.22A.17.17,0,0,1,307.69,301.34Z"/><path class="cls-22" d="M346.51,288.29a8.69,8.69,0,0,0-3.59,7.64c0,.43.71.43.67,0a8,8,0,0,1,3.26-7.05c.35-.26,0-.84-.34-.59Z"/><path class="cls-22" d="M346.16,288.57a10.74,10.74,0,0,0-1.58,5c0,.43.65.43.67,0a10.08,10.08,0,0,1,1.49-4.65c.23-.37-.36-.71-.58-.34Z"/><path class="cls-16" d="M356.5,281.25a49.62,49.62,0,0,0,13.85-9.67c1.95-4.65,1.63-5.46,1.52-5.26-.54.91-1.05-.66-1.05-.66l-13.65.78-26.8,22.1s-.2.89,1.18,1.39a1.83,1.83,0,0,0,.46,2c5.83-1.26,11-4.76,16.47-7.28C351.12,283.47,353.86,282.48,356.5,281.25Z"/><path class="cls-17" d="M372.25,266.48c-3.21,7.65-10.62,12.37-15.75,14.77-2.64,1.23-5.38,2.22-8,3.44-5.46,2.52-10.64,6-16.47,7.28l.11.11a4.26,4.26,0,0,1,.95,2.84,28.85,28.85,0,0,0,7.49-2.76c3.06-1.56,5.95-3.41,9-4.91,2.09-1,4.27-1.86,6.36-2.87a43.75,43.75,0,0,0,14.29-11.14C370.29,272.84,372.25,267.07,372.25,266.48Z"/><path class="cls-18" d="M356,284.38c-2.09,1-4.27,1.86-6.36,2.87-3.09,1.5-6,3.35-9,4.91a28.85,28.85,0,0,1-7.49,2.76,3,3,0,0,0,0,.58c.11.27.73,2.29,4.58.93s7.13-4.81,13.18-7,14.54-8.52,16.95-11.69S373.38,266,373.38,266s-1.15.68-1.13.45C369.54,274.88,361.44,281.72,356,284.38Z"/><path class="cls-19" d="M324.45,279.34a7.79,7.79,0,0,0,2.44,3.89c1.76,1.25-.55,1.73,3.64,5,0,0,10.76-4.87,14.92-5.24s10.42-2.79,17.23-6.7a17.23,17.23,0,0,0,6.79-8.08s4.49-1.5,5-9.1c.08-1.1-1.66-3.59-1.66-3.59s-2.54-2.74-5.35-2.16c-9.4,11.43-14.93,10.58-16.92,10.64s-11.65-.9-12.65-.82-3.84-.75-4.1,6,.07,9.54-4.66,8C326.05,276.09,325.21,274.57,324.45,279.34Z"/><path class="cls-20" d="M367.47,257c-.5,2.66-.27,2.86,1.49,4.55s1.34,3.58,2.31,4.56,2,.11,2.56-2.89,1.75-5-.75-7.43S368.37,252.19,367.47,257Z"/><path class="cls-21" d="M327,283.48l3.82.07s.32-1.73,4.15-2.71,13.8-6.12,15.3-6.68,9.7-4.3,10.9-4.62,5.33-4.26,5.33-4.26-1.7,5.25-4.65,6.77a49.83,49.83,0,0,0-9.37,6c-3.88,2.5-8.2,5.36-8.2,5.36s-4.68,0-13.95,5.16A12.26,12.26,0,0,1,327,283.48Z"/><path class="cls-21" d="M342.44,266s-3.87,3.65-3.64,4.27,2.69-1.18,3.72-2.43.63,2.52.82,3.1,1.3,1.26,1.2-1.87.1-2.88.1-2.88l3.2-2.42-2.66-.07-2.7.12Z"/><path class="cls-21" d="M348.43,266s-3.62,3.45-3.38,4.05,2.56-1.06,3.52-2.25.68,2.47.88,3.05,1.29,1.26,1.1-1.79-.36-2.53-.36-2.53l3.38-2.54-2.57-.15-2.6,0Z"/><path class="cls-21" d="M354.32,265.23s-3.46,3.3-3.23,3.88,2.45-1,3.37-2.15c0,0,.66,2.38.86,2.94s1.24,1.22,1-1.72-.56-3-.56-3l2-2.7-1,.73-2.5,0Z"/><path class="cls-22" d="M330.48,287.81a5.34,5.34,0,0,1-2.27-2.43c-.26-.5-.48-1-.73-1.52a7.07,7.07,0,0,0-1-1.41,7.78,7.78,0,0,1-2-2.94,2.66,2.66,0,0,1,.76-2.66c1.13-.85,2.64.18,3.8.48a4.57,4.57,0,0,0,3.37-.25c2.1-1.21,1.73-3.92,1.53-5.95a12.35,12.35,0,0,1,.22-4.11c.28-1.16.67-2.68,1.71-3.41a3.59,3.59,0,0,1,2.65-.38c1.13.15,2.25.37,3.38.49a73.24,73.24,0,0,0,8.64.32,16.05,16.05,0,0,0,7-1.13,19,19,0,0,0,3.12-2.15A28.49,28.49,0,0,0,363.8,258a18.9,18.9,0,0,0,1.33-1.51c.37-.47.69-1,1.09-1.43a4.78,4.78,0,0,1,3.09-1.68,1.49,1.49,0,0,1,.95.34c.32.2.72-.28.41-.53l-.23-.17-.35.59a9,9,0,0,1,3.73,4.09,7.58,7.58,0,0,1,.18,4,34.76,34.76,0,0,1-.89,4,50.92,50.92,0,0,1-2.68,7.58,17,17,0,0,1-4.14,5.78,64.31,64.31,0,0,1-5.94,4.41,58.36,58.36,0,0,1-6.93,4.13c-2.46,1.27-5,2.45-7.46,3.66-1,.49-2,.95-3,1.53s-1.64,1-2.46,1.55c-1.55,1-3.39,2.16-5.28,2.13a2.73,2.73,0,0,1-1.34-.35,1.85,1.85,0,0,1-.8-1.48,11.24,11.24,0,0,0-.2-1.53,4.07,4.07,0,0,0-.82-1.48c-.34-.47-.75-1.08-.45-1.68a.34.34,0,0,0-.2-.49,1,1,0,0,1-.71-1.4c.14-.42-.51-.59-.65-.18a1.72,1.72,0,0,0,1.18,2.23l-.2-.5a1.81,1.81,0,0,0,0,1.56,15.6,15.6,0,0,0,1,1.54c.58,1,.17,2.32.82,3.31a2.94,2.94,0,0,0,2.59,1.12,7.41,7.41,0,0,0,2.76-.74,58.18,58.18,0,0,0,5.43-3.21c1.1-.63,2.27-1.15,3.41-1.7l4-1.95a78.13,78.13,0,0,0,7.64-4.14c2.29-1.48,4.52-3.08,6.69-4.74a17.33,17.33,0,0,0,4.79-5.4,41.61,41.61,0,0,0,3.1-7.76c.44-1.41.83-2.84,1.13-4.29a14,14,0,0,0,.41-4.27,6.48,6.48,0,0,0-1.38-3.24,10.15,10.15,0,0,0-2.07-2.07c-.3-.23-.61-.44-.93-.64s-.69.34-.35.59c.05,0,.23.16.11.06l.41-.53a2.08,2.08,0,0,0-1-.43,3.14,3.14,0,0,0-1.45.23,6.39,6.39,0,0,0-2.83,2.15,26.43,26.43,0,0,1-6.19,6,10.08,10.08,0,0,1-3.34,1.75,17.19,17.19,0,0,1-3.79.49,73.25,73.25,0,0,1-8.64-.15c-1.35-.12-2.69-.3-4-.53a6.4,6.4,0,0,0-2.92,0,3.44,3.44,0,0,0-2.11,2,12.23,12.23,0,0,0-1,4.2,28.38,28.38,0,0,0,.2,3.91,4.24,4.24,0,0,1-.79,3.28,3.55,3.55,0,0,1-3.59.57c-1.24-.36-2.54-1.17-3.84-.53a2.85,2.85,0,0,0-1.44,2.36,4.22,4.22,0,0,0,1,3.05,16.61,16.61,0,0,1,2.19,3,10.45,10.45,0,0,0,1.71,2.88,5.28,5.28,0,0,0,1.4,1c.38.2.72-.38.34-.58Z"/><path class="cls-22" d="M367.56,260.26c.68,1.28,2,2.16,2.54,3.5.38.88.15,2,.7,2.82a1.15,1.15,0,0,0,1.69.14,4.5,4.5,0,0,0,1.19-2,20.81,20.81,0,0,0,1.15-4.73,7,7,0,0,0,0-2,4.24,4.24,0,0,0-1.05-2,11.89,11.89,0,0,0-1.81-1.66,4.76,4.76,0,0,0-2-1.14c-1.32-.18-2,1.38-2.38,2.38a5.84,5.84,0,0,0,0,4.67c.19.39.78.05.58-.34a5.09,5.09,0,0,1,0-3.91c.24-.67.7-2.09,1.57-2.14.66,0,1.4.64,1.89,1a13.13,13.13,0,0,1,1.69,1.56,3.42,3.42,0,0,1,.94,1.93,7.81,7.81,0,0,1-.08,1.63,20.91,20.91,0,0,1-.94,4.07,5.75,5.75,0,0,1-.93,1.91c-.24.29-.72.61-1,.14-.45-.86-.25-1.94-.69-2.82-.64-1.26-1.82-2.13-2.49-3.38C367.94,259.53,367.36,259.87,367.56,260.26Z"/><path class="cls-22" d="M330.42,288.64l5.52-2.47a33.45,33.45,0,0,1,5.56-2c3.57-.89,7.17-1.74,10.7-2.79a42.1,42.1,0,0,0,5.11-1.85c1.19-.53,2.34-1.16,3.49-1.79a21.18,21.18,0,0,0,4.95-3.56,27.59,27.59,0,0,0,5.36-8.37c.18-.39-.4-.73-.58-.34a28.37,28.37,0,0,1-4.76,7.71,19.33,19.33,0,0,1-4.88,3.74,42.31,42.31,0,0,1-8.06,3.56c-1.73.54-3.49,1-5.24,1.44s-3.54.93-5.31,1.36c-1.06.26-2.13.51-3.16.86a30.83,30.83,0,0,0-2.93,1.17c-2,.9-4.07,1.81-6.11,2.73-.39.17-.05.76.34.58Z"/><path class="cls-22" d="M334.32,286.42a6.66,6.66,0,0,1-3.06-1.58c-.93-1-.14-2.06.79-2.64a21.52,21.52,0,0,1,4.26-1.7q2.49-.9,4.93-1.91c3.21-1.32,6.38-2.74,9.53-4.2,1.58-.73,3.2-1.3,4.85-1.89a43.74,43.74,0,0,0,4.68-2,16.61,16.61,0,0,0,4.57-3,16.13,16.13,0,0,0,2.89-4.31l-.61-.08a5.36,5.36,0,0,1-1,2.93,23.47,23.47,0,0,1-1.46,2.34,19,19,0,0,1-3.93,4.12,14.08,14.08,0,0,1-2.32,1.41c-.86.4-1.75.7-2.58,1.16-1.76,1-3.32,2.32-5,3.42-2.19,1.42-4.41,2.81-6.64,4.17-.37.23,0,.81.34.58q3.14-1.91,6.22-3.9c1.8-1.16,3.46-2.54,5.32-3.61.87-.5,1.8-.81,2.7-1.24a12.8,12.8,0,0,0,2.42-1.49,19.84,19.84,0,0,0,4-4.12,23.22,23.22,0,0,0,1.69-2.72,5.56,5.56,0,0,0,1-3.23c0-.28-.5-.32-.62-.08a12.56,12.56,0,0,1-7,6.92c-3.23,1.61-6.71,2.56-10,4.08s-6.71,3-10.13,4.42c-1.68.68-3.38,1.33-5.09,1.93a11.65,11.65,0,0,0-3.85,1.77,2.18,2.18,0,0,0-.46,3.18,7.14,7.14,0,0,0,3.46,1.86.34.34,0,0,0,.18-.65Z"/><path class="cls-22" d="M330.35,282.72l-3.73,0a.34.34,0,0,0,0,.68l3.73,0a.34.34,0,0,0,0-.68Z"/><path class="cls-22" d="M344.76,263.47a27.61,27.61,0,0,0-3.37,2.55,20.94,20.94,0,0,0-3,3.09.83.83,0,0,0,.24,1.25,1.26,1.26,0,0,0,1.42-.27c.55-.44,1-1,1.55-1.43s1.15-1,1.74-1.46a43.7,43.7,0,0,1,4.14-2.88c.37-.23,0-.82-.34-.59a42.13,42.13,0,0,0-3.92,2.72c-1.23.95-2.33,2-3.5,3a1.22,1.22,0,0,1-.47.3c-.29.06-.45-.05-.27-.34a7.39,7.39,0,0,1,.79-.89c.5-.54,1-1.07,1.56-1.57a27.55,27.55,0,0,1,3.78-2.94c.36-.24,0-.82-.34-.58Z"/><path class="cls-22" d="M342.47,265.42a6.52,6.52,0,0,1,.23-2.07.34.34,0,1,0-.65-.18,7.11,7.11,0,0,0-.25,2.25.34.34,0,0,0,.33.34.34.34,0,0,0,.34-.34Z"/><path class="cls-22" d="M342.64,267.35a10.41,10.41,0,0,0,.81,4,.34.34,0,0,0,.32.25,1.27,1.27,0,0,0,1-.63,2.37,2.37,0,0,0,.25-1.36c-.05-1.09-.11-2.17-.17-3.26,0-.43-.7-.43-.67,0l.14,2.69a5.35,5.35,0,0,1,0,1.2c-.05.28-.22.65-.55.68l.33.25a9.9,9.9,0,0,1-.78-3.83.34.34,0,0,0-.68,0Z"/><path class="cls-22" d="M351.14,263.33a27.77,27.77,0,0,0-3.52,2.69c-.58.52-1.14,1.05-1.68,1.61-.24.24-.47.48-.69.73a3.1,3.1,0,0,0-.61.79.85.85,0,0,0,.92,1.08c.61,0,1.07-.64,1.49-1,1-.95,2.1-1.84,3.19-2.7a35.55,35.55,0,0,1,3.85-2.71.34.34,0,0,0-.34-.58,42.76,42.76,0,0,0-5.81,4.3c-.43.37-.87.75-1.29,1.14l-.53.5c-.13.12-.83.68-.8.22,0-.22.38-.51.53-.67s.43-.47.66-.7c.48-.49,1-1,1.49-1.42a27.51,27.51,0,0,1,3.48-2.68c.37-.23,0-.81-.34-.58Z"/><path class="cls-22" d="M348.35,265.77a6,6,0,0,1,0-.95,1.8,1.8,0,0,1,0-.22,1.62,1.62,0,0,1,0-.2,3.73,3.73,0,0,1,.09-.46.34.34,0,0,0-.24-.42.33.33,0,0,0-.41.24,6.2,6.2,0,0,0-.16,2,.34.34,0,1,0,.67,0Z"/><path class="cls-22" d="M348.49,267.52a10,10,0,0,0,.87,3.69.33.33,0,0,0,.29.16,1.1,1.1,0,0,0,.92-.58,2.11,2.11,0,0,0,.17-1.24c-.08-.95-.16-1.91-.25-2.87,0-.43-.71-.43-.67,0l.2,2.37a4.59,4.59,0,0,1,.05,1.11c0,.22-.15.52-.42.54l.3.16a8.78,8.78,0,0,1-.78-3.34c0-.43-.7-.44-.68,0Z"/><path class="cls-22" d="M356.32,262.71a16.18,16.18,0,0,0-3.11,2.91c-.48.57-.95,1.14-1.42,1.72l-.63.75a1.07,1.07,0,0,0-.36.8.85.85,0,0,0,1.28.5,5.11,5.11,0,0,0,1.34-1.24c.88-1,1.68-2.06,2.52-3.09a13.81,13.81,0,0,1,3-3c.37-.24,0-.82-.34-.58-1.87,1.2-3.19,3.16-4.56,4.87-.35.43-.7.86-1.07,1.28a5,5,0,0,1-1.14,1.12c-.06,0-.35.17-.36,0s.19-.25.24-.32l.63-.75c.4-.49.8-1,1.22-1.47a15.76,15.76,0,0,1,3.09-3c.36-.24,0-.83-.34-.58Z"/><path class="cls-22" d="M354.68,264.67a2.28,2.28,0,0,1,0-.37.76.76,0,0,1,0-.15v-.09s0,.09,0,0a5.53,5.53,0,0,1,.17-.64.34.34,0,0,0-.65-.18,4,4,0,0,0-.17.66,4.53,4.53,0,0,0,0,.74.34.34,0,0,0,.34.33.34.34,0,0,0,.34-.33Z"/><path class="cls-22" d="M354.14,266.35a9.64,9.64,0,0,0,1,3.7.34.34,0,0,0,.41.24,1.31,1.31,0,0,0,1-1,4.29,4.29,0,0,0,0-1.43c-.11-.9-.36-1.79-.38-2.69a.34.34,0,0,0-.68,0,17.49,17.49,0,0,0,.34,2.38c.09.56.39,2-.45,2.12l.42.23a9.1,9.1,0,0,1-.95-3.52.34.34,0,0,0-.68,0Z"/><path class="cls-22" d="M335,286.23H335s-.35-.13-.79-.35a.17.17,0,1,1,.15-.3c.43.21.76.33.76.33a.17.17,0,0,1-.06.33Z"/><path class="cls-22" d="M332.8,285a.15.15,0,0,1-.11,0,1.66,1.66,0,0,1-.75-1.2.79.79,0,0,1,.05-.3.31.31,0,0,1,.06-.13.17.17,0,0,1,.23-.07.17.17,0,0,1,.06.23l0,.08a.65.65,0,0,0,0,.19,1.4,1.4,0,0,0,.63.94.17.17,0,0,1,0,.24A.16.16,0,0,1,332.8,285Zm.73-2.42a.16.16,0,0,1-.15-.09.18.18,0,0,1,.07-.23c.43-.21.95-.44,1.56-.68a.17.17,0,0,1,.13.32,14.92,14.92,0,0,0-1.53.67Zm3.13-1.25a.16.16,0,0,1-.16-.11.17.17,0,0,1,.1-.21l1.61-.53a.16.16,0,0,1,.21.11.16.16,0,0,1-.11.21l-1.6.53Zm3.21-1a.17.17,0,0,1-.16-.12.16.16,0,0,1,.11-.21l1.18-.36.44-.12a.17.17,0,0,1,.1.32l-.44.13-1.18.35Zm3.21-1a.17.17,0,0,1-.16-.11.18.18,0,0,1,.1-.22c.44-.17,1-.39,1.55-.65a.17.17,0,0,1,.22.09.16.16,0,0,1-.09.22q-.88.39-1.56.66Zm3.09-1.34a.17.17,0,0,1-.07-.33l1.53-.7a.17.17,0,1,1,.15.3c-.53.25-1,.49-1.54.71Zm3.06-1.43a.16.16,0,0,1-.15-.09.17.17,0,0,1,.08-.23l1.52-.72a.18.18,0,0,1,.23.08.18.18,0,0,1-.08.23l-1.53.72Zm3-1.44a.16.16,0,0,1-.15-.1.16.16,0,0,1,.08-.22l1.52-.72a.17.17,0,1,1,.15.31l-1.53.71Zm3.06-1.42a.18.18,0,0,1-.16-.1.17.17,0,0,1,.09-.22l1.55-.68a.17.17,0,0,1,.22.1.16.16,0,0,1-.09.22c-.42.17-.92.39-1.54.67Zm3.15-1.18a.17.17,0,0,1-.16-.13.16.16,0,0,1,.12-.2,7,7,0,0,0,1.54-.58.16.16,0,0,1,.22.07.17.17,0,0,1-.07.23,7.64,7.64,0,0,1-1.61.61Zm3-1.49a.18.18,0,0,1-.14-.06.17.17,0,0,1,0-.24c.42-.31.85-.67,1.28-1.06a.16.16,0,0,1,.24,0,.16.16,0,0,1,0,.23,15.42,15.42,0,0,1-1.31,1.09A.19.19,0,0,1,361.49,271Zm2.48-2.26a.16.16,0,0,1-.11-.05.16.16,0,0,1,0-.24c.36-.4.73-.82,1.09-1.27a.17.17,0,1,1,.26.22c-.36.45-.73.88-1.1,1.28A.18.18,0,0,1,364,268.74Z"/><path class="cls-22" d="M366.06,266.15a.19.19,0,0,1-.1,0,.19.19,0,0,1,0-.24c.31-.42.47-.69.47-.69a.18.18,0,0,1,.24-.05.16.16,0,0,1,.05.23s-.18.28-.48.71A.17.17,0,0,1,366.06,266.15Z"/><path class="cls-22" d="M331,286.85a.12.12,0,0,1-.09,0,5.14,5.14,0,0,1-1.25-1.2.17.17,0,0,1,0-.24.17.17,0,0,1,.23,0,4.69,4.69,0,0,0,1.17,1.13.16.16,0,0,1,0,.23A.16.16,0,0,1,331,286.85Zm-2.26-2.32a7.48,7.48,0,0,1-1.59-.28.16.16,0,0,1-.11-.21.17.17,0,0,1,.21-.12,6.05,6.05,0,0,0,1.6.27.17.17,0,0,1,.18.15.17.17,0,0,1-.15.19Z"/><path class="cls-22" d="M359.19,261.1a8.17,8.17,0,0,0-.79,7.9c.17.4.75.06.58-.34a7.49,7.49,0,0,1,.79-7.21c.25-.36-.34-.7-.58-.35Z"/><path class="cls-22" d="M359,261.39a10.11,10.11,0,0,0,.12,4.92.34.34,0,0,0,.65-.18,9.51,9.51,0,0,1-.12-4.56c.1-.42-.55-.6-.65-.18Z"/><polygon class="cls-9" points="107.29 232.26 205.47 336.56 213.58 334.86 215.27 327.61 123.29 236.54 107.29 232.26"/><polygon class="cls-10" points="123.9 232.88 215.27 327.61 208.98 328.94 115.8 233.44 123.9 232.88"/><path class="cls-11" d="M205.76,338a1.17,1.17,0,0,1-.86-.37L107.34,234.93a1.18,1.18,0,1,1,1.71-1.63l97.06,102.19,6.14-1.86,2-5.84L113.15,224.14a1.18,1.18,0,0,1,1.7-1.65L216.44,326.66a1.18,1.18,0,0,1,.27,1.21L214.29,335a1.18,1.18,0,0,1-.77.75L206.1,338A1.33,1.33,0,0,1,205.76,338Z"/><path class="cls-11" d="M208.66,330.6a1.19,1.19,0,0,1-.85-.35l-97.72-100a1.18,1.18,0,1,1,1.69-1.65L209,328.09l6.26-1.74a1.18,1.18,0,1,1,.64,2.28L209,330.56A1.22,1.22,0,0,1,208.66,330.6Z"/><path class="cls-11" d="M205.75,338a1.09,1.09,0,0,1-.43-.08,1.18,1.18,0,0,1-.66-1.54l3.06-7.74a1.18,1.18,0,0,1,2.2.87l-3.06,7.74A1.19,1.19,0,0,1,205.75,338Z"/><polyline class="cls-9" points="62.72 265.9 208.77 257.58 208.66 267.65 60.75 277.51 62.72 265.9"/><polygon class="cls-10" points="208.77 257.58 208.66 261.74 61.18 270.94 62.86 265.7 208.77 257.58"/><path class="cls-11" d="M61.15,278.44a1.19,1.19,0,0,1-.07-2.37l146.68-9-.57-8.3L63.4,267.05a1.18,1.18,0,0,1-.13-2.36l145-8.32a1.18,1.18,0,0,1,1.25,1.1l.73,10.65a1.16,1.16,0,0,1-.29.86,1.17,1.17,0,0,1-.82.4L61.22,278.43Z"/><path class="cls-11" d="M62.1,272.06A1.18,1.18,0,0,1,62,269.7l146.12-9.25a1.19,1.19,0,0,1,1.26,1.11,1.18,1.18,0,0,1-1.11,1.25L62.17,272.06Z"/><path class="cls-23" d="M168.38,131.66s8.66-5.32,13.31-5.23,5,3.33,6,8.27,2,15,2,15l.8,3.68S180.08,137.11,168.38,131.66Z"/><path class="cls-5" d="M190.47,154.65l-2-.09c.34-8.34-.24-15.46-1.68-20.59-1.22-4.35-3-6.89-4.81-7-3.55-.17-11.35,4.09-14.06,5.74L166.84,131c.42-.25,10.33-6.25,15.21-6C187.81,125.23,191.19,137.16,190.47,154.65Z"/><path class="cls-24" d="M72.19,126s-32.55,49.41,9.72,93.73c48.19,50.54,97.82,32.47,108.71,16.45"/><path class="cls-5" d="M149.46,253.92a77.88,77.88,0,0,1-29.17-5.87c-13.73-5.51-26.89-14.81-39.12-27.64-9.76-10.23-16.37-21.6-19.67-33.79A74,74,0,0,1,60,156a84.41,84.41,0,0,1,10.9-30.67l1.71,1.1a84.06,84.06,0,0,0-10.62,30,72,72,0,0,0,1.52,29.72C66.68,198,73.13,209,82.64,219c12,12.61,25,21.75,38.4,27.16a74.49,74.49,0,0,0,34.12,5.49c17.34-1.44,29.89-9.11,34.62-16.07l1.68,1.14c-5,7.36-18.12,15.46-36.14,17Q152.4,253.92,149.46,253.92Z"/><ellipse class="cls-25" cx="135.5" cy="176.58" rx="58.75" ry="83.22" transform="translate(-84.38 142.01) rotate(-43.56)"/><ellipse class="cls-26" cx="136.12" cy="175.99" rx="52.47" ry="75.42" transform="translate(-83.8 142.28) rotate(-43.56)"/><ellipse class="cls-27" cx="136.12" cy="175.99" rx="46.77" ry="67.24" transform="translate(-83.8 142.28) rotate(-43.56)"/><path class="cls-28" d="M156.34,142.81,158.6,160a7.82,7.82,0,0,1-.17,3,5.91,5.91,0,0,1-1.3,2.45,5.45,5.45,0,0,1-2.22,1.49,6.29,6.29,0,0,1-2.82.31H152a8.67,8.67,0,0,1-3.5-1.21,11,11,0,0,1-3-2.65l-3.51-4.5a7,7,0,0,0-2.49,5.6,11.36,11.36,0,0,0,2.5,6.83l26.61,34.16c3.21,4.12,3.44,9.59.33,12.24a6.13,6.13,0,0,1-2.73,1.33,7.71,7.71,0,0,1-3.27-.07,9.9,9.9,0,0,1-3.29-1.45,12.1,12.1,0,0,1-2.8-2.6l-26.74-34.34a36.2,36.2,0,0,1-5.48-9.85,30.66,30.66,0,0,1-1.91-10.47,23.33,23.33,0,0,1,2-9.51,18.45,18.45,0,0,1,5.51-7.09L142,134.41c3.5-2.72,8.39-1.49,11.88,3A11.92,11.92,0,0,1,156.34,142.81Z"/><path class="cls-29" d="M103.29,164.51l-9.09,7.08c-3.23,2.52-3.24,7.92,0,12.07l.18.22c3.22,4.14,8.46,5.45,11.7,2.93l9.09-7.08c3.23-2.52,3.24-7.92,0-12.06l-.18-.23C111.77,163.3,106.53,162,103.29,164.51Z"/><path class="cls-30" d="M60.17,158.12S39.89,164,32.38,170.61s-1.22,10.49,8.3,15.74A125.47,125.47,0,0,0,61.46,195l11.37,3.06L66.17,182.6l-12.62-6.7,6.35-3A49.6,49.6,0,0,1,60.17,158.12Z"/><path class="cls-5" d="M72.83,199.09a1,1,0,0,1-.24,0c-1.32-.31-32.57-7.75-43-18.74a5.87,5.87,0,0,1-1.75-5.87c1.14-4.11,7.06-8.38,17.61-12.71a149.74,149.74,0,0,1,15.23-5.24l1.49-.41-.22,1.53c0,.1-1.4,10.17-.85,14.24l.1.74-8.75,4.1a1,1,0,1,1-.86-1.84L59,171.39a76.9,76.9,0,0,1,.74-12.51c-2.54.75-8,2.46-13.55,4.74-12.36,5.08-15.75,9-16.41,11.37A3.94,3.94,0,0,0,31,178.92c10.05,10.55,41.72,18.09,42,18.17a1,1,0,0,1-.23,2Z"/><path class="cls-5" d="M66.47,183.75a1,1,0,0,1-.44-.1l-20.78-10a1,1,0,1,1,.87-1.83l20.79,10a1,1,0,0,1-.44,1.92Z"/></svg>