<svg id="Capa_2" data-name="Capa 2" xmlns="http://www.w3.org/2000/svg" xmlns:xlink="http://www.w3.org/1999/xlink" viewBox="0 0 400 400"><defs><style>.cls-1{fill:none;}.cls-2{fill:#686868;}.cls-3{fill:url(#Degradado_sin_nombre_12);}.cls-4{fill:#313b47;}.cls-5{fill:url(#Degradado_sin_nombre_12-2);}.cls-6{fill:#26313d;}.cls-7{fill:url(#Degradado_sin_nombre_12-3);}.cls-8{fill:#939286;}.cls-9{fill:#e5e4c8;}.cls-10{fill:#fff;}.cls-11{fill:#999698;}.cls-12{fill:#575756;}.cls-13{fill:#d9d7da;}.cls-14{fill:#27273d;}.cls-15{fill:url(#Degradado_sin_nombre_49);}.cls-16{opacity:0.93;fill:url(#Nueva_muestra_de_degradado_2);}.cls-17{fill:url(#Degradado_sin_nombre_49-2);}.cls-18{fill:url(#Degradado_sin_nombre_38);}.cls-19{fill:url(#Degradado_sin_nombre_12-4);}.cls-20{fill:url(#Degradado_sin_nombre_11);}.cls-21{fill:#ed1b4d;}.cls-22{fill:#c61245;}.cls-23{fill:url(#Degradado_sin_nombre_12-5);}.cls-24{fill:#b2c9ea;}.cls-25{fill:#dff2f9;}.cls-26{fill:#91a8ce;}.cls-27{fill:#3c3c3b;}</style><linearGradient id="Degradado_sin_nombre_12" x1="141.31" y1="9.79" x2="173.97" y2="9.79" gradientTransform="matrix(-0.64, -0.77, -0.77, 0.64, 239.72, 304.96)" gradientUnits="userSpaceOnUse"><stop offset="0.08" stop-color="#797d86"/><stop offset="0.47" stop-color="#a8abb0"/><stop offset="0.82" stop-color="#cbcccf"/><stop offset="1" stop-color="#d8d9db"/></linearGradient><linearGradient id="Degradado_sin_nombre_12-2" x1="253.36" y1="262.83" x2="327.2" y2="262.83" gradientTransform="matrix(1, 0, 0, 1, 0, 0)" xlink:href="#Degradado_sin_nombre_12"/><linearGradient id="Degradado_sin_nombre_12-3" x1="-324" y1="93.58" x2="-283.12" y2="93.58" gradientTransform="translate(492.76 212.98) rotate(8.38)" xlink:href="#Degradado_sin_nombre_12"/><linearGradient id="Degradado_sin_nombre_49" x1="823.86" y1="-38.29" x2="823.86" y2="588.1" gradientTransform="translate(-609.04 -357.34)" gradientUnits="userSpaceOnUse"><stop offset="0" stop-color="#fff"/><stop offset="0.14" stop-color="#c9cbce"/><stop offset="0.31" stop-color="#92969c"/><stop offset="0.47" stop-color="#656a73"/><stop offset="0.62" stop-color="#424853"/><stop offset="0.77" stop-color="#29303c"/><stop offset="0.9" stop-color="#19212e"/><stop offset="1" stop-color="#141c29"/></linearGradient><linearGradient id="Nueva_muestra_de_degradado_2" x1="141.51" y1="187.78" x2="286.57" y2="98.55" gradientTransform="translate(33.85 -41.05) rotate(11.84)" gradientUnits="userSpaceOnUse"><stop offset="0" stop-color="#e340a1"/><stop offset="0.49" stop-color="#664ad6"/><stop offset="0.99" stop-color="#14b2f5"/></linearGradient><linearGradient id="Degradado_sin_nombre_49-2" x1="823.88" y1="46.32" x2="823.88" y2="574.27" gradientTransform="translate(-609.04 -357.35)" xlink:href="#Degradado_sin_nombre_49"/><linearGradient id="Degradado_sin_nombre_38" x1="775.81" y1="577.28" x2="811.02" y2="521.58" gradientTransform="matrix(0.98, -0.21, 0.21, 0.98, -694.11, -177.62)" gradientUnits="userSpaceOnUse"><stop offset="0.34" stop-color="#1c222b" stop-opacity="0.7"/><stop offset="0.92" stop-color="#152745" stop-opacity="0"/></linearGradient><linearGradient id="Degradado_sin_nombre_12-4" x1="862.5" y1="5324.96" x2="811.39" y2="5376.13" gradientTransform="matrix(0.98, -0.21, -0.21, -0.98, 505.95, 5545.54)" xlink:href="#Degradado_sin_nombre_12"/><linearGradient id="Degradado_sin_nombre_11" x1="822.56" y1="5355.32" x2="768.27" y2="5394.08" gradientTransform="matrix(0.98, -0.21, -0.21, -0.98, 505.95, 5545.54)" gradientUnits="userSpaceOnUse"><stop offset="0" stop-color="#797d86"/><stop offset="0.09" stop-color="#95999f"/><stop offset="0.2" stop-color="#aeb0b5"/><stop offset="0.32" stop-color="#c1c2c6"/><stop offset="0.47" stop-color="#cecfd2"/><stop offset="0.65" stop-color="#d6d7d9"/><stop offset="1" stop-color="#d8d9db"/></linearGradient><linearGradient id="Degradado_sin_nombre_12-5" x1="110.88" y1="205.94" x2="167.63" y2="205.94" gradientTransform="matrix(1, 0, 0, 1, 0, 0)" xlink:href="#Degradado_sin_nombre_12"/></defs><title>i</title><path class="cls-1" d="M119.07,217.24a2.39,2.39,0,0,1-1.53-.94A9,9,0,0,1,119.07,217.24Z"/><path class="cls-2" d="M144.3,154.36a4.62,4.62,0,0,1,1.62.66,6.15,6.15,0,0,1,2.21,2.78,4.91,4.91,0,0,0-.86-.08,8.05,8.05,0,0,0-5.76,2.82,24,24,0,0,0-3.49,5.57L114.53,212.6c-.52,1-1,2.28-.45,3.27.29.49.8.81,1.12,1.28a4,4,0,0,1,.52,1.78c.17,1.32.33,2.64.5,4l-4.75,3.17c-2.39-2.34-3.15-6-2.77-9.28,0-.31.09-.62.14-.93a36.83,36.83,0,0,1,3-8.56l5.08-11.47c5.66-12.78,11.4-25.69,19.79-36.87C138.56,156.44,141.23,153.77,144.3,154.36Z"/><path class="cls-3" d="M115.72,218.93c.17,1.32.33,2.64.5,4l5.29-3.54a195.91,195.91,0,0,0,26-52.57,16.64,16.64,0,0,0,1.13-7.14,7.4,7.4,0,0,0-.51-1.84,4.91,4.91,0,0,0-.86-.08,8.05,8.05,0,0,0-5.76,2.82,24,24,0,0,0-3.49,5.57L114.53,212.6c-.52,1-1.94,3.92-1.36,4.91.29.49-.32-.47,0,0S115.64,218.31,115.72,218.93Z"/><path class="cls-4" d="M111.47,227.08a1,1,0,0,1-.71-.29c-2.38-2.33-3.52-6.11-3.07-10.12a34.08,34.08,0,0,1,3.19-9.79L116,195.41c5.61-12.65,11.41-25.74,19.91-37.07,2.93-3.9,5.75-5.53,8.62-5,3.06.58,4.81,3.59,5.15,6.13a17.41,17.41,0,0,1-1.16,7.59,197,197,0,0,1-26.13,52.84,1,1,0,0,1-1.67-1.16,194.81,194.81,0,0,0,25.87-52.3,15.78,15.78,0,0,0,1.08-6.7c-.25-1.91-1.54-4-3.52-4.41s-4.2,1-6.62,4.2c-8.36,11.14-14.11,24.12-19.67,36.67l-5.09,11.47c-1.3,3-2.66,6-3,9.2-.39,3.39.53,6.54,2.47,8.44a1,1,0,0,1,0,1.43A1,1,0,0,1,111.47,227.08Z"/><path class="cls-5" d="M253.36,209.24s13.12,57.33,15.61,62.88,7.85,13.6,20.11,23.18,30.84,24.52,30.84,24.52l7.28-9.39-46.93-40.22-15.52-64.37Z"/><path class="cls-2" d="M259.2,208.33l16.09,64.75,47.51,42.53-2.88,4.21s-24.9-19.35-34.09-27.59a156.71,156.71,0,0,1-16.37-17.46c-1.07-1.12-16.1-65.53-16.1-65.53Z"/><path class="cls-4" d="M318.29,319.58c-1.86-1.38-45.64-33.85-49.78-44.44-4.06-10.38-15.65-63.43-16.14-65.68l-.21-.92,13.33-4,15.69,65.09,45,39.45-1.34,1.52-45.45-39.86-.08-.32L264,207.12l-9.47,2.82c1.59,7.25,12.13,55,15.85,64.46,3.93,10.05,48.64,43.22,49.09,43.55Z"/><path class="cls-6" d="M200.2,48.07l56.61,182.47s54.88-28.74,58.33-82.47S276.92,41.47,200.2,48.07Z"/><path class="cls-4" d="M259,228.06l-.67-1.56c5.87-2.52,13.18-7.44,20.05-13.49a111.43,111.43,0,0,0,21.73-25.9,88.37,88.37,0,0,0,12.52-36.41c1.56-14.83-.94-30-7.45-45.22-6.78-15.83-16.43-28.66-28.68-38.14a91.65,91.65,0,0,0-34.12-16.28,110.35,110.35,0,0,0-40.64-2.39L201.46,47a112.13,112.13,0,0,1,41.28,2.4A93.28,93.28,0,0,1,277.52,66c12.49,9.66,22.32,22.73,29.23,38.84,6.62,15.44,9.16,30.94,7.57,46.06A90.07,90.07,0,0,1,301.57,188C289.44,208.16,271,222.9,259,228.06Z"/><path class="cls-7" d="M206.7,195.34c-2-1.68-5.25-1.21-7.38.37s-3.45,4-4.69,6.35q-4.78,9.13-9.29,18.41-10.71,22.1-19.7,45-4.5,11.43-8.55,23c-1.17,3.35-2.65,9.25-3.64,12.61,0,0-2.93,15-3.6,18.49s-1.37,7.35-1.37,7.35l12.83,2.62,2.93-18.89c1.72-4.79,2.54-9.79,4.08-14.63a521.61,521.61,0,0,1,37.84-89.13C208.15,203.18,209.94,198,206.7,195.34Z"/><path class="cls-2" d="M199.74,201.71S160,281.53,154.66,330.27c0,0,5.51,1.43,6.07-1.72,2.75-15.72,10.3-42.34,21.25-70.35a492.21,492.21,0,0,1,24.22-52.06Z"/><path class="cls-4" d="M161.52,329.13l-2-.36c1.65-9.13,6.69-29.5,7.71-32.71a524.49,524.49,0,0,1,38-89.68c1.52-2.82,3.65-7.91.79-10.25-1.72-1.42-4.45-.86-6.14.4-1.87,1.38-3,3.45-4.39,6-2.42,4.61-4.82,9.31-7.13,14-7.21,14.6-14,29.67-20,44.78-3,7.55-6,15.26-8.71,22.93-1.67,4.67-9.46,30.61-9.39,42.33h-2c-.07-12.79,8.37-39.84,9.51-43,2.76-7.69,5.7-15.43,8.74-23,6.09-15.16,12.85-30.27,20.09-44.92,2.32-4.68,4.73-9.4,7.16-14,1.15-2.19,2.58-4.92,5-6.69s6.08-2.43,8.63-.34c3,2.42,2.84,7-.3,12.78a521.83,521.83,0,0,0-37.88,89.33C168.18,299.77,163.11,320.28,161.52,329.13Z"/><path class="cls-8" d="M140.23,344.39a58.35,58.35,0,0,1-19.82,1.78,5.9,5.9,0,0,1-.63-.85,20.18,20.18,0,0,1-1-2.29l9.64-11.5,40.89-.37s.85.64,0,2.15a2.14,2.14,0,0,1,1.13,2.18c-6.22,3.29-13.54,4.06-20.37,5.93C146.76,342.32,143.53,343.5,140.23,344.39Z"/><path class="cls-9" d="M120.41,346.17a58.35,58.35,0,0,0,19.82-1.78c3.3-.89,6.53-2.07,9.83-3,6.83-1.87,14.15-2.64,20.37-5.93a1.21,1.21,0,0,0,0,.19,4.93,4.93,0,0,0,1.29,3.28,34.18,34.18,0,0,1-8.85,3.19c-3.94.91-8,1.43-11.87,2.42-2.66.68-5.26,1.56-7.92,2.23a51.39,51.39,0,0,1-21.31.79C121.42,347.26,120.87,346.7,120.41,346.17Z"/><path class="cls-10" d="M143.07,346.8c2.66-.67,5.26-1.55,7.92-2.23,3.91-1,7.93-1.51,11.87-2.42a34.18,34.18,0,0,0,8.85-3.19,4.07,4.07,0,0,1,.39.55c.1.33,1.07,2.62-3.43,4.32s-10.07,1.06-17.22,3.64-19.56,3.33-24.12,2.3-5.26-1.87-5.26-1.87l-.31-.31A51.39,51.39,0,0,0,143.07,346.8Z"/><path class="cls-11" d="M167.72,318.37s1.38,2.9.73,5.36,1.81,1.15.47,7.24c0,0-13.4,3.76-17.43,6.59s-15.07,3.49-21.32,5.51a16.53,16.53,0,0,1-11.53-.63s-1-4.13-4.54-4.54-3.78.21-3.78.21.29-2.59,6.69-5.13a80.12,80.12,0,0,0,15.53-8.68c1.84-1.46,9.83-9.64,10.79-10.33s3.49-3.3,8.26,2.32c4.4,5.18,6,8.6,9.87,4.14C163.55,318,163.79,314.83,167.72,318.37Z"/><path class="cls-12" d="M115,338.11c3,1.16,3,1.51,3.6,4.33s2.75,3.57,3.12,5.15-1.12,2-4.49.76-6.12-1.39-6.94-5.38S109.66,336,115,338.11Z"/><path class="cls-13" d="M169.33,331.16c-12.27,2.38-16.5,5.91-16.5,5.91s-6.06.7-11.46,1.39-20.74,1.66-20.74,1.66,5.16-2.09,6.49-2.72,11.55-3.46,13.33-4.1,14.68-3.54,18.87-5.57,5.78-.7,5.78-.7l3.41-3C169.94,328.49,169.33,331.16,169.33,331.16Z"/><path class="cls-13" d="M141.37,319.94s6.25.36,6.51,1.08-3.31,1-5.2.64,1.34,2.75,1.61,3.42-.22,2.12-2.49-.78-2.27-2.52-2.27-2.52l-4.72.24,2.35-2.08,2.53-1.94Z"/><path class="cls-13" d="M136,324.53s5.87.36,6.11,1.09-3.11,1-4.88.63,1.26,2.75,1.51,3.42-.21,2.12-2.34-.78-1.59-2.55-1.59-2.55l-5,.27,2.2-2.08,2.39-1.94Z"/><path class="cls-13" d="M130.1,328.29s5.61.35,5.84,1-3,1-4.66.61,1.19,2.65,1.44,3.3-.2,2-2.24-.75-2-2.43-2-2.43l-4.24.23,2.1-2,2.28-1.87Z"/><path class="cls-14" d="M169.24,331.06a7.07,7.07,0,0,0,.17-4.5,19.29,19.29,0,0,1-.56-2.39,25.62,25.62,0,0,1,0-2.63,5.4,5.4,0,0,0-1.34-4,3.2,3.2,0,0,0-3.35-.93c-1.3.5-1.82,1.85-2.5,2.94a4.7,4.7,0,0,1-3.3,2.49c-2.7.22-4.11-3-5.47-4.79a14.19,14.19,0,0,0-3.13-3,7.68,7.68,0,0,0-3.82-1.69c-2.39-.11-3.81,2.27-5.22,3.82A63.31,63.31,0,0,1,125,328.83a60.67,60.67,0,0,1-8.53,4c-2.13.8-4.38,1.61-5.71,3.59A7.88,7.88,0,0,0,110,338c-.15.41.51.58.66.18a6.19,6.19,0,0,1,2-2.8,11.73,11.73,0,0,1,2.92-1.51c1.19-.46,2.39-.89,3.56-1.39q2.17-.93,4.28-2a64,64,0,0,0,15.44-11.18c1.07-1.05,2.12-2.13,3.08-3.28a10.3,10.3,0,0,1,2.34-2.32,3.31,3.31,0,0,1,3.37.07,13.82,13.82,0,0,1,3.55,2.57,23,23,0,0,1,2.46,3.19,9.26,9.26,0,0,0,2.4,2.59,3.74,3.74,0,0,0,3.36.39,6.09,6.09,0,0,0,2.83-2.6c.65-1,1.21-2.6,2.62-2.77a3.14,3.14,0,0,1,3,2.1c.61,1.56.19,3.31.36,4.93s.83,2.92.86,4.45a5.54,5.54,0,0,1-.45,2.27c-.16.4.49.57.65.17Z"/><path class="cls-14" d="M117.58,340.66c.78,1.4.9,3.06,1.69,4.46.52.94,1.49,1.48,2.18,2.28.21.24.38.5.2.81a.82.82,0,0,1-.59.36,5.59,5.59,0,0,1-2.33-.17,25.51,25.51,0,0,1-4.8-1.67,5,5,0,0,1-2.94-2.65,10.61,10.61,0,0,1-.55-2.42,9.5,9.5,0,0,1-.1-2.66c.11-.79.63-1.07,1.37-1.1a7.39,7.39,0,0,1,1.93.23,6,6,0,0,1,3.94,2.53c.22.37.81,0,.58-.34a6.36,6.36,0,0,0-3.9-2.73,5.58,5.58,0,0,0-3.65-.13,1.86,1.86,0,0,0-1,1.63,12.46,12.46,0,0,0,.15,2.86c.26,1.77.73,3.52,2.3,4.56a14.28,14.28,0,0,0,2.57,1.27,28.74,28.74,0,0,0,3,1c1.17.33,4.2,1.23,4.69-.57a1.39,1.39,0,0,0-.44-1.33c-.47-.55-1.06-1-1.58-1.48a5.18,5.18,0,0,1-1.13-2.27,14.1,14.1,0,0,0-1-2.85C118,339.94,117.37,340.28,117.58,340.66Z"/><path class="cls-14" d="M168.62,331.27a1.28,1.28,0,0,1,.39,1.87c-.14.19,0,.42.2.49,1,.42.81,1.82.92,2.67a5.11,5.11,0,0,0,1.06,2.3,2.42,2.42,0,0,1,.51,2.57,3.73,3.73,0,0,1-1.37,1.47,11.21,11.21,0,0,1-4.05,1.39c-1.49.28-3,.44-4.5.65a47.59,47.59,0,0,0-5.14,1.13c-2.26.57-4.5,1.15-6.76,1.69a80.69,80.69,0,0,1-13.27,2.25,37.62,37.62,0,0,1-14.54-1.59c-.42-.14-.6.52-.18.65,8.91,3,18.51,1.62,27.45-.48,2.34-.56,4.67-1.16,7-1.75a51.75,51.75,0,0,1,5.62-1.25c1.58-.22,3.16-.38,4.72-.69a10.75,10.75,0,0,0,4.21-1.57,4.18,4.18,0,0,0,1.54-1.89,3,3,0,0,0-.56-2.77,12,12,0,0,1-.78-1.22,4.4,4.4,0,0,1-.35-1.86,2.48,2.48,0,0,0-1.35-2.35l.21.5a2,2,0,0,0-.64-2.8.34.34,0,0,0-.34.59Z"/><path class="cls-14" d="M169.06,330.83l-5.15,1.47c-1.61.46-3.25.89-4.83,1.45-3.17,1.12-6.06,2.9-9.2,4.09a72.43,72.43,0,0,1-9.48,2.76c-3.31.76-6.64,1.5-10,2.09a28.47,28.47,0,0,1-11.52,0,.34.34,0,0,0-.18.66,27.34,27.34,0,0,0,10.12.26c3.41-.48,6.78-1.27,10.14-2a87.07,87.07,0,0,0,9.69-2.61c1.55-.54,3.08-1.15,4.57-1.84s3-1.54,4.61-2.21a47.67,47.67,0,0,1,5.61-1.82l5.79-1.65a.34.34,0,0,0-.18-.65Z"/><path class="cls-14" d="M164.69,332.87c1.24-1.77,3.1-5.88-.28-6.56a7.79,7.79,0,0,0-4.24.74c-1.8.7-3.63,1.33-5.46,1.91-7.37,2.36-14.94,4-22.32,6.29a81.19,81.19,0,0,0-11.93,4.65.34.34,0,0,0,.17.63q12.57-.64,25.06-2.26,3.48-.45,6.95-1c.43-.07.25-.72-.18-.66q-12.35,1.88-24.81,2.79-3.51.25-7,.43l.17.63c6.59-3.25,13.7-5.24,20.77-7.13,3.51-.93,7-1.84,10.5-2.87q2.69-.8,5.32-1.69c1.55-.54,3.08-1.26,4.67-1.67,1.2-.3,3.46-.49,3.62,1.26a4.59,4.59,0,0,1-.47,2.15,10,10,0,0,1-1.11,2c-.25.36.34.7.59.34Z"/><path class="cls-14" d="M165.34,326.75l3.35-2.78a.34.34,0,0,0-.48-.48l-3.34,2.79a.32.32,0,0,0,0,.47.33.33,0,0,0,.47,0Z"/><path class="cls-14" d="M137.63,320.52a32.61,32.61,0,0,1,8.88.12,3.26,3.26,0,0,1,.88.16c.43.19-.08.56-.31.62a3,3,0,0,1-.9,0l-1.16-.07c-1.49-.06-3-.05-4.47,0a47.86,47.86,0,0,0-4.93.5c-.43.06-.25.71.18.65a49.35,49.35,0,0,1,10.38-.43,2.11,2.11,0,0,0,1.74-.39,1,1,0,0,0,.05-1.34,1.43,1.43,0,0,0-.79-.3l-1.23-.19c-.84-.11-1.68-.19-2.52-.23a32.1,32.1,0,0,0-5.8.2c-.43,0-.43.73,0,.67Z"/><path class="cls-14" d="M141.66,319.41a8.75,8.75,0,0,0-2-1.88.34.34,0,0,0-.46.13.35.35,0,0,0,.12.46,2.48,2.48,0,0,1,.26.19l0,0c.09.07,0,0,0,0l.13.1.47.41.42.44a2.57,2.57,0,0,1,.21.24l.09.11.05.06s0,0,0,0a.34.34,0,0,0,.46.12.33.33,0,0,0,.12-.46Z"/><path class="cls-14" d="M141.82,322.18a11.29,11.29,0,0,1,2.14,3.94l.16-.38c-.79.55-1.54-.62-1.93-1.14L140.25,322a.35.35,0,0,0-.46-.12.34.34,0,0,0-.12.46c.74,1,1.49,2,2.24,3a3.05,3.05,0,0,0,1.14,1.06,1.47,1.47,0,0,0,1.41-.08.34.34,0,0,0,.15-.38,12.1,12.1,0,0,0-2.31-4.24c-.28-.33-.75.15-.48.48Z"/><path class="cls-14" d="M131.92,325.17a30.9,30.9,0,0,1,4.51-.22,30.52,30.52,0,0,1,4.58.36c.27,0,.93.17.48.53s-.86.11-1.22.09q-1,0-1.92-.06c-1.48,0-3,0-4.43.07a37.29,37.29,0,0,0-4.6.44c-.43.07-.25.72.18.65a49.72,49.72,0,0,1,9.68-.47,8.49,8.49,0,0,0,2.25,0c.63-.16,1.17-.9.75-1.51a1.16,1.16,0,0,0-.88-.4l-1.23-.18c-.86-.1-1.73-.16-2.6-.2a32.29,32.29,0,0,0-5.73.22c-.43.06-.25.71.18.65Z"/><path class="cls-14" d="M136.67,324.13A7.31,7.31,0,0,0,135,322.4a.34.34,0,1,0-.34.58l.11.09s0,0,0,0l.05.05.21.18a4.61,4.61,0,0,1,.4.37,4.48,4.48,0,0,1,.36.4l.09.11,0,0s.06.08,0,0,.12.15.17.23a.35.35,0,0,0,.46.12.33.33,0,0,0,.12-.46Z"/><path class="cls-14" d="M136.73,326.71a10.42,10.42,0,0,1,1.8,3.6l.16-.38c-.66.5-1.28-.59-1.58-1l-1.66-2.38a.34.34,0,0,0-.59.34l1.91,2.73a2.82,2.82,0,0,0,.95,1,1.28,1.28,0,0,0,1.31-.05.35.35,0,0,0,.15-.38,11.21,11.21,0,0,0-2-3.91.32.32,0,0,0-.47,0,.34.34,0,0,0,0,.48Z"/><path class="cls-14" d="M125.32,329.26a41.47,41.47,0,0,1,8.91.05l.93.13c.17,0,.5,0,.41.26s-.56.19-.73.19c-.66,0-1.31-.08-2-.1-1.54-.05-3.09-.06-4.63,0s-3.23.12-4.83.33c-.43.06-.43.74,0,.68a58.37,58.37,0,0,1,10-.3,4.94,4.94,0,0,0,2.36-.07.83.83,0,0,0,0-1.54,5.15,5.15,0,0,0-1-.17c-.4-.05-.81-.1-1.21-.13-.85-.08-1.7-.12-2.56-.15a40.84,40.84,0,0,0-5.64.16c-.43.05-.43.72,0,.68Z"/><path class="cls-14" d="M130.59,328.2a7.52,7.52,0,0,0-1.66-1.47.34.34,0,0,0-.34.59c.15.09.29.2.43.3l0,0h0l.11.09.2.17a7.36,7.36,0,0,1,.72.76.34.34,0,1,0,.48-.48Z"/><path class="cls-14" d="M130.71,330.56a9,9,0,0,1,1.85,3.13l.16-.38c-.65.42-1.28-.51-1.62-.92l-1.71-2.11a.34.34,0,0,0-.48,0,.33.33,0,0,0,0,.47c.64.8,1.29,1.6,1.94,2.39a2.56,2.56,0,0,0,1,.81,1.34,1.34,0,0,0,1.26-.06.33.33,0,0,0,.15-.38,9.85,9.85,0,0,0-2-3.43c-.29-.32-.77.16-.48.48Z"/><path class="cls-14" d="M163.19,332.84a.11.11,0,0,1-.08,0,.18.18,0,0,1-.07-.23,8.11,8.11,0,0,0,.38-.74.17.17,0,0,1,.22-.08.16.16,0,0,1,.08.22,8.34,8.34,0,0,1-.38.77A.18.18,0,0,1,163.19,332.84Z"/><path class="cls-14" d="M123.4,339.78a.17.17,0,0,1-.05-.33L125,339a.18.18,0,0,1,.21.12.19.19,0,0,1-.13.21l-1.59.41Zm3.18-.82a.17.17,0,0,1-.16-.13.18.18,0,0,1,.12-.21l1.59-.42a.17.17,0,0,1,.09.33l-1.59.42Zm3.19-.85a.17.17,0,0,1-.17-.13.16.16,0,0,1,.12-.2l1.59-.45a.17.17,0,0,1,.09.33l-1.59.44Zm3.17-.91a.17.17,0,0,1-.17-.13.16.16,0,0,1,.12-.2l1.61-.4a.17.17,0,0,1,.2.13.16.16,0,0,1-.12.2l-1.6.4Zm3.2-.77a.16.16,0,0,1-.16-.14.16.16,0,0,1,.12-.2l1.61-.37a.16.16,0,0,1,.2.12.17.17,0,0,1-.13.2l-1.6.38Zm3.21-.76a.17.17,0,0,1,0-.33l1.6-.38a.17.17,0,0,1,.21.12.18.18,0,0,1-.13.21l-1.6.38Zm3.2-.76a.17.17,0,0,1-.16-.13.18.18,0,0,1,.12-.21c.54-.12,1.07-.26,1.6-.39a.18.18,0,0,1,.21.13.16.16,0,0,1-.12.2l-1.61.39Zm3.2-.8a.17.17,0,0,1-.16-.12.17.17,0,0,1,.12-.21l1.59-.41a.17.17,0,0,1,.21.12.16.16,0,0,1-.12.2l-1.6.42Zm3.18-.85a.17.17,0,0,1-.16-.12.17.17,0,0,1,.12-.21l1.57-.47a.16.16,0,0,1,.21.11.16.16,0,0,1-.11.21c-.46.15-1,.31-1.58.47Zm3.14-1a.18.18,0,0,1-.16-.1.17.17,0,0,1,.1-.22l.28-.12,1.23-.53a.16.16,0,0,1,.22.09.17.17,0,0,1-.09.22l-1.23.53-.29.12Zm3-1.3a.16.16,0,0,1-.16-.1.16.16,0,0,1,.09-.22l1.52-.64a.17.17,0,0,1,.13.32l-1.52.63Zm9.06-.39h0a.18.18,0,0,1-.12-.21,3.93,3.93,0,0,0,.17-1,1.75,1.75,0,0,0-.07-.49.16.16,0,1,1,.31-.11,1.61,1.61,0,0,1,.1.6,4.17,4.17,0,0,1-.18,1.12A.17.17,0,0,1,164.16,330.55Zm-6-.85a.16.16,0,0,1-.15-.11.16.16,0,0,1,.09-.22l1.55-.57a.18.18,0,0,1,.22.11.16.16,0,0,1-.11.21c-.46.16-1,.35-1.54.57Zm3.12-1.06a.18.18,0,0,1-.17-.13.16.16,0,0,1,.12-.2,9.93,9.93,0,0,1,1.65-.33.17.17,0,0,1,0,.34,9.17,9.17,0,0,0-1.58.31Z"/><path class="cls-14" d="M121,340.38a.17.17,0,0,1-.16-.12.17.17,0,0,1,.12-.21l.82-.21a.17.17,0,0,1,.2.13.16.16,0,0,1-.12.2l-.82.21Z"/><path class="cls-14" d="M166.78,331.7h-.07a.17.17,0,0,1-.09-.22l.18-.46a.17.17,0,0,1,.21-.11.18.18,0,0,1,.11.22l-.19.48A.16.16,0,0,1,166.78,331.7Zm.6-2.1h0a.18.18,0,0,1-.14-.19,4.84,4.84,0,0,0,0-.74,4.17,4.17,0,0,0-.09-.88.17.17,0,0,1,.13-.2.16.16,0,0,1,.2.12,4.28,4.28,0,0,1,.1,1,7.11,7.11,0,0,1,0,.78A.18.18,0,0,1,167.38,329.6Zm.22-3a.18.18,0,0,1-.12-.05.16.16,0,0,1,0-.24,9.34,9.34,0,0,0,1-1.28.18.18,0,0,1,.24-.05.17.17,0,0,1,0,.23,8.45,8.45,0,0,1-1.09,1.34A.21.21,0,0,1,167.6,326.56Z"/><path class="cls-8" d="M316.66,340.78A58.08,58.08,0,0,1,301,352.68c-5.86.49-6.64-.15-6.38-.21,1.2-.27-.36-1.39-.36-1.39L300,336.21l34.13-21.78s1.05.09,1.11,1.81a2.12,2.12,0,0,1,2.09,1.24c-3.49,6-9.23,10.5-14,15.65C321.06,335.62,319,338.3,316.66,340.78Z"/><path class="cls-9" d="M294.63,353c9.63-.82,17.53-7.35,22-12.18,2.31-2.48,4.4-5.16,6.69-7.65,4.75-5.15,10.49-9.64,14-15.65a.83.83,0,0,1,.09.16,4.92,4.92,0,0,0,2.81,2.07,33.53,33.53,0,0,1-5.75,7.32c-2.83,2.83-5.92,5.37-8.69,8.26-1.88,2-3.59,4.06-5.47,6a51.09,51.09,0,0,1-17.48,11.86C302.38,353.06,295.28,353.16,294.63,353Z"/><path class="cls-10" d="M320.32,341.31c1.88-2,3.59-4.06,5.47-6,2.77-2.89,5.86-5.43,8.69-8.26a33.53,33.53,0,0,0,5.75-7.32,2.76,2.76,0,0,1,.62.26c.26.21,2.28,1.63-.6,5.41s-7.9,6.17-12.55,12.09-14.67,13.06-19,14.59-14.94,2-14.94,2,1.16-1,.9-1.08C304.91,353,315.41,346.43,320.32,341.31Z"/><path class="cls-11" d="M326.05,304.56a9,9,0,0,1,3.43,4.1c.75,2.4,2.12,0,4.21,5.83,0,0-9.27,10.18-11.17,14.66s-6.83,10.55-13.61,16.69a20,20,0,0,1-11.4,4.64s-3.28,4.44-11.89,2.3c-1.25-.31-3.39-3.13-3.39-3.13s-2.13-3.8-.47-6.71c16-6.32,17.09-12.76,17.87-14.94s3.18-13.24,3.63-14.32.68-5,8.15-2.39c7.09,2.45,10.25,2.94,10.5-2.31C322.09,305.17,320.48,303.69,326.05,304.56Z"/><path class="cls-12" d="M285.85,344.25c3.14.4,3.27.73,4.51,3.3s3.5,2.76,4.24,4.19-.59,2.21-4.14,1.8-6.21.13-8-3.49S280.18,343.53,285.85,344.25Z"/><path class="cls-13" d="M334.13,314.43c-9.05,8.43-10.74,13.61-10.74,13.61s-4.72,3.76-8.89,7.18a57.57,57.57,0,0,0-10,8.25c-2.75,2.72-9.17,2.72-9.17,2.72s5.85-3.15,6.63-4.38,7.87-9,9-10.43,10.46-10.67,12.91-14.57,4.49-3.63,4.49-3.63l1.3-4.26C333.24,311.86,334.13,314.43,334.13,314.43Z"/><path class="cls-13" d="M304.75,319.71s5.44-3,6-2.51-2.27,2.56-4,3.26,2.57,1.6,3.15,2,.92,1.89-2.51.65-3.22-.92-3.22-.92l-3.84,2.69.87-3,1.11-2.95Z"/><path class="cls-13" d="M302.66,326.37s5.12-2.78,5.7-2.3-2.1,2.46-3.76,3.1,2.5,1.64,3.06,2.07.94,1.88-2.37.57-2.68-1.3-2.68-1.3l-4,2.84.76-2.9,1-2.87Z"/><path class="cls-13" d="M299.68,332.62s4.9-2.65,5.46-2.19-2,2.36-3.59,3c0,0,2.4,1.59,2.94,2s.91,1.81-2.27.54-3.18-1.71-3.18-1.71l-3.69,1.21,1.16-.83.93-2.76Z"/><path class="cls-14" d="M334,314.11a6.69,6.69,0,0,0-1.87-3.53c-.5-.52-1-1-1.56-1.49a8.27,8.27,0,0,1-1.31-1.74,8.87,8.87,0,0,0-2.64-3.24,4,4,0,0,0-3.5-.39,3.17,3.17,0,0,0-1.72,3.29,8.28,8.28,0,0,1-.52,4.16c-1.79,3.43-5.93.68-8.41-.18a14.24,14.24,0,0,0-5.05-.79,5.39,5.39,0,0,0-3.62,1.07,4.84,4.84,0,0,0-1.32,2.68c-.26,1.21-.37,2.45-.61,3.67a82.93,82.93,0,0,1-2.75,9.93c-.86,2.62-1.8,5.5-3.81,7.48a16.54,16.54,0,0,1-1.86,1.48c-.67.49-1.36,1-2.06,1.43a30.18,30.18,0,0,1-4.46,2.45,23.9,23.9,0,0,0-4.08,1.7,5.49,5.49,0,0,0-2.44,3,1.43,1.43,0,0,0,0,.65c0,.15.08.31.12.46s0,.22,0,.06l.67-.09c0-.08-.05-.16-.07-.23a.34.34,0,0,0-.65.18,9.51,9.51,0,0,0,.91,2.52,10.77,10.77,0,0,0,2.36,3.31,8.17,8.17,0,0,0,4,1.78,36.39,36.39,0,0,0,5.1.6,58.89,58.89,0,0,0,10.2-.23,22.94,22.94,0,0,0,4.79-1,18.76,18.76,0,0,0,3.77-1.83c1.25-.78,2.43-1.67,3.62-2.54s2.67-1.94,4-3a73.75,73.75,0,0,0,7.4-6.74c2.39-2.42,4.7-4.91,7.07-7.34,1.65-1.69,3.6-3,5.33-4.65,1.54-1.44,3.37-3.4,3.17-5.69-.13-1.38-1.08-2-2.25-2.53a4.88,4.88,0,0,1-1.62-.94c-.5-.51-.8-1.18-1.33-1.66a2.11,2.11,0,0,0-1.78-.58l.43.33a2,2,0,0,0-2-2c-.43,0-.43.69,0,.67a1.28,1.28,0,0,1,1.34,1.37c0,.24.23.35.43.32.8-.12,1.36.61,1.76,1.18a4.85,4.85,0,0,0,1.27,1.36c.9.58,2.32.75,2.87,1.77a3.44,3.44,0,0,1-.4,3.19,12,12,0,0,1-2.14,2.57c-1.6,1.53-3.44,2.8-5,4.34-2.25,2.18-4.34,4.52-6.51,6.76a85.21,85.21,0,0,1-6.88,6.56c-2.38,2-4.89,3.8-7.42,5.58a25.42,25.42,0,0,1-3.42,2.09,17.15,17.15,0,0,1-4.13,1.38,46.27,46.27,0,0,1-9.62.68c-1.64,0-3.28-.08-4.91-.24a18.37,18.37,0,0,1-4.71-.92,6.81,6.81,0,0,1-3.13-2.58,11.07,11.07,0,0,1-1.47-2.86c-.12-.39-.26-.8-.34-1.2l-.65.18.06.23a.34.34,0,0,0,.67-.09,2,2,0,0,0-.08-.35,1.16,1.16,0,0,1,0-.84,3.83,3.83,0,0,1,1-1.56,7.36,7.36,0,0,1,1.69-1.24,13.09,13.09,0,0,1,2-.73,33.16,33.16,0,0,0,8.44-4.81,11.28,11.28,0,0,0,2.81-2.83,19.26,19.26,0,0,0,1.81-3.67c.49-1.27.89-2.56,1.32-3.85.52-1.61,1-3.22,1.46-4.87a50.79,50.79,0,0,0,1.09-5,22.76,22.76,0,0,1,.57-3.16,3.15,3.15,0,0,1,1.87-2.12,6.9,6.9,0,0,1,2.22-.32,13.13,13.13,0,0,1,2.58.18,20.77,20.77,0,0,1,4.73,1.6,7.35,7.35,0,0,0,4.21.8,3.82,3.82,0,0,0,2.77-2.5,10.44,10.44,0,0,0,.36-4,3,3,0,0,1,.62-2.15,2.27,2.27,0,0,1,1.58-.64,4,4,0,0,1,3.31,1.8,30,30,0,0,0,2.34,3.43,17.67,17.67,0,0,1,2.73,2.94,5.68,5.68,0,0,1,.7,2c.07.42.73.24.65-.18Z"/><path class="cls-14" d="M288.88,346c1.06,1.1,1.6,2.57,2.61,3.71a12.72,12.72,0,0,0,2.82,1.79c.27.18.53.38.45.74a.78.78,0,0,1-.43.48,4.94,4.94,0,0,1-2.25.46,25.4,25.4,0,0,1-5.08-.36,5.28,5.28,0,0,1-3.42-1.57,9,9,0,0,1-1.22-2.16,12.46,12.46,0,0,1-.85-2.52,1.46,1.46,0,0,1,.15-1.27,1.69,1.69,0,0,1,.72-.42,6.45,6.45,0,0,1,1.89-.31,6.08,6.08,0,0,1,4.61,1.43c.31.3.79-.17.48-.48a6.47,6.47,0,0,0-4.65-1.63c-1.12,0-2.61,0-3.47.88a2.1,2.1,0,0,0-.37,2,15.44,15.44,0,0,0,1,2.75,8.86,8.86,0,0,0,1.4,2.3,4.42,4.42,0,0,0,2.19,1.29,22.62,22.62,0,0,0,5.79.71c1.2,0,4.27.06,4.24-1.79a1.53,1.53,0,0,0-.88-1.22c-.61-.38-1.28-.64-1.9-1a5.7,5.7,0,0,1-1.66-2,13.25,13.25,0,0,0-1.65-2.35A.34.34,0,0,0,288.88,346Z"/><path class="cls-14" d="M333.71,314l-4.81,5.33a38.53,38.53,0,0,0-4.08,5.28c-2.27,3.6-4.46,7.25-6.85,10.77a48.78,48.78,0,0,1-3.78,4.93c-1,1.17-2.15,2.25-3.28,3.32a25,25,0,0,1-5.57,4.17,31.4,31.4,0,0,1-11.11,2.95c-.42,0-.43.72,0,.67a34.4,34.4,0,0,0,10.35-2.51,22.8,22.8,0,0,0,6-4,49.68,49.68,0,0,0,6.71-7.34c1.27-1.74,2.43-3.55,3.58-5.37s2.31-3.59,3.43-5.41c.65-1.06,1.29-2.13,2-3.15a31.27,31.27,0,0,1,2.45-3.06c1.8-2,3.63-4,5.45-6,.29-.32-.19-.8-.48-.48Z"/><path class="cls-14" d="M331.08,318.07c.11-2.11-.39-6.44-3.53-5.5-1.66.5-2.75,2.1-3.74,3.41q-1.92,2.55-4,5c-2.65,3.21-5.39,6.35-8.23,9.39a48.77,48.77,0,0,0-3.95,4.55,57.27,57.27,0,0,1-3.88,4.77,24,24,0,0,1-5,4.45,16.81,16.81,0,0,1-6.31,2,.34.34,0,0,0-.08.62,5.62,5.62,0,0,0,3.35.16,25.49,25.49,0,0,0,3.23-.71,23.9,23.9,0,0,0,6.15-2.69,18.21,18.21,0,0,0,2.62-2c.81-.76,1.45-1.67,2.23-2.47a54.29,54.29,0,0,1,5.7-4.54c2.56-2,5.05-4.14,7.52-6.27.33-.28-.15-.76-.48-.48q-3.23,2.77-6.51,5.46c-1.85,1.51-3.87,2.81-5.67,4.38a23,23,0,0,0-2.25,2.38,14.21,14.21,0,0,1-2.35,2.17,21.52,21.52,0,0,1-5.85,3,26.54,26.54,0,0,1-3.5.93c-.59.11-1.18.21-1.78.28a3.65,3.65,0,0,1-2.07-.2l-.08.62a19.55,19.55,0,0,0,5.42-1.48,16.63,16.63,0,0,0,4.47-3.35,50.33,50.33,0,0,0,3.92-4.34c1.2-1.5,2.29-3.09,3.57-4.53s2.64-2.84,3.94-4.29,2.71-3,4.05-4.6,2.65-3.12,3.92-4.72c.63-.78,1.24-1.56,1.85-2.36s1.13-1.56,1.77-2.28c.93-1,3-2.66,4.09-.9a7.51,7.51,0,0,1,.73,4.16c0,.43.66.43.68,0Z"/><path class="cls-14" d="M328.38,312.53l1.36-4.14c.13-.41-.52-.59-.65-.18l-1.36,4.14c-.14.42.52.6.65.18Z"/><path class="cls-14" d="M301.65,321.91a32.86,32.86,0,0,1,7.32-4.47A3.36,3.36,0,0,1,310,317c.41,0,.22.49,0,.67a3.2,3.2,0,0,1-.82.53l-1,.56q-1.89,1.08-3.69,2.33a48.29,48.29,0,0,0-3.94,3.06c-.33.28.15.76.48.47a48.92,48.92,0,0,1,8.5-5.84c.56-.3,1.26-.66,1.35-1.36a.94.94,0,0,0-.76-1.11,2.16,2.16,0,0,0-1,.3l-1.13.5c-.76.36-1.51.74-2.25,1.16a33.32,33.32,0,0,0-4.59,3.15c-.34.27.14.75.47.47Z"/><path class="cls-14" d="M304.35,318.85a8.4,8.4,0,0,0-2.58-.52.34.34,0,0,0-.33.34.33.33,0,0,0,.33.33,7.84,7.84,0,0,1,2.4.5.34.34,0,0,0,.42-.23.35.35,0,0,0-.24-.42Z"/><path class="cls-14" d="M306,321.13a11.29,11.29,0,0,1,3.91,2.2l-.05-.41c-.4.93-1.69.28-2.33,0l-3-1.15c-.41-.15-.59.5-.18.66l3.5,1.34c.84.32,2.14.49,2.58-.55a.35.35,0,0,0-.05-.41,12.44,12.44,0,0,0-4.21-2.37c-.41-.14-.59.52-.18.65Z"/><path class="cls-14" d="M299.21,328.94a31.51,31.51,0,0,1,7.82-4.73,1.15,1.15,0,0,1,.49-.17c.18,0,.23.19.18.36-.1.34-.61.53-.89.69-.56.3-1.11.62-1.66,1-1.3.78-2.57,1.61-3.81,2.47a40,40,0,0,0-3.67,2.81c-.32.29.16.77.48.48a50.35,50.35,0,0,1,8.05-5.6,7.68,7.68,0,0,0,1.86-1.14,1.05,1.05,0,0,0-.11-1.61,1.08,1.08,0,0,0-1,.08l-1.08.47c-.78.37-1.55.78-2.3,1.21a31.92,31.92,0,0,0-4.8,3.26c-.34.27.14.75.47.47Z"/><path class="cls-14" d="M302.63,325.5a7.38,7.38,0,0,0-2.28-.54.34.34,0,0,0-.33.34.36.36,0,0,0,.33.34,6.79,6.79,0,0,1,2.1.51.34.34,0,0,0,.42-.24.35.35,0,0,0-.24-.41Z"/><path class="cls-14" d="M304.1,327.68a10.54,10.54,0,0,1,3.45,2.09l-.09-.33c-.11.28-.48.34-.74.3a4.72,4.72,0,0,1-1.21-.43L303,328.23a.34.34,0,1,0-.34.58l3.18,1.34a2.41,2.41,0,0,0,1.39.25,1.22,1.22,0,0,0,.93-.78.31.31,0,0,0-.08-.33,11.53,11.53,0,0,0-3.75-2.27c-.41-.14-.59.51-.18.66Z"/><path class="cls-14" d="M296.66,334.47a17.53,17.53,0,0,1,4-2.2c.73-.31,1.46-.59,2.19-.88l1-.4.42-.17c.16-.06.48-.27.48,0,0,.48-1.17.87-1.54,1-.58.27-1.18.5-1.77.73-1.29.5-2.59,1-3.86,1.49a14.27,14.27,0,0,0-3.56,2c-.34.27.14.75.47.47a14.79,14.79,0,0,1,3.85-2c1.41-.57,2.86-1.07,4.27-1.65a16,16,0,0,0,1.83-.85c.55-.3,1.2-.83.92-1.54s-1.2-.35-1.75-.12l-2.37.93a20.63,20.63,0,0,0-5,2.69c-.35.26.13.74.47.48Z"/><path class="cls-14" d="M299.13,332.11a5.75,5.75,0,0,0-.74-.21,6.11,6.11,0,0,0-.86,0,.33.33,0,0,0-.34.33.34.34,0,0,0,.34.34H298l.17,0h.09a4.25,4.25,0,0,1,.72.2.34.34,0,0,0,.42-.23.35.35,0,0,0-.24-.42Z"/><path class="cls-14" d="M300.77,333.52a10.78,10.78,0,0,1,3.51,2.28l0-.41c-.44.91-2,.05-2.57-.26a21.1,21.1,0,0,0-2.53-1.23c-.41-.14-.58.51-.18.65a30.08,30.08,0,0,1,2.85,1.4c.88.41,2.45,1,3-.22a.35.35,0,0,0-.05-.41,11.68,11.68,0,0,0-3.81-2.45.34.34,0,0,0-.18.65Z"/><path class="cls-14" d="M329.71,318.85a.17.17,0,0,1-.17-.16s0-.35-.08-.83a.17.17,0,0,1,.15-.19.18.18,0,0,1,.19.15c.06.49.07.84.07.85a.16.16,0,0,1-.16.18Z"/><path class="cls-14" d="M297.73,345.59a.16.16,0,0,1-.16-.11.17.17,0,0,1,.1-.22c.54-.19,1.07-.41,1.57-.62a.16.16,0,0,1,.22.08.17.17,0,0,1-.09.23q-.76.33-1.59.63Zm3.12-1.35a.19.19,0,0,1-.15-.09.17.17,0,0,1,.07-.23c.52-.27,1-.54,1.47-.83a.18.18,0,0,1,.24.06.17.17,0,0,1-.06.23c-.46.29-1,.57-1.49.84Zm2.88-1.8a.15.15,0,0,1-.13-.07.16.16,0,0,1,0-.23,10.64,10.64,0,0,0,1.25-1.12.16.16,0,0,1,.24,0,.15.15,0,0,1,0,.23,10.31,10.31,0,0,1-1.28,1.15A.15.15,0,0,1,303.73,342.44ZM306,340a.11.11,0,0,1-.08,0,.17.17,0,0,1-.06-.23l.18-.32a8,8,0,0,1,.8-1.1.17.17,0,1,1,.26.22,6.73,6.73,0,0,0-.76,1l-.19.34A.18.18,0,0,1,306,340Zm2.09-2.69a.15.15,0,0,1-.11,0,.17.17,0,0,1,0-.24l1.15-1.26a.16.16,0,0,1,.24,0,.16.16,0,0,1,0,.23l-1.14,1.26A.18.18,0,0,1,308.13,337.28Zm2.31-2.51a.17.17,0,0,1-.12,0,.17.17,0,0,1,0-.24l1.17-1.25a.17.17,0,0,1,.25.24l-1.17,1.24A.18.18,0,0,1,310.44,334.77Zm2.33-2.48a.16.16,0,0,1-.11-.05.16.16,0,0,1,0-.24l1.17-1.24a.16.16,0,0,1,.24,0,.16.16,0,0,1,0,.23l-1.16,1.25A.21.21,0,0,1,312.77,332.29Zm2.33-2.49a.15.15,0,0,1-.11,0,.17.17,0,0,1,0-.24c.4-.42.78-.84,1.16-1.25a.17.17,0,1,1,.25.23l-1.16,1.25A.17.17,0,0,1,315.1,329.8Zm2.31-2.51a.15.15,0,0,1-.11,0,.17.17,0,0,1,0-.24l1.13-1.28a.17.17,0,0,1,.24,0,.16.16,0,0,1,0,.23c-.34.41-.72.84-1.13,1.29A.18.18,0,0,1,317.41,327.29Zm2.21-2.59a.14.14,0,0,1-.1,0,.15.15,0,0,1,0-.23c.2-.26.37-.49.51-.7l.47-.68a.17.17,0,0,1,.24,0,.15.15,0,0,1,0,.23l-.47.68c-.14.21-.32.45-.52.72A.2.2,0,0,1,319.62,324.7Zm2-2.79a.19.19,0,0,1-.1,0,.17.17,0,0,1,0-.23l1-1.4a.17.17,0,0,1,.28.19c-.34.47-.66.94-1,1.4A.16.16,0,0,1,321.58,321.91Zm2-2.77a.13.13,0,0,1-.1,0,.16.16,0,0,1,0-.23c.38-.51.72-.95,1-1.36a.17.17,0,1,1,.26.21c-.32.4-.65.85-1,1.35A.17.17,0,0,1,323.56,319.14Zm2.12-2.66a.17.17,0,0,1-.12-.28,10.46,10.46,0,0,1,1.23-1.21.17.17,0,1,1,.22.26,9.78,9.78,0,0,0-1.2,1.17A.16.16,0,0,1,325.68,316.48Zm3.61-.14a.16.16,0,0,1-.16-.12,2.4,2.4,0,0,0-.79-1.34.17.17,0,0,1,.18-.28,2.67,2.67,0,0,1,.93,1.52.16.16,0,0,1-.11.21Z"/><path class="cls-14" d="M295.35,346.35a.17.17,0,0,1-.17-.12.18.18,0,0,1,.13-.21l.8-.23a.16.16,0,0,1,.21.11.16.16,0,0,1-.11.21c-.51.16-.82.24-.82.24Z"/><path class="cls-14" d="M332.14,316a.17.17,0,0,1-.17-.14c0-.17-.06-.34-.1-.49a.18.18,0,0,1,.13-.21.17.17,0,0,1,.2.13c0,.16.07.33.1.51a.17.17,0,0,1-.13.2Zm-.61-2.11a.18.18,0,0,1-.16-.1,4.29,4.29,0,0,0-.89-1.35.16.16,0,0,1,0-.24.18.18,0,0,1,.24,0,5,5,0,0,1,1,1.45.18.18,0,0,1-.08.23Zm-1.43-2.69h0a.18.18,0,0,1-.12-.21,9.42,9.42,0,0,0,.21-1.64.17.17,0,1,1,.33,0,9.12,9.12,0,0,1-.21,1.72A.17.17,0,0,1,330.1,311.18Z"/><path class="cls-14" d="M293.53,337.25a8.78,8.78,0,0,1,8.34,1.75c.32.28.8-.2.47-.48a9.49,9.49,0,0,0-9-1.93c-.41.13-.24.79.18.66Z"/><path class="cls-14" d="M293.73,337.15a11,11,0,0,1,5,1.79c.37.24.71-.35.34-.58a11.66,11.66,0,0,0-5.38-1.88c-.44,0-.43.63,0,.67Z"/><ellipse class="cls-15" cx="214.82" cy="142.65" rx="90.21" ry="97.38" transform="translate(-24.7 47.12) rotate(-11.84)"/><ellipse class="cls-16" cx="214.85" cy="142.67" rx="83.41" ry="90.04" transform="translate(-24.71 47.13) rotate(-11.84)"/><ellipse class="cls-17" cx="214.85" cy="142.67" rx="76.03" ry="82.08" transform="translate(-24.71 47.13) rotate(-11.84)"/><path class="cls-18" d="M298.71,167c-10.87,49-57,78-103,64.85S121.13,168.28,132,119.29a93.83,93.83,0,0,1,4.7-15.13s9.44,49.37,69.81,70.47C263.58,194.57,298.71,167,298.71,167Z"/><path class="cls-19" d="M262.64,106.5l-8.93,21a10.47,10.47,0,0,1-2.32,3.41,9.69,9.69,0,0,1-3.39,2.17,9.47,9.47,0,0,1-3.95.58,9.86,9.86,0,0,1-3.9-1.08l-.17-.09a10.93,10.93,0,0,1-3.75-3.19,11.79,11.79,0,0,1-2.06-4.61l-1.47-7a11,11,0,0,0-7.14,5.2,12.83,12.83,0,0,0-1.47,9.19l11.16,53.21c1.35,6.43-2.14,12.87-8,14.35a10.62,10.62,0,0,1-4.49.13,11.25,11.25,0,0,1-4.24-1.76,12.18,12.18,0,0,1-3.3-3.37,13,13,0,0,1-1.86-4.45l-11.21-53.5a38.82,38.82,0,0,1-.35-14.21,37,37,0,0,1,4.76-13.1,33.7,33.7,0,0,1,9.14-10A31.71,31.71,0,0,1,227.78,94l21.93-4.6c6.46-1.35,12,2.59,13.47,9.56A13.06,13.06,0,0,1,262.64,106.5Z"/><path class="cls-20" d="M178.17,104.36l-16.8,3.52c-6,1.26-9.73,7.51-8.38,14l.07.35c1.35,6.45,7.3,10.66,13.29,9.4l16.8-3.52c6-1.25,9.73-7.5,8.38-13.95l-.07-.35C190.11,107.32,184.16,103.11,178.17,104.36Z"/><path class="cls-21" d="M107.25,70.21l-.09-.11c-6.25-6.39-16.6-7.72-23.54-.92-5.52,5.4-4.84,12.5-2.3,17.28h0C76.59,83.81,69.51,83,64,88.38c-7,6.79-5.85,17.16.4,23.55a.47.47,0,0,1,.1.1c1.33,1.42,15.19,15.53,47.85,6.16h0C122.45,85.74,108.65,71.56,107.25,70.21Z"/><path class="cls-22" d="M91.52,122.75a48.74,48.74,0,0,1-15.28-2.31c-7.67-2.52-11.65-6.32-12.72-7.47l-.09-.09c-6.35-6.5-8.23-17.8-.39-25.47a15.21,15.21,0,0,1,15.78-3.5,15.21,15.21,0,0,1,3.85-15.7,16.88,16.88,0,0,1,13.07-4.86,19.09,19.09,0,0,1,12.38,5.81l.09.09h0c1.1,1.07,4.84,5.14,7.2,12.89,3.13,10.31,2.54,22.55-1.75,36.37l0,.09a1.22,1.22,0,0,1-.28.48,1.34,1.34,0,0,1-.73.43A77,77,0,0,1,91.52,122.75Zm-17.94-37a12.14,12.14,0,0,0-8.65,3.61c-6.63,6.49-5,16.1.43,21.64l.09.1,0,0c1.43,1.53,14.72,14.65,45.79,6,9.36-30.87-3.46-44.45-5-45.9l0,0-.07-.07a16.71,16.71,0,0,0-10.65-5,14.25,14.25,0,0,0-11,4.1c-5,4.93-4.36,11.33-2,15.68a1.35,1.35,0,0,1-1.85,1.82A14.72,14.72,0,0,0,73.58,85.73Z"/><path class="cls-23" d="M114,216.33s24.85-20.76,39.22-26.51,15.3-4.38,14.08.65-14.73,18.82-31.32,27.15-22.41,9.27-24.21,7.33S111.15,218.34,114,216.33Z"/><path class="cls-2" d="M113,217.12s.43,2.94,4.38,3.3,31-14.8,40.74-24,9.77-9.55,9.77-9.55-2,6-3.74,8.54-14.44,13.22-24,19.54-22.92,11.64-26.08,11.64-4.38-4.81-4.24-6.11S113,217.12,113,217.12Z"/><path class="cls-4" d="M113.51,227.38a3.86,3.86,0,0,1-2.77-.75,1,1,0,0,1,0-1.44,1,1,0,0,1,1.36-.06c.25.13,5.2,2.41,28-11.39,21.22-12.88,27.73-23.29,26.5-26-.47-1-2.62-1.12-5.61-.17-15.57,4.91-44.24,28.26-44.53,28.5a1,1,0,1,1-1.29-1.57c.08-.06,7.37-6,16.52-12.5,12.32-8.74,22-14.25,28.69-16.37,5.71-1.8,7.5,0,8.07,1.28,2.12,4.68-6.57,16-27.3,28.57C124.75,225.39,117.05,227.38,113.51,227.38Zm-1.34-2.19Zm0,0Z"/><path class="cls-24" d="M176.48,193.25c4.15-2.74,7-7,9.82-11.1l5.31-7.89a12.09,12.09,0,0,0,1.43,1.81,23.87,23.87,0,0,1-2.1,2.6,8,8,0,0,0-1.47,1.87,26.17,26.17,0,0,0-.78,3.34,4.68,4.68,0,0,1-1.35,2.09,11.71,11.71,0,0,0,5-3.36c-.41.75-.74,1.25-.74,1.25a17.15,17.15,0,0,1,1.52,4.1,28.3,28.3,0,0,1-4.37,3.9,77.7,77.7,0,0,1-10.6,6.58,25.15,25.15,0,0,1-8,2.84,10.73,10.73,0,0,1-8-1.88,10.17,10.17,0,0,1-2.58-3.17C165.37,197.24,171.59,196.47,176.48,193.25Z"/><path class="cls-25" d="M157.54,190.94c-.64-2-1.27-4.05-1.91-6.08a14.09,14.09,0,0,1-.64,4.92,1.82,1.82,0,0,1-.55.95,1.3,1.3,0,0,1-1.48-.07c-1.32-4.25-1.92-8.48-.58-10.77,2.39-4.1,3.93-5.13,3.93-5.13s2.81-5.8-1.48-12.6-7.42-11.09-6.83-12.75,3.18-4.4,9.18-1.71c3.81,1.7,6,5.5,7,8.06-.17,2.1-.84,4.14-1.09,6.24-.27,2.35.14,5,2,6.48a7.76,7.76,0,0,0,2.74,1.25,5.71,5.71,0,0,0,2.23.33,3.1,3.1,0,0,0,2.07-1.22,4.67,4.67,0,0,0,1.93-.07,21.89,21.89,0,0,0,7.54-3.2,8,8,0,0,1-6.82-1.06,2.94,2.94,0,0,1-1.09-1.18,1.39,1.39,0,0,1-.06-.19,11,11,0,0,1,8.7-2.17c3.81.6,6.12,2.13,7.46,3.83,0,.19,0,.38,0,.57a18.49,18.49,0,0,1-3.93,10.35,14,14,0,0,0,4.51-3.09c.15-.17.28-.35.42-.54a5.08,5.08,0,0,0,.81,2.17l-5.31,7.89c-2.78,4.12-5.67,8.36-9.82,11.1-4.89,3.22-11.11,4-16.88,3A28.73,28.73,0,0,1,157.54,190.94Z"/><path class="cls-26" d="M170.08,170.06a5.71,5.71,0,0,1-2.23-.33,7.76,7.76,0,0,1-2.74-1.25c-1.85-1.46-2.26-4.13-2-6.48.25-2.1.92-4.14,1.09-6.24a19.38,19.38,0,0,1,.87,2.53s2.07,8.23,4.56,9.65a12,12,0,0,1,.92-1.54c0,.08,0,.17,0,.25a3.12,3.12,0,0,0,.58,1.64,1.7,1.7,0,0,0,1,.55A3.1,3.1,0,0,1,170.08,170.06Z"/><path class="cls-26" d="M174.8,164.51a8,8,0,0,0,6.82,1.06,21.89,21.89,0,0,1-7.54,3.2c-1,.21-2.22.3-2.9-.48a3.12,3.12,0,0,1-.58-1.64c0-.08,0-.17,0-.25a14.5,14.5,0,0,1,3.09-3.26,1.39,1.39,0,0,0,.06.19A2.94,2.94,0,0,0,174.8,164.51Z"/><path class="cls-26" d="M185.87,175.72a18.49,18.49,0,0,0,3.93-10.35c0-.19,0-.38,0-.57,1.74,2.23,1.79,4.74,1.25,5.82a2.71,2.71,0,0,0-.26,1.47c-.14.19-.27.37-.42.54A14,14,0,0,1,185.87,175.72Z"/><path class="cls-26" d="M187.34,186a4.68,4.68,0,0,0,1.35-2.09,26.17,26.17,0,0,1,.78-3.34,8,8,0,0,1,1.47-1.87,23.87,23.87,0,0,0,2.1-2.6l.47.48c1.23,1.21-.18,4.31-1.14,6.06A11.71,11.71,0,0,1,187.34,186Z"/><path class="cls-26" d="M154.44,190.73a1.82,1.82,0,0,0,.55-.95,14.09,14.09,0,0,0,.64-4.92l1.91,6.08c1,3.12,2.08,6.43,4.64,8.46a10.73,10.73,0,0,0,8,1.88,25.15,25.15,0,0,0,8-2.84,77.7,77.7,0,0,0,10.6-6.58,28.3,28.3,0,0,0,4.37-3.9,5.67,5.67,0,0,1-.22,3.6c-1.41,2.77-3,6.07-13.8,10.9s-14.63-.07-14.63-.07-4.73,3.05-7.73-2.57a55,55,0,0,1-3.81-9.16A1.3,1.3,0,0,0,154.44,190.73Z"/><path class="cls-27" d="M157.73,192a.69.69,0,0,1-.63-.44,34.83,34.83,0,0,1-1.45-16.91c1.45-8.1-3.3-15.29-5.85-19.15l-.35-.54c-1.43-2.18-2.89-5.21-1.69-7.22.83-1.38,2.71-2,5.6-1.71,7.2.62,10.19,6.15,12.35,12,1.39,3.79,4,10.84,6.35,10.63,2.79-.26,7.42-2.26,8.33-3.19a.68.68,0,1,1,1,.95c-1.22,1.24-6.17,3.31-9.17,3.59-3.15.3-5.46-5.28-7.75-11.51-2-5.47-4.75-10.61-11.2-11.16-1.6-.14-3.65-.07-4.32,1s0,3.2,1.66,5.79l.35.53c2.65,4,7.59,11.51,6,20.14a34,34,0,0,0,1.39,16.19.68.68,0,0,1-.39.87A.74.74,0,0,1,157.73,192Z"/><path class="cls-27" d="M162.61,203.61a7.42,7.42,0,0,1-4.81-1.8c-4.27-3.48-6.19-11.26-6.54-16.86-.54-8.75,4.6-10.74,4.82-10.82a.68.68,0,0,1,.87.4.67.67,0,0,1-.4.86c-.19.08-4.42,1.79-3.94,9.48.53,8.52,3.58,13.89,6,15.9a6.13,6.13,0,0,0,4.88,1.42.68.68,0,0,1,.77.57.69.69,0,0,1-.58.77A8.29,8.29,0,0,1,162.61,203.61Z"/><path class="cls-27" d="M170.55,205.5c-6.81,0-11-8.25-11-8.34a.68.68,0,1,1,1.21-.6c0,.09,4.66,9.21,11.75,7.33,14.93-4,18.66-9.64,19.57-11.89,1-2.42.64-5-1-7.8a.67.67,0,0,1,1.16-.69c1.88,3.13,2.25,6.16,1.1,9-3,7.31-15.3,11.3-20.47,12.68A8.93,8.93,0,0,1,170.55,205.5Z"/><path class="cls-27" d="M188,187.63a.68.68,0,0,1-.37-1.24c.06,0,6-4,5.57-8.09s-3.15-5.09-3.27-5.13a.68.68,0,0,1-.39-.87.67.67,0,0,1,.86-.4c.15,0,3.58,1.36,4.14,6.24s-5.89,9.2-6.16,9.38A.76.76,0,0,1,188,187.63Z"/><path class="cls-27" d="M186.44,176.31a.65.65,0,0,1-.61-.39.67.67,0,0,1,.31-.9,10.06,10.06,0,0,0,2.92-2.3,6.38,6.38,0,0,0,1.27-6.63c-.83-2.44-3.83-4.18-7.63-4.43-4.1-.26-9.83,1.3-12.46,6.58a.67.67,0,0,1-.9.31.69.69,0,0,1-.31-.91c2.92-5.88,9.24-7.62,13.76-7.33s7.79,2.33,8.82,5.34c2.41,7-4.81,10.56-4.88,10.59A.65.65,0,0,1,186.44,176.31Z"/><path class="cls-1" d="M277.88,153.84a1.28,1.28,0,0,0,.58-1,1.47,1.47,0,0,0-1.18-1.3l-.14,0C275.94,152.36,277.34,152.6,277.88,153.84Z"/><path class="cls-26" d="M284,164.35c-1.84-.39-3.78-.83-5.11-2.15-1.58-1.56-1.92-3.95-2.08-6.16a1.15,1.15,0,0,0-.28-.81c-.57-.52-1.55.4-2.21,0a3.82,3.82,0,0,1,2.37-.88,3.08,3.08,0,0,0,1.24-.51c-.54-1.24-1.94-1.48-.74-2.35a4.82,4.82,0,0,0-1.73.12,17.31,17.31,0,0,0-5,1.6c-.48,2.34-1.26,6.33-1.36,7.71-.15,2,1.3,4.57,5.28,4.6s12.59,2.17,14.74,2.2a9.69,9.69,0,0,0,4.47-1.18,10.33,10.33,0,0,0-2.1-.62Z"/><path class="cls-24" d="M295.63,162.92c-.3-1.75-.53-2.78-.69-3.37-.35.16-.67.42-1,.61-1.95,1-4.28-.16-6.27-1.12-4.49-2.18-4.61-4.81-9.6-4.55a2.37,2.37,0,0,0-.17-.65,3.08,3.08,0,0,1-1.24.51,3.82,3.82,0,0,0-2.37.88c.66.4,1.64-.52,2.21,0a1.15,1.15,0,0,1,.28.81c.16,2.21.5,4.6,2.08,6.16,1.33,1.32,3.27,1.76,5.11,2.15l7.49,1.57a10.33,10.33,0,0,1,2.1.62C294.91,165.77,295.92,164.59,295.63,162.92Z"/><path class="cls-26" d="M275.17,151a35.9,35.9,0,0,0,5.74-1.67,7.31,7.31,0,0,0,2.95-1.6c-.44-.85-1.63-.91-2.59-.85-6.93.44-13.95.79-20.79-.46a33.54,33.54,0,0,1-14.32-6c1.29,4.28,4.51,8.73,9.93,9.75a83.38,83.38,0,0,0,14.68,1.27s0,.12-.07.33c.23-.06.45-.13.68-.18C272.62,151.29,273.91,151.21,275.17,151Z"/><path class="cls-24" d="M277.14,151.49l.08-.05c1.55-1.05,1.83-1.55,3.65-2l4.38-1c.74-.17,1.57-.42,1.87-1.11a1.69,1.69,0,0,0-.89-2,4.79,4.79,0,0,0-2.38-.38c-7.82.1-15.75.74-23.36-1a37.84,37.84,0,0,1-15-7.34,14.86,14.86,0,0,0,.65,3.9,33.54,33.54,0,0,0,14.32,6c6.84,1.25,13.86.9,20.79.46,1-.06,2.15,0,2.59.85a7.31,7.31,0,0,1-2.95,1.6,35.9,35.9,0,0,1-5.74,1.67c-1.26.21-2.55.29-3.79.59-.23,0-.45.12-.68.18-.06.31-.17.82-.29,1.44a17.31,17.31,0,0,1,5-1.6A4.82,4.82,0,0,1,277.14,151.49Z"/><path class="cls-1" d="M276.7,150.6c0,.06,0,.12,0,.18l.51-.23Z"/><path class="cls-25" d="M290.7,155.06a9.06,9.06,0,0,0-2.44-.85,24.7,24.7,0,0,0-11.15.07,16.48,16.48,0,0,1-.4-3.5,9.62,9.62,0,0,0-1.08.61,5.25,5.25,0,0,0-2.51,4.7A30,30,0,0,1,287.65,159c2,1,4.32,2.16,6.27,1.12.35-.19.67-.45,1-.61-.05-.21-.1-.37-.13-.48a23.52,23.52,0,0,0-2.24-2.54A9.19,9.19,0,0,0,290.7,155.06Z"/><path class="cls-25" d="M310.64,135.6c0-.18-.08-.37-.13-.55C310.56,135.24,310.6,135.42,310.64,135.6Z"/><path class="cls-24" d="M312,154.52c-.85.35-2,.55-2.56-.16a2.07,2.07,0,0,1-.35-1.38,20.89,20.89,0,0,1,1.22-5.24,24.24,24.24,0,0,0,.3-12.14,12,12,0,0,1-.47,5.21c-.61,2.45-1.34,4.88-2.17,7.27a18.72,18.72,0,0,1-3.24,6.29,7.37,7.37,0,0,1-6.26,2.76,10.81,10.81,0,0,1-2.75-.85,2.71,2.71,0,0,1-1.69-1.3,2.91,2.91,0,0,1,.54-2.29,23.72,23.72,0,0,0,1.42-19.1,32.14,32.14,0,0,1-1.48,8.89,10.87,10.87,0,0,1-5.83,6.56,16,16,0,0,1-4.46.85l-7,.66-.51.23a16.48,16.48,0,0,0,.4,3.5,24.7,24.7,0,0,1,11.15-.07,9.06,9.06,0,0,1,2.44.85,9.19,9.19,0,0,1,1.87,1.47,23.52,23.52,0,0,1,2.24,2.54c-.06-.19-.09-.26-.09-.26s4.63,1.13,7,.39,5.49.47,8.06-.13a12.59,12.59,0,0,0,7-4.3,37.78,37.78,0,0,0,4.1-8.78,25,25,0,0,1-1.65,2.58A17,17,0,0,1,312,154.52Z"/><path class="cls-25" d="M322.5,134.88c-1.62-4.95-13.09-26.75-43.33-12.78L273,127.61s-16-.87-18.56-1-8.91,4.6-8.93,9.63v.32a37.84,37.84,0,0,0,15,7.34c7.61,1.79,15.54,1.15,23.36,1a4.79,4.79,0,0,1,2.38.38,1.69,1.69,0,0,1,.89,2c-.3.69-1.13.94-1.87,1.11l-4.38,1a22.59,22.59,0,0,0-3.65,1.09l7-.66a16,16,0,0,0,4.46-.85,10.87,10.87,0,0,0,5.83-6.56,32.14,32.14,0,0,0,1.48-8.89,23.72,23.72,0,0,1-1.42,19.1,2.91,2.91,0,0,0-.54,2.29,2.71,2.71,0,0,0,1.69,1.3,10.81,10.81,0,0,0,2.75.85,7.37,7.37,0,0,0,6.26-2.76,18.72,18.72,0,0,0,3.24-6.29c.83-2.39,1.56-4.82,2.17-7.27a12,12,0,0,0,.47-5.21c0-.18-.08-.36-.13-.55.05.18.09.37.13.55a24.24,24.24,0,0,1-.3,12.14,20.89,20.89,0,0,0-1.22,5.24,2.07,2.07,0,0,0,.35,1.38c.59.71,1.71.51,2.56.16a17,17,0,0,0,7.21-6,25,25,0,0,0,1.65-2.58C322.32,141.87,323.32,137.39,322.5,134.88Z"/><path class="cls-27" d="M266.65,152.69c-10.94,0-18.13-3.6-20.86-10.46-2.44-6.14-1-10,.67-12.24,2.95-3.92,8.14-4.91,11.67-4.56,1.45.14,3.06.33,4.77.53,6.26.73,14.06,1.64,19.14.9,2.69-.39,5.3.94,7.34,3.74a1,1,0,1,1-1.64,1.2c-.91-1.26-2.82-3.3-5.41-2.93-5.34.78-13.28-.15-19.66-.9-1.7-.19-3.31-.38-4.73-.52-3.26-.32-7.57.72-9.86,3.76-1.92,2.55-2.06,6.11-.4,10.28,6.09,15.33,36,6.79,36.34,6.7a1,1,0,0,1,.57,1.95,72.86,72.86,0,0,1-16.6,2.53Z"/><path class="cls-27" d="M290.21,168.85a6.19,6.19,0,0,1-1.35-.14c-1.22-.24-2.47-.53-3.68-.82-3.47-.8-6.75-1.56-9.15-1.36s-5.7-.43-7.26-2.33a3.78,3.78,0,0,1-.7-3.56,83.48,83.48,0,0,0,1.7-9.33,1,1,0,0,1,1.13-.88,1,1,0,0,1,.88,1.13A82.91,82.91,0,0,1,270,161.2a1.75,1.75,0,0,0,.32,1.72c.9,1.09,3.27,1.77,5.52,1.59,2.72-.23,6.15.57,9.78,1.41,1.2.28,2.43.56,3.63.81a4.31,4.31,0,0,0,4.43-1.67,5.26,5.26,0,0,0,.13-5.76c-2.45-4.46-11.93-5.73-19.51-2.61a1,1,0,0,1-1.33-.56,1,1,0,0,1,.56-1.32c8.59-3.54,19.1-1.86,22.06,3.52a7.34,7.34,0,0,1-.28,7.94A6.33,6.33,0,0,1,290.21,168.85Z"/><path class="cls-27" d="M307.89,160.22a9.09,9.09,0,0,1-4.67-1.07,1,1,0,1,1,1.07-1.72c2.45,1.52,9.13.87,11.65-2.48s5.44-10.1,5.64-18.38c.16-6.93-7.27-17.07-24.33-17.93-11.74-.59-20,4.87-23.56,9.73a1,1,0,0,1-1.41.23,1,1,0,0,1-.23-1.42c3.83-5.27,12.74-11.2,25.3-10.56,10.13.51,16.32,4.12,19.72,7.06,4.26,3.68,6.64,8.4,6.53,12.94-.21,8.76-3.39,16-6,19.55a11.25,11.25,0,0,1-7.18,3.84A15.4,15.4,0,0,1,307.89,160.22Z"/><path class="cls-27" d="M278.05,155.33a1,1,0,0,1-.95-.66s-.53-1.41-1.3-3.53a1,1,0,1,1,1.9-.69c.77,2.1,1.3,3.51,1.3,3.51a1,1,0,0,1-.59,1.3A.92.92,0,0,1,278.05,155.33Z"/><path class="cls-27" d="M291.54,156.85A1,1,0,0,1,291,155c.1-.07,7-4.89,4.12-22a1,1,0,0,1,.83-1.17,1,1,0,0,1,1.17.83c3.14,18.65-4.7,23.86-5,24.07A1,1,0,0,1,291.54,156.85Z"/><path class="cls-27" d="M300.38,160.65h-.23c-5.81-.29-6.08-.82-6.34-1.33a1.07,1.07,0,0,1,.06-1.07,1,1,0,0,1,1.41-.28.61.61,0,0,1,.17.15,24.75,24.75,0,0,0,4.8.5c1.43.07,3.15-1,4.74-3,3.48-4.3,6.17-12.69,4.29-19.78a1,1,0,1,1,2-.52c2.07,7.81-.78,16.77-4.67,21.58C304.61,159.33,302.42,160.65,300.38,160.65Z"/><path class="cls-27" d="M298.94,131.41a1,1,0,0,1-.37-.07A1,1,0,0,1,298,130a5.46,5.46,0,0,1,9.52-1.12,1,1,0,0,1-.25,1.42,1,1,0,0,1-1.41-.25,3.42,3.42,0,0,0-6,.7A1,1,0,0,1,298.94,131.41Z"/><path class="cls-27" d="M317.45,132.42a1,1,0,0,1-1-.73,1.87,1.87,0,0,0-1.44-1.27,1.85,1.85,0,0,0-1.77.74A1,1,0,0,1,311.6,130a3.84,3.84,0,0,1,6.82,1.13,1,1,0,0,1-.69,1.26A.9.9,0,0,1,317.45,132.42Z"/></svg>