<svg id="Capa_2" data-name="Capa 2" xmlns="http://www.w3.org/2000/svg" xmlns:xlink="http://www.w3.org/1999/xlink" viewBox="0 0 400 400"><defs><style>.cls-1{fill:url(#Degradado_sin_nombre_12);}.cls-2{fill:#686868;}.cls-3{fill:#313b47;}.cls-4{fill:#939286;}.cls-5{fill:#e5e4c8;}.cls-6{fill:#fff;}.cls-7{fill:#999698;}.cls-8{fill:#575756;}.cls-9{fill:#d9d7da;}.cls-10{fill:#27273d;}.cls-11{fill:#534741;}.cls-12{fill:#352d2a;}.cls-13{fill:url(#Degradado_sin_nombre_49);}.cls-14,.cls-20,.cls-26,.cls-32,.cls-38,.cls-44,.cls-56{opacity:0.93;}.cls-14{fill:url(#Nueva_muestra_de_degradado_2);}.cls-15{fill:url(#Degradado_sin_nombre_49-2);}.cls-16{fill:url(#Degradado_sin_nombre_38);}.cls-17{fill:url(#Degradado_sin_nombre_12-2);}.cls-18{fill:url(#Degradado_sin_nombre_11);}.cls-19{fill:url(#Degradado_sin_nombre_49-3);}.cls-20{fill:url(#Nueva_muestra_de_degradado_2-2);}.cls-21{fill:url(#Degradado_sin_nombre_49-4);}.cls-22{fill:url(#Degradado_sin_nombre_38-2);}.cls-23{fill:url(#Degradado_sin_nombre_12-3);}.cls-24{fill:url(#Degradado_sin_nombre_11-2);}.cls-25{fill:url(#Degradado_sin_nombre_49-5);}.cls-26{fill:url(#Nueva_muestra_de_degradado_2-3);}.cls-27{fill:url(#Degradado_sin_nombre_49-6);}.cls-28{fill:url(#Degradado_sin_nombre_38-3);}.cls-29{fill:url(#Degradado_sin_nombre_12-4);}.cls-30{fill:url(#Degradado_sin_nombre_11-3);}.cls-31{fill:url(#Degradado_sin_nombre_49-7);}.cls-32{fill:url(#Nueva_muestra_de_degradado_2-4);}.cls-33{fill:url(#Degradado_sin_nombre_49-8);}.cls-34{fill:url(#Degradado_sin_nombre_38-4);}.cls-35{fill:url(#Degradado_sin_nombre_12-5);}.cls-36{fill:url(#Degradado_sin_nombre_11-4);}.cls-37{fill:url(#Degradado_sin_nombre_49-9);}.cls-38{fill:url(#Nueva_muestra_de_degradado_2-5);}.cls-39{fill:url(#Degradado_sin_nombre_49-10);}.cls-40{fill:url(#Degradado_sin_nombre_38-5);}.cls-41{fill:url(#Degradado_sin_nombre_12-6);}.cls-42{fill:url(#Degradado_sin_nombre_11-5);}.cls-43{fill:url(#Degradado_sin_nombre_49-11);}.cls-44{fill:url(#Nueva_muestra_de_degradado_2-6);}.cls-45{fill:url(#Degradado_sin_nombre_49-12);}.cls-46{fill:url(#Degradado_sin_nombre_38-6);}.cls-47{fill:url(#Degradado_sin_nombre_12-7);}.cls-48{fill:url(#Degradado_sin_nombre_11-6);}.cls-49{fill:#594b42;}.cls-50{fill:#736357;}.cls-51{fill:url(#Degradado_sin_nombre_12-8);}.cls-52{fill:#26313d;}.cls-53{fill:none;}.cls-54{fill:url(#Degradado_sin_nombre_12-9);}.cls-55{fill:url(#Degradado_sin_nombre_49-13);}.cls-56{fill:url(#Nueva_muestra_de_degradado_2-7);}.cls-57{fill:url(#Degradado_sin_nombre_49-14);}.cls-58{fill:url(#Degradado_sin_nombre_12-10);}.cls-59{fill:url(#Degradado_sin_nombre_12-11);}.cls-60{fill:url(#Degradado_sin_nombre_11-7);}.cls-61{fill:url(#Degradado_sin_nombre_12-12);}.cls-62{fill:#91a8ce;}.cls-63{fill:#dff2f9;}.cls-64{fill:#3c3c3b;}.cls-65{fill:url(#Degradado_sin_nombre_12-13);}</style><linearGradient id="Degradado_sin_nombre_12" x1="217.45" y1="133.57" x2="285.83" y2="133.57" gradientTransform="matrix(-1, -0.05, -0.05, 1, 432.67, 140.12)" gradientUnits="userSpaceOnUse"><stop offset="0.08" stop-color="#797d86"/><stop offset="0.47" stop-color="#a8abb0"/><stop offset="0.82" stop-color="#cbcccf"/><stop offset="1" stop-color="#d8d9db"/></linearGradient><linearGradient id="Degradado_sin_nombre_49" x1="-1484.43" y1="641.95" x2="-1484.43" y2="691.74" gradientTransform="translate(1748.44 532.08) rotate(33.77)" gradientUnits="userSpaceOnUse"><stop offset="0" stop-color="#fff"/><stop offset="0.14" stop-color="#c9cbce"/><stop offset="0.31" stop-color="#92969c"/><stop offset="0.47" stop-color="#656a73"/><stop offset="0.62" stop-color="#424853"/><stop offset="0.77" stop-color="#29303c"/><stop offset="0.9" stop-color="#19212e"/><stop offset="1" stop-color="#141c29"/></linearGradient><linearGradient id="Nueva_muestra_de_degradado_2" x1="126.71" y1="276.04" x2="141.02" y2="276.04" gradientUnits="userSpaceOnUse"><stop offset="0" stop-color="#e340a1"/><stop offset="0.49" stop-color="#664ad6"/><stop offset="0.99" stop-color="#14b2f5"/></linearGradient><linearGradient id="Degradado_sin_nombre_49-2" x1="-1484.43" y1="648.67" x2="-1484.43" y2="690.64" xlink:href="#Degradado_sin_nombre_49"/><linearGradient id="Degradado_sin_nombre_38" x1="-1488.33" y1="691.01" x2="-1485.45" y2="686.45" gradientTransform="translate(1748.44 532.08) rotate(33.77)" gradientUnits="userSpaceOnUse"><stop offset="0.34" stop-color="#1c222b" stop-opacity="0.7"/><stop offset="0.92" stop-color="#152745" stop-opacity="0"/></linearGradient><linearGradient id="Degradado_sin_nombre_12-2" x1="-1481.27" y1="5161.14" x2="-1485.36" y2="5165.23" gradientTransform="matrix(0.83, 0.56, 0.56, -0.83, -1502.34, 5392.86)" xlink:href="#Degradado_sin_nombre_12"/><linearGradient id="Degradado_sin_nombre_11" x1="-1484.59" y1="5163.38" x2="-1489.17" y2="5166.65" gradientTransform="matrix(0.83, 0.56, 0.56, -0.83, -1502.34, 5392.86)" gradientUnits="userSpaceOnUse"><stop offset="0" stop-color="#797d86"/><stop offset="0.09" stop-color="#95999f"/><stop offset="0.2" stop-color="#aeb0b5"/><stop offset="0.32" stop-color="#c1c2c6"/><stop offset="0.47" stop-color="#cecfd2"/><stop offset="0.65" stop-color="#d6d7d9"/><stop offset="1" stop-color="#d8d9db"/></linearGradient><linearGradient id="Degradado_sin_nombre_49-3" x1="123.85" y1="230.17" x2="123.85" y2="279.96" gradientTransform="matrix(1, 0, 0, 1, 0, 0)" xlink:href="#Degradado_sin_nombre_49"/><linearGradient id="Nueva_muestra_de_degradado_2-2" x1="116.7" y1="272.96" x2="131.01" y2="272.96" xlink:href="#Nueva_muestra_de_degradado_2"/><linearGradient id="Degradado_sin_nombre_49-4" x1="123.86" y1="236.89" x2="123.86" y2="278.86" gradientTransform="matrix(1, 0, 0, 1, 0, 0)" xlink:href="#Degradado_sin_nombre_49"/><linearGradient id="Degradado_sin_nombre_38-2" x1="119.96" y1="279.23" x2="122.84" y2="274.67" gradientTransform="matrix(1, 0, 0, 1, 0, 0)" xlink:href="#Degradado_sin_nombre_38"/><linearGradient id="Degradado_sin_nombre_12-3" x1="127.02" y1="5572.91" x2="122.93" y2="5577.01" gradientTransform="matrix(1, 0, 0, -1, 0, 5847.62)" xlink:href="#Degradado_sin_nombre_12"/><linearGradient id="Degradado_sin_nombre_11-2" x1="123.69" y1="5575.16" x2="119.11" y2="5578.43" gradientTransform="matrix(1, 0, 0, -1, 0, 5847.62)" xlink:href="#Degradado_sin_nombre_11"/><linearGradient id="Degradado_sin_nombre_49-5" x1="-497.88" y1="255.62" x2="-497.88" y2="305.41" gradientTransform="translate(661.39 84.77) rotate(12.22)" xlink:href="#Degradado_sin_nombre_49"/><linearGradient id="Nueva_muestra_de_degradado_2-3" x1="104.46" y1="271.04" x2="118.78" y2="271.04" xlink:href="#Nueva_muestra_de_degradado_2"/><linearGradient id="Degradado_sin_nombre_49-6" x1="-497.88" y1="262.35" x2="-497.88" y2="304.32" gradientTransform="translate(661.39 84.77) rotate(12.22)" xlink:href="#Degradado_sin_nombre_49"/><linearGradient id="Degradado_sin_nombre_38-3" x1="-501.78" y1="304.68" x2="-498.9" y2="300.13" gradientTransform="translate(661.39 84.77) rotate(12.22)" xlink:href="#Degradado_sin_nombre_38"/><linearGradient id="Degradado_sin_nombre_12-4" x1="-494.72" y1="5547.46" x2="-498.81" y2="5551.55" gradientTransform="matrix(0.98, 0.21, 0.21, -0.98, -576.38, 5799.9)" xlink:href="#Degradado_sin_nombre_12"/><linearGradient id="Degradado_sin_nombre_11-3" x1="-498.05" y1="5549.7" x2="-502.63" y2="5552.97" gradientTransform="matrix(0.98, 0.21, 0.21, -0.98, -576.38, 5799.9)" xlink:href="#Degradado_sin_nombre_11"/><linearGradient id="Degradado_sin_nombre_49-7" x1="-2317.27" y1="1274.14" x2="-2317.27" y2="1323.93" gradientTransform="matrix(0.58, 0.82, -0.82, 0.58, 2513.36, 1403.75)" xlink:href="#Degradado_sin_nombre_49"/><linearGradient id="Nueva_muestra_de_degradado_2-4" x1="91.89" y1="274.51" x2="106.21" y2="274.51" xlink:href="#Nueva_muestra_de_degradado_2"/><linearGradient id="Degradado_sin_nombre_49-8" x1="-2317.27" y1="1280.87" x2="-2317.27" y2="1322.84" gradientTransform="matrix(0.58, 0.82, -0.82, 0.58, 2513.36, 1403.75)" xlink:href="#Degradado_sin_nombre_49"/><linearGradient id="Degradado_sin_nombre_38-4" x1="-2321.17" y1="1323.2" x2="-2318.29" y2="1318.65" gradientTransform="matrix(0.58, 0.82, -0.82, 0.58, 2513.36, 1403.75)" xlink:href="#Degradado_sin_nombre_38"/><linearGradient id="Degradado_sin_nombre_12-5" x1="-2314.11" y1="4528.94" x2="-2318.2" y2="4533.03" gradientTransform="matrix(0.58, 0.82, 0.82, -0.58, -2257.74, 4784.77)" xlink:href="#Degradado_sin_nombre_12"/><linearGradient id="Degradado_sin_nombre_11-4" x1="-2317.44" y1="4531.18" x2="-2322.02" y2="4534.45" gradientTransform="matrix(0.58, 0.82, 0.82, -0.58, -2257.74, 4784.77)" xlink:href="#Degradado_sin_nombre_11"/><linearGradient id="Degradado_sin_nombre_49-9" x1="1658.99" y1="803.7" x2="1658.99" y2="853.49" gradientTransform="matrix(0.84, -0.55, 0.55, 0.84, -1739.88, 480.57)" xlink:href="#Degradado_sin_nombre_49"/><linearGradient id="Nueva_muestra_de_degradado_2-5" x1="104.46" y1="278.78" x2="118.78" y2="278.78" xlink:href="#Nueva_muestra_de_degradado_2"/><linearGradient id="Degradado_sin_nombre_49-10" x1="1658.99" y1="810.42" x2="1658.99" y2="852.39" gradientTransform="matrix(0.84, -0.55, 0.55, 0.84, -1739.88, 480.57)" xlink:href="#Degradado_sin_nombre_49"/><linearGradient id="Degradado_sin_nombre_38-5" x1="1655.09" y1="852.75" x2="1657.97" y2="848.2" gradientTransform="matrix(0.84, -0.55, 0.55, 0.84, -1739.88, 480.57)" xlink:href="#Degradado_sin_nombre_38"/><linearGradient id="Degradado_sin_nombre_12-6" x1="1662.15" y1="4999.39" x2="1658.06" y2="5003.48" gradientTransform="matrix(0.84, -0.55, -0.55, -0.84, 1466.54, 5370.71)" xlink:href="#Degradado_sin_nombre_12"/><linearGradient id="Degradado_sin_nombre_11-5" x1="1658.82" y1="5001.63" x2="1654.25" y2="5004.9" gradientTransform="matrix(0.84, -0.55, -0.55, -0.84, 1466.54, 5370.71)" xlink:href="#Degradado_sin_nombre_11"/><linearGradient id="Degradado_sin_nombre_49-11" x1="-714.48" y1="315.8" x2="-714.48" y2="365.59" gradientTransform="translate(911.84 143.48) rotate(16.81)" xlink:href="#Degradado_sin_nombre_49"/><linearGradient id="Nueva_muestra_de_degradado_2-6" x1="117.03" y1="280.12" x2="131.35" y2="280.12" xlink:href="#Nueva_muestra_de_degradado_2"/><linearGradient id="Degradado_sin_nombre_49-12" x1="-714.47" y1="322.52" x2="-714.47" y2="364.49" gradientTransform="translate(911.84 143.48) rotate(16.81)" xlink:href="#Degradado_sin_nombre_49"/><linearGradient id="Degradado_sin_nombre_38-6" x1="-718.37" y1="364.86" x2="-715.49" y2="360.3" gradientTransform="translate(911.84 143.48) rotate(16.81)" xlink:href="#Degradado_sin_nombre_38"/><linearGradient id="Degradado_sin_nombre_12-7" x1="-711.31" y1="5487.28" x2="-715.4" y2="5491.38" gradientTransform="matrix(0.96, 0.29, 0.29, -0.96, -779.28, 5741.23)" xlink:href="#Degradado_sin_nombre_12"/><linearGradient id="Degradado_sin_nombre_11-6" x1="-714.64" y1="5489.53" x2="-719.22" y2="5492.79" gradientTransform="matrix(0.96, 0.29, 0.29, -0.96, -779.28, 5741.23)" xlink:href="#Degradado_sin_nombre_11"/><linearGradient id="Degradado_sin_nombre_12-8" x1="-1332.44" y1="530.45" x2="-1290.02" y2="530.45" gradientTransform="matrix(-0.87, 0.49, 0.49, 0.87, -1180.98, 451.36)" xlink:href="#Degradado_sin_nombre_12"/><linearGradient id="Degradado_sin_nombre_12-9" x1="-2060.38" y1="-557.14" x2="-2033.73" y2="-557.14" gradientTransform="matrix(-0.94, 0.34, 0.34, 0.94, -1489.66, 1361.13)" xlink:href="#Degradado_sin_nombre_12"/><linearGradient id="Degradado_sin_nombre_49-13" x1="968.38" y1="-762.4" x2="968.38" y2="-109.29" gradientTransform="translate(-616.93 310.15) scale(0.83 0.87)" xlink:href="#Degradado_sin_nombre_49"/><linearGradient id="Nueva_muestra_de_degradado_2-7" x1="203.79" y1="206.46" x2="160.13" y2="45.41" gradientTransform="translate(35.78 -38.61) rotate(13.23)" xlink:href="#Nueva_muestra_de_degradado_2"/><linearGradient id="Degradado_sin_nombre_49-14" x1="968.38" y1="-671.33" x2="968.38" y2="-124.2" gradientTransform="translate(-616.93 310.15) scale(0.83 0.87)" xlink:href="#Degradado_sin_nombre_49"/><linearGradient id="Degradado_sin_nombre_12-10" x1="1339.42" y1="-349.98" x2="1390.54" y2="-349.98" gradientTransform="matrix(0.87, -0.35, 0.3, 0.74, -802.87, 888.39)" xlink:href="#Degradado_sin_nombre_12"/><linearGradient id="Degradado_sin_nombre_12-11" x1="1198.63" y1="5449.61" x2="1154.07" y2="5494.24" gradientTransform="matrix(0.67, -0.14, -0.21, -0.98, 532.78, 5650.03)" xlink:href="#Degradado_sin_nombre_12"/><linearGradient id="Degradado_sin_nombre_11-7" x1="1163.8" y1="5476.09" x2="1116.47" y2="5509.89" gradientTransform="matrix(0.67, -0.14, -0.21, -0.98, 532.78, 5650.03)" xlink:href="#Degradado_sin_nombre_11"/><linearGradient id="Degradado_sin_nombre_12-12" x1="-2054.55" y1="-1380.8" x2="-2029.54" y2="-1380.8" gradientTransform="translate(2067.73 1672.69) rotate(3.33)" xlink:href="#Degradado_sin_nombre_12"/><linearGradient id="Degradado_sin_nombre_12-13" x1="-1090.88" y1="787.95" x2="-1055.44" y2="787.95" gradientTransform="translate(1415.67 3.53) rotate(26.9)" xlink:href="#Degradado_sin_nombre_12"/></defs><title>i</title><path class="cls-1" d="M211.66,214.2s-14.53,52.48-17.06,57.52S186.77,284,175,292.32s-29.55,21.39-29.55,21.39l-6.34-9,45.08-35.26,17-58.89Z"/><path class="cls-2" d="M206.29,213.12l-17.58,59.22L143,309.69l2.48,4s23.84-16.86,32.69-24.09A147.84,147.84,0,0,0,194,274.15c1-1,17.62-59.95,17.62-59.95Z"/><path class="cls-3" d="M147,313.62l-1.13-1.68c.43-.29,43.16-29.1,47.2-38.2,3.82-8.6,15.5-52,17.33-58.89l-8.5-3-16.83,58.17-43.72,35-1.27-1.59,43.22-34.59,17.24-59.6,12.3,4.28-.24.91c-.55,2.06-13.48,50.65-17.68,60.09C190.68,284.2,148.82,312.42,147,313.62Z"/><path class="cls-4" d="M148.81,337.83a60.88,60.88,0,0,0,16.54,12.54c6.17.51,7-.17,6.72-.23-1.27-.28.37-1.47.37-1.47L166.37,333l-36-23s-1.11.09-1.18,1.9a2.23,2.23,0,0,0-2.2,1.31c3.68,6.34,9.73,11.07,14.73,16.5C144.17,332.39,146.38,335.21,148.81,337.83Z"/><path class="cls-5" d="M172,350.66c-10.16-.87-18.48-7.74-23.22-12.83-2.43-2.62-4.64-5.44-7.06-8.07-5-5.43-11.05-10.16-14.73-16.5l-.1.17a5.15,5.15,0,0,1-3,2.18,35.61,35.61,0,0,0,6.06,7.72c3,3,6.25,5.66,9.16,8.71,2,2.06,3.79,4.28,5.77,6.34a53.8,53.8,0,0,0,18.42,12.5C163.86,350.77,171.34,350.87,172,350.66Z"/><path class="cls-6" d="M145,338.38c-2-2.06-3.79-4.28-5.77-6.34-2.91-3.05-6.18-5.73-9.16-8.71a35.61,35.61,0,0,1-6.06-7.72,4.33,4.33,0,0,0-.65.27c-.28.23-2.41,1.72.64,5.71s8.32,6.51,13.22,12.74,15.46,13.77,20.06,15.39S173,351.8,173,351.8s-1.22-1.08-.95-1.14C161.19,350.66,150.13,343.78,145,338.38Z"/><path class="cls-7" d="M138.91,299.64s-2.83,1.8-3.62,4.33-2.23,0-4.43,6.14c0,0,9.77,10.73,11.77,15.46s7.2,11.12,14.35,17.59c5.08,4.6,12,4.89,12,4.89s3.45,4.67,12.54,2.42c1.31-.32,3.57-3.3,3.57-3.3s2.24-4,.5-7.07c-16.91-6.66-18-13.45-18.84-15.75s-3.35-14-3.83-15.09-.57-4.78-8.59-2.52-11.13,3.69-11.06-2.44C143.32,300.29,144.78,298.73,138.91,299.64Z"/><path class="cls-8" d="M181.28,341.48c-3.3.43-3.44.77-4.75,3.47s-3.69,2.92-4.47,4.43.62,2.33,4.36,1.9,6.55.13,8.4-3.69S187.26,340.72,181.28,341.48Z"/><path class="cls-9" d="M135.05,304.24l1.37,4.49s2.15-.28,4.73,3.83,12.38,13.81,13.61,15.36,8.69,9.7,9.52,11,7,4.61,7,4.61-6.77,0-9.67-2.87A60.18,60.18,0,0,0,151.08,332c-4.39-3.6-9.37-7.56-9.37-7.56s-1.78-5.46-11.31-14.35C130.4,310.05,131.33,307.35,135.05,304.24Z"/><path class="cls-9" d="M161.36,315.61s-5.74-3.14-6.36-2.64,2.39,2.7,4.24,3.43-2.7,1.69-3.31,2.14-1,2,2.64.68,3.39-1,3.39-1l4,2.83-.92-3.14-1.17-3.11Z"/><path class="cls-9" d="M163.57,322.63s-5.4-2.92-6-2.42,2.2,2.59,4,3.26-2.63,1.73-3.23,2.19-1,2,2.5.6,2.83-1.36,2.83-1.36l4.24,3-.79-3.06-1-3Z"/><path class="cls-9" d="M166.7,329.22s-5.16-2.79-5.75-2.31,2.11,2.49,3.79,3.13c0,0-2.53,1.67-3.11,2.11s-1,1.91,2.4.57,3.34-1.8,3.34-1.8l3.9,1.28-1.22-.88-1-2.91Z"/><path class="cls-10" d="M131.22,309.89a6.62,6.62,0,0,1,2-3.62c.52-.53,1.09-1,1.61-1.53A10.05,10.05,0,0,0,136.1,303c.76-1.25,1.48-2.71,2.83-3.4a3.1,3.1,0,0,1,3.53.24c1.11,1.12.56,3,.64,4.41a5.69,5.69,0,0,0,1.36,3.64c2.45,2.57,6,.27,8.65-.71a14.39,14.39,0,0,1,5.35-.92c1.32,0,2.78.13,3.7,1.19a5.8,5.8,0,0,1,1.07,2.94c.23,1.39.43,2.78.72,4.16a88.41,88.41,0,0,0,2.86,10c.88,2.65,1.89,5.48,3.87,7.55a23.18,23.18,0,0,0,3.77,2.9,34,34,0,0,0,4.48,2.61,21.49,21.49,0,0,0,2.32,1,18.77,18.77,0,0,1,2.06.75,5.85,5.85,0,0,1,3,3,1.29,1.29,0,0,1,.09.72c0,.17-.1.34-.14.51-.09.35.45.62.61.26.05-.11.07-.22.11-.33l-.65-.18a11.27,11.27,0,0,1-3.43,6,9,9,0,0,1-4.36,1.68,39.16,39.16,0,0,1-5.19.52,61,61,0,0,1-10.29-.29,22.61,22.61,0,0,1-4.81-1.07,18.78,18.78,0,0,1-3.81-1.89c-1.24-.78-2.42-1.66-3.6-2.52-1.34-1-2.69-2-4-3a77,77,0,0,1-7.48-6.74c-2.37-2.4-4.68-4.87-7-7.3a34.46,34.46,0,0,0-2.69-2.58c-.93-.79-1.89-1.55-2.82-2.35-1.62-1.4-3.63-3.14-4.07-5.35a2.67,2.67,0,0,1,.26-2,3.08,3.08,0,0,1,1.44-1,9.67,9.67,0,0,0,1.58-.78,5.37,5.37,0,0,0,1.34-1.47c.41-.58,1-1.28,1.8-1.15.2,0,.45-.09.43-.33a1.36,1.36,0,0,1,1.43-1.45.34.34,0,0,0,0-.68,2,2,0,0,0-2.1,2.13l.42-.33a2.24,2.24,0,0,0-1.87.62c-.56.51-.87,1.22-1.4,1.75-.9.91-2.32,1-3.26,1.89a3.32,3.32,0,0,0-.61,3.41,8.32,8.32,0,0,0,1.76,2.88,55.39,55.39,0,0,0,5.71,5.11c1.11,1,2.1,2.06,3.12,3.12l3.67,3.84a102.42,102.42,0,0,0,7.71,7.46c2.58,2.17,5.33,4.16,8.08,6.11a27.05,27.05,0,0,0,3.8,2.36,18.69,18.69,0,0,0,4.37,1.51,48.66,48.66,0,0,0,10.71.78,52.61,52.61,0,0,0,5.47-.3,17.86,17.86,0,0,0,5-1.07,7.84,7.84,0,0,0,3.27-2.74,12.51,12.51,0,0,0,1.69-3.24c.15-.46.29-.92.4-1.38a.34.34,0,0,0-.65-.18c0,.06-.11.32,0,.17l.62.26a2.59,2.59,0,0,0,.14-1.29,4.06,4.06,0,0,0-.85-1.65,7.71,7.71,0,0,0-3.49-2.41,32.21,32.21,0,0,1-9.41-5,12.15,12.15,0,0,1-3.29-3.22,20.39,20.39,0,0,1-2-4.11,88.93,88.93,0,0,1-3-9.69c-.4-1.67-.75-3.35-1-5.05a11.42,11.42,0,0,0-.79-3.32,3.85,3.85,0,0,0-2.41-2.05,11.81,11.81,0,0,0-5.09-.08,21.77,21.77,0,0,0-5.07,1.7c-1.49.64-3.34,1.36-4.91.55a4.23,4.23,0,0,1-2-3.61c-.12-1.47.35-3.13-.42-4.49a3.16,3.16,0,0,0-3.26-1.39,4.94,4.94,0,0,0-3.31,2.1c-1,1.26-1.55,2.76-2.72,3.86a13.81,13.81,0,0,0-2.8,3.11,6.44,6.44,0,0,0-.71,2.07c-.08.43.58.61.65.18Z"/><path class="cls-10" d="M177.6,342.86c-1.26,1.29-1.81,3.18-3.2,4.35a7.92,7.92,0,0,1-1.56.86,3.79,3.79,0,0,0-1.48,1.07A1.36,1.36,0,0,0,172,351a5.91,5.91,0,0,0,2.75.6,25.85,25.85,0,0,0,5.82-.46,8.4,8.4,0,0,0,2.35-.71,5.14,5.14,0,0,0,1.88-1.91,14.71,14.71,0,0,0,1.25-2.7,5.63,5.63,0,0,0,.57-2.92c-.31-1.54-2.41-1.71-3.66-1.76a7,7,0,0,0-5.32,1.71c-.31.3.16.78.48.47a6.19,6.19,0,0,1,4.51-1.52,9.69,9.69,0,0,1,1.7.16,2.35,2.35,0,0,1,1.48.7c.51.71-.06,2-.3,2.69a15.15,15.15,0,0,1-1.16,2.6,4.7,4.7,0,0,1-1.65,1.83,7.62,7.62,0,0,1-2.29.71,27.48,27.48,0,0,1-5,.45,8.58,8.58,0,0,1-2.67-.33c-.43-.14-1.11-.52-.84-1.08.1-.22.39-.37.58-.49s.58-.33.88-.49a6.73,6.73,0,0,0,1.52-.87c1.37-1.21,1.93-3.06,3.2-4.36C178.38,343,177.9,342.54,177.6,342.86Z"/><path class="cls-10" d="M130.34,310.08l5.16,5.72a39.81,39.81,0,0,1,4.33,5.68c2.39,3.85,4.75,7.74,7.33,11.47a50.36,50.36,0,0,0,4.09,5.23c1.05,1.16,2.2,2.25,3.34,3.33a25.86,25.86,0,0,0,6.06,4.43A34.16,34.16,0,0,0,172.44,349c.44.05.43-.63,0-.67a34.74,34.74,0,0,1-10.77-2.66,23.8,23.8,0,0,1-6.2-4.27c-1-.94-2-1.9-3-2.9a43.7,43.7,0,0,1-4.14-5.06c-1.29-1.8-2.48-3.67-3.66-5.54s-2.43-3.79-3.61-5.71c-.68-1.11-1.35-2.22-2.11-3.28a37,37,0,0,0-2.45-3c-1.88-2.11-3.79-4.21-5.69-6.31-.29-.32-.77.15-.48.48Z"/><path class="cls-10" d="M134.3,313.88a9.1,9.1,0,0,1,.55-3.94,1.92,1.92,0,0,1,1.24-1.23,2.83,2.83,0,0,1,2.32.76,10.7,10.7,0,0,1,1.85,2c.62.84,1.26,1.68,1.91,2.51,1.32,1.69,2.69,3.35,4.07,5,2.73,3.22,5.55,6.35,8.41,9.44.7.76,1.4,1.52,2,2.32s1.25,1.63,1.87,2.45a56.29,56.29,0,0,0,4,4.72,22.22,22.22,0,0,0,5.09,4.28,19,19,0,0,0,6.42,1.92l-.08-.62c-1.08.53-2.48.2-3.61,0a25.48,25.48,0,0,1-3.24-.78,23.89,23.89,0,0,1-6.28-2.9,16.6,16.6,0,0,1-2.64-2.16c-.81-.82-1.48-1.77-2.32-2.57-1.79-1.72-3.91-3-5.83-4.57-2.61-2.1-5.17-4.26-7.7-6.44-.33-.28-.81.2-.48.48q3.51,3,7.09,5.94c2,1.64,4.23,3,6.15,4.79.9.82,1.6,1.79,2.44,2.67a17.53,17.53,0,0,0,2.63,2.23,24.14,24.14,0,0,0,6.39,3.07,26.16,26.16,0,0,0,3.79.92,6.49,6.49,0,0,0,4-.09.34.34,0,0,0-.08-.62,19.1,19.1,0,0,1-6.06-1.75,20.11,20.11,0,0,1-4.83-3.94,55,55,0,0,1-4.24-4.92c-.64-.85-1.25-1.71-1.92-2.53s-1.35-1.56-2-2.32c-3-3.23-5.94-6.5-8.78-9.86q-2.13-2.53-4.16-5.14c-1.17-1.51-2.23-3.29-3.85-4.37-1.38-.92-3.17-.87-4,.71a8.94,8.94,0,0,0-.76,4.54c0,.43.7.44.67,0Z"/><path class="cls-10" d="M137.12,307.87l-1.43-4.37c-.13-.41-.78-.23-.65.18l1.43,4.37c.14.41.79.23.65-.18Z"/><path class="cls-10" d="M165.11,317.45a35.45,35.45,0,0,0-4.29-3,25.85,25.85,0,0,0-4.69-2.31.92.92,0,0,0-1.28.73,1.5,1.5,0,0,0,.88,1.48c.73.45,1.51.83,2.25,1.26s1.57,1,2.33,1.47a50.64,50.64,0,0,1,4.91,3.72c.33.28.81-.19.48-.48a51.91,51.91,0,0,0-7.58-5.41c-.66-.38-1.34-.72-2-1.11-.26-.16-.59-.37-.62-.7s.34-.35.63-.23a32.5,32.5,0,0,1,4.14,2.05,33.45,33.45,0,0,1,4.36,3c.33.27.81-.21.47-.48Z"/><path class="cls-10" d="M162,315.38a8.23,8.23,0,0,1,2.54-.53.35.35,0,0,0,.34-.33.34.34,0,0,0-.34-.34,8.72,8.72,0,0,0-2.72.55.34.34,0,0,0,.18.65Z"/><path class="cls-10" d="M159.85,316.45a12.86,12.86,0,0,0-4.43,2.49.35.35,0,0,0,0,.41c.46,1.09,1.82.9,2.7.57l3.69-1.42c.4-.15.23-.81-.18-.65l-3.16,1.21c-.67.26-2,.94-2.47-.05l0,.41A11.88,11.88,0,0,1,160,317.1c.41-.14.23-.79-.18-.65Z"/><path class="cls-10" d="M167.69,324.86a33.46,33.46,0,0,0-4.42-3.06c-.8-.48-1.61-.92-2.45-1.34q-.56-.29-1.14-.54a4,4,0,0,0-1.19-.45,1,1,0,0,0-.85,1.4c.29.68,1.15,1,1.75,1.31,1.49.85,2.93,1.76,4.35,2.72a43,43,0,0,1,4.59,3.45c.32.28.8-.19.48-.48a53.56,53.56,0,0,0-7.41-5.28c-.61-.38-1.23-.74-1.86-1.1-.27-.14-.54-.28-.8-.44a1.24,1.24,0,0,1-.45-.37c-.07-.13-.13-.44.05-.53s.9.31,1.11.4l1,.49c.75.38,1.49.78,2.21,1.2a33.4,33.4,0,0,1,4.52,3.09c.33.28.81-.19.48-.47Z"/><path class="cls-10" d="M163.78,322.38a7.53,7.53,0,0,1,2.21-.54.34.34,0,0,0,.34-.34.33.33,0,0,0-.34-.33,7.86,7.86,0,0,0-2.39.56.36.36,0,0,0-.24.42.34.34,0,0,0,.42.23Z"/><path class="cls-10" d="M161.86,323.34a12,12,0,0,0-3.94,2.39.32.32,0,0,0-.09.32,1.25,1.25,0,0,0,.94.8,2.48,2.48,0,0,0,1.49-.24l3.34-1.42a.34.34,0,0,0,.13-.46.36.36,0,0,0-.47-.12l-2.69,1.14a5.45,5.45,0,0,1-1.28.46c-.29,0-.69,0-.81-.34l-.08.33A11.33,11.33,0,0,1,162,324c.41-.14.23-.8-.18-.65Z"/><path class="cls-10" d="M170.37,330.68a19.76,19.76,0,0,0-4.59-2.54c-.86-.36-1.73-.69-2.6-1l-1.12-.45a1,1,0,0,0-1.08,0c-.58.49-.2,1.28.29,1.65a9.33,9.33,0,0,0,1.94,1c1.47.63,3,1.15,4.48,1.73a16.6,16.6,0,0,1,4.52,2.34c.33.27.81-.2.47-.48-2.07-1.7-4.81-2.51-7.28-3.45a17.81,17.81,0,0,1-3.63-1.6c-.14-.1-.35-.24-.39-.42-.07-.33.18-.24.38-.17.38.14.75.31,1.12.45l2.2.88a20.29,20.29,0,0,1,4.82,2.57c.34.27.82-.21.47-.47Z"/><path class="cls-10" d="M167.46,329.36a4.45,4.45,0,0,1,.77-.22h.08l.19,0H169a.34.34,0,1,0,0-.67,4.46,4.46,0,0,0-1.69.27.35.35,0,0,0-.23.42.34.34,0,0,0,.41.24Z"/><path class="cls-10" d="M165.37,329.5a12.2,12.2,0,0,0-4,2.58.35.35,0,0,0-.05.41c.59,1.24,2.23.66,3.15.23s1.95-1.11,3-1.48c.41-.14.24-.8-.18-.65a21.08,21.08,0,0,0-2.66,1.3c-.64.32-2.26,1.24-2.73.26l0,.41a11.12,11.12,0,0,1,3.71-2.4.34.34,0,0,0-.18-.66Z"/><path class="cls-10" d="M135.06,314.7h0a.17.17,0,0,1-.16-.18s0-.36.08-.85a.17.17,0,0,1,.18-.15.17.17,0,0,1,.15.19c-.06.48-.07.82-.07.83A.17.17,0,0,1,135.06,314.7Z"/><path class="cls-10" d="M168.91,342.94h0c-.54-.19-1.07-.4-1.58-.62a.17.17,0,0,1-.09-.22.18.18,0,0,1,.22-.09c.51.21,1,.42,1.56.61a.17.17,0,0,1,.1.22A.16.16,0,0,1,168.91,342.94Zm-3.09-1.31-.08,0c-.52-.25-1-.52-1.49-.8a.16.16,0,0,1-.06-.23.17.17,0,0,1,.23-.06c.46.27,1,.54,1.47.79a.18.18,0,0,1,.08.23A.16.16,0,0,1,165.82,341.63Zm-2.9-1.7a.19.19,0,0,1-.1,0,14.94,14.94,0,0,1-1.32-1.07.16.16,0,0,1,0-.24.17.17,0,0,1,.24,0,14.24,14.24,0,0,0,1.29,1,.19.19,0,0,1,0,.24A.19.19,0,0,1,162.92,339.93Zm-2.45-2.29a.16.16,0,0,1-.13-.06,7.37,7.37,0,0,1-.69-1.06c-.05-.09-.13-.21-.23-.36a.17.17,0,0,1,0-.23.17.17,0,0,1,.24,0c.11.16.19.29.25.39a7.49,7.49,0,0,0,.65,1,.16.16,0,0,1,0,.24A.17.17,0,0,1,160.47,337.64Zm-2-2.72a.18.18,0,0,1-.13-.06c-.32-.37-.7-.8-1.11-1.25a.16.16,0,0,1,0-.24.17.17,0,0,1,.24,0l1.12,1.26a.17.17,0,0,1,0,.24A.15.15,0,0,1,158.5,334.92Zm-2.26-2.5a.18.18,0,0,1-.12-.05L155,331.14a.17.17,0,0,1,.25-.23l1.15,1.23a.17.17,0,0,1,0,.24A.16.16,0,0,1,156.24,332.42Zm-2.3-2.45a.16.16,0,0,1-.12-.06l-1.15-1.22a.17.17,0,0,1,0-.24.16.16,0,0,1,.24,0l1.16,1.22a.17.17,0,0,1,0,.24A.17.17,0,0,1,153.94,330Zm-2.3-2.46a.17.17,0,0,1-.13-.05l-1.15-1.23a.17.17,0,0,1,.25-.23l1.15,1.23a.17.17,0,0,1,0,.24A.15.15,0,0,1,151.64,327.51Zm-2.3-2.46a.18.18,0,0,1-.12-.05l-1.14-1.25a.17.17,0,0,1,.25-.23c.36.41.74.82,1.14,1.25a.18.18,0,0,1,0,.24A.19.19,0,0,1,149.34,325.05Zm-2.25-2.5a.18.18,0,0,1-.13-.06c-.41-.48-.78-.91-1.09-1.29a.17.17,0,0,1,0-.24.15.15,0,0,1,.23,0c.31.37.67.8,1.09,1.28a.17.17,0,0,1,0,.24A.21.21,0,0,1,147.09,322.55Zm-2.1-2.63a.19.19,0,0,1-.14-.08l-.95-1.38a.18.18,0,0,1,0-.24.19.19,0,0,1,.24,0l.95,1.39a.19.19,0,0,1,0,.24A.19.19,0,0,1,145,319.92Zm-1.91-2.77a.17.17,0,0,1-.14-.08c-.32-.45-.64-.91-1-1.36a.16.16,0,0,1,0-.24.16.16,0,0,1,.23,0c.33.45.66.91,1,1.37a.19.19,0,0,1,0,.24A.19.19,0,0,1,143.08,317.15Zm-2-2.73a.16.16,0,0,1-.13-.06c-.37-.49-.72-.93-1-1.32a.17.17,0,1,1,.26-.22c.32.4.67.84,1,1.33a.17.17,0,0,1,0,.24A.2.2,0,0,1,141.1,314.42Zm-5.65-2.21h0a.16.16,0,0,1-.11-.21,3.65,3.65,0,0,1,.78-1.56.17.17,0,0,1,.24.24,3.34,3.34,0,0,0-.7,1.41A.17.17,0,0,1,135.45,312.21Zm3.51-.38a.13.13,0,0,1-.12-.05,7.67,7.67,0,0,0-1.23-1.09.16.16,0,0,1,0-.24.16.16,0,0,1,.23,0,7.89,7.89,0,0,1,1.28,1.14.17.17,0,0,1,0,.24A.19.19,0,0,1,139,311.83Z"/><path class="cls-10" d="M171.27,343.69h0s-.31-.07-.82-.23a.17.17,0,1,1,.1-.32l.8.23a.16.16,0,0,1,.12.2A.16.16,0,0,1,171.27,343.69Z"/><path class="cls-10" d="M132.5,311.67h0a.16.16,0,0,1-.14-.19c0-.32.12-.62.19-.9a.16.16,0,0,1,.2-.12.17.17,0,0,1,.13.2c-.07.28-.14.57-.19.87A.15.15,0,0,1,132.5,311.67Zm.75-2.46-.07,0a.17.17,0,0,1-.08-.23,4.85,4.85,0,0,1,1-1.4.17.17,0,0,1,.23.25,4.49,4.49,0,0,0-1,1.3A.15.15,0,0,1,133.25,309.21Zm1.36-2.68a.17.17,0,0,1-.16-.13,10,10,0,0,1-.2-1.72.16.16,0,0,1,.16-.17.17.17,0,0,1,.17.16,9.47,9.47,0,0,0,.2,1.65.17.17,0,0,1-.13.2Z"/><path class="cls-10" d="M173.37,333.43a10,10,0,0,0-9.46,2c-.33.29.15.77.48.48a9.28,9.28,0,0,1,8.8-1.85.34.34,0,0,0,.18-.65Z"/><path class="cls-10" d="M173,333.31a12.28,12.28,0,0,0-5.67,2c-.36.24,0,.83.34.59A11.76,11.76,0,0,1,173,334c.43,0,.43-.71,0-.67Z"/><polygon class="cls-11" points="85.63 279.68 85.63 274.51 92.56 270.75 143.28 271.62 136.81 282.57 85.63 279.68"/><path class="cls-12" d="M143.5,271.18c-3.49-7.15-10-12.8-18-14.34a24.41,24.41,0,0,0-12.78,1.09,65.71,65.71,0,0,0-11.24,5.26,77.21,77.21,0,0,0-11.49,8,.84.84,0,0,0,1.2,1.19,74.23,74.23,0,0,1,9.71-6.9,72.38,72.38,0,0,1,10.56-5.3,25,25,0,0,1,12.08-2,22.52,22.52,0,0,1,10.72,4.32A25.84,25.84,0,0,1,142,272a.85.85,0,0,0,1.16.3.88.88,0,0,0,.3-1.16Z"/><circle class="cls-13" cx="133.87" cy="276.04" r="7.74"/><circle class="cls-14" cx="133.87" cy="276.04" r="7.16"/><circle class="cls-15" cx="133.87" cy="276.04" r="6.52"/><path class="cls-16" d="M137.55,282.43a7.32,7.32,0,1,1-7.36-12.66,7.23,7.23,0,0,1,1.16-.55s-2.29,3.28.16,8.08C133.82,281.83,137.55,282.43,137.55,282.43Z"/><path class="cls-17" d="M138.86,276.94l-1.76.62a1,1,0,0,1-.34,0,.8.8,0,0,1-.33-.08.9.9,0,0,1-.27-.21A.79.79,0,0,1,136,277v0a.78.78,0,0,1,0-.4.8.8,0,0,1,.14-.38l.31-.47A1,1,0,0,0,135,276l-2.4,3.59a1,1,0,0,1-1.32.31.9.9,0,0,1-.28-.27.86.86,0,0,1-.16-.35.81.81,0,0,1,0-.38.93.93,0,0,1,.14-.36l2.42-3.61a2.77,2.77,0,0,1,.8-.8,2.85,2.85,0,0,1,1-.43,2.69,2.69,0,0,1,1.13,0,2.92,2.92,0,0,1,1.05.43l1.6,1.07a.93.93,0,0,1,.26,1.34A1,1,0,0,1,138.86,276.94Z"/><path class="cls-18" d="M133.86,271.73l-1.23-.82a1,1,0,0,0-1.32.27v0a1,1,0,0,0,.26,1.32l1.22.81a.94.94,0,0,0,1.32-.26l0,0A1,1,0,0,0,133.86,271.73Z"/><circle class="cls-19" cx="123.85" cy="272.96" r="7.74"/><circle class="cls-20" cx="123.86" cy="272.96" r="7.16"/><circle class="cls-21" cx="123.86" cy="272.96" r="6.52"/><path class="cls-22" d="M130.47,276.22a7.32,7.32,0,0,1-13.16-6.43,7.12,7.12,0,0,1,.66-1.1s-.08,4,4.62,6.62C127,277.79,130.47,276.22,130.47,276.22Z"/><path class="cls-23" d="M128.51,270.92l-1.12,1.49a.82.82,0,0,1-.26.23.82.82,0,0,1-.66.1.81.81,0,0,1-.31-.15h0a1,1,0,0,1-.25-.31.9.9,0,0,1-.1-.39v-.57a1,1,0,0,0-.69.29,1,1,0,0,0-.28.69v4.32a1,1,0,0,1-.93,1,.82.82,0,0,1-.38-.06,1,1,0,0,1-.32-.21A.84.84,0,0,1,123,277a1,1,0,0,1-.08-.38v-4.34a3,3,0,0,1,.22-1.11,2.87,2.87,0,0,1,1.58-1.58,3,3,0,0,1,1.11-.22h1.92a.92.92,0,0,1,1,1A1,1,0,0,1,128.51,270.92Z"/><path class="cls-24" d="M121.45,269.38H120a.94.94,0,0,0-1,.95v0a1,1,0,0,0,1,.95h1.47a1,1,0,0,0,1-.95v0A1,1,0,0,0,121.45,269.38Z"/><circle class="cls-25" cx="111.62" cy="271.04" r="7.74"/><circle class="cls-26" cx="111.62" cy="271.04" r="7.16"/><circle class="cls-27" cx="111.62" cy="271.04" r="6.52"/><path class="cls-28" d="M117.4,275.62a7.32,7.32,0,1,1-11.5-9.07,7.06,7.06,0,0,1,.88-.93s-.93,3.89,3.11,7.45C113.71,276.43,117.4,275.62,117.4,275.62Z"/><path class="cls-29" d="M116.6,270l-1.41,1.22a.75.75,0,0,1-.3.17,1,1,0,0,1-.34.05.79.79,0,0,1-.33-.1.9.9,0,0,1-.27-.21h0a.89.89,0,0,1-.19-.36.9.9,0,0,1,0-.4l.12-.55a1,1,0,0,0-.74.13.94.94,0,0,0-.42.62l-.92,4.22a1,1,0,0,1-1.12.77,1.19,1.19,0,0,1-.35-.15,1,1,0,0,1-.28-.27.83.83,0,0,1-.14-.35.86.86,0,0,1,0-.39l.92-4.24a3,3,0,0,1,.45-1,3.08,3.08,0,0,1,.82-.79,2.88,2.88,0,0,1,1-.41,2.92,2.92,0,0,1,1.14,0l1.88.4a.93.93,0,0,1,.73,1.15A1,1,0,0,1,116.6,270Z"/><path class="cls-30" d="M110,267l-1.44-.31a1,1,0,0,0-1.13.73v0a1,1,0,0,0,.73,1.13l1.44.31a1,1,0,0,0,1.13-.72v0A1,1,0,0,0,110,267Z"/><circle class="cls-31" cx="99.05" cy="274.51" r="7.74"/><circle class="cls-32" cx="99.05" cy="274.51" r="7.16"/><circle class="cls-33" cx="99.05" cy="274.51" r="6.52"/><path class="cls-34" d="M100.21,281.79a7.32,7.32,0,1,1-2.36-14.45,8,8,0,0,1,1.28-.1s-3.3,2.25-2.73,7.6C96.94,279.9,100.21,281.79,100.21,281.79Z"/><path class="cls-35" d="M103.4,277.13l-1.87-.05a1,1,0,0,1-.33-.08.8.8,0,0,1-.28-.2.79.79,0,0,1-.18-.29,1,1,0,0,1-.06-.34h0a1,1,0,0,1,.1-.39,1,1,0,0,1,.27-.3l.47-.33a1,1,0,0,0-.64-.4,1,1,0,0,0-.73.17l-3.52,2.5a1,1,0,0,1-1.34-.19.88.88,0,0,1-.17-.35,1,1,0,0,1,0-.38.92.92,0,0,1,.13-.36,1,1,0,0,1,.26-.28L99,273.33a3,3,0,0,1,1-.46,3.12,3.12,0,0,1,1.14,0,3.07,3.07,0,0,1,1.05.41,2.81,2.81,0,0,1,.83.78l1.11,1.57a.92.92,0,0,1-.23,1.34A1,1,0,0,1,103.4,277.13Z"/><path class="cls-36" d="M100.58,270.48l-.85-1.2a1,1,0,0,0-1.33-.23l0,0a1,1,0,0,0-.23,1.32l.86,1.2a1,1,0,0,0,1.32.23l0,0A1,1,0,0,0,100.58,270.48Z"/><circle class="cls-37" cx="111.62" cy="278.78" r="7.74"/><circle class="cls-38" cx="111.62" cy="278.78" r="7.16"/><circle class="cls-39" cx="111.62" cy="278.78" r="6.52"/><path class="cls-40" d="M118.94,277.88a7.32,7.32,0,0,1-14.53,1.83,7.88,7.88,0,0,1,0-1.28s2.13,3.39,7.49,3C116.93,281.08,118.94,277.88,118.94,277.88Z"/><path class="cls-41" d="M114.4,274.53l-.12,1.86a1,1,0,0,1-.09.33.9.9,0,0,1-.21.27,1.11,1.11,0,0,1-.3.17,1,1,0,0,1-.34,0h0a.77.77,0,0,1-.39-.11.86.86,0,0,1-.29-.28l-.31-.48a1,1,0,0,0-.42.62,1,1,0,0,0,.14.74l2.37,3.61a1,1,0,0,1-.24,1.33.86.86,0,0,1-.35.16,1,1,0,0,1-.38,0,1.14,1.14,0,0,1-.36-.15.87.87,0,0,1-.27-.27l-2.38-3.63a2.89,2.89,0,0,1-.43-1.06,3.07,3.07,0,0,1,0-1.13,2.84,2.84,0,0,1,.45-1,2.81,2.81,0,0,1,.81-.8l1.6-1.05a.92.92,0,0,1,1.34.28A1,1,0,0,1,114.4,274.53Z"/><path class="cls-42" d="M107.65,277.1l-1.23.81a1,1,0,0,0-.28,1.32l0,0a.94.94,0,0,0,1.31.27l1.23-.81a.94.94,0,0,0,.28-1.31l0,0A1,1,0,0,0,107.65,277.1Z"/><circle class="cls-43" cx="124.19" cy="280.12" r="7.74"/><circle class="cls-44" cx="124.19" cy="280.12" r="7.16"/><circle class="cls-45" cx="124.19" cy="280.12" r="6.52"/><path class="cls-46" d="M129.58,285.15a7.32,7.32,0,1,1-10.74-10,7,7,0,0,1,1-.86s-1.23,3.8,2.5,7.67C125.84,285.66,129.58,285.15,129.58,285.15Z"/><path class="cls-47" d="M129.23,279.52l-1.5,1.1a.87.87,0,0,1-.31.14,1,1,0,0,1-.34,0,.82.82,0,0,1-.32-.12,1,1,0,0,1-.26-.23h0a.84.84,0,0,1-.15-.38.78.78,0,0,1,0-.4l.17-.54a1,1,0,0,0-.75.07,1,1,0,0,0-.47.58l-1.25,4.14a1,1,0,0,1-1.18.67.91.91,0,0,1-.34-.17.79.79,0,0,1-.25-.29,1.09,1.09,0,0,1-.12-.36,1,1,0,0,1,0-.39l1.25-4.15a2.7,2.7,0,0,1,.54-1,2.87,2.87,0,0,1,.87-.72,2.82,2.82,0,0,1,1.09-.33,2.89,2.89,0,0,1,1.13.11l1.84.55a.93.93,0,0,1,.64,1.21A1,1,0,0,1,129.23,279.52Z"/><path class="cls-48" d="M122.92,276l-1.4-.43a1,1,0,0,0-1.19.63v0a1,1,0,0,0,.64,1.18l1.41.43a1,1,0,0,0,1.18-.63v0A.94.94,0,0,0,122.92,276Z"/><path class="cls-49" d="M88.89,308.49a59.92,59.92,0,0,1-8,0l-.75,6.16s18.58.14,29.78,1.68,32.09,1.79,34.39,1.16l.62-1.76a102.61,102.61,0,0,1-3-11c-.45-2-.9-3.95-1.21-5.95-.19-1.23-.32-2.47-.42-3.72-9.11,3.94-18.75,6.63-28.38,9.1C104.33,306.14,96.69,308,88.89,308.49Z"/><path class="cls-50" d="M84.88,275.42l-4,33.08a59.92,59.92,0,0,0,8,0c7.8-.52,15.44-2.35,23-4.29,9.63-2.47,19.27-5.16,28.38-9.1-.44-5.34-.25-10.77-1.09-16C135.15,279,93.58,278.51,84.88,275.42Z"/><path class="cls-11" d="M142.6,271.51l-3.09,7.55h-.32c1,6.5.51,13.23,1.51,19.76.31,2,.76,4,1.21,5.95a102.61,102.61,0,0,0,3,11l3.64-10.41Z"/><path class="cls-12" d="M84,276.23a40.11,40.11,0,0,0,11.54,2.2q6.12.46,12.24.91c4.17.31,8.35.56,12.53.72s8.13.31,12.17.15a63.18,63.18,0,0,0,7.27-.83l-.95-.39s.05.08.05.11-.06-.15,0-.06a2.09,2.09,0,0,1,.08.23,5,5,0,0,1,.14.52,8.76,8.76,0,0,1,.17,1.14c.1,1,.14,2,.16,2.94s0,1.85,0,2.77c0,1.07.16,2.14.26,3.2q.45,4.67.86,9.34c.26,2.92.47,5.86.86,8.77a36.54,36.54,0,0,0,2.39,9.38l-.08-.65c0,.2,0,.08,0,.06s-.12.07,0,0a2.76,2.76,0,0,1-.32.12,5.76,5.76,0,0,1-1.12.1c-1.06,0-2.13.05-3.19,0-2.16,0-4.31-.1-6.47-.22-4.28-.22-8.57-.48-12.85-.72-8.51-.5-17-1-25.52-1.66-2.41-.18-4.81-.36-7.21-.56a26.53,26.53,0,0,0-7.12,0l1.07.81,3.2-30.61.9-8.63a.85.85,0,0,0-.84-.85.87.87,0,0,0-.85.85L80.16,306l-.9,8.63c-.06.6.58.91,1.07.82a21.09,21.09,0,0,1,5.5,0l5.53.45c3.74.29,7.49.55,11.24.81,7.5.5,15,.94,22.51,1.36,3.75.22,7.5.47,11.25.59,1.9.06,3.81.07,5.71,0a5.8,5.8,0,0,0,2.19-.32,1.5,1.5,0,0,0,1-1.88,36.89,36.89,0,0,1-2.33-10c-.41-3.58-.67-7.17-1-10.75q-.25-2.8-.53-5.6c-.12-1.3-.28-2.58-.3-3.88a37.25,37.25,0,0,0-.42-6.92,4.93,4.93,0,0,0-.43-1.24.87.87,0,0,0-1-.39c-2,.32-3.94.58-6,.72-1.75.13-3.52.09-5.27.08-2.07,0-4.13-.06-6.2-.12-8.23-.27-16.42-1-24.64-1.58-4.31-.29-8.64-.68-12.72-2.25a.85.85,0,0,0-.45,1.63Z"/><path class="cls-12" d="M140.35,279.29l2.57-7.52a.85.85,0,0,0-1.63-.45l-2.57,7.52a.86.86,0,0,0,.59,1,.87.87,0,0,0,1-.59Z"/><path class="cls-12" d="M141.78,271.73q1.8,13.31,4.41,26.48c.49,2.45,1,4.9,1.52,7.35.23,1.06,1.86.61,1.63-.45q-2.84-13.12-4.86-26.4c-.38-2.47-.73-4.95-1.07-7.43a.85.85,0,0,0-1-.59.87.87,0,0,0-.59,1Z"/><path class="cls-12" d="M147.71,305l-2.29,6.25-1.11,3a14.5,14.5,0,0,0-.88,3.22.85.85,0,0,0,.84.85.87.87,0,0,0,.85-.85,12.94,12.94,0,0,1,.88-2.92l1.11-3.05,2.23-6.09a.85.85,0,0,0-1.63-.45Z"/><path class="cls-11" d="M85.3,275.61c1.93-.95,3.88-1.85,5.77-2.86a.86.86,0,0,0,.3-1.16.85.85,0,0,0-1.15-.3c-1.9,1-3.85,1.91-5.77,2.86a.85.85,0,0,0-.3,1.16.86.86,0,0,0,1.15.3Z"/><path class="cls-12" d="M139.64,278.6a40.94,40.94,0,0,0-5.86-13.6,26,26,0,0,0-10.92-9.18,20.69,20.69,0,0,0-7-1.72,20,20,0,0,0-7.29,1c-4.78,1.53-9,4.47-12.87,7.61a44,44,0,0,0-9.93,10.92c-.32.52-.62,1.05-.91,1.59-.52,1,.94,1.81,1.46.86a39.44,39.44,0,0,1,9-10.85,44.4,44.4,0,0,1,11.84-7.81,20,20,0,0,1,6.81-1.6,18.22,18.22,0,0,1,6.63,1,23.56,23.56,0,0,1,10.81,7.91,36.4,36.4,0,0,1,6.11,12.67c.16.57.32,1.14.46,1.72a.85.85,0,0,0,1.63-.45Z"/><path class="cls-51" d="M169.28,211.09c1.35-2.41,4.62-3.15,7.28-2.42s4.84,2.57,6.92,4.38q8.07,7,15.91,14.31,18.66,17.34,36,36.07,8.64,9.36,16.92,19.05c2.39,2.79,6,7.94,8.26,10.81,0,0,8.45,13.37,10.43,16.54l4.09,6.59-11.43,7.35-9.93-17.16c-3.46-4-6.13-8.51-9.44-12.61a541.35,541.35,0,0,0-70.11-72C170.83,219.21,167.15,214.87,169.28,211.09Z"/><path class="cls-2" d="M178.4,214.63S246.89,276.86,270.33,322c0,0-4.79,3.46-6.51.62-8.57-14.17-25.88-37.08-47-60.05a512.3,512.3,0,0,0-43-41.23Z"/><path class="cls-3" d="M263.3,323.47c-4.86-8-17.48-25.89-19.6-28.52a541.68,541.68,0,0,0-70.22-72.15c-5.21-4.44-7-8.78-5.09-12.21,1.67-3,5.5-3.7,8.43-2.9s5.39,2.91,7.32,4.6c4.09,3.55,8.19,7.21,12.19,10.88,12.51,11.44,24.73,23.51,36.32,35.88,5.8,6.18,11.55,12.56,17.1,19,2.3,2.65,20.63,25.63,25.36,38l-1.89.72c-2.38-6.23-8.48-15.38-13.18-22-5.55-7.78-10.68-14.14-11.82-15.46-5.54-6.38-11.27-12.74-17.05-18.9-11.56-12.34-23.74-24.37-36.2-35.78-4-3.65-8.09-7.3-12.16-10.84-2.26-2-4.18-3.54-6.52-4.17-2.12-.58-5-.1-6.13,1.93-1.89,3.37,2.09,7.51,4.63,9.67a544,544,0,0,1,70.49,72.43c2.2,2.72,14.73,20.51,19.75,28.73Z"/><path class="cls-52" d="M204.6,221.2l-38-172.93s-59,3.87-59,75.41C107.66,190.68,149.69,236.3,204.6,221.2Z"/><path class="cls-3" d="M180.46,225.09c-13.08,0-26.43-5.61-38.48-16.33-15.15-13.48-26.44-33.47-31.8-56.28s-4.15-45.73,3.41-64.55,20.73-31.47,37-35.28c18.88-5.07,33.84-4.09,45.71,3,20.21,12.08,28.33,40.41,34.9,68.39,3.37,14.34,6.57,29.48,7.15,43.07.63,14.75-1.9,26.21-7.74,35C223,213.5,210,220.62,190.76,223.9A45.35,45.35,0,0,1,180.46,225.09ZM172.22,51.5A82.38,82.38,0,0,0,151,54.61c-15.59,3.67-28.21,15.77-35.57,34.08s-8.58,40.92-3.32,63.33,16.34,42,31.18,55.23,31.43,18.32,47,14.67l.06,0c18.68-3.17,31.27-10,38.49-20.88,5.6-8.44,8-19.5,7.41-33.82-.58-13.42-3.76-28.44-7.1-42.68-6.48-27.56-14.44-55.44-34-67.12C188.64,53.46,181,51.5,172.22,51.5Z"/><path class="cls-53" d="M268.5,165.53a2,2,0,0,1-1.14.92A7.78,7.78,0,0,1,268.5,165.53Z"/><path class="cls-2" d="M227.3,128.66a3.75,3.75,0,0,1,1-1.06,5,5,0,0,1,2.74-.92,4.68,4.68,0,0,0-.3.64,6.6,6.6,0,0,0,.56,5.2,19.77,19.77,0,0,0,3.3,4.23l29.12,31c.64.69,1.46,1.43,2.38,1.26.46-.09.85-.39,1.29-.51a3.41,3.41,0,0,1,1.52.1l3.17.72,1.11,4.53a9.15,9.15,0,0,1-7.88-.46c-.23-.12-.46-.24-.68-.37a30.12,30.12,0,0,1-5.74-4.66l-7.38-7.09c-8.23-7.91-16.53-15.91-22.78-25.46C227.3,133.64,226,130.85,227.3,128.66Z"/><path class="cls-54" d="M268.87,168.57l3.17.72-1.23-5a160.41,160.41,0,0,0-33.09-34.59,13.64,13.64,0,0,0-5.17-2.85,5.7,5.7,0,0,0-1.55-.12,4.68,4.68,0,0,0-.3.64,6.6,6.6,0,0,0,.56,5.2,19.77,19.77,0,0,0,3.3,4.23l29.12,31c.64.69,2.46,2.58,3.39,2.41.45-.09-.45.12,0,0S268.37,168.46,268.87,168.57Z"/><path class="cls-3" d="M269.31,176a7.24,7.24,0,0,1-3.42-1.16c-.33-.18-.69-.37-1.08-.56a27.94,27.94,0,0,1-6.66-5.21L250.76,162c-8.15-7.84-16.58-15.94-22.91-25.64-2.22-3.39-2.69-6.07-1.42-8.19s4.23-2.79,6.34-2.33a14.38,14.38,0,0,1,5.57,3,161,161,0,0,1,33.3,34.81,1,1,0,0,1-.25,1.41,1,1,0,0,1-1.41-.24,158.63,158.63,0,0,0-32.88-34.37,12.62,12.62,0,0,0-4.77-2.67c-1.46-.32-3.36,0-4.16,1.38s-.35,3.41,1.37,6.06c6.21,9.5,14.56,17.52,22.63,25.28l7.38,7.09a26.11,26.11,0,0,0,6.17,4.85c.41.2.78.4,1.13.59,1.68.9,2.38,1.28,4,.51a1,1,0,0,1,.88,1.83A5.41,5.41,0,0,1,269.31,176Z"/><path class="cls-4" d="M296.93,323a60.83,60.83,0,0,0,16.63-12.23,6.27,6.27,0,0,0-.1-1.1,22,22,0,0,0-.81-2.45l-15.39-2.31-32,27.81s-.22,1.09,1.49,1.66a2.23,2.23,0,0,0,.63,2.47c7.09-1.72,13.31-6.16,19.91-9.4C290.43,325.88,293.75,324.58,296.93,323Z"/><path class="cls-5" d="M313.56,310.77A60.83,60.83,0,0,1,296.93,323c-3.18,1.58-6.5,2.88-9.68,4.45-6.6,3.24-12.82,7.68-19.91,9.4l.14.14a5.14,5.14,0,0,1,1.25,3.43,35.33,35.33,0,0,0,9.08-3.6c3.68-2,7.16-4.36,10.89-6.28,2.52-1.3,5.15-2.4,7.68-3.71a53.28,53.28,0,0,0,17.11-14C313.52,312.3,313.57,311.49,313.56,310.77Z"/><path class="cls-6" d="M296.38,326.83c-2.53,1.31-5.16,2.41-7.68,3.71-3.73,1.92-7.21,4.28-10.89,6.28a35.33,35.33,0,0,1-9.08,3.6,3.89,3.89,0,0,0,.08.7c.14.33,1,2.78,5.63,1s8.55-6.1,15.88-9,17.5-10.86,20.33-14.79,2.8-5.07,2.8-5.07,0-.18,0-.46A53.28,53.28,0,0,1,296.38,326.83Z"/><path class="cls-7" d="M257.67,321.68s.93,3.2,3.12,4.67-.61,2.13,4.62,5.95c0,0,13-6.29,18.07-6.87s14.12-7.64,20.36-10.37a17.09,17.09,0,0,0,8.53-8.41s-2.06-3.9.4-6.65,3.09-2.44,3.09-2.44-2-1.81-8.73.61a83,83,0,0,1-18,3.93c-2.43.14-14.27-.73-15.49-.6s-4.73-.8-4.83,7.48.41,11.64-5.43,9.85C259.53,317.66,258.45,315.83,257.67,321.68Z"/><path class="cls-8" d="M312.19,300.81c-1.51,2.94-1.31,3.24.18,5.84s.32,4.66,1.12,6.14,2.26.81,4-2.49,3.8-5.29,1.7-8.95S314.93,295.47,312.19,300.81Z"/><path class="cls-9" d="M261,326.65l4.67,0s.33-2.12,5-3.43,16.67-7.91,18.49-8.64,11.71-5.55,13.18-6,6.91-2.34,6.91-2.34-12.58,9.78-17.25,13-9.86,6.8-9.86,6.8-5.72.16-16.89,6.74C265.22,332.72,262.9,331.07,261,326.65Z"/><path class="cls-9" d="M279.23,304.78s-4.61,4.59-4.31,5.32,3.25-1.51,4.48-3.07.85,3.05,1.1,3.76,1.63,1.49,1.4-2.33,0-3.51,0-3.51l3.84-3.06h-3.26l-3.3.24Z"/><path class="cls-9" d="M286.56,304.66s-4.31,4.32-4,5,3.09-1.38,4.23-2.86.91,3,1.18,3.69,1.61,1.5,1.28-2.22-.51-3.07-.51-3.07l4-3.21-3.14-.1-3.18.13Z"/><path class="cls-9" d="M293.74,303.53s-4.13,4.13-3.83,4.83,3-1.31,4-2.73.89,2.88,1.15,3.55,1.56,1.45,1.22-2.12-.09-3.29-.09-3.29L299.7,301l-3-.12-3.06.12Z"/><path class="cls-10" d="M265.58,332a6.27,6.27,0,0,1-2.69-2.61,23.44,23.44,0,0,0-2-3.39,17.41,17.41,0,0,1-2.55-3.2,3.64,3.64,0,0,1,0-3.28,2.09,2.09,0,0,1,1.21-1,4,4,0,0,1,2.44.27,8.56,8.56,0,0,0,4,.64,3.87,3.87,0,0,0,3-2,6.72,6.72,0,0,0,.49-3.63c-.11-1.4-.4-2.79-.39-4.2a14.5,14.5,0,0,1,.85-4.84,3.87,3.87,0,0,1,2.26-2.68,7,7,0,0,1,3.12,0,65.09,65.09,0,0,0,19.85-.29,66.38,66.38,0,0,0,10-2.47c1.48-.49,2.91-1.11,4.39-1.61a8.26,8.26,0,0,1,4-.52,7,7,0,0,1,2.12.75c.38.21.72-.37.34-.58a7.08,7.08,0,0,0-4.15-.88,16.5,16.5,0,0,0-4.16,1.2,65.62,65.62,0,0,1-10,3,67.6,67.6,0,0,1-10.7,1.34,57.9,57.9,0,0,1-10.53-.42c-2.09-.3-4.6-.82-6.12,1.07a9.37,9.37,0,0,0-1.63,4.19,15.48,15.48,0,0,0-.14,4.85c.3,2.4,1,6.17-2.11,7a7,7,0,0,1-4.19-.5c-1.33-.45-2.87-.73-4,.37a3.87,3.87,0,0,0-1,3.12,6,6,0,0,0,1.71,3.32c.46.53.95,1,1.39,1.56a8.92,8.92,0,0,1,1.11,1.79,11.14,11.14,0,0,0,2.06,3.18,6.15,6.15,0,0,0,1.64,1.13c.39.19.73-.39.34-.58Z"/><path class="cls-10" d="M311.3,304.69c.37,1.73,1.62,3.21,1.82,5,.13,1.14-.51,2.37-.11,3.48a1.33,1.33,0,0,0,1.85.61,5.54,5.54,0,0,0,2-1.87,24.82,24.82,0,0,0,2.82-5,8.44,8.44,0,0,0,.73-2.4,5.07,5.07,0,0,0-.59-2.72,15.26,15.26,0,0,0-1.57-2.51,5.8,5.8,0,0,0-1.85-1.87c-1.5-.74-2.84,1-3.61,2a6.88,6.88,0,0,0-1.47,5.28c.08.43.73.25.65-.18A6.12,6.12,0,0,1,313.2,300a9,9,0,0,1,1.16-1.39c.39-.37.95-.83,1.53-.66.76.22,1.36,1.15,1.81,1.74a16.39,16.39,0,0,1,1.42,2.25,4.6,4.6,0,0,1,.6,2.58,8.13,8.13,0,0,1-.66,2.09,26.56,26.56,0,0,1-2.41,4.41,7.42,7.42,0,0,1-1.73,2c-.37.25-1,.51-1.28,0a4,4,0,0,1,0-1.78,6,6,0,0,0,.09-1.69c-.29-1.75-1.45-3.2-1.82-4.93C311.86,304.09,311.21,304.27,311.3,304.69Z"/><path class="cls-10" d="M265.19,332.12a2,2,0,0,0,1.43,2.58l-.2-.49a2.62,2.62,0,0,0,.64,2.79,5.06,5.06,0,0,1,.85,1.29,6.42,6.42,0,0,1,.29,1.5,3.63,3.63,0,0,0,1.06,2.55,3.77,3.77,0,0,0,2.36.74,9.89,9.89,0,0,0,4.72-1.6c1.6-.91,3.09-2,4.62-3a62,62,0,0,1,5.66-3.08c2.25-1.16,4.51-2.31,6.73-3.52a76,76,0,0,0,11.31-7.3,39,39,0,0,0,9.57-10.77.34.34,0,0,0-.59-.34c-4.21,7.3-11.17,12.46-18.37,16.57-4.17,2.38-8.48,4.47-12.72,6.72-3,1.58-5.54,4-8.74,5.19-1.62.6-4.24.9-4.78-1.27a12.77,12.77,0,0,0-.66-3c-.48-.93-1.93-1.95-1.37-3.13a.34.34,0,0,0-.2-.5,1.34,1.34,0,0,1-1-1.75c.14-.41-.52-.59-.65-.18Z"/><path class="cls-10" d="M265.53,332.89l5.29-2.53c1.73-.83,3.45-1.7,5.25-2.36s3.66-1.09,5.5-1.61a48.93,48.93,0,0,0,5.14-1.81,95.52,95.52,0,0,0,9.71-4.85c3-1.65,6-3.28,8.79-5.14a28.08,28.08,0,0,0,7.73-7.2c.25-.36-.34-.7-.59-.34-3.77,5.38-9.79,8.45-15.38,11.6a104.75,104.75,0,0,1-9.67,5,49.71,49.71,0,0,1-5.15,1.91c-1.77.54-3.58.95-5.34,1.52a47.51,47.51,0,0,0-5.73,2.46l-5.89,2.82c-.4.19-.05.77.34.58Z"/><path class="cls-10" d="M270.2,330.21a8.57,8.57,0,0,1-3.64-1.69,1.75,1.75,0,0,1-.72-1.5,2.51,2.51,0,0,1,1-1.66,15.75,15.75,0,0,1,4.47-2.09c1.77-.69,3.51-1.44,5.23-2.22,7-3.16,13.69-6.89,20.69-10a84.3,84.3,0,0,1,12.1-4.44L309,306q-10.15,8.1-20.92,15.39-3,2-6,4c-.36.24,0,.82.34.58q10.95-7.07,21.32-15c1.94-1.48,3.87-3,5.78-4.51.28-.22,0-.65-.33-.57-7.76,2.11-15,5.69-22.16,9.28-3.6,1.81-7.19,3.62-10.85,5.28-1.86.83-3.73,1.63-5.63,2.36a13,13,0,0,0-4.32,2.17,2.55,2.55,0,0,0-.35,3.77,8.61,8.61,0,0,0,4.16,2.06c.42.1.6-.55.17-.65Z"/><path class="cls-10" d="M265.31,325.87l-4.52.14c-.43,0-.44.69,0,.68l4.52-.14c.43,0,.43-.69,0-.68Z"/><path class="cls-10" d="M282.14,302.11a32.89,32.89,0,0,0-7.42,6.9.94.94,0,0,0,.18,1.5,1.49,1.49,0,0,0,1.74-.42c.65-.58,1.24-1.23,1.88-1.82s1.32-1.2,2-1.77a49.65,49.65,0,0,1,4.83-3.56c.36-.23,0-.82-.34-.58a52.11,52.11,0,0,0-7.14,5.58c-.55.52-1.07,1.06-1.62,1.58-.22.21-.55.53-.89.45-.56-.13-.05-.64.14-.88a35.41,35.41,0,0,1,3-3.22,33.33,33.33,0,0,1,3.94-3.17c.36-.25,0-.83-.34-.59Z"/><path class="cls-10" d="M279.32,304.51a8,8,0,0,1,.22-2.54.34.34,0,0,0-.66-.18,8.9,8.9,0,0,0-.23,2.72.34.34,0,0,0,.34.34.34.34,0,0,0,.33-.34Z"/><path class="cls-10" d="M279.73,306.82a12.8,12.8,0,0,0,1.13,4.87.34.34,0,0,0,.29.17c1.19-.14,1.45-1.36,1.38-2.36-.09-1.31-.21-2.62-.31-3.93,0-.43-.71-.44-.68,0l.26,3.24a6.58,6.58,0,0,1,.05,1.47c-.05.37-.27.85-.7.91l.3.16a11.8,11.8,0,0,1-1-4.53.34.34,0,0,0-.68,0Z"/><path class="cls-10" d="M289.85,301.75a31.92,31.92,0,0,0-4.06,3.27c-.69.63-1.35,1.29-2,2-.26.27-.51.56-.76.84a6.12,6.12,0,0,0-.81,1,1,1,0,0,0,1,1.28c.74-.06,1.29-.84,1.78-1.32q1.81-1.74,3.77-3.34a41.56,41.56,0,0,1,4.53-3.37c.37-.23,0-.81-.34-.58a51.53,51.53,0,0,0-7,5.48c-.51.46-1,.93-1.51,1.41-.24.23-.46.48-.71.7a1.25,1.25,0,0,1-.49.33c-.25.06-.57-.07-.4-.37a5.72,5.72,0,0,1,.67-.82c.26-.3.53-.6.81-.89q.81-.87,1.68-1.68a32.41,32.41,0,0,1,4.13-3.36c.36-.24,0-.83-.34-.58Z"/><path class="cls-10" d="M286.45,304.74a7.32,7.32,0,0,1,.1-2.24.34.34,0,0,0-.65-.18,7.57,7.57,0,0,0-.13,2.42.35.35,0,0,0,.34.34.34.34,0,0,0,.34-.34Z"/><path class="cls-10" d="M286.81,306.83a11.77,11.77,0,0,0,1.16,4.39.31.31,0,0,0,.29.17,1.28,1.28,0,0,0,1-.69,2.43,2.43,0,0,0,.16-1.46c-.12-1.16-.26-2.31-.39-3.46-.05-.43-.72-.44-.68,0l.33,2.86a6.57,6.57,0,0,1,.1,1.33c0,.3-.19.71-.55.75l.29.16a11,11,0,0,1-1.07-4.05c0-.43-.7-.43-.67,0Z"/><path class="cls-10" d="M297.71,300.44a42.47,42.47,0,0,0-4,3.25,36,36,0,0,0-3.66,3.75,1.27,1.27,0,0,0-.45.95.84.84,0,0,0,.66.67c.79.19,1.4-.61,1.89-1.1,1.24-1.22,2.53-2.39,3.85-3.52a49.94,49.94,0,0,1,4.54-3.55c.36-.24,0-.83-.34-.58a59,59,0,0,0-7.1,5.81c-.54.5-1.06,1-1.58,1.51a3.24,3.24,0,0,1-.78.7c-.28.14-.58.1-.35-.26.1-.14.23-.27.34-.4a39.29,39.29,0,0,1,3.26-3.32,41.29,41.29,0,0,1,4-3.33c.35-.25,0-.83-.34-.58Z"/><path class="cls-10" d="M294,303.81a6.8,6.8,0,0,1,.26-2.1.34.34,0,0,0-.24-.41.35.35,0,0,0-.42.23,8,8,0,0,0-.28,2.28.35.35,0,0,0,.34.34.34.34,0,0,0,.34-.34Z"/><path class="cls-10" d="M294.13,305.7a10.15,10.15,0,0,0,.76,4,.36.36,0,0,0,.42.24c1-.16,1.2-1.27,1.17-2.09,0-1.07-.09-2.14-.14-3.21,0-.43-.69-.43-.67,0l.11,2.74c0,.6.19,1.77-.65,1.91l.42.23a9.44,9.44,0,0,1-.74-3.78.34.34,0,0,0-.68,0Z"/><path class="cls-10" d="M271,329.85h0a7.34,7.34,0,0,1-.8-.31.17.17,0,0,1,.13-.31c.45.19.77.3.78.3a.18.18,0,0,1,.1.22A.16.16,0,0,1,271,329.85Z"/><path class="cls-10" d="M268.73,328.75l-.09,0a3.2,3.2,0,0,1-1.26-1.27.17.17,0,1,1,.31-.13,2.83,2.83,0,0,0,1.13,1.11.18.18,0,0,1,.05.24A.15.15,0,0,1,268.73,328.75Zm-.58-2.62a.17.17,0,0,1-.14-.06.17.17,0,0,1,0-.24,9.77,9.77,0,0,1,1.5-.88.17.17,0,0,1,.23.07.17.17,0,0,1-.08.23,9,9,0,0,0-1.44.85A.19.19,0,0,1,268.15,326.13Zm3-1.56a.17.17,0,0,1-.16-.11.18.18,0,0,1,.1-.22c.48-.2,1-.41,1.59-.62a.17.17,0,0,1,.22.1.17.17,0,0,1-.1.22c-.57.21-1.11.42-1.59.62Zm3.2-1.2a.18.18,0,0,1-.16-.12.17.17,0,0,1,.11-.21l1.62-.55a.17.17,0,0,1,.21.1.18.18,0,0,1-.1.22l-1.62.55Zm3.25-1.09a.16.16,0,0,1-.16-.12.17.17,0,0,1,.1-.21l1.34-.43.28-.1a.17.17,0,0,1,.22.1.17.17,0,0,1-.1.22l-.3.1-1.33.43Zm3.21-1.18a.18.18,0,0,1-.16-.1.17.17,0,0,1,.09-.23c.46-.2,1-.44,1.55-.71a.17.17,0,0,1,.14.3c-.57.27-1.09.52-1.55.72Zm3.09-1.47a.18.18,0,0,1-.15-.1.16.16,0,0,1,.07-.22l1.53-.78a.17.17,0,0,1,.23.08.16.16,0,0,1-.08.22l-1.53.78Zm3.05-1.56a.19.19,0,0,1-.15-.09.16.16,0,0,1,.07-.23l1.51-.8a.17.17,0,1,1,.16.3l-1.52.8Zm3-1.6a.19.19,0,0,1-.15-.09.17.17,0,0,1,.07-.23l1.51-.81a.18.18,0,0,1,.23.07.18.18,0,0,1-.07.23l-1.51.81Zm3-1.62a.19.19,0,0,1-.15-.09.18.18,0,0,1,.07-.23l1.51-.81a.15.15,0,0,1,.22.07.15.15,0,0,1-.06.22l-1.51.82Zm3-1.62a.17.17,0,0,1-.14-.09.16.16,0,0,1,.07-.23l1.52-.8a.17.17,0,1,1,.15.31l-1.52.79Zm3.08-1.52a.17.17,0,0,1-.08-.33c.44-.2,1-.46,1.54-.74a.17.17,0,1,1,.15.3l-1.54.75Zm3.07-1.51a.18.18,0,0,1-.16-.1.17.17,0,0,1,.08-.22l1.53-.77a.18.18,0,0,1,.23.07.18.18,0,0,1-.08.23l-1.53.77Zm3.05-1.55a.16.16,0,0,1-.15-.09.18.18,0,0,1,.07-.23l1.53-.77a.17.17,0,1,1,.15.3l-1.52.78Z"/><path class="cls-10" d="M308.22,307.12a.16.16,0,0,1-.15-.09.17.17,0,0,1,.08-.23l.75-.38a.16.16,0,0,1,.22.07.17.17,0,0,1-.07.23l-.75.39Z"/><path class="cls-10" d="M267.46,331.43l-.07,0c-.25-.12-.49-.25-.71-.37a.17.17,0,0,1-.06-.23.17.17,0,0,1,.23-.07,7.37,7.37,0,0,0,.69.37.17.17,0,0,1,.07.23A.16.16,0,0,1,267.46,331.43Zm-2.06-1.35a.18.18,0,0,1-.12-.05,4.56,4.56,0,0,1-1.07-1.37.16.16,0,0,1,.08-.22.16.16,0,0,1,.22.07,4.34,4.34,0,0,0,1,1.27.17.17,0,0,1,0,.24A.16.16,0,0,1,265.4,330.08ZM263.22,328h0a9.6,9.6,0,0,1-1.7-.29.16.16,0,1,1,.08-.32,10.37,10.37,0,0,0,1.63.27.18.18,0,0,1,.17.18A.17.17,0,0,1,263.22,328Z"/><ellipse class="cls-55" cx="184.42" cy="135.04" rx="62.1" ry="88.39" transform="translate(-26 45.77) rotate(-13.23)"/><ellipse class="cls-56" cx="184.42" cy="135.04" rx="58.36" ry="83.06" transform="translate(-26 45.77) rotate(-13.23)"/><ellipse class="cls-57" cx="184.42" cy="135.04" rx="52.02" ry="74.05" transform="translate(-26 45.77) rotate(-13.23)"/><path class="cls-58" d="M268.82,167.29s13.67-22.77,23.2-31.57,10.6-8.15,11-4.24-6.41,18-17,29.39-14.78,13.93-16.67,13.18S267.2,169.63,268.82,167.29Z"/><path class="cls-2" d="M268.31,168.15s1.1,1.91,4.22.85,20-20.67,25-30.32,5-9.92,5-9.92a35.65,35.65,0,0,1-.64,7.21c-.67,2.33-7.64,14-13.33,21.63s-14.55,15.76-17,16.81-4.61-1.9-4.84-2.85S268.31,168.15,268.31,168.15Z"/><path class="cls-3" d="M269.65,175.85a1.74,1.74,0,0,1-.59-.09,1,1,0,0,1,.56-1.95c.29,0,4.78-.34,18.39-17.23,12.54-15.57,15.13-25.15,13.67-26.6-.29-.3-1.54-.31-4.13,1.79-10.67,8.61-26.58,34.45-26.74,34.71a1,1,0,0,1-1.73-1.06c0-.07,4.09-6.65,9.42-14.23,7.19-10.22,13.17-17.28,17.77-21,2.15-1.73,5.07-3.42,6.85-1.65,3.29,3.29-2.28,15.34-13.53,29.31C276.75,173.79,271.5,175.85,269.65,175.85Zm.09-2Zm0,0h0Zm0,0Zm-.12,0Z"/><path class="cls-59" d="M213.68,105.83l-4.23,17.59a8.2,8.2,0,0,1-1.22,2.81,4.87,4.87,0,0,1-1.93,1.68,4,4,0,0,1-2.36.28,5.6,5.6,0,0,1-2.42-1.15l-.11-.09a10,10,0,0,1-2.45-3,14.74,14.74,0,0,1-1.51-4.08l-1.28-6.11c-1.75.38-3.2,1.84-4,4.08a14.48,14.48,0,0,0-.37,7.82l9.73,46.4c1.17,5.61-.58,11-4.07,11.89a4.54,4.54,0,0,1-2.72-.13,7.39,7.39,0,0,1-2.66-1.75,12,12,0,0,1-2.19-3.09,15.9,15.9,0,0,1-1.37-3.93l-9.78-46.65a48.14,48.14,0,0,1-1-12.24,36.44,36.44,0,0,1,2.15-11,22.52,22.52,0,0,1,5-8.1,14,14,0,0,1,7-3.94l13-2.73c3.84-.81,7.42,2.9,8.69,9A15.4,15.4,0,0,1,213.68,105.83Z"/><path class="cls-60" d="M162.41,99.27l-10,2.09c-3.55.75-5.47,5.91-4.29,11.54l.06.3c1.18,5.63,5,9.58,8.57,8.84l10-2.09c3.56-.75,5.48-5.91,4.3-11.54l-.06-.3C169.8,102.48,166,98.53,162.41,99.27Z"/><path class="cls-53" d="M98.24,194.15a1.83,1.83,0,0,0,1.27.53A6.43,6.43,0,0,0,98.24,194.15Z"/><path class="cls-2" d="M125.63,150.08a3.45,3.45,0,0,0-1.14-.69,4.66,4.66,0,0,0-2.72-.11,4.06,4.06,0,0,1,.44.49,6.17,6.17,0,0,1,.87,4.84,18.67,18.67,0,0,1-1.86,4.68l-18.06,35.57c-.4.78-.94,1.67-1.82,1.76-.43,0-.86-.13-1.29-.12a3.16,3.16,0,0,0-1.34.49c-.89.49-2.75,4.18-3.64,4.68l1.16,1.17a8.57,8.57,0,0,0,7-2.49l.51-.51a28.29,28.29,0,0,0,3.94-5.71l4.78-8.33c5.32-9.29,10.7-18.69,13.8-28.93C126.94,154.57,127.38,151.71,125.63,150.08Z"/><path class="cls-61" d="M100.74,197.92c.44,0-.43,0,0,0,.88-.09,2-2.28,2.42-3.06l18.06-35.57a18.67,18.67,0,0,0,1.86-4.68,6.17,6.17,0,0,0-.87-4.84,4.06,4.06,0,0,0-.44-.49,5,5,0,0,0-1.36.52,12.51,12.51,0,0,0-3.9,3.93A150.32,150.32,0,0,0,95.82,193.6l-.44,8.07c.89-.5,2.44-4.19,3.33-4.68C99.13,196.76,100.26,197.93,100.74,197.92Z"/><path class="cls-3" d="M97.24,203.94a6.52,6.52,0,0,1-1.17-.1l-.44-.07-.24-.37c-2.73-4.14-1.17-12.3,4.61-24.26a184.16,184.16,0,0,1,15.69-26,13.32,13.32,0,0,1,4.23-4.22c1.8-1,4.57-1.27,6.4.43s2,4.15.9,7.82c-3.15,10.41-8.61,19.93-13.89,29.14l-4.78,8.34a26.17,26.17,0,0,1-4.65,6.45A10,10,0,0,1,97.24,203.94Zm-.39-2a7.82,7.82,0,0,0,5.68-2.3,24.54,24.54,0,0,0,4.26-6l4.78-8.34c5.22-9.11,10.62-18.53,13.71-28.72.85-2.81.73-4.74-.34-5.75a3.63,3.63,0,0,0-4-.13,11.88,11.88,0,0,0-3.56,3.63C106.23,169.59,92.76,194.14,96.85,201.9Z"/><path class="cls-62" d="M296.36,116.32a12.67,12.67,0,0,1-1.85,3.89,41.1,41.1,0,0,1-5.31,6.62,2,2,0,0,1,2.81.63,5.42,5.42,0,0,1,.73,3.29c-.05,2.06-.47,4.17.06,6.15s2.51,3.74,4.27,2.92a10.59,10.59,0,0,0,1.43-1,4.28,4.28,0,0,1,4.15-.43,5.17,5.17,0,0,0,2.08.77c1,0,1.76-.93,2.38-1.77l3-4a1,1,0,0,0,.29-.74c-.05-.26-.28-.44-.43-.65-.53-.76,0-1.82.56-2.57,1.26-1.76,2.94-3.7,5-3.34-1.2-1.31-.74-3.51,0-5.19s1.55-3.57.9-5.27a9.78,9.78,0,0,1-1.89,3.16,2.87,2.87,0,0,1-3.24.72c.61,1.5-.21,3.19-1,4.59s-1.64,2.87-2.45,4.31l-4.67-3.73a.67.67,0,0,1-.28-.9,6.45,6.45,0,0,1,4.6-4.23,15.4,15.4,0,0,1,3.85-9l-5.62,5.23a4.13,4.13,0,0,0-.87,1,5.62,5.62,0,0,0-.44,1.53,13.19,13.19,0,0,1-2,4.7,1.22,1.22,0,0,1-.65.56,1.13,1.13,0,0,1-.71-.13L297,121.85c1.12-2.86,3.63-4.93,4.56-7.88a9.22,9.22,0,0,0,.4-2.91c-2.68,3.54-4.93,7.2-4.93,7.2s.5-2.84-.58-4.2A6.6,6.6,0,0,1,296.36,116.32Z"/><path class="cls-63" d="M319.46,122c1.37-4.24.91-8.13-1.66-7.61,0,0-.62-.28.3-3.07s-2.6-5.42-6-2.4c0,0,.46-5.42-3.36-4.45-1.78.46-4.44,3.46-6.78,6.55a9.22,9.22,0,0,1-.4,2.91c-.93,3-3.44,5-4.56,7.88l3.91,1.61a1.13,1.13,0,0,0,.71.13,1.22,1.22,0,0,0,.65-.56,13.19,13.19,0,0,0,2-4.7,5.62,5.62,0,0,1,.44-1.53,4.13,4.13,0,0,1,.87-1l5.62-5.23a15.4,15.4,0,0,0-3.85,9,6.45,6.45,0,0,0-4.6,4.23.67.67,0,0,0,.28.9l4.67,3.73q1.22-2.16,2.45-4.31c.79-1.4,1.61-3.09,1-4.59a2.87,2.87,0,0,0,3.24-.72,9.78,9.78,0,0,0,1.89-3.16c.65,1.7-.21,3.59-.9,5.27s-1.16,3.88,0,5.19c-2-.36-3.71,1.58-5,3.34-.54.75-1.09,1.81-.56,2.57.15.21.38.39.43.65a1,1,0,0,1-.29.74l-3,4c-.62.84-1.38,1.75-2.38,1.77a5.17,5.17,0,0,1-2.08-.77,4.28,4.28,0,0,0-4.15.43,10.59,10.59,0,0,1-1.43,1c-1.76.82-3.75-.94-4.27-2.92s-.11-4.09-.06-6.15a5.42,5.42,0,0,0-.73-3.29,2,2,0,0,0-2.81-.63,41.1,41.1,0,0,0,5.31-6.62,12.67,12.67,0,0,0,1.85-3.89,6.6,6.6,0,0,0,.13-2.26,2,2,0,0,0-1.87-.7s-1.17-.31-2.52,2.64c0,0-6.05,7.35-6.89,8.91s-4,8-1.83,11.69.05,2.23,1.11,4.86,8.33,9.58,13,7c0,0,3.53,1.85,7.77-3.47S318.08,126.29,319.46,122Z"/><path class="cls-64" d="M289.67,142a.55.55,0,0,1-.18,0c-.08,0-8.19-2.26-7.53-9.39.57-6.17,4-10.16,7-13.68.35-.41.7-.81,1-1.22a36.43,36.43,0,0,0,2.4-3.19,3.29,3.29,0,0,1,2.09-1.76,2.33,2.33,0,0,1,2.4.9c1.06,1.23,1.67,3.67.21,6.79a26.18,26.18,0,0,1-4.53,6.72c.79,1,2.11,3.55,1.1,8.34a.69.69,0,0,1-.8.53.67.67,0,0,1-.52-.8c1.17-5.57-1.05-7.48-1.14-7.56a.72.72,0,0,1-.25-.51.69.69,0,0,1,.21-.51,24.31,24.31,0,0,0,4.71-6.78c1.19-2.55.74-4.47,0-5.34a1.12,1.12,0,0,0-1-.48c-.66.2-.73.29-1.35,1.21a34.93,34.93,0,0,1-2.48,3.31l-1,1.23c-3,3.53-6.1,7.18-6.64,12.92a6.61,6.61,0,0,0,3,6.2,11.8,11.8,0,0,0,3.55,1.76.68.68,0,0,1-.17,1.33Z"/><path class="cls-64" d="M299.42,149.28a5.21,5.21,0,0,1-1.87-.36.69.69,0,0,1-.39-.88.68.68,0,0,1,.87-.39,3.5,3.5,0,0,0,2.73,0c3.19-1.32,7.49-8,9.8-11.64.55-.87,1-1.62,1.39-2.14a73.78,73.78,0,0,0,4.95-8.44c2.2-4.49,3-7.81,2.23-9.34A2.19,2.19,0,0,0,317,115a.68.68,0,1,1,0-1.35,3.43,3.43,0,0,1,3.25,1.82c2.51,5-7.17,19-7.27,19.15-.34.5-.82,1.24-1.37,2.1-2.55,4-6.83,10.68-10.41,12.16A4.87,4.87,0,0,1,299.42,149.28Z"/><path class="cls-64" d="M297.79,149a.67.67,0,0,1-.24,0,11.1,11.1,0,0,1-4.67-4.2A.67.67,0,1,1,294,144h0a9.92,9.92,0,0,0,4,3.63.68.68,0,0,1,.39.88A.67.67,0,0,1,297.79,149Z"/><path class="cls-64" d="M295,150.13c-1.58,0-3.75-.72-6.62-3.1-3.19-2.65-4.82-5-4.87-7a2.76,2.76,0,0,1,.73-2.06.68.68,0,0,1,.93,1,1.51,1.51,0,0,0-.31,1.11c.05.89.68,2.85,4.38,5.93,4.83,4,7.09,2.73,7.83,2a.68.68,0,1,1,.95,1A4.18,4.18,0,0,1,295,150.13Z"/><path class="cls-64" d="M307.84,129.43a.69.69,0,0,1-.41-.13.67.67,0,0,1-.13-1c4.23-5.64,10.74-15.58,10.21-18.24-.24-1.18-.67-1.88-1.28-2.09-1.2-.4-3.07,1-3.64,1.45a.67.67,0,0,1-.95-.06.68.68,0,0,1,.05-1c.29-.25,2.83-2.44,5-1.72,1.11.37,1.84,1.42,2.17,3.1.82,4.13-9.3,17.78-10.45,19.32A.67.67,0,0,1,307.84,129.43Z"/><path class="cls-64" d="M302.5,124.84a.64.64,0,0,1-.35-.1.67.67,0,0,1-.22-.93l7.71-12.34c.18-.29.37-.57.55-.84a5.18,5.18,0,0,0,1.26-3.22,2.11,2.11,0,0,0-1.28-2.07,3.62,3.62,0,0,0-3.72,1.08c-2.38,2.35-9,12.91-9,13a.67.67,0,0,1-1.14-.72c.27-.44,6.73-10.8,9.23-13.27a4.92,4.92,0,0,1,5.18-1.37,3.45,3.45,0,0,1,2.12,3.3,6.46,6.46,0,0,1-1.48,4c-.18.26-.36.53-.53.81l-7.71,12.33A.67.67,0,0,1,302.5,124.84Z"/><path class="cls-64" d="M310.11,133.37a.68.68,0,0,1-.58-.33,23.16,23.16,0,0,0-8.14-8.33,14.76,14.76,0,0,0-4.24-1.76.69.69,0,0,1-.55-.79.67.67,0,0,1,.79-.54c.32,0,7.83,1.51,13.3,10.73a.67.67,0,0,1-.23.92A.64.64,0,0,1,310.11,133.37Z"/><path class="cls-64" d="M296.4,140.34a.68.68,0,0,1-.45-1.18c4.3-3.94,7.71-1.09,7.74-1.06a.66.66,0,0,1,.07,1,.67.67,0,0,1-.95.07c-.11-.09-2.56-2.07-5.95,1A.67.67,0,0,1,296.4,140.34Z"/><path class="cls-64" d="M305.19,117.34a.67.67,0,0,1-.4-.14,4.93,4.93,0,0,0-2.84-1,.68.68,0,1,1,0-1.35h0a6.12,6.12,0,0,1,3.64,1.23.67.67,0,0,1,.14.95A.68.68,0,0,1,305.19,117.34Z"/><path class="cls-64" d="M310.5,120.72a.65.65,0,0,1-.45-.17,9,9,0,0,0-2.34-1.53.68.68,0,0,1-.33-.9.66.66,0,0,1,.89-.33,10.72,10.72,0,0,1,2.69,1.75.69.69,0,0,1,.05,1A.68.68,0,0,1,310.5,120.72Z"/><path class="cls-64" d="M315.65,126.36a.7.7,0,0,1-.47-.19l-2-1.93a.68.68,0,1,1,.95-1l2,1.93a.67.67,0,0,1,0,1A.68.68,0,0,1,315.65,126.36Z"/><path class="cls-64" d="M289.07,128a.65.65,0,0,1-.61-.39.68.68,0,0,1,.33-.9,9.51,9.51,0,0,1,2.37-.71.68.68,0,0,1,.78.56.67.67,0,0,1-.56.77,8.05,8.05,0,0,0-2,.61A.71.71,0,0,1,289.07,128Z"/><path class="cls-2" d="M102.15,198.26s7.49,25.3,7.44,38.4-1.27,13.53-4.44,11.31-9-16.58-10.14-32.13-.13-20.51,1.73-21.5S101.53,195.49,102.15,198.26Z"/><path class="cls-65" d="M101.86,197.3s-2.18-.36-3.56,2.77,1.57,28.88,5.26,39,3.92,10.28,3.92,10.28a32.85,32.85,0,0,1-4.93-5.13c-1.27-2-5.16-15-6.88-24.3s-1.65-21.49-.75-24.07,4.61-2.39,5.47-2S101.86,197.3,101.86,197.3Z"/><path class="cls-3" d="M107.05,250c-4.67,0-9.69-12-12.24-29.44-3.54-24,.87-28.7,1.39-29.15l1.34,1.52,0,0s-4.11,4.49-.75,27.36c1.62,11,3.86,17.68,5.45,21.32,2.23,5.1,4.08,6.41,4.82,6.39s1.43-1.44,1.65-4.47c1-13.88-8.12-47-8.21-47.28a1,1,0,1,1,2-.54c.38,1.37,9.28,33.74,8.28,48-.16,2.33-.85,6.25-3.6,6.35Z"/><path class="cls-62" d="M123.63,263.87a5.28,5.28,0,0,1-5.22-1,7.06,7.06,0,0,1-8.46,3.66c-.62,2-3.55,2.54-5.35,1.4s-2.7-3.27-3.34-5.31a65.71,65.71,0,0,1-2.14-9.51,17.75,17.75,0,0,1-.24-5.53,6.69,6.69,0,0,1,2.76-4.64c-1.5-.67-3.57-.37-4.49-1.73a3.45,3.45,0,0,1,.17-3.3c.15-.32.32-.64.5-1-2.57,2-2.95,4.1-3,4.54-.07.7-1.18,4.15,3.64,4,0,0-3,2-1.33,9.49s3.39,16.56,7.2,16.58,6.38-.58,5.86-3.93c0,0,6.68,4.34,8.79-3.66,0,0,6.92,3.49,7.65-1.75,0-.18,0-.36.06-.54A6.77,6.77,0,0,1,123.63,263.87Z"/><path class="cls-62" d="M125.69,253.7a11.9,11.9,0,0,0,1.65-2.81,26.56,26.56,0,0,0-4.18-1.79C124,250.66,124.81,252.19,125.69,253.7Z"/><path class="cls-63" d="M123.16,249.1a26.56,26.56,0,0,1,4.18,1.79,3.5,3.5,0,0,0,.26-1.95c-.46-2.1-6.4-10.9-15.1-10.82,0,0,2.09-6.76-7.29-4.47a19,19,0,0,0-7.39,3.3c-.18.31-.35.63-.5,1a3.45,3.45,0,0,0-.17,3.3c.92,1.36,3,1.06,4.49,1.73a6.69,6.69,0,0,0-2.76,4.64,17.75,17.75,0,0,0,.24,5.53,65.71,65.71,0,0,0,2.14,9.51c.64,2,1.53,4.17,3.34,5.31s4.73.64,5.35-1.4a7.06,7.06,0,0,0,8.46-3.66,5.28,5.28,0,0,0,5.22,1,6.77,6.77,0,0,0,3.07-2.21c.51-4.87-1.5-7.34-1.5-7.34s.2-.24.49-.62C124.81,252.19,124,250.66,123.16,249.1Z"/><path class="cls-64" d="M111.33,239.37a3.92,3.92,0,0,0,2.15-4.48,3.24,3.24,0,0,0-2.27-2.11,9.34,9.34,0,0,0-4.26-.41,15.81,15.81,0,0,0-4.14,1.24c-1.35.58-2.71,1.21-4,1.91A11.32,11.32,0,0,0,95.54,238,6.66,6.66,0,0,0,94,241.4a4.8,4.8,0,0,0,.86,4,4.18,4.18,0,0,0,3.61.89.87.87,0,0,0,.85-.84c0-.41-.39-.91-.85-.85a5.78,5.78,0,0,1-1.38,0,2.06,2.06,0,0,1-.89-.32c-.62-.48-.64-1.52-.59-2.28a5.1,5.1,0,0,1,1-2.66A8.45,8.45,0,0,1,99,237.32c1.08-.64,2.24-1.15,3.37-1.68a21.5,21.5,0,0,1,3.25-1.28,9,9,0,0,1,3.26-.36,7.4,7.4,0,0,1,1.68.36,2.14,2.14,0,0,1,1,.57c.17.19-.06-.11.07.1,0,0,.15.3.09.16a1.55,1.55,0,0,1,.07.23s0,.24,0,.09a2.81,2.81,0,0,1,0,.58c0-.18,0,.09,0,.1a3,3,0,0,1-.09.32,1.36,1.36,0,0,1-.17.41,2.39,2.39,0,0,1-.13.21s-.2.28-.09.15a2.16,2.16,0,0,1-.37.37c.17-.14-.38.19-.13.09a.88.88,0,0,0-.59,1,.84.84,0,0,0,1,.59Z"/><path class="cls-64" d="M99.16,243.89c-2.24,1.24-3.07,3.74-3.23,6.16a18.07,18.07,0,0,0,.18,3.67c.23,1.67.53,3.33.89,5s.79,3.31,1.28,4.94a29.26,29.26,0,0,0,1.63,4.45c1.24,2.54,3.66,4.92,6.69,4.74a4.52,4.52,0,0,0,3.68-2.17,3.9,3.9,0,0,0,.14-4l-1.33,1a6.19,6.19,0,0,0,6.62,1.89,6.27,6.27,0,0,0,4.13-5.6l-1.45.6a5.76,5.76,0,0,0,8.66-1.21c1.18-2,.68-4.52-.17-6.55-.1-.25-.21-.5-.32-.75a2.31,2.31,0,0,1-.3-.79c0-.42.47-.84.7-1.16a7.94,7.94,0,0,0,.66-8.2,10.81,10.81,0,0,0-1.94-2.17,28.65,28.65,0,0,0-7.19-4.89c-2.61-1.22-6.16-2.33-8.77-.49a.88.88,0,0,0-.3,1.16.85.85,0,0,0,1.16.3,4.28,4.28,0,0,1,.69-.4c.14-.07,0,0,0,0l.2-.08.42-.12.36-.08h.07l.19,0a6.76,6.76,0,0,1,.9,0l.4,0h.1l.17,0a8.45,8.45,0,0,1,1,.21,14.21,14.21,0,0,1,1.81.6,24.35,24.35,0,0,1,3.62,1.92,31.64,31.64,0,0,1,3.08,2.24,19,19,0,0,1,2.23,2.16l.16.2c-.17-.21,0,0,0,.06a3,3,0,0,1,.24.38,5.42,5.42,0,0,1,.51,2.21,6.65,6.65,0,0,1-.47,2.72,6.47,6.47,0,0,1-.57,1.07,10.66,10.66,0,0,0-.92,1.31c-.54,1.14.07,2.1.5,3.15a8.35,8.35,0,0,1,.75,3.1,3.57,3.57,0,0,1-2.51,3.59,3.84,3.84,0,0,1-4-.71.86.86,0,0,0-1.45.59,4.49,4.49,0,0,1-3,4,4.55,4.55,0,0,1-4.85-1.49c-.62-.75-1.81.21-1.33,1a2.21,2.21,0,0,1-.17,2.35,2.78,2.78,0,0,1-2.31,1.3c-2.53.07-4.27-2.09-5.23-4.17a28.07,28.07,0,0,1-1.36-3.86c-.44-1.45-.82-2.92-1.16-4.39A35.73,35.73,0,0,1,97.59,251c0-2.11.44-4.52,2.42-5.62a.85.85,0,0,0-.85-1.46Z"/><path class="cls-64" d="M104.66,257.37a18.81,18.81,0,0,0,1.34,3.84.84.84,0,0,0,1.15.3.86.86,0,0,0,.31-1.15c-.07-.15-.14-.29-.2-.43l-.05-.11c0-.07,0-.13-.07-.19-.12-.3-.23-.59-.34-.89-.2-.6-.37-1.21-.51-1.82a.85.85,0,1,0-1.63.45Z"/><path class="cls-64" d="M114.84,253.47a16.36,16.36,0,0,0,1.64,3.46.84.84,0,0,0,1.46-.85,13.14,13.14,0,0,1-.86-1.56l-.18-.38a1.89,1.89,0,0,1-.09-.21c.08.23,0,0,0-.07-.11-.28-.21-.56-.31-.84a.85.85,0,0,0-1.63.45Z"/><path class="cls-64" d="M126.28,255.52a48,48,0,0,0-2.46-6.29.84.84,0,1,0-1.46.85,45.16,45.16,0,0,1,2.29,5.89.87.87,0,0,0,1,.59.86.86,0,0,0,.59-1Z"/></svg>