<svg id="Capa_2" data-name="Capa 2" xmlns="http://www.w3.org/2000/svg" xmlns:xlink="http://www.w3.org/1999/xlink" viewBox="0 0 400 400"><defs><style>.cls-1{fill:#e03b3b;}.cls-2{fill:#313b47;}.cls-3{fill:#f0f1f1;}.cls-4{fill:#f7b848;}.cls-5{fill:#9ed1e3;}.cls-6{fill:#cfd0d2;}.cls-7{opacity:0.71;}.cls-8{fill:#d0534f;}.cls-9{opacity:0.68;}.cls-10{fill:#a4c949;}.cls-11{fill:url(#Degradado_sin_nombre_12);}.cls-12{fill:#dff2f9;}.cls-13{fill:#d1d6d0;}.cls-14{fill:#b2c9ea;}.cls-15{fill:#3c3c3b;}.cls-16{fill:#26313d;}.cls-17{fill:url(#Degradado_sin_nombre_12-2);}.cls-18{fill:#686868;}.cls-19{fill:#939286;}.cls-20{fill:#e5e4c8;}.cls-21{fill:#fff;}.cls-22{fill:#999698;}.cls-23{fill:#575756;}.cls-24{fill:#d9d7da;}.cls-25{fill:#27273d;}.cls-26{fill:url(#Degradado_sin_nombre_12-3);}.cls-27{fill:url(#Degradado_sin_nombre_49);}.cls-28{opacity:0.93;fill:url(#Nueva_muestra_de_degradado_2);}.cls-29{fill:url(#Degradado_sin_nombre_49-2);}.cls-30{fill:url(#Degradado_sin_nombre_12-4);}.cls-31{fill:url(#Degradado_sin_nombre_11);}.cls-32{fill:url(#Degradado_sin_nombre_12-5);}</style><linearGradient id="Degradado_sin_nombre_12" x1="53.39" y1="182.06" x2="114.97" y2="182.06" gradientUnits="userSpaceOnUse"><stop offset="0.08" stop-color="#797d86"/><stop offset="0.47" stop-color="#a8abb0"/><stop offset="0.82" stop-color="#cbcccf"/><stop offset="1" stop-color="#d8d9db"/></linearGradient><linearGradient id="Degradado_sin_nombre_12-2" x1="-713.51" y1="123.33" x2="-654.47" y2="123.33" gradientTransform="matrix(-1, -0.05, -0.05, 1, -591.98, 117.05)" xlink:href="#Degradado_sin_nombre_12"/><linearGradient id="Degradado_sin_nombre_12-3" x1="-2572.81" y1="2782.94" x2="-2513.77" y2="2782.94" gradientTransform="matrix(-0.57, 0.82, 0.82, 0.57, -3562.38, 792.68)" xlink:href="#Degradado_sin_nombre_12"/><linearGradient id="Degradado_sin_nombre_49" x1="707.99" y1="-1252.31" x2="707.99" y2="-542.95" gradientTransform="translate(-451.59 706.12) scale(0.83 0.87)" gradientUnits="userSpaceOnUse"><stop offset="0" stop-color="#fff"/><stop offset="0.14" stop-color="#c9cbce"/><stop offset="0.31" stop-color="#92969c"/><stop offset="0.47" stop-color="#656a73"/><stop offset="0.62" stop-color="#424853"/><stop offset="0.77" stop-color="#29303c"/><stop offset="0.9" stop-color="#19212e"/><stop offset="1" stop-color="#141c29"/></linearGradient><linearGradient id="Nueva_muestra_de_degradado_2" x1="77.02" y1="147.12" x2="197.96" y2="147.12" gradientTransform="translate(2.17 -2) rotate(0.84)" gradientUnits="userSpaceOnUse"><stop offset="0" stop-color="#e340a1"/><stop offset="0.49" stop-color="#664ad6"/><stop offset="0.99" stop-color="#14b2f5"/></linearGradient><linearGradient id="Degradado_sin_nombre_49-2" x1="736.83" y1="-1135.25" x2="736.83" y2="-562.12" gradientTransform="translate(-465.63 706.11) scale(0.82 0.87)" xlink:href="#Degradado_sin_nombre_49"/><linearGradient id="Degradado_sin_nombre_12-4" x1="173.1" y1="6794.97" x2="123.93" y2="6844.22" gradientTransform="matrix(1, 0, 0, -1, 0, 6965.74)" xlink:href="#Degradado_sin_nombre_12"/><linearGradient id="Degradado_sin_nombre_11" x1="140.22" y1="6831.08" x2="97.06" y2="6861.9" gradientTransform="matrix(1, 0, 0, -1, 0, 6965.74)" gradientUnits="userSpaceOnUse"><stop offset="0" stop-color="#797d86"/><stop offset="0.09" stop-color="#95999f"/><stop offset="0.2" stop-color="#aeb0b5"/><stop offset="0.32" stop-color="#c1c2c6"/><stop offset="0.47" stop-color="#cecfd2"/><stop offset="0.65" stop-color="#d6d7d9"/><stop offset="1" stop-color="#d8d9db"/></linearGradient><linearGradient id="Degradado_sin_nombre_12-5" x1="71.22" y1="197.19" x2="160.01" y2="197.19" xlink:href="#Degradado_sin_nombre_12"/></defs><title>i</title><polygon class="cls-1" points="358.96 271.99 198.04 271.99 198.04 93.47 358.96 110.31 358.96 271.99"/><path class="cls-2" d="M359,273.3H198a1.31,1.31,0,0,1-1.32-1.31V93.47a1.3,1.3,0,0,1,.44-1,1.33,1.33,0,0,1,1-.33L359.09,109a1.32,1.32,0,0,1,1.18,1.31V272A1.31,1.31,0,0,1,359,273.3Zm-159.61-2.62H357.64V111.49L199.35,94.93Z"/><rect class="cls-3" x="185.51" y="271.64" width="185.34" height="9.2"/><path class="cls-2" d="M187.53,280.84v-9.2l-1.7,1.7H363.62a52.72,52.72,0,0,0,7.22,0,1.82,1.82,0,0,1,.33,0l-1.7-1.7v9.2a1.7,1.7,0,0,0,3.4,0v-9.2a1.72,1.72,0,0,0-1.7-1.7H208.63c-7.47,0-15-.27-22.48,0h-.32a1.72,1.72,0,0,0-1.7,1.7v9.2a1.7,1.7,0,0,0,3.4,0Z"/><rect class="cls-4" x="275.05" y="14.41" width="8.48" height="178.15" transform="translate(143.52 368.58) rotate(-83.21)"/><path class="cls-2" d="M368.44,108.11,350.77,106l-42.24-5-51.08-6.07-44.14-5.26c-7.14-.85-14.3-2-21.47-2.55l-.3,0a1.72,1.72,0,0,0-1.89,1.49c-.33,2.8-.67,5.61-1,8.42a1.71,1.71,0,0,0,1.49,1.88L207.81,101l42.24,5,51.07,6.08,44.15,5.26c7.13.85,14.3,2,21.46,2.55l.31,0a1.71,1.71,0,0,0,1.88-1.49c.34-2.8.67-5.61,1-8.42a1.7,1.7,0,0,0-3.38-.4c-.33,2.81-.66,5.61-1,8.42l1.89-1.48-17.67-2.11-42.25-5-51.07-6.07-44.14-5.26-14.52-1.73a49.35,49.35,0,0,0-6.95-.82c-.1,0-.2,0-.3,0L192,97.37q.51-4.22,1-8.42l-1.88,1.48,17.67,2.11,42.24,5,51.07,6.08,44.15,5.26c7.14.85,14.3,2,21.47,2.55l.3,0A1.7,1.7,0,0,0,368.44,108.11Z"/><rect class="cls-3" x="314.49" y="184.71" width="29.18" height="86.36"/><path class="cls-2" d="M343.67,269.37H314.49l1.7,1.7V184.71l-1.7,1.7h29.18l-1.7-1.7v86.36a1.7,1.7,0,0,0,3.4,0V184.71a1.72,1.72,0,0,0-1.7-1.69H314.49a1.72,1.72,0,0,0-1.7,1.69v86.36a1.72,1.72,0,0,0,1.7,1.7h29.18A1.7,1.7,0,0,0,343.67,269.37Z"/><rect class="cls-5" x="319.39" y="247.97" width="18.68" height="18.78"/><rect class="cls-5" x="319.39" y="192.69" width="18.68" height="50.58"/><rect class="cls-4" x="189.46" y="138.17" width="178.36" height="8.48"/><path class="cls-2" d="M367.82,136.47H211.48c-7.22,0-14.5-.27-21.71,0h-.31a1.72,1.72,0,0,0-1.69,1.7v8.48a1.72,1.72,0,0,0,1.69,1.7H345.81c7.21,0,14.49.28,21.71,0h.3a1.72,1.72,0,0,0,1.7-1.7v-8.48a1.7,1.7,0,0,0-3.4,0v8.48l1.7-1.7H196.76a49.42,49.42,0,0,0-7,0,1.61,1.61,0,0,1-.31,0l1.7,1.7v-8.48l-1.7,1.7H345.81c7.21,0,14.49.28,21.71,0h.3A1.7,1.7,0,0,0,367.82,136.47Z"/><rect class="cls-6" x="306.91" y="271.64" width="44.34" height="4.34"/><path class="cls-2" d="M351.76,276.49H306.4v-5.36h45.36Zm-44.34-1h43.32v-3.32H307.42Z"/><rect class="cls-6" x="306.91" y="279.03" width="44.34" height="3.62"/><path class="cls-2" d="M351.76,283.16H306.4v-4.64h45.36Zm-44.34-1h43.32v-2.6H307.42Z"/><rect class="cls-5" x="206.33" y="185.53" width="100.95" height="79.1"/><g class="cls-7"><rect class="cls-3" x="207.2" y="241.08" width="99.38" height="4.38"/><path class="cls-2" d="M306.58,244.59H207.2l.86.87v-4.38l-.86.87h99.38l-.87-.87v4.38a.87.87,0,0,0,1.74,0v-4.38a.88.88,0,0,0-.87-.87H207.2a.88.88,0,0,0-.87.87v4.38a.88.88,0,0,0,.87.87h99.38A.87.87,0,0,0,306.58,244.59Z"/></g><rect class="cls-8" x="208.05" y="188.55" width="97.5" height="1.75"/><rect class="cls-8" x="208.05" y="192.2" width="97.5" height="1.75"/><rect class="cls-8" x="208.05" y="195.85" width="97.5" height="1.75"/><rect class="cls-8" x="208.05" y="199.5" width="97.5" height="1.75"/><rect class="cls-8" x="208.05" y="203.14" width="97.5" height="1.75"/><rect class="cls-8" x="208.05" y="206.79" width="97.5" height="1.75"/><rect class="cls-8" x="208.05" y="210.44" width="97.5" height="1.75"/><polygon class="cls-2" points="305.64 213.21 208.13 213.21 208.05 215.84 305.55 215.84 305.64 213.21"/><rect class="cls-3" x="208.05" y="186.8" width="97.5" height="1.75"/><rect class="cls-3" x="208.05" y="190.45" width="97.5" height="1.75"/><rect class="cls-3" x="208.05" y="194.1" width="97.5" height="1.75"/><rect class="cls-3" x="208.05" y="197.74" width="97.5" height="1.75"/><rect class="cls-3" x="208.05" y="201.39" width="97.5" height="1.75"/><rect class="cls-3" x="208.05" y="205.04" width="97.5" height="1.75"/><rect class="cls-3" x="208.05" y="208.69" width="97.5" height="1.75"/><rect class="cls-3" x="208.05" y="212.34" width="97.5" height="1.75"/><g class="cls-9"><path class="cls-3" d="M240.14,218.89l-26.22,23.83c-2.16,2,1.05,5.16,3.21,3.2l26.22-23.83c2.16-2-1-5.16-3.21-3.2Z"/></g><g class="cls-9"><path class="cls-3" d="M248.05,229.54l-16,14.8c-2.14,2,.83,5.41,3,3.42L251,233c2.13-2-.84-5.4-3-3.42Z"/></g><rect class="cls-3" x="206.33" y="151.14" width="140.77" height="29.02"/><path class="cls-2" d="M347.09,181.48H206.33a1.32,1.32,0,0,1-1.32-1.32v-29a1.31,1.31,0,0,1,1.32-1.31H347.09a1.31,1.31,0,0,1,1.32,1.31v29A1.32,1.32,0,0,1,347.09,181.48Zm-139.45-2.63H345.78v-26.4H207.64Z"/><path class="cls-2" d="M307.28,183.81H206.33a1.75,1.75,0,0,0-1.73,1.72v79.11a1.75,1.75,0,0,0,1.73,1.72H307.28a1.56,1.56,0,0,0,1.16-.46l.06-.06,0,0a1.58,1.58,0,0,0,.47-1.17V185.53A1.75,1.75,0,0,0,307.28,183.81Zm-34.22,79.1h-65V187.26h97.5v75.65Z"/><path class="cls-10" d="M372.28,248.13c-2.57-4.63-5.33-13.16-12.32-13-7.76.16-8.95,8.08-11.7,13-1.62,2.92-3.28,6-3.06,9.28.29,4.3,5.12,7.29,9.61,7.29h10.92c4.49,0,9.32-3,9.61-7.29C375.56,254.15,373.9,251.05,372.28,248.13Z"/><rect class="cls-3" x="345.76" y="269.9" width="29.01" height="19.44"/><path class="cls-2" d="M365.73,265.71H354.81c-4.86,0-10.29-3.31-10.62-8.23-.25-3.65,1.66-7.09,3.19-9.84.58-1.06,1.1-2.26,1.64-3.53,2-4.63,4.23-9.88,10.92-10h.2c6.32,0,9.43,6.33,11.7,11,.46.94.9,1.82,1.32,2.59,1.53,2.75,3.44,6.19,3.19,9.84C376,262.4,370.59,265.71,365.73,265.71Zm-5.6-29.59H360c-5.38.12-7.19,4.33-9.1,8.79a40,40,0,0,1-1.73,3.71c-1.48,2.66-3.15,5.67-2.94,8.72.25,3.74,4.74,6.35,8.6,6.35h10.92c3.86,0,8.35-2.61,8.6-6.35.21-3-1.47-6.06-2.94-8.72h0c-.45-.81-.89-1.71-1.37-2.67C367.87,241.57,365.19,236.12,360.13,236.12Z"/><path class="cls-2" d="M374.78,290.35h-29a1,1,0,0,1-1-1V269.9a1,1,0,0,1,1-1h29a1,1,0,0,1,1,1v19.44A1,1,0,0,1,374.78,290.35Zm-28-2h27V270.91h-27Z"/><path class="cls-2" d="M358.55,257.93v11.29c0,2.12,3.39,2.12,3.39,0V257.93c0-2.11-3.39-2.11-3.39,0Z"/><path class="cls-10" d="M306.39,248.13c-2.57-4.63-5.32-13.16-12.32-13-7.76.16-8.95,8.08-11.7,13-1.62,2.92-3.28,6-3.06,9.28.29,4.3,5.12,7.29,9.61,7.29h10.92c4.49,0,9.32-3,9.61-7.29C309.67,254.15,308,251.05,306.39,248.13Z"/><rect class="cls-3" x="279.87" y="269.9" width="29.01" height="19.44"/><path class="cls-2" d="M299.84,265.71H288.92c-4.86,0-10.29-3.31-10.62-8.23-.25-3.65,1.66-7.09,3.19-9.84.58-1.06,1.1-2.26,1.64-3.53,2-4.63,4.23-9.88,10.92-10,6.47-.12,9.61,6.27,11.91,11,.46.94.89,1.82,1.31,2.59,1.53,2.75,3.44,6.19,3.19,9.84C310.13,262.4,304.7,265.71,299.84,265.71Zm-5.6-29.59h-.15c-5.38.12-7.19,4.33-9.09,8.79a40,40,0,0,1-1.74,3.71c-1.47,2.66-3.15,5.67-2.94,8.72.25,3.74,4.74,6.35,8.6,6.35h10.92c3.87,0,8.35-2.61,8.6-6.35.21-3-1.46-6.06-2.94-8.72h0c-.45-.81-.89-1.71-1.36-2.67C302,241.57,299.31,236.12,294.24,236.12Z"/><path class="cls-2" d="M308.89,290.35h-29a1,1,0,0,1-1-1V269.9a1,1,0,0,1,1-1h29a1,1,0,0,1,1,1v19.44A1,1,0,0,1,308.89,290.35Zm-28-2h27V270.91h-27Z"/><path class="cls-2" d="M292.66,257.93v11.29c0,2.12,3.4,2.12,3.4,0V257.93c0-2.11-3.4-2.11-3.4,0Z"/><path class="cls-11" d="M56.32,219.66a5,5,0,0,0,6.42-2.19c.19-.34,18.81-34.85,50.67-64.86a5,5,0,1,0-6.82-7.24A292,292,0,0,0,54,212.79,5,5,0,0,0,56,219.52Z"/><path class="cls-2" d="M58.34,221.11a6,6,0,0,1-2.44-.52h0l-.36-.18a6,6,0,0,1-2.46-8.1c.78-1.47,19.53-36.32,52.81-67.68a6,6,0,1,1,8.21,8.71C82.43,183.19,63.82,217.61,63.64,218A6,6,0,0,1,58.34,221.11Zm-1.6-2.37A4,4,0,0,0,61.85,217c.18-.34,18.95-35.05,50.86-65.12a4,4,0,1,0-5.43-5.76c-33,31.13-51.64,65.7-52.41,67.16a3.9,3.9,0,0,0-.3,3,4,4,0,0,0,1.92,2.34l.25.12Z"/><path class="cls-12" d="M65,220.17c.13.87,1.16,3.88,1.27,5.25a74.74,74.74,0,0,1,.2,8.32c-.19,1.73-.15,5.06,1,6.8s3.51,3.16,4.18,4.37a5.4,5.4,0,0,1-.59,6.28,6.88,6.88,0,0,1-5.58,2.42c-1-.11-4.54-1.41-5.27-3.29s-.6-5-.82-6.31-.59-3.2-1.39-3.83-1.5-.92-1.93-.57a9.66,9.66,0,0,0-2.64,2.81A25.52,25.52,0,0,0,51,249.58c-.16,2.06-.67,8.24-1.5,10.18s-2.64,3.85-4.62,4.19-5.76-.51-6.85-4.09c-1.44.86-4.5,0-5.69-1.08s-3.15-3.3-3-5.15c-.51-.14-2.76-.25-3.76-1.79s-2.44-4.08.05-8.28,6.73-8.78,7.82-11,7-15,11.61-18.49,4.72-2.19,4.72-2.19a3.33,3.33,0,0,1-1.09-1.56c-.37-1.05-.6-2,0-2.68s3.43-2,9.76.36,11.68,7.72,11.3,9.57-2.88,1.7-3.53,1.68S64.93,219.75,65,220.17Z"/><path class="cls-13" d="M49.83,211.87a2.51,2.51,0,0,1-.24-.2C49.82,211.71,49.83,211.87,49.83,211.87Z"/><path class="cls-14" d="M25.68,243.56c.38-.64.8-1.29,1.24-1.94-1.9,3.37-2,6.67.93,6.89s7.37-7.34,10.51-12.83a19.44,19.44,0,0,1-2.6,6.92c-2,3.58-5.33,7.93-4.33,11.28a3.07,3.07,0,0,0,3.29,1.85c3.12-1,4.54-4.59,6.09-6.9a27.5,27.5,0,0,0,4-10,15.19,15.19,0,0,1-1,8c-1.23,2.94-3.29,5.83-4.42,10.73-.57,2.47,2.9,4.12,5.21,3.5,2.72-.73,4.15-4.7,4-7.66-1.17-7.08,4-16.55,8.83-16.74,4.73.58,2.79,11.34,9,12,2,.35,4.14-1.51,4.77-4.13a2.73,2.73,0,0,1,.3.42,5.4,5.4,0,0,1-.59,6.28,6.88,6.88,0,0,1-5.58,2.42c-1-.11-4.54-1.41-5.27-3.29s-.6-5-.82-6.31-.59-3.2-1.39-3.83-1.5-.92-1.93-.57a9.66,9.66,0,0,0-2.64,2.81A25.52,25.52,0,0,0,51,249.58c-.16,2.06-.67,8.24-1.5,10.18s-2.64,3.85-4.62,4.19-5.76-.51-6.85-4.09c-1.44.86-4.5,0-5.69-1.08s-3.15-3.3-3-5.15c-.51-.14-2.76-.25-3.76-1.79S23.19,247.76,25.68,243.56Z"/><path class="cls-14" d="M65,230.48c0-8.27-6.16-13.45,2.74-16.55,1.46,1.5,2.29,2.87,2.13,3.63-.38,1.85-2.88,1.7-3.53,1.68s-1.39.51-1.33.93c.13.87,1.16,3.88,1.27,5.25a74.74,74.74,0,0,1,.2,8.32c-.19,1.73-.15,5.06,1,6.8C65.06,239,65,235.09,65,230.48Z"/><path class="cls-14" d="M66.62,219.1s-5.29-7.95-8.51-5.94c3,1.42,6.69,5.69,6.88,7A1.44,1.44,0,0,1,66.62,219.1Z"/><path class="cls-15" d="M43.69,264.91a6.54,6.54,0,0,1-6.09-4.24,7.9,7.9,0,0,1-5.31-.94,7.37,7.37,0,0,1-3.5-5.45A5.58,5.58,0,0,1,23.91,250c-1.19-4.5,1.43-8.09,5.79-13.56a50.45,50.45,0,0,0,5.88-9.55c1.11-2.14,2.36-4.57,4.16-7.61,3.43-5.78,7-7.41,8.83-7.87-1-1.42-1.24-2.65-.73-3.64.74-1.42,2.88-2,6.18-1.62a27.47,27.47,0,0,1,9.3,3.27c1.6.88,5.43,3.16,6.28,5.46.68,1.86.71,3.27.06,4.19a2.73,2.73,0,0,1-2.42,1.07h-.61a4.39,4.39,0,0,0-.63,0,8.9,8.9,0,0,0,.41,1.85c.76,2.62.79,7.12.82,11.47,0,1,0,2,0,2.9,0,3.05,1.8,4.82,3.35,6.39a9.68,9.68,0,0,1,1.92,2.36,6.89,6.89,0,0,1,0,5.42,6.51,6.51,0,0,1-4.1,3.72,7.52,7.52,0,0,1-6.62-.79A7.13,7.13,0,0,1,58.61,248l0-.64c-.26-3.45-.51-6.7-2-6.7h-.08c-1.77.12-4.62,4.73-5.11,12.74-.46,7.34-1.77,11.36-7.38,11.55ZM38,259.18a.65.65,0,0,1,.31.08.69.69,0,0,1,.35.42,5.27,5.27,0,0,0,5.22,3.87c3.7-.13,5.55-1.7,6.08-10.28.47-7.64,3.27-13.79,6.37-14,2.94-.19,3.23,3.76,3.55,8l0,.63a5.84,5.84,0,0,0,2.61,4.44,6.21,6.21,0,0,0,5.45.64,5.24,5.24,0,0,0,3.29-3,5.55,5.55,0,0,0,0-4.31,8.6,8.6,0,0,0-1.66-2C68,242,66,239.92,65.91,236.34c0-.94,0-1.92,0-2.92,0-4.06-.06-8.67-.77-11.1-.5-1.74-.64-2.55-.2-3.11s1-.49,1.76-.48h.57a1.5,1.5,0,0,0,1.31-.48c.37-.53.29-1.57-.22-2.95-1-2.75-9.39-7.3-14.46-7.85-3-.34-4.49.24-4.83.89s.14,1.76,1.3,3.08a.69.69,0,0,1,.1.73.67.67,0,0,1-.61.39h0c-.13,0-4.57.08-8.9,7.38-1.79,3-3,5.42-4.12,7.54a52.61,52.61,0,0,1-6,9.77c-4.5,5.64-6.51,8.7-5.54,12.37A4.2,4.2,0,0,0,29.36,253a.7.7,0,0,1,.71.65s.21,3.51,2.86,4.94a6.25,6.25,0,0,0,4.87.69A.59.59,0,0,1,38,259.18Z"/><path class="cls-15" d="M29.83,256.13a.71.71,0,0,1-.62-.39c-.17-.35-1.49-3.62,4-11.12a100.61,100.61,0,0,0,5.87-9.12.68.68,0,1,1,1.18.66,105,105,0,0,1-6,9.26c-5,6.84-3.88,9.72-3.86,9.75a.66.66,0,0,1-.32.89A.59.59,0,0,1,29.83,256.13Z"/><path class="cls-15" d="M38.35,261.54a.68.68,0,0,1-.67-.63,14.34,14.34,0,0,1,2-7.52c2.16-3.84,4.2-7.46,5.18-12.6a.68.68,0,0,1,1.33.26c-1,5.35-3.21,9.24-5.33,13A13.41,13.41,0,0,0,39,260.81a.68.68,0,0,1-.63.73Z"/><path class="cls-16" d="M133,241.52S60,237.13,55.7,156.18C51.33,74.33,107.1,52.45,131.46,52.45Z"/><path d="M133.34,242.7A90.72,90.72,0,0,1,95.8,230.22,79.37,79.37,0,0,1,69.06,204.3C60.72,191.08,56,174.91,55,156.24c-1-18.2,1-34.64,5.8-48.84A85.8,85.8,0,0,1,79.65,75.58c17-17.95,38.78-24.31,52.27-24.31v2.36c-13,0-34.06,6.18-50.55,23.58a83.31,83.31,0,0,0-18.35,31c-4.72,13.92-6.63,30.05-5.68,48,1,18.26,5.59,34,13.72,46.91a77,77,0,0,0,26,25.16,90.11,90.11,0,0,0,36.46,12.15Z"/><path class="cls-2" d="M133.35,242.53a92.55,92.55,0,0,1-37.46-12.45A79.26,79.26,0,0,1,69.2,204.21c-8.33-13.2-13.05-29.34-14.05-48-1-18.18,1-34.59,5.79-48.78A85.89,85.89,0,0,1,79.77,75.69c17-17.9,38.7-24.25,52.15-24.25v2c-13,0-34.15,6.18-50.68,23.62a83.84,83.84,0,0,0-18.38,31c-4.73,13.94-6.64,30.1-5.69,48,1,18.29,5.61,34.11,13.75,47a77.25,77.25,0,0,0,26,25.22,90.31,90.31,0,0,0,36.54,12.17Z"/><path class="cls-17" d="M117.18,229.58s-12.54,45.31-14.73,49.66S95.69,289.82,85.55,297,60,315.5,60,315.5l-5.48-7.76L93.49,277.3l14.71-50.85Z"/><path class="cls-18" d="M112.55,228.64,97.37,279.77,57.9,312,60,315.5s20.58-14.56,28.22-20.81A126.85,126.85,0,0,0,102,281.34c.89-.86,15.21-51.76,15.21-51.76Z"/><path class="cls-2" d="M61.47,315.54l-1.13-1.69c12.86-8.65,37.92-26.66,40.7-32.92,3.27-7.37,13.24-44.4,14.92-50.7l-7.08-2.47-14.5,50.13L56.59,308.13l-1.26-1.58,37.28-29.84,14.92-51.57,10.88,3.79-.25.91c-.47,1.78-11.64,43.75-15.27,51.91C99.18,290.11,63,314.5,61.47,315.54Z"/><path class="cls-19" d="M62.91,336.32A52.86,52.86,0,0,0,77.2,347.15c5.33.44,6-.14,5.8-.19-1.1-.25.32-1.27.32-1.27l-5.24-13.53L47,312.33s-1,.09-1,1.65a1.93,1.93,0,0,0-1.9,1.13c3.18,5.47,8.4,9.56,12.72,14.25C58.91,331.62,60.81,334.06,62.91,336.32Z"/><path class="cls-20" d="M83,347.4c-8.77-.75-16-6.68-20.06-11.08-2.1-2.26-4-4.7-6.09-7-4.32-4.69-9.54-8.78-12.72-14.25a.71.71,0,0,0-.08.15,4.48,4.48,0,0,1-2.56,1.88,30.87,30.87,0,0,0,5.23,6.66c2.58,2.58,5.4,4.89,7.91,7.52,1.71,1.78,3.28,3.7,5,5.48a46.38,46.38,0,0,0,15.91,10.79C75.91,347.5,82.37,347.59,83,347.4Z"/><path class="cls-21" d="M59.58,336.8c-1.7-1.78-3.27-3.7-5-5.48-2.51-2.63-5.33-4.94-7.91-7.52a30.87,30.87,0,0,1-5.23-6.66,4,4,0,0,0-.56.23c-.24.2-2.08,1.49.55,4.93s7.19,5.62,11.41,11,13.35,11.89,17.33,13.29,13.59,1.8,13.59,1.8-1-.94-.81-1C73.6,347.4,64.05,341.46,59.58,336.8Z"/><path class="cls-22" d="M54.37,303.35a8.29,8.29,0,0,0-3.13,3.74c-.68,2.18-1.92,0-3.82,5.3,0,0,8.43,9.26,10.16,13.34s6.22,9.61,12.39,15.2a18.27,18.27,0,0,0,10.37,4.22s3,4,10.83,2.09c1.13-.28,3.08-2.85,3.08-2.85s1.94-3.45.43-6.1c-14.6-5.76-15.56-11.62-16.27-13.61s-2.89-12-3.3-13-.5-4.12-7.42-2.17-9.61,3.19-9.55-2.11C58.17,303.91,59.43,302.56,54.37,303.35Z"/><path class="cls-23" d="M91,339.48c-2.85.36-3,.66-4.1,3S83.67,345,83,346.3s.53,2,3.76,1.63,5.66.12,7.25-3.18S96.12,338.82,91,339.48Z"/><path class="cls-24" d="M51,307.32l1.18,3.88s1.85-.25,4.08,3.3S67,326.43,68.05,327.76s7.51,8.38,8.22,9.5,6,4,6,4-5.85,0-8.35-2.48a51.67,51.67,0,0,0-9.08-7.5c-3.8-3.11-8.09-6.54-8.09-6.54S55.25,320,47,312.33A13.08,13.08,0,0,1,51,307.32Z"/><path class="cls-24" d="M73.75,317.14s-5-2.71-5.49-2.28,2.06,2.33,3.66,3-2.33,1.46-2.86,1.84-.84,1.72,2.28.6,2.93-.84,2.93-.84l3.5,2.44-.8-2.71-1-2.68Z"/><path class="cls-24" d="M75.66,323.2s-4.66-2.52-5.19-2.09,1.9,2.24,3.42,2.82-2.27,1.49-2.79,1.89-.85,1.71,2.16.52,2.44-1.18,2.44-1.18l3.67,2.58-.69-2.65-.89-2.61Z"/><path class="cls-24" d="M78.36,328.89s-4.45-2.41-5-2,1.82,2.14,3.27,2.69c0,0-2.19,1.45-2.68,1.83s-.83,1.65,2.07.5S79,330.35,79,330.35l3.36,1.11-1-.76-.85-2.51Z"/><path class="cls-25" d="M47.77,312.21a5.76,5.76,0,0,1,1.76-3.14c.43-.43.9-.83,1.33-1.27A8.94,8.94,0,0,0,52,306.32a7.17,7.17,0,0,1,2.41-2.92,2.63,2.63,0,0,1,3,.18c1,1,.47,2.6.54,3.8a4.94,4.94,0,0,0,1.22,3.18c2.15,2.18,5.2.23,7.46-.63a12.82,12.82,0,0,1,4.63-.8,4.08,4.08,0,0,1,3.16,1,5.09,5.09,0,0,1,.92,2.56c.19,1.19.37,2.39.62,3.57a78.09,78.09,0,0,0,2.47,8.6c.76,2.29,1.64,4.74,3.35,6.52A19.36,19.36,0,0,0,85,333.88a30.6,30.6,0,0,0,3.87,2.27,20,20,0,0,0,2,.83c.59.22,1.22.36,1.79.64a5.13,5.13,0,0,1,2.61,2.52,1.09,1.09,0,0,1,.08.66c0,.14-.08.28-.11.42a.34.34,0,0,0,.65.18s.09-.28,0-.13l-.62-.26a9.79,9.79,0,0,1-2.94,5.13,7.75,7.75,0,0,1-3.8,1.46,34.86,34.86,0,0,1-4.56.45,53,53,0,0,1-8.82-.27,19.79,19.79,0,0,1-4.15-.94,16.1,16.1,0,0,1-3.26-1.65c-1.07-.68-2.09-1.43-3.11-2.18-1.18-.86-2.36-1.72-3.51-2.62a65.57,65.57,0,0,1-6.37-5.76c-2-2.06-4-4.18-6-6.27-.75-.77-1.49-1.52-2.31-2.21s-1.6-1.3-2.38-2c-1.41-1.21-3.16-2.71-3.56-4.62a2.3,2.3,0,0,1,.21-1.69,2.65,2.65,0,0,1,1.22-.86,8.84,8.84,0,0,0,1.38-.68,4.66,4.66,0,0,0,1.12-1.22c.35-.5.85-1.15,1.55-1,.2,0,.45-.08.43-.32a1.12,1.12,0,0,1,1.19-1.21c.43,0,.43-.67,0-.68a1.82,1.82,0,0,0-1.87,1.89l.43-.33a1.93,1.93,0,0,0-1.57.47,14.86,14.86,0,0,0-1.23,1.52c-.77.82-2,.92-2.83,1.65a2.84,2.84,0,0,0-.62,2.94,6.93,6.93,0,0,0,1.47,2.51,42.62,42.62,0,0,0,4.9,4.4c1,.82,1.79,1.74,2.66,2.64,1.06,1.1,2.11,2.21,3.17,3.32a92.66,92.66,0,0,0,6.67,6.48c2.24,1.9,4.63,3.63,7,5.33a19.28,19.28,0,0,0,7,3.39,41.76,41.76,0,0,0,9.34.7,43.16,43.16,0,0,0,4.68-.25,15.84,15.84,0,0,0,4.41-.93,6.84,6.84,0,0,0,2.88-2.42,10.84,10.84,0,0,0,1.44-2.76c.13-.4.25-.8.35-1.21s-.46-.62-.62-.26c0,.1-.06.19-.09.29l.65.18a2.3,2.3,0,0,0,.12-1.13,3.42,3.42,0,0,0-.71-1.41,6.8,6.8,0,0,0-3-2.11A25.65,25.65,0,0,1,88,335a37.07,37.07,0,0,1-3.9-2.52,10.85,10.85,0,0,1-2.87-2.78,18,18,0,0,1-1.69-3.55,77.2,77.2,0,0,1-2.62-8.5c-.34-1.41-.63-2.82-.83-4.26a9.86,9.86,0,0,0-.7-2.89c-1.15-2.37-4.35-2.18-6.54-1.82a18,18,0,0,0-4.28,1.43c-1.3.56-2.93,1.22-4.3.5a3.73,3.73,0,0,1-1.67-3.25c-.08-1.27.32-2.72-.45-3.86a2.83,2.83,0,0,0-2.82-1.08,4.34,4.34,0,0,0-2.87,1.87,22.55,22.55,0,0,1-2.33,3.3,11.57,11.57,0,0,0-2.42,2.71,5.55,5.55,0,0,0-.61,1.77c-.07.43.58.61.65.18Z"/><path class="cls-25" d="M87.74,340.63a10.41,10.41,0,0,0-1.35,1.88,6.88,6.88,0,0,1-1.46,1.92,8.6,8.6,0,0,1-1.37.74,3,3,0,0,0-1.23.92,1.24,1.24,0,0,0,.56,1.66,5.35,5.35,0,0,0,2.43.52,22.29,22.29,0,0,0,5-.4,6.52,6.52,0,0,0,2.23-.74,4.87,4.87,0,0,0,1.51-1.68,13.84,13.84,0,0,0,1.07-2.39,4.37,4.37,0,0,0,.4-2.48c-.35-1.26-2.12-1.4-3.19-1.44a6.14,6.14,0,0,0-4.62,1.49c-.31.3.17.78.48.48a5.25,5.25,0,0,1,3.85-1.3,8.69,8.69,0,0,1,1.45.13,1.92,1.92,0,0,1,1.29.63c.38.6-.08,1.64-.29,2.24a12.45,12.45,0,0,1-1,2.18,4.14,4.14,0,0,1-1.4,1.59,6.07,6.07,0,0,1-2,.63,21.86,21.86,0,0,1-4.26.39,7.3,7.3,0,0,1-2.28-.26c-.35-.12-1-.42-.72-.89s.91-.65,1.28-.84a5.65,5.65,0,0,0,1.28-.75c1.19-1,1.67-2.63,2.76-3.75C88.52,340.8,88,340.32,87.74,340.63Z"/><path class="cls-25" d="M46.94,312.39c2.88,3.2,6,6.27,8.26,9.95,2,3.32,4.08,6.67,6.31,9.87a42.53,42.53,0,0,0,3.52,4.5c.9,1,1.88,1.91,2.85,2.83a22.46,22.46,0,0,0,5.22,3.82A30,30,0,0,0,83.32,346c.43,0,.43-.63,0-.68A29.79,29.79,0,0,1,74,343a20.68,20.68,0,0,1-5.29-3.66,44.64,44.64,0,0,1-6.19-6.91c-1.09-1.53-2.1-3.12-3.11-4.71s-2.1-3.29-3.12-4.95a38.3,38.3,0,0,0-4-5.44c-1.62-1.83-3.27-3.64-4.91-5.46-.29-.32-.77.16-.48.48Z"/><path class="cls-25" d="M50.44,315.65a7.64,7.64,0,0,1,.48-3.42,1.55,1.55,0,0,1,1.07-1,2.43,2.43,0,0,1,2,.69,9.29,9.29,0,0,1,1.6,1.77c.55.73,1.1,1.45,1.66,2.17,1.12,1.43,2.27,2.83,3.45,4.22,2.35,2.78,4.79,5.49,7.27,8.17s4.37,5.59,6.84,8.17a19.46,19.46,0,0,0,4.42,3.72,16.58,16.58,0,0,0,5.55,1.66l-.08-.62a5.44,5.44,0,0,1-3.22,0,22.43,22.43,0,0,1-2.8-.69,20.16,20.16,0,0,1-5.43-2.56A14.19,14.19,0,0,1,71,336c-.68-.71-1.25-1.5-2-2.18-1.54-1.46-3.35-2.58-5-3.9q-3.36-2.7-6.62-5.53c-.33-.28-.81.2-.48.48,2,1.76,4.11,3.48,6.19,5.18,1.75,1.42,3.67,2.62,5.32,4.15.76.71,1.36,1.54,2.07,2.28a14.68,14.68,0,0,0,2.26,1.9,21.16,21.16,0,0,0,5.5,2.65,25,25,0,0,0,3.29.8,5.68,5.68,0,0,0,3.44-.09.34.34,0,0,0-.08-.62,16.16,16.16,0,0,1-5.26-1.53,17.43,17.43,0,0,1-4.2-3.46c-2.59-2.67-4.63-5.78-7.16-8.5s-5.09-5.59-7.53-8.49c-1.23-1.47-2.45-3-3.62-4.48A14,14,0,0,0,53.84,311a2.29,2.29,0,0,0-3.42.72,7.76,7.76,0,0,0-.66,3.93c0,.43.7.43.68,0Z"/><path class="cls-25" d="M52.87,310.44l-1.24-3.77c-.13-.41-.78-.23-.65.18l1.24,3.77c.13.41.79.23.65-.18Z"/><path class="cls-25" d="M77,318.69a31.08,31.08,0,0,0-3.73-2.6,23.08,23.08,0,0,0-4-2,.84.84,0,0,0-1.18.58,1.28,1.28,0,0,0,.7,1.35c.63.42,1.34.75,2,1.13s1.31.8,1.94,1.22a44.41,44.41,0,0,1,4.32,3.26c.33.29.81-.19.47-.47a45.13,45.13,0,0,0-6.39-4.59c-.57-.33-1.14-.64-1.72-1-.23-.13-.61-.32-.67-.61s.31-.27.56-.17a27.18,27.18,0,0,1,3.58,1.79,28.71,28.71,0,0,1,3.66,2.53c.33.27.81-.2.48-.48Z"/><path class="cls-25" d="M74.29,317a7.06,7.06,0,0,1,2.17-.45.34.34,0,0,0,.34-.34.36.36,0,0,0-.34-.34,7.87,7.87,0,0,0-2.35.48.35.35,0,0,0-.24.42.33.33,0,0,0,.42.23Z"/><path class="cls-25" d="M72.43,317.81A11.42,11.42,0,0,0,68.59,320a.35.35,0,0,0,0,.41,1.31,1.31,0,0,0,.94.72,2.64,2.64,0,0,0,1.44-.21l3.19-1.22c.4-.15.23-.81-.18-.65l-2.73,1c-.56.22-1.73.8-2.08,0l-.05.41a10.09,10.09,0,0,1,3.54-2c.41-.14.24-.79-.18-.66Z"/><path class="cls-25" d="M79.25,325.09a29,29,0,0,0-3.85-2.66c-.7-.42-1.42-.82-2.16-1.18l-1-.48a3.3,3.3,0,0,0-1-.35.87.87,0,0,0-.82,1.15c.18.66,1,.93,1.49,1.23,1.3.74,2.56,1.53,3.8,2.37a36.27,36.27,0,0,1,4,3c.32.28.8-.19.48-.48a46.34,46.34,0,0,0-6.33-4.52l-1.56-.92c-.2-.11-1.68-.83-1.18-1.14.17-.1.74.25.89.32.33.14.66.3,1,.46.63.32,1.25.66,1.86,1a27.92,27.92,0,0,1,3.89,2.67c.33.27.81-.2.48-.48Z"/><path class="cls-25" d="M75.85,323a6.32,6.32,0,0,1,1-.31,4.26,4.26,0,0,1,.49-.1l.11,0s0,0,0,0h.07l.25,0a.35.35,0,0,0,.34-.34.34.34,0,0,0-.34-.34,6.58,6.58,0,0,0-2.08.49.35.35,0,0,0-.23.41.34.34,0,0,0,.41.24Z"/><path class="cls-25" d="M74.17,323.77a10.35,10.35,0,0,0-3.42,2.07.33.33,0,0,0-.09.33,1.18,1.18,0,0,0,.84.72,2.23,2.23,0,0,0,1.32-.21l2.89-1.23a.33.33,0,0,0,.12-.46.35.35,0,0,0-.46-.12l-2.32,1a4,4,0,0,1-1.1.39c-.22,0-.54,0-.64-.25l-.08.33a9.45,9.45,0,0,1,3.12-1.9c.41-.15.23-.8-.18-.65Z"/><path class="cls-25" d="M81.57,330.11a17.72,17.72,0,0,0-4-2.22L75.26,327c-.5-.19-1.34-.75-1.85-.35a.93.93,0,0,0,.12,1.42,6.18,6.18,0,0,0,1.68.9c1.27.55,2.58,1,3.87,1.5a14.7,14.7,0,0,1,4,2.05c.34.28.82-.2.48-.48-1.78-1.45-4.11-2.15-6.23-2.95a18.56,18.56,0,0,1-3.13-1.37c-.17-.11-.66-.65-.17-.49.31.1.61.25.92.38l1.94.76a17.48,17.48,0,0,1,4.2,2.24c.34.27.82-.21.48-.48Z"/><path class="cls-25" d="M79,329.05a4.58,4.58,0,0,1,.66-.19h.06l.15,0h.41a.34.34,0,0,0,.34-.33.34.34,0,0,0-.34-.34,5.24,5.24,0,0,0-.79,0,5.12,5.12,0,0,0-.67.19.34.34,0,1,0,.18.65Z"/><path class="cls-25" d="M77.21,329.09a10.43,10.43,0,0,0-3.49,2.24.35.35,0,0,0,0,.41c.52,1.09,2,.59,2.78.21A25.85,25.85,0,0,1,79,330.68c.4-.14.23-.8-.18-.65a18.21,18.21,0,0,0-2.31,1.12c-.53.27-1.91,1.06-2.3.25l0,.41a9.59,9.59,0,0,1,3.19-2.07.34.34,0,0,0-.18-.65Z"/><path class="cls-25" d="M51,316.37h0a.17.17,0,0,1-.16-.17s0-.37.08-.86a.17.17,0,0,1,.19-.14.16.16,0,0,1,.15.19c-.06.47-.08.82-.08.82A.17.17,0,0,1,51,316.37Z"/><path class="cls-25" d="M80,340.65h-.06c-.53-.2-1-.42-1.54-.64a.16.16,0,0,1-.09-.22.17.17,0,0,1,.22-.08c.49.21,1,.42,1.53.62a.17.17,0,0,1,.1.22A.19.19,0,0,1,80,340.65Zm-3-1.36a.11.11,0,0,1-.08,0,16.1,16.1,0,0,1-1.44-.85.18.18,0,0,1-.05-.24.16.16,0,0,1,.23,0c.44.28.91.56,1.41.83a.16.16,0,0,1,.07.23A.15.15,0,0,1,77,339.29Zm-2.75-1.84a.15.15,0,0,1-.11,0,8.91,8.91,0,0,1-1.18-1.21.17.17,0,0,1,0-.24.17.17,0,0,1,.24,0,8.74,8.74,0,0,0,1.13,1.16.17.17,0,0,1,0,.24A.16.16,0,0,1,74.2,337.45Zm-2.07-2.57a.17.17,0,0,1-.13-.07c-.23-.31-.58-.73-1-1.27a.17.17,0,1,1,.25-.22c.49.55.83,1,1.07,1.29a.18.18,0,0,1,0,.24A.17.17,0,0,1,72.13,334.88ZM70,332.36a.18.18,0,0,1-.12-.05c-.35-.39-.73-.8-1.13-1.22a.17.17,0,1,1,.25-.23c.4.42.78.83,1.13,1.22a.17.17,0,0,1,0,.24A.16.16,0,0,1,70,332.36Zm-2.26-2.43a.18.18,0,0,1-.12-.05l-1.14-1.21a.17.17,0,1,1,.25-.23l1.14,1.21a.17.17,0,0,1,0,.24A.17.17,0,0,1,67.7,329.93Zm-2.27-2.42a.17.17,0,0,1-.13-.05l-1.13-1.21a.16.16,0,0,1,0-.24.17.17,0,0,1,.24,0l1.13,1.21a.17.17,0,0,1,0,.24A.15.15,0,0,1,65.43,327.51Zm-2.27-2.43A.15.15,0,0,1,63,325l-1.12-1.23a.17.17,0,0,1,.26-.23c.35.39.72.81,1.11,1.23a.17.17,0,0,1,0,.24A.16.16,0,0,1,63.16,325.08ZM61,322.6a.16.16,0,0,1-.13-.06c-.43-.51-.79-1-1-1.3a.17.17,0,1,1,.28-.2c.25.35.6.78,1,1.28a.17.17,0,0,1,0,.24A.15.15,0,0,1,61,322.6Zm-2-2.66a.15.15,0,0,1-.14-.07c-.31-.44-.62-.9-1-1.36a.18.18,0,0,1,0-.24.17.17,0,0,1,.24,0c.33.47.64.93.94,1.37a.16.16,0,0,1,0,.23Zm-1.91-2.71a.21.21,0,0,1-.14-.07c-.35-.49-.68-.93-1-1.33a.17.17,0,0,1,0-.24.16.16,0,0,1,.23,0c.31.4.64.85,1,1.34a.17.17,0,0,1,0,.23A.21.21,0,0,1,57.07,317.23Zm-2-2.63a.16.16,0,0,1-.13-.06,15.38,15.38,0,0,0-1.12-1.19.16.16,0,0,1,0-.24.16.16,0,0,1,.23,0,14.28,14.28,0,0,1,1.16,1.22.17.17,0,0,1,0,.24A.15.15,0,0,1,55,314.6Zm-3.56-.68h-.06a.17.17,0,0,1-.1-.22c.27-.79.65-1.25,1.12-1.35a.17.17,0,0,1,.2.13.16.16,0,0,1-.13.2c-.43.09-.71.67-.87,1.13A.18.18,0,0,1,51.48,313.92Z"/><path class="cls-25" d="M82.31,341.41h0s-.31-.08-.82-.24a.17.17,0,0,1,.1-.32c.5.16.8.23.8.23a.17.17,0,0,1,.12.21A.18.18,0,0,1,82.31,341.41Z"/><path class="cls-25" d="M49.21,312.27h-.05a.18.18,0,0,1-.11-.22,5.1,5.1,0,0,1,.84-1.52.17.17,0,0,1,.24,0,.16.16,0,0,1,0,.23,5,5,0,0,0-.78,1.42A.17.17,0,0,1,49.21,312.27Zm1.51-2.73a.17.17,0,0,1-.16-.11,7.3,7.3,0,0,1-.24-1.73.17.17,0,0,1,.16-.17.18.18,0,0,1,.18.16,7.35,7.35,0,0,0,.22,1.63.16.16,0,0,1-.1.21Z"/><path class="cls-25" d="M84.14,332.48a8.68,8.68,0,0,0-8.22,1.76c-.33.28.15.76.48.47A8,8,0,0,1,84,333.13c.41.13.59-.52.18-.65Z"/><path class="cls-25" d="M83.78,332.37a10.58,10.58,0,0,0-4.91,1.72c-.36.23,0,.82.34.58a10,10,0,0,1,4.57-1.62c.43,0,.44-.72,0-.68Z"/><path class="cls-26" d="M153.2,225.29S185,259.9,187.55,264.06s5.41,11.33,6.16,23.75,2.18,31.42,2.18,31.42l-9.48.55-5.24-49.14L145.8,231.26Z"/><path class="cls-18" d="M150,228.73l35.36,39.93,6.5,50.56h4.07s-1.46-25.17-2.72-35a126.72,126.72,0,0,0-4.09-18.69c-.26-1.21-35.88-40.29-35.88-40.29Z"/><path class="cls-2" d="M185.81,318.5l-5.61-47.43-35.87-39.93,9-7.23.64.69c1.27,1.34,31,33,36,40.41,5.13,7.57,6.7,51.18,6.76,53l-2,.07c-.54-15.49-2.57-46.29-6.42-52-4.52-6.67-30.68-34.72-35.13-39.48l-5.84,4.71,34.87,38.82,0,.32,5.64,47.74Z"/><path class="cls-19" d="M215.09,327.81a52.6,52.6,0,0,0,16.74-6.4c3.19-4.29,3.08-5.2,2.91-5-.79.81-.91-.94-.91-.94l-14.25-2.71-33.26,15.88s-.43.86.86,1.73a1.94,1.94,0,0,0-.05,2.22c6.33.19,12.56-2.08,18.83-3.27C209,328.72,212.06,328.4,215.09,327.81Z"/><path class="cls-20" d="M235.1,316.65c-5.28,7.05-14.12,10-20,11.16-3,.59-6.11.91-9.13,1.48-6.27,1.19-12.5,3.46-18.83,3.27,0,0,.05.09.08.14a4.45,4.45,0,0,1,.25,3.17,30.69,30.69,0,0,0,8.42-.92c3.55-.82,7-2,10.57-2.74,2.41-.5,4.87-.82,7.28-1.32a46.29,46.29,0,0,0,17.57-7.8C231.45,322.69,234.94,317.25,235.1,316.65Z"/><path class="cls-21" d="M213.73,330.89c-2.41.5-4.87.82-7.28,1.32-3.56.75-7,1.92-10.57,2.74a30.69,30.69,0,0,1-8.42.92,3.46,3.46,0,0,0-.1.6c0,.31.16,2.55,4.47,2.14s8.58-3.13,15.38-3.87,17.15-5,20.44-7.68,8.72-10.58,8.72-10.58-1.36.4-1.27.17C230.14,324.6,220.05,329.56,213.73,330.89Z"/><path class="cls-22" d="M182.59,317.62a8.26,8.26,0,0,0,1.51,4.63c1.49,1.73-1,1.64,2.48,6.05,0,0,12.32-2.26,16.7-1.57s11.44-.19,19.45-2.47a18.34,18.34,0,0,0,9.07-6.57s5-.4,7.5-8.08c.36-1.11-.79-4.13-.79-4.13s-1.91-3.47-4.95-3.59c-12.61,9.35-18.09,7.06-20.15,6.61s-11.76-3.92-12.81-4.09-3.76-1.76-5.77,5.14-2.37,9.84-6.84,7C185.07,314.68,184.59,312.9,182.59,317.62Z"/><path class="cls-23" d="M232.6,305.68c-1.2,2.62-1,2.87.37,5.07s.45,4,1.2,5.29,2,.62,3.38-2.32,3.09-4.74,1.14-7.84S234.77,301,232.6,305.68Z"/><path class="cls-24" d="M184.2,322.55l3.91,1s.77-1.7,5-1.71,15.78-2.77,17.47-3S221.62,317,223,317s6.57-3,6.57-3-3.1,5-6.52,5.77a52.6,52.6,0,0,0-11.17,3.74c-4.65,1.58-9.82,3.41-9.82,3.41s-4.82-1.18-15.69,1.74A13,13,0,0,1,184.2,322.55Z"/><path class="cls-24" d="M204.54,308.46s-4.92,2.77-4.84,3.46,3.07-.52,4.45-1.54,0,2.75,0,3.4,1,1.63,1.71-1.62.84-2.93.84-2.93l3.92-1.68-2.72-.76-2.81-.56Z"/><path class="cls-24" d="M210.69,310.05s-4.61,2.62-4.52,3.3,2.91-.43,4.2-1.41.07,2.72.13,3.36,1,1.63,1.59-1.56.28-2.69.28-2.69l4.13-1.75-2.6-.81-2.69-.62Z"/><path class="cls-24" d="M217,310.76s-4.4,2.51-4.32,3.17,2.79-.41,4-1.35c0,0,.08,2.62.14,3.24s1,1.57,1.51-1.5.2-3.28.2-3.28l2.72-2.27-1.2.5-2.58-.61Z"/><path class="cls-25" d="M186.61,327.9a5.75,5.75,0,0,1-1.73-3.12c-.13-.59-.22-1.2-.36-1.79a7.93,7.93,0,0,0-.68-1.75c-.56-1.12-1.31-2.31-1.21-3.61a2.68,2.68,0,0,1,1.67-2.44c1.33-.37,2.49.93,3.56,1.51a4.68,4.68,0,0,0,3.73.57c2.21-.79,2.57-3.3,2.86-5.32a14.24,14.24,0,0,1,1-3.85,11.94,11.94,0,0,1,1-1.86,5.61,5.61,0,0,1,1.42-1.61,3.31,3.31,0,0,1,3.12-.09c1.2.44,2.35,1,3.55,1.46a77.38,77.38,0,0,0,8.5,2.48c2.53.62,5.28,1.28,7.88.71a20.82,20.82,0,0,0,3.87-1.47,30.27,30.27,0,0,0,3.78-2c.59-.37,1.16-.77,1.72-1.19s1-.86,1.51-1.21a5,5,0,0,1,3.68-.89,1.67,1.67,0,0,1,.81.58c.31.31.75-.15.47-.48,0,0-.18-.23-.09-.09l-.53.41a9.44,9.44,0,0,1,2.82,5.43,8.59,8.59,0,0,1-.94,4.09,38.36,38.36,0,0,1-1.87,3.74,57,57,0,0,1-4.52,6.88,18.16,18.16,0,0,1-5.75,5,66.89,66.89,0,0,1-7.31,3.08,64.53,64.53,0,0,1-8.27,2.5c-2.89.68-5.8,1.26-8.7,1.87-1.16.24-2.33.47-3.46.81s-2,.66-2.93,1c-1.82.59-4,1.34-5.92.84a3.11,3.11,0,0,1-1.3-.67,1.88,1.88,0,0,1-.51-1.68,15.48,15.48,0,0,0,.2-1.8,5,5,0,0,0-.51-1.8,1.66,1.66,0,0,1,0-1.72.35.35,0,0,0-.07-.54,1.13,1.13,0,0,1-.38-1.65c.24-.36-.34-.7-.58-.34a1.81,1.81,0,0,0,.62,2.58l-.06-.53a1.84,1.84,0,0,0-.43,1.51,12.86,12.86,0,0,0,.64,1.9c.34,1.23-.45,2.51,0,3.73a3.19,3.19,0,0,0,2.4,1.72,7.93,7.93,0,0,0,3-.09c2.17-.4,4.21-1.28,6.33-1.89,1.32-.38,2.69-.62,4-.9l4.6-1a78.81,78.81,0,0,0,9.09-2.37c2.72-.93,5.43-2,8.07-3.16a20.38,20.38,0,0,0,3.35-1.8,16.86,16.86,0,0,0,3-2.67,45.32,45.32,0,0,0,5-7.05,44.08,44.08,0,0,0,2.13-3.87,16.48,16.48,0,0,0,1.55-4.11,6.81,6.81,0,0,0-.51-4,11.13,11.13,0,0,0-1.62-2.71c-.25-.3-.52-.59-.79-.88s-.76.09-.53.41c.06.08.13.15.2.23l.47-.48a2.23,2.23,0,0,0-.78-.65,3.24,3.24,0,0,0-1.51-.2,6.75,6.75,0,0,0-3.61,1.5,27.93,27.93,0,0,1-7.76,4.52,11.34,11.34,0,0,1-4,1,18.71,18.71,0,0,1-4.28-.53,76.68,76.68,0,0,1-8.71-2.36c-1.38-.47-2.72-1-4.06-1.6a6,6,0,0,0-3.19-.69,4.48,4.48,0,0,0-2.87,2.24,12.93,12.93,0,0,0-1.81,4c-.31,1.18-.39,2.4-.64,3.6a4.53,4.53,0,0,1-1.47,2.91c-1.22.88-2.79.46-4-.22s-2.19-1.75-3.61-1.58a2.88,2.88,0,0,0-2.23,1.91,4.38,4.38,0,0,0,.13,3.37,20.81,20.81,0,0,1,1.57,3.75,11.45,11.45,0,0,0,1,3.44,5.81,5.81,0,0,0,1.18,1.43c.32.29.8-.18.48-.47Z"/><path class="cls-25" d="M231.88,309c.38,1.51,1.54,2.8,1.74,4.36.12,1-.4,2.07,0,3a1.2,1.2,0,0,0,1.66.53,4.8,4.8,0,0,0,1.7-1.68,22.07,22.07,0,0,0,2.4-4.56,7.63,7.63,0,0,0,.56-2,4.49,4.49,0,0,0-.56-2.37,13,13,0,0,0-1.42-2.16,5.74,5.74,0,0,0-1.68-1.65c-1.36-.67-2.51.81-3.19,1.79a6.15,6.15,0,0,0-1.2,4.76c.09.42.74.24.65-.18a5.39,5.39,0,0,1,1-4c.45-.68,1.42-2.22,2.42-1.77a5,5,0,0,1,1.54,1.53,12.78,12.78,0,0,1,1.28,2,3.61,3.61,0,0,1,.47,2.31,7.52,7.52,0,0,1-.52,1.67,22.41,22.41,0,0,1-2,3.87,6.25,6.25,0,0,1-1.43,1.72c-.31.23-.9.47-1.08,0a4.14,4.14,0,0,1,0-1.53,5.5,5.5,0,0,0,0-1.46c-.29-1.53-1.35-2.76-1.72-4.26C232.43,308.43,231.77,308.61,231.88,309Z"/><path class="cls-25" d="M186.34,328.7l6.15-1.09a36.37,36.37,0,0,1,6.16-.65c4,0,8,.06,12-.12a44.94,44.94,0,0,0,5.89-.64c1.31-.24,2.61-.58,3.9-.92a22.57,22.57,0,0,0,6-2.4,29.61,29.61,0,0,0,7.61-7.2c.27-.34-.21-.82-.48-.48a30.52,30.52,0,0,1-6.8,6.67,20.64,20.64,0,0,1-5.92,2.61,44.35,44.35,0,0,1-9.28,1.63c-2,.12-4,.14-5.93.15s-4,0-6,0c-1.12,0-2.24,0-3.35.08s-2.24.28-3.35.47l-6.79,1.21c-.42.08-.24.73.18.65Z"/><path class="cls-25" d="M190.93,327.45a7,7,0,0,1-2.77-2.44c-.67-1.18.33-2.11,1.41-2.49a19.29,19.29,0,0,1,4.48-.63q2.76-.28,5.5-.69,5.56-.79,11.07-1.88c.92-.18,1.83-.35,2.76-.48s1.89-.18,2.84-.27a48.14,48.14,0,0,0,5.47-.83,18,18,0,0,0,5.56-1.92,17.11,17.11,0,0,0,4-3.66l-.57-.23a5.24,5.24,0,0,1-1.61,2.57,24.59,24.59,0,0,1-2.12,2.09,20.57,20.57,0,0,1-5.23,3.36,14.45,14.45,0,0,1-2.8.88c-1,.2-2,.28-3,.57-2.09.59-4.05,1.54-6.09,2.24-2.57.88-5.16,1.73-7.75,2.54a.34.34,0,0,0,.18.65q3.62-1.12,7.2-2.35c2.18-.74,4.28-1.74,6.49-2.39a29.62,29.62,0,0,1,3.07-.58,14.54,14.54,0,0,0,3-.93,20.45,20.45,0,0,0,5.33-3.37,23.52,23.52,0,0,0,2.46-2.43,5.32,5.32,0,0,0,1.63-2.85.33.33,0,0,0-.57-.24,17.07,17.07,0,0,1-3.78,3.47,16.51,16.51,0,0,1-5.2,1.86,44.92,44.92,0,0,1-5.77.89,56.14,56.14,0,0,0-5.78.79q-5.72,1.13-11.48,1.93-2.94.42-5.9.69a11.66,11.66,0,0,0-4.09.79,2.3,2.3,0,0,0-1.33,3.07,7.35,7.35,0,0,0,3.11,2.86.34.34,0,0,0,.34-.59Z"/><path class="cls-25" d="M187.8,322.64l-3.85-.95a.34.34,0,0,0-.18.66l3.85.94c.43.1.61-.55.18-.65Z"/><path class="cls-25" d="M207.58,306.51a28,28,0,0,0-8,4.12.86.86,0,0,0-.21,1.28,1.29,1.29,0,0,0,1.6.16c.69-.32,1.35-.75,2-1.1s1.39-.7,2.09-1a45,45,0,0,1,5-1.91.34.34,0,0,0-.18-.65,45.27,45.27,0,0,0-7.17,3q-.87.45-1.71.93c-.28.15-.7.44-1,.27s.19-.53.38-.66a29.77,29.77,0,0,1,3.24-2,29,29,0,0,1,4.09-1.76c.41-.14.23-.79-.18-.65Z"/><path class="cls-25" d="M204.69,307.92a7,7,0,0,1,.77-2.09.34.34,0,0,0-.12-.46.35.35,0,0,0-.46.12,7.83,7.83,0,0,0-.84,2.25.34.34,0,1,0,.65.18Z"/><path class="cls-25" d="M204.41,310a11.3,11.3,0,0,0-.19,4.41.36.36,0,0,0,.24.24,1.36,1.36,0,0,0,1.2-.42,2.65,2.65,0,0,0,.58-1.34c.22-1.11.43-2.23.65-3.34.08-.43-.57-.61-.65-.18l-.55,2.79a6,6,0,0,1-.3,1.27c-.13.27-.41.62-.75.56l.24.24a10.23,10.23,0,0,1,.19-4.05.34.34,0,0,0-.66-.18Z"/><path class="cls-25" d="M214.18,308a29.3,29.3,0,0,0-4.23,1.82c-.71.37-1.41.76-2.09,1.18-.33.2-.65.4-1,.62a4.24,4.24,0,0,0-.84.62.88.88,0,0,0,.59,1.39c.67.13,1.34-.43,1.89-.73,1.31-.7,2.64-1.35,4-2a38.34,38.34,0,0,1,4.54-1.75.34.34,0,0,0-.18-.65,44.61,44.61,0,0,0-7,2.9c-.55.27-1.1.55-1.64.84l-.69.39a2,2,0,0,1-.49.24c-.27.09-.7,0-.36-.35a9.25,9.25,0,0,1,1.6-1.06c.59-.35,1.19-.69,1.79-1a28.72,28.72,0,0,1,4.26-1.85c.41-.14.24-.79-.18-.65Z"/><path class="cls-25" d="M210.65,309.79a8.24,8.24,0,0,1,.24-1,4.59,4.59,0,0,1,.38-.88.35.35,0,0,0-.12-.46.34.34,0,0,0-.47.12,6.79,6.79,0,0,0-.68,2,.36.36,0,0,0,.24.42.34.34,0,0,0,.41-.24Z"/><path class="cls-25" d="M210.39,311.62a10.41,10.41,0,0,0,0,4,.33.33,0,0,0,.23.23,1.14,1.14,0,0,0,1.1-.38,2.28,2.28,0,0,0,.48-1.23c.16-1,.31-2,.47-3a.36.36,0,0,0-.23-.42.35.35,0,0,0-.42.24l-.39,2.47a6.93,6.93,0,0,1-.22,1.12c-.09.24-.3.58-.61.52l.24.24a9.54,9.54,0,0,1,0-3.65c.09-.43-.56-.61-.65-.18Z"/><path class="cls-25" d="M219.67,308.7a17.28,17.28,0,0,0-4.1,2.31c-.63.45-1.26.92-1.89,1.39-.43.32-1.33.72-1.26,1.36s.8.81,1.32.64a6.66,6.66,0,0,0,1.61-.94c1.16-.8,2.24-1.69,3.37-2.52a14,14,0,0,1,3.81-2.27c.41-.14.23-.8-.18-.66-2.16.74-4,2.33-5.75,3.7a21.94,21.94,0,0,1-2.72,1.88,1.13,1.13,0,0,1-.55.21c-.33,0-.16-.18,0-.32s.53-.39.8-.58l1.65-1.22a17.45,17.45,0,0,1,4.06-2.33c.41-.15.23-.8-.18-.65Z"/><path class="cls-25" d="M217.45,310.27a4.1,4.1,0,0,1,.19-.66l0,0,0,0,0-.06a.61.61,0,0,1,.07-.14,3.35,3.35,0,0,1,.21-.36.34.34,0,0,0-.59-.34,5.23,5.23,0,0,0-.37.7,5.67,5.67,0,0,0-.2.67.34.34,0,1,0,.66.18Z"/><path class="cls-25" d="M216.51,311.86a10.1,10.1,0,0,0,.05,4.06.34.34,0,0,0,.34.34,1.37,1.37,0,0,0,1.29-.85,4.87,4.87,0,0,0,.35-1.46,26.67,26.67,0,0,1,.29-2.82c.09-.42-.56-.6-.65-.18a18.09,18.09,0,0,0-.27,2.54c0,.6-.11,2.19-1,2.09l.33.34a9.94,9.94,0,0,1-.07-3.88.34.34,0,0,0-.65-.18Z"/><path class="cls-25" d="M191.73,327.41l-.09,0s-.3-.21-.68-.52a.17.17,0,0,1,0-.24.17.17,0,0,1,.24,0c.37.3.66.5.66.5a.17.17,0,0,1,0,.24A.15.15,0,0,1,191.73,327.41Z"/><path class="cls-25" d="M189.88,325.74a.16.16,0,0,1-.13-.06,2.23,2.23,0,0,1-.61-1.33.88.88,0,0,1,.06-.33.17.17,0,0,1,.21-.11.17.17,0,0,1,.1.22.78.78,0,0,0,0,.22,2,2,0,0,0,.53,1.12.15.15,0,0,1,0,.23A.13.13,0,0,1,189.88,325.74Zm.84-2.33a.17.17,0,0,1-.16-.12.16.16,0,0,1,.11-.21,13.28,13.28,0,0,1,1.65-.33.17.17,0,0,1,.05.33,14,14,0,0,0-1.6.32Zm3.27-.53a.17.17,0,0,1-.17-.15.17.17,0,0,1,.16-.18c.5-.05,1-.1,1.65-.14a.16.16,0,0,1,.18.16.17.17,0,0,1-.15.18c-.61,0-1.15.08-1.65.13Zm3.31-.23a.17.17,0,0,1-.17-.16.17.17,0,0,1,.16-.18l1.66-.08a.16.16,0,0,1,.18.16.17.17,0,0,1-.16.17l-1.66.09Zm3.32-.16a.17.17,0,0,1,0-.34c.43,0,1-.1,1.64-.2a.17.17,0,0,1,.19.15.17.17,0,0,1-.14.19c-.67.1-1.22.16-1.66.2Zm3.29-.47a.16.16,0,0,1-.17-.14.16.16,0,0,1,.14-.19l1.63-.3a.17.17,0,1,1,.06.34l-1.64.29Zm3.26-.6a.18.18,0,0,1-.17-.14.19.19,0,0,1,.14-.2l1.62-.32a.16.16,0,0,1,.2.13.17.17,0,0,1-.13.2l-1.63.32Zm3.25-.65a.18.18,0,0,1-.16-.14.16.16,0,0,1,.13-.19l1.63-.33a.17.17,0,0,1,.07.33l-1.63.33Zm3.26-.65a.17.17,0,0,1,0-.33l1.63-.32a.17.17,0,1,1,.06.34l-1.63.31Zm3.27-.6a.17.17,0,0,1-.17-.14.18.18,0,0,1,.14-.2c.72-.11,1.26-.19,1.66-.22a.17.17,0,0,1,0,.34c-.39,0-.92.1-1.64.22Zm3.3-.26a.16.16,0,0,1-.17-.15.18.18,0,0,1,.15-.19,8.25,8.25,0,0,0,1.59-.34.17.17,0,0,1,.1.32,8.93,8.93,0,0,1-1.65.36Zm3.16-.95a.16.16,0,0,1-.15-.09.18.18,0,0,1,.08-.23c.47-.21,1-.47,1.46-.75a.17.17,0,1,1,.17.29c-.51.29-1,.55-1.49.77Zm2.88-1.64a.15.15,0,0,1-.14-.07.18.18,0,0,1,0-.24c.45-.3.9-.62,1.34-1a.17.17,0,0,1,.24,0,.18.18,0,0,1,0,.24c-.45.34-.91.67-1.36,1A.16.16,0,0,1,226.29,316.67Z"/><path class="cls-25" d="M228.89,314.68a.16.16,0,0,1-.13-.06.17.17,0,0,1,0-.24c.39-.34.62-.55.62-.56a.17.17,0,0,1,.23.25s-.23.22-.63.57A.15.15,0,0,1,228.89,314.68Z"/><path class="cls-25" d="M187.28,326.79a.15.15,0,0,1-.13-.07,4.81,4.81,0,0,1-.85-1.51.18.18,0,0,1,.11-.22.16.16,0,0,1,.21.11,4.68,4.68,0,0,0,.79,1.41.16.16,0,0,1,0,.24A.13.13,0,0,1,187.28,326.79Zm-1.51-2.72h0a7.39,7.39,0,0,1-1.59-.7.17.17,0,0,1-.06-.23.16.16,0,0,1,.23-.06,7.67,7.67,0,0,0,1.49.66.18.18,0,0,1,.13.21A.17.17,0,0,1,185.77,324.07Z"/><path class="cls-25" d="M223,307.77a8.67,8.67,0,0,0-2.84,7.91c.07.43.72.25.65-.18a8,8,0,0,1,2.67-7.25c.33-.28-.15-.76-.48-.48Z"/><path class="cls-25" d="M222.77,308a10.69,10.69,0,0,0-1.14,5.09.34.34,0,0,0,.67,0,10.06,10.06,0,0,1,1-4.74c.2-.39-.39-.74-.58-.35Z"/><ellipse class="cls-27" cx="136.5" cy="147.14" rx="67.71" ry="95.91" transform="translate(-2.15 2.02) rotate(-0.84)"/><ellipse class="cls-28" cx="137.49" cy="147.12" rx="60.46" ry="86.92" transform="translate(-2.14 2.03) rotate(-0.84)"/><ellipse class="cls-29" cx="137.49" cy="147.12" rx="53.9" ry="77.49" transform="translate(-2.14 2.03) rotate(-0.84)"/><path class="cls-30" d="M178.72,121.77l-9.56,18.29a9.26,9.26,0,0,1-2.18,2.8,6.23,6.23,0,0,1-2.76,1.39,5.3,5.3,0,0,1-2.92-.23,6.91,6.91,0,0,1-2.64-1.82l-.11-.12a10.8,10.8,0,0,1-2.2-3.8,14.76,14.76,0,0,1-.79-4.82v-7a7.38,7.38,0,0,0-5.9,3.54,15.06,15.06,0,0,0-2.44,8.49v53.06c0,6.41-3.47,11.87-7.93,12.1a6.09,6.09,0,0,1-3.24-.78,8.45,8.45,0,0,1-2.77-2.53,13,13,0,0,1-1.87-3.88,16.8,16.8,0,0,1-.66-4.62V138.5a49.71,49.71,0,0,1,1.89-13.64A39.26,39.26,0,0,1,138,113.29a26.51,26.51,0,0,1,8.06-7.72,18.5,18.5,0,0,1,9.5-2.71H172c4.84,0,8.23,4.88,8.23,11.83A16,16,0,0,1,178.72,121.77Z"/><path class="cls-31" d="M118.45,102.8H105.87c-4.48,0-8.11,5.22-8.11,11.65v.35c0,6.43,3.63,11.65,8.11,11.65h12.58c4.48,0,8.12-5.22,8.12-11.65v-.35C126.57,108,122.93,102.8,118.45,102.8Z"/><path class="cls-32" d="M159.48,230.15A5.82,5.82,0,0,0,157,222.6c-.4-.22-40.7-22.33-75.64-59.9a5.83,5.83,0,0,0-8.54,7.93c36.3,39,76.91,61.28,78.63,62.21a5.82,5.82,0,0,0,7.9-2.34Z"/><path class="cls-2" d="M154.17,234.56a6.83,6.83,0,0,1-3.25-.83c-1.71-.92-42.39-23.17-78.88-62.41a6.83,6.83,0,0,1,5.26-11.49A6.75,6.75,0,0,1,82.06,162c34.81,37.43,75,59.48,75.39,59.7a6.85,6.85,0,0,1,3,8.86h0c-.06.14-.13.27-.2.41a6.8,6.8,0,0,1-4.07,3.3A6.88,6.88,0,0,1,154.17,234.56ZM77.05,161.85a4.81,4.81,0,0,0-4.81,4.64,4.74,4.74,0,0,0,1.29,3.45c36.26,39,76.66,61.09,78.36,62a4.83,4.83,0,0,0,6.53-1.94,2.59,2.59,0,0,0,.14-.29,4.82,4.82,0,0,0-2.08-6.23c-.41-.22-40.87-22.43-75.9-60.1a4.83,4.83,0,0,0-3.35-1.54Z"/><path class="cls-12" d="M164.9,224.37c.88-.06,4-.86,5.34-.86a73.68,73.68,0,0,1,8.3.42c1.72.32,5.05.54,6.86-.43s3.42-3.26,4.67-3.83a5.38,5.38,0,0,1,6.22,1.06,6.9,6.9,0,0,1,2,5.74c-.18,1-1.75,4.43-3.67,5s-5,.22-6.36.35-3.23.34-3.93,1.09-1,1.42-.71,1.88a9.91,9.91,0,0,0,2.6,2.85,26.12,26.12,0,0,0,7,2.9c2.05.31,8.17,1.29,10,2.26s3.64,2.93,3.83,4.92-.95,5.72-4.6,6.53c.75,1.51-.37,4.48-1.51,5.59s-3.52,2.89-5.35,2.55c-.18.5-.46,2.74-2.07,3.62s-4.26,2.12-8.25-.67S177,258,174.87,256.71s-14.47-8.09-17.56-13-1.82-4.86-1.82-4.86a3.45,3.45,0,0,1-1.64,1c-1.08.28-2.08.44-2.67-.26s-1.75-3.57,1.1-9.71,8.58-11.06,10.39-10.54,1.48,3,1.41,3.65S164.49,224.4,164.9,224.37Z"/><path class="cls-14" d="M185.26,265.35c-.61-.43-1.23-.9-1.84-1.39,3.21,2.15,6.49,2.53,6.94-.41s-6.76-7.9-12-11.45a19.58,19.58,0,0,1,6.7,3.11c3.42,2.26,7.51,5.93,10.92,5.18a3.07,3.07,0,0,0,2.09-3.14c-.77-3.19-4.22-4.88-6.41-6.59A27.43,27.43,0,0,0,182,245.9a15.21,15.21,0,0,1,7.88,1.59c2.84,1.45,5.56,3.72,10.37,5.22,2.42.75,4.32-2.58,3.88-4.93-.52-2.76-4.38-4.5-7.34-4.6-7.14.63-16.2-5.25-16-10.07.94-4.67,11.52-1.92,12.63-8.11.5-1.92-1.19-4.24-3.76-5.07a3,3,0,0,1,.44-.26,5.38,5.38,0,0,1,6.22,1.06,6.9,6.9,0,0,1,2,5.74c-.18,1-1.75,4.43-3.67,5s-5,.22-6.36.35-3.23.34-3.93,1.09-1,1.42-.71,1.88a9.91,9.91,0,0,0,2.6,2.85,26.12,26.12,0,0,0,7,2.9c2.05.31,8.17,1.29,10,2.26s3.64,2.93,3.83,4.92-.95,5.72-4.6,6.53c.75,1.51-.37,4.48-1.51,5.59s-3.52,2.89-5.35,2.55c-.18.5-.46,2.74-2.07,3.62S189.25,268.14,185.26,265.35Z"/><path class="cls-15" d="M189.93,267.73c-3.82,0-7-2.73-11.51-6.94a50.74,50.74,0,0,0-9.08-6.59c-2.05-1.26-4.37-2.69-7.27-4.72-5.5-3.86-6.86-7.53-7.18-9.4-1.5.89-2.74,1-3.69.45-1.36-.85-1.75-3-1.14-6.28a27.48,27.48,0,0,1,4-9c1-1.54,3.56-5.18,5.92-5.85,1.9-.55,3.31-.46,4.18.25a2.72,2.72,0,0,1,.88,2.5c0,.22,0,.42-.05.6s0,.48,0,.63a8.27,8.27,0,0,0,1.88-.27c2.67-.56,7.16-.25,11.5,0,1,.07,2,.14,2.9.19,3,.18,4.94-1.43,6.61-2.85a10,10,0,0,1,2.5-1.74,6.93,6.93,0,0,1,5.42.4,6.56,6.56,0,0,1,3.39,4.37,7.51,7.51,0,0,1-1.29,6.54,7.14,7.14,0,0,1-5.69,2.79h-.64c-3.52,0-6.83,0-6.84,1.59,0,1.78,4.37,5,12.32,6.07,7.28,1,11.19,2.62,11,8.23a6.53,6.53,0,0,1-4.7,6,8,8,0,0,1-1.34,5.23,7.41,7.41,0,0,1-5.7,3.08,5.58,5.58,0,0,1-4.68,4.53A8.56,8.56,0,0,1,189.93,267.73Zm-33.77-28.8c0,.08-.31,4.53,6.68,9.44,2.87,2,5.18,3.43,7.21,4.68a52.1,52.1,0,0,1,9.29,6.75c5.28,4.91,8.18,7.15,11.91,6.46a4.21,4.21,0,0,0,3.65-3.88.67.67,0,0,1,.68-.65h0s3.51,0,5.14-2.49a6.16,6.16,0,0,0,1-4.79.71.71,0,0,1,.08-.55.69.69,0,0,1,.45-.31,5.3,5.3,0,0,0,4.25-4.91c.15-3.7-1.28-5.66-9.79-6.84-7.59-1.05-13.51-4.31-13.49-7.42,0-2.93,4-2.93,8.19-2.93h.64a5.8,5.8,0,0,0,4.62-2.27,6.2,6.2,0,0,0,1-5.38,5.23,5.23,0,0,0-2.7-3.5,5.57,5.57,0,0,0-4.3-.34,8.53,8.53,0,0,0-2.12,1.51c-1.78,1.51-4,3.39-7.57,3.17-.94-.05-1.92-.12-2.91-.19-4.05-.28-8.65-.6-11.13-.08-1.77.37-2.59.45-3.12,0s-.41-1.06-.34-1.79q0-.26.06-.57a1.54,1.54,0,0,0-.39-1.34c-.5-.41-1.55-.41-3,0-2.82.8-8,8.81-8.92,13.82-.57,3-.1,4.49.52,4.88s1.77,0,3.17-1.06a.67.67,0,0,1,.74,0A.65.65,0,0,1,156.16,238.93Z"/><path class="cls-15" d="M196.57,262.9c-1.54,0-4.69-.71-9.68-5a104.93,104.93,0,0,0-8.65-6.54.67.67,0,0,1,.74-1.12,103.17,103.17,0,0,1,8.79,6.63c6.43,5.52,9.39,4.61,9.42,4.6a.67.67,0,0,1,.87.38.69.69,0,0,1-.39.88A3.2,3.2,0,0,1,196.57,262.9Z"/><path class="cls-15" d="M203.47,254.69a14.35,14.35,0,0,1-7.35-2.62c-3.66-2.44-7.13-4.75-12.17-6.11a.68.68,0,0,1,.36-1.31c5.25,1.42,9,3.9,12.56,6.3a13.24,13.24,0,0,0,6.6,2.39h0a.68.68,0,0,1,0,1.35Z"/><path class="cls-2" d="M258.3,160.1a1.61,1.61,0,0,1-.39,1.1,1.25,1.25,0,0,1-1,.45,5.08,5.08,0,0,1-1.27-.31,4.93,4.93,0,0,0-1.5-.32,2.06,2.06,0,0,0-1.25.36,1.17,1.17,0,0,0-.49,1c0,.54.74,1,2.23,1.48a13.64,13.64,0,0,1,3.49,1.51,3.54,3.54,0,0,1,1.27,3.17,4.4,4.4,0,0,1-1.53,3.51,5.58,5.58,0,0,1-3.81,1.33,11.43,11.43,0,0,1-3.48-.51c-1.08-.34-1.61-1-1.61-1.83a1.53,1.53,0,0,1,.38-1.06,1.33,1.33,0,0,1,1-.42A7.74,7.74,0,0,1,252,170a7,7,0,0,0,1.86.4,2.28,2.28,0,0,0,1.58-.49,1.64,1.64,0,0,0,.55-1.3c0-.65-.76-1.22-2.29-1.69a18.54,18.54,0,0,1-3.5-1.39,2.87,2.87,0,0,1-1.2-2.74,4.35,4.35,0,0,1,1.51-3.44,5.46,5.46,0,0,1,3.69-1.3,7.81,7.81,0,0,1,2.69.5C257.83,158.85,258.3,159.38,258.3,160.1Z"/><path class="cls-2" d="M261.81,171.63V159.77a1.66,1.66,0,0,1,.42-1.2,1.58,1.58,0,0,1,2.71,1.2v4.43h6.57v-4.43a1.62,1.62,0,0,1,.43-1.2,1.57,1.57,0,0,1,2.7,1.2v11.86a1.66,1.66,0,0,1-.42,1.2,1.58,1.58,0,0,1-2.71-1.2v-4.55h-6.57v4.55a1.66,1.66,0,0,1-.43,1.2,1.75,1.75,0,0,1-2.26,0A1.6,1.6,0,0,1,261.81,171.63Z"/><path class="cls-2" d="M277,165.7a7.81,7.81,0,0,1,2-5.49,7.14,7.14,0,0,1,10.33,0,8.42,8.42,0,0,1,0,10.94,7.22,7.22,0,0,1-10.36,0A7.77,7.77,0,0,1,277,165.7Zm11.13,0a5.54,5.54,0,0,0-1-3.4,3.35,3.35,0,0,0-2.9-1.4,3.44,3.44,0,0,0-2.9,1.36,6.22,6.22,0,0,0,0,6.87,3.44,3.44,0,0,0,2.91,1.37,3.38,3.38,0,0,0,2.9-1.38A5.54,5.54,0,0,0,288.15,165.7Z"/><path class="cls-2" d="M293.78,171.63V159.9a1.65,1.65,0,0,1,.42-1.18,1.57,1.57,0,0,1,1.21-.45h3.72a5.41,5.41,0,0,1,3.82,1.4,4.67,4.67,0,0,1,1.52,3.59,4.59,4.59,0,0,1-1.51,3.59,5.38,5.38,0,0,1-3.71,1.35h-2.34v3.43a1.66,1.66,0,0,1-.42,1.2,1.58,1.58,0,0,1-2.71-1.2ZM296.91,161v4.43h2.15a2.09,2.09,0,0,0,1.56-.62,2.17,2.17,0,0,0,.59-1.59,2.2,2.2,0,0,0-.59-1.58,2.06,2.06,0,0,0-1.56-.64Z"/></svg>