<svg id="Capa_2" data-name="Capa 2" xmlns="http://www.w3.org/2000/svg" xmlns:xlink="http://www.w3.org/1999/xlink" viewBox="0 0 400 400"><defs><style>.cls-1{fill:url(#Degradado_sin_nombre_12);}.cls-2{fill:#686868;}.cls-3{fill:#313b47;}.cls-4{fill:#dff2f9;}.cls-5{fill:#91a8ce;}.cls-6{fill:#3c3c3b;}.cls-7{fill:url(#Degradado_sin_nombre_12-2);}.cls-8{fill:url(#Degradado_sin_nombre_12-3);}.cls-9{fill:url(#Degradado_sin_nombre_12-4);}.cls-10{fill:#939286;}.cls-11{fill:#e5e4c8;}.cls-12{fill:#fff;}.cls-13{fill:#999698;}.cls-14{fill:#575756;}.cls-15{fill:#d9d7da;}.cls-16{fill:#27273d;}.cls-17{fill:url(#Degradado_sin_nombre_49);}.cls-18{opacity:0.93;fill:url(#Nueva_muestra_de_degradado_2);}.cls-19{fill:url(#Degradado_sin_nombre_49-2);}.cls-20{fill:url(#Degradado_sin_nombre_38);}.cls-21{fill:url(#Degradado_sin_nombre_12-5);}.cls-22{fill:url(#Degradado_sin_nombre_11);}.cls-23{fill:#d3d3d3;}.cls-24{fill:#222235;}.cls-25{fill:#fcfcfc;}.cls-26{fill:#3062c6;}.cls-27{fill:#ed3737;}.cls-28{fill:#ffd733;}</style><linearGradient id="Degradado_sin_nombre_12" x1="-4786.9" y1="15.71" x2="-4751.19" y2="15.71" gradientTransform="matrix(-1, -0.06, -0.06, 1, -4481.57, -141.72)" gradientUnits="userSpaceOnUse"><stop offset="0.08" stop-color="#797d86"/><stop offset="0.47" stop-color="#a8abb0"/><stop offset="0.82" stop-color="#cbcccf"/><stop offset="1" stop-color="#d8d9db"/></linearGradient><linearGradient id="Degradado_sin_nombre_12-2" x1="336.33" y1="341.04" x2="372.04" y2="341.04" gradientTransform="translate(-252.24 -141.72) rotate(-3.63)" xlink:href="#Degradado_sin_nombre_12"/><linearGradient id="Degradado_sin_nombre_12-3" x1="2880.63" y1="266.88" x2="2921.18" y2="266.88" gradientTransform="matrix(-1, 0, 0, 1, 3159.84, 0)" xlink:href="#Degradado_sin_nombre_12"/><linearGradient id="Degradado_sin_nombre_12-4" x1="120.79" y1="266.88" x2="161.34" y2="266.88" gradientTransform="matrix(1, 0, 0, 1, 0, 0)" xlink:href="#Degradado_sin_nombre_12"/><linearGradient id="Degradado_sin_nombre_49" x1="199.25" y1="-376.96" x2="199.25" y2="208.8" gradientUnits="userSpaceOnUse"><stop offset="0" stop-color="#fff"/><stop offset="0.14" stop-color="#c9cbce"/><stop offset="0.31" stop-color="#92969c"/><stop offset="0.47" stop-color="#656a73"/><stop offset="0.62" stop-color="#424853"/><stop offset="0.77" stop-color="#29303c"/><stop offset="0.9" stop-color="#19212e"/><stop offset="1" stop-color="#141c29"/></linearGradient><linearGradient id="Nueva_muestra_de_degradado_2" x1="115.07" y1="126.43" x2="283.47" y2="126.43" gradientUnits="userSpaceOnUse"><stop offset="0" stop-color="#e340a1"/><stop offset="0.49" stop-color="#664ad6"/><stop offset="0.99" stop-color="#14b2f5"/></linearGradient><linearGradient id="Degradado_sin_nombre_49-2" x1="199.27" y1="-297.84" x2="199.27" y2="195.87" xlink:href="#Degradado_sin_nombre_49"/><linearGradient id="Degradado_sin_nombre_38" x1="153.4" y1="200.19" x2="187.27" y2="146.59" gradientUnits="userSpaceOnUse"><stop offset="0.34" stop-color="#1c222b" stop-opacity="0.7"/><stop offset="0.92" stop-color="#152745" stop-opacity="0"/></linearGradient><linearGradient id="Degradado_sin_nombre_12-5" x1="236.5" y1="6818.69" x2="188.38" y2="6866.87" gradientTransform="matrix(1, 0, 0, -1, 0, 6965.74)" xlink:href="#Degradado_sin_nombre_12"/><linearGradient id="Degradado_sin_nombre_11" x1="197.33" y1="6845.08" x2="143.46" y2="6883.54" gradientTransform="matrix(1, 0, 0, -1, 0, 6965.74)" gradientUnits="userSpaceOnUse"><stop offset="0" stop-color="#797d86"/><stop offset="0.09" stop-color="#95999f"/><stop offset="0.2" stop-color="#aeb0b5"/><stop offset="0.32" stop-color="#c1c2c6"/><stop offset="0.47" stop-color="#cecfd2"/><stop offset="0.65" stop-color="#d6d7d9"/><stop offset="1" stop-color="#d8d9db"/></linearGradient></defs><title>i</title><path class="cls-1" d="M264.54,152.86c-2.69.84-4.39,4.11-4.51,7.26a19.27,19.27,0,0,0,2.33,8.89c2.91,6.06,6.79,11.45,10.64,16.79,3.43,4.75,7,9.62,11.81,12.44,1.61.94,3.49,1.64,5.24,1,3-1.07,4-5.31,3.67-8.78-.94-10.49-8.9-17.93-15-25.84-4-5.16-8.14-11.44-14.23-11.79"/><path class="cls-2" d="M278,193.78s-8.55-12.82-7.47-23.23,7-8.4,7-8.4-8.4-9.77-12.72-9.57-5.2,8.91-3.43,14.25S278,193.78,278,193.78Z"/><path class="cls-3" d="M288.63,200.51a8.7,8.7,0,0,1-4.33-1.39c-5.09-3-8.82-8.16-12.12-12.73-3.82-5.3-7.77-10.78-10.73-16.94-1.2-2.51-2.57-5.84-2.43-9.37.17-4.57,2.83-7.45,5.22-8.19l.25.81.06-.87c6,.34,10.18,5.86,13.87,10.73l1.11,1.45c1.16,1.5,2.41,3,3.63,4.5,5.3,6.43,10.79,13.08,11.57,21.86.35,3.86-.86,8.58-4.33,9.84A5.31,5.31,0,0,1,288.63,200.51Zm-23.92-46.64c-2,.71-3.56,3.38-3.67,6.28-.11,3.09,1.14,6.12,2.24,8.42,2.88,6,6.78,11.41,10.55,16.64,3.17,4.41,6.77,9.4,11.49,12.16,1.79,1,3.23,1.35,4.39.93,2.35-.85,3.29-4.54,3-7.74-.73-8.17-6-14.57-11.12-20.76-1.22-1.49-2.49-3-3.67-4.55l-1.11-1.46C273.28,159.13,269.63,154.33,264.71,153.87Z"/><path class="cls-4" d="M293.15,190.59l1.57-2.28c.29-.43-1-5.42-12.35-7.51s-11.12,5.13-11.12,5.13a13.72,13.72,0,0,0-1.18-1.42c-.57-.57-3.23-4.66-6.89-3.38s-2.62,7.6.52,10.36,11.59,7.93,11.59,7.93-3.13.14-4,5,2.33,8.74,2.33,8.74-3.13,2.8-1.42,6.56,9.12,9.88,9.12,9.88l4.79-7.13s-6.17-8.36-5-15.87,12.11-16,12.11-16"/><path class="cls-5" d="M284.7,227.92l-2.43,1.43s-5.46-2.61-7.45-5.56-2.66-4.08-2.66-4.08,3.23.47,5.13-.86,2-3.8.85-9.5a11.77,11.77,0,0,1,8.17-13.3s-4,3-4.27,6.65,2.47,7.22,2.47,7.22l1.8,1s-3.32,3.33-2.94,7.22,3.32,3.8,3.32,3.8S283.37,224.27,284.7,227.92Z"/><path class="cls-6" d="M276.2,201a.69.69,0,0,1-.53-.25c-.92-1.15-2.86-2.3-5.1-3.63-1.64-1-3.5-2.07-5.27-3.36-4-2.93-5.69-6.84-4.49-10.46a4.25,4.25,0,0,1,3.14-3.08c1.33-.25,3.47.12,6.11,3.32,3.64,4.41,7.42,4.16,7.58,4.15a.67.67,0,0,1,.73.61.67.67,0,0,1-.61.73c-.19,0-4.62.36-8.74-4.63-1.74-2.1-3.45-3.11-4.82-2.85a3,3,0,0,0-2.11,2.18c-1,3,.5,6.37,4,8.94a61,61,0,0,0,5.16,3.29c2.36,1.39,4.4,2.6,5.47,4a.68.68,0,0,1-.11.95A.73.73,0,0,1,276.2,201Z"/><path class="cls-6" d="M292.16,192.2a.67.67,0,0,1-.34-1.26s2.16-1.27,2.2-2.89c0-1-.73-2-2.23-2.92A23.18,23.18,0,0,0,276,181.5a4.25,4.25,0,0,0-3.77,4.07.68.68,0,0,1-1.35,0,5.57,5.57,0,0,1,4.9-5.39A24.68,24.68,0,0,1,292.53,184c1.92,1.24,2.88,2.62,2.84,4.09-.06,2.38-2.76,4-2.88,4A.66.66,0,0,1,292.16,192.2Z"/><path class="cls-6" d="M274.47,214.65a.68.68,0,0,1-.51-.23c-2.87-3.37-4.06-6.61-3.54-9.62a9.55,9.55,0,0,1,4.28-6.16.68.68,0,0,1,.69,1.17h0a8.25,8.25,0,0,0-3.64,5.23c-.44,2.6.65,5.46,3.24,8.5a.68.68,0,0,1-.08,1A.66.66,0,0,1,274.47,214.65Z"/><path class="cls-6" d="M281.59,229.88l-.15,0c-.17,0-4-1-8.38-7.39-1.73-2.52-2.39-4.78-1.95-6.72a4.71,4.71,0,0,1,2-2.92.68.68,0,0,1,.68,1.17,3.34,3.34,0,0,0-1.36,2.08c-.34,1.55.25,3.44,1.75,5.62,4.07,5.92,7.54,6.84,7.57,6.84a.68.68,0,0,1-.15,1.34Z"/><path class="cls-7" d="M135.2,152.86c2.7.84,4.39,4.11,4.51,7.26a19.15,19.15,0,0,1-2.33,8.89c-2.91,6.06-6.79,11.45-10.64,16.79-3.42,4.75-7,9.62-11.8,12.44-1.61.94-3.5,1.64-5.25,1-3-1.07-4-5.31-3.67-8.78.94-10.49,8.91-17.93,15-25.84,4-5.16,8.14-11.44,14.24-11.79"/><path class="cls-2" d="M121.71,193.78s8.55-12.82,7.47-23.23-7-8.4-7-8.4,8.41-9.77,12.72-9.57,5.21,8.91,3.44,14.25S121.71,193.78,121.71,193.78Z"/><path class="cls-3" d="M111.11,200.51a5.21,5.21,0,0,1-1.76-.3c-3.47-1.26-4.68-6-4.34-9.84.79-8.78,6.27-15.43,11.58-21.86,1.21-1.47,2.47-3,3.63-4.5l1.1-1.45c3.69-4.87,7.88-10.39,13.88-10.73l.05.87.25-.81c2.4.74,5.05,3.62,5.23,8.19.13,3.53-1.23,6.86-2.44,9.37-2.95,6.16-6.9,11.64-10.73,16.94-3.29,4.57-7,9.76-12.11,12.73A8.73,8.73,0,0,1,111.11,200.51ZM135,153.87c-4.92.46-8.56,5.26-12.09,9.92l-1.12,1.46c-1.18,1.53-2.44,3.06-3.67,4.55C113,176,107.76,182.39,107,190.56c-.28,3.2.66,6.89,3,7.74,1.16.42,2.59.11,4.39-.93,4.71-2.76,8.31-7.75,11.49-12.16,3.77-5.23,7.67-10.64,10.55-16.64,1.1-2.3,2.35-5.33,2.23-8.42C138.59,157.25,137,154.58,135,153.87Z"/><path class="cls-4" d="M106.59,190.59,105,188.31c-.28-.43,1-5.42,12.36-7.51s11.11,5.13,11.11,5.13a14.48,14.48,0,0,1,1.19-1.42c.57-.57,3.23-4.66,6.89-3.38s2.61,7.6-.53,10.36-11.59,7.93-11.59,7.93,3.14.14,4,5-2.33,8.74-2.33,8.74,3.14,2.8,1.43,6.56-9.12,9.88-9.12,9.88l-4.8-7.13s6.18-8.36,5-15.87-12.12-16-12.12-16"/><path class="cls-5" d="M115.05,227.92l2.42,1.43s5.46-2.61,7.46-5.56,2.66-4.08,2.66-4.08-3.23.47-5.13-.86-2-3.8-.86-9.5a11.76,11.76,0,0,0-8.17-13.3s4,3,4.28,6.65-2.47,7.22-2.47,7.22l-1.81,1s3.33,3.33,2.95,7.22-3.33,3.8-3.33,3.8S116.38,224.27,115.05,227.92Z"/><path class="cls-6" d="M123.55,201a.71.71,0,0,1-.42-.14.66.66,0,0,1-.11-.95c1.07-1.35,3.11-2.56,5.47-4,1.61-.95,3.44-2,5.15-3.29,3.52-2.57,5-5.91,4-8.94a2.94,2.94,0,0,0-2.1-2.18c-1.38-.26-3.09.75-4.82,2.85-4.12,5-8.56,4.65-8.74,4.63a.67.67,0,1,1,.12-1.34c.16,0,3.94.26,7.57-4.15,2.65-3.2,4.78-3.57,6.12-3.32a4.26,4.26,0,0,1,3.14,3.08c1.19,3.62-.49,7.53-4.5,10.46-1.77,1.29-3.63,2.39-5.27,3.36-2.24,1.33-4.18,2.48-5.09,3.63A.72.72,0,0,1,123.55,201Z"/><path class="cls-6" d="M107.58,192.2a.68.68,0,0,1-.33-.09c-.12-.06-2.81-1.64-2.88-4,0-1.47.92-2.85,2.85-4.09A24.7,24.7,0,0,1,124,180.17a5.58,5.58,0,0,1,4.91,5.39.69.69,0,0,1-.68.68h0a.69.69,0,0,1-.68-.67,4.24,4.24,0,0,0-3.76-4.07A23.2,23.2,0,0,0,108,185.13c-1.5,1-2.25,2-2.22,2.92,0,1.62,2.17,2.88,2.19,2.89a.67.67,0,0,1-.34,1.26Z"/><path class="cls-6" d="M125.27,214.65a.67.67,0,0,1-.51-1.11c2.58-3,3.67-5.9,3.24-8.5a8.33,8.33,0,0,0-3.64-5.23.68.68,0,0,1,.68-1.17,9.55,9.55,0,0,1,4.29,6.16c.51,3-.68,6.25-3.54,9.62A.71.71,0,0,1,125.27,214.65Z"/><path class="cls-6" d="M118.16,229.88a.68.68,0,0,1-.16-1.34s3.51-.92,7.57-6.84c1.5-2.18,2.09-4.07,1.76-5.62A3.34,3.34,0,0,0,126,214a.68.68,0,0,1,.68-1.17,4.67,4.67,0,0,1,2,2.92c.43,1.94-.22,4.2-1.95,6.72-4.41,6.41-8.22,7.35-8.38,7.39Z"/><path class="cls-8" d="M241.09,198.1c2.26-1.36,5.33-.43,7.2,1.43s2.8,4.42,3.68,6.91q3.38,9.65,6.46,19.41,7.31,23.22,12.83,47,2.76,11.87,5.06,23.82c.66,3.46,1.27,9.46,1.75,12.9,0,0,.72,15.1.86,18.66s.28,7.41.28,7.41l-13,.72-.14-19c-1-4.95-1.07-10-1.89-14.94A517.79,517.79,0,0,0,240,209.48C238.54,205.58,237.53,200.24,241.09,198.1Z"/><path class="cls-2" d="M247,205.35s27.5,84.08,25.65,132.68c0,0-5.62.61-5.7-2.57-.43-15.82-4-43-10.69-72.11A488.72,488.72,0,0,0,240,208.77Z"/><path class="cls-3" d="M266.09,335.92c-.29-8.91-2.3-29.77-2.81-33A518.77,518.77,0,0,0,239,209.83c-2.24-6.17-1.69-10.65,1.56-12.6,2.8-1.69,6.36-.48,8.43,1.58s3.11,5,3.92,7.29c1.72,4.89,3.4,9.87,5,14.81,5,15.41,9.44,31.22,13.23,47,1.89,7.88,3.66,15.9,5.25,23.84.66,3.29,5,31.06,3.11,43.6l-2-.31c1.76-11.5-2.13-38.07-3.1-42.9-1.58-7.91-3.34-15.9-5.23-23.76C265.39,252.65,261,236.9,256,221.53c-1.59-4.92-3.26-9.88-5-14.76-.95-2.7-1.81-4.9-3.44-6.53-1.48-1.46-4.06-2.41-5.95-1.27-3.14,1.88-1.79,7.18-.71,10.17a519.32,519.32,0,0,1,24.37,93.5c.54,3.3,2.54,24,2.83,33.22Z"/><path d="M252.9,208.91s-1.62-10.64-7.51-11.3-6.93,4.46-5.6,9.78,5,15.3,5,15.3S241.31,204.92,252.9,208.91Z"/><path class="cls-9" d="M158.91,198.1c-2.26-1.36-5.33-.43-7.19,1.43s-2.81,4.42-3.68,6.91q-3.39,9.65-6.46,19.41-7.32,23.22-12.84,47-2.76,11.87-5.06,23.82c-.66,3.46-1.27,9.46-1.75,12.9,0,0-.71,15.1-.85,18.66s-.29,7.41-.29,7.41l13,.72.14-19c1-4.95,1.08-10,1.89-14.94A517.79,517.79,0,0,1,160,209.48C161.46,205.58,162.47,200.24,158.91,198.1Z"/><path class="cls-2" d="M153,205.35S125.49,289.43,127.35,338c0,0,5.61.61,5.7-2.57.42-15.82,4-43,10.68-72.11A488.72,488.72,0,0,1,160,208.77Z"/><path class="cls-3" d="M133.92,335.92l-2-.06c.29-9.21,2.3-29.92,2.84-33.22a519.3,519.3,0,0,1,24.36-93.5c1.08-3,2.44-8.29-.7-10.17-1.89-1.14-4.48-.19-6,1.27-1.63,1.63-2.49,3.83-3.44,6.53-1.71,4.88-3.38,9.84-5,14.76-5,15.37-9.41,31.12-13.18,46.83-1.89,7.86-3.65,15.85-5.24,23.76-1,4.83-4.85,31.4-3.1,42.9l-2,.31c-1.92-12.54,2.45-40.31,3.11-43.6,1.59-7.94,3.36-16,5.25-23.84,3.79-15.76,8.24-31.57,13.23-47,1.6-4.94,3.27-9.92,5-14.81.81-2.32,1.83-5.21,3.92-7.29s5.63-3.27,8.43-1.58c3.25,2,3.81,6.43,1.57,12.6A517.1,517.1,0,0,0,136.73,303C136.21,306.15,134.2,327,133.92,335.92Z"/><path d="M147.11,208.91s1.61-10.64,7.5-11.3,6.94,4.46,5.61,9.78-5,15.3-5,15.3S158.7,204.92,147.11,208.91Z"/><path class="cls-10" d="M288.76,358.52a57.87,57.87,0,0,0,19.65,1.78,5.7,5.7,0,0,0,.63-.85,18.92,18.92,0,0,0,1-2.27l-9.56-11.4-40.55-.38s-.85.64,0,2.13a2.15,2.15,0,0,0-1.12,2.17c6.17,3.26,13.43,4,20.21,5.88C282.28,356.48,285.48,357.64,288.76,358.52Z"/><path class="cls-11" d="M308.41,360.3a57.87,57.87,0,0,1-19.65-1.78c-3.28-.88-6.48-2-9.75-2.94-6.78-1.85-14-2.62-20.21-5.88,0,.07,0,.12,0,.19a4.91,4.91,0,0,1-1.28,3.25,33.79,33.79,0,0,0,8.78,3.17c3.91.9,7.89,1.42,11.78,2.4,2.63.67,5.21,1.54,7.85,2.21a50.92,50.92,0,0,0,21.14.79C307.42,361.37,308,360.82,308.41,360.3Z"/><path class="cls-12" d="M285.94,360.92c-2.64-.67-5.22-1.54-7.85-2.21-3.89-1-7.87-1.5-11.78-2.4a33.79,33.79,0,0,1-8.78-3.17,4.07,4.07,0,0,0-.39.55c-.1.32-1.06,2.6,3.4,4.28s10,1,17.09,3.61,19.4,3.31,23.92,2.29,5.22-1.86,5.22-1.86l.31-.3A50.92,50.92,0,0,1,285.94,360.92Z"/><path class="cls-13" d="M261.48,332.72a9.13,9.13,0,0,0-.72,5.31c.64,2.44-1.79,1.14-.46,7.19,0,0,13.29,3.73,17.29,6.53s15,3.47,21.15,5.47a16.32,16.32,0,0,0,11.43-.63s1-4.09,4.5-4.5,3.75.21,3.75.21-.28-2.57-6.63-5.09a79.12,79.12,0,0,1-15.4-8.61c-1.83-1.44-9.76-9.56-10.71-10.24s-2.88-3.57-8.19,2.3-7.09,8.59-10.14,3.61C265.36,331,265.74,329,261.48,332.72Z"/><path class="cls-14" d="M313.74,352.3c-2.94,1.15-3,1.5-3.57,4.29s-2.72,3.54-3.09,5.12,1.11,2,4.45.75,6.07-1.38,6.89-5.34S319.08,350.22,313.74,352.3Z"/><path class="cls-15" d="M260.71,338.38l3.37,2.93s1.58-1.32,5.74.69,16.95,4.9,18.72,5.53,11.9,3.44,13.22,4.07,6.43,2.69,6.43,2.69-15.21-1-20.57-1.64-11.36-1.38-11.36-1.38-4.2-3.5-16.36-5.87C259.9,345.4,259.28,342.75,260.71,338.38Z"/><path class="cls-15" d="M287.62,334.27s-6.2.36-6.45,1.08,3.29,1,5.15.63-1.32,2.73-1.59,3.39.22,2.1,2.47-.77,2.25-2.5,2.25-2.5l4.68.24-2.33-2.07-2.51-1.91Z"/><path class="cls-15" d="M293,338.83s-5.82.36-6.06,1.08,3.09,1,4.84.63-1.24,2.72-1.49,3.39.2,2.1,2.32-.78,1.57-2.52,1.57-2.52l4.93.26-2.18-2.06-2.37-1.92Z"/><path class="cls-15" d="M298.81,342.56s-5.57.35-5.8,1,2.95.94,4.63.61-1.19,2.63-1.43,3.27.19,2,2.22-.75,2-2.41,2-2.41l4.21.23-2.09-2-2.26-1.85Z"/><path class="cls-16" d="M260.62,345.13a6.79,6.79,0,0,1-.07-4.45,15,15,0,0,0,.49-2.21c.08-.81,0-1.63,0-2.45,0-1.5.24-3,1.51-4a2.58,2.58,0,0,1,1.71-.57,2.35,2.35,0,0,1,1.65,1.07,22.45,22.45,0,0,0,2.15,3.15,4.16,4.16,0,0,0,3.36,1.33c2.42-.28,3.72-2.77,5-4.55a13.44,13.44,0,0,1,3.09-3.16,7,7,0,0,1,3.72-1.69,3.88,3.88,0,0,1,2.74,1.47c.84.88,1.59,1.86,2.43,2.75a63.46,63.46,0,0,0,15,11.75,58.24,58.24,0,0,0,8.14,3.86c2.05.78,4.41,1.45,5.75,3.33a6.88,6.88,0,0,1,.83,1.59c.15.4.8.23.65-.18a6.82,6.82,0,0,0-1.94-2.9,10.41,10.41,0,0,0-2.8-1.61c-1.21-.5-2.45-.91-3.65-1.41-1.52-.63-3-1.34-4.46-2.09A63.28,63.28,0,0,1,290,332.5c-1-1-2-2.09-2.9-3.19a7,7,0,0,0-2.49-2.08,4,4,0,0,0-3.41.31,14.26,14.26,0,0,0-3.64,2.61,22.67,22.67,0,0,0-2.56,3.29,7.58,7.58,0,0,1-2.57,2.62,3.2,3.2,0,0,1-3.64-.66c-1-.94-1.5-2.22-2.33-3.31a2.81,2.81,0,0,0-3.22-1.12,4.15,4.15,0,0,0-2.52,2.65c-.5,1.58-.14,3.24-.31,4.85s-.88,3-.86,4.62a6,6,0,0,0,.47,2.22c.16.4.82.23.65-.18Z"/><path class="cls-16" d="M310.64,354.49a12.19,12.19,0,0,0-.92,2.42,7.08,7.08,0,0,1-1,2.39,11.58,11.58,0,0,1-1.3,1.22,3,3,0,0,0-1,1.27,1.33,1.33,0,0,0,1.11,1.53,6.23,6.23,0,0,0,2.81-.2,24.48,24.48,0,0,0,5.16-1.86,6.21,6.21,0,0,0,2.13-1.52,5.51,5.51,0,0,0,1-2.26,15.72,15.72,0,0,0,.41-2.89,3.85,3.85,0,0,0-.37-2.46c-.81-1.13-2.72-.71-3.85-.44a6.53,6.53,0,0,0-4.23,2.8c-.22.37.36.71.59.34a5.7,5.7,0,0,1,3.56-2.42,9.94,9.94,0,0,1,1.52-.29,2.63,2.63,0,0,1,1.64.2c.63.41.5,1.46.48,2.11a16,16,0,0,1-.35,2.67,4.3,4.3,0,0,1-2.88,3.57,24.16,24.16,0,0,1-4.41,1.65,8.62,8.62,0,0,1-2.56.41c-.42,0-1.18-.14-1.13-.73s.72-.94,1-1.22a7.29,7.29,0,0,0,1.17-1.12c1-1.42,1.08-3.31,1.93-4.83A.34.34,0,0,0,310.64,354.49Z"/><path class="cls-16" d="M260.26,344.93a2,2,0,0,0-.64,2.78l.21-.5a2.26,2.26,0,0,0-1.3,2,14.63,14.63,0,0,1-.16,1.61,3.9,3.9,0,0,1-.66,1.32,4.66,4.66,0,0,0-1.06,2.24,3.12,3.12,0,0,0,1,2.27,7.63,7.63,0,0,0,3.69,1.89,35.67,35.67,0,0,0,4.73.81,108.36,108.36,0,0,1,12,2.73,85.24,85.24,0,0,0,13.71,2.43A38.14,38.14,0,0,0,307,362.92c.41-.14.24-.79-.18-.65-8.42,2.81-17.48,1.67-26-.27-2.24-.52-4.47-1.09-6.7-1.66-1.92-.48-3.85-1.06-5.8-1.39-2.86-.48-6-.48-8.66-1.74A5.23,5.23,0,0,1,258,356a2.6,2.6,0,0,1-.66-1.42,2.34,2.34,0,0,1,.4-1.3,8,8,0,0,0,1.34-2.47c.17-.91-.13-2.51.95-3a.35.35,0,0,0,.2-.5,1.26,1.26,0,0,1,.39-1.85.34.34,0,0,0-.34-.58Z"/><path class="cls-16" d="M260,345.73l5.1,1.45c1.66.47,3.33.92,4.95,1.5a43.55,43.55,0,0,1,4.62,2.09,47.76,47.76,0,0,0,4.46,2,72.74,72.74,0,0,0,9.64,2.77c3.31.76,6.66,1.51,10,2.07a28.48,28.48,0,0,0,11.34-.05.34.34,0,0,0-.18-.66,26.63,26.63,0,0,1-10.26.18c-3.32-.51-6.61-1.27-9.89-2a80.43,80.43,0,0,1-9.53-2.62,45.18,45.18,0,0,1-4.61-1.91c-1.45-.7-2.88-1.46-4.38-2.07a49,49,0,0,0-5.43-1.74l-5.66-1.61a.34.34,0,0,0-.18.65Z"/><path class="cls-16" d="M265.08,346.77a7.9,7.9,0,0,1-1.57-3.68c-.11-1.48,1.2-2,2.48-1.88a17.53,17.53,0,0,1,4.5,1.4c1.69.62,3.41,1.18,5.14,1.71,6.95,2.13,14.06,3.7,21,5.88a78.5,78.5,0,0,1,11.4,4.45l.17-.63q-12.31-.63-24.57-2.2c-2.33-.3-4.67-.63-7-1-.42-.06-.61.59-.18.66q12.33,1.86,24.76,2.78,3.49.25,7,.43a.34.34,0,0,0,.17-.63c-6.86-3.39-14.27-5.42-21.64-7.37-3.7-1-7.4-1.95-11.06-3.08-1.82-.56-3.63-1.16-5.42-1.82a14.61,14.61,0,0,0-4.53-1.29c-1.44,0-2.87.74-2.88,2.33a7.93,7.93,0,0,0,1.66,4.27c.25.35.84,0,.59-.34Z"/><path class="cls-16" d="M264.32,340.56,261,337.79a.37.37,0,0,0-.48,0,.34.34,0,0,0,0,.48l3.32,2.77a.36.36,0,0,0,.48,0,.34.34,0,0,0,0-.48Z"/><path class="cls-16" d="M291.33,334.18a33.56,33.56,0,0,0-5-.23c-.87,0-1.73.09-2.6.19a9.93,9.93,0,0,0-2.3.36.88.88,0,0,0-.51,1.2,1.43,1.43,0,0,0,1.41.75c.81,0,1.62-.09,2.42-.11s1.7,0,2.55,0a50,50,0,0,1,5.86.52c.43.06.61-.59.18-.66a49.21,49.21,0,0,0-8.75-.52c-.69,0-1.37.07-2.06.1a1.24,1.24,0,0,1-.87-.17c-.36-.32,0-.48.32-.54a31.2,31.2,0,0,1,4.43-.43,32.44,32.44,0,0,1,4.93.23c.44.05.43-.63,0-.68Z"/><path class="cls-16" d="M287.92,334.09c.06-.08,0,0,0,0L288,334l.1-.12.19-.23c.14-.15.28-.3.43-.44l.45-.4.13-.1s0,0,0,0l.06,0a2.48,2.48,0,0,1,.26-.19.35.35,0,0,0,.12-.46.34.34,0,0,0-.46-.12,8.4,8.4,0,0,0-1.95,1.86.33.33,0,0,0,.12.46.35.35,0,0,0,.47-.12Z"/><path class="cls-16" d="M286.7,336a11.92,11.92,0,0,0-2.29,4.21.34.34,0,0,0,.15.38,1.42,1.42,0,0,0,1.4.07,3,3,0,0,0,1.14-1.05l2.22-2.95a.34.34,0,0,0-.13-.46.34.34,0,0,0-.46.12l-1.92,2.56c-.39.51-1.13,1.68-1.91,1.13l.16.38a11.28,11.28,0,0,1,2.12-3.91c.27-.33-.2-.81-.48-.48Z"/><path class="cls-16" d="M297.18,338.82a31,31,0,0,0-5-.24c-.86,0-1.71.07-2.57.15-.4,0-.81.08-1.22.14a5.22,5.22,0,0,0-1.18.21.9.9,0,0,0-.19,1.52c.55.52,1.49.3,2.18.27,1.61-.07,3.22-.07,4.83,0a42,42,0,0,1,5.37.45c.42.07.61-.58.18-.65a49.53,49.53,0,0,0-8.43-.52l-2,.06-.94.05a1.15,1.15,0,0,1-.61-.08c-.2-.11-.34-.36-.07-.48a3.75,3.75,0,0,1,1-.17c.38,0,.76-.09,1.15-.12.76-.07,1.53-.12,2.29-.14a30.16,30.16,0,0,1,5,.21c.43.06.61-.6.18-.65Z"/><path class="cls-16" d="M292.86,338.77l.17-.22h0l0-.06.09-.1a3.42,3.42,0,0,1,.36-.4c.13-.13.26-.26.39-.37l.21-.18.05,0,0,0,0,0,.06-.05a.36.36,0,0,0,.13-.47.35.35,0,0,0-.47-.12,7.62,7.62,0,0,0-1.68,1.72.34.34,0,0,0,.12.46.35.35,0,0,0,.46-.12Z"/><path class="cls-16" d="M291.76,340.51a11.4,11.4,0,0,0-2,3.88.34.34,0,0,0,.16.38,1.23,1.23,0,0,0,1.27.06,2.7,2.7,0,0,0,1-1l1.89-2.71a.33.33,0,0,0-.12-.46.34.34,0,0,0-.46.12l-1.65,2.36c-.3.42-.91,1.5-1.56,1l.15.38a10.66,10.66,0,0,1,1.79-3.58.34.34,0,0,0,0-.48.33.33,0,0,0-.47,0Z"/><path class="cls-16" d="M303.54,342.84a39.5,39.5,0,0,0-4.87-.17,37.49,37.49,0,0,0-5,.36,1.27,1.27,0,0,0-.91.39.81.81,0,0,0,0,.92c.46.67,1.44.46,2.13.43,1.68-.09,3.36-.11,5-.08a47.18,47.18,0,0,1,5.45.34c.43.06.43-.62,0-.68a56.48,56.48,0,0,0-8.82-.32c-.68,0-1.36,0-2,.08-.32,0-.82.13-1.1-.06-.46-.31.54-.38.73-.41a39.3,39.3,0,0,1,4.46-.3,41.57,41.57,0,0,1,4.87.18c.44.05.43-.63,0-.68Z"/><path class="cls-16" d="M298.8,342.94a8.27,8.27,0,0,1,.71-.74l.19-.16.11-.09,0,0c-.05,0,0,0,0,0s.29-.21.45-.31A.34.34,0,0,0,300,341a7.18,7.18,0,0,0-1.65,1.46.34.34,0,0,0,0,.47.34.34,0,0,0,.48,0Z"/><path class="cls-16" d="M297.72,344.34a9.76,9.76,0,0,0-2,3.4.35.35,0,0,0,.16.38,1.36,1.36,0,0,0,1.21.07,2.51,2.51,0,0,0,1-.82c.65-.78,1.29-1.57,1.93-2.36a.35.35,0,0,0,0-.48.34.34,0,0,0-.48,0l-1.7,2.09c-.33.41-1,1.33-1.6.92l.16.38a8.91,8.91,0,0,1,1.83-3.11c.29-.32-.19-.8-.48-.47Z"/><path class="cls-16" d="M266,347.08a.16.16,0,0,1-.15-.09s-.17-.31-.38-.76a.17.17,0,1,1,.3-.15c.21.44.38.74.38.75a.18.18,0,0,1-.07.23Z"/><path class="cls-16" d="M305.45,354h-.05l-1.58-.4a.18.18,0,0,1-.12-.21.17.17,0,0,1,.21-.12l1.58.41a.16.16,0,0,1,.12.2A.17.17,0,0,1,305.45,354Zm-3.16-.82h-.05l-1.58-.41a.17.17,0,0,1,.09-.33l1.58.42a.16.16,0,0,1,.12.2A.17.17,0,0,1,302.29,353.14Zm-3.16-.84h0l-1.58-.44a.17.17,0,0,1-.12-.21.16.16,0,0,1,.21-.11l1.57.44a.16.16,0,0,1,.12.2A.17.17,0,0,1,299.13,352.3Zm-3.14-.9h-.05l-1.58-.39a.16.16,0,0,1-.12-.2.17.17,0,0,1,.2-.13l1.59.4a.16.16,0,0,1,.12.2A.17.17,0,0,1,296,351.4Zm-3.18-.77h0l-1.59-.37a.17.17,0,0,1-.13-.2.18.18,0,0,1,.21-.13l1.59.38a.16.16,0,0,1,.12.2A.15.15,0,0,1,292.81,350.63Zm-3.18-.75h0L288,349.5a.17.17,0,0,1-.13-.2.19.19,0,0,1,.21-.13l1.59.38a.16.16,0,0,1,.12.2A.17.17,0,0,1,289.63,349.88Zm-3.18-.75h0l-1.59-.39a.16.16,0,0,1-.12-.2.17.17,0,0,1,.2-.13l1.59.39a.17.17,0,0,1,.12.21A.17.17,0,0,1,286.45,349.13Zm-3.17-.79h0l-1.59-.41a.17.17,0,0,1,.09-.33c.51.14,1,.28,1.58.41a.17.17,0,0,1,.12.21A.17.17,0,0,1,283.28,348.34Zm-3.16-.85h0c-.58-.16-1.11-.32-1.57-.47a.17.17,0,0,1,.1-.32c.46.15,1,.3,1.56.47a.17.17,0,0,1,.12.21A.18.18,0,0,1,280.12,347.49Zm-3.11-1H277l-.29-.12-1.21-.52a.17.17,0,0,1-.09-.23.16.16,0,0,1,.22-.08l1.22.52.28.12a.17.17,0,0,1,.09.22A.18.18,0,0,1,277,346.48Zm-3-1.29H274l-1.51-.63a.17.17,0,0,1-.09-.22.16.16,0,0,1,.22-.09l1.51.63a.16.16,0,0,1,.09.22A.16.16,0,0,1,274,345.19Zm-9-.39a.17.17,0,0,1-.16-.12,4.11,4.11,0,0,1-.18-1.11,1.84,1.84,0,0,1,.1-.6.17.17,0,0,1,.32.11,1.44,1.44,0,0,0-.08.49,4.25,4.25,0,0,0,.16,1,.15.15,0,0,1-.11.2Zm6-.84h-.06c-.54-.21-1.06-.4-1.53-.56a.18.18,0,0,1-.1-.22.16.16,0,0,1,.21-.1c.48.16,1,.35,1.54.56a.17.17,0,0,1,.1.22A.17.17,0,0,1,271,344Zm-3.09-1h0a8.91,8.91,0,0,0-1.57-.31.17.17,0,0,1-.15-.18.17.17,0,0,1,.18-.16,10.69,10.69,0,0,1,1.63.32.18.18,0,0,1,.12.21A.17.17,0,0,1,267.9,342.91Z"/><path class="cls-16" d="M307.79,354.56h0l-.82-.21a.16.16,0,0,1-.12-.2.16.16,0,0,1,.2-.12l.82.2a.17.17,0,0,1,.12.21A.16.16,0,0,1,307.79,354.56Z"/><path class="cls-16" d="M262.43,346a.17.17,0,0,1-.16-.11,3.61,3.61,0,0,1-.16-.42.16.16,0,0,1,.1-.22.17.17,0,0,1,.21.1c.05.14.1.27.16.41a.16.16,0,0,1-.09.22Zm-.6-2.05a.16.16,0,0,1-.16-.15,4.59,4.59,0,0,1-.07-.81,4,4,0,0,1,.1-.93.17.17,0,0,1,.2-.13.18.18,0,0,1,.13.21,3.89,3.89,0,0,0-.09.85,5.06,5.06,0,0,0,.06.76.18.18,0,0,1-.14.2Zm-.22-3a.15.15,0,0,1-.11,0,10.08,10.08,0,0,1-1.1-1.34.18.18,0,0,1,.05-.24.16.16,0,0,1,.23,0,8.53,8.53,0,0,0,1.05,1.28.17.17,0,0,1,0,.24A.15.15,0,0,1,261.61,340.85Z"/><path class="cls-10" d="M111.24,358.55a57.86,57.86,0,0,1-19.65,1.77,5.9,5.9,0,0,1-.63-.85,20,20,0,0,1-1-2.27l9.55-11.4,40.56-.37s.84.64,0,2.13a2.12,2.12,0,0,1,1.11,2.17c-6.17,3.26-13.43,4-20.2,5.88C117.72,356.5,114.52,357.67,111.24,358.55Z"/><path class="cls-11" d="M91.59,360.32a57.86,57.86,0,0,0,19.65-1.77c3.28-.88,6.48-2.05,9.76-2.94,6.77-1.86,14-2.62,20.2-5.88a1.09,1.09,0,0,1,0,.18,4.87,4.87,0,0,0,1.28,3.25,33.3,33.3,0,0,1-8.78,3.17c-3.9.9-7.89,1.42-11.77,2.41-2.64.66-5.22,1.54-7.85,2.21a51.13,51.13,0,0,1-21.15.78C92.59,361.4,92,360.85,91.59,360.32Z"/><path class="cls-12" d="M114.07,361c2.63-.67,5.21-1.55,7.85-2.21,3.88-1,7.87-1.51,11.77-2.41a33.3,33.3,0,0,0,8.78-3.17,3.94,3.94,0,0,1,.39.56c.1.32,1.06,2.59-3.4,4.27s-10,1.05-17.08,3.62-19.41,3.3-23.93,2.28S93.24,362,93.24,362l-.32-.31A51.13,51.13,0,0,0,114.07,361Z"/><path class="cls-13" d="M138.52,332.74a9.15,9.15,0,0,1,.72,5.32c-.64,2.43,1.79,1.14.46,7.19,0,0-13.28,3.72-17.28,6.53s-15,3.46-21.15,5.46a16.38,16.38,0,0,1-11.44-.62s-1-4.09-4.5-4.51-3.75.21-3.75.21.29-2.56,6.63-5.08a79.5,79.5,0,0,0,15.41-8.62c1.82-1.44,9.75-9.56,10.7-10.24s2.88-3.56,8.2,2.3,7.08,8.6,10.13,3.62C134.65,331,134.26,329.05,138.52,332.74Z"/><path class="cls-14" d="M86.26,352.32c2.94,1.15,3,1.5,3.57,4.3s2.73,3.54,3.09,5.11-1.1,2-4.45.75-6.07-1.38-6.89-5.33S80.92,350.24,86.26,352.32Z"/><path class="cls-15" d="M140.11,345.43c-12.17,2.36-16.37,5.87-16.37,5.87s-6,.69-11.36,1.37-20.57,1.65-20.57,1.65,5.12-2.07,6.44-2.7,11.45-3.43,13.22-4.06S126,344,130.18,342s5.74-.7,5.74-.7l3.37-2.93C140.72,342.78,140.11,345.43,140.11,345.43Z"/><path class="cls-15" d="M112.38,334.3s6.2.36,6.46,1.08-3.29,1-5.16.63,1.33,2.72,1.59,3.39-.22,2.1-2.47-.78-2.24-2.49-2.24-2.49l-4.69.24,2.33-2.07,2.52-1.92Z"/><path class="cls-15" d="M107.05,338.85s5.82.36,6.06,1.08-3.08,1-4.84.63,1.25,2.73,1.5,3.39-.21,2.1-2.32-.77-1.58-2.53-1.58-2.53l-4.93.27,2.19-2.07,2.36-1.92Z"/><path class="cls-15" d="M101.2,342.58s5.57.35,5.79,1-2.95.94-4.62.61,1.18,2.63,1.42,3.28-.19,2-2.21-.75-2-2.41-2-2.41l-4.21.23,2.09-2,2.26-1.85Z"/><path class="cls-16" d="M140,345.34a7,7,0,0,0,.16-4.47,17.34,17.34,0,0,1-.55-2.37c-.08-.82,0-1.64,0-2.46a5.56,5.56,0,0,0-1.29-4.06,3.21,3.21,0,0,0-3.31-1c-1.28.47-1.82,1.75-2.47,2.84a4.91,4.91,0,0,1-3.14,2.55c-2.7.42-4.18-2.8-5.5-4.57a14.12,14.12,0,0,0-3.14-3.08A7.92,7.92,0,0,0,117,327c-2.39-.18-3.82,2.18-5.22,3.72a62.14,62.14,0,0,1-15.54,12.36,59,59,0,0,1-8.53,4c-2.11.79-4.33,1.59-5.64,3.54a8.14,8.14,0,0,0-.8,1.62c-.15.41.51.59.65.18a6.2,6.2,0,0,1,2-2.76,11.43,11.43,0,0,1,2.92-1.52c1.2-.46,2.4-.89,3.58-1.39q2.17-.94,4.28-2a63.94,63.94,0,0,0,15.27-11.1,44.44,44.44,0,0,0,3-3.25,9.8,9.8,0,0,1,2.32-2.27,3.36,3.36,0,0,1,3.42.16,13.56,13.56,0,0,1,3.51,2.6,26.84,26.84,0,0,1,2.43,3.19,8.25,8.25,0,0,0,2.41,2.51,3.71,3.71,0,0,0,3.35.24,6.23,6.23,0,0,0,2.73-2.62c.62-1,1.2-2.53,2.59-2.65a3.16,3.16,0,0,1,2.91,2.14c.57,1.55.18,3.24.34,4.84s.82,2.89.85,4.41a5.64,5.64,0,0,1-.44,2.25c-.17.4.49.57.65.18Z"/><path class="cls-16" d="M88.78,354.86c.76,1.36.89,3,1.64,4.36.52,1,1.49,1.5,2.19,2.32.21.24.39.5.21.81a.85.85,0,0,1-.57.34,5.24,5.24,0,0,1-2.36-.17,24.67,24.67,0,0,1-4.74-1.66,4.91,4.91,0,0,1-2.9-2.62,10.87,10.87,0,0,1-.57-2.51,9.68,9.68,0,0,1-.08-2.52c.12-.81.66-1.07,1.41-1.09a7.29,7.29,0,0,1,1.86.23,5.94,5.94,0,0,1,3.91,2.51.34.34,0,0,0,.58-.35,6.37,6.37,0,0,0-3.81-2.69,5.76,5.76,0,0,0-3.64-.16,1.81,1.81,0,0,0-1,1.57,11.18,11.18,0,0,0,.13,2.83c.25,1.78.71,3.55,2.29,4.6a14.93,14.93,0,0,0,2.57,1.26,28,28,0,0,0,3,1c1.16.33,4.17,1.22,4.66-.56a1.44,1.44,0,0,0-.47-1.36c-.46-.53-1-.95-1.54-1.44a5.09,5.09,0,0,1-1.12-2.25,14.11,14.11,0,0,0-1-2.83C89.15,354.13,88.56,354.47,88.78,354.86Z"/><path class="cls-16" d="M139.4,345.54a1.27,1.27,0,0,1,.4,1.85c-.15.19,0,.42.2.5,1,.4.8,1.74.89,2.57a5,5,0,0,0,1,2.3,2.5,2.5,0,0,1,.62,2.43,3.55,3.55,0,0,1-1.38,1.59,10.77,10.77,0,0,1-4,1.4c-1.49.29-3,.44-4.5.65a48.34,48.34,0,0,0-5.15,1.14c-2.23.56-4.46,1.14-6.7,1.67a78.68,78.68,0,0,1-13.19,2.23,37.35,37.35,0,0,1-14.37-1.58c-.41-.14-.59.52-.18.65,8.8,2.95,18.29,1.62,27.12-.45,2.4-.57,4.79-1.19,7.18-1.79a51.38,51.38,0,0,1,5.47-1.22c1.58-.21,3.16-.38,4.72-.69a10.55,10.55,0,0,0,4.11-1.53,4.18,4.18,0,0,0,1.54-1.89,2.93,2.93,0,0,0-.55-2.75,11.86,11.86,0,0,1-.78-1.21,4.48,4.48,0,0,1-.35-1.85,2.48,2.48,0,0,0-1.33-2.33l.2.5a2,2,0,0,0-.64-2.78.34.34,0,0,0-.34.59Z"/><path class="cls-16" d="M139.85,345.1l-5,1.43c-1.63.47-3.28.9-4.88,1.47-3.1,1.09-5.93,2.84-9,4a72.47,72.47,0,0,1-9.48,2.77c-3.26.75-6.54,1.48-9.84,2.06a28.34,28.34,0,0,1-11.53,0c-.43-.1-.61.55-.18.65a27,27,0,0,0,10.13.25c3.36-.48,6.68-1.25,10-2a87.15,87.15,0,0,0,9.69-2.63,47.36,47.36,0,0,0,4.49-1.82c1.54-.73,3-1.55,4.61-2.2a47.56,47.56,0,0,1,5.46-1.76l5.74-1.63c.42-.12.25-.78-.17-.66Z"/><path class="cls-16" d="M135.51,347.13c1.23-1.75,3.07-5.78-.23-6.5a7.51,7.51,0,0,0-4.19.69c-1.79.7-3.62,1.33-5.45,1.92-7.29,2.33-14.78,3.95-22.08,6.22a79.93,79.93,0,0,0-11.92,4.64.34.34,0,0,0,.17.63q12.5-.64,24.9-2.25,3.44-.45,6.85-1c.43-.06.25-.72-.18-.65q-12.22,1.86-24.58,2.76-3.49.25-7,.43l.17.63c6.54-3.23,13.59-5.2,20.61-7.07,3.5-.94,7-1.85,10.49-2.88,1.73-.51,3.45-1.05,5.16-1.64s3.11-1.28,4.72-1.68c1.19-.29,3.37-.44,3.53,1.26a4.69,4.69,0,0,1-.46,2.14,11,11,0,0,1-1.1,2c-.26.36.33.7.58.34Z"/><path class="cls-16" d="M136.16,341.06l3.32-2.76a.34.34,0,1,0-.48-.48l-3.32,2.76a.34.34,0,0,0,.48.48Z"/><path class="cls-16" d="M108.67,334.88a32.5,32.5,0,0,1,8.81.12,3.6,3.6,0,0,1,.87.15c.42.19-.09.56-.31.62a3,3,0,0,1-.9,0l-1.14-.06c-1.48-.06-3-.06-4.43,0-1.64.08-3.27.25-4.9.49-.43.06-.24.71.18.65a48.55,48.55,0,0,1,10.29-.42,2.11,2.11,0,0,0,1.74-.39,1,1,0,0,0,0-1.34,1.44,1.44,0,0,0-.78-.3l-1.22-.18c-.83-.11-1.66-.19-2.5-.23a31.58,31.58,0,0,0-5.75.2c-.43.05-.43.73,0,.67Z"/><path class="cls-16" d="M112.67,333.77a8.78,8.78,0,0,0-1.94-1.86.34.34,0,1,0-.34.59l.25.18,0,0c.08.06,0,0,0,0l.13.1.46.4c.15.14.29.29.42.43l.21.24.09.11,0,.06,0,0a.34.34,0,1,0,.58-.34Z"/><path class="cls-16" d="M112.83,336.52a11.44,11.44,0,0,1,2.12,3.91l.15-.38c-.78.55-1.52-.62-1.9-1.13l-1.93-2.55a.34.34,0,1,0-.58.34c.74,1,1.47,2,2.22,3a3.11,3.11,0,0,0,1.14,1,1.43,1.43,0,0,0,1.39-.08.36.36,0,0,0,.16-.38,12.19,12.19,0,0,0-2.3-4.21c-.27-.33-.75.15-.47.48Z"/><path class="cls-16" d="M103,339.49a31.59,31.59,0,0,1,8.9.12c.26,0,1,.09.64.49s-.81.17-1.15.15c-.64,0-1.28-.06-1.92-.07-1.49,0-3,0-4.49.07a38.48,38.48,0,0,0-4.55.43c-.43.07-.25.72.18.65a50.61,50.61,0,0,1,9.69-.46,7.12,7.12,0,0,0,2.21,0,1,1,0,0,0,.65-1.52,1.4,1.4,0,0,0-1-.38c-.39-.07-.78-.12-1.17-.16-.84-.1-1.68-.16-2.52-.19a31.87,31.87,0,0,0-5.69.21c-.43.06-.24.71.18.65Z"/><path class="cls-16" d="M107.72,338.45a7.57,7.57,0,0,0-1.68-1.71.33.33,0,0,0-.46.12.34.34,0,0,0,.12.46l.11.08s0,0,0,0l.05,0,.21.18a4.59,4.59,0,0,1,.39.37c.13.13.25.26.37.4a.76.76,0,0,1,.08.11l0,0s.06.08,0,0l.17.22a.34.34,0,0,0,.46.13.35.35,0,0,0,.12-.47Z"/><path class="cls-16" d="M107.77,341a10.57,10.57,0,0,1,1.79,3.58l.16-.38c-.65.5-1.27-.58-1.57-1l-1.65-2.35a.34.34,0,0,0-.46-.12.33.33,0,0,0-.12.46l1.89,2.7a2.82,2.82,0,0,0,1,1,1.24,1.24,0,0,0,1.3-.06.34.34,0,0,0,.15-.38,11.07,11.07,0,0,0-2-3.87.34.34,0,0,0-.48,0,.34.34,0,0,0,0,.47Z"/><path class="cls-16" d="M96.46,343.54a41.28,41.28,0,0,1,8.82.06l.94.13c.17,0,.49,0,.41.25s-.56.19-.73.19c-.66,0-1.31-.08-2-.1-1.53-.05-3.06-.06-4.58,0a45.16,45.16,0,0,0-4.79.33c-.42.06-.43.73,0,.68a56.06,56.06,0,0,1,10-.29,5,5,0,0,0,2.3-.08.82.82,0,0,0,0-1.51,4.29,4.29,0,0,0-1-.19l-1.21-.13c-.88-.08-1.76-.13-2.63-.15a39.36,39.36,0,0,0-5.54.16c-.43,0-.43.72,0,.67Z"/><path class="cls-16" d="M101.68,342.49A7.09,7.09,0,0,0,100,341a.33.33,0,0,0-.46.12.34.34,0,0,0,.12.46l.43.31,0,0s0,0,0,0l.11.08.2.17a6.38,6.38,0,0,1,.72.75.33.33,0,0,0,.47,0,.34.34,0,0,0,0-.48Z"/><path class="cls-16" d="M101.81,344.84a8.93,8.93,0,0,1,1.83,3.1l.15-.38c-.63.42-1.26-.5-1.59-.91l-1.71-2.1a.34.34,0,0,0-.48,0,.35.35,0,0,0,0,.48l1.93,2.37a2.6,2.6,0,0,0,.94.8,1.32,1.32,0,0,0,1.25-.06.34.34,0,0,0,.16-.38,9.82,9.82,0,0,0-2-3.4c-.3-.32-.77.16-.48.48Z"/><path class="cls-16" d="M134,347.1a.12.12,0,0,1-.08,0,.16.16,0,0,1-.06-.23s.17-.3.37-.74a.16.16,0,0,1,.22-.08.16.16,0,0,1,.09.22c-.21.45-.38.75-.39.77A.18.18,0,0,1,134,347.1Z"/><path class="cls-16" d="M94.56,354a.17.17,0,0,1,0-.33l1.59-.41a.16.16,0,0,1,.2.12.17.17,0,0,1-.12.21L94.6,354Zm3.16-.82a.17.17,0,0,1,0-.33l1.58-.42a.17.17,0,1,1,.09.33l-1.58.42Zm3.15-.84a.17.17,0,0,1-.16-.12.18.18,0,0,1,.12-.21l1.57-.44a.17.17,0,0,1,.09.33l-1.57.44Zm3.15-.9a.17.17,0,0,1,0-.33l1.59-.39a.17.17,0,0,1,.21.12.19.19,0,0,1-.13.21l-1.58.39Zm3.17-.77a.17.17,0,0,1-.16-.13.16.16,0,0,1,.13-.2l1.59-.37a.16.16,0,0,1,.2.12.19.19,0,0,1-.13.21l-1.59.37Zm3.19-.74a.18.18,0,0,1-.17-.13.18.18,0,0,1,.13-.21l1.59-.37a.16.16,0,0,1,.2.12.17.17,0,0,1-.13.21l-1.59.37Zm3.17-.76a.17.17,0,0,1-.16-.13.16.16,0,0,1,.12-.2l1.59-.39a.16.16,0,0,1,.2.12.17.17,0,0,1-.12.21l-1.59.39Zm3.17-.79a.17.17,0,0,1-.16-.12.17.17,0,0,1,.12-.21l1.58-.41a.17.17,0,0,1,.21.12.16.16,0,0,1-.12.2l-1.58.42Zm3.16-.85a.16.16,0,0,1-.16-.12.16.16,0,0,1,.11-.21l1.57-.46a.17.17,0,1,1,.1.32l-1.57.47Zm3.11-1a.17.17,0,0,1-.16-.11.18.18,0,0,1,.1-.22l.28-.11,1.21-.53a.17.17,0,0,1,.23.09.18.18,0,0,1-.09.22l-1.22.53-.29.12Zm3-1.29a.18.18,0,0,1-.16-.1.19.19,0,0,1,.09-.23l1.51-.63a.17.17,0,0,1,.22.1.16.16,0,0,1-.09.22c-.51.2-1,.42-1.5.63Zm9-.4h0a.17.17,0,0,1-.12-.21,3.8,3.8,0,0,0,.16-1,1.41,1.41,0,0,0-.07-.49.17.17,0,0,1,.1-.22.18.18,0,0,1,.22.1,1.91,1.91,0,0,1,.09.61,4.1,4.1,0,0,1-.18,1.1A.15.15,0,0,1,135,344.82Zm-6-.84a.18.18,0,0,1-.16-.1.17.17,0,0,1,.1-.22l1.54-.57a.16.16,0,0,1,.21.11.16.16,0,0,1-.1.21c-.47.16-1,.35-1.53.56Zm3.09-1.05a.17.17,0,0,1-.16-.12.17.17,0,0,1,.12-.21,8.54,8.54,0,0,1,1.63-.32.17.17,0,0,1,.18.15.16.16,0,0,1-.16.18,9,9,0,0,0-1.56.32Z"/><path class="cls-16" d="M92.21,354.58a.17.17,0,0,1-.16-.13.16.16,0,0,1,.12-.2L93,354a.16.16,0,0,1,.2.12.17.17,0,0,1-.12.21l-.82.21Z"/><path class="cls-16" d="M137.58,346h-.07a.18.18,0,0,1-.09-.22c.06-.14.11-.28.16-.41a.17.17,0,0,1,.32.11c-.05.14-.11.28-.17.43A.16.16,0,0,1,137.58,346Zm.59-2.05h0a.17.17,0,0,1-.15-.19,5.3,5.3,0,0,0,.06-.77,3.89,3.89,0,0,0-.09-.85.17.17,0,1,1,.33-.07,3.93,3.93,0,0,1,.1.92,5.87,5.87,0,0,1-.06.82A.17.17,0,0,1,138.17,343.92Zm.22-3a.18.18,0,0,1-.13-.06.18.18,0,0,1,0-.24,9.25,9.25,0,0,0,1-1.27.17.17,0,1,1,.28.18,8.15,8.15,0,0,1-1.1,1.34A.16.16,0,0,1,138.39,340.88Z"/><circle class="cls-17" cx="199.25" cy="126.41" r="91.06"/><circle class="cls-18" cx="199.27" cy="126.43" r="84.2"/><circle class="cls-19" cx="199.27" cy="126.43" r="76.75"/><path class="cls-20" d="M277.09,164.78a86.16,86.16,0,1,1-147-88.59s-.91,47,54.37,77.89C236.66,183.28,277.09,164.78,277.09,164.78Z"/><path class="cls-21" d="M254,102.5,240.81,120a10.52,10.52,0,0,1-3,2.68,10.39,10.39,0,0,1-7.83,1.11,10.51,10.51,0,0,1-3.63-1.74l-.15-.12a10.39,10.39,0,0,1-3-3.64,10.24,10.24,0,0,1-1.08-4.61V107a11.52,11.52,0,0,0-11.49,11.52v50.84a11.33,11.33,0,0,1-19.2,8.42,11.28,11.28,0,0,1-2.57-3.72,11.53,11.53,0,0,1-.91-4.42V118.53a34.2,34.2,0,0,1,34.22-34.15h22.61c6.66,0,11.33,4.68,11.33,11.34A11.53,11.53,0,0,1,254,102.5Z"/><path class="cls-22" d="M171,84.33H153.65a11.17,11.17,0,0,0-11.18,11.16v.33A11.17,11.17,0,0,0,153.65,107H171a11.18,11.18,0,0,0,11.18-11.17v-.33A11.18,11.18,0,0,0,171,84.33Z"/><rect class="cls-23" x="114.65" y="166.45" width="169.96" height="113.53" rx="8.35"/><path class="cls-24" d="M276.26,281.17H123a9.55,9.55,0,0,1-9.53-9.53V174.8a9.55,9.55,0,0,1,9.53-9.53H276.26a9.54,9.54,0,0,1,9.53,9.53v96.84A9.54,9.54,0,0,1,276.26,281.17ZM123,167.64a7.17,7.17,0,0,0-7.16,7.16v96.84A7.17,7.17,0,0,0,123,278.8H276.26a7.17,7.17,0,0,0,7.17-7.16V174.8a7.17,7.17,0,0,0-7.17-7.16Z"/><rect class="cls-25" x="119.32" y="170.92" width="160.63" height="104.6" rx="5.75"/><path class="cls-4" d="M109.21,190.21s-4.18,1.18-5.66,2.42-1.37,4.65-1.37,4.65a13.7,13.7,0,0,0-3,6.08,25.75,25.75,0,0,0-.19,5.51s-2,5-.28,9.32a34.42,34.42,0,0,0,4.46,7.88s3.9,9.6,9.55,11.26,8.69-.24,9.83-1.71-.52-3.8-1.71-4.51-4.8-3-4.8-3-.47-1.61-.85-2.94a24,24,0,0,0-1.33-3.23,3.55,3.55,0,0,0,2.14-3c.28-2.43-2.47-8.13-2.47-8.13s3.32-.57,3.8-5.75-3.9-8.78-4.85-10S109.21,190.21,109.21,190.21Z"/><path class="cls-6" d="M112.75,211.67a4.78,4.78,0,0,1-3-1.14c-6.81-5.42-10-12.87-7.31-17.33s10.66-4.81,11-4.82a.68.68,0,1,1,0,1.35c-.07,0-7.59.3-9.88,4.16s.81,10.66,7,15.58A2.92,2.92,0,0,0,114,210c1.71-.89,2.84-3.55,2.67-6.32-.11-1.86-1-6.44-7.07-8.72a.69.69,0,0,1-.4-.87.68.68,0,0,1,.87-.4c6.8,2.56,7.82,7.79,8,9.91.2,3.33-1.2,6.46-3.4,7.6A4,4,0,0,1,112.75,211.67Z"/><path class="cls-6" d="M111.51,223a6.09,6.09,0,0,1-1-.1c-3.7-.66-7.71-4.82-10.72-11.11-4.64-9.68,2.16-14.63,2.23-14.68a.67.67,0,0,1,.78,1.1h0c-.24.18-5.92,4.38-1.79,13,2.78,5.82,6.52,9.79,9.74,10.37a3.83,3.83,0,0,0,3.49-1.06c3.22-3.12-1-8.78-1.06-8.83a.68.68,0,0,1,.13-.95.67.67,0,0,1,1,.13,14.93,14.93,0,0,1,2,3.7c1,2.87.66,5.26-1,6.92A5.14,5.14,0,0,1,111.51,223Z"/><path class="cls-6" d="M112.09,232.08c-2.09,0-5.37-1.49-10.08-7.47-8.49-10.79-3.54-16.15-3.32-16.37a.68.68,0,1,1,1,.94c-.18.2-4.29,4.81,3.41,14.59,5.27,6.69,8.28,7.19,9.61,6.9a3.13,3.13,0,0,0,2.13-2.44c.66-2.83-1.78-5.94-1.8-6a.67.67,0,0,1,.1-.95.68.68,0,0,1,1,.11c.12.15,2.88,3.64,2.07,7.11A4.36,4.36,0,0,1,113,232,4,4,0,0,1,112.09,232.08Z"/><path class="cls-6" d="M116.77,238.71a11.52,11.52,0,0,1-6.55-2.22,20.52,20.52,0,0,1-8.35-12.18.69.69,0,0,1,.55-.79.68.68,0,0,1,.78.55A19.5,19.5,0,0,0,111,235.38c4.85,3.32,8.64,1.59,9.69,1,1.27-.75,1.89-1.69,1.85-2.24-.12-1.35-4-3.85-6.65-5.21a.67.67,0,1,1,.61-1.2c1.2.6,7.16,3.72,7.38,6.29.11,1.19-.88,2.57-2.51,3.52A9.12,9.12,0,0,1,116.77,238.71Z"/><path class="cls-4" d="M290.54,190.21s4.18,1.18,5.65,2.42,1.38,4.65,1.38,4.65a13.62,13.62,0,0,1,2.94,6.08,25.75,25.75,0,0,1,.19,5.51s1.95,5,.29,9.32a34.25,34.25,0,0,1-4.47,7.88s-3.89,9.6-9.55,11.26-8.69-.24-9.83-1.71.52-3.8,1.71-4.51,4.8-3,4.8-3,.47-1.61.85-2.94a24,24,0,0,1,1.33-3.23,3.53,3.53,0,0,1-2.13-3c-.29-2.43,2.47-8.13,2.47-8.13s-3.33-.57-3.8-5.75,3.89-8.78,4.84-10S290.54,190.21,290.54,190.21Z"/><path class="cls-6" d="M287,211.67a3.91,3.91,0,0,1-1.81-.45c-2.21-1.14-3.6-4.27-3.41-7.6.13-2.12,1.16-7.35,8-9.91a.68.68,0,0,1,.48,1.27c-6.05,2.28-7,6.86-7.08,8.72-.16,2.77,1,5.43,2.68,6.32a2.92,2.92,0,0,0,3.31-.55c6.18-4.92,9.25-11.76,7-15.58s-10.33-4.16-10.41-4.16a.68.68,0,1,1,0-1.35c.36,0,8.87.33,11.54,4.82s-.51,11.91-7.32,17.33A4.78,4.78,0,0,1,287,211.67Z"/><path class="cls-6" d="M288.24,223a5.16,5.16,0,0,1-3.65-1.52c-1.71-1.66-2.07-4.05-1-6.92a15.15,15.15,0,0,1,2-3.7.66.66,0,0,1,.94-.13.67.67,0,0,1,.13.95c0,.05-4.26,5.72-1.06,8.83a3.83,3.83,0,0,0,3.49,1.06c3.23-.58,7-4.55,9.75-10.37,4.12-8.61-1.55-12.81-1.8-13a.67.67,0,0,1-.15-.94.68.68,0,0,1,.94-.16c.07.05,6.86,5,2.23,14.68-3,6.29-7,10.45-10.73,11.11A6.07,6.07,0,0,1,288.24,223Z"/><path class="cls-6" d="M287.67,232.08a4.58,4.58,0,0,1-.9-.09,4.33,4.33,0,0,1-3.15-3.46c-.81-3.47,1.95-7,2.06-7.11a.68.68,0,0,1,1.06.84s-2.47,3.14-1.81,6a3.17,3.17,0,0,0,2.14,2.44c1.32.29,4.34-.21,9.6-6.9,7.71-9.79,3.59-14.4,3.41-14.59a.69.69,0,0,1,0-1,.68.68,0,0,1,.95,0c.21.22,5.17,5.58-3.32,16.37C295,228.11,291.1,232.08,287.67,232.08Z"/><path class="cls-6" d="M283,238.71a9.19,9.19,0,0,1-4.58-1.19c-1.63-1-2.61-2.33-2.51-3.52.22-2.57,6.19-5.69,7.38-6.29a.67.67,0,1,1,.61,1.2c-2.69,1.36-6.53,3.86-6.64,5.21-.05.55.57,1.49,1.85,2.24,1,.61,4.83,2.34,9.68-1a19.41,19.41,0,0,0,7.78-11.31.69.69,0,0,1,.79-.55.67.67,0,0,1,.54.79,20.41,20.41,0,0,1-8.35,12.18A11.48,11.48,0,0,1,283,238.71Z"/><rect class="cls-23" x="129.4" y="220.66" width="137" height="5.13" rx="2.57"/><path class="cls-23" d="M263.83,226H132a2.74,2.74,0,0,1,0-5.47H263.83a2.74,2.74,0,0,1,0,5.47ZM132,220.82a2.4,2.4,0,0,0,0,4.8H263.83a2.4,2.4,0,1,0,0-4.8Z"/><rect class="cls-23" x="129.4" y="233.34" width="137" height="5.13" rx="2.57"/><path class="cls-23" d="M263.83,238.64H132a2.74,2.74,0,0,1,0-5.47H263.83a2.74,2.74,0,0,1,0,5.47ZM132,233.51a2.4,2.4,0,1,0,0,4.79H263.83a2.4,2.4,0,1,0,0-4.79Z"/><rect class="cls-23" x="129.4" y="255.45" width="58.9" height="5.13" rx="2.57"/><path class="cls-23" d="M185.73,260.75H132a2.74,2.74,0,0,1,0-5.47h53.77a2.74,2.74,0,1,1,0,5.47ZM132,255.62a2.4,2.4,0,1,0,0,4.79h53.77a2.4,2.4,0,1,0,0-4.79Z"/><path class="cls-26" d="M208.15,218.55l-10.74,6.29a2.54,2.54,0,0,1-2.57,0c-3.21-1.92-7.58-4.38-9.92-5.7a2.56,2.56,0,0,0-3,.4l-9.53,9.3a2.53,2.53,0,0,0,1.71,4.34l3.7.08a2.53,2.53,0,0,1,2.48,2.47l.08,3.84a2.54,2.54,0,0,0,4.32,1.74L195,231a2.54,2.54,0,0,1,3.54,0c1.17,1.12,2.17,2.09,2.39,2.36l.19.21,7.74,7.74a2.52,2.52,0,0,0,4.31-1.73l.09-3.82a2.53,2.53,0,0,1,2.47-2.47l3.76-.08a2.53,2.53,0,0,0,1.72-4.33l-10-9.9A2.54,2.54,0,0,0,208.15,218.55Z"/><path class="cls-27" d="M204.77,226.49l4.69.77a3,3,0,0,0,3.42-2.49l.7-4.69a3,3,0,0,1,1.58-2.17l4.24-2.12a3,3,0,0,0,1.31-4l-2.18-4.22a3,3,0,0,1,0-2.68l2.18-4.21a3,3,0,0,0-1.31-4l-4.24-2.13a2.92,2.92,0,0,1-1.58-2.17l-.7-4.68a3,3,0,0,0-3.42-2.49l-4.69.77a2.92,2.92,0,0,1-2.55-.83l-3.33-3.38a3,3,0,0,0-4.23,0l-3.34,3.38a2.9,2.9,0,0,1-2.55.83l-4.68-.77a3,3,0,0,0-3.42,2.49l-.71,4.68a2.89,2.89,0,0,1-1.58,2.17l-4.24,2.13a2.93,2.93,0,0,0-1.49,1.73,3,3,0,0,0,.18,2.29l2.18,4.21a2.89,2.89,0,0,1,0,2.68l-2.18,4.22a3,3,0,0,0-.18,2.28,2.92,2.92,0,0,0,1.49,1.74l4.24,2.12a2.93,2.93,0,0,1,1.58,2.18l.71,4.68a3,3,0,0,0,3.42,2.49l4.68-.77a2.9,2.9,0,0,1,2.55.83l3.34,3.38a3,3,0,0,0,4.23,0l3.33-3.38A2.92,2.92,0,0,1,204.77,226.49Z"/><circle class="cls-28" cx="196.26" cy="206.26" r="17.19"/></svg>