<?xml version="1.0" encoding="utf-8"?>
<!-- Generator: Adobe Illustrator 26.2.1, SVG Export Plug-In . SVG Version: 6.00 Build 0)  -->
<svg version="1.1" xmlns="http://www.w3.org/2000/svg" xmlns:xlink="http://www.w3.org/1999/xlink" x="0px" y="0px"
	 viewBox="0 0 1920 1080" style="enable-background:new 0 0 1920 1080;" xml:space="preserve">
<style type="text/css">
	.st0{fill:#FFFFFF;}
	.st1{fill:#7FE247;}
	.st2{fill:#7C6048;}
	.st3{fill:#202022;}
	.st4{fill:none;stroke:#000000;stroke-width:2;stroke-miterlimit:10;}
	.st5{fill:#242B4F;}
	.st6{fill:#101634;}
	.st7{fill:#FEEC30;}
	.st8{fill:#5EA837;}
	.st9{fill:#06F5E2;}
	.st10{fill:#46494C;stroke:#292A2B;stroke-width:2;stroke-miterlimit:10;}
	.st11{fill:#5A4635;}
	.st12{fill:none;stroke:#241A11;stroke-width:2;stroke-linecap:round;stroke-linejoin:round;stroke-miterlimit:10;}
	.st13{fill:#D0BAA6;}
	.st14{fill:#E4CFBE;}
	.st15{fill:none;stroke:#121731;stroke-width:2;stroke-miterlimit:10;}
	.st16{fill:none;stroke:#241A11;stroke-miterlimit:10;}
	.st17{fill:none;stroke:#175807;stroke-width:2;stroke-linecap:round;stroke-linejoin:round;stroke-miterlimit:10;}
	.st18{fill:url(#SVGID_1_);stroke:#175807;stroke-width:0.5;stroke-linecap:round;stroke-linejoin:round;stroke-miterlimit:10;}
	.st19{fill:#060203;}
	
		.st20{fill:url(#SVGID_00000000936782826625642470000005295727422153610122_);stroke:#175807;stroke-width:0.5;stroke-linecap:round;stroke-linejoin:round;stroke-miterlimit:10;}
	.st21{fill:none;stroke:#175807;stroke-width:0.75;stroke-linecap:round;stroke-linejoin:round;stroke-miterlimit:10;}
	.st22{fill:none;stroke:#175807;stroke-width:0.5;stroke-linecap:round;stroke-linejoin:round;stroke-miterlimit:10;}
	.st23{fill:#175807;}
	.st24{opacity:0.56;fill:#E5D1C0;}
	.st25{fill:none;stroke:#7F594E;stroke-width:2;stroke-miterlimit:10;}
	.st26{fill:#B7D8FA;}
	.st27{fill:#22160E;}
	.st28{fill:#E4E6E7;}
	.st29{fill:#5F6972;}
	.st30{fill:#241A11;}
</style>
<g id="Capa_1">
	<g>
		<circle class="st0" cx="785.6" cy="373.85" r="3.15"/>
	</g>
	<g>
		<path class="st0" d="M783.53,364.39c0,0-4.24-5.27,2.21-11.44s13.32-12.66,11.01-23.91c-2.31-11.25-14.92-13.32-22.92-3.81
			c-8,9.51-6.02,15.86-2.07,15.44c3.95-0.42,3.77-9.27,10.21-13.46c6.45-4.19,13.04,2.68,8.57,10.17
			c-4.47,7.48-12.9,11.25-13.18,16.94C777.08,360.01,783.53,364.39,783.53,364.39z"/>
	</g>
</g>
<g id="Capa_3">
	<path class="st1" d="M1138.23,541.65c0,0-9.16,0.32-18.13-1.29c-8.97-1.61-18.84-2.97-24.26-0.06c-5.42,2.9-6,3.29-8.77,6.9
		c-2.77,3.61-4.65,15.74-15.74,16.77c-11.1,1.03-7.68-6.77-5.81-8c1.87-1.23,8.13-7.55,10.84-13.16s1.61-14.58,1.61-14.58
		l12.58-12.9c0,0,4,6.52,11.68,5.23c7.68-1.29,15.55-6,21.1-4.77c5.55,1.23,10.97,5.03,10.97,5.03s6.39-0.13,7.35,1.48
		c0.97,1.61-0.06,4.52-2.71,5.87c-2.65,1.35-6.71,2.9-6.71,2.9s9.81,0.52,11.35,1.55c1.55,1.03,2.19,3.61,1.29,5.48
		C1143.97,539.97,1138.23,541.65,1138.23,541.65z"/>
	<path class="st2" d="M971.97,484.81c0,0,13.94,2.32,36.39,0.97c22.45-1.35,30.19-3.29,30.19-3.29s11.03,16.84,19.55,33.87
		c8.52,17.03,9.68,19.16,12.77,18c3.1-1.16,10.06-10.06,16.45-16.45c6.39-6.39,8.71-6.58,7.16-11.42
		c-1.55-4.84-10.84-15.29-22.45-33.87c-11.61-18.58-15.48-25.74-21.29-29.23c-5.81-3.48-40.06-2.32-85.55,2.13
		c0,0-11.03-32.52-19.35-46.26c0,0-17.42,26.52-23.61,77.81c0,0,14.13,15.1,22.45,60.58s57.68,110.9,101.61,132.77
		c0,0,21.48-33.68,35.61-93.1c0,0-27.48-1.55-50.71-23.61c-23.23-22.06-40.65-67.16-40.65-67.16"/>
	<path class="st2" d="M817,391.97c0,0,6.84-27.74,10.06-38.45c3.23-10.71,4.65-19.35,4.65-19.35s14.06-10.58,27.87-15.23
		s25.29-5.81,34.06-6.19c8.77-0.39,10.58,0,10.58,0l14.84,37.81L817,391.97z"/>
	<path class="st3" d="M1052,737.77c9.29,17.13,21.87,54.58,2.52,55.55c-19.35,0.97-27.87-42.97-27.87-42.97s3.19-0.68,10.94-3.48
		S1052,737.77,1052,737.77z"/>
	<path class="st3" d="M932.1,766.1c0,0,1.04,4.77-1.17,12.56c0,0-15.76,8.76-41.02,11.76c-25.26,3-37.06,2.32-37.06,2.32
		s-3.48-8.61,0.29-15.1c3.77-6.48,9.48-7.26,16.16-9c6.68-1.74,14.03-4.65,16.55-6.1c2.52-1.45,4.16-2.61,4.16-2.61
		s6.97,6.58,19.84,7.74C922.71,768.84,932.1,766.1,932.1,766.1z"/>
	<path class="st4" d="M932.09,764.93c0,0,1.05,5.35-1.16,13.14c0,0-15.76,8.76-41.02,11.76c-25.26,3-37.06,2.32-37.06,2.32
		s-3.48-8.61,0.29-15.1s9.48-7.26,16.16-9c6.68-1.74,14.03-4.65,16.55-6.1c2.52-1.45,4.16-2.61,4.16-2.61s6.97,6.58,19.84,7.74
		C922.71,768.26,932.09,764.93,932.09,764.93z"/>
	<path d="M852.48,779.71c0,0-5.68,8.26,30.45,5.03c36.13-3.23,49.81-14.32,49.81-14.32l-1.29,7.68c0,0-10.39,7.29-39.94,11.48
		s-38.26,2.52-38.26,2.52S850.1,784.68,852.48,779.71z"/>
	<path class="st5" d="M962.29,583.71c-20.32,0.97-36.97,0-39.87,0c-2.9,0-4.65,2.9-2.71,6.77s0.39,4.06,0.39,4.06
		s-51.1,67.94-53.42,72.39s-1.16,7.55,1.35,10.45c2.52,2.9,13.94,37.16,15.48,54.58c1.55,17.42,5.61,25.55,5.61,25.55
		s9.87,15.48,45.1,7.35c0,0,2.13-4.06-2.9-17.03c-5.03-12.97-12.77-40.84-16.84-49.94c-4.06-9.1-5.61-15.87-4.06-18.97
		c1.55-3.1,21.48-27.87,36.58-48c0,0,13.16,34.65,18.77,47.81c5.61,13.16,11.61,20.32,16.26,25.35
		c4.65,5.03,28.06,34.26,35.42,46.26c0,0,28.06,2.9,41.03-22.45c0,0-22.26-30.39-31.16-40.45c-8.9-10.06-11.03-14.9-14.52-23.81
		c-3.48-8.9-10.26-26.52-10.26-26.52s-10.94-12.77-22.45-26.9C968.58,596.1,962.29,583.71,962.29,583.71z"/>
	<path class="st6" d="M917.95,767.16c0,0-0.4-6.09-3.64-12.9c-3.25-6.81-9.66-27.47-13.53-46.38s-3.65-23.52-3.65-23.52
		s-4.39,0.77-5.16,6.06c0,0-2.45-5.03,0.39-10.71c2.84-5.68,14.84-15.48,20.65-24c5.81-8.52-4.39-8-12.77-3.35c0,0,9.81-8,17.94-12
		s12.65-9.68,21.68-15.48c9.03-5.81,6.97-2.19,8.9,0.77c1.94,2.97,12.52,17.94,14.71,29.94s3.35,21.94,12.13,34.58
		c8.77,12.65,21.87,32.97,21.87,32.97s-12.45-16.58-17.87-21.74c-5.42-5.16-13.29-20.77-14.39-24.26
		c-1.1-3.48-18.13-46.06-18.13-46.06s-30.06,39.35-30.52,39.81s-6.39,7.1-6.77,10.39c-0.39,3.29,3.23,12.9,4.65,16.26
		c1.42,3.35,6.45,16.71,9.29,27.81c2.84,11.1,6.9,18.39,8.84,25.42c1.94,7.03,2.13,12.39,2.06,12.77s-0.39,1.16-0.39,1.16
		S928.13,767.06,917.95,767.16z"/>
	<path class="st6" d="M1028.1,688.16c-6.45-6.71-13.35-17.68-16.32-27.48s-9.03-24.26-9.03-24.26s-15.29-16.58-24.77-29.42
		s-15.81-23.68-15.81-23.68s-9.16,1.16-19.81,0.58c-10.65-0.58-20.39-0.58-21.94,0.52l7.69,2.48c3.94-0.26,4.96-0.46,4.96-0.46
		l-4.72,2.04c0,0,6.17-0.39,14.23,0.58c8.06,0.97,8.93,8.97,8.93,8.97s4.84-0.77,5.61,1.23c0.77,2-2.65,6.39-2.65,6.39
		s11.94,17.55,21.35,30c9.42,12.45,16,19.03,16.65,28.06c0.65,9.03,0.97,19.35,5.29,22.65c0,0-1.1-6.06,4.58-5.94
		c5.68,0.13,10.97,12.71,12.26,19.29c1.29,6.58,2.13,12.06,5.29,12.32c3.16,0.26,3.29-0.52,3.29-0.52s7.16,13.1,10,16.58
		c2.84,3.48-6.26,9.29-4.26,14.71c0,0-0.39-5.42,11.23-8.58c8.82-2.4,11.61-4.24,12.44-4.99c-2.31,2.49-16.74,17.24-35.99,19.18
		l0.77,1.55c0,0,7.1,1.94,20.84-2.9s20.52-19.35,20.52-19.35S1034.55,694.87,1028.1,688.16z"/>
	<path class="st2" d="M814.42,554.48c0,0,0.1,20.13-3.39,30.58c-3.48,10.45-3.48,10.45-3.48,10.45s8.71,0.1,21.87-2.9
		c13.16-3,47.13-9.58,51-10.94s7.65-5.52,8.23-14.42c0.58-8.9,0.48-36.97,0.48-36.97s13.84,23.61,9.97,54
		c-3.87,30.39-7.65,38.42-8.13,41.9c-0.48,3.48-0.97,7.84-0.97,7.84l29.97-38.32c0,0,0.32-4.06-0.65-7.65
		c-0.97-3.58,5.52-4.45,5.52-4.45s-10.35-35.81-17.03-55.45c-6.68-19.65-17.42-36.29-17.42-36.29s-15.68,0.48-23.13,0.1
		s-9.29-0.48-9.29-0.48s-3.68,7.94-5.23,12c-1.55,4.06-1.84,6.48-1.84,6.48s4.65-1.84,8.32-3c3.68-1.16,5.42-1.06,5.42-1.06
		s-4.65,15.58-5.52,30c-0.87,14.42-0.48,19.84-0.48,19.84S827.29,554.29,814.42,554.48z"/>
	<path class="st1" d="M926.52,482.79c0,0-17.12,8.88-49.26,8.7s-42.57-6.13-42.57-10.07c0,0-0.46-1.01,2.2-3.02
		c2.66-2.01,3.39-2.56,3.39-2.56s-6.78-10.9-9.7-19.32c0,0-7.23-3.75-10.71-13.09c-3.48-9.34-2.2-15.56-1.28-17.85
		c0.92-2.29,1.83-5.13,1.83-5.13l-0.18-5.68l108.04-47.06l16.21,33.69c0,0-17.4,29.94-22.16,75.35
		C922.31,476.75,924.51,479.77,926.52,482.79z"/>
	<path class="st1" d="M962.99,583.84l-37.12,0.09c0,0-6.86-27.35-14.4-47.4c-7.54-20.06-20.66-45.6-20.66-45.6s5.66-0.94,17.4-3.43
		c11.74-2.49,17.23-5.49,17.23-5.49s10.2,17.57,15,35.75c4.8,18.17,2.91,20.4,9.6,39.69S962.99,583.84,962.99,583.84z"/>
	<path class="st7" d="M925.58,583.75c0,0-5.55-25.6-13-44.02c-7.45-18.42-11.92-29.66-11.92-29.66s-6.09-12.19,3.12-14.49
		c9.21-2.3,22.89,11.24,34.94,37.25c12.05,26.01,13.68,51.06,13.68,51.06L925.58,583.75z"/>
	<path class="st8" d="M923.67,466.56c0,0-7.33,13.04-35.77,17.39s-28.44-1.86-16.77-8.69c11.67-6.83,31.36-7.45,31.36-7.45
		s-0.99-4.1-27.88,2.98c-26.89,7.08-33.97,15.65-33.97,15.65s7.51,5.34,32.6,5.65c25.09,0.31,39.12-5.03,44.15-6.71
		c5.03-1.68,8.57-3.17,8.57-3.17l-3.29-4.66L923.67,466.56z"/>
	<path class="st9" d="M848,425.1c0,0,0.39,8.81-3.48,9.39s-3.39-4.26-6.19-9.87c-2.81-5.61-10.55-9.97-10.55-9.97l-3.68-0.39
		l0.77-1.65l18.29-7.94C843.16,404.68,847.81,411.55,848,425.1z"/>
	<path class="st9" d="M870.55,420.23c0,0-0.13,1.81-2.06,2.71s-3.48-0.26-6.32-7.87c-2.84-7.61-2.06-17.55,1.68-19.87
		c3.74-2.32,40.84-17.42,40.84-17.42s11.16,1.81,18.19,11.74c7.03,9.94,6.9,15.35,4.32,17.55s-5.29,2.06-7.68-1.74
		c-2.39-3.81-10.13-12.96-25.87-12.52c-13.68,0.39-20.58,10-21.94,14.45C870.35,411.71,869.84,415.58,870.55,420.23z"/>
	<polygon class="st9" points="824.48,413.91 820.51,420.14 819.42,415.46 825.04,412.93 	"/>
	<path class="st1" d="M814.11,560.52c0,0,0,7.22-0.83,13.67c-0.83,6.45-1.18,9.23-1.18,9.23l-18.66-2.43c0,0-2.64,4.86-11.66,7.01
		c-9.02,2.15-12.56-0.35-13.74-3.61c-1.18-3.26-0.69-4.37-0.69-4.37l-0.62-0.83c0,0-2.78-2.15-3.4-3.12s-0.21-4.86-0.21-5.48
		s0-0.62,0-0.62s-2.64-1.46-4.23-4.23c-1.6-2.78-2.36-6.73-2.36-7.7c0-0.97,0.83-2.08,1.6-2.57c0.76-0.49,18.73-9.3,18.73-9.3
		l0.14,3.82c0,0,8.67-10.55,13.18-13.88c4.51-3.33,6.66-1.8,7.56-0.9c0.9,0.9,3.4,8.6,4.44,11.66c1.04,3.05,2.98,10.69,2.98,10.69
		L814.11,560.52z"/>
	<path class="st10" d="M776.73,550.86l-4.12-16.22c0,0-17.52-3.19-24.13-42.1c-5.52-32.5,10.97-36.22,18.9-30
		c11.39,8.94,25.42,43.61,13.35,70.84l2.13,9.87L776.73,550.86z"/>
	<path class="st10" d="M786.03,586.61l5.68,19.35l7.68-5.35l-5.48-19.48l-0.84-0.06C793.06,581.06,791.32,584.29,786.03,586.61z"/>
	<path class="st8" d="M1116.98,528.6c0,0,7.16,1.16,15.34-0.92c8.18-2.08,7.98-6.39,7.98-6.39s2.47,0.77,1.45,3.39
		s-7.69,5.42-7.69,5.42l-2.27,0.68l-1.45,0.1L1116.98,528.6z"/>
	<path class="st8" d="M1073,563.52c0,0-4.52-2.06-4-4.06s5.16-4.13,9.87-14.77s2.39-20.45,2.39-20.45l-3.94,4.65
		c0,0,1.61,7.61-1.74,14.19c-3.35,6.58-8.77,12.65-11.03,14.77s-0.77,5.23,3.1,5.87C1071.52,564.35,1073,563.52,1073,563.52z"/>
	<path class="st8" d="M791.19,563.04l23.24,2.03l-2.33,18.35l-19.03-2.35c0,0,1.18-2.19,1.32-4.42c0.15-2.23-1.65-3.44-2.56-3.44
		s-2.03,0.05-2.03,0.05s1.69-1.35,2.18-4.65c0.48-3.29-1.79-4.11-1.79-4.11L791.19,563.04z"/>
	<path class="st11" d="M807.65,595.42c0,0,0.87-0.29,2.32-3.19c1.45-2.9,1.35-6.87,1.35-6.87l10.94-2.03c0,0-0.87-3.97,5.61-5.03
		s28.94-4.74,40.06-8.9c11.13-4.16,11.61-45.77,10.45-51.77c-1.16-6-6.68-11.03-6.68-11.03s9.97,3.87,17.71,23.23
		c0,0-0.97,14.03-0.58,25.55c0.39,11.52-1.06,19.84-2.23,21.58c-1.16,1.74-2.32,3.19-3.68,3.77c-1.35,0.58-57,11.61-63.39,13.65
		C813.16,596.39,807.65,595.42,807.65,595.42z"/>
	<path class="st8" d="M829.26,454.94c0,0,7.1-1.03,8.65-8.58c1.55-7.55-5.87-15.81-12-15.23c-6.13,0.58-7.68,5.23-7.68,5.23
		s-0.65-6.06,0.77-11.61c1.42-5.55,5.74-10.97,5.74-10.97s11.1,3.1,15.29,14.26c4.19,11.16,0.97,28.9,0.84,29.48
		c-0.13,0.58-0.77,2.19-0.77,2.19S835.39,458.87,829.26,454.94z"/>
	<path class="st8" d="M874.74,402.03c0,0-7.81,6.77-5.94,19.03s14.47,22.06,29.29,22.77c17.42,0.84,32.06-9.87,31.94-22.77
		c-0.16-15.91-19.87-28.13-34.97-28.19S874.74,402.03,874.74,402.03z"/>
	<path class="st11" d="M946.75,401.34c0,0-1.51,35.64-17.82,68.02c0,0,2.51,1.26,5.52-3.26s11.04-24.6,15.81-25.85
		c4.77-1.26,10.79,23.34,9.54,37.15c0,0,1,3.01,3.51-4.27c2.51-7.28,2.51-26.61,2.51-26.61S955.29,415.9,946.75,401.34z"/>
	<path class="st11" d="M1043.97,667.71c0,0,12.19-16.45,5.81-49.16c-6.39-32.71-30.19-53.81-49.74-81.48
		c-19.55-27.68-34.45-50.9-34.45-50.9s7.16-3.29,18.77-11.61c11.61-8.32,19.55-7.35,29.61-5.81c10.06,1.55,12.77,9.48,18.97,8.71
		c6.19-0.77,7.35-8.9,7.35-8.9s9.68,26.13,36.97,45.87c0,0,8.13-7.74,11.61-7.74s5.03,4.65,1.35,8.52
		c-3.68,3.87-16.26,18.77-19.55,19.35c-3.29,0.58-5.03-4.06-6.39-6.77c-1.35-2.71-16.06-32.71-25.16-44.9c0,0-15.48,2.9-31.16,3.29
		c-15.68,0.39-17.03-0.19-17.03-0.19s14.52,41.61,34.65,62.13c20.13,20.52,41.23,26.71,55.94,29.23c0,0-6.97,31.16-17.81,56.9
		c-10.84,25.74-18,35.61-18,35.61L1043.97,667.71z"/>
	<path class="st12" d="M821.48,557.77c0,0-2.61,15.87-6.48,28.06"/>
	<path class="st11" d="M905.97,575.19c0,0-9.77-42.77-22.94-63.48l3.77,1.65c0,0-1.45-18.1-30.68-17.42l2.32-4.65
		c0,0,16.06,0.19,20.32,0.29c4.26,0.1,11.42-0.29,11.42-0.29s8.81,21,13.55,43.06S905.97,575.19,905.97,575.19z"/>
	<polygon class="st0" points="824,382.52 851.97,369.94 827.68,377.97 	"/>
	<path class="st13" d="M839,336.26c0,0-6.77,15.29-7.74,15.48c-0.97,0.19,3.48-13.26,5.81-15.97
		C839.39,333.06,839,336.26,839,336.26z"/>
	<path class="st13" d="M894.35,316.03c0,0-37.16,14.23-48.87,18.1c-10.61,3.51,0.58-4.06,11.71-7.26S902.1,310.61,894.35,316.03z"/>
</g>
<g id="Capa_4">
	<path class="st14" d="M862.81,491.19c0,0-4.06,6.77-4.74,9.29c-0.68,2.52-4.26,1.74,1.65-9.1L862.81,491.19z"/>
	<path class="st14" d="M868.13,506.1c0,0-2.32,4.74-4.26,16.26c-1.94,11.52-0.87,14.03,0.39,10.94c1.26-3.1,2.81-16.35,6.19-26.61
		L868.13,506.1z"/>
	<path class="st14" d="M821,560.19c0,0,16.16-1.06,26.13-0.87c9.97,0.19-0.87,3.19-26.9,3.58L821,560.19z"/>
	<path class="st14" d="M968.23,446.68c0.9-0.26,35.61-1.55,56.13-1.55c20.52,0,22.32,4.26,23.23,6.45c0.9,2.19-1.42,2.58-2.71,0.77
		c-1.29-1.81-6.06-4.65-16.39-5.29c-10.32-0.65-54.06,3.1-58.97,2.32C964.61,448.61,968.23,446.68,968.23,446.68z"/>
</g>
<g id="Personaje">
	<path class="st15" d="M1002.55,637.13c0,0,6.77,17.61,10.26,26.52c3.48,8.9,5.61,13.74,14.52,23.81
		c8.9,10.06,31.16,40.45,31.16,40.45c-12.97,25.35-41.03,22.45-41.03,22.45c-7.35-12-30.77-41.23-35.42-46.26
		c-4.65-5.03-10.65-12.19-16.26-25.35c-5.61-13.16-18.77-47.81-18.77-47.81c-15.1,20.13-35.03,44.9-36.58,48
		c-1.55,3.1,0,9.87,4.06,18.97c4.06,9.1,11.81,36.97,16.84,49.94c5.03,12.97,2.9,17.03,2.9,17.03c-35.23,8.13-45.1-7.35-45.1-7.35
		s-4.06-8.13-5.61-25.55c-1.55-17.42-12.97-51.68-15.48-54.58c-2.52-2.9-3.68-6-1.35-10.45s53.42-72.39,53.42-72.39
		s1.55-0.19-0.39-4.06s-0.19-6.77,2.71-6.77c2.9,0,19.55,0.97,39.87,0"/>
	
		<ellipse transform="matrix(0.0785 -0.9969 0.9969 0.0785 406.0738 1276.1899)" class="st1" cx="893.38" cy="418.43" rx="13.71" ry="15"/>
	<path class="st12" d="M858.94,490.81c0,0-5.81,9.1-7.74,18.97c0,0,17.61-11.23,35.42,4.45"/>
	<path class="st12" d="M864.35,505.71c0,0-6.97,24.19-5.23,49.55c0,0-41.81,0-44.52,0.39c-2.71,0.39-3.87,3.68-3.87,3.68"/>
	<path class="st12" d="M808.35,595.84c0,0,7.74-0.13,29.68-5.68c21.94-5.55,42.06-7.61,46.45-10.32c4.39-2.71,4.26-17.29,4.26-32
		c0-14.71,0.77-24,0.77-24"/>
	<path class="st12" d="M889.52,532.74c0,0,10.97,18.84,10.19,43.35c-0.77,24.52-8.39,36.77-9.55,59.74"/>
	<path class="st16" d="M925.77,583.71c0,0-13.81-57.42-35.1-92.13"/>
	<path class="st17" d="M908.35,488.87c0,0-29.29,5.68-54.06,1.16c-24.77-4.52-19.74-9.03-17.81-11.1s30.84-21.68,77.81-23.35"/>
	<path class="st17" d="M840.61,476.1c0,0-6.06-8.52-10.19-20"/>
	<path class="st17" d="M820.42,412.03c0,0-1.16,3.97,0.19,8.61"/>
	<g>
		
			<linearGradient id="SVGID_1_" gradientUnits="userSpaceOnUse" x1="8481.208" y1="-34.6487" x2="8481.208" y2="-50.2763" gradientTransform="matrix(-0.8436 0.537 0.537 0.8436 8068.8467 -4098.1191)">
			<stop  offset="0" style="stop-color:#E8AF15"/>
			<stop  offset="0.0382" style="stop-color:#D69A16"/>
			<stop  offset="0.1118" style="stop-color:#B87817"/>
			<stop  offset="0.1933" style="stop-color:#9E5B18"/>
			<stop  offset="0.2832" style="stop-color:#8A4319"/>
			<stop  offset="0.385" style="stop-color:#7A3119"/>
			<stop  offset="0.5057" style="stop-color:#6E241A"/>
			<stop  offset="0.6637" style="stop-color:#681C1A"/>
			<stop  offset="1" style="stop-color:#661A1A"/>
		</linearGradient>
		<circle class="st18" cx="891.19" cy="420.05" r="7.81"/>
	</g>
	<circle class="st19" cx="891.24" cy="419.91" r="5.42"/>
	<circle class="st0" cx="885.48" cy="417.48" r="1.66"/>
	<g>
		
			<linearGradient id="SVGID_00000094604927000964253940000004253767827196016033_" gradientUnits="userSpaceOnUse" x1="8470.3027" y1="-179.6505" x2="8470.3027" y2="-192.1181" gradientTransform="matrix(-0.3656 0.9308 0.9308 0.3656 4096.4248 -7372.896)">
			<stop  offset="0" style="stop-color:#E8AF15"/>
			<stop  offset="0.0382" style="stop-color:#D69A16"/>
			<stop  offset="0.1118" style="stop-color:#B87817"/>
			<stop  offset="0.1933" style="stop-color:#9E5B18"/>
			<stop  offset="0.2832" style="stop-color:#8A4319"/>
			<stop  offset="0.385" style="stop-color:#7A3119"/>
			<stop  offset="0.5057" style="stop-color:#6E241A"/>
			<stop  offset="0.6637" style="stop-color:#681C1A"/>
			<stop  offset="1" style="stop-color:#661A1A"/>
		</linearGradient>
		
			<circle style="fill:url(#SVGID_00000094604927000964253940000004253767827196016033_);stroke:#175807;stroke-width:0.5;stroke-linecap:round;stroke-linejoin:round;stroke-miterlimit:10;" cx="826.25" cy="442.89" r="6.23"/>
	</g>
	<circle class="st19" cx="826.22" cy="442.78" r="4.32"/>
	<circle class="st0" cx="821.37" cy="443.92" r="1.32"/>
	
		<ellipse transform="matrix(0.0785 -0.9969 0.9969 0.0785 406.0738 1276.1899)" class="st21" cx="893.38" cy="418.43" rx="13.71" ry="15"/>
	
		<ellipse transform="matrix(0.0785 -0.9969 0.9969 0.0785 407.8268 1277.0902)" class="st21" cx="894.74" cy="417.94" rx="18.37" ry="20.1"/>
	
		<ellipse transform="matrix(0.2488 -0.9686 0.9686 0.2488 269.96 1181.3146)" class="st17" cx="896.54" cy="416.62" rx="23.58" ry="26.66"/>
	<path class="st17" d="M865.03,422.1c0,0-7.35-12.68-3.1-26.23"/>
	<path class="st17" d="M904.32,377.39c0,0,17.52,3.29,24,22.35"/>
	<path class="st17" d="M907.71,395.77c0,0,7.45-4.26,4.06-15.48"/>
	<path class="st17" d="M890.1,393.06c0,0,1.55-5.61,0.39-10.06"/>
	<path class="st17" d="M873.16,404.1c0,0-0.58-7.06-6.58-10.74"/>
	<path class="st17" d="M833.29,417.16c0,0-0.68-6.68,4.65-12.68"/>
	<path class="st17" d="M841.32,402.65c0,0,6.58,5.03,6.39,24.19"/>
	<path class="st21" d="M825.55,409.23c0,0-0.58,2.42,0.1,4.65"/>
	<path class="st17" d="M838.61,464.39c0,0,5.52-13.35,2.71-30.77c-2.81-17.42-16.84-19.65-16.84-19.65s-9.39,10.35-5.9,25.55
		c3.48,15.19,16.26,18.87,20.61,19.94"/>
	<path class="st22" d="M818.03,436.55c1-1.92,2.32-3.81,4.33-4.7c5.29-2.34,11.79,0.73,14.51,6.87c2.72,6.14,0.63,13.01-4.66,15.36
		c-0.96,0.42-1.95,0.67-2.96,0.75"/>
	<path class="st22" d="M818.42,427c7.1-7.61,17.82-1.53,21.78,7.41c4.01,9.05,1.24,19.13-6.14,23.16"/>
	<path class="st23" d="M853.9,450.35c0,0,0,5.81-1.94,5.52C850.03,455.58,850.61,452.87,853.9,450.35z"/>
	<path class="st23" d="M862.61,447.45c0,0,2.32,3.58,5.13,3C870.55,449.87,867.74,447.06,862.61,447.45z"/>
	<path class="st17" d="M927.97,367.19c0,0,8.65,14.58,16.26,34.32"/>
	<path class="st2" d="M817,391.97c0,0-10.58,10.84-15.87,18.97s-10.19,15.87-10.19,15.87s85.68-35.61,117.29-50.19
		c31.61-14.58,53.1-24.19,53.1-24.19s-27.81-0.71-32.19-1.23c-4.39-0.52-10.58-0.32-10.58-0.32L817,391.97z"/>
	<polygon class="st24" points="821.52,375.71 914.42,339.19 919.06,350.55 816.74,392.48 	"/>
	<line class="st25" x1="817.52" y1="392.1" x2="918.55" y2="350.87"/>
	<path class="st12" d="M961.32,352.42c0,0-157.16,70.26-171.1,74.71c0,0,9.68-17.23,27.29-35.03c0,0,6.19-32.32,14.9-58.45
		c0,0,29.42-23.42,71.61-21.48l14.71,38.81C918.74,350.97,934.81,349.9,961.32,352.42z"/>
	<path class="st17" d="M1077.26,528.87c0,0,2.71,6.71-3.61,17.81c-6.32,11.1-11.48,10.84-10.19,13.81c1.29,2.97,5.29,4.9,12.9,1.94
		c7.61-2.97,7.48-18.06,19.61-22.58c12.13-4.52,19.61,0.52,32.9,1.81c13.29,1.29,16.26-2.45,16.26-6.19s-1.68-2.71-14.97-4.39
		c-13.29-1.68-20.26-4.13-20.26-4.13"/>
	<path class="st17" d="M1090.37,515.34c0,0,4.06,5.08,10.35,4.89c6.29-0.19,15.44-4.11,19.02-4.5c3.58-0.39,9.82,3.73,13.94,5.03"/>
	<path class="st17" d="M1111.03,521.44c0,0,24.29-0.77,28.26-0.48c3.97,0.29,4.05,8.18-9.13,10.11"/>
	<path class="st17" d="M814.04,560.65c0,0-8.09-2.38-8.77-2.99c-0.68-0.61-4.96-20.39-8.15-22.9s-10.13,3.13-16.24,10.94
		c-6.12,7.82-10.94,13.18-5.5,15.09c5.44,1.9,14.95-3.6,16.51-15.22"/>
	
		<ellipse transform="matrix(0.972 -0.2349 0.2349 0.972 -95.2247 194.0252)" class="st26" cx="766.72" cy="496.68" rx="12.07" ry="32.79"/>
	<line class="st17" x1="812.29" y1="583.61" x2="793.52" y2="581.1"/>
	<path class="st17" d="M787.81,556.03c0,0,4.06,1.69,3,6.82s-14.76,7.35-24.1,7.55c-9.34,0.19-10.89-12.68-9.82-14.18
		s18.97-9.82,18.97-9.82"/>
	<path class="st17" d="M790.13,564.65c0,0,2.95,0.53,1.45,5.95c-1.5,5.42-15.39,8.37-20.37,9.24c-4.98,0.87-7.89-3.63-7.89-3.63
		s-0.82-2.61-0.05-6.44"/>
	<path class="st17" d="M789.65,573.31c0,0,5.08-0.92,4.79,3.97c-0.29,4.89-6.73,10.35-16.16,11.32c-9.44,0.97-12.1-5.66-10.84-9"/>
	<path class="st17" d="M768.16,560.82c0,0,4.6,0.58,9.44,0.34"/>
	<path class="st12" d="M929.39,467.45c0,0,10.58-18.06,15.48-47.48"/>
	<path class="st12" d="M978.68,560.74c0,0,13.29-2.84,22.19-20.13"/>
	<path class="st12" d="M981.39,562.16c0,0,12.65,17.29,21.16,19.87c8.52,2.58,17.68-6.71,17.94-14.06
		c0.26-7.35-17.94-23.35-17.94-23.35"/>
	<path class="st12" d="M1038.29,482.94c0,0-0.9-8.77,2.06-19.23"/>
	<path class="st12" d="M1038.03,482.03c0,0-4.77-5.81-7.23-13.42"/>
	<path class="st12" d="M1065.39,528.35c0,0,10.71-12.77,21.16-20.52"/>
	<path class="st12" d="M965.26,445.13c0,0,1.16,5.29-0.39,17.94"/>
	<path class="st27" d="M892.61,631.13c0,0,13.55-21.87,12-66.77c-1.55-44.9-15.29-72.97-15.29-72.97l1.16-0.19
		c0,0,10.52,17.03,18,37.16c7.48,20.13,17.55,55.23,17.55,55.23s-4.06-0.26-5.68,0.97c-1.61,1.23-1.81,3.74-0.84,5.61
		c0.97,1.87,1.35,3.74,0.84,4.39C919.84,595.19,892.61,631.13,892.61,631.13z"/>
	<path class="st28" d="M761.39,469.81c0,0-2.9,3.19-0.87,16.55c2.03,13.35,4.26,17.32,2.52,17.61c-1.74,0.29-5.81-10.65-6.58-20.42
		c-0.77-9.77,2.52-14.9,4.06-15.39C762.06,467.68,762.26,468.26,761.39,469.81z"/>
	<path class="st28" d="M766.36,515.5c0,0-2.13-3.13-3-6.17c-0.88-3.04,0.79-2.54,2.5,1.54C767.57,514.96,767.82,517.46,766.36,515.5
		z"/>
	<path class="st29" d="M771.57,522.3c0,0,3.04,0.17,3.29-7.42s-2.25-18.34-1.63-17.93c0.63,0.42,3.25,7.92,3.46,17.97
		c0.21,10.05-4.04,10.09-5.29,9C770.15,522.84,770.32,521.96,771.57,522.3z"/>
	<path class="st29" d="M771.28,489.61c0,0-2.46-10.67-5.75-16.01C765.53,473.61,771.49,476.94,771.28,489.61z"/>
	<path class="st12" d="M813.39,556.35c0,0,2.45,0.39-0.65,23.23c-3.1,22.84-7.94,20.13-6.9,4.65"/>
	<path class="st30" d="M805.45,583.52l6.71,1.1c0,0-2.39,12-4.71,11.74S805.45,583.52,805.45,583.52z"/>
	<path class="st12" d="M971.97,484.81c0,0,13.94,2.32,36.39,0.97c22.45-1.35,30.19-3.29,30.19-3.29s11.03,16.84,19.55,33.87
		c8.52,17.03,9.68,19.16,12.77,18c3.1-1.16,10.06-10.06,16.45-16.45c6.39-6.39,8.71-6.58,7.16-11.42
		c-1.55-4.84-10.84-15.29-22.45-33.87c-11.61-18.58-15.48-25.74-21.29-29.23c-5.81-3.48-40.06-2.32-85.55,2.13
		c0,0-11.03-32.52-19.35-46.26c0,0-17.42,26.52-23.61,77.81c0,0,14.13,15.1,22.45,60.58s57.68,110.9,101.61,132.77
		c0,0,21.48-33.68,35.61-93.1c0,0-27.48-1.55-50.71-23.61c-23.23-22.06-40.65-67.16-40.65-67.16"/>
	<path class="st4" d="M1026.65,750.35c0,0,8.52,43.94,27.87,42.97c19.35-0.97,6.77-38.42-2.52-55.55"/>
</g>
</svg>
