<?xml version="1.0" encoding="UTF-8"?><svg xmlns="http://www.w3.org/2000/svg" xmlns:xlink="http://www.w3.org/1999/xlink" viewBox="0 0 1492.21 580.58"><defs><style>.e{fill:#fff;}.f{fill:#06f5e2;}.g{fill:#060203;}.h{stroke-width:4.52px;}.h,.i,.j,.k,.l,.m{fill:none;}.h,.i,.j,.n,.o,.m{stroke-miterlimit:10;}.h,.i,.m{stroke:#fefef4;}.p{fill:#7dd0e6;}.q{fill:#175807;}.r{fill:#bf0604;}.s{fill:#3bc0cb;}.t{fill:#64a835;}.i{stroke-width:1.48px;}.j{stroke:#66ade2;}.j,.l{stroke-width:5px;}.u{fill:url(#d);stroke:#295654;}.u,.k,.v,.w,.l,.x{stroke-linecap:round;stroke-linejoin:round;}.u,.v,.x{stroke-width:2px;}.k,.n{stroke-width:4px;}.k,.v,.w,.l,.x{stroke:#175807;}.y{fill:#f9ffff;}.n{fill:#2d2d2d;stroke:#000;}.a`{fill:#407ffe;}.aa{fill:#84e246;}.v,.ab{fill:#83e145;}.ac{fill:#5ea837;}.w{stroke-width:6px;}.w,.x{fill:#53a22f;}.ad,.ae{fill:#fefef4;}.af{fill:#cbe4ff;}.ag{fill:#61a938;}.ah{fill:#3a1919;}.ae{font-size:99.67px;}.o{fill:#e8eaea;stroke:#636363;stroke-width:3px;}.m{stroke-width:1.43px;}.ai{fill:#feec30;}</style><linearGradient id="d" x1="5300.2" y1="-944.18" x2="5300.2" y2="-974.02" gradientTransform="translate(-4632.32 847.39) rotate(2.57)" gradientUnits="userSpaceOnUse"><stop offset="0" stop-color="#e8af15"/><stop offset=".04" stop-color="#d59a15"/><stop offset=".11" stop-color="#b77716"/><stop offset=".19" stop-color="#9e5a17"/><stop offset=".28" stop-color="#894218"/><stop offset=".39" stop-color="#793019"/><stop offset=".51" stop-color="#6e2319"/><stop offset=".66" stop-color="#671c19"/><stop offset="1" stop-color="#661a1a"/></linearGradient></defs><g id="a"/><g id="b"><g id="c"><g><path class="s" d="M622.15,273.32s-57.77-25.48-121.85,24.55c-57.49,44.88-22.51,121.29-86.26,86.81-52.87-28.6-122.65-4.81-122.35,53.64,.3,58.45-67.19,8.64-95.9,67.93h426.36v-232.93Z"/><path class="p" d="M826.09,273.32s57.77-25.48,121.85,24.55c57.49,44.88,22.51,121.29,86.26,86.81,52.87-28.6,122.65-4.81,122.35,53.64-.3,58.45,67.19,8.64,95.9,67.93h-426.36v-232.93Z"/><path class="ab" d="M596.62,213.59c-17.1-40.19-10.55-88.35-10.55-88.35,0,0-3.71-2.14-5.7-2.57-2-.43-30.92-9.83-30.92-9.83,0,0,14.82,19.52,18.24,27.5,3.42,7.98,3.99,22.23-4.13,23.66s-13.11-6.56-16.1-15.82c-2.99-9.26-6.84-33.49-32.06-38.19-25.22-4.7-38.62,4.42-38.62,4.42,0,0,3.99,2.28,9.69,5.42,5.7,3.14,25.22,17.1,29.21,23.51,3.99,6.41,3.42,17.24-23.8,9.12-27.22-8.12-30.35-36.62-30.35-36.62,0,0-12.68,3.14-25.22,8.69-12.54,5.56-36.48,20.66-41.04,43.89-4.56,23.23,4.85,36.48,4.85,36.48,0,0,3.85-3.56,7.84-7.7,3.99-4.13,14.68-9.26,23.37-11.83,8.69-2.57,15.82-.14,19.52,5.7s-2.71,12.26-9.98,15.11c-7.27,2.85-34.91,3.99-34.91,3.99,0,0,5.13,11.12,18.81,22.09,13.68,10.97,21.52,12.11,21.52,12.11l28.79,18.95s40.9-18.53,77.67-6.98c36.77,11.54,62.28,39.33,62.28,39.33l1.85-9.12s2.85-11.83,8.27-14.82c5.42-2.99,21.52-3.99,21.52-3.99,0,0-32.92-13.97-50.02-54.15Z"/><path class="t" d="M550.59,204.75c-66.98-43.61-119.14-40.47-150.49,.14,0,0,15.68-20.09,37.19-19.81,21.52,.29,14.11,11.83,11.12,15.82-2.99,3.99-14.25,7.13-26.36,8.12-12.11,1-14.96,.86-14.96,.86,0,0,2.14,12.97,21.23,24.08,19.1,11.12,35.91,22.37,42.32,26.22,6.41,3.85,6.13,3.42,6.13,3.42,0,0,21.09-10.4,42.18-10.97,21.09-.57,39.62,2.85,62.99,16.1,23.37,13.25,32.21,28.5,32.21,28.5,0,0,1.71-19.81,11.54-25.22,9.83-5.42,20.95-4.28,20.95-4.28,0,0-29.07-19.38-96.05-62.99Zm-55.99,7.41c-16.05,5.17-30.67,4.38-32.65-1.77-1.98-6.15,9.42-15.33,25.47-20.5,16.05-5.17,30.67-4.38,32.65,1.77s-9.42,15.33-25.47,20.5Z"/><g><path class="aa" d="M1080.23,325.31v108.49h24.99s-6.75-22.23,5.8-26.98,15.96,12.54,15.2,20.33c-.76,7.79-1.71,15.39-1.71,15.39,0,0,7.41,4.56,19,8.17s16.72,8.27,16.72,8.27c0,0,11.02-23.09,10.83-46.84-.19-23.75-8.74-30.78-19.19-37.43-10.45-6.65-18.81-10.26-14.06-14.06s19.38,1.52,19.38,1.52c0,0-11.4-23.75-34.77-32.11s-42.18-4.75-42.18-4.75Z"/><path class="t" d="M1080.42,435.61v-90.92s27.93,.57,54.44,36.2c26.51,35.63,24.23,77.24,24.23,77.24,0,0-21.95-10.83-28.22-12.26-6.27-1.43-7.7-5.7-7.7-5.7,0,0,9.69-27.08-1.71-31.64-11.4-4.56-16.53,1.43-18.53,11.12s2.28,14.16,2.28,14.16l-24.8,1.81Z"/><path class="l" d="M1088.41,325.6s49.02-3.99,69.54,36.48c0,0-19.67-5.7-21.95,.29-2.28,5.99,17.39,7.13,31.07,27.93,13.68,20.81-6.84,68.69-6.84,68.69,0,0-6.84-4.56-19.67-9.12-12.83-4.56-17.39-9.69-17.39-9.69,0,0,7.41-23.66-1.71-31.64-9.12-7.98-24.23,5.42-16.25,26.51h-23.66v-109.16l6.84-.29Z"/><path class="l" d="M1085.41,344.12s52.16,10.97,70.68,85.36"/><path class="l" d="M1086.55,335s28.79-.57,48.45,13.82"/><path class="l" d="M1132.72,378.33s24.65,5.13,31.78,32.21"/></g><g><path class="l" d="M487.03,259.19s-60.04-12.54-80.56-49.02c0,0,13.68-.76,29.26-2.28,15.58-1.52,26.22-24.7,.76-22.8-25.46,1.9-36.1,20.9-36.1,20.9,0,0-19.76-31.16,6.46-59.28,26.22-28.12,55.86-30.78,55.86-30.78,0,0,.76,30.4,37.62,38.38,36.86,7.98,12.92-24.7-25.08-40.28,0,0,16.34-10.64,43.7-2.28,27.36,8.36,25.08,30.78,31.16,42.56,6.08,11.78,19.76,14.82,19.38-3.42-.38-18.24-22.42-38-22.42-38,0,0,23.56,2.28,37.62,11.4"/><path class="l" d="M594.38,203.71s-70.68-45.6-148.02-35.91"/><path class="l" d="M540.99,253.87s9.69-12.54,31.73-16.15c22.04-3.61,19.57,11.02,15.96,14.25"/><ellipse class="l" cx="491.01" cy="201.03" rx="30.53" ry="11.7" transform="translate(-38 160.33) rotate(-17.87)"/></g><g><path class="aa" d="M350.43,174.03H186c-3.51,0-6.35-2.85-6.35-6.35h0c0-3.51,2.84-6.35,6.35-6.35h164.43c3.51,0,6.35,2.84,6.35,6.35h0c0,3.51-2.84,6.35-6.35,6.35Z"/><path class="aa" d="M1341.67,194.08h-107.13c-3.59,0-6.5-2.91-6.5-6.5h0c0-3.59,2.91-6.5,6.5-6.5h107.13c3.59,0,6.5,2.91,6.5,6.5h0c0,3.59-2.91,6.5-6.5,6.5Z"/><path class="aa" d="M345.5,222.15h24.37c3.45,0,6.26,2.8,6.26,6.26v23.21c0,3.45-2.8,6.26-6.26,6.26h-24.37c-3.45,0-6.26-2.8-6.26-6.26v-23.21c0-3.45,2.8-6.26,6.26-6.26Z"/><path class="aa" d="M1181.64,140.05h13.3c1.88,0,3.41,1.53,3.41,3.41v12.67c0,1.88-1.53,3.41-3.41,3.41h-13.3c-1.88,0-3.41-1.53-3.41-3.41v-12.67c0-1.88,1.53-3.41,3.41-3.41Z"/><path class="aa" d="M289.65,285.03h-60.85c-4.51,0-8.16-3.65-8.16-8.16h0c0-4.51,3.65-8.16,8.16-8.16h60.85c4.51,0,8.16,3.65,8.16,8.16h0c0,4.51-3.65,8.16-8.16,8.16Z"/><g><rect class="f" x="13.83" y="309.91" width="289.21" height="125.94" rx="10.35" ry="10.35"/><g><path class="i" d="M48.9,333.29c0,3.02-2.45,5.48-5.48,5.48s-5.48-2.45-5.48-5.48,2.45-5.48,5.48-5.48,5.48,2.45,5.48,5.48Z"/><circle class="i" cx="64.71" cy="333.29" r="5.48"/><circle class="i" cx="85.99" cy="333.29" r="5.48"/></g><line class="i" x1="13.83" y1="354.02" x2="303.04" y2="354.02"/></g><g><rect class="f" x="982.15" y="20.99" width="151.57" height="129.07" rx="12.24" ry="12.24"/><g><path class="a`" d="M1048.37,100.2c-14.44,0-26.19-11.75-26.19-26.19s11.75-26.19,26.19-26.19,26.19,11.75,26.19,26.19-11.75,26.19-26.19,26.19Zm0-46.45c-11.17,0-20.26,9.09-20.26,20.26s9.09,20.26,20.26,20.26,20.26-9.09,20.26-20.26-9.09-20.26-20.26-20.26Z"/><rect class="a`" x="1065.66" y="88.86" width="5.93" height="10.94" transform="translate(246.3 783.26) rotate(-45)"/><rect class="a`" x="1066.6" y="100.71" width="29.95" height="13.13" rx="2.89" ry="2.89" transform="translate(1770.52 947.92) rotate(-135)"/></g></g><g><rect class="a`" x="320.72" y="12.24" width="107.51" height="97.34" rx="14.13" ry="14.13"/><g><path class="ad" d="M374.48,81.89c-12.56,0-22.78-10.22-22.78-22.78s10.22-22.78,22.78-22.78,22.78,10.22,22.78,22.78-10.22,22.78-22.78,22.78Zm0-38.71c-8.78,0-15.93,7.15-15.93,15.93s7.15,15.93,15.93,15.93,15.93-7.15,15.93-15.93-7.15-15.93-15.93-15.93Z"/><line class="h" x1="387.9" y1="43.18" x2="361.79" y2="75.04"/></g></g><g><rect class="aa" x="1212.37" y="233.73" width="279.83" height="218.33" rx="13.05" ry="13.05"/><text class="ae" transform="translate(1247.2 385.21)"><tspan x="0" y="0">404</tspan></text><g><circle class="m" cx="1241.33" cy="254.34" r="5.3"/><circle class="m" cx="1261.95" cy="254.34" r="5.3"/><circle class="m" cx="1282.56" cy="254.34" r="5.3"/></g><line class="m" x1="1212.37" y1="276.46" x2="1492.21" y2="276.46"/></g><polygon class="a`" points="55.7 415.84 3.63 442.82 18.63 450.09 0 472.36 14.54 484.26 32.53 460.35 44.6 473.28 55.7 415.84"/></g><g><g><g><g><path class="ag" d="M503.48,393.68c-8.79-3.38-15.66-10.4-21.46-17.82-18.89-24.16-28.78-56.66-23.33-86.3-25.3,41.87,2.61,107.45,40.47,110.16,16.81,1.2,31.01-1.84,41.6-7.73-12.35,3.53-25.43,6.25-37.27,1.7Z"/><path class="ab" d="M650.33,384.99s-14.9-76.57-52.61-106.02c-37.71-29.45-92.68-40.25-130.97,0-3.14,3.3-5.81,6.85-8.07,10.59-5.44,29.64,4.45,62.15,23.33,86.3,5.8,7.42,12.68,14.44,21.46,17.82,11.83,4.56,24.91,1.83,37.27-1.7,15.38-8.55,23.15-23.11,20.25-39.39-4.01-22.47-19.18-31.5-27.26-29.35,7,9.61,9.6,22.44,6.43,33.94-1.3,4.71-3.78,9.48-8.15,11.65-2.71,1.35-5.86,1.54-8.88,1.36-20.08-1.23-37.16-19.85-37.8-39.95-.64-20.1,14.3-39.3,33.66-44.77,27.46-7.76,57.05,11.1,70.08,36.48,13.03,25.38,13.03,55.36,10.44,83.78-.93,10.19-2.16,20.43-1.37,30.63,1.54,20,10.82,38.83,23.32,54.52,3.88,4.87,8.06,9.47,12.46,13.87h40.95l-24.54-119.76Z"/></g><path class="ai" d="M598.14,436.36c-.79-10.2,.44-20.44,1.37-30.63,2.59-28.41,2.59-58.39-10.44-83.78-13.03-25.38-42.62-44.24-70.08-36.48-19.36,5.47-34.3,24.67-33.66,44.77,.64,20.1,17.72,38.72,37.8,39.95,3.02,.19,6.17,0,8.88-1.36,4.37-2.17,6.85-6.94,8.15-11.65,3.17-11.5,.58-24.33-6.43-33.94-1.8,.48-3.26,1.51-4.15,3.08-4.91,8.6,13.81,32.52-3.86,36.45-17.67,3.93-30.5-14.61-26.57-36.45,3.93-21.83,20.62-30.67,44.18-26.74,23.56,3.93,45.65,35.34,43.44,61.85-2.21,26.51-15.04,46.14-13.53,69.7,1.51,23.56,9.36,53.01,30.96,73.63h29.73c-4.4-4.4-8.58-9-12.46-13.87-12.5-15.7-21.78-34.52-23.32-54.52Z"/><path class="k" d="M650.33,384.99s-14.9-76.57-52.61-106.02c-37.71-29.45-92.68-40.25-130.97,0-38.29,40.25-8.84,117.8,32.4,120.75,41.23,2.95,66.75-19.63,61.85-47.12-4.91-27.49-26.51-34.87-31.41-26.27-4.91,8.6,13.81,32.52-3.86,36.45-17.67,3.93-30.5-14.61-26.57-36.45,3.93-21.83,20.62-30.67,44.18-26.74,23.56,3.93,45.65,35.34,43.44,61.85-2.21,26.51-15.04,46.14-13.53,69.7,1.51,23.56,9.36,53.01,30.96,73.63h70.68l-24.54-119.76Z"/></g><path class="aa" d="M800.45,52.62c-11.94-17.71-40.92-32.84-86.76-43.38s-83.78-6.85-105.9-1.58c-22.13,5.27-42.15,10.01-37.41,22.13,4.74,12.12,22.66,15.81,20.55,56.38-2.11,40.57-14.23,57.43,.53,111.17s47.42,67.44,47.42,67.44c0,0,22.39,12.65,95.89,12.38s97.47-41.89,103.8-78.77c6.32-36.88-7.99-101.07-38.11-145.77Z"/><path class="t" d="M702.89,275.59s-79.82-50.32-93.26-108.28c-13.44-57.96-2.37-85.36-7.11-111.7-4.74-26.34-30.82-28.19-30.82-28.19,0,0-1.05,5.27,7.38,13.44,8.43,8.17,16.33,20.81,9.75,60.59-6.59,39.78-8.96,82.19,10.54,120.13,19.49,37.94,47.95,50.32,60.33,52.69,12.38,2.37,43.2,1.32,43.2,1.32Z"/><path class="f" d="M569.58,24.79s-2.93,5.53,12.38,7.11c25.55,2.63,45.58,9.75,55.32,14.49,9.75,4.74,11.06-7.64,6.06-15.28-5.01-7.64-2.37-8.43,1.84-11.59,4.22-3.16,2.11-7.11-.79-11.06-2.9-3.95,.53-6.06,.53-6.06,0,0-61.12,2.63-75.35,22.39Z"/><path class="aa" d="M784.55,270.05s49.97,2.9,86.5,16.86c36.53,13.96,32.05,30.56,28.63,36.09s-16.33,11.86-35.04,11.06c-18.7-.79-50.58-2.9-50.58-2.9,0,0-27.4-31.35-29.51-61.12Z"/><path class="t" d="M853.49,280.59s7.38,23.18,10.19,37.58c0,0-60.07-35.48-82.55-45.66,0,0,24.59-5.62,72.36,8.08Z"/><path class="aa" d="M661.26,506.1h169.13s-.79-72.97-3.16-101.43c-2.37-28.45-10.01-64.28-20.81-92.21-10.8-27.93-5.01-49.53-69.29-57.43-64.28-7.9-95.63,3.42-95.37,62.96,.26,59.54,20.02,63.23,19.49,188.1Z"/><path class="t" d="M703.85,276.03s-22.83,34.77-24.94,89.92c-2.11,55.15,5.97,140.5,5.97,140.5h-23.62s-1.67-61.12-3.42-84.3c-1.76-23.18-15.81-73.41-15.1-102.92,.7-29.51,27.75-53.39,61.12-43.2Z"/><path class="t" d="M645.98,267.68s-13.7,1.58-18.18,2.9-6.59,5.53-13.44,29.51c-6.85,23.97-11.06,85.36,17.39,86.15,28.45,.79,41.1-57.17,39.25-81.93-1.84-24.76-25.03-36.62-25.03-36.62Z"/><path class="x" d="M818.51,73.64s21.35,10.78,26.23,29.65c4.88,18.87,2.84,39.26-21.61,57.5,0,0-39.89-44.21-4.62-87.15Z"/><path class="ac" d="M747.05,101.43c.37,20.83-5.47,48.2-26.58,65.18-21.11,16.98-49.73,19.36-65.2,10.11-15.47-9.25-24.52-28.19-10.11-61.86,14.4-33.67,100.97-65.58,101.89-13.43Z"/><path class="f" d="M751.94,108.3c-.04,11.6-14.09,22.34-20.1,7.92-6-14.42-8.77-16.5-38.27-19.64-29.5-3.13-48.5,7.65-50.87,12.15-2.37,4.5-4.69,7.98-3.57,16.09,1.12,8.12-15.66,8.41-16.37,.88-3.57-37.88,14.12-68.04,38.76-62.98,5.37,1.1,8.25-.27,13.17,.62,49.17,8.89,77.38,2.93,77.24,44.95Z"/><path class="w" d="M694.95,96.34c17.35,1.7,30.89-6.72,37.75,3.79,6.86,10.52,10.9,42.68-18.16,61.14s-54.19,2.61-61.63-4.21c-5.88-5.39-18.68-22.55-10.48-46.35,7.14-20.73,52.1-14.42,52.52-14.37Z"/><path class="f" d="M835.2,84.53s-3.35-26.03-16.38-31.54c-13.03-5.51-25.4-1.84-29.29,19.15-3.9,20.99-3.25,30.29,2.25,38.64,5.49,8.35,10.08,19.43,14.73,14.51,0,0-3.11-21.75,2.42-31.32,5.54-9.56,15.9-24.62,26.27-9.44Z"/><path class="l" d="M835.85,87.62s-4.78-26.24-15.27-33.68c-10.49-7.44-22.34-2.92-27.38,9.58-5.03,12.5-8.25,31.21-.79,47.47"/><path class="l" d="M751.92,110.38s2.18-35.21-30.86-38.66c-36.64-3.82-46.7-12.74-71.38-8.12-21.7,4.06-26.05,29.19-28.19,52.07"/><path class="l" d="M823.13,160.79s8.05-4.03,14.95-15.62c6.89-11.59,13.21-26.69,5.74-44.22-7.46-17.53-19-22.7-19-22.7"/><path class="q" d="M790.62,178.02s9.03,3.36,8.2,6.31c-.83,2.95-5.21,3.92-8.2-6.31Z"/><path class="q" d="M774.93,180.38s-.33,9.02-3.55,9.37c-3.22,.35-4.04-2.08,3.55-9.37Z"/><path class="x" d="M651.77,129.44c2.52,18.92,21.02,32.07,41.32,29.37,20.3-2.7,34.71-20.23,32.19-39.16-2.52-18.92-12.44-19.89-32.86-21.45-26.3-2.01-43.17,12.32-40.65,31.24Z"/><ellipse class="v" cx="688.82" cy="124.78" rx="26.42" ry="29.86" transform="translate(549.43 810.79) rotate(-88.78)"/><path class="x" d="M818.34,155.39s13.04-4.8,17.96-20.89c4.92-16.09,.4-29.68-8.52-41.17-11.7-15.06-16.13-6.95-16.13-6.95,0,0-17.21,23.18,6.7,69.01Z"/><path class="l" d="M813.33,50.69s8.92,7.66,11.73,26.81"/><path class="l" d="M792.48,65.4s12.91,2.58,19.38,21.3"/><path class="l" d="M705.42,70.89s-14.34,9.75-11.62,25.53"/><path class="l" d="M654.37,65.39s-3.72,10.88,2.28,31.43"/><path class="v" d="M811.72,142.57c9.53,7.62,16.3-.44,18.79-5.29,2.49-4.85,5.85-24.3-5.56-34.79-11.41-10.48-20.73,.77-20.73,.77,0,0,.23,25.43,7.49,39.31Z"/><path class="l" d="M828.42,170.11c-15.65-22.47-26.25-36.75-23.85-65.01,1.83-21.52,20.62-27.58,20.62-27.58"/><path class="l" d="M740.79,80.62s-16.95-4.28-12.33,15.27"/><g><circle class="u" cx="705.56" cy="126.96" r="14.92"/><circle class="g" cx="705.34" cy="126.78" r="10.35"/><circle class="e" cx="713.18" cy="122.28" r="3.87"/></g><path class="l" d="M655.73,271.11s-46.89-9.22-64.28-73.76c-14.5-53.81-2.63-70.6-.53-111.17,2.11-40.57-15.81-44.26-20.55-56.38-4.74-12.12,15.28-16.86,37.41-22.13,22.13-5.27,60.07-8.96,105.9,1.58s74.12,26.17,86.76,43.38"/><path class="l" d="M782.45,271.37s73.24-22.66,55.85-126.72"/><path class="l" d="M669.69,269.79s-43.73-6.85-50.32,8.43c-4.66,10.8-10.27,42.94-10.54,70.6,0,0-.53,44,32.4,37.67"/><path class="l" d="M786.4,270.41s43.2,2.11,84.65,16.51c41.45,14.4,35.48,40.75,14.75,44.61-20.72,3.86-70.95-.35-70.95-.35"/><path class="ai" d="M705.61,501.53h118.02s0-113.11-25.64-163.69c-25.64-50.58-87.11-38.29-92.38,0-5.27,38.29,6.67,102.92,0,163.69Z"/><path class="l" d="M801.15,303.51c34.51,59.01,29.24,201.8,29.24,201.8"/><path class="l" d="M661.79,501.62s-3.95-92.73-16.07-150.16"/><path class="ah" d="M775.33,206.39s12.65,4.57,18.7,20.46c0,0,11.33,6.06,11.86-2.63,.53-8.69-6.59-18.35-13.44-20.64-6.85-2.28-17.12,2.81-17.12,2.81Z"/><path class="r" d="M774.63,205.95s15.98,2.28,19.76,20.72c0,0-2.9-2.28-6.41-1.49-3.51,.79-5.8,6.23-12.47,6.15s-16.68-13.87-.88-25.38Z"/><path class="l" d="M780.78,230.01s4.22-6.67,12.65-3.51c8.43,3.16,14.05,1.76,11.59-9.48-2.46-11.24-18.62-19.32-31.96-10.54-13.35,8.78-7.73,29.86,7.73,23.53Z"/><g><path class="aa" d="M866.49,327.75s-20.29-101.16-24.5-115.65c-4.22-14.49-19.76-75.87-16.86-79.3,5.86-6.92,23.97-2.9,31.88,12.65,7.9,15.54,34.77,97.21,40.57,137.52,5.8,40.31-.79,44.26-5.8,45.31-5.01,1.05-25.29-.53-25.29-.53Z"/><path class="l" d="M901.79,319.76s-2.63-42.15-16.68-91.15c-14.05-49-31.96-89.04-31.96-89.04"/><line class="l" x1="824.33" y1="137.28" x2="860.34" y2="303.25"/></g><g><path class="n" d="M818.36,73.44l-32.14,3.42s-18.97,9.22-18.97,29.24,15.28,29.37,15.28,29.37l49.26,1.19s-31.35-23.97-13.44-63.23Z"/><path class="n" d="M865.39,146.41l-33.06-1s-46.2-34.99-4.1-90.48l41.28-1.37s-26.24,5.74-27.61,43.46c-1.37,37.72,23.49,49.39,23.49,49.39Z"/><ellipse class="o" cx="869.5" cy="100.3" rx="28.16" ry="46.74"/></g><path class="n" d="M724.23,85.38l-32.14,3.42s-18.97,9.22-18.97,29.24,15.28,29.37,15.28,29.37l49.26,1.19s-31.35-23.97-13.44-63.23Z"/><g><path class="aa" d="M677.6,335.39s-13.44,44-31.88,49.79c-18.44,5.8-38.86-12.73-27.57-51.2,9.48-32.32,20.37-44.79,39.34-91.85,18.97-47.07,17.74-62.7,17.74-62.7l4.04-34.95,2.46-10.36s-5.97-13.35-1.93-26.87c4.04-13.52,7.73-12.47,9.13-12.29s4.57,1.58,4.57,1.58c0,0,6.15-10.71,11.77-14.84s8.96,1.49,8.96,1.49c0,0,2.46-4.39,5.44-3.86s4.22,2.81,4.22,2.81c0,0-7.9,12.65-7.03,29.68,.88,17.04,9.48,32.14,10.36,33.19s5.97,9.66,5.97,9.66c0,0-2.99,3.86-5.62,5.97-2.63,2.11-7.2,4.39-8.96,6.5s-15.1,19.32-15.63,37.76c-.53,18.44-13,85.71-25.38,130.49Z"/><path class="l" d="M724.23,83.01s-2.11-3.95-5.27-3.69c-3.16,.26-10.54,10.54-12.91,14.49-2.37,3.95-2.63,11.86-4.74,18.7"/><path class="l" d="M733.71,152.21s-3.16,8.25-10.54,11.59-16.68,21.95-19.49,31.79c-2.81,9.84-11.42,120.48-44.26,179.58,0,0-9.75,16.6-29.77,8.96-20.02-7.64-15.02-49.79-3.42-71.92s37.15-78.51,47.16-119.87l6.06-49.53s5.8-23.71,9.75-37.15c3.95-13.44,10.54-19.23,16.07-23.97,5.53-4.74,9.48,.26,7.2,3.78"/><path class="l" d="M681.55,132.36s-3.51-15.63-1.76-25.64c1.76-10.01,8.61-15.63,12.29-11.24"/></g><path class="n" d="M771.25,158.35l-33.06-1s-46.2-34.99-4.1-90.48l41.28-1.37s-26.24,5.74-27.61,43.46c-1.37,37.72,23.49,49.39,23.49,49.39Z"/><ellipse class="o" cx="775.37" cy="112.25" rx="28.16" ry="46.74"/></g><ellipse class="y" cx="862.49" cy="86.69" rx="6.37" ry="7.43"/><ellipse class="y" cx="876.93" cy="111.75" rx="11.04" ry="12.88"/><ellipse class="y" cx="771.18" cy="94.13" rx="6.37" ry="7.43"/><ellipse class="y" cx="785.2" cy="118.33" rx="11.04" ry="12.88"/></g><g><path d="M560.13,424.45h-37.56s-.04-.02-.04-.04V220.77c0-1.06-.86-1.91-1.91-1.91h-66.74c-.64,0-1.24,.33-1.58,.87l-130.24,205.78c-.19,.3-.29,.65-.29,1v42.04c0,1.06,.86,1.91,1.91,1.91h145.42s.04,.02,.04,.04v55.36c0,1.06,.86,1.91,1.91,1.91h49.57c1.06,0,1.91-.86,1.91-1.91v-55.36s.02-.04,.04-.04h37.56c1.06,0,1.91-.86,1.91-1.91v-42.18c0-1.06-.86-1.91-1.91-1.91Zm-180.89-1.1c-.27-.59-.21-1.26,.12-1.78l87.39-138.48c.35-.56,.96-.89,1.62-.89h1.31s.04,.02,.04,.04v142.16s-.02,.04-.04,.04h-88.62c-.77,0-1.52-.4-1.83-1.1Z"/><path d="M692.38,272.98c9-7.83,19.66-11.74,31.97-11.74s23.83,4.25,33.19,12.75c9.35,8.5,16.59,21.09,21.72,37.79,5.13,16.69,7.69,37.31,7.69,61.85,0,37.11-5.61,65.19-16.82,84.25-11.21,19.06-26.47,28.59-45.78,28.59-12.87,0-23.98-4.25-33.34-12.75-9.35-8.5-16.57-21.14-21.65-37.94-5.08-16.79-7.57-37.51-7.47-62.15l-3.11,3.19c-5.7,8.36-21.47,13.68-36.86,6.65s-13.87-43.89-13.87-43.89c-1.71,14.82-2.73,34.06-2.73,34.06,0,5.18,.11,10.25,.34,15.2,1.24,27.23,5.88,50.95,13.92,71.15,9.5,23.89,23.13,42.14,40.88,54.76,17.75,12.62,39.04,18.93,63.88,18.93s46.13-6.28,63.88-18.86c17.75-12.57,31.38-30.8,40.88-54.68,9.5-23.88,14.25-52.72,14.25-86.51s-4.75-62.25-14.25-85.98c-9.5-23.73-23.15-41.83-40.95-54.3-17.8-12.47-39.07-18.7-63.81-18.7-8.54,0-16.67,.74-24.38,2.23l-7.59,56.12Z"/><path d="M1126.25,424.45h-37.56s-.04-.02-.04-.04V220.77c0-1.06-.86-1.91-1.91-1.91h-66.74c-.64,0-1.24,.33-1.58,.87l-130.24,205.78c-.19,.3-.29,.65-.29,1v42.04c0,1.06,.86,1.91,1.91,1.91h145.42s.04,.02,.04,.04v55.36c0,1.06,.86,1.91,1.91,1.91h49.57c1.06,0,1.91-.86,1.91-1.91v-55.36s.02-.04,.04-.04h37.56c1.06,0,1.91-.86,1.91-1.91v-42.18c0-1.06-.86-1.91-1.91-1.91Zm-180.89-1.1c-.27-.59-.21-1.26,.12-1.78l87.39-138.48c.35-.56,.96-.89,1.62-.89h1.31s.04,.02,.04,.04v142.16s-.02,.04-.04,.04h-88.62c-.77,0-1.52-.4-1.83-1.1Z"/></g><circle class="ab" cx="366.37" cy="306.12" r="12.35"/><g><g><polygon class="e" points="736.13 296.53 819.07 340.99 904.57 295.96 985.8 338.42 1072.16 299.09 1072.16 523.11 989.22 575.27 904.48 530.33 820.11 574.03 736.13 527.29 736.13 296.53"/><polygon class="af" points="819.07 340.99 819.07 574.03 736.13 527.29 736.13 296.53 819.07 340.99"/><polygon class="af" points="985.8 338.42 985.8 573.65 904.48 530.33 904.48 295.86 985.8 338.42"/></g><polygon class="j" points="985.8 338.42 904.48 295.86 904.48 296.01 819.07 340.99 736.13 296.53 736.13 527.29 819.07 574.03 819.07 573.45 820.11 574.03 904.48 530.33 985.8 573.65 985.8 573.46 989.22 575.27 1072.16 523.11 1072.16 299.09 985.8 338.42"/></g><path class="ai" d="M917.58,536.37c.2-38.04-45.21-53.52-79.62-34.91-41.49,22.44-18.73-27.28-56.14-56.49-10.11-7.89-19.98-12.89-29.13-15.95v-.03s-9.86-4.35-25.08-4.22c-15.22-.13-25.08,4.22-25.08,4.22v.03c-9.15,3.05-19.02,8.05-29.13,15.95-37.41,29.21-14.65,78.94-56.14,56.49-34.41-18.61-79.82-3.13-79.62,34.91,.2,38.04-43.73,5.62-62.41,44.21h504.76c-18.68-38.59-62.6-6.17-62.41-44.21Z"/></g></g></g></svg>