<svg width="280" height="571" viewBox="0 0 280 571" fill="none" xmlns="http://www.w3.org/2000/svg">
<path d="M241.02 0H37.31C16.7 0 0 16.7 0 37.31V533.59C0 554.2 16.7 570.9 37.31 570.9H241.02C261.62 570.9 278.32 554.2 278.32 533.59V37.31C278.32 16.7 261.62 0 241.02 0ZM264.07 532.75C264.07 546.41 253 557.48 239.34 557.48H38.14C24.48 557.48 13.41 546.41 13.41 532.75V38.98C13.41 25.32 24.48 14.25 38.14 14.25H239.34C253 14.25 264.07 25.32 264.07 38.98V532.75Z" fill="#0C0C0C"/>
<g filter="url(#filter0_f_2712_94157)">
<path d="M39.8197 2.51953H238.49C258.864 2.51953 275.38 19.0357 275.38 39.4095V531.5C275.38 551.874 258.864 568.39 238.49 568.39H39.8197C19.4459 568.39 2.92969 551.874 2.92969 531.5V39.4095C2.92969 19.0357 19.4459 2.51953 39.8197 2.51953Z" stroke="white" stroke-opacity="0.4" stroke-width="0.42"/>
</g>
<path fill-rule="evenodd" clip-rule="evenodd" d="M36.8902 8.59023C21.3802 8.59023 8.81019 21.1602 8.81019 36.6702V530.02C8.81019 547.96 23.3502 562.5 41.2902 562.5V565.85C21.5002 565.85 5.4502 549.81 5.4502 530.01V36.6802C5.4502 19.3202 19.5202 5.24023 36.8902 5.24023H242.49C261.82 5.24023 277.49 20.9102 277.49 40.2402H274.14C274.14 22.7602 259.97 8.59023 242.49 8.59023H36.8902Z" fill="url(#paint0_linear_2712_94157)"/>
<path fill-rule="evenodd" clip-rule="evenodd" d="M201.2 5.66016H241.44C258.8 5.66016 272.88 19.7302 272.88 37.1002V534.44C272.88 551.8 258.8 565.88 241.44 565.88H37.5201C20.1601 565.88 6.08008 551.81 6.08008 534.44V500.7H9.43008V534.44C9.43008 549.95 22.0001 562.52 37.5101 562.52H241.44C256.95 562.52 269.52 549.95 269.52 534.44V37.1002C269.52 21.5902 256.95 9.02016 241.44 9.02016H201.2V5.67016V5.66016Z" fill="url(#paint1_linear_2712_94157)"/>
<path fill-rule="evenodd" clip-rule="evenodd" d="M201.2 5.66016H241.44C258.8 5.66016 272.88 19.7302 272.88 37.1002V534.44C272.88 551.8 258.8 565.88 241.44 565.88H37.5201C20.1601 565.88 6.08008 551.81 6.08008 534.44V500.7H9.43008V534.44C9.43008 549.95 22.0001 562.52 37.5101 562.52H241.44C256.95 562.52 269.52 549.95 269.52 534.44V37.1002C269.52 21.5902 256.95 9.02016 241.44 9.02016H201.2V5.67016V5.66016Z" fill="url(#paint2_radial_2712_94157)"/>
<path d="M241.86 8.38086H36.4698C21.1898 8.38086 8.7998 20.7709 8.7998 36.0509V534.851C8.7998 550.131 21.1898 562.521 36.4698 562.521H241.86C257.14 562.521 269.52 550.131 269.52 534.851V36.0509C269.52 20.7709 257.14 8.38086 241.86 8.38086ZM264.07 532.751C264.07 546.411 253 557.481 239.34 557.481H38.1398C24.4798 557.481 13.4098 546.411 13.4098 532.751V38.9809C13.4098 25.3209 24.4798 14.2509 38.1398 14.2509H239.34C253 14.2509 264.07 25.3209 264.07 38.9809V532.751Z" fill="black"/>
<path d="M277.485 136.646H278.743C279.437 136.646 280 137.209 280 137.903V175.208C280 175.903 279.437 176.466 278.743 176.466H277.485V136.646Z" fill="#313232"/>
<path d="M277.485 136.646H278.743C279.437 136.646 280 137.209 280 137.903V175.208C280 175.903 279.437 176.466 278.743 176.466H277.485V136.646Z" fill="url(#paint3_linear_2712_94157)"/>
<path d="M277.485 136.646H278.743C279.437 136.646 280 137.209 280 137.903V175.208C280 175.903 279.437 176.466 278.743 176.466H277.485V136.646Z" fill="url(#paint4_linear_2712_94157)"/>
<path d="M277.485 136.646H278.743C279.437 136.646 280 137.209 280 137.903V175.208C280 175.903 279.437 176.466 278.743 176.466H277.485V136.646Z" fill="url(#paint5_radial_2712_94157)"/>
<path d="M277.485 215.029H278.743C279.437 215.029 280 215.592 280 216.286V293.412C280 294.106 279.437 294.669 278.743 294.669H277.485V215.029Z" fill="#070707"/>
<path d="M30.5985 40.24C35.6914 40.24 39.8201 36.1114 39.8201 31.0184C39.8201 25.9255 35.6914 21.7969 30.5985 21.7969C25.5056 21.7969 21.377 25.9255 21.377 31.0184C21.377 36.1114 25.5056 40.24 30.5985 40.24Z" fill="black"/>
<path d="M30.5982 37.7237C34.3021 37.7237 37.3048 34.7211 37.3048 31.0171C37.3048 27.3132 34.3021 24.3105 30.5982 24.3105C26.8942 24.3105 23.8916 27.3132 23.8916 31.0171C23.8916 34.7211 26.8942 37.7237 30.5982 37.7237Z" fill="#0B0B0B"/>
<path d="M30.5986 34.791C32.6821 34.791 34.3711 33.102 34.3711 31.0186C34.3711 28.9351 32.6821 27.2461 30.5986 27.2461C28.5152 27.2461 26.8262 28.9351 26.8262 31.0186C26.8262 33.102 28.5152 34.791 30.5986 34.791Z" fill="#020202"/>
<path d="M30.5989 33.5338C29.2099 33.5338 29.3414 31.0188 30.5989 31.0188C32.0659 31.0188 32.0659 28.5039 30.5989 28.5039V33.5338ZM30.5989 33.3242C30.3248 33.3242 30.1351 33.2045 30.0083 33.0215C29.8762 32.8308 29.8086 32.5633 29.8159 32.2818C29.8233 32.0007 29.905 31.7288 30.0439 31.5332C30.1795 31.3422 30.3643 31.2284 30.5989 31.2284C31.033 31.2284 31.3681 31.0392 31.5895 30.7545C31.8065 30.4755 31.9087 30.1134 31.9087 29.7614C31.9087 29.5069 31.8553 29.2472 31.7438 29.0174C32.4372 29.4149 32.9042 30.1623 32.9042 31.0188C32.9042 32.2921 31.8721 33.3242 30.5989 33.3242ZM30.5989 28.7134C30.8982 28.7134 31.1133 28.8386 31.2586 29.0255C31.4084 29.218 31.4896 29.4847 31.4896 29.7614C31.4896 30.038 31.4084 30.3047 31.2586 30.4972C31.1133 30.6841 30.8982 30.8093 30.5989 30.8093C30.2047 30.8093 29.9015 31.0098 29.7022 31.2904C29.5062 31.5664 29.406 31.9232 29.3969 32.2708C29.3897 32.5461 29.4393 32.8302 29.5572 33.076C28.8073 32.6956 28.2935 31.9172 28.2935 31.0188C28.2935 29.7456 29.3256 28.7134 30.5989 28.7134Z" fill="url(#paint6_radial_2712_94157)" fill-opacity="0.5"/>
<path d="M30.5989 33.5338C29.2099 33.5338 29.3414 31.0188 30.5989 31.0188C32.0659 31.0188 32.0659 28.5039 30.5989 28.5039V33.5338ZM30.5989 33.3242C30.3248 33.3242 30.1351 33.2045 30.0083 33.0215C29.8762 32.8308 29.8086 32.5633 29.8159 32.2818C29.8233 32.0007 29.905 31.7288 30.0439 31.5332C30.1795 31.3422 30.3643 31.2284 30.5989 31.2284C31.033 31.2284 31.3681 31.0392 31.5895 30.7545C31.8065 30.4755 31.9087 30.1134 31.9087 29.7614C31.9087 29.5069 31.8553 29.2472 31.7438 29.0174C32.4372 29.4149 32.9042 30.1623 32.9042 31.0188C32.9042 32.2921 31.8721 33.3242 30.5989 33.3242ZM30.5989 28.7134C30.8982 28.7134 31.1133 28.8386 31.2586 29.0255C31.4084 29.218 31.4896 29.4847 31.4896 29.7614C31.4896 30.038 31.4084 30.3047 31.2586 30.4972C31.1133 30.6841 30.8982 30.8093 30.5989 30.8093C30.2047 30.8093 29.9015 31.0098 29.7022 31.2904C29.5062 31.5664 29.406 31.9232 29.3969 32.2708C29.3897 32.5461 29.4393 32.8302 29.5572 33.076C28.8073 32.6956 28.2935 31.9172 28.2935 31.0188C28.2935 29.7456 29.3256 28.7134 30.5989 28.7134Z" fill="url(#paint7_radial_2712_94157)"/>
<path d="M30.5989 33.5338C29.2099 33.5338 29.3414 31.0188 30.5989 31.0188C32.0659 31.0188 32.0659 28.5039 30.5989 28.5039V33.5338ZM30.5989 33.3242C30.3248 33.3242 30.1351 33.2045 30.0083 33.0215C29.8762 32.8308 29.8086 32.5633 29.8159 32.2818C29.8233 32.0007 29.905 31.7288 30.0439 31.5332C30.1795 31.3422 30.3643 31.2284 30.5989 31.2284C31.033 31.2284 31.3681 31.0392 31.5895 30.7545C31.8065 30.4755 31.9087 30.1134 31.9087 29.7614C31.9087 29.5069 31.8553 29.2472 31.7438 29.0174C32.4372 29.4149 32.9042 30.1623 32.9042 31.0188C32.9042 32.2921 31.8721 33.3242 30.5989 33.3242ZM30.5989 28.7134C30.8982 28.7134 31.1133 28.8386 31.2586 29.0255C31.4084 29.218 31.4896 29.4847 31.4896 29.7614C31.4896 30.038 31.4084 30.3047 31.2586 30.4972C31.1133 30.6841 30.8982 30.8093 30.5989 30.8093C30.2047 30.8093 29.9015 31.0098 29.7022 31.2904C29.5062 31.5664 29.406 31.9232 29.3969 32.2708C29.3897 32.5461 29.4393 32.8302 29.5572 33.076C28.8073 32.6956 28.2935 31.9172 28.2935 31.0188C28.2935 29.7456 29.3256 28.7134 30.5989 28.7134Z" fill="url(#paint8_radial_2712_94157)"/>
<path d="M30.5989 33.5338C29.2099 33.5338 29.3414 31.0188 30.5989 31.0188C32.0659 31.0188 32.0659 28.5039 30.5989 28.5039V33.5338ZM30.5989 33.3242C30.3248 33.3242 30.1351 33.2045 30.0083 33.0215C29.8762 32.8308 29.8086 32.5633 29.8159 32.2818C29.8233 32.0007 29.905 31.7288 30.0439 31.5332C30.1795 31.3422 30.3643 31.2284 30.5989 31.2284C31.033 31.2284 31.3681 31.0392 31.5895 30.7545C31.8065 30.4755 31.9087 30.1134 31.9087 29.7614C31.9087 29.5069 31.8553 29.2472 31.7438 29.0174C32.4372 29.4149 32.9042 30.1623 32.9042 31.0188C32.9042 32.2921 31.8721 33.3242 30.5989 33.3242ZM30.5989 28.7134C30.8982 28.7134 31.1133 28.8386 31.2586 29.0255C31.4084 29.218 31.4896 29.4847 31.4896 29.7614C31.4896 30.038 31.4084 30.3047 31.2586 30.4972C31.1133 30.6841 30.8982 30.8093 30.5989 30.8093C30.2047 30.8093 29.9015 31.0098 29.7022 31.2904C29.5062 31.5664 29.406 31.9232 29.3969 32.2708C29.3897 32.5461 29.4393 32.8302 29.5572 33.076C28.8073 32.6956 28.2935 31.9172 28.2935 31.0188C28.2935 29.7456 29.3256 28.7134 30.5989 28.7134Z" stroke="#020202" stroke-width="0.419162"/>
<defs>
<filter id="filter0_f_2712_94157" x="1.87973" y="1.46859" width="274.55" height="567.971" filterUnits="userSpaceOnUse" color-interpolation-filters="sRGB">
<feFlood flood-opacity="0" result="BackgroundImageFix"/>
<feBlend mode="normal" in="SourceGraphic" in2="BackgroundImageFix" result="shape"/>
<feGaussianBlur stdDeviation="0.42" result="effect1_foregroundBlur_2712_94157"/>
</filter>
<linearGradient id="paint0_linear_2712_94157" x1="11.4702" y1="225.88" x2="135.96" y2="282.88" gradientUnits="userSpaceOnUse">
<stop stop-color="white" stop-opacity="0.54"/>
<stop offset="0.95" stop-color="white" stop-opacity="0"/>
</linearGradient>
<linearGradient id="paint1_linear_2712_94157" x1="252.14" y1="338.74" x2="129.12" y2="280.89" gradientUnits="userSpaceOnUse">
<stop stop-color="white" stop-opacity="0.54"/>
<stop offset="1" stop-color="white" stop-opacity="0"/>
</linearGradient>
<radialGradient id="paint2_radial_2712_94157" cx="0" cy="0" r="1" gradientUnits="userSpaceOnUse" gradientTransform="translate(272.498 554.981) rotate(-133.78) scale(152.68 72.23)">
<stop/>
<stop offset="1" stop-opacity="0"/>
</radialGradient>
<linearGradient id="paint3_linear_2712_94157" x1="277.485" y1="157.184" x2="280" y2="157.184" gradientUnits="userSpaceOnUse">
<stop stop-color="#313131"/>
<stop offset="0.630208" stop-color="#717174"/>
<stop offset="1" stop-color="#444445"/>
</linearGradient>
<linearGradient id="paint4_linear_2712_94157" x1="278.743" y1="136.646" x2="278.743" y2="176.466" gradientUnits="userSpaceOnUse">
<stop stop-color="#343434"/>
<stop offset="0.140406" stop-color="#353535" stop-opacity="0"/>
<stop offset="0.885417" stop-color="#494949" stop-opacity="0.525253"/>
<stop offset="1" stop-color="#1B1B1B"/>
</linearGradient>
<radialGradient id="paint5_radial_2712_94157" cx="0" cy="0" r="1" gradientUnits="userSpaceOnUse" gradientTransform="translate(278.114 138.741) rotate(90) scale(1.46707)">
<stop stop-color="white"/>
<stop offset="0.757464" stop-color="white" stop-opacity="0.35"/>
<stop offset="1" stop-color="white" stop-opacity="0"/>
</radialGradient>
<radialGradient id="paint6_radial_2712_94157" cx="0" cy="0" r="1" gradientUnits="userSpaceOnUse" gradientTransform="translate(30.5989 31.0188) rotate(90) scale(2.51497)">
<stop stop-color="#8EA1B9" stop-opacity="0"/>
<stop offset="0.395833" stop-color="#96A7BF" stop-opacity="0"/>
<stop offset="1" stop-color="#9BABC3"/>
</radialGradient>
<radialGradient id="paint7_radial_2712_94157" cx="0" cy="0" r="1" gradientUnits="userSpaceOnUse" gradientTransform="translate(30.5989 29.9709) rotate(141.34) scale(1.34197)">
<stop stop-color="#8EA1B9"/>
<stop offset="1" stop-color="#90A2BA" stop-opacity="0"/>
</radialGradient>
<radialGradient id="paint8_radial_2712_94157" cx="0" cy="0" r="1" gradientUnits="userSpaceOnUse" gradientTransform="translate(31.8563 32.4859) rotate(-140.194) scale(1.63688)">
<stop stop-color="#A8CEFE"/>
<stop offset="1" stop-color="#90A2BA" stop-opacity="0"/>
</radialGradient>
</defs>
</svg>
