<svg width="1088" height="546" viewBox="0 0 1088 546" fill="none" xmlns="http://www.w3.org/2000/svg">
<path d="M727.892 602.76C488.942 629.347 237.611 613.343 12.8422 557.202C2.89483 554.75 -7.05259 552.04 -17 549.136V668H1126V515C1002.4 557.332 867.473 587.338 727.892 602.89V602.76Z" fill="#9E5733"/>
<path d="M727.203 602.684C866.57 587.193 1001.49 557.18 1125 514.775V473.145H-17V548.983C-7.16611 551.952 2.87926 554.599 12.8189 557.051C237.412 613.204 488.546 629.211 727.309 602.619L727.203 602.684Z" fill="#C57749"/>
<path d="M600.649 472.14C608.763 464.476 611.338 468.276 622.093 465.313C627.631 463.768 632.783 464.476 637.419 460.999C640.06 459.002 641.09 455.589 643.859 453.851C646.628 452.112 647.272 446.509 649.462 448.892C642.958 434.467 655.322 444.191 654.42 433.179C658.155 440.005 658.477 428.156 663.5 434.145C664.08 434.853 664.917 438.009 665.883 438.009C666.72 438.009 676.058 440.714 676.637 440.134C682.884 434.274 684.365 428.478 690.612 422.554C694.669 418.754 699.305 407.935 702.074 403.105C704.522 398.92 706.325 386.555 707.677 381.919C714.246 358.542 713.795 332.783 720.363 309.407C723.004 300.134 726.352 291.827 730.796 283.262C734.338 276.436 745.221 267.356 750.695 262.011C741.228 262.011 724.292 270.318 720.235 277.659C711.283 294.081 709.995 304.384 694.604 318.809C679.213 333.234 664.466 347.981 661.89 354.421C659.315 360.861 651.007 378.184 644.568 383.979C638.128 389.711 590.087 430.088 581.716 436.528C573.408 442.967 534.126 472.848 534.126 472.848H579.526C581.78 470.401 598.266 474.393 600.713 472.14H600.649Z" fill="#FFF5CB"/>
<path d="M759.903 262.268C759.903 262.268 750.566 262.01 740.649 264.457C735.175 269.802 730.538 275.984 726.996 282.81C722.553 291.375 719.913 300.777 717.272 310.05C710.704 333.427 704.135 356.739 697.502 380.115C696.214 384.751 694.862 389.452 692.479 393.638C689.71 398.468 685.589 402.396 681.467 406.196C675.221 412.056 668.974 417.981 662.728 423.841C662.084 424.42 661.375 425.064 660.538 425.064C659.572 425.064 658.864 424.292 658.284 423.583C653.261 417.594 648.818 411.154 645.083 404.328C645.984 415.34 641.219 422.939 647.723 437.364C645.469 434.981 641.477 435.432 638.707 437.235C635.938 438.974 633.942 441.679 631.302 443.675C626.73 447.153 620.741 448.054 615.202 449.6C604.448 452.562 594.466 458.229 586.352 465.828C583.97 468.082 581.716 470.529 579.397 472.976H636.711C636.711 472.976 678.376 444.319 690.547 430.86C702.719 417.401 709.802 410.06 716.178 402.783C722.617 395.57 737.3 376.315 759.775 350.685C782.249 325.055 789.269 261.881 759.775 262.332L759.903 262.268Z" fill="#CCC2A3"/>
<path d="M759.904 262.269C759.904 262.269 729.122 261.303 720.171 277.724C711.22 294.145 709.932 304.449 694.541 318.874C679.15 333.299 664.403 348.046 661.827 354.486C659.251 360.925 650.944 378.248 644.504 384.044C638.064 389.84 590.024 430.153 581.652 436.592C573.345 443.032 534.062 472.913 534.062 472.913H636.776C636.776 472.913 678.442 444.256 690.613 430.797C702.784 417.338 709.867 409.996 716.243 402.719C722.683 395.507 737.365 376.252 759.84 350.622C782.315 324.992 789.334 261.818 759.84 262.269H759.904Z" stroke="#BFB177" stroke-width="5" stroke-linecap="round" stroke-linejoin="round"/>
<path d="M657.899 360.088C653.391 370.005 649.978 380.437 647.853 391.192C647.66 392.029 648.111 392.93 648.948 393.188C649.721 393.381 650.751 392.93 650.944 392.093C653.005 381.661 656.289 371.486 660.668 361.762C661.054 360.989 660.926 360.023 660.088 359.572C659.251 359.122 658.221 359.379 657.899 360.152V360.088Z" fill="#BFB177"/>
<path d="M643.539 403.62C647.274 412.7 652.361 421.136 658.736 428.67C659.316 429.314 660.411 429.25 660.99 428.67C661.634 428.027 661.57 427.061 660.99 426.417C655.001 419.333 650.107 411.348 646.63 402.783C646.308 402.01 645.535 401.43 644.633 401.688C643.732 401.946 643.152 402.847 643.539 403.684V403.62Z" fill="#BFB177"/>
<path d="M648.369 429.315C646.115 425.902 645.149 421.974 645.471 417.917C645.535 417.079 644.698 416.307 643.861 416.307C643.024 416.307 642.315 417.015 642.251 417.917C641.864 422.489 643.088 427.125 645.599 430.989C646.05 431.698 647.016 432.02 647.789 431.569C648.562 431.118 648.819 430.088 648.369 429.379V429.315Z" fill="#BFB177"/>
<path d="M844.136 186.988C842.977 185.507 841.625 184.09 840.144 182.866C840.144 182.866 840.079 182.866 840.015 182.866C830.162 182.866 820.631 184.541 812.066 187.825C815.866 190.658 819.021 194.522 821.018 198.772C825.783 208.883 825.719 220.539 825.525 231.679C824.817 276.951 824.109 322.222 823.4 367.494C829.905 368.395 837.246 366.785 844.523 363.823C848.065 358.414 850.576 352.231 851.671 345.792C852.508 340.962 852.572 336.003 852.637 331.109C853.023 297.816 853.474 264.522 853.86 231.164C854.054 215.709 853.86 198.901 844.136 186.859V186.988Z" fill="#A2A6C0"/>
<path d="M821.018 198.836C819.022 194.586 815.866 190.722 812.067 187.889C792.104 195.488 777.292 211.651 774.588 234.641C770.724 267.548 772.462 298.781 772.462 298.781C772.462 298.781 786.565 328.275 808.718 358.606C812.711 364.08 817.798 366.785 823.401 367.558C824.109 322.286 824.818 277.015 825.526 231.743C825.719 220.538 825.783 208.947 821.018 198.836Z" fill="#C9CFF0"/>
<path d="M893.851 246.554C894.173 113.831 872.922 182.93 840.079 182.865C841.56 184.089 842.913 185.506 844.072 186.987C853.731 199.029 853.989 215.837 853.796 231.292C853.409 264.586 852.959 297.879 852.572 331.237C852.572 336.131 852.443 341.09 851.606 345.92C850.512 352.359 848.064 358.477 844.458 363.951C866.031 355.193 887.411 334.714 887.411 334.714C887.411 334.714 893.722 288.541 893.851 246.619V246.554Z" fill="#4270A3"/>
<path d="M833.318 185.183C838.921 184.668 843.171 189.111 845.875 193.555C848.902 198.513 850.512 204.373 851.736 209.976C852.959 215.579 852.83 215.901 853.088 218.863C853.346 221.632 853.346 224.465 853.346 227.235C853.41 233.417 853.474 239.534 853.474 245.717C853.474 259.111 853.346 272.506 853.152 285.901C852.895 299.553 852.573 313.205 852.058 326.857C851.8 332.975 851.8 339.157 851.027 345.275C850.448 350.234 849.16 355.707 845.811 359.636C844.974 360.602 844.072 361.503 843.042 362.212C842.012 362.92 842.012 363.628 842.462 364.401C842.849 365.109 843.944 365.496 844.652 364.981C854.634 357.897 854.569 344.116 855.02 333.104C855.599 319.13 855.986 305.091 856.243 291.052C856.501 277.143 856.694 263.233 856.694 249.258C856.694 242.819 856.694 236.379 856.63 229.939C856.63 226.977 856.63 224.079 856.501 221.117C856.372 218.026 855.986 214.935 855.471 211.908C854.44 205.919 852.83 199.866 850.126 194.392C847.614 189.176 843.364 183.766 837.504 182.221C831.644 180.675 834.735 181.706 833.382 181.834C832.545 181.899 831.772 182.543 831.772 183.444C831.772 184.346 832.481 185.119 833.382 185.054L833.318 185.183Z" fill="#2D5A84"/>
<path d="M820.696 186.343C824.431 188.983 827.393 192.396 829.518 196.453C831.772 200.897 832.996 205.855 833.704 210.749C834.413 215.644 834.541 222.856 834.413 228.909C834.219 235.285 834.026 241.596 833.833 247.971C833.511 260.722 833.318 273.472 833.189 286.223C833.06 298.909 832.931 311.531 832.738 324.218C832.545 336.968 832.352 349.783 831.901 362.534C831.901 364.08 831.772 365.69 831.772 367.235C831.772 368.781 834.928 369.296 834.992 367.235C835.443 354.291 835.701 341.283 835.894 328.339C836.087 315.524 836.216 302.644 836.344 289.829C836.473 276.886 836.666 264.006 836.988 251.062C837.117 244.622 837.31 238.183 837.568 231.743C837.761 225.496 837.89 219.185 837.246 212.939C836.151 203.022 833.189 192.718 825.461 185.956C817.734 179.195 823.465 184.346 822.435 183.574C821.404 182.801 820.632 183.445 820.245 184.153C819.794 184.926 820.116 185.828 820.825 186.343H820.696Z" fill="#7D86A7"/>
<path d="M803.889 193.232C805.756 194.198 807.366 195.358 808.654 196.967C809.942 198.449 810.844 200.252 811.681 202.055C813.742 206.756 814.965 211.843 815.545 216.931C816.189 222.791 816.446 228.715 816.704 234.64C816.962 240.693 817.09 246.682 817.155 252.736C817.284 264.842 817.026 276.949 816.704 289.12C816.382 301.227 815.996 313.398 815.738 325.505C815.48 337.611 815.738 337.354 815.352 343.278C815.03 348.623 814.257 353.904 813.098 359.056C812.776 360.473 812.454 361.889 812.067 363.306C811.552 365.302 814.643 366.139 815.158 364.143C816.575 358.669 817.605 353.131 818.185 347.529C818.765 341.733 818.765 335.937 818.829 330.141C819.022 317.777 819.409 305.413 819.795 293.113C820.117 280.748 820.439 268.449 820.375 256.084C820.375 243.913 820.117 231.613 818.958 219.442C818.443 213.84 817.477 208.366 815.416 203.085C813.87 199.028 811.874 195.1 808.332 192.395C804.79 189.691 806.465 191.107 805.434 190.592C803.567 189.626 801.957 192.395 803.824 193.361L803.889 193.232Z" fill="#7D86A7"/>
<path d="M787.338 204.696C793.327 209.913 795.13 218.349 796.418 225.819C798.028 234.963 798.35 244.301 798.35 253.574C798.35 262.912 797.964 272.314 797.706 281.651C797.448 291.311 797.126 300.906 796.869 310.566L795.967 342.765C795.967 344.825 799.123 344.825 799.187 342.765C799.767 323.381 800.282 303.933 800.862 284.549C801.119 274.954 801.505 265.359 801.57 255.764C801.634 246.297 801.312 236.831 799.896 227.429C798.608 218.671 796.611 208.496 789.592 202.378C788.948 201.799 787.982 201.734 787.338 202.378C786.758 202.958 786.694 204.052 787.338 204.632V204.696Z" fill="#7D86A7"/>
<path d="M777.163 224.08C781.349 226.463 781.606 231.357 781.735 235.672C781.928 242.047 782.315 248.487 782.508 254.862C782.958 268.45 783.023 282.102 782.83 295.754C782.701 303.418 782.508 311.145 782.186 318.809C782.121 320.869 785.341 320.869 785.406 318.809C785.985 304.834 786.178 290.796 786.114 276.821C786.114 269.867 785.921 262.912 785.728 256.021C785.534 249.388 785.148 242.691 784.955 236.058C784.89 233.289 784.762 230.391 783.924 227.751C783.023 224.982 781.284 222.728 778.773 221.311C776.261 219.894 775.36 223.05 777.163 224.08Z" fill="#7D86A7"/>
<path d="M772.462 298.716C772.462 298.716 770.724 267.483 774.588 234.576C778.451 201.669 807.108 182.865 840.015 182.865C872.922 182.865 897.329 129.351 893.852 246.554C892.628 288.412 887.412 334.65 887.412 334.65C887.412 334.65 830.806 388.937 808.654 358.605C786.501 328.274 772.398 298.78 772.398 298.78L772.462 298.716Z" stroke="#2D5A84" stroke-width="5" stroke-linecap="round" stroke-linejoin="round"/>
<path d="M870.089 324.024C856.244 332.846 829.133 347.658 815.287 356.48C812.582 358.219 812.196 357.639 809.041 357.832C806.207 357.961 804.34 351.328 801.828 349.976C791.782 344.631 783.797 327.308 777.937 317.584C767.762 350.555 756.621 405.229 750.568 439.166C749.28 446.443 747.67 464.732 744.257 471.236H826.75C825.011 461.705 826.557 441.356 826.299 431.632C825.269 394.539 839.629 345.275 870.089 324.088V324.024Z" fill="#4C4C4C"/>
<path d="M893.852 377.409L877.881 305.542L811.809 362.147L772.269 291.117C772.269 291.117 772.14 266.646 759.583 318.872C747.025 371.098 733.566 471.236 733.566 471.236H744.192C747.605 464.797 749.215 446.508 750.503 439.166C756.556 405.229 764.67 371.613 774.91 338.706C780.77 348.43 789.399 356.544 799.445 361.889C801.956 363.242 804.726 364.401 807.559 364.272C810.715 364.143 813.612 362.34 816.253 360.666C830.098 351.843 843.879 343.021 857.725 334.199C827.265 355.385 813.999 394.99 815.029 432.018C815.287 441.742 816.382 461.705 818.12 471.236H878.525L893.787 377.409H893.852Z" fill="#3C3C3C"/>
<path d="M772.397 291.053C772.397 291.053 772.268 266.582 759.711 318.808C747.153 371.035 733.694 471.173 733.694 471.173H878.653L893.915 377.346L877.945 305.478L811.873 362.084L772.333 291.053H772.397Z" stroke="#1D1D1B" stroke-width="5" stroke-linecap="round" stroke-linejoin="round"/>
<path d="M756.554 262.074C750.501 268.965 751.982 269.287 751.209 278.431C750.823 282.81 748.762 300.713 749.664 305.027C753.013 320.354 750.05 320.354 746.315 335.616C741.357 355.708 745.607 343.215 744.255 363.822C738.394 344.696 728.799 342.764 726.223 322.93C723.454 341.927 718.045 386.876 721.651 405.745C722.81 411.669 716.692 416.564 717.079 422.617C717.852 435.561 705.101 459.066 702.074 471.881L746.83 472.847C746.83 452.304 755.266 412.12 764.862 378.054C776.518 336.775 771.945 332.589 770.013 299.682C768.082 266.775 773.877 262.203 773.877 262.203C775.23 260.013 776.389 258.146 777.484 256.407C775.23 258.983 758.873 259.434 756.619 262.01L756.554 262.074Z" fill="#CCC4A2"/>
<path d="M785.083 244.622L785.341 244.494C785.341 244.494 785.534 244.107 785.083 244.622Z" fill="#FFF5CB"/>
<path d="M730.796 421.586C730.41 415.533 728.993 409.673 727.834 403.748C724.228 384.88 723.841 365.432 726.61 346.499C729.186 366.333 733.372 385.975 739.232 405.101C740.585 384.493 756.684 367.75 761.643 347.658C765.378 332.396 762.48 316.361 759.131 300.97C758.165 296.655 757.199 292.276 757.586 287.833C758.358 278.753 764.669 271.154 770.723 264.328C772.976 261.752 775.23 259.176 777.484 256.665C782.765 248.293 784.568 245.588 785.148 244.815L760.805 259.627C736.077 269.415 718.11 318.744 716.178 336.775C714.246 354.871 720.042 363.564 715.534 384.171C711.026 404.714 690.483 473.04 690.483 473.04H717.788C720.815 460.225 731.569 434.53 730.796 421.586Z" fill="#FFF5CB"/>
<path d="M760.741 259.434C736.012 269.222 718.045 318.55 716.114 336.582C714.182 354.677 719.977 363.371 715.47 383.978C710.962 404.521 690.419 472.847 690.419 472.847H746.831C746.831 452.304 755.267 412.12 764.862 378.054C776.518 336.775 771.946 332.589 770.014 299.682C768.082 266.775 773.878 262.203 773.878 262.203C786.693 241.531 785.405 244.429 785.405 244.429C785.405 244.429 761.063 254.539 752.047 269.222C743.096 283.84 744.964 287.318 750.115 299.682C755.267 312.046 762.93 311.145 746.252 323.509C729.573 335.809 726.997 345.855 726.997 345.855C726.997 345.855 736.656 397.824 741.1 414.309C745.543 430.795 746.123 469.627 746.123 469.627" stroke="#BFB177" stroke-width="5" stroke-linecap="round" stroke-linejoin="round"/>
<path d="M809.555 358.864C810.264 373.997 806.271 388.873 801.57 403.105C796.547 418.11 790.494 432.792 785.921 447.99C783.474 456.104 781.542 464.347 780.705 472.783C779.868 481.219 781.478 474.393 782.315 474.393C783.152 474.393 783.861 473.62 783.925 472.783C785.471 457.585 790.687 442.903 795.839 428.606C801.184 413.859 807.044 399.112 810.392 383.721C812.196 375.543 813.226 367.171 812.84 358.8C812.453 350.428 809.491 356.739 809.62 358.8L809.555 358.864Z" fill="#1D1D1B"/>
<path d="M880.779 442.259C883.999 440.262 887.348 438.459 890.245 436.012C902.932 425.386 904.735 404.522 919.16 396.536C921.8 395.055 924.698 394.154 927.274 392.608C936.418 387.07 939.188 375.414 942.214 365.175C946.078 352.231 951.681 339.609 960.439 329.37C966.041 322.801 973.061 317.263 980.853 313.657C980.337 310.63 979.436 307.926 978.084 305.607C966.106 285.515 905.572 267.806 897.844 266.389C890.181 264.973 872.214 290.152 867.9 310.244C867.9 310.244 870.475 342.056 861.911 358.671C853.346 375.221 842.656 399.628 839.243 414.117C835.83 428.671 836.28 471.302 836.28 471.302C836.28 471.302 841.754 471.559 850.126 471.946C859.013 460.612 868.544 449.986 880.65 442.323L880.779 442.259Z" fill="#FFF5CB"/>
<path d="M960.567 329.305C951.809 339.544 946.142 352.166 942.342 365.11C939.316 375.349 936.547 387.005 927.402 392.543C924.826 394.089 921.928 395.055 919.288 396.471C904.863 404.457 902.996 425.321 890.374 435.947C887.476 438.394 884.063 440.197 880.907 442.193C868.8 449.857 859.27 460.482 850.383 471.816C877.172 472.975 933.455 474.972 933.455 471.172C933.455 467.373 946.721 431.439 956.51 402.653C965.203 377.216 984.909 336.582 981.11 313.592C973.253 317.198 966.298 322.736 960.696 329.305H960.567Z" fill="#CCC4A3"/>
<path d="M871.312 314.237C871.312 314.237 870.603 342.056 862.039 358.607C853.474 375.157 842.784 399.563 839.371 414.053C835.958 428.606 836.408 471.238 836.408 471.238C836.408 471.238 933.326 476.261 933.326 471.238C933.326 466.215 946.592 431.504 956.381 402.719C966.234 373.933 990.125 325.635 978.212 305.543C966.234 285.451 905.7 267.742 897.972 266.325C890.309 264.908 875.626 294.145 871.312 314.237V314.237Z" stroke="#BFB177" stroke-width="5" stroke-linecap="round" stroke-linejoin="round"/>
<path d="M841.497 472.075C849.998 453.85 859.657 436.141 870.798 419.398C876.336 411.09 882.196 403.041 888.443 395.248C891.598 391.32 894.883 387.392 898.231 383.593C899.906 381.661 901.902 379.793 901.516 377.024C901.387 375.736 900.936 374.512 900.614 373.289L899.455 368.974L889.151 330.787L888.443 332.59L902.61 322.737C907.247 319.517 911.948 316.362 916.52 313.077C921.092 309.793 919.998 310.244 920.384 307.99C920.835 305.285 919.611 302.387 918.774 299.876C917.164 294.788 915.361 289.83 913.3 284.871C910.982 279.269 908.342 273.731 905.444 268.386C904.478 266.582 901.709 268.192 902.675 269.995C907.505 278.882 911.562 288.22 914.781 297.815C915.619 300.262 916.456 302.709 917.035 305.156C917.293 306.122 917.422 307.153 916.971 308.119C916.52 309.02 915.683 309.664 914.91 310.244C910.724 313.335 906.281 316.233 902.031 319.26L886.897 329.821C886.318 330.207 885.931 330.915 886.189 331.624L895.269 365.11L897.459 373.289C897.781 374.577 898.36 375.929 898.489 377.282C898.618 378.505 897.781 379.342 897.008 380.115C893.659 383.915 890.439 387.714 887.284 391.642C874.919 406.904 863.843 423.261 854.183 440.391C848.645 450.179 843.558 460.161 838.857 470.336C834.156 480.511 838.664 472.075 839.436 472.525C840.209 472.976 841.24 472.719 841.626 471.946L841.497 472.075Z" fill="#BFB177"/>
<path d="M771.946 269.803C771.946 269.803 796.739 326.73 811.873 362.149C811.873 362.149 859.334 314.43 892.691 266.325C892.691 266.325 886.896 308.828 883.74 333.105L856.178 326.923L811.937 362.084C811.937 362.084 790.75 328.984 783.087 328.855C775.424 328.726 768.34 338.386 768.34 338.386C768.34 338.386 766.279 287.705 772.011 269.738L771.946 269.803Z" fill="#4C4C4C"/>
<path d="M771.946 269.803C771.946 269.803 796.739 326.73 811.873 362.149C811.873 362.149 859.334 314.43 892.691 266.325C892.691 266.325 886.896 308.828 883.74 333.105L856.178 326.923L811.937 362.084C811.937 362.084 790.75 328.984 783.087 328.855C775.424 328.726 768.34 338.386 768.34 338.386C768.34 338.386 766.279 287.705 772.011 269.738L771.946 269.803Z" stroke="#1D1D1B" stroke-width="5" stroke-linecap="round" stroke-linejoin="round"/>
<path d="M885.415 393.639C885.415 393.639 904.091 404.586 918.001 392.415C931.91 380.244 931.009 350.75 931.009 350.75C931.009 350.75 881.036 389.839 885.351 393.574L885.415 393.639Z" fill="#393939"/>
<path d="M-19.4609 525.145H1125.46C1128.85 525.145 1128.85 522.145 1125.46 522.145H-19.4609C-22.8464 522.145 -22.8464 525.145 -19.4609 525.145Z" fill="#7F533D"/>
<path d="M1125 473.145H-17V668.145H1125V473.145Z" stroke="#7F533D" stroke-width="5" stroke-linecap="round" stroke-linejoin="round"/>
<g style="mix-blend-mode:multiply" opacity="0.1">
<path d="M570.19 471.044C573.732 471.431 577.209 471.946 580.815 472.139C584.422 472.332 588.221 472.139 591.312 471.237C591.634 471.109 592.021 471.044 592.149 470.851C591.699 470.722 591.119 470.722 590.604 470.658C587.513 470.529 584.357 470.98 581.266 470.851C580.171 470.851 579.141 470.658 578.111 470.529C577.08 470.4 576.05 470.207 575.084 470.014C573.989 469.756 573.023 469.37 571.929 469.112C570.705 468.855 567.356 468.533 567.228 469.563C567.228 469.885 567.743 470.143 568 470.4C568.515 470.851 569.095 470.98 570.125 471.109L570.19 471.044Z" fill="#893D18"/>
</g>
<path d="M900.357 348.819C899.97 358.285 901.709 331.238 902.353 340.64C902.417 341.735 905.895 340.64 906.474 341.671C906.99 342.636 908.6 343.796 909.694 343.538C910.403 343.345 915.426 345.921 915.941 345.406C920.706 340.318 927.146 337.549 930.366 331.431C932.298 327.761 936.29 312.112 934.745 308.248C933.199 304.449 936.741 306.51 933.199 304.449C929.657 302.388 924.828 300.199 925.214 296.077C925.278 295.047 927.79 285.387 927.404 284.421C926.888 283.133 920.835 278.625 919.483 278.303C913.751 277.016 912.721 276.05 906.99 274.762C905.637 274.44 897.91 274.375 897.008 273.28C894.947 270.962 895.334 263.106 897.33 260.723C894.432 261.56 884.193 260.594 881.166 260.723C878.461 260.787 875.886 270.705 874.276 272.894C872.73 275.084 871.313 277.531 868.931 278.883C872.537 284.164 872.086 294.596 870.798 300.843C875.435 299.49 875.37 306.123 880.007 304.771C882.197 304.127 884.45 304.127 885.996 305.801C887.477 307.347 886.769 301.937 885.996 303.934C882.454 313.4 879.685 309.15 875.306 318.294C872.923 323.253 876.658 335.617 876.079 341.027C876.208 341.284 876.336 341.542 876.465 341.799C876.98 342.894 877.496 344.053 877.946 345.212C878.333 342.958 878.912 340.705 879.749 338.515C885.352 324.476 893.337 362.342 900.357 348.947V348.819Z" fill="#4270A3"/>
<path d="M940.218 298.202C940.218 298.202 943.181 285.774 943.245 282.618C943.245 279.398 932.748 276.05 932.748 276.05C934.423 265.875 925.858 260.981 925.858 260.981C922.058 251.128 916.005 251.45 898.038 246.813C880.007 242.177 873.76 244.366 873.76 244.366C871.699 242.692 868.93 237.798 863.521 241.211C858.112 244.624 861.782 271.155 861.782 271.155C861.782 271.155 862.104 272.572 865.517 286.353C868.673 299.104 866.676 317.586 865.26 332.784C866.032 335.295 869.703 348.432 870.798 350.815C871.764 353.069 872.601 352.425 873.438 351.652C872.923 352.811 872.601 353.713 872.537 354.228C873.889 357.448 878.139 363.179 879.556 366.399C881.552 370.843 884.321 366.206 887.09 370.263C888.7 372.581 891.147 380.052 893.208 382.048C899.841 388.488 910.724 394.09 919.676 396.344C924.248 397.503 929.4 398.276 933.457 400.723C935.839 402.204 937.385 393.897 938.802 396.344C946.916 384.366 937.642 369.748 933.779 361.312C929.078 351.008 926.051 343.989 926.051 343.989C938.93 330.144 945.434 313.271 946.143 309.343C946.851 305.415 940.218 298.267 940.218 298.267V298.202ZM925.858 318.101C922.638 324.283 918.581 330.015 913.815 335.102C913.3 335.617 912.785 336.197 912.077 336.39C910.982 336.648 909.887 335.939 909.308 334.909C908.792 333.943 908.664 332.784 908.599 331.689C907.955 322.287 907.826 312.821 908.213 303.354C901.258 316.749 885.352 324.283 879.814 338.386C879.492 339.224 878.461 341.284 877.238 343.731C877.946 336.841 878.976 328.405 880.586 325.121C884.901 315.976 892.113 308.377 895.655 298.911C896.428 296.85 896.879 294.339 895.398 292.793C893.788 291.119 891.083 291.634 888.894 292.342C884.257 293.695 879.62 295.047 874.984 296.464C876.272 290.217 872.537 284.164 868.93 278.883C871.249 277.531 872.665 275.084 874.275 272.894C875.821 270.705 878.01 268.58 880.715 268.451C883.742 268.322 886.64 270.898 889.602 270.061C887.606 272.443 885.545 275.985 887.606 278.368C888.507 279.398 889.988 279.785 891.341 280.107C897.072 281.395 902.803 282.683 908.535 283.971C909.887 284.293 911.497 284.743 911.948 286.031C912.334 286.997 911.948 288.028 911.948 288.994C911.561 293.115 915.296 296.335 918.838 298.396C922.38 300.456 926.502 302.453 928.047 306.252C929.593 310.116 927.918 314.431 926.051 318.101H925.858Z" fill="#5C95D8"/>
<path d="M865.645 268.192L844.651 290.088C844.651 290.088 846.004 299.296 852.379 297.88L864.808 284.356C865.967 279.076 866.289 273.602 865.709 268.192H865.645Z" fill="#FEFEFF"/>
<path d="M870.99 262.074L867.061 266.646L865.58 268.192C866.16 273.601 865.838 279.075 864.679 284.356L879.876 267.806C879.876 267.806 872.728 266.131 870.925 262.074H870.99Z" fill="#CCCCCD"/>
<path d="M932.748 390.354C928.691 387.907 923.99 386.812 919.417 385.653C910.466 383.399 901.193 380.566 894.56 374.126C892.564 372.13 890.825 369.876 889.215 367.557C886.446 363.5 884.063 359.25 882.003 354.807C880.006 350.492 878.396 345.984 876.4 341.67C874.146 336.775 871.313 332.203 869.188 327.309C868.093 324.862 867.256 322.415 866.483 319.903C866.354 321.191 866.225 322.544 866.096 323.96C864.422 342.314 873.502 361.762 884.385 380.501C895.268 399.241 911.11 416.177 931.073 403.491C934.551 401.302 937.062 398.855 938.801 396.279C937.384 393.896 935.259 391.835 932.812 390.354H932.748Z" fill="#4270A3"/>
<path d="M863.649 285C864.293 289.572 865.388 294.144 865.903 298.716C866.161 300.906 866.225 303.095 866.161 305.285C866.032 307.796 865.646 310.308 865.324 312.819C864.1 322.865 864.1 333.169 865.903 343.15C869.188 361.31 879.234 377.281 890.696 391.448C892.113 393.252 893.594 394.99 895.14 396.729C895.333 396.922 895.526 397.115 895.655 397.373C895.526 397.244 895.526 397.244 895.591 397.244C895.655 397.244 895.591 397.244 895.591 397.244C895.591 397.309 895.719 397.437 895.784 397.502C896.492 398.597 897.329 399.627 898.166 400.593C901.386 404.135 905.572 406.839 910.144 408.192C916.97 410.253 924.827 409.48 931.202 406.453C936.74 403.877 940.669 398.919 942.085 392.994C943.631 386.619 942.729 379.857 940.862 373.675C938.994 367.493 938.286 366.462 936.547 363.049C934.68 359.314 932.168 355.966 930.43 352.166C929.464 350.041 928.691 347.916 927.854 345.726C927.532 344.889 926.759 344.374 925.857 344.632C924.956 344.889 924.441 345.791 924.763 346.628C925.664 348.946 926.501 351.265 927.532 353.583C928.433 355.644 929.592 357.447 930.751 359.379C932.683 362.47 934.358 365.754 935.775 369.103C938.286 375.156 939.96 381.596 939.574 388.164C939.252 393.38 937.127 398.597 932.877 401.688C930.236 403.62 927.274 404.714 924.054 405.423C920.77 406.131 917.164 406.324 914.008 405.809C911.239 405.358 908.856 404.521 906.538 403.233C905.508 402.654 904.542 402.01 903.64 401.301C903.962 401.494 903.64 401.301 903.511 401.237C903.383 401.173 903.318 401.044 903.189 400.979C902.996 400.851 902.867 400.722 902.674 400.593C902.288 400.271 901.901 399.885 901.515 399.498C900.936 398.919 900.356 398.339 899.841 397.695C899.326 397.051 899.648 397.437 899.519 397.309C899.39 397.18 899.068 396.729 899.454 397.18C899.326 396.987 899.132 396.729 899.004 396.536C898.102 395.312 897.136 394.153 896.17 392.994C884.901 379.664 874.597 364.724 870.218 347.594C867.771 338.127 867.32 328.339 868.028 318.615C868.737 308.891 868.479 313.721 868.801 311.274C869.123 308.891 869.445 306.573 869.51 304.126C869.51 299.747 868.801 295.432 868.028 291.117C867.578 288.799 867.191 286.481 866.869 284.162C866.74 283.325 865.646 282.81 864.873 283.068C863.971 283.325 863.649 284.162 863.778 285.064L863.649 285Z" fill="#2D5A84"/>
<path d="M941.764 298.652L944.533 287.189C944.984 285.257 945.564 283.196 944.405 281.393C943.374 279.848 941.378 278.882 939.832 277.916C933.457 274.181 926.438 271.412 919.225 269.802C912.013 268.192 904.478 267.677 897.137 268.385C895.269 268.578 893.337 268.836 891.47 269.158C889.667 269.48 887.928 269.995 886.447 271.09C883.549 273.279 882.841 277.787 886.254 279.912C887.992 281.007 890.311 281.393 892.307 281.973L899.391 284.034L913.494 288.091C915.49 288.67 916.327 285.579 914.331 285L891.47 278.367C890.633 278.109 889.796 277.916 888.958 277.658C888.379 277.465 887.735 277.207 887.348 276.757C886.769 275.984 887.22 274.76 887.864 274.116C888.83 273.086 890.375 272.7 891.663 272.442C892.951 272.184 894.947 271.927 896.557 271.734C909.823 270.381 923.475 272.957 935.325 279.204C936.999 280.105 938.673 281.071 940.283 282.102C940.863 282.488 941.635 282.874 941.829 283.518C942.022 284.162 941.7 285.322 941.507 286.094L938.673 297.879C938.158 299.875 941.313 300.777 941.764 298.716V298.652Z" fill="#2D5A84"/>
<path d="M926.502 257.889C924.635 254.089 920.964 251.707 917.165 250.161C912.786 248.358 908.085 247.521 903.512 246.426C897.91 245.074 892.372 243.593 886.705 242.433C882.068 241.532 876.337 240.824 872.28 243.786C870.219 245.267 868.931 247.585 869.317 250.161C869.704 252.737 871.636 255.12 873.568 257.052C875.049 258.533 877.303 256.215 875.821 254.798C874.469 253.445 872.795 251.771 872.473 249.775C872.151 247.778 873.117 247.006 874.34 246.233C877.947 243.979 882.841 244.816 886.769 245.653C891.856 246.748 896.944 248.036 902.031 249.26C906.281 250.29 910.596 251.127 914.718 252.544C918.388 253.832 921.994 255.764 923.733 259.37C924.635 261.238 927.404 259.628 926.502 257.76V257.889Z" fill="#2D5A84"/>
<path d="M863.392 269.609L863.52 252.093C863.52 250.676 863.52 249.195 863.52 247.778C863.52 246.362 863.52 245.524 863.714 244.43C864.1 242.562 865.259 241.145 867.32 241.145C869.509 241.145 871.313 242.82 872.15 244.752C872.472 245.589 873.244 246.104 874.146 245.846C875.048 245.589 875.627 244.687 875.241 243.85C874.21 241.274 872.343 239.085 869.703 238.183C867.191 237.346 864.1 237.99 862.361 239.986C860.429 242.176 860.365 245.138 860.301 247.907V258.017L860.107 269.609C860.107 271.67 863.327 271.67 863.327 269.609H863.392Z" fill="#2D5A84"/>
<path d="M911.111 293.242C908.858 300.777 904.672 307.539 899.52 313.399C896.88 316.425 894.046 319.259 891.084 321.899C887.864 324.797 884.451 327.502 881.811 330.915C878.848 334.65 876.723 339.158 876.916 343.987C876.981 346.048 880.201 346.048 880.136 343.987C879.75 335.294 887.413 329.434 893.273 324.282C899.134 319.13 904.672 313.012 908.858 306.186C911.176 302.387 912.979 298.33 914.267 294.079C914.847 292.083 911.755 291.246 911.176 293.242H911.111Z" fill="#2D5A84"/>
<path d="M921.866 353.004C925.987 345.92 931.396 339.673 936.291 333.105C938.673 329.949 940.927 326.665 942.859 323.188C944.791 319.71 946.723 315.589 947.431 311.532C947.882 309.149 947.753 306.831 946.53 304.641C945.499 302.774 943.954 301.099 942.537 299.425C939.704 295.947 936.613 292.534 932.942 290.023C930.044 288.091 926.631 286.739 923.347 285.837C920.062 284.936 919.676 284.936 917.744 284.742C916.199 284.614 914.46 284.549 912.914 285C911.369 285.451 912.013 285.386 911.691 285.837C911.369 286.288 911.691 285.901 911.691 285.966C911.498 286.288 911.755 285.901 911.498 286.223C910.918 286.996 910.596 287.833 910.66 288.864C910.854 290.667 911.626 292.341 912.335 294.016C912.206 293.758 912.335 294.144 912.335 294.144C912.464 294.531 912.657 294.917 912.85 295.239C913.172 295.819 913.558 296.334 913.945 296.849C914.653 297.751 915.555 298.523 916.456 299.296C918.453 300.906 920.642 302.323 922.96 303.482C923.733 303.868 924.699 303.675 925.15 302.902C925.601 302.13 925.343 301.099 924.57 300.713C922.703 299.811 920.9 298.781 919.29 297.493C917.68 296.205 916.263 295.11 915.49 293.436C914.911 292.148 914.395 290.989 914.009 289.637C913.623 288.284 913.945 289.315 913.88 289.186C913.88 289.186 913.816 288.606 913.88 288.928C913.88 288.799 913.88 288.735 913.88 288.606V288.477C913.88 288.284 913.88 288.284 913.88 288.477V288.349C913.88 288.477 913.88 288.542 913.752 288.606C913.816 288.477 913.945 288.413 914.009 288.284C914.074 288.155 914.331 287.898 914.396 287.769C914.589 287.254 913.88 288.155 913.88 288.155H913.752C913.88 288.155 913.945 288.155 914.074 288.155C914.009 288.155 914.717 288.027 914.396 288.155C914.717 288.155 915.039 288.155 915.297 288.091C916.07 288.091 916.843 288.091 917.615 288.155C919.225 288.284 920.771 288.671 922.316 289.121C925.407 289.959 928.434 291.182 931.139 292.921C933.844 294.66 937.192 298.266 939.704 301.292C940.992 302.774 942.344 304.319 943.374 305.929C944.469 307.668 944.598 309.471 944.147 311.467C942.537 318.68 938.223 325.184 933.908 331.044C929.593 336.904 923.282 344.246 919.032 351.522C918.002 353.326 920.771 354.936 921.801 353.132L921.866 353.004Z" fill="#2D5A84"/>
<path d="M926.567 308.183C926.824 308.312 926.953 308.441 927.017 308.698C927.146 309.214 926.889 309.858 926.76 310.308C926.438 311.403 925.987 312.433 925.536 313.464C924.57 315.653 923.347 317.778 921.93 319.775C921.415 320.483 921.801 321.578 922.51 321.964C923.218 322.351 924.184 322.093 924.699 321.385C926.373 318.938 927.79 316.297 928.949 313.593C929.529 312.176 930.173 310.695 930.237 309.214C930.302 307.732 929.593 306.058 928.176 305.414C926.76 304.77 926.438 305.221 925.987 305.994C925.536 306.766 925.794 307.861 926.567 308.183Z" fill="#2D5A84"/>
<path d="M907.44 310.823C905.83 316.297 905.315 322.092 906.088 327.759C906.216 328.597 906.731 329.369 907.697 329.369C908.663 329.369 909.436 328.597 909.307 327.759C908.599 322.35 908.985 316.876 910.531 311.66C912.076 306.444 908.019 308.827 907.44 310.823Z" fill="#2D5A84"/>
<path d="M876.466 299.361C878.72 297.493 881.36 296.205 884 295.046C886.512 293.951 889.088 292.921 891.599 291.955C896.236 290.152 901.388 288.413 904.35 284.163C904.865 283.455 904.479 282.36 903.77 281.973C903.062 281.587 902.096 281.845 901.581 282.553C900.293 284.421 898.232 285.644 896.236 286.61C894.111 287.64 891.857 288.413 889.667 289.25C884.322 291.375 878.655 293.372 874.148 297.107C873.504 297.686 873.568 298.781 874.148 299.361C874.792 300.005 875.758 299.94 876.402 299.361H876.466Z" fill="#2D5A84"/>
<path d="M884 279.01C883.678 283.067 883.871 287.124 884.451 291.117C885.03 295.11 885.674 292.469 886.447 292.212C887.22 291.954 887.67 291.117 887.542 290.215C887.027 286.48 886.898 282.681 887.22 278.946C887.284 278.109 886.447 277.336 885.61 277.336C884.773 277.336 884.064 278.044 884 278.946V279.01Z" fill="#2D5A84"/>
<path d="M869.446 260.916L856.18 274.826L849.547 281.78L846.263 285.258C845.297 286.288 844.073 287.254 843.494 288.542C842.914 289.83 843.043 291.569 843.623 293.05C844.138 294.338 844.653 295.626 845.426 296.785C846.907 298.91 849.612 300.52 852.252 299.619C853.669 299.103 854.57 298.009 855.536 296.914L858.692 293.308L865.067 286.095L879.363 269.931C879.943 269.287 880.007 268.321 879.363 267.677C878.719 267.033 877.689 267.033 877.109 267.677C869.317 276.5 861.525 285.322 853.733 294.145C853.282 294.66 852.831 295.175 852.381 295.626C852.059 295.948 851.737 296.334 851.286 296.527C850.513 296.785 849.612 296.463 848.968 295.948C848.066 295.24 847.486 294.08 847.036 292.986C846.585 291.891 845.877 290.925 846.263 290.023C846.649 289.122 846.842 289.251 847.164 288.864C847.744 288.285 848.259 287.705 848.839 287.125L851.801 283.97L857.854 277.595L871.7 263.105C873.117 261.624 870.863 259.306 869.446 260.851V260.916Z" fill="#1D1D1B"/>
<path d="M934.101 274.247C934.745 270.769 933.843 267.292 931.847 264.458C929.851 261.625 926.76 259.371 923.347 257.954C919.934 256.537 916.134 256.022 912.464 255.571C908.342 255.121 904.156 254.799 899.97 254.541C895.72 254.283 891.47 254.155 887.284 254.155C883.485 254.155 879.492 253.897 875.757 254.734C872.602 255.443 867.707 257.761 868.802 261.818C869.897 265.875 872.73 266.519 875.177 267.678C877.625 268.837 881.488 270.125 884.773 270.898C887.799 271.542 890.89 272.057 893.981 271.993C896.042 271.993 896.042 268.708 893.981 268.773C889.023 268.837 883.871 267.678 879.17 265.939C874.469 264.201 874.791 264.072 873.31 262.848C872.537 262.204 871.249 261.045 872.086 260.079C872.988 259.049 874.469 258.405 875.757 258.083C878.977 257.246 882.454 257.439 885.739 257.439C889.602 257.439 893.466 257.568 897.33 257.696C901.194 257.89 905.058 258.147 908.922 258.534C912.786 258.92 915.683 259.178 919.032 260.015C922.381 260.852 925.665 262.397 928.048 265.038C930.108 267.292 931.461 270.383 930.881 273.474C930.302 276.565 931.139 275.213 931.976 275.47C932.749 275.663 933.779 275.213 933.972 274.375L934.101 274.247Z" fill="#2D5A84"/>
<path d="M767.634 128.772C769.179 127.935 770.853 127.098 771.884 125.681C772.914 124.264 773.043 122.01 771.755 120.851C770.853 120.014 769.566 119.95 768.342 119.821C762.868 119.434 757.072 118.662 752.758 115.249C751.663 114.411 750.439 113.317 749.087 113.639C748.121 113.832 747.348 114.798 747.155 115.828C746.962 116.794 747.155 117.889 747.477 118.855C748.83 123.169 752.178 126.776 756.364 128.514C760.55 130.253 765.444 130.124 769.501 128.128" fill="#23222C"/>
<path d="M768.47 130.189C770.724 129.03 773.043 127.678 773.944 125.166C774.781 122.848 774.073 120.014 771.755 118.92C770.596 118.34 769.308 118.276 768.084 118.147C766.861 118.018 765.573 117.954 764.349 117.761C761.902 117.439 759.455 116.923 757.137 115.957C756.042 115.507 754.947 114.863 753.981 114.154C753.015 113.446 751.985 112.544 750.761 112.158C747.928 111.256 745.609 113.639 745.481 116.344C745.352 119.048 746.64 121.496 747.992 123.492C749.344 125.553 751.148 127.291 753.208 128.644C758.296 131.928 764.929 132.121 770.338 129.481C771.111 129.094 771.304 128 770.918 127.291C770.467 126.519 769.501 126.325 768.728 126.712C764.993 128.515 760.356 128.644 756.557 126.841C753.208 125.231 750.504 122.333 749.216 118.855C748.958 118.083 748.057 114.863 749.86 115.249C750.697 115.442 751.534 116.344 752.178 116.795C752.822 117.245 753.917 117.954 754.818 118.405C758.746 120.336 763.061 120.98 767.311 121.302C771.562 121.624 771.368 121.302 771.111 123.428C770.853 125.553 768.535 126.519 766.925 127.356C765.057 128.322 766.732 131.091 768.535 130.125L768.47 130.189Z" fill="#1D1D1B"/>
<path d="M858.884 196.841C861.138 193.621 864.68 191.496 867.771 189.113C879.556 180.162 886.768 165.93 887.992 151.247C887.09 148.285 885.995 145.452 884.772 143.004C876.787 127.034 865.388 108.23 840.595 100.566C824.56 95.6079 797.256 99.4073 766.796 121.946C736.271 144.486 715.471 156.979 699.243 163.869C689.648 167.926 684.045 172.37 680.761 177.843C682.178 182.544 676.833 201.22 681.147 203.602C686.299 206.5 693.254 219.959 699.178 220.539C704.717 221.054 709.482 227.107 714.956 226.141C721.911 224.918 722.619 225.24 729.188 222.793C742.454 217.899 736.593 218.478 750.632 216.997C751.662 216.868 771.175 215.258 772.141 215.645C775.103 216.868 781.35 197.291 781.285 200.511C781.156 208.303 787.467 213.455 792.877 219.058C796.354 222.664 804.339 228.46 808.783 230.778C818.442 235.801 817.927 226.335 825.655 233.934C825.655 233.934 830.292 238.377 830.356 238.441C830.742 238.055 845.296 228.911 845.683 228.46C848.58 225.433 851.156 220.024 855.278 218.993C855.278 216.933 855.278 214.808 855.342 212.747C855.471 207.209 855.729 201.348 858.884 196.841Z" fill="#5C95D8"/>
<path d="M893.851 204.312C893.851 189.887 893.014 167.476 887.991 151.312C886.768 165.995 879.555 180.227 867.77 189.178C864.615 191.561 861.137 193.686 858.884 196.906C855.728 201.414 855.406 207.274 855.342 212.812C855.342 214.873 855.342 216.998 855.277 219.059C870.99 215.066 892.37 221.57 893.916 204.376L893.851 204.312Z" fill="#4270A3"/>
<path d="M737.881 242.242C717.918 239.666 699.565 230.264 684.303 216.934C688.939 225.305 695.315 234.128 702.914 241.92C719.464 259.05 756.492 263.557 771.626 263.557C771.626 263.557 807.044 264.652 843.429 226.078C843.429 226.078 843.364 225.949 843.3 225.949C839.372 222.085 834.091 220.604 828.617 219.445C822.95 221.377 817.477 224.146 812.067 226.722C788.884 237.605 763.318 245.526 737.946 242.242H737.881Z" fill="#A2A6C0"/>
<path d="M801.378 205.342C795.968 199.739 790.173 193.235 790.366 185.443C790.366 182.287 790.945 178.037 787.983 176.878C787.082 176.491 785.987 176.62 785.021 176.685C770.982 178.23 757.137 181.45 743.871 186.409C737.302 188.856 730.734 191.754 723.843 192.977C718.37 193.943 712.767 193.814 707.229 193.299C701.304 192.784 695.315 191.818 690.163 188.92C685.849 186.537 682.114 182.545 680.761 177.844C678.508 181.643 677.348 185.958 676.769 190.981C675.996 197.614 678.894 207.016 684.368 216.997C699.566 230.328 717.919 239.794 737.946 242.306C763.319 245.526 788.885 237.669 812.068 226.786C817.542 224.21 822.951 221.441 828.618 219.509C823.273 218.35 817.67 217.513 812.905 215.001C808.462 212.683 804.92 209.012 801.442 205.406L801.378 205.342Z" fill="#C9CFF0"/>
<path d="M689.841 191.366C688.167 199.931 688.489 208.754 690.678 217.19C692.868 225.626 696.796 233.547 702.206 240.308C705.297 244.172 708.838 247.585 712.831 250.483C713.539 250.998 714.634 250.612 715.021 249.904C715.407 249.195 715.149 248.229 714.441 247.714C707.937 242.884 702.592 236.445 698.792 229.297C694.993 222.084 692.61 214.034 692.095 205.92C691.773 201.348 692.095 196.711 692.932 192.204C693.125 191.366 692.675 190.465 691.838 190.207C691 189.95 690.034 190.465 689.841 191.302V191.366Z" fill="#7D86A7"/>
<path d="M706.005 194.586C705.683 207.08 708.967 219.315 715.343 230.069C721.525 240.566 730.154 249.453 740.586 255.764C746.382 259.306 752.758 262.011 759.326 263.749C761.322 264.265 762.16 261.173 760.163 260.658C749.022 257.696 738.719 251.9 730.347 243.915C721.911 235.865 715.278 225.562 711.865 214.356C709.869 207.917 709.032 201.219 709.225 194.522C709.225 192.461 706.069 192.461 706.005 194.522V194.586Z" fill="#7D86A7"/>
<path d="M724.229 191.174C725.002 198.902 725.711 206.759 728.48 214.1C731.249 221.441 735.241 227.173 740.264 232.518C749.731 242.692 762.546 249.647 775.747 253.769C784.184 256.409 793.006 257.955 801.828 257.89C803.889 257.89 803.889 254.67 801.828 254.67C787.468 254.735 772.914 250.678 760.356 243.787C748.572 237.347 738.204 227.881 732.601 215.517C729.124 207.918 728.287 199.482 727.514 191.239C727.449 190.402 726.805 189.629 725.904 189.629C725.002 189.629 724.229 190.337 724.294 191.239L724.229 191.174Z" fill="#7D86A7"/>
<path d="M740.779 186.666C741.037 190.079 741.745 193.427 742.969 196.647C744.257 199.867 745.866 202.958 747.541 205.985C750.825 211.909 754.882 217.383 759.583 222.277C769.5 232.517 782.122 239.987 795.903 243.529C804.017 245.654 812.518 246.491 820.889 245.911C821.727 245.911 822.499 245.203 822.499 244.301C822.499 243.4 821.791 242.627 820.889 242.691C806.529 243.657 792.039 240.502 779.418 233.547C768.084 227.236 758.424 217.963 751.662 206.822C747.927 200.64 744.45 194.007 743.935 186.666C743.935 185.828 743.226 185.056 742.325 185.056C741.423 185.056 740.65 185.764 740.715 186.666H740.779Z" fill="#7D86A7"/>
<path d="M762.481 180.42C763.769 192.719 770.015 203.796 778.966 212.167C788.626 221.247 801.055 227.365 813.934 230.199C821.597 231.873 829.454 232.453 837.246 232.259C839.307 232.259 839.307 228.975 837.246 229.04C823.98 229.362 810.779 227.365 798.736 221.634C786.694 215.902 778.129 208.819 771.947 198.515C768.598 192.977 766.409 186.795 765.7 180.42C765.636 179.582 765.057 178.81 764.091 178.81C763.125 178.81 762.416 179.518 762.481 180.42Z" fill="#7D86A7"/>
<path d="M679.537 177.779C679.859 181.836 681.984 185.506 685.075 188.082C688.424 190.851 692.61 192.397 696.795 193.427C706.004 195.681 715.471 195.423 724.615 193.041C733.76 190.658 733.695 190.336 738.203 188.984C742.84 187.567 747.476 186.279 752.113 185.055C756.749 183.832 761.45 182.673 766.151 181.578C770.852 180.483 775.489 179.453 780.254 178.68C789.785 177.135 800.218 177.328 808.332 183.188C809.04 183.703 810.135 183.317 810.521 182.608C810.908 181.9 810.65 180.934 809.942 180.419C802.922 175.331 793.842 174.172 785.406 174.881C776.97 175.589 776.069 176.169 771.496 177.135C766.86 178.101 762.288 179.195 757.715 180.29C748.507 182.608 739.362 185.249 730.282 188.018C725.903 189.37 721.524 190.658 716.952 191.302C712.508 191.882 708.001 191.882 703.493 191.302C698.792 190.722 693.833 189.628 689.712 187.309C686.17 185.313 683.014 181.9 682.692 177.714C682.692 176.877 681.984 176.104 681.082 176.104C680.181 176.104 679.408 176.813 679.473 177.714L679.537 177.779Z" fill="#2D5A84"/>
<path d="M806.852 173.078C808.913 175.203 810.007 178.23 809.621 181.192C809.299 183.961 807.625 186.601 805.306 188.147C803.568 189.306 805.178 192.075 806.916 190.916C810.201 188.726 812.326 185.313 812.841 181.45C813.292 177.586 811.811 173.593 809.106 170.824C807.625 169.343 805.371 171.597 806.852 173.078Z" fill="#2D5A84"/>
<path d="M789.335 175.654C785.407 186.666 792.426 198.257 799.768 206.05C803.503 209.978 807.882 213.455 812.712 215.967C817.348 218.414 822.307 219.702 827.33 220.99C832.868 222.342 838.664 223.566 843.751 226.27C845.554 227.236 847.229 224.467 845.361 223.501C840.918 221.119 836.023 219.831 831.194 218.671C826.428 217.448 821.534 216.482 817.026 214.55C812.325 212.489 808.011 209.591 804.276 206.05C800.54 202.508 796.999 198.257 794.552 193.556C791.847 188.34 790.43 182.287 792.426 176.62C792.748 175.783 792.104 174.881 791.332 174.624C790.43 174.366 789.657 174.946 789.335 175.718V175.654Z" fill="#2D5A84"/>
<path d="M820.696 109.131C815.286 112.094 811.809 118.34 812.324 124.522C812.388 125.36 813.032 126.132 813.934 126.132C814.835 126.132 815.608 125.424 815.544 124.522C815.093 119.435 817.733 114.412 822.305 111.965C824.109 110.999 822.499 108.165 820.696 109.196V109.131Z" fill="#2D5A84"/>
<path d="M834.606 163.675C841.303 170.372 851.865 171.789 860.108 167.024C862.361 165.736 864.358 163.997 865.968 162.001C866.483 161.292 866.612 160.391 865.968 159.747C865.324 159.103 864.229 159.038 863.714 159.747C860.558 163.675 855.922 166.315 850.834 166.637C845.683 166.959 840.595 165.027 836.924 161.357C833.254 157.686 833.189 162.194 834.671 163.611L834.606 163.675Z" fill="#2D5A84"/>
<path d="M893.852 204.311C893.852 187.181 892.693 158.975 884.707 143.004C876.722 127.034 865.324 108.23 840.531 100.566C824.496 95.6079 797.191 99.4073 766.731 121.946C736.207 144.486 715.407 156.979 699.178 163.869C682.95 170.695 678.121 178.681 676.639 190.916C675.223 203.152 686.299 224.854 702.849 241.919C719.399 259.049 756.428 263.556 771.561 263.556C771.561 263.556 818.443 258.855 855.149 218.929" stroke="#2D5A84" stroke-width="5" stroke-linecap="round" stroke-linejoin="round"/>
<path d="M945.627 376.378C947.816 379.533 950.714 382.56 951.101 386.424C951.616 391.705 947.172 396.084 945.756 401.171C943.309 409.929 949.748 418.429 952.002 427.188C953.29 432.404 953.161 438.135 956.188 442.579C959.859 448.052 967.071 449.791 973.64 450.177C980.208 450.564 987.099 450.113 993.088 452.818C999.206 455.522 1003.46 461.125 1007.19 466.728C1008.48 468.659 1009.7 470.591 1010.93 472.523C1013.69 460.739 1010.02 442.45 1007.13 430.15C1002.62 410.895 997.531 404.713 996.243 395.955C994.955 387.197 997.531 366.203 996.243 352.937C995.342 343.278 989.932 328.853 983.879 318.935C980.337 313.14 972.931 311.015 966.749 313.912C961.276 316.488 954.771 320.674 950.65 326.921C949.104 329.303 947.559 331.751 946.013 334.262C944.661 337.031 943.502 339.865 942.536 342.762C938.93 353.839 939.058 366.718 945.627 376.378Z" fill="#FFF5CB"/>
<path d="M1007.13 466.727C1003.39 461.189 999.141 455.586 993.023 452.817C987.034 450.113 980.144 450.628 973.575 450.177C967.007 449.791 959.794 448.052 956.123 442.578C953.161 438.135 953.225 432.403 951.938 427.187C949.748 418.365 943.244 409.864 945.691 401.171C947.108 396.083 951.551 391.704 951.036 386.424C950.65 382.56 947.752 379.597 945.562 376.378C938.994 366.718 938.929 353.839 942.471 342.762C943.437 339.8 944.596 337.031 945.949 334.262C939.895 344.243 934.293 355.448 930.686 368.65C926.179 385.2 921.091 407.224 928.11 422.808C935.194 438.392 935.194 439.616 940.282 456.939C945.433 474.262 979.371 484.694 998.626 483.986C1005.58 483.728 1009.19 479.156 1010.73 472.459C1009.51 470.527 1008.29 468.595 1007 466.663L1007.13 466.727Z" fill="#CCC4A3"/>
<path d="M994.375 381.981C994.311 392.993 991.091 403.876 985.102 413.214C984.007 414.953 986.776 416.563 987.871 414.824C994.118 405.035 997.466 393.573 997.595 381.981C997.595 379.92 994.375 379.92 994.375 381.981Z" fill="#BFB177"/>
<path d="M983.814 318.935C980.272 313.14 972.867 311.015 966.685 313.912C961.211 316.488 954.707 320.674 950.585 326.921C942.858 338.641 935.194 352.1 930.686 368.65C926.179 385.2 921.091 407.224 928.11 422.808C935.194 438.393 935.194 439.616 940.282 456.939C945.433 474.262 979.371 484.694 998.626 483.986C1017.88 483.278 1011.44 449.405 1006.93 430.085C1002.43 410.766 997.338 404.648 996.05 395.89C994.762 387.132 997.338 366.139 996.05 352.873C995.148 343.213 989.739 328.788 983.685 318.871L983.814 318.935Z" stroke="#BFB177" stroke-width="5" stroke-linecap="round" stroke-linejoin="round"/>
<path d="M909.759 447.733C923.927 463.51 941.829 477.227 959.345 489.269C966.107 493.906 983.43 498.478 991.222 500.861C999.272 503.308 1000.56 487.788 1008.8 486.242C1013.57 470.98 1004.23 459.968 1003.52 458.616C1002.23 456.04 1000.24 431.505 988.518 422.553C976.797 413.602 973.964 413.344 964.948 396.988C955.932 380.631 944.276 364.531 944.276 364.531C944.276 364.531 944.985 417.981 894.755 425.065C898.812 428.027 906.282 443.933 909.695 447.668L909.759 447.733Z" fill="#FFF5CB"/>
<path d="M984.138 485.148C976.346 482.765 969.262 478.386 962.564 473.749C945.048 461.707 928.949 447.604 914.782 431.827C911.433 428.092 908.084 424.163 904.027 421.201C897.587 423.262 890.053 424.614 881.359 424.936C880.265 424.936 927.854 499.895 972.997 508.266C994.57 512.259 1004.49 500.217 1008.87 486.307C1000.62 487.852 992.187 487.659 984.138 485.212V485.148Z" fill="#CCC4A1"/>
<path d="M922.638 377.797C922.638 377.797 884.385 413.538 882.003 420.3C879.556 427.126 881.037 427.834 900.936 423.004C920.899 418.239 933.907 405.36 938.029 392.416C942.15 379.472 946.014 374.513 943.116 368.331C940.218 362.084 922.638 377.797 922.638 377.797Z" fill="#938C6F"/>
<path d="M912.591 384.945C908.083 389.453 887.862 393.832 883.548 393.961L892.563 408.193L902.352 422.618C902.352 422.618 912.462 419.849 922.573 411.735C921.607 411.219 935.903 394.991 934.937 394.412C926.115 389.517 919.16 392.351 912.527 384.945H912.591Z" fill="#393939"/>
<path d="M943.116 368.331C943.116 368.331 933.392 352.36 929.657 349.978C929.657 349.978 929.914 384.559 895.397 392.415C901.966 399.886 910.917 405.231 919.74 410.125C920.706 410.64 921.607 411.155 922.573 411.67C932.812 403.492 943.116 389.904 943.052 368.331H943.116Z" fill="#4C4C4C"/>
<path d="M891.47 407.034C888.894 409.417 886.512 411.993 884.258 414.697C882.519 416.823 880.587 419.076 879.428 421.588C879.17 422.168 878.848 422.747 878.913 423.456C878.977 424.421 879.363 425.387 879.685 426.289C880.329 428.156 881.167 429.895 882.197 431.57C884.193 434.918 886.64 437.881 889.087 440.843C898.747 452.692 908.535 464.477 919.419 475.295C930.173 485.921 942.022 495.774 955.288 503.115C967.717 509.941 984.396 514.9 997.146 506.013C1007.84 498.607 1011.44 484.955 1012.47 472.655C1012.6 471.11 1012.67 469.564 1012.73 468.019C1012.79 465.958 1009.58 465.958 1009.51 468.019C1009.32 473.428 1008.67 478.837 1007.32 484.118C1006.03 489.141 1004.04 494.035 1000.82 498.157C997.468 502.471 992.832 505.562 987.487 506.85C982.142 508.138 975.058 507.43 969.198 505.627C963.016 503.695 957.284 500.732 951.811 497.319C946.272 493.906 940.992 490.042 935.969 485.921C925.73 477.549 916.521 468.083 907.827 458.166C899.133 448.248 899.262 448.184 895.076 443.097C892.951 440.521 890.891 438.009 888.83 435.369C886.834 432.858 884.966 430.217 883.614 427.319C882.97 425.903 882.454 424.357 882.132 422.812V423.649C882.132 423.584 882.133 423.456 882.261 423.327C882.39 423.069 882.197 423.52 882.261 423.327C882.326 423.134 882.454 422.876 882.583 422.618C882.905 422.039 883.227 421.524 883.549 421.008C884.386 419.72 885.352 418.497 886.318 417.338C888.637 414.504 891.148 411.8 893.853 409.288C895.398 407.871 893.08 405.617 891.599 407.034H891.47Z" fill="#BFB177"/>
<path d="M974.736 414.311C981.369 418.174 987.294 423.069 992.317 428.864C992.896 429.508 993.991 429.444 994.571 428.864C995.15 428.285 995.15 427.254 994.571 426.61C989.354 420.621 983.172 415.534 976.346 411.606C974.543 410.575 972.933 413.345 974.736 414.375V414.311Z" fill="#BFB177"/>
<path d="M902.353 420.493C897.073 411.992 891.599 403.685 886.254 395.249C885.932 394.669 885.545 394.154 885.223 393.575C884.901 392.995 884.837 392.866 884.773 392.866C884.966 392.866 884.386 393.51 885.095 392.931C886.061 392.094 887.027 391.321 887.992 390.548C888.636 389.968 888.572 388.874 887.992 388.294C887.413 387.714 886.383 387.714 885.739 388.294C885.095 388.874 883.935 389.775 883.034 390.484C882.132 391.192 881.166 392.802 881.939 394.347C882.454 395.442 883.227 396.473 883.871 397.503C884.579 398.598 885.288 399.692 885.996 400.787C888.958 405.424 891.985 410.06 894.947 414.697C896.493 417.144 898.103 419.591 899.584 422.103C900.679 423.841 903.448 422.232 902.353 420.493Z" fill="#1D1D1B"/>
<path d="M883.42 395.185C893.015 395.893 902.804 393.317 910.918 388.101C919.032 382.885 925.214 374.964 928.563 365.884C931.912 356.804 931.396 355.387 931.332 349.978L928.305 350.815C930.559 354.163 933.006 357.383 935.582 360.539C937.643 363.05 939.897 365.562 942.022 368.009C942.601 368.653 943.696 368.588 944.276 368.009C944.855 367.429 944.855 366.399 944.276 365.755C942.215 363.308 940.026 360.925 938.029 358.414C935.582 355.451 933.264 352.36 931.139 349.205C930.302 347.917 928.112 348.303 928.112 350.042C928.176 359.058 925.279 367.88 920.062 375.157C914.782 382.434 907.054 387.779 898.489 390.29C893.595 391.772 888.508 392.287 883.42 391.965C878.333 391.643 881.81 392.737 881.81 393.575C881.81 394.412 882.519 395.12 883.42 395.185Z" fill="#1D1D1B"/>
<path d="M942.666 364.789C949.685 373.419 955.674 382.885 961.213 392.48C964.304 397.825 967.266 403.17 970.164 408.644C972.547 413.152 974.672 417.853 977.248 422.296C980.081 427.126 983.559 431.634 988.324 434.66C990.063 435.755 991.673 432.986 989.934 431.891C985.877 429.38 982.915 425.58 980.532 421.588C977.956 417.338 975.895 412.765 973.577 408.322C968.039 397.696 962.114 387.2 955.546 377.218C952.261 372.195 948.719 367.236 944.92 362.6C944.34 361.956 943.246 362.02 942.666 362.6C942.087 363.179 942.087 364.21 942.666 364.854V364.789Z" fill="#BFB177"/>
<path d="M881.296 427.319C895.914 427.319 910.661 423.326 922.446 414.439C932.556 406.776 940.09 396.021 943.568 383.786C947.045 371.55 946.079 370.391 945.435 363.694C945.371 362.857 944.727 362.084 943.825 362.084C942.924 362.084 942.151 362.792 942.216 363.694C943.31 375.35 940.477 386.941 934.359 396.859C927.79 407.484 917.551 415.598 905.767 419.977C897.91 422.875 889.667 424.163 881.296 424.163C879.235 424.163 879.235 427.383 881.296 427.383V427.319Z" fill="#BFB177"/>
<path d="M850.898 139.204C846.262 140.428 842.333 143.325 838.663 146.352C838.212 146.738 837.697 147.125 837.246 147.511C838.985 153.114 843.686 157.106 849.16 157.106C854.633 157.106 861.846 150.602 861.846 142.553C861.846 134.503 861.653 139.462 861.202 138.045C859.914 138.045 858.69 138.174 857.402 138.302C855.213 138.496 852.959 138.624 850.834 139.204H850.898Z" fill="white"/>
<path d="M849.545 151.31C853.955 151.31 857.53 147.735 857.53 143.325C857.53 138.915 853.955 135.34 849.545 135.34C845.135 135.34 841.56 138.915 841.56 143.325C841.56 147.735 845.135 151.31 849.545 151.31Z" fill="#23222C"/>
<path d="M847.676 151.697C849.17 151.697 850.381 150.486 850.381 148.992C850.381 147.498 849.17 146.287 847.676 146.287C846.183 146.287 844.972 147.498 844.972 148.992C844.972 150.486 846.183 151.697 847.676 151.697Z" fill="white"/>
<path d="M849.095 128.127C842.076 128.127 836.409 134.631 836.409 142.681C836.409 150.73 836.667 146.029 837.182 147.575C837.633 147.189 838.084 146.802 838.599 146.416C842.334 143.454 846.262 140.491 850.834 139.268C852.959 138.688 855.213 138.495 857.403 138.366C858.626 138.237 859.914 138.173 861.202 138.109C859.528 132.313 854.762 128.127 849.16 128.127H849.095Z" fill="#5C95D8"/>
<path d="M861.008 138.753C861.33 139.976 861.459 141.329 861.459 142.681C861.459 150.731 855.792 157.235 848.773 157.235C841.754 157.235 838.598 153.242 836.859 147.64" stroke="#2D5A84" stroke-width="5" stroke-linecap="round" stroke-linejoin="round"/>
<path d="M836.087 142.681C836.087 134.631 841.754 128.127 848.773 128.127C855.793 128.127 857.531 131.025 859.721 135.339" stroke="#2D5A84" stroke-width="5" stroke-linecap="round" stroke-linejoin="round"/>
<path d="M838.147 147.575C844.394 142.617 852.315 139.912 860.364 140.363C862.425 140.492 862.425 137.272 860.364 137.143C851.478 136.692 842.848 139.783 835.893 145.321C835.185 145.837 835.314 147.06 835.893 147.575C836.537 148.219 837.503 148.09 838.147 147.575Z" fill="#2D5A84"/>
<path d="M817.152 128.064C823.721 125.81 828.229 119.886 833.96 115.957C842.976 109.775 855.34 108.809 865.193 113.446C854.696 113.06 844.908 119.37 838.275 127.549C836.471 129.803 834.797 132.25 832.286 133.667C829.517 135.212 826.104 135.277 823.141 134.117C820.179 132.958 817.732 130.769 815.929 128.193" fill="#23222C"/>
<path d="M817.603 129.61C824.301 127.227 828.744 121.625 834.411 117.632C839.949 113.704 846.711 111.836 853.537 112.158C857.337 112.352 861.072 113.253 864.485 114.799L865.322 111.772C857.659 111.514 850.382 114.67 844.393 119.306C841.43 121.625 838.855 124.394 836.472 127.356C835.313 128.837 834.154 130.318 832.737 131.478C831.32 132.572 829.517 133.152 827.714 133.216C823.528 133.281 819.857 130.64 817.539 127.292C815.221 123.943 816.122 126.261 815.35 126.712C814.577 127.163 814.255 128.193 814.77 128.902C817.088 132.25 820.373 135.084 824.43 136.05C828.68 137.08 832.866 135.921 836.021 132.894C837.438 131.542 838.597 129.932 839.821 128.387C841.044 126.841 842.396 125.424 843.813 124.072C846.582 121.432 849.738 119.242 853.215 117.568C856.693 115.893 861.2 114.799 865.386 114.927C866.932 114.927 867.64 112.609 866.224 111.901C859.591 108.81 852.056 107.973 844.844 109.518C841.431 110.226 838.082 111.514 834.991 113.318C831.9 115.121 829.131 117.632 826.426 120.015C823.528 122.526 820.501 125.038 816.895 126.326C816.058 126.648 815.543 127.421 815.8 128.322C815.993 129.095 816.959 129.739 817.797 129.417L817.603 129.61Z" fill="#1D1D1B"/>
<g opacity="0.8">
<path d="M1244.42 -136.446C1232.59 -135.862 1227.91 -121.832 1216.22 -127.532C1204.53 -133.231 1206.57 -148.138 1218.7 -157.929C1230.83 -167.574 1240.04 -177.365 1241.5 -182.627C1242.96 -188.034 1240.18 -204.401 1229.37 -207.324C1218.56 -210.247 1208.03 -203.817 1201.17 -185.549C1194.44 -167.282 1200.73 -132.208 1175.44 -143.315C1168.14 -146.676 1171.94 -161.875 1174.42 -172.397C1176.91 -182.919 1154.55 -194.756 1131.31 -196.656C1108.07 -198.556 1096.38 -198.117 1085.71 -182.627C1075.05 -167.136 1076.95 -150.183 1051.23 -148.138C1025.5 -146.238 1009.28 -149.745 999.784 -134.108C990.285 -118.471 992.039 -109.41 999.346 -96.2579C1006.65 -83.1053 1005.63 -60.3074 999.346 -50.9545C993.062 -41.4554 985.463 -33.2716 968.364 -32.2486C951.266 -31.2256 932.268 -46.278 923.353 -41.8938C914.439 -37.5096 907.862 -34.0023 910.201 -19.8267C912.539 -5.65114 932.414 9.54742 961.934 16.8544C991.454 24.1614 992.916 45.9362 988.093 55.5815C983.271 65.2267 969.095 86.2709 941.036 98.1082C912.977 109.946 901.286 106.877 897.925 116.083C894.71 125.144 902.894 134.205 899.678 143.412C896.463 152.618 885.357 157.003 879.511 157.295C873.666 157.441 865.482 157.295 863.436 173.516C861.39 189.738 871.62 201.575 865.336 216.92C859.052 232.265 844.145 237.233 846.191 246.294C846.191 246.294 850.722 275.23 859.928 272.307C869.135 269.53 849.114 255.501 854.521 246.294C859.928 237.087 874.104 240.741 881.265 239.133C888.572 237.526 891.933 218.674 890.472 206.69C889.01 194.853 884.772 179.947 897.779 175.416C910.785 171.032 932.706 167.671 934.606 157.149C936.506 146.773 919.846 137.712 923.792 129.382C927.737 121.052 931.683 122.952 951.997 118.86C972.31 114.768 1041.73 99.4234 1068.91 81.8867C1096.09 64.3499 1109.68 53.3894 1097.11 41.1136C1084.55 28.8379 1040.41 3.70183 1046.99 -12.3736C1053.42 -28.449 1065.99 -24.6493 1077.38 -25.8184C1088.78 -26.9875 1099.45 -30.0565 1094.63 -37.5096C1089.81 -44.9627 1068.47 -62.3534 1084.4 -75.0676C1100.47 -87.6356 1113.92 -58.4076 1120.35 -49.9315C1126.63 -41.6015 1140.08 -32.3947 1151.33 -37.6557C1162.58 -42.9168 1160.98 -47.5933 1156.45 -58.4076C1151.77 -69.222 1166.82 -78.4288 1178.51 -79.3056C1190.2 -80.3286 1205.4 -69.222 1223.09 -70.6834C1240.77 -71.9986 1261.37 -89.8277 1262.84 -103.419C1264.3 -117.156 1255.82 -137.031 1243.98 -136.446H1244.42Z" fill="url(#paint0_linear_878_74360)"/>
</g>
<path d="M507.907 491.393C508.036 490.234 506.362 501.568 511.449 505.11C516.537 508.652 655.056 515.027 655.056 515.027C655.056 515.027 660.787 515.349 678.174 513.288C695.562 511.228 768.137 502.534 770.327 501.439C772.517 500.345 778.699 494.871 778.699 494.871L654.734 477.548L507.907 491.458V491.393Z" fill="#3C3C3B"/>
<path d="M473.067 375.477L490.519 455.91C490.519 455.91 496.894 494.291 500.565 496.545C504.236 498.799 505.652 499.056 521.172 500.022C536.692 500.988 658.854 510.39 661.752 507.492C664.65 504.659 666.775 506.333 662.203 483.279C660.786 476.131 657.824 460.289 654.346 441.678C651.77 442.644 638.118 390.16 635.478 390.933C597.741 402.267 486.977 399.369 473.003 375.413L473.067 375.477Z" fill="#3C3C3B"/>
<path d="M626.269 338.964C621.503 338.964 472.294 337.226 472.294 337.226C472.294 337.226 466.241 339.222 466.048 343.279L473.003 375.478C486.977 399.434 507.455 419.59 531.862 432.727C566.572 451.402 608.753 455.652 646.489 444.319C649.065 443.546 651.706 442.644 654.282 441.678C646.489 400.271 636.121 345.34 634.318 343.215C631.678 340.188 630.97 338.964 626.204 338.9L626.269 338.964Z" fill="#575756"/>
<path d="M466.049 346.241L498.762 492.745C499.342 496.223 502.304 498.863 505.846 499.056L657.502 508.652C662.525 508.974 666.453 504.466 665.487 499.507L635.092 345.082C634.448 341.669 631.55 339.158 628.073 338.9L474.163 337.161C469.204 336.839 465.276 341.218 466.113 346.113L466.049 346.241Z" stroke="#1D1D1B" stroke-width="5" stroke-linecap="round" stroke-linejoin="round"/>
<path d="M466.049 343.279L626.27 345.018" stroke="#1D1D1B" stroke-width="5" stroke-linecap="round" stroke-linejoin="round"/>
<path d="M660.594 505.433L628.781 348.432" stroke="#1D1D1B" stroke-width="5" stroke-linecap="round" stroke-linejoin="round"/>
<path d="M662.783 506.913L778.698 494.806L662.203 479.415" stroke="#1D1D1B" stroke-width="5" stroke-linecap="round" stroke-linejoin="round"/>
<path d="M778.698 494.807C775.285 499.314 770.198 502.277 764.595 502.921L660.594 515.285L514.089 505.819C510.612 505.561 507.907 502.728 507.907 499.186" stroke="#1D1D1B" stroke-width="5" stroke-linecap="round" stroke-linejoin="round"/>
<path d="M660.142 507.557L659.885 514.962C659.885 515.8 660.658 516.637 661.495 516.572C662.332 516.508 663.04 515.864 663.105 514.962L663.362 507.557C663.362 506.72 662.589 505.882 661.752 505.947C660.915 506.011 660.207 506.655 660.142 507.557Z" fill="#1D1D1B"/>
<path d="M665.423 499.571L725.893 493.132L662.59 485.082" stroke="#1D1D1B" stroke-width="5" stroke-linecap="round" stroke-linejoin="round"/>
<path d="M666.969 494.548L690.281 491.264C691.118 491.135 691.633 490.04 691.376 489.268C691.118 488.366 690.281 488.044 689.38 488.173L666.068 491.457C665.231 491.586 664.715 492.681 664.973 493.453C665.23 494.355 666.068 494.677 666.969 494.548Z" fill="#1D1D1B"/>
<path d="M582.734 410.964C582.927 412.187 582.734 413.411 582.283 414.184L577.517 422.555C577.26 423.071 576.809 423.521 576.358 423.843C575.843 424.165 575.328 424.359 574.684 424.487C574.04 424.552 573.396 424.487 572.752 424.359C572.108 424.165 571.464 423.908 570.885 423.521H570.82C570.112 423.006 569.532 422.427 569.017 421.718C568.566 421.01 568.244 420.302 568.051 419.529L567.407 416.309C565.926 416.309 564.702 416.889 563.865 417.919C563.028 418.949 562.77 420.366 563.028 421.783L567.858 446.061C568.437 448.958 566.763 451.47 563.93 451.599C563.221 451.599 562.513 451.534 561.805 451.212C561.096 450.955 560.388 450.568 559.808 450.053C559.229 449.538 558.649 448.958 558.263 448.25C557.876 447.606 557.554 446.833 557.425 446.125L552.338 421.718C551.887 419.593 551.887 417.468 552.338 415.472C552.724 413.475 553.562 411.672 554.785 410.191C556.009 408.646 557.554 407.487 559.422 406.649C561.225 405.812 563.286 405.426 565.475 405.426H576.358C579.578 405.426 582.218 407.68 582.734 410.835V410.964Z" fill="white"/>
<path d="M547.315 410.835V410.964C547.959 413.926 546.092 416.309 543.13 416.309H534.887C531.924 416.309 529.027 413.926 528.383 410.964V410.835C527.674 407.873 529.542 405.49 532.504 405.49H540.811C543.774 405.49 546.671 407.873 547.315 410.835Z" fill="white"/>
<path d="M719 -121L474.5 334.5L636 337.5L668.5 503.5L1139.5 355V-121H719Z" fill="url(#paint1_linear_878_74360)" fill-opacity="0.2"/>
<defs>
<linearGradient id="paint0_linear_878_74360" x1="1221" y1="-156" x2="846" y2="253" gradientUnits="userSpaceOnUse">
<stop stop-color="white" stop-opacity="0"/>
<stop offset="1" stop-color="#B5B5B4"/>
</linearGradient>
<linearGradient id="paint1_linear_878_74360" x1="584.5" y1="437" x2="1039" y2="-34.0003" gradientUnits="userSpaceOnUse">
<stop stop-color="#6FB7D6"/>
<stop offset="1" stop-color="#6FB7D6" stop-opacity="0"/>
</linearGradient>
</defs>
</svg>
