<svg width="1088" height="543" viewBox="0 0 1088 543" fill="none" xmlns="http://www.w3.org/2000/svg">
<rect x="-19" y="496" width="1130" height="52" fill="#17191C"/>
<path d="M674.153 493.383C676.472 481.502 694.463 469.905 695.877 457.911C696.104 456.044 692.143 443.824 691.351 442.127C690.616 440.599 683.94 429.454 682.582 428.492C675.963 423.967 661.48 439.864 656.276 434.037C655.201 440.034 654.069 445.974 652.994 451.971C650.562 465.152 648.129 478.787 650.901 491.912C652.542 499.606 656.445 507.47 663.574 510.808C666.742 512.335 670.249 512.731 673.7 512.448C673.587 512.109 673.474 511.769 673.361 511.43C671.664 505.603 672.965 499.38 674.153 493.383Z" fill="#B167FF"/>
<path d="M704.873 421.025C701.987 416.951 697.518 414.236 692.822 412.539C685.864 409.993 678.17 409.484 670.928 411.124C665.61 412.312 659.67 420.119 657.633 426.625C657.181 429.115 656.728 431.604 656.275 434.037C661.48 439.807 669.287 443.824 675.907 448.406C677.321 449.368 678.735 450.443 679.471 452.027C680.263 453.724 680.037 455.705 679.81 457.571C678.339 469.622 676.472 481.559 674.096 493.439C672.908 499.38 671.664 505.603 673.304 511.487C673.417 511.826 673.53 512.166 673.644 512.505C678.113 512.109 682.695 510.525 686.656 508.375C691.238 505.942 695.594 502.831 698.423 498.475C702.1 492.987 703.006 486.141 703.854 479.579C705.212 468.717 706.57 457.854 707.984 447.049C709.116 438.167 710.021 428.379 704.873 421.081V421.025Z" fill="#9356D4"/>
<path d="M656.842 423.231C654.918 433.81 652.938 444.389 651.015 454.912C649.148 465.152 647.507 475.618 648.582 486.028C649.43 494.344 651.92 503.453 658.426 509.11C661.764 512.052 665.95 513.636 670.363 513.919C674.945 514.202 679.528 513.014 683.714 511.26C687.901 509.506 691.974 507.13 695.369 504.075C698.82 501.02 701.196 497.173 702.723 492.817C704.194 488.461 704.76 483.822 705.326 479.239C706.005 473.921 706.683 468.547 707.362 463.229L709.342 447.388C709.908 442.975 710.417 438.562 710.191 434.093C710.021 429.793 709.116 425.381 706.91 421.647C704.647 417.856 701.139 414.914 697.236 412.934C692.936 410.728 688.184 409.427 683.318 408.974C680.886 408.748 678.396 408.691 675.964 408.917C673.814 409.087 671.494 409.314 669.458 410.049C666.233 411.237 663.631 413.783 661.537 416.442C659.274 419.327 657.351 422.608 656.219 426.173C655.767 427.644 655.427 429.114 655.427 430.642C655.427 432.169 658.199 432.452 658.256 430.642C658.313 428.832 658.595 428.04 659.048 426.682C659.501 425.324 660.293 423.627 661.085 422.212C662.725 419.327 664.819 416.498 667.478 414.462C667.93 414.066 668.609 413.67 669.175 413.33C669.854 412.934 670.193 412.821 670.872 412.595C672.965 412.029 675.228 411.803 677.435 411.69C682.074 411.463 686.769 412.086 691.182 413.5C695.086 414.745 698.876 416.725 701.818 419.667C704.647 422.552 706.287 426.229 706.966 430.133C707.702 434.206 707.475 438.449 707.079 442.579C706.627 447.331 705.948 452.027 705.326 456.779L703.402 472.111C702.836 476.75 702.384 481.445 701.535 486.028C700.743 490.271 699.555 494.458 697.066 498.078C694.746 501.473 691.352 504.075 687.788 506.168C680.829 510.242 671.438 513.353 663.744 509.45C656.898 505.942 653.504 498.248 652.089 491.063C650.166 481.389 651.128 471.375 652.655 461.701C654.183 452.027 656.276 441.617 658.143 431.547L659.501 424.023C659.614 423.287 659.274 422.495 658.539 422.269C657.803 422.043 656.955 422.495 656.785 423.231H656.842Z" fill="#4A177F"/>
<path d="M879.801 498.928C879.914 486.821 881.272 479.636 882.347 467.586C882.516 465.719 880.989 457.289 882.12 455.762C883.139 454.404 896.377 442.184 897.961 441.505C905.372 438.393 919.968 449.991 926.248 445.409C926.078 451.462 925.795 465.096 925.626 471.15C925.286 484.558 924.89 498.362 919.516 510.695C916.348 517.88 910.917 524.782 903.279 526.592C899.828 527.384 896.377 527.101 892.983 526.083C893.152 525.8 893.718 525.461 893.548 525.121C885.175 512.675 879.857 504.924 879.914 498.871L879.801 498.928Z" fill="#B167FF"/>
<path d="M881.046 430.303C884.723 426.909 889.645 425.155 894.567 424.476C901.922 423.401 909.503 424.476 916.292 427.531C921.27 429.737 925.457 438.676 926.136 445.408C926.079 447.898 926.023 450.444 925.966 452.933C919.686 457.515 911.257 459.891 903.845 462.946C902.261 463.625 900.621 464.361 899.602 465.719C898.471 467.246 898.245 469.17 898.131 471.037C897.113 483.087 896.491 495.194 896.378 507.3C896.321 513.354 896.265 519.747 893.436 525.121C893.266 525.461 893.096 525.744 892.87 526.083C888.57 524.782 884.441 522.293 880.933 519.351C876.916 516.069 873.352 512.053 871.429 507.244C868.996 501.134 869.448 494.232 870.014 487.669C870.919 476.751 871.768 465.888 872.673 454.97C873.409 446.087 874.54 436.3 881.046 430.247V430.303Z" fill="#9356D4"/>
<path d="M924.834 442.353C924.608 452.706 924.325 463.116 924.099 473.469C923.872 482.86 923.476 492.308 921.1 501.473C919.12 509.224 915.613 517.597 908.88 522.405C902.148 527.214 901.865 525.856 897.905 525.63C893.662 525.347 889.588 523.593 886.024 521.331C882.404 519.068 879.066 516.182 876.407 512.844C873.635 509.45 871.937 505.433 871.372 501.077C870.749 496.381 871.202 491.629 871.598 486.933L872.843 471.319L874.087 455.705C874.427 451.688 874.766 447.671 875.671 443.767C876.52 440.09 877.878 436.413 880.254 433.414C882.856 430.133 886.59 428.04 890.55 426.852C894.51 425.664 899.489 425.324 903.958 425.72C906.278 425.947 908.541 426.399 910.747 427.021C912.671 427.587 914.764 428.21 916.461 429.228C917.083 429.567 917.31 429.794 917.876 430.303C918.441 430.812 918.95 431.378 919.403 431.943C920.365 433.131 921.213 434.602 921.949 436.017C923.363 438.902 924.495 442.24 924.834 445.295C924.891 445.974 924.947 446.653 924.947 447.388C924.947 448.124 924.947 448.067 924.947 448.406C924.947 448.746 924.947 448.689 924.947 448.803C924.947 448.52 924.947 449.029 924.947 449.085C924.834 449.821 925.174 450.613 925.909 450.839C926.644 451.066 927.493 450.613 927.663 449.877C928.285 446.653 927.663 443.202 926.758 440.09C925.683 436.583 924.099 433.188 921.836 430.303C919.573 427.417 919.742 427.927 918.441 427.021C916.744 425.89 914.594 425.211 912.671 424.589C907.975 423.118 902.997 422.496 898.075 422.778C893.379 423.061 888.683 424.08 884.497 426.343C880.65 428.436 877.651 431.661 875.671 435.564C873.691 439.468 872.786 443.485 872.22 447.614C871.541 452.367 871.258 457.119 870.862 461.928L869.561 478.278C869.165 483.482 868.599 488.744 868.373 494.005C868.203 498.984 868.599 503.962 870.58 508.601C872.39 512.788 875.388 516.352 878.726 519.35C885.402 525.347 894.68 530.382 903.902 528.063C912.162 525.97 917.819 518.558 920.987 511.091C924.891 501.926 926.192 491.969 926.758 482.068C927.323 471.602 927.38 461.079 927.606 450.556L927.776 442.523C927.776 440.712 925.004 440.712 924.947 442.523L924.834 442.353Z" fill="#4A177F"/>
<path d="M827.185 355.795C822.433 324.113 813.438 304.03 803.254 295.996C788.658 295.996 786.169 308.103 778.984 324.227C770.158 344.141 765.746 375.426 751.998 388.778C750.414 390.305 747.642 389.796 745.492 390.362C746.001 393.53 746.737 396.245 747.699 398.225C757.429 418.253 780.512 431.152 803.594 416.895C819.774 406.881 832.22 389.513 827.185 355.795Z" fill="#9356D4"/>
<path d="M800.03 347.705C807.158 331.581 808.177 312.912 803.255 295.996C802.633 295.487 801.954 295.034 801.275 294.582C792.449 288.981 768.009 284.625 756.921 310.988C747.416 333.561 742.438 371.183 745.436 390.362C747.643 389.852 749.792 389.4 751.942 388.777C772.988 383.233 791.148 367.619 799.974 347.705H800.03Z" fill="#B167FF"/>
<path d="M803.594 416.895C819.774 406.881 832.22 389.513 827.185 355.795C822.093 322.077 812.249 301.484 801.331 294.582C792.505 288.981 768.065 284.625 756.976 310.988C745.888 337.352 740.909 384.195 747.755 398.225C757.486 418.253 780.568 431.151 803.65 416.895H803.594Z" stroke="#4A177F" stroke-width="5" stroke-linecap="round" stroke-linejoin="round"/>
<path d="M917.253 383.177C908.937 365.582 896.547 339.615 882.064 334.353C870.014 329.997 848.402 323.774 822.435 324.283C823.001 335.372 823.34 346.404 821.756 357.323C819.38 373.786 811.912 390.418 797.825 399.244C793.808 401.79 789.113 403.657 784.36 403.317C775.931 402.752 769.425 395.623 765.182 388.269C754.263 369.486 752 347.026 753.697 325.245C748.719 324.906 744.589 324.792 741.081 325.415C729.257 327.565 709.909 328.979 688.75 346.008C678.058 354.607 672.57 374.351 663.914 393.53C655.258 412.709 649.148 422.948 649.148 422.948C649.148 422.948 660.972 432.679 682.188 439.298C691.579 418.536 705.157 415.99 708.325 435.508C708.834 438.563 709.4 441.674 709.683 444.729C710.022 444.729 710.362 444.786 710.644 444.843C710.644 444.843 712.455 446.427 714.774 461.645C715.227 464.587 715.68 467.981 716.189 471.546C719.017 472.338 721.903 473.073 724.788 473.582C748.21 477.769 784.304 484.444 802.86 469.565C821.416 454.686 828.771 454.46 840.991 434.094C850.948 417.461 859.321 401.677 856.04 382.555C860.735 402.412 854.399 400.658 864.526 418.366C872.277 431.944 884.779 436.526 897.282 445.804C902.035 449.369 913.802 442.976 919.403 445.182C922.684 442.749 925.796 439.694 928.568 436.017L933.377 427.757C933.377 427.757 925.626 400.771 917.253 383.177Z" fill="#FDFF66"/>
<path d="M874.031 400.602C863.904 382.894 859.944 362.754 855.248 342.896C858.53 362.019 845.405 381.763 835.391 398.396C823.171 418.762 809.537 438.846 790.98 453.725C772.424 468.604 748.154 477.769 724.732 473.583C721.847 473.073 718.962 472.338 716.133 471.546C718.169 486.368 720.263 504.02 720.263 504.02H882.008V455.762C882.008 455.762 902.884 457.402 919.347 445.182C913.803 442.976 908.485 440.034 903.732 436.47C891.173 427.135 881.725 414.236 874.031 400.659V400.602Z" fill="#EED425"/>
<path d="M709.569 376.558C704.251 398.735 691.522 418.592 682.131 439.298C690.051 441.788 699.216 443.768 709.569 444.729C709.286 441.618 708.721 438.563 708.211 435.508C705.1 415.99 705.553 395.906 709.513 376.558H709.569Z" fill="#EED425"/>
<path d="M855.248 342.896C855.248 342.896 851.061 381.536 853.833 408.352C856.606 435.169 873.691 455.931 873.691 455.931C924.551 456.384 933.32 427.757 933.32 427.757C923.589 397.264 906.956 349.176 884.779 335.881C862.602 322.586 822.661 325.811 822.661 325.811C823.849 356.983 818.701 373.22 811.742 383.856C804.784 394.492 787.698 414.349 768.293 393.077C748.888 371.806 754.093 325.811 754.093 325.811C734.349 325.075 715.623 329.318 698.99 338.144C682.357 346.97 670.816 371.353 665.272 389.4C659.728 407.447 649.092 422.949 649.092 422.949C649.092 422.949 674.494 442.976 710.531 444.843" stroke="#ADAD3D" stroke-width="5" stroke-linecap="round" stroke-linejoin="round"/>
<path d="M710.589 378.312C710.589 378.312 703.63 404.675 710.589 438.846C717.547 473.017 720.32 504.019 720.32 504.019H882.065V455.761" stroke="#ADAD3D" stroke-width="5" stroke-linecap="round" stroke-linejoin="round"/>
<path d="M739.724 326.207C737.801 342.048 739.102 358.285 743.458 373.616C745.608 381.141 748.324 388.721 752.227 395.51C755.848 401.79 760.713 407.108 766.88 410.842C772.707 414.406 779.439 416.499 786.285 416.895C793.017 417.291 799.75 415.82 805.86 412.879C811.913 409.993 817.174 405.637 821.191 400.263C825.604 394.379 828.093 387.251 829.621 380.066C831.261 372.372 831.884 364.451 832.619 356.644C833.355 348.554 833.92 340.407 834.203 332.26C834.26 330.167 834.373 328.017 834.373 325.924C834.373 324.114 831.601 324.114 831.544 325.924C831.374 333.958 830.978 341.991 830.356 350.025C829.734 357.775 829.111 365.583 827.98 373.277C826.905 380.348 825.321 387.477 821.927 393.87C818.872 399.584 814.402 404.449 808.971 407.957C803.653 411.408 797.487 413.614 791.15 414.067C784.757 414.519 778.251 413.331 772.424 410.616C766.597 407.9 761.109 403.544 757.262 398.113C752.906 391.946 750.021 384.761 747.645 377.576C742.836 362.867 740.913 347.309 741.987 331.921C742.101 329.998 742.327 328.131 742.553 326.264C742.779 324.397 741.818 324.849 741.139 324.849C740.46 324.849 739.838 325.528 739.724 326.264V326.207Z" fill="#ADAD3D"/>
<path d="M721.733 509.676C750.585 507.639 782.832 504.244 811.685 502.208C816.437 501.868 826.621 502.377 831.034 500.624C845.913 494.683 850.269 506.225 865.317 500.624C868.146 499.605 887.212 483.934 889.814 482.463C895.528 479.352 882.459 448.18 883.365 441.504C880.536 441.504 878.329 441.617 877.651 441.108C875.897 439.693 873.068 429.85 866.449 434.828C859.83 439.807 844.385 460.909 836.804 464.529C829.223 468.15 811.346 475.279 774.856 468.659C738.365 462.097 699.951 462.097 684.733 471.262C675.794 476.636 664.762 481.671 658.709 488.517C672.739 497.682 671.664 507.13 688.524 507.299C696.104 507.413 714.208 510.241 721.733 509.676Z" fill="#B268FF"/>
<path d="M896.15 458.702C892.247 454.176 903.675 452.196 897.282 445.804C893.378 441.956 887.664 441.504 883.365 441.504C882.46 448.18 880.083 454.629 874.369 457.741C871.71 459.155 868.712 459.664 865.883 460.683C850.891 466.283 845.064 486.028 830.129 491.968C825.716 493.722 820.907 494.061 816.155 494.401C787.302 496.437 758.506 498.531 729.653 500.567C722.129 501.133 714.548 501.642 706.967 501.529C690.051 501.303 672.626 497.625 658.653 488.46C655.598 491.855 653.787 495.758 654.127 500.398C655.145 514.258 674.324 517.596 728.691 513.07C783.059 508.544 831.713 502.491 846.365 504.584C861.018 506.677 878.273 507.922 885.515 506.112C892.756 504.358 897.395 502.434 892.926 493.099C892.926 493.099 897.508 487.499 897.508 484.557C897.508 481.615 891.568 477.655 895.415 472.167C899.262 466.679 899.997 463.172 896.037 458.646L896.15 458.702Z" fill="#9356D4"/>
<path d="M882.288 440.486C880.931 440.316 879.403 440.373 878.102 439.807C876.688 439.185 876.631 437.657 876.065 436.413C874.764 433.64 871.426 432.396 868.541 432.735C865.09 433.188 862.205 435.451 859.715 437.77C857.226 440.146 855.076 442.919 853.04 445.691C849.023 451.065 845.232 456.723 839.801 460.739C834.483 464.7 828.26 467.302 821.811 468.83C806.762 472.394 791.204 469.848 776.212 467.415C761.22 464.926 746.115 462.833 730.896 462.606C716.13 462.38 701.138 464.021 687.108 468.886C685.354 469.508 683.657 470.131 681.903 470.866C680.149 471.602 680.715 471.828 680.941 472.62C681.168 473.412 681.96 473.921 682.695 473.582C696.443 467.924 711.265 465.661 726.087 465.435C741.08 465.209 756.072 467.019 770.894 469.395C786.226 471.885 801.84 474.94 817.398 472.62C823.961 471.658 830.41 469.678 836.237 466.51C842.234 463.229 846.986 458.703 851.06 453.328C855.133 447.954 858.81 441.844 864.298 437.77C866.617 436.073 869.955 434.546 872.614 436.526C873.859 437.431 873.916 438.958 874.594 440.26C875.33 441.561 876.574 442.409 877.989 442.805C879.403 443.201 880.931 443.258 882.402 443.371C883.873 443.484 883.816 442.636 883.816 441.957C883.816 441.278 883.137 440.599 882.402 440.543L882.288 440.486Z" fill="#4A177F"/>
<path d="M652.881 497.173C652.485 503.114 652.881 510.298 659.274 512.844C662.669 514.202 666.629 514.315 670.25 514.711C674.436 515.164 678.623 515.503 682.809 515.73C699.668 516.691 716.527 515.447 733.33 514.089C750.189 512.675 767.048 511.26 783.85 509.846L809.026 507.753C817.455 507.074 825.885 506.169 834.314 505.829C838.444 505.659 842.574 505.659 846.648 505.999C850.664 506.282 854.625 506.961 858.641 507.696C866.335 508.997 874.143 510.412 881.893 509.28C883.76 508.997 885.627 508.545 887.438 507.922C889.248 507.3 888.399 504.584 886.702 505.207C879.404 507.696 871.653 506.961 864.129 505.773C856.322 504.528 848.684 503.057 840.764 502.944C832.844 502.831 824.527 503.679 816.437 504.358L791.771 506.451L742.608 510.581C726.145 511.939 709.682 513.58 693.219 513.353C685.015 513.24 676.869 512.731 668.722 511.769C665.497 511.373 661.198 511.43 658.539 509.224C656.332 507.413 655.767 504.415 655.654 501.699C655.597 500.172 655.654 498.701 655.767 497.173C655.88 495.363 653.051 495.363 652.938 497.173H652.881Z" fill="#4A177F"/>
<path d="M879.799 442.522L885.909 443.145C887.663 443.314 889.417 443.484 891.171 443.88C893.886 444.502 897.281 446.313 897.337 449.537C897.394 452.762 896.658 452.083 896.036 453.271C895.414 454.459 894.565 456.1 894.565 457.627C894.565 459.268 895.414 460.569 896.489 461.757C896.941 462.267 897.507 462.719 897.903 463.285C898.299 463.851 898.186 463.737 898.299 463.964C898.412 464.19 898.469 464.643 898.469 464.416C898.469 464.643 898.469 464.869 898.469 465.095C898.469 465.491 898.525 464.812 898.469 465.265C898.412 465.718 898.469 465.491 898.412 465.604C898.355 465.887 898.299 466 898.242 466.114C898.129 466.396 897.959 466.623 897.846 466.906C897.281 467.867 896.658 468.546 896.036 469.395C894.622 471.149 893.037 473.185 893.207 475.561C893.32 477.259 894.282 478.447 895.244 479.748C896.206 481.049 896.432 482.124 896.375 483.538C896.375 484.726 895.923 485.971 895.244 486.933C894.565 487.895 892.755 488.913 892.076 490.384C891.114 492.364 891.849 494.287 892.698 496.154C893.547 498.021 893.83 499.153 893.434 500.794C892.641 504.018 889.247 505.829 886.079 504.867C884.325 504.358 883.59 507.073 885.343 507.582C888.794 508.601 892.641 507.413 894.735 504.527C895.753 503.113 896.319 501.416 896.432 499.662C896.489 497.795 895.81 496.154 895.074 494.457C894.339 492.76 894.452 493.043 894.452 492.307C894.452 491.572 894.961 491.063 895.47 490.61C896.715 489.479 897.79 488.46 898.469 486.933C899.826 483.821 899.317 480.427 897.281 477.768C895.244 475.109 896.319 476.58 896.093 475.844C895.866 475.109 896.036 475.561 895.979 475.448C895.979 475.731 895.979 475.279 895.979 475.279C895.979 475.165 895.979 475.052 895.979 474.939C895.979 474.826 895.979 474.826 895.979 474.939C895.979 474.826 895.979 474.769 895.979 474.656C896.149 474.034 896.206 473.921 896.489 473.412C896.771 472.902 897.111 472.393 897.507 471.884C898.808 470.13 900.788 468.15 901.184 465.831C901.41 464.473 901.184 463.059 900.392 461.927C899.6 460.739 898.186 459.834 897.62 458.533C897.054 457.345 897.733 456.1 898.299 455.025C899.091 453.554 899.94 452.027 900.109 450.329C900.618 446.143 897.111 442.862 893.434 441.56C891.397 440.825 889.134 440.655 886.984 440.429C884.834 440.203 882.175 439.92 879.799 439.693C879.064 439.637 878.385 440.372 878.385 441.108C878.385 441.843 879.064 442.466 879.799 442.522Z" fill="#4A177F"/>
<path d="M539.451 511.147C539.564 510.128 538.093 520.086 542.563 523.197C547.032 526.309 668.723 531.91 668.723 531.91C668.723 531.91 673.758 532.192 689.033 530.382C704.308 528.572 768.067 520.934 769.99 519.972C771.914 519.011 777.345 514.202 777.345 514.202L668.44 498.983L539.451 511.203V511.147Z" fill="#3C3C3B"/>
<path d="M508.844 409.314L524.175 479.975C524.175 479.975 529.776 513.694 533.001 515.674C536.226 517.654 537.47 517.88 551.105 518.729C564.739 519.577 672.06 527.837 674.606 525.291C677.152 522.802 679.019 524.273 675.002 504.019C673.757 497.74 671.155 483.822 668.1 467.473C665.837 468.321 653.843 422.213 651.524 422.892C618.371 432.849 521.064 430.303 508.787 409.258L508.844 409.314Z" fill="#3C3C3B"/>
<path d="M643.434 377.236C639.248 377.236 508.165 375.709 508.165 375.709C508.165 375.709 502.847 377.463 502.678 381.027L508.788 409.314C521.064 430.36 539.055 448.067 560.496 459.608C590.99 476.015 628.046 479.749 661.198 469.792C663.461 469.113 665.781 468.321 668.044 467.472C661.198 431.095 652.09 382.837 650.506 380.97C648.186 378.311 647.564 377.237 643.377 377.18L643.434 377.236Z" fill="#575756"/>
<path d="M502.677 383.629L531.417 512.335C531.926 515.39 534.529 517.71 537.64 517.88L670.872 526.309C675.285 526.592 678.736 522.632 677.887 518.276L651.184 382.611C650.619 379.613 648.073 377.406 645.018 377.18L509.806 375.652C505.45 375.37 501.999 379.217 502.734 383.516L502.677 383.629Z" stroke="#1D1D1B" stroke-width="5" stroke-linecap="round" stroke-linejoin="round"/>
<path d="M502.678 381.027L643.434 382.555" stroke="#1D1D1B" stroke-width="5" stroke-linecap="round" stroke-linejoin="round"/>
<path d="M673.588 523.48L645.641 385.553" stroke="#1D1D1B" stroke-width="5" stroke-linecap="round" stroke-linejoin="round"/>
<path d="M675.511 524.782L777.344 514.146L675.002 500.625" stroke="#1D1D1B" stroke-width="5" stroke-linecap="round" stroke-linejoin="round"/>
<path d="M777.345 514.146C774.347 518.106 769.877 520.708 764.955 521.274L673.588 532.136L544.882 523.82C541.827 523.593 539.451 521.104 539.451 517.993" stroke="#1D1D1B" stroke-width="5" stroke-linecap="round" stroke-linejoin="round"/>
<path d="M673.191 525.347L672.965 531.853C672.965 532.589 673.644 533.324 674.379 533.268C675.115 533.211 675.737 532.645 675.794 531.853L676.02 525.347C676.02 524.612 675.341 523.876 674.605 523.933C673.87 523.989 673.248 524.555 673.191 525.347Z" fill="#1D1D1B"/>
<path d="M677.831 518.332L730.954 512.674L675.342 505.603" stroke="#1D1D1B" stroke-width="5" stroke-linecap="round" stroke-linejoin="round"/>
<path d="M679.189 513.92L699.669 511.034C700.405 510.921 700.857 509.959 700.631 509.281C700.405 508.489 699.669 508.206 698.877 508.319L678.397 511.204C677.662 511.317 677.209 512.279 677.436 512.958C677.662 513.75 678.397 514.033 679.189 513.92Z" fill="#1D1D1B"/>
<path d="M605.189 440.486C605.359 441.561 605.189 442.636 604.793 443.315L600.607 450.67C600.381 451.122 599.985 451.518 599.589 451.801C599.136 452.084 598.683 452.254 598.118 452.367C597.552 452.424 596.986 452.367 596.42 452.254C595.855 452.084 595.289 451.858 594.78 451.518H594.723C594.101 451.066 593.592 450.557 593.139 449.934C592.743 449.312 592.46 448.69 592.291 448.011L591.725 445.182C590.424 445.182 589.349 445.691 588.613 446.596C587.878 447.502 587.651 448.746 587.878 449.991L592.121 471.319C592.63 473.865 591.159 476.072 588.67 476.185C588.047 476.185 587.425 476.128 586.803 475.845C586.181 475.619 585.558 475.279 585.049 474.827C584.54 474.374 584.031 473.865 583.691 473.243C583.352 472.677 583.069 471.998 582.956 471.376L578.486 449.934C578.09 448.067 578.09 446.2 578.486 444.447C578.826 442.693 579.561 441.109 580.636 439.808C581.711 438.45 583.069 437.431 584.71 436.696C586.294 435.961 588.104 435.621 590.028 435.621H599.589C602.417 435.621 604.737 437.601 605.189 440.373V440.486Z" fill="white"/>
<path d="M574.073 440.373V440.487C574.639 443.089 572.998 445.182 570.396 445.182H563.155C560.552 445.182 558.006 443.089 557.441 440.487V440.373C556.818 437.771 558.459 435.678 561.061 435.678H568.359C570.962 435.678 573.508 437.771 574.073 440.373Z" fill="white"/>
<path d="M781.813 97.1378C800.087 109.414 818.473 121.578 836.973 133.572C860.282 148.733 883.817 163.726 908.822 176.002C919.288 181.15 930.151 185.846 941.635 188.052C945.595 188.788 957.306 191.277 959.399 186.695C960.474 184.375 960.022 178.378 959.739 175.889C959.343 171.702 957.929 167.573 955.552 164.065C950.97 157.276 943.389 153.259 937.109 148.055C928.397 140.87 921.947 131.365 913.857 123.501C907.747 117.561 900.732 112.583 893.717 107.661C880.139 98.043 866.279 88.3123 850.494 82.9378C837.369 78.4684 823.395 77.1672 809.648 75.074C796.41 73.0373 780.173 68.7942 766.991 73.1504C752.734 77.8461 777.061 93.9697 781.813 97.1944V97.1378Z" fill="#C3AF5B"/>
<path d="M781.078 98.382C797.428 109.357 813.834 120.22 830.297 130.969C846.138 141.322 861.979 151.618 878.272 161.179C886.362 165.931 894.622 170.457 902.995 174.757C911.255 178.944 919.684 183.017 928.453 186.015C935.016 188.278 941.861 189.975 948.82 190.654C951.479 190.937 954.364 191.05 956.967 190.258C958.098 189.919 959.173 189.353 959.965 188.448C960.87 187.373 961.153 186.015 961.323 184.657C961.662 181.659 961.436 178.547 961.153 175.606C960.701 171.249 959.286 167.006 956.797 163.386C952.214 156.653 945.03 152.637 938.863 147.658C932.131 142.284 926.756 135.495 921.099 129.102C918.213 125.82 915.158 122.652 911.877 119.767C908.483 116.712 904.805 113.94 901.128 111.224C893.887 105.963 886.589 100.758 879.064 95.8928C871.653 91.084 863.959 86.7278 855.699 83.3899C838.783 76.5444 820.284 75.5827 802.463 72.4711C794.033 71.0002 785.377 69.4727 776.778 69.9818C772.931 70.2081 768.801 70.7739 765.237 72.358C763.483 73.15 761.843 74.4512 761.334 76.3747C760.259 80.3349 763.823 84.2951 766.312 86.8409C769.65 90.2354 773.497 93.1772 777.401 95.9493C778.589 96.798 779.833 97.6466 781.078 98.4386C782.322 99.2306 784.02 97.0243 782.492 96.0059C779.494 93.9693 776.495 91.876 773.667 89.613C770.838 87.3501 766.595 83.8991 764.671 80.1086C762.748 76.3181 764.445 79.5994 764.275 79.2034C764.106 78.8074 764.049 78.468 763.992 78.1285C763.992 78.468 763.992 77.9022 763.992 77.7891C763.992 77.6193 763.992 77.5062 763.992 77.3365C763.992 77.7325 763.992 77.1668 764.049 77.0536C764.106 76.9405 764.049 76.9405 764.106 76.8273C764.219 76.4879 763.992 77.0536 764.106 76.7707C764.445 76.0918 764.785 75.809 765.463 75.3564C766.538 74.6775 767.726 74.3381 769.028 73.9986C776.948 71.8488 785.434 72.5843 793.468 73.7723C797.541 74.3946 801.614 75.1301 805.688 75.809C809.987 76.5444 814.287 77.1102 818.586 77.7325C827.469 78.9771 836.407 80.2783 845.12 82.711C861.866 87.4067 876.405 97.1374 890.492 107.038C897.734 112.13 905.088 117.165 911.594 123.218C917.704 128.932 922.852 135.608 928.566 141.718C931.395 144.716 934.394 147.601 937.618 150.147C940.673 152.523 943.841 154.673 946.896 157.106C949.895 159.482 952.78 162.141 954.873 165.422C956.967 168.704 958.155 172.607 958.494 176.511C958.72 179.34 959.06 182.451 958.494 185.223C958.268 186.185 957.928 186.638 957.136 187.09C956.344 187.543 955.156 187.769 954.195 187.826C951.536 188.052 948.82 187.769 946.161 187.316C943.276 186.864 940.447 186.298 937.618 185.563C928.906 183.413 920.646 179.905 912.556 176.058C904.296 172.098 896.263 167.855 888.286 163.386C872.445 154.447 857.057 144.716 841.782 134.816C825.828 124.463 809.931 113.996 794.09 103.417C790.299 100.871 786.452 98.3255 782.662 95.7796C778.871 93.2338 779.72 97.194 781.248 98.2123L781.078 98.382Z" fill="#827C5D"/>
<path d="M695.651 332.146C694.293 335.824 692.086 343.292 692.765 351.212C692.935 344.649 693.727 338.2 695.651 332.146Z" stroke="#B167FF" stroke-miterlimit="10"/>
<path d="M774.289 328.695C777.061 318.738 782.04 308.555 779.551 298.485C779.268 297.353 778.872 296.165 777.967 295.43C775.873 293.676 772.479 295.43 771.461 297.919C770.386 300.408 762.578 296.618 762.635 299.333C762.918 311.61 752.621 321.906 750.472 334.013C749.057 341.934 751.773 361.565 754.432 369.146C755.563 372.371 766.143 371.465 766.03 374.916C766.03 375.878 765.803 376.896 765.464 377.802C772.536 375.426 773.328 367.053 773.045 360.999C771.008 350.307 771.404 339.162 774.289 328.695Z" fill="#9356D4"/>
<path d="M696.669 329.714C696.669 329.714 696.273 330.619 695.707 332.147C696.386 330.732 696.669 329.714 696.669 329.714Z" stroke="#B167FF" stroke-miterlimit="10"/>
<path d="M701.477 320.152C708.379 310.139 719.411 303.746 727.501 294.694C731.065 290.677 734.234 285.642 733.781 280.268C726.596 281.06 717.714 281.569 713.301 287.283C705.607 297.24 690.558 302.388 683.091 312.515C678.678 318.512 684.505 334.239 683.091 341.481C684.052 341.594 685.071 341.481 686.146 341.141C691.464 339.274 694.405 334.862 695.707 332.089C697.064 327.903 698.931 323.886 701.477 320.152Z" fill="#9356D4"/>
<path d="M741.928 291.074C739.099 290.564 735.648 288.811 733.781 291.017C719.185 308.216 696.612 325.81 696.159 348.383C696.046 353.362 704.815 364.28 704.249 369.146C705.664 369.089 707.078 368.523 708.266 367.505C712.905 363.771 714.037 343.914 718.223 336.559C720.43 332.656 722.41 330.562 723.767 329.431C724.503 327.79 725.352 326.15 726.2 324.565C732.31 313.647 741.984 303.52 741.871 290.96L741.928 291.074Z" fill="#9356D4"/>
<path d="M720.204 339.783C718.564 344.649 717.376 350.702 718.111 357.038C718.055 351.211 718.733 345.441 720.204 339.783Z" stroke="#B167FF" stroke-miterlimit="10"/>
<path d="M789.054 379.838C790.808 377.292 793.524 374.464 793.92 371.409C795.164 361.169 796.013 339.727 797.258 329.544C798.276 321.114 795.73 317.211 802.858 312.515C804.273 311.553 810.892 312.289 811.91 310.931C814.06 308.046 851.399 272.8 853.379 270.877C869.333 255.262 876.914 237.441 881.044 215.491C883.646 201.743 894.452 192.408 896.262 178.548C896.715 174.927 890.944 139.908 889.926 136.457C888.795 132.723 879.29 113.827 877.027 110.715C858.075 84.7479 817.341 83.1073 789.337 98.8348C781.304 104.719 773.27 112.413 765.406 122.313C753.696 137.079 736.837 165.649 734.743 195.011C732.593 224.316 735.422 253.848 731.688 262.221C728.011 270.594 727.615 276.081 711.039 284.228C694.463 292.431 679.188 304.425 676.189 318.286C673.587 330.279 676.868 340.802 683.091 341.538C684.505 334.24 687.391 327.281 691.804 321.284C699.271 311.101 710.247 304.029 717.941 294.015C722.354 288.301 726.653 281.06 733.838 280.268C734.347 285.642 731.179 290.678 727.558 294.694C719.468 303.746 708.436 310.139 701.534 320.153C698.988 323.887 697.065 327.903 695.764 332.09C696.329 330.562 696.725 329.657 696.725 329.657C696.725 329.657 696.443 330.675 695.764 332.09C693.84 338.143 692.992 344.593 692.878 351.155C692.992 352.796 693.274 354.493 693.727 356.19C696.16 365.695 700.403 369.372 704.363 369.202C704.929 364.337 704.363 359.076 704.476 354.097C704.929 331.524 720.317 312.402 734.913 295.203C736.78 292.997 739.213 290.564 742.098 291.074C742.211 303.633 732.537 313.703 726.427 324.679C725.522 326.263 724.73 327.903 723.994 329.544C725.182 328.582 725.918 328.412 725.918 328.412C725.918 328.412 722.693 332.995 720.43 339.84C718.959 345.441 718.28 351.268 718.337 357.096C718.62 359.641 719.242 362.244 720.317 364.846C724.39 374.803 731.179 378.877 736.61 379.442C736.101 373.841 743.343 375.03 742.154 369.259C740.514 361.395 741.532 356.077 744.135 348.496C748.717 335.201 749.226 319.021 755.449 306.349C756.92 303.35 756.524 293.337 758.731 295.882C758.9 306.971 750.245 316.023 746.511 326.489C741.476 340.576 745.775 355.907 750.697 370.164C753.639 374.747 757.712 378.876 762.465 378.537C763.653 378.424 764.728 378.254 765.689 377.915C766.029 377.01 766.255 375.991 766.255 375.03C766.368 371.635 764.897 368.354 763.766 365.129C761.107 357.548 760.088 349.345 761.503 341.424C763.653 329.318 771.403 318.342 771.064 306.066C771.007 303.35 770.555 300.521 771.63 298.032C772.704 295.543 776.099 293.789 778.136 295.543C779.041 296.278 779.437 297.466 779.72 298.598C782.209 308.668 777.23 318.795 774.458 328.808C771.573 339.275 771.177 350.42 773.214 361.112C773.214 360.829 773.214 360.603 773.214 360.377C772.987 356.417 774.402 363.375 777.344 370.617C777.457 370.73 777.626 370.786 777.74 370.9C780.455 372.314 787.527 382.497 789.281 380.008L789.054 379.838Z" fill="#B167FF"/>
<path d="M746.227 326.375C749.961 315.909 758.674 306.857 758.447 295.769C756.241 293.223 752.45 296.617 750.979 299.672C744.813 312.345 739.382 325.357 734.799 338.709C732.197 346.29 729.821 354.38 731.405 362.243C732.593 367.957 735.874 373.784 736.383 379.385C740.74 379.838 744.247 378.141 744.87 375.538C746.34 369.655 744.87 358.623 744.87 358.623C744.87 358.623 746.906 364.676 750.414 370.107C745.492 355.851 741.192 340.462 746.227 326.432V326.375Z" fill="#9356D4"/>
<path d="M929.415 170.967C927.321 141.096 916.799 107.377 891.567 95.1008C870.521 84.8609 829.731 69.2465 789.337 98.7781C816.38 100.249 843.365 109.923 862.657 128.819C865.429 131.535 868.145 134.59 869.276 138.267C870.295 141.774 869.899 145.508 869.39 149.129C867.579 162.99 865.373 176.794 862.77 190.541C858.64 212.492 852.757 235.518 836.803 251.132C834.823 253.056 832.673 254.923 831.711 257.525C830.806 259.958 831.145 262.673 830.919 265.332C830.523 270.254 827.977 274.95 824.074 277.948C817.964 282.757 808.007 284.681 806.762 292.375C806.196 295.939 807.78 300.012 805.631 302.897C804.612 304.255 802.972 304.991 801.557 305.952C794.429 310.648 792.788 320.152 791.77 328.639C790.525 338.879 789.281 349.062 788.093 359.302C787.697 362.357 787.301 365.525 785.547 368.071C783.793 370.617 780.285 372.201 777.57 370.73C777.4 370.673 777.287 370.56 777.174 370.447C779.324 375.765 782.265 381.309 785.943 382.78C794.599 386.288 798.333 384.817 797.484 374.35C796.635 363.828 797.314 345.95 797.314 345.95C797.314 345.95 810.043 345.95 819.095 340.236C828.204 334.466 842.856 322.246 848.627 312.515C854.397 302.841 855.699 287.849 846.081 285.755L851.116 271.725C851.116 271.725 878.951 261.485 897.79 242.42C916.629 223.298 931.564 200.838 929.471 170.91L929.415 170.967Z" fill="#9356D4"/>
<path d="M699.78 324.509C694.858 332.203 689.767 343.518 683.317 340.746C676.868 337.974 674.379 330.562 677.49 317.041C680.545 303.463 695.368 292.997 716.64 281.004C737.911 269.01 732.989 247.116 732.65 229.238C730.67 113.657 813.664 86.2756 813.664 86.2756C833.691 78.5815 916.233 73.0372 928.283 155.918C940.277 238.799 854.624 272.235 844.157 273.932" stroke="#4A177F" stroke-width="5" stroke-linecap="round" stroke-linejoin="round"/>
<path d="M733.102 282.135C730.67 288.019 725.917 292.545 721.448 296.845C716.639 301.484 711.83 306.179 707.474 311.271C698.875 321.398 692.029 333.505 691.464 347.082C691.294 350.364 691.577 353.701 692.312 356.983C692.991 359.981 693.953 363.093 695.707 365.695C697.461 368.298 699.95 370.221 703.118 370.561C706.116 370.9 708.945 369.599 710.416 366.996C711.265 365.525 711.774 363.772 712.283 362.131C712.792 360.49 713.245 358.68 713.641 356.926C714.433 353.532 715.055 350.081 715.96 346.686C717.544 340.859 720.203 335.485 723.372 330.393C729.538 320.492 737.402 311.384 741.249 300.182C741.702 298.825 742.098 297.467 742.437 296.052C742.776 294.638 740.117 293.507 739.721 295.317C737.119 306.462 729.878 315.571 723.654 324.849C720.486 329.601 717.488 334.466 715.338 339.784C712.792 346.007 711.944 352.683 710.246 359.189C709.794 360.83 709.341 362.414 708.775 363.998C708.21 365.582 707.757 366.431 706.626 367.11C704.646 368.298 701.93 367.675 700.176 366.261C697.913 364.451 696.725 361.622 695.877 358.963C695.028 356.304 694.462 353.023 694.406 349.911C694.01 337.069 700.006 325.132 707.87 315.344C715.734 305.557 716.583 305.557 721.278 301.031C725.804 296.675 730.613 292.375 733.894 286.944C734.686 285.643 735.365 284.285 735.931 282.814C736.497 281.343 735.592 281.287 734.969 281.06C734.347 280.834 733.498 281.343 733.215 282.022L733.102 282.135Z" fill="#4A177F"/>
<path d="M739.664 295.317C738.703 301.144 736.327 306.519 733.385 311.61C732.027 313.93 730.613 316.193 729.255 318.512C727.784 321.002 726.483 323.604 725.182 326.206C719.241 337.974 713.754 351.948 718.732 365.073C720.712 370.278 724.389 374.917 729.255 377.689C734.007 380.404 741.645 381.932 745.548 377.067C749.904 371.579 746.849 364.62 745.435 358.68C743.851 352.061 743.285 345.046 744.473 338.313C746.68 325.98 754.657 315.74 758.051 303.803C758.447 302.389 758.786 300.918 759.013 299.447C759.126 298.712 758.786 297.919 758.051 297.693C757.316 297.467 756.41 297.919 756.297 298.655C754.317 310.536 746.849 320.493 743.229 331.807C741.192 338.144 740.683 344.819 741.362 351.382C742.041 357.945 742.38 358.114 743.285 361.452C744.134 364.507 745.265 367.619 745.039 370.787C744.869 373.22 743.738 375.709 741.418 376.727C738.986 377.802 736.1 377.293 733.668 376.501C728.859 374.86 724.955 371.013 722.579 366.6C719.75 361.226 719.241 354.833 720.09 348.893C720.995 342.387 723.484 336.164 726.37 330.28C727.727 327.451 729.142 324.679 730.613 321.963C731.801 319.757 733.158 317.664 734.403 315.514C737.232 310.762 739.947 305.783 741.475 300.409C741.871 298.938 742.21 297.467 742.437 295.996C742.55 295.261 742.267 294.468 741.475 294.242C740.683 294.016 739.834 294.468 739.721 295.204L739.664 295.317Z" fill="#4A177F"/>
<path d="M749.057 318.06C744.814 327.451 742.891 337.917 743.626 348.213C744.305 357.661 746.907 368.014 753.753 374.973C756.978 378.254 761.786 381.253 766.482 379.442C770.895 377.802 773.497 373.389 774.233 368.92C774.968 364.45 774.572 363.489 774.459 360.773C774.289 358.057 774.12 355.285 773.95 352.57C773.667 347.082 773.554 341.594 774.12 336.107C774.685 330.789 776.269 325.754 777.853 320.718C779.438 315.74 781.022 310.648 780.908 305.387C780.908 304.086 780.739 302.784 780.512 301.54C780.399 300.804 779.438 300.352 778.759 300.578C777.967 300.804 777.627 301.54 777.797 302.332C778.646 307.141 777.571 311.949 776.213 316.589C774.798 321.397 772.988 326.093 772.026 331.015C769.99 341.425 771.178 351.891 771.63 362.414C771.8 366.826 771.63 371.748 768.292 375.03C767.048 376.274 765.351 377.236 763.54 377.236C761.39 377.236 759.41 376.218 757.713 374.916C750.641 369.485 747.699 359.924 746.681 351.438C745.493 341.821 746.681 331.92 750.076 322.812C750.472 321.737 750.924 320.605 751.433 319.587C751.773 318.908 751.66 318.059 750.924 317.663C750.189 317.267 749.284 317.494 749.001 318.173L749.057 318.06Z" fill="#4A177F"/>
<path d="M771.064 338.935C771.121 347.082 772.366 355.342 774.233 363.262C775.081 366.996 776.156 370.673 777.684 374.124C779.211 377.519 781.248 380.857 784.133 383.233C787.131 385.665 792.28 388.098 795.618 384.986C798.955 381.875 799.069 376.84 798.729 372.71C798.559 370.447 798.277 368.184 798.107 365.864C797.937 363.488 797.824 361.056 797.824 358.623C797.824 353.871 798.05 349.062 798.616 344.31C799.747 334.805 802.124 325.357 805.575 316.419C805.971 315.344 806.423 314.269 806.876 313.194C807.159 312.515 807.102 311.666 806.367 311.27C805.631 310.874 804.726 311.044 804.443 311.78C800.766 320.379 798.107 329.374 796.579 338.596C795.052 347.817 794.599 357.209 795.335 366.487C795.674 370.56 796.636 374.973 795.674 379.046C794.712 383.12 794.486 382.893 792.845 383.516C791.205 384.138 791.035 383.516 790.186 383.346C789.338 383.176 788.602 382.78 787.867 382.384C784.869 380.687 782.775 377.858 781.191 374.86C779.551 371.692 778.476 368.297 777.57 364.903C775.59 357.322 774.346 349.401 774.006 341.538C774.006 340.689 773.95 339.84 773.95 338.992C773.95 337.181 771.121 337.181 771.121 338.992L771.064 338.935Z" fill="#4A177F"/>
<path d="M806.084 313.93C809.818 313.364 813.495 312.289 817.059 310.988C820.623 309.687 824.188 308.159 827.469 306.122C828.996 305.161 827.582 302.728 826.055 303.69C822.943 305.613 819.549 307.084 816.098 308.329C812.646 309.573 809.026 310.648 805.348 311.214C804.613 311.327 804.16 312.289 804.387 312.968C804.613 313.647 805.348 314.043 806.14 313.93H806.084Z" fill="#4A177F"/>
<path d="M829.844 298.372C822.772 304.426 821.584 314.156 820.622 322.869C820.565 323.604 821.357 324.283 822.036 324.283C822.715 324.283 823.394 323.604 823.451 322.869C824.299 314.892 825.374 305.953 831.824 300.352C832.389 299.843 832.333 298.881 831.824 298.372C831.258 297.806 830.409 297.863 829.844 298.372Z" fill="#4A177F"/>
<path d="M797.258 347.421C811.798 347.421 825.319 339.784 835.672 329.996C841.047 324.905 845.969 319.021 849.589 312.515C852.757 306.858 855.077 300.182 853.436 293.676C851.796 287.17 851.343 288.188 849.193 286.265C847.043 284.341 843.649 283.21 840.481 283.549C839.745 283.662 839.067 284.115 839.067 284.963C839.067 285.812 839.745 286.491 840.481 286.378C841.839 286.208 843.027 286.265 844.215 286.604C845.403 286.944 845.12 286.887 845.629 287.17C846.138 287.453 846.647 287.792 846.987 288.075C848.684 289.546 849.816 291.469 850.438 293.563C851.117 295.769 851.343 297.862 851.06 300.238C851.06 299.956 851.06 300.408 851.06 300.408C851.06 300.634 851.004 300.861 850.947 301.144C850.89 301.54 850.777 301.936 850.721 302.332C850.494 303.293 850.212 304.199 849.929 305.104C849.363 306.801 848.628 308.498 847.779 310.082C844.554 316.249 840.028 321.85 835.05 326.772C830.184 331.637 824.64 335.88 818.53 339.048C811.968 342.443 804.783 344.593 797.371 344.649C795.561 344.649 795.561 347.478 797.371 347.478L797.258 347.421Z" fill="#4A177F"/>
<path d="M847.212 285.586C848.344 283.436 849.249 281.173 850.097 278.91C850.946 276.704 851.795 274.441 852.36 272.178C852.813 270.424 850.097 269.689 849.645 271.442C849.079 273.649 848.23 275.855 847.438 278.005C846.646 280.155 845.798 282.191 844.723 284.171C843.648 286.151 846.307 287.226 847.155 285.586H847.212Z" fill="#4A177F"/>
<path d="M902.372 171.702C899.657 171.872 897.054 173.399 895.697 175.775C894.339 178.152 894.509 181.093 896.093 183.356C897.79 185.732 900.562 186.921 903.391 186.185C906.389 185.393 908.539 182.791 909.161 179.792C909.501 178.095 909.614 176.115 908.539 174.644C907.577 173.286 906.05 172.664 904.522 172.155C903.787 171.928 902.995 172.438 902.768 173.116C902.542 173.909 903.051 174.587 903.73 174.87C904.579 175.153 905.484 175.436 906.05 176.058C906.615 176.681 906.559 177.812 906.446 178.604C906.163 180.528 905.088 182.395 903.278 183.187C902.372 183.583 901.411 183.639 900.505 183.413C899.6 183.187 900.223 183.356 900.109 183.243C899.996 183.13 899.713 183.074 899.544 182.96C899.204 182.734 898.921 182.508 898.638 182.168C898.129 181.546 897.733 180.811 897.564 179.962C897.394 179.113 897.564 179.849 897.564 179.566C897.564 179.283 897.564 179.113 897.564 178.944C897.564 178.774 897.733 178.095 897.903 177.699C898.638 176.002 900.505 174.701 902.316 174.587C904.126 174.474 903.73 173.965 903.73 173.173C903.73 172.381 903.108 171.702 902.316 171.759L902.372 171.702Z" fill="#4A177F"/>
<path d="M913.234 150.487C909.613 149.978 906.898 152.523 905.709 155.805C904.691 158.633 904.295 162.367 907.067 164.404C909.274 166.045 912.498 165.536 914.761 164.291C917.024 163.046 919.344 160.104 919.4 157.049C919.457 153.938 917.307 150.713 914.196 150.147C913.46 149.978 912.668 150.374 912.442 151.109C912.215 151.845 912.668 152.693 913.404 152.863C914.139 153.033 914.139 153.033 914.535 153.259C914.931 153.485 915.214 153.768 915.553 154.164C915.893 154.56 916.402 155.578 916.515 156.427C916.572 157.163 916.402 158.181 916.006 158.973C915.553 159.878 914.931 160.614 914.139 161.236C913.347 161.858 912.555 162.254 911.65 162.481C910.745 162.707 910.066 162.65 909.274 162.481C908.482 162.311 908.651 162.254 908.482 162.085C908.142 161.802 907.972 161.575 907.859 161.066C907.576 160.048 907.746 158.973 908.029 157.955C908.312 156.767 908.764 155.522 909.613 154.617C910.292 153.881 911.423 153.202 912.442 153.372C913.46 153.542 913.969 153.202 914.196 152.41C914.422 151.618 913.969 150.77 913.234 150.657V150.487Z" fill="#4A177F"/>
<path d="M913.122 180.924C912.386 182.168 912.443 183.809 913.178 184.997C913.914 186.185 915.498 187.034 917.025 186.977C920.25 186.864 922.513 183.922 923.135 180.98C923.758 178.038 923.362 177.756 922.513 176.398C921.834 175.266 920.703 174.361 919.402 174.078C917.874 173.739 916.29 173.852 915.045 174.814C913.009 176.398 912.782 179.283 912.895 181.659C912.895 182.395 913.518 183.074 914.31 183.074C915.102 183.074 915.781 182.451 915.724 181.659C915.724 181.093 915.724 180.584 915.724 180.019C915.724 179.453 915.724 179.509 915.781 179.283C915.781 179.283 915.781 179.566 915.781 179.283C915.781 179 915.781 179 915.837 178.887C915.837 178.717 915.95 178.491 916.007 178.321C916.064 178.152 916.233 177.756 916.064 178.095C916.177 177.869 916.347 177.416 916.516 177.246C916.29 177.416 916.347 177.416 916.46 177.36C916.573 177.303 916.573 177.246 916.629 177.19C916.686 177.133 916.686 177.133 916.743 177.077C916.969 176.85 916.743 177.133 916.686 177.077L916.969 176.907C916.969 176.907 917.082 176.907 917.139 176.85C917.421 176.681 916.856 176.964 917.082 176.85C917.308 176.737 917.535 176.794 917.704 176.681C917.478 176.794 917.365 176.681 917.591 176.681C917.817 176.681 917.704 176.681 917.704 176.681C917.817 176.681 917.987 176.681 918.1 176.681C918.213 176.681 918.327 176.681 918.44 176.681C918.157 176.681 918.157 176.681 918.327 176.681C918.496 176.681 918.44 176.681 918.44 176.681C918.553 176.681 918.666 176.681 918.779 176.737C918.892 176.794 918.949 176.737 919.006 176.794C919.288 176.85 918.949 176.737 919.175 176.85C919.402 176.964 919.402 176.964 919.515 177.077C919.345 176.964 919.515 177.077 919.571 177.133C919.628 177.19 919.741 177.303 919.798 177.36C920.08 177.642 919.741 177.246 919.854 177.473C919.967 177.699 920.137 177.925 920.25 178.152C920.25 178.095 920.194 177.925 920.25 178.152C920.307 178.378 920.363 178.548 920.42 178.717C920.42 179 920.42 179.679 920.42 180.019C920.307 180.584 920.137 181.15 919.911 181.603C919.684 182.055 919.684 182.055 919.571 182.282C919.458 182.508 919.458 182.508 919.345 182.621C919.232 182.734 919.119 182.904 919.232 182.734C919.062 182.904 918.892 183.13 918.723 183.3C918.723 183.3 918.383 183.583 918.553 183.47C918.44 183.583 918.327 183.639 918.157 183.696C917.987 183.752 917.931 183.809 917.817 183.866C917.704 183.866 917.704 183.866 917.817 183.866C917.704 183.866 917.648 183.922 917.535 183.979C917.421 183.979 917.308 184.035 917.195 184.092C917.082 184.092 917.082 184.092 917.195 184.092C917.082 184.092 916.969 184.092 916.912 184.092C916.799 184.092 916.686 184.092 916.629 184.092C916.46 184.092 916.46 184.092 916.573 184.092C916.46 184.092 916.403 184.092 916.29 184.035C916.064 184.035 916.12 184.035 916.233 184.035C916.177 184.035 915.724 183.696 915.95 183.866C915.894 183.866 915.837 183.752 915.781 183.696C915.668 183.583 915.668 183.583 915.781 183.696C915.781 183.639 915.668 183.583 915.668 183.47C915.668 183.413 915.611 183.3 915.554 183.243C915.668 183.526 915.554 183.074 915.498 183.017C915.441 182.96 915.498 182.734 915.498 183.017C915.498 183.017 915.498 182.508 915.498 182.734C915.498 182.96 915.498 182.564 915.498 182.564C915.498 182.395 915.498 182.395 915.498 182.564C915.498 182.508 915.554 182.395 915.611 182.338C916.007 181.716 915.724 180.754 915.102 180.415C914.48 180.075 913.574 180.245 913.178 180.924H913.122Z" fill="#4A177F"/>
<path d="M897.959 97.817C898.694 98.3262 919.683 114.902 920.419 115.412C928.679 121.352 936.882 127.349 944.633 133.968C944.633 128.933 943.445 123.954 943.445 120.673C943.445 107.887 927.208 94.5357 908.029 81.75C910.632 90.2361 898.242 88.8783 897.959 97.817Z" fill="#C2AF5A"/>
<path d="M915.045 87.464C913.97 86.7851 912.895 86.0497 911.764 85.3708C890.096 71.9061 871.879 59.4033 854.058 59.573C846.251 59.6296 837.595 62.232 830.354 65.0607C862.205 75.3006 890.831 94.3095 918.156 113.884C918.439 104.945 917.647 96.0067 915.045 87.5206V87.464Z" fill="#ECD26D"/>
<path d="M958.494 164.292C956.514 160.897 946.274 151.393 944.294 149.639C943.049 149.356 941.805 148.904 940.673 148.281C937.222 146.584 934.337 144.038 931.395 141.606C926.586 137.645 903.108 121.861 897.96 118.41C897.451 121.013 898.752 122.88 897.96 125.369C905.258 130.404 928.906 148.564 937.109 155.579C955.1 170.911 959.456 181.999 959.456 181.999C959.456 181.999 960.701 168.026 958.551 164.292H958.494Z" fill="#C2AF5A"/>
<path d="M894.791 117.052C872.671 103.757 850.437 90.3491 826.337 81.1275C821.981 79.4303 817.341 77.7897 814.23 74.2255C813.89 73.8295 813.608 73.49 813.325 73.094C812.193 73.1506 808.968 72.7546 799.917 69.7562C786.226 65.2302 776.382 65.8525 765.576 75.0741C765.576 75.0741 773.27 68.3984 799.917 78.6949C826.506 88.9913 863.732 106.02 885.117 119.372C896.771 126.613 905.767 132.157 914.479 138.211C915.271 135.722 915.893 133.176 916.403 130.573C909.331 125.821 902.033 121.408 894.735 116.996L894.791 117.052Z" fill="#ECD26D"/>
<path d="M897.96 97.8174C897.903 100.307 893.943 105.229 893.716 107.661C893.434 110.773 898.525 115.355 897.96 118.41C903.108 121.861 926.586 137.646 931.395 141.606C934.337 144.038 937.222 146.584 940.673 148.281C941.804 148.847 943.049 149.3 944.294 149.639C944.067 149.47 943.954 149.356 943.954 149.356C943.954 149.356 944.577 141.775 944.577 133.968C936.882 127.406 928.623 121.352 920.363 115.412C919.627 114.903 898.638 98.3265 897.903 97.8174H897.96Z" fill="#44423F"/>
<path d="M826.336 81.1276C850.437 90.3492 872.671 103.701 894.791 117.052C902.089 121.465 909.387 125.878 916.459 130.63C917.025 127.518 917.477 124.407 917.76 121.239C917.986 118.806 918.156 116.317 918.213 113.884C890.831 94.3094 862.261 75.3005 830.41 65.0605C821.075 68.7379 814.06 72.9243 814.06 72.9243C814.06 72.9243 814.06 73.0941 813.438 73.0941C813.72 73.4901 814.003 73.8861 814.343 74.2255C817.398 77.7897 822.037 79.4304 826.45 81.1276H826.336Z" fill="#706E69"/>
<path d="M958.719 188.166C963.811 179.227 942.143 154.561 895.922 125.878C845.005 94.3094 789.789 70.6614 770.893 73.6598C767.386 74.2256 764.84 75.2439 763.256 76.5451" stroke="#827C5D" stroke-width="5" stroke-linecap="round" stroke-linejoin="round"/>
<path d="M765.01 76.4316C771.686 72.4149 778.814 68.1718 786.848 68.285C791.034 68.3415 795.164 69.5296 799.125 70.8874C802.972 72.2452 806.705 73.7161 810.496 75.187C825.488 81.1273 840.141 87.9162 854.454 95.2708C868.767 102.625 882.741 110.602 896.432 119.032C910.123 127.518 923.531 136.4 936.656 145.735C939.881 147.998 943.106 150.261 946.274 152.637C949.216 154.843 952.044 157.276 954.364 160.161C956.683 163.047 958.098 165.988 958.663 169.326C959.173 172.268 958.777 175.38 958.494 178.322C958.324 180.132 958.154 181.942 958.041 183.753C957.928 185.563 960.757 185.563 960.87 183.753C961.04 180.302 961.605 176.851 961.718 173.4C961.832 170.118 961.266 166.95 959.965 163.952C956.853 156.88 950.517 152.184 944.463 147.828C931.055 138.154 917.421 128.876 903.447 120.107C889.473 111.281 875.217 103.021 860.621 95.3274C846.024 87.6333 831.089 80.6181 815.87 74.395C812.08 72.8109 808.233 71.34 804.386 69.8691C800.426 68.3415 796.409 66.8706 792.166 66.0786C787.923 65.2866 783.906 65.3431 779.833 66.3615C775.759 67.3798 772.252 69.1336 768.744 71.0571C765.237 72.9806 765.35 73.0372 763.653 74.0555C762.069 75.0173 763.539 77.45 765.067 76.4882L765.01 76.4316Z" fill="#827C5D"/>
<path d="M812.646 75.1871C818.643 72.0756 824.753 69.2469 830.976 66.701C836.973 64.2118 843.253 61.8357 849.759 61.1568C862.544 59.8556 874.878 65.6261 885.966 71.3401C896.941 76.9409 907.464 83.6167 917.252 91.141C922.06 94.8183 926.643 98.7785 931.112 102.908C933.375 105.002 935.695 107.095 937.618 109.528C939.542 111.96 940.221 113.658 940.956 116.034C942.37 120.786 942.936 125.708 943.049 130.686C943.163 135.382 943.445 140.078 943.049 144.773C942.936 146.301 942.766 147.828 942.597 149.356C942.484 150.091 943.332 150.77 944.011 150.77C944.69 150.77 945.312 150.091 945.425 149.356C946.048 144.208 946.161 139.172 945.935 133.968C945.821 131.478 945.878 128.989 945.652 126.5C945.425 123.841 945.029 121.238 944.464 118.636C943.955 116.26 943.332 113.884 942.257 111.677C940.9 108.849 938.806 106.473 936.6 104.323C932.131 99.91 927.378 95.7235 922.513 91.7633C912.726 83.843 902.203 76.8278 891.114 70.8309C885.457 67.7759 879.686 64.9472 873.69 62.5711C867.523 60.1384 861.017 58.2715 854.341 58.1583C847.552 58.0452 840.99 59.8556 834.71 62.2317C828.317 64.6644 822.037 67.4931 815.871 70.4915C814.343 71.227 812.816 72.019 811.288 72.811C809.648 73.6596 811.119 76.0923 812.703 75.2437L812.646 75.1871Z" fill="#827C5D"/>
<path d="M829.958 67.3795C838.444 68.907 846.421 72.1318 854.115 75.9788C861.809 79.8258 869.39 84.0123 876.801 88.312C891.623 96.9112 905.937 106.303 919.741 116.486C927.491 122.2 935.016 128.14 942.37 134.307C949.725 140.473 943.785 134.872 944.35 134.307C944.86 133.798 944.916 132.779 944.35 132.327C937.675 126.726 930.886 121.351 923.927 116.146C917.025 110.942 909.953 105.963 902.712 101.154C895.527 96.3455 888.172 91.763 880.705 87.3502C873.237 82.9374 865.656 78.7509 857.962 74.7907C850.211 70.8306 842.234 67.2098 833.748 65.2863C832.673 65.06 831.655 64.8337 830.58 64.664C829.505 64.4943 829.052 64.8903 828.826 65.6257C828.6 66.3612 829.052 67.2098 829.788 67.3795H829.958Z" fill="#827C5D"/>
<path d="M905.653 503.057C900.278 492.874 892.924 497.23 893.546 485.689C894.564 467.246 895.866 455.309 900.052 437.318C901.636 430.416 899.6 422.043 900.052 414.971C900.448 407.73 897.45 391.267 896.431 384.082C895.243 375.483 894.847 362.64 892.867 354.211C890.831 345.385 884.211 326.32 877.083 320.719C869.219 314.609 854.567 308.216 845.571 303.916C841.498 301.993 833.125 315.627 830.24 312.233C830.862 316.25 830.353 318.23 825.148 319.022C818.303 320.04 825.318 330.506 821.584 336.164C821.584 336.164 812.475 336.56 818.699 347.196C824.922 357.831 828.995 369.203 841.215 358.001C841.215 358.001 856.32 361.396 863.109 361.792C867.522 362.075 872.953 375.313 873.066 379.047C873.123 382.837 870.238 401.394 867.013 427.7C863.788 454.064 857.056 490.045 870.52 508.771C878.215 519.52 885.399 525.121 892.867 526.083C887.04 522.179 908.991 509.167 905.71 502.944L905.653 503.057Z" fill="#9356D4"/>
<path d="M910.292 520.821C924.945 510.977 907.067 411.803 907.067 411.803C907.067 411.803 897.336 352.287 890.774 333.052C884.211 313.817 874.537 287.114 860.676 300.578L857.621 298.655C857.621 298.655 846.25 286.095 842.799 291.583C839.348 297.071 842.233 298.824 836.463 301.144C830.749 303.464 827.977 300.861 829.334 307.876C829.674 309.517 829.957 310.988 830.183 312.233C833.068 315.684 836.689 318.512 840.706 320.436C849.701 324.679 860.676 324.679 868.484 330.789C875.612 336.333 878.497 345.724 880.591 354.55C882.571 362.979 884.155 371.522 885.343 380.065C886.361 387.25 887.097 394.491 886.644 401.733C886.248 408.804 884.72 415.706 883.136 422.609C879.006 440.599 874.141 458.646 873.123 477.089C872.5 488.574 873.462 500.511 878.78 510.751C882.061 516.974 886.927 522.235 892.754 526.139C898.298 526.818 904.012 525.008 910.292 520.821Z" fill="#B167FF"/>
<path d="M825.884 346.969C830.014 352.966 835.898 357.548 842.687 360.32C846.025 361.678 849.589 362.527 853.21 362.81C857.057 363.149 861.413 362.018 864.807 364.337C867.749 366.374 869.616 369.995 870.578 373.389C871.596 376.953 871.766 380.687 871.596 384.308C871.426 388.155 870.861 391.945 870.238 395.736C869.503 400.318 868.824 404.901 868.145 409.54C866.787 418.705 865.486 427.87 864.242 437.091C863.053 446.2 861.979 455.365 861.639 464.587C861.3 473.638 861.639 482.747 863.28 491.685C864.694 499.549 867.183 507.413 871.822 513.976C875.896 519.69 881.553 524.329 888.399 526.196C895.018 528.006 901.976 526.988 908.03 523.876C910.859 522.462 913.404 520.708 915.102 517.936C916.629 515.447 917.308 512.561 917.647 509.676C918.383 503.736 917.478 497.796 917.251 491.855C916.573 473.525 913.97 455.252 911.764 437.035C909.614 419.327 907.238 401.62 904.126 384.025C901.015 366.487 897.111 349.062 891.906 332.033C890.605 327.79 889.247 323.547 887.776 319.304C886.305 315.061 885.287 312.515 883.646 309.291C880.478 303.294 875.33 297.523 868.258 296.788C865.147 296.448 861.922 297.354 859.772 299.673C858.528 301.031 860.564 303.011 861.752 301.653C863.846 299.334 867.127 299.164 870.012 299.956C873.18 300.861 875.783 303.011 877.876 305.5C882.515 311.101 884.721 318.569 886.928 325.358C892.359 341.764 896.432 358.51 899.77 375.482C903.108 392.568 905.597 409.766 907.804 427.021C908.878 435.621 909.897 444.22 910.915 452.819C911.933 461.758 913.065 470.64 913.8 479.635C914.366 486.764 914.762 493.948 915.102 501.077C915.384 506.451 915.554 512.901 912.16 517.37C910.349 519.803 907.238 521.33 904.466 522.405C901.694 523.48 898.299 524.216 895.018 524.216C888.512 524.159 882.458 521.217 877.932 516.635C872.445 511.147 869.22 503.849 867.297 496.381C865.203 488.065 864.468 479.466 864.468 470.923C864.468 453.045 867.353 435.225 869.899 417.573C871.144 408.974 872.614 400.375 873.803 391.776C874.764 384.704 875.387 377.01 872.614 370.221C869.842 363.432 869.22 363.771 866.222 361.791C862.771 359.472 858.81 360.207 854.85 360.038C847.892 359.755 841.046 357.209 835.502 352.966C832.786 350.873 830.41 348.383 828.43 345.555C826.45 342.726 824.923 345.498 825.997 346.969H825.884Z" fill="#4A177F"/>
<path d="M838.274 358.623C836.351 360.433 833.522 360.603 831.033 359.981C828.204 359.245 825.941 357.322 824.187 354.946C822.32 352.343 820.962 349.401 819.774 346.46C818.926 344.423 817.681 341.028 819.548 339.161C820.114 338.652 820.849 338.313 821.472 337.917C822.094 337.521 822.829 336.899 823.339 336.163C824.187 334.975 824.413 333.447 824.357 331.977C824.3 329.148 823.056 326.545 823.225 323.773C823.395 321.001 823.621 321.624 824.187 321.001C824.753 320.379 824.696 320.549 825.092 320.435C825.884 320.266 826.733 320.435 827.525 320.435C830.75 320.209 832.221 317.041 832.108 314.156C832.051 312.289 831.316 310.535 830.92 308.725C830.523 306.914 830.637 305.67 831.655 304.595C833.465 302.615 836.803 302.388 839.406 302.445C840.141 302.445 840.877 301.766 840.82 301.031C840.65 299.277 840.594 297.466 840.99 295.826C841.386 294.355 842.121 293.054 843.705 292.884C845.289 292.714 845.968 293.223 846.93 293.733C848.061 294.298 849.193 294.977 850.324 295.656C852.587 297.014 854.85 298.485 857 300.012C859.15 301.54 861.752 303.463 864.015 305.33C864.581 305.839 865.43 305.896 865.995 305.33C866.505 304.821 866.618 303.803 865.995 303.35C861.413 299.616 856.604 296.165 851.512 293.167C849.136 291.752 846.421 289.829 843.479 290.168C840.537 290.508 839.406 292.035 838.557 294.242C837.708 296.391 837.708 298.881 837.935 301.2L839.349 299.786C836.52 299.729 833.296 300.012 830.863 301.653C829.618 302.501 828.657 303.633 828.147 305.104C827.468 306.971 827.921 309.008 828.43 310.874C828.939 312.741 829.392 313.873 829.166 315.457C828.939 317.041 828.6 317.494 827.751 317.776C826.903 318.059 826.054 317.776 825.206 317.776C824.357 317.776 823.621 318.059 822.943 318.512C821.755 319.304 821.019 320.549 820.623 321.906C820.227 323.264 820.17 324.679 820.34 326.093C820.51 327.507 821.019 329.148 821.245 330.675C821.472 332.203 821.585 333.448 820.906 334.579C820.114 335.937 818.304 336.333 817.229 337.464C814.909 339.954 815.531 343.687 816.606 346.629C817.794 349.854 819.265 353.135 821.189 355.964C823.339 359.132 826.167 361.735 829.901 362.753C833.409 363.771 837.312 363.262 840.085 360.716C841.442 359.472 839.406 357.491 838.104 358.736L838.274 358.623Z" fill="#4A177F"/>
<path d="M834.767 332.146C834.767 332.146 834.88 332.146 834.937 332.146H834.541C835.276 332.146 836.012 332.146 836.747 332.146H836.351C836.973 332.146 837.596 332.316 838.161 332.542C838.727 332.768 838.954 332.542 839.236 332.372C839.519 332.202 839.802 331.863 839.859 331.524C839.915 331.184 839.915 330.731 839.689 330.449C839.463 330.166 839.18 329.939 838.84 329.826C838.048 329.543 837.256 329.374 836.408 329.317C835.559 329.261 834.767 329.317 833.918 329.43C833.07 329.543 833.24 329.826 833.07 330.053C832.9 330.279 832.844 330.788 832.9 331.127C832.957 331.467 833.24 331.806 833.522 331.976L833.862 332.146C834.088 332.202 834.371 332.202 834.597 332.146H834.767Z" fill="#4A177F"/>
<path d="M838.105 317.889C838.388 317.889 838.671 317.889 838.954 317.946H838.557C839.18 317.946 839.859 318.172 840.424 318.398L840.085 318.229C840.424 318.398 840.764 318.512 841.047 318.738C841.33 318.964 841.33 318.908 841.499 319.021C841.669 319.134 841.782 319.247 841.499 319.021C841.556 319.077 841.669 319.134 841.726 319.19C842.008 319.417 842.348 319.586 842.744 319.586C843.14 319.586 843.479 319.417 843.762 319.19C844.271 318.681 844.385 317.72 843.762 317.21C842.178 315.853 840.198 315.061 838.105 315.061C837.369 315.061 836.634 315.739 836.691 316.475C836.691 317.267 837.313 317.889 838.105 317.889Z" fill="#4A177F"/>
<path d="M845.458 305.387C845.458 305.387 845.571 305.387 845.628 305.387H845.232C846.194 305.443 847.099 305.726 848.004 306.122L847.665 305.952C848.287 306.235 848.853 306.518 849.418 306.858C849.984 307.197 851.003 307.027 851.342 306.348C851.738 305.669 851.512 304.821 850.833 304.425C849.192 303.35 847.382 302.784 845.458 302.501C843.535 302.218 844.666 302.671 844.44 302.897C844.214 303.124 843.987 303.52 844.044 303.916C844.101 304.312 844.157 304.651 844.44 304.934C844.723 305.217 845.062 305.273 845.458 305.33V305.387Z" fill="#4A177F"/>
<path d="M760.09 250.962C756.809 247.851 752.905 245.305 748.549 244.117C746.625 243.608 744.645 243.381 742.665 243.155C740.459 242.872 738.252 242.646 736.046 242.363C733.443 242.08 730.728 241.797 728.126 242.08C728.126 242.193 728.126 242.306 728.126 242.476C727.447 250.792 728.861 260.75 741.251 263.408C753.64 266.067 759.524 259.109 762.409 255.432C762.692 255.092 762.975 254.639 763.201 254.243C762.24 253.112 761.221 252.037 760.09 251.019V250.962Z" fill="#FEFFFD"/>
<path d="M748.492 261.089C755.053 261.089 760.372 255.77 760.372 249.209C760.372 242.647 755.053 237.328 748.492 237.328C741.93 237.328 736.611 242.647 736.611 249.209C736.611 255.77 741.93 261.089 748.492 261.089Z" fill="#1D1D1B"/>
<path d="M739.44 257.752C742.002 257.752 744.079 255.675 744.079 253.113C744.079 250.551 742.002 248.474 739.44 248.474C736.878 248.474 734.801 250.551 734.801 253.113C734.801 255.675 736.878 257.752 739.44 257.752Z" fill="white"/>
<path d="M762.862 241.741C762.353 237.667 754.546 228.502 751.83 225.447C749.737 225.051 747.304 224.995 744.532 225.447C736.612 226.579 729.597 233.481 728.748 241.628C731.35 241.345 734.066 241.628 736.668 241.911C738.875 242.193 741.081 242.42 743.288 242.703C745.268 242.929 747.248 243.155 749.171 243.664C751.547 244.287 753.754 245.362 755.847 246.663C756.809 243.381 763.258 245.192 762.862 241.854V241.741Z" fill="#B167FF"/>
<path d="M764.22 236.196C762.127 231.331 758.506 226.692 751.83 225.504C754.546 228.559 756.299 232.519 756.752 236.592C757.148 239.987 756.752 243.381 755.79 246.663C757.544 247.794 759.185 249.095 760.712 250.51C761.787 251.528 762.805 252.603 763.824 253.734C766.143 249.604 766.766 242.024 764.276 236.253L764.22 236.196Z" fill="#9356D4"/>
<path d="M765.917 242.59C765.917 242.59 763.598 228.616 752.056 226.127C740.515 223.637 729.71 232.293 728.635 241.967C728.635 241.967 750.699 238.007 762.805 253.056" stroke="#4A177F" stroke-width="5" stroke-linecap="round" stroke-linejoin="round"/>
<path d="M728.634 242.023C728.634 242.023 726.032 253.565 734.801 260.184C743.57 266.803 759.75 266.633 762.862 253.112" stroke="#4A177F" stroke-width="5" stroke-linecap="round" stroke-linejoin="round"/>
<path d="M825.885 267.312C822.603 264.2 818.7 261.654 814.344 260.466C812.42 259.957 810.44 259.731 808.46 259.505C806.254 259.222 804.047 258.995 801.841 258.713C799.238 258.43 796.523 258.147 793.92 258.43C793.92 258.543 793.92 258.656 793.92 258.826C793.242 267.142 794.656 277.099 807.046 279.758C819.435 282.417 825.319 275.458 828.204 271.781C828.487 271.442 828.77 270.989 828.996 270.593C828.035 269.462 827.016 268.387 825.885 267.368V267.312Z" fill="#FEFFFD"/>
<path d="M814.287 277.439C820.848 277.439 826.167 272.12 826.167 265.558C826.167 258.997 820.848 253.678 814.287 253.678C807.725 253.678 802.406 258.997 802.406 265.558C802.406 272.12 807.725 277.439 814.287 277.439Z" fill="#1D1D1B"/>
<path d="M805.178 274.045C807.74 274.045 809.817 271.968 809.817 269.406C809.817 266.844 807.74 264.767 805.178 264.767C802.616 264.767 800.539 266.844 800.539 269.406C800.539 271.968 802.616 274.045 805.178 274.045Z" fill="white"/>
<path d="M828.94 258.317C828.431 254.243 820.284 244.796 817.569 241.797C815.475 241.401 813.043 241.345 810.271 241.797C802.35 242.929 795.335 249.831 794.486 257.977C797.089 257.694 799.804 257.977 802.407 258.26C804.613 258.543 806.819 258.769 809.026 259.052C811.006 259.278 812.986 259.505 814.91 260.014C817.286 260.636 819.492 261.711 821.585 263.012C822.547 259.731 829.336 261.768 828.94 258.43V258.317Z" fill="#B167FF"/>
<path d="M830.015 252.489C827.921 247.624 824.301 242.985 817.625 241.797C820.341 244.852 822.094 248.812 822.547 252.885C822.943 256.28 822.547 259.674 821.585 262.956C823.339 264.087 824.98 265.388 826.507 266.803C827.582 267.821 828.6 268.896 829.619 270.027C831.938 265.897 832.561 258.317 830.071 252.546L830.015 252.489Z" fill="#9356D4"/>
<path d="M831.712 258.939C831.712 258.939 829.392 244.965 817.851 242.476C806.31 239.987 795.505 248.643 794.43 258.317C794.43 258.317 816.494 254.357 828.6 269.405" stroke="#4A177F" stroke-width="5" stroke-linecap="round" stroke-linejoin="round"/>
<path d="M794.429 258.316C794.429 258.316 791.827 269.858 800.596 276.477C809.365 283.096 825.545 282.926 828.657 269.405" stroke="#4A177F" stroke-width="5" stroke-linecap="round" stroke-linejoin="round"/>
<path d="M764.841 221.487C763.653 222.449 761.73 221.827 760.711 220.695C759.693 219.564 759.184 218.036 758.392 216.735C756.921 214.302 754.432 212.549 751.66 211.983C748.887 211.417 745.889 212.096 743.626 213.737C741.872 215.038 740.232 217.018 738.025 216.905C736.158 216.848 734.687 215.151 734.348 213.284C734.008 211.474 734.631 209.607 735.536 207.966C738.478 202.535 744.814 199.197 750.924 199.706C755.789 200.102 760.146 202.874 762.805 206.948C764.162 209.041 765.011 211.474 765.35 213.963C765.577 215.887 766.595 220.073 764.898 221.487H764.841Z" fill="#1D1C1E"/>
<path d="M764.107 220.299C763.201 220.978 762.126 220.299 761.504 219.507C760.542 218.319 760.09 216.735 759.241 215.49C757.544 213.057 754.942 211.191 752 210.625C748.775 209.946 745.324 210.625 742.722 212.661C741.081 213.906 738.592 216.905 736.498 214.698C734.405 212.492 736.272 209.097 737.686 207.117C739.214 204.967 741.477 203.27 743.91 202.252C749.058 200.102 755.055 201.064 759.128 204.911C761.674 207.287 763.258 210.455 763.824 213.906C764.05 215.151 764.22 216.395 764.333 217.64C764.333 218.149 764.333 218.998 764.333 219.394C764.333 219.79 764.333 219.677 764.276 219.79C764.22 219.903 764.107 220.299 764.22 220.073C764.05 220.412 764.107 220.356 763.88 220.525C763.315 221.034 763.371 221.996 763.88 222.505C764.389 223.015 765.295 223.015 765.86 222.505C767.954 220.638 767.218 217.018 766.822 214.585C766.539 212.944 766.313 211.304 765.691 209.72C765.012 207.966 764.163 206.382 763.032 204.911C758.958 199.649 752 197.16 745.494 198.801C742.382 199.593 739.44 201.233 737.177 203.496C734.801 205.873 732.538 209.38 732.878 212.888C733.161 216.339 736.385 219.394 739.949 218.036C741.477 217.47 742.665 216.282 743.966 215.264C745.267 214.246 746.795 213.51 748.379 213.284C751.717 212.775 755.224 214.415 757.035 217.244C758.053 218.885 758.619 220.865 760.146 222.109C761.617 223.354 763.88 223.92 765.577 222.732C766.2 222.279 766.483 221.487 766.087 220.808C765.747 220.186 764.785 219.846 764.163 220.299H764.107Z" fill="black"/>
<path d="M773.103 212.605C774.008 216.508 773.329 220.695 771.292 224.146C770.387 225.73 772.82 227.144 773.725 225.56C776.158 221.43 776.893 216.508 775.818 211.869C775.422 210.115 772.707 210.851 773.103 212.605Z" fill="#4A177F"/>
<path d="M809.082 231.897C809.705 233.311 811.628 233.594 813.042 233.085C814.457 232.576 815.588 231.444 816.889 230.652C819.266 229.181 822.264 228.785 824.98 229.577C827.639 230.369 830.015 232.293 831.259 234.782C832.221 236.706 832.73 239.195 834.71 240.1C836.351 240.892 838.444 240.1 839.576 238.629C840.707 237.158 841.047 235.235 840.99 233.424C840.877 227.314 836.86 221.487 831.259 219.168C826.79 217.301 821.698 217.697 817.512 220.129C815.362 221.374 813.495 223.071 812.081 225.108C811.006 226.692 808.177 229.917 809.026 231.897H809.082Z" fill="#1D1C1E"/>
<path d="M807.839 232.632C808.574 234.103 810.215 234.839 811.799 234.782C813.383 234.726 814.967 233.82 816.268 232.859C817.569 231.897 819.04 231.105 820.737 230.765C822.435 230.426 823.962 230.652 825.433 231.275C826.791 231.84 828.035 232.746 828.941 233.877C829.846 235.009 830.355 236.366 830.977 237.724C831.6 239.082 832.448 240.553 833.863 241.345C835.277 242.137 837.2 242.024 838.728 241.232C841.953 239.591 842.688 235.574 842.349 232.293C842.009 229.125 840.821 226.07 838.898 223.524C836.918 220.922 834.315 218.885 831.204 217.753C827.866 216.509 824.075 216.396 820.681 217.414C816.777 218.545 813.439 221.091 811.063 224.373C810.215 225.561 809.309 226.692 808.574 227.993C807.839 229.295 807.16 230.992 807.725 232.463C808.291 233.934 808.687 233.651 809.479 233.424C810.271 233.198 810.724 232.406 810.441 231.671C810.158 230.935 810.328 231.105 810.441 230.652C810.611 230.143 810.837 229.691 811.12 229.181C811.742 228.163 812.421 227.201 813.156 226.296C814.91 223.92 817.06 221.94 819.776 220.695C825.263 218.319 831.656 219.733 835.673 224.033C837.483 225.957 838.728 228.389 839.294 230.992C839.859 233.594 840.029 236.819 837.879 238.46C837.031 239.082 835.843 239.365 834.994 238.686C834.145 238.007 833.693 236.875 833.297 235.914C832.731 234.499 832.109 233.255 831.147 232.067C830.242 230.935 829.054 229.973 827.753 229.238C824.528 227.484 820.624 227.428 817.286 228.955C813.948 230.483 814.514 230.935 813.043 231.671C812.478 231.954 811.968 232.067 811.346 231.954C810.724 231.84 810.554 231.671 810.384 231.218C810.045 230.539 809.083 230.369 808.461 230.709C807.839 231.048 807.612 231.954 807.952 232.632H807.839Z" fill="black"/>
<path d="M805.463 219.677C800.711 223.241 797.826 229.068 798.222 235.065C798.335 236.876 801.164 236.876 801.05 235.065C800.768 230.143 802.917 225.108 806.934 222.11C807.556 221.657 807.839 220.865 807.443 220.186C807.047 219.507 806.142 219.224 805.52 219.677H805.463Z" fill="#4A177F"/>
</svg>
