<svg width="24" height="24" viewBox="0 0 24 24" fill="none" xmlns="http://www.w3.org/2000/svg">
<path d="M3.10999 9.41003H20.94" stroke="#707A8A" stroke-width="1.5" stroke-linecap="round" stroke-linejoin="round"/>
<path d="M16.47 14.0601C16.2711 14.0601 16.0803 13.981 15.9397 13.8403C15.799 13.6997 15.72 13.509 15.72 13.3101C15.72 13.1111 15.799 12.9203 15.9397 12.7797C16.0803 12.639 16.2711 12.5601 16.47 12.5601V12.5601C16.6689 12.5601 16.8597 12.639 17.0003 12.7797C17.141 12.9203 17.22 13.1111 17.22 13.3101C17.22 13.509 17.141 13.6997 17.0003 13.8403C16.8597 13.981 16.6689 14.0601 16.47 14.0601V14.0601Z" fill="#707A8A"/>
<path d="M12.03 14.0601C11.8311 14.0601 11.6403 13.981 11.4997 13.8403C11.359 13.6997 11.28 13.509 11.28 13.3101C11.28 13.1111 11.359 12.9203 11.4997 12.7797C11.6403 12.639 11.8311 12.5601 12.03 12.5601V12.5601C12.2289 12.5601 12.4197 12.639 12.5604 12.7797C12.701 12.9203 12.78 13.1111 12.78 13.3101C12.78 13.509 12.701 13.6997 12.5604 13.8403C12.4197 13.981 12.2289 14.0601 12.03 14.0601V14.0601Z" fill="#707A8A"/>
<path d="M7.59003 14.0601C7.39111 14.0601 7.20034 13.981 7.05969 13.8403C6.91904 13.6997 6.84003 13.509 6.84003 13.3101C6.84003 13.1111 6.91904 12.9203 7.05969 12.7797C7.20034 12.639 7.39111 12.5601 7.59003 12.5601V12.5601C7.78894 12.5601 7.97971 12.639 8.12036 12.7797C8.26101 12.9203 8.34003 13.1111 8.34003 13.3101C8.34003 13.509 8.26101 13.6997 8.12036 13.8403C7.97971 13.981 7.78894 14.0601 7.59003 14.0601V14.0601Z" fill="#707A8A"/>
<path d="M16.47 17.9501C16.2719 17.9475 16.0827 17.8676 15.9426 17.7275C15.8025 17.5874 15.7226 17.3982 15.72 17.2001C15.7187 17.1021 15.7369 17.0048 15.7735 16.9138C15.8101 16.8229 15.8644 16.7401 15.9332 16.6703C16.0021 16.6005 16.0841 16.5451 16.1745 16.5073C16.2649 16.4695 16.362 16.4501 16.46 16.4501V16.4501C16.6589 16.4501 16.8497 16.529 16.9904 16.6697C17.131 16.8103 17.21 17.0012 17.21 17.2001C17.21 17.399 17.131 17.5897 16.9904 17.7303C16.8497 17.871 16.6589 17.9501 16.46 17.9501H16.47Z" fill="#707A8A"/>
<path d="M12.03 17.9501C11.8319 17.9475 11.6427 17.8676 11.5026 17.7275C11.3625 17.5874 11.2826 17.3982 11.28 17.2001C11.2787 17.1021 11.2969 17.0048 11.3335 16.9138C11.3701 16.8229 11.4244 16.7401 11.4932 16.6703C11.562 16.6005 11.6441 16.5451 11.7345 16.5073C11.8249 16.4695 11.922 16.4501 12.02 16.4501V16.4501C12.2189 16.4501 12.4097 16.529 12.5504 16.6697C12.691 16.8103 12.77 17.0012 12.77 17.2001C12.77 17.399 12.691 17.5897 12.5504 17.7303C12.4097 17.871 12.2189 17.9501 12.02 17.9501H12.03Z" fill="#707A8A"/>
<path d="M7.59003 17.95C7.39019 17.95 7.19837 17.8713 7.05613 17.7309C6.91389 17.5905 6.83265 17.3998 6.83002 17.2C6.82868 17.1012 6.84716 17.0029 6.88438 16.9113C6.92159 16.8197 6.97679 16.7366 7.0467 16.6667C7.11661 16.5968 7.19982 16.5416 7.29142 16.5043C7.38302 16.4671 7.48116 16.4487 7.58002 16.45V16.45C7.77894 16.45 7.96971 16.529 8.11036 16.6696C8.25101 16.8103 8.33002 17.0011 8.33002 17.2C8.33002 17.3989 8.25101 17.5896 8.11036 17.7303C7.96971 17.8709 7.77894 17.95 7.58002 17.95H7.59003Z" fill="#707A8A"/>
<path d="M16.06 2V5.29004" stroke="#707A8A" stroke-width="1.5" stroke-linecap="round" stroke-linejoin="round"/>
<path d="M7.97998 2V5.29004" stroke="#707A8A" stroke-width="1.5" stroke-linecap="round" stroke-linejoin="round"/>
<path d="M16.24 3.58008H7.76999C4.82999 3.58008 3 5.21997 3 8.21997V17.22C3 20.28 4.82999 21.9501 7.76999 21.9501H16.24C19.18 21.9501 21.01 20.31 21.01 17.3V8.17004C21.03 5.22004 19.24 3.58008 16.24 3.58008Z" stroke="#707A8A" stroke-width="1.5" stroke-linecap="round" stroke-linejoin="round"/>
</svg>
