<svg width="24" height="24" viewBox="0 0 24 24" fill="none" xmlns="http://www.w3.org/2000/svg">
<g clip-path="url(#clip0_2896_99665)">
<path d="M17.638 21.0001H6.35805C5.20265 20.9999 4.09458 20.5411 3.27712 19.7246C2.45966 18.9081 1.99964 17.8005 1.99805 16.6451L1.99805 10.7111C1.99964 9.55574 2.45966 8.44819 3.27712 7.63167C4.09458 6.81515 5.20265 6.3564 6.35805 6.35614C6.39826 6.35767 6.438 6.34704 6.47208 6.32563C6.50615 6.30422 6.53298 6.27303 6.54905 6.23614L6.60805 6.11614L6.69105 5.94114C6.95205 5.39114 7.24805 4.76814 7.42805 4.40814C7.62366 3.98703 7.9357 3.63069 8.3273 3.38119C8.7189 3.1317 9.17372 2.99948 9.63805 3.00014H14.348C14.8139 2.99854 15.2704 3.13027 15.6638 3.37976C16.0571 3.62925 16.3709 3.98608 16.568 4.40814C16.725 4.72314 16.968 5.22814 17.195 5.71614L17.337 6.01614L17.437 6.23614C17.4563 6.27243 17.4851 6.30279 17.5204 6.32393C17.5556 6.34507 17.5959 6.35621 17.637 6.35614C18.7925 6.3564 19.9007 6.81512 20.7183 7.63161C21.5359 8.44811 21.9962 9.55565 21.998 10.7111V16.6451C21.9965 17.8005 21.5364 18.9081 20.719 19.7246C19.9015 20.5411 18.7934 20.9999 17.638 21.0001V21.0001ZM11.998 9.40014C11.4793 9.39973 10.9656 9.50222 10.4867 9.70167C10.0078 9.90113 9.57316 10.1936 9.20805 10.5621C8.84368 10.9244 8.55519 11.3558 8.35945 11.8309C8.16371 12.306 8.06465 12.8153 8.06805 13.3291C8.06792 13.8444 8.16928 14.3547 8.36636 14.8309C8.56344 15.307 8.85237 15.7396 9.21665 16.1041C9.58094 16.4686 10.0134 16.7577 10.4895 16.9551C10.9655 17.1524 11.4757 17.254 11.991 17.2541H11.998C12.7722 17.2536 13.529 17.0244 14.1734 16.5954C14.8178 16.1663 15.3212 15.5565 15.6203 14.8424C15.9194 14.1283 16.0009 13.3418 15.8546 12.5816C15.7083 11.8213 15.3408 11.1212 14.798 10.5691L14.781 10.5521C14.4167 10.1852 13.983 9.8944 13.5052 9.69663C13.0275 9.49886 12.5151 9.39807 11.998 9.40014V9.40014ZM17.608 9.16114C17.2275 9.16193 16.8627 9.31378 16.5941 9.58332C16.3254 9.85286 16.1747 10.218 16.175 10.5986C16.1754 10.9792 16.3269 11.3441 16.5962 11.6131C16.8654 11.882 17.2305 12.0331 17.611 12.0331C17.9916 12.0331 18.3567 11.882 18.6259 11.6131C18.8952 11.3441 19.0466 10.9792 19.047 10.5986C19.0474 10.218 18.8967 9.85286 18.628 9.58332C18.3593 9.31378 17.9946 9.16193 17.614 9.16114H17.608ZM11.998 15.7561C11.6799 15.7571 11.3646 15.6953 11.0703 15.5744C10.7759 15.4535 10.5083 15.2758 10.2827 15.0514C10.057 14.8271 9.87778 14.5605 9.75516 14.2668C9.63255 13.9732 9.56896 13.6583 9.56805 13.3401V13.3191C9.56356 13.0031 9.62329 12.6895 9.74361 12.3973C9.86394 12.1051 10.0424 11.8403 10.268 11.6191C10.5492 11.3343 10.8964 11.1233 11.2788 11.0049C11.6611 10.8865 12.0668 10.8644 12.4598 10.9405C12.8527 11.0166 13.2208 11.1887 13.5312 11.4413C13.8417 11.6939 14.085 12.0194 14.2394 12.3886C14.3938 12.7579 14.4546 13.1596 14.4164 13.5581C14.3782 13.9565 14.2422 14.3393 14.0204 14.6725C13.7986 15.0057 13.498 15.279 13.1452 15.468C12.7924 15.6571 12.3983 15.756 11.998 15.7561" fill="white"/>
</g>
<defs>
<clipPath id="clip0_2896_99665">
<rect width="24" height="24" fill="white"/>
</clipPath>
</defs>
</svg>
