<svg width="24" height="24" viewBox="0 0 24 24" fill="none" xmlns="http://www.w3.org/2000/svg">
<path d="M14.0264 19.1L20.4064 10.92C21.0964 10.03 21.1464 8.8 20.5064 7.86L18.6764 5.15C18.1964 4.43 17.3864 4 16.5164 4H7.43639C6.56639 4 5.76639 4.43 5.27639 5.15L3.44639 7.87C2.81639 8.8 2.85639 10.04 3.54639 10.93L9.92639 19.11C10.9664 20.44 12.9864 20.44 14.0264 19.1Z" stroke="#707A8A" stroke-width="1.5" stroke-linecap="round" stroke-linejoin="round"/>
<path d="M3.07642 9.52002H20.8764" stroke="#707A8A" stroke-width="1.5" stroke-linecap="round" stroke-linejoin="round"/>
<path d="M9.61637 4.01001L8.18637 7.77001C7.89637 8.53001 7.89637 9.37001 8.18637 10.13L11.8464 19.9" stroke="#707A8A" stroke-width="1.5" stroke-linecap="round" stroke-linejoin="round"/>
<path d="M14.0864 4.01001L15.5064 7.77001C15.7964 8.53001 15.7964 9.37001 15.5064 10.13L11.8464 19.9" stroke="#707A8A" stroke-width="1.5" stroke-linecap="round" stroke-linejoin="round"/>
</svg>
