<svg width="25" height="24" viewBox="0 0 25 24" fill="none" xmlns="http://www.w3.org/2000/svg">
<path d="M14.7311 7.83989L10.9109 4.01989C9.57078 2.67989 7.40063 2.67989 6.06055 4.01989L2.2403 7.83989C1.59026 8.47989 1.24023 9.34989 1.24023 10.2599C1.24023 11.1699 1.59026 12.0399 2.2403 12.6899L6.06055 16.5099C6.70059 17.1599 7.57065 17.5099 8.4807 17.5099C9.39076 17.5099 10.2608 17.1599 10.9109 16.5099L14.7311 12.6899C16.0712 11.3499 16.0712 9.17989 14.7311 7.83989V7.83989ZM5.22049 11.2599C4.67046 11.2599 4.22043 10.8299 4.22043 10.2699V10.2499C4.22043 9.69989 4.67046 9.24989 5.22049 9.24989C5.77053 9.24989 6.22056 9.69989 6.22056 10.2499C6.22056 10.7999 5.77053 11.2599 5.22049 11.2599ZM7.51064 6.98989C7.51064 6.43989 7.96067 5.98989 8.51071 5.98989C9.06074 5.98989 9.51077 6.43989 9.51077 6.98989C9.51077 7.53989 9.07074 7.99989 8.51071 7.99989C7.95067 7.99989 7.51064 7.56989 7.51064 7.00989V6.98989V6.98989ZM8.52071 14.4999C7.97067 14.4999 7.52064 14.0599 7.52064 13.5099V13.4899C7.52064 12.9399 7.97067 12.4899 8.52071 12.4899C9.07074 12.4899 9.52077 12.9399 9.52077 13.4899C9.52077 14.0399 9.07074 14.4999 8.52071 14.4999ZM11.7309 11.2699C11.1709 11.2699 10.7309 10.8399 10.7309 10.2799V10.2599C10.7309 9.70989 11.1709 9.25989 11.7309 9.25989C12.291 9.25989 12.731 9.70989 12.731 10.2599C12.731 10.8099 12.281 11.2699 11.7309 11.2699Z" fill="white"/>
<path d="M19.3512 9.51001H17.0711C17.1111 9.73001 17.1211 9.95001 17.1211 10.17C17.1211 10.46 17.1011 10.74 17.0511 11.01C16.8811 12.01 16.411 12.92 15.681 13.65L11.8707 17.46C11.6707 17.66 11.4507 17.85 11.2207 18C11.3307 19.79 12.8208 21.21 14.6409 21.21H19.3512C21.2414 21.21 22.7815 19.67 22.7815 17.78V12.94C22.7815 11.05 21.2414 9.51001 19.3512 9.51001V9.51001ZM17.0011 16.36C16.441 16.36 16.001 15.92 16.001 15.37V15.35C16.001 14.8 16.441 14.35 17.0011 14.35C17.5611 14.35 18.0011 14.8 18.0011 15.35C18.0011 15.9 17.5511 16.36 17.0011 16.36Z" fill="white"/>
</svg>
