<svg width="24" height="24" viewBox="0 0 24 24" fill="none" xmlns="http://www.w3.org/2000/svg">
<path d="M12.25 16V4" stroke="#B5BCC8" stroke-width="1.5" stroke-linecap="round" stroke-linejoin="round"/>
<path d="M15.17 13.0699L12.2501 16L9.33008 13.0699" stroke="#B5BCC8" stroke-width="1.5" stroke-linecap="round" stroke-linejoin="round"/>
<path d="M16.88 8.68996H17.8199C18.3032 8.68996 18.7818 8.78517 19.2283 8.97011C19.6747 9.15504 20.0804 9.42612 20.4221 9.76784C20.7638 10.1096 21.0349 10.5152 21.2198 10.9617C21.4048 11.4082 21.5 11.8867 21.5 12.37V17.26C21.5 18.2334 21.1133 19.1669 20.425 19.8551C19.7368 20.5434 18.8033 20.9299 17.83 20.9299H6.68994C5.71302 20.9299 4.77595 20.5426 4.08423 19.8528C3.39251 19.1629 3.00265 18.2269 3 17.25V12.36C3 11.8772 3.09521 11.3992 3.28027 10.9533C3.46533 10.5073 3.73652 10.1023 4.07837 9.76137C4.42022 9.42044 4.82604 9.15029 5.27246 8.96644C5.71888 8.7826 6.19714 8.68864 6.67993 8.68996H7.62" stroke="#B5BCC8" stroke-width="1.5" stroke-linecap="round" stroke-linejoin="round"/>
</svg>
