<svg width="24" height="24" viewBox="0 0 24 24" fill="none" xmlns="http://www.w3.org/2000/svg">
<path d="M15.4098 12.3C15.4098 12.925 15.2245 13.536 14.8773 14.0557C14.5301 14.5753 14.0365 14.9803 13.4591 15.2195C12.8817 15.4587 12.2463 15.5212 11.6334 15.3993C11.0204 15.2774 10.4573 14.9764 10.0154 14.5344C9.57344 14.0925 9.2725 13.5295 9.15057 12.9165C9.02864 12.3035 9.0912 11.6681 9.33038 11.0907C9.56955 10.5133 9.9746 10.0198 10.4943 9.67261C11.0139 9.32538 11.6249 9.14001 12.2499 9.14001C13.0871 9.14265 13.8893 9.47644 14.4814 10.0685C15.0734 10.6605 15.4072 11.4628 15.4098 12.3Z" stroke="#B5BCC8" stroke-width="1.5" stroke-linecap="round" stroke-linejoin="round"/>
<path d="M12.25 19.6C16.05 19.6 19.54 16.86 21.5 12.3C19.5 7.74005 16.05 5 12.25 5C8.44 5 4.96 7.74005 3 12.3C5 16.87 8.44 19.6 12.25 19.6Z" stroke="#B5BCC8" stroke-width="1.5" stroke-linecap="round" stroke-linejoin="round"/>
</svg>
