<svg width="24" height="24" viewBox="0 0 24 24" fill="none" xmlns="http://www.w3.org/2000/svg">
<path d="M5 20.24V3" stroke="#707A8A" stroke-width="1.3" stroke-linecap="round" stroke-linejoin="round"/>
<path d="M18.56 13.57C18.56 14.08 18.29 14.55 17.84 14.79C17.14 15.17 15.99 15.64 14.63 15.64C12.38 15.64 11.44 13.62 9.08 13.62C8.19 13.62 7.39 13.76 6.74 13.94C5.86 14.18 5 13.52 5 12.61V5.69003C5 5.13003 5.33 4.63003 5.85 4.41003C6.51 4.14003 7.53 3.84003 8.87 3.84003C11.34 3.84003 12.39 5.85003 14.91 5.85003C15.63 5.85003 16.24 5.74003 16.74 5.59003C17.65 5.31003 18.57 5.95003 18.57 6.90003V13.57H18.56Z" stroke="#707A8A" stroke-width="1.3" stroke-linecap="round" stroke-linejoin="round"/>
</svg>
