<svg width="24" height="24" viewBox="0 0 24 24" fill="none" xmlns="http://www.w3.org/2000/svg">
<path d="M3.37143 11.5992C2.29943 8.24715 3.55241 4.41815 7.07141 3.28515C7.98382 2.99353 8.95273 2.92434 9.89731 3.08333C10.8419 3.24233 11.7348 3.62491 12.5014 4.19915C13.2685 3.62968 14.1596 3.24997 15.1016 3.09111C16.0437 2.93224 17.01 2.99874 17.9214 3.28515C21.4384 4.41815 22.7014 8.24715 21.6284 11.5992C19.9584 16.9072 12.5014 20.9992 12.5014 20.9992C12.5014 20.9992 5.09943 16.9692 3.37143 11.5992Z" stroke="#707A8A" stroke-width="1.5" stroke-linecap="round" stroke-linejoin="round"/>
<path d="M16.4994 6.69916C17.0225 6.86817 17.4839 7.18845 17.8251 7.61954C18.1663 8.05063 18.372 8.57317 18.4164 9.12116" stroke="#707A8A" stroke-width="1.5" stroke-linecap="round" stroke-linejoin="round"/>
</svg>
