<svg width="24" height="24" viewBox="0 0 24 24" fill="none" xmlns="http://www.w3.org/2000/svg">
<path d="M12 2C10.0222 2 8.08879 2.58649 6.44429 3.6853C4.7998 4.78412 3.51807 6.34583 2.76119 8.1731C2.00431 10.0004 1.80631 12.0111 2.19216 13.9509C2.57801 15.8907 3.53039 17.6725 4.92891 19.071C6.32744 20.4696 8.10928 21.422 10.0491 21.8079C11.9889 22.1937 13.9995 21.9956 15.8268 21.2388C17.6541 20.4819 19.2159 19.2002 20.3147 17.5557C21.4135 15.9112 22 13.9778 22 12C22 9.34784 20.9464 6.80432 19.0711 4.92896C17.1957 3.05359 14.6522 2 12 2ZM14.21 17.23C13.66 17.45 11.75 18.36 10.65 17.39C10.4913 17.2571 10.3647 17.09 10.2799 16.9012C10.195 16.7125 10.154 16.5068 10.16 16.2999C10.2716 15.171 10.5305 14.0617 10.93 13C11.0329 12.6413 11.0966 12.2725 11.12 11.9C11.12 11.32 10.9 11.16 10.3 11.16C9.98311 11.1809 9.67206 11.2552 9.38002 11.38L9.55001 10.71C10.2366 10.3874 10.9744 10.1877 11.73 10.12C12.79 10.12 13.57 10.65 13.57 11.65C13.5669 12.0387 13.5131 12.4252 13.41 12.7999L12.8 14.95C12.68 15.38 12.45 16.34 12.8 16.63C13.0501 16.7358 13.3204 16.7853 13.5917 16.7749C13.863 16.7645 14.1288 16.6946 14.37 16.5699L14.21 17.23ZM13.21 8.66003C12.9628 8.66003 12.7211 8.58669 12.5155 8.44934C12.31 8.31199 12.1497 8.11671 12.0551 7.88831C11.9605 7.6599 11.9358 7.40861 11.984 7.16614C12.0323 6.92366 12.1513 6.70094 12.3261 6.52612C12.5009 6.35131 12.7237 6.23219 12.9661 6.18396C13.2086 6.13573 13.46 6.16052 13.6884 6.25513C13.9168 6.34974 14.112 6.51001 14.2493 6.71558C14.3867 6.92114 14.46 7.16281 14.46 7.41003C14.46 7.74155 14.3283 8.0594 14.0939 8.29382C13.8595 8.52824 13.5415 8.66003 13.21 8.66003Z" fill="#707A8A"/>
</svg>
