<svg width="24" height="24" viewBox="0 0 24 24" fill="none" xmlns="http://www.w3.org/2000/svg">
<path d="M16.1698 9.71008V7.56006C16.1698 6.35067 15.6894 5.19074 14.8342 4.33557C13.9791 3.48041 12.8193 3 11.6099 3C10.4005 3 9.24066 3.48041 8.3855 4.33557C7.53033 5.19074 7.0498 6.35067 7.0498 7.56006V9.72998" stroke="#707A8A" stroke-width="1.5" stroke-linecap="round" stroke-linejoin="round"/>
<path d="M15.4299 21.5101H7.78992C6.78475 21.5101 5.82075 21.1109 5.10999 20.4001C4.39922 19.6894 4 18.7254 4 17.7202V13.4302C4 12.425 4.39922 11.461 5.10999 10.7502C5.82075 10.0395 6.78475 9.64014 7.78992 9.64014H15.4299C16.4351 9.64014 17.3991 10.0395 18.1099 10.7502C18.8206 11.461 19.22 12.425 19.22 13.4302V17.7202C19.22 18.7254 18.8206 19.6894 18.1099 20.4001C17.3991 21.1109 16.4351 21.5101 15.4299 21.5101V21.5101Z" stroke="#707A8A" stroke-width="1.5" stroke-linecap="round" stroke-linejoin="round"/>
<path d="M11.6099 14.46V16.6899" stroke="#707A8A" stroke-width="1.5" stroke-linecap="round" stroke-linejoin="round"/>
</svg>
