<svg width="24" height="24" viewBox="0 0 24 24" fill="none" xmlns="http://www.w3.org/2000/svg">
<path d="M6.1 6.13H4.87C4.37 6.13 3.9 6.33 3.55 6.68C3.2 7.03 3 7.51 3 8V17.69C3 18.75 3.11 20.39 4.91 20.39C5.14 20.39 5.36 20.33 5.57 20.24C5.78 20.14 5.96 20.01 6.12 19.84C6.27 19.67 6.39 19.47 6.46 19.25C6.53 19.03 6.56 18.8 6.54 18.58V6.59C6.54 6.47 6.49 6.36 6.41 6.27C6.33 6.18 6.22 6.13 6.1 6.13V6.13Z" stroke="#707A8A" stroke-width="1.5" stroke-linecap="round" stroke-linejoin="round"/>
<path d="M9.32997 3C8.58997 3 7.87997 3.3 7.35997 3.83C6.83997 4.35 6.53997 5.06 6.53997 5.8V17.85C6.53997 19.06 6.35997 19.76 5.82997 20.08C5.57997 20.26 5.27997 20.36 4.96997 20.38H18.08C18.75 20.38 19.39 20.11 19.86 19.64C20.33 19.17 20.6 18.52 20.6 17.85V5.69C20.6 4.99 20.32 4.32 19.83 3.82C19.34 3.32 18.66 3.04 17.96 3.04L9.32997 3V3Z" stroke="#707A8A" stroke-width="1.5" stroke-linecap="round" stroke-linejoin="round"/>
<path d="M9.71997 13.61H17.56" stroke="#707A8A" stroke-width="1.5" stroke-linecap="round" stroke-linejoin="round"/>
<path d="M9.71997 16.77H17.56" stroke="#707A8A" stroke-width="1.5" stroke-linecap="round" stroke-linejoin="round"/>
<path d="M16.05 6.04004H10.94C10.26 6.04004 9.71002 6.61004 9.71002 7.31004V9.33004C9.71002 10.03 10.26 10.6 10.94 10.6H16.05C16.73 10.6 17.28 10.03 17.28 9.33004V7.31004C17.28 6.61004 16.73 6.04004 16.05 6.04004V6.04004Z" stroke="#707A8A" stroke-width="1.5" stroke-linecap="round" stroke-linejoin="round"/>
</svg>
