<svg width="24" height="24" viewBox="0 0 24 24" fill="none" xmlns="http://www.w3.org/2000/svg">
<path d="M8.37988 12.0001L10.7899 14.4201L15.6199 9.58008" stroke="#707A8A" stroke-width="1.5" stroke-linecap="round" stroke-linejoin="round"/>
<path d="M10.75 2.44987C11.1075 2.16342 11.5519 2.00732 12.01 2.00732C12.4681 2.00732 12.9125 2.16342 13.27 2.44987L14.85 3.80987C15.2112 4.09327 15.6515 4.2575 16.11 4.27987H17.81C18.3212 4.28197 18.8109 4.48599 19.1724 4.84748C19.5339 5.20897 19.7379 5.69865 19.74 6.20987V7.90787C19.7641 8.36605 19.9282 8.80582 20.21 9.16787L21.57 10.7479C21.8565 11.1054 22.0126 11.5498 22.0126 12.0079C22.0126 12.466 21.8565 12.9104 21.57 13.2679L20.21 14.8479C19.9266 15.209 19.7624 15.6493 19.74 16.1079V17.8079C19.7379 18.3191 19.5339 18.8088 19.1724 19.1703C18.8109 19.5317 18.3212 19.7358 17.81 19.7379H16.11C15.6518 19.762 15.2121 19.926 14.85 20.2079L13.27 21.5679C12.9125 21.8543 12.4681 22.0104 12.01 22.0104C11.5519 22.0104 11.1075 21.8543 10.75 21.5679L9.17001 20.2079C8.80884 19.9245 8.36856 19.7602 7.91001 19.7379H6.18001C5.6688 19.7358 5.17911 19.5317 4.81763 19.1703C4.45614 18.8088 4.25212 18.3191 4.25001 17.8079V16.0979C4.22476 15.6447 4.06456 15.2093 3.79001 14.8479L2.44001 13.2579C2.15822 12.9022 2.00488 12.4617 2.00488 12.0079C2.00488 11.5541 2.15822 11.1136 2.44001 10.7579L3.79001 9.16787C4.06456 8.80639 4.22476 8.37108 4.25001 7.91787V6.19987C4.25212 5.68865 4.45614 5.19897 4.81763 4.83748C5.17911 4.47599 5.6688 4.27197 6.18001 4.26987H7.90501C8.3632 4.24576 8.80297 4.08172 9.16501 3.79987L10.75 2.44987Z" stroke="#707A8A" stroke-width="1.5" stroke-linecap="round" stroke-linejoin="round"/>
</svg>
