<svg width="24" height="24" viewBox="0 0 24 24" fill="none" xmlns="http://www.w3.org/2000/svg">
<path d="M8.47 19.7101H3.9C3.4 19.7101 3 19.3101 3 18.8101V14.2401C3 13.7401 3.4 13.3401 3.9 13.3401H8.47C8.97 13.3401 9.37 13.7401 9.37 14.2401V18.8101C9.37 19.3101 8.97 19.7101 8.47 19.7101Z" stroke="#B5BCC8" stroke-width="1.5" stroke-linecap="round" stroke-linejoin="round"/>
<path d="M16.79 20.1101C18.7727 20.1101 20.38 18.5028 20.38 16.5201C20.38 14.5374 18.7727 12.9301 16.79 12.9301C14.8072 12.9301 13.2 14.5374 13.2 16.5201C13.2 18.5028 14.8072 20.1101 16.79 20.1101Z" stroke="#B5BCC8" stroke-width="1.5" stroke-linecap="round" stroke-linejoin="round"/>
<path d="M10.57 3.54C10.98 2.82 12.02 2.82 12.44 3.54L13.63 5.6L14.82 7.66C15.23 8.38 14.72 9.28 13.89 9.28H11.52H9.12997C8.29997 9.28 7.77997 8.38 8.19997 7.66L9.38997 5.6L10.57 3.54Z" stroke="#B5BCC8" stroke-width="1.5" stroke-linecap="round" stroke-linejoin="round"/>
</svg>
