<svg width="24" height="24" viewBox="0 0 24 24" fill="none" xmlns="http://www.w3.org/2000/svg">
<path d="M18.7692 8.38268C18.7692 8.67964 18.6712 8.96893 18.5205 9.15983L16.9504 11.169C16.8536 11.2933 16.7317 11.3976 16.5926 11.4766C16.4536 11.5555 16.2998 11.6074 16.1399 11.6292C15.98 11.651 15.8171 11.6421 15.6609 11.6038C15.504 11.5649 15.357 11.4972 15.2284 11.4041L15.21 11.3905C15.0568 11.2804 14.9331 11.1372 14.8473 10.9734C14.7622 10.809 14.7181 10.6281 14.7181 10.4443V10.4443C14.7181 10.0207 14.3497 9.66114 13.9879 9.88148C13.9023 9.93365 13.8222 9.99519 13.7495 10.0654C13.4929 10.3129 13.3495 10.6481 13.3495 10.9975V16.8253C13.3495 17.5288 12.7804 18.128 12.0484 18.1534C11.867 18.1592 11.6863 18.1304 11.5166 18.0679C11.3469 18.0061 11.1919 17.9112 11.0615 17.7904C10.9304 17.6696 10.8262 17.5247 10.7552 17.3638C10.6841 17.2036 10.6473 17.0309 10.6467 16.8565V10.9975C10.6467 10.4838 10.7521 9.9741 10.9573 9.49921C11.1619 9.02432 11.4627 8.59244 11.8413 8.2289C12.2199 7.86536 12.6695 7.57725 13.1639 7.38045C13.6589 7.18425 14.1888 7.08291 14.7242 7.0835H17.419C18.213 7.0835 18.7692 7.61908 18.7692 8.38268Z" fill="#707A8A"/>
<path d="M9.95937 8.35664V8.39435C9.95937 9.1008 9.36331 9.6735 8.62758 9.6735H6.56312C5.82739 9.6735 5.23071 9.1008 5.23071 8.39435V8.35664C5.23071 7.6496 5.82739 7.0769 6.56312 7.0769H8.62758C9.36331 7.0769 9.95937 7.6496 9.95937 8.35664Z" fill="#707A8A"/>
<rect x="1.5" y="1.5" width="21" height="21" rx="6" stroke="#707A8A" stroke-width="1.5"/>
</svg>
