<svg width="24" height="24" viewBox="0 0 24 24" fill="none" xmlns="http://www.w3.org/2000/svg">
<path d="M6.58911 13.77L9.68727 10.67C9.94712 10.41 10.3569 10.41 10.6167 10.67L13.3651 13.37C13.6249 13.62 14.0347 13.62 14.2945 13.37L17.4327 10.23" stroke="#707A8A" stroke-width="1.5" stroke-linecap="round" stroke-linejoin="round"/>
<path d="M22 12C22 13.98 21.4103 15.91 20.311 17.56C19.2117 19.2 17.6526 20.49 15.8237 21.24C13.9948 22 11.9859 22.19 10.0471 21.81C8.10825 21.42 6.32931 20.47 4.93014 19.07C3.53097 17.67 2.58153 15.89 2.19176 13.95C1.80199 12.01 2.01187 10 2.77142 8.17C3.53097 6.35 4.81021 4.78 6.44924 3.69C8.08826 2.59 10.0271 2 12.0059 2C14.6544 2 17.2028 3.05 19.0717 4.93C20.9506 6.8 22 9.35 22 12Z" stroke="#707A8A" stroke-width="1.5" stroke-linecap="round" stroke-linejoin="round"/>
</svg>
