<svg width="24" height="24" viewBox="0 0 24 24" fill="none" xmlns="http://www.w3.org/2000/svg">
<path d="M18.9383 9.53609H7.39878C6.10353 9.53609 4.92603 8.47634 4.92603 7.06334C4.92603 5.76809 5.98578 4.59058 7.39878 4.59058H18.9383C20.2336 4.59058 21.4111 5.65034 21.4111 7.06334C21.4111 8.47634 20.2336 9.53609 18.9383 9.53609Z" stroke="#707A8A" stroke-width="1.5" stroke-linecap="round" stroke-linejoin="round"/>
<path d="M15.9946 14.364H4.57285C3.2776 14.364 2.1001 13.3042 2.1001 11.8912C2.1001 10.5959 3.15985 9.41846 4.57285 9.41846H16.1124C17.4076 9.41846 18.5851 10.4782 18.5851 11.8912C18.4674 13.3042 17.2899 14.364 15.9946 14.364Z" stroke="#707A8A" stroke-width="1.5" stroke-linecap="round" stroke-linejoin="round"/>
<path d="M19.4094 19.3093H7.98765C6.6924 19.3093 5.51489 18.2495 5.51489 16.8365C5.51489 15.5413 6.57465 14.3638 7.98765 14.3638H19.5272C20.8224 14.3638 21.9999 15.4235 21.9999 16.8365C21.8822 18.2495 20.8224 19.3093 19.4094 19.3093Z" stroke="#707A8A" stroke-width="1.5" stroke-linecap="round" stroke-linejoin="round"/>
</svg>
