<svg width="20" height="20" viewBox="0 0 20 20" fill="none" xmlns="http://www.w3.org/2000/svg">
<path d="M20 0V20H0V0H20Z" fill="#F8F9FD"/>
<path d="M0 0H20V10H0V0Z" fill="#EF5350"/>
<path d="M5.11107 5.87783C5.41107 7.21116 6.52218 8.03339 7.77774 8.33339C5.99996 8.96672 3.96662 8.17783 3.36662 6.30005C3.16154 5.67695 3.12952 5.00985 3.27398 4.36996C3.41844 3.73008 3.73395 3.14144 4.18684 2.66688C4.63973 2.19231 5.21299 1.84964 5.84543 1.67545C6.47786 1.50126 7.14573 1.50208 7.77774 1.67783C6.87956 1.90258 6.10202 2.46373 5.60575 3.24535C5.10948 4.02698 4.93239 4.96937 5.11107 5.87783Z" fill="#F8F9FD"/>
<path d="M8.3779 3.15552L7.86679 2.76663H8.50012L8.68901 2.1333L8.88901 2.76663H9.52234L9.01123 3.15552L9.21123 3.78886L8.68901 3.39997L8.16679 3.78886L8.3779 3.15552ZM10.2001 4.58886L9.68901 4.19997H10.2668L10.4557 3.56663L10.7112 4.18886H11.3223L10.8112 4.57775L11.0335 5.21108L10.5223 4.8333L10.0001 5.22219L10.189 4.58886H10.2001ZM9.51123 6.81108L9.01123 6.34441H9.63345L9.82234 5.71108L10.0223 6.34441H10.6557L10.1557 6.7333L10.3446 7.36663L9.82234 6.97775L9.32234 7.36663L9.51123 6.81108ZM7.21123 6.81108L6.70012 6.36663H7.32234L7.51123 5.7333L7.72234 6.35552H8.35567L7.84456 6.74441L8.03345 7.37775L7.52234 6.99997L7.01123 7.38886L7.21123 6.81108ZM6.51123 4.58886L6.01123 4.19997H6.63345L6.82234 3.55552L7.02234 4.18886H7.65567L7.11123 4.57775L7.33345 5.21108L6.82234 4.82219L6.32234 5.21108L6.51123 4.58886Z" fill="#F8F9FD"/>
</svg>
