<svg class="tindefi" width="139" height="28" viewBox="0 0 139 28" fill="white" xmlns="http://www.w3.org/2000/svg">
<g>
	<g>
		<path class="st0" d="M27.2,7.3l-3.2,3.8c-0.2,0.2-0.4,0.4-0.7,0.6c-0.3,0.1-0.6,0.2-0.9,0.3c-0.3,0-0.6,0-1,0
			c-0.3-0.1-0.6-0.2-0.9-0.4l-0.1,0c-0.3-0.2-0.5-0.5-0.7-0.8c-0.2-0.3-0.3-0.7-0.3-1V8.3c-0.7,0-1.4,0.3-2,0.7
			c-0.5,0.5-0.8,1.1-0.8,1.8v11.3c0,1.4-1.1,2.5-2.6,2.5c-0.4,0-0.7,0-1.1-0.1c-0.3-0.1-0.6-0.3-0.9-0.5c-0.3-0.2-0.5-0.5-0.6-0.8
			c-0.2-0.3-0.2-0.6-0.2-1V10.8c0-1,0.2-1.9,0.6-2.9s1-1.7,1.8-2.4c0.7-0.7,1.7-1.3,2.7-1.6c1-0.4,2.1-0.6,3.2-0.6H25
			c1.6,0,2.7,1,2.7,2.5C27.7,6.4,27.6,6.9,27.2,7.3z"/>
		<path class="st0" d="M7.3,3.4H3.1c-1.4,0-2.7,1.1-2.7,2.4v0c0,1.4,1.2,2.4,2.7,2.4h4.2c1.5,0,2.7-1.1,2.7-2.4v0
			C10,4.4,8.8,3.4,7.3,3.4z"/>
	</g>
	<g>
		<path class="st0" d="M52,4.6H39.2c-1.1,0-2,0.9-2,2s0.9,2,2,2h4.2v13.8c0,1.2,1,2.2,2.2,2.2c1.2,0,2.2-1,2.2-2.2V8.6H52
			c1.1,0,2-0.9,2-2S53.1,4.6,52,4.6z"/>
		<path class="st0" d="M57.4,9.1c-1.2,0-2.2,1-2.2,2.2v11.2c0,1.2,1,2.2,2.2,2.2c1.2,0,2.2-1,2.2-2.2V11.2
			C59.6,10,58.6,9.1,57.4,9.1z"/>
		<path class="st0" d="M71,9c-2.2,0-3.5,1.2-4.5,2.4v-0.2c0-1.2-1-2.2-2.2-2.2s-2.2,1-2.2,2.2v11.2c0,1.2,1,2.2,2.2,2.2
			s2.2-1,2.2-2.2V16c0-2,1.1-3.1,2.7-3.1c1.6,0,2.6,1.1,2.6,3.1v6.5c0,1.2,1,2.2,2.2,2.2c1.2,0,2.2-1,2.2-2.2v-7.9
			C76.2,11.1,74.3,9,71,9z"/>
		<path class="st0" d="M92.3,4.6h-5.6c-1.2,0-2.2,1-2.2,2.2v15.5c0,1.2,1,2.2,2.2,2.2h5.6c6.2,0,10.6-4.3,10.6-9.9v-0.1
			C102.8,8.9,98.5,4.6,92.3,4.6z M98.3,14.6c0,3.5-2.4,5.9-6,5.9h-3.4v-12h3.4C95.8,8.5,98.3,11,98.3,14.6L98.3,14.6z"/>
		<path class="st0" d="M111.6,8.8c-4.4,0-7.5,3.6-7.5,7.9v0.1c0,4.7,3.4,7.9,8,7.9c2.2,0,3.9-0.7,5.3-1.8c0.3-0.3,0.6-0.7,0.6-1.3
			c0-1-0.7-1.7-1.7-1.7c-0.5,0-0.7,0.1-1.1,0.3c-0.9,0.7-1.9,1-3.1,1c-1.9,0-3.3-1-3.7-3h8.5c1.1,0,2-0.8,2-2.1
			C119,13,116.7,8.8,111.6,8.8z M108.3,15.5c0.3-2,1.5-3.2,3.3-3.2c1.8,0,3,1.3,3.2,3.2H108.3z"/>
		<path class="st0" d="M136.4,9.1c-1.2,0-2.2,1-2.2,2.2v11.2c0,1.2,1,2.2,2.2,2.2s2.2-1,2.2-2.2V11.2C138.6,10,137.6,9.1,136.4,9.1z
			"/>
		<path class="st0" d="M130.6,3.4h-2.8c-4.8,0-6.6,4.2-6.6,7.1v12.1c0,1.2,1,2.1,2.1,2.1s2.1-1,2.1-2.1v-6.4h3c1.2,0,2.1-1,2.1-2.1
			s-1-2.1-2.1-2.1h-3v-1.4c0-0.8,0.3-2.8,2.3-2.8h2.8c1.2,0,2.1-1,2.1-2.1S131.8,3.4,130.6,3.4z"/>
		<circle class="st0" cx="136.4" cy="5.5" r="2.2"/>
		<path class="st0" d="M57.4,3.4c-1.2,0-2.2,1-2.2,2.2c0,1.2,1,2.2,2.2,2.2c1.2,0,2.2-1,2.2-2.2C59.6,4.3,58.6,3.4,57.4,3.4z"/>
	</g>
</g>
</svg>
