<svg width="31" height="28" viewBox="0 0 31 28" fill="none" xmlns="http://www.w3.org/2000/svg">
<path d="M30.4543 6.52414L26.875 10.8828C26.6323 11.1586 26.3897 11.3793 26.0257 11.5448C25.7224 11.7103 25.3584 11.8207 24.9944 11.8759C24.6304 11.931 24.2664 11.931 23.9024 11.8207C23.5384 11.7103 23.2351 11.6 22.9318 11.3793L22.8711 11.3241C22.5071 11.1034 22.2644 10.7724 22.0218 10.4414C21.8398 10.1103 21.7184 9.66897 21.7184 9.28276V7.62759C20.8691 7.62759 20.0805 7.95862 19.4738 8.45517C18.8672 9.0069 18.5638 9.72414 18.5638 10.4966V23.131C18.5638 24.6759 17.2899 25.9448 15.5912 26C15.1666 26 14.7419 25.9448 14.3779 25.8345C14.0139 25.7241 13.6499 25.5034 13.3466 25.2276C13.0433 24.9517 12.8006 24.6759 12.6186 24.2897C12.4366 23.9586 12.376 23.5724 12.376 23.1862V10.4966C12.376 9.3931 12.6186 8.28966 13.104 7.24138C13.5893 6.1931 14.2566 5.25517 15.1059 4.48276C15.9552 3.71034 16.9865 3.04828 18.1392 2.66207C19.2918 2.22069 20.5051 2 21.7184 2H27.9063C29.7263 2 31.0002 3.15862 31.0002 4.81379C31.0002 5.47586 30.8182 6.08276 30.4543 6.52414Z" fill="#F5F5F5"/>
<path d="M7.76517 2H3.03327C1.3953 2 0 3.21379 0 4.75862V4.81379C0 6.35862 1.3953 7.57241 3.03327 7.57241H7.76517C9.4638 7.57241 10.7984 6.35862 10.7984 4.81379V4.75862C10.8591 3.21379 9.4638 2 7.76517 2Z" fill="#F5F5F5"/>
</svg>
