<svg width="96" height="28" viewBox="0 0 96 28" fill="white" xmlns="http://www.w3.org/2000/svg">
	<g>
		<path class="st0" d="M14.3,5.2h-12c-1,0-1.9,0.9-1.9,1.9s0.9,1.9,1.9,1.9h3.9v13c0,1.1,0.9,2.1,2.1,2.1c1.1,0,2.1-0.9,2.1-2.1v-13
			h3.9c1,0,1.9-0.9,1.9-1.9S15.4,5.2,14.3,5.2z"/>
		<path class="st0" d="M19.4,9.4c-1.1,0-2,0.9-2,2V22c0,1.1,0.9,2,2,2c1.1,0,2-0.9,2-2V11.4C21.4,10.3,20.5,9.4,19.4,9.4z"/>
		<path class="st0" d="M32.1,9.3c-2.1,0-3.3,1.1-4.2,2.3v-0.2c0-1.1-0.9-2-2-2c-1.1,0-2,0.9-2,2V22c0,1.1,0.9,2,2,2c1.1,0,2-0.9,2-2
			v-6.1c0-1.9,1-2.9,2.5-2.9c1.5,0,2.5,1,2.5,2.9V22c0,1.1,0.9,2,2,2c1.1,0,2-0.9,2-2v-7.4C37,11.3,35.2,9.3,32.1,9.3z"/>
		<path class="st0" d="M52.1,5.2h-5.2c-1.1,0-2.1,0.9-2.1,2.1v14.6c0,1.1,0.9,2.1,2.1,2.1h5.2c5.9,0,9.9-4.1,9.9-9.3v-0.1
			C62,9.2,58,5.2,52.1,5.2z M57.7,14.5c0,3.3-2.3,5.6-5.6,5.6h-3.2V8.9h3.2C55.5,8.9,57.7,11.2,57.7,14.5L57.7,14.5z"/>
		<path class="st0" d="M70.3,9.1c-4.2,0-7.1,3.4-7.1,7.4v0.1c0,4.4,3.2,7.4,7.5,7.4c2.1,0,3.7-0.7,5-1.7c0.3-0.3,0.5-0.7,0.5-1.2
			c0-0.9-0.7-1.6-1.6-1.6c-0.4,0-0.7,0.1-1,0.3c-0.8,0.6-1.8,1-2.9,1c-1.8,0-3.1-1-3.5-2.8h8c1.1,0,1.9-0.8,1.9-1.9
			C77.2,13,75.1,9.1,70.3,9.1z M67.2,15.4c0.3-1.8,1.4-3,3.1-3c1.7,0,2.8,1.2,3,3H67.2z"/>
		<path class="st0" d="M93.5,9.4c-1.1,0-2,0.9-2,2V22c0,1.1,0.9,2,2,2s2-0.9,2-2V11.4C95.6,10.3,94.7,9.4,93.5,9.4z"/>
		<path class="st0" d="M88.1,4h-2.6c-4.5,0-6.2,4-6.2,6.6V22c0,1.1,0.9,2,2,2s2-0.9,2-2v-6h2.8c1.1,0,2-0.9,2-2s-0.9-2-2-2h-2.8v-1.3
			c0-0.8,0.3-2.6,2.2-2.6h2.6c1.1,0,2-0.9,2-2S89.2,4,88.1,4z"/>
		<circle class="st0" cx="93.5" cy="6" r="2"/>
		<path class="st0" d="M19.4,4c-1.1,0-2,0.9-2,2c0,1.1,0.9,2,2,2c1.1,0,2-0.9,2-2C21.4,4.9,20.5,4,19.4,4z"/>
	</g>
</svg>
