<svg width="96" height="28" viewBox="0 0 96 28" fill="none" xmlns="http://www.w3.org/2000/svg">
<path d="M7.232 25.872C8.288 25.872 9.12 25.744 10.016 25.392C10.688 25.136 11.264 24.432 11.264 23.568C11.264 22.448 10.336 21.552 9.248 21.552C9.152 21.552 8.832 21.584 8.672 21.584C7.584 21.584 7.104 21.04 7.104 19.92V12.592H9.248C10.4 12.592 11.328 11.664 11.328 10.512C11.328 9.36 10.4 8.432 9.248 8.432H7.104V6.288C7.104 4.944 6.016 3.856 4.672 3.856C3.328 3.856 2.24 4.944 2.24 6.288V8.432H2.08C0.928 8.432 0 9.36 0 10.512C0 11.664 0.928 12.592 2.08 12.592H2.24V20.72C2.24 24.688 4.256 25.872 7.232 25.872Z" fill="#F5F5F5"/>
<path d="M13.0572 4.4C13.0572 5.808 14.2413 6.704 15.7773 6.704C17.3133 6.704 18.4972 5.808 18.4972 4.4V4.336C18.4972 2.928 17.3133 2.064 15.7773 2.064C14.2413 2.064 13.0572 2.928 13.0572 4.336V4.4ZM13.3452 23.344C13.3452 24.688 14.4333 25.776 15.7773 25.776C17.1213 25.776 18.2092 24.688 18.2092 23.344V10.672C18.2092 9.328 17.1213 8.24 15.7773 8.24C14.4333 8.24 13.3452 9.328 13.3452 10.672V23.344Z" fill="#F5F5F5"/>
<path d="M21.1775 23.344C21.1775 24.688 22.2655 25.776 23.6095 25.776C24.9535 25.776 26.0415 24.688 26.0415 23.344V16.016C26.0415 13.712 27.2255 12.528 29.0815 12.528C30.9375 12.528 32.0255 13.712 32.0255 16.016V23.344C32.0255 24.688 33.1135 25.776 34.4575 25.776C35.8015 25.776 36.8895 24.688 36.8895 23.344V14.48C36.8895 10.544 34.7455 8.112 31.0655 8.112C28.6015 8.112 27.1615 9.424 26.0415 10.864V10.672C26.0415 9.328 24.9535 8.24 23.6095 8.24C22.2655 8.24 21.1775 9.328 21.1775 10.672V23.344Z" fill="#F5F5F5"/>
<path d="M56.763 4.464C56.763 3.12 55.675 2.032 54.331 2.032C52.987 2.032 51.899 3.12 51.899 4.464V10.672C50.747 9.296 49.147 8.112 46.555 8.112C42.491 8.112 38.747 11.248 38.747 16.976V17.04C38.747 22.768 42.555 25.904 46.555 25.904C49.083 25.904 50.715 24.72 51.899 23.12V23.344C51.899 24.688 52.987 25.776 54.331 25.776C55.675 25.776 56.763 24.688 56.763 23.344V4.464ZM47.803 12.24C50.075 12.24 51.963 14.128 51.963 16.976V17.04C51.963 19.888 50.075 21.776 47.803 21.776C45.531 21.776 43.611 19.888 43.611 17.04V16.976C43.611 14.096 45.531 12.24 47.803 12.24Z" fill="#F5F5F5"/>
<path d="M63.4447 15.664C63.8287 13.456 65.1407 12.016 67.1567 12.016C69.2047 12.016 70.4848 13.488 70.7728 15.664H63.4447ZM73.5888 23.888C73.9408 23.568 74.2288 23.088 74.2288 22.448C74.2288 21.36 73.4288 20.528 72.3408 20.528C71.8288 20.528 71.5087 20.656 71.1567 20.912C70.1647 21.648 69.0448 22.064 67.7008 22.064C65.5248 22.064 63.9888 20.912 63.5088 18.704H73.1407C74.4207 18.704 75.4128 17.776 75.4128 16.368C75.4128 12.816 72.8847 8.112 67.1567 8.112C62.1647 8.112 58.6768 12.144 58.6768 17.04V17.104C58.6768 22.352 62.4847 25.968 67.6367 25.968C70.1327 25.968 72.0848 25.168 73.5888 23.888Z" fill="#F5F5F5"/>
<path d="M78.3658 23.344C78.3658 24.688 79.4538 25.776 80.7978 25.776C82.1418 25.776 83.2298 24.688 83.2298 23.344V12.592H85.2777C86.3977 12.592 87.2938 11.728 87.2938 10.608C87.2938 9.488 86.3977 8.624 85.2777 8.624H83.1657V7.952C83.1657 6.672 83.8057 6.096 84.9258 6.096H85.3418C86.4298 6.096 87.3258 5.168 87.3258 4.08C87.3258 2.992 86.4938 2.256 85.6618 2.128C85.1178 2.032 84.4457 2 83.6777 2C81.9497 2 80.6378 2.448 79.7418 3.344C78.8458 4.24 78.3658 5.616 78.3658 7.504V8.592H78.1738C77.0538 8.592 76.1578 9.488 76.1578 10.608C76.1578 11.728 77.0538 12.592 78.1738 12.592H78.3658V23.344ZM89.9818 23.344C89.9818 24.688 91.0697 25.776 92.4137 25.776C93.7577 25.776 94.8457 24.688 94.8457 23.344V10.672C94.8457 9.328 93.7577 8.24 92.4137 8.24C91.0697 8.24 89.9818 9.328 89.9818 10.672V23.344ZM89.6937 4.4C89.6937 5.808 90.8777 6.704 92.4137 6.704C93.9497 6.704 95.1338 5.808 95.1338 4.4V4.336C95.1338 2.928 93.9497 2.064 92.4137 2.064C90.8777 2.064 89.6937 2.928 89.6937 4.336V4.4Z" fill="#F5F5F5"/>
</svg>
