<svg width="139" height="28" viewBox="0 0 139 28" fill="none" xmlns="http://www.w3.org/2000/svg">
<path d="M30.4543 6.52414L26.875 10.8828C26.6323 11.1586 26.3897 11.3793 26.0257 11.5448C25.7224 11.7103 25.3584 11.8207 24.9944 11.8759C24.6304 11.931 24.2664 11.931 23.9024 11.8207C23.5384 11.7103 23.2351 11.6 22.9318 11.3793L22.8711 11.3241C22.5071 11.1034 22.2644 10.7724 22.0218 10.4414C21.8398 10.1103 21.7184 9.66897 21.7184 9.28276V7.62759C20.8691 7.62759 20.0805 7.95862 19.4738 8.45517C18.8672 9.0069 18.5638 9.72414 18.5638 10.4966V23.131C18.5638 24.6759 17.2899 25.9448 15.5912 26C15.1666 26 14.7419 25.9448 14.3779 25.8345C14.0139 25.7241 13.6499 25.5034 13.3466 25.2276C13.0433 24.9517 12.8006 24.6759 12.6186 24.2897C12.4366 23.9586 12.376 23.5724 12.376 23.1862V10.4966C12.376 9.3931 12.6186 8.28966 13.104 7.24138C13.5893 6.1931 14.2566 5.25517 15.1059 4.48276C15.9552 3.71034 16.9865 3.04828 18.1392 2.66207C19.2918 2.22069 20.5051 2 21.7184 2H27.9063C29.7263 2 31.0002 3.15862 31.0002 4.81379C31.0002 5.47586 30.8182 6.08276 30.4543 6.52414Z" fill="#F5F5F5"/>
<path d="M7.76517 2H3.03327C1.3953 2 0 3.21379 0 4.75862V4.81379C0 6.35862 1.3953 7.57241 3.03327 7.57241H7.76517C9.4638 7.57241 10.7984 6.35862 10.7984 4.81379V4.75862C10.8591 3.21379 9.4638 2 7.76517 2Z" fill="#F5F5F5"/>
<path d="M50.2322 25.888C51.2882 25.888 52.1202 25.76 53.0162 25.408C53.6882 25.152 54.2642 24.448 54.2642 23.584C54.2642 22.464 53.3362 21.568 52.2482 21.568C52.1522 21.568 51.8322 21.6 51.6722 21.6C50.5842 21.6 50.1042 21.056 50.1042 19.936V12.608H52.2482C53.4002 12.608 54.3282 11.68 54.3282 10.528C54.3282 9.37599 53.4002 8.44799 52.2482 8.44799H50.1042V6.30399C50.1042 4.95999 49.0162 3.87199 47.6722 3.87199C46.3282 3.87199 45.2402 4.95999 45.2402 6.30399V8.44799H45.0802C43.9282 8.44799 43.0002 9.37599 43.0002 10.528C43.0002 11.68 43.9282 12.608 45.0802 12.608H45.2402V20.736C45.2402 24.704 47.2562 25.888 50.2322 25.888Z" fill="#F5F5F5"/>
<path d="M56.0575 4.41599C56.0575 5.82399 57.2415 6.71999 58.7775 6.71999C60.3135 6.71999 61.4975 5.82399 61.4975 4.41599V4.35199C61.4975 2.94399 60.3135 2.07999 58.7775 2.07999C57.2415 2.07999 56.0575 2.94399 56.0575 4.35199V4.41599ZM56.3455 23.36C56.3455 24.704 57.4335 25.792 58.7775 25.792C60.1215 25.792 61.2095 24.704 61.2095 23.36V10.688C61.2095 9.34399 60.1215 8.25599 58.7775 8.25599C57.4335 8.25599 56.3455 9.34399 56.3455 10.688V23.36Z" fill="#F5F5F5"/>
<path d="M64.1777 23.36C64.1777 24.704 65.2657 25.792 66.6097 25.792C67.9537 25.792 69.0417 24.704 69.0417 23.36V16.032C69.0417 13.728 70.2257 12.544 72.0817 12.544C73.9377 12.544 75.0257 13.728 75.0257 16.032V23.36C75.0257 24.704 76.1137 25.792 77.4577 25.792C78.8017 25.792 79.8897 24.704 79.8897 23.36V14.496C79.8897 10.56 77.7457 8.12799 74.0657 8.12799C71.6017 8.12799 70.1617 9.43999 69.0417 10.88V10.688C69.0417 9.34399 67.9537 8.25599 66.6097 8.25599C65.2657 8.25599 64.1777 9.34399 64.1777 10.688V23.36Z" fill="#F5F5F5"/>
<path d="M99.7632 4.47999C99.7632 3.13599 98.6752 2.04799 97.3312 2.04799C95.9872 2.04799 94.8992 3.13599 94.8992 4.47999V10.688C93.7472 9.31199 92.1472 8.12799 89.5552 8.12799C85.4912 8.12799 81.7472 11.264 81.7472 16.992V17.056C81.7472 22.784 85.5552 25.92 89.5552 25.92C92.0832 25.92 93.7152 24.736 94.8992 23.136V23.36C94.8992 24.704 95.9872 25.792 97.3312 25.792C98.6752 25.792 99.7632 24.704 99.7632 23.36V4.47999ZM90.8032 12.256C93.0752 12.256 94.9632 14.144 94.9632 16.992V17.056C94.9632 19.904 93.0752 21.792 90.8032 21.792C88.5312 21.792 86.6112 19.904 86.6112 17.056V16.992C86.6112 14.112 88.5312 12.256 90.8032 12.256Z" fill="#F5F5F5"/>
<path d="M106.445 15.68C106.829 13.472 108.141 12.032 110.157 12.032C112.205 12.032 113.485 13.504 113.773 15.68H106.445ZM116.589 23.904C116.941 23.584 117.229 23.104 117.229 22.464C117.229 21.376 116.429 20.544 115.341 20.544C114.829 20.544 114.509 20.672 114.157 20.928C113.165 21.664 112.045 22.08 110.701 22.08C108.525 22.08 106.989 20.928 106.509 18.72H116.141C117.421 18.72 118.413 17.792 118.413 16.384C118.413 12.832 115.885 8.12799 110.157 8.12799C105.165 8.12799 101.677 12.16 101.677 17.056V17.12C101.677 22.368 105.485 25.984 110.637 25.984C113.133 25.984 115.085 25.184 116.589 23.904Z" fill="#F5F5F5"/>
<path d="M121.366 23.36C121.366 24.704 122.454 25.792 123.798 25.792C125.142 25.792 126.23 24.704 126.23 23.36V12.608H128.278C129.398 12.608 130.294 11.744 130.294 10.624C130.294 9.50399 129.398 8.63999 128.278 8.63999H126.166V7.96799C126.166 6.68799 126.806 6.11199 127.926 6.11199H128.342C129.43 6.11199 130.326 5.18399 130.326 4.09599C130.326 3.00799 129.494 2.27199 128.662 2.14399C128.118 2.04799 127.446 2.01599 126.678 2.01599C124.95 2.01599 123.638 2.46399 122.742 3.35999C121.846 4.25599 121.366 5.63199 121.366 7.51999V8.60799H121.174C120.054 8.60799 119.158 9.50399 119.158 10.624C119.158 11.744 120.054 12.608 121.174 12.608H121.366V23.36ZM132.982 23.36C132.982 24.704 134.07 25.792 135.414 25.792C136.758 25.792 137.846 24.704 137.846 23.36V10.688C137.846 9.34399 136.758 8.25599 135.414 8.25599C134.07 8.25599 132.982 9.34399 132.982 10.688V23.36ZM132.694 4.41599C132.694 5.82399 133.878 6.71999 135.414 6.71999C136.95 6.71999 138.134 5.82399 138.134 4.41599V4.35199C138.134 2.94399 136.95 2.07999 135.414 2.07999C133.878 2.07999 132.694 2.94399 132.694 4.35199V4.41599Z" fill="#F5F5F5"/>
</svg>
