<svg xmlns="http://www.w3.org/2000/svg" xmlns:xlink="http://www.w3.org/1999/xlink" viewBox="0 0 600 600"><defs><style>.cls-1{fill:#d7ff5a;}.cls-2{fill:#4aa4bc;}.cls-3{fill:#f1f3f3;}.cls-4{fill:#fffbb6;}.cls-5{fill:#c65ded;}.cls-6{fill:#943fbc;}.cls-7{fill:#d8d287;}.cls-13,.cls-14,.cls-18,.cls-19,.cls-20,.cls-22,.cls-8,.cls-9{fill:none;}.cls-8{stroke:#030304;}.cls-14,.cls-18,.cls-19,.cls-20,.cls-8,.cls-9{stroke-linecap:round;stroke-linejoin:round;}.cls-18,.cls-19,.cls-8{stroke-width:2.77px;}.cls-18,.cls-9{stroke:#1b5186;}.cls-20,.cls-9{stroke-width:3.33px;}.cls-10{fill:#dedbe1;}.cls-11{fill:#0080ca;}.cls-12{fill:#1b5186;}.cls-13{stroke:#6fb7d6;stroke-width:0.56px;}.cls-13,.cls-22{stroke-miterlimit:10;}.cls-14,.cls-19,.cls-20,.cls-22{stroke:#1d1d1b;}.cls-14,.cls-22{stroke-width:2.22px;}.cls-15{fill:#f2f3f2;}.cls-16{fill:#1d1d1b;}.cls-17{fill:#6fb7d6;}.cls-21{fill:url(#Degradado_sin_nombre_6);}.cls-23{fill:url(#Degradado_sin_nombre_6-2);}.cls-24{fill:#3c3c3b;}</style><linearGradient id="Degradado_sin_nombre_6" x1="6924.88" y1="160.42" x2="6924.88" y2="129.35" gradientTransform="matrix(-1, 0, 0, 1, 7156.57, 0)" gradientUnits="userSpaceOnUse"><stop offset="0" stop-color="#ab076c"/><stop offset="1" stop-color="#760862"/></linearGradient><linearGradient id="Degradado_sin_nombre_6-2" x1="300.78" y1="165.25" x2="300.78" y2="130.97" gradientTransform="matrix(1, 0, 0, 1, 0, 0)" xlink:href="#Degradado_sin_nombre_6"/></defs><g id="Capa_3" data-name="Capa 3"><g id="a"><rect class="cls-1" width="600" height="600"/></g></g><g id="Capa_2" data-name="Capa 2"><path class="cls-2" d="M216.58,212s29.14,79.68,74.09,83.74,92-57.69,95.13-65.8-2.51-27.59-2.51-27.59-5.14-62-10.84-99.07C368,74.49,355,51.62,307.13,50.65s-62,32.3-63.73,38.09S218.9,204.71,216.58,212Z"/><path class="cls-3" d="M234.65,173.51l15,67.7s18.45,13.44,27.67,26.36,20.56,44,28.47,43.22,41.53-54.13,41.53-54.13L360.47,167s-28.94,48.66-59.89,50.57C253.58,220.46,246.24,192.75,234.65,173.51Z"/><path class="cls-4" d="M246.91,495.9l2-25.4s19.38,12.94,52.32,12.94,53.28-14.76,53.28-14.76v26.79s11.32,6.16,22.06,5.3,19.62-2.3,19.62-2.3l-3.58,101.16h-179l-5.94-100.87s5.44,2.58,19.62,1.72S246.91,495.9,246.91,495.9Z"/><path class="cls-5" d="M249.53,470.3S264.35,484,298.75,484s54.31-13.47,54.31-13.47l-1.7-67.66-48.2-6.11-50.35,19.57Z"/><path class="cls-4" d="M252.81,416.32s-2.38,30.78-2.83,38.13-3.4,42.1-3.4,42.1-9.5,5.54-25,4.41-24.44-4.75-24.44-4.75-7.58-30.33-8.94-40.85a133.64,133.64,0,0,1-1-19.69s1.81,2.72,7.81,2.26S252.81,416.32,252.81,416.32Z"/><path class="cls-4" d="M333.81,386.62s-6.1-19.42-5.53-35.86,3.54-23.67,3.54-23.67-36.71,8.22-42.94,11.19-32.6,13.9-39.55,19.42-6.66,13.33-9.07,16.16-5.1,3.54-5.81,2.41-2-10.49-2-10.49l1-8.36s-5.39,11.48-11.06,14-5.67.57-6.09-1.13.56-6.66.56-6.66-4.67,5.81-8.07,3,1.7-11.48,3-14,5-10.77,5-10.77-6.94,1.56-8.08.57,4.4-7.66,4.4-7.66l2.69-2.12s25.09-12.62,32-13.33,4.68-.42,4.68-.42l-11.76-62.51s-17.72-18.14-21-23.81-.71-18.71-.71-18.71l-.57-12.19S208.51,210,206,214.12a25.67,25.67,0,0,0-3.26,8.08l-46.63,37.56s-16.3-1.13-24.1,21.69,6,61.65,19.14,96.66,32.46,55.28,37.13,58.26,11.77,1.27,14.46.56S299.79,395.69,333.81,386.62Z"/><path class="cls-4" d="M355.92,315.61l12.47-61.38s13.75-12.89,17.15-21.68,1.19-19.17,1.19-19.17l-2-13.31s10.86,7,13.26,10.65,5.53,12.47,5.53,12.47l30.19,19.71A24.39,24.39,0,0,1,458,248c11.62,10.2,15.45,30.05,8.36,65.06s-23,94.11-23.81,96.09a16.53,16.53,0,0,1-3.26,4.26s-16.16-.43-18.57-.71l-2.41-.29s-2.83,32.32-5.38,44.65-8.37,39.12-8.37,39.12a102.08,102.08,0,0,1-20.41,4.54c-10.2,1-29.34-4-29.34-4l-3.68-93.12-50.32-6.81,32.46-9.92s-3.83-27.35-4.39-33.31-.29-15-.29-15l.85-1.28,53.3,13.18,5.38-21.4s-7.37-10.77-16.58-13.6S355.92,315.61,355.92,315.61Z"/><path class="cls-5" d="M296.79,283.36s-6.69-16.89-32.07-30.62-46.07-39.29-46.07-39.29-.27,13.27,2.26,19.69,20.23,25.11,20.23,25.11l7.5,35.77,3,24.66a237,237,0,0,1,23.31,8,205.89,205.89,0,0,1,20,10.39l7.32-1.27,31.88-10.11s10.21-7.5,13.37-8.58a92.43,92.43,0,0,1,9-2.26l10.75-60.25s15.18-15.36,17.8-22.95a40.91,40.91,0,0,0,2.26-14.09S332.47,257.71,322.35,267s-20.78,38.57-20.78,38.57Z"/><path class="cls-6" d="M250.74,437.12s18-10.36,50.16-10.36,51.27,13.14,51.27,13.14l-1.07-36.27-46.68-6.95-52.85,21.19Z"/><path class="cls-6" d="M241.81,259.91l7.33,38.27s-1.25-12.67,21.87-13.54,29.57,16,29.57,16-2-13.54-2.61-14.78-8.82-11.68-22.12-17.4-18.88,4.35-19.26,5.35-2.23,4.47-2.23,4.47S250.63,266.25,241.81,259.91Z"/><path class="cls-6" d="M301.57,302.53s-1.49-15.29,18.14-27.71,24.85-7.46,27.22-5.22,4.34,8.82,4.34,8.82l15.41-22.49-7.2,34.17s-3.11-5.84-21.87-7.2S301.57,302.53,301.57,302.53Z"/><path class="cls-7" d="M233.3,291.23A267.12,267.12,0,0,0,215.54,266s-7.3-27.07-5-40.25,8.88-14.32,8.88-14.32l-.14-11.31s-15,11.17-19.05,30.65,9.64,49.48,9.64,49.48L225.71,295s-2.86,14.47-4.72,22.92-2.87,12.6-2.87,12.6l9.17-3.87s1.72-11.74,3.29-16,9.46,0,9.46,0S240.61,303.4,233.3,291.23Z"/><path class="cls-7" d="M166.49,261.84s-15.12,6.68-18.06,28.67,37.11,106.6,45,118.19,44,1,72.84-9.62,66.95-17.87,66.95-17.87l.39,4.71s-39.27,12.18-69.31,25.33S199.67,440.31,192,437.17s-26.5-20.82-42.8-65.58S125.46,294.82,134.1,276,166.49,261.84,166.49,261.84Z"/><path class="cls-7" d="M210.07,279.91c-.46-.71-11.2-20.32-10.85-35.38s1.28-20.08,1.28-20.08l-44.83,35.49s5.61.7,8.41.94a14.46,14.46,0,0,1,4.55,1.05s8.41-5.84,14.59-9.46,16,18.45,18.22,29.3l14.47,49.85,2.21-1.15s5.85-27.68,6-30.25.47-6.54.47-6.54S210.54,280.61,210.07,279.91Z"/><path class="cls-7" d="M373.79,291.23A269.19,269.19,0,0,1,391.55,266s7.31-27.07,5-40.25-8.88-14.32-8.88-14.32l-2.35-11.34s17.53,11.2,21.54,30.68-9.65,49.48-9.65,49.48l-12.17,11.84s-.81,17.31,1.05,25.76,2.86,12.6,2.86,12.6l-9.16-3.87s-1.72-11.74-3.3-16-9.45,0-9.45,0S366.49,303.4,373.79,291.23Z"/><path class="cls-7" d="M405,223.19l26.87,19.49a69.22,69.22,0,0,0-23.8,29.63C400,292,387.82,327.42,387.82,327.42l-6-7.37-2.3-24.56,18.73-16.12s9.36-17,10-34.54S405,223.19,405,223.19Z"/><path class="cls-8" d="M384.63,200.11s16.66,5.83,21.54,30.68-11.05,55.44-11.05,55.44-20.34,5.21-28.77,24.33"/><path class="cls-7" d="M208.84,433.42c-14,5-17.52,5.4-20.69,1.86v13.05s38.39,6.89,61.88-10.07l1.64-21.74S222.82,428.38,208.84,433.42Z"/><path class="cls-7" d="M209.08,515.7s26.25,4.74,44-3.71l2.67-15s32,8,86.89.15l1.48,13.64s22.84,7.26,51.16.29l.44-11.71s-5,2.22-20,.89-21.5-5-21.5-5l-.74-24.76s-20.16,12.9-50.71,12.9a116.1,116.1,0,0,1-54-13.94l-2.24,27.11s-12,3.43-21.34,3.58a166.17,166.17,0,0,1-16.9-.59Z"/><path class="cls-7" d="M351.36,402.86l1,19.19S374,437,416.28,429.31l2-16.9Z"/><path class="cls-7" d="M327.94,388.68s93.56,11.75,96.73,12.3,18.45-46.41,30.57-91.7-2.42-75.67-30-61.5c0,0,5.59-10.26,25-5.41s19,33.36,17,60.39-25.72,108.85-27,110-7.83,1.67-20.69-.38-116.29-15.6-116.29-15.6Z"/><path class="cls-9" d="M239.35,106.49,245.72,83s12.4-37.31,66-32.49c50,4.5,60.92,30.57,62.65,66.65s11.39,101.1,11.39,101.1"/><path class="cls-10" d="M259.87,249.19l-4.3-43.82a59.88,59.88,0,0,0,38.55,13.21c29.26-.58,54.2-29.81,54.2-29.81l-8.83,66s-25.69,20.42-28.06,23.85-9,21.27-9,21.27a151.94,151.94,0,0,0-12-26.21c-8.16-14.18-30.51-24.49-30.51-24.49"/><path class="cls-3" d="M229.41,155.49s4.66-8.68,9.14-12.64,13.88-3.39,20.07,1.09,11.88,4,23.58,0,35.65,15.4,59.77-.82,28.29,12,14.33,31.92S321,221.69,283.39,218.21,230.22,172.67,229.41,155.49Z"/><path class="cls-2" d="M383.4,350.27h-3.22L330,337.6s-1.83-12.57,11.49-17.3,23.53-6.44,34.27-2.58a17.32,17.32,0,0,1,11.71,13.65Z"/><path class="cls-11" d="M330.55,333s27.61-12.89,55.33.86L383.3,349.3l-7.84-.21-46-11.8Z"/><path class="cls-8" d="M215.77,336.1s6.75-15.2,9.46-41.51"/><path class="cls-8" d="M216.75,334.38s-7.87-29-12.54-44.51S188.47,267,182.32,266.26"/><line class="cls-8" x1="153.91" y1="260.45" x2="202.54" y2="221.82"/><path class="cls-12" d="M222.25,201.09l14.33,14S224.14,213.05,222.25,201.09Z"/><path class="cls-12" d="M224.22,190.51l14.33,14S226.12,202.47,224.22,190.51Z"/><path class="cls-12" d="M226.09,179.44l14.33,14S228,191.4,226.09,179.44Z"/><path class="cls-12" d="M381.06,201.09l-14.32,14S379.17,213.05,381.06,201.09Z"/><path class="cls-12" d="M379.09,190.51l-14.33,14S377.2,202.47,379.09,190.51Z"/><path class="cls-12" d="M377.22,179.44l-14.33,14S375.33,191.4,377.22,179.44Z"/><path class="cls-8" d="M251.56,318.8s-4.55-33.36-10.7-60.65"/><path class="cls-8" d="M356.34,315.79S360.87,284,367,256.66"/><line class="cls-8" x1="405.66" y1="224.36" x2="433.35" y2="242.1"/><path class="cls-8" d="M418,256.93s8.15-19.49,28.38-14.8,27.15,24.92,19.74,70.33-25.41,100.2-25.41,100.2.24,1.72-9.63,1c-6.2-.46-127.59-16.78-127.59-16.78"/><path class="cls-9" d="M332.05,327.56s9.45-11.28,29-12.34,26.47,13.89,26.47,13.89"/><line class="cls-8" x1="329.77" y1="338.08" x2="384.03" y2="350.73"/><path class="cls-8" d="M382.44,351.13s8.91-4.12,31.86-.42"/><path class="cls-8" d="M382.71,351.21s9.13-47.14,28.13-84.9"/><path class="cls-8" d="M248.87,470.5s43.61,30.17,103.94,0"/><line class="cls-8" x1="301.37" y1="483.45" x2="301.37" y2="397.36"/><path class="cls-8" d="M187,435.21s1,36.64,9.84,60.75c0,0,22.13,10.32,50.17.49l4.67-79.93"/><path class="cls-8" d="M417.56,413.52s-4.49,58.33-13.34,82.44c0,0-22.13,10.32-50.17.49l-3.08-93"/><line class="cls-8" x1="225.31" y1="466.46" x2="234.23" y2="461.72"/><line class="cls-8" x1="339.82" y1="446.4" x2="347.62" y2="441.1"/><line class="cls-8" x1="340.94" y1="437.48" x2="346.23" y2="431.63"/><line class="cls-8" x1="207.76" y1="499.33" x2="213.16" y2="598.87"/><line class="cls-8" x1="297.75" y1="501.01" x2="297.75" y2="558.68"/><path class="cls-8" d="M308.62,500.17v47.57s-4.7,7.42-8.93,10.2-4.09,41.69-4.09,41.69"/><line class="cls-8" x1="395.82" y1="499.06" x2="393.04" y2="598.52"/><path class="cls-8" d="M218.55,213.3s10.51,16.18,32.53,30.36,46.53,23.72,50.37,59.24v31.15"/><path class="cls-8" d="M240,310.56c-8.43-19.12-28.77-24.33-28.77-24.33s-15.93-30.6-11.05-55.44,19.05-30.65,19.05-30.65"/><path class="cls-8" d="M301.63,304.05s4-26,33.19-46a591.22,591.22,0,0,0,52.56-40.83"/><path class="cls-8" d="M218.47,213.38s-6.15,13.28,11.07,31.23,25.33,33.94,25.33,33.94,1-8.61,8.61-11.31,22.77,6.34,30.64,14.46"/><path class="cls-8" d="M387.81,216.53s3.11,12.47-11.29,28.08c-16.86,18.29-25.33,33.94-25.33,33.94s-1-8.61-8.61-11.31-21.24,5-29.11,13.12"/><path class="cls-8" d="M172.7,263.6a27.7,27.7,0,0,0-29.86,1.73c-25.83,18.32-7.25,74,8.49,112.33s33.94,59.27,41.07,60.26,33.7-10.33,60.5-21.89,63-25.19,80.66-29.13c0,0-9.67-35.23-1.93-60.37,0,0-30.28,5.88-67.41,22.11"/><path class="cls-13" d="M217.92,361.9a17.06,17.06,0,0,0,1-2S218.49,360.71,217.92,361.9Z"/><path class="cls-11" d="M239.27,327.56c0-3.47-13.35,1.63-18.7,4.9-4.43,2.71-10.45,5.86-12,9.73.55.66,2.32.61,6.6-.64a45.83,45.83,0,0,1,8.39-5.68C228.82,333.13,234.69,331.36,239.27,327.56Z"/><path class="cls-2" d="M248.31,358.33c7.53-6.06,17.38-12,25.83-16.71,4.6-2.56,11-4.86,14.46-8.83-10.73-5.68-33.84-16.65-43.21-13-13.89,5.35-34.61,12.76-35.57,17.08-.52,2.28-2,4.46-1.26,5.36q6.75-3.9,13.39-8c5.36-3.27,11.05-6.74,17.32-6.67-4.58,3.8-10.45,5.57-15.72,8.31a45.83,45.83,0,0,0-8.39,5.68c.86-.25,1.8-.54,2.87-.88a66,66,0,0,0-8.33,15.84c-1.46,4.32-2.45,7.14-2.38,8.83.48-.49,3.18,2.52,3.6,2,2.27-2.91,3.93-6,6-9.1,6.66-10.12,15.81-19.52,26.81-24.61-3.2,4.41-9.27,5.47-13.66,8.69-4.16,3.05-6.59,7.88-8.67,12.6q-2.93,6.63-5.34,13.47c-.13.36-.25.73-.38,1.1,0,1.93.73,3.41,3.06,3.53a4.91,4.91,0,0,0,1.08-.08c.72-1.21,4.95-3.75,5.44-5.06,1.31-3.49,3.66-4.94,5.46-8.2,2.46-4.47,4.41-7.1,8.53-10.11,3.53-2.58,6.23-5.37,9.89-7.75,2.59-1.67,2.1-3.25,4.45-1.26-1.93,1.35-2.08,1.13-4.05,2.41a46.15,46.15,0,0,0-16,18.08c-.9,4-1.83,9.69-.82,13,.19-.7,3.13,2.63,3.33,1.94C238.18,368.61,242.29,363.17,248.31,358.33Z"/><path class="cls-11" d="M292.19,334.86s-3.48-2.16-8.64-4.89a45.85,45.85,0,0,1-12.22,9.91c-8.45,4.7-18.4,6.72-25.93,12.78-6,4.84-10,11.91-12.16,19.32-.2.69-.4,1.39-.59,2.09.59,2,1.87,3.13,4.25,2.61,9-2-.45-11.18,13.78-20s17.63-11.11,25.33-14.23S292.85,337.5,292.19,334.86Z"/><path class="cls-11" d="M221.36,354.91c2.08-4.72,4.51-9.55,8.67-12.6,4.39-3.22,10.46-4.28,13.66-8.69-11,5.09-22.56,10.65-29.23,20.77-2,3.08-3.53,6.51-5.8,9.42a17.46,17.46,0,0,1-1.34,1.53c.07,1.59,1.09,2.16,3.6,2,3.36-.23,5.75-3.32,7-5.43.57-1.19,1-2,1-2a17.06,17.06,0,0,1-1,2c-.95,2-2.24,5.15-2.28,7.58.13-.37.25-.74.38-1.1Q218.44,361.54,221.36,354.91Z"/><path class="cls-11" d="M255.48,339.2c-2.35-2-5.91-.41-8.5,1.27q-5.49,3.57-10.79,7.43c-4.12,3-8.25,6.28-10.71,10.75-1.8,3.27-2.59,7-3.9,10.47a24.07,24.07,0,0,1-1.8,3.81c6.83-1.24,14.86-16.42,14.86-16.42s-.58,1.89-1.17,4.53a46.15,46.15,0,0,1,16-18.08C251.47,341.68,253.55,340.55,255.48,339.2Z"/><path class="cls-12" d="M292.89,333.66c-7.27-3.37-14.48-6.87-21.76-10.21-7.54-3.46-16.06-6.26-24.48-5.27-3.66.43-6.8,1.94-10.16,3.35-3.2,1.34-6.42,2.64-9.59,4-6.09,2.67-12.46,5.66-17.26,10.38-1.2,1.18-2,2.11-2.13,3.83-.09,1.5-.12,3,1.35,3.79,2.81,1.61,7.5.1,9.87-1.71,1.4-1.06,0-3.47-1.4-2.39a10.93,10.93,0,0,1-3.87,1.7,7.07,7.07,0,0,1-1.83.24,4.54,4.54,0,0,1-.82-.07c-.16,0-.68-.23-.62-.15a8.15,8.15,0,0,0,.08-1.12,1.43,1.43,0,0,1,.47-1.27,25.46,25.46,0,0,1,2.9-2.69c4.8-3.84,10.61-6.42,16.21-8.82,2.77-1.19,5.56-2.31,8.33-3.49,3.06-1.29,5.95-2.65,9.32-2.93,7.59-.64,15.2,1.76,22,4.88,7.35,3.36,14.63,6.91,22,10.31,1.61.74,3-1.65,1.4-2.4Z"/><path class="cls-12" d="M238.14,327.53c-4.12,2.33-8.48,4.2-12.67,6.39a41.46,41.46,0,0,0-6.51,4,18.47,18.47,0,0,0-4.9,6.22c-2.79,5.34-5.29,10.88-7.68,16.41-.95,2.19-1.66,4.77.26,6.67a5.86,5.86,0,0,0,5.5,1.29c2.05-.54,3.51-2.26,4.78-3.85a34.79,34.79,0,0,0,3.67-5.49c.81-1.58-1.58-3-2.4-1.4a30.17,30.17,0,0,1-2.53,4,15.22,15.22,0,0,1-3.26,3.62c-1.07.74-3.1.88-4-.3-.62-.85-.12-2,.24-2.9.51-1.27,1.1-2.52,1.66-3.77,2.11-4.69,4.18-9.51,6.72-14,2.32-4.08,6.23-6.28,10.28-8.37s8.24-3.91,12.2-6.15a1.39,1.39,0,0,0-1.4-2.4Z"/><path class="cls-12" d="M243,332.78a42.64,42.64,0,0,1-7.28,4.46,33.46,33.46,0,0,0-6.58,4.53,42.88,42.88,0,0,0-9.06,12.53c-1.18,2.33-2.25,4.71-3.28,7.12s-2.51,5.05-2.39,7.75a5.26,5.26,0,0,0,3.92,5.17c2.79.57,5.22-1.09,7-3.09a128.16,128.16,0,0,0,12-16.65c.95-1.51-1.45-2.91-2.4-1.4a149.83,149.83,0,0,1-9.36,13.33c-1.41,1.79-3.14,4.66-5.58,5.1-2.68.48-3.13-2.36-2.59-4.33a50.92,50.92,0,0,1,2.78-6.81c.91-2,1.86-4,2.9-6a38.92,38.92,0,0,1,8-10.75c4.14-3.75,9.61-5.42,13.87-9,1.37-1.15-.61-3.1-2-2Z"/><path class="cls-12" d="M255.63,337.63q-6,4.2-12.1,8.4c-3.32,2.32-6.65,4.75-9,8.09s-3.36,7.75-3.5,12c-.07,2.23.05,4.45.2,6.67.11,1.77.28,3.74,1.85,4.86,3.35,2.41,7.42-1.14,9-4,2-3.56,2.06-8,4.42-11.35a18.4,18.4,0,0,1,4.73-4.28c1.83-1.3,3.69-2.54,5.58-3.74q5.79-3.67,11.9-6.81a141.37,141.37,0,0,1,14.23-6.34c2.38-.91,4.79-1.73,7.21-2.54,1.94-.64,3.77-1.81,3.39-4.1-.28-1.76-3-1-2.67.74.07.43-4.39,1.67-4.87,1.83q-2.87,1-5.68,2.13c-3.8,1.51-7.54,3.16-11.21,5a128.5,128.5,0,0,0-20.77,12.53,16.8,16.8,0,0,0-6.26,8.63c-1,3.16-1.53,7.11-4.31,9.3a4,4,0,0,1-2.31.95c-1,0-1.26-.81-1.38-1.68a44.37,44.37,0,0,1-.3-5.65c-.06-3.83.27-7.81,2.18-11.22,2-3.62,5.48-6.15,8.83-8.49,4.08-2.85,8.17-5.67,12.26-8.51,1.45-1,.07-3.42-1.4-2.4Z"/><path class="cls-12" d="M262.82,338.07l4.3-1.83a1.34,1.34,0,0,0,.64-.83,1.4,1.4,0,0,0-.14-1.06,1.37,1.37,0,0,0-.83-.64l-.37,0a1.34,1.34,0,0,0-.7.19l-4.3,1.83a1.37,1.37,0,0,0-.63.82,1.42,1.42,0,0,0,.14,1.07,1.37,1.37,0,0,0,.83.64l.36.05a1.29,1.29,0,0,0,.7-.19Z"/><path class="cls-12" d="M248.83,331l6.21-1.68a1.39,1.39,0,1,0-.74-2.67l-6.2,1.67a1.39,1.39,0,0,0,.73,2.68Z"/><line class="cls-14" x1="244.48" y1="170.99" x2="251.35" y2="167.46"/><path class="cls-3" d="M239.79,161.62s20.31,11.65,49.46,12.26,60.59-20.4,60.59-20.4l3.77-3.15s-22.59,42.2-64.09,44S239.79,161.62,239.79,161.62Z"/><path class="cls-9" d="M229.41,157.71s12.61,55.83,54,60.5,71.3-36.76,77.08-51.22"/><line class="cls-9" x1="217.55" y1="212.23" x2="235.09" y2="128.35"/><path class="cls-15" d="M353.8,118.47a17.42,17.42,0,0,1,.28,3.18c0,8.37-5.68,15.15-12.69,15.15-5.24,0-9.74-3.79-11.68-9.2C323.07,114.49,344.15,91.73,353.8,118.47Z"/><ellipse class="cls-16" cx="343.15" cy="122.08" rx="2.83" ry="3.98"/><ellipse class="cls-15" cx="344.32" cy="118.8" rx="1.17" ry="1.33"/><path class="cls-17" d="M340.51,136.93s-8.35-.77-10.67-10.33l24.24-1.36S352.29,136.8,340.51,136.93Z"/><path class="cls-17" d="M342.3,106a14.94,14.94,0,0,1,11.78,11.42l-25.64,1.65S331.4,105.9,342.3,106Z"/><path class="cls-18" d="M352.29,129.43a17.4,17.4,0,0,0,1.79-7.78,17.84,17.84,0,0,0-.83-5.43"/><path class="cls-18" d="M350.2,110.74a11.69,11.69,0,0,0-8.81-4.24c-7,0-12.7,6.78-12.7,15.15A15.84,15.84,0,0,0,335,134.77"/><line class="cls-18" x1="353.43" y1="116.85" x2="328.79" y2="119.75"/><line class="cls-18" x1="330.43" y1="127.14" x2="352.73" y2="124.52"/><path class="cls-9" d="M260.59,157.71s-7.3-9.29-7.73-18.62c-.39-8.59,11.05-14.28,22.11-20.21"/><path class="cls-15" d="M251.23,122a18.24,18.24,0,0,1-.41,3.16c-1.81,8.17-8.82,13.57-15.67,12.05-5.12-1.13-8.69-5.8-9.42-11.5C222.08,111.47,247.58,93.8,251.23,122Z"/><ellipse class="cls-16" cx="240.05" cy="123.22" rx="3.98" ry="2.83" transform="translate(67.87 330.98) rotate(-77.52)"/><ellipse class="cls-15" cx="241.9" cy="120.27" rx="1.33" ry="1.17" transform="translate(72.21 330.47) rotate(-77.52)"/><path class="cls-17" d="M234.26,137.15s-8-2.56-8.18-12.39l24,3.91S245.79,139.57,234.26,137.15Z"/><path class="cls-17" d="M242.68,107.37a14.94,14.94,0,0,1,9,13.69l-25.4-3.92S232.08,104.88,242.68,107.37Z"/><path class="cls-18" d="M247.38,132.37a17.34,17.34,0,0,0,3.44-7.21,17.6,17.6,0,0,0,.35-5.47"/><path class="cls-18" d="M249.38,113.68a11.67,11.67,0,0,0-7.68-6.05c-6.85-1.52-13.87,3.88-15.68,12.05-1.21,5.47.23,10.81,3.37,14.18"/><line class="cls-18" x1="251.22" y1="120.34" x2="226.53" y2="117.85"/><line class="cls-18" x1="226.53" y1="125.42" x2="248.88" y2="127.67"/><path class="cls-14" d="M237.3,158.81c8.45,4.3,16.24,8.23,16.24,8.23s34.76,16,70.55.21c0,0,20.17-9.79,32.35-19.39"/><path class="cls-14" d="M237.3,158.81s10.28,32.68,50.93,35.45c37.21,2.53,68.21-46.4,68.21-46.4"/><polyline class="cls-14" points="251.98 167.35 257.46 182.63 266.96 171.83 277.43 192.87 287.88 174.33 298.8 193.25 308.48 172.35 320.61 184.69 325.44 167.98 334.46 174.21 339.83 158.81"/><path class="cls-14" d="M354.42,145.46s5,1.14,3.86,7"/><path class="cls-12" d="M278.3,143.5,275.61,145a1.42,1.42,0,0,0-.63.83,1.4,1.4,0,0,0,1,1.71,1.53,1.53,0,0,0,1.07-.14l2.69-1.52a1.4,1.4,0,0,0,.64-.83,1.43,1.43,0,0,0-.14-1.07,1.37,1.37,0,0,0-.83-.64,1.49,1.49,0,0,0-1.07.14Z"/><path class="cls-16" d="M321,136s10.06-1.22,10.43-5.94-9.44-2.73-9.44-2.73Z"/><line class="cls-19" x1="323.01" y1="130.11" x2="371.92" y2="122.75"/><path class="cls-20" d="M250.18,124s18.22-9.46,31.36,0"/><path class="cls-20" d="M250.18,132.7s17.94-13.94,31.36,0"/><path class="cls-21" d="M241.75,118.47c7,1.44,11.52,8.71,10.1,16.14a68.39,68.39,0,0,1-3.46,12.61c-3.79,9.21-22.86,9.07-29.26,3.49-5.3-4.62-7-15.91-7.83-24.18a6.2,6.2,0,0,1,4-6.53A50.73,50.73,0,0,1,241.75,118.47Z"/><path class="cls-22" d="M241.75,118.47c7,1.44,11.52,8.71,10.1,16.14a68.39,68.39,0,0,1-3.46,12.61c-3.79,9.21-22.86,9.07-29.26,3.49-5.3-4.62-7-15.91-7.83-24.18a6.2,6.2,0,0,1,4-6.53A50.73,50.73,0,0,1,241.75,118.47Z"/><path class="cls-23" d="M290.34,119c-7.23,1.59-11.95,9.61-10.48,17.8a79.87,79.87,0,0,0,3.59,13.93c3.93,10.16,23.73,10,30.37,3.85,5.5-5.1,7.28-17.56,8.12-26.69a6.9,6.9,0,0,0-4.16-7.21A49.71,49.71,0,0,0,290.34,119Z"/><path class="cls-22" d="M290.34,119c-7.23,1.59-11.95,9.61-10.48,17.8a79.87,79.87,0,0,0,3.59,13.93c3.93,10.16,23.73,10,30.37,3.85,5.5-5.1,7.28-17.56,8.12-26.69a6.9,6.9,0,0,0-4.16-7.21A49.71,49.71,0,0,0,290.34,119Z"/><path class="cls-24" d="M354.19,99.14c-2.74,2.25-2.55.38-8-2.16s-10.59-2-14.94,1-6.73-2.46-6.06-6.28,7.82-12.48,19.28-5.44S355.67,97.92,354.19,99.14Z"/><path class="cls-19" d="M354.19,99.14c-2.74,2.25-2.55.38-8-2.16s-10.59-2-14.94,1-6.73-2.46-6.06-6.28,7.82-12.48,19.28-5.44S355.67,97.92,354.19,99.14Z"/><path class="cls-24" d="M231.31,98.08c2,2.2,1.86.34,5.93-2.29s7.8-2.17,10.94.69,5-2.57,4.55-6.37S247.2,77.77,238.67,85,230.24,96.89,231.31,98.08Z"/><path class="cls-19" d="M231.31,98.08c2,2.2,1.86.34,5.93-2.29s7.8-2.17,10.94.69,5-2.57,4.55-6.37S247.2,77.77,238.67,85,230.24,96.89,231.31,98.08Z"/></g></svg>