<svg xmlns="http://www.w3.org/2000/svg" xmlns:xlink="http://www.w3.org/1999/xlink" viewBox="0 0 600 600"><defs><style>.cls-1{fill:#bf66ff;}.cls-2{fill:#007fcc;}.cls-3{fill:#80cde8;}.cls-14,.cls-16,.cls-18,.cls-20,.cls-28,.cls-4,.cls-7{fill:none;}.cls-4{stroke:#1b5186;}.cls-14,.cls-20,.cls-28,.cls-4,.cls-7{stroke-linecap:round;stroke-linejoin:round;stroke-width:2.77px;}.cls-5{fill:#76d38c;}.cls-6{fill:#b8ffcc;}.cls-7{stroke:#030304;}.cls-8{fill:#030304;}.cls-9{fill:#f1f3f3;}.cls-10{fill:#dedbe1;}.cls-11{fill:#1b5186;}.cls-12{fill:#eae65e;}.cls-13{fill:#c9c131;}.cls-14{stroke:#000;}.cls-15{fill:#514545;}.cls-17{fill:#0080ca;}.cls-18{stroke:#6fb7d6;stroke-miterlimit:10;stroke-width:0.56px;}.cls-19{fill:#027ecb;}.cls-20{stroke:#1d1d1b;}.cls-21{fill:#1d1d1b;}.cls-22{fill:url(#Degradado_sin_nombre_10);}.cls-23{fill:#dedce0;}.cls-24{fill:#f2f3f2;}.cls-25{fill:url(#Degradado_sin_nombre_10-2);}.cls-26{fill:#3c3c3b;}.cls-27{fill:#fbb03b;}.cls-28{stroke:#8e6a2b;}</style><linearGradient id="Degradado_sin_nombre_10" x1="749.65" y1="171.18" x2="740.15" y2="131.62" gradientTransform="matrix(-1, 0, 0, 1, 920.1, 0)" gradientUnits="userSpaceOnUse"><stop offset="0" stop-color="#fffe3f"/><stop offset="1" stop-color="#ff8c38"/></linearGradient><linearGradient id="Degradado_sin_nombre_10-2" x1="688.72" y1="185.8" x2="679.22" y2="146.24" xlink:href="#Degradado_sin_nombre_10"/></defs><g id="Capa_3" data-name="Capa 3"><g id="a"><rect class="cls-1" width="600" height="600"/></g></g><g id="Capa_2" data-name="Capa 2"><path class="cls-2" d="M398.22,145s6.88,4.09,16,10.73c2.81,9.61,12.4,14.58,15.44,24.31,2.58,8.26,3.09,9.06,8.44,15.87,4.82,6.13,9.92,15.57,15.16,21.35,2.7,3,3.22,14,5,17.54,2.06,4.1,2.16,11.41,2.77,16,1.32,9.77-.22,17.66,1,27.45-5.5-13.08-17.35-35.84-34.51-40-24.35-5.94-36.3-1.78-36.3-1.78Z"/><path class="cls-3" d="M454.9,235.56c-1.79-3.58-4.58-6.56-7.27-9.53q-7.86-8.67-15.1-17.88c-5.35-6.8-10.52-14-13.1-22.25-3-9.72-2.38-20.58-5.19-30.19,17,12.33,41.72,33.43,44.81,53.44,4.75,30.8,6.53,78.31,6.53,78.31s-1.19-3.78-3.5-9.27c-1.24-9.79-2.55-19.56-3.87-29.34C457.6,244.3,457,239.66,454.9,235.56Z"/><path class="cls-4" d="M398.22,145s56.08,33.37,60.83,64.17,6.53,78.31,6.53,78.31-13.66-43.35-38-49.29-36.3-1.78-36.3-1.78Z"/><path class="cls-5" d="M142.46,390.43c1.29-3.55,10.1-18.1,11.06-21.76,1.71-6.56,7.48-21.5,10.94-27.33,3-5.13,5.13-14.54,10.29-17.54s12.79-6.21,14.24-12c1.13-4.49,2.69-1.68,3.5-6.24.69-3.85,6.39.12,8.75-3,6.54-8.68,14.33-16.4,20.47-25.36,5-7.23,8.85-15.6,9.53-24.23a25.64,25.64,0,0,1,2.49,5.61c3.5,11.65,1.42,24.33-2.79,35.74-3.81,10.34-9.3,20-14.76,29.54-4.92,8.62-11,16.69-14.76,25.86-13.53,32.54-29.49,51.94-42,57.81C157.58,398.67,139.36,398.94,142.46,390.43Z"/><path class="cls-6" d="M139.78,369.39c3.22-14.55,8.89-26.79,18.45-45.14,12.79-24.56,5.23-24.29,17.44-48.71s44.18-30.23,44.18-30.23L218,245c5.51-.76,10.23,3.06,13.21,8-.68,8.63-4.57,17-9.53,24.23-6.14,9-13.93,16.68-20.47,25.36-2.36,3.12-4.6,6.5-5.29,10.34-.82,4.57.64,9.36-.49,13.85-1.46,5.79-6.78,9.68-12,12.67s-10.81,5.87-13.85,11c-3.46,5.83-2.73,13.16-4.44,19.72-.95,3.66-2.67,7.07-4,10.63a49,49,0,0,0-1.81,26.75C144.46,414.58,134.48,402.1,139.78,369.39Z"/><path class="cls-7" d="M218,245c7.49-1,13.52,6.4,15.7,13.63,3.5,11.65,1.42,24.33-2.79,35.74-3.81,10.34-9.3,20-14.76,29.54-4.92,8.62-11,16.69-14.76,25.86-29.78,71.63-71.35,79.6-61.64,19.67,3.22-14.55,8.89-26.79,18.45-45.14,12.79-24.56,5.23-24.29,17.44-48.71s44.18-30.23,44.18-30.23"/><path class="cls-5" d="M296.34,597.59c-1-.34-7.57-6.71-8.3-7.52-1-1.14-2.17-12.23-2.18-13.75-.14-14.75-3.57-3.81-.79-18.3-24.86,7-19.17,16.08-41.35,2.87.41,13.92-2.06,15.62-4.22,29.38-.15,1-10.19,2.63-10.71,3.46-1.93,3.06-9.47,4.17-12.66,2.47-5.5-2.93-12.31-15-17.67-18.2l-1.52-91.59s79.42,19.78,101.48,17.41,124.74,6.35,124.74,6.35c-2.6,23.12-5.61,60.24-7.43,82-16.58,5-48,8-56,9.79C340,606.41,315.64,603.82,296.34,597.59Z"/><path class="cls-6" d="M214.74,572.09c3.2,1.7,7.89,3,9.82,0a7.24,7.24,0,0,0,.84-2.79A226.55,226.55,0,0,0,228,527.63c22.18,13.21,50.36,9.78,75.22,2.82a222.48,222.48,0,0,0-4,44c0,1.53.1,3.19,1.12,4.33a6.26,6.26,0,0,0,2.86,1.53c19.3,6.24,42.83,15.61,62.6,11.14,8-1.81,34.23-10.5,50.81-15.49-.88,10.56-1.71,21.3-2.5,32.57H199.36l-.9-45.62Q206.5,567.68,214.74,572.09Z"/><path class="cls-8" d="M325.69,519.56c-15.57,7.46-32.21,13.44-49.51,15-15,1.38-30.52-.73-44.12-7.5a61.86,61.86,0,0,1-19.38-14.85c-1.17-1.36-3.12.61-2,2,9.91,11.46,24,18.66,38.67,21.74,16.47,3.46,33.51,1.68,49.56-3a184.89,184.89,0,0,0,28.15-11c1.61-.77.2-3.16-1.41-2.4Z"/><path class="cls-8" d="M248.68,536.32l-.27,17.43c-.08,5-.34,10,.31,14.89.59,4.47,2,8.83,5.19,12.15,1.69,1.8,3.76,3.19,5.48,5a15.62,15.62,0,0,1,3.52,5.83c1.67,4.9,1.52,10.22,1.33,15.33-.06,1.78,2.71,1.78,2.78,0a52.93,52.93,0,0,0-.78-13.71,20.41,20.41,0,0,0-7.07-11.4,22.93,22.93,0,0,1-5.07-5.29,19.3,19.3,0,0,1-2.3-6.15c-1-4.71-.72-9.62-.65-14.4l.3-19.64a1.39,1.39,0,0,0-2.77,0Z"/><path class="cls-8" d="M261.08,536.35a235.38,235.38,0,0,0,.44,42.72c.18,1.76,3,1.78,2.77,0a235.38,235.38,0,0,1-.44-42.72c.15-1.78-2.63-1.77-2.77,0Z"/><path class="cls-8" d="M421.77,510.17q-4.26,38-7.33,76.21-.87,11.07-1.65,22.15l1.39-1.39H208.09c-2.75,0-5.61-.21-8.36,0h-.37l1.39,1.39-.24-12.13-.58-29.14-.7-35.26-.6-30.5-.2-10.13a37.47,37.47,0,0,0-.09-4.74.81.81,0,0,1,0-.22l-1.76,1.34c3.37.84,6.75,1.64,10.12,2.43q12.23,2.88,24.5,5.51c10,2.14,20,4.15,30.06,5.89a269.42,269.42,0,0,0,27,3.6,62.26,62.26,0,0,0,9.56.08c2.48-.21,4.95-.37,7.44-.42,7.64-.16,15.28.09,22.9.39,9.71.38,19.42.92,29.11,1.51s19.6,1.26,29.4,2q11.88.87,23.76,1.81l12.2,1,.55.05c1.78.15,1.77-2.63,0-2.78-2.83-.24-5.65-.47-8.48-.69q-10.74-.87-21.48-1.67-14.2-1.05-28.43-2c-9.91-.64-19.82-1.23-29.73-1.69-8.33-.38-16.66-.71-25-.73-3,0-5.9,0-8.84.19-2.54.15-5.05.44-7.6.42-8.22-.08-16.45-1.29-24.56-2.56-10.08-1.58-20.1-3.51-30.09-5.57q-13.3-2.76-26.53-5.83Q205.19,487,198,485.24l-.67-.17a1.4,1.4,0,0,0-1.75,1.34l.24,12.13.57,29.13.7,35.26.61,30.51c.1,4.95,0,9.93.29,14.87,0,.07,0,.14,0,.22a1.4,1.4,0,0,0,1.38,1.38H405.45c2.78,0,5.58.07,8.36,0h.37a1.42,1.42,0,0,0,1.39-1.38q2.69-38.19,6.59-76.28,1.14-11,2.38-22.08C424.74,508.4,422,508.41,421.77,510.17Z"/><path class="cls-9" d="M337.86,250.09C348.39,224.73,359,199,365.2,172.35c-.13,2.8-.35,5.6-.68,8.39-1.72,14.87-6.22,29.26-10.71,43.54q-6.26,20-12.53,39.94c-2.46,7.85-4.92,15.7-7.86,23.38-.4,1-.82,2.09-1.23,3.13-7.83,5.86-15,11.16-20.72,15.48,2.39-4.13,4.69-8.3,6.88-12.55C325.64,279.51,331.76,264.79,337.86,250.09Z"/><path class="cls-10" d="M261.85,365.59c-2.06,6.79-17.28-60.19-17.28-60.19l2.7-31.38q0-29.25,0-58.5c0-14.36,0-28.8,2.29-43,3.75-23.44,14-46.17,30.93-62.79S321.33,83.12,345,85.14c1.07.09,2.13.21,3.2.36,7.1,15.62,11.72,32.64,14.46,49.54a179.65,179.65,0,0,1,2.56,37.31c-6.2,26.61-16.81,52.38-27.34,77.74-6.1,14.7-12.22,29.42-19.51,43.57-2.19,4.25-4.49,8.42-6.88,12.55-5.4,4.06-9.59,7.25-12,9.22C284.7,327.58,262,365.28,261.85,365.59Z"/><path class="cls-2" d="M373.64,226.77c-.34-10.76-2.91-21.34-3.6-32.09-1.75-27,8.38-53.81,5.74-80.72a97.6,97.6,0,0,0-4.55-21c12.91,6.8,23.64,17.58,29.29,31,3.42,8.12,5,16.88,6.34,25.58a629.48,629.48,0,0,1,7.12,73.8c-7,8.85-25.33,24.09-45.42,39.77C371.53,251.12,374,239,373.64,226.77Z"/><path class="cls-3" d="M341.28,264.22q6.27-20,12.53-39.94c4.49-14.28,9-28.67,10.71-43.54,1.76-15.2.57-30.6-1.88-45.7-2.74-16.9-7.36-33.92-14.46-49.54a69.56,69.56,0,0,1,23.05,7.41,97.6,97.6,0,0,1,4.55,21c2.64,26.91-7.49,53.74-5.74,80.72.69,10.75,3.26,21.33,3.6,32.09.39,12.26-2.11,24.35-5.08,36.29-12.18,9.5-25,19.17-36.37,27.67.41-1,.83-2.08,1.23-3.13C336.36,279.92,338.82,272.07,341.28,264.22Z"/><path class="cls-11" d="M415.37,223.29q-1-27.79-4.53-55.43c-1.13-9-2.34-18-4-27-1.52-8-3.75-15.93-7.71-23.1-6.65-12-17.47-21.59-29.84-27.45a72.25,72.25,0,0,0-42-6,87.28,87.28,0,0,0-41.45,18.75c-11.93,9.67-21.22,22.41-27.65,36.3-6.82,14.74-10.33,30.58-11.52,46.73-.69,9.24-.73,18.51-.73,27.77s0,18.79,0,28.18l0,27.93c0,3.09-.18,6-.44,9.11l-2.09,24.36a7.73,7.73,0,0,0,.16,3.18q1,3.4,2,6.8c2.36,7.7,4.87,15.37,7.78,22.88a105.09,105.09,0,0,0,4.57,10.5c1.11,2.14,2.39,4.69,4.42,6.12a3.1,3.1,0,0,0,4.73-1.3c.15-.29.26-.6.39-.9,0-.06-.17.26,0,0-.21.26-.09.11.07-.08l.46-.57q1.62-2,3.28-3.91A268.18,268.18,0,0,1,297.46,319c4.93-4.34,10-8.05,15.3-12q11.4-8.54,22.81-17,13.55-10.14,27-20.45c8.8-6.79,17.56-13.66,26.14-20.74,6.93-5.72,13.83-11.54,20.22-17.87a74.16,74.16,0,0,0,6.06-6.59c1.1-1.38-.85-3.36-2-2-4.38,5.49-9.75,10.24-15,14.87-7.55,6.65-15.36,13-23.24,19.25-8.83,7-17.76,13.86-26.74,20.67Q335.5,286.58,322.88,296c-6.27,4.68-12.56,9.34-18.78,14.1a181.59,181.59,0,0,0-20.38,18.34Q277.35,335,271.32,342c-1.36,1.57-2.72,3.15-4.05,4.74a31.09,31.09,0,0,0-2.18,2.68,1,1,0,0,1-.12.16c-.07.13-.11.28-.17.41-.14.31.05-.08-.09.2a5.45,5.45,0,0,1-.29.53c-.16.27.12,0-.2.23-.1.07.22,0-.14.07.13,0,.3-.07.09-.05s.19-.13.1,0-.37,0,0,0,0,0-.07,0c.09.05.11.09-.17-.09s0,0-.24-.17l-.47-.45a6.87,6.87,0,0,1-.87-1.08,30.52,30.52,0,0,1-2.08-3.53c-3.58-6.91-6.11-14.41-8.58-21.77q-2.92-8.74-5.5-17.61c-.11-.38-.23-.77-.34-1.16.13.48,0,.35.08,0s.07-.82.11-1.23L247,293l1.11-13c.21-2.43.52-4.86.52-7.29l0-55.08c0-17.59-.12-35.36,3.76-52.62a114.94,114.94,0,0,1,18.07-41.39A90.66,90.66,0,0,1,304.8,94.33c13.37-6.47,28.69-9.52,43.48-7.44A68.22,68.22,0,0,1,384.62,104a60.18,60.18,0,0,1,12.45,15.92c3.82,7.14,5.83,15,7.28,23A537.63,537.63,0,0,1,411.06,197q1,13.14,1.53,26.33C412.66,225.07,415.43,225.08,415.37,223.29Z"/><path class="cls-11" d="M404.29,201l-20.54,20.05S401.58,218.18,404.29,201Z"/><path class="cls-11" d="M401.46,185.87l-20.54,20S398.74,203,401.46,185.87Z"/><path class="cls-11" d="M398.78,170l-20.54,20S396.07,187.14,398.78,170Z"/><path class="cls-12" d="M234.37,466.65c.58-5,1.4-10.09,4-14.41l21.5,15.54c12.7,9.19,25.56,18.46,40.09,24.36,10.76,4.37,22.66,6.74,34.12,5.58-5.78,9.38-10.62,15.67-10.62,15.67S290.67,521,263.3,524.44c-10.15,1.29-20-3.11-28.47-9.15A195.49,195.49,0,0,1,234.37,466.65Z"/><path class="cls-13" d="M354.82,352.7a175.3,175.3,0,0,0-32.21,16,227.78,227.78,0,0,0-.6-47.42c-.25-2.11-.67-4.47-2.42-5.68-1.41-1-3.27-.9-5-.71C290.87,317.5,269.72,336,264,359.23a272.58,272.58,0,0,0-24.38-60.6c-1.41-2.56-3.1-5.3-5.88-6.21-3.89-1.27-7.82,1.68-10.39,4.93,5.37-13.05,11.92-23.18,18.93-29.05l21.82,88.77s7.91-47.75,47.71-65.19,92.83-58.14,92.83-58.14,11.51-2.9,6.86,19.19-22.68,58.14-33.72,91.86l-3,9a14.26,14.26,0,0,0-6.12-3.2C364.06,349.55,359.27,351,354.82,352.7Z"/><path class="cls-12" d="M209.76,364.56c1-25.62,6.17-49.2,13.59-67.21,2.57-3.25,6.5-6.2,10.39-4.93,2.78.91,4.47,3.65,5.88,6.21A272.58,272.58,0,0,1,264,359.23c5.72-23.19,26.87-41.73,50.61-44.37,1.71-.19,3.57-.26,5,.71,1.75,1.21,2.17,3.57,2.42,5.68a227.78,227.78,0,0,1,.6,47.42,175.3,175.3,0,0,1,32.21-16c4.45-1.66,9.24-3.15,13.87-2.09a14.26,14.26,0,0,1,6.12,3.2C364.48,385.29,353.35,420,353.35,446c0,8.42-2.61,17.75-6.29,26.72-15-6.36-28.26-16.51-40.41-27.45-14.52-13.07-27.83-27.49-43.18-39.58-9.12-7.17-19.92-13.76-31.48-12.75-9.25.81-17.35,6.56-22.87,14.17C209.11,391.72,209.28,376.73,209.76,364.56Z"/><path class="cls-13" d="M232,392.89c11.56-1,22.36,5.58,31.48,12.75,15.35,12.09,28.66,26.51,43.18,39.58,12.15,10.94,25.44,21.09,40.41,27.45a176.93,176.93,0,0,1-13,25.05c-11.46,1.16-23.36-1.21-34.12-5.58-14.53-5.9-27.39-15.17-40.09-24.36l-21.5-15.54c-2.56,4.32-3.38,9.42-4,14.41a195.49,195.49,0,0,0,.46,48.64C220.52,505,210.42,490,210.42,490s-1.26-42.65-1.3-82.95C214.64,399.45,222.74,393.7,232,392.89Z"/><path class="cls-14" d="M404.64,233.74s11.51-2.9,6.86,19.19-22.68,58.14-33.72,91.86S353.35,417.46,353.35,446s-29.93,67.44-29.93,67.44-41.18,13.21-67.11,11.08c-27.5-2.26-45.89-34.46-45.89-34.46s-2.41-81.27-.66-125.45,15.85-82.3,32.52-96.26l21.82,88.77s7.91-47.75,47.71-65.19S404.64,233.74,404.64,233.74Z"/><path d="M259.74,363.83q-3.25,31.28-4.74,62.7-1.45,31.2-1.07,62.43.21,17.76,1,35.51c.08,1.78,2.86,1.79,2.78,0q-1.36-31.43-1-62.87.42-31.23,2.68-62.39,1.28-17.71,3.12-35.38c.18-1.77-2.6-1.76-2.78,0Z"/><path class="cls-5" d="M423.67,283.51c-.2.33-.39.67-.6,1-4.28,6.9-8,14.91-13.12,21.23-4.18,5.2-9.75,8.7-13.72,14.05C388.9,321.5,366,327.22,353,335c13.05-7.74,35.91-13.46,43.24-15.17-16,21.48-16.55,54.61-31,77.13-2.73,4.25-19.39-2-21.24,2.66-2.19,5.56-3.5,12.19-8.59,15.31.73-10.2-13.41-25.33-8.95-34.54,3.6-7.45,9.24-18.29,13.64-25.29s2.57,2.95,1.39-5.24c-.1-.67,1.72,8.39,1.21,7.95s-3.62-8-4.32-7.95c-2.71.18,10.57-3.43,7.86-3.47S341,338,340.85,335.27c-.11-2.35,6-16.21,7.92-17.6,9.85-7.18,19.12-22.47,30.46-26.94,5.5-2.17,6.4-12.54,10.88-16.39,4.77-4.09,5.76,2.92,8.45-2.76,4.51-9.54-3.46-1,1.05-10.49,3.2-6.76,17.45-16.5,18.2-23.94.56-5.66,6.71-11.51,3.5-16.07,4.84,2.64,12.81,8.81,14.24,16.79.19,1.11.34,2.28.43,3.49a103.21,103.21,0,0,1-3.92,23.47c-.39,1.22-.8,2.43-1.24,3.63A128.48,128.48,0,0,1,423.67,283.51Z"/><path class="cls-15" d="M423.67,283.32a128.38,128.38,0,0,0,7.15-15A86.58,86.58,0,0,1,423.67,283.32Z"/><path class="cls-6" d="M430.82,268.28c.84-1.2,3.82-11.72,5.27-11.94,2-.29,7.09-4.31,8.23-2.67,9.28,13.36,29.39,20.82,28.48,37.06-.31,5.6,3.18,21.62,1.39,26.94-5.81,17.19-4.83,44.4-18.8,56-8.87,7.34-25.51,46.13-35.41,52s-22.11-2.17-26.9,8.31c-5.08,11.11-21.95,8-26.9,19.17-7,15.8-24,24.32-40.12,30.61-3.64,1.42-7.35,2.83-11,4.31,3.23-40.77,10.43-111.81,16.16-134.7,6.68-26.74,28.78-57,38.45-75s29.86-28.49,38-37.22,6.72-22.08,6.72-22.08a31.13,31.13,0,0,1,9.8,3.36c3.22,4.57,4.38,10.65,3.81,16.31-.74,7.44-4,14.37-7.19,21.12l-13.53,28.6c-2.69,5.69-5.51,11.55-10.29,15.64-4.48,3.84-10.25,5.76-15.75,7.92a144.8,144.8,0,0,0-32,17.57c-1.91,1.38-4,3.21-3.86,5.56.13,2.71,3.19,4.4,5.9,4.44s5.33-1,8-1.17a2.78,2.78,0,0,1,2,.45,2.89,2.89,0,0,1,.76,1.82c1.18,8.2-2.25,16.38-6.66,23.39s-9.87,13.38-13.48,20.83c-4.46,9.21-5.85,19.58-6.58,29.79,5.09-3.13,6.4-9.75,8.59-15.31a76.84,76.84,0,0,1,7.34-13.24c14.47-22.52,29-45.08,44.93-66.55,1.48-.35,2.33-.53,2.33-.53,11.05-13.21,19.24-25.13,25.11-35.76a86.58,86.58,0,0,0,7.15-15c.28-.72.55-1.42.81-2.12"/><path class="cls-15" d="M432.06,264.64c-.14.51-.28,1-.43,1.52-.26.7-.53,1.4-.81,2.12C431.26,267.07,431.67,265.86,432.06,264.64Z"/><path class="cls-16" d="M431.63,266.16a103.93,103.93,0,0,0,4.35-25C436.48,247.93,435.25,256.27,431.63,266.16Z"/><path class="cls-5" d="M366.18,453.16c4.95-11.17,4-24.28,9.08-35.39,4.79-10.48,14.38-17.94,24.27-23.84s20.52-10.73,29.39-18.08c14-11.57,22.48-28.49,28.28-45.68,1.79-5.31,3.38-10.76,3.69-16.36.91-16.24-8.79-31-18.08-44.31-1.14-1.64-2.71-3.48-4.68-3.18-1.44.21-2.44,1.51-3.28,2.7L424,284.61a100.93,100.93,0,0,0,7.68-18.45c3.62-9.89,4.85-18.23,4.35-25v0c25.11,22,47.82,49.43,50.15,67.45s-26.75,72.1-39,117.44-18.93,118.37-18.93,118.37c-55,51.74-117.38,27.91-117.38,27.91s.85-33.49,2.9-66.63c.29-4.77.72-10.77,1.27-17.62,3.68-1.48,7.39-2.89,11-4.31C342.16,477.48,359.18,469,366.18,453.16Z"/><path class="cls-7" d="M436,241.16c25.11,22,47.82,49.43,50.15,67.45s-26.75,72.1-39,117.44-18.93,118.37-18.93,118.37c-55,51.74-117.38,27.91-117.38,27.91s.85-33.49,2.9-66.63,10.74-125.58,17.43-152.32,28.78-57,38.45-75,29.86-28.49,38-37.22,6.72-22.08,6.72-22.08,18.28,2.33,21.19,18.6-5.37,43.61-37,81.4c0,0-29.87,6.39-45.57,15.7"/><path class="cls-8" d="M369.45,327.15l-1.74,32.33c-.58,10.72-1,21.46-1.74,32.17a13.12,13.12,0,0,1-2,6.74,52.41,52.41,0,0,1-4.78,5.44q-4.84,5.3-9.36,10.87A252.85,252.85,0,0,0,317.42,466c-.77,1.6,1.62,3,2.39,1.4a253,253,0,0,1,30.74-49.19q4.54-5.68,9.42-11.1c3-3.37,7-6.61,8.16-11.16a37,37,0,0,0,.79-7.35l.44-8.21.88-16.42,2-36.81c.1-1.79-2.68-1.78-2.77,0Z"/><path class="cls-6" d="M192.78,417.19c4.47-.64,18.58,2.57,21.45,6.05,1.86,2.27,7.76,7.42,7.93,10.35,1.08,18.56-4.27,40.6-5.74,59.14-.79,10.09-1.77,50.09-2.57,60.18-6.46-1.26-19.32-3.68-24.91-7.15,2.4-16.39.1-59.39-1.06-75.91-.9-12.81-1.12-25.65-1-38.49C190.08,430.48,189.54,417.65,192.78,417.19Z"/><path class="cls-5" d="M214.84,328.94c-.08,4.84-6.33,23.13-7.91,27.7-3.53,10.18-13.65-.46-17.34,9.66,1-18.24,2.56-36.46,6-54.39.92-4.75,6.24-23.74,7.45-28.43,1,4,5.07,11.77,6.07,15.79S214.91,324.89,214.84,328.94Z"/><path class="cls-5" d="M211.48,440.59c-.17-2.93-.48-6.07-2.34-8.33-2.87-3.49-8.13-3.55-12.59-2.92a75.21,75.21,0,0,0-9.63,2c.2-15.92,1-31.85,1.77-47.75q.42-8.66.9-17.31,5.53-15.18,10.84-30.46c1.58-4.57,3.17-9.24,3.25-14.08.07-4.06-.91-8.05-1.89-12s-2-8-3-12C203.63,279.1,211,261.12,222,245.42c.86-1.22,1.93-2.53,3.42-2.63,2.1-.13,3.43,2.15,4.24,4.09q4,9.57,8.05,19.15c2.89,6.91,1.9,8.38-.69,15.26a152.59,152.59,0,0,0-8.31,35.6c-3,24.31-1.72,48.86-2,73.27-.25,23.9-2,47.75-3.8,71.58,0,11.49-1.73,23.26-2.59,34.72-.67,9.07-4.74,49.6.38,57.39a54.26,54.26,0,0,1-13.52-.94c.79-10.09,1.59-46.53,2.39-56.62C211.09,477.75,212.56,459.15,211.48,440.59Z"/><path class="cls-8" d="M221.57,461.74c0,10-1.28,20-2.19,30-.43,4.74-.79,9.49-1.17,14.23-.92,11.71-1.81,23.55-1.25,35.29.2,4.23.23,9.62,2.59,13.33l1.2-2.09a53.85,53.85,0,0,1-31.1-7.9l.63,1.56c1.63-11.32,1.21-23,.95-34.41-.28-12.45-.87-24.89-1.66-37.31-1.13-17.74-1.53-35.43-1.06-53.21C189,401.6,190,382,191.2,362.42c2.24-36.42,7.05-74,25.58-106.19,1-1.73,2-3.44,3.11-5.12a45.89,45.89,0,0,1,4-5.79c.63-.72,1.42-1.44,2.42-1a4,4,0,0,1,1.46,1.66,59.16,59.16,0,0,1,3,6.87c1.89,4.5,3.82,9,5.68,13.52,1.33,3.21,2.2,6.12,1.14,9.53-1.27,4.1-3,8-4.28,12.15-1.38,4.44-2.51,9-3.45,13.52a208.68,208.68,0,0,0-3.65,28.07c-1.33,19.53-.61,39.11-.77,58.66s-1.35,39.31-2.75,58.93q-.52,7.25-1.07,14.48c-.13,1.79,2.64,1.78,2.78,0,1.51-20.33,3-40.68,3.59-61.07.56-20-.24-40,.44-60,.66-19.39,2.78-39,9.4-57.35,1.18-3.26,2.94-6.62,3.1-10.14.18-4-2-7.87-3.46-11.44q-2.83-6.77-5.68-13.52c-1.21-2.89-3-7.7-7.09-6.68a6.69,6.69,0,0,0-3.56,2.84c-1.38,1.87-2.65,3.84-3.89,5.81q-3.63,5.76-6.69,11.85a170.2,170.2,0,0,0-10,24.6c-5.72,17.92-8.72,36.57-10.53,55.26-1.92,19.8-2.69,39.72-3.57,59.59-.88,20.11-1.42,40.26-.44,60.38,1.26,25.58,3.79,51.3,2.22,76.94-.14,2.2-.31,4.41-.62,6.6a1.45,1.45,0,0,0,.63,1.56,56.54,56.54,0,0,0,32.51,8.29,1.41,1.41,0,0,0,1.2-2.09c-1.93-3-2-7.62-2.18-11.13-.32-5.77-.19-11.55,0-17.32.4-9.83,1.26-19.62,2-29.43.89-11.17,2.47-22.3,2.5-33.53A1.39,1.39,0,0,0,221.57,461.74Z"/><path class="cls-5" d="M230.32,249.34a245,245,0,0,0-19.66,39.48,7.77,7.77,0,0,0-.71,2.86,7.45,7.45,0,0,0,1.3,3.56c4,6.61,9.68,12.4,11.65,19.85"/><path class="cls-8" d="M216.65,305.19l-15.06,57c-1.21,4.58-2.82,9.24-3.34,14s1.09,8.86,2.58,13.11l9.82,28,11,31.29c.59,1.67,3.27,1,2.68-.74q-9.63-27.41-19.24-54.82c-.79-2.26-1.59-4.51-2.37-6.77a27.92,27.92,0,0,1-1.73-6.84c-.39-4.57,1.38-9.21,2.53-13.56l7.4-28,8.43-31.87a1.39,1.39,0,0,0-2.68-.74Z"/><path class="cls-12" d="M411.34,221.79s-1.62,5.82-16.35,17.83-59.2,37-71.7,43c-23,11.05-55.17,35.92-60.21,69.64,0,0-5.18-34-8.78-49.35-3.33-14.23-11.76-32.69-8.79-49.35,0,0-7.88,3.1-12.92,13.17s-3.4,29.46-3.4,29.46,4-21.65,12.32-16.28,20.34,85.66,20.34,85.66,9.5-50,51.36-72.09c0,0,10.08.77,11.24,17.44,0,0,31-16.28,51.94-36.05S418,235.75,411.34,221.79Z"/><path class="cls-14" d="M411.34,221.79s-1.62,5.82-16.35,17.83-59.2,37-71.7,43c-23,11.05-55.17,35.92-60.21,69.64,0,0-5.18-34-8.78-49.35-3.33-14.23-11.76-32.69-8.79-49.35,0,0-7.88,3.1-12.92,13.17s-3.4,29.46-3.4,29.46,4-21.65,12.32-16.28,20.34,85.66,20.34,85.66,9.5-50,51.36-72.09c0,0,10.08.77,11.24,17.44,0,0,31-16.28,51.94-36.05S418,235.75,411.34,221.79Z"/><path class="cls-6" d="M178.24,410.05c-8.15,1.8-23.05,3.19-31.25,1.58-7.59-1.49-7.16-21.51-8.89-28.89.3-2.21.56-4.45.76-6.71,1.73-19.92,49.47-26.21,49.47-26.21,41.09-21.2,53.27-9.18,53.27-9.18-7.58-5.18-6.38,11.32-2.89,23.51.88,3.06,6.83,17.9,8.18,21.07-5.32,3.44-13.74,6-19.59,8.41C212.65,399.61,193.69,406.63,178.24,410.05Z"/><path class="cls-5" d="M138.1,382.74c1.73,7.38,9.1,12.76,16.69,14.25,8.2,1.61,16.63-.28,24.79-2.08,15.45-3.42,31.06-6.57,45.71-12.55a103.25,103.25,0,0,0,16.88-8.71,175.62,175.62,0,0,0,9.1,18s-39.68,8.41-51.4,14-36,13.37-53,11.06C131.73,414.73,135.78,399.94,138.1,382.74Z"/><path class="cls-7" d="M140.2,371.27c-1.09,4.91-.55,3-1.14,8.79-.06.63-.13,1.26-.2,1.88"/><path class="cls-7" d="M138.86,381.94c-2.4,21.66-6.81,33.8,12.41,35.49,19.77,1.75,36-9.3,57-13.95s43-11.81,43-11.81-30.23-56-8.72-49.41c0,0-3.49-12.38-35.47,0S156.5,370.9,156.5,370.9"/><path class="cls-8" d="M186.34,348.48a100,100,0,0,0-27,8.09c-1.62.75-.21,3.14,1.4,2.4a97.36,97.36,0,0,1,26.29-7.81c1.76-.27,1-2.94-.74-2.68Z"/><path class="cls-3" d="M200.1,351.79c-8-2.08-12-4.2-20.09-3,.56-2.67,2.64-12.86,3.9-15.28,3.46-6.67,10.09-11.4,17.32-13.44s15-1.59,22.27.31a58.68,58.68,0,0,1,33.25,23.35l-.53-.37c-4.29,5.53-15.84,18.31-20.71,23.34-1.46-.74-9.56-2.12-11-2.9C214.23,358.17,211.48,354.76,200.1,351.79Z"/><path class="cls-17" d="M205.9,342.86c11.37,3,21.94,8.41,32.24,14.07,1.42.78,2.86,1.57,4.33,2.31A193.12,193.12,0,0,1,228,372.69c-2,1.71-4.36,3.47-7,3.33s-4.74-2.09-6.68-3.86A95.29,95.29,0,0,0,180,352.24a84.54,84.54,0,0,1,1.27-11A61.72,61.72,0,0,1,205.9,342.86Z"/><path class="cls-11" d="M257.94,343.06a60.37,60.37,0,0,0-32.56-23.58c-13.73-4-30.54-2.65-40,9.31-5.32,6.72-6.16,15.19-6.73,23.45a1.41,1.41,0,0,0,1,1.34,93.91,93.91,0,0,1,32.77,18.71c2.14,1.88,4.26,4.15,7.1,4.89,3,.78,5.79-.59,8.12-2.38a144.43,144.43,0,0,0,14.68-13.41,194.18,194.18,0,0,0,14.89-17c1.08-1.39-.87-3.37-2-2a193.28,193.28,0,0,1-26.8,28.13c-2,1.72-4.52,4.31-7.41,4.09s-5.22-3.07-7.29-4.86a96.67,96.67,0,0,0-33.36-18.87l1,1.34c.48-7,1-14.29,5-20.26a27,27,0,0,1,14.43-10.33c13.22-4.09,28.16.35,39.35,7.78a57.09,57.09,0,0,1,15.33,15c1,1.46,3.41.08,2.39-1.4Z"/><path class="cls-6" d="M486.25,329.73c.54,13.54-5.55,32.39-12.66,43.92-3.55,5.77-14.1,16.73-19.38,21-4.23,3.39-14.92,26.56-20,28.49-14.15,5.38,1.72-17.25-13.26-15,8.16,3.55-31.78,40.43-23,39.37-14.28,10.25-27,14.44-42.52,22.75-9.12,4.88-18.86,7.68-28.91,10.09-1.26.3-12.79-3.39-14-3.76s-5.47-4.9-6.53-5.74c-11.55-9.1-11.75-6.26-23.54-15-5.51-4.1-13.44-10.45-16.82-16.42-4.09-7.24-4-14.68-11.67-17.83-5.33-2.18-7.71-8.08-12.07-11.85-5.62-4.85-12.9-18.12-13.65-25.51-1.48-14.75,4.44-35,14.34-41.08a38.7,38.7,0,0,1,17.17-3.63s51.28,59.93,72,74.05c0,0,4.6-4.09,8.09.17,0,0-.17-15.12,15.71-35.08s34.63-52,39.3-57.41,22.07-22.37,33.84-26.05c4.3-1.35,12.28-4.13,21.38-4.82,6,8.69,20.08,7.32,24.5,16.89C477.77,314.08,486,322.14,486.25,329.73Z"/><path class="cls-5" d="M242.63,343.06c-5.86,13.49-7,28.91-5.56,43.66.74,7.39,2.44,15.33,8.07,20.19,4.36,3.76,10.28,5,15.62,7.16A37.66,37.66,0,0,1,279.37,430c3.38,6,5.11,13.3,10.61,17.39,11.79,8.78,31-3.73,42.55,5.36a11,11,0,0,0,3.36,2.26,7.42,7.42,0,0,0,3.82-.19c10.06-2.41,19.3-7.34,28.42-12.23,15.5-8.3,31.05-16.64,45.34-26.89a50.66,50.66,0,0,1-26.1-3.82,209.39,209.39,0,0,0,43.85-11.45c5.07-1.92,10.12-4.09,14.35-7.48,5.29-4.24,8.95-10.13,12.5-15.9,7.11-11.53,14.46-24,13.93-37.51-.3-7.59-3.11-14.85-6.29-21.75a187,187,0,0,0-15.63-27.46c15.82-1.21,35.05,3.9,44.33,33.89,7.29,23.55-5.46,55-18.33,72.05-20.81,27.64-41.05,45.65-96.39,73.2s-62.47,32.08-81.65,12S233.5,405,220.78,382.39l-6.32-8.66S223.56,351.89,242.63,343.06Z"/><path class="cls-7" d="M332.62,414.05c-15.7-9.88-72.82-74.62-72.82-74.62-31.39-.58-45.34,34.3-45.34,34.3s22.67,30.81,33.72,47.67,37.21,50.58,57.55,66.68,64.54-13.77,87.79-26.56,62.79-36.63,82.56-65.29,26.34-55.37,15.12-81.14c-8.14-18.69-29.07-31.67-58.72-21.4S388.29,328.38,370.27,358,341.2,394.66,340,414.43l-1.17,19.76"/><path class="cls-8" d="M341,414.36c-1-2.27-2.49-4.64-5.25-4.79s-3.9,2.29-4.64,4.5q-3,8.82-5.9,17.62c-.57,1.7,2.11,2.43,2.67.74l4.72-14.09,1.12-3.33a5.22,5.22,0,0,1,1.12-2.4c1.71-1.47,3.29,2.07,3.77,3.15.72,1.63,3.11.22,2.39-1.4Z"/><path class="cls-18" d="M345.15,416.11a22.69,22.69,0,0,1-.26-2.86S345.05,414.41,345.15,416.11Z"/><path class="cls-17" d="M336.17,364.7c1.71-4.15,15.19,8.39,20,14.89,4,5.38,9.68,12.06,9.68,17.44-1,.53-3.07-.39-7.59-3.95a58.25,58.25,0,0,0-7.3-10.85C346,376.4,339.82,371.45,336.17,364.7Z"/><path class="cls-3" d="M310.5,397.17c-6.1-10.89-15-22.77-22.86-32.47-4.28-5.29-10.83-11.13-13.06-17.56,15.6-1.61,48.55-3.59,58,5.25,14,13.11,35.27,32,34.34,37.62-.49,3,.23,6.31-1.09,7q-6.19-7.92-12.19-16c-4.83-6.5-10-13.4-17.51-16.34,3.65,6.75,9.82,11.7,14.81,17.53a58.25,58.25,0,0,1,7.3,10.85c-.91-.71-1.9-1.51-3-2.44a85.59,85.59,0,0,1,2.32,23c-.34,5.88-.51,9.74-1.41,11.71-.34-.81-5,1.49-5.27.65-1.31-4.58-1.81-9.09-2.75-13.76-3.09-15.34-9.5-31-20.22-42.41,1.7,6.82,8.46,11,12.16,17,3.51,5.66,4.09,12.61,4.3,19.27q.3,9.35-.11,18.69c0,.5-.05,1-.08,1.51-.9,2.32-2.52,3.73-5.36,2.74a6.36,6.36,0,0,1-1.26-.61c-.28-1.79-4.11-6.88-4.07-8.68.12-4.81-2-7.68-2.57-12.46-.78-6.54-1.86-10.63-5.34-16.22-3-4.79-4.87-9.43-8.11-14.05-2.28-3.25-.93-4.91-4.71-3.65,1.66,2.55,1.94,2.35,3.7,4.83A59.66,59.66,0,0,1,327,407.57c-.85,5.22-2.48,12.49-5.3,16,.1-.93-5,1.65-4.93.72C317.67,414.36,315.37,405.87,310.5,397.17Z"/><path class="cls-17" d="M269.29,347.89s5.21-.91,12.71-1.68A59.14,59.14,0,0,0,291.84,364c7.85,9.7,18.79,16.93,24.88,27.81,4.88,8.71,6.17,19.07,5.23,29-.09.93-.2,1.86-.3,2.79-1.67,2.09-3.76,2.85-6.35,1.08-9.83-6.74,5.94-13.17-6.85-30.57S292.7,372.26,285,364.81,267.22,350.73,269.29,347.89Z"/><path class="cls-17" d="M344.41,406.09c-.21-6.66-.79-13.61-4.3-19.27-3.7-6-10.46-10.18-12.16-17,10.72,11.39,21.88,23.64,25,39,.94,4.67,1.09,9.5,2.4,14.07a22.1,22.1,0,0,0,.87,2.48c-.85,1.88-2.35,2.06-5.27.65-3.91-1.89-5.29-6.74-5.77-9.88-.1-1.7-.26-2.86-.26-2.86a22.69,22.69,0,0,0,.26,2.86c.18,2.86.2,7.25-.93,10.18,0-.5.06-1,.08-1.51Q344.71,415.45,344.41,406.09Z"/><path class="cls-17" d="M311.15,370.81c3.77-1.26,7.27,2.36,9.56,5.62q4.86,6.93,9.33,14.11c3.48,5.59,6.85,11.5,7.64,18,.57,4.78-.27,9.6-.39,14.41a29.94,29.94,0,0,0,.31,5.43c-7.57-4.78-9.86-26.83-9.86-26.83s-.22,2.55-.79,6a59.66,59.66,0,0,0-10.45-29.38C314.74,375.71,312.8,373.36,311.15,370.81Z"/><path class="cls-11" d="M269.29,349.28c9.08-.46,18.16-1.06,27.23-1.54a101,101,0,0,1,15.65-.08,59.31,59.31,0,0,1,12.76,2.7,28.14,28.14,0,0,1,10.81,6.21c2.89,2.81,5.69,5.73,8.57,8.55,6.12,6,12.42,12.16,17.16,19.38a40.72,40.72,0,0,1,3.19,5.74,7.65,7.65,0,0,1,.91,2.49,6,6,0,0,1-.81,2.36c-.7,1-3-.35-3.87-.88a13.77,13.77,0,0,1-4.42-4.27,1.39,1.39,0,0,0-2.39,1.4c1.78,3.06,5.49,6.1,9,6.73,1.87.33,3.55-.18,4.25-2.06.62-1.66,1.25-3.07.63-4.82-3-8.47-9.47-15.53-15.61-21.88-3.26-3.38-6.64-6.64-10-9.94-3.13-3.1-6-6.4-9.86-8.64A43.41,43.41,0,0,0,319.38,346a68.5,68.5,0,0,0-15.78-1.37c-11.45.32-22.87,1.28-34.31,1.85-1.77.09-1.78,2.87,0,2.78Z"/><path class="cls-11" d="M335.14,367.28c3.3,4.16,7,8,10.52,12,3.77,4.28,7.91,8.87,9.07,14.61a76,76,0,0,1,1,10.22c.22,3.45.41,6.9.55,10.35.07,1.65.13,3.29.18,4.93.05,1.45.27,3.19-.4,4.54-1,2.06-4,1.47-5.43.27-1.67-1.37-2.26-4.08-2.81-6a39.48,39.48,0,0,1-1.36-6.81c-.16-1.76-2.93-1.78-2.77,0a41.24,41.24,0,0,0,1.37,7.22,19.92,19.92,0,0,0,2.62,6.5,7.44,7.44,0,0,0,6.57,2.95c2.93-.28,4.66-2.54,5-5.35a36.81,36.81,0,0,0,0-5.25c-.08-2.14-.17-4.27-.27-6.41q-.3-5.91-.74-11.82c-.27-3.58-.64-7.13-2.16-10.43a39.76,39.76,0,0,0-5.65-8.28c-4.23-5.19-9.05-9.88-13.22-15.13-1.1-1.4-3.06.58-2,2Z"/><path class="cls-11" d="M326.36,370.55c3,5.61,7.94,9.78,11.1,15.27A46.21,46.21,0,0,1,342.75,403a119.44,119.44,0,0,1,.89,18.62c-.07,2.48-1.09,6.76-4.5,6.1-3.14-.61-4.18-4.39-5-7a198.7,198.7,0,0,1-5.62-23.31c-.31-1.76-3-1-2.67.73a195.75,195.75,0,0,0,5.61,23.31c1,3.14,2.14,6.62,5.23,8.28a6,6,0,0,0,7.72-1.58c2.21-2.77,2-6.42,2-9.76s-.14-6.95-.39-10.42c-.48-6.66-1.54-13.35-4.18-19.52a40.94,40.94,0,0,0-6-9.74c-2.5-3.08-5.18-6-7.05-9.53-.83-1.58-3.23-.18-2.39,1.4Z"/><path class="cls-11" d="M309.11,370.66l9.46,14.41c2.75,4.19,5.68,8.45,7.1,13.32,1.5,5.15.64,10.35-1.16,15.3-.92,2.51-2,4.92-3.19,7.32-.9,1.87-2.05,4.7-4.54,3-3.92-2.62-3.32-8.61-2.88-12.61a31.46,31.46,0,0,0,.19-8.05,20.24,20.24,0,0,0-2.61-7A122.57,122.57,0,0,0,303,383.86q-4.47-6-9.39-11.7-5.59-6.44-11.75-12.36-3-2.88-6.11-5.62c-1.1-1-2.2-1.92-3.32-2.85-.59-.5-2.55-1.84-2-2.74,1-1.51-1.44-2.91-2.39-1.4-1.41,2.21.41,4.41,2.08,5.82,2.11,1.78,4.21,3.6,6.25,5.47q6.13,5.59,11.76,11.73a174.82,174.82,0,0,1,20,26,20.21,20.21,0,0,1,3.2,7.64c.42,3-.13,6-.41,8.95-.44,4.55-.12,10.06,3.78,13.15,1.91,1.52,4.5,1.94,6.46.28s2.71-4.26,3.68-6.37c2.37-5.17,4.5-10.71,4.35-16.49-.15-6.16-3.08-11.66-6.32-16.73-3.74-5.85-7.61-11.62-11.42-17.42-1-1.49-3.38-.1-2.4,1.4Z"/><path class="cls-11" d="M305.29,363.83,301,359.57a1.39,1.39,0,1,0-2,2l4.26,4.27a1.39,1.39,0,0,0,2-2Z"/><path class="cls-11" d="M324.83,361.61l-6.62-5a1.39,1.39,0,0,0-1.89.49,1.43,1.43,0,0,0,.49,1.9l6.62,5a1.39,1.39,0,0,0,1.9-.5,1.41,1.41,0,0,0-.5-1.89Z"/><path class="cls-19" d="M353.45,119.38c-1.49-7.1-7.52-17.8-10.82-24.26-3.51-6.89,20.33-20.6,14.7-25.78,10.13,5,36.41,20.85,45.33,55.49,2.32,9-6.8,17.67-20.27,30.08a69.41,69.41,0,0,0-10,10.88c1.35-6.31-15.77-3.91-14.43-10.21C360.62,143,356.1,132,353.45,119.38Z"/><path class="cls-20" d="M308.38,97.83s-1.32-8.44-17.68-3.69S164,136.37,164,136.37"/><path class="cls-21" d="M164,141.38s20.28-6.18,19-11.44-20.65,1.74-20.65,1.74Z"/><path class="cls-22" d="M166.89,126.8c-2.8,1.29-6.39,8.49-3.57,18.34,3.7,12.91,8.38,17.34,14.86,17.55,5.91.2,10.09-4.47,13.18-11.92,3.77-9.13,6.21-20-6-23C174.32,125.1,170.57,125.1,166.89,126.8Z"/><path class="cls-20" d="M166.89,126.8c-2.8,1.29-6.39,8.49-3.57,18.34,3.7,12.91,8.38,17.34,14.86,17.55,5.91.2,10.09-4.47,13.18-11.92,3.77-9.13,6.21-20-6-23C174.32,125.1,170.57,125.1,166.89,126.8Z"/><path class="cls-23" d="M262.19,241.77c24.57-2.85,39.05-18.26,57.9-34.28,14.46-12.29,30.39-41.18,36.52-59.09,1.65,6.58,5.52,39.22,5.18,46-5.27,14-14.76,33.57-30.42,44.23-22.08,15-36.09,29.54-74.63,27.82-23.44-1-28.26-9.67-28.84-18.39C236.19,245.2,251.38,243,262.19,241.77Z"/><path class="cls-9" d="M255.45,216.23a115.32,115.32,0,0,0,47.21-11.58c7.32-3.56,14.33-8,20-13.82a40.42,40.42,0,0,0,11.12-21.55c-8.28,16-22.87,26.31-38.92,32.13-8,2.92-16.25,6.31-24.67,7.65s-23.44.63-31.88-.26c-28-3-51.89-15.37-69.71-37,.37-.71.84-9.36,1.43-10s1.74-1.74,3-2.88c18.2.14,39.41,6,61.71,8,32.48,2.92,54.56-1,84.65-13.52,4.66-1.94,13.73-8.7,18.75-9.17s23.64-11.53,27.17-7.92c2.63,2.69-6.46,34-5.53,37.68,0,.09,0,.19.07.29A107.09,107.09,0,0,1,328,220.59c-18.85,16-42.82,25.58-67.39,28.43a106.9,106.9,0,0,1-32.68-1c-.37-5.62,1-11.27.32-15-1.51-8-3.11-15-6.12-19.27l2.44.31C234.8,215.41,245.12,216.52,255.45,216.23Z"/><path class="cls-23" d="M220.31,211.74c-4.22-3.77-17.16-2.06-33.79-18-15-14.35-21.31-23.47-17.93-30,17.82,21.65,44.1,36.44,72,39.39a96.87,96.87,0,0,0,25.4-.57,135.41,135.41,0,0,0,24.62-6.82c16-5.83,32.1-13.48,43.11-26.52a40.42,40.42,0,0,1-11.12,21.55c-5.66,5.85-12.67,10.26-20,13.82a115.32,115.32,0,0,1-47.21,11.58c-10.33.29-20.65-.82-30.91-2.12l-2.44-.31A12.44,12.44,0,0,0,220.31,211.74Z"/><path class="cls-3" d="M359.86,174.22A95.17,95.17,0,0,0,364,157.5a95.17,95.17,0,0,1-4.11,16.72c0-.1,0-.2-.07-.29-.93-3.65-2.23-7.34-4.86-10-3.53-3.61-9-4.82-14-4.35s-9.77,2.43-14.43,4.37c-30.09,12.55-61.54,25.93-94,23-22.29-2-43.48-12.4-59.46-28,9.78-8.65,34.05-26.44,37.48-30.41,3.88-4.49,13.06-17.4,17.31-22.08S250.65,82.52,267,75.12s48.16-22.87,86.25-7.57c0,0,1.53.56,4.06,1.79,5.63,5.18,10,12.06,13.47,19a82.19,82.19,0,0,1,7.66,20.31c2.64,12.6.85,25.71-1.83,38.31-1.35,6.3-2.92,12.57-4.27,18.88-3.62,5.18-4.19,9.05-6.09,15.24-.87,2.83-2.32,7.62-4.48,13.36A69.17,69.17,0,0,0,359.86,174.22Z"/><path class="cls-21" d="M307.18,202.68l-2.38,8c-.38,1.32-.73,2.65-1.16,3.95-.18.53-.25.89-.86.73a6.18,6.18,0,0,1-1.46-.77c-3.5-2.13-6.26-5.27-10.55-5.69a1.41,1.41,0,0,0-1.39,1.39A64.19,64.19,0,0,1,285.51,229l2.32-.61-16.62-15a1.4,1.4,0,0,0-2.18.28c-3.29,7.39-3.29,15.67-6.29,23.14l2.53-.34-10.33-19.94a1.4,1.4,0,0,0-2.4,0c-3.51,7.11-7.34,14-11.15,21l1.9-.49c-.68-.51-.92-1.72-1.2-2.46s-.65-1.74-1-2.6q-1.12-2.87-2.4-5.66a116.92,116.92,0,0,0-5.65-10.89,1.39,1.39,0,0,0-2.4,1.4,118.05,118.05,0,0,1,6,11.73c.89,2,1.72,4,2.49,6.1.67,1.8,1.11,3.58,2.71,4.77a1.39,1.39,0,0,0,1.9-.5c3.81-6.94,7.64-13.88,11.15-21h-2.4l10.34,19.94c.6,1.17,2.12.69,2.53-.33,2.92-7.24,2.84-15.32,6-22.47l-2.18.28,16.62,15a1.4,1.4,0,0,0,2.32-.61,66.5,66.5,0,0,0,4-19.42l-1.39,1.39c2.3.22,4.24,1.74,6,3.09s4,3.37,6.27,3.5c2.86.15,3.4-3.38,4-5.43l2.79-9.46a1.39,1.39,0,0,0-2.67-.74Z"/><path class="cls-4" d="M403.79,130.08c-4.55-26-24.54-52.12-52.52-63.37S286.58,61,256.55,81.52s-34.48,34-44.91,45.76-39.81,26.25-43.5,38.22,35,58.22,97.76,49.67,68.3-44.71,68.3-44.71"/><path class="cls-4" d="M220.31,211.74s7.27,7.86,8,22.9-3.23,32.55,30.82,31.78,65-16.91,82.3-38.3,22.93-37.35,26.87-55.65"/><path class="cls-11" d="M332.8,171.53a108.09,108.09,0,0,1-25.47,41.06,84.79,84.79,0,0,1-43.68,23.33,72.3,72.3,0,0,1-28.53-.23c-1.74-.38-2.49,2.3-.74,2.67,17.29,3.71,35.44.83,51.26-6.87,15.3-7.46,28-19.53,37.3-33.69a117.33,117.33,0,0,0,12.53-25.54c.6-1.68-2.08-2.41-2.67-.73Z"/><path class="cls-11" d="M226.63,215.17a47.56,47.56,0,0,1,5.59,20.93c.05,1.78,2.83,1.79,2.77,0a50.67,50.67,0,0,0-6-22.33c-.84-1.58-3.24-.18-2.4,1.4Z"/><path class="cls-11" d="M327.05,172.34c1.59-.54,2.86-1.67,4.41-2.28a3,3,0,0,1,3.44.89,11.12,11.12,0,0,1,2.38,4.29,19,19,0,0,1,1,5.79,1.39,1.39,0,0,0,2.77,0,21.07,21.07,0,0,0-1.2-6.86,13.57,13.57,0,0,0-3.12-5.32,5.78,5.78,0,0,0-5.45-1.63c-1.83.45-3.2,1.85-5,2.44s-1,3.25.74,2.68Z"/><path class="cls-24" d="M322,138.06a23.72,23.72,0,0,1,.36,4.08c0,10.71-7.28,19.4-16.26,19.4-6.71,0-12.47-4.86-14.95-11.78C282.67,133,309.67,103.82,322,138.06Z"/><path class="cls-3" d="M305,161.71s-12.45-1-15.46-16.73l2.23-10.47c3-14,22.24-15.63,27.58-2.39l2.83,7S323.25,161.71,305,161.71Z"/><path class="cls-4" d="M320.09,152.1a22.23,22.23,0,0,0,2.3-10,22.83,22.83,0,0,0-1.07-6.95"/><path class="cls-4" d="M317.42,128.17a15,15,0,0,0-11.29-5.43c-9,0-16.26,8.68-16.26,19.4,0,7.18,3.27,13.45,8.13,16.8"/><line class="cls-4" x1="292.56" y1="145.85" x2="321.13" y2="142.49"/><path class="cls-25" d="M255.15,144c4.31,2.65,13,7.39,12.71,23.23s-6.11,23.49-16.14,24.29-21.1-.73-32.47-19.8c-7.65-12.85-19.26-39.26,0-36.89S249.48,140.54,255.15,144Z"/><path class="cls-20" d="M412.25,122.18s-1.32-8.45-17.69-3.7-126.7,42.24-126.7,42.24"/><path class="cls-20" d="M255.15,144c4.31,2.65,13,7.39,12.71,23.23s-6.11,23.49-16.14,24.29-21.1-.73-32.47-19.8c-7.65-12.85-19.26-39.26,0-36.89S249.48,140.54,255.15,144Z"/><path class="cls-21" d="M267.86,165.72s20.27-6.18,19-11.43S266.16,156,266.16,156Z"/><path class="cls-21" d="M211.83,135.7a23.8,23.8,0,0,0-3.88-3,12.75,12.75,0,0,0-6.06-1.69c-3.21-.1-6.39.36-8.68,2.76-1.23,1.29.73,3.26,2,2a4.91,4.91,0,0,1,1.77-1.33,12.2,12.2,0,0,1,4.95-.61c3.3.1,5.63,1.81,8,3.93,1.32,1.19,3.29-.77,2-2Z"/><path class="cls-21" d="M209.69,145.76a20.31,20.31,0,0,0-15.5-5.48,1.44,1.44,0,0,0-1.39,1.39,1.41,1.41,0,0,0,1.39,1.39,17.58,17.58,0,0,1,13.54,4.66c1.3,1.23,3.26-.73,2-2Z"/><path class="cls-11" d="M201.15,177c.16-.37,0,0,0,.07l-.17.32c-.12.22-.26.43-.4.64a1.71,1.71,0,0,1-.11.14c-.1.15.18-.21.06-.06l-.23.27a6.88,6.88,0,0,1-.54.54,2,2,0,0,1-.27.23l-.13.11s.26-.18.06-.05-.41.28-.63.41l-.31.16c-.27.14.3-.09,0,0l-.24.07a.8.8,0,0,0-.15,0c.27-.11.27,0,.09,0s-.23,0-.28,0,.38.1.17,0l-.12,0s.35.17.17.06c0,0,.28.24.13.1s-.12-.2.11.13c-.11-.16,0,.16.05.21v.1c0-.13,0-.13,0,0s0,0,0,0a.82.82,0,0,1,.06-.19c-.05,0-.11.23,0,.06a6.75,6.75,0,0,1,.39-.69c.06-.09.13-.18.19-.28s.08,0-.06.08a.67.67,0,0,0,.11-.14,5.68,5.68,0,0,1,.47-.51c.16-.16.33-.31.51-.46a1.27,1.27,0,0,0,.13-.11c-.09.15-.2.15-.07.06l.35-.24c.22-.14.45-.27.68-.39l.35-.16c.17-.08-.26.1-.09,0l.2-.08c.24-.08.49-.16.74-.22l.42-.09.17,0-.19,0,.17,0-1.39-1.38V176a.49.49,0,0,0,0,.12c0,.11,0,.06,0-.16a2.73,2.73,0,0,0-.1.41c0,.08-.05.16-.07.24-.1.28.14-.28,0,0s-.14.27-.22.4-.12.13-.12.17c.12-.15.15-.19.08-.11l-.08.09a2.57,2.57,0,0,1-.33.33c-.17.14,0,0,.05,0-.06,0-.14.11-.2.14a4.92,4.92,0,0,1-.45.24,1.37,1.37,0,0,0-.64.83,1.39,1.39,0,0,0,1,1.7,1.59,1.59,0,0,0,1.07-.14,4.93,4.93,0,0,0,2.81-4.45,1.4,1.4,0,0,0-1.39-1.39,8.72,8.72,0,0,0-6.53,4,3.71,3.71,0,0,0-.73,2.24,2.25,2.25,0,0,0,1.68,2,4.34,4.34,0,0,0,3.63-1,9,9,0,0,0,2.9-3.77,1.36,1.36,0,0,0-.14-1.06,1.4,1.4,0,0,0-.83-.64,1.38,1.38,0,0,0-1.07.14,1.61,1.61,0,0,0-.64.83Z"/><path class="cls-26" d="M320.23,111.24c-2-3.72-2.62-1.58-9.82-1.31s-12.55-2.66-16-7.89-8.52-.37-9.54,4.13,2.87,17.31,18.71,14.82S321.31,113.27,320.23,111.24Z"/><path class="cls-20" d="M320.23,111.24c-2-3.72-2.62-1.58-9.82-1.31s-12.55-2.66-16-7.89-8.52-.37-9.54,4.13,2.87,17.31,18.71,14.82S321.31,113.27,320.23,111.24Z"/><path class="cls-27" d="M331.26,375.77s-11.55-3-15.8,4.36l4.39,5.74s11.9-6.45,15.77-4.7Z"/><path class="cls-28" d="M331.26,375.77s-11.55-3-15.8,4.36l4.39,5.74s11.9-6.45,15.77-4.7Z"/></g></svg>