<svg xmlns="http://www.w3.org/2000/svg" xmlns:xlink="http://www.w3.org/1999/xlink" viewBox="0 0 600 600"><defs><style>.cls-1{fill:#d7ff5a;}.cls-2{fill:#007fcc;}.cls-3{fill:#4aa4bc;}.cls-14,.cls-16,.cls-18,.cls-20,.cls-4,.cls-7{fill:none;}.cls-4{stroke:#1b5186;}.cls-14,.cls-20,.cls-4,.cls-7{stroke-linecap:round;stroke-linejoin:round;stroke-width:2.77px;}.cls-5{fill:#d8d287;}.cls-6{fill:#fffbb6;}.cls-7{stroke:#030304;}.cls-8{fill:#030304;}.cls-9{fill:#f1f3f3;}.cls-10{fill:#dedbe1;}.cls-11{fill:#1b5186;}.cls-12{fill:#c65ded;}.cls-13{fill:#943fbc;}.cls-14{stroke:#000;}.cls-15{fill:#514545;}.cls-17{fill:#0080ca;}.cls-18{stroke:#6fb7d6;stroke-miterlimit:10;stroke-width:0.56px;}.cls-19{fill:#027ecb;}.cls-20{stroke:#1d1d1b;}.cls-21{fill:#1d1d1b;}.cls-22{fill:url(#Degradado_sin_nombre_6);}.cls-23{fill:#dedce0;}.cls-24{fill:#f2f3f2;}.cls-25{fill:#6fb7d6;}.cls-26{fill:url(#Degradado_sin_nombre_6-2);}.cls-27{fill:#3c3c3b;}</style><linearGradient id="Degradado_sin_nombre_6" x1="440.25" y1="162.35" x2="430.75" y2="122.79" gradientUnits="userSpaceOnUse"><stop offset="0" stop-color="#ab076c"/><stop offset="1" stop-color="#760862"/></linearGradient><linearGradient id="Degradado_sin_nombre_6-2" x1="379.32" y1="176.98" x2="369.82" y2="137.41" xlink:href="#Degradado_sin_nombre_6"/></defs><g id="Capa_3" data-name="Capa 3"><g id="a"><rect class="cls-1" width="600" height="600"/></g></g><g id="Capa_1" data-name="Capa 1"><path class="cls-2" d="M212.48,136.15s-6.88,4.1-16,10.74c-2.81,9.61-12.4,14.58-15.43,24.3-2.58,8.26-3.1,9.07-8.44,15.87-4.83,6.14-9.93,15.57-15.17,21.35-2.69,3-3.21,14-5,17.54-2.06,4.1-2.16,11.42-2.77,16-1.32,9.78.22,17.67-1,27.45,5.51-13.08,17.36-35.83,34.51-40,24.35-5.94,36.31-1.78,36.31-1.78Z"/><path class="cls-3" d="M155.8,226.74c1.8-3.59,4.58-6.56,7.27-9.53q7.86-8.67,15.1-17.88c5.35-6.81,10.52-14,13.1-22.25,3-9.73,2.38-20.58,5.19-30.19-17,12.32-41.72,33.42-44.81,53.44-4.75,30.79-6.53,78.31-6.53,78.31s1.19-3.79,3.5-9.28c1.24-9.78,2.55-19.56,3.87-29.34C153.1,235.48,153.74,230.84,155.8,226.74Z"/><path class="cls-4" d="M212.48,136.15s-56.08,33.38-60.83,64.18-6.53,78.31-6.53,78.31,13.66-43.36,38-49.3,36.31-1.78,36.31-1.78Z"/><path class="cls-5" d="M468.25,381.61c-1.3-3.56-10.11-18.11-11.06-21.77-1.71-6.56-7.49-21.49-10.95-27.33C443.19,327.38,441.11,318,436,315s-12.78-6.21-14.24-12c-1.13-4.49-2.69-1.68-3.5-6.24-.69-3.84-6.39.13-8.75-3-6.54-8.67-14.33-16.39-20.47-25.36-4.95-7.23-8.84-15.59-9.52-24.22a24.53,24.53,0,0,0-2.49,5.61c-3.51,11.64-1.43,24.33,2.78,35.74,3.81,10.34,9.3,20,14.76,29.53,4.92,8.62,11,16.7,14.76,25.86,13.53,32.55,29.49,51.95,42,57.81C453.12,389.84,471.35,390.12,468.25,381.61Z"/><path class="cls-6" d="M470.92,360.57c-3.22-14.55-8.88-26.8-18.44-45.15-12.79-24.55-5.24-24.28-17.45-48.7s-44.18-30.23-44.18-30.23l1.82-.36c-5.51-.77-10.23,3.06-13.2,8,.68,8.63,4.57,17,9.52,24.22,6.14,9,13.93,16.69,20.47,25.36,2.36,3.13,4.6,6.5,5.29,10.35.82,4.56-.64,9.35.49,13.84,1.46,5.79,6.79,9.68,11.95,12.68s10.81,5.87,13.85,11c3.46,5.83,2.73,13.16,4.44,19.73,1,3.66,2.67,7.07,4,10.62a49,49,0,0,1,1.81,26.75C466.25,405.75,476.22,393.27,470.92,360.57Z"/><path class="cls-7" d="M392.67,236.13c-7.48-1-13.51,6.39-15.69,13.63-3.51,11.64-1.43,24.33,2.78,35.74,3.81,10.34,9.3,20,14.76,29.53,4.92,8.62,11,16.7,14.76,25.86,29.79,71.63,71.35,79.61,61.64,19.68-3.22-14.55-8.88-26.8-18.44-45.15-12.79-24.55-5.24-24.28-17.45-48.7s-44.18-30.23-44.18-30.23"/><path class="cls-5" d="M314.36,588.76c1-.34,7.57-6.7,8.31-7.52,1-1.13,2.16-12.22,2.17-13.75.15-14.75,3.57-3.81.79-18.3,24.86,7,19.17,16.08,41.35,2.87-.4,13.92,2.07,15.62,4.22,29.38.15,1,10.19,2.64,10.71,3.46,1.94,3.06,9.47,4.18,12.66,2.47,5.5-2.93,12.32-15,17.67-18.2l1.52-91.59S334.35,497.37,312.29,495s-124.74,6.36-124.74,6.36c2.59,23.11,5.61,60.24,7.42,82,16.58,5,47.95,8,56,9.79C270.74,597.58,295.06,595,314.36,588.76Z"/><path class="cls-6" d="M396,563.26c-3.2,1.7-7.89,3-9.82,0a7.24,7.24,0,0,1-.84-2.79,226.5,226.5,0,0,1-2.64-41.62c-22.17,13.2-50.36,9.77-75.21,2.81a223.25,223.25,0,0,1,4,44c0,1.52-.1,3.19-1.12,4.32a6.28,6.28,0,0,1-2.86,1.54c-19.29,6.23-42.82,15.61-62.6,11.14-8-1.82-34.23-10.51-50.81-15.49.89,10.55,1.71,21.29,2.5,32.56H411.34l.9-45.61Q404.22,558.86,396,563.26Z"/><path class="cls-8" d="M283.61,514.24c16,7.65,32.95,13.71,50.69,15.38,15.54,1.46,31.5-.82,45.57-7.77A63.84,63.84,0,0,0,400,506.47c1.17-1.34-.79-3.31-2-2-9.67,11.19-23.27,18.1-37.63,21.07-16,3.31-32.56,1.46-48.12-3.08A181.38,181.38,0,0,1,285,511.85c-1.61-.77-3,1.62-1.4,2.39Z"/><path class="cls-8" d="M359.25,528.61l.27,17.43c.07,4.94.4,10-.32,14.9A18.42,18.42,0,0,1,353,572.85a33.83,33.83,0,0,0-5.15,5,19.35,19.35,0,0,0-2.95,6c-1.5,4.94-1.39,10.25-1.2,15.35.06,1.78,2.84,1.79,2.77,0-.17-4.56-.3-9.25.85-13.71a17.29,17.29,0,0,1,2.7-5.92c1.49-2,3.56-3.51,5.42-5.17,7.47-6.68,7-16.94,6.9-26.15l-.3-19.63a1.39,1.39,0,0,0-2.78,0Z"/><path class="cls-8" d="M346.85,528.63a235.36,235.36,0,0,1-.44,42.72c-.18,1.78,2.6,1.76,2.78,0a236.27,236.27,0,0,0,.44-42.72c-.15-1.76-2.92-1.78-2.78,0Z"/><path class="cls-8" d="M186.16,501.35q4.26,38,7.32,76.2.89,11.07,1.66,22.15a1.41,1.41,0,0,0,1.38,1.39H402.61c2.78,0,5.58.06,8.36,0h.37a1.42,1.42,0,0,0,1.39-1.39l.24-12.13.57-29.14.7-35.26.61-30.5c.1-4.94.41-9.93.29-14.87,0-.07,0-.14,0-.22a1.4,1.4,0,0,0-1.76-1.33q-5.06,1.25-10.12,2.43-12.21,2.88-24.49,5.51c-9.94,2.13-19.91,4.13-29.92,5.86a258.26,258.26,0,0,1-26.71,3.55,61.19,61.19,0,0,1-9.38,0c-2.49-.22-5-.37-7.48-.42-7.62-.15-15.24.11-22.86.41-9.71.38-19.42.91-29.12,1.51s-19.59,1.26-29.38,2q-11.82.86-23.63,1.8-6.11.48-12.2,1l-.55,0c-1.77.15-1.79,2.92,0,2.77,2.82-.24,5.65-.47,8.47-.69q10.74-.87,21.49-1.67,14.27-1.06,28.56-2c9.9-.64,19.81-1.23,29.73-1.68,8.34-.39,16.7-.72,25.05-.73,2.93,0,5.86,0,8.79.2,2.58.15,5.13.43,7.73.4,8.33-.1,16.68-1.34,24.9-2.63,10.07-1.58,20.09-3.5,30.08-5.57q13.36-2.76,26.67-5.85,7.23-1.66,14.44-3.43l.67-.17-1.76-1.34-.24,12.13-.58,29.14-.7,35.26-.6,30.5-.2,10.13a37.5,37.5,0,0,0-.09,4.74c0,.07,0,.15,0,.22l1.39-1.39H205.25c-2.75,0-5.61-.21-8.36,0-.12,0-.24,0-.37,0l1.39,1.39q-2.7-38.19-6.59-76.27-1.14-11.05-2.39-22.08C188.74,499.59,186,499.57,186.16,501.35Z"/><path class="cls-9" d="M272.84,241.26c-10.52-25.36-21.14-51.12-27.34-77.74q.19,4.2.68,8.39c1.72,14.87,6.23,29.26,10.71,43.54q6.27,20,12.53,39.94c2.46,7.85,4.93,15.7,7.87,23.38.4,1.05.81,2.09,1.23,3.14,7.83,5.85,15,11.15,20.72,15.48q-3.6-6.19-6.89-12.55C285.06,270.69,279,256,272.84,241.26Z"/><path class="cls-10" d="M348.85,356.76c2.06,6.8,17.28-60.18,17.28-60.18l-2.7-31.38q0-29.25,0-58.5c0-14.37,0-28.8-2.29-43-3.75-23.43-14-46.16-30.93-62.79s-40.82-26.63-64.47-24.61c-1.06.09-2.13.22-3.2.36-7.1,15.62-11.72,32.65-14.46,49.55a179.51,179.51,0,0,0-2.56,37.3c6.2,26.62,16.82,52.38,27.34,77.74,6.11,14.7,12.22,29.43,19.51,43.58q3.28,6.36,6.89,12.55c5.4,4.05,9.59,7.25,12,9.22C326,318.75,348.76,356.46,348.85,356.76Z"/><path class="cls-2" d="M237.06,218c.34-10.77,2.91-21.35,3.61-32.09,1.74-27-8.38-53.82-5.75-80.73a97.72,97.72,0,0,1,4.55-21c-12.9,6.8-23.63,17.58-29.28,31-3.42,8.12-5,16.88-6.35,25.59a631.63,631.63,0,0,0-7.12,73.8c7,8.84,25.34,24.08,45.43,39.76C239.17,242.3,236.67,230.2,237.06,218Z"/><path class="cls-3" d="M269.42,255.39q-6.27-20-12.53-39.94c-4.48-14.28-9-28.67-10.71-43.54-1.76-15.19-.57-30.6,1.88-45.69,2.74-16.9,7.36-33.93,14.46-49.55a69.64,69.64,0,0,0-23,7.41,97.72,97.72,0,0,0-4.55,21c-2.63,26.91,7.49,53.74,5.75,80.73-.7,10.74-3.27,21.32-3.61,32.09-.39,12.25,2.11,24.35,5.09,36.28,12.17,9.51,25,19.17,36.37,27.68-.42-1.05-.83-2.09-1.23-3.14C274.35,271.09,271.88,263.24,269.42,255.39Z"/><path class="cls-11" d="M198.11,214.47q1-27.28,4.39-54.4c1.12-8.94,2.32-17.91,4-26.77,1.48-7.87,3.56-15.69,7.43-22.75,6.56-12,17.32-21.28,29.65-26.95a69.33,69.33,0,0,1,41.68-4.91,85.34,85.34,0,0,1,40.17,19.69A101.48,101.48,0,0,1,351.47,135c6.47,15.08,9.32,31.21,10.14,47.53.45,9,.41,18,.41,27.05v27.67q0,13.71,0,27.41c0,2.27.35,4.57.55,6.83l2,23.66a8.47,8.47,0,0,0,.1,1.13c.07.38,0,.24.06-.05l-.36,1.26q-1,3.54-2.13,7.08c-2.34,7.6-4.82,15.17-7.71,22.59a95.32,95.32,0,0,1-4.33,9.82,28.38,28.38,0,0,1-2.11,3.51,6.55,6.55,0,0,1-.83,1c-.14.13-.28.27-.43.39s.22-.15,0,0l-.24.15c-.38.19.19,0-.16.06-.09,0,.25.09-.11,0,.13,0,.33.09.13,0s.21.22.07,0,.15.21-.14-.1.05.16-.17-.24a6.63,6.63,0,0,1-.31-.59c.12.25-.15-.38-.2-.48a4.17,4.17,0,0,0-.36-.47c-2-2.55-4.14-5-6.27-7.43-8.34-9.58-17-19.12-26.89-27.19-4.61-3.79-9.44-7.32-14.21-10.9-7.55-5.66-15.12-11.28-22.67-16.94q-13.32-10-26.52-20.14c-8.59-6.63-17.12-13.34-25.48-20.26-6.76-5.59-13.47-11.28-19.7-17.46a72.16,72.16,0,0,1-5.91-6.45c-1.12-1.39-3.07.58-2,2,4.49,5.62,10,10.47,15.38,15.2,7.79,6.84,15.85,13.37,24,19.8q13.49,10.65,27.21,21Q275,281,287.72,290.5c6.21,4.63,12.44,9.24,18.58,14a188.62,188.62,0,0,1,22,20.54q5.87,6.27,11.43,12.81c1,1.22,2.07,2.44,3.08,3.68l.4.5c.27.34,0-.07.06.08s-.15-.37,0,.08c.13.29.24.59.4.87a3.1,3.1,0,0,0,5,.92c1.93-1.56,3.18-4,4.28-6.2,3.65-7.2,6.29-14.95,8.84-22.59q2.87-8.62,5.41-17.37a8.4,8.4,0,0,0,.11-3.28l-1-11.52c-.65-7.51-1.53-15-1.53-22.54q0-28,0-56.09c0-17.68-.33-35.5-4.77-52.72a115,115,0,0,0-19.74-41.37,92.5,92.5,0,0,0-35.52-28.35c-13.81-6.14-29.23-8.75-44.23-6.36a70.83,70.83,0,0,0-36.69,17.88,62.47,62.47,0,0,0-12.6,16.22c-3.86,7.21-6,15.15-7.48,23.15a534,534,0,0,0-6.85,54.8q-1.07,13.41-1.57,26.86C195.27,216.25,198.05,216.25,198.11,214.47Z"/><path class="cls-11" d="M206.41,192.21l20.54,20S209.12,209.35,206.41,192.21Z"/><path class="cls-11" d="M209.24,177l20.55,20S212,194.18,209.24,177Z"/><path class="cls-11" d="M211.92,161.17l20.54,20S214.63,178.31,211.92,161.17Z"/><path class="cls-12" d="M376.34,457.82c-.58-5-1.41-10.09-4-14.4L350.88,459c-12.71,9.18-25.57,18.46-40.1,24.35-10.76,4.37-22.66,6.75-34.12,5.58,5.79,9.38,10.63,15.67,10.63,15.67s32.74,7.56,60.12,11.05c10.15,1.29,20-3.1,28.46-9.15A195.49,195.49,0,0,0,376.34,457.82Z"/><path class="cls-13" d="M255.88,343.87a175,175,0,0,1,32.21,16,227.78,227.78,0,0,1,.61-47.42c.24-2.11.67-4.46,2.41-5.67,1.41-1,3.27-.9,5-.71,23.74,2.63,44.89,21.18,50.61,44.37a273.14,273.14,0,0,1,24.38-60.61c1.41-2.56,3.1-5.3,5.88-6.2,3.9-1.27,7.82,1.67,10.4,4.93-5.38-13.06-11.93-23.19-18.94-29L346.6,348.25s-7.91-47.75-47.71-65.19-92.82-58.14-92.82-58.14-11.52-2.91-6.86,19.18,22.67,58.14,33.72,91.86c1,3,2,6,3,9a14.21,14.21,0,0,1,6.13-3.21C246.64,340.72,251.43,342.22,255.88,343.87Z"/><path class="cls-12" d="M401,355.73c-1-25.62-6.18-49.19-13.59-67.2-2.58-3.26-6.5-6.2-10.4-4.93-2.78.9-4.47,3.64-5.88,6.2a273.14,273.14,0,0,0-24.38,60.61C341,327.22,319.83,308.67,296.09,306c-1.71-.19-3.57-.27-5,.71-1.74,1.21-2.17,3.56-2.41,5.67a227.78,227.78,0,0,0-.61,47.42,175,175,0,0,0-32.21-16c-4.45-1.65-9.24-3.15-13.86-2.09a14.21,14.21,0,0,0-6.13,3.21c10.34,31.48,21.46,66.16,21.46,92.13,0,8.42,2.61,17.75,6.29,26.72,15-6.36,28.27-16.5,40.42-27.44,14.51-13.07,27.83-27.5,43.17-39.58,9.12-7.18,19.93-13.77,31.49-12.75,9.25.81,17.34,6.56,22.86,14.16C401.59,382.9,401.43,367.91,401,355.73Z"/><path class="cls-13" d="M378.72,384.07c-11.56-1-22.37,5.57-31.49,12.75-15.34,12.08-28.66,26.51-43.17,39.58-12.15,10.94-25.45,21.08-40.42,27.44a178.48,178.48,0,0,0,13,25.05c11.46,1.17,23.36-1.21,34.12-5.58,14.53-5.89,27.39-15.17,40.1-24.35l21.49-15.54c2.56,4.31,3.39,9.42,4,14.4a195.49,195.49,0,0,1-.47,48.64c14.31-10.27,24.41-25.28,24.41-25.28s1.27-42.65,1.3-82.95C396.06,390.63,388,384.88,378.72,384.07Z"/><path class="cls-14" d="M206.07,224.92s-11.52-2.91-6.86,19.18,22.67,58.14,33.72,91.86,24.42,72.68,24.42,101.16,29.94,67.44,29.94,67.44,41.17,13.21,67.1,11.08c27.51-2.26,45.89-34.46,45.89-34.46s2.41-81.27.67-125.45-15.85-82.3-32.53-96.25L346.6,348.25s-7.91-47.75-47.71-65.19S206.07,224.92,206.07,224.92Z"/><path d="M348.19,355q3.24,31.28,4.74,62.7,1.44,31.2,1.07,62.44-.21,17.76-1,35.5c-.07,1.79,2.7,1.78,2.78,0q1.37-31.41,1-62.87-.42-31.23-2.67-62.38Q352.81,372.67,351,355c-.18-1.75-3-1.77-2.77,0Z"/><path class="cls-5" d="M187,274.68c.21.34.4.68.6,1,4.28,6.89,8,14.9,13.12,21.23,4.18,5.2,9.75,8.69,13.72,14,7.33,1.71,30.19,7.44,43.24,15.17-13-7.73-35.91-13.46-43.24-15.17,16,21.48,16.56,54.61,31,77.13,2.73,4.25,19.39-2,21.24,2.67,2.19,5.56,3.5,12.18,8.59,15.31-.72-10.21,13.42-25.34,9-34.55-3.61-7.45-9.24-18.28-13.65-25.29s-2.57,3-1.39-5.24c.1-.66-1.71,8.4-1.2,8s3.62-8,4.32-8c2.7.18-10.57-3.42-7.86-3.46s5.21-8.37,5.34-11.08c.11-2.36-6-16.22-7.91-17.61-9.86-7.17-19.13-22.46-30.47-26.93-5.49-2.17-6.4-12.55-10.88-16.39-4.77-4.09-5.76,2.91-8.45-2.77-4.51-9.53,3.47-.95-1-10.49-3.2-6.75-17.46-16.49-18.2-23.93-.57-5.66-6.72-11.52-3.5-16.08-4.85,2.64-12.82,8.82-14.24,16.79a34.12,34.12,0,0,0-.44,3.5A103.59,103.59,0,0,0,178.64,256c.39,1.22.81,2.43,1.24,3.64A128.38,128.38,0,0,0,187,274.68Z"/><path class="cls-15" d="M187,274.5a128.48,128.48,0,0,1-7.15-15.05A87.41,87.41,0,0,0,187,274.5Z"/><path class="cls-6" d="M179.88,259.45c-.83-1.19-3.82-11.72-5.26-11.93-2-.3-7.09-4.31-8.23-2.68C157.1,258.2,137,265.66,137.9,281.91c.31,5.59-3.18,21.62-1.38,26.93,5.8,17.19,4.82,44.41,18.79,56,8.87,7.35,25.52,46.13,35.41,52s22.11-2.17,26.9,8.31c5.08,11.11,21.95,8,26.9,19.17,7,15.8,24,24.33,40.12,30.61,3.64,1.42,7.35,2.83,11,4.31-3.24-40.76-10.44-111.8-16.16-134.7-6.69-26.74-28.78-57-38.45-75s-29.87-28.49-38-37.23-6.72-22.08-6.72-22.08a31,31,0,0,0-9.8,3.37c-3.21,4.56-4.38,10.65-3.81,16.31.74,7.43,4,14.36,7.19,21.12l13.54,28.6c2.69,5.68,5.51,11.54,10.28,15.63,4.48,3.85,10.25,5.76,15.75,7.93a144.32,144.32,0,0,1,32,17.56c1.91,1.39,4,3.21,3.86,5.57-.13,2.71-3.18,4.39-5.89,4.43s-5.34-1-8-1.16a2.72,2.72,0,0,0-2,.45,2.87,2.87,0,0,0-.77,1.82c-1.18,8.19,2.26,16.37,6.66,23.38s9.87,13.38,13.48,20.83c4.46,9.21,5.86,19.59,6.58,29.79-5.09-3.13-6.4-9.75-8.59-15.31a77.38,77.38,0,0,0-7.33-13.23c-14.48-22.53-29-45.08-44.94-66.56-1.48-.35-2.33-.53-2.33-.53-11-13.2-19.24-25.13-25.11-35.75a87.41,87.41,0,0,1-7.15-15.05c-.28-.71-.55-1.42-.8-2.12"/><path class="cls-15" d="M178.64,255.82c.15.5.28,1,.44,1.51.25.7.52,1.41.8,2.12C179.45,258.25,179,257,178.64,255.82Z"/><path class="cls-16" d="M179.08,257.33a103.28,103.28,0,0,1-4.36-25C174.22,239.11,175.45,247.44,179.08,257.33Z"/><path class="cls-5" d="M244.52,444.33c-5-11.16-4-24.28-9.08-35.39-4.79-10.47-14.38-17.93-24.27-23.83S190.65,374.37,181.78,367c-14-11.57-22.48-28.48-28.28-45.67-1.79-5.32-3.38-10.76-3.69-16.36-.9-16.25,8.79-31,18.08-44.32,1.14-1.64,2.71-3.47,4.68-3.18,1.45.21,2.44,1.51,3.28,2.71l10.91,15.58a99.94,99.94,0,0,1-7.68-18.45c-3.63-9.89-4.86-18.22-4.36-25h0c-25.11,22-47.82,49.42-50.14,67.45s26.74,72.09,39,117.44,18.93,118.36,18.93,118.36c55,51.75,117.38,27.91,117.38,27.91S299,530,297,496.88c-.3-4.77-.73-10.77-1.27-17.63-3.69-1.48-7.4-2.89-11-4.31C268.55,468.66,251.52,460.13,244.52,444.33Z"/><path class="cls-7" d="M174.73,232.33c-25.12,22-47.83,49.43-50.15,67.46s26.74,72.09,39,117.44,18.93,118.36,18.93,118.36c55,51.75,117.38,27.91,117.38,27.91S299,530,297,496.88,286.2,371.3,279.52,344.55s-28.78-57-38.45-75-29.87-28.49-38-37.23-6.72-22.08-6.72-22.08-18.28,2.33-21.18,18.61,5.36,43.6,37,81.39c0,0,29.88,6.4,45.57,15.7"/><path class="cls-8" d="M238.48,318.32l1.77,32.84.88,16.41c.29,5.3.43,10.63.88,15.92a15.74,15.74,0,0,0,1.85,6.75,32.34,32.34,0,0,0,4.49,5.42q4.88,5.26,9.44,10.81A250.39,250.39,0,0,1,275,430.05a254.43,254.43,0,0,1,15.88,28.51c.77,1.61,3.16.21,2.4-1.4a255.54,255.54,0,0,0-30.21-48.53q-4.45-5.64-9.21-11c-1.56-1.76-3.15-3.49-4.75-5.21a14.4,14.4,0,0,1-3.87-6,36.38,36.38,0,0,1-.73-7.36l-.44-8.21-.87-16.17-2-36.32c-.1-1.78-2.88-1.79-2.78,0Z"/><path class="cls-6" d="M417.92,408.36c-4.47-.63-18.58,2.57-21.44,6.06-1.87,2.27-7.77,7.41-7.94,10.35-1.07,18.56,4.27,40.6,5.74,59.13.8,10.09,1.77,50.09,2.57,60.19,6.46-1.27,19.32-3.68,24.91-7.16-2.39-16.39-.1-59.39,1.06-75.91.91-12.81,1.12-25.64,1-38.48C420.62,421.66,421.17,408.82,417.92,408.36Z"/><path class="cls-5" d="M395.86,320.12c.09,4.84,6.33,23.12,7.91,27.69,3.53,10.19,13.65-.46,17.35,9.66-1.05-18.24-2.57-36.45-6-54.38-.92-4.75-6.23-23.74-7.45-28.44-1,4-5.07,11.78-6.07,15.79S395.79,316.06,395.86,320.12Z"/><path class="cls-5" d="M399.22,431.76c.17-2.93.48-6.06,2.35-8.33,2.86-3.48,8.12-3.55,12.58-2.91a75.21,75.21,0,0,1,9.63,2c-.2-15.92-1-31.85-1.76-47.76-.29-5.76-.57-11.54-.9-17.31q-5.55-15.18-10.85-30.46c-1.58-4.57-3.16-9.24-3.25-14.08-.07-4.05.91-8,1.89-12l3-12.05c-4.83-18.62-12.19-36.61-23.23-52.3-.86-1.22-1.94-2.54-3.43-2.63-2.1-.14-3.42,2.14-4.24,4.08q-4,9.57-8,19.15c-2.9,6.91-1.91,8.38.69,15.27a153.11,153.11,0,0,1,8.3,35.59c3,24.31,1.72,48.86,2,73.28.26,23.9,2,47.75,3.81,71.58,0,11.49,1.73,23.25,2.58,34.71.68,9.08,4.74,49.6-.38,57.39a53.86,53.86,0,0,0,13.53-.93c-.8-10.1-1.6-46.54-2.4-56.63C399.61,468.93,398.14,450.32,399.22,431.76Z"/><path class="cls-8" d="M386.36,452.92c0,10,1.28,20,2.19,29.95.42,4.64.77,9.29,1.14,13.94.91,11.44,1.76,23,1.33,34.46a63.52,63.52,0,0,1-.7,8,13.57,13.57,0,0,1-1.57,5,1.4,1.4,0,0,0,1.2,2.09,56.53,56.53,0,0,0,32.51-8.28,1.46,1.46,0,0,0,.64-1.57,123.72,123.72,0,0,1-1-15.51c-.12-6.77,0-13.54.15-20.31q.48-18.6,1.74-37.16c1.25-18.92,1.38-37.81.76-56.76-.65-20-1.56-40-3-59.88-2.58-36.63-8.54-74.52-28.63-106.06-1.15-1.81-2.32-3.63-3.6-5.35-1-1.36-2.22-2.66-4-2.9-4.08-.56-5.66,4.38-6.89,7.3q-2.85,6.76-5.68,13.52c-1.47,3.5-3.52,7.3-3.2,11.22.29,3.59,2.08,7,3.27,10.35A135.6,135.6,0,0,1,377.21,289a189.77,189.77,0,0,1,4.34,28.84c1.58,19.92.87,39.92,1,59.88.11,20.17,1.31,40.32,2.75,60.44q.53,7.41,1.09,14.8c.13,1.77,2.91,1.78,2.77,0-1.47-19.72-2.93-39.45-3.54-59.22-.61-19.61.12-39.22-.4-58.82-.5-18.91-2.22-38.06-7.92-56.18-1.27-4-3-7.91-4.22-12-1-3.48.14-6.51,1.49-9.73q2.82-6.76,5.68-13.52a52.85,52.85,0,0,1,2.76-6.31,3.9,3.9,0,0,1,1.45-1.66c1.2-.56,2.12.56,2.78,1.41a90.59,90.59,0,0,1,7,10.95c2.17,3.78,4.15,7.67,6,11.63a174.14,174.14,0,0,1,9.06,24.79c5.16,18.05,7.74,36.71,9.29,55.39,1.61,19.45,2.41,39,3.2,58.5.8,19.7,1.15,39.45,0,59.14-.72,11.9-1.49,23.79-1.92,35.71-.44,12.53-.85,25.17,0,37.7.15,2.2.36,4.38.67,6.56l.64-1.57A53.89,53.89,0,0,1,390,543.64l1.2,2.08c2-3.18,2.22-7.65,2.48-11.29a166.31,166.31,0,0,0,.08-17.44c-.38-10.1-1.27-20.17-2.06-30.25-.88-11.27-2.49-22.5-2.52-33.82A1.39,1.39,0,0,0,386.36,452.92Z"/><path class="cls-8" d="M379.18,241.22a244.32,244.32,0,0,1,14.13,26.42,129.6,129.6,0,0,1,5.76,13.72c.77,2.38-.75,4.33-2,6.24s-2.49,3.59-3.75,5.38c-2.84,4-5.54,8.14-6.85,12.92a1.39,1.39,0,0,0,2.68.74c1.21-4.41,3.72-8.23,6.33-11.93,1.3-1.84,2.63-3.66,3.87-5.53s2.77-4,2.8-6.33-1.36-4.78-2.22-6.9q-1.44-3.49-3-7-3.1-7-6.66-13.82-4.08-7.83-8.71-15.36c-.94-1.51-3.34-.12-2.4,1.41Z"/><path class="cls-8" d="M391.37,297.1l14.87,56.26,1.85,7a48.55,48.55,0,0,1,1.58,6.95c.54,4.65-1.29,9-2.8,13.3l-9.58,27.3L386.4,439c-.6,1.68,2.08,2.41,2.67.73l19.49-55.53c1.55-4.41,3.57-8.93,3.95-13.64.37-4.51-1.24-9-2.38-13.33l-7.59-28.73-8.49-32.1a1.39,1.39,0,0,0-2.68.73Z"/><path class="cls-12" d="M199.37,213s1.61,5.81,16.34,17.83,59.21,37,71.71,43c23,11.05,55.16,35.92,60.2,69.64,0,0,5.19-34,8.79-49.36,3.33-14.22,11.75-32.68,8.78-49.35,0,0,7.88,3.1,12.92,13.18s3.4,29.45,3.4,29.45-4-21.64-12.31-16.27-20.35,85.65-20.35,85.65-9.5-50-51.36-72.09c0,0-10.07.78-11.24,17.44,0,0-31-16.28-51.93-36S192.71,226.92,199.37,213Z"/><path class="cls-14" d="M199.37,213s1.61,5.81,16.34,17.83,59.21,37,71.71,43c23,11.05,55.16,35.92,60.2,69.64,0,0,5.19-34,8.79-49.36,3.33-14.22,11.75-32.68,8.78-49.35,0,0,7.88,3.1,12.92,13.18s3.4,29.45,3.4,29.45-4-21.64-12.31-16.27-20.35,85.65-20.35,85.65-9.5-50-51.36-72.09c0,0-10.07.78-11.24,17.44,0,0-31-16.28-51.93-36S192.71,226.92,199.37,213Z"/><path class="cls-6" d="M432.46,401.22c8.16,1.81,23.05,3.2,31.25,1.59,7.59-1.49,7.17-21.51,8.89-28.9-.29-2.2-.56-4.45-.76-6.71C470.12,347.28,422.37,341,422.37,341c-41.08-21.19-53.27-9.18-53.27-9.18,7.59-5.18,6.39,11.32,2.89,23.51-.88,3.07-6.83,17.91-8.18,21.08,5.33,3.43,13.74,6,19.59,8.41C398.05,390.78,417,397.81,432.46,401.22Z"/><path class="cls-5" d="M472.6,373.91c-1.72,7.39-9.1,12.77-16.69,14.26-8.19,1.61-16.63-.29-24.79-2.09-15.44-3.42-31.06-6.57-45.71-12.55a101.71,101.71,0,0,1-16.88-8.71,175.62,175.62,0,0,1-9.1,18s39.68,8.42,51.4,14,36,13.37,53,11.06C479,405.9,474.92,391.12,472.6,373.91Z"/><path class="cls-7" d="M470.5,362.44c1.09,4.92.56,3,1.14,8.79.07.64.13,1.27.2,1.89"/><path class="cls-7" d="M471.84,373.12c2.4,21.66,6.81,33.79-12.41,35.49-19.76,1.74-36-9.3-57-14s-43-11.81-43-11.81,30.24-56,8.73-49.4c0,0,3.48-12.39,35.46,0s50.58,28.63,50.58,28.63"/><path class="cls-8" d="M423.63,342.33a97.4,97.4,0,0,1,26.28,7.81c1.61.75,3-1.64,1.4-2.39a99.68,99.68,0,0,0-26.95-8.09c-1.74-.27-2.5,2.41-.73,2.67Z"/><path class="cls-3" d="M410.6,343c8-2.09,12-4.21,20.09-3-.55-2.67-2.63-12.86-3.89-15.29-3.46-6.67-10.09-11.39-17.32-13.44s-15-1.59-22.28.31A58.64,58.64,0,0,0,354,334.94l.53-.38c4.28,5.53,15.83,18.31,20.7,23.34,1.46-.74,9.56-2.12,11-2.9C396.48,349.35,399.22,345.93,410.6,343Z"/><path class="cls-17" d="M404.81,334c-11.38,3-21.94,8.4-32.25,14.06-1.42.78-2.86,1.57-4.32,2.31a191.17,191.17,0,0,0,14.42,13.46c2,1.71,4.36,3.46,7,3.32s4.74-2.09,6.69-3.85a95.42,95.42,0,0,1,34.33-19.93,82.5,82.5,0,0,0-1.27-11A61.48,61.48,0,0,0,404.81,334Z"/><path class="cls-11" d="M355.16,335.64a57.33,57.33,0,0,1,30.15-22.08c12.8-3.92,28.41-3.17,37.6,7.79,5.17,6.17,5.86,14.36,6.39,22.06l1-1.34a97.86,97.86,0,0,0-31.73,17.5c-2.18,1.81-4.2,4.14-6.69,5.52-2.94,1.62-5.64,0-7.95-1.95a176.75,176.75,0,0,1-14.07-13,193.71,193.71,0,0,1-14.41-16.54c-1.1-1.4-3.05.57-2,2a193.84,193.84,0,0,0,27.83,29c2.19,1.85,4.58,3.78,7.56,4s5.56-1.67,7.71-3.59a103.2,103.2,0,0,1,15.11-11.35,94.36,94.36,0,0,1,19.35-8.88,1.42,1.42,0,0,0,1-1.34c-.51-7.37-1.13-15.15-5.32-21.5a29.79,29.79,0,0,0-15.48-11.53c-14-4.71-30.24-.11-42.2,7.83a60.56,60.56,0,0,0-16.32,16c-1,1.47,1.39,2.86,2.4,1.4Z"/><path class="cls-6" d="M124.45,320.91c-.54,13.53,5.56,32.38,12.66,43.92,3.56,5.77,14.1,16.72,19.39,21,4.22,3.39,14.92,26.56,20,28.49,14.14,5.39-1.72-17.25,13.25-15-8.15,3.54,31.78,40.42,23,39.36,14.28,10.25,27,14.45,42.53,22.75,9.11,4.89,18.85,7.68,28.91,10.09,1.25.3,12.78-3.38,14-3.76s5.46-4.89,6.52-5.73c11.55-9.1,11.75-6.26,23.55-15,5.5-4.1,13.43-10.44,16.81-16.42,4.09-7.23,4-14.67,11.67-17.82,5.33-2.19,7.71-8.08,12.07-11.85,5.62-4.86,12.91-18.13,13.65-25.52,1.48-14.75-4.44-35-14.34-41.08a38.8,38.8,0,0,0-17.17-3.63s-51.28,59.94-72,74.06c0,0-4.6-4.1-8.08.16,0,0,.16-15.11-15.71-35.07s-34.63-52-39.3-57.42S193.78,290,182,286.28c-4.3-1.34-12.27-4.12-21.37-4.82-6,8.69-20.09,7.32-24.51,16.9C132.94,305.25,124.75,313.32,124.45,320.91Z"/><path class="cls-5" d="M368.07,334.23c5.86,13.5,7,28.92,5.56,43.66-.74,7.4-2.44,15.33-8.06,20.19-4.36,3.77-10.29,5-15.62,7.17a37.71,37.71,0,0,0-18.62,15.88c-3.37,6-5.1,13.3-10.61,17.4-11.79,8.77-31-3.74-42.55,5.36a10.79,10.79,0,0,1-3.35,2.25A7.35,7.35,0,0,1,271,446c-10.06-2.41-19.3-7.35-28.42-12.23-15.5-8.31-31-16.65-45.33-26.9A50.62,50.62,0,0,0,223.33,403a209.36,209.36,0,0,1-43.85-11.44c-5.06-1.93-10.12-4.09-14.35-7.48-5.28-4.24-8.94-10.14-12.5-15.91-7.1-11.53-14.46-24-13.92-37.5.3-7.59,3.1-14.86,6.28-21.75a185.79,185.79,0,0,1,15.64-27.47c-15.82-1.2-35.06,3.91-44.33,33.89-7.3,23.56,5.46,55,18.32,72,20.81,27.65,41,45.65,96.4,73.21s62.47,32.08,81.65,12,64.53-76.42,77.25-99l6.33-8.67S387.14,343.06,368.07,334.23Z"/><path class="cls-7" d="M278.09,405.22c15.69-9.88,72.81-74.62,72.81-74.62,31.39-.58,45.35,34.3,45.35,34.3s-22.68,30.82-33.72,47.68S325.32,463.16,305,479.25s-64.53-13.77-87.79-26.56-62.79-36.63-82.56-65.29S108.29,332,119.51,306.27c8.14-18.69,29.07-31.68,58.72-21.4s44.18,34.68,62.21,64.34,29.06,36.62,30.23,56.39l1.16,19.77"/><path class="cls-8" d="M272.06,406.93a9.12,9.12,0,0,1,1.49-2.63c.5-.54,1.46-1.11,2.18-.62s.91,1.59,1.15,2.31c.39,1.17.79,2.34,1.18,3.52l4.72,14.1c.56,1.68,3.24,1,2.67-.74q-2.94-8.82-5.89-17.62c-.73-2.16-1.82-4.57-4.5-4.52s-4.38,2.5-5.4,4.8c-.72,1.62,1.67,3,2.4,1.4Z"/><path class="cls-18" d="M265.55,407.28a20.52,20.52,0,0,0,.26-2.85S265.65,405.59,265.55,407.28Z"/><path class="cls-17" d="M274.53,355.87c-1.7-4.15-15.19,8.39-20,14.89-4,5.38-9.68,12.07-9.68,17.44,1,.53,3.07-.39,7.6-3.94a57.12,57.12,0,0,1,7.3-10.85C264.71,367.58,270.88,362.62,274.53,355.87Z"/><path class="cls-3" d="M300.21,388.34c6.09-10.89,15-22.77,22.85-32.47,4.28-5.29,10.83-11.12,13.06-17.55-15.6-1.62-48.55-3.6-58,5.25-14,13.1-35.27,32-34.35,37.61.49,3-.22,6.31,1.09,7q6.19-7.9,12.19-16c4.83-6.5,10-13.4,17.51-16.34-3.65,6.75-9.82,11.71-14.8,17.54a57.12,57.12,0,0,0-7.3,10.85c.9-.71,1.89-1.52,3-2.45a85.37,85.37,0,0,0-2.33,23c.34,5.88.52,9.74,1.41,11.72.34-.82,5,1.48,5.27.65,1.32-4.58,1.81-9.1,2.75-13.77,3.09-15.33,9.51-31,20.22-42.41-1.7,6.82-8.46,11-12.16,17-3.51,5.66-4.08,12.61-4.3,19.27q-.3,9.35.11,18.7c0,.5.05,1,.08,1.51.9,2.32,2.52,3.73,5.37,2.74a5.82,5.82,0,0,0,1.25-.62c.28-1.79,4.11-6.88,4.07-8.67-.12-4.81,2-7.69,2.57-12.47.79-6.53,1.86-10.63,5.34-16.22,3-4.78,4.87-9.43,8.11-14,2.28-3.26.94-4.92,4.71-3.66-1.66,2.55-1.94,2.35-3.69,4.84a59.54,59.54,0,0,0-10.46,29.38c.85,5.21,2.49,12.48,5.3,16-.1-.94,5,1.64,4.93.72C293,405.54,295.33,397.05,300.21,388.34Z"/><path class="cls-17" d="M341.41,339.06s-5.2-.9-12.71-1.68a59,59,0,0,1-9.84,17.76C311,364.84,300.07,372.07,294,383c-4.87,8.7-6.17,19.07-5.22,29,.08.92.19,1.85.29,2.79,1.67,2.08,3.76,2.85,6.35,1.07,9.83-6.73-5.93-13.17,6.85-30.57S318,363.44,325.72,356,343.48,341.91,341.41,339.06Z"/><path class="cls-17" d="M266.29,397.26c.22-6.66.79-13.61,4.3-19.27,3.7-6,10.46-10.18,12.16-17-10.71,11.4-21.88,23.64-25,39-.94,4.67-1.09,9.5-2.4,14.08a23.59,23.59,0,0,1-.87,2.48c.85,1.87,2.36,2.06,5.27.65,3.92-1.9,5.29-6.75,5.77-9.89.1-1.69.26-2.85.26-2.85a20.52,20.52,0,0,1-.26,2.85c-.18,2.86-.2,7.25.93,10.19,0-.51-.05-1-.08-1.51Q266,406.62,266.29,397.26Z"/><path class="cls-17" d="M299.56,362c-3.78-1.26-7.28,2.37-9.56,5.63q-4.86,6.92-9.33,14.1c-3.48,5.59-6.86,11.5-7.64,18-.58,4.78.26,9.6.38,14.42a29.88,29.88,0,0,1-.31,5.42c7.57-4.78,9.86-26.83,9.86-26.83s.23,2.55.79,6a59.54,59.54,0,0,1,10.46-29.38C296,366.88,297.9,364.53,299.56,362Z"/><path class="cls-11" d="M341.41,337.68c-10-.51-19.92-1.18-29.89-1.67-10.26-.51-20.75.1-30.27,4.32a29.56,29.56,0,0,0-5.95,3.49,46.12,46.12,0,0,0-4.67,4.39c-3.22,3.25-6.53,6.41-9.75,9.66-6.41,6.43-13.16,13.35-17,21.68a30,30,0,0,0-1.27,3.12,4.27,4.27,0,0,0,.14,2.86c.62,1.87,1.23,3.68,3.51,3.82a9.25,9.25,0,0,0,5.61-2,16.51,16.51,0,0,0,4.77-4.83,1.39,1.39,0,0,0-2.39-1.4,13.26,13.26,0,0,1-3.78,3.83,9.81,9.81,0,0,1-1.87,1.11c-.54.23-1.76.8-2.36.52-.38-.17-.45-.79-.6-1.19a2.77,2.77,0,0,1-.3-2.12,30.06,30.06,0,0,1,2.3-4.95c4.24-7.48,10.45-13.75,16.5-19.77,2.95-2.92,5.94-5.79,8.85-8.75a35.18,35.18,0,0,1,4.34-4,29.09,29.09,0,0,1,5.52-3.11c8.69-3.77,18.38-4.36,27.71-3.92,10.29.49,20.58,1.2,30.87,1.72,1.78.09,1.78-2.68,0-2.77Z"/><path class="cls-11" d="M273.6,356.49c-3.75,4.73-8,9-11.94,13.61a60.88,60.88,0,0,0-5.69,7.5,23.39,23.39,0,0,0-3.16,10c-.86,7.91-1.15,16-1.34,23.93-.07,2.78.33,5.89,3.19,7.16a7.11,7.11,0,0,0,7.16-1.19c2-1.63,2.87-4.4,3.58-6.82a43,43,0,0,0,1.65-8.18c.16-1.78-2.62-1.77-2.78,0a36.91,36.91,0,0,1-1.19,6.15,18.81,18.81,0,0,1-2.18,5.81c-1,1.5-3.35,2.51-5.11,1.72a3.17,3.17,0,0,1-1.54-2.93c-.1-1.63,0-3.3.1-4.93.24-6.9.49-13.86,1.23-20.72a20.38,20.38,0,0,1,3.14-9.16,63.29,63.29,0,0,1,5.13-6.65c3.86-4.48,8-8.7,11.71-13.33,1.1-1.39-.85-3.37-2-2Z"/><path class="cls-11" d="M282,360.33c-3.28,6.2-8.9,10.74-12.06,17.05-3,6-4.34,12.61-5,19.24-.33,3.46-.47,6.94-.55,10.42s-.55,7.22.82,10.41c1.16,2.68,3.76,4.67,6.77,4.15,3.37-.59,5.35-3.55,6.47-6.54A115.22,115.22,0,0,0,282,402.43q1.62-6.53,2.8-13.14c.31-1.75-2.37-2.5-2.68-.74a198.87,198.87,0,0,1-4.92,21c-.83,2.82-1.49,6.67-4,8.52-2.68,2-5.22-.08-5.89-2.87-.72-3-.27-6.39-.19-9.42s.24-6.26.55-9.38a50.46,50.46,0,0,1,4.58-17.62c3.16-6.31,8.78-10.86,12.07-17.06.83-1.58-1.56-3-2.4-1.4Z"/><path class="cls-11" d="M299.2,360.43q-5.13,7.8-10.24,15.6c-3,4.52-6,9.28-7.07,14.66-1.12,5.6.13,11.21,2.21,16.43,1,2.58,2.19,5.13,3.44,7.61,1,2,2.59,3.93,5.09,3.81,5.16-.25,7.11-6.65,7.25-10.85.19-5.69-1.82-11.18.65-16.64a49.66,49.66,0,0,1,4.25-7.11c1.49-2.24,3-4.45,4.63-6.63q4.93-6.74,10.47-13,6.06-6.9,12.78-13.18,3.43-3.21,7-6.24c1.83-1.55,4.59-3.89,2.92-6.53-1-1.5-3.36-.11-2.4,1.4.5.78-.94,1.87-1.48,2.32-1,.85-2,1.69-3,2.55q-2.89,2.52-5.67,5.14-5.49,5.18-10.55,10.78a190.77,190.77,0,0,0-18.35,23.82c-2.83,4.36-5,8.71-4.74,14,.2,4.66,1.79,10-.47,14.38-.8,1.58-3.1,4.2-4.89,2.34a10.55,10.55,0,0,1-1.59-2.74c-.6-1.25-1.19-2.51-1.76-3.78-2.14-4.81-3.92-10.05-3.42-15.39.54-5.7,3.76-10.75,6.82-15.43q5.22-8,10.47-16c1-1.5-1.42-2.89-2.39-1.4Z"/><path class="cls-11" d="M307.37,357l4.27-4.26a1.39,1.39,0,0,0-2-2L305.41,355a1.39,1.39,0,1,0,2,2Z"/><path class="cls-11" d="M287.27,355.18l6.62-5a1.56,1.56,0,0,0,.64-.83,1.43,1.43,0,0,0-.14-1.07,1.4,1.4,0,0,0-1.9-.5l-6.62,5a1.56,1.56,0,0,0-.64.83,1.43,1.43,0,0,0,.14,1.07,1.41,1.41,0,0,0,1.9.5Z"/><path class="cls-19" d="M257.25,110.56c1.49-7.1,7.52-17.81,10.82-24.27,3.52-6.89-20.33-20.6-14.7-25.77C243.24,65.48,217,81.37,208,116c-2.32,9,6.81,17.67,20.27,30.07a69.81,69.81,0,0,1,10,10.88c-1.35-6.3,15.77-3.91,14.43-10.21C250.08,134.15,254.61,123.17,257.25,110.56Z"/><path class="cls-20" d="M302.32,89s1.32-8.45,17.69-3.7,126.7,42.24,126.7,42.24"/><path class="cls-21" d="M446.71,132.55s-20.27-6.18-19-11.43,20.66,1.74,20.66,1.74Z"/><path class="cls-22" d="M443.82,118c2.79,1.29,6.38,8.49,3.56,18.35-3.69,12.9-8.38,17.33-14.85,17.54-5.92.2-10.1-4.46-13.18-11.92-3.78-9.12-6.22-20,5.94-23C436.38,116.27,440.14,116.27,443.82,118Z"/><path class="cls-20" d="M443.82,118c2.79,1.29,6.38,8.49,3.56,18.35-3.69,12.9-8.38,17.33-14.85,17.54-5.92.2-10.1-4.46-13.18-11.92-3.78-9.12-6.22-20,5.94-23C436.38,116.27,440.14,116.27,443.82,118Z"/><path class="cls-23" d="M348.52,232.94c-24.58-2.84-39.06-18.25-57.9-34.28-14.47-12.29-30.39-41.18-36.53-59.09-1.65,6.58-5.52,39.22-5.17,46,5.26,14,14.75,33.58,30.41,44.23,22.09,15,36.09,29.55,74.63,27.83,23.45-1.05,28.26-9.67,28.84-18.4C374.52,236.37,359.32,234.2,348.52,232.94Z"/><path class="cls-9" d="M355.25,207.41A115.48,115.48,0,0,1,308,195.83c-7.32-3.57-14.32-8-20-13.83a40.3,40.3,0,0,1-11.11-21.55c8.27,16.05,22.87,26.31,38.91,32.14,8,2.91,16.25,6.3,24.67,7.65s23.44.63,31.89-.27c27.94-2.95,51.89-15.37,69.7-37-.36-.7-.84-9.36-1.43-10a41,41,0,0,0-3-2.88c-18.19.13-39.41,6-61.71,8-32.47,2.91-54.55-1-84.65-13.52-4.66-2-13.73-8.7-18.75-9.18s-23.64-11.53-27.17-7.92c-2.62,2.69,6.46,34,5.53,37.68a2.46,2.46,0,0,1-.07.29,107,107,0,0,0,31.89,46.37c18.85,16,42.82,25.59,67.4,28.44a106.53,106.53,0,0,0,32.67-1c.37-5.61-1-11.27-.31-15,1.5-8,3.1-15,6.11-19.28l-2.44.32C375.9,206.58,365.58,207.69,355.25,207.41Z"/><path class="cls-23" d="M390.39,202.92c4.22-3.78,17.17-2.06,33.79-18,15-14.35,21.31-23.47,17.93-30-17.81,21.65-44.1,36.44-72.05,39.39a96.88,96.88,0,0,1-25.4-.56A135.12,135.12,0,0,1,320.05,187c-16.05-5.83-32.11-13.47-43.11-26.52A40.3,40.3,0,0,0,288.05,182c5.67,5.86,12.67,10.26,20,13.83a115.48,115.48,0,0,0,47.21,11.58c10.33.28,20.65-.83,30.91-2.12l2.44-.32A12,12,0,0,1,390.39,202.92Z"/><path class="cls-3" d="M250.84,165.39a95.62,95.62,0,0,1-4.11-16.72,95.62,95.62,0,0,0,4.11,16.72,2.46,2.46,0,0,0,.07-.29c.93-3.64,2.24-7.34,4.86-10,3.53-3.61,9-4.82,14-4.35s9.77,2.43,14.43,4.37c30.09,12.56,61.54,25.93,94,23,22.3-2,43.48-12.4,59.46-28-9.78-8.65-34.05-26.44-37.48-30.41-3.88-4.5-13.06-17.4-17.3-22.08s-22.82-23.89-39.2-31.29-48.16-22.87-86.25-7.57c0,0-1.53.56-4.06,1.8-5.63,5.17-10,12-13.47,18.94a82.16,82.16,0,0,0-7.65,20.31c-2.65,12.61-.86,25.72,1.83,38.31,1.34,6.31,2.91,12.58,4.26,18.88,3.63,5.19,4.19,9,6.09,15.24.87,2.83,2.32,7.63,4.49,13.36A68.83,68.83,0,0,1,250.84,165.39Z"/><path class="cls-21" d="M300.85,194.59l2.72,9.23c.62,2.08,1.14,5.82,4.08,5.66,2.21-.12,4.43-2.12,6.11-3.39s3.81-3,6.17-3.2l-1.38-1.39a67,67,0,0,0,4,19.43,1.41,1.41,0,0,0,2.32.61l16.62-15-2.18-.29c3.18,7.15,3.1,15.24,6,22.48a1.41,1.41,0,0,0,2.54.33l10.33-19.94h-2.4c3.52,7.1,7.35,14,11.15,21a1.4,1.4,0,0,0,1.9.5c1.54-1.16,2-2.82,2.63-4.56.8-2.13,1.65-4.23,2.58-6.31a119.18,119.18,0,0,1,6-11.74,1.39,1.39,0,0,0-2.39-1.4A117,117,0,0,0,372,217.51c-.81,1.8-1.59,3.61-2.32,5.45-.37.93-.73,1.87-1.07,2.81-.28.76-.52,1.95-1.2,2.46l1.9.5c-3.81-6.95-7.64-13.89-11.15-21a1.4,1.4,0,0,0-2.4,0l-10.33,19.94L348,228c-3-7.47-3-15.75-6.3-23.14a1.4,1.4,0,0,0-2.17-.28l-16.62,15,2.32.61a64.33,64.33,0,0,1-3.88-18.69,1.41,1.41,0,0,0-1.39-1.39c-4.29.43-7,3.57-10.54,5.69a8.65,8.65,0,0,1-1.27.69c-.63.25-.76.14-1-.48-.48-1.25-.77-2.6-1.15-3.88l-2.44-8.27c-.51-1.71-3.19-1-2.68.73Z"/><path class="cls-4" d="M206.91,121.25c4.55-26,24.54-52.12,52.52-63.37s64.69-5.67,94.72,14.81,34.48,34.05,44.91,45.77,39.81,26.24,43.5,38.21-35,58.22-97.76,49.68-68.3-44.71-68.3-44.71"/><path class="cls-4" d="M390.39,202.92s-7.27,7.86-8,22.89,3.23,32.55-30.81,31.78-65-16.91-82.31-38.29S246.34,182,242.39,163.64"/><path class="cls-11" d="M275.23,163.44c5.58,15.89,14.42,30.73,26.47,42.57a87.19,87.19,0,0,0,45.22,23.87,75.75,75.75,0,0,0,29.4-.34c1.75-.38,1-3-.73-2.68-16.66,3.58-34.3.72-49.5-6.78-14.78-7.29-27-18.94-36-32.67a114.54,114.54,0,0,1-12.14-24.71c-.59-1.67-3.27-.95-2.68.74Z"/><path class="cls-11" d="M381.67,204.94a51,51,0,0,0-6,22.34c-.06,1.78,2.72,1.78,2.78,0a47.69,47.69,0,0,1,5.58-20.94c.84-1.57-1.55-3-2.4-1.4Z"/><path class="cls-11" d="M284.39,160.84c-1.75-.6-3.13-2-4.95-2.45A5.77,5.77,0,0,0,274,160a13.66,13.66,0,0,0-3.12,5.31,21.43,21.43,0,0,0-1.2,6.86,1.39,1.39,0,0,0,2.77,0,18.53,18.53,0,0,1,1-5.67,11.1,11.1,0,0,1,2.42-4.41,3,3,0,0,1,3.43-.89c1.55.61,2.82,1.74,4.42,2.28s2.42-2.11.73-2.67Z"/><path class="cls-24" d="M288.67,129.24a23.52,23.52,0,0,0-.36,4.07c0,10.72,7.28,19.4,16.26,19.4,6.71,0,12.48-4.85,15-11.78C328,124.14,301,95,288.67,129.24Z"/><ellipse class="cls-21" cx="302.32" cy="133.86" rx="3.62" ry="5.1"/><ellipse class="cls-24" cx="300.82" cy="129.66" rx="1.5" ry="1.7"/><path class="cls-25" d="M305.7,152.88s10.69-1,13.66-13.23l-31.05-1.73S290.62,152.71,305.7,152.88Z"/><path class="cls-25" d="M303.41,113.32s-11.71,1.5-15.1,14.61l32.84,2.12S317.36,113.14,303.41,113.32Z"/><path class="cls-4" d="M290.62,143.27a22.1,22.1,0,0,1-2.31-10,22.42,22.42,0,0,1,1.08-6.94"/><path class="cls-4" d="M293.28,119.35a15,15,0,0,1,11.29-5.44c9,0,16.26,8.69,16.26,19.4,0,7.18-3.27,13.45-8.13,16.81"/><line class="cls-4" x1="289.15" y1="127.17" x2="320.7" y2="130.88"/><line class="cls-4" x1="318.61" y1="140.35" x2="290.04" y2="136.98"/><path class="cls-26" d="M355.55,135.2c-4.31,2.65-13,7.39-12.7,23.23S349,181.92,359,182.71s21.1-.72,32.47-19.8c7.66-12.84,19.26-39.26,0-36.88S361.22,131.71,355.55,135.2Z"/><path class="cls-20" d="M198.45,113.35s1.32-8.45,17.69-3.69,126.71,42.23,126.71,42.23"/><path class="cls-20" d="M355.55,135.2c-4.31,2.65-13,7.39-12.7,23.23S349,181.92,359,182.71s21.1-.72,32.47-19.8c7.66-12.84,19.26-39.26,0-36.88S361.22,131.71,355.55,135.2Z"/><path class="cls-21" d="M342.85,156.9s-20.28-6.18-19-11.44,20.66,1.74,20.66,1.74Z"/><path class="cls-21" d="M400.83,128.84c2.35-2.12,4.69-3.83,8-3.93a12.56,12.56,0,0,1,4.88.59c.13,0,.89.47,1,.55s.59.55.84.81c1.24,1.29,3.2-.67,2-2-2.29-2.4-5.46-2.87-8.68-2.77a12.91,12.91,0,0,0-6,1.64,23.36,23.36,0,0,0-4,3.11c-1.33,1.19.64,3.15,2,2Z"/><path class="cls-21" d="M403,138.9a17.6,17.6,0,0,1,13.54-4.67,1.39,1.39,0,0,0,1.39-1.38,1.41,1.41,0,0,0-1.39-1.39,20.31,20.31,0,0,0-15.5,5.47c-1.3,1.23.66,3.19,2,2Z"/><path class="cls-11" d="M406.88,169a8.63,8.63,0,0,0,2.34,3.32,5.31,5.31,0,0,0,3.56,1.58,2.39,2.39,0,0,0,2-1.17,2.88,2.88,0,0,0-.24-2.82,8.63,8.63,0,0,0-6.75-4.34,1.4,1.4,0,0,0-1.38,1.39,4.94,4.94,0,0,0,2.8,4.46,1.59,1.59,0,0,0,1.07.14,1.39,1.39,0,0,0,.34-2.54,3.17,3.17,0,0,1-.45-.23l-.18-.12c-.14-.09.23.21.05,0s-.25-.23-.36-.35-.19-.24,0-.06,0-.05-.06-.1a3.18,3.18,0,0,1-.23-.4c-.12-.23.09.29,0,0l-.07-.19c0-.15-.06-.31-.11-.45.1.34,0,.17,0,0a2.09,2.09,0,0,1,0-.25l-1.39,1.39.18,0c-.24,0-.25,0-.12,0l.34.07a5.71,5.71,0,0,1,.71.19l.32.11c.33.12-.24-.11.07,0s.44.21.65.33.4.24.59.38l.13.1-.07-.06a3.47,3.47,0,0,1,.29.25,5.67,5.67,0,0,1,.5.48l.2.23.11.13c.19.24-.18-.26,0,0s.26.37.38.57a3,3,0,0,1,.16.31s.06.15.09.17-.08-.23,0,0c0,.06.08.26,0,.06s0-.07,0,0a.65.65,0,0,1,.1-.36c-.11.18.1-.12.11-.12l-.09.08c.13-.18.26-.18.13-.11.37-.19.26-.09.16-.07s-.2,0,.11,0a2.44,2.44,0,0,0-.27,0l-.15,0s.37.08.16,0l-.25-.06-.14-.05c-.16,0,.3.15.1,0s-.41-.21-.6-.34l-.3-.2-.14-.1.1.08-.1-.08a6.19,6.19,0,0,1-.59-.55,3.85,3.85,0,0,1-.27-.3l-.12-.13c-.13-.16,0-.08,0,0-.13-.23-.31-.43-.45-.66a3.72,3.72,0,0,1-.21-.39c-.05-.09-.25-.55-.09-.16a1.47,1.47,0,0,0-.64-.83,1.38,1.38,0,0,0-2,1.57Z"/><path class="cls-27" d="M288.19,101.4c3.1,2.86,3,.63,9.71-2s12.73-1.63,17.7,2.17,8.17-2.46,7.65-7-8.43-15.39-22.56-7.81S286.51,99.84,288.19,101.4Z"/><path class="cls-20" d="M288.19,101.4c3.1,2.86,3,.63,9.71-2s12.73-1.63,17.7,2.17,8.17-2.46,7.65-7-8.43-15.39-22.56-7.81S286.51,99.84,288.19,101.4Z"/></g></svg>