<svg xmlns="http://www.w3.org/2000/svg" xmlns:xlink="http://www.w3.org/1999/xlink" viewBox="0 0 600 600"><defs><style>.cls-1{fill:#ffabfd;}.cls-2{fill:#fffffe;}.cls-3{fill:#7fdadd;}.cls-4{fill:#f1f3f3;}.cls-13,.cls-14,.cls-16,.cls-20,.cls-21,.cls-22,.cls-24,.cls-27,.cls-5,.cls-9{fill:none;}.cls-5{stroke:#b5bbc0;}.cls-13,.cls-16,.cls-20,.cls-21,.cls-22,.cls-27,.cls-5,.cls-9{stroke-linecap:round;stroke-linejoin:round;}.cls-13,.cls-20,.cls-21,.cls-27,.cls-5{stroke-width:2.77px;}.cls-6{fill:#606060;}.cls-7{fill:#282828;}.cls-8{fill:#d7dfe8;}.cls-20,.cls-9{stroke:#1b5186;}.cls-22,.cls-9{stroke-width:3.33px;}.cls-10{fill:#dedbe1;}.cls-11{fill:#0080ca;}.cls-12{fill:#1b5186;}.cls-13{stroke:#030304;}.cls-14{stroke:#6fb7d6;stroke-width:0.56px;}.cls-14,.cls-24{stroke-miterlimit:10;}.cls-15{fill:#007fcc;}.cls-16,.cls-21,.cls-22,.cls-24{stroke:#1d1d1b;}.cls-16,.cls-24{stroke-width:2.22px;}.cls-17{fill:#f2f3f2;}.cls-18{fill:#1d1d1b;}.cls-19{fill:#6fb7d6;}.cls-23{fill:url(#Degradado_sin_nombre_4);}.cls-25{fill:url(#Degradado_sin_nombre_4-2);}.cls-26{fill:#fbb03b;}.cls-27{stroke:#8e6a2b;}.cls-28{fill:#3c3c3b;}</style><linearGradient id="Degradado_sin_nombre_4" x1="8290.43" y1="160.34" x2="8290.43" y2="129.27" gradientTransform="matrix(-1, 0, 0, 1, 8506.83, 0)" gradientUnits="userSpaceOnUse"><stop offset="0" stop-color="#452b76"/><stop offset="1" stop-color="#872c91"/></linearGradient><linearGradient id="Degradado_sin_nombre_4-2" x1="285.49" y1="165.17" x2="285.49" y2="130.89" gradientTransform="matrix(1, 0, 0, 1, 0, 0)" xlink:href="#Degradado_sin_nombre_4"/></defs><g id="Capa_3" data-name="Capa 3"><g id="a"><rect class="cls-1" width="600" height="600"/></g><path class="cls-2" d="M231.61,495.82l2-25.4S253,483.36,285.9,483.36s53.28-14.76,53.28-14.76v26.79s11.31,6.16,22.05,5.3,19.63-2.29,19.63-2.29l-3.58,101.16h-179l-5.95-100.88s5.44,2.58,19.62,1.72S231.61,495.82,231.61,495.82Z"/></g><g id="Capa_2" data-name="Capa 2"><path class="cls-3" d="M201.29,212s29.13,79.69,74.09,83.74,92-57.69,95.12-65.8S368,202.31,368,202.31s-5.13-62-10.84-99.07c-4.43-28.83-17.47-51.7-65.32-52.67s-62,32.31-63.72,38.09S203.6,204.63,201.29,212Z"/><path class="cls-4" d="M219.35,173.43l15,67.7s18.45,13.44,27.68,26.36,20.56,44,28.46,43.22S332,256.59,332,256.59l13.19-89.68s-28.94,48.66-59.9,50.57C238.29,220.38,231,192.67,219.35,173.43Z"/><path class="cls-5" d="M231.61,495.82l2-25.4S253,483.36,285.9,483.36s53.28-14.76,53.28-14.76v26.79s11.31,6.16,22.05,5.3,19.63-2.29,19.63-2.29l-3.58,101.16h-179l-5.95-100.88s5.44,2.58,19.62,1.72S231.61,495.82,231.61,495.82Z"/><path class="cls-6" d="M234.23,470.22s14.82,13.69,49.22,13.69,54.31-13.47,54.31-13.47l-1.7-67.66-48.2-6.11-50.35,19.57Z"/><path class="cls-2" d="M237.51,416.24s-2.37,30.78-2.83,38.14-3.39,42.09-3.39,42.09-9.51,5.54-25,4.41-24.44-4.75-24.44-4.75-7.58-30.33-8.94-40.85a134.4,134.4,0,0,1-1-19.69s1.81,2.72,7.8,2.27S237.51,416.24,237.51,416.24Z"/><path class="cls-2" d="M318.51,386.54s-6.09-19.42-5.53-35.86S316.53,327,316.53,327s-36.71,8.22-42.95,11.2S241,352.1,234,357.62,227.38,371,225,373.78s-5.11,3.55-5.82,2.41-2-10.49-2-10.49l1-8.36s-5.38,11.48-11,14-5.67.57-6.1-1.13.57-6.66.57-6.66-4.68,5.81-8.08,3,1.7-11.48,3-14,5-10.77,5-10.77-6.95,1.56-8.08.57,4.39-7.66,4.39-7.66l2.7-2.12s25.08-12.62,32-13.33,4.68-.42,4.68-.42l-11.77-62.51s-17.72-18.14-21-23.81-.7-18.71-.7-18.71l-.57-12.19s-9.92,8.36-12.47,12.47a25.38,25.38,0,0,0-3.26,8.08l-46.64,37.56s-16.3-1.13-24.09,21.69S122.63,343,135.81,378s32.46,55.28,37.14,58.26,11.76,1.27,14.46.56S284.5,395.61,318.51,386.54Z"/><path class="cls-2" d="M340.62,315.53l12.48-61.37s13.74-12.9,17.15-21.69,1.18-19.17,1.18-19.17l-2-13.31s10.85,7,13.26,10.65,5.53,12.48,5.53,12.48l30.19,19.7a24.37,24.37,0,0,1,24.23,5.1C454.3,258.12,458.12,278,451,313s-23,94.11-23.82,96.09a16.53,16.53,0,0,1-3.26,4.26s-16.15-.43-18.56-.71l-2.41-.29s-2.84,32.32-5.39,44.65-8.36,39.12-8.36,39.12a102.29,102.29,0,0,1-20.41,4.54c-10.21,1-29.34-4-29.34-4l-3.69-93.12-50.31-6.81L318,386.82s-3.83-27.35-4.4-33.31a149.49,149.49,0,0,1-.28-15l.85-1.28,53.29,13.19L372.8,329s-7.37-10.77-16.59-13.6S340.62,315.53,340.62,315.53Z"/><path class="cls-6" d="M281.49,283.28s-6.68-16.89-32.07-30.62-46.07-39.29-46.07-39.29-.27,13.27,2.26,19.69,20.24,25.11,20.24,25.11l7.49,35.77,3,24.66a236.1,236.1,0,0,1,23.31,8,205.89,205.89,0,0,1,20,10.39l7.32-1.27,31.89-10.11s10.2-7.5,13.37-8.58a92.43,92.43,0,0,1,9-2.26L352,254.56s15.17-15.36,17.79-22.95A40.89,40.89,0,0,0,372,217.52s-54.83,40.11-64.95,49.41-20.77,38.57-20.77,38.57Z"/><path class="cls-7" d="M235.44,437.05s18.05-10.37,50.16-10.37,51.28,13.14,51.28,13.14l-1.08-36.27-46.68-6.95-52.84,21.19Z"/><path class="cls-7" d="M226.51,259.83l7.33,38.27s-1.24-12.67,21.87-13.54,29.57,16,29.57,16-2-13.54-2.61-14.78-8.82-11.68-22.11-17.4-18.89,4.35-19.26,5.35-2.24,4.47-2.24,4.47S235.33,266.17,226.51,259.83Z"/><path class="cls-7" d="M286.28,302.45s-1.49-15.28,18.14-27.71,24.85-7.46,27.21-5.22,4.35,8.82,4.35,8.82l15.41-22.49L344.18,290s-3.11-5.84-21.87-7.2S286.28,302.45,286.28,302.45Z"/><path class="cls-8" d="M218,291.15a269.19,269.19,0,0,0-17.76-25.21s-7.31-27.07-5-40.25,8.88-14.32,8.88-14.32L204,200.06s-15,11.17-19.05,30.65,9.65,49.48,9.65,49.48l15.85,14.68s-2.87,14.47-4.73,22.92-2.86,12.6-2.86,12.6l9.16-3.87s1.72-11.74,3.3-16,9.45,0,9.45,0S225.31,303.32,218,291.15Z"/><path class="cls-8" d="M151.2,261.76s-15.12,6.68-18.07,28.67,37.11,106.6,45,118.19,44,1,72.84-9.62,66.95-17.87,66.95-17.87l.39,4.71S279,398,249,411.17s-64.59,29.06-72.25,25.92-26.51-20.82-42.8-65.58-23.76-76.76-15.12-95.61S151.2,261.76,151.2,261.76Z"/><path class="cls-8" d="M194.78,279.83c-.47-.7-11.21-20.32-10.86-35.38s1.29-20.08,1.29-20.08l-44.83,35.49s5.6.7,8.4.94a14.59,14.59,0,0,1,4.56,1.05s8.4-5.84,14.59-9.46,16,18.45,18.21,29.3l14.48,49.85,2.21-1.15s5.84-27.68,6-30.25.46-6.54.46-6.54S195.25,280.53,194.78,279.83Z"/><path class="cls-8" d="M358.5,291.15a267.12,267.12,0,0,1,17.76-25.21s7.3-27.07,5-40.25-8.88-14.32-8.88-14.32L370,200s17.53,11.2,21.54,30.68-9.64,49.48-9.64,49.48L369.76,292s-.81,17.31,1.05,25.76,2.87,12.6,2.87,12.6l-9.17-3.87s-1.72-11.74-3.29-16-9.45,0-9.45,0S351.19,303.32,358.5,291.15Z"/><path class="cls-8" d="M389.72,223.11l26.86,19.49a69.16,69.16,0,0,0-23.79,29.63c-8.14,19.65-20.27,55.11-20.27,55.11l-6-7.37-2.31-24.56L383,279.29s9.37-17,10-34.54S389.72,223.11,389.72,223.11Z"/><path class="cls-5" d="M369.34,200s16.65,5.83,21.53,30.68-11.05,55.44-11.05,55.44-20.33,5.21-28.76,24.33"/><path class="cls-8" d="M193.54,433.34c-14,5-17.52,5.4-20.69,1.86v13.05s38.4,6.89,61.88-10.07l1.65-21.74S207.52,428.3,193.54,433.34Z"/><path class="cls-8" d="M193.79,515.62s26.24,4.75,44-3.71l2.67-15s32,8,86.89.15l1.49,13.64S351.7,518,380,511l.45-11.71s-5,2.22-20,.89-21.5-5-21.5-5l-.74-24.76S318,483.3,287.5,483.3a116.12,116.12,0,0,1-54-13.94l-2.23,27.11s-12,3.43-21.34,3.58a166.47,166.47,0,0,1-16.91-.59Z"/><path class="cls-8" d="M336.06,402.78l1,19.19s21.62,14.91,63.93,7.27l2-16.91Z"/><path class="cls-8" d="M312.64,388.6s93.57,11.75,96.74,12.31,18.45-46.41,30.56-91.71-2.42-75.67-30-61.5c0,0,5.6-10.26,25-5.41s19,33.36,17,60.39-25.72,108.85-27,110-7.83,1.67-20.69-.38-116.3-15.6-116.3-15.6Z"/><path class="cls-9" d="M224.05,106.42l6.37-23.54s12.4-37.32,66-32.5c50,4.5,60.92,30.57,62.66,66.65s11.38,101.1,11.38,101.1"/><path class="cls-10" d="M244.58,249.11l-4.31-43.82a59.91,59.91,0,0,0,38.55,13.21c29.27-.58,54.2-29.81,54.2-29.81l-8.83,66s-25.69,20.42-28.05,23.85-9,21.27-9,21.27a151,151,0,0,0-12-26.21c-8.16-14.18-30.5-24.49-30.5-24.49"/><path class="cls-4" d="M214.12,155.41s4.65-8.68,9.14-12.64,13.87-3.39,20.07,1.09,11.87,4,23.58,0,35.65,15.4,59.76-.82S355,155.09,341,175s-35.32,46.65-72.91,43.16S214.92,172.59,214.12,155.41Z"/><path class="cls-3" d="M368.11,350.19h-3.22l-50.17-12.67s-1.82-12.57,11.5-17.3,23.52-6.44,34.26-2.58a17.32,17.32,0,0,1,11.71,13.65Z"/><path class="cls-11" d="M315.26,332.9s27.61-12.89,55.32.86L368,349.23l-7.84-.22-46-11.8Z"/><path class="cls-5" d="M200.47,336s6.76-15.2,9.46-41.51"/><path class="cls-5" d="M201.46,334.3s-7.87-29-12.55-44.51S173.17,266.91,167,266.18"/><line class="cls-5" x1="138.62" y1="260.37" x2="187.25" y2="221.74"/><path class="cls-12" d="M207,201l14.33,14S208.84,213,207,201Z"/><path class="cls-12" d="M208.93,190.43l14.33,14S210.82,202.39,208.93,190.43Z"/><path class="cls-12" d="M210.79,179.36l14.33,14S212.68,191.32,210.79,179.36Z"/><path class="cls-12" d="M365.77,201l-14.33,14S363.88,213,365.77,201Z"/><path class="cls-12" d="M363.79,190.43l-14.33,14S361.9,202.39,363.79,190.43Z"/><path class="cls-12" d="M361.93,179.36l-14.33,14S360,191.32,361.93,179.36Z"/><path class="cls-13" d="M236.26,318.72s-4.54-33.36-10.69-60.65"/><path class="cls-13" d="M341,315.71s4.53-31.83,10.68-59.12"/><line class="cls-5" x1="390.37" y1="224.28" x2="418.06" y2="242.02"/><path class="cls-5" d="M402.71,256.86s8.14-19.5,28.38-14.81,27.14,24.92,19.74,70.33-25.42,100.2-25.42,100.2.25,1.72-9.62,1c-6.2-.46-127.59-16.78-127.59-16.78"/><path class="cls-9" d="M316.76,327.48s9.45-11.28,29-12.34S372.19,329,372.19,329"/><line class="cls-5" x1="314.47" y1="338" x2="368.74" y2="350.66"/><path class="cls-5" d="M367.14,351.05s8.91-4.12,31.86-.42"/><path class="cls-5" d="M367.42,351.13s9.13-47.14,28.13-84.9"/><path class="cls-13" d="M233.58,470.42s43.61,30.17,103.94,0"/><line class="cls-13" x1="286.08" y1="483.37" x2="286.08" y2="397.28"/><path class="cls-5" d="M171.7,435.13s1,36.64,9.83,60.75c0,0,22.14,10.33,50.17.49l4.68-79.93"/><path class="cls-5" d="M402.26,413.44s-4.48,58.33-13.34,82.44c0,0-22.13,10.33-50.17.49l-3.08-93"/><line class="cls-5" x1="210.02" y1="466.38" x2="218.93" y2="461.64"/><line class="cls-13" x1="324.53" y1="446.32" x2="332.33" y2="441.03"/><line class="cls-13" x1="325.64" y1="437.4" x2="330.94" y2="431.55"/><line class="cls-5" x1="192.47" y1="499.26" x2="197.86" y2="598.79"/><line class="cls-5" x1="282.46" y1="500.93" x2="282.46" y2="558.6"/><path class="cls-5" d="M293.32,500.09v47.57s-4.7,7.42-8.93,10.2-4.09,41.7-4.09,41.7"/><line class="cls-5" x1="380.53" y1="498.98" x2="377.74" y2="598.44"/><path class="cls-13" d="M203.25,213.22s10.51,16.18,32.53,30.36,46.54,23.72,50.38,59.24V334"/><path class="cls-5" d="M224.74,310.48C216.31,291.36,196,286.15,196,286.15s-15.94-30.6-11.06-55.44S204,200.06,204,200.06"/><path class="cls-13" d="M286.33,304s4-26,33.2-46a591.91,591.91,0,0,0,52.55-40.83"/><path class="cls-13" d="M203.18,213.3s-6.15,13.28,11.06,31.23,25.33,33.94,25.33,33.94,1-8.6,8.61-11.31,22.77,6.34,30.64,14.46"/><path class="cls-13" d="M372.51,216.46s3.12,12.46-11.28,28.07c-16.86,18.29-25.33,33.94-25.33,33.94s-1-8.6-8.61-11.31-21.25,5-29.12,13.12"/><path class="cls-5" d="M157.4,263.52a27.7,27.7,0,0,0-29.86,1.73c-25.82,18.32-7.24,74,8.5,112.33s33.94,59.27,41.07,60.26,33.69-10.33,60.5-21.89,62.95-25.19,80.66-29.13c0,0-9.67-35.23-1.94-60.37,0,0-30.27,5.88-67.41,22.11"/><path class="cls-14" d="M202.63,361.82a15.91,15.91,0,0,0,1-2S203.19,360.63,202.63,361.82Z"/><path class="cls-15" d="M224,327.48c0-3.47-13.34,1.63-18.69,4.9-4.43,2.71-10.46,5.87-12,9.73.54.66,2.32.61,6.6-.64a45.42,45.42,0,0,1,8.38-5.68C213.53,333.05,219.4,331.28,224,327.48Z"/><path class="cls-3" d="M233,358.25c7.54-6.06,17.38-12,25.83-16.71,4.61-2.56,11-4.86,14.47-8.83-10.74-5.68-33.84-16.65-43.22-13-13.89,5.35-34.6,12.76-35.57,17.08-.51,2.28-2,4.47-1.25,5.36q6.73-3.9,13.39-8c5.35-3.27,11-6.74,17.31-6.67-4.57,3.8-10.44,5.57-15.72,8.31a45.42,45.42,0,0,0-8.38,5.68c.85-.25,1.8-.54,2.86-.88a66.44,66.44,0,0,0-8.33,15.84c-1.46,4.32-2.45,7.15-2.38,8.83.48-.49,3.19,2.52,3.6,2,2.27-2.91,3.93-6,6-9.1,6.66-10.12,15.82-19.52,26.81-24.61-3.19,4.41-9.27,5.47-13.66,8.69-4.16,3-6.58,7.88-8.67,12.6q-2.91,6.63-5.33,13.47c-.13.36-.26.73-.38,1.11,0,1.92.73,3.4,3.06,3.52a4.44,4.44,0,0,0,1.08-.08c.72-1.21,4.94-3.75,5.43-5.05,1.31-3.5,3.66-4.95,5.46-8.21,2.46-4.47,4.42-7.1,8.54-10.11,3.52-2.58,6.23-5.37,9.89-7.74,2.58-1.68,2.1-3.26,4.44-1.27-1.93,1.36-2.07,1.13-4.05,2.41a46.13,46.13,0,0,0-16,18.08c-.9,4-1.83,9.69-.83,13,.2-.7,3.13,2.63,3.34,1.94C222.88,368.53,227,363.09,233,358.25Z"/><path class="cls-11" d="M276.89,334.78s-3.47-2.16-8.64-4.89A45.69,45.69,0,0,1,256,339.8c-8.45,4.7-18.4,6.72-25.93,12.78-6,4.84-10,11.91-12.15,19.32-.21.69-.4,1.39-.6,2.09.6,2,1.88,3.14,4.25,2.61,9-2-.45-11.18,13.78-20s17.63-11.11,25.34-14.23S277.56,337.42,276.89,334.78Z"/><path class="cls-15" d="M206.06,354.83c2.09-4.72,4.51-9.55,8.67-12.6,4.39-3.22,10.47-4.28,13.66-8.69-11,5.09-22.56,10.65-29.22,20.77-2,3.08-3.54,6.51-5.81,9.42a17.46,17.46,0,0,1-1.34,1.53c.07,1.59,1.1,2.16,3.6,2,3.36-.23,5.75-3.32,7-5.43.56-1.19,1-2,1-2a15.91,15.91,0,0,1-1,2c-1,2-2.25,5.15-2.28,7.59.12-.38.25-.75.38-1.11Q203.15,361.46,206.06,354.83Z"/><path class="cls-15" d="M240.18,339.12c-2.35-2-5.91-.41-8.5,1.27q-5.49,3.57-10.78,7.43c-4.12,3-8.26,6.28-10.72,10.75-1.8,3.27-2.59,7-3.9,10.47a23.17,23.17,0,0,1-1.79,3.81c6.82-1.24,14.85-16.42,14.85-16.42s-.57,1.9-1.16,4.53a46.13,46.13,0,0,1,16-18.08C236.18,341.6,238.25,340.47,240.18,339.12Z"/><path class="cls-12" d="M277.59,333.58c-7.27-3.37-14.47-6.87-21.76-10.21-7.53-3.46-16.06-6.26-24.48-5.27-3.66.43-6.8,1.94-10.16,3.35-3.2,1.34-6.41,2.64-9.59,4-6.09,2.67-12.46,5.66-17.26,10.38-1.19,1.18-2,2.11-2.13,3.83-.09,1.5-.12,2.95,1.35,3.8,2.82,1.6,7.51.09,9.87-1.71,1.4-1.07,0-3.48-1.4-2.4a10.68,10.68,0,0,1-3.87,1.7,7.07,7.07,0,0,1-1.83.24,4.42,4.42,0,0,1-.81-.06c-.16,0-.69-.24-.63-.16A6.79,6.79,0,0,0,195,340a1.41,1.41,0,0,1,.48-1.26,24.67,24.67,0,0,1,2.9-2.7c4.79-3.84,10.6-6.42,16.2-8.82,2.77-1.19,5.56-2.31,8.34-3.49,3.06-1.29,6-2.65,9.31-2.93,7.6-.64,15.2,1.76,22,4.88,7.36,3.36,14.63,6.91,22,10.31,1.61.74,3-1.65,1.4-2.4Z"/><path class="cls-12" d="M222.84,327.45c-4.11,2.33-8.47,4.2-12.66,6.39a41.09,41.09,0,0,0-6.52,4,18.54,18.54,0,0,0-4.89,6.22c-2.79,5.35-5.3,10.88-7.69,16.41-1,2.19-1.65,4.77.27,6.67a5.85,5.85,0,0,0,5.5,1.29c2-.54,3.51-2.26,4.77-3.85a33.68,33.68,0,0,0,3.67-5.49c.81-1.58-1.58-3-2.4-1.4a29.18,29.18,0,0,1-2.53,4,15.17,15.17,0,0,1-3.25,3.62c-1.08.74-3.1.88-4-.3-.62-.85-.12-2,.23-2.9.52-1.27,1.1-2.52,1.66-3.77,2.12-4.69,4.18-9.51,6.72-14,2.32-4.08,6.23-6.28,10.28-8.37s8.24-3.91,12.2-6.15a1.39,1.39,0,0,0-1.4-2.4Z"/><path class="cls-12" d="M227.69,332.7a43.12,43.12,0,0,1-7.29,4.46,34.06,34.06,0,0,0-6.58,4.53,42.85,42.85,0,0,0-9,12.53c-1.19,2.33-2.25,4.72-3.28,7.12s-2.52,5.05-2.4,7.75a5.26,5.26,0,0,0,3.92,5.17c2.79.57,5.23-1.09,7-3.09a126.31,126.31,0,0,0,12-16.65c1-1.51-1.45-2.91-2.4-1.4a150.35,150.35,0,0,1-9.35,13.33c-1.42,1.79-3.14,4.66-5.58,5.1-2.68.48-3.14-2.36-2.59-4.33a49.63,49.63,0,0,1,2.78-6.81c.9-2,1.85-4,2.9-6a38.89,38.89,0,0,1,8-10.75c4.14-3.75,9.61-5.42,13.87-9,1.37-1.15-.6-3.1-2-2Z"/><path class="cls-12" d="M240.33,337.55q-6,4.2-12.09,8.4c-3.33,2.32-6.65,4.75-9,8.09s-3.37,7.75-3.51,12c-.07,2.23.05,4.45.2,6.67.12,1.77.29,3.74,1.85,4.86,3.35,2.41,7.42-1.13,9-4,2-3.57,2.06-8,4.41-11.36a18.74,18.74,0,0,1,4.73-4.28c1.83-1.29,3.7-2.54,5.59-3.74q5.77-3.68,11.89-6.81a142.55,142.55,0,0,1,14.24-6.34c2.38-.91,4.78-1.73,7.2-2.54,1.94-.64,3.78-1.81,3.4-4.1-.29-1.76-3-1-2.68.74.08.44-4.39,1.67-4.86,1.83q-2.87,1-5.69,2.13-5.7,2.26-11.2,5A128.87,128.87,0,0,0,233,356.62a16.86,16.86,0,0,0-6.26,8.63c-1,3.16-1.52,7.11-4.31,9.3a4,4,0,0,1-2.31.95c-1,0-1.25-.81-1.38-1.68a46.28,46.28,0,0,1-.29-5.65c-.07-3.83.26-7.81,2.17-11.21,2-3.63,5.49-6.16,8.83-8.5,4.08-2.85,8.17-5.67,12.26-8.51,1.46-1,.07-3.42-1.4-2.4Z"/><path class="cls-12" d="M247.53,338l4.3-1.83a1.38,1.38,0,0,0-.33-2.53l-.37-.05a1.32,1.32,0,0,0-.7.19l-4.3,1.83a1.34,1.34,0,0,0-.64.83,1.39,1.39,0,0,0,1,1.7l.37.05a1.34,1.34,0,0,0,.7-.19Z"/><path class="cls-12" d="M233.54,331l6.2-1.68a1.39,1.39,0,1,0-.74-2.67l-6.2,1.67a1.39,1.39,0,1,0,.74,2.68Z"/><line class="cls-16" x1="229.19" y1="170.92" x2="236.06" y2="167.38"/><path class="cls-4" d="M224.49,161.54S244.8,173.19,274,173.8s60.59-20.4,60.59-20.4l3.76-3.15s-22.59,42.2-64.09,44S224.49,161.54,224.49,161.54Z"/><path class="cls-9" d="M214.12,157.63s12.6,55.83,54,60.5,71.31-36.76,77.09-51.22"/><line class="cls-9" x1="202.25" y1="212.15" x2="219.79" y2="128.27"/><path class="cls-9" d="M245.3,157.63S238,148.35,237.57,139c-.39-8.6,11.05-14.29,22.1-20.22"/><path class="cls-17" d="M334.59,119a15.54,15.54,0,0,1,.26,2.84c0,7.5-5.09,13.57-11.37,13.57-4.69,0-8.72-3.4-10.46-8.24C307.08,115.4,326,95,334.59,119Z"/><ellipse class="cls-18" cx="324.42" cy="121.66" rx="3.68" ry="5.18"/><ellipse class="cls-17" cx="325.95" cy="117.39" rx="1.52" ry="1.73"/><path class="cls-19" d="M322.87,136.31a13.37,13.37,0,0,1-10.56-10.22l23-1.48S332.62,136.43,322.87,136.31Z"/><path class="cls-20" d="M333.24,128.78a15.58,15.58,0,0,0,1.61-7,16,16,0,0,0-.75-4.85"/><path class="cls-20" d="M331.37,112.05a10.45,10.45,0,0,0-7.89-3.8c-6.28,0-11.37,6.07-11.37,13.56a14.18,14.18,0,0,0,5.69,11.75"/><line class="cls-20" x1="334.27" y1="124.21" x2="313.32" y2="126.68"/><path class="cls-17" d="M235.07,116.64a16.6,16.6,0,0,1,.25,2.85c0,7.49-5.09,13.57-11.37,13.57-4.69,0-8.72-3.4-10.45-8.24C207.55,113.08,226.43,92.7,235.07,116.64Z"/><ellipse class="cls-18" cx="224.9" cy="119.34" rx="3.68" ry="5.18"/><ellipse class="cls-17" cx="226.42" cy="115.06" rx="1.52" ry="1.73"/><path class="cls-19" d="M223.34,134a13.38,13.38,0,0,1-10.55-10.22l23-1.48S233.09,134.11,223.34,134Z"/><path class="cls-20" d="M233.71,126.46a16,16,0,0,0,.86-11.82"/><path class="cls-20" d="M231.85,109.73a10.49,10.49,0,0,0-7.9-3.8c-6.27,0-11.36,6.07-11.36,13.56a14.19,14.19,0,0,0,5.68,11.75"/><line class="cls-20" x1="234.74" y1="121.89" x2="213.79" y2="124.36"/><path class="cls-16" d="M222,158.73c8.45,4.3,16.24,8.23,16.24,8.23s34.76,16,70.55.21c0,0,20.18-9.79,32.35-19.38"/><path class="cls-16" d="M222,158.73s10.28,32.68,50.94,35.45c37.2,2.53,68.2-46.39,68.2-46.39"/><polyline class="cls-16" points="236.68 167.28 242.17 182.55 251.66 171.75 262.14 192.79 272.58 174.25 283.51 193.17 293.18 172.27 305.31 184.61 310.14 167.9 319.16 174.13 324.53 158.73"/><path class="cls-16" d="M339.12,145.38s5,1.15,3.87,7"/><path class="cls-12" d="M263,143.42l-2.69,1.52a1.39,1.39,0,0,0-.5,1.9,1.37,1.37,0,0,0,.83.64,1.48,1.48,0,0,0,1.07-.14l2.69-1.52a1.39,1.39,0,0,0,.5-1.9,1.4,1.4,0,0,0-.83-.64,1.47,1.47,0,0,0-1.07.14Z"/><path class="cls-18" d="M305.71,136s10.06-1.22,10.43-5.94-9.45-2.73-9.45-2.73Z"/><line class="cls-21" x1="307.72" y1="130.03" x2="356.63" y2="122.67"/><path class="cls-22" d="M234.88,124s18.23-9.46,31.37,0"/><path class="cls-22" d="M234.88,132.62s17.94-13.94,31.37,0"/><path class="cls-23" d="M226.46,118.39c7,1.44,11.51,8.71,10.09,16.14a69.19,69.19,0,0,1-3.45,12.61c-3.79,9.21-22.87,9.07-29.27,3.49-5.29-4.61-7-15.91-7.82-24.18a6.19,6.19,0,0,1,4-6.53A50.7,50.7,0,0,1,226.46,118.39Z"/><path class="cls-24" d="M226.46,118.39c7,1.44,11.51,8.71,10.09,16.14a69.19,69.19,0,0,1-3.45,12.61c-3.79,9.21-22.87,9.07-29.27,3.49-5.29-4.61-7-15.91-7.82-24.18a6.19,6.19,0,0,1,4-6.53A50.7,50.7,0,0,1,226.46,118.39Z"/><path class="cls-25" d="M275.05,118.88c-7.24,1.59-11.95,9.61-10.48,17.8a79.65,79.65,0,0,0,3.58,13.93c3.94,10.16,23.73,10,30.38,3.85,5.49-5.1,7.28-17.56,8.11-26.69a6.89,6.89,0,0,0-4.15-7.21A49.73,49.73,0,0,0,275.05,118.88Z"/><path class="cls-24" d="M275.05,118.88c-7.24,1.59-11.95,9.61-10.48,17.8a79.65,79.65,0,0,0,3.58,13.93c3.94,10.16,23.73,10,30.38,3.85,5.49-5.1,7.28-17.56,8.11-26.69a6.89,6.89,0,0,0-4.15-7.21A49.73,49.73,0,0,0,275.05,118.88Z"/><path class="cls-26" d="M222,338.49s9.22.23,10.82,6.6L225,351s-7.48-7.33-10.74-6.85Z"/><path class="cls-27" d="M222,338.49s9.22.23,10.82,6.6L225,351s-7.48-7.33-10.74-6.85Z"/><path class="cls-28" d="M327.05,85c-3.52-.41-2.35,1.06-5.58,6.17s-7.81,7.42-13.06,7.31-4.31,5.72-1.68,8.57,13.34,6.23,19.15-5.91S329,85.22,327.05,85Z"/><path class="cls-21" d="M327.05,85c-3.52-.41-2.35,1.06-5.58,6.17s-7.81,7.42-13.06,7.31-4.31,5.72-1.68,8.57,13.34,6.23,19.15-5.91S329,85.22,327.05,85Z"/><path class="cls-28" d="M215.51,89.76c2.6-1.4,1.86.32,4.79,4.18s6.58,4.71,10.52,3.09,3.79,4.12,2.09,7.55-9.41,9.7-14.95,0S214.09,90.52,215.51,89.76Z"/><path class="cls-21" d="M215.51,89.76c2.6-1.4,1.86.32,4.79,4.18s6.58,4.71,10.52,3.09,3.79,4.12,2.09,7.55-9.41,9.7-14.95,0S214.09,90.52,215.51,89.76Z"/></g></svg>