<svg xmlns="http://www.w3.org/2000/svg" xmlns:xlink="http://www.w3.org/1999/xlink" viewBox="0 0 600 600"><defs><style>.cls-1{fill:#ffabfd;}.cls-2{fill:#3fcaef;}.cls-3{fill:#f1f3f3;}.cls-4{fill:#cabbff;}.cls-5{fill:#60e8bb;}.cls-6{fill:#50bc95;}.cls-7{fill:#9385d6;}.cls-8{fill:#125bb2;}.cls-10,.cls-15,.cls-18,.cls-19,.cls-20,.cls-21,.cls-23,.cls-9{fill:none;}.cls-9{stroke:#030304;}.cls-10,.cls-15,.cls-19,.cls-20,.cls-21,.cls-9{stroke-linecap:round;stroke-linejoin:round;}.cls-15,.cls-20,.cls-9{stroke-width:2.77px;}.cls-10,.cls-15{stroke:#1b5186;}.cls-10,.cls-21{stroke-width:3.33px;}.cls-11{fill:#dedbe1;}.cls-12{fill:#f2f3f2;}.cls-13{fill:#1d1d1b;}.cls-14{fill:#6fb7d6;}.cls-16{fill:#1b5186;}.cls-17{fill:#0080ca;}.cls-18{stroke:#6fb7d6;stroke-width:0.56px;}.cls-18,.cls-23{stroke-miterlimit:10;}.cls-19,.cls-20,.cls-21,.cls-23{stroke:#1d1d1b;}.cls-19,.cls-23{stroke-width:2.22px;}.cls-22{fill:url(#Degradado_sin_nombre_17);}.cls-24{fill:url(#Degradado_sin_nombre_17-2);}.cls-25{fill:#3c3c3b;}</style><linearGradient id="Degradado_sin_nombre_17" x1="4185.12" y1="160.34" x2="4185.12" y2="129.27" gradientTransform="matrix(-1, 0, 0, 1, 4413.28, 0)" gradientUnits="userSpaceOnUse"><stop offset="0" stop-color="#00e4ff"/><stop offset="1" stop-color="#1050dc"/></linearGradient><linearGradient id="Degradado_sin_nombre_17-2" x1="297.26" y1="165.17" x2="297.26" y2="130.89" gradientTransform="matrix(1, 0, 0, 1, 0, 0)" xlink:href="#Degradado_sin_nombre_17"/></defs><g id="Capa_3" data-name="Capa 3"><g id="a"><rect class="cls-1" width="600" height="600"/></g></g><g id="Capa_2" data-name="Capa 2"><path class="cls-2" d="M213.05,212s29.14,79.69,74.1,83.74,92-57.69,95.12-65.8-2.51-27.59-2.51-27.59-5.14-62-10.84-99.07c-4.43-28.83-17.47-51.7-65.32-52.67s-62,32.31-63.73,38.09S215.37,204.63,213.05,212Z"/><path class="cls-3" d="M231.12,173.43l15,67.7s18.45,13.44,27.68,26.36,20.56,44,28.46,43.22,41.54-54.12,41.54-54.12L357,166.91s-28.95,48.66-59.9,50.57C250.06,220.38,242.72,192.67,231.12,173.43Z"/><path class="cls-4" d="M243.38,495.82l2-25.4s19.38,12.94,52.33,12.94S351,468.6,351,468.6v26.79s11.31,6.16,22.05,5.3,19.62-2.29,19.62-2.29L389,599.56h-179l-5.94-100.88s5.44,2.58,19.62,1.72S243.38,495.82,243.38,495.82Z"/><path class="cls-5" d="M246,470.22s14.82,13.69,49.22,13.69,54.31-13.47,54.31-13.47l-1.7-67.66-48.2-6.11-50.35,19.57Z"/><path class="cls-4" d="M249.28,416.24s-2.38,30.78-2.83,38.14-3.39,42.09-3.39,42.09-9.51,5.54-25,4.41-24.44-4.75-24.44-4.75-7.58-30.33-8.94-40.85a133.64,133.64,0,0,1-1-19.69s1.81,2.72,7.81,2.27S249.28,416.24,249.28,416.24Z"/><path class="cls-4" d="M330.28,386.54s-6.09-19.42-5.53-35.86S328.3,327,328.3,327s-36.71,8.22-42.95,11.2-32.6,13.89-39.54,19.41-6.67,13.33-9.08,16.16-5.1,3.55-5.81,2.41-2-10.49-2-10.49l1-8.36s-5.38,11.48-11.05,14-5.67.57-6.1-1.13.57-6.66.57-6.66-4.68,5.81-8.08,3,1.7-11.48,3-14,5-10.77,5-10.77-7,1.56-8.08.57,4.39-7.66,4.39-7.66l2.69-2.12s25.09-12.62,32-13.33,4.67-.42,4.67-.42l-11.76-62.51s-17.72-18.14-21-23.81-.71-18.71-.71-18.71l-.56-12.19S205,209.93,202.43,214a25.67,25.67,0,0,0-3.26,8.08l-46.63,37.56s-16.3-1.13-24.09,21.69,6,61.65,19.13,96.66,32.46,55.28,37.14,58.26,11.76,1.27,14.45.56S296.26,395.61,330.28,386.54Z"/><path class="cls-4" d="M352.39,315.53l12.47-61.37s13.75-12.9,17.15-21.69,1.19-19.17,1.19-19.17l-2-13.31s10.85,7,13.26,10.65S400,223.12,400,223.12l30.19,19.7a24.37,24.37,0,0,1,24.23,5.1c11.62,10.2,15.45,30.05,8.36,65.06s-23,94.11-23.81,96.09a16.53,16.53,0,0,1-3.26,4.26s-16.15-.43-18.56-.71l-2.41-.29s-2.84,32.32-5.39,44.65S401,496.1,401,496.1a102.29,102.29,0,0,1-20.41,4.54c-10.21,1-29.34-4-29.34-4l-3.69-93.12-50.31-6.81,32.45-9.92s-3.82-27.35-4.39-33.31a149.49,149.49,0,0,1-.28-15l.85-1.28,53.29,13.19L384.57,329s-7.37-10.77-16.59-13.6S352.39,315.53,352.39,315.53Z"/><path class="cls-5" d="M293.26,283.28s-6.69-16.89-32.07-30.62-46.07-39.29-46.07-39.29-.27,13.27,2.26,19.69,20.24,25.11,20.24,25.11l7.49,35.77,3,24.66a237,237,0,0,1,23.31,8,205.89,205.89,0,0,1,20,10.39l7.32-1.27,31.89-10.11s10.2-7.5,13.36-8.58a93.1,93.1,0,0,1,9-2.26l10.75-60.25s15.17-15.36,17.79-22.95a40.89,40.89,0,0,0,2.26-14.09s-54.83,40.11-64.95,49.41-20.77,38.57-20.77,38.57Z"/><path class="cls-6" d="M247.21,437.05s18-10.37,50.16-10.37,51.27,13.14,51.27,13.14l-1.07-36.27-46.68-6.95L248,417.79Z"/><path class="cls-6" d="M238.28,259.83l7.33,38.27s-1.24-12.67,21.87-13.54,29.57,16,29.57,16-2-13.54-2.61-14.78-8.82-11.68-22.11-17.4-18.89,4.35-19.26,5.35-2.24,4.47-2.24,4.47S247.1,266.17,238.28,259.83Z"/><path class="cls-6" d="M298.05,302.45s-1.5-15.28,18.14-27.71,24.85-7.46,27.21-5.22,4.35,8.82,4.35,8.82l15.4-22.49L356,290s-3.11-5.84-21.87-7.2S298.05,302.45,298.05,302.45Z"/><path class="cls-7" d="M229.78,291.15A269.19,269.19,0,0,0,212,265.94s-7.31-27.07-5-40.25,8.88-14.32,8.88-14.32l-.14-11.31s-15,11.17-19.05,30.65,9.65,49.48,9.65,49.48l15.85,14.68s-2.87,14.47-4.73,22.92-2.86,12.6-2.86,12.6l9.16-3.87s1.72-11.74,3.3-16,9.45,0,9.45,0S237.08,303.32,229.78,291.15Z"/><path class="cls-7" d="M163,261.76s-15.11,6.68-18.06,28.67S182,397,189.86,408.62s44,1,72.84-9.62,66.95-17.87,66.95-17.87l.39,4.71s-39.26,12.18-69.3,25.33-64.6,29.06-72.25,25.92-26.51-20.82-42.8-65.58-23.76-76.76-15.12-95.61S163,261.76,163,261.76Z"/><path class="cls-7" d="M206.55,279.83c-.47-.7-11.21-20.32-10.86-35.38S197,224.37,197,224.37l-44.82,35.49s5.6.7,8.4.94a14.46,14.46,0,0,1,4.55,1.05s8.41-5.84,14.6-9.46,16,18.45,18.21,29.3l14.47,49.85,2.22-1.15s5.84-27.68,6-30.25.46-6.54.46-6.54S207,280.53,206.55,279.83Z"/><path class="cls-7" d="M370.27,291.15A267.12,267.12,0,0,1,388,265.94s7.3-27.07,5-40.25-8.88-14.32-8.88-14.32L381.81,200s17.53,11.2,21.54,30.68-9.65,49.48-9.65,49.48L381.53,292s-.81,17.31,1.05,25.76,2.87,12.6,2.87,12.6l-9.17-3.87s-1.72-11.74-3.29-16-9.46,0-9.46,0S363,303.32,370.27,291.15Z"/><path class="cls-8" d="M401.49,223.11l26.86,19.49a69.16,69.16,0,0,0-23.79,29.63c-8.14,19.65-20.27,55.11-20.27,55.11l-6-7.37L376,295.41l18.73-16.12s9.36-17,10-34.54S401.49,223.11,401.49,223.11Z"/><path class="cls-9" d="M381.11,200s16.65,5.83,21.53,30.68-11.05,55.44-11.05,55.44-20.33,5.21-28.76,24.33"/><path class="cls-7" d="M205.31,433.34c-14,5-17.52,5.4-20.69,1.86v13.05s38.4,6.89,61.88-10.07l1.65-21.74S219.29,428.3,205.31,433.34Z"/><path class="cls-7" d="M205.55,515.62s26.25,4.75,44-3.71l2.67-15s32,8,86.89.15l1.48,13.64s22.84,7.26,51.16.29l.45-11.71s-5.05,2.22-20,.89-21.5-5-21.5-5L350,470.4s-20.17,12.9-50.71,12.9a116.12,116.12,0,0,1-54-13.94l-2.23,27.11s-12,3.43-21.34,3.58a166.47,166.47,0,0,1-16.91-.59Z"/><path class="cls-7" d="M347.83,402.78l1,19.19s21.62,14.91,63.93,7.27l2-16.91Z"/><path class="cls-7" d="M324.41,388.6s93.57,11.75,96.73,12.31,18.46-46.41,30.57-91.71-2.42-75.67-30-61.5c0,0,5.59-10.26,25-5.41s19,33.36,17,60.39-25.72,108.85-27,110-7.82,1.67-20.68-.38-116.3-15.6-116.3-15.6Z"/><path class="cls-10" d="M235.82,106.42l6.37-23.54s12.4-37.32,66-32.5c50,4.5,60.92,30.57,62.66,66.65s11.38,101.1,11.38,101.1"/><path class="cls-11" d="M256.35,249.11,252,205.29a59.91,59.91,0,0,0,38.55,13.21c29.27-.58,54.2-29.81,54.2-29.81l-8.83,66s-25.69,20.42-28,23.85-9,21.27-9,21.27a151,151,0,0,0-12-26.21c-8.16-14.18-30.5-24.49-30.5-24.49"/><path class="cls-3" d="M225.88,155.41s4.66-8.68,9.14-12.64,13.88-3.39,20.07,1.09,11.88,4,23.58,0,35.66,15.4,59.77-.82,28.3,12.05,14.33,31.93-35.32,46.65-72.91,43.16S226.69,172.59,225.88,155.41Z"/><path class="cls-12" d="M243.41,116.38a14.18,14.18,0,0,1,.22,2.47c0,6.5-4.41,11.77-9.86,11.77-4.07,0-7.57-3-9.07-7.15A28.12,28.12,0,0,0,243.41,116.38Z"/><ellipse class="cls-13" cx="236.23" cy="121.25" rx="3.52" ry="4.96"/><ellipse class="cls-12" cx="234.77" cy="125.34" rx="1.46" ry="1.66"/><path class="cls-14" d="M233.77,107.08c4.73,0,8.69,4,9.64,9.3a28.12,28.12,0,0,1-18.71,7.09,13.66,13.66,0,0,1-.79-4.62C223.91,112.35,228.32,107.08,233.77,107.08Z"/><path class="cls-15" d="M242.23,124.89a13.43,13.43,0,0,0,1.4-6,13.7,13.7,0,0,0-.65-4.21"/><path class="cls-15" d="M240.62,110.38a9.1,9.1,0,0,0-6.85-3.3c-5.45,0-9.86,5.27-9.86,11.77A12.31,12.31,0,0,0,228.84,129"/><path class="cls-16" d="M242.38,115.3c-4.53,4.58-11.35,6.87-17.72,6.68-1.79-.06-1.78,2.72,0,2.77,7.07.22,14.66-2.41,19.68-7.49,1.25-1.27-.71-3.24-2-2Z"/><path class="cls-14" d="M379.88,350.19h-3.22l-50.17-12.67S324.66,325,338,320.22s23.53-6.44,34.27-2.58A17.32,17.32,0,0,1,384,331.29Z"/><path class="cls-17" d="M327,332.9s27.6-12.89,55.32.86l-2.58,15.47-7.84-.22-46-11.8Z"/><path class="cls-9" d="M212.24,336s6.76-15.2,9.46-41.51"/><path class="cls-9" d="M213.22,334.3s-7.87-29-12.54-44.51-15.74-22.88-21.89-23.61"/><line class="cls-9" x1="150.39" y1="260.37" x2="199.01" y2="221.74"/><path class="cls-12" d="M347.49,116.92a16.37,16.37,0,0,1,.25,2.83c0,7.44-5.05,13.47-11.29,13.47-4.66,0-8.66-3.37-10.38-8.18A32.23,32.23,0,0,0,347.49,116.92Z"/><ellipse class="cls-13" cx="339.27" cy="122.49" rx="4.03" ry="5.68"/><ellipse class="cls-12" cx="337.6" cy="127.18" rx="1.67" ry="1.9"/><path class="cls-14" d="M336.45,106.28c5.42,0,9.95,4.56,11,10.64A32.23,32.23,0,0,1,326.07,125a15.71,15.71,0,0,1-.91-5.29C325.16,112.31,330.22,106.28,336.45,106.28Z"/><path class="cls-15" d="M346.14,126.66a15.32,15.32,0,0,0,1.6-6.91,15.74,15.74,0,0,0-.74-4.82"/><path class="cls-15" d="M344.29,110.05a10.4,10.4,0,0,0-7.84-3.77c-6.23,0-11.29,6-11.29,13.47a14.09,14.09,0,0,0,5.65,11.67"/><path class="cls-16" d="M346.45,115.83c-5.22,5.27-13.08,7.93-20.42,7.7-1.79,0-1.79,2.72,0,2.78,8,.24,16.67-2.75,22.38-8.52,1.25-1.27-.71-3.24-2-2Z"/><path class="cls-16" d="M218.72,201l14.33,14S220.61,213,218.72,201Z"/><path class="cls-16" d="M220.7,190.43l14.32,14S222.59,202.39,220.7,190.43Z"/><path class="cls-16" d="M222.56,179.36l14.33,14S224.45,191.32,222.56,179.36Z"/><path class="cls-16" d="M377.54,201l-14.33,14S375.64,213,377.54,201Z"/><path class="cls-16" d="M375.56,190.43l-14.33,14S373.67,202.39,375.56,190.43Z"/><path class="cls-16" d="M373.7,179.36l-14.33,14S371.8,191.32,373.7,179.36Z"/><path class="cls-9" d="M248,318.72s-4.55-33.36-10.69-60.65"/><path class="cls-9" d="M352.81,315.71s4.53-31.83,10.68-59.12"/><line class="cls-9" x1="402.14" y1="224.28" x2="429.83" y2="242.02"/><path class="cls-9" d="M414.47,256.86s8.15-19.5,28.39-14.81S470,267,462.6,312.38s-25.42,100.2-25.42,100.2.25,1.72-9.63,1C421.36,413.1,300,396.78,300,396.78"/><path class="cls-10" d="M328.52,327.48s9.46-11.28,29-12.34S384,329,384,329"/><line class="cls-9" x1="326.24" y1="338" x2="380.51" y2="350.66"/><path class="cls-9" d="M378.91,351.05s8.91-4.12,31.86-.42"/><path class="cls-9" d="M379.18,351.13s9.14-47.14,28.14-84.9"/><path class="cls-9" d="M245.34,470.42s43.61,30.17,104,0"/><line class="cls-9" x1="297.85" y1="483.37" x2="297.85" y2="397.28"/><path class="cls-9" d="M183.47,435.13s1,36.64,9.83,60.75c0,0,22.14,10.33,50.17.49l4.68-79.93"/><path class="cls-9" d="M414,413.44s-4.48,58.33-13.34,82.44c0,0-22.13,10.33-50.17.49l-3.08-93"/><line class="cls-9" x1="221.79" y1="466.38" x2="230.7" y2="461.64"/><line class="cls-9" x1="336.3" y1="446.32" x2="344.1" y2="441.03"/><line class="cls-9" x1="337.41" y1="437.4" x2="342.7" y2="431.55"/><line class="cls-9" x1="204.23" y1="499.26" x2="209.63" y2="598.79"/><line class="cls-9" x1="294.23" y1="500.93" x2="294.23" y2="558.6"/><path class="cls-9" d="M305.09,500.09v47.57s-4.7,7.42-8.93,10.2-4.09,41.7-4.09,41.7"/><line class="cls-9" x1="392.3" y1="498.98" x2="389.51" y2="598.44"/><path class="cls-9" d="M215,213.22s10.51,16.18,32.53,30.36,46.54,23.72,50.38,59.24V334"/><path class="cls-9" d="M236.51,310.48c-8.43-19.12-28.76-24.33-28.76-24.33s-15.94-30.6-11.06-55.44,19.05-30.65,19.05-30.65"/><path class="cls-9" d="M298.1,304s4-26,33.2-46a591.91,591.91,0,0,0,52.55-40.83"/><path class="cls-9" d="M215,213.3S208.8,226.58,226,244.53s25.33,33.94,25.33,33.94,1-8.6,8.61-11.31,22.77,6.34,30.64,14.46"/><path class="cls-9" d="M384.28,216.46s3.12,12.46-11.28,28.07c-16.87,18.29-25.34,33.94-25.34,33.94s-1-8.6-8.6-11.31-21.25,5-29.12,13.12"/><path class="cls-9" d="M169.17,263.52a27.7,27.7,0,0,0-29.86,1.73c-25.83,18.32-7.24,74,8.5,112.33s33.93,59.27,41.07,60.26,33.69-10.33,60.5-21.89,62.95-25.19,80.66-29.13c0,0-9.67-35.23-1.94-60.37,0,0-30.28,5.88-67.41,22.11"/><path class="cls-18" d="M214.4,361.82a17.84,17.84,0,0,0,1-2S215,360.63,214.4,361.82Z"/><path class="cls-17" d="M235.74,327.48c0-3.47-13.34,1.63-18.69,4.9-4.43,2.71-10.46,5.87-12,9.73.55.66,2.33.61,6.61-.64a45.42,45.42,0,0,1,8.38-5.68C225.29,333.05,231.16,331.28,235.74,327.48Z"/><path class="cls-14" d="M244.78,358.25c7.53-6.06,17.38-12,25.83-16.71,4.61-2.56,11-4.86,14.46-8.83-10.73-5.68-33.83-16.65-43.21-13-13.89,5.35-34.6,12.76-35.57,17.08-.51,2.28-2,4.47-1.26,5.36q6.75-3.9,13.4-8c5.35-3.27,11-6.74,17.31-6.67-4.58,3.8-10.45,5.57-15.72,8.31a45.42,45.42,0,0,0-8.38,5.68c.85-.25,1.79-.54,2.86-.88a66,66,0,0,0-8.33,15.84c-1.46,4.32-2.45,7.15-2.38,8.83.48-.49,3.19,2.52,3.6,2,2.27-2.91,3.93-6,6-9.1,6.66-10.12,15.81-19.52,26.81-24.61C237,338,230.89,339,226.5,342.23c-4.16,3-6.59,7.88-8.67,12.6q-2.91,6.63-5.33,13.47c-.13.36-.26.73-.38,1.11,0,1.92.72,3.4,3.06,3.52a4.44,4.44,0,0,0,1.08-.08c.72-1.21,4.94-3.75,5.43-5.05,1.31-3.5,3.66-4.95,5.46-8.21,2.46-4.47,4.42-7.1,8.53-10.11,3.53-2.58,6.23-5.37,9.9-7.74,2.58-1.68,2.09-3.26,4.44-1.27-1.93,1.36-2.07,1.13-4.05,2.41a46.23,46.23,0,0,0-16,18.08c-.89,4-1.83,9.69-.82,13,.2-.7,3.13,2.63,3.33,1.94C234.65,368.53,238.76,363.09,244.78,358.25Z"/><path class="cls-17" d="M288.66,334.78s-3.48-2.16-8.64-4.89a45.69,45.69,0,0,1-12.22,9.91c-8.45,4.7-18.4,6.72-25.93,12.78-6,4.84-10,11.91-12.15,19.32-.21.69-.4,1.39-.6,2.09.6,2,1.88,3.14,4.25,2.61,9-2-.45-11.18,13.78-20s17.63-11.11,25.34-14.23S289.33,337.42,288.66,334.78Z"/><path class="cls-17" d="M217.83,354.83c2.08-4.72,4.51-9.55,8.67-12.6,4.39-3.22,10.47-4.28,13.66-8.69-11,5.09-22.56,10.65-29.22,20.77-2,3.08-3.54,6.51-5.81,9.42a17.46,17.46,0,0,1-1.34,1.53c.07,1.59,1.1,2.16,3.6,2,3.36-.23,5.75-3.32,7-5.43.56-1.19,1-2,1-2a17.84,17.84,0,0,1-1,2c-1,2-2.25,5.15-2.28,7.59.12-.38.25-.75.38-1.11Q214.92,361.46,217.83,354.83Z"/><path class="cls-17" d="M252,339.12c-2.35-2-5.91-.41-8.5,1.27Q238,344,232.66,347.82c-4.12,3-8.25,6.28-10.71,10.75-1.8,3.27-2.59,7-3.9,10.47a24,24,0,0,1-1.79,3.81c6.82-1.24,14.85-16.42,14.85-16.42s-.57,1.9-1.17,4.53a46.23,46.23,0,0,1,16-18.08C248,341.6,250,340.47,252,339.12Z"/><path class="cls-16" d="M289.36,333.58c-7.27-3.37-14.48-6.87-21.76-10.21-7.53-3.46-16.06-6.26-24.48-5.27-3.66.43-6.8,1.94-10.16,3.35-3.2,1.34-6.41,2.64-9.59,4-6.09,2.67-12.46,5.66-17.26,10.38-1.19,1.18-2,2.11-2.13,3.83-.09,1.5-.12,2.95,1.35,3.8,2.81,1.6,7.5.09,9.87-1.71,1.4-1.07,0-3.48-1.4-2.4a10.68,10.68,0,0,1-3.87,1.7,7.07,7.07,0,0,1-1.83.24,4.36,4.36,0,0,1-.81-.06c-.16,0-.69-.24-.63-.16a6.79,6.79,0,0,0,.08-1.12,1.41,1.41,0,0,1,.48-1.26,24.67,24.67,0,0,1,2.9-2.7c4.79-3.84,10.6-6.42,16.2-8.82,2.77-1.19,5.56-2.31,8.34-3.49,3.06-1.29,6-2.65,9.31-2.93,7.6-.64,15.2,1.76,22,4.88,7.35,3.36,14.63,6.91,22,10.31,1.61.74,3-1.65,1.4-2.4Z"/><path class="cls-16" d="M234.61,327.45c-4.11,2.33-8.48,4.2-12.66,6.39a41.09,41.09,0,0,0-6.52,4,18.7,18.7,0,0,0-4.9,6.22c-2.78,5.35-5.29,10.88-7.68,16.41-.95,2.19-1.65,4.77.26,6.67a5.87,5.87,0,0,0,5.51,1.29c2-.54,3.5-2.26,4.77-3.85a33.68,33.68,0,0,0,3.67-5.49c.81-1.58-1.58-3-2.4-1.4a30.17,30.17,0,0,1-2.53,4,15.39,15.39,0,0,1-3.25,3.62c-1.08.74-3.1.88-4-.3-.62-.85-.12-2,.23-2.9.52-1.27,1.1-2.52,1.66-3.77,2.11-4.69,4.18-9.51,6.72-14,2.32-4.08,6.23-6.28,10.28-8.37s8.24-3.91,12.2-6.15a1.39,1.39,0,0,0-1.4-2.4Z"/><path class="cls-16" d="M239.46,332.7a43.12,43.12,0,0,1-7.29,4.46,34.06,34.06,0,0,0-6.58,4.53,42.85,42.85,0,0,0-9.05,12.53c-1.19,2.33-2.26,4.72-3.28,7.12s-2.52,5.05-2.4,7.75a5.26,5.26,0,0,0,3.92,5.17c2.79.57,5.23-1.09,7-3.09a126.31,126.31,0,0,0,12-16.65c.95-1.51-1.45-2.91-2.4-1.4a150.35,150.35,0,0,1-9.35,13.33c-1.42,1.79-3.14,4.66-5.58,5.1-2.69.48-3.14-2.36-2.59-4.33a48.4,48.4,0,0,1,2.78-6.81c.9-2,1.85-4,2.89-6a39.12,39.12,0,0,1,8-10.75c4.14-3.75,9.61-5.42,13.87-9,1.37-1.15-.6-3.1-2-2Z"/><path class="cls-16" d="M252.1,337.55q-6,4.2-12.09,8.4c-3.33,2.32-6.65,4.75-9,8.09s-3.37,7.75-3.51,12c-.07,2.23.05,4.45.2,6.67.12,1.77.29,3.74,1.85,4.86,3.35,2.41,7.42-1.13,9-4,2-3.57,2.06-8,4.41-11.36a18.57,18.57,0,0,1,4.73-4.28c1.83-1.29,3.7-2.54,5.59-3.74q5.78-3.68,11.89-6.81a143.41,143.41,0,0,1,14.23-6.34c2.39-.91,4.79-1.73,7.21-2.54,1.94-.64,3.77-1.81,3.4-4.1-.29-1.76-3-1-2.68.74.07.44-4.39,1.67-4.87,1.83-1.9.67-3.8,1.38-5.68,2.13q-5.7,2.26-11.21,5a129.22,129.22,0,0,0-20.77,12.53,16.86,16.86,0,0,0-6.26,8.63c-1,3.16-1.53,7.11-4.31,9.3a4,4,0,0,1-2.31.95c-1,0-1.25-.81-1.38-1.68a46.29,46.29,0,0,1-.3-5.65c-.06-3.83.27-7.81,2.18-11.21,2-3.63,5.49-6.16,8.83-8.5,4.08-2.85,8.17-5.67,12.26-8.51,1.46-1,.07-3.42-1.4-2.4Z"/><path class="cls-16" d="M259.3,338l4.3-1.83a1.39,1.39,0,0,0-.34-2.53l-.36-.05a1.32,1.32,0,0,0-.7.19l-4.3,1.83a1.34,1.34,0,0,0-.64.83,1.39,1.39,0,0,0,1,1.7l.37.05a1.34,1.34,0,0,0,.7-.19Z"/><path class="cls-16" d="M245.31,331l6.2-1.68a1.39,1.39,0,1,0-.74-2.67l-6.2,1.67a1.39,1.39,0,0,0,.74,2.68Z"/><line class="cls-19" x1="240.95" y1="170.92" x2="247.82" y2="167.38"/><path class="cls-3" d="M236.26,161.54s20.31,11.65,49.47,12.26,60.58-20.4,60.58-20.4l3.77-3.15s-22.59,42.2-64.09,44S236.26,161.54,236.26,161.54Z"/><path class="cls-10" d="M225.88,157.63s12.61,55.83,54,60.5,71.3-36.76,77.09-51.22"/><line class="cls-10" x1="214.02" y1="212.15" x2="231.56" y2="128.27"/><path class="cls-10" d="M257.07,157.63s-7.31-9.28-7.73-18.61c-.39-8.6,11-14.29,22.1-20.22"/><path class="cls-19" d="M233.77,158.73C242.22,163,250,167,250,167s34.76,16,70.55.21c0,0,20.18-9.79,32.35-19.38"/><path class="cls-19" d="M233.77,158.73s10.28,32.68,50.93,35.45c37.21,2.53,68.21-46.39,68.21-46.39"/><polyline class="cls-19" points="248.45 167.28 253.94 182.55 263.43 171.75 273.91 192.79 284.35 174.25 295.27 193.17 304.95 172.27 317.08 184.61 321.91 167.9 330.93 174.13 336.3 158.73"/><path class="cls-19" d="M350.89,145.38s5,1.15,3.87,7"/><path class="cls-16" d="M274.78,143.42l-2.69,1.52a1.39,1.39,0,0,0-.5,1.9,1.37,1.37,0,0,0,.83.64,1.49,1.49,0,0,0,1.07-.14l2.69-1.52a1.48,1.48,0,0,0,.64-.83,1.39,1.39,0,0,0-1-1.71,1.47,1.47,0,0,0-1.07.14Z"/><path class="cls-13" d="M317.48,136s10.06-1.22,10.42-5.94-9.44-2.73-9.44-2.73Z"/><line class="cls-20" x1="319.49" y1="130.03" x2="368.4" y2="122.67"/><path class="cls-21" d="M246.65,124s18.22-9.46,31.36,0"/><path class="cls-21" d="M246.65,132.62s17.94-13.94,31.36,0"/><path class="cls-22" d="M238.23,118.39c7,1.44,11.51,8.71,10.09,16.14a69.19,69.19,0,0,1-3.45,12.61c-3.79,9.21-22.87,9.07-29.27,3.49-5.3-4.61-7-15.91-7.82-24.18a6.19,6.19,0,0,1,4-6.53A50.76,50.76,0,0,1,238.23,118.39Z"/><path class="cls-23" d="M238.23,118.39c7,1.44,11.51,8.71,10.09,16.14a69.19,69.19,0,0,1-3.45,12.61c-3.79,9.21-22.87,9.07-29.27,3.49-5.3-4.61-7-15.91-7.82-24.18a6.19,6.19,0,0,1,4-6.53A50.76,50.76,0,0,1,238.23,118.39Z"/><path class="cls-24" d="M286.81,118.88c-7.23,1.59-11.94,9.61-10.47,17.8a79.65,79.65,0,0,0,3.58,13.93c3.94,10.16,23.73,10,30.38,3.85,5.49-5.1,7.28-17.56,8.11-26.69a6.88,6.88,0,0,0-4.16-7.21A49.71,49.71,0,0,0,286.81,118.88Z"/><path class="cls-23" d="M286.81,118.88c-7.23,1.59-11.94,9.61-10.47,17.8a79.65,79.65,0,0,0,3.58,13.93c3.94,10.16,23.73,10,30.38,3.85,5.49-5.1,7.28-17.56,8.11-26.69a6.88,6.88,0,0,0-4.16-7.21A49.71,49.71,0,0,0,286.81,118.88Z"/><path class="cls-25" d="M349.51,91.08c-1.52-2.87-2-1.22-7.56-1s-9.68-2-12.33-6.07-6.56-.3-7.35,3.17,2.21,13.34,14.42,11.42S350.34,92.64,349.51,91.08Z"/><path class="cls-20" d="M349.51,91.08c-1.52-2.87-2-1.22-7.56-1s-9.68-2-12.33-6.07-6.56-.3-7.35,3.17,2.21,13.34,14.42,11.42S350.34,92.64,349.51,91.08Z"/><path class="cls-25" d="M222.33,94.46c1-3.1,1.76-1.57,7.25-2.39s9.13-3.81,11-8.26,6.4-1.5,7.81,1.77.29,13.51-12.06,13.89S221.81,96.15,222.33,94.46Z"/><path class="cls-20" d="M222.33,94.46c1-3.1,1.76-1.57,7.25-2.39s9.13-3.81,11-8.26,6.4-1.5,7.81,1.77.29,13.51-12.06,13.89S221.81,96.15,222.33,94.46Z"/></g></svg>