<svg xmlns="http://www.w3.org/2000/svg" xmlns:xlink="http://www.w3.org/1999/xlink" viewBox="0 0 600 600"><defs><style>.cls-1{fill:#ffce55;}.cls-2{fill:#007fcc;}.cls-3{fill:#6fb7d6;}.cls-14,.cls-16,.cls-18,.cls-20,.cls-28,.cls-4,.cls-7{fill:none;}.cls-4{stroke:#1b5186;}.cls-14,.cls-20,.cls-28,.cls-4,.cls-7{stroke-linecap:round;stroke-linejoin:round;stroke-width:2.78px;}.cls-5{fill:#d13d3d;}.cls-6{fill:#ff6161;}.cls-7{stroke:#030304;}.cls-8{fill:#030304;}.cls-9{fill:#f1f3f3;}.cls-10{fill:#dedbe1;}.cls-11{fill:#1b5186;}.cls-12{fill:#606060;}.cls-13{fill:#282828;}.cls-14{stroke:#000;}.cls-15{fill:#514545;}.cls-17{fill:#0080ca;}.cls-18{stroke:#6fb7d6;stroke-miterlimit:10;stroke-width:0.56px;}.cls-19{fill:#027ecb;}.cls-20{stroke:#1d1d1b;}.cls-21{fill:#1d1d1b;}.cls-22{fill:url(#Degradado_sin_nombre_12);}.cls-23{fill:#dedce0;}.cls-24{fill:#f2f3f2;}.cls-25{fill:url(#Degradado_sin_nombre_12-2);}.cls-26{fill:#3c3c3b;}.cls-27{fill:#fbb03b;}.cls-28{stroke:#8e6a2b;}</style><linearGradient id="Degradado_sin_nombre_12" x1="450.2" y1="179.56" x2="437.52" y2="128.07" gradientUnits="userSpaceOnUse"><stop offset="0" stop-color="#00cdf9"/><stop offset="1" stop-color="#b135f5"/></linearGradient><linearGradient id="Degradado_sin_nombre_12-2" x1="389.26" y1="194.56" x2="376.59" y2="143.07" xlink:href="#Degradado_sin_nombre_12"/></defs><g id="Capa_3" data-name="Capa 3"><g id="a"><rect class="cls-1" width="600" height="600"/></g></g><g id="Capa_1" data-name="Capa 1"><path class="cls-2" d="M217.73,136s-6.89,4.1-16,10.75c-2.8,9.61-12.4,14.59-15.44,24.32-2.59,8.27-3.1,9.08-8.45,15.89-4.83,6.14-9.94,15.59-15.18,21.37-2.7,3-3.22,14-5,17.56-2.06,4.1-2.16,11.42-2.77,16-1.32,9.79.22,17.69-1,27.48,5.51-13.09,17.37-35.87,34.54-40.06,24.38-5.94,36.34-1.78,36.34-1.78Z"/><path class="cls-3" d="M161,226.66c1.8-3.58,4.59-6.56,7.29-9.54q7.86-8.67,15.11-17.89c5.35-6.82,10.53-14,13.11-22.28,3-9.73,2.39-20.6,5.19-30.21-17,12.33-41.76,33.45-44.85,53.49-4.75,30.82-6.54,78.39-6.54,78.39s1.2-3.79,3.51-9.29c1.24-9.79,2.56-19.58,3.87-29.37C158.29,235.41,158.93,230.77,161,226.66Z"/><path class="cls-4" d="M217.73,136s-56.13,33.41-60.89,64.24-6.54,78.39-6.54,78.39,13.68-43.4,38-49.35,36.34-1.78,36.34-1.78Z"/><path class="cls-5" d="M473.75,381.69c-1.29-3.56-10.11-18.12-11.07-21.79-1.71-6.57-7.49-21.51-10.95-27.35-3.05-5.14-5.13-14.56-10.3-17.56s-12.8-6.22-14.26-12c-1.13-4.5-2.69-1.68-3.5-6.25-.69-3.85-6.4.12-8.76-3-6.55-8.69-14.34-16.41-20.49-25.39-5-7.24-8.86-15.61-9.53-24.25a25.09,25.09,0,0,0-2.5,5.62c-3.51,11.65-1.43,24.35,2.79,35.77,3.82,10.35,9.31,20,14.78,29.57,4.92,8.63,11,16.71,14.77,25.88,13.54,32.58,29.52,52,42,57.87C458.61,389.93,476.86,390.21,473.75,381.69Z"/><path class="cls-6" d="M476.43,360.63c-3.22-14.57-8.89-26.82-18.46-45.19-12.8-24.58-5.24-24.31-17.46-48.76s-44.23-30.26-44.23-30.26l1.82-.36c-5.51-.76-10.23,3.07-13.21,8,.67,8.64,4.57,17,9.53,24.25,6.15,9,13.94,16.7,20.49,25.39,2.36,3.12,4.61,6.5,5.3,10.35.81,4.57-.64,9.36.49,13.86,1.46,5.8,6.79,9.69,12,12.69s10.82,5.87,13.86,11c3.47,5.84,2.74,13.18,4.45,19.75.95,3.66,2.67,7.08,4,10.63a49.14,49.14,0,0,1,1.82,26.78C471.75,405.86,481.73,393.36,476.43,360.63Z"/><path class="cls-7" d="M398.1,236.06c-7.49-1-13.52,6.4-15.71,13.65-3.51,11.65-1.43,24.35,2.79,35.77,3.82,10.35,9.31,20,14.78,29.57,4.92,8.63,11,16.71,14.77,25.88,29.81,71.71,71.42,79.69,61.7,19.7-3.22-14.57-8.89-26.82-18.46-45.19-12.8-24.58-5.24-24.31-17.46-48.76s-44.23-30.26-44.23-30.26"/><path class="cls-5" d="M319.71,589.05c1.05-.34,7.59-6.71,8.32-7.53,1-1.13,2.16-12.23,2.18-13.76.14-14.76,3.57-3.81.79-18.32,24.88,7,19.19,16.09,41.39,2.88-.41,13.93,2.06,15.63,4.22,29.4.16,1,10.2,2.64,10.73,3.47,1.93,3.06,9.47,4.18,12.67,2.47,5.5-2.93,12.32-15,17.68-18.22l1.52-91.68s-79.49,19.8-101.57,17.43-124.87,6.36-124.87,6.36c2.6,23.14,5.62,60.3,7.44,82.05,16.59,5,48,8,56,9.8C276.05,597.88,300.4,595.29,319.71,589.05Z"/><path class="cls-6" d="M401.39,563.53c-3.19,1.7-7.89,3-9.82,0a7.2,7.2,0,0,1-.84-2.78A227,227,0,0,1,388.08,519c-22.2,13.21-50.41,9.78-75.29,2.81a222.29,222.29,0,0,1,4,44c0,1.53-.1,3.2-1.12,4.33a6.28,6.28,0,0,1-2.86,1.54c-19.32,6.24-42.87,15.63-62.67,11.15-8-1.82-34.26-10.51-50.85-15.5.88,10.56,1.7,21.31,2.5,32.59h215l.9-45.66Q409.65,559.13,401.39,563.53Z"/><path class="cls-8" d="M288.93,514.46c15.95,7.63,32.88,13.69,50.59,15.37,15.61,1.49,31.64-.78,45.77-7.76a64.1,64.1,0,0,0,20.13-15.39c1.17-1.35-.79-3.32-2-2-9.68,11.2-23.3,18.11-37.67,21.09-16,3.32-32.59,1.46-48.16-3.09a180.41,180.41,0,0,1-27.3-10.66c-1.6-.77-3,1.63-1.4,2.4Z"/><path class="cls-8" d="M364.65,528.84l.27,17.44c.07,5,.4,10-.32,14.92a18.41,18.41,0,0,1-6.22,11.92,33,33,0,0,0-5.15,5,19.14,19.14,0,0,0-3,6c-1.51,5-1.4,10.26-1.21,15.37.06,1.78,2.84,1.79,2.78,0-.17-4.57-.3-9.26.85-13.72a17.25,17.25,0,0,1,2.7-5.93c1.49-2,3.56-3.51,5.42-5.17,7.48-6.69,7.05-17,6.91-26.18l-.3-19.65a1.39,1.39,0,0,0-2.78,0Z"/><path class="cls-8" d="M352.24,528.86a235.81,235.81,0,0,1-.44,42.76c-.18,1.78,2.6,1.77,2.77,0a234.91,234.91,0,0,0,.44-42.76c-.14-1.77-2.92-1.78-2.77,0Z"/><path class="cls-8" d="M191.38,501.55q4.27,38.07,7.34,76.28.87,11.08,1.65,22.17a1.41,1.41,0,0,0,1.39,1.39H408c2.8,0,5.61.06,8.4,0h.37a1.42,1.42,0,0,0,1.39-1.39l.24-12.19.58-29.26.7-35.25.6-30.48c.1-4.93.41-9.91.3-14.84a1.62,1.62,0,0,1,0-.22,1.41,1.41,0,0,0-1.76-1.34c-3.37.84-6.75,1.64-10.13,2.44q-12.22,2.88-24.51,5.52c-9.95,2.12-19.93,4.13-30,5.86a255.59,255.59,0,0,1-26.73,3.55,60.08,60.08,0,0,1-9.39.06q-3.74-.35-7.48-.42c-7.63-.16-15.27.1-22.88.4-9.73.38-19.44.92-29.16,1.51s-19.61,1.27-29.41,2q-11.83.85-23.65,1.8-6.12.48-12.22,1l-.55.05c-1.77.15-1.78,2.93,0,2.78l8.49-.7q10.74-.87,21.5-1.67,14.3-1.06,28.6-2c9.91-.63,19.83-1.22,29.75-1.68,8.35-.38,16.72-.71,25.08-.72,2.93,0,5.87,0,8.79.19,2.59.16,5.15.44,7.75.41,8.34-.11,16.69-1.35,24.92-2.64,10.08-1.58,20.12-3.5,30.11-5.57q13.38-2.76,26.69-5.85,7.24-1.68,14.46-3.44l.67-.17-1.76-1.34L417.58,490,417,519.21l-.7,35.25-.6,30.48-.2,10.1a37.54,37.54,0,0,0-.09,4.74c0,.07,0,.15,0,.22l1.39-1.39H210.53c-2.77,0-5.64-.21-8.4,0h-.37l1.39,1.39q-2.7-38.22-6.6-76.35-1.14-11.05-2.39-22.1C194,499.79,191.18,499.77,191.38,501.55Z"/><path class="cls-9" d="M278.15,241.2C267.62,215.82,257,190,250.78,163.39c.14,2.8.36,5.6.68,8.39,1.73,14.89,6.24,29.29,10.72,43.59q6.29,20,12.55,40c2.46,7.85,4.93,15.71,7.87,23.4.4,1.05.82,2.1,1.23,3.14,7.84,5.86,15,11.17,20.74,15.49-2.39-4.13-4.7-8.31-6.88-12.56C290.38,270.66,284.27,255.92,278.15,241.2Z"/><path class="cls-10" d="M354.24,356.82c2.06,6.8,17.29-60.25,17.29-60.25l-2.7-31.41q0-29.28,0-58.56c0-14.38,0-28.83-2.29-43-3.75-23.45-14-46.21-31-62.85S294.7,74.07,271,76.09c-1.07.09-2.14.21-3.2.36-7.12,15.64-11.74,32.68-14.48,49.59a180,180,0,0,0-2.57,37.35C257,190,267.62,215.82,278.15,241.2c6.12,14.72,12.23,29.46,19.54,43.62,2.18,4.25,4.49,8.43,6.88,12.56,5.41,4.07,9.6,7.26,12,9.23C331.37,318.77,354.14,356.51,354.24,356.82Z"/><path class="cls-2" d="M242.34,217.86c.34-10.77,2.91-21.36,3.61-32.12,1.74-27-8.39-53.87-5.76-80.81a98.66,98.66,0,0,1,4.56-21.07c-12.92,6.81-23.66,17.6-29.32,31-3.42,8.12-5,16.9-6.35,25.61A630.45,630.45,0,0,0,202,214.38c7,8.86,25.36,24.11,45.47,39.81C244.45,242.24,242,230.13,242.34,217.86Z"/><path class="cls-3" d="M274.73,255.35q-6.27-20-12.55-40c-4.48-14.3-9-28.7-10.72-43.59-1.76-15.2-.57-30.63,1.89-45.74,2.74-16.91,7.36-33.95,14.48-49.59a69.73,69.73,0,0,0-23.08,7.41,98.66,98.66,0,0,0-4.56,21.07c-2.63,26.94,7.5,53.8,5.76,80.81-.7,10.76-3.27,21.35-3.61,32.12-.39,12.27,2.11,24.38,5.09,36.33,12.19,9.51,25,19.18,36.4,27.7-.41-1-.83-2.09-1.23-3.14C279.66,271.06,277.19,263.2,274.73,255.35Z"/><path class="cls-11" d="M203.35,214.38q1-27.3,4.4-54.45c1.11-9,2.32-17.93,4-26.79,1.48-7.88,3.56-15.71,7.44-22.78,6.56-12,17.33-21.3,29.68-27a69.46,69.46,0,0,1,41.72-4.92,85.57,85.57,0,0,1,40.21,19.72,101.52,101.52,0,0,1,26.08,36.66c6.47,15.1,9.33,31.25,10.15,47.59.45,9,.41,18,.41,27.07v27.7q0,13.73,0,27.44c0,2.27.34,4.57.54,6.83l2,23.68c0,.37,0,.77.1,1.14s0,.24.07-.06c-.13.42-.24.84-.37,1.26-.69,2.37-1.4,4.74-2.12,7.09-2.35,7.61-4.84,15.19-7.72,22.61a95.72,95.72,0,0,1-4.34,9.84,32,32,0,0,1-2.11,3.51,8,8,0,0,1-.83,1,5.22,5.22,0,0,1-.43.39c-.19.16.22-.15,0,0a1.58,1.58,0,0,1-.24.15c-.39.2.18,0-.17.07-.08,0,.26.08-.1,0,.12,0,.33.09.13,0s.21.22.06,0,.15.21-.13-.11,0,.16-.17-.23c-.11-.2-.22-.4-.32-.6.12.25-.14-.38-.19-.48s-.26-.33-.36-.47c-2-2.55-4.15-5-6.28-7.44-8.35-9.59-17.07-19.13-26.91-27.22-4.62-3.79-9.45-7.33-14.23-10.91q-11.34-8.49-22.7-17-13.33-10-26.55-20.16c-8.59-6.64-17.13-13.36-25.5-20.28-6.76-5.6-13.48-11.29-19.72-17.48a75.27,75.27,0,0,1-5.92-6.45c-1.11-1.4-3.06.58-2,2,4.48,5.63,10,10.49,15.4,15.22,7.79,6.85,15.85,13.38,24,19.82q13.49,10.66,27.24,21Q280.28,281,293,290.49c6.22,4.64,12.46,9.25,18.61,14a188.92,188.92,0,0,1,22,20.56q5.87,6.27,11.44,12.82c1,1.22,2.07,2.44,3.08,3.68l.4.5c.27.34,0-.07.06.08s-.15-.37.05.08c.13.29.24.59.4.87a3.11,3.11,0,0,0,5,.92c1.93-1.56,3.18-4,4.28-6.2,3.66-7.21,6.3-15,8.85-22.61q2.88-8.64,5.41-17.39a8.4,8.4,0,0,0,.12-3.28l-1-11.54c-.64-7.52-1.53-15-1.53-22.56q0-28.07,0-56.15c0-17.69-.34-35.53-4.78-52.77a115.1,115.1,0,0,0-19.76-41.41,92.46,92.46,0,0,0-35.55-28.37c-13.83-6.15-29.27-8.77-44.28-6.37A71,71,0,0,0,229.1,93.23a62.82,62.82,0,0,0-12.61,16.24c-3.86,7.22-6,15.16-7.48,23.17a532.39,532.39,0,0,0-6.86,54.86q-1.08,13.42-1.58,26.88C200.5,216.17,203.28,216.16,203.35,214.38Z"/><path class="cls-11" d="M211.66,192.1l20.56,20.06S214.37,209.26,211.66,192.1Z"/><path class="cls-11" d="M214.49,176.92,235.06,197S217.21,194.08,214.49,176.92Z"/><path class="cls-11" d="M217.17,161l20.56,20.06S219.89,178.19,217.17,161Z"/><path class="cls-12" d="M381.75,458c-.58-5-1.4-10.1-4-14.42l-21.51,15.56c-12.72,9.19-25.6,18.47-40.14,24.38-10.77,4.37-22.68,6.75-34.15,5.58,5.79,9.39,10.63,15.69,10.63,15.69s32.78,7.56,60.18,11.06c10.16,1.29,20.06-3.11,28.5-9.16A195.89,195.89,0,0,0,381.75,458Z"/><path class="cls-13" d="M261.17,343.92a174.75,174.75,0,0,1,32.25,16,228.26,228.26,0,0,1,.6-47.47c.25-2.11.67-4.46,2.42-5.67,1.41-1,3.28-.91,5-.72,23.77,2.64,44.94,21.2,50.67,44.42a273.18,273.18,0,0,1,24.4-60.67c1.41-2.56,3.1-5.31,5.89-6.21,3.9-1.27,7.82,1.68,10.4,4.94-5.38-13.07-11.94-23.21-18.95-29.08L352,348.3s-7.92-47.8-47.76-65.26-92.92-58.2-92.92-58.2-11.52-2.91-6.87,19.21,22.7,58.19,33.76,91.95c1,3,2,6,3,9a14.29,14.29,0,0,1,6.14-3.21C251.92,340.76,256.72,342.26,261.17,343.92Z"/><path class="cls-12" d="M406.39,355.79c-1-25.65-6.19-49.25-13.61-67.27-2.58-3.26-6.5-6.21-10.4-4.94-2.79.9-4.48,3.65-5.89,6.21a273.18,273.18,0,0,0-24.4,60.67c-5.73-23.22-26.9-41.78-50.67-44.42-1.7-.19-3.57-.26-5,.72-1.75,1.21-2.17,3.56-2.42,5.67a228.26,228.26,0,0,0-.6,47.47,174.75,174.75,0,0,0-32.25-16c-4.45-1.66-9.25-3.16-13.87-2.1a14.29,14.29,0,0,0-6.14,3.21c10.35,31.51,21.49,66.23,21.48,92.23,0,8.43,2.62,17.77,6.31,26.75,15-6.37,28.29-16.53,40.45-27.48,14.53-13.08,27.86-27.52,43.22-39.61,9.13-7.19,19.94-13.79,31.52-12.77,9.25.81,17.36,6.57,22.88,14.18C407,383,406.87,368,406.39,355.79Z"/><path class="cls-13" d="M384.14,384.15c-11.58-1-22.39,5.58-31.52,12.77-15.36,12.09-28.69,26.53-43.22,39.61-12.16,11-25.47,21.11-40.45,27.48a176.67,176.67,0,0,0,13,25.07c11.47,1.17,23.38-1.21,34.15-5.58,14.54-5.91,27.42-15.19,40.14-24.38l21.51-15.56c2.57,4.32,3.39,9.43,4,14.42a195.89,195.89,0,0,1-.46,48.69c14.32-10.28,24.43-25.31,24.43-25.31s1.27-42.69,1.3-83C401.5,390.72,393.39,385,384.14,384.15Z"/><path class="cls-14" d="M211.31,224.84s-11.52-2.91-6.87,19.21,22.7,58.19,33.76,91.95,24.45,72.74,24.44,101.26,30,67.51,30,67.51,41.22,13.22,67.17,11.09c27.54-2.26,45.94-34.5,45.94-34.5s2.41-81.35.67-125.57-15.87-82.39-32.56-96.35L352,348.3s-7.92-47.8-47.76-65.26S211.31,224.84,211.31,224.84Z"/><path d="M353.57,355.06q3.26,31.31,4.75,62.76,1.46,31.23,1.07,62.5-.21,17.78-1,35.54c-.08,1.79,2.7,1.78,2.77,0q1.38-31.46,1-62.94-.42-31.25-2.67-62.44-1.29-17.75-3.13-35.42c-.18-1.76-3-1.78-2.78,0Z"/><path class="cls-5" d="M192.26,274.66c.2.33.39.67.6,1,4.28,6.91,8,14.92,13.13,21.26,4.19,5.2,9.76,8.7,13.74,14.06,7.33,1.71,30.21,7.44,43.28,15.18-13.07-7.74-35.95-13.47-43.28-15.18,16,21.49,16.57,54.66,31.05,77.2,2.74,4.25,19.41-2,21.26,2.67,2.2,5.56,3.51,12.19,8.61,15.32-.73-10.21,13.43-25.36,9-34.58-3.61-7.45-9.25-18.3-13.66-25.31s-2.57,3-1.39-5.24c.1-.67-1.72,8.4-1.21,8s3.63-8,4.33-8c2.71.17-10.58-3.44-7.87-3.48s5.22-8.37,5.35-11.09c.11-2.35-6-16.23-7.92-17.62-9.87-7.18-19.15-22.48-30.5-27-5.5-2.17-6.4-12.56-10.89-16.41-4.78-4.09-5.76,2.92-8.46-2.77-4.51-9.54,3.47-.95-1-10.49-3.21-6.77-17.48-16.52-18.22-24-.57-5.67-6.73-11.53-3.5-16.1-4.86,2.65-12.83,8.83-14.26,16.81a34.16,34.16,0,0,0-.43,3.5A103.39,103.39,0,0,0,183.86,256c.39,1.22.8,2.43,1.24,3.64A129.5,129.5,0,0,0,192.26,274.66Z"/><path class="cls-15" d="M192.26,274.47a128.74,128.74,0,0,1-7.16-15.06A86.81,86.81,0,0,0,192.26,274.47Z"/><path class="cls-6" d="M185.1,259.41c-.83-1.19-3.83-11.73-5.27-12-2-.29-7.1-4.31-8.24-2.67-9.3,13.37-29.42,20.84-28.51,37.1.31,5.6-3.18,21.64-1.39,27,5.81,17.21,4.83,44.45,18.81,56,8.88,7.35,25.55,46.17,35.45,52.08s22.14-2.17,26.93,8.32c5.08,11.12,22,8,26.92,19.19,7,15.81,24.05,24.35,40.17,30.64,3.64,1.42,7.35,2.83,11,4.31-3.24-40.8-10.45-111.91-16.18-134.83-6.69-26.77-28.8-57-38.48-75.08s-29.9-28.51-38-37.25-6.73-22.11-6.73-22.11a31,31,0,0,0-9.81,3.37c-3.22,4.57-4.39,10.66-3.82,16.32.75,7.45,4,14.38,7.2,21.15q6.78,14.31,13.55,28.63c2.69,5.69,5.52,11.55,10.29,15.65,4.49,3.85,10.27,5.76,15.77,7.93a144.6,144.6,0,0,1,32,17.58c1.91,1.39,4,3.22,3.86,5.58-.13,2.71-3.18,4.39-5.9,4.43s-5.33-1-8-1.16a2.75,2.75,0,0,0-2,.45,2.86,2.86,0,0,0-.76,1.82c-1.18,8.2,2.26,16.39,6.67,23.41s9.88,13.39,13.49,20.85c4.46,9.22,5.86,19.6,6.59,29.82-5.1-3.13-6.41-9.76-8.61-15.33a77.93,77.93,0,0,0-7.33-13.25c-14.49-22.54-29-45.12-45-66.62-1.49-.35-2.34-.53-2.34-.53-11.06-13.22-19.26-25.15-25.13-35.79a86.81,86.81,0,0,1-7.16-15.06c-.28-.71-.55-1.42-.8-2.12"/><path class="cls-15" d="M183.86,255.77c.14.51.28,1,.44,1.52.25.7.52,1.41.8,2.12C184.66,258.21,184.25,257,183.86,255.77Z"/><path class="cls-16" d="M184.3,257.29a103,103,0,0,1-4.36-25C179.44,239,180.67,247.39,184.3,257.29Z"/><path class="cls-5" d="M249.8,444.48c-5-11.18-4-24.31-9.08-35.43-4.8-10.48-14.4-17.95-24.3-23.86s-20.54-10.74-29.42-18.1c-14-11.58-22.5-28.52-28.31-45.72-1.79-5.32-3.38-10.77-3.69-16.38-.91-16.26,8.8-31,18.1-44.36,1.14-1.64,2.71-3.48,4.69-3.18,1.44.21,2.44,1.51,3.27,2.71L192,275.76a100.42,100.42,0,0,1-7.68-18.47c-3.63-9.9-4.86-18.25-4.36-25v0c-25.14,22-47.87,49.48-50.2,67.52s26.77,72.16,39,117.55,19,118.49,19,118.49c55,51.79,117.5,27.93,117.5,27.93s-.85-33.51-2.9-66.69c-.29-4.77-.72-10.78-1.27-17.64-3.69-1.48-7.4-2.89-11-4.31C273.85,468.83,256.81,460.29,249.8,444.48Z"/><path class="cls-7" d="M179.94,232.27c-25.14,22-47.87,49.48-50.2,67.52s26.77,72.16,39,117.55,19,118.49,19,118.49c55,51.79,117.5,27.93,117.5,27.93s-.85-33.51-2.9-66.69-10.75-125.7-17.45-152.47-28.8-57-38.48-75.08-29.9-28.51-38-37.25-6.73-22.11-6.73-22.11-18.3,2.33-21.21,18.63,5.37,43.64,37,81.47c0,0,29.91,6.4,45.62,15.72"/><path class="cls-8" d="M243.76,318.34l1.77,32.87.88,16.43c.29,5.38.41,10.79.9,16.15a15.2,15.2,0,0,0,1.95,6.72,35.93,35.93,0,0,0,4.52,5.41q4.92,5.32,9.53,10.92a250.63,250.63,0,0,1,17.11,23.49,254.67,254.67,0,0,1,15.8,28.39c.77,1.61,3.16.21,2.4-1.4a256.07,256.07,0,0,0-30.18-48.51q-4.43-5.6-9.16-10.95c-1.55-1.75-3.13-3.47-4.72-5.19s-3.3-3.6-4-6a34.32,34.32,0,0,1-.78-7.57l-.43-8-.87-16.19-2-36.6c-.1-1.78-2.88-1.79-2.78,0Z"/><path class="cls-6" d="M423.38,408.47c-4.47-.63-18.6,2.57-21.47,6.06-1.86,2.27-7.77,7.43-7.94,10.36-1.08,18.58,4.27,40.64,5.74,59.19.8,10.11,1.78,50.15,2.58,60.25,6.46-1.27,19.34-3.68,24.93-7.16-2.39-16.41-.1-59.45,1.07-76,.9-12.82,1.11-25.67.95-38.52C426.08,421.78,426.63,408.93,423.38,408.47Z"/><path class="cls-5" d="M401.3,320.14c.08,4.84,6.33,23.14,7.92,27.72,3.53,10.19,13.66-.46,17.36,9.67-1.05-18.26-2.57-36.49-6-54.44-.91-4.75-6.24-23.76-7.45-28.46-1,4-5.08,11.78-6.08,15.8S401.22,316.08,401.3,320.14Z"/><path class="cls-5" d="M404.66,431.89c.17-2.93.48-6.07,2.35-8.34,2.86-3.48,8.13-3.55,12.6-2.91a75.21,75.21,0,0,1,9.63,2c-.2-15.94-1-31.88-1.76-47.8-.29-5.78-.57-11.55-.9-17.33Q421,342.34,415.72,327c-1.58-4.58-3.17-9.25-3.25-14.1-.08-4.05.91-8.05,1.89-12l3-12.06c-4.84-18.64-12.2-36.65-23.26-52.36-.86-1.22-1.93-2.54-3.42-2.63-2.1-.13-3.43,2.15-4.25,4.09l-8.05,19.17c-2.9,6.92-1.91,8.38.69,15.28a153.36,153.36,0,0,1,8.32,35.63c2.95,24.33,1.71,48.91,2,73.35.26,23.92,2,47.8,3.81,71.65,0,11.5,1.74,23.28,2.59,34.75.68,9.08,4.74,49.65-.38,57.45a54.42,54.42,0,0,0,13.54-.94c-.8-10.1-1.6-46.58-2.4-56.68C405.05,469.1,403.58,450.47,404.66,431.89Z"/><path class="cls-8" d="M391.78,453.07c0,10,1.29,20,2.19,30,.42,4.64.78,9.29,1.15,13.94.91,11.45,1.76,23,1.33,34.5a63.51,63.51,0,0,1-.7,8,13.56,13.56,0,0,1-1.57,5,1.41,1.41,0,0,0,1.2,2.09,56.62,56.62,0,0,0,32.54-8.29,1.46,1.46,0,0,0,.64-1.57,124,124,0,0,1-.95-15.53c-.12-6.78,0-13.56.15-20.33q.48-18.62,1.74-37.2c1.26-18.93,1.39-37.85.77-56.81-.66-20-1.57-40-3-59.94-2.59-36.67-8.54-74.6-28.65-106.17-1.16-1.81-2.33-3.63-3.61-5.36-1-1.36-2.23-2.66-4-2.9-4.09-.55-5.67,4.39-6.9,7.31q-2.85,6.76-5.69,13.54c-1.47,3.5-3.52,7.3-3.2,11.23.29,3.59,2.08,7,3.27,10.36a132.66,132.66,0,0,1,4.1,13.95A190,190,0,0,1,387,317.82c1.58,19.94.87,39.95,1,59.93.1,20.2,1.3,40.37,2.74,60.51q.54,7.41,1.09,14.81c.14,1.77,2.91,1.79,2.78,0-1.47-19.74-2.94-39.49-3.55-59.28-.6-19.62.12-39.25-.4-58.87-.5-18.93-2.22-38.1-7.92-56.25-1.27-4-3.05-7.91-4.23-12-1-3.48.15-6.51,1.49-9.74q2.83-6.76,5.69-13.53a52.85,52.85,0,0,1,2.76-6.31,3.81,3.81,0,0,1,1.46-1.66c1.19-.56,2.12.56,2.78,1.41a91.23,91.23,0,0,1,7,11c2.16,3.78,4.15,7.67,6,11.64a174.84,174.84,0,0,1,9.06,24.81c5.17,18.07,7.75,36.75,9.3,55.45,1.62,19.47,2.42,39,3.21,58.56.8,19.72,1.16,39.49,0,59.2-.72,11.91-1.49,23.81-1.92,35.74-.45,12.55-.85,25.2,0,37.75.15,2.19.36,4.38.67,6.56l.64-1.57a54,54,0,0,1-31.14,7.91l1.2,2.09c2-3.19,2.22-7.66,2.48-11.31a163.82,163.82,0,0,0,.08-17.45c-.37-10.11-1.27-20.19-2.06-30.28-.88-11.28-2.49-22.52-2.52-33.86A1.39,1.39,0,0,0,391.78,453.07Z"/><path class="cls-8" d="M384.6,241.16a248.47,248.47,0,0,1,14.15,26.45,128.88,128.88,0,0,1,5.76,13.73c.77,2.39-.76,4.33-2,6.25s-2.48,3.6-3.75,5.38c-2.84,4-5.54,8.15-6.85,12.93a1.39,1.39,0,0,0,2.67.74c1.22-4.41,3.73-8.24,6.34-11.94,1.3-1.84,2.64-3.65,3.88-5.54s2.77-4,2.8-6.32-1.36-4.79-2.23-6.91q-1.43-3.51-3-7-3.12-7-6.67-13.83-4.08-7.84-8.72-15.38c-.94-1.52-3.34-.12-2.4,1.41Z"/><path class="cls-8" d="M396.81,297.1l14.88,56.31,1.85,7a48.86,48.86,0,0,1,1.58,6.95c.54,4.66-1.29,9-2.8,13.32L402.73,408l-10.91,31.1c-.59,1.69,2.09,2.41,2.68.73L414,384.26c1.56-4.42,3.58-8.94,4-13.66.37-4.51-1.24-9-2.38-13.34L408,328.5l-8.5-32.14a1.39,1.39,0,0,0-2.67.74Z"/><path class="cls-12" d="M204.61,212.88s1.61,5.82,16.36,17.85,59.26,37,71.77,43.06c23,11.06,55.22,36,60.27,69.71,0,0,5.19-34,8.79-49.4,3.34-14.24,11.77-32.72,8.8-49.41,0,0,7.89,3.11,12.93,13.2s3.4,29.48,3.4,29.48-4-21.67-12.32-16.29-20.37,85.74-20.37,85.74-9.51-50.05-51.41-72.16c0,0-10.09.77-11.25,17.46,0,0-31-16.3-52-36.09S198,226.85,204.61,212.88Z"/><path class="cls-14" d="M204.61,212.88s1.61,5.82,16.36,17.85,59.26,37,71.77,43.06c23,11.06,55.22,36,60.27,69.71,0,0,5.19-34,8.79-49.4,3.34-14.24,11.77-32.72,8.8-49.41,0,0,7.89,3.11,12.93,13.2s3.4,29.48,3.4,29.48-4-21.67-12.32-16.29-20.37,85.74-20.37,85.74-9.51-50.05-51.41-72.16c0,0-10.09.77-11.25,17.46,0,0-31-16.3-52-36.09S198,226.85,204.61,212.88Z"/><path class="cls-6" d="M437.93,401.33c8.17,1.8,23.08,3.19,31.29,1.58,7.6-1.49,7.17-21.53,8.9-28.93-.3-2.2-.57-4.45-.77-6.71C475.63,347.33,427.83,341,427.83,341c-41.12-21.22-53.32-9.19-53.32-9.19,7.59-5.19,6.39,11.32,2.89,23.53-.88,3.07-6.83,17.92-8.18,21.09,5.32,3.44,13.75,6,19.6,8.42C403.49,390.88,422.46,397.91,437.93,401.33Z"/><path class="cls-5" d="M478.12,374c-1.73,7.4-9.11,12.78-16.71,14.28-8.21,1.61-16.65-.29-24.81-2.09-15.47-3.42-31.1-6.58-45.77-12.56a103.81,103.81,0,0,1-16.89-8.72,176.39,176.39,0,0,1-9.11,18s39.72,8.43,51.45,14.06,36,13.38,53.07,11.07C484.49,406,480.43,391.21,478.12,374Z"/><path class="cls-7" d="M476,362.5c1.09,4.92.56,3,1.14,8.8.07.64.14,1.27.2,1.89"/><path class="cls-7" d="M477.35,373.19c2.4,21.68,6.82,33.83-12.42,35.53-19.78,1.74-36.08-9.32-57-14s-43.07-11.83-43.07-11.83,30.27-56,8.73-49.45c0,0,3.49-12.39,35.5,0s50.63,28.66,50.63,28.66"/><path class="cls-8" d="M429.09,342.37a97.54,97.54,0,0,1,26.31,7.83c1.61.74,3-1.66,1.4-2.4a99.84,99.84,0,0,0-27-8.1c-1.75-.27-2.51,2.41-.74,2.67Z"/><path class="cls-3" d="M416.05,343c8-2.09,12-4.21,20.11-3-.55-2.68-2.64-12.87-3.9-15.3-3.46-6.68-10.1-11.41-17.34-13.46s-15-1.59-22.3.31A58.77,58.77,0,0,0,359.35,335l.53-.37c4.29,5.53,15.85,18.33,20.72,23.36,1.47-.74,9.57-2.12,11-2.9C401.91,349.4,404.66,346,416.05,343Z"/><path class="cls-17" d="M410.25,334.07c-11.39,3-22,8.42-32.28,14.08-1.42.78-2.86,1.57-4.33,2.31a193.53,193.53,0,0,0,14.44,13.47c2,1.71,4.37,3.47,7,3.33s4.74-2.09,6.69-3.86a95.46,95.46,0,0,1,34.37-19.94,82.8,82.8,0,0,0-1.27-11A61.64,61.64,0,0,0,410.25,334.07Z"/><path class="cls-11" d="M360.55,335.67a57.47,57.47,0,0,1,30.18-22.1c12.82-3.92,28.44-3.17,37.64,7.8,5.18,6.18,5.87,14.38,6.4,22.09l1-1.34A97.55,97.55,0,0,0,404,359.63c-2.19,1.81-4.21,4.14-6.7,5.52-2.95,1.63-5.64,0-8-1.94a182.79,182.79,0,0,1-14.08-13,195.62,195.62,0,0,1-14.43-16.55c-1.09-1.41-3.05.57-2,2a193.21,193.21,0,0,0,27.85,29c2.2,1.86,4.58,3.79,7.57,4s5.57-1.68,7.71-3.59a102,102,0,0,1,15.13-11.36,94,94,0,0,1,19.37-8.89,1.43,1.43,0,0,0,1-1.34c-.51-7.39-1.13-15.17-5.32-21.53a29.91,29.91,0,0,0-15.5-11.54c-14-4.72-30.27-.11-42.24,7.84a60.53,60.53,0,0,0-16.34,16c-1,1.48,1.39,2.87,2.4,1.4Z"/><path class="cls-6" d="M129.61,320.93c-.53,13.55,5.56,32.42,12.68,44,3.56,5.78,14.11,16.74,19.4,21,4.23,3.39,14.94,26.59,20,28.51,14.16,5.4-1.72-17.26,13.27-15-8.16,3.55,31.81,40.46,23,39.4C232.23,449,245,453.21,260.5,461.52c9.13,4.89,18.87,7.69,28.94,10.1,1.26.3,12.8-3.39,14-3.76s5.47-4.9,6.54-5.74c11.56-9.11,11.76-6.27,23.56-15.05,5.51-4.1,13.45-10.46,16.83-16.44,4.1-7.24,4-14.69,11.69-17.84,5.34-2.19,7.71-8.09,12.08-11.86,5.63-4.86,12.92-18.15,13.66-25.54,1.48-14.77-4.44-35-14.35-41.12a38.76,38.76,0,0,0-17.19-3.64s-51.33,60-72,74.13c0,0-4.6-4.1-8.09.17,0,0,.16-15.13-15.73-35.11s-34.67-52.1-39.34-57.48S199,290,187.22,286.27c-4.3-1.35-12.28-4.13-21.39-4.83-6,8.7-20.11,7.33-24.53,16.92C138.11,305.26,129.91,313.33,129.61,320.93Z"/><path class="cls-5" d="M373.48,334.27c5.86,13.5,7,28.94,5.56,43.7-.74,7.4-2.44,15.35-8.07,20.21-4.36,3.77-10.3,5-15.63,7.17a37.75,37.75,0,0,0-18.64,15.9c-3.38,6-5.11,13.31-10.62,17.42-11.8,8.78-31-3.74-42.59,5.36a11,11,0,0,1-3.36,2.26,7.46,7.46,0,0,1-3.83-.19c-10.07-2.41-19.32-7.35-28.45-12.24-15.51-8.31-31.08-16.66-45.38-26.92a50.72,50.72,0,0,0,26.12-3.82,209.93,209.93,0,0,1-43.89-11.46c-5.07-1.93-10.13-4.1-14.36-7.49-5.29-4.24-9-10.14-12.52-15.92-7.11-11.54-14.47-24-13.94-37.54.31-7.6,3.11-14.87,6.3-21.78a186.56,186.56,0,0,1,15.65-27.49c-15.84-1.2-35.09,3.91-44.38,33.93-7.3,23.57,5.47,55,18.35,72.12,20.83,27.67,41.08,45.7,96.49,73.28s62.53,32.11,81.73,12,64.6-76.5,77.33-99.14l6.33-8.67S392.57,343.1,373.48,334.27Z"/><path class="cls-7" d="M283.4,405.33c15.72-9.89,72.89-74.7,72.89-74.7,31.43-.58,45.39,34.34,45.39,34.34S379,395.81,367.93,412.69s-37.25,50.63-57.62,66.74-64.6-13.78-87.87-26.59-62.86-36.66-82.64-65.35-26.37-55.43-15.13-81.22c8.14-18.7,29.09-31.7,58.77-21.42s44.23,34.72,62.27,64.4,29.1,36.67,30.27,56.46l1.16,19.78"/><path class="cls-8" d="M277.37,407a9.18,9.18,0,0,1,1.49-2.64c.51-.54,1.46-1.11,2.18-.61s.91,1.58,1.16,2.3c.39,1.18.78,2.35,1.18,3.53l4.72,14.11c.57,1.69,3.25,1,2.68-.74q-3-8.82-5.91-17.64c-.72-2.16-1.82-4.57-4.49-4.52-2.83.05-4.39,2.5-5.41,4.81-.72,1.62,1.67,3,2.4,1.4Z"/><path class="cls-18" d="M270.86,407.39a22.69,22.69,0,0,0,.26-2.86S271,405.69,270.86,407.39Z"/><path class="cls-17" d="M279.85,355.93c-1.71-4.15-15.21,8.39-20,14.9-4,5.39-9.7,12.08-9.7,17.46,1,.53,3.08-.39,7.61-4a58,58,0,0,1,7.3-10.86C270,367.64,276.19,362.69,279.85,355.93Z"/><path class="cls-3" d="M305.55,388.43c6.1-10.9,15-22.79,22.87-32.5,4.29-5.3,10.84-11.14,13.07-17.57-15.61-1.62-48.59-3.6-58.09,5.25-14.06,13.12-35.3,32-34.37,37.65.49,3-.23,6.32,1.08,7q6.21-7.92,12.21-16c4.83-6.51,10-13.42,17.53-16.36-3.66,6.76-9.84,11.71-14.83,17.55a58,58,0,0,0-7.3,10.86c.9-.71,1.89-1.51,3-2.44a85.48,85.48,0,0,0-2.33,23c.34,5.89.52,9.75,1.42,11.73.34-.81,5,1.49,5.27.65,1.32-4.58,1.81-9.1,2.75-13.78,3.09-15.34,9.52-31,20.24-42.45-1.7,6.83-8.47,11-12.17,17-3.51,5.67-4.09,12.63-4.3,19.29-.2,6.23-.16,12.48.11,18.71,0,.5.05,1,.08,1.51.9,2.33,2.52,3.74,5.37,2.75a5.82,5.82,0,0,0,1.25-.62c.28-1.79,4.12-6.89,4.07-8.68-.11-4.82,2-7.69,2.58-12.48.79-6.54,1.86-10.64,5.34-16.23,3-4.8,4.88-9.44,8.12-14.06,2.29-3.26.94-4.92,4.72-3.66-1.66,2.55-1.95,2.35-3.7,4.84a59.65,59.65,0,0,0-10.47,29.4c.86,5.23,2.49,12.5,5.31,16-.1-.93,5,1.65,4.94.72C298.37,405.64,300.67,397.14,305.55,388.43Z"/><path class="cls-17" d="M346.79,339.1s-5.21-.91-12.72-1.68a59.27,59.27,0,0,1-9.85,17.78c-7.86,9.71-18.81,16.94-24.91,27.84-4.87,8.71-6.17,19.09-5.23,29,.09.92.2,1.86.3,2.79,1.67,2.09,3.76,2.85,6.36,1.08,9.83-6.74-5.94-13.18,6.85-30.6s15.77-21.84,23.5-29.3S348.86,342,346.79,339.1Z"/><path class="cls-17" d="M271.6,397.36c.21-6.66.79-13.62,4.3-19.29,3.7-6,10.47-10.19,12.17-17-10.72,11.41-21.9,23.66-25,39-.94,4.68-1.09,9.51-2.41,14.09a22,22,0,0,1-.86,2.48c.85,1.88,2.35,2.07,5.27.65,3.92-1.89,5.29-6.75,5.78-9.89.1-1.7.26-2.86.26-2.86a22.69,22.69,0,0,1-.26,2.86c-.18,2.86-.21,7.26.93,10.19,0-.5-.06-1-.08-1.51C271.44,409.84,271.4,403.59,271.6,397.36Z"/><path class="cls-17" d="M304.9,362.05c-3.78-1.26-7.29,2.36-9.58,5.62q-4.86,6.93-9.33,14.12c-3.49,5.6-6.86,11.52-7.65,18.06-.58,4.78.27,9.61.39,14.43a30.88,30.88,0,0,1-.32,5.43c7.58-4.78,9.88-26.85,9.88-26.85s.22,2.55.78,6a59.65,59.65,0,0,1,10.47-29.4C301.29,367,303.24,364.6,304.9,362.05Z"/><path class="cls-11" d="M346.79,337.71c-10.06-.5-20.11-1.19-30.16-1.68s-20.61.15-30.06,4.34a29.91,29.91,0,0,0-6,3.49,47.33,47.33,0,0,0-4.78,4.51c-3.25,3.28-6.59,6.47-9.84,9.74-6.35,6.39-13,13.27-16.86,21.55a28.74,28.74,0,0,0-1.26,3.1,4.23,4.23,0,0,0,.14,2.85c.63,1.88,1.23,3.7,3.51,3.83a9.37,9.37,0,0,0,5.63-2,16.75,16.75,0,0,0,4.77-4.83,1.39,1.39,0,0,0-2.4-1.41,13.3,13.3,0,0,1-3.78,3.84,10.44,10.44,0,0,1-1.88,1.11c-.52.23-1.77.8-2.35.52-.38-.19-.46-.78-.61-1.19a2.83,2.83,0,0,1-.29-2.13,29.82,29.82,0,0,1,2.36-5.06c4.22-7.42,10.39-13.64,16.4-19.62,2.93-2.91,5.9-5.77,8.8-8.71a37.28,37.28,0,0,1,4.46-4.15,29.28,29.28,0,0,1,5.34-3c8.73-3.85,18.52-4.44,27.92-4,10.3.49,20.6,1.2,30.9,1.72,1.79.09,1.78-2.69,0-2.78Z"/><path class="cls-11" d="M278.91,356.55c-3.75,4.73-8,9-12,13.62a59.28,59.28,0,0,0-5.69,7.51,23.45,23.45,0,0,0-3.17,10c-.86,7.92-1.15,16-1.34,23.95-.07,2.78.33,5.89,3.19,7.17a7.12,7.12,0,0,0,7.17-1.19c2-1.64,2.87-4.41,3.58-6.83a41.59,41.59,0,0,0,1.65-8.19c.16-1.78-2.62-1.77-2.77,0a38.07,38.07,0,0,1-1.19,6.16,19.09,19.09,0,0,1-2.19,5.81,4.49,4.49,0,0,1-5.11,1.73,3.17,3.17,0,0,1-1.55-2.94c-.1-1.63,0-3.3.1-4.93.25-6.91.49-13.87,1.24-20.74a20.42,20.42,0,0,1,3.14-9.17,62.39,62.39,0,0,1,5.13-6.66c3.86-4.48,8-8.71,11.72-13.35,1.1-1.38-.85-3.36-2-2Z"/><path class="cls-11" d="M287.27,360.39c-3.28,6.21-8.91,10.76-12.07,17.07-3,6-4.35,12.62-5,19.25-.34,3.47-.48,7-.56,10.44s-.55,7.22.82,10.42c1.16,2.68,3.77,4.67,6.78,4.15,3.38-.59,5.36-3.55,6.48-6.54a117.87,117.87,0,0,0,3.64-12.65c1.08-4.35,2-8.74,2.79-13.15.31-1.75-2.36-2.5-2.68-.74a196.82,196.82,0,0,1-4.93,21c-.83,2.82-1.48,6.67-4,8.53-2.68,2-5.22-.08-5.9-2.88-.71-3-.26-6.39-.18-9.42s.24-6.27.55-9.39c.6-6.05,1.84-12.18,4.58-17.65,3.17-6.31,8.79-10.86,12.08-17.07.83-1.58-1.56-3-2.4-1.4Z"/><path class="cls-11" d="M304.53,360.49l-10.24,15.62c-3,4.52-6,9.29-7.07,14.67-1.13,5.61.12,11.22,2.2,16.45,1,2.58,2.2,5.13,3.45,7.61,1,2,2.59,3.94,5.1,3.82,5.16-.25,7.11-6.66,7.25-10.86.19-5.7-1.83-11.19.65-16.66a49.66,49.66,0,0,1,4.25-7.11q2.25-3.37,4.64-6.64,4.94-6.74,10.48-13,6.08-6.9,12.8-13.19,3.43-3.21,7-6.25c1.83-1.55,4.6-3.88,2.92-6.53-1-1.5-3.36-.11-2.4,1.4.5.79-.94,1.87-1.48,2.32-1,.85-2,1.69-3,2.56-1.93,1.67-3.82,3.39-5.68,5.14-3.66,3.45-7.18,7.06-10.55,10.79a190.83,190.83,0,0,0-18.36,23.84c-2.85,4.37-5,8.72-4.76,14.05.2,4.67,1.8,10-.46,14.41-.81,1.58-3.11,4.2-4.9,2.34a10.45,10.45,0,0,1-1.59-2.75c-.6-1.25-1.19-2.51-1.76-3.78-2.15-4.82-3.93-10.06-3.42-15.41.53-5.71,3.76-10.76,6.82-15.44,3.48-5.33,7-10.65,10.48-16,1-1.5-1.42-2.89-2.4-1.4Z"/><path class="cls-11" d="M312.72,357l4.27-4.27a1.42,1.42,0,0,0,0-2,1.44,1.44,0,0,0-2,0l-4.27,4.27a1.39,1.39,0,0,0,2,2Z"/><path class="cls-11" d="M292.6,355.23l6.62-5a1.55,1.55,0,0,0,.64-.83,1.42,1.42,0,0,0-.14-1.07,1.4,1.4,0,0,0-1.9-.5l-6.63,5a1.49,1.49,0,0,0-.63.83,1.38,1.38,0,0,0,.14,1.07,1.4,1.4,0,0,0,1.9.5Z"/><path class="cls-19" d="M262.55,110.37c1.49-7.11,7.52-17.82,10.83-24.29,3.52-6.9-20.35-20.62-14.71-25.8-10.15,5-36.46,20.87-45.38,55.54-2.32,9,6.81,17.69,20.29,30.11a69.5,69.5,0,0,1,10,10.89c-1.35-6.31,15.79-3.91,14.44-10.22C255.37,134,259.9,123,262.55,110.37Z"/><path class="cls-20" d="M307.66,88.8s1.32-8.46,17.7-3.7S452.2,127.37,452.2,127.37"/><path class="cls-21" d="M452.2,132.38s-20.3-6.18-19-11.44,20.67,1.74,20.67,1.74Z"/><path class="cls-22" d="M449.3,117.79c2.8,1.29,6.39,8.5,3.57,18.36-3.7,12.92-8.39,17.35-14.87,17.57-5.92.19-10.11-4.47-13.19-11.94-3.78-9.13-6.23-20,5.95-23C441.86,116.09,445.62,116.09,449.3,117.79Z"/><path class="cls-20" d="M449.3,117.79c2.8,1.29,6.39,8.5,3.57,18.36-3.7,12.92-8.39,17.35-14.87,17.57-5.92.19-10.11-4.47-13.19-11.94-3.78-9.13-6.23-20,5.95-23C441.86,116.09,445.62,116.09,449.3,117.79Z"/><path class="cls-23" d="M353.9,232.88c-24.6-2.85-39.09-18.28-58-34.32-14.47-12.3-30.41-41.22-36.56-59.15-1.64,6.59-5.52,39.26-5.18,46,5.28,14,14.77,33.61,30.45,44.27,22.11,15,36.12,29.58,74.7,27.85,23.47-1,28.3-9.67,28.87-18.41C379.93,236.31,364.72,234.13,353.9,232.88Z"/><path class="cls-9" d="M360.64,207.31a115.51,115.51,0,0,1-47.25-11.59c-7.33-3.57-14.34-8-20-13.84a40.39,40.39,0,0,1-11.13-21.57c8.29,16.07,22.89,26.34,38.95,32.17,8,2.92,16.27,6.31,24.7,7.66s23.46.63,31.92-.27c28-3,51.94-15.38,69.77-37.06-.36-.7-.84-9.36-1.43-10a41,41,0,0,0-3-2.88c-18.21.13-39.45,6-61.77,8-32.51,2.93-54.61-1-84.74-13.53-4.66-1.94-13.74-8.71-18.77-9.18s-23.66-11.54-27.19-7.93c-2.63,2.69,6.46,34.07,5.53,37.72,0,.09,0,.19-.07.29a107.22,107.22,0,0,0,31.92,46.41c18.87,16,42.87,25.61,67.47,28.47a106.72,106.72,0,0,0,32.7-1c.38-5.62-1-11.28-.31-15,1.51-8,3.11-15,6.12-19.29l-2.45.31C381.32,206.49,371,207.6,360.64,207.31Z"/><path class="cls-23" d="M395.82,202.82c4.22-3.78,17.18-2.06,33.82-18,15-14.37,21.34-23.5,17.95-30-17.83,21.68-44.14,36.48-72.12,39.44a97,97,0,0,1-25.42-.57,135.42,135.42,0,0,1-24.64-6.83c-16.06-5.84-32.14-13.49-43.16-26.55a40.39,40.39,0,0,0,11.13,21.57c5.67,5.86,12.68,10.27,20,13.84a115.51,115.51,0,0,0,47.25,11.59c10.35.29,20.68-.82,30.94-2.12l2.45-.31A12,12,0,0,1,395.82,202.82Z"/><path class="cls-3" d="M256.13,165.26A95.16,95.16,0,0,1,252,148.52a95.16,95.16,0,0,0,4.11,16.74c0-.1.05-.2.07-.29.93-3.65,2.24-7.35,4.87-10,3.53-3.62,9-4.83,14-4.36S284.84,153,289.5,155c30.13,12.56,61.61,26,94.12,23,22.32-2,43.52-12.41,59.52-28.06-9.79-8.66-34.08-26.47-37.52-30.45-3.88-4.49-13.08-17.41-17.32-22.1s-22.84-23.9-39.24-31.31-48.2-22.89-86.33-7.58c0,0-1.53.56-4.06,1.8-5.64,5.18-10,12.06-13.49,19a82.33,82.33,0,0,0-7.66,20.33c-2.65,12.62-.86,25.74,1.83,38.35,1.35,6.31,2.92,12.59,4.27,18.9,3.63,5.19,4.19,9.06,6.1,15.26.87,2.83,2.32,7.63,4.48,13.37A69.28,69.28,0,0,1,256.13,165.26Z"/><path class="cls-21" d="M306.19,194.49l2.73,9.23c.61,2.09,1.14,5.83,4.07,5.67,2.22-.12,4.44-2.12,6.13-3.39s3.8-3,6.17-3.21l-1.39-1.39a67.36,67.36,0,0,0,4,19.45,1.41,1.41,0,0,0,2.32.61l16.64-15-2.18-.28c3.18,7.15,3.1,15.25,6,22.5.41,1,1.94,1.49,2.54.33l10.35-20h-2.4c3.52,7.11,7.35,14,11.16,21a1.4,1.4,0,0,0,1.9.5c1.54-1.16,2-2.82,2.64-4.56q1.18-3.19,2.57-6.32a117.28,117.28,0,0,1,6-11.75,1.39,1.39,0,0,0-2.4-1.4,119.64,119.64,0,0,0-5.66,10.9c-.81,1.8-1.59,3.62-2.32,5.45-.37.93-.73,1.87-1.07,2.82-.28.76-.52,2-1.2,2.46l1.9.5c-3.81-7-7.65-13.9-11.16-21a1.4,1.4,0,0,0-2.4,0l-10.35,20,2.54.33c-3-7.48-3-15.77-6.29-23.16a1.41,1.41,0,0,0-2.19-.28l-16.63,15,2.32.62a64.4,64.4,0,0,1-3.88-18.71,1.41,1.41,0,0,0-1.39-1.39c-4.3.43-7.05,3.57-10.55,5.7a9.13,9.13,0,0,1-1.27.68c-.64.25-.77.14-1-.48-.47-1.24-.77-2.59-1.15-3.87l-2.44-8.29a1.39,1.39,0,0,0-2.68.74Z"/><path class="cls-4" d="M212.16,121.08C216.71,95,236.73,68.9,264.73,57.64S329.48,52,359.55,72.46s34.51,34.08,44.95,45.82,39.85,26.27,43.54,38.25-35,58.28-97.85,49.72-68.38-44.75-68.38-44.75"/><path class="cls-4" d="M395.82,202.82s-7.28,7.87-8,22.92S391,258.32,357,257.55s-65-16.93-82.39-38.33-22.95-37.39-26.9-55.72"/><path class="cls-11" d="M280.55,163.3c5.58,15.91,14.42,30.77,26.49,42.62a87.37,87.37,0,0,0,45.27,23.89,75.71,75.71,0,0,0,29.43-.34c1.75-.38,1-3.06-.74-2.68-16.67,3.58-34.33.72-49.54-6.79-14.8-7.3-27.07-19-36.08-32.71a114.54,114.54,0,0,1-12.16-24.73c-.58-1.67-3.27-.95-2.67.74Z"/><path class="cls-11" d="M387.1,204.84a50.71,50.71,0,0,0-6,22.36c-.06,1.79,2.72,1.79,2.77,0a47.78,47.78,0,0,1,5.59-20.95c.85-1.58-1.55-3-2.39-1.41Z"/><path class="cls-11" d="M289.72,160.7c-1.76-.6-3.14-2-5-2.45a5.79,5.79,0,0,0-5.47,1.64,13.69,13.69,0,0,0-3.12,5.32,21.35,21.35,0,0,0-1.2,6.87,1.39,1.39,0,0,0,2.78,0,18.65,18.65,0,0,1,.95-5.69,11.29,11.29,0,0,1,2.42-4.41,3,3,0,0,1,3.43-.89c1.56.61,2.83,1.74,4.43,2.28s2.42-2.1.74-2.67Z"/><path class="cls-24" d="M294,129.07a23.61,23.61,0,0,0-.36,4.07c0,10.73,7.29,19.43,16.28,19.43,6.71,0,12.48-4.86,15-11.8A46.44,46.44,0,0,1,294,129.07Z"/><ellipse class="cls-21" cx="305.86" cy="137.1" rx="5.81" ry="8.19"/><ellipse class="cls-24" cx="308.26" cy="143.86" rx="2.41" ry="2.74"/><path class="cls-3" d="M309.92,113.72c-7.82,0-14.35,6.58-15.92,15.35a46.44,46.44,0,0,0,30.89,11.7,22.84,22.84,0,0,0,1.3-7.63C326.19,122.42,318.9,113.72,309.92,113.72Z"/><path class="cls-4" d="M295.94,143.11a22.24,22.24,0,0,1-2.3-10,22.83,22.83,0,0,1,1.07-6.95"/><path class="cls-4" d="M298.62,119.17a15,15,0,0,1,11.3-5.45c9,0,16.27,8.7,16.27,19.42,0,7.19-3.27,13.47-8.14,16.83"/><path class="cls-11" d="M293.11,129.88c8.1,8.22,20.41,12.47,31.84,12.11,1.78-.06,1.79-2.84,0-2.78-10.72.34-22.27-3.57-29.88-11.29-1.25-1.28-3.22.69-2,2Z"/><path class="cls-25" d="M360.94,135c-4.31,2.65-13,7.4-12.71,23.25s6.11,23.52,16.15,24.31,21.12-.72,32.5-19.81c7.66-12.86,19.28-39.31,0-36.93S366.62,131.54,360.94,135Z"/><path class="cls-20" d="M203.69,113.17s1.32-8.46,17.71-3.7,126.83,42.27,126.83,42.27"/><path class="cls-20" d="M360.94,135c-4.31,2.65-13,7.4-12.71,23.25s6.11,23.52,16.15,24.31,21.12-.72,32.5-19.81c7.66-12.86,19.28-39.31,0-36.93S366.62,131.54,360.94,135Z"/><path class="cls-21" d="M348.23,156.75s-20.3-6.18-19-11.44,20.67,1.74,20.67,1.74Z"/><path class="cls-21" d="M406.27,128.67c2.36-2.12,4.69-3.83,8-3.94a12.83,12.83,0,0,1,4.89.59c.13.05.88.48,1,.56s.6.55.84.8c1.24,1.3,3.2-.67,2-2-2.3-2.4-5.47-2.86-8.69-2.76a12.79,12.79,0,0,0-6,1.63,23.87,23.87,0,0,0-4,3.11c-1.33,1.2.64,3.16,2,2Z"/><path class="cls-21" d="M408.42,138.74A17.56,17.56,0,0,1,422,134.07a1.39,1.39,0,0,0,0-2.78,20.36,20.36,0,0,0-15.52,5.48c-1.3,1.23.67,3.19,2,2Z"/><path class="cls-11" d="M412.32,168.82a8.68,8.68,0,0,0,2.35,3.32,5.27,5.27,0,0,0,3.56,1.58,2.42,2.42,0,0,0,2-1.17,2.88,2.88,0,0,0-.25-2.82,8.63,8.63,0,0,0-6.75-4.34,1.41,1.41,0,0,0-1.39,1.39,4.93,4.93,0,0,0,2.81,4.46,1.59,1.59,0,0,0,1.07.14,1.39,1.39,0,0,0,.33-2.54,3.68,3.68,0,0,1-.44-.23l-.18-.12c-.14-.09.23.2,0,0s-.25-.23-.36-.35-.19-.24-.05-.06,0-.06-.06-.1a3.18,3.18,0,0,1-.23-.4c-.12-.23.09.29,0,0a1.18,1.18,0,0,1-.07-.2c-.05-.14-.06-.3-.11-.45.1.34,0,.18,0,0a2.09,2.09,0,0,1,0-.25l-1.39,1.39a1,1,0,0,0,.17,0c-.24,0-.25,0-.11,0l.34.06c.24.06.48.12.71.2l.32.11c.32.12-.24-.12.07,0s.44.21.65.33.4.24.58.37l.14.11-.07-.06.3.25c.17.15.33.31.49.48l.2.23.11.13c.19.24-.18-.26,0,0s.26.37.38.57a3,3,0,0,1,.16.31.68.68,0,0,0,.09.17c-.09-.07-.08-.23,0,0,0,0,.08.25,0,0s0-.07,0,0a.65.65,0,0,1,.1-.36c-.1.18.1-.12.11-.12l-.09.09c.13-.19.26-.18.13-.12.37-.19.26-.09.16-.06s-.2,0,.12,0H418a.34.34,0,0,0-.14,0s.36.07.15,0l-.25-.06-.14,0c-.16,0,.31.15.1,0s-.4-.21-.6-.34l-.3-.2-.14-.1.1.08-.1-.08a6.19,6.19,0,0,1-.59-.55,3.85,3.85,0,0,1-.27-.3l-.12-.13c-.13-.16,0-.08,0,0-.13-.23-.32-.43-.45-.66s-.15-.26-.22-.4-.24-.54-.08-.15a1.56,1.56,0,0,0-.64-.83,1.38,1.38,0,0,0-1.07-.14,1.41,1.41,0,0,0-1,1.71Z"/><path class="cls-26" d="M309.12,99.06c4.19-.51,2.81,1.24,6.71,7.31s9.38,8.78,15.64,8.61,5.19,6.77,2.08,10.19-15.85,7.56-22.89-6.86S306.85,99.34,309.12,99.06Z"/><path class="cls-20" d="M309.12,99.06c4.19-.51,2.81,1.24,6.71,7.31s9.38,8.78,15.64,8.61,5.19,6.77,2.08,10.19-15.85,7.56-22.89-6.86S306.85,99.34,309.12,99.06Z"/></g><g id="Capa_2" data-name="Capa 2"><path class="cls-27" d="M285.2,366s11.56-3,15.81,4.36l-7.55,10.14s-11.9-6.45-15.78-4.71Z"/><path class="cls-28" d="M285.2,366s11.56-3,15.81,4.36l-7.55,10.14s-11.9-6.45-15.78-4.71Z"/></g></svg>