<svg xmlns="http://www.w3.org/2000/svg" xmlns:xlink="http://www.w3.org/1999/xlink" viewBox="0 0 600 600"><defs><style>.cls-1{fill:#ffce55;}.cls-2{fill:#6fb7d6;}.cls-3{fill:#f1f3f3;}.cls-4{fill:#d64316;}.cls-5{fill:#80aeff;}.cls-6{fill:#3a75c9;}.cls-7{fill:#a02e13;}.cls-13,.cls-16,.cls-17,.cls-18,.cls-19,.cls-21,.cls-24,.cls-8,.cls-9{fill:none;}.cls-8{stroke:#030304;}.cls-13,.cls-17,.cls-18,.cls-19,.cls-24,.cls-8,.cls-9{stroke-linecap:round;stroke-linejoin:round;}.cls-13,.cls-18,.cls-24,.cls-8{stroke-width:2.77px;}.cls-13,.cls-9{stroke:#1b5186;}.cls-19,.cls-9{stroke-width:3.33px;}.cls-10{fill:#dedbe1;}.cls-11{fill:#f2f3f2;}.cls-12{fill:#1d1d1b;}.cls-14{fill:#1b5186;}.cls-15{fill:#0080ca;}.cls-16{stroke:#6fb7d6;stroke-width:0.56px;}.cls-16,.cls-21{stroke-miterlimit:10;}.cls-17,.cls-18,.cls-19,.cls-21{stroke:#1d1d1b;}.cls-17,.cls-21{stroke-width:2.22px;}.cls-20{fill:url(#Degradado_sin_nombre_16);}.cls-22{fill:url(#Degradado_sin_nombre_16-2);}.cls-23{fill:#fbb03b;}.cls-24{stroke:#8e6a2b;}.cls-25{fill:#3c3c3b;}</style><linearGradient id="Degradado_sin_nombre_16" x1="4197.09" y1="163.72" x2="4197.09" y2="132.65" gradientTransform="matrix(-1, 0, 0, 1, 4413.28, 0)" gradientUnits="userSpaceOnUse"><stop offset="0" stop-color="#fcadab"/><stop offset="1" stop-color="#ded5ee"/></linearGradient><linearGradient id="Degradado_sin_nombre_16-2" x1="285.29" y1="168.55" x2="285.29" y2="134.27" gradientTransform="matrix(1, 0, 0, 1, 0, 0)" xlink:href="#Degradado_sin_nombre_16"/></defs><g id="Capa_3" data-name="Capa 3"><g id="a"><rect class="cls-1" width="600" height="600"/></g></g><g id="Capa_2" data-name="Capa 2"><path class="cls-2" d="M201.09,215.34s29.13,79.68,74.09,83.74,92-57.7,95.12-65.8-2.5-27.59-2.5-27.59-5.14-62-10.85-99.07c-4.43-28.83-17.47-51.7-65.32-52.67s-62,32.3-63.72,38.09S203.4,208,201.09,215.34Z"/><path class="cls-3" d="M219.15,176.81l15,67.7s18.45,13.44,27.68,26.36,20.56,44,28.47,43.22S331.79,260,331.79,260L345,170.29S316,219,285.08,220.86C238.09,223.76,230.75,196.05,219.15,176.81Z"/><path class="cls-4" d="M231.42,499.2l2-25.4s19.38,12.94,52.32,12.94S339,472,339,472v26.79s11.31,6.15,22.06,5.3,19.62-2.3,19.62-2.3l-3.58,101.16h-179l-6-100.87s5.45,2.58,19.62,1.72S231.42,499.2,231.42,499.2Z"/><path class="cls-5" d="M234,473.59s14.82,13.7,49.22,13.7,54.31-13.47,54.31-13.47l-1.69-67.66-48.21-6.11-50.35,19.57Z"/><path class="cls-4" d="M237.31,419.62s-2.37,30.78-2.83,38.13-3.39,42.09-3.39,42.09-9.5,5.55-25,4.42-24.44-4.75-24.44-4.75-7.58-30.33-8.93-40.85a133.64,133.64,0,0,1-1-19.69s1.81,2.72,7.8,2.26S237.31,419.62,237.31,419.62Z"/><path class="cls-4" d="M318.31,389.92s-6.09-19.42-5.52-35.86,3.54-23.67,3.54-23.67-36.71,8.22-42.95,11.19-32.6,13.89-39.54,19.42-6.66,13.33-9.07,16.16-5.11,3.54-5.81,2.41-2-10.49-2-10.49l1-8.36s-5.38,11.48-11.05,14-5.67.57-6.1-1.13.57-6.67.57-6.67-4.68,5.82-8.08,3,1.7-11.48,3-14,5-10.77,5-10.77-7,1.56-8.08.56,4.39-7.65,4.39-7.65l2.7-2.13s25.08-12.61,32-13.32,4.68-.42,4.68-.42l-11.77-62.51s-17.71-18.14-21-23.81-.71-18.71-.71-18.71L202.94,205s-9.92,8.36-12.47,12.47a25.67,25.67,0,0,0-3.26,8.08l-46.63,37.56s-16.3-1.13-24.1,21.69,6,61.65,19.13,96.66,32.46,55.28,37.14,58.26,11.76,1.27,14.46.56S284.3,399,318.31,389.92Z"/><path class="cls-4" d="M340.42,318.91l12.48-61.38s13.75-12.89,17.15-21.68,1.18-19.17,1.18-19.17l-2-13.31s10.85,7,13.26,10.65,5.53,12.47,5.53,12.47l30.19,19.71a24.39,24.39,0,0,1,24.24,5.1c11.62,10.2,15.44,30.05,8.36,65.05s-23,94.12-23.81,96.1a16.4,16.4,0,0,1-3.26,4.25s-16.16-.42-18.57-.7l-2.41-.29S400,448,397.4,460.36,389,499.48,389,499.48A101.65,101.65,0,0,1,368.63,504c-10.2,1-29.34-4-29.34-4l-3.68-93.13-50.32-6.8,32.46-9.92s-3.83-27.36-4.4-33.31-.28-15-.28-15l.85-1.28,53.29,13.18,5.39-21.4S365.23,321.6,356,318.76,340.42,318.91,340.42,318.91Z"/><path class="cls-5" d="M281.29,286.66s-6.68-16.89-32.07-30.62-46.06-39.3-46.06-39.3-.28,13.28,2.25,19.7,20.24,25.11,20.24,25.11l7.5,35.77,3,24.66a233.45,233.45,0,0,1,23.3,8,202.12,202.12,0,0,1,20,10.39l7.32-1.27L318.6,329s10.21-7.5,13.37-8.59,9-2.25,9-2.25l10.75-60.25s15.18-15.36,17.8-22.95a41,41,0,0,0,2.25-14.09S317,261,306.86,270.31s-20.78,38.57-20.78,38.57Z"/><path class="cls-6" d="M235.24,440.42s18-10.36,50.17-10.36,51.27,13.14,51.27,13.14l-1.07-36.28L288.92,400l-52.84,21.19Z"/><path class="cls-6" d="M226.31,263.21l7.33,38.27s-1.24-12.68,21.87-13.55,29.57,16,29.57,16-2-13.54-2.6-14.78-8.83-11.68-22.12-17.4-18.89,4.35-19.26,5.34-2.24,4.48-2.24,4.48S235.13,269.55,226.31,263.21Z"/><path class="cls-6" d="M286.08,305.83s-1.49-15.29,18.14-27.71,24.85-7.46,27.21-5.22,4.35,8.82,4.35,8.82l15.41-22.49L344,293.4s-3.11-5.84-21.87-7.2S286.08,305.83,286.08,305.83Z"/><path class="cls-7" d="M217.81,294.53a267.12,267.12,0,0,0-17.76-25.21s-7.3-27.07-5-40.25,8.88-14.32,8.88-14.32l-.15-11.32s-15,11.18-19.05,30.65,9.65,49.49,9.65,49.49l15.85,14.68s-2.87,14.47-4.73,22.92-2.86,12.6-2.86,12.6l9.16-3.87s1.72-11.74,3.3-16,9.45,0,9.45,0S225.11,306.7,217.81,294.53Z"/><path class="cls-7" d="M151,265.14s-15.12,6.68-18.06,28.66S170,400.41,177.9,412s44,1,72.83-9.62,67-17.87,67-17.87l.4,4.71s-39.27,12.17-69.31,25.33-64.59,29.06-72.25,25.91-26.5-20.81-42.8-65.57S110,298.12,118.6,279.28,151,265.14,151,265.14Z"/><path class="cls-7" d="M194.58,283.2c-.47-.7-11.21-20.31-10.86-35.37S185,227.75,185,227.75l-44.83,35.49s5.6.7,8.4.94a14.48,14.48,0,0,1,4.56,1.05s8.4-5.84,14.59-9.46,16,18.45,18.21,29.3l14.48,49.85,2.21-1.15s5.84-27.68,6-30.25.47-6.54.47-6.54S195.05,283.9,194.58,283.2Z"/><path class="cls-7" d="M358.3,294.53a267.12,267.12,0,0,1,17.76-25.21s7.3-27.07,5-40.25-8.88-14.32-8.88-14.32l-2.34-11.34s17.52,11.2,21.53,30.67-9.64,49.49-9.64,49.49l-12.18,11.84s-.81,17.31,1.06,25.76,2.86,12.6,2.86,12.6l-9.17-3.87s-1.71-11.74-3.29-16-9.45,0-9.45,0S351,306.7,358.3,294.53Z"/><path class="cls-7" d="M389.52,226.49,416.38,246a69.16,69.16,0,0,0-23.79,29.63c-8.14,19.65-20.26,55.11-20.26,55.11l-6-7.37L364,298.79l18.72-16.12s9.37-17,10-34.54S389.52,226.49,389.52,226.49Z"/><path class="cls-8" d="M369.14,203.41s16.65,5.83,21.54,30.67-11.06,55.45-11.06,55.45-20.33,5.21-28.76,24.33"/><path class="cls-7" d="M193.34,436.71c-14,5-17.52,5.41-20.69,1.87v13.05s38.4,6.89,61.88-10.07l1.65-21.74S207.32,431.68,193.34,436.71Z"/><path class="cls-7" d="M193.59,519s26.24,4.74,44-3.71l2.67-15s32,8,86.89.14l1.48,13.65s22.83,7.26,51.15.29l.45-11.71s-5,2.22-20,.89-21.5-5-21.5-5L338,473.77s-20.17,12.9-50.71,12.9a116.11,116.11,0,0,1-54-13.93l-2.24,27.1s-12,3.44-21.34,3.59a166.17,166.17,0,0,1-16.9-.59Z"/><path class="cls-7" d="M335.87,406.16l1,19.19s21.62,14.91,63.93,7.26l2-16.9Z"/><path class="cls-7" d="M312.44,392s93.57,11.74,96.74,12.3,18.45-46.41,30.56-91.7-2.42-75.67-30-61.51c0,0,5.59-10.25,25-5.4s19,33.36,17,60.39-25.72,108.85-27,110-7.83,1.67-20.69-.38-116.3-15.6-116.3-15.6Z"/><path class="cls-9" d="M223.86,109.79l6.36-23.54s12.4-37.31,66-32.49c50,4.5,60.92,30.56,62.66,66.65s11.38,101.1,11.38,101.1"/><path class="cls-10" d="M244.38,252.49l-4.31-43.82a59.91,59.91,0,0,0,38.55,13.21c29.27-.58,54.21-29.81,54.21-29.81l-8.84,66s-25.69,20.41-28.05,23.85-9,21.27-9,21.27a151.94,151.94,0,0,0-12-26.21c-8.17-14.18-30.51-24.49-30.51-24.49"/><path class="cls-3" d="M213.92,158.79s4.66-8.68,9.14-12.64,13.87-3.39,20.07,1.09,11.87,4,23.58,0,35.65,15.4,59.76-.82,28.3,12.05,14.34,31.92S305.48,225,267.89,221.51,214.73,176,213.92,158.79Z"/><path class="cls-11" d="M231.44,119.76a13.27,13.27,0,0,1,.22,2.47c0,6.5-4.41,11.77-9.86,11.77-4.07,0-7.57-2.95-9.07-7.15A28.12,28.12,0,0,0,231.44,119.76Z"/><ellipse class="cls-12" cx="224.26" cy="124.62" rx="3.52" ry="4.96"/><ellipse class="cls-11" cx="222.8" cy="128.72" rx="1.46" ry="1.66"/><path class="cls-2" d="M221.8,110.46c4.74,0,8.69,4,9.64,9.3a28.12,28.12,0,0,1-18.71,7.09,13.66,13.66,0,0,1-.79-4.62C211.94,115.73,216.35,110.46,221.8,110.46Z"/><path class="cls-13" d="M230.27,128.27a13.56,13.56,0,0,0,1.39-6A13.81,13.81,0,0,0,231,118"/><path class="cls-13" d="M228.65,113.76a9.06,9.06,0,0,0-6.85-3.3c-5.45,0-9.86,5.27-9.86,11.77a12.31,12.31,0,0,0,4.93,10.19"/><path class="cls-14" d="M230.41,118.67c-4.53,4.58-11.35,6.88-17.72,6.69-1.78-.06-1.78,2.72,0,2.77,7.08.22,14.66-2.41,19.68-7.49,1.26-1.27-.7-3.24-2-2Z"/><path class="cls-2" d="M367.91,353.57h-3.22L314.52,340.9s-1.82-12.57,11.5-17.3,23.52-6.44,34.26-2.58A17.3,17.3,0,0,1,372,334.67Z"/><path class="cls-15" d="M315.06,336.28s27.61-12.89,55.32.86L367.8,352.6l-7.84-.21-46-11.8Z"/><path class="cls-8" d="M200.27,339.4s6.76-15.2,9.46-41.51"/><path class="cls-8" d="M201.26,337.68s-7.87-29-12.55-44.52S173,270.29,166.83,269.55"/><line class="cls-8" x1="138.42" y1="263.74" x2="187.05" y2="225.12"/><path class="cls-11" d="M335.52,120.3a15.44,15.44,0,0,1,.25,2.83c0,7.44-5,13.47-11.28,13.47-4.67,0-8.67-3.37-10.39-8.18A32.21,32.21,0,0,0,335.52,120.3Z"/><ellipse class="cls-12" cx="327.3" cy="125.87" rx="4.03" ry="5.68"/><ellipse class="cls-11" cx="325.63" cy="130.56" rx="1.67" ry="1.9"/><path class="cls-2" d="M324.49,109.66c5.42,0,9.94,4.56,11,10.64a32.21,32.21,0,0,1-21.42,8.12,15.75,15.75,0,0,1-.9-5.29C313.2,115.69,318.25,109.66,324.49,109.66Z"/><path class="cls-13" d="M334.17,130a15.32,15.32,0,0,0,1.6-6.91,15.74,15.74,0,0,0-.74-4.82"/><path class="cls-13" d="M332.32,113.43a10.4,10.4,0,0,0-7.83-3.77c-6.24,0-11.29,6-11.29,13.47a14.12,14.12,0,0,0,5.64,11.67"/><path class="cls-14" d="M334.48,119.2c-5.22,5.28-13.08,7.94-20.42,7.71-1.79,0-1.78,2.72,0,2.78,8.05.24,16.67-2.75,22.38-8.52,1.26-1.28-.7-3.24-2-2Z"/><path class="cls-14" d="M206.75,204.39l14.33,14S208.65,216.35,206.75,204.39Z"/><path class="cls-14" d="M208.73,193.81l14.33,14S210.62,205.77,208.73,193.81Z"/><path class="cls-14" d="M210.59,182.74l14.33,14S212.49,194.7,210.59,182.74Z"/><path class="cls-14" d="M365.57,204.39l-14.33,14S363.68,216.35,365.57,204.39Z"/><path class="cls-14" d="M363.59,193.81l-14.32,14S361.7,205.77,363.59,193.81Z"/><path class="cls-14" d="M361.73,182.74l-14.33,14S359.84,194.7,361.73,182.74Z"/><path class="cls-8" d="M236.07,322.1s-4.55-33.36-10.7-60.66"/><path class="cls-8" d="M340.84,319.09s4.53-31.83,10.68-59.13"/><line class="cls-8" x1="390.17" y1="227.66" x2="417.86" y2="245.4"/><path class="cls-8" d="M402.51,260.23s8.14-19.49,28.38-14.8,27.14,24.92,19.74,70.33S425.21,416,425.21,416s.25,1.73-9.62,1c-6.2-.46-127.59-16.78-127.59-16.78"/><path class="cls-9" d="M316.56,330.86s9.45-11.28,29-12.35S372,332.41,372,332.41"/><line class="cls-8" x1="314.27" y1="341.38" x2="368.54" y2="354.03"/><path class="cls-8" d="M366.94,354.43s8.92-4.12,31.87-.42"/><path class="cls-8" d="M367.22,354.51s9.13-47.14,28.13-84.9"/><path class="cls-8" d="M233.38,473.8S277,504,337.32,473.8"/><line class="cls-8" x1="285.88" y1="486.75" x2="285.88" y2="400.66"/><path class="cls-8" d="M171.5,438.51s1,36.64,9.84,60.74c0,0,22.13,10.33,50.17.5l4.67-79.93"/><path class="cls-8" d="M402.06,416.82s-4.48,58.33-13.33,82.43c0,0-22.14,10.33-50.17.5l-3.09-93"/><line class="cls-8" x1="209.82" y1="469.76" x2="218.74" y2="465.02"/><line class="cls-8" x1="324.33" y1="449.7" x2="332.13" y2="444.4"/><line class="cls-8" x1="325.44" y1="440.78" x2="330.74" y2="434.93"/><line class="cls-8" x1="192.27" y1="502.63" x2="197.66" y2="602.17"/><line class="cls-8" x1="282.26" y1="504.31" x2="282.26" y2="561.98"/><path class="cls-8" d="M293.12,503.47V551s-4.7,7.43-8.93,10.21-4.08,41.69-4.08,41.69"/><line class="cls-8" x1="380.33" y1="502.35" x2="377.54" y2="601.82"/><path class="cls-8" d="M203.06,216.6s10.5,16.18,32.52,30.36S282.12,270.68,286,306.2v31.15"/><path class="cls-8" d="M224.54,313.86c-8.43-19.12-28.76-24.33-28.76-24.33s-15.94-30.6-11.06-55.45,19.05-30.65,19.05-30.65"/><path class="cls-8" d="M286.13,307.35s4-26,33.2-46a593,593,0,0,0,52.56-40.83"/><path class="cls-8" d="M203,216.68s-6.15,13.28,11.07,31.23,25.33,33.94,25.33,33.94,1-8.61,8.6-11.31,22.77,6.34,30.64,14.45"/><path class="cls-8" d="M372.32,219.83s3.11,12.46-11.29,28.08c-16.86,18.29-25.33,33.94-25.33,33.94s-1-8.61-8.61-11.31-21.24,5-29.11,13.12"/><path class="cls-8" d="M157.2,266.9a27.72,27.72,0,0,0-29.86,1.72c-25.82,18.33-7.24,74,8.5,112.34s33.94,59.27,41.07,60.25,33.69-10.32,60.5-21.88,63-25.19,80.66-29.13c0,0-9.67-35.23-1.94-60.37,0,0-30.27,5.88-67.41,22.11"/><path class="cls-16" d="M202.43,365.2a15.91,15.91,0,0,0,1-2S203,364,202.43,365.2Z"/><path class="cls-15" d="M223.77,330.86c0-3.47-13.34,1.63-18.69,4.9-4.43,2.71-10.45,5.86-12,9.73.54.66,2.32.6,6.6-.64a44.68,44.68,0,0,1,8.39-5.68C213.33,336.43,219.2,334.65,223.77,330.86Z"/><path class="cls-2" d="M232.82,361.63c7.53-6.06,17.37-12,25.82-16.71,4.61-2.56,11-4.86,14.47-8.83-10.74-5.68-33.84-16.65-43.22-13-13.88,5.35-34.6,12.76-35.57,17.08-.51,2.28-2,4.46-1.25,5.36q6.75-3.9,13.39-8c5.35-3.27,11-6.74,17.31-6.67-4.57,3.79-10.44,5.57-15.71,8.31a44.68,44.68,0,0,0-8.39,5.68c.85-.25,1.8-.54,2.86-.88a66.2,66.2,0,0,0-8.33,15.84c-1.45,4.32-2.45,7.14-2.38,8.82.48-.48,3.19,2.53,3.6,2,2.27-2.91,3.93-6,6-9.1C208,351.41,217.2,342,228.2,336.92c-3.2,4.41-9.28,5.47-13.67,8.69-4.16,3.05-6.58,7.88-8.66,12.6q-2.93,6.63-5.34,13.47c-.13.36-.26.73-.38,1.1,0,1.93.73,3.41,3.06,3.53a5.61,5.61,0,0,0,1.08-.08c.72-1.21,5-3.75,5.43-5.06,1.31-3.49,3.66-4.94,5.46-8.21,2.46-4.46,4.42-7.09,8.54-10.1,3.52-2.58,6.23-5.37,9.89-7.75,2.59-1.67,2.1-3.26,4.45-1.26-1.93,1.35-2.08,1.13-4.06,2.41a46.24,46.24,0,0,0-16,18.07c-.9,4-1.83,9.7-.83,13,.2-.7,3.13,2.63,3.34,1.94C222.68,371.9,226.79,366.47,232.82,361.63Z"/><path class="cls-15" d="M276.69,338.16s-3.47-2.16-8.64-4.89a45.69,45.69,0,0,1-12.22,9.91c-8.44,4.69-18.4,6.72-25.93,12.77-6,4.85-10,11.92-12.15,19.33-.21.69-.4,1.39-.6,2.09.6,2,1.88,3.13,4.25,2.61,9-2-.45-11.18,13.78-20s17.64-11.11,25.34-14.23S277.36,340.8,276.69,338.16Z"/><path class="cls-15" d="M205.87,358.21c2.08-4.72,4.5-9.55,8.66-12.6,4.39-3.22,10.47-4.28,13.67-8.69-11,5.08-22.57,10.65-29.23,20.77-2,3.08-3.53,6.51-5.8,9.41a17.79,17.79,0,0,1-1.35,1.53c.07,1.6,1.1,2.17,3.6,2,3.36-.23,5.75-3.32,7-5.43.57-1.19,1-2,1-2a15.91,15.91,0,0,1-1,2c-1,2-2.24,5.15-2.28,7.58.12-.37.25-.74.38-1.1Q202.95,364.84,205.87,358.21Z"/><path class="cls-15" d="M240,342.5c-2.34-2-5.91-.41-8.49,1.27q-5.51,3.57-10.79,7.43c-4.12,3-8.26,6.28-10.72,10.75-1.8,3.27-2.59,7-3.89,10.47a24.07,24.07,0,0,1-1.8,3.81c6.82-1.24,14.86-16.42,14.86-16.42s-.58,1.89-1.17,4.52a46.24,46.24,0,0,1,16-18.07C236,345,238.06,343.85,240,342.5Z"/><path class="cls-14" d="M277.39,337c-7.27-3.37-14.47-6.87-21.75-10.21-7.54-3.46-16.07-6.26-24.48-5.28-3.67.44-6.81,1.95-10.17,3.36-3.19,1.34-6.41,2.64-9.59,4-6.08,2.67-12.46,5.66-17.25,10.38-1.2,1.18-2,2.11-2.14,3.83-.09,1.5-.12,2.95,1.35,3.79,2.82,1.61,7.51.1,9.87-1.71,1.41-1.06,0-3.48-1.4-2.39a10.88,10.88,0,0,1-3.86,1.7,7.09,7.09,0,0,1-1.84.24,4.43,4.43,0,0,1-.81-.07c-.16,0-.68-.23-.63-.15a6.54,6.54,0,0,0,.09-1.12,1.43,1.43,0,0,1,.47-1.27,25.46,25.46,0,0,1,2.9-2.69c4.79-3.84,10.6-6.42,16.21-8.82,2.76-1.19,5.56-2.32,8.33-3.49,3.06-1.29,5.95-2.66,9.31-2.94,7.6-.63,15.2,1.77,22,4.89,7.36,3.36,14.63,6.9,22,10.3,1.61.75,3-1.64,1.4-2.39Z"/><path class="cls-14" d="M222.64,330.83c-4.11,2.33-8.47,4.2-12.66,6.39a41.55,41.55,0,0,0-6.52,4,18.44,18.44,0,0,0-4.89,6.22c-2.79,5.34-5.3,10.87-7.69,16.41-.95,2.19-1.65,4.77.27,6.67a5.85,5.85,0,0,0,5.5,1.29c2-.54,3.51-2.26,4.77-3.86a33,33,0,0,0,3.67-5.48c.82-1.58-1.58-3-2.39-1.4a31.24,31.24,0,0,1-2.53,4,15.22,15.22,0,0,1-3.26,3.62c-1.08.74-3.1.88-4-.3-.62-.85-.12-2,.23-2.9.52-1.27,1.1-2.52,1.67-3.77,2.11-4.69,4.17-9.51,6.71-14,2.32-4.08,6.23-6.28,10.28-8.37s8.24-3.91,12.2-6.16a1.39,1.39,0,0,0-1.4-2.39Z"/><path class="cls-14" d="M227.49,336.08a43.37,43.37,0,0,1-7.29,4.46,34.06,34.06,0,0,0-6.58,4.53,42.85,42.85,0,0,0-9.05,12.53c-1.19,2.33-2.25,4.71-3.28,7.11s-2.51,5.06-2.39,7.76a5.24,5.24,0,0,0,3.91,5.17c2.79.57,5.23-1.09,7-3.09a126.31,126.31,0,0,0,12-16.65c.95-1.52-1.45-2.91-2.39-1.4a154.1,154.1,0,0,1-9.36,13.33c-1.42,1.79-3.14,4.66-5.58,5.1-2.68.47-3.14-2.36-2.59-4.33a51.59,51.59,0,0,1,2.78-6.82c.9-2,1.85-4,2.9-6a38.92,38.92,0,0,1,8-10.76c4.13-3.74,9.6-5.41,13.86-9,1.37-1.15-.6-3.1-2-2Z"/><path class="cls-14" d="M240.13,340.93q-6,4.2-12.09,8.4c-3.33,2.32-6.65,4.75-9,8.09s-3.37,7.75-3.5,12a64.52,64.52,0,0,0,.19,6.67c.12,1.76.29,3.74,1.85,4.86,3.35,2.41,7.42-1.14,9-4,2-3.56,2.06-8,4.42-11.35a18.63,18.63,0,0,1,4.73-4.29q2.75-1.94,5.58-3.73,5.77-3.68,11.89-6.81a142.55,142.55,0,0,1,14.24-6.34c2.38-.91,4.79-1.73,7.2-2.54,1.95-.64,3.78-1.81,3.4-4.1-.29-1.76-3-1-2.68.74.08.43-4.39,1.67-4.86,1.83-1.91.67-3.81,1.38-5.68,2.13-3.81,1.51-7.55,3.16-11.21,5A128.07,128.07,0,0,0,232.83,360a16.75,16.75,0,0,0-6.26,8.63c-1,3.16-1.53,7.11-4.32,9.3a3.86,3.86,0,0,1-2.3.94c-1,0-1.26-.8-1.38-1.67a44.43,44.43,0,0,1-.3-5.66c-.06-3.82.27-7.8,2.17-11.21,2-3.62,5.49-6.15,8.83-8.49,4.08-2.85,8.18-5.67,12.26-8.51,1.46-1,.07-3.42-1.4-2.4Z"/><path class="cls-14" d="M247.33,341.37l4.3-1.83a1.34,1.34,0,0,0,.64-.83,1.38,1.38,0,0,0-1-1.7l-.37-.05a1.34,1.34,0,0,0-.7.19l-4.3,1.82a1.4,1.4,0,0,0-.64.83,1.42,1.42,0,0,0,.14,1.07,1.4,1.4,0,0,0,.83.64l.37.05a1.34,1.34,0,0,0,.7-.19Z"/><path class="cls-14" d="M233.34,334.32l6.2-1.67a1.39,1.39,0,0,0-.73-2.68l-6.21,1.68a1.39,1.39,0,1,0,.74,2.67Z"/><line class="cls-17" x1="228.99" y1="174.29" x2="235.86" y2="170.76"/><path class="cls-3" d="M224.29,164.92s20.31,11.65,49.47,12.26,60.59-20.4,60.59-20.4l3.76-3.15s-22.59,42.2-64.09,44S224.29,164.92,224.29,164.92Z"/><path class="cls-9" d="M213.92,161s12.61,55.83,54,60.5S339.2,184.75,345,170.29"/><line class="cls-9" x1="202.05" y1="215.53" x2="219.59" y2="131.65"/><path class="cls-9" d="M245.1,161s-7.31-9.29-7.73-18.62c-.39-8.59,11-14.28,22.1-20.21"/><path class="cls-17" d="M221.8,162.11c8.45,4.3,16.24,8.23,16.24,8.23s34.77,16,70.55.21c0,0,20.18-9.79,32.35-19.39"/><path class="cls-17" d="M221.8,162.11s10.28,32.68,50.94,35.45c37.21,2.53,68.2-46.4,68.2-46.4"/><polyline class="cls-17" points="236.48 170.65 241.97 185.93 251.47 175.13 261.94 196.17 272.38 177.63 283.31 196.55 292.99 175.65 305.12 187.99 309.95 171.28 318.96 177.51 324.33 162.11"/><path class="cls-17" d="M338.92,148.76s5,1.14,3.87,7"/><path class="cls-14" d="M262.81,146.8l-2.69,1.52a1.39,1.39,0,0,0,.33,2.54,1.53,1.53,0,0,0,1.07-.14l2.69-1.52a1.39,1.39,0,0,0,.5-1.9,1.4,1.4,0,0,0-.83-.64,1.47,1.47,0,0,0-1.07.14Z"/><path class="cls-12" d="M305.51,139.33s10.06-1.22,10.43-5.94-9.45-2.73-9.45-2.73Z"/><line class="cls-18" x1="307.52" y1="133.41" x2="356.43" y2="126.05"/><path class="cls-19" d="M234.68,127.34s18.23-9.46,31.37,0"/><path class="cls-19" d="M234.68,136s17.94-13.94,31.37,0"/><path class="cls-20" d="M226.26,121.77c7,1.44,11.51,8.71,10.1,16.13a69.07,69.07,0,0,1-3.46,12.62c-3.79,9.21-22.87,9.07-29.27,3.49-5.29-4.62-7-15.91-7.82-24.18a6.2,6.2,0,0,1,4-6.53A50.61,50.61,0,0,1,226.26,121.77Z"/><path class="cls-21" d="M226.26,121.77c7,1.44,11.51,8.71,10.1,16.13a69.07,69.07,0,0,1-3.46,12.62c-3.79,9.21-22.87,9.07-29.27,3.49-5.29-4.62-7-15.91-7.82-24.18a6.2,6.2,0,0,1,4-6.53A50.61,50.61,0,0,1,226.26,121.77Z"/><path class="cls-22" d="M274.85,122.26c-7.23,1.59-12,9.61-10.48,17.8A79.87,79.87,0,0,0,268,154c3.93,10.16,23.72,10,30.37,3.85,5.49-5.1,7.28-17.56,8.11-26.69a6.89,6.89,0,0,0-4.15-7.21A49.73,49.73,0,0,0,274.85,122.26Z"/><path class="cls-21" d="M274.85,122.26c-7.23,1.59-12,9.61-10.48,17.8A79.87,79.87,0,0,0,268,154c3.93,10.16,23.72,10,30.37,3.85,5.49-5.1,7.28-17.56,8.11-26.69a6.89,6.89,0,0,0-4.15-7.21A49.73,49.73,0,0,0,274.85,122.26Z"/><path class="cls-23" d="M221.77,341.87s9.22.23,10.82,6.6l-7.76,5.94s-7.48-7.33-10.73-6.86Z"/><path class="cls-24" d="M221.77,341.87s9.22.23,10.82,6.6l-7.76,5.94s-7.48-7.33-10.73-6.86Z"/><path class="cls-25" d="M328.4,88.38c-3.51-.41-2.34,1.06-5.57,6.17S315,102,309.77,101.86s-4.31,5.72-1.68,8.56,13.34,6.24,19.15-5.9S330.31,88.6,328.4,88.38Z"/><path class="cls-18" d="M328.4,88.38c-3.51-.41-2.34,1.06-5.57,6.17S315,102,309.77,101.86s-4.31,5.72-1.68,8.56,13.34,6.24,19.15-5.9S330.31,88.6,328.4,88.38Z"/><path class="cls-25" d="M216.87,93.14c2.6-1.4,1.86.32,4.78,4.18s6.59,4.71,10.52,3.09,3.8,4.12,2.1,7.55-9.41,9.7-15,0S215.45,93.9,216.87,93.14Z"/><path class="cls-18" d="M216.87,93.14c2.6-1.4,1.86.32,4.78,4.18s6.59,4.71,10.52,3.09,3.8,4.12,2.1,7.55-9.41,9.7-15,0S215.45,93.9,216.87,93.14Z"/></g></svg>