<svg xmlns="http://www.w3.org/2000/svg" xmlns:xlink="http://www.w3.org/1999/xlink" viewBox="0 0 600 600"><defs><style>.cls-1{fill:#ffabfd;}.cls-2{fill:#007fcc;}.cls-3{fill:#3fcaef;}.cls-14,.cls-16,.cls-19,.cls-21,.cls-4,.cls-7{fill:none;}.cls-4{stroke:#1b5186;}.cls-14,.cls-21,.cls-4,.cls-7{stroke-linecap:round;stroke-linejoin:round;stroke-width:2.77px;}.cls-5{fill:#9385d6;}.cls-6{fill:#cabbff;}.cls-7{stroke:#030304;}.cls-8{fill:#030304;}.cls-9{fill:#f1f3f3;}.cls-10{fill:#dedbe1;}.cls-11{fill:#1b5186;}.cls-12{fill:#60e8bb;}.cls-13{fill:#50bc95;}.cls-14{stroke:#000;}.cls-15{fill:#514545;}.cls-17{fill:#6fb7d6;}.cls-18{fill:#0080ca;}.cls-19{stroke:#6fb7d6;stroke-miterlimit:10;stroke-width:0.56px;}.cls-20{fill:#027ecb;}.cls-21{stroke:#1d1d1b;}.cls-22{fill:#1d1d1b;}.cls-23{fill:url(#Degradado_sin_nombre_17);}.cls-24{fill:#dedce0;}.cls-25{fill:#f2f3f2;}.cls-26{fill:url(#Degradado_sin_nombre_17-2);}.cls-27{fill:#3c3c3b;}</style><linearGradient id="Degradado_sin_nombre_17" x1="440.45" y1="162.3" x2="430.95" y2="122.74" gradientUnits="userSpaceOnUse"><stop offset="0" stop-color="#00e4ff"/><stop offset="1" stop-color="#1050dc"/></linearGradient><linearGradient id="Degradado_sin_nombre_17-2" x1="379.51" y1="176.92" x2="370.02" y2="137.36" xlink:href="#Degradado_sin_nombre_17"/></defs><g id="Capa_3" data-name="Capa 3"><g id="a"><rect class="cls-1" width="600" height="600"/></g></g><g id="Capa_1" data-name="Capa 1"><path class="cls-2" d="M212.68,136.1s-6.88,4.09-16,10.74c-2.81,9.61-12.4,14.57-15.44,24.3-2.58,8.26-3.09,9.06-8.44,15.87-4.82,6.13-9.92,15.57-15.16,21.35-2.7,3-3.22,14-5,17.54-2.06,4.1-2.16,11.41-2.77,16-1.32,9.78.22,17.66-1,27.45,5.5-13.08,17.35-35.84,34.51-40,24.35-5.94,36.3-1.78,36.3-1.78Z"/><path class="cls-3" d="M156,226.68c1.79-3.58,4.58-6.56,7.27-9.53q7.86-8.67,15.1-17.88c5.35-6.8,10.52-14,13.1-22.25,3-9.72,2.38-20.57,5.19-30.18-17,12.32-41.72,33.42-44.81,53.43-4.75,30.8-6.53,78.32-6.53,78.32s1.19-3.79,3.5-9.28c1.24-9.79,2.55-19.56,3.87-29.34C153.3,235.42,153.94,230.78,156,226.68Z"/><path class="cls-4" d="M212.68,136.1s-56.08,33.38-60.83,64.17-6.53,78.32-6.53,78.32,13.66-43.36,38-49.3,36.3-1.78,36.3-1.78Z"/><path class="cls-5" d="M468.44,381.55c-1.29-3.55-10.1-18.1-11.06-21.76-1.7-6.56-7.48-21.5-10.94-27.33-3.05-5.13-5.13-14.54-10.29-17.54s-12.79-6.21-14.24-12c-1.13-4.49-2.69-1.68-3.5-6.24-.69-3.85-6.39.12-8.75-3-6.54-8.68-14.33-16.4-20.47-25.36-5-7.23-8.85-15.6-9.53-24.23a25.64,25.64,0,0,0-2.49,5.61c-3.5,11.65-1.42,24.33,2.79,35.74,3.81,10.34,9.3,20,14.76,29.54,4.92,8.62,10.95,16.7,14.76,25.86,13.53,32.54,29.49,51.94,42,57.81C453.32,389.79,471.55,390.06,468.44,381.55Z"/><path class="cls-6" d="M471.12,360.52c-3.22-14.56-8.88-26.8-18.45-45.15-12.79-24.56-5.23-24.29-17.44-48.7s-44.18-30.24-44.18-30.24l1.82-.36c-5.51-.76-10.23,3.07-13.21,8,.68,8.63,4.57,17,9.53,24.23,6.14,9,13.93,16.68,20.47,25.36,2.36,3.12,4.6,6.5,5.29,10.35.82,4.56-.64,9.35.49,13.84,1.46,5.79,6.78,9.68,11.95,12.67s10.81,5.87,13.85,11c3.46,5.83,2.73,13.16,4.44,19.72.95,3.66,2.67,7.07,4,10.63a49,49,0,0,1,1.81,26.75C466.45,405.7,476.42,393.22,471.12,360.52Z"/><path class="cls-7" d="M392.87,236.07c-7.49-1-13.51,6.4-15.7,13.63-3.5,11.65-1.42,24.33,2.79,35.74,3.81,10.34,9.3,20,14.76,29.54,4.92,8.62,10.95,16.7,14.76,25.86,29.78,71.63,71.35,79.6,61.64,19.68-3.22-14.56-8.88-26.8-18.45-45.15-12.79-24.56-5.23-24.29-17.44-48.7s-44.18-30.24-44.18-30.24"/><path class="cls-5" d="M314.56,588.71c1-.34,7.57-6.71,8.31-7.52,1-1.13,2.16-12.23,2.17-13.75.15-14.75,3.57-3.81.79-18.3,24.86,7,19.17,16.08,41.35,2.87-.41,13.92,2.06,15.62,4.22,29.38.15,1,10.19,2.63,10.71,3.46,1.93,3.06,9.47,4.17,12.66,2.47,5.5-2.93,12.31-15,17.67-18.2L414,477.53s-79.41,19.78-101.48,17.41-124.74,6.35-124.74,6.35c2.6,23.12,5.61,60.24,7.43,82,16.58,5,48,8,56,9.79C270.93,597.53,295.26,594.94,314.56,588.71Z"/><path class="cls-6" d="M396.16,563.21c-3.2,1.7-7.89,3-9.82,0a7.24,7.24,0,0,1-.84-2.79,226.55,226.55,0,0,1-2.64-41.63c-22.18,13.21-50.36,9.78-75.22,2.82a222.48,222.48,0,0,1,4,44c0,1.53-.1,3.2-1.12,4.33a6.26,6.26,0,0,1-2.86,1.53c-19.3,6.24-42.82,15.62-62.6,11.14-8-1.81-34.23-10.5-50.81-15.48.88,10.55,1.71,21.29,2.5,32.56H411.54l.9-45.62Q404.4,558.82,396.16,563.21Z"/><path class="cls-8" d="M283.81,514.19c16,7.65,32.95,13.71,50.69,15.38,15.54,1.46,31.5-.83,45.57-7.78a63.81,63.81,0,0,0,20.11-15.37c1.16-1.34-.79-3.32-2-2-9.67,11.19-23.28,18.09-37.64,21.07-16,3.31-32.55,1.46-48.11-3.09a178.87,178.87,0,0,1-27.26-10.65c-1.61-.76-3,1.63-1.4,2.4Z"/><path class="cls-8" d="M359.45,528.56l.27,17.42c.07,4.94.4,10-.32,14.91a18.46,18.46,0,0,1-6.21,11.91,32.49,32.49,0,0,0-5.15,5,19.35,19.35,0,0,0-3,6c-1.5,4.94-1.4,10.24-1.21,15.35.07,1.78,2.85,1.79,2.78,0-.17-4.56-.3-9.25.85-13.71a17.34,17.34,0,0,1,2.7-5.93c1.48-2,3.56-3.5,5.42-5.16,7.47-6.69,7-16.94,6.89-26.15l-.3-19.63a1.39,1.39,0,0,0-2.77,0Z"/><path class="cls-8" d="M347.05,528.58a235.38,235.38,0,0,1-.44,42.72c-.18,1.77,2.6,1.76,2.77,0a235.38,235.38,0,0,0,.44-42.72c-.14-1.77-2.91-1.78-2.77,0Z"/><path class="cls-8" d="M186.36,501.29q4.26,38.05,7.32,76.21.88,11.07,1.65,22.15a1.42,1.42,0,0,0,1.39,1.38H402.81c2.78,0,5.58.07,8.36,0h.37a1.4,1.4,0,0,0,1.38-1.38l.25-12.13.57-29.14.7-35.26.61-30.5c.09-4.94.41-9.93.29-14.87v-.22a1.4,1.4,0,0,0-1.75-1.34c-3.37.84-6.74,1.64-10.12,2.44q-12.23,2.88-24.49,5.51c-9.94,2.12-19.91,4.13-29.93,5.86a255,255,0,0,1-26.7,3.54,60.08,60.08,0,0,1-9.39.06c-2.49-.23-5-.37-7.47-.42-7.62-.15-15.25.1-22.86.4-9.71.39-19.42.92-29.12,1.51s-19.59,1.27-29.38,2q-11.82.85-23.64,1.8l-12.2,1-.55,0c-1.76.15-1.78,2.93,0,2.78l8.48-.7q10.74-.87,21.48-1.66,14.28-1.06,28.57-2c9.9-.64,19.81-1.22,29.72-1.68,8.35-.38,16.71-.71,25.06-.72,2.93,0,5.86,0,8.78.19,2.59.16,5.14.44,7.74.41,8.33-.11,16.68-1.34,24.9-2.63,10.07-1.58,20.09-3.51,30.08-5.57q13.36-2.76,26.66-5.85,7.25-1.67,14.45-3.44l.67-.16-1.76-1.34-.24,12.13-.58,29.14-.7,35.26-.6,30.5-.2,10.12a39.69,39.69,0,0,0-.1,4.75,1.62,1.62,0,0,1,0,.22l1.39-1.39H205.45c-2.76,0-5.61-.21-8.36,0h-.37l1.39,1.39q-2.7-38.19-6.59-76.28-1.16-11-2.39-22.08C188.94,499.54,186.16,499.52,186.36,501.29Z"/><path class="cls-9" d="M273,241.21c-10.52-25.36-21.14-51.12-27.34-77.74.13,2.8.35,5.6.68,8.39,1.72,14.87,6.22,29.26,10.71,43.54q6.26,20,12.53,39.94c2.46,7.85,4.92,15.7,7.86,23.38.4,1,.82,2.09,1.24,3.13,7.82,5.86,15,11.16,20.71,15.48q-3.58-6.18-6.88-12.54C285.26,270.63,279.15,255.91,273,241.21Z"/><path class="cls-10" d="M349.05,356.71c2.06,6.8,17.28-60.19,17.28-60.19l-2.7-31.38q0-29.25,0-58.5c0-14.36,0-28.8-2.29-43-3.75-23.43-14-46.17-30.93-62.79s-40.82-26.63-64.47-24.61c-1.07.09-2.13.22-3.2.36-7.1,15.62-11.72,32.64-14.46,49.54a179.65,179.65,0,0,0-2.56,37.31c6.2,26.62,16.82,52.38,27.34,77.74,6.11,14.7,12.22,29.42,19.51,43.58q3.29,6.36,6.88,12.54c5.41,4.06,9.59,7.26,12,9.22C326.2,318.7,349,356.4,349.05,356.71Z"/><path class="cls-2" d="M237.26,217.89c.34-10.76,2.91-21.34,3.61-32.09,1.74-27-8.38-53.81-5.75-80.72a97.72,97.72,0,0,1,4.55-21c-12.9,6.8-23.63,17.58-29.29,31-3.42,8.12-5,16.88-6.34,25.58a629.68,629.68,0,0,0-7.12,73.8c7,8.85,25.34,24.09,45.43,39.77C239.37,242.25,236.87,230.15,237.26,217.89Z"/><path class="cls-3" d="M269.62,255.34q-6.27-20-12.53-39.94c-4.49-14.28-9-28.67-10.71-43.54-1.76-15.19-.57-30.6,1.88-45.7,2.74-16.9,7.36-33.92,14.46-49.54A69.56,69.56,0,0,0,239.67,84a97.72,97.72,0,0,0-4.55,21c-2.63,26.91,7.49,53.74,5.75,80.72-.7,10.75-3.27,21.33-3.61,32.09-.39,12.26,2.11,24.36,5.09,36.29,12.17,9.51,25,19.17,36.37,27.67-.42-1-.84-2.08-1.24-3.13C274.54,271,272.08,263.19,269.62,255.34Z"/><path class="cls-11" d="M198.31,214.41q1-27.27,4.39-54.4c1.12-8.94,2.32-17.9,4-26.76,1.48-7.87,3.56-15.69,7.43-22.75,6.56-12,17.31-21.28,29.65-27a69.48,69.48,0,0,1,41.68-4.91,85.45,85.45,0,0,1,40.17,19.7A101.48,101.48,0,0,1,351.67,135c6.46,15.08,9.32,31.21,10.14,47.53.45,9,.41,18,.41,27v27.67q0,13.71,0,27.41c0,2.27.35,4.57.54,6.82l2,23.66a8.62,8.62,0,0,0,.1,1.14c.07.38,0,.24.06-.05l-.36,1.25q-1,3.56-2.13,7.09c-2.34,7.6-4.82,15.17-7.71,22.58a96.71,96.71,0,0,1-4.33,9.83,31.86,31.86,0,0,1-2.11,3.5,6.65,6.65,0,0,1-.83,1l-.43.4c-.19.16.22-.15,0,0l-.24.15c-.38.19.18,0-.16.06-.09,0,.25.09-.11,0,.12,0,.33.09.13,0s.21.22.07,0,.14.21-.14-.11,0,.17-.17-.23c-.11-.2-.22-.39-.31-.6.12.26-.15-.38-.2-.47a5.82,5.82,0,0,0-.36-.47c-2-2.55-4.14-5-6.27-7.43-8.34-9.58-17.05-19.12-26.89-27.2-4.61-3.78-9.44-7.32-14.21-10.89q-11.32-8.49-22.67-16.94-13.32-10-26.53-20.14c-8.59-6.63-17.11-13.35-25.48-20.26-6.75-5.59-13.46-11.28-19.69-17.46a75.27,75.27,0,0,1-5.92-6.45c-1.11-1.39-3.06.58-2,2,4.48,5.63,10,10.48,15.38,15.21,7.79,6.84,15.85,13.36,24,19.79,9,7.11,18.08,14.08,27.21,21q12.67,9.58,25.42,19.05c6.21,4.64,12.44,9.25,18.58,14a187.77,187.77,0,0,1,22,20.54q5.87,6.27,11.43,12.81c1,1.21,2.07,2.44,3.07,3.68l.41.49c.27.34,0-.06.06.09s-.15-.37,0,.08c.13.29.25.59.4.86a3.11,3.11,0,0,0,5,.92c1.93-1.55,3.18-4,4.27-6.19,3.66-7.2,6.29-14.95,8.84-22.59q2.88-8.62,5.41-17.37a8.22,8.22,0,0,0,.12-3.28l-1-11.53c-.65-7.5-1.53-15-1.53-22.53q0-28,0-56.09c0-17.68-.33-35.5-4.77-52.72a115.09,115.09,0,0,0-19.74-41.38A92.47,92.47,0,0,0,305,81.87c-13.81-6.14-29.23-8.76-44.23-6.36A70.83,70.83,0,0,0,224,93.39a62.47,62.47,0,0,0-12.6,16.22c-3.86,7.21-6,15.14-7.48,23.14a533.83,533.83,0,0,0-6.85,54.81Q196,201,195.54,214.41C195.47,216.2,198.24,216.2,198.31,214.41Z"/><path class="cls-11" d="M206.61,192.15l20.54,20S209.32,209.3,206.61,192.15Z"/><path class="cls-11" d="M209.44,177,230,197S212.16,194.13,209.44,177Z"/><path class="cls-11" d="M212.12,161.12l20.54,20S214.83,178.26,212.12,161.12Z"/><path class="cls-12" d="M376.53,457.77c-.58-5-1.4-10.09-4-14.41l-21.5,15.54c-12.7,9.19-25.56,18.46-40.09,24.36-10.76,4.37-22.66,6.74-34.12,5.58,5.79,9.38,10.62,15.67,10.62,15.67s32.75,7.56,60.13,11c10.14,1.29,20-3.11,28.46-9.15A195,195,0,0,0,376.53,457.77Z"/><path class="cls-13" d="M256.08,343.82a175.3,175.3,0,0,1,32.21,16,228.46,228.46,0,0,1,.6-47.42c.25-2.11.67-4.46,2.42-5.67,1.41-1,3.27-.91,5-.72,23.74,2.64,44.89,21.18,50.61,44.37a273.06,273.06,0,0,1,24.38-60.6c1.41-2.56,3.1-5.3,5.88-6.21,3.89-1.26,7.82,1.68,10.39,4.93-5.37-13.05-11.92-23.18-18.93-29.05L346.8,348.19s-7.91-47.74-47.71-65.19-92.83-58.14-92.83-58.14-11.51-2.9-6.86,19.19,22.68,58.14,33.72,91.86l3,9a14.26,14.26,0,0,1,6.12-3.2C246.84,340.67,251.63,342.16,256.08,343.82Z"/><path class="cls-12" d="M401.14,355.68c-1-25.62-6.17-49.2-13.59-67.21-2.57-3.25-6.5-6.19-10.39-4.93-2.78.91-4.47,3.65-5.88,6.21a273.06,273.06,0,0,0-24.38,60.6C341.18,327.16,320,308.62,296.29,306c-1.71-.19-3.57-.26-5,.72-1.75,1.21-2.17,3.56-2.42,5.67a228.46,228.46,0,0,0-.6,47.42,175.3,175.3,0,0,0-32.21-16c-4.45-1.66-9.24-3.15-13.87-2.09a14.26,14.26,0,0,0-6.12,3.2c10.33,31.48,21.46,66.16,21.46,92.14,0,8.42,2.61,17.75,6.29,26.72,15-6.36,28.26-16.51,40.41-27.45,14.52-13.07,27.83-27.49,43.18-39.57,9.12-7.18,19.92-13.77,31.49-12.76,9.24.82,17.34,6.56,22.86,14.17C401.79,382.85,401.63,367.85,401.14,355.68Z"/><path class="cls-13" d="M378.92,384c-11.57-1-22.37,5.58-31.49,12.76-15.35,12.08-28.66,26.5-43.18,39.57-12.15,10.94-25.44,21.09-40.41,27.45a177.43,177.43,0,0,0,13,25c11.46,1.16,23.36-1.21,34.12-5.58,14.53-5.9,27.39-15.17,40.09-24.36l21.5-15.54c2.56,4.32,3.38,9.43,4,14.41a195,195,0,0,1-.46,48.64c14.31-10.27,24.41-25.28,24.41-25.28s1.26-42.65,1.3-82.95C396.26,390.57,388.16,384.83,378.92,384Z"/><path class="cls-14" d="M206.26,224.86s-11.51-2.9-6.86,19.19,22.68,58.14,33.72,91.86,24.43,72.67,24.43,101.16,29.93,67.44,29.93,67.44,41.18,13.21,67.11,11.08c27.5-2.26,45.89-34.46,45.89-34.46s2.41-81.27.66-125.45-15.84-82.3-32.52-96.25L346.8,348.19s-7.91-47.74-47.71-65.19S206.26,224.86,206.26,224.86Z"/><path d="M348.39,355q3.24,31.28,4.74,62.7,1.44,31.2,1.07,62.43-.21,17.76-1,35.51c-.08,1.78,2.7,1.78,2.78,0q1.36-31.41,1-62.87-.42-31.23-2.67-62.39Q353,372.62,351.16,355c-.18-1.76-3-1.78-2.77,0Z"/><path class="cls-5" d="M187.23,274.63l.6,1c4.28,6.9,8,14.91,13.12,21.24,4.18,5.19,9.75,8.69,13.72,14,7.33,1.71,30.19,7.44,43.24,15.17-13.05-7.73-35.91-13.46-43.24-15.17,16,21.48,16.56,54.61,31,77.13,2.73,4.25,19.39-2,21.24,2.66,2.19,5.56,3.5,12.19,8.59,15.31-.73-10.2,13.42-25.33,9-34.54-3.61-7.45-9.24-18.29-13.65-25.29s-2.57,2.95-1.39-5.24c.1-.66-1.71,8.39-1.21,7.95s3.62-8,4.33-7.95c2.7.18-10.58-3.43-7.86-3.47s5.2-8.37,5.34-11.08c.11-2.35-6-16.21-7.92-17.6-9.85-7.17-19.12-22.46-30.46-26.94-5.5-2.17-6.4-12.54-10.88-16.38-4.77-4.1-5.76,2.91-8.45-2.77-4.51-9.54,3.47-.95-1.05-10.49-3.19-6.76-17.45-16.5-18.2-23.93-.56-5.66-6.71-11.52-3.49-16.08-4.85,2.64-12.82,8.81-14.24,16.79a33.77,33.77,0,0,0-.44,3.5A103.22,103.22,0,0,0,178.84,256c.39,1.22.8,2.43,1.24,3.63A128.48,128.48,0,0,0,187.23,274.63Z"/><path class="cls-15" d="M187.23,274.45a129.24,129.24,0,0,1-7.15-15.05A87.76,87.76,0,0,0,187.23,274.45Z"/><path class="cls-6" d="M180.08,259.4c-.83-1.2-3.82-11.72-5.27-11.94-2-.29-7.09-4.31-8.22-2.67-9.29,13.36-29.4,20.82-28.49,37.06.31,5.6-3.18,21.63-1.39,26.94,5.81,17.19,4.83,44.4,18.8,56,8.87,7.35,25.51,46.13,35.41,52s22.11-2.17,26.9,8.31c5.08,11.11,22,8,26.9,19.17,7,15.8,24,24.32,40.12,30.61,3.64,1.42,7.35,2.83,11,4.31-3.23-40.77-10.43-111.8-16.16-134.7-6.68-26.74-28.77-57-38.45-75s-29.86-28.49-38-37.22-6.72-22.08-6.72-22.08a31.13,31.13,0,0,0-9.8,3.36c-3.22,4.57-4.38,10.65-3.81,16.31.74,7.44,4,14.37,7.19,21.12l13.53,28.6c2.69,5.69,5.52,11.55,10.29,15.64,4.48,3.85,10.25,5.76,15.75,7.92a145,145,0,0,1,32,17.57c1.91,1.39,4,3.21,3.86,5.57-.13,2.7-3.19,4.39-5.9,4.43s-5.33-1-8-1.17a2.79,2.79,0,0,0-2,.45,2.94,2.94,0,0,0-.76,1.82c-1.18,8.2,2.25,16.38,6.66,23.39S265.34,368.59,269,376c4.46,9.21,5.85,19.58,6.58,29.79-5.09-3.13-6.4-9.75-8.59-15.31a77.47,77.47,0,0,0-7.33-13.24c-14.48-22.52-29-45.08-44.94-66.55-1.48-.35-2.33-.53-2.33-.53-11.05-13.21-19.24-25.13-25.11-35.75a87.76,87.76,0,0,1-7.15-15.05c-.28-.71-.55-1.42-.8-2.12"/><path class="cls-15" d="M178.84,255.76c.14.51.28,1,.44,1.52.25.7.52,1.41.8,2.12C179.64,258.2,179.23,257,178.84,255.76Z"/><path class="cls-16" d="M179.28,257.28a103.37,103.37,0,0,1-4.36-25C174.42,239.05,175.65,247.39,179.28,257.28Z"/><path class="cls-5" d="M244.72,444.28c-4.95-11.17-4-24.28-9.08-35.39-4.79-10.48-14.38-17.94-24.27-23.84S190.85,374.32,182,367c-14-11.57-22.48-28.49-28.28-45.68-1.79-5.31-3.38-10.76-3.69-16.36-.9-16.24,8.79-30.95,18.08-44.31,1.14-1.64,2.71-3.48,4.68-3.18,1.45.21,2.44,1.51,3.28,2.7q5.44,7.8,10.91,15.59a99.54,99.54,0,0,1-7.68-18.45c-3.63-9.89-4.86-18.23-4.36-25v0c-25.11,22-47.82,49.43-50.15,67.45s26.75,72.1,39,117.44,18.93,118.37,18.93,118.37c55,51.74,117.38,27.91,117.38,27.91s-.85-33.49-2.89-66.63c-.3-4.76-.73-10.77-1.28-17.62-3.68-1.48-7.39-2.89-11-4.31C268.75,468.6,251.72,460.08,244.72,444.28Z"/><path class="cls-7" d="M174.92,232.28c-25.11,22-47.82,49.43-50.15,67.45s26.75,72.1,39,117.44,18.93,118.37,18.93,118.37c55,51.74,117.38,27.91,117.38,27.91s-.85-33.49-2.89-66.63S286.4,371.24,279.71,344.5s-28.77-57-38.45-75-29.86-28.49-38-37.22-6.72-22.08-6.72-22.08-18.28,2.33-21.18,18.61,5.36,43.6,37,81.39c0,0,29.87,6.39,45.57,15.7"/><path class="cls-8" d="M238.68,318.27l1.77,32.83.88,16.42c.28,5.3.43,10.63.88,15.92a15.74,15.74,0,0,0,1.85,6.75,32.34,32.34,0,0,0,4.49,5.42q4.88,5.26,9.44,10.8A253,253,0,0,1,275.21,430a255.45,255.45,0,0,1,15.88,28.52c.77,1.61,3.16.2,2.4-1.4a255.66,255.66,0,0,0-30.22-48.54q-4.44-5.62-9.2-11c-1.56-1.76-3.15-3.49-4.75-5.21a14.49,14.49,0,0,1-3.88-6.05,36.23,36.23,0,0,1-.72-7.36l-.44-8.21-.87-16.16-2-36.32c-.09-1.78-2.87-1.79-2.77,0Z"/><path class="cls-6" d="M418.12,408.31c-4.47-.63-18.58,2.57-21.44,6.05-1.87,2.27-7.77,7.42-7.94,10.35-1.08,18.56,4.27,40.6,5.74,59.14.8,10.09,1.77,50.09,2.57,60.18,6.46-1.26,19.32-3.68,24.91-7.15-2.39-16.39-.1-59.39,1.06-75.91.9-12.81,1.12-25.65,1-38.48C420.82,421.6,421.36,408.77,418.12,408.31Z"/><path class="cls-5" d="M396.06,320.06c.09,4.84,6.33,23.13,7.91,27.7,3.53,10.18,13.65-.46,17.34,9.66-1-18.24-2.56-36.46-6-54.38-.92-4.76-6.23-23.75-7.45-28.44-1,4-5.07,11.78-6.07,15.79S396,316,396.06,320.06Z"/><path class="cls-5" d="M399.42,431.71c.17-2.93.48-6.06,2.34-8.33,2.87-3.49,8.13-3.55,12.59-2.92a73.57,73.57,0,0,1,9.63,2c-.2-15.93-1-31.86-1.77-47.76q-.42-8.66-.9-17.31-5.54-15.18-10.84-30.46c-1.58-4.57-3.17-9.24-3.25-14.08-.07-4.06.91-8.05,1.89-12s2-8,3-12c-4.82-18.63-12.18-36.61-23.23-52.31-.85-1.22-1.93-2.53-3.42-2.63-2.1-.13-3.43,2.15-4.24,4.09q-4,9.57-8,19.15c-2.89,6.91-1.9,8.38.69,15.26a152.59,152.59,0,0,1,8.31,35.6c2.95,24.31,1.72,48.86,2,73.28.25,23.89,2,47.74,3.8,71.58,0,11.49,1.73,23.25,2.59,34.71.67,9.07,4.74,49.6-.38,57.39a54.34,54.34,0,0,0,13.53-.94c-.8-10.09-1.6-46.53-2.4-56.62C399.81,468.87,398.34,450.27,399.42,431.71Z"/><path class="cls-8" d="M386.56,452.87c0,10,1.28,20,2.18,29.95.42,4.64.78,9.29,1.15,13.93.91,11.44,1.75,23,1.33,34.46a63.51,63.51,0,0,1-.7,8,13.57,13.57,0,0,1-1.57,5,1.41,1.41,0,0,0,1.2,2.09,56.61,56.61,0,0,0,32.51-8.28,1.46,1.46,0,0,0,.63-1.57,125.67,125.67,0,0,1-.94-15.52c-.12-6.76,0-13.54.15-20.3q.48-18.6,1.73-37.16c1.26-18.92,1.39-37.81.77-56.76-.65-20-1.56-40-3-59.88-2.58-36.64-8.53-74.52-28.62-106.06-1.15-1.81-2.32-3.63-3.6-5.35-1-1.37-2.23-2.67-4-2.9-4.08-.56-5.67,4.38-6.89,7.3l-5.69,13.52c-1.47,3.5-3.51,7.3-3.19,11.22.29,3.59,2.08,7,3.27,10.35a134.87,134.87,0,0,1,4.09,13.94,189.58,189.58,0,0,1,4.34,28.84c1.58,19.92.87,39.91,1,59.87.11,20.18,1.31,40.33,2.75,60.45q.52,7.4,1.09,14.8c.13,1.77,2.9,1.78,2.77,0-1.47-19.73-2.94-39.46-3.54-59.23-.61-19.6.11-39.21-.4-58.81-.5-18.91-2.23-38.06-7.92-56.19-1.27-4-3.05-7.9-4.22-12-1-3.47.14-6.5,1.49-9.73q2.82-6.76,5.68-13.52a55.07,55.07,0,0,1,2.75-6.3,3.93,3.93,0,0,1,1.46-1.66c1.19-.56,2.12.56,2.78,1.41a90.59,90.59,0,0,1,7,11q3.24,5.67,6,11.62a173.81,173.81,0,0,1,9.06,24.79c5.17,18.06,7.75,36.72,9.3,55.4,1.61,19.45,2.41,39,3.2,58.5.79,19.7,1.15,39.45,0,59.14-.72,11.9-1.49,23.79-1.92,35.7-.45,12.54-.85,25.18,0,37.71.15,2.19.36,4.38.67,6.56l.64-1.57a53.9,53.9,0,0,1-31.11,7.9l1.2,2.09c2-3.19,2.22-7.65,2.47-11.3a163.45,163.45,0,0,0,.09-17.43c-.38-10.1-1.28-20.17-2.06-30.25-.88-11.27-2.49-22.5-2.52-33.82A1.39,1.39,0,0,0,386.56,452.87Z"/><path class="cls-5" d="M380.58,240.46a245,245,0,0,1,19.66,39.48,7.77,7.77,0,0,1,.71,2.86,7.45,7.45,0,0,1-1.3,3.56c-4,6.61-9.68,12.4-11.65,19.85"/><path class="cls-8" d="M391.57,297.05l14.87,56.25,1.85,7a49.17,49.17,0,0,1,1.58,6.95c.54,4.66-1.29,9-2.8,13.31l-9.58,27.29-10.9,31.06c-.59,1.69,2.09,2.42,2.68.74l19.48-55.53c1.55-4.42,3.57-8.93,4-13.64.37-4.51-1.24-9-2.38-13.33l-7.59-28.73-8.49-32.11a1.39,1.39,0,0,0-2.68.74Z"/><path class="cls-12" d="M199.57,212.91s1.61,5.82,16.34,17.83,59.2,37,71.7,43c23,11,55.17,35.91,60.21,69.63,0,0,5.19-34,8.79-49.35,3.33-14.23,11.75-32.69,8.78-49.35,0,0,7.88,3.1,12.92,13.17s3.4,29.46,3.4,29.46-4-21.65-12.31-16.28-20.35,85.66-20.35,85.66-9.5-50-51.36-72.09c0,0-10.08.77-11.24,17.44,0,0-31-16.28-51.94-36.05S192.91,226.87,199.57,212.91Z"/><path class="cls-14" d="M199.57,212.91s1.61,5.82,16.34,17.83,59.2,37,71.7,43c23,11,55.17,35.91,60.21,69.63,0,0,5.19-34,8.79-49.35,3.33-14.23,11.75-32.69,8.78-49.35,0,0,7.88,3.1,12.92,13.17s3.4,29.46,3.4,29.46-4-21.65-12.31-16.28-20.35,85.66-20.35,85.66-9.5-50-51.36-72.09c0,0-10.08.77-11.24,17.44,0,0-31-16.28-51.94-36.05S192.91,226.87,199.57,212.91Z"/><path class="cls-6" d="M432.66,401.17c8.15,1.81,23,3.19,31.25,1.58,7.59-1.49,7.16-21.51,8.89-28.89-.29-2.21-.56-4.45-.76-6.71-1.72-19.92-49.47-26.21-49.47-26.21-41.09-21.19-53.27-9.18-53.27-9.18,7.58-5.18,6.39,11.32,2.89,23.51-.88,3.06-6.83,17.91-8.18,21.07,5.32,3.44,13.74,6,19.59,8.41C398.25,390.73,417.21,397.76,432.66,401.17Z"/><path class="cls-5" d="M472.8,373.86c-1.73,7.38-9.1,12.76-16.69,14.25-8.2,1.61-16.63-.28-24.79-2.08-15.45-3.42-31.06-6.57-45.71-12.55a103.25,103.25,0,0,1-16.88-8.71,175.62,175.62,0,0,1-9.1,18s39.68,8.42,51.4,14,36,13.37,53,11.06C479.17,405.85,475.12,391.06,472.8,373.86Z"/><path class="cls-7" d="M470.7,362.39c1.09,4.91.55,3,1.14,8.79.07.63.13,1.26.2,1.88"/><path class="cls-7" d="M472,373.06c2.4,21.66,6.81,33.8-12.41,35.49-19.77,1.75-36-9.3-57-13.95s-43-11.81-43-11.81,30.24-56,8.72-49.41c0,0,3.49-12.38,35.47,0S454.4,362,454.4,362"/><path class="cls-8" d="M423.82,342.28a97.36,97.36,0,0,1,26.29,7.81c1.61.74,3-1.65,1.4-2.39a99.7,99.7,0,0,0-26.95-8.1c-1.75-.26-2.5,2.41-.74,2.68Z"/><path class="cls-17" d="M410.8,342.91c8-2.08,12-4.2,20.09-3-.55-2.68-2.64-12.86-3.9-15.29-3.46-6.67-10.08-11.4-17.32-13.44s-15-1.59-22.27.31a58.62,58.62,0,0,0-33.24,23.35l.52-.37c4.29,5.53,15.84,18.31,20.71,23.34,1.46-.74,9.56-2.12,11-2.9C396.67,349.29,399.42,345.88,410.8,342.91Z"/><path class="cls-18" d="M405,334c-11.38,3-21.95,8.4-32.25,14.06-1.42.78-2.86,1.57-4.32,2.31a193.25,193.25,0,0,0,14.42,13.46c2,1.7,4.36,3.46,7,3.32s4.74-2.09,6.68-3.86a95.52,95.52,0,0,1,34.34-19.92,84.54,84.54,0,0,0-1.27-11A61.48,61.48,0,0,0,405,334Z"/><path class="cls-11" d="M355.35,335.58a57.37,57.37,0,0,1,30.16-22.07c12.8-3.93,28.41-3.17,37.6,7.79,5.17,6.16,5.86,14.36,6.39,22.06l1-1.34a97.75,97.75,0,0,0-31.73,17.5c-2.19,1.81-4.2,4.13-6.69,5.51-3,1.63-5.64,0-8-1.94a182.25,182.25,0,0,1-14.06-13,193.48,193.48,0,0,1-14.41-16.54c-1.1-1.41-3.05.57-2,2a193.91,193.91,0,0,0,27.83,29c2.19,1.85,4.58,3.77,7.56,4s5.56-1.68,7.71-3.59a102.49,102.49,0,0,1,15.11-11.35,94.12,94.12,0,0,1,19.35-8.88,1.42,1.42,0,0,0,1-1.34c-.52-7.38-1.14-15.15-5.32-21.5a29.79,29.79,0,0,0-15.48-11.53c-14-4.71-30.24-.11-42.2,7.83a60.38,60.38,0,0,0-16.32,16c-1,1.48,1.38,2.87,2.39,1.4Z"/><path class="cls-6" d="M124.65,320.86c-.54,13.53,5.55,32.38,12.66,43.91,3.55,5.77,14.1,16.73,19.38,21,4.23,3.39,14.92,26.56,20,28.49,14.15,5.38-1.71-17.25,13.26-15-8.16,3.55,31.78,40.43,22.95,39.37,14.28,10.25,27,14.44,42.52,22.75,9.12,4.88,18.86,7.68,28.91,10.09,1.26.3,12.79-3.39,14-3.76s5.46-4.9,6.52-5.74c11.55-9.09,11.75-6.25,23.54-15,5.51-4.1,13.44-10.45,16.82-16.42,4.09-7.24,4-14.68,11.67-17.83,5.33-2.18,7.71-8.08,12.07-11.84,5.62-4.86,12.9-18.13,13.65-25.52,1.48-14.75-4.44-35-14.34-41.08a38.67,38.67,0,0,0-17.17-3.63s-51.28,59.94-72,74.06c0,0-4.6-4.1-8.08.16,0,0,.16-15.11-15.72-35.08s-34.63-52-39.3-57.41-22.06-22.37-33.84-26c-4.3-1.35-12.27-4.13-21.37-4.82-6,8.69-20.09,7.32-24.51,16.89C133.13,305.2,125,313.26,124.65,320.86Z"/><path class="cls-5" d="M368.27,334.18c5.86,13.49,7,28.91,5.56,43.66-.74,7.39-2.44,15.33-8.07,20.19-4.36,3.76-10.28,5-15.61,7.16a37.64,37.64,0,0,0-18.62,15.89c-3.38,6-5.11,13.3-10.61,17.39-11.79,8.78-31-3.73-42.55,5.36a10.81,10.81,0,0,1-3.36,2.26,7.21,7.21,0,0,1-3.82-.19c-10.06-2.41-19.3-7.34-28.42-12.23-15.5-8.3-31.05-16.64-45.33-26.89A50.64,50.64,0,0,0,223.53,403a209.36,209.36,0,0,1-43.85-11.44c-5.06-1.93-10.12-4.1-14.35-7.48-5.28-4.25-8.94-10.14-12.5-15.91-7.11-11.53-14.46-24-13.93-37.51.31-7.59,3.11-14.85,6.29-21.75a186.19,186.19,0,0,1,15.64-27.46c-15.83-1.21-35.06,3.91-44.34,33.89-7.29,23.55,5.46,55,18.33,72.05,20.81,27.65,41.05,45.65,96.39,73.2s62.47,32.09,81.65,12,64.54-76.42,77.26-99l6.33-8.67S387.34,343,368.27,334.18Z"/><path class="cls-7" d="M278.29,405.17c15.69-9.88,72.81-74.62,72.81-74.62,31.39-.58,45.35,34.3,45.35,34.3s-22.68,30.81-33.73,47.67-37.2,50.58-57.55,66.68-64.54-13.77-87.79-26.56S154.59,416,134.82,387.35,108.49,332,119.71,306.21c8.13-18.68,29.06-31.67,58.72-21.4s44.18,34.69,62.2,64.34,29.07,36.63,30.24,56.4L272,425.31"/><path class="cls-8" d="M272.25,406.88a9.67,9.67,0,0,1,1.49-2.64c.51-.53,1.46-1.1,2.18-.61s.92,1.58,1.16,2.3c.39,1.18.78,2.35,1.18,3.53L283,423.55c.56,1.69,3.24,1,2.67-.73q-2.94-8.82-5.9-17.63c-.72-2.15-1.81-4.56-4.49-4.51s-4.38,2.5-5.4,4.8c-.72,1.62,1.67,3,2.39,1.4Z"/><path class="cls-19" d="M265.75,407.23a22.62,22.62,0,0,0,.26-2.85S265.85,405.53,265.75,407.23Z"/><path class="cls-18" d="M274.73,355.82c-1.71-4.15-15.19,8.39-20,14.89-4,5.38-9.68,12.06-9.68,17.44,1,.53,3.07-.39,7.59-3.95a57.85,57.85,0,0,1,7.3-10.84C264.91,367.52,271.08,362.57,274.73,355.82Z"/><path class="cls-17" d="M300.4,388.29c6.1-10.89,15-22.77,22.86-32.47,4.28-5.29,10.83-11.13,13.06-17.56-15.6-1.61-48.55-3.59-58,5.26-14.05,13.1-35.27,32-34.35,37.61.49,3-.23,6.31,1.09,7q6.19-7.92,12.19-16c4.83-6.5,10-13.4,17.51-16.34-3.65,6.75-9.82,11.7-14.81,17.54a57.85,57.85,0,0,0-7.3,10.84c.91-.71,1.9-1.51,3-2.44a85.59,85.59,0,0,0-2.32,23c.34,5.88.51,9.74,1.41,11.71.34-.81,5,1.49,5.27.65,1.31-4.58,1.81-9.09,2.75-13.76,3.09-15.33,9.51-31,20.22-42.41-1.7,6.82-8.46,11-12.16,17-3.51,5.66-4.09,12.61-4.3,19.27q-.3,9.35.11,18.69c0,.5,0,1,.08,1.51.9,2.32,2.52,3.73,5.36,2.74a6.1,6.1,0,0,0,1.26-.61c.28-1.79,4.11-6.88,4.07-8.68-.12-4.81,2-7.68,2.57-12.46.79-6.54,1.86-10.63,5.34-16.22,3-4.79,4.87-9.43,8.11-14,2.28-3.26.93-4.92,4.71-3.66-1.66,2.55-1.94,2.35-3.69,4.84A59.54,59.54,0,0,0,284,398.69c.85,5.22,2.48,12.49,5.3,16-.1-.93,5,1.65,4.93.72C293.23,405.48,295.53,397,300.4,388.29Z"/><path class="cls-18" d="M341.61,339s-5.2-.91-12.71-1.68a59,59,0,0,1-9.84,17.76c-7.85,9.7-18.79,16.93-24.88,27.81-4.87,8.71-6.17,19.08-5.23,29,.09.92.2,1.85.3,2.78,1.67,2.09,3.76,2.85,6.35,1.08,9.83-6.74-5.93-13.17,6.85-30.57s15.75-21.81,23.47-29.26S343.68,341.85,341.61,339Z"/><path class="cls-18" d="M266.49,397.21c.21-6.66.79-13.61,4.3-19.27,3.7-6,10.46-10.18,12.16-17-10.71,11.39-21.88,23.64-25,39-.94,4.67-1.09,9.5-2.4,14.08a22.66,22.66,0,0,1-.87,2.47c.85,1.88,2.35,2.06,5.27.65,3.91-1.89,5.29-6.74,5.77-9.88.1-1.7.26-2.85.26-2.85a22.62,22.62,0,0,1-.26,2.85c-.18,2.86-.2,7.25.93,10.18,0-.5-.06-1-.08-1.51Q266.19,406.57,266.49,397.21Z"/><path class="cls-18" d="M299.76,361.93c-3.78-1.26-7.28,2.37-9.57,5.62q-4.85,6.93-9.33,14.11c-3.48,5.59-6.85,11.5-7.64,18-.57,4.78.27,9.6.39,14.41a29.94,29.94,0,0,1-.31,5.43c7.57-4.78,9.86-26.83,9.86-26.83s.23,2.55.79,6a59.54,59.54,0,0,1,10.46-29.37C296.16,366.83,298.1,364.48,299.76,361.93Z"/><path class="cls-11" d="M341.61,337.62c-10-.5-19.92-1.17-29.89-1.67-10.26-.5-20.75.11-30.27,4.33a28.65,28.65,0,0,0-5.95,3.49,45,45,0,0,0-4.67,4.38c-3.22,3.26-6.53,6.42-9.76,9.66-6.4,6.43-13.15,13.35-17,21.69a28.3,28.3,0,0,0-1.27,3.12,4.33,4.33,0,0,0,.13,2.86c.63,1.87,1.24,3.68,3.51,3.82a9.38,9.38,0,0,0,5.62-2,16.51,16.51,0,0,0,4.77-4.83,1.39,1.39,0,0,0-2.39-1.4,13.39,13.39,0,0,1-3.78,3.83,10.44,10.44,0,0,1-1.88,1.11c-.53.23-1.76.79-2.35.52-.38-.18-.46-.79-.6-1.19a2.79,2.79,0,0,1-.3-2.13,30,30,0,0,1,2.3-4.94c4.23-7.49,10.45-13.75,16.5-19.77,2.94-2.92,5.94-5.8,8.85-8.75a35.27,35.27,0,0,1,4.34-4,29.27,29.27,0,0,1,5.51-3.1c8.7-3.78,18.38-4.36,27.72-3.92,10.29.49,20.57,1.2,30.87,1.72,1.78.09,1.78-2.69,0-2.78Z"/><path class="cls-11" d="M273.8,356.44c-3.75,4.73-8,9-11.94,13.6a60,60,0,0,0-5.69,7.51,23.5,23.5,0,0,0-3.17,10c-.85,7.91-1.14,16-1.33,23.92-.07,2.78.33,5.89,3.18,7.17a7.14,7.14,0,0,0,7.17-1.19c2-1.64,2.87-4.41,3.58-6.82a43.14,43.14,0,0,0,1.65-8.18c.15-1.78-2.62-1.77-2.78,0a37.84,37.84,0,0,1-1.19,6.14,18.79,18.79,0,0,1-2.19,5.82,4.48,4.48,0,0,1-5.1,1.72,3.16,3.16,0,0,1-1.54-2.94c-.1-1.63,0-3.29.09-4.92.25-6.9.5-13.86,1.24-20.72a20.38,20.38,0,0,1,3.14-9.16,62.27,62.27,0,0,1,5.13-6.65c3.85-4.48,8-8.7,11.71-13.34,1.1-1.38-.85-3.36-2-2Z"/><path class="cls-11" d="M282.15,360.27c-3.28,6.21-8.9,10.75-12.06,17.06-3,6-4.34,12.61-5,19.24-.33,3.46-.48,6.94-.55,10.42s-.56,7.22.82,10.4c1.15,2.68,3.76,4.67,6.77,4.15,3.37-.58,5.35-3.55,6.47-6.53a114.76,114.76,0,0,0,3.63-12.64c1.08-4.34,2-8.73,2.79-13.13.32-1.75-2.36-2.5-2.67-.74a197,197,0,0,1-4.93,21c-.82,2.81-1.48,6.66-4,8.52-2.68,2-5.22-.08-5.89-2.88-.72-3-.27-6.38-.19-9.41s.24-6.26.55-9.38c.6-6,1.84-12.17,4.58-17.63,3.16-6.3,8.78-10.85,12.06-17.06.84-1.57-1.56-3-2.39-1.4Z"/><path class="cls-11" d="M299.39,360.38q-5.11,7.8-10.23,15.6c-3,4.52-6,9.28-7.07,14.66-1.12,5.6.13,11.2,2.21,16.42,1,2.59,2.19,5.13,3.44,7.62,1,2,2.59,3.93,5.09,3.81,5.16-.25,7.11-6.65,7.25-10.85.19-5.69-1.83-11.18.65-16.65a51,51,0,0,1,4.24-7.1q2.25-3.36,4.64-6.63,4.93-6.74,10.47-13,6.06-6.88,12.78-13.17,3.43-3.21,7-6.25c1.83-1.55,4.59-3.88,2.92-6.52-1-1.5-3.36-.11-2.4,1.4.49.78-.94,1.86-1.48,2.32-1,.85-2,1.69-3,2.55-1.92,1.67-3.81,3.39-5.67,5.14q-5.47,5.17-10.55,10.78a192.29,192.29,0,0,0-18.34,23.81c-2.84,4.36-5,8.71-4.74,14,.2,4.67,1.79,10-.47,14.39-.81,1.58-3.1,4.2-4.89,2.34a10.55,10.55,0,0,1-1.59-2.74c-.6-1.25-1.19-2.51-1.76-3.78-2.14-4.81-3.92-10.05-3.42-15.39.54-5.71,3.76-10.75,6.82-15.43q5.22-8,10.47-16c1-1.5-1.42-2.89-2.4-1.4Z"/><path class="cls-11" d="M307.57,356.92l4.26-4.27a1.39,1.39,0,0,0,0-2,1.41,1.41,0,0,0-2,0L305.61,355a1.41,1.41,0,0,0,0,2,1.43,1.43,0,0,0,2,0Z"/><path class="cls-11" d="M287.47,355.12l6.62-5a1.46,1.46,0,0,0,.63-.83,1.36,1.36,0,0,0-.14-1.06,1.38,1.38,0,0,0-1.89-.5l-6.62,5a1.48,1.48,0,0,0-.64.83,1.39,1.39,0,0,0,2,1.56Z"/><path class="cls-20" d="M257.45,110.51c1.49-7.11,7.52-17.81,10.82-24.27,3.51-6.89-20.33-20.6-14.7-25.77-10.13,5-36.41,20.84-45.33,55.48-2.32,9,6.8,17.67,20.27,30.08a69.86,69.86,0,0,1,10,10.88c-1.35-6.3,15.77-3.91,14.43-10.21C250.28,134.1,254.8,123.11,257.45,110.51Z"/><path class="cls-21" d="M302.52,89s1.32-8.44,17.68-3.69,126.71,42.23,126.71,42.23"/><path class="cls-22" d="M446.91,132.5s-20.27-6.18-19-11.43,20.65,1.73,20.65,1.73Z"/><path class="cls-23" d="M444,117.92c2.8,1.29,6.39,8.49,3.57,18.34-3.69,12.91-8.38,17.34-14.86,17.55-5.91.2-10.09-4.46-13.17-11.92-3.78-9.12-6.22-20,5.94-23C436.58,116.22,440.34,116.22,444,117.92Z"/><path class="cls-21" d="M444,117.92c2.8,1.29,6.39,8.49,3.57,18.34-3.69,12.91-8.38,17.34-14.86,17.55-5.91.2-10.09-4.46-13.17-11.92-3.78-9.12-6.22-20,5.94-23C436.58,116.22,440.34,116.22,444,117.92Z"/><path class="cls-24" d="M348.71,232.89c-24.57-2.85-39-18.26-57.9-34.28-14.46-12.29-30.39-41.18-36.52-59.09-1.65,6.58-5.52,39.22-5.17,46,5.26,14,14.75,33.57,30.41,44.23,22.08,15,36.09,29.54,74.63,27.82,23.44-1,28.26-9.67,28.84-18.39C374.71,236.32,359.52,234.14,348.71,232.89Z"/><path class="cls-9" d="M355.45,207.35a115.47,115.47,0,0,1-47.21-11.57c-7.32-3.57-14.33-8-20-13.83a40.34,40.34,0,0,1-11.11-21.55c8.27,16,22.86,26.31,38.91,32.14,8,2.91,16.25,6.3,24.67,7.64s23.44.63,31.89-.26c27.94-2.95,51.88-15.37,69.7-37-.36-.71-.84-9.36-1.43-10s-1.74-1.74-3-2.88c-18.19.14-39.41,6-61.71,8-32.47,2.92-54.56-1-84.65-13.52-4.66-1.94-13.73-8.69-18.75-9.17s-23.64-11.53-27.17-7.92c-2.63,2.69,6.46,34,5.53,37.68,0,.09,0,.19-.07.29a107.09,107.09,0,0,0,31.89,46.37c18.85,16,42.82,25.58,67.39,28.43a106.89,106.89,0,0,0,32.68-1c.37-5.62-1-11.27-.31-15,1.5-8,3.1-15,6.11-19.27l-2.44.31C376.1,206.53,365.78,207.64,355.45,207.35Z"/><path class="cls-24" d="M390.59,202.87c4.22-3.78,17.16-2.06,33.79-18,15-14.35,21.31-23.47,17.93-30-17.82,21.65-44.1,36.44-72.05,39.39a96.45,96.45,0,0,1-25.4-.57,134.61,134.61,0,0,1-24.62-6.82c-16-5.83-32.1-13.47-43.1-26.52A40.34,40.34,0,0,0,288.25,182c5.66,5.85,12.67,10.26,20,13.83a115.47,115.47,0,0,0,47.21,11.57c10.33.29,20.65-.82,30.91-2.12l2.44-.31A12,12,0,0,1,390.59,202.87Z"/><path class="cls-3" d="M251,165.34a95.84,95.84,0,0,1-4.11-16.72A95.84,95.84,0,0,0,251,165.34c0-.1.05-.2.07-.29.93-3.65,2.24-7.34,4.86-10,3.53-3.61,9-4.82,14-4.35s9.77,2.43,14.43,4.37c30.09,12.55,61.54,25.93,94,23,22.29-2,43.48-12.4,59.46-28-9.78-8.65-34.05-26.44-37.48-30.41-3.88-4.49-13.06-17.4-17.31-22.08s-22.81-23.88-39.19-31.28-48.16-22.87-86.25-7.57c0,0-1.53.56-4.06,1.8-5.63,5.17-9.95,12-13.47,18.94a82.19,82.19,0,0,0-7.66,20.31c-2.64,12.6-.85,25.71,1.84,38.31,1.34,6.3,2.91,12.58,4.26,18.88,3.62,5.19,4.19,9.05,6.09,15.24.87,2.83,2.32,7.62,4.49,13.36A68.83,68.83,0,0,1,251,165.34Z"/><path class="cls-22" d="M301.05,194.54l2.72,9.23c.62,2.08,1.14,5.82,4.07,5.66,2.22-.12,4.44-2.12,6.12-3.39,1.83-1.38,3.81-3,6.17-3.2l-1.39-1.39a67.16,67.16,0,0,0,4,19.42,1.4,1.4,0,0,0,2.32.61l16.62-15-2.18-.28c3.18,7.15,3.09,15.23,6,22.47.41,1,1.93,1.5,2.53.34l10.34-19.95H356c3.52,7.11,7.35,14,11.15,21a1.39,1.39,0,0,0,1.9.49c1.54-1.15,2-2.81,2.63-4.55.8-2.13,1.65-4.24,2.58-6.32a118,118,0,0,1,6-11.73,1.39,1.39,0,0,0-2.4-1.4,119.38,119.38,0,0,0-5.65,10.89q-1.23,2.68-2.32,5.45c-.37.93-.73,1.87-1.07,2.81-.28.76-.52,1.95-1.2,2.46l1.9.5c-3.81-7-7.64-13.89-11.15-21a1.4,1.4,0,0,0-2.4,0l-10.33,19.95,2.53.33c-3-7.47-3-15.75-6.29-23.14a1.4,1.4,0,0,0-2.18-.28l-16.62,15,2.32.61a64.52,64.52,0,0,1-3.87-18.68,1.41,1.41,0,0,0-1.39-1.39c-4.29.43-7.05,3.56-10.55,5.69a8.49,8.49,0,0,1-1.26.68c-.63.25-.77.14-1-.47-.48-1.25-.78-2.6-1.15-3.88l-2.44-8.28a1.39,1.39,0,0,0-2.68.74Z"/><path class="cls-25" d="M286.83,129.18a22.77,22.77,0,0,0-.36,4.08c0,10.71,7.28,19.4,16.26,19.4,6.71,0,12.47-4.85,14.95-11.78A46.36,46.36,0,0,1,286.83,129.18Z"/><ellipse class="cls-22" cx="298.67" cy="137.21" rx="5.81" ry="8.18"/><ellipse class="cls-25" cx="301.07" cy="143.96" rx="2.4" ry="2.74"/><path class="cls-17" d="M302.73,113.86c-7.81,0-14.33,6.57-15.9,15.32a46.36,46.36,0,0,0,30.85,11.7,22.57,22.57,0,0,0,1.3-7.62C319,122.54,311.7,113.86,302.73,113.86Z"/><path class="cls-4" d="M288.77,143.22a22.23,22.23,0,0,1-2.3-10,22.83,22.83,0,0,1,1.07-6.95"/><path class="cls-4" d="M291.44,119.29a15,15,0,0,1,11.29-5.43c9,0,16.25,8.68,16.25,19.4,0,7.18-3.27,13.45-8.13,16.8"/><path class="cls-11" d="M285.94,130c8.09,8.21,20.38,12.46,31.8,12.09,1.78-.05,1.79-2.83,0-2.77-10.71.34-22.24-3.57-29.84-11.28-1.26-1.28-3.22.69-2,2Z"/><path class="cls-4" d="M207.11,121.2c4.55-26,24.54-52.12,52.52-63.37s64.69-5.67,94.72,14.81,34.48,34.05,44.91,45.77,39.81,26.24,43.5,38.21-35,58.22-97.76,49.68-68.3-44.72-68.3-44.72"/><path class="cls-4" d="M390.59,202.87s-7.27,7.85-8,22.89,3.23,32.55-30.82,31.78-65-16.91-82.3-38.29-22.92-37.35-26.87-55.66"/><path class="cls-11" d="M275.43,163.39C281,179.28,289.84,194.12,301.9,206a87.26,87.26,0,0,0,45.22,23.87,75.75,75.75,0,0,0,29.4-.35c1.75-.37,1-3-.74-2.67-16.65,3.57-34.29.72-49.49-6.78-14.78-7.29-27-18.94-36-32.68a114.28,114.28,0,0,1-12.15-24.7c-.58-1.68-3.27-1-2.67.74Z"/><path class="cls-11" d="M381.87,204.89a50.94,50.94,0,0,0-6,22.33c-.06,1.79,2.72,1.79,2.77,0a47.7,47.7,0,0,1,5.59-20.93c.84-1.58-1.56-3-2.4-1.4Z"/><path class="cls-11" d="M284.59,160.78c-1.75-.59-3.13-2-5-2.44a5.78,5.78,0,0,0-5.45,1.63,13.69,13.69,0,0,0-3.12,5.32,21.33,21.33,0,0,0-1.2,6.86,1.39,1.39,0,0,0,2.77,0,18.83,18.83,0,0,1,.95-5.67,11.35,11.35,0,0,1,2.42-4.41,3,3,0,0,1,3.43-.89c1.56.61,2.82,1.74,4.42,2.28s2.43-2.11.74-2.68Z"/><path class="cls-26" d="M355.75,135.14c-4.31,2.65-13,7.39-12.71,23.23s6.11,23.5,16.14,24.29,21.1-.73,32.47-19.8c7.65-12.85,19.26-39.26,0-36.89S361.42,131.66,355.75,135.14Z"/><path class="cls-21" d="M198.65,113.3s1.32-8.45,17.69-3.7S343,151.84,343,151.84"/><path class="cls-21" d="M355.75,135.14c-4.31,2.65-13,7.39-12.71,23.23s6.11,23.5,16.14,24.29,21.1-.73,32.47-19.8c7.65-12.85,19.26-39.26,0-36.89S361.42,131.66,355.75,135.14Z"/><path class="cls-22" d="M343,156.84s-20.27-6.18-19-11.43,20.66,1.74,20.66,1.74Z"/><path class="cls-22" d="M401,128.79c2.35-2.12,4.69-3.83,8-3.93a12.56,12.56,0,0,1,4.88.59c.13,0,.89.47,1,.55s.59.55.84.81c1.23,1.29,3.19-.68,2-2-2.29-2.39-5.47-2.86-8.68-2.76a12.76,12.76,0,0,0-6,1.64,23.82,23.82,0,0,0-4,3.1c-1.33,1.2.64,3.16,2,2Z"/><path class="cls-22" d="M403.17,138.84a17.58,17.58,0,0,1,13.54-4.66,1.39,1.39,0,1,0,0-2.77,20.27,20.27,0,0,0-15.5,5.47c-1.3,1.23.66,3.19,2,2Z"/><path class="cls-11" d="M407.07,168.9a8.84,8.84,0,0,0,2.35,3.32A5.31,5.31,0,0,0,413,173.8a2.41,2.41,0,0,0,2-1.17,2.9,2.9,0,0,0-.24-2.82,8.67,8.67,0,0,0-6.75-4.34,1.41,1.41,0,0,0-1.39,1.39,4.93,4.93,0,0,0,2.81,4.45,1.48,1.48,0,0,0,1.07.14,1.42,1.42,0,0,0,.83-.63,1.4,1.4,0,0,0-.5-1.9l-.44-.23-.18-.12c-.14-.09.23.2,0,0s-.25-.23-.36-.35-.19-.24-.05-.06,0-.06-.06-.1a3.18,3.18,0,0,1-.23-.4c-.12-.23.09.29,0,0a1.18,1.18,0,0,1-.07-.2c-.05-.14-.06-.3-.11-.45.1.34,0,.18,0,0v-.25L408,168.25a1,1,0,0,0,.17,0c-.24,0-.24,0-.11,0l.34.06c.24.05.48.12.71.19l.32.12c.32.12-.24-.12.07,0s.44.22.65.34a5.72,5.72,0,0,1,.58.37l.14.1s-.25-.2-.07,0a3.47,3.47,0,0,1,.29.25c.17.15.34.31.5.48l.2.23.11.13c.19.23-.19-.26,0,0s.26.38.38.58l.16.3a.76.76,0,0,0,.09.18c-.09-.07-.09-.23,0,0,0,.05.08.26,0,.05s0-.06,0,0a.69.69,0,0,1,.1-.37c-.11.18.1-.11.11-.12a.76.76,0,0,0-.09.09c.13-.18.26-.18.13-.11.37-.2.26-.09.16-.07s-.2,0,.11,0a2.53,2.53,0,0,1-.28,0h-.14s.36.07.16,0l-.25-.07-.14,0c-.16,0,.3.15.1,0s-.41-.22-.6-.34l-.3-.2-.14-.1.1.08-.1-.09a6.1,6.1,0,0,1-.59-.54,3.65,3.65,0,0,1-.27-.3l-.12-.13c-.13-.16,0-.08,0,0-.13-.23-.31-.44-.44-.67a3.61,3.61,0,0,1-.22-.39c0-.09-.24-.54-.08-.15a1.56,1.56,0,0,0-.64-.83,1.38,1.38,0,0,0-1.07-.14,1.41,1.41,0,0,0-1,1.71Z"/><path class="cls-27" d="M290.67,102.37c2-3.73,2.62-1.59,9.82-1.32s12.56-2.66,16-7.89,8.52-.37,9.55,4.13-2.88,17.31-18.72,14.82S289.6,104.39,290.67,102.37Z"/><path class="cls-21" d="M290.67,102.37c2-3.73,2.62-1.59,9.82-1.32s12.56-2.66,16-7.89,8.52-.37,9.55,4.13-2.88,17.31-18.72,14.82S289.6,104.39,290.67,102.37Z"/></g></svg>