<svg xmlns="http://www.w3.org/2000/svg" xmlns:xlink="http://www.w3.org/1999/xlink" viewBox="0 0 600 600"><defs><style>.cls-1{fill:#bf66ff;}.cls-2{fill:#80cde8;}.cls-3{fill:#f1f3f3;}.cls-4{fill:#b8ffcc;}.cls-5{fill:#eae65e;}.cls-6{fill:#c9c131;}.cls-7{fill:#76d38c;}.cls-13,.cls-14,.cls-16,.cls-18,.cls-19,.cls-21,.cls-24,.cls-8,.cls-9{fill:none;}.cls-8{stroke:#030304;}.cls-14,.cls-16,.cls-18,.cls-19,.cls-24,.cls-8,.cls-9{stroke-linecap:round;stroke-linejoin:round;}.cls-16,.cls-18,.cls-24,.cls-8{stroke-width:2.77px;}.cls-16,.cls-9{stroke:#1b5186;}.cls-19,.cls-9{stroke-width:3.33px;}.cls-10{fill:#dedbe1;}.cls-11{fill:#0080ca;}.cls-12{fill:#1b5186;}.cls-13{stroke:#6fb7d6;stroke-width:0.56px;}.cls-13,.cls-21{stroke-miterlimit:10;}.cls-14,.cls-18,.cls-19,.cls-21{stroke:#1d1d1b;}.cls-14,.cls-21{stroke-width:2.22px;}.cls-15{fill:#f2f3f2;}.cls-17{fill:#1d1d1b;}.cls-20{fill:url(#Degradado_sin_nombre_10);}.cls-22{fill:url(#Degradado_sin_nombre_10-2);}.cls-23{fill:#fbb03b;}.cls-24{stroke:#8e6a2b;}.cls-25{fill:#3c3c3b;}</style><linearGradient id="Degradado_sin_nombre_10" x1="5554.46" y1="160.42" x2="5554.46" y2="129.35" gradientTransform="matrix(-1, 0, 0, 1, 5786.35, 0)" gradientUnits="userSpaceOnUse"><stop offset="0" stop-color="#fffe3f"/><stop offset="1" stop-color="#ff8c38"/></linearGradient><linearGradient id="Degradado_sin_nombre_10-2" x1="300.98" y1="165.25" x2="300.98" y2="130.97" gradientTransform="matrix(1, 0, 0, 1, 0, 0)" xlink:href="#Degradado_sin_nombre_10"/></defs><g id="Capa_3" data-name="Capa 3"><g id="a"><rect class="cls-1" width="600" height="600"/></g></g><g id="Capa_2" data-name="Capa 2"><path class="cls-2" d="M216.78,212s29.13,79.68,74.09,83.74,92-57.69,95.13-65.8-2.51-27.59-2.51-27.59-5.14-62-10.84-99.07c-4.44-28.83-17.47-51.7-65.33-52.67s-62,32.3-63.72,38.09S219.1,204.71,216.78,212Z"/><path class="cls-3" d="M234.84,173.51l15,67.7s18.45,13.44,27.67,26.36,20.56,44,28.47,43.22,41.53-54.13,41.53-54.13L360.67,167s-28.94,48.66-59.89,50.57C253.78,220.46,246.44,192.75,234.84,173.51Z"/><path class="cls-4" d="M247.11,495.9l2-25.4s19.38,12.94,52.32,12.94,53.28-14.76,53.28-14.76v26.79s11.32,6.16,22.06,5.3,19.62-2.3,19.62-2.3l-3.58,101.16h-179l-5.95-100.87s5.45,2.58,19.63,1.72S247.11,495.9,247.11,495.9Z"/><path class="cls-5" d="M249.72,470.3S264.55,484,298.94,484s54.31-13.47,54.31-13.47l-1.69-67.66-48.2-6.11L253,416.32Z"/><path class="cls-4" d="M253,416.32s-2.38,30.78-2.83,38.13-3.4,42.1-3.4,42.1-9.5,5.54-25,4.41-24.44-4.75-24.44-4.75-7.58-30.33-8.94-40.85a133.64,133.64,0,0,1-1-19.69s1.81,2.72,7.81,2.26S253,416.32,253,416.32Z"/><path class="cls-4" d="M334,386.62s-6.1-19.42-5.53-35.86S332,327.09,332,327.09s-36.71,8.22-42.94,11.19-32.6,13.9-39.55,19.42-6.66,13.33-9.07,16.16-5.1,3.54-5.81,2.41-2-10.49-2-10.49l1-8.36s-5.39,11.48-11.06,14-5.67.57-6.09-1.13.56-6.66.56-6.66-4.67,5.81-8.08,3,1.7-11.48,3-14,5-10.77,5-10.77-6.94,1.56-8.08.57,4.4-7.66,4.4-7.66l2.69-2.12S241,320,248,319.29s4.68-.42,4.68-.42l-11.77-62.51s-17.71-18.14-21-23.81-.71-18.71-.71-18.71l-.57-12.19s-9.92,8.36-12.47,12.47a25.67,25.67,0,0,0-3.26,8.08l-46.63,37.56s-16.3-1.13-24.1,21.69,6,61.65,19.14,96.66,32.45,55.28,37.13,58.26,11.77,1.27,14.46.56S300,395.69,334,386.62Z"/><path class="cls-4" d="M356.12,315.61l12.47-61.38s13.75-12.89,17.15-21.68,1.18-19.17,1.18-19.17l-2-13.31s10.85,7,13.26,10.65,5.53,12.47,5.53,12.47l30.19,19.71a24.39,24.39,0,0,1,24.24,5.1c11.62,10.2,15.45,30.05,8.36,65.06s-23,94.11-23.81,96.09a16.53,16.53,0,0,1-3.26,4.26s-16.16-.43-18.57-.71l-2.41-.29s-2.83,32.32-5.38,44.65-8.37,39.12-8.37,39.12a102.08,102.08,0,0,1-20.41,4.54c-10.2,1-29.34-4-29.34-4l-3.68-93.12L301,396.82l32.46-9.92s-3.83-27.35-4.39-33.31-.29-15-.29-15l.85-1.28,53.3,13.18,5.38-21.4s-7.37-10.77-16.58-13.6S356.12,315.61,356.12,315.61Z"/><path class="cls-5" d="M297,283.36s-6.69-16.89-32.07-30.62-46.07-39.29-46.07-39.29-.27,13.27,2.26,19.69,20.23,25.11,20.23,25.11l7.5,35.77,3,24.66a236.3,236.3,0,0,1,23.3,8,205.32,205.32,0,0,1,20,10.39l7.31-1.27,31.89-10.11s10.21-7.5,13.37-8.58a92.43,92.43,0,0,1,9-2.26l10.75-60.25s15.18-15.36,17.8-22.95a40.91,40.91,0,0,0,2.26-14.09S332.66,257.71,322.55,267s-20.78,38.57-20.78,38.57Z"/><path class="cls-6" d="M250.94,437.12s18-10.36,50.16-10.36,51.27,13.14,51.27,13.14l-1.07-36.27-46.69-6.95-52.84,21.19Z"/><path class="cls-6" d="M242,259.91l7.34,38.27s-1.25-12.67,21.86-13.54,29.58,16,29.58,16-2-13.54-2.61-14.78-8.82-11.68-22.12-17.4-18.89,4.35-19.26,5.35-2.24,4.47-2.24,4.47S250.83,266.25,242,259.91Z"/><path class="cls-6" d="M301.77,302.53s-1.49-15.29,18.14-27.71,24.85-7.46,27.21-5.22,4.35,8.82,4.35,8.82l15.41-22.49-7.21,34.17s-3.1-5.84-21.87-7.2S301.77,302.53,301.77,302.53Z"/><path class="cls-7" d="M233.5,291.23A267.12,267.12,0,0,0,215.74,266s-7.3-27.07-5-40.25,8.88-14.32,8.88-14.32l-.14-11.31s-15,11.17-19.05,30.65,9.64,49.48,9.64,49.48L225.91,295s-2.86,14.47-4.73,22.92-2.86,12.6-2.86,12.6l9.17-3.87s1.72-11.74,3.29-16,9.45,0,9.45,0S240.81,303.4,233.5,291.23Z"/><path class="cls-7" d="M166.69,261.84s-15.12,6.68-18.06,28.67,37.1,106.6,45,118.19,44,1,72.84-9.62,66.95-17.87,66.95-17.87l.39,4.71s-39.27,12.18-69.31,25.33-64.59,29.06-72.25,25.92-26.5-20.82-42.8-65.58S125.66,294.82,134.3,276,166.69,261.84,166.69,261.84Z"/><path class="cls-7" d="M210.27,279.91c-.46-.71-11.2-20.32-10.85-35.38s1.28-20.08,1.28-20.08l-44.83,35.49s5.61.7,8.41.94a14.46,14.46,0,0,1,4.55,1.05s8.4-5.84,14.59-9.46,16,18.45,18.21,29.3l14.48,49.85,2.21-1.15s5.84-27.68,6-30.25.47-6.54.47-6.54S210.74,280.61,210.27,279.91Z"/><path class="cls-7" d="M374,291.23A269.19,269.19,0,0,1,391.75,266s7.31-27.07,5-40.25-8.88-14.32-8.88-14.32l-2.34-11.34s17.53,11.2,21.54,30.68-9.65,49.48-9.65,49.48l-12.18,11.84s-.8,17.31,1.06,25.76,2.86,12.6,2.86,12.6L380,326.6s-1.72-11.74-3.3-16-9.45,0-9.45,0S366.69,303.4,374,291.23Z"/><path class="cls-7" d="M405.21,223.19l26.86,19.49a69.24,69.24,0,0,0-23.79,29.63C400.14,292,388,327.42,388,327.42l-6-7.37-2.3-24.56,18.73-16.12s9.36-17,10-34.54S405.21,223.19,405.21,223.19Z"/><path class="cls-8" d="M384.83,200.11s16.66,5.83,21.54,30.68-11.06,55.44-11.06,55.44-20.33,5.21-28.76,24.33"/><path class="cls-7" d="M209,433.42c-14,5-17.52,5.4-20.68,1.86v13.05s38.39,6.89,61.88-10.07l1.64-21.74S223,428.38,209,433.42Z"/><path class="cls-7" d="M209.28,515.7s26.25,4.74,44-3.71L256,497s32,8,86.89.15l1.48,13.64s22.83,7.26,51.16.29l.44-11.71s-5,2.22-20,.89-21.5-5-21.5-5l-.74-24.76s-20.16,12.9-50.71,12.9a116.1,116.1,0,0,1-54-13.94l-2.24,27.11s-12,3.43-21.34,3.58a166.17,166.17,0,0,1-16.9-.59Z"/><path class="cls-7" d="M351.56,402.86l1,19.19s21.62,14.91,63.93,7.26l2-16.9Z"/><path class="cls-7" d="M328.14,388.68s93.56,11.75,96.73,12.3,18.45-46.41,30.57-91.7-2.43-75.67-30-61.5c0,0,5.59-10.26,25-5.41s19,33.36,17,60.39-25.73,108.85-27,110-7.83,1.67-20.69-.38-116.29-15.6-116.29-15.6Z"/><path class="cls-9" d="M239.55,106.49,245.91,83s12.41-37.31,66-32.49C362,55,372.88,81,374.61,117.11S386,218.21,386,218.21"/><path class="cls-10" d="M260.07,249.19l-4.31-43.82a59.93,59.93,0,0,0,38.56,13.21c29.26-.58,54.2-29.81,54.2-29.81l-8.84,66S314,275.19,311.63,278.62s-9,21.27-9,21.27a151.94,151.94,0,0,0-12-26.21c-8.17-14.18-30.51-24.49-30.51-24.49"/><path class="cls-3" d="M229.61,155.49s4.66-8.68,9.14-12.64,13.88-3.39,20.07,1.09,11.88,4,23.58,0,35.65,15.4,59.76-.82,28.3,12,14.34,31.92-35.33,46.65-72.91,43.17S230.42,172.67,229.61,155.49Z"/><path class="cls-2" d="M383.6,350.27h-3.22L330.22,337.6s-1.83-12.57,11.49-17.3,23.52-6.44,34.27-2.58a17.3,17.3,0,0,1,11.7,13.65Z"/><path class="cls-11" d="M330.75,333s27.61-12.89,55.32.86L383.5,349.3l-7.85-.21-46-11.8Z"/><path class="cls-8" d="M216,336.1s6.75-15.2,9.46-41.51"/><path class="cls-8" d="M217,334.38s-7.87-29-12.54-44.51S188.67,267,182.52,266.26"/><line class="cls-8" x1="154.11" y1="260.45" x2="202.74" y2="221.82"/><path class="cls-12" d="M222.45,201.09l14.32,14S224.34,213.05,222.45,201.09Z"/><path class="cls-12" d="M224.42,190.51l14.33,14S226.31,202.47,224.42,190.51Z"/><path class="cls-12" d="M226.29,179.44l14.32,14S228.18,191.4,226.29,179.44Z"/><path class="cls-12" d="M381.26,201.09l-14.33,14S379.37,213.05,381.26,201.09Z"/><path class="cls-12" d="M379.29,190.51l-14.33,14S377.39,202.47,379.29,190.51Z"/><path class="cls-12" d="M377.42,179.44l-14.33,14S375.53,191.4,377.42,179.44Z"/><path class="cls-8" d="M251.76,318.8s-4.55-33.36-10.7-60.65"/><path class="cls-8" d="M356.53,315.79s4.53-31.83,10.68-59.13"/><line class="cls-8" x1="405.86" y1="224.36" x2="433.55" y2="242.1"/><path class="cls-8" d="M418.2,256.93s8.14-19.49,28.38-14.8,27.15,24.92,19.74,70.33-25.42,100.2-25.42,100.2.25,1.72-9.62,1c-6.2-.46-127.59-16.78-127.59-16.78"/><path class="cls-9" d="M332.25,327.56s9.45-11.28,29-12.34,26.47,13.89,26.47,13.89"/><line class="cls-8" x1="329.96" y1="338.08" x2="384.23" y2="350.73"/><path class="cls-8" d="M382.64,351.13s8.91-4.12,31.86-.42"/><path class="cls-8" d="M382.91,351.21S392,304.07,411,266.31"/><path class="cls-8" d="M249.07,470.5s43.61,30.17,103.94,0"/><line class="cls-8" x1="301.57" y1="483.45" x2="301.57" y2="397.36"/><path class="cls-8" d="M187.19,435.21s1,36.64,9.84,60.75c0,0,22.13,10.32,50.17.49l4.67-79.93"/><path class="cls-8" d="M417.75,413.52s-4.48,58.33-13.33,82.44c0,0-22.14,10.32-50.17.49l-3.08-93"/><line class="cls-8" x1="225.51" y1="466.46" x2="234.43" y2="461.72"/><line class="cls-8" x1="340.02" y1="446.4" x2="347.82" y2="441.1"/><line class="cls-8" x1="341.14" y1="437.48" x2="346.43" y2="431.63"/><line class="cls-8" x1="207.96" y1="499.33" x2="213.35" y2="598.87"/><line class="cls-8" x1="297.95" y1="501.01" x2="297.95" y2="558.68"/><path class="cls-8" d="M308.82,500.17v47.57s-4.7,7.42-8.94,10.2-4.08,41.69-4.08,41.69"/><line class="cls-8" x1="396.02" y1="499.06" x2="393.24" y2="598.52"/><path class="cls-8" d="M218.75,213.3s10.51,16.18,32.53,30.36,46.53,23.72,50.37,59.24v31.15"/><path class="cls-8" d="M240.23,310.56c-8.43-19.12-28.76-24.33-28.76-24.33s-15.93-30.6-11.05-55.44,19.05-30.65,19.05-30.65"/><path class="cls-8" d="M301.82,304.05s4-26,33.2-46a593,593,0,0,0,52.56-40.83"/><path class="cls-8" d="M218.67,213.38s-6.15,13.28,11.07,31.23,25.33,33.94,25.33,33.94,1-8.61,8.61-11.31,22.77,6.34,30.64,14.46"/><path class="cls-8" d="M388,216.53s3.11,12.47-11.29,28.08c-16.86,18.29-25.33,33.94-25.33,33.94s-1-8.61-8.61-11.31-21.24,5-29.11,13.12"/><path class="cls-8" d="M172.9,263.6A27.72,27.72,0,0,0,143,265.33c-25.82,18.32-7.24,74,8.5,112.33s33.94,59.27,41.07,60.26,33.69-10.33,60.5-21.89,63-25.19,80.66-29.13c0,0-9.67-35.23-1.93-60.37,0,0-30.28,5.88-67.42,22.11"/><path class="cls-13" d="M218.12,361.9a17.06,17.06,0,0,0,1-2S218.69,360.71,218.12,361.9Z"/><path class="cls-11" d="M239.47,327.56c0-3.47-13.35,1.63-18.7,4.9-4.43,2.71-10.45,5.86-12,9.73.55.66,2.32.61,6.6-.64a45.16,45.16,0,0,1,8.39-5.68C229,333.13,234.89,331.36,239.47,327.56Z"/><path class="cls-2" d="M248.51,358.33c7.53-6.06,17.38-12,25.82-16.71,4.61-2.56,11-4.86,14.47-8.83-10.74-5.68-33.84-16.65-43.22-13C231.7,325.1,211,332.51,210,336.83c-.51,2.28-2,4.46-1.25,5.36q6.75-3.9,13.39-8c5.35-3.27,11-6.74,17.32-6.67-4.58,3.8-10.45,5.57-15.72,8.31a45.16,45.16,0,0,0-8.39,5.68c.86-.25,1.8-.54,2.87-.88a66,66,0,0,0-8.33,15.84c-1.46,4.32-2.46,7.14-2.38,8.83.48-.49,3.18,2.52,3.6,2,2.26-2.91,3.93-6,6-9.1,6.66-10.12,15.81-19.52,26.81-24.61-3.2,4.41-9.27,5.47-13.66,8.69-4.16,3.05-6.59,7.88-8.67,12.6q-2.92,6.63-5.34,13.47c-.13.36-.25.73-.38,1.1,0,1.93.73,3.41,3.06,3.53a4.91,4.91,0,0,0,1.08-.08c.72-1.21,5-3.75,5.44-5.06,1.3-3.49,3.66-4.94,5.45-8.2,2.46-4.47,4.42-7.1,8.54-10.11,3.53-2.58,6.23-5.37,9.89-7.75,2.59-1.67,2.1-3.25,4.45-1.26-1.93,1.35-2.08,1.13-4.06,2.41a46.2,46.2,0,0,0-16,18.08c-.9,4-1.83,9.69-.82,13,.19-.7,3.12,2.63,3.33,1.94C238.37,368.61,242.49,363.17,248.51,358.33Z"/><path class="cls-11" d="M292.39,334.86s-3.48-2.16-8.65-4.89a45.8,45.8,0,0,1-12.21,9.91c-8.45,4.7-18.4,6.72-25.94,12.78-6,4.84-10,11.91-12.15,19.32-.2.69-.4,1.39-.59,2.09.59,2,1.87,3.13,4.25,2.61,9-2-.45-11.18,13.77-20s17.64-11.11,25.34-14.23S293.05,337.5,292.39,334.86Z"/><path class="cls-11" d="M221.56,354.91c2.08-4.72,4.51-9.55,8.67-12.6,4.39-3.22,10.46-4.28,13.66-8.69-11,5.09-22.57,10.65-29.23,20.77-2,3.08-3.53,6.51-5.8,9.42a19.3,19.3,0,0,1-1.34,1.53c.07,1.59,1.09,2.16,3.6,2,3.35-.23,5.75-3.32,7-5.43.57-1.19,1-2,1-2a17.06,17.06,0,0,1-1,2c-1,2-2.24,5.15-2.28,7.58.13-.37.25-.74.38-1.1Q218.64,361.54,221.56,354.91Z"/><path class="cls-11" d="M255.68,339.2c-2.35-2-5.92-.41-8.5,1.27q-5.51,3.57-10.79,7.43c-4.12,3-8.26,6.28-10.72,10.75-1.79,3.27-2.58,7-3.89,10.47a24.07,24.07,0,0,1-1.8,3.81c6.83-1.24,14.86-16.42,14.86-16.42s-.58,1.89-1.17,4.53a46.2,46.2,0,0,1,16-18.08C251.67,341.68,253.75,340.55,255.68,339.2Z"/><path class="cls-12" d="M293.09,333.66c-7.27-3.37-14.48-6.87-21.76-10.21-7.54-3.46-16.06-6.26-24.48-5.27-3.67.43-6.81,1.94-10.16,3.35-3.2,1.34-6.42,2.64-9.59,4-6.09,2.67-12.46,5.66-17.26,10.38-1.2,1.18-2,2.11-2.13,3.83-.1,1.5-.13,3,1.35,3.79,2.81,1.61,7.5.1,9.87-1.71,1.4-1.06,0-3.47-1.4-2.39a10.93,10.93,0,0,1-3.87,1.7,7.07,7.07,0,0,1-1.83.24,4.47,4.47,0,0,1-.82-.07c-.16,0-.68-.23-.62-.15a8.15,8.15,0,0,0,.08-1.12,1.43,1.43,0,0,1,.47-1.27,25.46,25.46,0,0,1,2.9-2.69c4.79-3.84,10.6-6.42,16.21-8.82,2.77-1.19,5.56-2.31,8.33-3.49,3.06-1.29,6-2.65,9.31-2.93,7.6-.64,15.21,1.76,22,4.88,7.36,3.36,14.63,6.91,22,10.31,1.61.74,3-1.65,1.41-2.4Z"/><path class="cls-12" d="M238.34,327.53c-4.12,2.33-8.48,4.2-12.67,6.39a41.46,41.46,0,0,0-6.51,4,18.47,18.47,0,0,0-4.9,6.22c-2.79,5.34-5.29,10.88-7.69,16.41-.94,2.19-1.65,4.77.27,6.67a5.86,5.86,0,0,0,5.5,1.29c2-.54,3.51-2.26,4.78-3.85a34.06,34.06,0,0,0,3.66-5.49c.82-1.58-1.57-3-2.39-1.4a31.24,31.24,0,0,1-2.53,4,15.22,15.22,0,0,1-3.26,3.62c-1.07.74-3.1.88-4-.3-.62-.85-.12-2,.23-2.9.52-1.27,1.11-2.52,1.67-3.77,2.11-4.69,4.17-9.51,6.72-14,2.31-4.08,6.22-6.28,10.28-8.37s8.23-3.91,12.2-6.15a1.39,1.39,0,0,0-1.4-2.4Z"/><path class="cls-12" d="M243.18,332.78a43,43,0,0,1-7.28,4.46,33.46,33.46,0,0,0-6.58,4.53,42.88,42.88,0,0,0-9.06,12.53c-1.19,2.33-2.25,4.71-3.28,7.12s-2.51,5.05-2.39,7.75a5.25,5.25,0,0,0,3.91,5.17c2.79.57,5.23-1.09,7-3.09a126.31,126.31,0,0,0,12-16.65c1-1.51-1.44-2.91-2.39-1.4a149.83,149.83,0,0,1-9.36,13.33c-1.41,1.79-3.14,4.66-5.58,5.1-2.68.48-3.14-2.36-2.59-4.33a50.92,50.92,0,0,1,2.78-6.81c.9-2,1.85-4,2.9-6a38.92,38.92,0,0,1,8-10.75c4.14-3.75,9.61-5.42,13.86-9,1.37-1.15-.6-3.1-2-2Z"/><path class="cls-12" d="M255.82,337.63,243.73,346c-3.32,2.32-6.65,4.75-9,8.09s-3.37,7.75-3.5,12c-.07,2.23.05,4.45.19,6.67.12,1.77.29,3.74,1.85,4.86,3.35,2.41,7.43-1.14,9-4,2-3.56,2.06-8,4.42-11.35a18.4,18.4,0,0,1,4.73-4.28c1.83-1.3,3.69-2.54,5.58-3.74q5.79-3.67,11.89-6.81a142.55,142.55,0,0,1,14.24-6.34c2.38-.91,4.79-1.73,7.21-2.54,1.94-.64,3.77-1.81,3.39-4.1-.29-1.76-3-1-2.67.74.07.43-4.4,1.67-4.87,1.83q-2.87,1-5.68,2.13c-3.8,1.51-7.55,3.16-11.21,5a128.5,128.5,0,0,0-20.77,12.53,16.75,16.75,0,0,0-6.26,8.63c-1,3.16-1.53,7.11-4.31,9.3a4,4,0,0,1-2.31.95c-1,0-1.26-.81-1.38-1.68a44.37,44.37,0,0,1-.3-5.65c-.06-3.83.27-7.81,2.17-11.22,2-3.62,5.49-6.15,8.84-8.49,4.07-2.85,8.17-5.67,12.26-8.51,1.45-1,.07-3.42-1.41-2.4Z"/><path class="cls-12" d="M263,338.07l4.3-1.83a1.34,1.34,0,0,0,.64-.83,1.39,1.39,0,0,0-1-1.7l-.37,0a1.34,1.34,0,0,0-.7.19l-4.3,1.83a1.4,1.4,0,0,0-.5,1.89,1.43,1.43,0,0,0,.83.64l.37.05a1.32,1.32,0,0,0,.7-.19Z"/><path class="cls-12" d="M249,331l6.21-1.68a1.39,1.39,0,1,0-.74-2.67l-6.21,1.67A1.39,1.39,0,0,0,249,331Z"/><line class="cls-14" x1="244.68" y1="170.99" x2="251.55" y2="167.46"/><path class="cls-3" d="M240,161.62s20.32,11.65,49.47,12.26S350,153.48,350,153.48l3.76-3.15s-22.58,42.2-64.09,44S240,161.62,240,161.62Z"/><path class="cls-9" d="M229.61,157.71s12.61,55.83,54,60.5,71.3-36.76,77.08-51.22"/><line class="cls-9" x1="217.74" y1="212.23" x2="235.29" y2="128.35"/><path class="cls-9" d="M260.79,157.71s-7.3-9.29-7.73-18.62c-.39-8.59,11.05-14.28,22.11-20.21"/><path class="cls-14" d="M237.49,158.81c8.45,4.3,16.25,8.23,16.25,8.23s34.76,16,70.55.21c0,0,20.17-9.79,32.34-19.39"/><path class="cls-14" d="M237.49,158.81s10.28,32.68,50.94,35.45c37.21,2.53,68.2-46.4,68.2-46.4"/><polyline class="cls-14" points="252.17 167.35 257.66 182.63 267.16 171.83 277.63 192.87 288.07 174.33 299 193.25 308.68 172.35 320.81 184.69 325.64 167.98 334.66 174.21 340.02 158.81"/><path class="cls-14" d="M354.62,145.46s5,1.14,3.86,7"/><path class="cls-12" d="M278.5,143.5,275.81,145a1.39,1.39,0,0,0-.5,1.9,1.4,1.4,0,0,0,.83.64,1.53,1.53,0,0,0,1.07-.14l2.69-1.52a1.39,1.39,0,0,0,.5-1.9,1.37,1.37,0,0,0-.83-.64,1.48,1.48,0,0,0-1.07.14Z"/><path class="cls-15" d="M353.76,119.08a19,19,0,0,1,.3,3.31c0,8.71-5.92,15.77-13.22,15.77-5.45,0-10.13-3.94-12.15-9.57C321.78,114.94,343.72,91.25,353.76,119.08Z"/><path class="cls-2" d="M339.93,138.3s-10.11-.81-12.56-13.6l1.81-8.51c2.43-11.34,18.07-12.7,22.42-1.94l2.3,5.7S354.76,138.3,339.93,138.3Z"/><path class="cls-16" d="M352.19,130.49a18.19,18.19,0,0,0,1.87-8.1,18.5,18.5,0,0,0-.87-5.64"/><path class="cls-16" d="M350,111a12.17,12.17,0,0,0-9.18-4.41c-7.29,0-13.21,7.05-13.21,15.76,0,5.84,2.66,10.94,6.61,13.66"/><line class="cls-16" x1="329.82" y1="125.41" x2="353.03" y2="122.68"/><path class="cls-15" d="M251.8,116.46a19,19,0,0,1,.3,3.31c0,8.71-5.92,15.77-13.22,15.77-5.45,0-10.14-3.94-12.15-9.57C219.82,112.32,241.76,88.64,251.8,116.46Z"/><path class="cls-2" d="M238,135.68s-10.12-.8-12.57-13.6l1.82-8.5c2.42-11.35,18.07-12.71,22.41-2l2.3,5.7S252.8,135.68,238,135.68Z"/><path class="cls-16" d="M250.22,127.87a18.06,18.06,0,0,0,1.88-8.1,18.25,18.25,0,0,0-.88-5.64"/><path class="cls-16" d="M248.06,108.43a12.17,12.17,0,0,0-9.18-4.42c-7.3,0-13.21,7.06-13.21,15.76,0,5.84,2.65,10.94,6.6,13.66"/><line class="cls-16" x1="227.85" y1="122.8" x2="251.07" y2="120.06"/><path class="cls-17" d="M321.2,136s10.06-1.22,10.43-5.94-9.44-2.73-9.44-2.73Z"/><line class="cls-18" x1="323.21" y1="130.11" x2="372.12" y2="122.75"/><path class="cls-19" d="M250.37,124s18.23-9.46,31.37,0"/><path class="cls-19" d="M250.37,132.7s17.95-13.94,31.37,0"/><path class="cls-20" d="M242,118.47c7,1.44,11.52,8.71,10.1,16.14a68.39,68.39,0,0,1-3.46,12.61c-3.79,9.21-22.86,9.07-29.27,3.49-5.29-4.62-7-15.91-7.82-24.18a6.2,6.2,0,0,1,4-6.53A50.72,50.72,0,0,1,242,118.47Z"/><path class="cls-21" d="M242,118.47c7,1.44,11.52,8.71,10.1,16.14a68.39,68.39,0,0,1-3.46,12.61c-3.79,9.21-22.86,9.07-29.27,3.49-5.29-4.62-7-15.91-7.82-24.18a6.2,6.2,0,0,1,4-6.53A50.72,50.72,0,0,1,242,118.47Z"/><path class="cls-22" d="M290.54,119c-7.23,1.59-12,9.61-10.48,17.8a79.87,79.87,0,0,0,3.59,13.93c3.93,10.16,23.73,10,30.37,3.85,5.5-5.1,7.28-17.56,8.12-26.69a6.9,6.9,0,0,0-4.16-7.21A49.72,49.72,0,0,0,290.54,119Z"/><path class="cls-21" d="M290.54,119c-7.23,1.59-12,9.61-10.48,17.8a79.87,79.87,0,0,0,3.59,13.93c3.93,10.16,23.73,10,30.37,3.85,5.5-5.1,7.28-17.56,8.12-26.69a6.9,6.9,0,0,0-4.16-7.21A49.72,49.72,0,0,0,290.54,119Z"/><path class="cls-23" d="M237.46,338.57s9.23.23,10.82,6.6l-7.76,5.94s-7.48-7.33-10.73-6.85Z"/><path class="cls-24" d="M237.46,338.57s9.23.23,10.82,6.6l-7.76,5.94s-7.48-7.33-10.73-6.85Z"/><path class="cls-25" d="M355.92,88.22c-1.52-2.87-2-1.22-7.57-1s-9.68-2-12.32-6.08-6.57-.29-7.36,3.18,2.22,13.34,14.42,11.42S356.74,89.78,355.92,88.22Z"/><path class="cls-18" d="M355.92,88.22c-1.52-2.87-2-1.22-7.57-1s-9.68-2-12.32-6.08-6.57-.29-7.36,3.18,2.22,13.34,14.42,11.42S356.74,89.78,355.92,88.22Z"/><path class="cls-25" d="M228.73,91.6c1-3.11,1.76-1.58,7.25-2.4s9.13-3.8,11-8.25,6.4-1.5,7.81,1.76.3,13.52-12.06,13.89S228.21,93.28,228.73,91.6Z"/><path class="cls-18" d="M228.73,91.6c1-3.11,1.76-1.58,7.25-2.4s9.13-3.8,11-8.25,6.4-1.5,7.81,1.76.3,13.52-12.06,13.89S228.21,93.28,228.73,91.6Z"/></g></svg>