<svg xmlns="http://www.w3.org/2000/svg" xmlns:xlink="http://www.w3.org/1999/xlink" viewBox="0 0 600 600"><defs><style>.cls-1{fill:#ffabfd;}.cls-2{fill:#007fcc;}.cls-3{fill:#7fdadd;}.cls-14,.cls-16,.cls-17,.cls-20,.cls-22,.cls-31,.cls-4,.cls-7{fill:none;}.cls-4{stroke:#1b5186;}.cls-14,.cls-17,.cls-22,.cls-31,.cls-4,.cls-7{stroke-linecap:round;stroke-linejoin:round;}.cls-17,.cls-22,.cls-31,.cls-4,.cls-7{stroke-width:2.77px;}.cls-5{fill:#d7dfe8;}.cls-6{fill:#fffffe;}.cls-7{stroke:#b5bbc0;}.cls-8{fill:#b5bbc0;}.cls-9{fill:#f1f3f3;}.cls-10{fill:#dedbe1;}.cls-11{fill:#1b5186;}.cls-12{fill:#606060;}.cls-13{fill:#282828;}.cls-14,.cls-17{stroke:#000;}.cls-14,.cls-20{stroke-width:0.56px;}.cls-15{fill:#514545;}.cls-18{fill:#0080ca;}.cls-19{fill:#030304;}.cls-20{stroke:#6fb7d6;stroke-miterlimit:10;}.cls-21{fill:#027ecb;}.cls-22{stroke:#1d1d1b;}.cls-23{fill:#1d1d1b;}.cls-24{fill:url(#Degradado_sin_nombre_4);}.cls-25{fill:#dedce0;}.cls-26{fill:#f2f3f2;}.cls-27{fill:#6fb7d6;}.cls-28{fill:url(#Degradado_sin_nombre_4-2);}.cls-29{fill:#3c3c3b;}.cls-30{fill:#fbb03b;}.cls-31{stroke:#8e6a2b;}</style><linearGradient id="Degradado_sin_nombre_4" x1="445.78" y1="162.3" x2="436.28" y2="122.74" gradientUnits="userSpaceOnUse"><stop offset="0" stop-color="#452b76"/><stop offset="1" stop-color="#872c91"/></linearGradient><linearGradient id="Degradado_sin_nombre_4-2" x1="384.85" y1="176.92" x2="375.35" y2="137.36" xlink:href="#Degradado_sin_nombre_4"/></defs><g id="Capa_3" data-name="Capa 3"><g id="a"><rect class="cls-1" width="600" height="600"/></g></g><g id="Capa_1" data-name="Capa 1"><path class="cls-2" d="M218,136.1s-6.88,4.09-16,10.74c-2.81,9.61-12.4,14.57-15.43,24.3-2.58,8.26-3.09,9.06-8.44,15.87-4.82,6.13-9.93,15.57-15.17,21.35-2.69,3-3.21,14-5,17.54-2.06,4.1-2.16,11.41-2.77,16-1.31,9.78.22,17.66-1,27.45,5.51-13.08,17.36-35.84,34.51-40C213,223.35,225,227.51,225,227.51Z"/><path class="cls-3" d="M161.33,226.68c1.8-3.58,4.58-6.56,7.28-9.53q7.86-8.67,15.1-17.88c5.34-6.8,10.51-14,13.09-22.25,3-9.72,2.38-20.57,5.19-30.18-17,12.32-41.72,33.42-44.81,53.43-4.75,30.8-6.53,78.32-6.53,78.32s1.19-3.79,3.5-9.28c1.24-9.79,2.56-19.56,3.87-29.34C158.63,235.42,159.27,230.78,161.33,226.68Z"/><path class="cls-4" d="M218,136.1s-56.07,33.38-60.83,64.17-6.53,78.32-6.53,78.32,13.66-43.36,38-49.3S225,227.51,225,227.51Z"/><path class="cls-5" d="M473.78,381.55c-1.3-3.55-10.11-18.1-11.06-21.76-1.71-6.56-7.49-21.5-11-27.33-3-5.13-5.12-14.54-10.29-17.54s-12.78-6.21-14.24-12c-1.13-4.49-2.68-1.68-3.5-6.24-.69-3.85-6.39.12-8.74-3-6.55-8.68-14.34-16.4-20.48-25.36-4.95-7.23-8.84-15.6-9.52-24.23a24.73,24.73,0,0,0-2.49,5.61c-3.51,11.65-1.43,24.33,2.78,35.74,3.82,10.34,9.3,20,14.77,29.54,4.91,8.62,10.94,16.7,14.75,25.86,13.53,32.54,29.49,51.94,42,57.81C458.65,389.79,476.88,390.06,473.78,381.55Z"/><path class="cls-6" d="M476.45,360.52c-3.22-14.56-8.88-26.8-18.44-45.15-12.79-24.56-5.23-24.29-17.44-48.7s-44.19-30.24-44.19-30.24l1.82-.36c-5.51-.76-10.22,3.07-13.2,8,.68,8.63,4.57,17,9.52,24.23,6.14,9,13.93,16.68,20.48,25.36,2.35,3.12,4.6,6.5,5.28,10.35.82,4.56-.63,9.35.5,13.84,1.45,5.79,6.78,9.68,11.94,12.67s10.81,5.87,13.86,11c3.46,5.83,2.73,13.16,4.43,19.72,1,3.66,2.67,7.07,4,10.63a49.12,49.12,0,0,1,1.81,26.75C471.78,405.7,481.75,393.22,476.45,360.52Z"/><path class="cls-7" d="M398.2,236.07c-7.48-1-13.51,6.4-15.69,13.63-3.51,11.65-1.43,24.33,2.78,35.74,3.82,10.34,9.3,20,14.77,29.54,4.91,8.62,10.94,16.7,14.75,25.86,29.79,71.63,71.35,79.6,61.64,19.68-3.22-14.56-8.88-26.8-18.44-45.15-12.79-24.56-5.23-24.29-17.44-48.7s-44.19-30.24-44.19-30.24"/><path class="cls-5" d="M319.89,588.71c1-.34,7.58-6.71,8.31-7.52,1-1.13,2.16-12.23,2.17-13.75.15-14.75,3.57-3.81.8-18.3,24.85,7,19.16,16.08,41.34,2.87-.4,13.92,2.07,15.62,4.23,29.38.15,1,10.18,2.63,10.71,3.46,1.93,3.06,9.46,4.17,12.66,2.47,5.5-2.93,12.31-15,17.66-18.2l1.52-91.59s-79.41,19.78-101.47,17.41-124.74,6.35-124.74,6.35c2.59,23.12,5.61,60.24,7.42,82,16.58,5,47.95,8,56,9.79C276.27,597.53,300.59,594.94,319.89,588.71Z"/><path class="cls-6" d="M401.49,563.21c-3.19,1.7-7.89,3-9.82,0a7.24,7.24,0,0,1-.84-2.79,227.43,227.43,0,0,1-2.64-41.63C366,532,337.83,528.53,313,521.57a221.72,221.72,0,0,1,4,44c0,1.53-.1,3.2-1.12,4.33a6.21,6.21,0,0,1-2.86,1.53c-19.29,6.24-42.82,15.62-62.6,11.14-8-1.81-34.23-10.5-50.81-15.48.89,10.55,1.71,21.29,2.51,32.56H416.87l.9-45.62Q409.75,558.82,401.49,563.21Z"/><path class="cls-8" d="M289.14,514.19c16,7.65,32.95,13.71,50.69,15.38,15.54,1.46,31.5-.83,45.57-7.78a63.81,63.81,0,0,0,20.11-15.37c1.17-1.34-.79-3.32-2-2-9.67,11.19-23.27,18.09-37.63,21.07-16,3.31-32.56,1.46-48.12-3.09a179.27,179.27,0,0,1-27.26-10.65c-1.6-.76-3,1.63-1.4,2.4Z"/><path class="cls-8" d="M364.78,528.56l.27,17.42c.08,4.94.4,10-.31,14.91a18.52,18.52,0,0,1-6.22,11.91,33.36,33.36,0,0,0-5.15,5,19.35,19.35,0,0,0-2.95,6c-1.5,4.94-1.39,10.24-1.2,15.35.06,1.78,2.84,1.79,2.77,0-.17-4.56-.3-9.25.86-13.71a17.32,17.32,0,0,1,2.69-5.93c1.49-2,3.56-3.5,5.42-5.16,7.47-6.69,7-16.94,6.9-26.15l-.3-19.63a1.39,1.39,0,0,0-2.78,0Z"/><path class="cls-8" d="M352.38,528.58a235.38,235.38,0,0,1-.44,42.72c-.18,1.77,2.6,1.76,2.78,0a236.29,236.29,0,0,0,.44-42.72c-.15-1.77-2.92-1.78-2.78,0Z"/><path class="cls-8" d="M191.69,501.29Q196,539.34,199,577.5q.87,11.07,1.65,22.15a1.4,1.4,0,0,0,1.39,1.38H408.14c2.79,0,5.58.07,8.36,0h.37a1.41,1.41,0,0,0,1.39-1.38l.24-12.13.58-29.14.69-35.26.61-30.5c.1-4.94.41-9.93.29-14.87,0-.07,0-.15,0-.22a1.41,1.41,0,0,0-1.76-1.34c-3.36.84-6.74,1.64-10.12,2.44q-12.21,2.88-24.49,5.51c-9.94,2.12-19.91,4.13-29.92,5.86a255.54,255.54,0,0,1-26.71,3.54,60,60,0,0,1-9.38.06q-3.74-.35-7.48-.42c-7.61-.15-15.24.1-22.85.4-9.72.39-19.43.92-29.13,1.51s-19.59,1.27-29.38,2q-11.82.85-23.63,1.8-6.11.48-12.2,1l-.55,0c-1.77.15-1.78,2.93,0,2.78l8.47-.7q10.74-.87,21.49-1.66,14.28-1.06,28.56-2c9.91-.64,19.81-1.22,29.73-1.68,8.34-.38,16.7-.71,25.05-.72,2.93,0,5.86,0,8.79.19,2.58.16,5.13.44,7.73.41,8.34-.11,16.68-1.34,24.9-2.63,10.08-1.58,20.1-3.51,30.08-5.57q13.38-2.76,26.67-5.85,7.23-1.67,14.44-3.44l.67-.16-1.76-1.34-.24,12.13-.57,29.14-.7,35.26-.61,30.5-.2,10.12a37.7,37.7,0,0,0-.09,4.75,1.62,1.62,0,0,1,0,.22l1.39-1.39H210.79c-2.76,0-5.61-.21-8.37,0h-.36l1.38,1.39q-2.69-38.19-6.59-76.28-1.14-11-2.38-22.08C194.27,499.54,191.49,499.52,191.69,501.29Z"/><path class="cls-9" d="M278.37,241.21c-10.52-25.36-21.14-51.12-27.34-77.74.14,2.8.36,5.6.68,8.39,1.72,14.87,6.23,29.26,10.71,43.54q6.27,20,12.53,39.94c2.46,7.85,4.93,15.7,7.87,23.38.4,1,.81,2.09,1.23,3.13,7.83,5.86,15,11.16,20.72,15.48-2.39-4.12-4.7-8.3-6.88-12.54C290.59,270.63,284.48,255.91,278.37,241.21Z"/><path class="cls-10" d="M354.38,356.71c2.06,6.8,17.28-60.19,17.28-60.19L369,265.14q0-29.25,0-58.5c0-14.36,0-28.8-2.29-43-3.75-23.43-14-46.17-30.92-62.79S294.9,74.24,271.26,76.26c-1.07.09-2.14.22-3.2.36-7.11,15.62-11.73,32.64-14.47,49.54A179.65,179.65,0,0,0,251,163.47c6.2,26.62,16.82,52.38,27.34,77.74,6.11,14.7,12.22,29.42,19.52,43.58,2.18,4.24,4.49,8.42,6.88,12.54,5.4,4.06,9.59,7.26,12,9.22C331.54,318.7,354.29,356.4,354.38,356.71Z"/><path class="cls-2" d="M242.59,217.89c.35-10.76,2.92-21.34,3.61-32.09,1.74-27-8.38-53.81-5.75-80.72A97.15,97.15,0,0,1,245,84c-12.91,6.8-23.64,17.58-29.29,31-3.42,8.12-5,16.88-6.35,25.58a629.67,629.67,0,0,0-7.11,73.8c7,8.85,25.33,24.09,45.42,39.77C244.7,242.25,242.2,230.15,242.59,217.89Z"/><path class="cls-3" d="M275,255.34q-6.27-20-12.53-39.94c-4.48-14.28-9-28.67-10.71-43.54-1.76-15.19-.57-30.6,1.88-45.7,2.74-16.9,7.36-33.92,14.47-49.54A69.49,69.49,0,0,0,245,84a97.15,97.15,0,0,0-4.56,21c-2.63,26.91,7.49,53.74,5.75,80.72-.69,10.75-3.26,21.33-3.61,32.09-.39,12.26,2.11,24.36,5.09,36.29,12.17,9.51,25,19.17,36.37,27.67-.42-1-.83-2.08-1.23-3.13C279.88,271,277.41,263.19,275,255.34Z"/><path class="cls-11" d="M203.64,214.41q1-27.27,4.4-54.4c1.11-8.94,2.31-17.9,4-26.76,1.48-7.87,3.57-15.69,7.44-22.75,6.56-12,17.31-21.28,29.65-27a69.48,69.48,0,0,1,41.68-4.91,85.46,85.46,0,0,1,40.16,19.7A101.48,101.48,0,0,1,357,135c6.47,15.08,9.32,31.21,10.14,47.53.45,9,.41,18,.41,27l0,27.67q0,13.71,0,27.41c0,2.27.34,4.57.54,6.82l2,23.66a10.73,10.73,0,0,0,.1,1.14c.07.38,0,.24.06-.05l-.36,1.25q-1,3.56-2.12,7.09c-2.35,7.6-4.83,15.17-7.72,22.58a92.46,92.46,0,0,1-4.33,9.83,29,29,0,0,1-2.11,3.5,6.08,6.08,0,0,1-.83,1,5.49,5.49,0,0,1-.43.4c-.19.16.22-.15,0,0a1.94,1.94,0,0,1-.24.15c-.38.19.19,0-.16.06-.09,0,.26.09-.1,0,.12,0,.33.09.12,0s.21.22.07,0,.15.21-.14-.11.05.17-.17-.23c-.11-.2-.21-.39-.31-.6.12.26-.14-.38-.2-.47a4.17,4.17,0,0,0-.36-.47c-2-2.55-4.14-5-6.26-7.43-8.35-9.58-17.06-19.12-26.89-27.2-4.62-3.78-9.44-7.32-14.22-10.89q-11.32-8.49-22.67-16.94-13.32-10-26.52-20.14c-8.59-6.63-17.12-13.35-25.48-20.26-6.76-5.59-13.47-11.28-19.7-17.46a75.16,75.16,0,0,1-5.91-6.45c-1.11-1.39-3.07.58-2,2,4.48,5.63,10,10.48,15.38,15.21,7.78,6.84,15.84,13.36,24,19.79,9,7.11,18.08,14.08,27.22,21q12.66,9.58,25.41,19.05c6.21,4.64,12.44,9.25,18.58,14a188.65,188.65,0,0,1,22,20.54q5.85,6.27,11.42,12.81,1.56,1.82,3.08,3.68c.13.16.26.33.4.49.27.34,0-.06.06.09s-.15-.37.05.08a8.42,8.42,0,0,0,.4.86,3.1,3.1,0,0,0,5,.92c1.92-1.55,3.17-4,4.27-6.19,3.65-7.2,6.29-14.95,8.84-22.59q2.88-8.62,5.41-17.37a8.4,8.4,0,0,0,.11-3.28l-1-11.53c-.65-7.5-1.53-15-1.53-22.53q0-28,0-56.09c0-17.68-.34-35.5-4.77-52.72a115.11,115.11,0,0,0-19.75-41.38,92.4,92.4,0,0,0-35.52-28.34c-13.81-6.14-29.23-8.76-44.23-6.36a70.83,70.83,0,0,0-36.69,17.88,62.47,62.47,0,0,0-12.6,16.22c-3.85,7.21-6,15.14-7.48,23.14a531,531,0,0,0-6.84,54.81q-1.08,13.41-1.58,26.85C200.8,216.2,203.58,216.2,203.64,214.41Z"/><path class="cls-11" d="M211.94,192.15l20.55,20S214.66,209.3,211.94,192.15Z"/><path class="cls-11" d="M214.78,177l20.54,20S217.49,194.13,214.78,177Z"/><path class="cls-11" d="M217.45,161.12l20.54,20S220.16,178.26,217.45,161.12Z"/><path class="cls-12" d="M381.87,457.77c-.58-5-1.41-10.09-4-14.41L356.41,458.9c-12.71,9.19-25.57,18.46-40.1,24.36-10.76,4.37-22.65,6.74-34.12,5.58,5.79,9.38,10.63,15.67,10.63,15.67s32.74,7.56,60.12,11c10.15,1.29,20-3.11,28.46-9.15A195.49,195.49,0,0,0,381.87,457.77Z"/><path class="cls-13" d="M261.41,343.82a175,175,0,0,1,32.21,16,228.47,228.47,0,0,1,.61-47.42c.24-2.11.67-4.46,2.41-5.67,1.41-1,3.28-.91,5-.72,23.74,2.64,44.9,21.18,50.62,44.37a272.55,272.55,0,0,1,24.37-60.6c1.41-2.56,3.1-5.3,5.88-6.21,3.9-1.26,7.82,1.68,10.4,4.93C387.51,275.42,381,265.29,374,259.42l-21.82,88.77s-7.9-47.74-47.71-65.19-92.82-58.14-92.82-58.14-11.51-2.9-6.86,19.19,22.67,58.14,33.72,91.86q1.46,4.45,3,9a14.3,14.3,0,0,1,6.13-3.2C252.17,340.67,257,342.16,261.41,343.82Z"/><path class="cls-12" d="M406.48,355.68c-1-25.62-6.18-49.2-13.59-67.21-2.58-3.25-6.5-6.19-10.4-4.93-2.78.91-4.47,3.65-5.88,6.21a272.55,272.55,0,0,0-24.37,60.6c-5.72-23.19-26.88-41.73-50.62-44.37-1.7-.19-3.57-.26-5,.72-1.74,1.21-2.17,3.56-2.41,5.67a228.47,228.47,0,0,0-.61,47.42,175,175,0,0,0-32.21-16c-4.44-1.66-9.24-3.15-13.86-2.09a14.3,14.3,0,0,0-6.13,3.2c10.34,31.48,21.46,66.16,21.46,92.14,0,8.42,2.61,17.75,6.3,26.72,15-6.36,28.26-16.51,40.41-27.45,14.51-13.07,27.83-27.49,43.17-39.57,9.12-7.18,19.93-13.77,31.49-12.76,9.25.82,17.34,6.56,22.86,14.17C407.12,382.85,407,367.85,406.48,355.68Z"/><path class="cls-13" d="M384.25,384c-11.56-1-22.37,5.58-31.49,12.76-15.34,12.08-28.66,26.5-43.17,39.57-12.15,10.94-25.45,21.09-40.41,27.45a177.43,177.43,0,0,0,13,25c11.47,1.16,23.36-1.21,34.12-5.58,14.53-5.9,27.39-15.17,40.1-24.36l21.49-15.54c2.56,4.32,3.39,9.43,4,14.41a195.49,195.49,0,0,1-.47,48.64c14.31-10.27,24.41-25.28,24.41-25.28s1.27-42.65,1.3-82.95C401.59,390.57,393.5,384.83,384.25,384Z"/><path class="cls-14" d="M211.6,224.86s-11.51-2.9-6.86,19.19,22.67,58.14,33.72,91.86,24.42,72.67,24.42,101.16,29.94,67.44,29.94,67.44,41.18,13.21,67.1,11.08c27.51-2.26,45.89-34.46,45.89-34.46s2.41-81.27.67-125.45-15.85-82.3-32.53-96.25l-21.82,88.76s-7.9-47.74-47.71-65.19S211.6,224.86,211.6,224.86Z"/><path d="M353.72,355c2.14,20.58,3.75,41.21,4.71,61.88q1.44,30.54,1,61.12-.23,17.61-1,35.2c-.08,1.79,2.7,1.78,2.78,0,.9-20.67,1.27-41.36,1-62q-.4-30.56-2.63-61.07-1.29-17.56-3.12-35.08c-.18-1.76-3-1.78-2.77,0Z"/><path class="cls-5" d="M192.57,274.63c.2.33.39.67.6,1,4.27,6.9,8,14.91,13.12,21.24,4.17,5.19,9.74,8.69,13.72,14,7.32,1.71,30.18,7.44,43.24,15.17-13.06-7.73-35.92-13.46-43.24-15.17,16,21.48,16.55,54.61,31,77.13,2.73,4.25,19.39-2,21.24,2.66,2.19,5.56,3.5,12.19,8.59,15.31-.72-10.2,13.42-25.33,9-34.54-3.61-7.45-9.24-18.29-13.65-25.29s-2.57,2.95-1.38-5.24c.09-.66-1.72,8.39-1.21,7.95s3.62-8,4.32-7.95c2.7.18-10.57-3.43-7.86-3.47s5.21-8.37,5.34-11.08c.11-2.35-6-16.21-7.91-17.6-9.86-7.17-19.13-22.46-30.47-26.94-5.49-2.17-6.39-12.54-10.88-16.38-4.77-4.1-5.76,2.91-8.45-2.77-4.51-9.54,3.47-.95-1-10.49-3.2-6.76-17.46-16.5-18.2-23.93-.57-5.66-6.72-11.52-3.5-16.08-4.85,2.64-12.82,8.81-14.24,16.79a33.82,33.82,0,0,0-.43,3.5A103.21,103.21,0,0,0,184.17,256c.39,1.22.81,2.43,1.25,3.63A125.33,125.33,0,0,0,192.57,274.63Z"/><path class="cls-15" d="M192.57,274.45a126.06,126.06,0,0,1-7.15-15.05A86.29,86.29,0,0,0,192.57,274.45Z"/><path class="cls-6" d="M185.42,259.4c-.84-1.2-3.83-11.72-5.27-11.94-2-.29-7.09-4.31-8.23-2.67-9.29,13.36-29.39,20.82-28.49,37.06.31,5.6-3.18,21.63-1.38,26.94,5.8,17.19,4.82,44.4,18.79,56,8.87,7.35,25.52,46.13,35.41,52s22.12-2.17,26.91,8.31c5.07,11.11,21.94,8,26.89,19.17,7,15.8,24,24.32,40.12,30.61,3.65,1.42,7.36,2.83,11,4.31-3.24-40.77-10.44-111.8-16.16-134.7-6.69-26.74-28.78-57-38.45-75s-29.87-28.49-38-37.22-6.73-22.08-6.73-22.08a31,31,0,0,0-9.79,3.36c-3.22,4.57-4.38,10.65-3.82,16.31.75,7.44,4,14.37,7.19,21.12q6.77,14.31,13.54,28.6c2.69,5.69,5.51,11.55,10.28,15.64,4.49,3.85,10.25,5.76,15.75,7.92a144.76,144.76,0,0,1,32,17.57c1.91,1.39,4,3.21,3.86,5.57-.13,2.7-3.18,4.39-5.89,4.43s-5.33-1-8-1.17a2.77,2.77,0,0,0-2,.45,2.83,2.83,0,0,0-.76,1.82c-1.19,8.2,2.25,16.38,6.66,23.39s9.87,13.38,13.47,20.83c4.46,9.21,5.86,19.58,6.58,29.79-5.09-3.13-6.4-9.75-8.59-15.31a77.47,77.47,0,0,0-7.33-13.24c-14.47-22.52-29-45.08-44.93-66.55-1.49-.35-2.34-.53-2.34-.53-11-13.21-19.24-25.13-25.1-35.75a86.29,86.29,0,0,1-7.15-15.05c-.28-.71-.56-1.42-.81-2.12"/><path class="cls-15" d="M184.17,255.76c.15.51.29,1,.44,1.52.25.7.53,1.41.81,2.12C185,258.2,184.56,257,184.17,255.76Z"/><path class="cls-16" d="M184.61,257.28a102.87,102.87,0,0,1-4.35-25C179.75,239.05,181,247.39,184.61,257.28Z"/><path class="cls-5" d="M250.05,444.28c-5-11.17-4-24.28-9.08-35.39-4.78-10.48-14.38-17.94-24.27-23.84S196.18,374.32,187.31,367c-14-11.57-22.47-28.49-28.28-45.68-1.79-5.31-3.38-10.76-3.69-16.36-.9-16.24,8.8-30.95,18.08-44.31,1.14-1.64,2.71-3.48,4.69-3.18,1.44.21,2.43,1.51,3.27,2.7l10.91,15.59a100.23,100.23,0,0,1-7.68-18.45c-3.63-9.89-4.86-18.23-4.35-25v0c-25.11,22-47.82,49.43-50.14,67.45s26.74,72.1,38.95,117.44S188,535.54,188,535.54c55,51.74,117.38,27.91,117.38,27.91s-.85-33.49-2.89-66.63c-.3-4.76-.73-10.77-1.27-17.62-3.68-1.48-7.39-2.89-11-4.31C274.08,468.6,257.05,460.08,250.05,444.28Z"/><path class="cls-7" d="M180.26,232.28c-25.11,22-47.83,49.43-50.15,67.45s26.74,72.1,38.95,117.44S188,535.54,188,535.54c55,51.74,117.38,27.91,117.38,27.91s-.85-33.49-2.89-66.63S291.73,371.24,285.05,344.5s-28.78-57-38.45-75-29.87-28.49-38-37.22-6.73-22.08-6.73-22.08-18.27,2.33-21.18,18.61,5.37,43.6,37,81.39c0,0,29.88,6.39,45.58,15.7"/><path class="cls-8" d="M244,318.27l1.77,32.83.88,16.42c.29,5.3.43,10.63.88,15.92a15.75,15.75,0,0,0,1.86,6.75,32.28,32.28,0,0,0,4.48,5.42q4.88,5.26,9.44,10.8A253,253,0,0,1,280.54,430a255.45,255.45,0,0,1,15.88,28.52c.77,1.61,3.16.2,2.4-1.4a255.62,255.62,0,0,0-30.21-48.54q-4.46-5.62-9.21-11c-1.56-1.76-3.15-3.49-4.75-5.21a14.57,14.57,0,0,1-3.87-6.05,36.24,36.24,0,0,1-.73-7.36l-.44-8.21-.87-16.16-2-36.32c-.1-1.78-2.87-1.79-2.78,0Z"/><path class="cls-6" d="M423.45,408.31c-4.46-.63-18.58,2.57-21.44,6.05-1.87,2.27-7.77,7.42-7.94,10.35-1.07,18.56,4.27,40.6,5.74,59.14.8,10.09,1.77,50.09,2.57,60.18,6.46-1.26,19.32-3.68,24.91-7.15-2.39-16.39-.1-59.39,1.07-75.91.9-12.81,1.11-25.65.95-38.48C426.15,421.6,426.7,408.77,423.45,408.31Z"/><path class="cls-5" d="M401.39,320.06c.09,4.84,6.33,23.13,7.92,27.7,3.52,10.18,13.64-.46,17.34,9.66-1-18.24-2.57-36.46-6-54.38-.91-4.76-6.23-23.75-7.45-28.44-1,4-5.07,11.78-6.07,15.79S401.32,316,401.39,320.06Z"/><path class="cls-5" d="M404.75,431.71c.17-2.93.48-6.06,2.35-8.33,2.86-3.49,8.12-3.55,12.58-2.92a73.57,73.57,0,0,1,9.63,2c-.2-15.93-1-31.86-1.76-47.76-.29-5.77-.57-11.54-.9-17.31Q421.1,342.24,415.81,327c-1.59-4.57-3.17-9.24-3.26-14.08-.07-4.06.91-8.05,1.89-12l3-12c-4.83-18.63-12.18-36.61-23.23-52.31-.86-1.22-1.94-2.53-3.43-2.63-2.09-.13-3.42,2.15-4.24,4.09q-4,9.57-8,19.15c-2.9,6.91-1.91,8.38.69,15.26A153.09,153.09,0,0,1,387.5,308c2.95,24.31,1.71,48.86,2,73.28.26,23.89,2,47.74,3.81,71.58,0,11.49,1.73,23.25,2.58,34.71.68,9.07,4.74,49.6-.38,57.39A54.34,54.34,0,0,0,409,544c-.8-10.09-1.6-46.53-2.4-56.62C405.14,468.87,403.68,450.27,404.75,431.71Z"/><path class="cls-8" d="M391.89,452.87c0,10,1.28,20,2.19,29.95.42,4.64.77,9.29,1.14,13.93.91,11.44,1.76,23,1.33,34.46a63.51,63.51,0,0,1-.7,8,13.56,13.56,0,0,1-1.56,5,1.4,1.4,0,0,0,1.19,2.09A56.59,56.59,0,0,0,428,538.08a1.46,1.46,0,0,0,.64-1.57,123.76,123.76,0,0,1-.95-15.52c-.12-6.76,0-13.54.15-20.3q.48-18.6,1.74-37.16c1.25-18.92,1.38-37.81.76-56.76-.65-20-1.56-40-3-59.88-2.58-36.64-8.53-74.52-28.63-106.06-1.15-1.81-2.32-3.63-3.6-5.35-1-1.37-2.22-2.67-4-2.9-4.08-.56-5.66,4.38-6.89,7.3q-2.83,6.76-5.68,13.52c-1.47,3.5-3.52,7.3-3.2,11.22.29,3.59,2.08,7,3.27,10.35a134.87,134.87,0,0,1,4.09,13.94,189.58,189.58,0,0,1,4.34,28.84c1.58,19.92.87,39.91,1,59.87.1,20.18,1.3,40.33,2.74,60.45q.52,7.4,1.09,14.8c.13,1.77,2.91,1.78,2.77,0-1.46-19.73-2.93-39.46-3.54-59.23-.6-19.6.12-39.21-.4-58.81-.5-18.91-2.22-38.06-7.92-56.19-1.26-4-3.05-7.9-4.22-12-1-3.47.15-6.5,1.49-9.73,1.88-4.51,3.79-9,5.68-13.52a53.43,53.43,0,0,1,2.76-6.3,3.86,3.86,0,0,1,1.46-1.66c1.19-.56,2.11.56,2.77,1.41a91.91,91.91,0,0,1,7,11q3.24,5.67,6,11.62a175,175,0,0,1,9.06,24.79c5.16,18.06,7.74,36.72,9.29,55.4,1.61,19.45,2.42,39,3.2,58.5.8,19.7,1.16,39.45,0,59.14-.72,11.9-1.49,23.79-1.92,35.7-.44,12.54-.85,25.18,0,37.71.15,2.19.36,4.38.67,6.56l.64-1.57a53.88,53.88,0,0,1-31.11,7.9l1.2,2.09c2-3.19,2.22-7.65,2.48-11.3a166.12,166.12,0,0,0,.08-17.43c-.38-10.1-1.27-20.17-2.06-30.25-.88-11.27-2.49-22.5-2.52-33.82A1.39,1.39,0,0,0,391.89,452.87Z"/><path class="cls-8" d="M384.71,241.16a245.4,245.4,0,0,1,14.13,26.43,129.6,129.6,0,0,1,5.76,13.72c.78,2.38-.75,4.33-2,6.24s-2.49,3.59-3.75,5.37c-2.84,4-5.54,8.15-6.85,12.93a1.39,1.39,0,0,0,2.68.73c1.21-4.41,3.72-8.23,6.33-11.92,1.3-1.84,2.63-3.66,3.87-5.54s2.77-4,2.8-6.32-1.36-4.78-2.22-6.9c-1-2.33-1.94-4.65-3-7q-3.11-7-6.65-13.82-4.08-7.83-8.72-15.36c-.94-1.52-3.34-.12-2.4,1.4Z"/><path class="cls-8" d="M396.91,297.05l14.86,56.25,1.86,7a52.11,52.11,0,0,1,1.58,6.95c.53,4.66-1.3,9-2.81,13.31l-9.57,27.29-10.9,31.06c-.6,1.69,2.08,2.42,2.67.74l19.49-55.53c1.55-4.42,3.57-8.93,4-13.64.37-4.51-1.24-9-2.38-13.33l-7.59-28.73-8.49-32.11a1.39,1.39,0,0,0-2.67.74Z"/><path class="cls-12" d="M204.9,212.91s1.61,5.82,16.34,17.83,59.21,37,71.71,43c23,11,55.16,35.91,60.2,69.63,0,0,5.19-34,8.79-49.35,3.33-14.23,11.76-32.69,8.78-49.35,0,0,7.88,3.1,12.92,13.17s3.4,29.46,3.4,29.46-4-21.65-12.31-16.28-20.35,85.66-20.35,85.66-9.5-50-51.36-72.09c0,0-10.07.77-11.24,17.44,0,0-31-16.28-51.93-36.05S198.25,226.87,204.9,212.91Z"/><path class="cls-17" d="M204.9,212.91s1.61,5.82,16.34,17.83,59.21,37,71.71,43c23,11,55.16,35.91,60.2,69.63,0,0,5.19-34,8.79-49.35,3.33-14.23,11.76-32.69,8.78-49.35,0,0,7.88,3.1,12.92,13.17s3.4,29.46,3.4,29.46-4-21.65-12.31-16.28-20.35,85.66-20.35,85.66-9.5-50-51.36-72.09c0,0-10.07.77-11.24,17.44,0,0-31-16.28-51.93-36.05S198.25,226.87,204.9,212.91Z"/><path class="cls-6" d="M438,401.17c8.16,1.81,23.06,3.19,31.26,1.58,7.59-1.49,7.16-21.51,8.89-28.89-.3-2.21-.57-4.45-.77-6.71-1.72-19.92-49.47-26.21-49.47-26.21-41.08-21.19-53.27-9.18-53.27-9.18,7.59-5.18,6.39,11.32,2.89,23.51-.88,3.06-6.82,17.91-8.17,21.07,5.32,3.44,13.73,6,19.58,8.41C403.58,390.73,422.54,397.76,438,401.17Z"/><path class="cls-5" d="M478.14,373.86c-1.73,7.38-9.1,12.76-16.69,14.25-8.2,1.61-16.64-.28-24.79-2.08-15.45-3.42-31.07-6.57-45.72-12.55a103.25,103.25,0,0,1-16.88-8.71,176.73,176.73,0,0,1-9.09,18s39.68,8.42,51.39,14,36,13.37,53,11.06C484.5,405.85,480.45,391.06,478.14,373.86Z"/><path class="cls-7" d="M476,362.39c1.09,4.91.56,3,1.14,8.79.07.63.14,1.26.2,1.88"/><path class="cls-7" d="M477.37,373.06c2.4,21.66,6.81,33.8-12.41,35.49-19.76,1.75-36-9.3-57-13.95s-43-11.81-43-11.81,30.23-56,8.72-49.41c0,0,3.49-12.38,35.46,0S459.73,362,459.73,362"/><path class="cls-8" d="M429.16,342.28a97.29,97.29,0,0,1,26.28,7.81c1.61.74,3-1.65,1.4-2.39a99.6,99.6,0,0,0-26.95-8.1c-1.74-.26-2.5,2.41-.73,2.68Z"/><path class="cls-3" d="M416.13,342.91c8-2.08,12-4.2,20.09-3-.55-2.68-2.63-12.86-3.89-15.29-3.46-6.67-10.09-11.4-17.32-13.44s-15-1.59-22.28.31a58.62,58.62,0,0,0-33.24,23.35l.53-.37c4.29,5.53,15.83,18.31,20.7,23.34,1.46-.74,9.56-2.12,11-2.9C402,349.29,404.75,345.88,416.13,342.91Z"/><path class="cls-18" d="M410.34,334c-11.38,3-21.94,8.4-32.25,14.06-1.42.78-2.86,1.57-4.32,2.31a193.25,193.25,0,0,0,14.42,13.46c2,1.7,4.36,3.46,7,3.32s4.74-2.09,6.69-3.86a95.48,95.48,0,0,1,34.33-19.92,82.84,82.84,0,0,0-1.27-11A61.5,61.5,0,0,0,410.34,334Z"/><path class="cls-11" d="M360.69,335.58a57.35,57.35,0,0,1,30.15-22.07c12.81-3.93,28.41-3.17,37.6,7.79,5.17,6.16,5.86,14.36,6.39,22.06l1-1.34a98,98,0,0,0-31.73,17.5c-2.18,1.81-4.2,4.13-6.69,5.51-2.94,1.63-5.64,0-7.95-1.94a180.57,180.57,0,0,1-14.07-13A195.25,195.25,0,0,1,361,333.53c-1.1-1.41-3.05.57-2,2a193.35,193.35,0,0,0,27.82,29c2.2,1.85,4.58,3.77,7.56,4s5.56-1.68,7.71-3.59a102.49,102.49,0,0,1,15.11-11.35,94.6,94.6,0,0,1,19.35-8.88,1.42,1.42,0,0,0,1-1.34c-.51-7.38-1.13-15.15-5.32-21.5a29.79,29.79,0,0,0-15.48-11.53c-14-4.71-30.24-.11-42.19,7.83a60.42,60.42,0,0,0-16.33,16c-1,1.48,1.39,2.87,2.4,1.4Z"/><path class="cls-6" d="M130,320.86c-.53,13.53,5.56,32.38,12.66,43.91,3.56,5.77,14.1,16.73,19.39,21,4.22,3.39,14.92,26.56,20,28.49,14.14,5.38-1.72-17.25,13.25-15-8.15,3.55,31.78,40.43,23,39.37,14.29,10.25,27,14.44,42.53,22.75,9.11,4.88,18.85,7.68,28.91,10.09,1.26.3,12.78-3.39,14-3.76s5.46-4.9,6.53-5.74c11.54-9.09,11.75-6.25,23.54-15,5.5-4.1,13.44-10.45,16.81-16.42,4.09-7.24,4-14.68,11.67-17.83,5.34-2.18,7.71-8.08,12.07-11.84,5.62-4.86,12.91-18.13,13.65-25.52,1.48-14.75-4.43-35-14.34-41.08a38.64,38.64,0,0,0-17.17-3.63s-51.27,59.94-71.95,74.06c0,0-4.61-4.1-8.09.16,0,0,.16-15.11-15.71-35.08s-34.63-52-39.3-57.41-22.07-22.37-33.85-26c-4.3-1.35-12.27-4.13-21.37-4.82-6,8.69-20.09,7.32-24.51,16.89C138.47,305.2,130.28,313.26,130,320.86Z"/><path class="cls-5" d="M373.6,334.18c5.86,13.49,7,28.91,5.56,43.66-.74,7.39-2.44,15.33-8.06,20.19-4.36,3.76-10.29,5-15.62,7.16a37.68,37.68,0,0,0-18.62,15.89c-3.37,6-5.1,13.3-10.61,17.39-11.79,8.78-31-3.73-42.55,5.36a10.65,10.65,0,0,1-3.35,2.26,7.25,7.25,0,0,1-3.83-.19c-10.06-2.41-19.3-7.34-28.42-12.23-15.5-8.3-31-16.64-45.33-26.89A50.62,50.62,0,0,0,228.86,403,209.68,209.68,0,0,1,185,391.52c-5.06-1.93-10.12-4.1-14.34-7.48-5.29-4.25-8.95-10.14-12.51-15.91-7.1-11.53-14.46-24-13.92-37.51.3-7.59,3.1-14.85,6.28-21.75a188,188,0,0,1,15.64-27.46c-15.82-1.21-35,3.91-44.33,33.89-7.29,23.55,5.46,55,18.32,72.05,20.82,27.65,41,45.65,96.4,73.2s62.47,32.09,81.65,12,64.53-76.42,77.25-99l6.33-8.67S392.67,343,373.6,334.18Z"/><path class="cls-7" d="M283.62,405.17c15.7-9.88,72.81-74.62,72.81-74.62,31.4-.58,45.35,34.3,45.35,34.3s-22.68,30.81-33.72,47.67S330.85,463.1,310.5,479.2,246,465.43,222.71,452.64,159.92,416,140.15,387.35,113.82,332,125,306.21c8.14-18.68,29.07-31.67,58.72-21.4S227.94,319.5,246,349.15s29.07,36.63,30.23,56.4l1.16,19.76"/><path class="cls-19" d="M277.59,406.88a9.18,9.18,0,0,1,1.49-2.64c.51-.53,1.46-1.1,2.18-.61s.91,1.58,1.15,2.3c.4,1.18.79,2.35,1.18,3.53l4.72,14.09c.56,1.69,3.25,1,2.68-.73l-5.9-17.63c-.73-2.15-1.82-4.56-4.5-4.51s-4.38,2.5-5.4,4.8c-.72,1.62,1.67,3,2.4,1.4Z"/><path class="cls-20" d="M271.08,407.23a20.52,20.52,0,0,0,.26-2.85S271.19,405.53,271.08,407.23Z"/><path class="cls-18" d="M280.06,355.82c-1.7-4.15-15.19,8.39-20,14.89-4,5.38-9.68,12.06-9.68,17.44,1,.53,3.07-.39,7.6-3.95a57.85,57.85,0,0,1,7.3-10.84C270.24,367.52,276.41,362.57,280.06,355.82Z"/><path class="cls-3" d="M305.74,388.29c6.09-10.89,15-22.77,22.85-32.47,4.28-5.29,10.83-11.13,13.06-17.56-15.59-1.61-48.55-3.59-58,5.26-14.05,13.1-35.27,32-34.35,37.61.49,3-.22,6.31,1.09,7q6.19-7.92,12.19-16c4.83-6.5,10-13.4,17.51-16.34-3.65,6.75-9.82,11.7-14.8,17.54A57.85,57.85,0,0,0,258,384.2c.9-.71,1.89-1.51,3-2.44a85.37,85.37,0,0,0-2.33,23c.34,5.88.52,9.74,1.41,11.71.34-.81,5,1.49,5.27.65,1.32-4.58,1.81-9.09,2.75-13.76,3.09-15.33,9.51-31,20.22-42.41-1.7,6.82-8.46,11-12.16,17-3.51,5.66-4.08,12.61-4.29,19.27q-.3,9.35.11,18.69c0,.5,0,1,.07,1.51.9,2.32,2.52,3.73,5.37,2.74a6.28,6.28,0,0,0,1.25-.61c.28-1.79,4.11-6.88,4.07-8.68-.12-4.81,2-7.68,2.57-12.46.79-6.54,1.86-10.63,5.34-16.22,3-4.79,4.87-9.43,8.11-14,2.29-3.26.94-4.92,4.71-3.66-1.66,2.55-1.94,2.35-3.69,4.84a59.54,59.54,0,0,0-10.46,29.37c.85,5.22,2.49,12.49,5.3,16-.1-.93,5,1.65,4.93.72C298.57,405.48,300.87,397,305.74,388.29Z"/><path class="cls-18" d="M346.94,339s-5.2-.91-12.7-1.68a59.05,59.05,0,0,1-9.85,17.76c-7.85,9.7-18.78,16.93-24.88,27.81-4.87,8.71-6.17,19.08-5.22,29,.09.92.19,1.85.29,2.78,1.68,2.09,3.76,2.85,6.35,1.08,9.83-6.74-5.93-13.17,6.86-30.57s15.74-21.81,23.46-29.26S349,341.85,346.94,339Z"/><path class="cls-18" d="M271.83,397.21c.21-6.66.78-13.61,4.29-19.27,3.7-6,10.46-10.18,12.16-17-10.71,11.39-21.87,23.64-25,39-.94,4.67-1.1,9.5-2.41,14.08a22.66,22.66,0,0,1-.87,2.47c.86,1.88,2.36,2.06,5.27.65,3.92-1.89,5.29-6.74,5.77-9.88.11-1.7.26-2.85.26-2.85a20.52,20.52,0,0,1-.26,2.85c-.17,2.86-.2,7.25.93,10.18,0-.5-.05-1-.07-1.51Q271.52,406.57,271.83,397.21Z"/><path class="cls-18" d="M305.09,361.93c-3.78-1.26-7.28,2.37-9.56,5.62q-4.86,6.93-9.33,14.11c-3.48,5.59-6.85,11.5-7.64,18-.58,4.78.27,9.6.39,14.41a30.88,30.88,0,0,1-.32,5.43c7.57-4.78,9.86-26.83,9.86-26.83s.23,2.55.79,6a59.54,59.54,0,0,1,10.46-29.37C301.49,366.83,303.43,364.48,305.09,361.93Z"/><path class="cls-11" d="M346.94,337.62c-10-.5-19.92-1.17-29.89-1.67-10.26-.5-20.74.11-30.27,4.33a28.91,28.91,0,0,0-5.95,3.49,46,46,0,0,0-4.67,4.38c-3.22,3.26-6.52,6.42-9.75,9.66-6.4,6.43-13.16,13.35-17,21.69a26.42,26.42,0,0,0-1.26,3.12,4.2,4.2,0,0,0,.13,2.86c.63,1.87,1.23,3.68,3.51,3.82a9.4,9.4,0,0,0,5.62-2,16.63,16.63,0,0,0,4.77-4.83,1.39,1.39,0,0,0-2.4-1.4,13.48,13.48,0,0,1-3.77,3.83,10.44,10.44,0,0,1-1.88,1.11c-.54.23-1.76.79-2.36.52-.38-.18-.45-.79-.6-1.19a2.79,2.79,0,0,1-.3-2.13,30,30,0,0,1,2.3-4.94c4.24-7.49,10.45-13.75,16.51-19.77,2.94-2.92,5.93-5.8,8.84-8.75a35.27,35.27,0,0,1,4.34-4,29,29,0,0,1,5.52-3.1c8.69-3.78,18.38-4.36,27.71-3.92,10.3.49,20.58,1.2,30.87,1.72,1.79.09,1.78-2.69,0-2.78Z"/><path class="cls-11" d="M279.13,356.44c-3.75,4.73-8,9-11.94,13.6a61,61,0,0,0-5.69,7.51,23.49,23.49,0,0,0-3.16,10c-.86,7.91-1.15,16-1.34,23.92-.07,2.78.33,5.89,3.19,7.17a7.12,7.12,0,0,0,7.16-1.19c2-1.64,2.87-4.41,3.58-6.82a43.14,43.14,0,0,0,1.65-8.18c.16-1.78-2.62-1.77-2.78,0a37.81,37.81,0,0,1-1.18,6.14,19,19,0,0,1-2.19,5.82,4.49,4.49,0,0,1-5.1,1.72,3.17,3.17,0,0,1-1.55-2.94c-.1-1.63,0-3.29.1-4.92.25-6.9.49-13.86,1.23-20.72a20.5,20.5,0,0,1,3.14-9.16,62.27,62.27,0,0,1,5.13-6.65c3.86-4.48,8-8.7,11.71-13.34,1.1-1.38-.85-3.36-2-2Z"/><path class="cls-11" d="M287.48,360.27c-3.28,6.21-8.9,10.75-12.06,17.06-3,6-4.34,12.61-5,19.24-.34,3.46-.48,6.94-.56,10.42s-.55,7.22.82,10.4c1.16,2.68,3.76,4.67,6.77,4.15,3.37-.58,5.35-3.55,6.47-6.53a117,117,0,0,0,3.64-12.64c1.08-4.34,2-8.73,2.79-13.13.31-1.75-2.36-2.5-2.68-.74a199.45,199.45,0,0,1-4.92,21c-.83,2.81-1.49,6.66-4,8.52-2.68,2-5.21-.08-5.89-2.88-.72-3-.27-6.38-.18-9.41s.23-6.26.54-9.38a50.52,50.52,0,0,1,4.58-17.63c3.17-6.3,8.78-10.85,12.07-17.06.83-1.57-1.56-3-2.4-1.4Z"/><path class="cls-11" d="M304.73,360.38q-5.12,7.8-10.24,15.6c-3,4.52-6,9.28-7.06,14.66-1.13,5.6.12,11.2,2.2,16.42,1,2.59,2.19,5.13,3.44,7.62,1,2,2.59,3.93,5.1,3.81,5.15-.25,7.1-6.65,7.24-10.85.2-5.69-1.82-11.18.65-16.65a50.12,50.12,0,0,1,4.25-7.1c1.49-2.24,3-4.45,4.63-6.63q4.94-6.74,10.47-13,6.07-6.88,12.79-13.17,3.44-3.21,7-6.25c1.83-1.55,4.59-3.88,2.92-6.52-1-1.5-3.36-.11-2.4,1.4.5.78-.94,1.86-1.48,2.32-1,.85-2,1.69-3,2.55-1.93,1.67-3.82,3.39-5.67,5.14q-5.49,5.17-10.55,10.78a191.33,191.33,0,0,0-18.34,23.81c-2.84,4.36-5,8.71-4.75,14,.2,4.67,1.8,10-.46,14.39-.81,1.58-3.11,4.2-4.9,2.34a10.24,10.24,0,0,1-1.58-2.74q-.91-1.87-1.77-3.78c-2.14-4.81-3.92-10.05-3.41-15.39.53-5.71,3.75-10.75,6.81-15.43q5.22-8,10.47-16c1-1.5-1.42-2.89-2.39-1.4Z"/><path class="cls-11" d="M312.9,356.92l4.27-4.27a1.39,1.39,0,1,0-2-2L310.94,355a1.39,1.39,0,1,0,2,2Z"/><path class="cls-11" d="M292.8,355.12l6.62-5a1.52,1.52,0,0,0,.64-.83,1.39,1.39,0,0,0-2-1.56l-6.62,5a1.52,1.52,0,0,0-.64.83,1.39,1.39,0,0,0,2,1.56Z"/><path class="cls-21" d="M262.79,110.51c1.49-7.11,7.51-17.81,10.81-24.27,3.52-6.89-20.33-20.6-14.69-25.77-10.14,5-36.42,20.84-45.34,55.48-2.31,9,6.81,17.67,20.27,30.08a69.52,69.52,0,0,1,10,10.88c-1.36-6.3,15.77-3.91,14.42-10.21C255.61,134.1,260.14,123.11,262.79,110.51Z"/><path class="cls-22" d="M307.85,89s1.32-8.44,17.69-3.69,126.7,42.23,126.7,42.23"/><path class="cls-23" d="M452.24,132.5s-20.27-6.18-19-11.43,20.66,1.73,20.66,1.73Z"/><path class="cls-24" d="M449.35,117.92c2.79,1.29,6.38,8.49,3.56,18.34-3.69,12.91-8.38,17.34-14.85,17.55-5.92.2-10.1-4.46-13.18-11.92-3.78-9.12-6.22-20,5.94-23C441.91,116.22,445.67,116.22,449.35,117.92Z"/><path class="cls-22" d="M449.35,117.92c2.79,1.29,6.38,8.49,3.56,18.34-3.69,12.91-8.38,17.34-14.85,17.55-5.92.2-10.1-4.46-13.18-11.92-3.78-9.12-6.22-20,5.94-23C441.91,116.22,445.67,116.22,449.35,117.92Z"/><path class="cls-25" d="M354.05,232.89c-24.58-2.85-39.05-18.26-57.9-34.28-14.46-12.29-30.39-41.18-36.53-59.09-1.64,6.58-5.52,39.22-5.17,46,5.26,14,14.75,33.57,30.41,44.23,22.09,15,36.09,29.54,74.63,27.82,23.45-1,28.27-9.67,28.84-18.39C380.05,236.32,364.85,234.14,354.05,232.89Z"/><path class="cls-9" d="M360.78,207.35a115.38,115.38,0,0,1-47.2-11.57c-7.32-3.57-14.33-8-20-13.83a40.29,40.29,0,0,1-11.12-21.55c8.27,16,22.87,26.31,38.91,32.14,8,2.91,16.25,6.3,24.67,7.64s23.44.63,31.89-.26c27.94-2.95,51.89-15.37,69.7-37-.36-.71-.83-9.36-1.43-10s-1.74-1.74-3-2.88c-18.19.14-39.41,6-61.7,8-32.48,2.92-54.56-1-84.66-13.52-4.65-1.94-13.72-8.69-18.75-9.17s-23.64-11.53-27.16-7.92c-2.63,2.69,6.45,34,5.52,37.68l-.06.29a107,107,0,0,0,31.88,46.37c18.85,16,42.82,25.58,67.4,28.43a106.84,106.84,0,0,0,32.67-1c.38-5.62-1-11.27-.31-15,1.5-8,3.11-15,6.12-19.27l-2.45.31C381.43,206.53,371.11,207.64,360.78,207.35Z"/><path class="cls-25" d="M395.92,202.87c4.22-3.78,17.17-2.06,33.79-18,15-14.35,21.31-23.47,17.93-30-17.81,21.65-44.1,36.44-72.05,39.39a96.45,96.45,0,0,1-25.4-.57,134.29,134.29,0,0,1-24.61-6.82c-16.05-5.83-32.11-13.47-43.11-26.52A40.29,40.29,0,0,0,293.59,182c5.66,5.85,12.67,10.26,20,13.83a115.38,115.38,0,0,0,47.2,11.57c10.33.29,20.65-.82,30.91-2.12l2.45-.31A11.51,11.51,0,0,1,395.92,202.87Z"/><path class="cls-3" d="M256.38,165.34a95,95,0,0,1-4.12-16.72,95,95,0,0,0,4.12,16.72l.06-.29c.93-3.65,2.24-7.34,4.87-10,3.52-3.61,8.95-4.82,14-4.35s9.78,2.43,14.43,4.37c30.1,12.55,61.55,25.93,94,23,22.3-2,43.48-12.4,59.46-28-9.78-8.65-34-26.44-37.47-30.41-3.88-4.49-13.07-17.4-17.31-22.08s-22.82-23.88-39.2-31.28S301.06,43.37,263,58.67c0,0-1.53.56-4,1.8-5.64,5.17-10,12-13.48,18.94a82.16,82.16,0,0,0-7.65,20.31c-2.65,12.6-.86,25.71,1.83,38.31,1.34,6.3,2.91,12.58,4.27,18.88,3.62,5.19,4.18,9.05,6.08,15.24.88,2.83,2.33,7.62,4.49,13.36A68.5,68.5,0,0,1,256.38,165.34Z"/><path class="cls-23" d="M306.38,194.54l2.72,9.23c.62,2.08,1.15,5.82,4.08,5.66,2.22-.12,4.43-2.12,6.11-3.39s3.81-3,6.17-3.2l-1.38-1.39a66.82,66.82,0,0,0,4,19.42,1.41,1.41,0,0,0,2.32.61l16.62-15-2.18-.28c3.18,7.15,3.1,15.23,6,22.47a1.41,1.41,0,0,0,2.54.34l10.33-19.95H361.3c3.51,7.11,7.34,14,11.14,21a1.39,1.39,0,0,0,1.9.49c1.55-1.15,2-2.81,2.64-4.55q1.18-3.2,2.57-6.32a120.14,120.14,0,0,1,6-11.73,1.39,1.39,0,0,0-2.39-1.4,117,117,0,0,0-5.66,10.89c-.81,1.79-1.59,3.61-2.31,5.45-.37.93-.73,1.87-1.08,2.81-.28.76-.51,1.95-1.2,2.46l1.9.5c-3.81-7-7.64-13.89-11.15-21a1.39,1.39,0,0,0-2.39,0L351,227.63l2.54.33c-3-7.47-3-15.75-6.29-23.14a1.4,1.4,0,0,0-2.18-.28l-16.62,15,2.32.61a64.2,64.2,0,0,1-3.88-18.68,1.41,1.41,0,0,0-1.39-1.39c-4.29.43-7,3.56-10.54,5.69a9,9,0,0,1-1.26.68c-.64.25-.77.14-1-.47-.48-1.25-.77-2.6-1.15-3.88l-2.44-8.28a1.39,1.39,0,0,0-2.68.74Z"/><path class="cls-4" d="M212.44,121.2C217,95.16,237,69.08,265,57.83s64.69-5.67,94.72,14.81,34.49,34.05,44.91,45.77,39.81,26.24,43.5,38.21-35,58.22-97.76,49.68S282,161.58,282,161.58"/><path class="cls-4" d="M395.92,202.87s-7.27,7.85-8,22.89,3.22,32.55-30.82,31.78-65-16.91-82.31-38.29-22.92-37.35-26.87-55.66"/><path class="cls-11" d="M280.76,163.39c5.58,15.89,14.42,30.73,26.47,42.57a87.29,87.29,0,0,0,45.23,23.87,75.7,75.7,0,0,0,29.39-.35c1.75-.37,1-3-.73-2.67-16.66,3.57-34.3.72-49.5-6.78-14.78-7.29-27-18.94-36-32.68a114.24,114.24,0,0,1-12.14-24.7c-.59-1.68-3.27-1-2.68.74Z"/><path class="cls-11" d="M387.21,204.89a50.81,50.81,0,0,0-6,22.33c-.05,1.79,2.72,1.79,2.78,0a47.69,47.69,0,0,1,5.58-20.93c.84-1.58-1.55-3-2.39-1.4Z"/><path class="cls-11" d="M289.93,160.78c-1.76-.59-3.13-2-5-2.44a5.79,5.79,0,0,0-5.46,1.63,13.55,13.55,0,0,0-3.11,5.32,21.08,21.08,0,0,0-1.21,6.86,1.39,1.39,0,0,0,2.78,0,18.52,18.52,0,0,1,.95-5.67,11.1,11.1,0,0,1,2.42-4.41,3,3,0,0,1,3.43-.89c1.55.61,2.82,1.74,4.42,2.28s2.42-2.11.74-2.68Z"/><path class="cls-26" d="M294.21,129.18a22.76,22.76,0,0,0-.37,4.08c0,10.71,7.28,19.4,16.26,19.4,6.72,0,12.48-4.85,15-11.78C333.56,124.09,306.56,94.94,294.21,129.18Z"/><ellipse class="cls-23" cx="308.76" cy="133.04" rx="5.26" ry="7.42"/><ellipse class="cls-26" cx="306.58" cy="126.93" rx="2.18" ry="2.48"/><path class="cls-27" d="M311,154s11.71-1.5,15.1-14.62l-32.84-2.11S297,154.17,311,154Z"/><path class="cls-4" d="M296.15,143.22a22.1,22.1,0,0,1-2.31-10,22.53,22.53,0,0,1,1.08-6.95"/><path class="cls-4" d="M298.81,119.29a15,15,0,0,1,11.29-5.43c9,0,16.26,8.68,16.26,19.4,0,7.18-3.27,13.45-8.13,16.8"/><line class="cls-4" x1="294.68" y1="136.69" x2="324.64" y2="140.22"/><path class="cls-28" d="M361.08,135.14c-4.31,2.65-13,7.39-12.7,23.23s6.1,23.5,16.13,24.29,21.1-.73,32.47-19.8c7.66-12.85,19.26-39.26,0-36.89S366.75,131.66,361.08,135.14Z"/><path class="cls-22" d="M204,113.3s1.32-8.45,17.68-3.7,126.71,42.24,126.71,42.24"/><path class="cls-22" d="M361.08,135.14c-4.31,2.65-13,7.39-12.7,23.23s6.1,23.5,16.13,24.29,21.1-.73,32.47-19.8c7.66-12.85,19.26-39.26,0-36.89S366.75,131.66,361.08,135.14Z"/><path class="cls-23" d="M348.38,156.84s-20.28-6.18-19-11.43,20.66,1.74,20.66,1.74Z"/><path class="cls-23" d="M406.37,128.79c2.35-2.12,4.68-3.83,8-3.93a12.54,12.54,0,0,1,4.87.59,10.66,10.66,0,0,1,1,.55c.13.1.59.55.84.81,1.24,1.29,3.2-.68,2-2-2.29-2.39-5.46-2.86-8.67-2.76a12.8,12.8,0,0,0-6,1.64,24.23,24.23,0,0,0-4,3.1c-1.33,1.2.64,3.16,2,2Z"/><path class="cls-23" d="M408.51,138.84A17.56,17.56,0,0,1,422,134.18a1.39,1.39,0,1,0,0-2.77,20.27,20.27,0,0,0-15.5,5.47c-1.3,1.23.67,3.19,2,2Z"/><path class="cls-11" d="M412.41,168.9a8.7,8.7,0,0,0,2.34,3.32,5.33,5.33,0,0,0,3.56,1.58,2.42,2.42,0,0,0,2-1.17,2.88,2.88,0,0,0-.25-2.82,8.63,8.63,0,0,0-6.74-4.34,1.4,1.4,0,0,0-1.39,1.39,4.92,4.92,0,0,0,2.81,4.45,1.47,1.47,0,0,0,1.07.14,1.37,1.37,0,0,0,.82-.63,1.4,1.4,0,0,0-.49-1.9,4.73,4.73,0,0,1-.45-.23l-.18-.12c-.14-.09.23.2.05,0l-.36-.35s-.19-.24-.05-.06,0-.06-.06-.1a3.18,3.18,0,0,1-.23-.4c-.12-.23.1.29,0,0,0-.06-.05-.13-.07-.2s-.06-.3-.1-.45c.1.34,0,.18,0,0a2.09,2.09,0,0,1,0-.25l-1.38,1.39a.91.91,0,0,0,.17,0c-.24,0-.25,0-.12,0l.34.06c.24.05.48.12.71.19l.33.12c.32.12-.25-.12.06,0l.66.34c.2.11.39.24.58.37a.71.71,0,0,0,.14.1s-.26-.2-.08,0l.3.25c.17.15.33.31.49.48s.13.15.2.23l.11.13c.19.23-.18-.26,0,0s.26.38.38.58l.17.3a.49.49,0,0,0,.08.18c-.09-.07-.08-.23,0,0,0,.05.08.26,0,.05s0-.06,0,0a.69.69,0,0,1,.1-.37c-.1.18.1-.11.11-.12l-.09.09c.13-.18.26-.18.13-.11.37-.2.26-.09.16-.07s-.2,0,.11,0a2.44,2.44,0,0,1-.27,0H418s.36.07.15,0l-.25-.07-.14,0c-.16,0,.31.15.1,0l-.6-.34-.3-.2-.14-.1.1.08-.1-.09a7.55,7.55,0,0,1-.59-.54l-.27-.3-.12-.13c-.13-.16,0-.08,0,0-.13-.23-.31-.44-.45-.67a3.58,3.58,0,0,1-.21-.39c-.05-.09-.25-.54-.09-.15a1.49,1.49,0,0,0-.63-.83,1.39,1.39,0,0,0-1.07-.14,1.41,1.41,0,0,0-1,1.71Z"/><path class="cls-29" d="M309.31,99.21c4.19-.51,2.8,1.24,6.7,7.3s9.37,8.77,15.62,8.6,5.19,6.77,2.09,10.18-15.84,7.56-22.87-6.85S307,99.49,309.31,99.21Z"/><path class="cls-22" d="M309.31,99.21c4.19-.51,2.8,1.24,6.7,7.3s9.37,8.77,15.62,8.6,5.19,6.77,2.09,10.18-15.84,7.56-22.87-6.85S307,99.49,309.31,99.21Z"/></g><g id="Capa_2" data-name="Capa 2"><path class="cls-30" d="M283.93,366.89s11.55-3,15.8,4.37L295.34,377s-11.89-6.44-15.77-4.7Z"/><path class="cls-31" d="M283.93,366.89s11.55-3,15.8,4.37L295.34,377s-11.89-6.44-15.77-4.7Z"/></g></svg>