<svg xmlns="http://www.w3.org/2000/svg" xmlns:xlink="http://www.w3.org/1999/xlink" viewBox="0 0 600 600"><defs><style>.cls-1{fill:#fff;}.cls-2{fill:#6fb7d6;}.cls-3{fill:#f1f3f3;}.cls-4{fill:#ffb864;}.cls-5{fill:#79e280;}.cls-6{fill:#5cb75e;}.cls-7{fill:#ff962e;}.cls-13,.cls-16,.cls-17,.cls-18,.cls-19,.cls-21,.cls-8,.cls-9{fill:none;}.cls-8{stroke:#030304;}.cls-13,.cls-17,.cls-18,.cls-19,.cls-8,.cls-9{stroke-linecap:round;stroke-linejoin:round;}.cls-13,.cls-18,.cls-8{stroke-width:2.77px;}.cls-13,.cls-9{stroke:#1b5186;}.cls-19,.cls-9{stroke-width:3.33px;}.cls-10{fill:#dedbe1;}.cls-11{fill:#f2f3f2;}.cls-12{fill:#1d1d1b;}.cls-14{fill:#0080ca;}.cls-15{fill:#1b5186;}.cls-16{stroke:#6fb7d6;stroke-width:0.56px;}.cls-16,.cls-21{stroke-miterlimit:10;}.cls-17,.cls-18,.cls-19,.cls-21{stroke:#1d1d1b;}.cls-17,.cls-21{stroke-width:2.22px;}.cls-20{fill:url(#Degradado_sin_nombre_9);}.cls-22{fill:url(#Degradado_sin_nombre_9-2);}.cls-23{fill:#3c3c3b;}</style><linearGradient id="Degradado_sin_nombre_9" x1="6924.46" y1="163.7" x2="6924.46" y2="132.63" gradientTransform="matrix(-1, 0, 0, 1, 7156.57, 0)" gradientUnits="userSpaceOnUse"><stop offset="0" stop-color="#ffd75d"/><stop offset="1" stop-color="#ff1d2d"/></linearGradient><linearGradient id="Degradado_sin_nombre_9-2" x1="301.2" y1="168.53" x2="301.2" y2="134.25" gradientTransform="matrix(1, 0, 0, 1, 0, 0)" xlink:href="#Degradado_sin_nombre_9"/></defs><g id="Capa_3" data-name="Capa 3"><g id="a"><rect class="cls-1" width="600" height="600"/></g></g><g id="Capa_2" data-name="Capa 2"><path class="cls-2" d="M217,215.32s29.13,79.68,74.09,83.74,92-57.7,95.12-65.8-2.5-27.59-2.5-27.59-5.14-62-10.85-99.07c-4.43-28.83-17.47-51.7-65.32-52.67s-62,32.3-63.72,38.09S219.31,208,217,215.32Z"/><path class="cls-3" d="M235.06,176.79l15,67.7s18.45,13.44,27.68,26.36,20.56,44,28.47,43.22,41.53-54.13,41.53-54.13l13.19-89.67S332,218.93,301,220.84C254,223.74,246.66,196,235.06,176.79Z"/><path class="cls-4" d="M247.33,499.18l2-25.4s19.38,12.94,52.32,12.94S354.89,472,354.89,472v26.79s11.31,6.15,22.06,5.3,19.62-2.3,19.62-2.3L393,602.91H214L208.08,502s5.45,2.58,19.63,1.72S247.33,499.18,247.33,499.18Z"/><path class="cls-5" d="M249.94,473.57s14.82,13.7,49.22,13.7,54.31-13.47,54.31-13.47l-1.69-67.66L303.57,400,253.22,419.6Z"/><path class="cls-4" d="M253.22,419.6s-2.37,30.78-2.83,38.13-3.39,42.1-3.39,42.1-9.5,5.54-25,4.41-24.44-4.75-24.44-4.75-7.58-30.33-8.93-40.85a133.64,133.64,0,0,1-1-19.69s1.81,2.72,7.8,2.26S253.22,419.6,253.22,419.6Z"/><path class="cls-4" d="M334.22,389.9s-6.09-19.42-5.52-35.86,3.54-23.67,3.54-23.67-36.71,8.22-42.95,11.19-32.6,13.89-39.54,19.42-6.66,13.33-9.07,16.16-5.1,3.54-5.81,2.41-2-10.49-2-10.49l1-8.36s-5.38,11.48-11.05,14-5.67.57-6.1-1.13.57-6.66.57-6.66-4.68,5.81-8.08,3,1.7-11.48,3-14,5-10.77,5-10.77-7,1.56-8.08.56,4.39-7.65,4.39-7.65l2.7-2.13s25.08-12.61,32-13.32,4.68-.42,4.68-.42L241.1,259.64s-17.71-18.14-21-23.81-.71-18.71-.71-18.71l-.57-12.19s-9.92,8.36-12.47,12.47a25.67,25.67,0,0,0-3.26,8.08L156.49,263s-16.3-1.13-24.1,21.69,6,61.65,19.14,96.66,32.45,55.28,37.13,58.26,11.76,1.27,14.46.56S300.21,399,334.22,389.9Z"/><path class="cls-4" d="M356.34,318.89l12.47-61.38s13.75-12.89,17.15-21.68,1.18-19.17,1.18-19.17l-2-13.31s10.85,7,13.26,10.65S404,226.47,404,226.47l30.19,19.71a24.39,24.39,0,0,1,24.24,5.1c11.62,10.2,15.45,30,8.36,65.06s-23,94.11-23.81,96.09a16.4,16.4,0,0,1-3.26,4.25s-16.16-.42-18.57-.7l-2.41-.29s-2.84,32.32-5.39,44.65S405,499.46,405,499.46A101.65,101.65,0,0,1,384.54,504c-10.2,1-29.34-4-29.34-4l-3.68-93.13-50.32-6.8,32.46-9.92s-3.83-27.36-4.4-33.31-.28-15-.28-15l.85-1.28,53.29,13.18,5.39-21.4s-7.37-10.77-16.58-13.61S356.34,318.89,356.34,318.89Z"/><path class="cls-5" d="M297.2,286.64s-6.68-16.89-32.07-30.62-46.06-39.3-46.06-39.3-.28,13.28,2.25,19.7,20.24,25.11,20.24,25.11l7.5,35.77L252,322a233.45,233.45,0,0,1,23.3,8,202.87,202.87,0,0,1,20,10.39l7.31-1.27L334.51,329s10.21-7.5,13.37-8.59,9-2.25,9-2.25l10.75-60.25s15.18-15.36,17.8-23a40.75,40.75,0,0,0,2.25-14.09S332.88,261,322.77,270.29,302,308.86,302,308.86Z"/><path class="cls-6" d="M251.15,440.4S269.2,430,301.32,430s51.27,13.14,51.27,13.14l-1.07-36.28L304.83,400,252,421.15Z"/><path class="cls-6" d="M242.22,263.19l7.33,38.27s-1.24-12.68,21.87-13.55,29.57,16,29.57,16-2-13.54-2.6-14.78-8.83-11.68-22.12-17.4-18.89,4.35-19.26,5.34-2.24,4.48-2.24,4.48S251,269.53,242.22,263.19Z"/><path class="cls-6" d="M302,305.81s-1.49-15.29,18.14-27.71,24.85-7.46,27.21-5.22,4.35,8.82,4.35,8.82l15.41-22.49-7.21,34.17s-3.1-5.84-21.87-7.2S302,305.81,302,305.81Z"/><path class="cls-7" d="M233.72,294.51A267.12,267.12,0,0,0,216,269.3s-7.3-27.07-5-40.25,8.88-14.32,8.88-14.32l-.15-11.32s-15,11.18-19,30.65,9.64,49.49,9.64,49.49l15.85,14.68s-2.86,14.47-4.73,22.92-2.86,12.6-2.86,12.6l9.17-3.87s1.71-11.74,3.29-16,9.45,0,9.45,0S241,306.68,233.72,294.51Z"/><path class="cls-7" d="M166.91,265.12s-15.12,6.68-18.06,28.66,37.1,106.61,45,118.2,44,1,72.83-9.62,66.95-17.87,66.95-17.87l.4,4.71s-39.27,12.17-69.31,25.33-64.59,29.06-72.25,25.91-26.5-20.81-42.8-65.57-23.76-76.77-15.12-95.61S166.91,265.12,166.91,265.12Z"/><path class="cls-7" d="M210.49,283.18c-.47-.7-11.21-20.31-10.86-35.37s1.29-20.08,1.29-20.08l-44.83,35.49s5.6.7,8.4.94a14.48,14.48,0,0,1,4.56,1s8.4-5.84,14.59-9.46,16,18.45,18.21,29.3l14.48,49.85,2.21-1.15s5.84-27.68,6-30.25S225,297,225,297,211,283.88,210.49,283.18Z"/><path class="cls-7" d="M374.21,294.51A267.12,267.12,0,0,1,392,269.3s7.3-27.07,5-40.25-8.88-14.32-8.88-14.32l-2.34-11.34s17.52,11.2,21.53,30.67-9.64,49.49-9.64,49.49l-12.18,11.84s-.81,17.31,1.06,25.76,2.86,12.6,2.86,12.6l-9.17-3.87s-1.71-11.74-3.29-16-9.45,0-9.45,0S366.9,306.68,374.21,294.51Z"/><path class="cls-7" d="M405.43,226.47,432.29,246a69.16,69.16,0,0,0-23.79,29.63c-8.14,19.65-20.26,55.11-20.26,55.11l-6-7.37L380,298.77l18.72-16.12s9.37-17,10-34.54S405.43,226.47,405.43,226.47Z"/><path class="cls-8" d="M385.05,203.39s16.66,5.83,21.54,30.67-11.06,55.45-11.06,55.45-20.33,5.21-28.76,24.33"/><path class="cls-7" d="M209.25,436.69c-14,5-17.52,5.41-20.69,1.87v13.05s38.4,6.89,61.88-10.07l1.65-21.74S223.23,431.66,209.25,436.69Z"/><path class="cls-7" d="M209.5,519s26.24,4.74,44-3.71l2.67-15s32,8,86.89.14l1.48,13.65s22.83,7.26,51.15.29l.45-11.71s-5,2.22-20,.89-21.5-5-21.5-5l-.74-24.77s-20.17,12.9-50.71,12.9a116.11,116.11,0,0,1-54-13.93L247,499.83s-12,3.43-21.34,3.58a166.17,166.17,0,0,1-16.9-.59Z"/><path class="cls-7" d="M351.78,406.14l1,19.19s21.62,14.91,63.93,7.26l2-16.9Z"/><path class="cls-7" d="M328.35,392s93.57,11.74,96.74,12.3,18.45-46.41,30.56-91.7-2.42-75.67-30-61.51c0,0,5.59-10.25,25-5.4s19,33.36,17,60.39-25.72,108.85-27,110-7.83,1.67-20.69-.38S303.57,400,303.57,400Z"/><path class="cls-9" d="M239.77,109.77l6.36-23.54s12.4-37.31,66-32.49c50,4.5,60.92,30.56,62.66,66.65s11.38,101.1,11.38,101.1"/><path class="cls-10" d="M260.29,252.47,256,208.65a59.91,59.91,0,0,0,38.55,13.21c29.27-.58,54.21-29.81,54.21-29.81l-8.84,66s-25.69,20.41-28,23.85-9,21.27-9,21.27a151.94,151.94,0,0,0-12-26.21c-8.17-14.18-30.51-24.49-30.51-24.49"/><path class="cls-3" d="M229.83,158.77s4.66-8.68,9.14-12.64,13.87-3.39,20.07,1.09,11.87,4,23.58,0,35.65,15.4,59.76-.82,28.3,12,14.34,31.92S321.39,225,283.8,221.49,230.64,176,229.83,158.77Z"/><path class="cls-11" d="M249.27,120.49a16.25,16.25,0,0,1,.25,2.82c0,7.44-5.05,13.47-11.28,13.47-4.66,0-8.66-3.37-10.38-8.18C222,117,240.69,96.73,249.27,120.49Z"/><ellipse class="cls-12" cx="240.83" cy="124.76" rx="4.03" ry="5.68"/><ellipse class="cls-11" cx="239.16" cy="129.45" rx="1.67" ry="1.9"/><path class="cls-13" d="M247.92,130.22a15.32,15.32,0,0,0,1.6-6.91,15.54,15.54,0,0,0-.75-4.82"/><path class="cls-13" d="M246.07,113.63a10.37,10.37,0,0,0-7.83-3.78c-6.23,0-11.28,6-11.28,13.46A14.08,14.08,0,0,0,232.6,135"/><path class="cls-2" d="M383.82,353.55H380.6l-50.17-12.67s-1.82-12.57,11.5-17.3,23.52-6.44,34.26-2.58a17.3,17.3,0,0,1,11.71,13.65Z"/><path class="cls-14" d="M331,336.26s27.61-12.89,55.32.86l-2.58,15.46-7.84-.21-46-11.8Z"/><path class="cls-8" d="M216.18,339.38s6.76-15.2,9.47-41.51"/><path class="cls-8" d="M217.17,337.66s-7.87-29-12.55-44.52-15.73-22.87-21.88-23.6"/><line class="cls-8" x1="154.33" y1="263.73" x2="202.96" y2="225.1"/><path class="cls-11" d="M353.72,121.43a16.37,16.37,0,0,1,.25,2.83c0,7.43-5.05,13.46-11.28,13.46-4.66,0-8.66-3.37-10.38-8.18C326.41,117.89,345.14,97.67,353.72,121.43Z"/><ellipse class="cls-12" cx="343.03" cy="126.17" rx="4.03" ry="5.68"/><ellipse class="cls-11" cx="341.36" cy="130.86" rx="1.67" ry="1.9"/><path class="cls-13" d="M352.37,131.17a15.48,15.48,0,0,0,1.6-6.91,15.75,15.75,0,0,0-.75-4.82"/><path class="cls-13" d="M350.52,114.57a10.37,10.37,0,0,0-7.83-3.78c-6.23,0-11.28,6-11.28,13.47a14.08,14.08,0,0,0,5.64,11.66"/><path class="cls-15" d="M222.66,204.37l14.33,14S224.56,216.33,222.66,204.37Z"/><path class="cls-15" d="M224.64,193.79l14.33,14S226.53,205.75,224.64,193.79Z"/><path class="cls-15" d="M226.5,182.72l14.33,14S228.4,194.68,226.5,182.72Z"/><path class="cls-15" d="M381.48,204.37l-14.33,14S379.59,216.33,381.48,204.37Z"/><path class="cls-15" d="M379.5,193.79l-14.32,14S377.61,205.75,379.5,193.79Z"/><path class="cls-15" d="M377.64,182.72l-14.33,14S375.75,194.68,377.64,182.72Z"/><path class="cls-8" d="M252,322.08s-4.55-33.36-10.7-60.66"/><path class="cls-8" d="M356.75,319.07s4.53-31.83,10.68-59.13"/><line class="cls-8" x1="406.08" y1="227.64" x2="433.77" y2="245.38"/><path class="cls-8" d="M418.42,260.21s8.14-19.49,28.38-14.8,27.14,24.92,19.74,70.33-25.42,100.2-25.42,100.2.25,1.72-9.62,1c-6.2-.46-127.59-16.78-127.59-16.78"/><path class="cls-9" d="M332.47,330.84s9.45-11.28,29-12.34,26.47,13.89,26.47,13.89"/><line class="cls-8" x1="330.18" y1="341.36" x2="384.45" y2="354.01"/><path class="cls-8" d="M382.85,354.41s8.92-4.12,31.87-.42"/><path class="cls-8" d="M383.13,354.49s9.13-47.14,28.13-84.9"/><path class="cls-8" d="M249.29,473.78s43.61,30.16,103.94,0"/><line class="cls-8" x1="301.79" y1="486.73" x2="301.79" y2="400.64"/><path class="cls-8" d="M187.41,438.49s1,36.64,9.84,60.74c0,0,22.13,10.33,50.17.5l4.67-79.93"/><path class="cls-8" d="M418,416.8s-4.48,58.33-13.33,82.43c0,0-22.14,10.33-50.17.5l-3.09-93"/><line class="cls-8" x1="225.73" y1="469.74" x2="234.65" y2="465"/><line class="cls-8" x1="340.24" y1="449.68" x2="348.04" y2="444.38"/><line class="cls-8" x1="341.35" y1="440.76" x2="346.65" y2="434.91"/><line class="cls-8" x1="208.18" y1="502.61" x2="213.57" y2="602.15"/><line class="cls-8" x1="298.17" y1="504.29" x2="298.17" y2="561.96"/><path class="cls-8" d="M309,503.45V551s-4.7,7.43-8.93,10.21S296,602.91,296,602.91"/><line class="cls-8" x1="396.24" y1="502.34" x2="393.45" y2="601.8"/><path class="cls-8" d="M219,216.58s10.5,16.18,32.53,30.36,46.53,23.72,50.37,59.24v31.15"/><path class="cls-8" d="M240.45,313.84c-8.43-19.12-28.76-24.33-28.76-24.33s-15.94-30.6-11.05-55.45,19-30.65,19-30.65"/><path class="cls-8" d="M302,307.33s4-26,33.2-46a593,593,0,0,0,52.56-40.83"/><path class="cls-8" d="M218.89,216.66s-6.15,13.28,11.07,31.23,25.33,33.94,25.33,33.94,1-8.61,8.6-11.31,22.77,6.34,30.64,14.45"/><path class="cls-8" d="M388.23,219.81s3.11,12.46-11.29,28.08c-16.86,18.29-25.33,33.94-25.33,33.94s-1-8.61-8.61-11.31-21.24,5-29.11,13.12"/><path class="cls-8" d="M173.11,266.88a27.72,27.72,0,0,0-29.86,1.72c-25.82,18.33-7.24,74,8.5,112.34s33.94,59.27,41.07,60.25,33.69-10.32,60.5-21.88,62.95-25.19,80.66-29.13c0,0-9.67-35.23-1.93-60.37,0,0-30.28,5.88-67.42,22.11"/><path class="cls-16" d="M218.34,365.18a15.91,15.91,0,0,0,1-2S218.91,364,218.34,365.18Z"/><path class="cls-14" d="M239.68,330.84c0-3.47-13.34,1.63-18.69,4.9-4.43,2.71-10.45,5.86-12,9.73.54.66,2.32.6,6.6-.64a44.68,44.68,0,0,1,8.39-5.68C229.24,336.41,235.11,334.63,239.68,330.84Z"/><path class="cls-2" d="M248.73,361.61c7.53-6.06,17.37-12,25.82-16.71,4.61-2.56,11-4.86,14.47-8.83-10.74-5.68-33.84-16.65-43.22-13-13.88,5.35-34.6,12.76-35.57,17.08-.51,2.28-2,4.46-1.25,5.36q6.75-3.9,13.39-8c5.35-3.27,11-6.74,17.31-6.67-4.57,3.79-10.44,5.57-15.71,8.31a44.68,44.68,0,0,0-8.39,5.68c.85-.25,1.8-.54,2.86-.88a66,66,0,0,0-8.32,15.84c-1.46,4.32-2.46,7.14-2.38,8.83.47-.49,3.18,2.52,3.59,2,2.27-2.91,3.94-6,6-9.1C224,351.39,233.11,342,244.11,336.9c-3.2,4.41-9.28,5.47-13.67,8.69-4.15,3.05-6.58,7.88-8.66,12.6q-2.92,6.63-5.34,13.47c-.13.36-.26.73-.38,1.1,0,1.93.73,3.41,3.06,3.53a4.91,4.91,0,0,0,1.08-.08c.72-1.21,5-3.75,5.43-5.06,1.31-3.49,3.66-4.94,5.46-8.21,2.46-4.46,4.42-7.09,8.54-10.1,3.52-2.58,6.23-5.37,9.89-7.75,2.59-1.67,2.1-3.26,4.45-1.26-1.93,1.35-2.08,1.13-4.06,2.41a46.24,46.24,0,0,0-16,18.07c-.9,4-1.83,9.7-.83,13,.2-.7,3.13,2.63,3.34,1.94C238.59,371.88,242.7,366.45,248.73,361.61Z"/><path class="cls-14" d="M292.6,338.14s-3.47-2.16-8.64-4.89a45.69,45.69,0,0,1-12.22,9.91c-8.44,4.69-18.4,6.72-25.93,12.78-6,4.84-10,11.91-12.15,19.32-.21.69-.4,1.39-.6,2.09.6,2,1.88,3.13,4.25,2.61,9-2-.45-11.18,13.78-20s17.64-11.11,25.34-14.23S293.27,340.78,292.6,338.14Z"/><path class="cls-14" d="M221.78,358.19c2.08-4.72,4.51-9.55,8.66-12.6,4.39-3.22,10.47-4.28,13.67-8.69-11,5.08-22.57,10.65-29.23,20.77-2,3.08-3.53,6.51-5.8,9.41a19.7,19.7,0,0,1-1.34,1.54c.06,1.59,1.09,2.16,3.59,2,3.36-.23,5.75-3.32,7-5.43.57-1.19,1-2,1-2a15.91,15.91,0,0,1-1,2c-1,2-2.24,5.15-2.28,7.58.12-.37.25-.74.38-1.1Q218.86,364.82,221.78,358.19Z"/><path class="cls-14" d="M255.89,342.48c-2.34-2-5.91-.41-8.49,1.27q-5.51,3.57-10.79,7.43c-4.12,3-8.26,6.28-10.72,10.75-1.8,3.27-2.59,7-3.89,10.47a24.07,24.07,0,0,1-1.8,3.81c6.82-1.24,14.86-16.42,14.86-16.42s-.58,1.89-1.17,4.52a46.24,46.24,0,0,1,16-18.07C251.89,345,254,343.83,255.89,342.48Z"/><path class="cls-15" d="M293.3,336.94c-7.27-3.37-14.47-6.87-21.75-10.21-7.54-3.46-16.07-6.26-24.48-5.28-3.67.44-6.81,1.95-10.16,3.36-3.2,1.34-6.42,2.64-9.6,4-6.08,2.67-12.46,5.66-17.25,10.38-1.2,1.18-2,2.11-2.14,3.83-.09,1.5-.12,2.95,1.36,3.79,2.81,1.61,7.5.1,9.86-1.71,1.41-1.06,0-3.48-1.4-2.39a10.8,10.8,0,0,1-3.86,1.7,7.09,7.09,0,0,1-1.84.24,4.43,4.43,0,0,1-.81-.07c-.16,0-.68-.23-.63-.15a6.54,6.54,0,0,0,.09-1.12,1.43,1.43,0,0,1,.47-1.27,25.46,25.46,0,0,1,2.9-2.69c4.79-3.84,10.6-6.42,16.21-8.82,2.76-1.19,5.56-2.32,8.33-3.49,3.06-1.29,6-2.66,9.31-2.94,7.6-.63,15.21,1.77,22,4.89,7.36,3.36,14.63,6.91,22,10.3,1.61.75,3-1.64,1.4-2.39Z"/><path class="cls-15" d="M238.55,330.81c-4.11,2.33-8.47,4.2-12.66,6.39a41.55,41.55,0,0,0-6.52,4,18.44,18.44,0,0,0-4.89,6.22c-2.79,5.34-5.3,10.88-7.69,16.41-.95,2.19-1.65,4.77.27,6.67a5.85,5.85,0,0,0,5.5,1.29c2-.54,3.51-2.26,4.77-3.86a33,33,0,0,0,3.67-5.48c.82-1.58-1.58-3-2.39-1.4a31.24,31.24,0,0,1-2.53,4,15.22,15.22,0,0,1-3.26,3.62c-1.08.74-3.1.88-4-.3-.62-.85-.12-2,.23-2.9.52-1.27,1.1-2.52,1.67-3.77,2.11-4.69,4.17-9.51,6.72-14,2.31-4.08,6.22-6.28,10.27-8.37s8.24-3.91,12.2-6.16a1.39,1.39,0,0,0-1.4-2.39Z"/><path class="cls-15" d="M243.4,336.06a43.37,43.37,0,0,1-7.29,4.46,34.06,34.06,0,0,0-6.58,4.53,42.85,42.85,0,0,0-9.05,12.53c-1.19,2.33-2.25,4.71-3.28,7.11s-2.51,5.06-2.39,7.76a5.24,5.24,0,0,0,3.91,5.17c2.79.57,5.23-1.09,7-3.09a126.31,126.31,0,0,0,12-16.65c.95-1.52-1.45-2.91-2.39-1.4A154.1,154.1,0,0,1,226,369.81c-1.42,1.79-3.14,4.66-5.58,5.1-2.68.47-3.14-2.36-2.59-4.33a51.59,51.59,0,0,1,2.78-6.82c.9-2,1.85-4,2.9-6a38.73,38.73,0,0,1,8-10.75c4.13-3.75,9.6-5.42,13.86-9,1.37-1.15-.6-3.1-2-2Z"/><path class="cls-15" d="M256,340.91q-6,4.2-12.09,8.4c-3.33,2.32-6.65,4.75-9,8.09-2.49,3.49-3.37,7.75-3.5,12-.07,2.23,0,4.45.19,6.67.12,1.76.29,3.74,1.85,4.86,3.35,2.41,7.42-1.14,9-4,2-3.56,2.06-8,4.42-11.35a18.63,18.63,0,0,1,4.73-4.29q2.75-1.94,5.58-3.73,5.79-3.68,11.89-6.81a142.55,142.55,0,0,1,14.24-6.34c2.38-.91,4.79-1.73,7.2-2.54,1.95-.64,3.78-1.81,3.4-4.1-.29-1.76-3-1-2.67.74.07.43-4.4,1.67-4.87,1.83-1.91.67-3.81,1.38-5.68,2.13-3.8,1.51-7.55,3.16-11.21,5A128.07,128.07,0,0,0,248.74,360a16.75,16.75,0,0,0-6.26,8.63c-1,3.16-1.53,7.11-4.32,9.3a3.86,3.86,0,0,1-2.3.94c-1,0-1.26-.8-1.38-1.67a44.37,44.37,0,0,1-.3-5.65c-.06-3.83.27-7.81,2.17-11.22,2-3.62,5.49-6.15,8.83-8.49,4.08-2.85,8.18-5.67,12.26-8.51,1.46-1,.07-3.42-1.4-2.4Z"/><path class="cls-15" d="M263.24,341.35l4.3-1.83a1.34,1.34,0,0,0,.64-.83,1.38,1.38,0,0,0-1-1.7l-.37-.05a1.34,1.34,0,0,0-.7.19l-4.3,1.82a1.4,1.4,0,0,0-.64.83,1.42,1.42,0,0,0,.14,1.07,1.4,1.4,0,0,0,.83.64l.37.05a1.34,1.34,0,0,0,.7-.19Z"/><path class="cls-15" d="M249.25,334.3l6.2-1.67a1.39,1.39,0,0,0-.73-2.68l-6.21,1.68a1.39,1.39,0,1,0,.74,2.67Z"/><line class="cls-17" x1="244.9" y1="174.27" x2="251.77" y2="170.74"/><path class="cls-3" d="M240.2,164.9s20.31,11.65,49.47,12.26,60.59-20.4,60.59-20.4l3.76-3.15s-22.59,42.2-64.09,44S240.2,164.9,240.2,164.9Z"/><path class="cls-9" d="M229.83,161s12.61,55.83,54,60.5,71.31-36.76,77.09-51.22"/><line class="cls-9" x1="217.96" y1="215.51" x2="235.5" y2="131.63"/><path class="cls-9" d="M261,161s-7.31-9.29-7.73-18.62c-.39-8.59,11-14.28,22.1-20.21"/><path class="cls-17" d="M237.71,162.09c8.45,4.3,16.24,8.23,16.24,8.23s34.77,16,70.55.21c0,0,20.18-9.79,32.35-19.39"/><path class="cls-17" d="M237.71,162.09s10.28,32.68,50.94,35.45c37.21,2.53,68.2-46.4,68.2-46.4"/><polyline class="cls-17" points="252.39 170.63 257.88 185.91 267.38 175.11 277.85 196.15 288.29 177.61 299.22 196.53 308.89 175.63 321.03 187.97 325.86 171.26 334.87 177.49 340.24 162.09"/><path class="cls-17" d="M354.83,148.74s5,1.14,3.87,7"/><path class="cls-15" d="M278.72,146.78,276,148.3a1.39,1.39,0,0,0,.33,2.54,1.53,1.53,0,0,0,1.07-.14l2.69-1.52a1.39,1.39,0,0,0,.5-1.9,1.4,1.4,0,0,0-.83-.64,1.47,1.47,0,0,0-1.07.14Z"/><path class="cls-12" d="M321.42,139.31s10.06-1.22,10.43-5.94-9.45-2.73-9.45-2.73Z"/><line class="cls-18" x1="323.43" y1="133.39" x2="372.34" y2="126.03"/><path class="cls-19" d="M250.59,127.32s18.23-9.46,31.37,0"/><path class="cls-19" d="M250.59,136S268.53,122,282,136"/><path class="cls-20" d="M242.17,121.75c7,1.44,11.51,8.71,10.1,16.13a69.07,69.07,0,0,1-3.46,12.62c-3.79,9.21-22.87,9.07-29.27,3.49-5.29-4.62-7-15.91-7.82-24.18a6.2,6.2,0,0,1,4-6.53A50.61,50.61,0,0,1,242.17,121.75Z"/><path class="cls-21" d="M242.17,121.75c7,1.44,11.51,8.71,10.1,16.13a69.07,69.07,0,0,1-3.46,12.62c-3.79,9.21-22.87,9.07-29.27,3.49-5.29-4.62-7-15.91-7.82-24.18a6.2,6.2,0,0,1,4-6.53A50.61,50.61,0,0,1,242.17,121.75Z"/><path class="cls-22" d="M290.76,122.24c-7.23,1.59-11.95,9.61-10.48,17.8A79.87,79.87,0,0,0,283.87,154c3.93,10.16,23.72,10,30.37,3.85,5.49-5.1,7.28-17.56,8.12-26.69a6.91,6.91,0,0,0-4.16-7.21A49.73,49.73,0,0,0,290.76,122.24Z"/><path class="cls-21" d="M290.76,122.24c-7.23,1.59-11.95,9.61-10.48,17.8A79.87,79.87,0,0,0,283.87,154c3.93,10.16,23.72,10,30.37,3.85,5.49-5.1,7.28-17.56,8.12-26.69a6.91,6.91,0,0,0-4.16-7.21A49.73,49.73,0,0,0,290.76,122.24Z"/><path class="cls-23" d="M354.6,102.42c-2.73,2.25-2.54.38-8-2.16s-10.59-2-14.94.95-6.72-2.47-6.06-6.28,7.82-12.48,19.29-5.44S356.09,101.2,354.6,102.42Z"/><path class="cls-18" d="M354.6,102.42c-2.73,2.25-2.54.38-8-2.16s-10.59-2-14.94.95-6.72-2.47-6.06-6.28,7.82-12.48,19.29-5.44S356.09,101.2,354.6,102.42Z"/><path class="cls-23" d="M231.72,101.36c2,2.2,1.86.34,5.93-2.29s7.8-2.17,10.95.69,5-2.57,4.55-6.37-5.53-12.34-14.06-5.11S230.66,100.17,231.72,101.36Z"/><path class="cls-18" d="M231.72,101.36c2,2.2,1.86.34,5.93-2.29s7.8-2.17,10.95.69,5-2.57,4.55-6.37-5.53-12.34-14.06-5.11S230.66,100.17,231.72,101.36Z"/></g></svg>