<svg xmlns="http://www.w3.org/2000/svg" xmlns:xlink="http://www.w3.org/1999/xlink" viewBox="0 0 600 600"><defs><style>.cls-1{fill:#bf66ff;}.cls-2{fill:#007fcc;}.cls-3{fill:#38acc6;}.cls-16,.cls-18,.cls-20,.cls-22,.cls-4,.cls-7{fill:none;}.cls-4{stroke:#1b5186;}.cls-16,.cls-22,.cls-4,.cls-7{stroke-linecap:round;stroke-linejoin:round;stroke-width:2.77px;}.cls-5{fill:#996c36;}.cls-6{fill:#c18d48;}.cls-7{stroke:#030304;}.cls-8{fill:#293077;}.cls-9{fill:#474d9e;}.cls-10{fill:#030304;}.cls-11{fill:#f1f3f3;}.cls-12{fill:#dedbe1;}.cls-13{fill:#1b5186;}.cls-14{fill:#606060;}.cls-15{fill:#282828;}.cls-16{stroke:#000;}.cls-17{fill:#514545;}.cls-19{fill:#0080ca;}.cls-20{stroke:#6fb7d6;stroke-miterlimit:10;stroke-width:0.56px;}.cls-21{fill:#027ecb;}.cls-22{stroke:#1d1d1b;}.cls-23{fill:#1d1d1b;}.cls-24{fill:url(#Degradado_sin_nombre_19);}.cls-25{fill:#dedce0;}.cls-26{fill:#f2f3f2;}.cls-27{fill:#6fb7d6;}.cls-28{fill:url(#Degradado_sin_nombre_19-2);}.cls-29{fill:#3c3c3b;}</style><linearGradient id="Degradado_sin_nombre_19" x1="445.78" y1="162.35" x2="436.28" y2="122.79" gradientUnits="userSpaceOnUse"><stop offset="0" stop-color="#4baef9"/><stop offset="1" stop-color="#fbe05d"/></linearGradient><linearGradient id="Degradado_sin_nombre_19-2" x1="384.85" y1="176.98" x2="375.35" y2="137.41" xlink:href="#Degradado_sin_nombre_19"/></defs><g id="Capa_3" data-name="Capa 3"><g id="a"><rect class="cls-1" width="600" height="600"/></g></g><g id="Capa_1" data-name="Capa 1"><path class="cls-2" d="M218,136.15s-6.88,4.1-16,10.74c-2.81,9.61-12.4,14.58-15.43,24.3-2.58,8.26-3.09,9.07-8.44,15.87-4.82,6.14-9.93,15.57-15.17,21.35-2.69,3-3.21,14-5,17.54-2.06,4.1-2.16,11.42-2.77,16-1.31,9.78.22,17.67-1,27.45,5.51-13.08,17.36-35.83,34.51-40C213,223.4,225,227.56,225,227.56Z"/><path class="cls-3" d="M161.33,226.74c1.8-3.59,4.58-6.56,7.28-9.53q7.86-8.67,15.1-17.88c5.34-6.81,10.51-14,13.09-22.25,3-9.73,2.38-20.58,5.19-30.19-17,12.32-41.72,33.42-44.81,53.44-4.75,30.79-6.53,78.31-6.53,78.31s1.19-3.79,3.5-9.28c1.24-9.78,2.56-19.56,3.87-29.34C158.63,235.48,159.27,230.84,161.33,226.74Z"/><path class="cls-4" d="M218,136.15s-56.07,33.38-60.83,64.18-6.53,78.31-6.53,78.31,13.66-43.36,38-49.3S225,227.56,225,227.56Z"/><path class="cls-5" d="M473.78,381.61c-1.3-3.56-10.11-18.11-11.06-21.77-1.71-6.56-7.49-21.49-11-27.33-3-5.13-5.12-14.54-10.29-17.54s-12.78-6.21-14.24-12c-1.13-4.49-2.68-1.68-3.5-6.24-.69-3.84-6.39.13-8.74-3-6.55-8.67-14.34-16.39-20.48-25.36-4.95-7.23-8.84-15.59-9.52-24.22a24.53,24.53,0,0,0-2.49,5.61c-3.51,11.64-1.43,24.33,2.78,35.74,3.82,10.34,9.3,20,14.77,29.53,4.91,8.62,10.94,16.7,14.75,25.86,13.53,32.55,29.49,51.95,42,57.81C458.65,389.84,476.88,390.12,473.78,381.61Z"/><path class="cls-6" d="M476.45,360.57c-3.22-14.55-8.88-26.8-18.44-45.15-12.79-24.55-5.23-24.28-17.44-48.7s-44.19-30.23-44.19-30.23l1.82-.36c-5.51-.77-10.22,3.06-13.2,8,.68,8.63,4.57,17,9.52,24.22,6.14,9,13.93,16.69,20.48,25.36,2.35,3.13,4.6,6.5,5.28,10.35.82,4.56-.63,9.35.5,13.84,1.45,5.79,6.78,9.68,11.94,12.68s10.81,5.87,13.86,11c3.46,5.83,2.73,13.16,4.43,19.73,1,3.66,2.67,7.07,4,10.62a49.12,49.12,0,0,1,1.81,26.75C471.78,405.75,481.75,393.27,476.45,360.57Z"/><path class="cls-7" d="M398.2,236.13c-7.48-1-13.51,6.39-15.69,13.63-3.51,11.64-1.43,24.33,2.78,35.74,3.82,10.34,9.3,20,14.77,29.53,4.91,8.62,10.94,16.7,14.75,25.86,29.79,71.63,71.35,79.61,61.64,19.68-3.22-14.55-8.88-26.8-18.44-45.15-12.79-24.55-5.23-24.28-17.44-48.7s-44.19-30.23-44.19-30.23"/><path class="cls-8" d="M319.89,588.76c1-.34,7.58-6.7,8.31-7.52,1-1.13,2.16-12.22,2.17-13.75.15-14.75,3.57-3.81.8-18.3,24.85,7,19.16,16.08,41.34,2.87-.4,13.92,2.07,15.62,4.23,29.38.15,1,10.18,2.64,10.71,3.46,1.93,3.06,9.46,4.18,12.66,2.47,5.5-2.93,12.31-15,17.66-18.2l1.52-91.59S339.88,497.37,317.82,495s-124.74,6.36-124.74,6.36c2.59,23.11,5.61,60.24,7.42,82,16.58,5,47.95,8,56,9.79C276.27,597.58,300.59,595,319.89,588.76Z"/><path class="cls-9" d="M401.49,563.26c-3.19,1.7-7.89,3-9.82,0a7.24,7.24,0,0,1-.84-2.79,227.38,227.38,0,0,1-2.64-41.62C366,532,337.83,528.58,313,521.62a221.75,221.75,0,0,1,4,44c0,1.52-.1,3.19-1.12,4.32a6.23,6.23,0,0,1-2.86,1.54c-19.29,6.23-42.82,15.61-62.6,11.14-8-1.82-34.23-10.51-50.81-15.49.89,10.55,1.71,21.29,2.51,32.56H416.87l.9-45.61Q409.75,558.86,401.49,563.26Z"/><path class="cls-10" d="M289.14,514.24c16,7.65,32.95,13.71,50.69,15.38,15.54,1.46,31.5-.82,45.57-7.77a63.84,63.84,0,0,0,20.11-15.38c1.17-1.34-.79-3.31-2-2-9.67,11.19-23.27,18.1-37.63,21.07-16,3.31-32.56,1.46-48.12-3.08a181.38,181.38,0,0,1-27.26-10.65c-1.6-.77-3,1.62-1.4,2.39Z"/><path class="cls-10" d="M364.78,528.61l.27,17.43c.08,4.94.4,10-.31,14.9a18.47,18.47,0,0,1-6.22,11.91,33.83,33.83,0,0,0-5.15,5,19.35,19.35,0,0,0-2.95,6c-1.5,4.94-1.39,10.25-1.2,15.35.06,1.78,2.84,1.79,2.77,0-.17-4.56-.3-9.25.86-13.71a17.27,17.27,0,0,1,2.69-5.92c1.49-2,3.56-3.51,5.42-5.17,7.47-6.68,7-16.94,6.9-26.15l-.3-19.63a1.39,1.39,0,0,0-2.78,0Z"/><path class="cls-10" d="M352.38,528.63a235.36,235.36,0,0,1-.44,42.72c-.18,1.78,2.6,1.76,2.78,0a236.27,236.27,0,0,0,.44-42.72c-.15-1.76-2.92-1.78-2.78,0Z"/><path class="cls-10" d="M191.69,501.35q4.26,38,7.33,76.2.87,11.07,1.65,22.15a1.41,1.41,0,0,0,1.39,1.39H408.14c2.79,0,5.58.06,8.36,0h.37a1.42,1.42,0,0,0,1.39-1.39l.24-12.13.58-29.14.69-35.26.61-30.5c.1-4.94.41-9.93.29-14.87,0-.07,0-.14,0-.22a1.4,1.4,0,0,0-1.76-1.33q-5,1.25-10.12,2.43-12.21,2.88-24.49,5.51c-9.94,2.13-19.91,4.13-29.92,5.86a258.26,258.26,0,0,1-26.71,3.55,61.19,61.19,0,0,1-9.38,0c-2.49-.22-5-.37-7.48-.42-7.61-.15-15.24.11-22.85.41-9.72.38-19.43.91-29.13,1.51s-19.59,1.26-29.38,2q-11.82.86-23.63,1.8-6.11.48-12.2,1l-.55,0c-1.77.15-1.78,2.92,0,2.77,2.82-.24,5.65-.47,8.47-.69q10.74-.87,21.49-1.67,14.28-1.06,28.56-2c9.91-.64,19.81-1.23,29.73-1.68,8.34-.39,16.7-.72,25.05-.73,2.93,0,5.86,0,8.79.2,2.58.15,5.13.43,7.73.4,8.34-.1,16.68-1.34,24.9-2.63,10.08-1.58,20.1-3.5,30.08-5.57q13.38-2.76,26.67-5.85,7.23-1.66,14.44-3.43l.67-.17-1.76-1.34-.24,12.13-.57,29.14-.7,35.26-.61,30.5-.2,10.13a37.5,37.5,0,0,0-.09,4.74,1.62,1.62,0,0,1,0,.22l1.39-1.39H210.79c-2.76,0-5.61-.21-8.37,0-.12,0-.24,0-.36,0l1.38,1.39q-2.69-38.19-6.59-76.27-1.14-11.05-2.38-22.08C194.27,499.59,191.49,499.57,191.69,501.35Z"/><path class="cls-11" d="M278.37,241.26c-10.52-25.36-21.14-51.12-27.34-77.74.14,2.8.36,5.6.68,8.39,1.72,14.87,6.23,29.26,10.71,43.54q6.27,20,12.53,39.94c2.46,7.85,4.93,15.7,7.87,23.38.4,1.05.81,2.09,1.23,3.14,7.83,5.85,15,11.15,20.72,15.48-2.39-4.13-4.7-8.31-6.88-12.55C290.59,270.69,284.48,256,278.37,241.26Z"/><path class="cls-12" d="M354.38,356.76c2.06,6.8,17.28-60.18,17.28-60.18L369,265.2q0-29.25,0-58.5c0-14.37,0-28.8-2.29-43-3.75-23.43-14-46.16-30.92-62.79S294.9,74.29,271.26,76.31c-1.07.09-2.14.22-3.2.36-7.11,15.62-11.73,32.65-14.47,49.55a179.51,179.51,0,0,0-2.56,37.3c6.2,26.62,16.82,52.38,27.34,77.74,6.11,14.7,12.22,29.43,19.52,43.58,2.18,4.24,4.49,8.42,6.88,12.55,5.4,4.05,9.59,7.25,12,9.22C331.54,318.75,354.29,356.46,354.38,356.76Z"/><path class="cls-2" d="M242.59,218c.35-10.77,2.92-21.35,3.61-32.09,1.74-27-8.38-53.82-5.75-80.73a97.15,97.15,0,0,1,4.56-21c-12.91,6.8-23.64,17.58-29.29,31-3.42,8.12-5,16.88-6.35,25.59a629.46,629.46,0,0,0-7.11,73.8c7,8.84,25.33,24.08,45.42,39.76C244.7,242.3,242.2,230.2,242.59,218Z"/><path class="cls-3" d="M275,255.39q-6.27-20-12.53-39.94c-4.48-14.28-9-28.67-10.71-43.54-1.76-15.19-.57-30.6,1.88-45.69,2.74-16.9,7.36-33.93,14.47-49.55A69.49,69.49,0,0,0,245,84.08a97.15,97.15,0,0,0-4.56,21c-2.63,26.91,7.49,53.74,5.75,80.73-.69,10.74-3.26,21.32-3.61,32.09-.39,12.25,2.11,24.35,5.09,36.28,12.17,9.51,25,19.17,36.37,27.68-.42-1.05-.83-2.09-1.23-3.14C279.88,271.09,277.41,263.24,275,255.39Z"/><path class="cls-13" d="M203.64,214.47q1-27.28,4.4-54.4c1.11-8.94,2.31-17.91,4-26.77,1.48-7.87,3.57-15.69,7.44-22.75,6.56-12,17.31-21.28,29.65-26.95a69.32,69.32,0,0,1,41.68-4.91,85.35,85.35,0,0,1,40.16,19.69A101.48,101.48,0,0,1,357,135c6.47,15.08,9.32,31.21,10.14,47.53.45,9,.41,18,.41,27.05l0,27.67q0,13.71,0,27.41c0,2.27.34,4.57.54,6.83l2,23.66a10.54,10.54,0,0,0,.1,1.13c.07.38,0,.24.06-.05L370,297.5q-1,3.54-2.12,7.08c-2.35,7.6-4.83,15.17-7.72,22.59a93.21,93.21,0,0,1-4.33,9.82,28.38,28.38,0,0,1-2.11,3.51,6.55,6.55,0,0,1-.83,1,5.39,5.39,0,0,1-.43.39c-.19.16.22-.15,0,0a1.94,1.94,0,0,1-.24.15c-.38.19.19,0-.16.06-.09,0,.26.09-.1,0,.12,0,.33.09.12,0s.21.22.07,0,.15.21-.14-.1.05.16-.17-.24c-.11-.19-.21-.39-.31-.59.12.25-.14-.38-.2-.48a4.17,4.17,0,0,0-.36-.47c-2-2.55-4.14-5-6.26-7.43-8.35-9.58-17.06-19.12-26.89-27.19-4.62-3.79-9.44-7.32-14.22-10.9-7.55-5.66-15.12-11.28-22.67-16.94q-13.32-10-26.52-20.14c-8.59-6.63-17.12-13.34-25.48-20.26-6.76-5.59-13.47-11.28-19.7-17.46a73.7,73.7,0,0,1-5.91-6.45c-1.11-1.39-3.07.58-2,2,4.48,5.62,10,10.47,15.38,15.2,7.78,6.84,15.84,13.37,24,19.8q13.49,10.65,27.22,21Q280.5,281,293.25,290.5c6.21,4.63,12.44,9.24,18.58,14a189.51,189.51,0,0,1,22,20.54q5.85,6.27,11.42,12.81c1,1.22,2.07,2.44,3.08,3.68l.4.5c.27.34,0-.07.06.08s-.15-.37.05.08c.13.29.24.59.4.87a3.11,3.11,0,0,0,5,.92c1.92-1.56,3.17-4,4.27-6.2,3.65-7.2,6.29-14.95,8.84-22.59q2.88-8.62,5.41-17.37a8.4,8.4,0,0,0,.11-3.28l-1-11.52c-.65-7.51-1.53-15-1.53-22.54q0-28,0-56.09c0-17.68-.34-35.5-4.77-52.72a115,115,0,0,0-19.75-41.37,92.42,92.42,0,0,0-35.52-28.35c-13.81-6.14-29.23-8.75-44.23-6.36a70.83,70.83,0,0,0-36.69,17.88,62.47,62.47,0,0,0-12.6,16.22c-3.85,7.21-6,15.15-7.48,23.15a531.2,531.2,0,0,0-6.84,54.8q-1.08,13.41-1.58,26.86C200.8,216.25,203.58,216.25,203.64,214.47Z"/><path class="cls-13" d="M211.94,192.21l20.55,20S214.66,209.35,211.94,192.21Z"/><path class="cls-13" d="M214.78,177l20.54,20S217.49,194.18,214.78,177Z"/><path class="cls-13" d="M217.45,161.17l20.54,20S220.16,178.31,217.45,161.17Z"/><path class="cls-14" d="M381.87,457.82c-.58-5-1.41-10.09-4-14.4L356.41,459c-12.71,9.18-25.57,18.46-40.1,24.35-10.76,4.37-22.65,6.75-34.12,5.58,5.79,9.38,10.63,15.67,10.63,15.67s32.74,7.56,60.12,11.05c10.15,1.29,20-3.1,28.46-9.15A195.49,195.49,0,0,0,381.87,457.82Z"/><path class="cls-15" d="M261.41,343.87a175,175,0,0,1,32.21,16,228.47,228.47,0,0,1,.61-47.42c.24-2.11.67-4.46,2.41-5.67,1.41-1,3.28-.9,5-.71,23.74,2.63,44.9,21.18,50.62,44.37a272.63,272.63,0,0,1,24.37-60.61c1.41-2.56,3.1-5.3,5.88-6.2,3.9-1.27,7.82,1.67,10.4,4.93-5.38-13.06-11.93-23.19-18.94-29l-21.82,88.77s-7.9-47.75-47.71-65.19-92.82-58.14-92.82-58.14-11.51-2.91-6.86,19.18,22.67,58.14,33.72,91.86c1,3,2,6,3,9a14.21,14.21,0,0,1,6.13-3.21C252.17,340.72,257,342.22,261.41,343.87Z"/><path class="cls-14" d="M406.48,355.73c-1-25.62-6.18-49.19-13.59-67.2-2.58-3.26-6.5-6.2-10.4-4.93-2.78.9-4.47,3.64-5.88,6.2a272.63,272.63,0,0,0-24.37,60.61c-5.72-23.19-26.88-41.74-50.62-44.37-1.7-.19-3.57-.27-5,.71-1.74,1.21-2.17,3.56-2.41,5.67a228.47,228.47,0,0,0-.61,47.42,175,175,0,0,0-32.21-16c-4.44-1.65-9.24-3.15-13.86-2.09a14.21,14.21,0,0,0-6.13,3.21c10.34,31.48,21.46,66.16,21.46,92.13,0,8.42,2.61,17.75,6.3,26.72,15-6.36,28.26-16.5,40.41-27.44,14.51-13.07,27.83-27.5,43.17-39.58,9.12-7.18,19.93-13.77,31.49-12.75,9.25.81,17.34,6.56,22.86,14.16C407.12,382.9,407,367.91,406.48,355.73Z"/><path class="cls-15" d="M384.25,384.07c-11.56-1-22.37,5.57-31.49,12.75-15.34,12.08-28.66,26.51-43.17,39.58-12.15,10.94-25.45,21.08-40.41,27.44a177.43,177.43,0,0,0,13,25.05c11.47,1.17,23.36-1.21,34.12-5.58,14.53-5.89,27.39-15.17,40.1-24.35l21.49-15.54c2.56,4.31,3.39,9.42,4,14.4a195.49,195.49,0,0,1-.47,48.64c14.31-10.27,24.41-25.28,24.41-25.28s1.27-42.65,1.3-82.95C401.59,390.63,393.5,384.88,384.25,384.07Z"/><path class="cls-16" d="M211.6,224.92s-11.51-2.91-6.86,19.18,22.67,58.14,33.72,91.86,24.42,72.68,24.42,101.16,29.94,67.44,29.94,67.44,41.18,13.21,67.1,11.08c27.51-2.26,45.89-34.46,45.89-34.46s2.41-81.27.67-125.45-15.85-82.3-32.53-96.25l-21.82,88.77s-7.9-47.75-47.71-65.19S211.6,224.92,211.6,224.92Z"/><path d="M353.72,355q3.25,31.28,4.74,62.7,1.46,31.2,1.07,62.44-.21,17.76-1,35.5c-.07,1.79,2.7,1.78,2.78,0q1.37-31.41,1-62.87-.44-31.23-2.68-62.38-1.28-17.72-3.12-35.39c-.18-1.75-3-1.77-2.77,0Z"/><path class="cls-5" d="M192.57,274.68c.2.34.39.68.6,1,4.27,6.89,8,14.9,13.12,21.23,4.17,5.2,9.74,8.69,13.72,14,7.32,1.71,30.18,7.44,43.24,15.17C250.19,318.4,227.33,312.67,220,311c16,21.48,16.55,54.61,31,77.13,2.73,4.25,19.39-2,21.24,2.67,2.19,5.56,3.5,12.18,8.59,15.31-.72-10.21,13.42-25.34,9-34.55-3.61-7.45-9.24-18.28-13.65-25.29s-2.57,3-1.38-5.24c.09-.66-1.72,8.4-1.21,8s3.62-8,4.32-8c2.7.18-10.57-3.42-7.86-3.46s5.21-8.37,5.34-11.08c.11-2.36-6-16.22-7.91-17.61-9.86-7.17-19.13-22.46-30.47-26.93-5.49-2.17-6.39-12.55-10.88-16.39-4.77-4.09-5.76,2.91-8.45-2.77-4.51-9.53,3.47-.95-1-10.49-3.2-6.75-17.46-16.49-18.2-23.93-.57-5.66-6.72-11.52-3.5-16.08-4.85,2.64-12.82,8.82-14.24,16.79a34.16,34.16,0,0,0-.43,3.5A103,103,0,0,0,184.17,256c.39,1.22.81,2.43,1.25,3.64A125.24,125.24,0,0,0,192.57,274.68Z"/><path class="cls-17" d="M192.57,274.5a125.33,125.33,0,0,1-7.15-15.05A86,86,0,0,0,192.57,274.5Z"/><path class="cls-6" d="M185.42,259.45c-.84-1.19-3.83-11.72-5.27-11.93-2-.3-7.09-4.31-8.23-2.68-9.29,13.36-29.39,20.82-28.49,37.07.31,5.59-3.18,21.62-1.38,26.93,5.8,17.19,4.82,44.41,18.79,56,8.87,7.35,25.52,46.13,35.41,52s22.12-2.17,26.91,8.31c5.07,11.11,21.94,8,26.89,19.17,7,15.8,24,24.33,40.12,30.61,3.65,1.42,7.36,2.83,11,4.31-3.24-40.76-10.44-111.8-16.16-134.7-6.69-26.74-28.78-57-38.45-75s-29.87-28.49-38-37.23-6.73-22.08-6.73-22.08a30.92,30.92,0,0,0-9.79,3.37c-3.22,4.56-4.38,10.65-3.82,16.31.75,7.43,4,14.36,7.19,21.12q6.77,14.29,13.54,28.6c2.69,5.68,5.51,11.54,10.28,15.63,4.49,3.85,10.25,5.76,15.75,7.93a144.32,144.32,0,0,1,32,17.56c1.91,1.39,4,3.21,3.86,5.57-.13,2.71-3.18,4.39-5.89,4.43s-5.33-1-8-1.16a2.72,2.72,0,0,0-2,.45,2.81,2.81,0,0,0-.76,1.82c-1.19,8.19,2.25,16.37,6.66,23.38s9.87,13.38,13.47,20.83c4.46,9.21,5.86,19.59,6.58,29.79-5.09-3.13-6.4-9.75-8.59-15.31a77.38,77.38,0,0,0-7.33-13.23c-14.47-22.53-29-45.08-44.93-66.56-1.49-.35-2.34-.53-2.34-.53-11-13.2-19.24-25.13-25.1-35.75a86,86,0,0,1-7.15-15.05c-.28-.71-.56-1.42-.81-2.12"/><path class="cls-17" d="M184.17,255.82c.15.5.29,1,.44,1.51.25.7.53,1.41.81,2.12C185,258.25,184.56,257,184.17,255.82Z"/><path class="cls-18" d="M184.61,257.33a102.79,102.79,0,0,1-4.35-25C179.75,239.11,181,247.44,184.61,257.33Z"/><path class="cls-5" d="M250.05,444.33c-5-11.16-4-24.28-9.08-35.39-4.78-10.47-14.38-17.93-24.27-23.83S196.18,374.37,187.31,367c-14-11.57-22.47-28.48-28.28-45.67-1.79-5.32-3.38-10.76-3.69-16.36-.9-16.25,8.8-31,18.08-44.32,1.14-1.64,2.71-3.47,4.69-3.18,1.44.21,2.43,1.51,3.27,2.71l10.91,15.58a99.94,99.94,0,0,1-7.68-18.45c-3.63-9.89-4.86-18.22-4.35-25h0c-25.11,22-47.82,49.42-50.14,67.45s26.74,72.09,38.95,117.44S188,535.59,188,535.59c55,51.75,117.38,27.91,117.38,27.91s-.85-33.48-2.89-66.62c-.3-4.77-.73-10.77-1.27-17.63-3.68-1.48-7.39-2.89-11-4.31C274.08,468.66,257.05,460.13,250.05,444.33Z"/><path class="cls-7" d="M180.26,232.33c-25.11,22-47.83,49.43-50.15,67.46s26.74,72.09,38.95,117.44S188,535.59,188,535.59c55,51.75,117.38,27.91,117.38,27.91s-.85-33.48-2.89-66.62S291.73,371.3,285.05,344.55s-28.78-57-38.45-75-29.87-28.49-38-37.23-6.73-22.08-6.73-22.08-18.27,2.33-21.18,18.61,5.37,43.6,37,81.39c0,0,29.88,6.4,45.58,15.7"/><path class="cls-10" d="M244,318.32l1.77,32.84.88,16.41c.29,5.3.43,10.63.88,15.92a15.75,15.75,0,0,0,1.86,6.75,32.28,32.28,0,0,0,4.48,5.42q4.88,5.26,9.44,10.81a250.39,250.39,0,0,1,17.22,23.58,254.43,254.43,0,0,1,15.88,28.51c.77,1.61,3.16.21,2.4-1.4a255.54,255.54,0,0,0-30.21-48.53q-4.46-5.64-9.21-11c-1.56-1.76-3.15-3.49-4.75-5.21a14.6,14.6,0,0,1-3.87-6,36.38,36.38,0,0,1-.73-7.36l-.44-8.21-.87-16.17-2-36.32c-.1-1.78-2.87-1.79-2.78,0Z"/><path class="cls-6" d="M423.45,408.36c-4.46-.63-18.58,2.57-21.44,6.06-1.87,2.27-7.77,7.41-7.94,10.35-1.07,18.56,4.27,40.6,5.74,59.13.8,10.09,1.77,50.09,2.57,60.19,6.46-1.27,19.32-3.68,24.91-7.16-2.39-16.39-.1-59.39,1.07-75.91.9-12.81,1.11-25.64.95-38.48C426.15,421.66,426.7,408.82,423.45,408.36Z"/><path class="cls-5" d="M401.39,320.12c.09,4.84,6.33,23.12,7.92,27.69,3.52,10.19,13.64-.46,17.34,9.66-1-18.24-2.57-36.45-6-54.38-.91-4.75-6.23-23.74-7.45-28.44-1,4-5.07,11.78-6.07,15.79S401.32,316.06,401.39,320.12Z"/><path class="cls-5" d="M404.75,431.76c.17-2.93.48-6.06,2.35-8.33,2.86-3.48,8.12-3.55,12.58-2.91a75.21,75.21,0,0,1,9.63,2c-.2-15.92-1-31.85-1.76-47.76-.29-5.76-.57-11.54-.9-17.31Q421.1,342.29,415.81,327c-1.59-4.57-3.17-9.24-3.26-14.08-.07-4.05.91-8,1.89-12l3-12.05c-4.83-18.62-12.18-36.61-23.23-52.3-.86-1.22-1.94-2.54-3.43-2.63-2.09-.14-3.42,2.14-4.24,4.08q-4,9.57-8,19.15c-2.9,6.91-1.91,8.38.69,15.27a153.13,153.13,0,0,1,8.31,35.59c2.95,24.31,1.71,48.86,2,73.28.26,23.9,2,47.75,3.81,71.58,0,11.49,1.73,23.25,2.58,34.71.68,9.08,4.74,49.6-.38,57.39a53.86,53.86,0,0,0,13.53-.93c-.8-10.1-1.6-46.54-2.4-56.63C405.14,468.93,403.68,450.32,404.75,431.76Z"/><path class="cls-10" d="M391.89,452.92c0,10,1.28,20,2.19,29.95.42,4.64.77,9.29,1.14,13.94.91,11.44,1.76,23,1.33,34.46a63.52,63.52,0,0,1-.7,8,13.56,13.56,0,0,1-1.56,5,1.4,1.4,0,0,0,1.19,2.09A56.52,56.52,0,0,0,428,538.13a1.46,1.46,0,0,0,.64-1.57,123.72,123.72,0,0,1-.95-15.51c-.12-6.77,0-13.54.15-20.31q.48-18.6,1.74-37.16c1.25-18.92,1.38-37.81.76-56.76-.65-20-1.56-40-3-59.88-2.58-36.63-8.53-74.52-28.63-106.06-1.15-1.81-2.32-3.63-3.6-5.35-1-1.36-2.22-2.66-4-2.9-4.08-.56-5.66,4.38-6.89,7.3q-2.83,6.76-5.68,13.52c-1.47,3.5-3.52,7.3-3.2,11.22.29,3.59,2.08,7,3.27,10.35A135.6,135.6,0,0,1,382.74,289a189.77,189.77,0,0,1,4.34,28.84c1.58,19.92.87,39.92,1,59.88.1,20.17,1.3,40.32,2.74,60.44q.52,7.41,1.09,14.8c.13,1.77,2.91,1.78,2.77,0-1.46-19.72-2.93-39.45-3.54-59.22-.6-19.61.12-39.22-.4-58.82-.5-18.91-2.22-38.06-7.92-56.18-1.26-4-3.05-7.91-4.22-12-1-3.48.15-6.51,1.49-9.73,1.88-4.51,3.79-9,5.68-13.52a52.85,52.85,0,0,1,2.76-6.31,3.86,3.86,0,0,1,1.46-1.66c1.19-.56,2.11.56,2.77,1.41a91.91,91.91,0,0,1,7,10.95c2.16,3.78,4.14,7.67,6,11.63a174.14,174.14,0,0,1,9.06,24.79c5.16,18.05,7.74,36.71,9.29,55.39,1.61,19.45,2.42,39,3.2,58.5.8,19.7,1.16,39.45,0,59.14-.72,11.9-1.49,23.79-1.92,35.71-.44,12.53-.85,25.17,0,37.7.15,2.2.36,4.38.67,6.56l.64-1.57a53.89,53.89,0,0,1-31.11,7.91l1.2,2.08c2-3.18,2.22-7.65,2.48-11.29a166.31,166.31,0,0,0,.08-17.44c-.38-10.1-1.27-20.17-2.06-30.25-.88-11.27-2.49-22.5-2.52-33.82A1.39,1.39,0,0,0,391.89,452.92Z"/><path class="cls-10" d="M384.71,241.22a244.32,244.32,0,0,1,14.13,26.42,129.6,129.6,0,0,1,5.76,13.72c.78,2.38-.75,4.33-2,6.24s-2.49,3.59-3.75,5.38c-2.84,4-5.54,8.14-6.85,12.92a1.39,1.39,0,0,0,2.68.74c1.21-4.41,3.72-8.23,6.33-11.93,1.3-1.84,2.63-3.66,3.87-5.53s2.77-4,2.8-6.33-1.36-4.78-2.22-6.9c-1-2.33-1.94-4.65-3-7q-3.11-7-6.65-13.82-4.08-7.83-8.72-15.36c-.94-1.51-3.34-.12-2.4,1.41Z"/><path class="cls-10" d="M396.91,297.1l14.86,56.26,1.86,7a51.41,51.41,0,0,1,1.58,6.95c.53,4.65-1.3,9-2.81,13.3l-9.57,27.3L391.93,439c-.6,1.68,2.08,2.41,2.67.73l19.49-55.53c1.55-4.41,3.57-8.93,4-13.64.37-4.51-1.24-9-2.38-13.33l-7.59-28.73-8.49-32.1a1.38,1.38,0,0,0-2.67.73Z"/><path class="cls-14" d="M204.9,213s1.61,5.81,16.34,17.83,59.21,37,71.71,43c23,11.05,55.16,35.92,60.2,69.64,0,0,5.19-34,8.79-49.36,3.33-14.22,11.76-32.68,8.78-49.35,0,0,7.88,3.1,12.92,13.18s3.4,29.45,3.4,29.45-4-21.64-12.31-16.27-20.35,85.65-20.35,85.65-9.5-50-51.36-72.09c0,0-10.07.78-11.24,17.44,0,0-31-16.28-51.93-36S198.25,226.92,204.9,213Z"/><path class="cls-16" d="M204.9,213s1.61,5.81,16.34,17.83,59.21,37,71.71,43c23,11.05,55.16,35.92,60.2,69.64,0,0,5.19-34,8.79-49.36,3.33-14.22,11.76-32.68,8.78-49.35,0,0,7.88,3.1,12.92,13.18s3.4,29.45,3.4,29.45-4-21.64-12.31-16.27-20.35,85.65-20.35,85.65-9.5-50-51.36-72.09c0,0-10.07.78-11.24,17.44,0,0-31-16.28-51.93-36S198.25,226.92,204.9,213Z"/><path class="cls-6" d="M438,401.22c8.16,1.81,23.06,3.2,31.26,1.59,7.59-1.49,7.16-21.51,8.89-28.9-.3-2.2-.57-4.45-.77-6.71C475.65,347.28,427.9,341,427.9,341c-41.08-21.19-53.27-9.18-53.27-9.18,7.59-5.18,6.39,11.32,2.89,23.51-.88,3.07-6.82,17.91-8.17,21.08,5.32,3.43,13.73,6,19.58,8.41C403.58,390.78,422.54,397.81,438,401.22Z"/><path class="cls-5" d="M478.14,373.91c-1.73,7.39-9.1,12.77-16.69,14.26-8.2,1.61-16.64-.29-24.79-2.09-15.45-3.42-31.07-6.57-45.72-12.55a101.71,101.71,0,0,1-16.88-8.71,176.73,176.73,0,0,1-9.09,18s39.68,8.42,51.39,14,36,13.37,53,11.06C484.5,405.9,480.45,391.12,478.14,373.91Z"/><path class="cls-7" d="M476,362.44c1.09,4.92.56,3,1.14,8.79.07.64.14,1.27.2,1.89"/><path class="cls-7" d="M477.37,373.12c2.4,21.66,6.81,33.79-12.41,35.49-19.76,1.74-36-9.3-57-14s-43-11.81-43-11.81,30.23-56,8.72-49.4c0,0,3.49-12.39,35.46,0s50.58,28.63,50.58,28.63"/><path class="cls-10" d="M429.16,342.33a97.29,97.29,0,0,1,26.28,7.81c1.61.75,3-1.64,1.4-2.39a99.58,99.58,0,0,0-26.95-8.09c-1.74-.27-2.5,2.41-.73,2.67Z"/><path class="cls-3" d="M416.13,343c8-2.09,12-4.21,20.09-3-.55-2.67-2.63-12.86-3.89-15.29-3.46-6.67-10.09-11.39-17.32-13.44s-15-1.59-22.28.31a58.64,58.64,0,0,0-33.24,23.36l.53-.38c4.29,5.53,15.83,18.31,20.7,23.34,1.46-.74,9.56-2.12,11-2.9C402,349.35,404.75,345.93,416.13,343Z"/><path class="cls-19" d="M410.34,334c-11.38,3-21.94,8.4-32.25,14.06-1.42.78-2.86,1.57-4.32,2.31a191.17,191.17,0,0,0,14.42,13.46c2,1.71,4.36,3.46,7,3.32s4.74-2.09,6.69-3.85a95.5,95.5,0,0,1,34.33-19.93,82.5,82.5,0,0,0-1.27-11A61.49,61.49,0,0,0,410.34,334Z"/><path class="cls-13" d="M360.69,335.64a57.36,57.36,0,0,1,30.15-22.08c12.81-3.92,28.41-3.17,37.6,7.79,5.17,6.17,5.86,14.36,6.39,22.06l1-1.34a98,98,0,0,0-31.73,17.5c-2.18,1.81-4.2,4.14-6.69,5.52-2.94,1.62-5.64,0-7.95-1.95a176.75,176.75,0,0,1-14.07-13A193.71,193.71,0,0,1,361,333.58c-1.1-1.4-3.05.57-2,2a193.28,193.28,0,0,0,27.82,29c2.2,1.85,4.58,3.78,7.56,4s5.56-1.67,7.71-3.59a103.2,103.2,0,0,1,15.11-11.35,94.6,94.6,0,0,1,19.35-8.88,1.42,1.42,0,0,0,1-1.34c-.51-7.37-1.13-15.15-5.32-21.5a29.79,29.79,0,0,0-15.48-11.53c-14-4.71-30.24-.11-42.19,7.83a60.6,60.6,0,0,0-16.33,16c-1,1.47,1.39,2.86,2.4,1.4Z"/><path class="cls-6" d="M130,320.91c-.53,13.53,5.56,32.38,12.66,43.92,3.56,5.77,14.1,16.72,19.39,21,4.22,3.39,14.92,26.56,20,28.49,14.14,5.39-1.72-17.25,13.25-15-8.15,3.54,31.78,40.42,23,39.36,14.29,10.25,27,14.45,42.53,22.75,9.11,4.89,18.85,7.68,28.91,10.09,1.26.3,12.78-3.38,14-3.76s5.46-4.89,6.53-5.73c11.54-9.1,11.75-6.26,23.54-15,5.5-4.1,13.44-10.44,16.81-16.42,4.09-7.23,4-14.67,11.67-17.82,5.34-2.19,7.71-8.08,12.07-11.85,5.62-4.86,12.91-18.13,13.65-25.52,1.48-14.75-4.43-35-14.34-41.08a38.77,38.77,0,0,0-17.17-3.63s-51.27,59.94-71.95,74.06c0,0-4.61-4.1-8.09.16,0,0,.16-15.11-15.71-35.07s-34.63-52-39.3-57.42S199.31,290,187.53,286.28c-4.3-1.34-12.27-4.12-21.37-4.82-6,8.69-20.09,7.32-24.51,16.9C138.47,305.25,130.28,313.32,130,320.91Z"/><path class="cls-5" d="M373.6,334.23c5.86,13.5,7,28.92,5.56,43.66-.74,7.4-2.44,15.33-8.06,20.19-4.36,3.77-10.29,5-15.62,7.17a37.71,37.71,0,0,0-18.62,15.88c-3.37,6-5.1,13.3-10.61,17.4-11.79,8.77-31-3.74-42.55,5.36a10.79,10.79,0,0,1-3.35,2.25,7.35,7.35,0,0,1-3.83-.18c-10.06-2.41-19.3-7.35-28.42-12.23-15.5-8.31-31-16.65-45.33-26.9A50.62,50.62,0,0,0,228.86,403,209.68,209.68,0,0,1,185,391.57c-5.06-1.93-10.12-4.09-14.34-7.48-5.29-4.24-8.95-10.14-12.51-15.91-7.1-11.53-14.46-24-13.92-37.5.3-7.59,3.1-14.86,6.28-21.75a187.59,187.59,0,0,1,15.64-27.47c-15.82-1.2-35,3.91-44.33,33.89-7.29,23.56,5.46,55,18.32,72,20.82,27.65,41,45.65,96.4,73.21s62.47,32.08,81.65,12,64.53-76.42,77.25-99l6.33-8.67S392.67,343.06,373.6,334.23Z"/><path class="cls-7" d="M283.62,405.22c15.7-9.88,72.81-74.62,72.81-74.62,31.4-.58,45.35,34.3,45.35,34.3s-22.68,30.82-33.72,47.68-37.21,50.58-57.56,66.67S246,465.48,222.71,452.69s-62.79-36.63-82.56-65.29S113.82,332,125,306.27c8.14-18.69,29.07-31.68,58.72-21.4s44.18,34.68,62.21,64.34S275,385.83,276.2,405.6l1.16,19.77"/><path class="cls-10" d="M277.59,406.93a9.12,9.12,0,0,1,1.49-2.63c.51-.54,1.46-1.11,2.18-.62s.91,1.59,1.15,2.31c.4,1.17.79,2.34,1.18,3.52l4.72,14.1c.56,1.68,3.25,1,2.68-.74q-3-8.82-5.9-17.62c-.73-2.16-1.82-4.57-4.5-4.52s-4.38,2.5-5.4,4.8c-.72,1.62,1.67,3,2.4,1.4Z"/><path class="cls-20" d="M271.08,407.28a20.52,20.52,0,0,0,.26-2.85S271.19,405.59,271.08,407.28Z"/><path class="cls-19" d="M280.06,355.87c-1.7-4.15-15.19,8.39-20,14.89-4,5.38-9.68,12.07-9.68,17.44,1,.53,3.07-.39,7.6-3.94a57.59,57.59,0,0,1,7.3-10.85C270.24,367.58,276.41,362.62,280.06,355.87Z"/><path class="cls-3" d="M305.74,388.34c6.09-10.89,15-22.77,22.85-32.47,4.28-5.29,10.83-11.12,13.06-17.55-15.59-1.62-48.55-3.6-58,5.25-14.05,13.1-35.27,32-34.35,37.61.49,3-.22,6.31,1.09,7q6.19-7.9,12.19-16c4.83-6.5,10-13.4,17.51-16.34-3.65,6.75-9.82,11.71-14.8,17.54a57.59,57.59,0,0,0-7.3,10.85c.9-.71,1.89-1.52,3-2.45a85.37,85.37,0,0,0-2.33,23c.34,5.88.52,9.74,1.41,11.72.34-.82,5,1.48,5.27.65,1.32-4.58,1.81-9.1,2.75-13.77,3.09-15.33,9.51-31,20.22-42.41-1.7,6.82-8.46,11-12.16,17-3.51,5.66-4.08,12.61-4.29,19.27q-.3,9.35.11,18.7c0,.5,0,1,.07,1.51.9,2.32,2.52,3.73,5.37,2.74a5.82,5.82,0,0,0,1.25-.62c.28-1.79,4.11-6.88,4.07-8.67-.12-4.81,2-7.69,2.57-12.47.79-6.53,1.86-10.63,5.34-16.22,3-4.78,4.87-9.43,8.11-14,2.29-3.26.94-4.92,4.71-3.66-1.66,2.55-1.94,2.35-3.69,4.84a59.54,59.54,0,0,0-10.46,29.38c.85,5.21,2.49,12.48,5.3,16-.1-.94,5,1.64,4.93.72C298.57,405.54,300.87,397.05,305.74,388.34Z"/><path class="cls-19" d="M346.94,339.06s-5.2-.9-12.7-1.68a59.05,59.05,0,0,1-9.85,17.76c-7.85,9.7-18.78,16.93-24.88,27.82-4.87,8.7-6.17,19.07-5.22,29,.09.92.19,1.85.29,2.79,1.68,2.08,3.76,2.85,6.35,1.07,9.83-6.73-5.93-13.17,6.86-30.57s15.74-21.81,23.46-29.26S349,341.91,346.94,339.06Z"/><path class="cls-19" d="M271.83,397.26c.21-6.66.78-13.61,4.29-19.27,3.7-6,10.46-10.18,12.16-17-10.71,11.4-21.87,23.64-25,39-.94,4.67-1.1,9.5-2.41,14.08a23.59,23.59,0,0,1-.87,2.48c.86,1.87,2.36,2.06,5.27.65,3.92-1.9,5.29-6.75,5.77-9.89.11-1.69.26-2.85.26-2.85a20.52,20.52,0,0,1-.26,2.85c-.17,2.86-.2,7.25.93,10.19,0-.51-.05-1-.07-1.51Q271.52,406.62,271.83,397.26Z"/><path class="cls-19" d="M305.09,362c-3.78-1.26-7.28,2.37-9.56,5.63q-4.86,6.92-9.33,14.1c-3.48,5.59-6.85,11.5-7.64,18-.58,4.78.27,9.6.39,14.42a30.82,30.82,0,0,1-.32,5.42c7.57-4.78,9.86-26.83,9.86-26.83s.23,2.55.79,6a59.54,59.54,0,0,1,10.46-29.38C301.49,366.88,303.43,364.53,305.09,362Z"/><path class="cls-13" d="M346.94,337.68c-10-.51-19.92-1.18-29.89-1.67-10.26-.51-20.74.1-30.27,4.32a29.84,29.84,0,0,0-5.95,3.49,46.12,46.12,0,0,0-4.67,4.39c-3.22,3.25-6.52,6.41-9.75,9.66-6.4,6.43-13.16,13.35-17,21.68a27.87,27.87,0,0,0-1.26,3.12,4.2,4.2,0,0,0,.13,2.86c.63,1.87,1.23,3.68,3.51,3.82a9.28,9.28,0,0,0,5.62-2,16.63,16.63,0,0,0,4.77-4.83,1.39,1.39,0,0,0-2.4-1.4,13.35,13.35,0,0,1-3.77,3.83,9.88,9.88,0,0,1-1.88,1.11c-.54.23-1.76.8-2.36.52-.38-.17-.45-.79-.6-1.19a2.77,2.77,0,0,1-.3-2.12,30.06,30.06,0,0,1,2.3-4.95c4.24-7.48,10.45-13.75,16.51-19.77,2.94-2.92,5.93-5.79,8.84-8.75a35.18,35.18,0,0,1,4.34-4,29.09,29.09,0,0,1,5.52-3.11c8.69-3.77,18.38-4.36,27.71-3.92,10.3.49,20.58,1.2,30.87,1.72,1.79.09,1.78-2.68,0-2.77Z"/><path class="cls-13" d="M279.13,356.49c-3.75,4.73-8,9-11.94,13.61a60.88,60.88,0,0,0-5.69,7.5,23.53,23.53,0,0,0-3.16,10c-.86,7.91-1.15,16-1.34,23.93-.07,2.78.33,5.89,3.19,7.16a7.1,7.1,0,0,0,7.16-1.19c2-1.63,2.87-4.4,3.58-6.82a43,43,0,0,0,1.65-8.18c.16-1.78-2.62-1.77-2.78,0a37.93,37.93,0,0,1-1.18,6.15,19.09,19.09,0,0,1-2.19,5.81c-1,1.5-3.35,2.51-5.1,1.72a3.16,3.16,0,0,1-1.55-2.93c-.1-1.63,0-3.3.1-4.93.25-6.9.49-13.86,1.23-20.72a20.5,20.5,0,0,1,3.14-9.16,63.29,63.29,0,0,1,5.13-6.65c3.86-4.48,8-8.7,11.71-13.33,1.1-1.39-.85-3.37-2-2Z"/><path class="cls-13" d="M287.48,360.33c-3.28,6.2-8.9,10.74-12.06,17.05-3,6-4.34,12.61-5,19.24-.34,3.46-.48,6.94-.56,10.42s-.55,7.22.82,10.41c1.16,2.68,3.76,4.67,6.77,4.15,3.37-.59,5.35-3.55,6.47-6.54a117.53,117.53,0,0,0,3.64-12.63c1.08-4.35,2-8.73,2.79-13.14.31-1.75-2.36-2.5-2.68-.74a198.87,198.87,0,0,1-4.92,21c-.83,2.82-1.49,6.67-4,8.52-2.68,2-5.21-.08-5.89-2.87-.72-3-.27-6.39-.18-9.42s.23-6.26.54-9.38a50.46,50.46,0,0,1,4.58-17.62c3.17-6.31,8.78-10.86,12.07-17.06.83-1.58-1.56-3-2.4-1.4Z"/><path class="cls-13" d="M304.73,360.43,294.49,376c-3,4.52-6,9.28-7.06,14.66-1.13,5.6.12,11.21,2.2,16.43,1,2.58,2.19,5.13,3.44,7.61,1,2,2.59,3.93,5.1,3.81,5.15-.25,7.1-6.65,7.24-10.85.2-5.69-1.82-11.18.65-16.64a49.66,49.66,0,0,1,4.25-7.11c1.49-2.24,3-4.45,4.63-6.63q4.94-6.74,10.47-13,6.07-6.9,12.79-13.18,3.44-3.21,7-6.24c1.83-1.55,4.59-3.89,2.92-6.53-1-1.5-3.36-.11-2.4,1.4.5.78-.94,1.87-1.48,2.32-1,.85-2,1.69-3,2.55q-2.89,2.52-5.67,5.14-5.49,5.18-10.55,10.78a190.7,190.7,0,0,0-18.34,23.82c-2.84,4.36-5,8.71-4.75,14,.2,4.66,1.8,10-.46,14.38-.81,1.58-3.11,4.2-4.9,2.34a10.24,10.24,0,0,1-1.58-2.74q-.91-1.87-1.77-3.78c-2.14-4.81-3.92-10.05-3.41-15.39.53-5.7,3.75-10.75,6.81-15.43q5.22-8,10.47-16c1-1.5-1.42-2.89-2.39-1.4Z"/><path class="cls-13" d="M312.9,357l4.27-4.26a1.39,1.39,0,0,0-2-2L310.94,355a1.39,1.39,0,1,0,2,2Z"/><path class="cls-13" d="M292.8,355.18l6.62-5a1.56,1.56,0,0,0,.64-.83,1.43,1.43,0,0,0-.14-1.07,1.4,1.4,0,0,0-1.9-.5l-6.62,5a1.56,1.56,0,0,0-.64.83,1.43,1.43,0,0,0,.14,1.07,1.41,1.41,0,0,0,1.9.5Z"/><path class="cls-21" d="M262.79,110.56c1.49-7.1,7.51-17.81,10.81-24.27,3.52-6.89-20.33-20.6-14.69-25.77-10.14,5-36.42,20.85-45.34,55.49-2.31,9,6.81,17.67,20.27,30.07a70,70,0,0,1,10,10.88c-1.36-6.3,15.77-3.91,14.42-10.21C255.61,134.15,260.14,123.17,262.79,110.56Z"/><path class="cls-22" d="M307.85,89s1.32-8.45,17.69-3.7,126.7,42.24,126.7,42.24"/><path class="cls-23" d="M452.24,132.55s-20.27-6.18-19-11.43,20.66,1.74,20.66,1.74Z"/><path class="cls-24" d="M449.35,118c2.79,1.29,6.38,8.49,3.56,18.35-3.69,12.9-8.38,17.33-14.85,17.54-5.92.2-10.1-4.46-13.18-11.92-3.78-9.12-6.22-20,5.94-23C441.91,116.27,445.67,116.27,449.35,118Z"/><path class="cls-22" d="M449.35,118c2.79,1.29,6.38,8.49,3.56,18.35-3.69,12.9-8.38,17.33-14.85,17.54-5.92.2-10.1-4.46-13.18-11.92-3.78-9.12-6.22-20,5.94-23C441.91,116.27,445.67,116.27,449.35,118Z"/><path class="cls-25" d="M354.05,232.94c-24.58-2.84-39.05-18.25-57.9-34.28-14.46-12.29-30.39-41.18-36.53-59.09-1.64,6.58-5.52,39.22-5.17,46,5.26,14,14.75,33.58,30.41,44.23,22.09,15,36.09,29.55,74.63,27.83,23.45-1.05,28.27-9.67,28.84-18.4C380.05,236.37,364.85,234.2,354.05,232.94Z"/><path class="cls-11" d="M360.78,207.41a115.39,115.39,0,0,1-47.2-11.58c-7.32-3.57-14.33-8-20-13.83a40.25,40.25,0,0,1-11.12-21.55c8.27,16.05,22.87,26.31,38.91,32.14,8,2.91,16.25,6.3,24.67,7.65s23.44.63,31.89-.27c27.94-2.95,51.89-15.37,69.7-37-.36-.7-.83-9.36-1.43-10a41,41,0,0,0-3-2.88c-18.19.13-39.41,6-61.7,8-32.48,2.91-54.56-1-84.66-13.52-4.65-2-13.72-8.7-18.75-9.18s-23.64-11.53-27.16-7.92c-2.63,2.69,6.45,34,5.52,37.68l-.06.29a106.93,106.93,0,0,0,31.88,46.37c18.85,16,42.82,25.59,67.4,28.44a106.53,106.53,0,0,0,32.67-1c.38-5.61-1-11.27-.31-15,1.5-8,3.11-15,6.12-19.28l-2.45.32C381.43,206.58,371.11,207.69,360.78,207.41Z"/><path class="cls-25" d="M395.92,202.92c4.22-3.78,17.17-2.06,33.79-18,15-14.35,21.31-23.47,17.93-30-17.81,21.65-44.1,36.44-72.05,39.39a96.88,96.88,0,0,1-25.4-.56A135.12,135.12,0,0,1,325.58,187c-16.05-5.83-32.11-13.47-43.11-26.52A40.25,40.25,0,0,0,293.59,182c5.66,5.86,12.67,10.26,20,13.83a115.39,115.39,0,0,0,47.2,11.58c10.33.28,20.65-.83,30.91-2.12l2.45-.32A11.51,11.51,0,0,1,395.92,202.92Z"/><path class="cls-3" d="M256.38,165.39a94.76,94.76,0,0,1-4.12-16.72,94.76,94.76,0,0,0,4.12,16.72l.06-.29c.93-3.64,2.24-7.34,4.87-10,3.52-3.61,8.95-4.82,14-4.35s9.78,2.43,14.43,4.37c30.1,12.56,61.55,25.93,94,23,22.3-2,43.48-12.4,59.46-28-9.78-8.65-34-26.44-37.47-30.41-3.88-4.5-13.07-17.4-17.31-22.08s-22.82-23.89-39.2-31.29S301.06,43.42,263,58.72c0,0-1.53.56-4,1.8-5.64,5.17-10,12-13.48,18.94a82.16,82.16,0,0,0-7.65,20.31c-2.65,12.61-.86,25.72,1.83,38.31,1.34,6.31,2.91,12.58,4.27,18.88,3.62,5.19,4.18,9,6.08,15.24.88,2.83,2.33,7.63,4.49,13.36A68.5,68.5,0,0,1,256.38,165.39Z"/><path class="cls-23" d="M306.38,194.59l2.72,9.23c.62,2.08,1.15,5.82,4.08,5.66,2.22-.12,4.43-2.12,6.11-3.39s3.81-3,6.17-3.2l-1.38-1.39a67,67,0,0,0,4,19.43,1.41,1.41,0,0,0,2.32.61l16.62-15-2.18-.29c3.18,7.15,3.1,15.24,6,22.48a1.41,1.41,0,0,0,2.54.33l10.33-19.94H361.3c3.51,7.1,7.34,14,11.14,21a1.4,1.4,0,0,0,1.9.5c1.55-1.16,2-2.82,2.64-4.56q1.18-3.19,2.57-6.31a119.18,119.18,0,0,1,6-11.74,1.39,1.39,0,0,0-2.39-1.4,117,117,0,0,0-5.66,10.89c-.81,1.8-1.59,3.61-2.31,5.45-.37.93-.73,1.87-1.08,2.81-.28.76-.51,1.95-1.2,2.46l1.9.5c-3.81-6.95-7.64-13.89-11.15-21a1.39,1.39,0,0,0-2.39,0L351,227.68l2.54.33c-3-7.47-3-15.75-6.29-23.14a1.41,1.41,0,0,0-2.18-.28l-16.62,15,2.32.61a64.33,64.33,0,0,1-3.88-18.69,1.41,1.41,0,0,0-1.39-1.39c-4.29.43-7,3.57-10.54,5.69a9.09,9.09,0,0,1-1.26.69c-.64.25-.77.14-1-.48-.48-1.25-.77-2.6-1.15-3.88l-2.44-8.27a1.39,1.39,0,0,0-2.68.73Z"/><path class="cls-4" d="M212.44,121.25C217,95.22,237,69.13,265,57.88s64.69-5.67,94.72,14.81,34.49,34.05,44.91,45.77,39.81,26.24,43.5,38.21-35,58.22-97.76,49.68S282,161.64,282,161.64"/><path class="cls-4" d="M395.92,202.92s-7.27,7.86-8,22.89,3.22,32.55-30.82,31.78-65-16.91-82.31-38.29S251.87,182,247.92,163.64"/><path class="cls-13" d="M280.76,163.44c5.58,15.89,14.42,30.73,26.47,42.57a87.22,87.22,0,0,0,45.23,23.87,75.7,75.7,0,0,0,29.39-.34c1.75-.38,1-3-.73-2.68-16.66,3.58-34.3.72-49.5-6.78-14.78-7.29-27-18.94-36-32.67a114.54,114.54,0,0,1-12.14-24.71c-.59-1.67-3.27-.95-2.68.74Z"/><path class="cls-13" d="M387.21,204.94a50.86,50.86,0,0,0-6,22.34c-.05,1.78,2.72,1.78,2.78,0a47.69,47.69,0,0,1,5.58-20.94c.84-1.57-1.55-3-2.39-1.4Z"/><path class="cls-13" d="M289.93,160.84c-1.76-.6-3.13-2-5-2.45a5.78,5.78,0,0,0-5.46,1.64,13.51,13.51,0,0,0-3.11,5.31,21.17,21.17,0,0,0-1.21,6.86,1.39,1.39,0,0,0,2.78,0,18.52,18.52,0,0,1,.95-5.67,11.1,11.1,0,0,1,2.42-4.41,3,3,0,0,1,3.43-.89c1.55.61,2.82,1.74,4.42,2.28s2.42-2.11.74-2.67Z"/><path class="cls-26" d="M294.21,129.24a22.57,22.57,0,0,0-.37,4.07c0,10.72,7.28,19.4,16.26,19.4,6.72,0,12.48-4.85,15-11.78C333.56,124.14,306.56,95,294.21,129.24Z"/><ellipse class="cls-23" cx="307.85" cy="134.96" rx="5.26" ry="7.42"/><ellipse class="cls-26" cx="310.03" cy="141.08" rx="2.18" ry="2.48"/><path class="cls-27" d="M308.94,113.32s-11.7,1.5-15.1,14.61l32.85,2.12S322.89,113.14,308.94,113.32Z"/><path class="cls-4" d="M296.15,143.27a22.1,22.1,0,0,1-2.31-10,22.42,22.42,0,0,1,1.08-6.94"/><path class="cls-4" d="M298.81,119.35a15,15,0,0,1,11.29-5.44c9,0,16.26,8.69,16.26,19.4,0,7.18-3.27,13.45-8.13,16.81"/><line class="cls-4" x1="294.68" y1="127.17" x2="326.23" y2="130.88"/><path class="cls-28" d="M361.08,135.2c-4.31,2.65-13,7.39-12.7,23.23s6.1,23.49,16.13,24.28,21.1-.72,32.47-19.8c7.66-12.84,19.26-39.26,0-36.88S366.75,131.71,361.08,135.2Z"/><path class="cls-22" d="M204,113.35s1.32-8.45,17.68-3.69,126.71,42.23,126.71,42.23"/><path class="cls-22" d="M361.08,135.2c-4.31,2.65-13,7.39-12.7,23.23s6.1,23.49,16.13,24.28,21.1-.72,32.47-19.8c7.66-12.84,19.26-39.26,0-36.88S366.75,131.71,361.08,135.2Z"/><path class="cls-23" d="M348.38,156.9s-20.28-6.18-19-11.44,20.66,1.74,20.66,1.74Z"/><path class="cls-23" d="M406.37,128.84c2.35-2.12,4.68-3.83,8-3.93a12.54,12.54,0,0,1,4.87.59,10.66,10.66,0,0,1,1,.55c.13.1.59.55.84.81,1.24,1.29,3.2-.67,2-2-2.29-2.4-5.46-2.87-8.67-2.77a12.92,12.92,0,0,0-6,1.64,23.76,23.76,0,0,0-4,3.11c-1.33,1.19.64,3.15,2,2Z"/><path class="cls-23" d="M408.51,138.9A17.57,17.57,0,0,1,422,134.23a1.39,1.39,0,0,0,1.39-1.38,1.41,1.41,0,0,0-1.39-1.39,20.31,20.31,0,0,0-15.5,5.47c-1.3,1.23.67,3.19,2,2Z"/><path class="cls-13" d="M412.41,169a8.63,8.63,0,0,0,2.34,3.32,5.33,5.33,0,0,0,3.56,1.58,2.42,2.42,0,0,0,2-1.17,2.88,2.88,0,0,0-.25-2.82,8.63,8.63,0,0,0-6.74-4.34,1.41,1.41,0,0,0-1.39,1.39,4.93,4.93,0,0,0,2.81,4.46,1.58,1.58,0,0,0,1.07.14,1.39,1.39,0,0,0,.82-.64,1.4,1.4,0,0,0-.49-1.9,3.17,3.17,0,0,1-.45-.23l-.18-.12c-.14-.09.23.21.05,0l-.36-.35s-.19-.24-.05-.06,0-.05-.06-.1a3.18,3.18,0,0,1-.23-.4c-.12-.23.1.29,0,0l-.07-.19c0-.15-.06-.31-.1-.45.1.34,0,.17,0,0a2.09,2.09,0,0,1,0-.25l-1.38,1.39.17,0c-.24,0-.25,0-.12,0l.34.07a5.71,5.71,0,0,1,.71.19l.33.11c.32.12-.25-.11.06,0s.44.21.66.33.39.24.58.38l.14.1s-.26-.21-.08-.06l.3.25c.17.15.33.31.49.48l.2.23.11.13c.19.24-.18-.26,0,0s.26.37.38.57l.17.31a.53.53,0,0,0,.08.17c-.09-.07-.08-.23,0,0,0,.06.08.26,0,.06s0-.07,0,0a.65.65,0,0,1,.1-.36c-.1.18.1-.12.11-.12l-.09.08c.13-.18.26-.18.13-.11.37-.19.26-.09.16-.07s-.2,0,.11,0a2.44,2.44,0,0,0-.27,0l-.14,0s.36.08.15,0l-.25-.06-.14-.05c-.16,0,.31.15.1,0s-.4-.21-.6-.34l-.3-.2-.14-.1.1.08-.1-.08a7.68,7.68,0,0,1-.59-.55c-.09-.1-.18-.19-.27-.3l-.12-.13c-.13-.16,0-.08,0,0-.13-.23-.31-.43-.45-.66s-.15-.26-.21-.39-.25-.55-.09-.16a1.49,1.49,0,0,0-.63-.83,1.43,1.43,0,0,0-1.07-.14,1.41,1.41,0,0,0-1,1.71Z"/><path class="cls-29" d="M292.53,106.16c2-3.73,2.62-1.59,9.82-1.31s9.94,1.29,16.17,1.9c7.09.69,8.52-.38,9.54,4.12s-3.05,7.52-18.89,5S291.46,108.18,292.53,106.16Z"/><path class="cls-22" d="M292.53,106.16c2-3.73,2.62-1.59,9.82-1.31s9.94,1.29,16.17,1.9c8.06.79,9.1,2.48,9.54,4.12,1.19,4.46-3.05,7.52-18.89,5S291.46,108.18,292.53,106.16Z"/></g></svg>