<svg xmlns="http://www.w3.org/2000/svg" xmlns:xlink="http://www.w3.org/1999/xlink" viewBox="0 0 600 600"><defs><style>.cls-1{fill:#83c4ff;}.cls-2{fill:#007fcc;}.cls-3{fill:#6fb7d6;}.cls-17,.cls-19,.cls-24,.cls-26,.cls-4,.cls-7{fill:none;}.cls-4{stroke:#1b5186;}.cls-17,.cls-26,.cls-4,.cls-7{stroke-linecap:round;stroke-linejoin:round;stroke-width:2.78px;}.cls-5{fill:#302a2a;}.cls-6{fill:#514545;}.cls-7{stroke:#030304;}.cls-8{fill:#191717;}.cls-9{fill:#302929;}.cls-10{fill:#030304;}.cls-11{fill:#f1f3f3;}.cls-12{fill:#dedbe1;}.cls-13{fill:#1b5186;}.cls-14{fill:#fff;}.cls-15{fill:#d7dfe8;}.cls-16{fill:#fffffe;}.cls-17{stroke:#b5bbc0;}.cls-18{fill:#b5bbc0;}.cls-20{fill:#514546;}.cls-21{fill:#312929;}.cls-22{fill:#302829;}.cls-23{fill:#0080ca;}.cls-24{stroke:#6fb7d6;stroke-miterlimit:10;stroke-width:0.56px;}.cls-25{fill:#027ecb;}.cls-26{stroke:#1d1d1b;}.cls-27{fill:#1d1d1b;}.cls-28{fill:url(#Degradado_sin_nombre_2);}.cls-29{fill:#dedce0;}.cls-30{fill:#f2f3f2;}.cls-31{fill:url(#Degradado_sin_nombre_2-2);}.cls-32{fill:#3c3c3b;}</style><linearGradient id="Degradado_sin_nombre_2" x1="438.01" y1="173.22" x2="424.93" y2="130.42" gradientUnits="userSpaceOnUse"><stop offset="0" stop-color="#fff"/><stop offset="1"/></linearGradient><linearGradient id="Degradado_sin_nombre_2-2" x1="377.81" y1="191.61" x2="364.73" y2="148.81" xlink:href="#Degradado_sin_nombre_2"/></defs><g id="Capa_3" data-name="Capa 3"><g id="a"><rect class="cls-1" width="600" height="600"/></g></g><g id="Capa_1" data-name="Capa 1"><path class="cls-2" d="M204.58,136s-6.88,4.1-16,10.75c-2.81,9.62-12.41,14.59-15.45,24.32-2.58,8.27-3.09,9.07-8.44,15.88-4.83,6.14-9.94,15.59-15.18,21.37-2.7,3-3.22,14-5,17.56-2.05,4.1-2.16,11.42-2.77,16-1.31,9.78.22,17.68-1,27.47,5.51-13.09,17.37-35.86,34.54-40,24.37-6,36.33-1.79,36.33-1.79Z"/><path class="cls-3" d="M147.86,226.66c1.8-3.59,4.58-6.56,7.28-9.54q7.86-8.67,15.11-17.89c5.35-6.81,10.52-14,13.11-22.27,3-9.73,2.38-20.59,5.19-30.21-17,12.34-41.75,33.45-44.84,53.48-4.76,30.82-6.54,78.37-6.54,78.37s1.19-3.79,3.5-9.28c1.24-9.79,2.56-19.58,3.88-29.36C145.16,235.41,145.8,230.76,147.86,226.66Z"/><path class="cls-4" d="M204.58,136s-56.12,33.41-60.87,64.23-6.54,78.37-6.54,78.37,13.67-43.39,38-49.33,36.33-1.79,36.33-1.79Z"/><path class="cls-5" d="M460.54,381.65c-1.29-3.56-10.11-18.12-11.06-21.78-1.71-6.57-7.5-21.51-11-27.35-3-5.14-5.13-14.56-10.29-17.55s-12.8-6.22-14.26-12c-1.13-4.5-2.68-1.68-3.5-6.25-.69-3.85-6.4.12-8.75-3-6.55-8.69-14.34-16.41-20.49-25.38-5-7.24-8.85-15.61-9.53-24.25a25.29,25.29,0,0,0-2.5,5.62c-3.51,11.65-1.42,24.35,2.79,35.77,3.82,10.34,9.31,20,14.78,29.55,4.92,8.63,11,16.71,14.76,25.88,13.54,32.57,29.52,52,42,57.86C445.41,389.89,463.65,390.17,460.54,381.65Z"/><path class="cls-6" d="M463.22,360.59c-3.22-14.56-8.89-26.81-18.46-45.18-12.8-24.57-5.23-24.3-17.45-48.74s-44.22-30.25-44.22-30.25l1.82-.36c-5.51-.77-10.23,3.06-13.21,8,.68,8.64,4.57,17,9.53,24.25,6.15,9,13.94,16.69,20.49,25.38,2.35,3.12,4.6,6.5,5.29,10.35.82,4.57-.64,9.36.49,13.86,1.46,5.79,6.79,9.68,12,12.68s10.81,5.88,13.86,11c3.46,5.84,2.73,13.18,4.44,19.74,1,3.67,2.67,7.08,4,10.64a49.09,49.09,0,0,1,1.81,26.77C458.54,405.81,468.52,393.32,463.22,360.59Z"/><path class="cls-7" d="M384.91,236.06c-7.49-1-13.52,6.4-15.71,13.64-3.51,11.65-1.42,24.35,2.79,35.77,3.82,10.34,9.31,20,14.77,29.55,4.93,8.63,11,16.71,14.77,25.88,29.81,71.69,71.41,79.67,61.69,19.69-3.22-14.56-8.89-26.81-18.46-45.18-12.8-24.57-5.23-24.3-17.45-48.74s-44.22-30.25-44.22-30.25"/><path class="cls-8" d="M306.54,589c1-.34,7.58-6.71,8.31-7.52,1-1.14,2.17-12.23,2.18-13.76.15-14.76,3.57-3.81.79-18.31,24.88,7,19.19,16.08,41.38,2.87-.4,13.93,2.07,15.63,4.23,29.4.15,1,10.19,2.63,10.72,3.46,1.93,3.07,9.47,4.18,12.67,2.48,5.5-2.94,12.32-15,17.68-18.22L406,477.7s-79.48,19.8-101.56,17.42-124.83,6.36-124.83,6.36c2.59,23.13,5.61,60.29,7.43,82,16.59,5,48,8,56,9.8C262.88,597.79,287.23,595.2,306.54,589Z"/><path class="cls-9" d="M388.2,563.44c-3.19,1.71-7.89,3-9.82,0a7.2,7.2,0,0,1-.84-2.78A227,227,0,0,1,374.89,519c-22.19,13.21-50.39,9.78-75.27,2.81a222.88,222.88,0,0,1,4,44c0,1.53-.1,3.2-1.12,4.33a6.28,6.28,0,0,1-2.86,1.54c-19.31,6.24-42.86,15.62-62.66,11.14-8-1.81-34.25-10.51-50.84-15.5.88,10.57,1.71,21.31,2.5,32.59h215l.91-45.65Q396.46,559,388.2,563.44Z"/><path class="cls-10" d="M275.76,514.39c16,7.65,33,13.72,50.73,15.39C342.05,531.24,358,529,372.1,522a64.1,64.1,0,0,0,20.13-15.39c1.16-1.34-.79-3.32-2-2-9.68,11.2-23.3,18.11-37.67,21.08-16,3.32-32.58,1.46-48.15-3.08A180.18,180.18,0,0,1,277.17,512c-1.61-.77-3,1.63-1.41,2.4Z"/><path class="cls-10" d="M351.47,528.76l.26,17.44c.08,4.95.4,10-.31,14.92A18.47,18.47,0,0,1,345.2,573a33.05,33.05,0,0,0-5.16,5,19.11,19.11,0,0,0-2.94,6c-1.51,4.94-1.4,10.25-1.21,15.36.06,1.78,2.84,1.79,2.78,0-.17-4.56-.3-9.26.85-13.72a17.34,17.34,0,0,1,2.7-5.93c1.48-2,3.56-3.5,5.42-5.17,7.47-6.69,7-17,6.9-26.16l-.3-19.66a1.39,1.39,0,0,0-2.77,0Z"/><path class="cls-10" d="M339.06,528.79a236.62,236.62,0,0,1-.44,42.75c-.18,1.78,2.59,1.76,2.77,0a235.71,235.71,0,0,0,.44-42.75c-.14-1.77-2.92-1.78-2.77,0Z"/><path class="cls-10" d="M178.24,501.48q4.26,38.07,7.33,76.27.87,11.07,1.65,22.16a1.43,1.43,0,0,0,1.39,1.39H394.87c2.78,0,5.57.06,8.36,0h.36a1.41,1.41,0,0,0,1.39-1.39l.24-12.19.58-29.25.7-35.24.61-30.47c.09-4.93.41-9.91.29-14.84v-.22a1.4,1.4,0,0,0-1.75-1.34c-3.37.84-6.75,1.64-10.13,2.44q-12.22,2.88-24.51,5.51c-9.95,2.13-19.92,4.13-29.95,5.87a255.73,255.73,0,0,1-26.72,3.54,60.2,60.2,0,0,1-9.4.06c-2.49-.22-5-.37-7.47-.42-7.63-.15-15.26.11-22.88.41-9.72.38-19.44.91-29.15,1.51s-19.6,1.26-29.4,2q-11.83.87-23.65,1.8-6.1.48-12.21,1l-.55,0c-1.77.15-1.79,2.93,0,2.78l8.48-.7q10.75-.87,21.5-1.67,14.29-1.06,28.59-2c9.91-.64,19.82-1.22,29.75-1.68,8.35-.39,16.71-.72,25.07-.73,2.93,0,5.87,0,8.79.2,2.59.15,5.14.44,7.74.4,8.34-.1,16.69-1.34,24.92-2.63,10.08-1.58,20.11-3.51,30.11-5.57q13.38-2.76,26.68-5.86,7.25-1.67,14.45-3.43l.67-.17-1.75-1.34-.24,12.19-.58,29.25-.7,35.25-.61,30.46L402.3,595a37.38,37.38,0,0,0-.09,4.73,1.62,1.62,0,0,1,0,.22l1.38-1.39H197.34c-2.76,0-5.61-.21-8.36,0h-.37l1.39,1.39q-2.7-38.22-6.6-76.33-1.14-11.05-2.38-22.1C180.82,499.72,178,499.7,178.24,501.48Z"/><path class="cls-11" d="M265,241.19c-10.53-25.37-21.16-51.16-27.36-77.79.13,2.8.35,5.6.68,8.39,1.72,14.88,6.23,29.28,10.71,43.58l12.54,40c2.47,7.85,4.94,15.71,7.88,23.4.4,1.05.81,2.09,1.23,3.13,7.83,5.86,15,11.17,20.73,15.49q-3.58-6.19-6.88-12.55C277.22,270.65,271.1,255.91,265,241.19Z"/><path class="cls-12" d="M341.06,356.79c2.06,6.8,17.29-60.24,17.29-60.24l-2.7-31.4q0-29.26,0-58.55c0-14.37,0-28.82-2.29-43-3.76-23.45-14-46.2-30.95-62.84S281.53,74.1,257.87,76.12c-1.07.09-2.14.22-3.21.36-7.11,15.63-11.73,32.67-14.47,49.58a179.93,179.93,0,0,0-2.56,37.34c6.2,26.63,16.83,52.42,27.36,77.79,6.11,14.72,12.23,29.46,19.53,43.62q3.28,6.36,6.88,12.55c5.41,4.07,9.6,7.26,12,9.23C318.19,318.75,341,356.48,341.06,356.79Z"/><path class="cls-2" d="M229.18,217.86c.35-10.77,2.92-21.36,3.61-32.11,1.74-27-8.39-53.86-5.75-80.79a97.32,97.32,0,0,1,4.56-21.07c-12.92,6.81-23.66,17.6-29.31,31-3.43,8.13-5,16.89-6.36,25.61a634.65,634.65,0,0,0-7.12,73.85c7,8.85,25.36,24.11,45.46,39.8C231.29,242.23,228.79,230.13,229.18,217.86Z"/><path class="cls-3" d="M261.56,255.34l-12.54-40c-4.48-14.3-9-28.7-10.71-43.58-1.76-15.2-.57-30.62,1.88-45.73,2.74-16.91,7.36-33.95,14.47-49.58a69.62,69.62,0,0,0-23.06,7.41A97.32,97.32,0,0,0,227,105c-2.64,26.93,7.49,53.78,5.75,80.79-.69,10.75-3.26,21.34-3.61,32.11-.39,12.27,2.11,24.37,5.09,36.32,12.19,9.51,25,19.18,36.4,27.69-.42-1-.83-2.08-1.23-3.13C266.5,271.05,264,263.19,261.56,255.34Z"/><path class="cls-13" d="M190.2,214.38q1-27.3,4.4-54.44c1.11-8.95,2.32-17.92,4-26.79,1.48-7.87,3.56-15.7,7.44-22.77,6.56-12,17.32-21.29,29.67-27A69.43,69.43,0,0,1,277.4,78.5a85.38,85.38,0,0,1,40.2,19.71,101.4,101.4,0,0,1,26.08,36.65c6.47,15.09,9.33,31.24,10.15,47.57.45,9,.41,18,.41,27.08V237.2q0,13.71,0,27.42c0,2.27.35,4.57.54,6.83l2,23.68a8.62,8.62,0,0,0,.1,1.14c.07.38,0,.24.06,0l-.36,1.25c-.69,2.37-1.4,4.74-2.13,7.09-2.34,7.61-4.83,15.19-7.72,22.61a95.48,95.48,0,0,1-4.33,9.83,31.08,31.08,0,0,1-2.11,3.51,8,8,0,0,1-.83,1,5.22,5.22,0,0,1-.43.39c-.19.17.22-.15,0,0l-.24.15c-.39.2.18,0-.17.07-.08,0,.26.08-.1,0,.12,0,.33.09.13,0s.21.22.06,0,.15.21-.13-.11.05.16-.17-.23c-.12-.2-.22-.4-.32-.6.12.25-.14-.38-.2-.48a4.17,4.17,0,0,0-.36-.47c-2-2.55-4.14-5-6.27-7.43-8.35-9.59-17.06-19.14-26.91-27.22-4.61-3.79-9.45-7.33-14.22-10.9-7.56-5.67-15.14-11.3-22.69-17q-13.34-10-26.55-20.15c-8.59-6.64-17.13-13.36-25.49-20.28-6.76-5.59-13.48-11.29-19.72-17.47a75.16,75.16,0,0,1-5.91-6.45c-1.12-1.4-3.07.58-2,2,4.49,5.63,10,10.48,15.4,15.22,7.78,6.84,15.85,13.37,24,19.81q13.48,10.67,27.23,21,12.68,9.59,25.44,19.07c6.21,4.64,12.45,9.25,18.59,14a188.09,188.09,0,0,1,22,20.55q5.87,6.28,11.44,12.82c1,1.22,2.07,2.44,3.08,3.68l.4.5c.27.34,0-.07.06.08s-.15-.37.05.08c.13.29.24.59.4.87a3.11,3.11,0,0,0,5,.92c1.93-1.56,3.18-4,4.28-6.2,3.65-7.2,6.29-15,8.84-22.6q2.88-8.64,5.42-17.39a8.4,8.4,0,0,0,.11-3.28l-1-11.54c-.65-7.51-1.53-15-1.53-22.55q0-28.06,0-56.13c0-17.7-.33-35.53-4.77-52.76a115.1,115.1,0,0,0-19.76-41.41,92.38,92.38,0,0,0-35.55-28.36c-13.82-6.15-29.25-8.77-44.26-6.37A70.93,70.93,0,0,0,216,93.26a62.94,62.94,0,0,0-12.61,16.23c-3.86,7.22-6,15.16-7.48,23.17A532,532,0,0,0,189,187.5q-1.06,13.42-1.57,26.88C187.36,216.17,190.14,216.16,190.2,214.38Z"/><path class="cls-13" d="M198.51,192.1l20.56,20.06S201.22,209.26,198.51,192.1Z"/><path class="cls-13" d="M201.34,176.92,221.9,197S204.06,194.08,201.34,176.92Z"/><path class="cls-13" d="M204,161l20.56,20.06S206.73,178.2,204,161Z"/><path class="cls-14" d="M368.56,457.93c-.58-5-1.4-10.1-4-14.42l-21.52,15.55c-12.71,9.19-25.58,18.47-40.12,24.37-10.77,4.38-22.68,6.75-34.15,5.59,5.79,9.38,10.63,15.68,10.63,15.68s32.77,7.57,60.17,11.06c10.16,1.29,20.06-3.11,28.49-9.16A195.25,195.25,0,0,0,368.56,457.93Z"/><path class="cls-15" d="M248,343.89a174.66,174.66,0,0,1,32.24,16,228.16,228.16,0,0,1,.61-47.46c.24-2.11.67-4.47,2.41-5.68,1.41-1,3.28-.9,5-.71,23.75,2.64,44.92,21.2,50.65,44.41a272.36,272.36,0,0,1,24.4-60.65c1.41-2.57,3.1-5.31,5.88-6.22,3.9-1.26,7.82,1.68,10.4,4.94-5.38-13.07-11.93-23.21-18.95-29.07L338.8,348.26s-7.91-47.78-47.74-65.24-92.9-58.18-92.9-58.18-11.52-2.91-6.86,19.2S214,302.22,225,336l3,9a14.31,14.31,0,0,1,6.13-3.21C238.77,340.73,243.57,342.23,248,343.89Z"/><path class="cls-16" d="M393.19,355.75c-1-25.63-6.18-49.23-13.6-67.25-2.58-3.26-6.5-6.2-10.4-4.94-2.78.91-4.47,3.65-5.88,6.22a272.36,272.36,0,0,0-24.4,60.65c-5.73-23.21-26.9-41.77-50.65-44.41-1.71-.19-3.58-.27-5,.71-1.74,1.21-2.17,3.57-2.41,5.68a228.16,228.16,0,0,0-.61,47.46,174.66,174.66,0,0,0-32.24-16c-4.44-1.66-9.24-3.16-13.87-2.1A14.31,14.31,0,0,0,228,345c10.34,31.51,21.48,66.21,21.47,92.21,0,8.42,2.62,17.76,6.3,26.74,15-6.37,28.29-16.52,40.45-27.47,14.52-13.08,27.85-27.52,43.21-39.61,9.12-7.18,19.94-13.78,31.51-12.76,9.25.81,17.35,6.57,22.88,14.18C393.84,382.94,393.67,367.94,393.19,355.75Z"/><path class="cls-15" d="M371,384.11c-11.57-1-22.39,5.58-31.51,12.76-15.36,12.09-28.69,26.53-43.21,39.61-12.16,10.95-25.47,21.1-40.45,27.47a178.26,178.26,0,0,0,13,25.07c11.47,1.16,23.38-1.21,34.15-5.59,14.54-5.9,27.41-15.18,40.12-24.37l21.52-15.55c2.56,4.32,3.38,9.43,4,14.42a195.25,195.25,0,0,1-.46,48.67c14.32-10.27,24.43-25.3,24.43-25.3s1.26-42.68,1.3-83C388.3,390.68,380.2,384.92,371,384.11Z"/><path class="cls-17" d="M198.16,224.84s-11.52-2.91-6.86,19.2S214,302.22,225,336s24.45,72.73,24.44,101.24,30,67.49,30,67.49,41.21,13.22,67.16,11.09c27.53-2.26,45.93-34.49,45.93-34.49s2.41-81.33.66-125.55-15.86-82.36-32.55-96.32L338.8,348.26s-7.91-47.78-47.74-65.24S198.16,224.84,198.16,224.84Z"/><path class="cls-18" d="M340.39,355q3.25,31.29,4.75,62.75,1.44,31.22,1.07,62.48-.21,17.76-1,35.53c-.08,1.79,2.7,1.78,2.78,0q1.36-31.44,1-62.92-.42-31.25-2.68-62.43Q345,372.71,343.17,355c-.18-1.76-3-1.78-2.78,0Z"/><path class="cls-9" d="M179.12,274.64c.2.34.39.68.6,1,4.28,6.9,8,14.92,13.13,21.25,4.18,5.2,9.75,8.7,13.73,14.05,7.33,1.71,30.21,7.44,43.27,15.18-13.06-7.74-35.94-13.47-43.27-15.18,16,21.5,16.56,54.65,31,77.19,2.73,4.25,19.4-2,21.25,2.67,2.19,5.56,3.51,12.19,8.6,15.32-.72-10.22,13.43-25.36,9-34.57-3.61-7.46-9.24-18.3-13.65-25.31s-2.58,3-1.39-5.24c.1-.67-1.72,8.4-1.21,7.95s3.62-8,4.33-7.95c2.7.17-10.58-3.43-7.87-3.48s5.21-8.37,5.34-11.08c.12-2.36-6-16.23-7.91-17.62-9.87-7.18-19.15-22.48-30.49-27-5.5-2.17-6.4-12.55-10.89-16.4-4.78-4.09-5.77,2.92-8.46-2.77-4.51-9.54,3.47-.95-1-10.49-3.21-6.76-17.47-16.51-18.22-24-.56-5.66-6.72-11.52-3.5-16.09-4.85,2.65-12.82,8.83-14.25,16.81a33.82,33.82,0,0,0-.43,3.5A103.3,103.3,0,0,0,170.72,256c.39,1.22.8,2.43,1.24,3.64A127.8,127.8,0,0,0,179.12,274.64Z"/><path class="cls-6" d="M179.12,274.46A127.14,127.14,0,0,1,172,259.4,87.16,87.16,0,0,0,179.12,274.46Z"/><path class="cls-6" d="M172,259.4c-.84-1.2-3.83-11.73-5.27-11.94-2-.3-7.1-4.32-8.24-2.68-9.29,13.37-29.41,20.83-28.5,37.09.31,5.6-3.19,21.64-1.39,27,5.81,17.2,4.83,44.44,18.81,56,8.87,7.35,25.53,46.17,35.43,52.07s22.14-2.17,26.93,8.32c5.08,11.11,22,8,26.92,19.18,7,15.81,24,24.35,40.15,30.64,3.64,1.42,7.36,2.83,11,4.31-3.24-40.8-10.44-111.89-16.17-134.8-6.69-26.77-28.8-57-38.48-75.06s-29.89-28.51-38-37.25-6.73-22.1-6.73-22.1a31.23,31.23,0,0,0-9.8,3.37c-3.23,4.57-4.39,10.66-3.82,16.32.74,7.45,4,14.38,7.19,21.14l13.55,28.62c2.69,5.69,5.52,11.55,10.29,15.65,4.49,3.85,10.26,5.76,15.76,7.93a144.6,144.6,0,0,1,32,17.58c1.91,1.39,4,3.21,3.86,5.57-.13,2.71-3.18,4.4-5.9,4.44s-5.33-1-8-1.17a2.72,2.72,0,0,0-2,.45,2.9,2.9,0,0,0-.77,1.82c-1.18,8.2,2.26,16.39,6.67,23.4s9.88,13.4,13.49,20.85c4.46,9.22,5.86,19.6,6.58,29.81-5.09-3.13-6.41-9.76-8.6-15.32a77.3,77.3,0,0,0-7.34-13.25c-14.48-22.53-29-45.11-45-66.6-1.49-.35-2.34-.53-2.34-.53C193.19,297,185,285.09,179.12,274.46A87.16,87.16,0,0,1,172,259.4c-.28-.71-.55-1.42-.81-2.12"/><path class="cls-6" d="M170.72,255.76c.14.51.28,1,.43,1.52.26.7.53,1.41.81,2.12C171.52,258.2,171.11,257,170.72,255.76Z"/><path class="cls-19" d="M171.15,257.28a103,103,0,0,1-4.35-25C166.29,239,167.52,247.38,171.15,257.28Z"/><path class="cls-9" d="M236.65,444.42c-5-11.17-4-24.3-9.09-35.41-4.79-10.49-14.39-17.95-24.29-23.86s-20.54-10.74-29.41-18.1c-14-11.58-22.5-28.5-28.3-45.71a62.56,62.56,0,0,1-3.7-16.37c-.9-16.26,8.8-31,18.1-44.35,1.14-1.64,2.71-3.48,4.69-3.18,1.44.21,2.44,1.51,3.27,2.71l10.92,15.59a100.07,100.07,0,0,1-7.69-18.46c-3.63-9.9-4.86-18.24-4.35-25v0c-25.13,22-47.86,49.47-50.19,67.51s26.76,72.14,39,117.53,18.95,118.45,18.95,118.45c55,51.79,117.47,27.93,117.47,27.93s-.85-33.51-2.9-66.67c-.29-4.77-.72-10.78-1.27-17.64-3.68-1.48-7.4-2.89-11-4.31C260.69,468.77,243.65,460.23,236.65,444.42Z"/><path class="cls-7" d="M166.8,232.26c-25.13,22-47.86,49.47-50.19,67.51s26.76,72.14,39,117.53,18.95,118.45,18.95,118.45c55,51.79,117.47,27.93,117.47,27.93s-.85-33.51-2.9-66.67-10.75-125.68-17.44-152.44-28.8-57-38.48-75.06-29.89-28.51-38-37.25-6.73-22.1-6.73-22.1-18.29,2.33-21.2,18.62,5.37,43.64,37,81.46c0,0,29.9,6.4,45.61,15.71"/><path class="cls-10" d="M230.6,318.31l1.77,32.87.88,16.43c.29,5.37.41,10.78.9,16.14a15.34,15.34,0,0,0,1.95,6.72,36.53,36.53,0,0,0,4.52,5.41q4.92,5.31,9.53,10.92a251,251,0,0,1,17.11,23.48,252.86,252.86,0,0,1,15.79,28.38c.77,1.62,3.17.21,2.4-1.4a255,255,0,0,0-30.17-48.49q-4.42-5.61-9.16-10.95c-1.55-1.75-3.13-3.48-4.72-5.19s-3.29-3.6-4-6a34.32,34.32,0,0,1-.78-7.57l-.43-8-.87-16.18-2-36.6c-.1-1.77-2.87-1.78-2.78,0Z"/><path class="cls-20" d="M410.18,408.43c-4.47-.64-18.59,2.57-21.46,6.06-1.87,2.27-7.77,7.42-7.94,10.35-1.08,18.58,4.27,40.63,5.74,59.18.8,10.1,1.77,50.13,2.57,60.23,6.47-1.26,19.34-3.68,24.93-7.16-2.39-16.4-.1-59.43,1.07-76,.9-12.82,1.11-25.66,1-38.51C412.88,421.73,413.43,408.89,410.18,408.43Z"/><path class="cls-20" d="M388.1,320.11c.09,4.85,6.34,23.14,7.92,27.72,3.53,10.19,13.66-.46,17.36,9.67-1.05-18.26-2.57-36.49-6-54.43-.92-4.75-6.24-23.76-7.46-28.46-1,4-5.07,11.79-6.07,15.81S388,316.06,388.1,320.11Z"/><path class="cls-21" d="M391.47,431.84c.17-2.93.48-6.06,2.34-8.33,2.87-3.49,8.13-3.56,12.6-2.92a75.21,75.21,0,0,1,9.63,2c-.2-15.93-1-31.87-1.76-47.79-.29-5.77-.57-11.55-.9-17.32q-5.55-15.19-10.85-30.48c-1.59-4.58-3.17-9.26-3.26-14.1-.07-4.06.91-8.05,1.89-12l3-12.06c-4.83-18.64-12.19-36.64-23.25-52.34-.86-1.22-1.93-2.54-3.42-2.63-2.1-.14-3.43,2.14-4.25,4.08l-8.05,19.17c-2.9,6.92-1.91,8.38.69,15.27a153.36,153.36,0,0,1,8.32,35.63c2.95,24.33,1.71,48.9,2,73.33.26,23.92,2,47.79,3.81,71.64,0,11.49,1.73,23.27,2.59,34.74.67,9.08,4.74,49.63-.38,57.43a53.48,53.48,0,0,0,13.54-.94c-.8-10.1-1.6-46.56-2.4-56.66C391.86,469,390.39,450.42,391.47,431.84Z"/><path class="cls-10" d="M378.59,453c0,10,1.29,20,2.19,30,.42,4.65.78,9.3,1.15,13.95.91,11.45,1.75,23,1.33,34.48a63.19,63.19,0,0,1-.7,8,13.56,13.56,0,0,1-1.57,5,1.4,1.4,0,0,0,1.2,2.09,56.51,56.51,0,0,0,32.53-8.29,1.46,1.46,0,0,0,.64-1.57,123.76,123.76,0,0,1-.95-15.52c-.12-6.78,0-13.55.15-20.33q.48-18.6,1.74-37.18c1.26-18.94,1.39-37.84.77-56.81-.66-20-1.57-40-3-59.92-2.58-36.67-8.54-74.58-28.65-106.14-1.15-1.81-2.32-3.63-3.6-5.36-1-1.36-2.23-2.66-4-2.9-4.09-.56-5.67,4.38-6.9,7.31q-2.85,6.76-5.69,13.53c-1.47,3.5-3.52,7.3-3.2,11.23.29,3.59,2.08,7,3.27,10.35a132.84,132.84,0,0,1,4.1,14,189.71,189.71,0,0,1,4.34,28.85c1.58,19.94.87,39.95,1,59.93.1,20.19,1.3,40.35,2.74,60.49q.54,7.41,1.09,14.81c.13,1.77,2.91,1.78,2.78,0-1.47-19.74-2.94-39.49-3.55-59.27-.6-19.62.12-39.24-.4-58.86-.5-18.93-2.22-38.09-7.92-56.23-1.27-4-3.05-7.91-4.22-12-1-3.48.14-6.51,1.49-9.74q2.82-6.76,5.68-13.53a54.52,54.52,0,0,1,2.76-6.31,3.92,3.92,0,0,1,1.46-1.66c1.19-.56,2.12.56,2.78,1.41a92.84,92.84,0,0,1,7,11q3.24,5.69,6,11.64a173.54,173.54,0,0,1,9.07,24.8c5.17,18.07,7.75,36.75,9.3,55.44,1.61,19.47,2.42,39,3.2,58.55.8,19.71,1.16,39.47,0,59.18-.72,11.91-1.49,23.81-1.92,35.74-.44,12.54-.85,25.19,0,37.73.15,2.2.36,4.38.67,6.56l.64-1.57a53.8,53.8,0,0,1-31.13,7.91l1.2,2.09c2-3.19,2.22-7.65,2.48-11.3a166.5,166.5,0,0,0,.08-17.45c-.38-10.11-1.27-20.19-2.06-30.27-.88-11.28-2.49-22.52-2.52-33.85A1.39,1.39,0,0,0,378.59,453Z"/><path class="cls-10" d="M371.41,241.15a247.41,247.41,0,0,1,14.14,26.44,130,130,0,0,1,5.77,13.74c.77,2.38-.76,4.33-2,6.25s-2.49,3.59-3.75,5.37c-2.84,4-5.54,8.15-6.85,12.93a1.39,1.39,0,0,0,2.67.74c1.21-4.41,3.73-8.23,6.34-11.93,1.3-1.84,2.63-3.66,3.88-5.54s2.77-4,2.79-6.33-1.35-4.78-2.22-6.9q-1.43-3.51-3-7-3.1-7-6.66-13.83-4.08-7.85-8.72-15.37c-.94-1.52-3.34-.13-2.4,1.4Z"/><path class="cls-10" d="M383.61,297.08l14.88,56.3,1.86,7a50.4,50.4,0,0,1,1.58,7c.53,4.65-1.3,9-2.81,13.31L389.54,408l-10.91,31.08c-.59,1.69,2.09,2.42,2.68.74l19.5-55.57c1.55-4.42,3.57-8.94,4-13.66.36-4.51-1.25-9-2.39-13.33l-7.59-28.75-8.5-32.14a1.39,1.39,0,0,0-2.68.74Z"/><path class="cls-14" d="M191.46,212.88s1.62,5.82,16.36,17.84,59.25,37,71.75,43.06c23,11.05,55.21,35.94,60.26,69.69,0,0,5.19-34,8.79-49.39,3.33-14.24,11.77-32.71,8.79-49.39,0,0,7.89,3.1,12.93,13.19s3.4,29.47,3.4,29.47-4-21.66-12.32-16.29-20.36,85.73-20.36,85.73-9.51-50-51.4-72.15c0,0-10.09.78-11.25,17.45,0,0-31-16.29-52-36.07S184.8,226.84,191.46,212.88Z"/><path class="cls-17" d="M191.46,212.88s1.62,5.82,16.36,17.84,59.25,37,71.75,43.06c23,11.05,55.21,35.94,60.26,69.69,0,0,5.19-34,8.79-49.39,3.33-14.24,11.77-32.71,8.79-49.39,0,0,7.89,3.1,12.93,13.19s3.4,29.47,3.4,29.47-4-21.66-12.32-16.29-20.36,85.73-20.36,85.73-9.51-50-51.4-72.15c0,0-10.09.78-11.25,17.45,0,0-31-16.29-52-36.07S184.8,226.84,191.46,212.88Z"/><path class="cls-6" d="M424.73,401.28c8.16,1.81,23.07,3.2,31.28,1.59,7.6-1.5,7.17-21.53,8.9-28.92-.3-2.21-.57-4.45-.77-6.72C462.42,347.3,414.63,341,414.63,341c-41.11-21.22-53.31-9.19-53.31-9.19,7.59-5.19,6.39,11.32,2.9,23.52-.88,3.07-6.84,17.93-8.19,21.1,5.33,3.43,13.75,6,19.6,8.41C390.29,390.83,409.27,397.86,424.73,401.28Z"/><path class="cls-22" d="M464.91,374c-1.73,7.39-9.11,12.77-16.71,14.27-8.2,1.61-16.64-.29-24.81-2.09-15.46-3.42-31.09-6.58-45.75-12.56a103,103,0,0,1-16.89-8.72,175.94,175.94,0,0,1-9.1,18s39.71,8.42,51.44,14.05,36,13.38,53.05,11.07C471.28,406,467.22,391.17,464.91,374Z"/><path class="cls-7" d="M462.8,362.47c1.09,4.92.56,3,1.14,8.8.07.63.14,1.26.2,1.88"/><path class="cls-7" d="M464.14,373.15c2.4,21.68,6.82,33.82-12.42,35.52-19.78,1.75-36.07-9.31-57-14s-43.06-11.82-43.06-11.82,30.25-56,8.73-49.45c0,0,3.49-12.39,35.49,0s50.62,28.66,50.62,28.66"/><path class="cls-10" d="M415.89,342.34a97.7,97.7,0,0,1,26.3,7.82c1.62.75,3-1.65,1.41-2.39a99.84,99.84,0,0,0-27-8.1c-1.75-.27-2.5,2.41-.74,2.67Z"/><path class="cls-3" d="M402.85,343c8-2.09,12-4.21,20.11-3-.55-2.67-2.64-12.87-3.9-15.3-3.46-6.68-10.09-11.4-17.33-13.45s-15-1.59-22.3.31a58.78,58.78,0,0,0-33.26,23.37l.53-.37c4.29,5.53,15.85,18.32,20.72,23.36,1.46-.74,9.56-2.12,11-2.9C388.72,349.36,391.47,346,402.85,343Z"/><path class="cls-23" d="M397.06,334c-11.39,3-22,8.42-32.28,14.08-1.42.78-2.86,1.57-4.32,2.31a193.39,193.39,0,0,0,14.43,13.47c2,1.71,4.37,3.47,7,3.33s4.74-2.1,6.69-3.86A95.28,95.28,0,0,1,423,343.43a82.8,82.8,0,0,0-1.27-11A61.76,61.76,0,0,0,397.06,334Z"/><path class="cls-13" d="M347.37,335.65a57.4,57.4,0,0,1,30.17-22.1c12.82-3.93,28.44-3.17,37.63,7.8,5.18,6.17,5.87,14.37,6.4,22.08l1-1.34a97.6,97.6,0,0,0-31.75,17.51c-2.19,1.81-4.21,4.14-6.7,5.52-2.95,1.63-5.64,0-8-1.95a180.69,180.69,0,0,1-14.08-13,193.73,193.73,0,0,1-14.42-16.55c-1.1-1.41-3.05.57-2,2a193.21,193.21,0,0,0,27.85,29c2.2,1.85,4.58,3.78,7.56,4s5.57-1.67,7.72-3.59A102.66,102.66,0,0,1,404,353.66a94,94,0,0,1,19.36-8.89,1.43,1.43,0,0,0,1-1.34c-.51-7.38-1.13-15.17-5.32-21.52a29.82,29.82,0,0,0-15.49-11.54c-14-4.72-30.27-.11-42.23,7.83a60.68,60.68,0,0,0-16.34,16c-1,1.48,1.39,2.87,2.4,1.41Z"/><path class="cls-6" d="M116.48,320.9c-.53,13.55,5.56,32.41,12.67,44,3.56,5.77,14.11,16.73,19.4,21,4.23,3.39,14.94,26.58,20,28.51,14.16,5.39-1.72-17.26,13.26-15.05-8.16,3.55,31.81,40.46,23,39.4,14.3,10.26,27.05,14.45,42.56,22.77,9.12,4.89,18.87,7.68,28.93,10.09,1.26.3,12.8-3.38,14-3.76s5.47-4.9,6.54-5.74C308.39,453,308.6,455.8,320.4,447c5.51-4.1,13.44-10.45,16.82-16.43,4.1-7.24,4-14.69,11.68-17.84,5.34-2.18,7.72-8.08,12.08-11.85,5.63-4.86,12.92-18.14,13.66-25.54,1.48-14.76-4.44-35-14.35-41.11a38.71,38.71,0,0,0-17.18-3.64s-51.32,60-72,74.12c0,0-4.61-4.1-8.1.17,0,0,.17-15.13-15.72-35.11S212.62,317.7,208,312.32s-22.09-22.38-33.87-26.07c-4.3-1.34-12.28-4.13-21.39-4.82-6,8.7-20.1,7.32-24.53,16.91C125,305.24,116.78,313.31,116.48,320.9Z"/><path class="cls-9" d="M360.29,334.24c5.87,13.5,7,28.93,5.57,43.69-.75,7.4-2.45,15.34-8.07,20.21-4.37,3.76-10.3,5-15.64,7.17a37.68,37.68,0,0,0-18.62,15.89c-3.38,6-5.11,13.31-10.62,17.41-11.8,8.79-31-3.74-42.59,5.37a11,11,0,0,1-3.35,2.26,7.46,7.46,0,0,1-3.83-.19c-10.07-2.41-19.32-7.35-28.44-12.24-15.51-8.31-31.08-16.66-45.37-26.91a50.7,50.7,0,0,0,26.11-3.83,209.29,209.29,0,0,1-43.89-11.45c-5.06-1.93-10.12-4.1-14.35-7.49-5.29-4.24-8.95-10.14-12.51-15.91-7.11-11.55-14.48-24-13.94-37.54.3-7.6,3.11-14.86,6.29-21.77a187.36,187.36,0,0,1,15.65-27.48c-15.83-1.21-35.08,3.91-44.37,33.91-7.29,23.58,5.47,55,18.34,72.11,20.83,27.67,41.08,45.69,96.47,73.26s62.52,32.11,81.71,12,64.59-76.48,77.32-99.11l6.33-8.68S379.38,343.07,360.29,334.24Z"/><path class="cls-7" d="M270.24,405.29c15.71-9.9,72.87-74.69,72.87-74.69,31.42-.58,45.38,34.33,45.38,34.33s-22.69,30.84-33.75,47.71-37.23,50.62-57.6,66.73-64.58-13.78-87.86-26.58-62.83-36.66-82.62-65.34-26.35-55.42-15.12-81.2c8.14-18.7,29.09-31.7,58.76-21.42s44.22,34.72,62.26,64.39,29.09,36.66,30.25,56.44L264,425.44"/><path class="cls-10" d="M264.2,407a9.28,9.28,0,0,1,1.49-2.64c.51-.54,1.47-1.11,2.19-.62s.91,1.59,1.15,2.31c.4,1.17.79,2.35,1.18,3.52l4.72,14.11c.57,1.69,3.25,1,2.68-.74q-3-8.81-5.9-17.63c-.73-2.16-1.82-4.57-4.5-4.52s-4.38,2.5-5.41,4.8c-.71,1.62,1.68,3,2.4,1.41Z"/><path class="cls-24" d="M257.69,407.34a20.41,20.41,0,0,0,.26-2.85S257.8,405.65,257.69,407.34Z"/><path class="cls-23" d="M266.68,355.9c-1.71-4.16-15.2,8.39-20,14.89-4,5.39-9.7,12.08-9.7,17.46,1,.53,3.08-.39,7.61-3.95a58.32,58.32,0,0,1,7.3-10.86C256.85,367.61,263,362.65,266.68,355.9Z"/><path class="cls-3" d="M292.37,388.39c6.1-10.9,15-22.79,22.88-32.49,4.28-5.3,10.83-11.14,13.07-17.57-15.61-1.62-48.59-3.6-58.08,5.25-14.06,13.12-35.3,32-34.37,37.64.49,3-.23,6.32,1.08,7q6.21-7.92,12.21-16c4.83-6.51,10-13.41,17.52-16.35-3.65,6.75-9.83,11.71-14.82,17.54a58.32,58.32,0,0,0-7.3,10.86c.9-.71,1.89-1.51,3-2.44a85.48,85.48,0,0,0-2.33,23c.34,5.88.52,9.75,1.42,11.73.34-.82,5,1.48,5.27.65,1.31-4.59,1.81-9.11,2.75-13.78,3.09-15.34,9.51-31,20.23-42.44-1.69,6.83-8.46,11-12.17,17-3.5,5.67-4.08,12.62-4.29,19.29q-.3,9.35.11,18.71c0,.5,0,1,.08,1.51.89,2.32,2.51,3.73,5.36,2.74a6.1,6.1,0,0,0,1.26-.61c.28-1.8,4.11-6.89,4.07-8.69-.12-4.81,2-7.69,2.57-12.47.79-6.54,1.87-10.64,5.35-16.23,3-4.79,4.87-9.44,8.11-14.06,2.29-3.26.94-4.92,4.72-3.66-1.66,2.55-1.95,2.35-3.7,4.84a59.75,59.75,0,0,0-10.47,29.4c.86,5.22,2.49,12.5,5.31,16-.1-.93,5,1.65,4.94.73C285.2,405.6,287.5,397.1,292.37,388.39Z"/><path class="cls-23" d="M333.61,339.07s-5.21-.9-12.71-1.68A59.3,59.3,0,0,1,311,355.17c-7.85,9.7-18.8,16.94-24.9,27.83-4.87,8.71-6.17,19.09-5.22,29,.09.93.19,1.86.29,2.79,1.68,2.09,3.77,2.86,6.36,1.08,9.83-6.74-5.94-13.18,6.85-30.59s15.76-21.83,23.49-29.29S335.68,341.92,333.61,339.07Z"/><path class="cls-23" d="M258.44,397.32c.21-6.67.79-13.62,4.29-19.29,3.71-6,10.48-10.18,12.17-17-10.72,11.4-21.89,23.66-25,39-.94,4.67-1.09,9.5-2.41,14.09a21.44,21.44,0,0,1-.86,2.48c.85,1.87,2.35,2.06,5.27.65,3.92-1.9,5.29-6.75,5.77-9.9.11-1.69.26-2.85.26-2.85a20.41,20.41,0,0,1-.26,2.85c-.17,2.87-.2,7.26.94,10.2,0-.51-.06-1-.08-1.51Q258.13,406.67,258.44,397.32Z"/><path class="cls-23" d="M291.73,362c-3.78-1.26-7.29,2.37-9.57,5.63q-4.86,6.93-9.34,14.11c-3.48,5.6-6.86,11.51-7.65,18.06-.57,4.78.27,9.61.39,14.42a30.1,30.1,0,0,1-.31,5.44c7.58-4.79,9.87-26.85,9.87-26.85s.22,2.54.78,6a59.75,59.75,0,0,1,10.47-29.4C288.12,366.91,290.07,364.56,291.73,362Z"/><path class="cls-13" d="M333.61,337.68c-10-.5-19.94-1.17-29.91-1.67-10.27-.5-20.76.11-30.3,4.33a29.84,29.84,0,0,0-5.95,3.49,47.27,47.27,0,0,0-4.67,4.39c-3.22,3.26-6.53,6.43-9.77,9.67-6.4,6.44-13.16,13.36-17,21.7a27.34,27.34,0,0,0-1.27,3.13,4.18,4.18,0,0,0,.13,2.85c.63,1.88,1.24,3.69,3.51,3.83a9.37,9.37,0,0,0,5.63-2,16.75,16.75,0,0,0,4.77-4.83,1.39,1.39,0,0,0-2.4-1.4,13.48,13.48,0,0,1-3.77,3.83,10.52,10.52,0,0,1-1.89,1.11c-.53.23-1.76.79-2.35.52-.38-.18-.46-.79-.61-1.19a2.83,2.83,0,0,1-.29-2.13,30.06,30.06,0,0,1,2.3-4.95c4.24-7.49,10.46-13.76,16.52-19.78,2.94-2.93,5.94-5.8,8.85-8.76a35.27,35.27,0,0,1,4.34-4,29.09,29.09,0,0,1,5.52-3.11c8.7-3.77,18.4-4.36,27.74-3.92,10.3.49,20.59,1.2,30.89,1.72,1.79.09,1.78-2.69,0-2.78Z"/><path class="cls-13" d="M265.75,356.52c-3.76,4.73-8,9-11.95,13.61a59.28,59.28,0,0,0-5.69,7.51,23.45,23.45,0,0,0-3.17,10c-.86,7.92-1.15,16-1.34,23.94-.07,2.79.33,5.9,3.19,7.18a7.15,7.15,0,0,0,7.17-1.2c2-1.63,2.87-4.41,3.58-6.82a43.24,43.24,0,0,0,1.65-8.19c.16-1.78-2.62-1.77-2.78,0a36.91,36.91,0,0,1-1.19,6.15,18.77,18.77,0,0,1-2.18,5.82c-1,1.5-3.35,2.51-5.11,1.72a3.16,3.16,0,0,1-1.55-2.94c-.1-1.63,0-3.3.1-4.93.25-6.9.49-13.86,1.24-20.73a20.34,20.34,0,0,1,3.14-9.16,62.39,62.39,0,0,1,5.13-6.66c3.86-4.49,8-8.71,11.72-13.35,1.1-1.38-.85-3.36-2-2Z"/><path class="cls-13" d="M274.1,360.35c-3.28,6.21-8.9,10.76-12.07,17.07-3,6-4.34,12.62-5,19.25-.34,3.47-.48,6.95-.56,10.44s-.55,7.22.82,10.41c1.16,2.68,3.76,4.67,6.78,4.15,3.37-.59,5.35-3.55,6.47-6.54a113.27,113.27,0,0,0,3.64-12.64q1.62-6.53,2.79-13.15c.31-1.75-2.36-2.5-2.67-.74a199.86,199.86,0,0,1-4.93,21c-.83,2.81-1.49,6.67-4,8.52-2.69,2-5.22-.08-5.9-2.88-.71-3-.27-6.39-.18-9.41s.23-6.27.54-9.39a50.31,50.31,0,0,1,4.59-17.64c3.16-6.32,8.79-10.86,12.07-17.08.84-1.57-1.56-3-2.4-1.4Z"/><path class="cls-13" d="M291.36,360.46q-5.12,7.8-10.24,15.61c-3,4.53-6,9.29-7.07,14.67-1.13,5.61.12,11.22,2.21,16.44,1,2.58,2.19,5.13,3.44,7.62,1,2,2.59,3.94,5.1,3.81,5.16-.25,7.11-6.65,7.25-10.86.19-5.69-1.83-11.18.65-16.65A49.66,49.66,0,0,1,297,384c1.5-2.25,3-4.46,4.64-6.64q4.94-6.74,10.47-13,6.07-6.9,12.8-13.19,3.43-3.21,7-6.25c1.83-1.55,4.6-3.88,2.92-6.53-1-1.5-3.36-.11-2.4,1.4.5.79-.94,1.87-1.48,2.32-1,.85-2,1.69-3,2.56-1.92,1.67-3.82,3.39-5.67,5.14q-5.49,5.18-10.56,10.79a191,191,0,0,0-18.36,23.83c-2.84,4.37-5,8.72-4.75,14,.2,4.67,1.8,10-.46,14.4-.81,1.58-3.11,4.2-4.9,2.34a10.55,10.55,0,0,1-1.59-2.74c-.6-1.26-1.19-2.51-1.76-3.78-2.14-4.82-3.92-10.06-3.42-15.41.54-5.71,3.76-10.76,6.82-15.44,3.48-5.33,7-10.65,10.48-16,1-1.5-1.42-2.89-2.4-1.4Z"/><path class="cls-13" d="M299.55,357l4.26-4.26a1.39,1.39,0,1,0-2-2L297.58,355a1.39,1.39,0,0,0,2,2Z"/><path class="cls-13" d="M279.43,355.2l6.62-5a1.55,1.55,0,0,0,.64-.83,1.42,1.42,0,0,0-.14-1.07,1.39,1.39,0,0,0-1.9-.5l-6.62,5a1.51,1.51,0,0,0-.64.83,1.43,1.43,0,0,0,.14,1.07,1.4,1.4,0,0,0,1.9.5Z"/><path class="cls-25" d="M249.39,110.39c1.49-7.1,7.52-17.81,10.82-24.28,3.52-6.9-20.34-20.62-14.7-25.8-10.15,5-36.45,20.87-45.37,55.53-2.32,9,6.81,17.69,20.28,30.11a69.74,69.74,0,0,1,10.05,10.88c-1.36-6.31,15.78-3.91,14.43-10.22C242.21,134,246.74,123,249.39,110.39Z"/><path class="cls-26" d="M294.49,88.82s1.32-8.45,17.7-3.69S439,127.39,439,127.39"/><path class="cls-27" d="M439,132.4S418.7,126.22,420,121s20.67,1.74,20.67,1.74Z"/><path class="cls-28" d="M436.1,117.81c2.79,1.3,6.38,8.5,3.56,18.36-3.69,12.92-8.39,17.35-14.86,17.56-5.92.2-10.1-4.47-13.19-11.93-3.78-9.13-6.23-20,5.95-23C428.66,116.11,432.41,116.11,436.1,117.81Z"/><path class="cls-26" d="M436.1,117.81c2.79,1.3,6.38,8.5,3.56,18.36-3.69,12.92-8.39,17.35-14.86,17.56-5.92.2-10.1-4.47-13.19-11.93-3.78-9.13-6.23-20,5.95-23C428.66,116.11,432.41,116.11,436.1,117.81Z"/><path class="cls-29" d="M340.72,232.87c-24.59-2.85-39.08-18.27-57.94-34.3-14.48-12.31-30.42-41.22-36.56-59.14-1.64,6.58-5.52,39.25-5.17,46,5.27,14,14.76,33.59,30.43,44.26,22.11,15,36.12,29.57,74.69,27.84,23.46-1,28.29-9.67,28.86-18.4C366.74,236.3,351.53,234.13,340.72,232.87Z"/><path class="cls-11" d="M347.46,207.32a115.43,115.43,0,0,1-47.24-11.59c-7.33-3.57-14.34-8-20-13.84s-9.92-13.51-11.12-21.57c8.28,16.06,22.88,26.33,38.94,32.17,8,2.91,16.26,6.3,24.69,7.65s23.46.63,31.91-.26c28-3,51.93-15.39,69.76-37.06-.36-.7-.84-9.36-1.43-10s-1.74-1.74-3-2.88c-18.2.14-39.44,6-61.75,8-32.5,2.92-54.6-1-84.72-13.53-4.66-1.95-13.73-8.71-18.76-9.18s-23.66-11.54-27.19-7.93C234.88,130,244,161.33,243,165c0,.09,0,.19-.07.29a107.11,107.11,0,0,0,31.92,46.4c18.86,16,42.85,25.61,67.44,28.46a107,107,0,0,0,32.7-1c.38-5.62-1-11.28-.31-15,1.51-8,3.11-15,6.12-19.29l-2.45.31C368.13,206.49,357.8,207.6,347.46,207.32Z"/><path class="cls-29" d="M382.63,202.82c4.22-3.77,17.18-2.06,33.82-18,15-14.37,21.32-23.49,17.94-30-17.83,21.67-44.14,36.47-72.1,39.42a96.58,96.58,0,0,1-25.42-.57,133.83,133.83,0,0,1-24.64-6.83c-16.05-5.83-32.13-13.48-43.14-26.54,1.2,8.06,5.46,15.71,11.12,21.57s12.68,10.27,20,13.84a115.43,115.43,0,0,0,47.24,11.59c10.34.28,20.67-.83,30.93-2.13l2.45-.31A12.44,12.44,0,0,1,382.63,202.82Z"/><path class="cls-3" d="M243,165.27a96.17,96.17,0,0,1-4.11-16.73A96.17,96.17,0,0,0,243,165.27c0-.1.05-.2.07-.29.93-3.65,2.24-7.35,4.87-10,3.53-3.61,9-4.83,14-4.35s9.78,2.43,14.44,4.37c30.11,12.57,61.59,25.95,94.09,23,22.31-2,43.51-12.41,59.5-28.06-9.78-8.66-34.07-26.46-37.5-30.43-3.88-4.5-13.08-17.42-17.32-22.1s-22.84-23.9-39.23-31.31-48.19-22.88-86.32-7.57c0,0-1.52.56-4.05,1.79-5.64,5.18-10,12.06-13.49,19a82.33,82.33,0,0,0-7.66,20.33c-2.65,12.61-.85,25.73,1.84,38.34,1.34,6.31,2.91,12.58,4.27,18.89,3.62,5.19,4.18,9.06,6.09,15.25.87,2.84,2.32,7.63,4.49,13.38A68.93,68.93,0,0,1,243,165.27Z"/><path class="cls-27" d="M293,194.49l2.72,9.23c.62,2.09,1.15,5.83,4.08,5.67,2.22-.12,4.44-2.12,6.12-3.39s3.81-3,6.18-3.2l-1.39-1.39a66.57,66.57,0,0,0,4,19.43,1.41,1.41,0,0,0,2.32.62l16.63-15-2.18-.28c3.18,7.15,3.1,15.25,6,22.49.41,1,1.94,1.5,2.54.33l10.34-19.95H348c3.51,7.11,7.34,14,11.15,21a1.39,1.39,0,0,0,1.9.49c1.55-1.15,2-2.81,2.64-4.55.79-2.14,1.65-4.24,2.57-6.32a119.42,119.42,0,0,1,6-11.75,1.39,1.39,0,0,0-2.4-1.4,117.09,117.09,0,0,0-5.65,10.9c-.82,1.8-1.59,3.61-2.32,5.45-.37.93-.73,1.87-1.08,2.81-.28.77-.51,1.95-1.2,2.47l1.9.49c-3.81-7-7.64-13.9-11.16-21a1.39,1.39,0,0,0-2.39,0L337.63,227.6l2.54.33c-3-7.47-3-15.76-6.29-23.15a1.41,1.41,0,0,0-2.19-.28l-16.63,15,2.32.62a64.06,64.06,0,0,1-3.87-18.7,1.4,1.4,0,0,0-1.39-1.39c-4.3.42-7.06,3.56-10.56,5.69a9.59,9.59,0,0,1-1.26.69c-.64.24-.77.13-1-.48-.48-1.25-.77-2.6-1.15-3.88l-2.44-8.28a1.39,1.39,0,0,0-2.68.73Z"/><path class="cls-4" d="M199,121.1c4.55-26.06,24.56-52.17,52.56-63.43S316.31,52,346.36,72.5s34.51,34.07,44.95,45.8,39.83,26.27,43.53,38.24-35,58.27-97.84,49.72-68.35-44.75-68.35-44.75"/><path class="cls-4" d="M382.63,202.82s-7.28,7.87-8,22.91,3.22,32.58-30.84,31.81-65-16.92-82.38-38.32-22.94-37.38-26.88-55.7"/><path class="cls-13" d="M267.38,163.31c5.59,15.91,14.43,30.76,26.49,42.61a87.34,87.34,0,0,0,45.26,23.89,75.86,75.86,0,0,0,29.42-.35c1.75-.37,1-3.05-.74-2.68-16.67,3.58-34.32.72-49.53-6.78-14.79-7.3-27.06-19-36.07-32.7a114.19,114.19,0,0,1-12.15-24.72c-.59-1.68-3.27-1-2.68.73Z"/><path class="cls-13" d="M373.91,204.85a50.76,50.76,0,0,0-6,22.35c-.06,1.79,2.72,1.79,2.77,0a47.92,47.92,0,0,1,5.59-20.95c.85-1.58-1.55-3-2.39-1.4Z"/><path class="cls-13" d="M276.55,160.71c-1.76-.6-3.13-2-5-2.45a5.77,5.77,0,0,0-5.46,1.64,13.57,13.57,0,0,0-3.12,5.32,21.12,21.12,0,0,0-1.21,6.86,1.39,1.39,0,0,0,2.78,0,18.83,18.83,0,0,1,.95-5.67A11.17,11.17,0,0,1,268,162a3,3,0,0,1,3.43-.89c1.55.61,2.82,1.74,4.42,2.28s2.43-2.11.74-2.68Z"/><path class="cls-30" d="M280.83,129.09a23.52,23.52,0,0,0-.36,4.07c0,10.73,7.29,19.42,16.27,19.42,6.72,0,12.49-4.86,15-11.79A46.44,46.44,0,0,1,280.83,129.09Z"/><ellipse class="cls-27" cx="292.69" cy="137.12" rx="5.81" ry="8.19"/><ellipse class="cls-30" cx="295.09" cy="143.87" rx="2.41" ry="2.74"/><path class="cls-3" d="M296.74,113.75c-7.81,0-14.33,6.57-15.91,15.34a46.44,46.44,0,0,0,30.88,11.7,22.59,22.59,0,0,0,1.31-7.63C313,122.44,305.73,113.75,296.74,113.75Z"/><path class="cls-4" d="M282.78,143.13a22.12,22.12,0,0,1-2.31-10,22.53,22.53,0,0,1,1.08-7"/><path class="cls-4" d="M285.45,119.19a15,15,0,0,1,11.29-5.44c9,0,16.28,8.69,16.28,19.41,0,7.19-3.28,13.47-8.14,16.82"/><path class="cls-13" d="M279.94,129.9c8.1,8.22,20.41,12.47,31.83,12.1,1.78-.05,1.79-2.83,0-2.77-10.72.34-22.26-3.57-29.86-11.29-1.26-1.28-3.22.69-2,2Z"/><path class="cls-31" d="M347.76,135.05c-4.31,2.65-13,7.4-12.71,23.25s6.11,23.51,16.15,24.3,21.11-.72,32.49-19.81c7.66-12.86,19.28-39.29,0-36.92S353.43,131.56,347.76,135.05Z"/><path class="cls-26" d="M190.54,113.19s1.33-8.46,17.7-3.7,126.81,42.27,126.81,42.27"/><path class="cls-26" d="M347.76,135.05c-4.31,2.65-13,7.4-12.71,23.25s6.11,23.51,16.15,24.3,21.11-.72,32.49-19.81c7.66-12.86,19.28-39.29,0-36.92S353.43,131.56,347.76,135.05Z"/><path class="cls-27" d="M335.05,156.77s-20.29-6.19-19-11.44,20.67,1.73,20.67,1.73Z"/><path class="cls-27" d="M393.08,128.69c2.35-2.12,4.69-3.83,8-3.93a12.6,12.6,0,0,1,4.88.58c.13.06.89.48,1,.56s.59.55.84.8c1.23,1.3,3.2-.67,2-2-2.29-2.4-5.47-2.86-8.68-2.76a12.79,12.79,0,0,0-6,1.63,23.87,23.87,0,0,0-4,3.11c-1.33,1.2.63,3.16,2,2Z"/><path class="cls-27" d="M395.22,138.75a17.62,17.62,0,0,1,13.55-4.66,1.39,1.39,0,1,0,0-2.78,20.28,20.28,0,0,0-15.51,5.48c-1.3,1.23.66,3.19,2,2Z"/><path class="cls-13" d="M399.13,168.83a8.56,8.56,0,0,0,2.34,3.32,5.35,5.35,0,0,0,3.56,1.58,2.41,2.41,0,0,0,2-1.17,2.9,2.9,0,0,0-.24-2.82,8.72,8.72,0,0,0-2.62-2.85,8.54,8.54,0,0,0-4.13-1.49,1.4,1.4,0,0,0-1.39,1.39,4.93,4.93,0,0,0,2.81,4.46,1.58,1.58,0,0,0,1.07.14,1.44,1.44,0,0,0,.83-.64,1.41,1.41,0,0,0-.5-1.9,3.17,3.17,0,0,1-.45-.23l-.17-.12c-.14-.09.23.2.05,0l-.37-.35s-.19-.24,0-.06,0-.06-.06-.1-.16-.26-.23-.4.1.29,0,0c0-.06-.05-.13-.07-.2s-.06-.3-.1-.44c.1.33,0,.17,0,0a2.09,2.09,0,0,1,0-.25l-1.38,1.39.17,0c-.24,0-.25,0-.11,0l.33.07a5.71,5.71,0,0,1,.71.19l.33.11c.32.12-.25-.11.06,0a6.77,6.77,0,0,1,.66.33l.58.37.14.11s-.26-.21-.08-.06l.3.25a5.55,5.55,0,0,1,.49.48c.07.08.14.15.2.23l.11.13c.2.24-.18-.26,0,0a5.13,5.13,0,0,1,.38.57,3.07,3.07,0,0,1,.17.31,1.38,1.38,0,0,0,.08.17c-.09-.07-.08-.23,0,0,0,.05.08.25,0,.05s0-.07,0,0a.74.74,0,0,1,.09-.36c-.1.18.11-.12.12-.12a.38.38,0,0,0-.09.09c.12-.19.25-.18.13-.12.37-.19.25-.09.16-.06s-.2,0,.11,0h-.28a.33.33,0,0,0-.14,0s.36.07.15,0l-.25-.06-.13-.05c-.16,0,.3.15.1,0s-.41-.21-.61-.34l-.29-.2-.15-.1c.15.12.19.14.11.08l-.11-.08c-.2-.17-.4-.36-.59-.55l-.27-.3-.11-.13c-.13-.16,0-.08,0,0-.13-.23-.31-.43-.45-.66l-.21-.4c-.05-.08-.25-.54-.08-.15a1.56,1.56,0,0,0-.64-.83,1.43,1.43,0,0,0-1.07-.14,1.41,1.41,0,0,0-1,1.71Z"/><path class="cls-32" d="M284.47,102.09c3.42,2.48,3,.27,9.39-3.17s12.45-3.17,17.85,0,7.82-3.43,6.74-7.92-10.24-14.27-23.36-5S282.61,100.75,284.47,102.09Z"/><path class="cls-26" d="M284.47,102.09c3.42,2.48,3,.27,9.39-3.17s12.45-3.17,17.85,0,7.82-3.43,6.74-7.92-10.24-14.27-23.36-5S282.61,100.75,284.47,102.09Z"/></g></svg>