<svg xmlns="http://www.w3.org/2000/svg" xmlns:xlink="http://www.w3.org/1999/xlink" viewBox="0 0 600 600"><defs><style>.cls-1{fill:#ffce55;}.cls-2{fill:#6fb7d6;}.cls-3{fill:#f1f3f3;}.cls-4{fill:#ff6161;}.cls-5{fill:#606060;}.cls-6{fill:#282828;}.cls-7{fill:#d13d3d;}.cls-13,.cls-17,.cls-18,.cls-19,.cls-20,.cls-22,.cls-25,.cls-8,.cls-9{fill:none;}.cls-8{stroke:#030304;}.cls-13,.cls-17,.cls-19,.cls-20,.cls-25,.cls-8,.cls-9{stroke-linecap:round;stroke-linejoin:round;}.cls-13,.cls-17,.cls-25,.cls-8{stroke-width:2.77px;}.cls-13,.cls-9{stroke:#1b5186;}.cls-20,.cls-9{stroke-width:3.33px;}.cls-10{fill:#dedbe1;}.cls-11{fill:#f2f3f2;}.cls-12{fill:#1d1d1b;}.cls-14{fill:#1b5186;}.cls-15{fill:#0080ca;}.cls-16{fill:#3c3c3b;}.cls-17,.cls-19,.cls-20,.cls-22{stroke:#1d1d1b;}.cls-18{stroke:#6fb7d6;stroke-width:0.56px;}.cls-18,.cls-22{stroke-miterlimit:10;}.cls-19,.cls-22{stroke-width:2.22px;}.cls-21{fill:url(#Degradado_sin_nombre_12);}.cls-23{fill:url(#Degradado_sin_nombre_12-2);}.cls-24{fill:#fbb03b;}.cls-25{stroke:#8e6a2b;}</style><linearGradient id="Degradado_sin_nombre_12" x1="8261.88" y1="163.72" x2="8261.88" y2="132.65" gradientTransform="matrix(-1, 0, 0, 1, 8506.83, 0)" gradientUnits="userSpaceOnUse"><stop offset="0" stop-color="#00cdf9"/><stop offset="1" stop-color="#b135f5"/></linearGradient><linearGradient id="Degradado_sin_nombre_12-2" x1="314.04" y1="168.55" x2="314.04" y2="134.27" gradientTransform="matrix(1, 0, 0, 1, 0, 0)" xlink:href="#Degradado_sin_nombre_12"/></defs><g id="Capa_3" data-name="Capa 3"><g id="a"><rect class="cls-1" width="600" height="600"/></g></g><g id="Capa_2" data-name="Capa 2"><path class="cls-2" d="M229.84,215.34S259,295,303.93,299.08s92-57.7,95.13-65.8-2.51-27.59-2.51-27.59-5.14-62-10.84-99.07c-4.44-28.83-17.47-51.7-65.32-52.67s-62,32.3-63.73,38.09S232.16,208,229.84,215.34Z"/><path class="cls-3" d="M247.9,176.81l15,67.7s18.45,13.44,27.67,26.36,20.56,44,28.47,43.22S360.54,260,360.54,260l13.19-89.67S344.79,219,313.84,220.86C266.84,223.76,259.5,196.05,247.9,176.81Z"/><path class="cls-4" d="M260.17,499.2l2-25.4s19.38,12.94,52.32,12.94S367.73,472,367.73,472v26.79s11.32,6.15,22.06,5.3,19.62-2.3,19.62-2.3l-3.58,101.16h-179l-5.94-100.87s5.44,2.58,19.62,1.72S260.17,499.2,260.17,499.2Z"/><path class="cls-5" d="M262.79,473.59s14.82,13.7,49.21,13.7,54.32-13.47,54.32-13.47l-1.7-67.66-48.2-6.11-50.35,19.57Z"/><path class="cls-4" d="M266.07,419.62s-2.38,30.78-2.83,38.13-3.4,42.09-3.4,42.09-9.5,5.55-25,4.42-24.44-4.75-24.44-4.75-7.58-30.33-8.94-40.85a133.64,133.64,0,0,1-1-19.69s1.81,2.72,7.81,2.26S266.07,419.62,266.07,419.62Z"/><path class="cls-4" d="M347.07,389.92s-6.1-19.42-5.53-35.86,3.54-23.67,3.54-23.67-36.71,8.22-42.94,11.19-32.6,13.89-39.55,19.42-6.66,13.33-9.07,16.16-5.1,3.54-5.81,2.41-2-10.49-2-10.49l1-8.36s-5.39,11.48-11.06,14-5.67.57-6.09-1.13.56-6.67.56-6.67-4.67,5.82-8.07,3,1.7-11.48,3-14,5-10.77,5-10.77-6.94,1.56-8.08.56,4.4-7.65,4.4-7.65l2.69-2.13s25.09-12.61,32-13.32,4.68-.42,4.68-.42L254,259.66s-17.72-18.14-21-23.81-.71-18.71-.71-18.71L231.69,205s-9.92,8.36-12.47,12.47A25.67,25.67,0,0,0,216,225.5l-46.63,37.56s-16.3-1.13-24.1,21.69,6,61.65,19.14,96.66,32.46,55.28,37.13,58.26,11.77,1.27,14.46.56S313.05,399,347.07,389.92Z"/><path class="cls-4" d="M369.18,318.91l12.47-61.38s13.75-12.89,17.15-21.68S400,216.68,400,216.68l-2-13.31s10.85,7,13.26,10.65,5.53,12.47,5.53,12.47L447,246.2a24.39,24.39,0,0,1,24.24,5.1c11.62,10.2,15.45,30.05,8.36,65.05s-23,94.12-23.81,96.1a16.4,16.4,0,0,1-3.26,4.25s-16.16-.42-18.57-.7l-2.41-.29s-2.83,32.32-5.38,44.65-8.37,39.12-8.37,39.12A101.65,101.65,0,0,1,397.38,504c-10.2,1-29.34-4-29.34-4l-3.68-93.13L314,400.12l32.46-9.92s-3.83-27.36-4.39-33.31-.29-15-.29-15l.85-1.28L396,353.77l5.38-21.4S394,321.6,384.77,318.76,369.18,318.91,369.18,318.91Z"/><path class="cls-5" d="M310.05,286.66S303.36,269.77,278,256s-46.07-39.3-46.07-39.3-.27,13.28,2.26,19.7,20.23,25.11,20.23,25.11l7.5,35.77,3,24.66a234.17,234.17,0,0,1,23.31,8,203.43,203.43,0,0,1,20,10.39l7.32-1.27L347.35,329s10.21-7.5,13.37-8.59,9-2.25,9-2.25l10.75-60.25s15.18-15.36,17.8-22.95a40.91,40.91,0,0,0,2.26-14.09S345.73,261,335.61,270.31s-20.78,38.57-20.78,38.57Z"/><path class="cls-6" d="M264,440.42s18-10.36,50.16-10.36,51.27,13.14,51.27,13.14l-1.07-36.28L317.68,400l-52.85,21.19Z"/><path class="cls-6" d="M255.07,263.21l7.33,38.27s-1.25-12.68,21.87-13.55,29.57,16,29.57,16-2-13.54-2.61-14.78-8.82-11.68-22.12-17.4-18.89,4.35-19.26,5.34-2.23,4.48-2.23,4.48S263.89,269.55,255.07,263.21Z"/><path class="cls-6" d="M314.83,305.83s-1.49-15.29,18.14-27.71,24.85-7.46,27.21-5.22,4.35,8.82,4.35,8.82l15.41-22.49-7.21,34.17s-3.1-5.84-21.86-7.2S314.83,305.83,314.83,305.83Z"/><path class="cls-7" d="M246.56,294.53a267.12,267.12,0,0,0-17.76-25.21s-7.3-27.07-5-40.25,8.88-14.32,8.88-14.32l-.14-11.32s-15,11.18-19.05,30.65,9.64,49.49,9.64,49.49L239,298.25s-2.86,14.47-4.72,22.92-2.87,12.6-2.87,12.6l9.17-3.87s1.72-11.74,3.29-16,9.46,0,9.46,0S253.87,306.7,246.56,294.53Z"/><path class="cls-7" d="M179.75,265.14s-15.12,6.68-18.06,28.66,37.11,106.61,45,118.2,44,1,72.84-9.62,66.95-17.87,66.95-17.87l.39,4.71s-39.27,12.17-69.31,25.33-64.59,29.06-72.25,25.91-26.5-20.81-42.8-65.57-23.75-76.77-15.11-95.61S179.75,265.14,179.75,265.14Z"/><path class="cls-7" d="M223.33,283.2c-.46-.7-11.2-20.31-10.85-35.37s1.28-20.08,1.28-20.08l-44.83,35.49s5.61.7,8.41.94a14.46,14.46,0,0,1,4.55,1.05s8.41-5.84,14.59-9.46,16,18.45,18.21,29.3l14.48,49.85,2.21-1.15s5.85-27.68,6-30.25.47-6.54.47-6.54S223.8,283.9,223.33,283.2Z"/><path class="cls-7" d="M387.05,294.53a269.19,269.19,0,0,1,17.76-25.21s7.31-27.07,5-40.25-8.88-14.32-8.88-14.32l-2.34-11.34s17.53,11.2,21.54,30.67-9.65,49.49-9.65,49.49l-12.17,11.84s-.81,17.31,1.05,25.76,2.86,12.6,2.86,12.6l-9.16-3.87s-1.72-11.74-3.3-16-9.45,0-9.45,0S379.75,306.7,387.05,294.53Z"/><path class="cls-7" d="M418.27,226.49,445.13,246a69.24,69.24,0,0,0-23.79,29.63c-8.13,19.65-20.26,55.11-20.26,55.11l-6-7.37-2.3-24.56,18.73-16.12s9.36-17,10-34.54S418.27,226.49,418.27,226.49Z"/><path class="cls-8" d="M397.89,203.41s16.66,5.83,21.54,30.67-11.05,55.45-11.05,55.45-20.34,5.21-28.77,24.33"/><path class="cls-7" d="M222.1,436.71c-14,5-17.52,5.41-20.69,1.87v13.05s38.39,6.89,61.88-10.07l1.64-21.74S236.07,431.68,222.1,436.71Z"/><path class="cls-7" d="M222.34,519s26.25,4.74,44-3.71l2.67-15s32,8,86.89.14l1.48,13.65s22.84,7.26,51.16.29l.44-11.71s-5,2.22-20,.89-21.5-5-21.5-5l-.74-24.77s-20.16,12.9-50.71,12.9a116.16,116.16,0,0,1-54-13.93l-2.24,27.1s-12,3.44-21.34,3.59a166.17,166.17,0,0,1-16.9-.59Z"/><path class="cls-7" d="M364.62,406.16l1,19.19s21.62,14.91,63.93,7.26l2-16.9Z"/><path class="cls-7" d="M341.2,392s93.56,11.74,96.73,12.3,18.45-46.41,30.57-91.7-2.43-75.67-30-61.51c0,0,5.59-10.25,25-5.4s19,33.36,17,60.39-25.72,108.85-27,110-7.83,1.67-20.69-.38-116.29-15.6-116.29-15.6Z"/><path class="cls-9" d="M252.61,109.79,259,86.25s12.4-37.31,66-32.49c50,4.5,60.92,30.56,62.65,66.65s11.39,101.1,11.39,101.1"/><path class="cls-10" d="M273.13,252.49l-4.3-43.82a59.88,59.88,0,0,0,38.55,13.21c29.26-.58,54.2-29.81,54.2-29.81l-8.83,66s-25.69,20.41-28.06,23.85-9,21.27-9,21.27a151.94,151.94,0,0,0-12-26.21c-8.16-14.18-30.51-24.49-30.51-24.49"/><path class="cls-3" d="M242.67,158.79s4.66-8.68,9.14-12.64,13.88-3.39,20.07,1.09,11.88,4,23.58,0,35.65,15.4,59.76-.82,28.3,12.05,14.34,31.92S334.23,225,296.65,221.51,243.48,176,242.67,158.79Z"/><path class="cls-11" d="M263.61,120.23a13.79,13.79,0,0,1,0,2.41c-.44,6.31-5,11.13-10.19,10.76-3.88-.27-8.83-5-8.83-12.1C251.12,121.81,258.46,124.29,263.61,120.23Z"/><ellipse class="cls-12" cx="257.01" cy="123.46" rx="4.83" ry="3.36" transform="translate(115.81 371.16) rotate(-85.97)"/><ellipse class="cls-11" cx="259.4" cy="127.16" rx="1.61" ry="1.39" transform="translate(114.34 377) rotate(-85.97)"/><path class="cls-2" d="M255.07,110.56c4.5.32,8,4.45,8.54,9.67-5.15,4.06-11.14,2.26-17.63,1.75-.39-1.41-1-1.14-.68-2.71C246.15,114.7,249.88,110.2,255.07,110.56Z"/><path class="cls-13" d="M261.91,128.41a13.32,13.32,0,0,0,1.74-5.77,13.7,13.7,0,0,0-.33-4.13"/><path class="cls-13" d="M261.36,114.22a8.6,8.6,0,0,0-6.29-3.66c-5.19-.36-9.75,4.45-10.19,10.76a12.07,12.07,0,0,0,4,10.22"/><path class="cls-14" d="M262.58,119.15c-2.3,2-5.63,2.66-8.62,2.65a15.19,15.19,0,0,1-8.46-2.2c-1.49-1-2.88,1.4-1.4,2.39a18,18,0,0,0,10.11,2.59c3.69,0,7.52-1,10.34-3.47,1.34-1.19-.63-3.14-2-2Z"/><path class="cls-2" d="M396.66,353.57h-3.22L343.28,340.9s-1.83-12.57,11.49-17.3S378.3,317.16,389,321a17.32,17.32,0,0,1,11.71,13.65Z"/><path class="cls-15" d="M343.81,336.28s27.61-12.89,55.32.86l-2.57,15.46-7.84-.21-46.05-11.8Z"/><path class="cls-8" d="M229,339.4s6.75-15.2,9.46-41.51"/><path class="cls-8" d="M230,337.68s-7.87-29-12.54-44.52-15.74-22.87-21.89-23.61"/><line class="cls-8" x1="167.17" y1="263.74" x2="215.8" y2="225.12"/><path class="cls-11" d="M365.48,122a14.5,14.5,0,0,1,0,2.64c-.48,6.9-5.48,12.18-11.15,11.78-4.24-.3-9.67-5.46-9.67-13.25C351.81,123.72,359.84,126.44,365.48,122Z"/><ellipse class="cls-12" cx="356.13" cy="125.44" rx="5.28" ry="3.68" transform="translate(206 471.88) rotate(-85.97)"/><ellipse class="cls-11" cx="358.76" cy="129.49" rx="1.77" ry="1.52" transform="translate(204.4 478.27) rotate(-85.97)"/><path class="cls-2" d="M356.13,111.41c4.93.35,8.75,4.87,9.35,10.58-5.64,4.45-12.19,2.48-19.3,1.91-.42-1.54-1.06-1.24-.74-3C346.37,115.94,350.45,111,356.13,111.41Z"/><path class="cls-13" d="M363.62,131a14.62,14.62,0,0,0,1.9-6.32,15,15,0,0,0-.36-4.52"/><path class="cls-13" d="M363,115.42a9.4,9.4,0,0,0-6.88-4c-5.68-.4-10.67,4.87-11.16,11.78a13.21,13.21,0,0,0,4.38,11.18"/><path class="cls-14" d="M364.45,120.9c-2.55,2.26-6.22,2.95-9.53,2.95a16.84,16.84,0,0,1-9.33-2.44c-1.49-1-2.88,1.4-1.4,2.4,3.14,2.12,7.26,2.85,11,2.81,4,0,8.17-1.05,11.22-3.76,1.34-1.18-.63-3.14-2-2Z"/><path class="cls-16" d="M361.28,88.38c-3.52-.41-2.35,1.06-5.58,6.17s-7.81,7.42-13.06,7.31-4.31,5.72-1.68,8.56,13.34,6.24,19.15-5.9S363.19,88.6,361.28,88.38Z"/><path class="cls-17" d="M361.28,88.38c-3.52-.41-2.35,1.06-5.58,6.17s-7.81,7.42-13.06,7.31-4.31,5.72-1.68,8.56,13.34,6.24,19.15-5.9S363.19,88.6,361.28,88.38Z"/><path class="cls-16" d="M249.74,93.14c2.6-1.4,1.86.32,4.79,4.18s6.58,4.71,10.52,3.09,3.79,4.12,2.09,7.55-9.41,9.7-14.95,0S248.33,93.9,249.74,93.14Z"/><path class="cls-17" d="M249.74,93.14c2.6-1.4,1.86.32,4.79,4.18s6.58,4.71,10.52,3.09,3.79,4.12,2.09,7.55-9.41,9.7-14.95,0S248.33,93.9,249.74,93.14Z"/><path class="cls-14" d="M235.51,204.39l14.32,14S237.4,216.35,235.51,204.39Z"/><path class="cls-14" d="M237.48,193.81l14.33,14S239.37,205.77,237.48,193.81Z"/><path class="cls-14" d="M239.35,182.74l14.33,14S241.24,194.7,239.35,182.74Z"/><path class="cls-14" d="M394.32,204.39l-14.32,14S392.43,216.35,394.32,204.39Z"/><path class="cls-14" d="M392.35,193.81l-14.33,14S390.45,205.77,392.35,193.81Z"/><path class="cls-14" d="M390.48,182.74l-14.33,14S388.59,194.7,390.48,182.74Z"/><path class="cls-8" d="M264.82,322.1s-4.55-33.36-10.7-60.66"/><path class="cls-8" d="M369.59,319.09s4.54-31.83,10.68-59.13"/><line class="cls-8" x1="418.92" y1="227.66" x2="446.61" y2="245.4"/><path class="cls-8" d="M431.26,260.23s8.15-19.49,28.38-14.8,27.15,24.92,19.74,70.33S454,416,454,416s.24,1.73-9.63,1c-6.2-.46-127.59-16.78-127.59-16.78"/><path class="cls-9" d="M345.31,330.86s9.45-11.28,29-12.35,26.48,13.9,26.48,13.9"/><line class="cls-8" x1="343.02" y1="341.38" x2="397.29" y2="354.03"/><path class="cls-8" d="M395.7,354.43s8.91-4.12,31.86-.42"/><path class="cls-8" d="M396,354.51s9.13-47.14,28.13-84.9"/><path class="cls-8" d="M262.13,473.8s43.61,30.16,103.94,0"/><line class="cls-8" x1="314.63" y1="486.75" x2="314.63" y2="400.66"/><path class="cls-8" d="M200.25,438.51s1,36.64,9.84,60.74c0,0,22.13,10.33,50.17.5l4.67-79.93"/><path class="cls-8" d="M430.81,416.82s-4.48,58.33-13.33,82.43c0,0-22.13,10.33-50.17.5l-3.08-93"/><line class="cls-8" x1="238.57" y1="469.76" x2="247.49" y2="465.02"/><line class="cls-8" x1="353.08" y1="449.7" x2="360.88" y2="444.4"/><line class="cls-8" x1="354.2" y1="440.78" x2="359.49" y2="434.93"/><line class="cls-8" x1="221.02" y1="502.63" x2="226.42" y2="602.17"/><line class="cls-8" x1="311.01" y1="504.31" x2="311.01" y2="561.98"/><path class="cls-8" d="M321.88,503.47V551s-4.7,7.43-8.93,10.21-4.09,41.69-4.09,41.69"/><line class="cls-8" x1="409.08" y1="502.35" x2="406.3" y2="601.82"/><path class="cls-8" d="M231.81,216.6s10.51,16.18,32.53,30.36,46.53,23.72,50.37,59.24v31.15"/><path class="cls-8" d="M253.3,313.86c-8.43-19.12-28.77-24.33-28.77-24.33s-15.93-30.6-11.05-55.45,19.05-30.65,19.05-30.65"/><path class="cls-8" d="M314.88,307.35s4-26,33.2-46a591.22,591.22,0,0,0,52.56-40.83"/><path class="cls-8" d="M231.73,216.68S225.58,230,242.8,247.91s25.33,33.94,25.33,33.94,1-8.61,8.61-11.31,22.77,6.34,30.64,14.45"/><path class="cls-8" d="M401.07,219.83s3.11,12.46-11.29,28.08c-16.86,18.29-25.33,33.94-25.33,33.94s-1-8.61-8.61-11.31-21.24,5-29.11,13.12"/><path class="cls-8" d="M186,266.9a27.72,27.72,0,0,0-29.86,1.72c-25.83,18.33-7.25,74,8.49,112.34s33.94,59.27,41.07,60.25,33.7-10.32,60.5-21.88,62.95-25.19,80.66-29.13c0,0-9.67-35.23-1.93-60.37,0,0-30.28,5.88-67.42,22.11"/><path class="cls-18" d="M231.18,365.2a17.06,17.06,0,0,0,1-2S231.75,364,231.18,365.2Z"/><path class="cls-15" d="M252.53,330.86c0-3.47-13.35,1.63-18.7,4.9-4.43,2.71-10.45,5.86-12,9.73.55.66,2.32.6,6.6-.64a45.34,45.34,0,0,1,8.39-5.68C242.08,336.43,248,334.65,252.53,330.86Z"/><path class="cls-2" d="M261.57,361.63c7.53-6.06,17.38-12,25.83-16.71,4.6-2.56,11-4.86,14.46-8.83-10.74-5.68-33.84-16.65-43.21-13-13.89,5.35-34.61,12.76-35.57,17.08-.52,2.28-2,4.46-1.26,5.36q6.75-3.9,13.39-8c5.36-3.27,11-6.74,17.32-6.67-4.58,3.79-10.45,5.57-15.72,8.31a45.34,45.34,0,0,0-8.39,5.68c.86-.25,1.8-.54,2.87-.88A65.8,65.8,0,0,0,223,359.81c-1.46,4.32-2.45,7.14-2.38,8.82.48-.48,3.18,2.53,3.6,2,2.27-2.91,3.93-6,6-9.1C236.8,351.41,246,342,257,336.92c-3.2,4.41-9.27,5.47-13.66,8.69-4.16,3.05-6.59,7.88-8.67,12.6q-2.93,6.63-5.34,13.47c-.13.36-.25.73-.38,1.1,0,1.93.73,3.41,3.06,3.53a5.61,5.61,0,0,0,1.08-.08c.72-1.21,5-3.75,5.44-5.06,1.31-3.49,3.66-4.94,5.45-8.21,2.46-4.46,4.42-7.09,8.54-10.1,3.53-2.58,6.23-5.37,9.89-7.75,2.59-1.67,2.1-3.26,4.45-1.26-1.93,1.35-2.08,1.13-4.06,2.41a46.24,46.24,0,0,0-16,18.07c-.9,4-1.83,9.7-.82,13,.19-.7,3.13,2.63,3.33,1.94C251.44,371.9,255.55,366.47,261.57,361.63Z"/><path class="cls-15" d="M305.45,338.16s-3.48-2.16-8.64-4.89a46,46,0,0,1-12.22,9.91c-8.45,4.69-18.4,6.72-25.94,12.77-6,4.85-9.95,11.92-12.15,19.33-.2.69-.4,1.39-.59,2.09.59,2,1.87,3.13,4.25,2.61,9-2-.45-11.18,13.77-20s17.64-11.11,25.34-14.23S306.11,340.8,305.45,338.16Z"/><path class="cls-15" d="M234.62,358.21c2.08-4.72,4.51-9.55,8.67-12.6,4.39-3.22,10.46-4.28,13.66-8.69-11,5.08-22.56,10.65-29.23,20.77-2,3.08-3.53,6.51-5.8,9.41a16.12,16.12,0,0,1-1.34,1.53c.07,1.6,1.09,2.17,3.6,2,3.36-.23,5.75-3.32,7-5.43.57-1.19,1-2,1-2a17.06,17.06,0,0,1-1,2c-1,2-2.24,5.15-2.28,7.58.13-.37.25-.74.38-1.1Q231.7,364.84,234.62,358.21Z"/><path class="cls-15" d="M268.74,342.5c-2.35-2-5.92-.41-8.5,1.27q-5.49,3.57-10.79,7.43c-4.12,3-8.25,6.28-10.71,10.75-1.8,3.27-2.59,7-3.9,10.47a24.07,24.07,0,0,1-1.8,3.81c6.83-1.24,14.86-16.42,14.86-16.42s-.58,1.89-1.17,4.52a46.24,46.24,0,0,1,16-18.07C264.73,345,266.81,343.85,268.74,342.5Z"/><path class="cls-14" d="M306.15,337c-7.27-3.37-14.48-6.87-21.76-10.21-7.54-3.46-16.06-6.26-24.48-5.28-3.67.44-6.8,1.95-10.16,3.36-3.2,1.34-6.42,2.64-9.59,4-6.09,2.67-12.46,5.66-17.26,10.38-1.2,1.18-2,2.11-2.13,3.83-.1,1.5-.13,2.95,1.35,3.79,2.81,1.61,7.5.1,9.87-1.71,1.4-1.06,0-3.48-1.4-2.39a10.93,10.93,0,0,1-3.87,1.7,7.07,7.07,0,0,1-1.83.24,4.47,4.47,0,0,1-.82-.07c-.16,0-.68-.23-.62-.15a8.15,8.15,0,0,0,.08-1.12,1.43,1.43,0,0,1,.47-1.27,25.46,25.46,0,0,1,2.9-2.69c4.8-3.84,10.61-6.42,16.21-8.82,2.77-1.19,5.56-2.32,8.33-3.49,3.06-1.29,5.95-2.66,9.32-2.94,7.59-.63,15.2,1.77,22,4.89,7.36,3.36,14.63,6.9,22,10.3,1.61.75,3-1.64,1.4-2.39Z"/><path class="cls-14" d="M251.4,330.83c-4.12,2.33-8.48,4.2-12.67,6.39a41.46,41.46,0,0,0-6.51,4,18.47,18.47,0,0,0-4.9,6.22c-2.79,5.34-5.29,10.87-7.69,16.41-.94,2.19-1.65,4.77.27,6.67a5.86,5.86,0,0,0,5.5,1.29c2-.54,3.51-2.26,4.78-3.86a34.25,34.25,0,0,0,3.67-5.48c.81-1.58-1.58-3-2.4-1.4a31.24,31.24,0,0,1-2.53,4,15.22,15.22,0,0,1-3.26,3.62c-1.07.74-3.1.88-4-.3-.62-.85-.12-2,.24-2.9.51-1.27,1.1-2.52,1.66-3.77,2.11-4.69,4.17-9.51,6.72-14,2.32-4.08,6.22-6.28,10.28-8.37s8.24-3.91,12.2-6.16a1.39,1.39,0,0,0-1.4-2.39Z"/><path class="cls-14" d="M256.24,336.08a43.28,43.28,0,0,1-7.28,4.46,33.46,33.46,0,0,0-6.58,4.53,42.88,42.88,0,0,0-9.06,12.53c-1.18,2.33-2.25,4.71-3.28,7.11s-2.51,5.06-2.39,7.76a5.26,5.26,0,0,0,3.92,5.17c2.79.57,5.22-1.09,7-3.09a127.3,127.3,0,0,0,12-16.65c1-1.52-1.45-2.91-2.4-1.4a149.83,149.83,0,0,1-9.36,13.33c-1.41,1.79-3.14,4.66-5.58,5.1-2.68.47-3.13-2.36-2.59-4.33a51.59,51.59,0,0,1,2.78-6.82c.91-2,1.85-4,2.9-6a39.12,39.12,0,0,1,8-10.76c4.14-3.74,9.61-5.41,13.87-9,1.36-1.15-.61-3.1-2-2Z"/><path class="cls-14" d="M268.89,340.93q-6.06,4.2-12.1,8.4c-3.32,2.32-6.65,4.75-9,8.09s-3.36,7.75-3.5,12c-.07,2.23.05,4.45.2,6.67.11,1.76.28,3.74,1.84,4.86,3.36,2.41,7.43-1.14,9-4,2-3.56,2.06-8,4.42-11.35a18.63,18.63,0,0,1,4.73-4.29q2.75-1.94,5.58-3.73,5.79-3.68,11.89-6.81a142.55,142.55,0,0,1,14.24-6.34c2.38-.91,4.79-1.73,7.21-2.54,1.94-.64,3.77-1.81,3.39-4.1-.28-1.76-3-1-2.67.74.07.43-4.39,1.67-4.87,1.83q-2.87,1-5.68,2.13c-3.8,1.51-7.54,3.16-11.21,5A128.5,128.5,0,0,0,261.58,360a16.8,16.8,0,0,0-6.26,8.63c-1,3.16-1.53,7.11-4.31,9.3a3.91,3.91,0,0,1-2.31.94c-1,0-1.26-.8-1.38-1.67a44.43,44.43,0,0,1-.3-5.66c-.06-3.82.27-7.8,2.18-11.21,2-3.62,5.48-6.15,8.83-8.49,4.08-2.85,8.17-5.67,12.26-8.51,1.45-1,.07-3.42-1.4-2.4Z"/><path class="cls-14" d="M276.08,341.37l4.3-1.83a1.34,1.34,0,0,0,.64-.83,1.38,1.38,0,0,0-1-1.7l-.37-.05a1.34,1.34,0,0,0-.7.19l-4.3,1.82a1.42,1.42,0,0,0-.63.83,1.39,1.39,0,0,0,1,1.71l.36.05a1.32,1.32,0,0,0,.7-.19Z"/><path class="cls-14" d="M262.09,334.32l6.21-1.67a1.41,1.41,0,0,0,1-1.71,1.43,1.43,0,0,0-1.71-1l-6.2,1.68a1.38,1.38,0,1,0,.73,2.67Z"/><line class="cls-19" x1="257.74" y1="174.29" x2="264.61" y2="170.76"/><path class="cls-3" d="M253,164.92s20.32,11.65,49.47,12.26,60.59-20.4,60.59-20.4l3.77-3.15s-22.59,42.2-64.09,44S253,164.92,253,164.92Z"/><path class="cls-9" d="M242.67,161s12.61,55.83,54,60.5,71.3-36.76,77.08-51.22"/><line class="cls-9" x1="230.81" y1="215.53" x2="248.35" y2="131.65"/><path class="cls-9" d="M273.85,161s-7.3-9.29-7.73-18.62c-.39-8.59,11.05-14.28,22.11-20.21"/><path class="cls-19" d="M250.55,162.11c8.46,4.3,16.25,8.23,16.25,8.23s34.76,16,70.55.21c0,0,20.17-9.79,32.35-19.39"/><path class="cls-19" d="M250.55,162.11s10.29,32.68,50.94,35.45c37.21,2.53,68.21-46.4,68.21-46.4"/><polyline class="cls-19" points="265.24 170.65 270.72 185.93 280.22 175.13 290.69 196.17 301.13 177.63 312.06 196.55 321.74 175.65 333.87 187.99 338.7 171.28 347.72 177.51 353.09 162.11"/><path class="cls-19" d="M367.68,148.76s5,1.14,3.86,7"/><path class="cls-14" d="M291.56,146.8l-2.69,1.52a1.48,1.48,0,0,0-.64.83,1.43,1.43,0,0,0,.14,1.07,1.47,1.47,0,0,0,.83.64,1.53,1.53,0,0,0,1.07-.14L293,149.2a1.39,1.39,0,0,0,.5-1.9,1.37,1.37,0,0,0-.83-.64,1.48,1.48,0,0,0-1.07.14Z"/><path class="cls-12" d="M334.26,139.33s10.06-1.22,10.43-5.94-9.44-2.73-9.44-2.73Z"/><line class="cls-17" x1="336.27" y1="133.41" x2="385.18" y2="126.05"/><path class="cls-20" d="M263.44,127.34s18.22-9.46,31.36,0"/><path class="cls-20" d="M263.44,136s17.94-13.94,31.36,0"/><path class="cls-21" d="M255,121.77c7,1.44,11.52,8.71,10.1,16.13a68.28,68.28,0,0,1-3.46,12.62c-3.79,9.21-22.86,9.07-29.26,3.49-5.3-4.62-7-15.91-7.83-24.18a6.2,6.2,0,0,1,4-6.53A50.62,50.62,0,0,1,255,121.77Z"/><path class="cls-22" d="M255,121.77c7,1.44,11.52,8.71,10.1,16.13a68.28,68.28,0,0,1-3.46,12.62c-3.79,9.21-22.86,9.07-29.26,3.49-5.3-4.62-7-15.91-7.83-24.18a6.2,6.2,0,0,1,4-6.53A50.62,50.62,0,0,1,255,121.77Z"/><path class="cls-23" d="M303.6,122.26c-7.23,1.59-12,9.61-10.48,17.8A79.87,79.87,0,0,0,296.71,154c3.93,10.16,23.73,10,30.37,3.85,5.5-5.1,7.28-17.56,8.12-26.69a6.9,6.9,0,0,0-4.16-7.21A49.72,49.72,0,0,0,303.6,122.26Z"/><path class="cls-22" d="M303.6,122.26c-7.23,1.59-12,9.61-10.48,17.8A79.87,79.87,0,0,0,296.71,154c3.93,10.16,23.73,10,30.37,3.85,5.5-5.1,7.28-17.56,8.12-26.69a6.9,6.9,0,0,0-4.16-7.21A49.72,49.72,0,0,0,303.6,122.26Z"/><path class="cls-24" d="M249.88,341.87s9.23.23,10.83,6.6L253,354.41s-7.48-7.33-10.74-6.86Z"/><path class="cls-25" d="M249.88,341.87s9.23.23,10.83,6.6L253,354.41s-7.48-7.33-10.74-6.86Z"/></g></svg>