<svg xmlns="http://www.w3.org/2000/svg" xmlns:xlink="http://www.w3.org/1999/xlink" viewBox="0 0 600 600"><defs><style>.cls-1{fill:#fff;}.cls-2{fill:#007fcc;}.cls-3{fill:#6fb7d6;}.cls-14,.cls-16,.cls-18,.cls-20,.cls-4,.cls-7{fill:none;}.cls-4{stroke:#1b5186;}.cls-14,.cls-20,.cls-4,.cls-7{stroke-linecap:round;stroke-linejoin:round;stroke-width:2.77px;}.cls-5{fill:#ff962e;}.cls-6{fill:#ffb864;}.cls-7{stroke:#030304;}.cls-8{fill:#030304;}.cls-9{fill:#f1f3f3;}.cls-10{fill:#dedbe1;}.cls-11{fill:#1b5186;}.cls-12{fill:#79e280;}.cls-13{fill:#5cb75e;}.cls-14{stroke:#000;}.cls-15{fill:#514545;}.cls-17{fill:#0080ca;}.cls-18{stroke:#6fb7d6;stroke-miterlimit:10;stroke-width:0.56px;}.cls-19{fill:#027ecb;}.cls-20{stroke:#1d1d1b;}.cls-21{fill:#1d1d1b;}.cls-22{fill:url(#Degradado_sin_nombre_9);}.cls-23{fill:#dedce0;}.cls-24{fill:#f2f3f2;}.cls-25{fill:url(#Degradado_sin_nombre_9-2);}.cls-26{fill:#3c3c3b;}</style><linearGradient id="Degradado_sin_nombre_9" x1="438.18" y1="162.33" x2="428.68" y2="122.77" gradientUnits="userSpaceOnUse"><stop offset="0" stop-color="#ffd75d"/><stop offset="1" stop-color="#ff1d2d"/></linearGradient><linearGradient id="Degradado_sin_nombre_9-2" x1="377.25" y1="176.96" x2="367.75" y2="137.39" xlink:href="#Degradado_sin_nombre_9"/></defs><g id="Capa_3" data-name="Capa 3"><g id="a"><rect class="cls-1" width="600" height="600"/></g></g><g id="Capa_1" data-name="Capa 1"><path class="cls-2" d="M210.41,136.13s-6.88,4.1-16,10.74c-2.8,9.61-12.39,14.58-15.43,24.3-2.58,8.26-3.09,9.07-8.44,15.87-4.82,6.14-9.93,15.57-15.17,21.35-2.69,3-3.21,14-5,17.54-2.05,4.1-2.16,11.42-2.77,16-1.31,9.78.22,17.67-1,27.45,5.51-13.08,17.36-35.83,34.51-40,24.36-5.94,36.31-1.78,36.31-1.78Z"/><path class="cls-3" d="M153.73,226.72c1.8-3.59,4.58-6.56,7.28-9.53q7.86-8.67,15.1-17.88c5.35-6.81,10.51-14,13.09-22.25,3-9.73,2.39-20.58,5.19-30.19-17,12.32-41.72,33.42-44.8,53.44-4.76,30.79-6.54,78.31-6.54,78.31s1.2-3.79,3.5-9.28c1.24-9.78,2.56-19.56,3.87-29.34C151,235.46,151.67,230.82,153.73,226.72Z"/><path class="cls-4" d="M210.41,136.13s-56.07,33.38-60.82,64.18-6.54,78.31-6.54,78.31,13.66-43.36,38-49.3,36.31-1.78,36.31-1.78Z"/><path class="cls-5" d="M466.18,381.59c-1.3-3.56-10.11-18.11-11.06-21.77-1.71-6.56-7.49-21.49-10.95-27.33-3-5.13-5.12-14.54-10.28-17.54s-12.79-6.21-14.25-12c-1.13-4.49-2.68-1.68-3.5-6.24-.69-3.84-6.39.13-8.74-3-6.55-8.67-14.33-16.39-20.48-25.36-4.95-7.23-8.84-15.59-9.52-24.22a25,25,0,0,0-2.49,5.61c-3.51,11.64-1.43,24.33,2.78,35.74,3.82,10.34,9.3,20,14.77,29.53,4.92,8.62,10.94,16.7,14.75,25.86,13.53,32.55,29.5,51.95,42,57.81C451.05,389.82,469.28,390.1,466.18,381.59Z"/><path class="cls-6" d="M468.85,360.55c-3.22-14.55-8.88-26.8-18.44-45.15-12.79-24.55-5.23-24.28-17.44-48.7s-44.19-30.23-44.19-30.23l1.83-.36c-5.51-.77-10.23,3.06-13.21,8,.68,8.63,4.57,17,9.52,24.22,6.15,9,13.93,16.69,20.48,25.36,2.35,3.13,4.6,6.5,5.29,10.35.81,4.56-.64,9.35.49,13.84,1.45,5.79,6.78,9.68,11.94,12.68s10.81,5.87,13.86,11c3.46,5.83,2.73,13.16,4.44,19.73.95,3.66,2.66,7.07,4,10.62a49.12,49.12,0,0,1,1.81,26.75C464.18,405.73,474.15,393.25,468.85,360.55Z"/><path class="cls-7" d="M390.61,236.11c-7.49-1-13.52,6.39-15.7,13.63-3.51,11.64-1.43,24.33,2.78,35.74,3.82,10.34,9.3,20,14.77,29.53,4.92,8.62,10.94,16.7,14.75,25.86,29.79,71.63,71.35,79.61,61.64,19.68-3.22-14.55-8.88-26.8-18.44-45.15-12.79-24.55-5.23-24.28-17.44-48.7s-44.19-30.23-44.19-30.23"/><path class="cls-5" d="M312.29,588.74c1-.34,7.58-6.7,8.31-7.52,1-1.13,2.16-12.22,2.18-13.75.14-14.75,3.57-3.81.79-18.29,24.85,7,19.16,16.07,41.34,2.86-.4,13.92,2.07,15.62,4.23,29.38.15,1,10.19,2.64,10.71,3.46,1.93,3.06,9.46,4.18,12.66,2.47,5.5-2.93,12.31-15,17.67-18.19l1.51-91.6S332.28,497.35,310.22,495s-124.74,6.36-124.74,6.36c2.59,23.11,5.61,60.24,7.43,82,16.57,5,47.94,8,56,9.79C268.67,597.56,293,595,312.29,588.74Z"/><path class="cls-6" d="M393.89,563.24c-3.19,1.7-7.88,3-9.81,0a7.26,7.26,0,0,1-.85-2.78,226.65,226.65,0,0,1-2.63-41.63c-22.18,13.2-50.37,9.77-75.22,2.81a221.82,221.82,0,0,1,4,44c0,1.52-.1,3.19-1.12,4.32a6.23,6.23,0,0,1-2.86,1.54c-19.29,6.24-42.82,15.61-62.6,11.14-8-1.82-34.23-10.51-50.8-15.49.88,10.55,1.7,21.29,2.5,32.56H409.27l.91-45.61Q402.14,558.84,393.89,563.24Z"/><path class="cls-8" d="M281.54,514.22c16,7.65,32.95,13.71,50.69,15.38,15.55,1.46,31.51-.82,45.58-7.77a64.07,64.07,0,0,0,20.11-15.38c1.16-1.34-.8-3.31-2-2-9.67,11.19-23.27,18.1-37.63,21.07-16,3.31-32.56,1.46-48.12-3.08a181.38,181.38,0,0,1-27.26-10.65c-1.6-.77-3,1.62-1.4,2.39Z"/><path class="cls-8" d="M357.18,528.59l.27,17.43c.08,4.94.4,10-.31,14.9a18.43,18.43,0,0,1-6.22,11.91,33.83,33.83,0,0,0-5.15,5,19.11,19.11,0,0,0-2.94,6c-1.51,4.94-1.4,10.25-1.21,15.35.06,1.78,2.84,1.79,2.77,0-.17-4.56-.3-9.25.86-13.71a17.46,17.46,0,0,1,2.69-5.92c1.49-2,3.56-3.51,5.42-5.17,7.47-6.68,7-16.94,6.9-26.15l-.3-19.63a1.39,1.39,0,0,0-2.78,0Z"/><path class="cls-8" d="M344.78,528.61a235.36,235.36,0,0,1-.44,42.72c-.18,1.78,2.6,1.76,2.78,0a235.36,235.36,0,0,0,.44-42.72c-.14-1.76-2.92-1.78-2.78,0Z"/><path class="cls-8" d="M184.09,501.33q4.26,38,7.33,76.2.87,11.07,1.65,22.15a1.41,1.41,0,0,0,1.39,1.39H400.54c2.79,0,5.58.06,8.37,0,.12,0,.24,0,.36,0a1.42,1.42,0,0,0,1.39-1.39l.24-12.13.58-29.13.7-35.27.6-30.5c.1-4.94.41-9.93.3-14.87a1.61,1.61,0,0,1,0-.22,1.4,1.4,0,0,0-1.76-1.33q-5,1.25-10.12,2.43-12.21,2.88-24.49,5.51c-9.94,2.13-19.91,4.13-29.92,5.86a258.44,258.44,0,0,1-26.7,3.55,61.33,61.33,0,0,1-9.39.05c-2.49-.22-5-.37-7.47-.42-7.62-.15-15.25.11-22.86.41-9.72.38-19.42.91-29.13,1.51s-19.59,1.26-29.38,2q-11.82.86-23.63,1.8-6.1.48-12.2,1l-.55.05c-1.77.15-1.78,2.92,0,2.77q4.23-.36,8.48-.69,10.74-.87,21.48-1.67,14.28-1.07,28.56-2c9.91-.64,19.81-1.23,29.73-1.68,8.34-.39,16.7-.72,25.06-.73,2.92,0,5.86,0,8.78.2,2.59.15,5.13.43,7.73.4,8.34-.1,16.68-1.34,24.9-2.63,10.08-1.58,20.1-3.5,30.09-5.57q13.36-2.76,26.66-5.85,7.23-1.67,14.44-3.43l.67-.17-1.76-1.34-.24,12.13-.57,29.14-.7,35.26-.61,30.5-.2,10.13a37.5,37.5,0,0,0-.09,4.74.81.81,0,0,1,0,.22l1.39-1.39H203.19c-2.76,0-5.61-.21-8.37,0h-.36l1.38,1.39q-2.68-38.19-6.59-76.27-1.14-11.05-2.38-22.08C186.67,499.57,183.89,499.55,184.09,501.33Z"/><path class="cls-9" d="M270.78,241.24c-10.53-25.36-21.15-51.12-27.35-77.74.14,2.8.36,5.6.68,8.39,1.72,14.87,6.23,29.26,10.71,43.54q6.27,20,12.53,39.94c2.46,7.85,4.93,15.7,7.87,23.38.4,1.05.81,2.09,1.23,3.14,7.83,5.85,15,11.15,20.72,15.48-2.39-4.13-4.7-8.31-6.88-12.55C283,270.67,276.88,255.94,270.78,241.24Z"/><path class="cls-10" d="M346.78,356.74c2.06,6.8,17.28-60.18,17.28-60.18l-2.69-31.38,0-58.5c0-14.37,0-28.8-2.29-43-3.75-23.43-14-46.16-30.92-62.79S287.3,74.27,263.66,76.29c-1.07.09-2.14.22-3.2.36C253.35,92.27,248.73,109.3,246,126.2a179.51,179.51,0,0,0-2.56,37.3c6.2,26.62,16.82,52.38,27.35,77.74,6.1,14.7,12.21,29.43,19.51,43.58,2.18,4.24,4.49,8.42,6.88,12.55,5.4,4.05,9.59,7.25,12,9.22C323.94,318.73,346.69,356.44,346.78,356.74Z"/><path class="cls-2" d="M235,217.93c.35-10.77,2.92-21.35,3.61-32.09,1.74-27-8.38-53.82-5.75-80.73a97.74,97.74,0,0,1,4.56-21c-12.91,6.8-23.64,17.58-29.29,31-3.42,8.12-5,16.88-6.35,25.59a631.61,631.61,0,0,0-7.11,73.8c7,8.84,25.33,24.08,45.42,39.76C237.1,242.28,234.6,230.18,235,217.93Z"/><path class="cls-3" d="M267.35,255.37q-6.25-20-12.53-39.94c-4.48-14.28-9-28.67-10.71-43.54-1.76-15.19-.57-30.6,1.88-45.69,2.74-16.9,7.36-33.93,14.47-49.55a69.49,69.49,0,0,0-23,7.41,97.74,97.74,0,0,0-4.56,21c-2.63,26.91,7.49,53.74,5.75,80.73-.69,10.74-3.26,21.32-3.61,32.09-.39,12.25,2.11,24.35,5.09,36.28,12.18,9.51,25,19.17,36.37,27.68-.42-1.05-.83-2.09-1.23-3.14C272.28,271.07,269.81,263.22,267.35,255.37Z"/><path class="cls-11" d="M196.05,214.45q1-27.28,4.39-54.4c1.11-8.94,2.31-17.91,4-26.77,1.47-7.87,3.56-15.69,7.43-22.75,6.56-12,17.31-21.28,29.65-26.95a69.32,69.32,0,0,1,41.68-4.91,85.38,85.38,0,0,1,40.17,19.69,101.58,101.58,0,0,1,26,36.63c6.47,15.08,9.32,31.21,10.14,47.53.46,9,.41,18,.42,27.06v27.66q0,13.71,0,27.41c0,2.27.35,4.57.54,6.83l2,23.66a10.54,10.54,0,0,0,.1,1.13c.08.38,0,.24.07,0-.13.42-.24.84-.37,1.26q-1,3.54-2.12,7.08c-2.35,7.6-4.83,15.17-7.71,22.59a95.39,95.39,0,0,1-4.34,9.82,28.38,28.38,0,0,1-2.11,3.51,6.55,6.55,0,0,1-.83,1,5.23,5.23,0,0,1-.42.39c-.2.16.22-.15,0,0a1.4,1.4,0,0,1-.24.15c-.38.19.19,0-.16.06-.08,0,.26.09-.1,0,.12,0,.33.09.12,0s.22.22.07,0,.15.21-.13-.1,0,.16-.18-.24c-.11-.19-.21-.39-.31-.59.12.25-.14-.38-.2-.48a4.17,4.17,0,0,0-.36-.47c-2-2.55-4.14-5-6.26-7.43-8.35-9.58-17-19.12-26.89-27.19-4.62-3.79-9.44-7.32-14.22-10.9-7.55-5.66-15.12-11.28-22.67-16.94q-13.32-10-26.52-20.14c-8.59-6.63-17.12-13.34-25.48-20.26-6.75-5.59-13.47-11.28-19.7-17.46a73.7,73.7,0,0,1-5.91-6.45c-1.11-1.39-3.07.58-2,2,4.48,5.62,10,10.47,15.38,15.2,7.78,6.84,15.84,13.37,24,19.8q13.47,10.65,27.21,21,12.66,9.58,25.41,19.06c6.21,4.63,12.45,9.24,18.58,14a190.38,190.38,0,0,1,22,20.54q5.85,6.27,11.42,12.81c1,1.22,2.07,2.44,3.08,3.68l.4.5c.28.34,0-.07.07.08s-.16-.37,0,.08c.13.29.24.59.4.87a3.11,3.11,0,0,0,5,.92c1.92-1.56,3.17-4,4.27-6.2,3.65-7.2,6.29-15,8.84-22.59q2.88-8.62,5.41-17.37a8.21,8.21,0,0,0,.11-3.28l-1-11.52c-.64-7.51-1.53-15-1.53-22.54q0-28,0-56.09c0-17.68-.34-35.5-4.77-52.72a114.82,114.82,0,0,0-19.75-41.37A92.35,92.35,0,0,0,302.69,81.9c-13.81-6.14-29.23-8.75-44.23-6.36a70.83,70.83,0,0,0-36.69,17.88,62.69,62.69,0,0,0-12.6,16.22c-3.85,7.21-6,15.15-7.47,23.15a528.49,528.49,0,0,0-6.85,54.8q-1.08,13.41-1.58,26.86C193.2,216.23,196,216.23,196.05,214.45Z"/><path class="cls-11" d="M204.34,192.19l20.55,20S207.06,209.33,204.34,192.19Z"/><path class="cls-11" d="M207.18,177l20.54,20S209.89,194.16,207.18,177Z"/><path class="cls-11" d="M209.85,161.15l20.54,20S212.56,178.29,209.85,161.15Z"/><path class="cls-12" d="M374.27,457.8c-.58-5-1.4-10.09-4-14.4l-21.49,15.54c-12.71,9.18-25.57,18.46-40.09,24.35-10.77,4.37-22.66,6.75-34.12,5.58,5.78,9.38,10.62,15.67,10.62,15.67s32.74,7.56,60.12,11.05c10.15,1.29,20-3.1,28.47-9.15A195.49,195.49,0,0,0,374.27,457.8Z"/><path class="cls-13" d="M253.81,343.85a175,175,0,0,1,32.21,16,228.47,228.47,0,0,1,.61-47.42c.25-2.11.67-4.46,2.41-5.67,1.41-1,3.28-.9,5-.71,23.74,2.63,44.9,21.18,50.62,44.37A272.66,272.66,0,0,1,369,289.78c1.4-2.56,3.09-5.3,5.87-6.2,3.9-1.27,7.82,1.67,10.4,4.93-5.37-13.06-11.93-23.19-18.93-29.05l-21.83,88.77s-7.9-47.75-47.71-65.19S204,224.9,204,224.9s-11.51-2.91-6.86,19.18,22.67,58.14,33.72,91.86c1,3,2,6,3,9a14.21,14.21,0,0,1,6.13-3.21C244.57,340.7,249.37,342.2,253.81,343.85Z"/><path class="cls-12" d="M398.88,355.71c-1-25.62-6.18-49.19-13.59-67.2-2.58-3.26-6.5-6.2-10.4-4.93-2.78.9-4.47,3.64-5.87,6.2a272.66,272.66,0,0,0-24.38,60.61C338.92,327.2,317.76,308.65,294,306c-1.7-.19-3.57-.27-5,.71-1.74,1.21-2.16,3.56-2.41,5.67a228.47,228.47,0,0,0-.61,47.42,175,175,0,0,0-32.21-16c-4.44-1.65-9.24-3.15-13.86-2.09a14.21,14.21,0,0,0-6.13,3.21c10.34,31.48,21.47,66.16,21.46,92.13,0,8.42,2.61,17.75,6.3,26.72,15-6.36,28.26-16.5,40.41-27.44,14.51-13.07,27.83-27.5,43.17-39.58,9.12-7.18,19.93-13.77,31.49-12.75,9.25.81,17.34,6.56,22.86,14.16C399.53,382.88,399.36,367.89,398.88,355.71Z"/><path class="cls-13" d="M376.65,384.05c-11.56-1-22.37,5.57-31.49,12.75-15.34,12.08-28.66,26.51-43.17,39.58-12.15,10.94-25.45,21.08-40.41,27.44a176.39,176.39,0,0,0,13,25.05c11.46,1.17,23.35-1.21,34.12-5.58,14.52-5.89,27.38-15.17,40.09-24.35L370.3,443.4c2.57,4.31,3.39,9.42,4,14.4a195.49,195.49,0,0,1-.46,48.64c14.31-10.26,24.4-25.28,24.4-25.28s1.27-42.65,1.3-83C394,390.61,385.9,384.86,376.65,384.05Z"/><path class="cls-14" d="M204,224.9s-11.51-2.91-6.86,19.18,22.67,58.14,33.72,91.86,24.43,72.68,24.42,101.16,29.94,67.44,29.94,67.44,41.18,13.21,67.1,11.08c27.51-2.26,45.89-34.46,45.89-34.46s2.41-81.26.67-125.45-15.85-82.3-32.52-96.25l-21.83,88.77s-7.9-47.75-47.71-65.19S204,224.9,204,224.9Z"/><path d="M346.12,355q3.25,31.29,4.74,62.7,1.45,31.2,1.07,62.44-.21,17.76-1,35.5c-.08,1.79,2.69,1.78,2.77,0q1.37-31.41,1-62.87-.42-31.23-2.67-62.38-1.27-17.72-3.12-35.39c-.19-1.75-3-1.77-2.78,0Z"/><path class="cls-5" d="M185,274.66c.2.34.39.68.6,1,4.28,6.89,8,14.9,13.12,21.23,4.18,5.2,9.74,8.69,13.72,14.05,7.32,1.7,30.18,7.43,43.24,15.16-13.06-7.73-35.92-13.46-43.24-15.16,16,21.47,16.55,54.6,31,77.12,2.73,4.25,19.39-2,21.24,2.67,2.19,5.56,3.5,12.18,8.6,15.31-.73-10.21,13.41-25.34,9-34.55-3.61-7.45-9.24-18.28-13.65-25.29s-2.57,3-1.38-5.24c.09-.66-1.72,8.4-1.21,8s3.62-8,4.32-8c2.71.18-10.57-3.42-7.86-3.46s5.21-8.37,5.34-11.08c.12-2.36-6-16.22-7.91-17.61-9.86-7.17-19.13-22.46-30.47-26.93-5.49-2.17-6.39-12.55-10.88-16.39-4.77-4.09-5.76,2.91-8.44-2.77-4.52-9.53,3.46-1-1.05-10.49-3.2-6.75-17.46-16.49-18.2-23.93-.57-5.66-6.72-11.51-3.5-16.08-4.85,2.64-12.82,8.82-14.24,16.79a34.16,34.16,0,0,0-.43,3.5A103,103,0,0,0,176.57,256c.39,1.22.81,2.43,1.25,3.64A126.79,126.79,0,0,0,185,274.66Z"/><path class="cls-15" d="M185,274.48a126.88,126.88,0,0,1-7.15-15.05A86,86,0,0,0,185,274.48Z"/><path class="cls-6" d="M177.82,259.43c-.84-1.19-3.83-11.72-5.27-11.93-2-.3-7.09-4.31-8.23-2.68-9.29,13.36-29.39,20.82-28.49,37.07.32,5.59-3.17,21.62-1.38,26.93,5.8,17.19,4.82,44.41,18.79,56,8.87,7.35,25.52,46.13,35.41,52s22.12-2.17,26.91,8.31c5.07,11.11,21.94,8,26.89,19.17,7,15.8,24,24.33,40.13,30.61,3.64,1.42,7.35,2.83,11,4.31-3.24-40.76-10.44-111.8-16.16-134.7-6.69-26.74-28.78-57-38.45-75s-29.86-28.49-38-37.23-6.72-22.08-6.72-22.08a30.93,30.93,0,0,0-9.8,3.37c-3.22,4.56-4.38,10.65-3.82,16.31.75,7.43,4,14.36,7.19,21.12q6.77,14.29,13.54,28.6c2.69,5.68,5.51,11.54,10.28,15.63,4.49,3.85,10.26,5.76,15.75,7.93a144.32,144.32,0,0,1,32,17.56c1.91,1.39,4,3.21,3.86,5.57-.13,2.71-3.18,4.39-5.89,4.43s-5.33-1-8-1.16a2.72,2.72,0,0,0-2,.45,2.81,2.81,0,0,0-.76,1.82c-1.19,8.19,2.25,16.37,6.66,23.38s9.87,13.38,13.47,20.83c4.46,9.21,5.86,19.59,6.59,29.79-5.1-3.13-6.41-9.75-8.6-15.31a77.38,77.38,0,0,0-7.33-13.23c-14.47-22.53-29-45.08-44.93-66.56-1.49-.35-2.33-.53-2.33-.53C199,297,190.83,285.1,185,274.48a86,86,0,0,1-7.15-15.05c-.28-.71-.55-1.42-.81-2.12"/><path class="cls-15" d="M176.57,255.8c.15.5.29,1,.44,1.51.26.7.53,1.41.81,2.12C177.38,258.23,177,257,176.57,255.8Z"/><path class="cls-16" d="M177,257.31a102.79,102.79,0,0,1-4.35-25C172.16,239.09,173.38,247.42,177,257.31Z"/><path class="cls-5" d="M242.45,444.31c-4.95-11.16-4-24.28-9.07-35.39C228.59,398.45,219,391,209.1,385.09S188.58,374.35,179.71,367c-14-11.57-22.47-28.48-28.28-45.67-1.79-5.32-3.37-10.76-3.69-16.36-.9-16.25,8.8-31,18.09-44.32,1.13-1.64,2.71-3.47,4.68-3.18,1.44.21,2.44,1.51,3.27,2.71l10.91,15.58A99.94,99.94,0,0,1,177,257.31c-3.63-9.89-4.85-18.22-4.35-25h0c-25.11,22-47.82,49.43-50.15,67.45s26.74,72.09,39,117.44,18.93,118.36,18.93,118.36c55,51.75,117.38,27.91,117.38,27.91s-.84-33.48-2.89-66.62c-.29-4.77-.73-10.77-1.27-17.63-3.68-1.48-7.39-2.89-11-4.31C266.48,468.64,249.45,460.11,242.45,444.31Z"/><path class="cls-7" d="M172.66,232.31c-25.11,22-47.82,49.43-50.15,67.46s26.74,72.09,39,117.44,18.93,118.36,18.93,118.36c55,51.75,117.38,27.91,117.38,27.91s-.84-33.48-2.89-66.62-10.75-125.58-17.43-152.33-28.78-57-38.45-75-29.86-28.49-38-37.23-6.72-22.08-6.72-22.08-18.28,2.33-21.19,18.61,5.37,43.6,37,81.39c0,0,29.87,6.4,45.57,15.7"/><path class="cls-8" d="M236.41,318.3l1.77,32.84.88,16.41c.29,5.3.43,10.63.88,15.92a15.75,15.75,0,0,0,1.86,6.75,32.77,32.77,0,0,0,4.48,5.42q4.88,5.26,9.44,10.81A248.62,248.62,0,0,1,272.94,430a254.43,254.43,0,0,1,15.88,28.51c.77,1.61,3.16.21,2.4-1.4A255.54,255.54,0,0,0,261,408.61q-4.45-5.64-9.21-11c-1.56-1.76-3.15-3.49-4.75-5.21a14.6,14.6,0,0,1-3.87-6,37.11,37.11,0,0,1-.73-7.36l-.44-8.21-.87-16.17-1.95-36.32c-.1-1.78-2.87-1.79-2.78,0Z"/><path class="cls-6" d="M415.85,408.34c-4.46-.63-18.58,2.57-21.44,6.06-1.86,2.27-7.77,7.41-7.94,10.35-1.07,18.56,4.27,40.6,5.74,59.13C393,494,394,534,394.78,544.07c6.46-1.27,19.32-3.68,24.91-7.16-2.39-16.39-.1-59.39,1.07-75.91.9-12.81,1.11-25.64.95-38.48C418.55,421.64,419.1,408.8,415.85,408.34Z"/><path class="cls-5" d="M393.79,320.1c.09,4.84,6.33,23.12,7.92,27.69,3.52,10.19,13.64-.46,17.34,9.66-1.05-18.24-2.57-36.45-6-54.38-.91-4.75-6.23-23.74-7.45-28.44-1,4-5.07,11.78-6.07,15.79S393.72,316,393.79,320.1Z"/><path class="cls-5" d="M397.15,431.74c.17-2.93.49-6.06,2.35-8.33,2.86-3.48,8.12-3.55,12.59-2.91a75.43,75.43,0,0,1,9.62,2c-.2-15.92-1-31.85-1.76-47.76q-.42-8.64-.9-17.31Q413.5,342.27,408.21,327c-1.59-4.58-3.17-9.25-3.26-14.09-.07-4.05.92-8,1.89-12l3-12.05c-4.83-18.62-12.18-36.61-23.23-52.3-.86-1.22-1.94-2.54-3.43-2.63-2.09-.14-3.42,2.14-4.23,4.08q-4,9.57-8.05,19.15c-2.9,6.91-1.91,8.38.69,15.27A152.63,152.63,0,0,1,379.9,308c3,24.31,1.71,48.86,2,73.28.26,23.9,2,47.75,3.81,71.58,0,11.49,1.73,23.25,2.58,34.71.68,9.08,4.74,49.6-.37,57.39a53.82,53.82,0,0,0,13.52-.93c-.8-10.1-1.6-46.54-2.4-56.63C397.55,468.91,396.08,450.3,397.15,431.74Z"/><path class="cls-8" d="M384.29,452.9c0,10,1.29,20,2.19,30,.42,4.64.78,9.29,1.14,13.94.91,11.44,1.76,23,1.33,34.46a63.52,63.52,0,0,1-.7,8,13.56,13.56,0,0,1-1.56,5,1.4,1.4,0,0,0,1.2,2.09,56.48,56.48,0,0,0,32.5-8.28,1.46,1.46,0,0,0,.64-1.57,123.72,123.72,0,0,1-.95-15.51c-.12-6.77,0-13.54.15-20.31q.48-18.6,1.74-37.16c1.26-18.92,1.38-37.81.77-56.76-.66-20-1.57-40-3-59.88-2.58-36.63-8.53-74.52-28.62-106.06-1.16-1.81-2.33-3.63-3.61-5.35-1-1.36-2.22-2.66-4-2.9-4.08-.56-5.66,4.38-6.89,7.3q-2.84,6.76-5.68,13.52c-1.47,3.5-3.52,7.3-3.2,11.22.29,3.59,2.08,7,3.27,10.35a133.14,133.14,0,0,1,4.09,13.94,189.77,189.77,0,0,1,4.34,28.84c1.58,19.92.87,39.92,1,59.88.1,20.17,1.3,40.32,2.74,60.44q.54,7.41,1.09,14.8c.13,1.77,2.91,1.78,2.78,0-1.47-19.72-2.94-39.45-3.55-59.22-.6-19.61.12-39.22-.4-58.82-.5-18.91-2.22-38.06-7.92-56.18-1.26-4-3-7.91-4.22-12-1-3.48.15-6.51,1.49-9.73q2.83-6.77,5.68-13.52a54.52,54.52,0,0,1,2.76-6.31,3.86,3.86,0,0,1,1.46-1.66c1.19-.56,2.11.56,2.78,1.41a93.11,93.11,0,0,1,7,11c2.16,3.78,4.14,7.67,6,11.63a174.14,174.14,0,0,1,9.06,24.79c5.16,18.05,7.74,36.71,9.29,55.39,1.61,19.45,2.42,39,3.2,58.5.8,19.7,1.16,39.45,0,59.14-.72,11.9-1.49,23.79-1.91,35.71-.45,12.53-.86,25.18,0,37.7.15,2.2.36,4.38.67,6.56l.64-1.57a53.87,53.87,0,0,1-31.1,7.91l1.19,2.08c2-3.18,2.22-7.65,2.48-11.29a163.63,163.63,0,0,0,.08-17.44c-.37-10.1-1.27-20.17-2.06-30.25-.88-11.27-2.49-22.5-2.51-33.82A1.39,1.39,0,0,0,384.29,452.9Z"/><path class="cls-8" d="M377.11,241.2a246.16,246.16,0,0,1,14.14,26.42A129.53,129.53,0,0,1,397,281.34c.78,2.38-.75,4.33-2,6.24s-2.48,3.6-3.75,5.38c-2.83,4-5.54,8.14-6.85,12.92a1.39,1.39,0,0,0,2.68.74c1.21-4.41,3.72-8.23,6.33-11.93,1.3-1.84,2.63-3.66,3.87-5.53s2.77-4,2.8-6.33-1.36-4.78-2.22-6.9c-1-2.33-1.94-4.65-3-7q-3.11-7-6.65-13.82-4.08-7.83-8.72-15.35c-.94-1.52-3.34-.13-2.4,1.4Z"/><path class="cls-8" d="M389.31,297.08l14.87,56.26,1.85,7a49.94,49.94,0,0,1,1.58,7c.53,4.65-1.3,9-2.81,13.3l-9.57,27.3L384.33,439c-.59,1.68,2.09,2.41,2.67.73l19.49-55.53c1.55-4.41,3.57-8.93,3.95-13.64.37-4.51-1.24-9-2.38-13.33l-7.59-28.72L392,296.35a1.38,1.38,0,0,0-2.67.73Z"/><path class="cls-12" d="M197.3,213s1.62,5.81,16.34,17.83,59.21,37,71.71,43c23,11.05,55.17,35.92,60.2,69.64,0,0,5.19-34,8.79-49.36,3.33-14.22,11.76-32.68,8.79-49.35,0,0,7.88,3.1,12.92,13.18s3.4,29.45,3.4,29.45-4-21.64-12.32-16.27-20.35,85.65-20.35,85.65-9.49-50-51.35-72.09c0,0-10.08.78-11.24,17.44,0,0-31-16.28-51.94-36S190.65,226.9,197.3,213Z"/><path class="cls-14" d="M197.3,213s1.62,5.81,16.34,17.83,59.21,37,71.71,43c23,11.05,55.17,35.92,60.2,69.64,0,0,5.19-34,8.79-49.36,3.33-14.22,11.76-32.68,8.79-49.35,0,0,7.88,3.1,12.92,13.18s3.4,29.45,3.4,29.45-4-21.64-12.32-16.27-20.35,85.65-20.35,85.65-9.49-50-51.35-72.09c0,0-10.08.78-11.24,17.44,0,0-31-16.28-51.94-36S190.65,226.9,197.3,213Z"/><path class="cls-6" d="M430.39,401.2c8.16,1.81,23.06,3.2,31.26,1.59,7.59-1.49,7.16-21.51,8.89-28.9-.3-2.2-.57-4.45-.76-6.71C468.05,347.26,420.3,341,420.3,341c-41.08-21.19-53.26-9.18-53.26-9.18,7.58-5.18,6.38,11.32,2.88,23.51-.88,3.07-6.82,17.91-8.17,21.08,5.32,3.43,13.73,6,19.58,8.41C396,390.76,414.94,397.79,430.39,401.2Z"/><path class="cls-5" d="M470.54,373.89c-1.73,7.39-9.1,12.77-16.69,14.26-8.2,1.61-16.63-.29-24.79-2.09-15.45-3.42-31.07-6.57-45.72-12.55a102.1,102.1,0,0,1-16.88-8.71,176.73,176.73,0,0,1-9.09,18s39.68,8.42,51.39,14,36,13.37,53,11.06C476.9,405.88,472.85,391.1,470.54,373.89Z"/><path class="cls-7" d="M468.43,362.42c1.09,4.92.56,3,1.15,8.79.06.64.13,1.27.2,1.89"/><path class="cls-7" d="M469.78,373.1c2.39,21.66,6.8,33.79-12.41,35.49-19.77,1.74-36.05-9.3-57-14s-43-11.81-43-11.81,30.23-56,8.72-49.4c0,0,3.49-12.38,35.46,0s50.58,28.63,50.58,28.63"/><path class="cls-8" d="M421.56,342.31a97.65,97.65,0,0,1,26.28,7.81c1.61.75,3-1.64,1.4-2.39a99.51,99.51,0,0,0-26.94-8.09c-1.75-.27-2.5,2.41-.74,2.67Z"/><path class="cls-3" d="M408.53,343c8-2.09,12-4.21,20.09-3-.55-2.67-2.63-12.86-3.89-15.29-3.46-6.67-10.09-11.39-17.32-13.44s-15-1.59-22.28.31a58.67,58.67,0,0,0-33.24,23.36l.53-.38c4.29,5.53,15.84,18.31,20.7,23.34,1.46-.74,9.56-2.12,11-2.9C394.41,349.33,397.15,345.91,408.53,343Z"/><path class="cls-17" d="M402.74,334c-11.38,3-21.94,8.4-32.25,14.06-1.42.78-2.86,1.57-4.32,2.31a195.09,195.09,0,0,0,14.42,13.46c2,1.71,4.37,3.47,7,3.32s4.73-2.09,6.68-3.85a95.5,95.5,0,0,1,34.33-19.93,82.5,82.5,0,0,0-1.27-11A61.49,61.49,0,0,0,402.74,334Z"/><path class="cls-11" d="M353.09,335.62a57.36,57.36,0,0,1,30.15-22.08c12.81-3.92,28.41-3.17,37.6,7.79,5.17,6.17,5.86,14.36,6.4,22.06l1-1.34a98,98,0,0,0-31.73,17.5c-2.18,1.81-4.2,4.14-6.69,5.52-2.94,1.62-5.64,0-7.95-1.95a178.5,178.5,0,0,1-14.07-13,193.71,193.71,0,0,1-14.41-16.54c-1.09-1.4-3,.57-2,2a193.28,193.28,0,0,0,27.82,29c2.2,1.85,4.58,3.78,7.56,4s5.57-1.67,7.71-3.59a103.2,103.2,0,0,1,15.11-11.35A95.14,95.14,0,0,1,429,344.73a1.42,1.42,0,0,0,1-1.34c-.51-7.37-1.13-15.15-5.32-21.5a29.86,29.86,0,0,0-15.47-11.53c-14-4.71-30.25-.11-42.2,7.83a60.75,60.75,0,0,0-16.33,16c-1,1.47,1.39,2.86,2.4,1.4Z"/><path class="cls-6" d="M122.38,320.89c-.53,13.53,5.56,32.38,12.66,43.92,3.56,5.77,14.1,16.72,19.39,21,4.22,3.39,14.92,26.56,20,28.49,14.15,5.39-1.72-17.25,13.25-15-8.15,3.54,31.78,40.42,23,39.36,14.29,10.25,27,14.45,42.53,22.75,9.12,4.89,18.85,7.68,28.91,10.09,1.26.3,12.78-3.38,14-3.76s5.46-4.89,6.53-5.73c11.54-9.1,11.75-6.26,23.54-15,5.5-4.1,13.44-10.44,16.81-16.42,4.09-7.23,4-14.67,11.68-17.82,5.33-2.19,7.7-8.08,12.06-11.85,5.62-4.86,12.91-18.13,13.65-25.52,1.48-14.75-4.43-35-14.34-41.08a38.77,38.77,0,0,0-17.17-3.63s-51.27,59.94-71.95,74.06c0,0-4.6-4.1-8.09.16,0,0,.16-15.11-15.71-35.07s-34.63-52-39.3-57.42S191.71,290,179.93,286.26c-4.3-1.34-12.27-4.12-21.37-4.82-6,8.69-20.08,7.32-24.51,16.9C130.87,305.24,122.68,313.3,122.38,320.89Z"/><path class="cls-5" d="M366,334.21c5.86,13.5,7.05,28.92,5.57,43.66-.75,7.4-2.45,15.33-8.07,20.19-4.36,3.77-10.29,5-15.62,7.17a37.69,37.69,0,0,0-18.61,15.88c-3.38,6-5.11,13.3-10.62,17.4-11.79,8.77-31-3.74-42.54,5.36a11,11,0,0,1-3.36,2.25,7.35,7.35,0,0,1-3.83-.18c-10.06-2.41-19.3-7.35-28.42-12.23-15.49-8.31-31-16.65-45.33-26.9A50.61,50.61,0,0,0,221.26,403a209.68,209.68,0,0,1-43.85-11.44c-5.06-1.93-10.12-4.09-14.34-7.48-5.29-4.24-8.95-10.14-12.51-15.91-7.1-11.53-14.46-24-13.92-37.5.3-7.59,3.1-14.86,6.29-21.75a186.63,186.63,0,0,1,15.63-27.47c-15.82-1.2-35,3.91-44.33,33.89-7.29,23.56,5.46,55,18.33,72.06C153.37,415,173.6,433,229,460.59s62.47,32.08,81.65,12,64.53-76.42,77.25-99l6.33-8.67S385.07,343,366,334.21Z"/><path class="cls-7" d="M276,405.21c15.7-9.89,72.81-74.63,72.81-74.63,31.4-.58,45.35,34.3,45.35,34.3s-22.67,30.82-33.72,47.68-37.21,50.58-57.56,66.67-64.53-13.77-87.79-26.56S152.32,416,132.56,387.39,106.22,332,117.44,306.25c8.14-18.69,29.07-31.68,58.72-21.4s44.19,34.68,62.21,64.34,29.07,36.62,30.23,56.39l1.16,19.77"/><path class="cls-8" d="M270,406.91a9.12,9.12,0,0,1,1.49-2.63c.51-.54,1.46-1.11,2.18-.62s.91,1.59,1.15,2.31c.4,1.17.79,2.34,1.18,3.52l4.72,14.1c.57,1.68,3.25,1,2.68-.74q-3-8.81-5.9-17.62c-.73-2.16-1.82-4.57-4.49-4.52-2.83.05-4.38,2.5-5.41,4.8-.72,1.62,1.67,3,2.4,1.4Z"/><path class="cls-18" d="M263.48,407.26a20.52,20.52,0,0,0,.26-2.85S263.59,405.57,263.48,407.26Z"/><path class="cls-17" d="M272.47,355.85c-1.71-4.15-15.2,8.39-20,14.89-4,5.38-9.69,12.07-9.69,17.44,1,.53,3.07-.39,7.6-3.94a57.59,57.59,0,0,1,7.3-10.85C262.64,367.56,268.82,362.6,272.47,355.85Z"/><path class="cls-3" d="M298.14,388.32c6.09-10.89,15-22.77,22.86-32.47,4.28-5.29,10.82-11.12,13.05-17.55-15.59-1.62-48.55-3.6-58,5.25-14,13.1-35.27,32-34.34,37.61.49,3-.23,6.31,1.08,7q6.19-7.9,12.2-16c4.82-6.5,10-13.4,17.51-16.34-3.65,6.75-9.83,11.71-14.81,17.54a57.59,57.59,0,0,0-7.3,10.85c.9-.71,1.89-1.52,3-2.45a85.37,85.37,0,0,0-2.33,23c.34,5.88.52,9.74,1.42,11.72.33-.82,5,1.48,5.27.65,1.31-4.58,1.8-9.1,2.74-13.77,3.09-15.33,9.51-31,20.22-42.41-1.69,6.82-8.46,11-12.16,17-3.5,5.66-4.08,12.61-4.29,19.27q-.3,9.35.11,18.7c0,.5,0,1,.08,1.51.89,2.32,2.51,3.73,5.36,2.74a5.82,5.82,0,0,0,1.25-.62c.28-1.79,4.12-6.88,4.07-8.67-.12-4.81,2-7.69,2.57-12.47.79-6.53,1.86-10.63,5.34-16.22,3-4.78,4.87-9.43,8.11-14,2.29-3.26.94-4.92,4.71-3.66-1.65,2.55-1.94,2.35-3.69,4.84a59.54,59.54,0,0,0-10.46,29.38c.85,5.21,2.49,12.48,5.31,16-.11-.94,5,1.64,4.93.72C291,405.52,293.27,397,298.14,388.32Z"/><path class="cls-17" d="M339.34,339s-5.2-.9-12.7-1.68a59.05,59.05,0,0,1-9.85,17.76c-7.84,9.7-18.78,16.93-24.88,27.82-4.87,8.7-6.17,19.07-5.22,29q.13,1.38.3,2.79c1.67,2.08,3.76,2.85,6.35,1.07,9.82-6.73-5.94-13.17,6.85-30.57s15.75-21.81,23.47-29.26S341.42,341.89,339.34,339Z"/><path class="cls-17" d="M264.23,397.24c.21-6.66.79-13.61,4.29-19.27,3.7-6,10.47-10.18,12.16-17-10.71,11.4-21.87,23.64-25,39-.94,4.67-1.09,9.5-2.41,14.08a26,26,0,0,1-.86,2.48c.85,1.87,2.35,2.06,5.27.65,3.91-1.9,5.28-6.75,5.76-9.89.11-1.69.26-2.85.26-2.85a20.52,20.52,0,0,1-.26,2.85c-.17,2.86-.2,7.25.94,10.19,0-.51-.06-1-.08-1.51Q263.92,406.6,264.23,397.24Z"/><path class="cls-17" d="M297.49,362c-3.77-1.26-7.28,2.37-9.56,5.63q-4.86,6.92-9.33,14.1c-3.48,5.59-6.85,11.5-7.64,18-.58,4.78.27,9.6.39,14.42a30.82,30.82,0,0,1-.32,5.42c7.58-4.78,9.87-26.83,9.87-26.83s.22,2.55.78,6a59.54,59.54,0,0,1,10.46-29.38C293.89,366.86,295.83,364.51,297.49,362Z"/><path class="cls-11" d="M339.34,337.66c-10-.51-19.92-1.18-29.89-1.67-10.26-.51-20.74.1-30.27,4.32a29.84,29.84,0,0,0-5.95,3.49,46.12,46.12,0,0,0-4.67,4.39c-3.21,3.25-6.52,6.41-9.75,9.66-6.4,6.43-13.16,13.35-17,21.68a27.87,27.87,0,0,0-1.26,3.12,4.2,4.2,0,0,0,.13,2.86c.63,1.87,1.24,3.68,3.51,3.82a9.28,9.28,0,0,0,5.62-2,16.63,16.63,0,0,0,4.77-4.83,1.39,1.39,0,0,0-2.4-1.4,13.35,13.35,0,0,1-3.77,3.83,9.88,9.88,0,0,1-1.88,1.11c-.54.23-1.76.8-2.35.52-.39-.17-.46-.79-.61-1.19a2.76,2.76,0,0,1-.29-2.12,29.22,29.22,0,0,1,2.29-4.95c4.24-7.48,10.45-13.75,16.51-19.77,2.94-2.92,5.93-5.79,8.84-8.75a35.18,35.18,0,0,1,4.34-4,29.09,29.09,0,0,1,5.52-3.11c8.69-3.77,18.38-4.36,27.71-3.92,10.3.49,20.58,1.2,30.87,1.72,1.79.09,1.78-2.68,0-2.77Z"/><path class="cls-11" d="M271.53,356.47c-3.75,4.73-8,9-11.94,13.61a60.8,60.8,0,0,0-5.68,7.5,23.41,23.41,0,0,0-3.17,10c-.86,7.91-1.15,16-1.34,23.93-.07,2.78.33,5.89,3.19,7.17a7.13,7.13,0,0,0,7.16-1.2c2-1.63,2.87-4.4,3.58-6.82a42.22,42.22,0,0,0,1.65-8.18c.16-1.78-2.62-1.77-2.77,0a38,38,0,0,1-1.19,6.15,18.83,18.83,0,0,1-2.19,5.81c-1,1.5-3.35,2.51-5.1,1.72a3.16,3.16,0,0,1-1.55-2.93c-.1-1.63,0-3.3.1-4.93.25-6.9.49-13.86,1.23-20.72a20.5,20.5,0,0,1,3.14-9.16,63.29,63.29,0,0,1,5.13-6.65c3.86-4.48,8-8.7,11.71-13.33,1.1-1.39-.85-3.37-2-2Z"/><path class="cls-11" d="M279.88,360.31c-3.28,6.2-8.9,10.75-12.06,17.05-3,6-4.34,12.61-5,19.24-.34,3.46-.48,6.95-.56,10.43s-.55,7.21.82,10.4c1.16,2.68,3.76,4.67,6.77,4.15,3.38-.59,5.36-3.55,6.47-6.54A113.1,113.1,0,0,0,280,402.41c1.08-4.35,2-8.73,2.79-13.14.31-1.75-2.36-2.5-2.68-.74a196.43,196.43,0,0,1-4.92,21c-.83,2.82-1.48,6.67-4,8.52-2.68,2-5.21-.08-5.89-2.87-.72-3-.27-6.39-.18-9.41s.23-6.27.54-9.39a50.26,50.26,0,0,1,4.59-17.62c3.16-6.31,8.78-10.85,12.06-17.06.83-1.58-1.56-3-2.4-1.4Z"/><path class="cls-11" d="M297.13,360.41,286.89,376c-3,4.52-6,9.28-7.06,14.66-1.13,5.6.12,11.21,2.2,16.43,1,2.58,2.19,5.13,3.45,7.61,1,2,2.58,3.93,5.09,3.81,5.15-.25,7.1-6.65,7.25-10.85.19-5.69-1.83-11.18.64-16.64a50.6,50.6,0,0,1,4.25-7.11c1.5-2.24,3-4.45,4.64-6.62,3.28-4.5,6.78-8.83,10.46-13q6.07-6.9,12.79-13.18,3.43-3.21,7-6.24c1.84-1.55,4.6-3.89,2.92-6.53-1-1.5-3.36-.11-2.4,1.4.5.78-.94,1.87-1.47,2.32-1,.85-2,1.69-3,2.55q-2.9,2.52-5.67,5.14-5.49,5.17-10.55,10.78a190.7,190.7,0,0,0-18.34,23.82c-2.84,4.36-5,8.71-4.75,14,.2,4.66,1.8,10-.46,14.38-.81,1.58-3.11,4.2-4.9,2.34a10.24,10.24,0,0,1-1.58-2.74c-.6-1.25-1.2-2.51-1.76-3.78-2.15-4.81-3.93-10-3.42-15.39.53-5.7,3.76-10.75,6.81-15.43q5.22-8,10.48-16c1-1.5-1.42-2.89-2.4-1.4Z"/><path class="cls-11" d="M305.31,357l4.26-4.26a1.39,1.39,0,0,0-2-2L303.34,355a1.39,1.39,0,1,0,2,2Z"/><path class="cls-11" d="M285.2,355.16l6.62-5a1.51,1.51,0,0,0,.64-.83,1.43,1.43,0,0,0-.14-1.07,1.4,1.4,0,0,0-1.9-.5l-6.62,5a1.56,1.56,0,0,0-.64.83,1.43,1.43,0,0,0,.14,1.07,1.41,1.41,0,0,0,1.9.5Z"/><path class="cls-19" d="M255.19,110.54c1.49-7.1,7.51-17.81,10.81-24.27,3.52-6.89-20.33-20.6-14.69-25.77-10.14,5-36.42,20.85-45.34,55.49-2.31,9,6.81,17.67,20.27,30.07a70,70,0,0,1,10,10.88c-1.36-6.3,15.77-3.91,14.42-10.21C248,134.13,252.54,123.15,255.19,110.54Z"/><path class="cls-20" d="M300.25,89s1.32-8.45,17.69-3.7,126.71,42.24,126.71,42.24"/><path class="cls-21" d="M444.65,132.53s-20.28-6.18-19-11.43,20.66,1.74,20.66,1.74Z"/><path class="cls-22" d="M441.75,118c2.8,1.29,6.38,8.49,3.56,18.35-3.69,12.9-8.38,17.33-14.85,17.54-5.91.2-10.09-4.46-13.18-11.92-3.77-9.12-6.22-20,5.94-23C434.31,116.25,438.07,116.25,441.75,118Z"/><path class="cls-20" d="M441.75,118c2.8,1.29,6.38,8.49,3.56,18.35-3.69,12.9-8.38,17.33-14.85,17.54-5.91.2-10.09-4.46-13.18-11.92-3.77-9.12-6.22-20,5.94-23C434.31,116.25,438.07,116.25,441.75,118Z"/><path class="cls-23" d="M346.45,232.92c-24.58-2.84-39.05-18.25-57.9-34.28-14.46-12.29-30.39-41.18-36.53-59.09-1.64,6.58-5.52,39.22-5.17,46,5.26,14,14.75,33.58,30.41,44.23,22.09,15,36.09,29.55,74.63,27.83,23.45-1.05,28.27-9.67,28.85-18.4C372.45,236.35,357.25,234.18,346.45,232.92Z"/><path class="cls-9" d="M353.18,207.39A115.39,115.39,0,0,1,306,195.81c-7.32-3.57-14.33-8-20-13.83s-9.92-13.49-11.12-21.55c8.28,16,22.87,26.31,38.91,32.14,8,2.91,16.25,6.3,24.67,7.65s23.44.63,31.89-.27c27.94-2.95,51.89-15.37,69.71-37-.37-.7-.84-9.36-1.44-10a41,41,0,0,0-3-2.88c-18.19.13-39.41,6-61.7,8-32.48,2.92-54.56-1-84.66-13.52-4.65-1.95-13.72-8.7-18.74-9.18s-23.65-11.53-27.17-7.92c-2.63,2.69,6.45,34,5.52,37.68l-.06.29a106.93,106.93,0,0,0,31.88,46.37c18.85,16,42.82,25.59,67.4,28.44a106.6,106.6,0,0,0,32.68-1c.37-5.61-1-11.27-.32-15,1.51-8,3.11-15,6.12-19.28l-2.45.32C373.84,206.56,363.52,207.67,353.18,207.39Z"/><path class="cls-23" d="M388.32,202.9c4.22-3.78,17.17-2.06,33.79-18,15-14.35,21.32-23.47,17.94-30-17.82,21.65-44.11,36.44-72.05,39.39a96.86,96.86,0,0,1-25.4-.56A135.44,135.44,0,0,1,318,187c-16-5.83-32.1-13.47-43.11-26.52,1.2,8.06,5.46,15.7,11.12,21.55s12.67,10.26,20,13.83a115.39,115.39,0,0,0,47.2,11.58c10.34.28,20.66-.83,30.91-2.12l2.45-.32A12.79,12.79,0,0,1,388.32,202.9Z"/><path class="cls-3" d="M248.78,165.37a94.76,94.76,0,0,1-4.12-16.72,94.76,94.76,0,0,0,4.12,16.72l.06-.29c.93-3.64,2.24-7.34,4.87-10,3.52-3.61,9-4.82,14-4.35s9.78,2.43,14.43,4.37c30.1,12.56,61.55,25.93,94,23,22.3-2,43.48-12.4,59.46-28-9.78-8.65-34-26.44-37.47-30.41-3.88-4.5-13.07-17.4-17.31-22.08S358,73.67,341.61,66.27,293.46,43.4,255.36,58.7c0,0-1.52.56-4.05,1.8-5.64,5.17-10,12-13.48,18.94a82.16,82.16,0,0,0-7.65,20.31c-2.65,12.61-.86,25.72,1.83,38.31,1.34,6.31,2.91,12.58,4.27,18.88,3.62,5.19,4.18,9.05,6.09,15.24.87,2.84,2.32,7.63,4.48,13.36A68.5,68.5,0,0,1,248.78,165.37Z"/><path class="cls-21" d="M298.78,194.57l2.73,9.23c.61,2.08,1.14,5.82,4.07,5.66,2.22-.12,4.43-2.11,6.12-3.39s3.8-3,6.17-3.2l-1.39-1.39a67,67,0,0,0,4,19.43,1.41,1.41,0,0,0,2.32.61l16.62-15-2.18-.29c3.18,7.15,3.1,15.24,6,22.48.41,1,1.94,1.49,2.54.33l10.33-19.94H353.7c3.51,7.1,7.34,14,11.15,21a1.39,1.39,0,0,0,1.89.5c1.55-1.16,2-2.82,2.64-4.56q1.19-3.2,2.57-6.31A117.12,117.12,0,0,1,378,208a1.39,1.39,0,0,0-2.4-1.4,119.47,119.47,0,0,0-5.66,10.89q-1.21,2.7-2.31,5.45c-.37.93-.73,1.87-1.08,2.81-.28.76-.51,1.95-1.2,2.46l1.9.5c-3.8-7-7.63-13.89-11.15-21a1.39,1.39,0,0,0-2.39,0l-10.34,19.94,2.54.33c-3-7.47-3-15.75-6.29-23.14a1.41,1.41,0,0,0-2.18-.28l-16.62,15,2.32.61a64.33,64.33,0,0,1-3.88-18.69,1.4,1.4,0,0,0-1.38-1.39c-4.3.43-7.05,3.57-10.55,5.69a7.71,7.71,0,0,1-1.26.69c-.64.25-.77.14-1-.48-.48-1.25-.77-2.6-1.15-3.88l-2.44-8.27a1.39,1.39,0,0,0-2.68.73Z"/><path class="cls-4" d="M204.84,121.23c4.55-26,24.55-52.12,52.53-63.37s64.68-5.67,94.72,14.81,34.48,34.05,44.91,45.77,39.8,26.24,43.49,38.21-35,58.22-97.76,49.68-68.3-44.71-68.3-44.71"/><path class="cls-4" d="M388.32,202.9s-7.27,7.86-8,22.89,3.22,32.55-30.82,31.78-65-16.91-82.31-38.29-22.92-37.35-26.86-55.66"/><path class="cls-11" d="M273.16,163.42c5.59,15.89,14.42,30.73,26.47,42.57a87.26,87.26,0,0,0,45.23,23.87,75.76,75.76,0,0,0,29.4-.34c1.74-.38,1-3.05-.74-2.68-16.66,3.58-34.3.72-49.5-6.78-14.78-7.29-27-18.94-36-32.67a114.12,114.12,0,0,1-12.15-24.71c-.59-1.67-3.27-1-2.68.74Z"/><path class="cls-11" d="M379.61,204.92a50.86,50.86,0,0,0-6,22.34c-.05,1.78,2.72,1.78,2.78,0A47.69,47.69,0,0,1,382,206.32c.84-1.57-1.55-3-2.39-1.4Z"/><path class="cls-11" d="M282.33,160.82c-1.76-.6-3.13-2-5-2.45a5.78,5.78,0,0,0-5.46,1.64,13.51,13.51,0,0,0-3.11,5.31,21.17,21.17,0,0,0-1.21,6.86,1.39,1.39,0,0,0,2.78,0,18.52,18.52,0,0,1,.95-5.67,11.22,11.22,0,0,1,2.42-4.41,3,3,0,0,1,3.43-.89c1.55.61,2.82,1.74,4.42,2.28s2.42-2.11.74-2.67Z"/><path class="cls-24" d="M286.61,129.22a22.57,22.57,0,0,0-.36,4.07c0,10.72,7.27,19.4,16.25,19.4,6.72,0,12.48-4.85,15-11.78C326,124.12,299,95,286.61,129.22Z"/><ellipse class="cls-21" cx="298.45" cy="137.24" rx="5.81" ry="8.18"/><ellipse class="cls-24" cx="300.85" cy="143.99" rx="2.4" ry="2.74"/><path class="cls-4" d="M288.55,143.25a22.23,22.23,0,0,1-2.3-10,22.71,22.71,0,0,1,1.07-6.94"/><path class="cls-4" d="M291.22,119.33a14.93,14.93,0,0,1,11.28-5.44c9,0,16.26,8.69,16.26,19.4,0,7.18-3.27,13.45-8.13,16.81"/><path class="cls-25" d="M353.48,135.18c-4.31,2.65-13,7.39-12.7,23.23s6.1,23.49,16.13,24.28,21.11-.72,32.47-19.8c7.66-12.84,19.27-39.26,0-36.88S359.15,131.69,353.48,135.18Z"/><path class="cls-20" d="M196.39,113.33s1.32-8.44,17.68-3.69,126.71,42.23,126.71,42.23"/><path class="cls-20" d="M353.48,135.18c-4.31,2.65-13,7.39-12.7,23.23s6.1,23.49,16.13,24.28,21.11-.72,32.47-19.8c7.66-12.84,19.27-39.26,0-36.88S359.15,131.69,353.48,135.18Z"/><path class="cls-21" d="M340.78,156.88s-20.28-6.18-19-11.44,20.65,1.74,20.65,1.74Z"/><path class="cls-21" d="M398.77,128.82c2.35-2.12,4.68-3.83,8-3.93a12.61,12.61,0,0,1,4.88.59c.13,0,.88.47,1,.55a11.53,11.53,0,0,1,.84.81c1.24,1.29,3.2-.67,2-2-2.29-2.4-5.46-2.87-8.67-2.76a12.79,12.79,0,0,0-6,1.63,23.76,23.76,0,0,0-4,3.11c-1.33,1.2.64,3.15,2,2Z"/><path class="cls-21" d="M400.91,138.88a17.57,17.57,0,0,1,13.53-4.67,1.39,1.39,0,0,0,1.39-1.38,1.41,1.41,0,0,0-1.39-1.39,20.32,20.32,0,0,0-15.5,5.47c-1.3,1.23.67,3.19,2,2Z"/><path class="cls-11" d="M404.81,168.93a8.63,8.63,0,0,0,2.34,3.32,5.33,5.33,0,0,0,3.56,1.58,2.42,2.42,0,0,0,2-1.17,2.88,2.88,0,0,0-.25-2.82,8.63,8.63,0,0,0-6.74-4.34,1.41,1.41,0,0,0-1.39,1.39,4.93,4.93,0,0,0,2.81,4.46,1.58,1.58,0,0,0,1.07.14,1.44,1.44,0,0,0,.83-.64,1.41,1.41,0,0,0-.5-1.9,3.17,3.17,0,0,1-.45-.23l-.17-.12c-.14-.09.22.21,0,0l-.36-.35s-.19-.24-.05-.06,0,0-.06-.09-.16-.27-.23-.41.1.29,0,0c0-.07-.05-.14-.07-.2s-.06-.31-.1-.45c.1.34,0,.17,0,0a2,2,0,0,1,0-.25l-1.38,1.39.17,0c-.24,0-.25,0-.11,0l.34.07a6.06,6.06,0,0,1,.7.19l.33.11c.32.12-.25-.11.06,0a6.77,6.77,0,0,1,.66.33c.2.12.39.24.58.38l.14.1s-.26-.21-.08-.06l.3.25c.17.15.33.31.49.48s.14.15.2.23l.11.13c.2.24-.18-.26,0,0s.26.37.38.57l.17.31s.06.15.08.17-.08-.23,0,0c0,.06.08.26,0,.06s0-.07,0,0a.65.65,0,0,1,.1-.36c-.1.18.1-.12.11-.12l-.08.08c.12-.18.25-.18.13-.11.36-.19.25-.09.15-.07s-.2,0,.12,0a2.53,2.53,0,0,0-.28,0l-.14,0s.36.08.15,0l-.25-.06-.14-.05c-.16,0,.31.15.11,0s-.41-.21-.61-.34l-.29-.2-.15-.1c.15.12.19.14.1.08a.39.39,0,0,0-.1-.08,7.68,7.68,0,0,1-.59-.55l-.27-.3-.11-.13c-.14-.16,0-.08,0,0-.13-.23-.31-.43-.45-.66l-.21-.39c-.05-.09-.25-.55-.08-.16a1.56,1.56,0,0,0-.64-.83,1.43,1.43,0,0,0-1.07-.14,1.41,1.41,0,0,0-1,1.71Z"/><path class="cls-26" d="M288.61,101.38c3.1,2.86,3,.63,9.7-2s12.74-1.63,17.71,2.17,8.16-2.46,7.64-7.05-8.43-15.39-22.56-7.81S286.93,99.82,288.61,101.38Z"/><path class="cls-20" d="M288.61,101.38c3.1,2.86,3,.63,9.7-2s12.74-1.63,17.71,2.17,8.16-2.46,7.64-7.05-8.43-15.39-22.56-7.81S286.93,99.82,288.61,101.38Z"/></g></svg>