<svg xmlns="http://www.w3.org/2000/svg" xmlns:xlink="http://www.w3.org/1999/xlink" viewBox="0 0 600 600"><defs><style>.cls-1{fill:#83c4ff;}.cls-2{fill:#6fb7d6;}.cls-3{fill:#f1f3f3;}.cls-4{fill:#302929;}.cls-5{fill:#fff;}.cls-6{fill:#514545;}.cls-7{fill:#d7dfe8;}.cls-10,.cls-14,.cls-18,.cls-19,.cls-20,.cls-21,.cls-22,.cls-24,.cls-8{fill:none;}.cls-8{stroke:#030304;}.cls-10,.cls-14,.cls-18,.cls-19,.cls-21,.cls-22,.cls-8{stroke-linecap:round;stroke-linejoin:round;}.cls-14,.cls-18,.cls-19,.cls-8{stroke-width:2.77px;}.cls-9{fill:#191717;}.cls-10,.cls-14{stroke:#1b5186;}.cls-10,.cls-22{stroke-width:3.33px;}.cls-11{fill:#dedbe1;}.cls-12{fill:#f2f3f2;}.cls-13{fill:#1d1d1b;}.cls-15{fill:#1b5186;}.cls-16{fill:#0080ca;}.cls-17{fill:#3c3c3b;}.cls-18,.cls-21,.cls-22,.cls-24{stroke:#1d1d1b;}.cls-19{stroke:#b5bbc0;}.cls-20{stroke:#6fb7d6;stroke-width:0.56px;}.cls-20,.cls-24{stroke-miterlimit:10;}.cls-21,.cls-24{stroke-width:2.22px;}.cls-23{fill:url(#Degradado_sin_nombre_2);}.cls-25{fill:url(#Degradado_sin_nombre_2-2);}</style><linearGradient id="Degradado_sin_nombre_2" x1="9620.7" y1="163.7" x2="9620.7" y2="132.63" gradientTransform="matrix(-1, 0, 0, 1, 9851.38, 0)" gradientUnits="userSpaceOnUse"><stop offset="0" stop-color="#fff"/><stop offset="1"/></linearGradient><linearGradient id="Degradado_sin_nombre_2-2" x1="299.77" y1="168.53" x2="299.77" y2="134.25" gradientTransform="matrix(1, 0, 0, 1, 0, 0)" xlink:href="#Degradado_sin_nombre_2"/></defs><g id="Capa_3" data-name="Capa 3"><g id="a"><rect class="cls-1" width="600" height="600"/></g></g><g id="Capa_2" data-name="Capa 2"><path class="cls-2" d="M215.57,215.32S244.7,295,289.66,299.06s92-57.7,95.13-65.8-2.51-27.59-2.51-27.59-5.14-62-10.84-99.07C367,77.77,354,54.9,306.11,53.93s-62,32.3-63.72,38.09S217.88,208,215.57,215.32Z"/><path class="cls-3" d="M233.63,176.79l15,67.7s18.46,13.44,27.68,26.36,20.56,44,28.47,43.22,41.53-54.13,41.53-54.13l13.19-89.67s-28.94,48.66-59.89,50.57C252.57,223.74,245.23,196,233.63,176.79Z"/><path class="cls-4" d="M245.9,499.18l2-25.4s19.38,12.94,52.32,12.94S353.46,472,353.46,472v26.79s11.32,6.15,22.06,5.3,19.62-2.3,19.62-2.3l-3.58,101.16h-179L206.65,502s5.45,2.58,19.63,1.72S245.9,499.18,245.9,499.18Z"/><path class="cls-5" d="M248.51,473.57s14.83,13.7,49.22,13.7S352,473.8,352,473.8l-1.69-67.66L302.15,400,251.79,419.6Z"/><path class="cls-4" d="M251.79,419.6s-2.37,30.78-2.82,38.13-3.4,42.1-3.4,42.1-9.5,5.54-25,4.41-24.44-4.75-24.44-4.75-7.59-30.33-8.94-40.85a133.64,133.64,0,0,1-1-19.69s1.81,2.72,7.81,2.26S251.79,419.6,251.79,419.6Z"/><path class="cls-6" d="M332.8,389.9s-6.1-19.42-5.53-35.86,3.54-23.67,3.54-23.67-36.71,8.22-42.94,11.19-32.6,13.89-39.55,19.42-6.66,13.33-9.07,16.16-5.1,3.54-5.81,2.41-2-10.49-2-10.49l1-8.36s-5.39,11.48-11.06,14-5.67.57-6.09-1.13.56-6.66.56-6.66-4.67,5.81-8.08,3,1.7-11.48,3-14,5-10.77,5-10.77-6.94,1.56-8.08.56S212,338,212,338l2.69-2.13s25.09-12.61,32-13.32,4.68-.42,4.68-.42l-11.77-62.51s-17.71-18.14-21-23.81-.71-18.71-.71-18.71l-.57-12.19S207.5,213.29,205,217.4a25.67,25.67,0,0,0-3.26,8.08L155.06,263s-16.3-1.13-24.1,21.69,6,61.65,19.14,96.66,32.45,55.28,37.13,58.26,11.77,1.27,14.46.56S298.78,399,332.8,389.9Z"/><path class="cls-6" d="M354.91,318.89l12.47-61.38s13.75-12.89,17.15-21.68,1.18-19.17,1.18-19.17l-2-13.31s10.85,7,13.26,10.65,5.53,12.47,5.53,12.47l30.19,19.71a24.39,24.39,0,0,1,24.24,5.1c11.62,10.2,15.45,30,8.36,65.06s-23,94.11-23.81,96.09a16.4,16.4,0,0,1-3.26,4.25s-16.16-.42-18.57-.7l-2.41-.29s-2.83,32.32-5.38,44.65-8.37,39.12-8.37,39.12A101.65,101.65,0,0,1,383.11,504c-10.2,1-29.34-4-29.34-4l-3.68-93.13-50.32-6.8,32.46-9.92s-3.83-27.36-4.4-33.31-.28-15-.28-15l.85-1.28,53.3,13.18,5.38-21.4s-7.37-10.77-16.58-13.61S354.91,318.89,354.91,318.89Z"/><path class="cls-5" d="M295.78,286.64s-6.69-16.89-32.07-30.62-46.07-39.3-46.07-39.3-.27,13.28,2.26,19.7,20.23,25.11,20.23,25.11l7.5,35.77,3,24.66a233.45,233.45,0,0,1,23.3,8,202.87,202.87,0,0,1,20,10.39l7.31-1.27L333.08,329s10.21-7.5,13.37-8.59,9-2.25,9-2.25l10.75-60.25s15.18-15.36,17.8-23a40.91,40.91,0,0,0,2.26-14.09s-54.84,40.11-65,49.41-20.78,38.57-20.78,38.57Z"/><path class="cls-7" d="M249.73,440.4s18-10.36,50.16-10.36,51.27,13.14,51.27,13.14l-1.07-36.28L303.4,400l-52.84,21.19Z"/><path class="cls-7" d="M240.79,263.19l7.34,38.27s-1.25-12.68,21.86-13.55,29.58,16,29.58,16-2-13.54-2.61-14.78-8.82-11.68-22.12-17.4-18.89,4.35-19.26,5.34-2.24,4.48-2.24,4.48S249.62,269.53,240.79,263.19Z"/><path class="cls-7" d="M300.56,305.81s-1.49-15.29,18.14-27.71,24.85-7.46,27.21-5.22,4.35,8.82,4.35,8.82l15.41-22.49-7.21,34.17s-3.1-5.84-21.87-7.2S300.56,305.81,300.56,305.81Z"/><path class="cls-4" d="M232.29,294.51a267.12,267.12,0,0,0-17.76-25.21s-7.3-27.07-5-40.25,8.88-14.32,8.88-14.32l-.14-11.32s-15,11.18-19,30.65,9.64,49.49,9.64,49.49l15.85,14.68s-2.86,14.47-4.73,22.92-2.86,12.6-2.86,12.6l9.17-3.87s1.72-11.74,3.29-16,9.45,0,9.45,0S239.6,306.68,232.29,294.51Z"/><path class="cls-4" d="M165.48,265.12s-15.12,6.68-18.06,28.66,37.1,106.61,45,118.2,44,1,72.84-9.62,66.95-17.87,66.95-17.87l.39,4.71s-39.27,12.17-69.31,25.33S198.66,443.59,191,440.44s-26.5-20.81-42.8-65.57-23.75-76.77-15.11-95.61S165.48,265.12,165.48,265.12Z"/><path class="cls-4" d="M209.06,283.18c-.47-.7-11.21-20.31-10.85-35.37s1.28-20.08,1.28-20.08l-44.83,35.49s5.6.7,8.41.94a14.46,14.46,0,0,1,4.55,1s8.4-5.84,14.59-9.46,16,18.45,18.21,29.3L214.9,334.9l2.21-1.15s5.84-27.68,6-30.25.47-6.54.47-6.54S209.53,283.88,209.06,283.18Z"/><path class="cls-4" d="M372.78,294.51a269.19,269.19,0,0,1,17.76-25.21s7.31-27.07,5-40.25-8.88-14.32-8.88-14.32l-2.34-11.34s17.53,11.2,21.54,30.67-9.65,49.49-9.65,49.49L384,295.39s-.8,17.31,1.06,25.76,2.86,12.6,2.86,12.6l-9.16-3.87s-1.72-11.74-3.3-16-9.45,0-9.45,0S365.48,306.68,372.78,294.51Z"/><path class="cls-4" d="M404,226.47,430.86,246a69.24,69.24,0,0,0-23.79,29.63c-8.14,19.65-20.26,55.11-20.26,55.11l-6-7.37-2.3-24.56,18.73-16.12s9.36-17,10-34.54S404,226.47,404,226.47Z"/><path class="cls-8" d="M383.62,203.39s16.66,5.83,21.54,30.67-11.06,55.45-11.06,55.45-20.33,5.21-28.76,24.33"/><path class="cls-9" d="M207.82,436.69c-14,5-17.52,5.41-20.68,1.87v13.05s38.39,6.89,61.88-10.07l1.64-21.74S221.8,431.66,207.82,436.69Z"/><path class="cls-9" d="M208.07,519s26.24,4.74,44-3.71l2.67-15s32,8,86.89.14l1.48,13.65s22.83,7.26,51.16.29l.44-11.71s-5,2.22-20,.89-21.5-5-21.5-5l-.74-24.77s-20.16,12.9-50.71,12.9a116.16,116.16,0,0,1-54-13.93l-2.24,27.11s-12,3.43-21.34,3.58a166.17,166.17,0,0,1-16.9-.59Z"/><path class="cls-9" d="M350.35,406.14l1,19.19s21.62,14.91,63.93,7.26l2-16.9Z"/><path class="cls-4" d="M326.93,392s93.56,11.74,96.73,12.3,18.45-46.41,30.57-91.7-2.43-75.67-30-61.51c0,0,5.59-10.25,25-5.4s19,33.36,17,60.39-25.73,108.85-27,110-7.83,1.67-20.69-.38S302.15,400,302.15,400Z"/><path class="cls-10" d="M238.34,109.77l6.36-23.54s12.41-37.31,66.05-32.49c50,4.5,60.91,30.56,62.65,66.65s11.39,101.1,11.39,101.1"/><path class="cls-11" d="M258.86,252.47l-4.31-43.82a59.93,59.93,0,0,0,38.56,13.21c29.26-.58,54.2-29.81,54.2-29.81l-8.84,66s-25.68,20.41-28.05,23.85-9,21.27-9,21.27a151.94,151.94,0,0,0-12-26.21c-8.17-14.18-30.51-24.49-30.51-24.49"/><path class="cls-3" d="M228.4,158.77s4.66-8.68,9.14-12.64,13.88-3.39,20.07,1.09,11.88,4,23.58,0,35.65,15.4,59.76-.82,28.3,12,14.34,31.92S320,225,282.38,221.49,229.21,176,228.4,158.77Z"/><path class="cls-12" d="M249.34,120.21a13.79,13.79,0,0,1,0,2.41c-.44,6.31-5,11.13-10.19,10.76-3.88-.27-8.83-5-8.83-12.1C236.85,121.79,244.18,124.27,249.34,120.21Z"/><ellipse class="cls-13" cx="242.74" cy="123.44" rx="4.83" ry="3.36" transform="translate(102.56 356.91) rotate(-85.97)"/><ellipse class="cls-12" cx="245.13" cy="127.14" rx="1.61" ry="1.39" transform="translate(101.09 362.74) rotate(-85.97)"/><path class="cls-2" d="M240.8,110.54c4.5.32,8,4.45,8.54,9.67-5.16,4.06-11.14,2.26-17.63,1.75-.39-1.41-1-1.14-.68-2.71C231.88,114.68,235.61,110.18,240.8,110.54Z"/><path class="cls-14" d="M247.64,128.39a13.32,13.32,0,0,0,1.74-5.77,13.7,13.7,0,0,0-.33-4.13"/><path class="cls-14" d="M247.09,114.2a8.6,8.6,0,0,0-6.29-3.66c-5.19-.36-9.75,4.46-10.2,10.76a12.07,12.07,0,0,0,4,10.22"/><path class="cls-15" d="M248.31,119.13c-2.3,2-5.63,2.66-8.62,2.66a15.26,15.26,0,0,1-8.46-2.21c-1.49-1-2.88,1.4-1.41,2.39a18,18,0,0,0,10.12,2.59c3.69,0,7.52-1,10.34-3.47,1.33-1.19-.63-3.14-2-2Z"/><path class="cls-2" d="M382.39,353.55h-3.22L329,340.88s-1.83-12.57,11.49-17.3S364,317.14,374.77,321a17.3,17.3,0,0,1,11.7,13.65Z"/><path class="cls-16" d="M329.54,336.26s27.61-12.89,55.32.86l-2.57,15.46-7.85-.21-46-11.8Z"/><path class="cls-8" d="M214.75,339.38s6.76-15.2,9.47-41.51"/><path class="cls-8" d="M215.74,337.66s-7.87-29-12.54-44.52-15.74-22.87-21.89-23.6"/><line class="cls-8" x1="152.9" y1="263.73" x2="201.53" y2="225.1"/><path class="cls-12" d="M351.21,122a15.46,15.46,0,0,1,0,2.64c-.48,6.9-5.48,12.18-11.15,11.78-4.25-.3-9.67-5.46-9.67-13.25C337.54,123.7,345.57,126.42,351.21,122Z"/><ellipse class="cls-13" cx="341.86" cy="125.42" rx="5.28" ry="3.68" transform="translate(192.75 457.63) rotate(-85.97)"/><ellipse class="cls-12" cx="344.48" cy="129.47" rx="1.77" ry="1.52" transform="translate(191.15 464.02) rotate(-85.97)"/><path class="cls-2" d="M341.86,111.39c4.93.35,8.75,4.87,9.35,10.58-5.64,4.45-12.19,2.48-19.3,1.92-.42-1.55-1.06-1.25-.74-3C332.1,115.92,336.18,111,341.86,111.39Z"/><path class="cls-14" d="M349.34,130.93a14.46,14.46,0,0,0,1.91-6.32,15,15,0,0,0-.36-4.52"/><path class="cls-14" d="M348.74,115.4a9.4,9.4,0,0,0-6.88-4c-5.68-.4-10.67,4.87-11.16,11.78a13.21,13.21,0,0,0,4.38,11.18"/><path class="cls-15" d="M350.18,120.88c-2.55,2.26-6.22,3-9.53,3a16.84,16.84,0,0,1-9.33-2.44c-1.49-1-2.88,1.4-1.41,2.4,3.15,2.12,7.27,2.85,11,2.81,4,0,8.17-1,11.22-3.76,1.34-1.18-.63-3.14-2-2Z"/><path class="cls-17" d="M355.07,102.42c-2.74,2.25-2.55.38-8-2.16s-10.59-2-14.94.95-6.73-2.47-6.06-6.28,7.82-12.48,19.28-5.44S356.55,101.2,355.07,102.42Z"/><path class="cls-18" d="M355.07,102.42c-2.74,2.25-2.55.38-8-2.16s-10.59-2-14.94.95-6.73-2.47-6.06-6.28,7.82-12.48,19.28-5.44S356.55,101.2,355.07,102.42Z"/><path class="cls-17" d="M232.19,101.36c2,2.2,1.86.34,5.93-2.29s7.8-2.17,10.94.69,5-2.57,4.55-6.37-5.52-12.34-14.06-5.11S231.12,100.17,232.19,101.36Z"/><path class="cls-18" d="M232.19,101.36c2,2.2,1.86.34,5.93-2.29s7.8-2.17,10.94.69,5-2.57,4.55-6.37-5.52-12.34-14.06-5.11S231.12,100.17,232.19,101.36Z"/><path class="cls-15" d="M221.23,204.37l14.33,14S223.13,216.33,221.23,204.37Z"/><path class="cls-15" d="M223.21,193.79l14.33,14S225.1,205.75,223.21,193.79Z"/><path class="cls-15" d="M225.08,182.72l14.32,14S227,194.68,225.08,182.72Z"/><path class="cls-15" d="M380.05,204.37l-14.33,14S378.16,216.33,380.05,204.37Z"/><path class="cls-15" d="M378.08,193.79l-14.33,14S376.18,205.75,378.08,193.79Z"/><path class="cls-15" d="M376.21,182.72l-14.33,14S374.32,194.68,376.21,182.72Z"/><path class="cls-8" d="M250.55,322.08s-4.55-33.36-10.7-60.66"/><path class="cls-8" d="M355.32,319.07s4.53-31.83,10.68-59.13"/><line class="cls-8" x1="404.65" y1="227.64" x2="432.34" y2="245.38"/><path class="cls-8" d="M417,260.21s8.14-19.49,28.38-14.8,27.15,24.92,19.74,70.33-25.42,100.2-25.42,100.2.25,1.72-9.62,1c-6.2-.46-127.59-16.78-127.59-16.78"/><path class="cls-10" d="M331,330.84s9.45-11.28,29-12.34,26.47,13.89,26.47,13.89"/><line class="cls-8" x1="328.75" y1="341.36" x2="383.02" y2="354.01"/><path class="cls-8" d="M381.43,354.41s8.91-4.12,31.86-.42"/><path class="cls-8" d="M381.7,354.49s9.13-47.14,28.13-84.9"/><path class="cls-19" d="M247.86,473.78s43.61,30.16,103.94,0"/><line class="cls-19" x1="300.36" y1="486.73" x2="300.36" y2="400.64"/><path class="cls-8" d="M186,438.49s1,36.64,9.84,60.74c0,0,22.13,10.33,50.17.5l4.67-79.93"/><path class="cls-8" d="M416.54,416.8s-4.48,58.33-13.33,82.43c0,0-22.14,10.33-50.17.5l-3.08-93"/><line class="cls-8" x1="224.3" y1="469.74" x2="233.22" y2="465"/><line class="cls-8" x1="338.81" y1="449.68" x2="346.61" y2="444.38"/><line class="cls-8" x1="339.93" y1="440.76" x2="345.22" y2="434.91"/><line class="cls-8" x1="206.75" y1="502.61" x2="212.14" y2="602.15"/><line class="cls-8" x1="296.74" y1="504.29" x2="296.74" y2="561.96"/><path class="cls-8" d="M307.61,503.45V551s-4.7,7.43-8.94,10.21-4.08,41.69-4.08,41.69"/><line class="cls-8" x1="394.81" y1="502.34" x2="392.03" y2="601.8"/><path class="cls-19" d="M217.54,216.58s10.51,16.18,32.53,30.36,46.53,23.72,50.37,59.24v31.15"/><path class="cls-8" d="M239,313.84c-8.43-19.12-28.76-24.33-28.76-24.33s-15.93-30.6-11-55.45,19-30.65,19-30.65"/><path class="cls-19" d="M300.61,307.33s4-26,33.2-46a593,593,0,0,0,52.56-40.83"/><path class="cls-19" d="M217.46,216.66s-6.15,13.28,11.07,31.23,25.33,33.94,25.33,33.94,1-8.61,8.61-11.31,22.77,6.34,30.64,14.45"/><path class="cls-19" d="M386.8,219.81s3.11,12.46-11.29,28.08c-16.86,18.29-25.33,33.94-25.33,33.94s-1-8.61-8.61-11.31-21.24,5-29.11,13.12"/><path class="cls-8" d="M171.69,266.88a27.73,27.73,0,0,0-29.87,1.72c-25.82,18.33-7.24,74,8.5,112.34s33.94,59.27,41.07,60.25,33.69-10.32,60.5-21.88,62.95-25.19,80.66-29.13c0,0-9.67-35.23-1.93-60.37,0,0-30.28,5.88-67.42,22.11"/><path class="cls-20" d="M216.91,365.18a17.06,17.06,0,0,0,1-2S217.48,364,216.91,365.18Z"/><path class="cls-16" d="M238.26,330.84c0-3.47-13.35,1.63-18.7,4.9-4.43,2.71-10.45,5.86-12,9.73.55.66,2.32.6,6.6-.64a44.68,44.68,0,0,1,8.39-5.68C227.81,336.41,233.68,334.63,238.26,330.84Z"/><path class="cls-2" d="M247.3,361.61c7.53-6.06,17.38-12,25.82-16.71,4.61-2.56,11-4.86,14.47-8.83-10.74-5.68-33.84-16.65-43.22-13-13.88,5.35-34.6,12.76-35.57,17.08-.51,2.28-2,4.46-1.25,5.36q6.75-3.9,13.39-8c5.35-3.27,11-6.74,17.32-6.67-4.58,3.79-10.45,5.57-15.72,8.31a44.68,44.68,0,0,0-8.39,5.68c.86-.25,1.8-.54,2.87-.88a65.8,65.8,0,0,0-8.33,15.84c-1.46,4.32-2.46,7.14-2.38,8.83.48-.49,3.18,2.52,3.59,2,2.27-2.91,3.94-6,6-9.1,6.66-10.12,15.81-19.53,26.81-24.61-3.2,4.41-9.27,5.47-13.66,8.69-4.16,3.05-6.59,7.88-8.67,12.6q-2.92,6.63-5.34,13.47c-.13.36-.26.73-.38,1.1,0,1.93.73,3.41,3.06,3.53a4.91,4.91,0,0,0,1.08-.08c.72-1.21,4.95-3.75,5.44-5.06,1.3-3.49,3.66-4.94,5.45-8.21,2.46-4.46,4.42-7.09,8.54-10.1,3.53-2.58,6.23-5.37,9.89-7.75,2.59-1.67,2.1-3.26,4.45-1.26-1.93,1.35-2.08,1.13-4.06,2.41a46.24,46.24,0,0,0-16,18.07c-.9,4-1.83,9.7-.82,13,.19-.7,3.12,2.63,3.33,1.94C237.16,371.88,241.28,366.45,247.3,361.61Z"/><path class="cls-16" d="M291.17,338.14s-3.47-2.16-8.64-4.89a45.8,45.8,0,0,1-12.21,9.91c-8.45,4.69-18.4,6.72-25.94,12.78-6,4.84-9.95,11.91-12.15,19.32-.2.69-.4,1.39-.59,2.09.59,2,1.87,3.13,4.25,2.61,9-2-.45-11.18,13.77-20S267.3,348.87,275,345.75,291.84,340.78,291.17,338.14Z"/><path class="cls-16" d="M220.35,358.19c2.08-4.72,4.51-9.55,8.67-12.6,4.39-3.22,10.46-4.28,13.66-8.69-11,5.08-22.57,10.65-29.23,20.77-2,3.08-3.53,6.51-5.8,9.41a17.8,17.8,0,0,1-1.34,1.54c.07,1.59,1.09,2.16,3.59,2,3.36-.23,5.76-3.32,7-5.43.57-1.19,1-2,1-2a17.06,17.06,0,0,1-1,2c-.95,2-2.24,5.15-2.28,7.58.12-.37.25-.74.38-1.1Q217.43,364.82,220.35,358.19Z"/><path class="cls-16" d="M254.47,342.48c-2.35-2-5.92-.41-8.5,1.27q-5.5,3.57-10.79,7.43c-4.12,3-8.26,6.28-10.72,10.75-1.79,3.27-2.58,7-3.89,10.47a24.07,24.07,0,0,1-1.8,3.81c6.82-1.24,14.86-16.42,14.86-16.42s-.58,1.89-1.17,4.52a46.24,46.24,0,0,1,16-18.07C250.46,345,252.54,343.83,254.47,342.48Z"/><path class="cls-15" d="M291.88,336.94c-7.27-3.37-14.48-6.87-21.76-10.21-7.54-3.46-16.07-6.26-24.48-5.28-3.67.44-6.81,1.95-10.16,3.36-3.2,1.34-6.42,2.64-9.59,4-6.09,2.67-12.46,5.66-17.26,10.38-1.2,1.18-2,2.11-2.13,3.83-.1,1.5-.13,2.95,1.35,3.79,2.81,1.61,7.5.1,9.87-1.71,1.4-1.06,0-3.48-1.41-2.39a10.8,10.8,0,0,1-3.86,1.7,7.09,7.09,0,0,1-1.84.24,4.43,4.43,0,0,1-.81-.07c-.16,0-.68-.23-.62-.15a8.15,8.15,0,0,0,.08-1.12,1.43,1.43,0,0,1,.47-1.27,25.46,25.46,0,0,1,2.9-2.69c4.79-3.84,10.6-6.42,16.21-8.82,2.77-1.19,5.56-2.32,8.33-3.49,3.06-1.29,6-2.66,9.31-2.94,7.6-.63,15.21,1.77,22,4.89,7.36,3.36,14.63,6.91,22,10.3,1.61.75,3-1.64,1.41-2.39Z"/><path class="cls-15" d="M237.13,330.81c-4.12,2.33-8.48,4.2-12.67,6.39a41.46,41.46,0,0,0-6.51,4,18.47,18.47,0,0,0-4.9,6.22c-2.79,5.34-5.3,10.88-7.69,16.41-.94,2.19-1.65,4.77.27,6.67a5.85,5.85,0,0,0,5.5,1.29c2.05-.54,3.51-2.26,4.78-3.86a33.54,33.54,0,0,0,3.66-5.48c.82-1.58-1.58-3-2.39-1.4a31.24,31.24,0,0,1-2.53,4,15.22,15.22,0,0,1-3.26,3.62c-1.07.74-3.1.88-4-.3-.62-.85-.12-2,.23-2.9.52-1.27,1.11-2.52,1.67-3.77,2.11-4.69,4.17-9.51,6.72-14,2.31-4.08,6.22-6.28,10.28-8.37s8.23-3.91,12.2-6.16a1.39,1.39,0,0,0-1.4-2.39Z"/><path class="cls-15" d="M242,336.06a43.69,43.69,0,0,1-7.28,4.46,33.46,33.46,0,0,0-6.58,4.53,42.88,42.88,0,0,0-9.06,12.53c-1.19,2.33-2.25,4.71-3.28,7.11s-2.51,5.06-2.39,7.76a5.25,5.25,0,0,0,3.91,5.17c2.79.57,5.23-1.09,7-3.09a126.31,126.31,0,0,0,12-16.65c1-1.52-1.44-2.91-2.39-1.4a151.93,151.93,0,0,1-9.36,13.33c-1.41,1.79-3.14,4.66-5.58,5.1-2.68.47-3.14-2.36-2.59-4.33a51.59,51.59,0,0,1,2.78-6.82c.9-2,1.85-4,2.9-6a38.73,38.73,0,0,1,8-10.75c4.14-3.75,9.61-5.42,13.86-9,1.37-1.15-.6-3.1-2-2Z"/><path class="cls-15" d="M254.61,340.91l-12.09,8.4c-3.32,2.32-6.65,4.75-9,8.09-2.49,3.49-3.37,7.75-3.5,12-.07,2.23,0,4.45.19,6.67.12,1.76.29,3.74,1.85,4.86,3.35,2.41,7.43-1.14,9-4,2-3.56,2.06-8,4.42-11.35a18.63,18.63,0,0,1,4.73-4.29q2.75-1.94,5.58-3.73,5.79-3.68,11.89-6.81a142.55,142.55,0,0,1,14.24-6.34c2.38-.91,4.79-1.73,7.2-2.54,1.95-.64,3.78-1.81,3.4-4.1-.29-1.76-3-1-2.67.74.07.43-4.4,1.67-4.87,1.83q-2.87,1-5.68,2.13c-3.8,1.51-7.55,3.16-11.21,5A128.5,128.5,0,0,0,247.31,360a16.75,16.75,0,0,0-6.26,8.63c-1,3.16-1.53,7.11-4.31,9.3a3.91,3.91,0,0,1-2.31.94c-1,0-1.26-.8-1.38-1.67a44.37,44.37,0,0,1-.3-5.65c-.06-3.83.27-7.81,2.17-11.22,2-3.62,5.49-6.15,8.84-8.49,4.07-2.85,8.17-5.67,12.26-8.51,1.45-1,.07-3.42-1.41-2.4Z"/><path class="cls-15" d="M261.81,341.35l4.3-1.83a1.34,1.34,0,0,0,.64-.83,1.38,1.38,0,0,0-1-1.7l-.37-.05a1.34,1.34,0,0,0-.7.19l-4.3,1.82a1.48,1.48,0,0,0-.64.83,1.39,1.39,0,0,0,1,1.71l.37.05a1.32,1.32,0,0,0,.7-.19Z"/><path class="cls-15" d="M247.82,334.3l6.21-1.67a1.39,1.39,0,1,0-.74-2.68l-6.21,1.68a1.39,1.39,0,0,0,.74,2.67Z"/><line class="cls-21" x1="243.47" y1="174.27" x2="250.34" y2="170.74"/><path class="cls-3" d="M238.77,164.9s20.32,11.65,49.47,12.26,60.59-20.4,60.59-20.4l3.76-3.15s-22.58,42.2-64.09,44S238.77,164.9,238.77,164.9Z"/><path class="cls-10" d="M228.4,161s12.61,55.83,54,60.5,71.3-36.76,77.08-51.22"/><line class="cls-10" x1="216.53" y1="215.51" x2="234.07" y2="131.63"/><path class="cls-10" d="M259.58,161s-7.31-9.29-7.73-18.62c-.39-8.59,11-14.28,22.11-20.21"/><path class="cls-21" d="M236.28,162.09c8.45,4.3,16.24,8.23,16.24,8.23s34.77,16,70.56.21c0,0,20.17-9.79,32.34-19.39"/><path class="cls-21" d="M236.28,162.09s10.28,32.68,50.94,35.45c37.21,2.53,68.2-46.4,68.2-46.4"/><polyline class="cls-21" points="250.96 170.63 256.45 185.91 265.95 175.11 276.42 196.15 286.86 177.61 297.79 196.53 307.47 175.63 319.6 187.97 324.43 171.26 333.44 177.49 338.81 162.09"/><path class="cls-21" d="M353.41,148.74s5,1.14,3.86,7"/><path class="cls-15" d="M277.29,146.78l-2.69,1.52a1.39,1.39,0,0,0,.33,2.54,1.53,1.53,0,0,0,1.07-.14l2.69-1.52a1.39,1.39,0,0,0,.5-1.9,1.4,1.4,0,0,0-.83-.64,1.48,1.48,0,0,0-1.07.14Z"/><path class="cls-13" d="M320,139.31s10.06-1.22,10.43-5.94-9.44-2.73-9.44-2.73Z"/><line class="cls-18" x1="322" y1="133.39" x2="370.91" y2="126.03"/><path class="cls-22" d="M249.16,127.32s18.23-9.46,31.37,0"/><path class="cls-22" d="M249.16,136s18-13.94,31.37,0"/><path class="cls-23" d="M240.74,121.75c7,1.44,11.52,8.71,10.1,16.13a68.28,68.28,0,0,1-3.46,12.62c-3.79,9.21-22.86,9.07-29.27,3.49-5.29-4.62-7-15.91-7.82-24.18a6.2,6.2,0,0,1,4-6.53A50.61,50.61,0,0,1,240.74,121.75Z"/><path class="cls-24" d="M240.74,121.75c7,1.44,11.52,8.71,10.1,16.13a68.28,68.28,0,0,1-3.46,12.62c-3.79,9.21-22.86,9.07-29.27,3.49-5.29-4.62-7-15.91-7.82-24.18a6.2,6.2,0,0,1,4-6.53A50.61,50.61,0,0,1,240.74,121.75Z"/><path class="cls-25" d="M289.33,122.24c-7.23,1.59-11.95,9.61-10.48,17.8A79.87,79.87,0,0,0,282.44,154c3.93,10.16,23.73,10,30.37,3.85,5.5-5.1,7.28-17.56,8.12-26.69a6.9,6.9,0,0,0-4.16-7.21A49.72,49.72,0,0,0,289.33,122.24Z"/><path class="cls-24" d="M289.33,122.24c-7.23,1.59-11.95,9.61-10.48,17.8A79.87,79.87,0,0,0,282.44,154c3.93,10.16,23.73,10,30.37,3.85,5.5-5.1,7.28-17.56,8.12-26.69a6.9,6.9,0,0,0-4.16-7.21A49.72,49.72,0,0,0,289.33,122.24Z"/></g></svg>