<svg xmlns="http://www.w3.org/2000/svg" xmlns:xlink="http://www.w3.org/1999/xlink" viewBox="0 0 600 600"><defs><style>.cls-1{fill:#ffce55;}.cls-2{fill:#007fcc;}.cls-3{fill:#6fb7d6;}.cls-14,.cls-16,.cls-18,.cls-20,.cls-28,.cls-4,.cls-7{fill:none;}.cls-4{stroke:#1b5186;}.cls-14,.cls-20,.cls-28,.cls-4,.cls-7{stroke-linecap:round;stroke-linejoin:round;stroke-width:2.77px;}.cls-5{fill:#d13d3d;}.cls-6{fill:#ff6161;}.cls-7{stroke:#030304;}.cls-8{fill:#030304;}.cls-9{fill:#f1f3f3;}.cls-10{fill:#dedbe1;}.cls-11{fill:#1b5186;}.cls-12{fill:#606060;}.cls-13{fill:#282828;}.cls-14{stroke:#000;}.cls-15{fill:#514545;}.cls-17{fill:#0080ca;}.cls-18{stroke:#6fb7d6;stroke-miterlimit:10;stroke-width:0.56px;}.cls-19{fill:#027ecb;}.cls-20{stroke:#1d1d1b;}.cls-21{fill:#1d1d1b;}.cls-22{fill:url(#Degradado_sin_nombre_12);}.cls-23{fill:#dedce0;}.cls-24{fill:#f2f3f2;}.cls-25{fill:url(#Degradado_sin_nombre_12-2);}.cls-26{fill:#3c3c3b;}.cls-27{fill:#fbb03b;}.cls-28{stroke:#8e6a2b;}</style><linearGradient id="Degradado_sin_nombre_12" x1="3469.1" y1="193.17" x2="3456.44" y2="141.74" gradientTransform="matrix(-1, 0, 0, 1, 3640.58, 0)" gradientUnits="userSpaceOnUse"><stop offset="0" stop-color="#00cdf9"/><stop offset="1" stop-color="#b135f5"/></linearGradient><linearGradient id="Degradado_sin_nombre_12-2" x1="3408.22" y1="208.16" x2="3395.56" y2="156.72" xlink:href="#Degradado_sin_nombre_12"/></defs><g id="Capa_3" data-name="Capa 3"><g id="a"><rect class="cls-1" width="600" height="600"/></g></g><g id="Capa_2" data-name="Capa 2"><path class="cls-2" d="M403.72,149.64s6.88,4.1,16,10.74c2.8,9.61,12.39,14.58,15.43,24.3,2.58,8.26,3.09,9.07,8.44,15.87,4.82,6.14,9.92,15.57,15.16,21.35,2.7,3,3.22,14,5,17.55,2,4.09,2.15,11.41,2.77,16,1.31,9.78-.23,17.67,1,27.45-5.5-13.08-17.35-35.83-34.51-40-24.35-5.94-36.3-1.78-36.3-1.78Z"/><path class="cls-3" d="M460.4,240.23c-1.8-3.59-4.59-6.56-7.28-9.53Q445.26,222,438,212.82c-5.35-6.81-10.52-14-13.1-22.25-3-9.73-2.38-20.58-5.18-30.19,17,12.33,41.71,33.42,44.8,53.44,4.75,30.79,6.54,78.31,6.54,78.31s-1.2-3.79-3.51-9.28c-1.24-9.78-2.55-19.56-3.87-29.34C463.09,249,462.45,244.33,460.4,240.23Z"/><path class="cls-4" d="M403.72,149.64s56.07,33.38,60.82,64.18,6.54,78.31,6.54,78.31-13.67-43.36-38-49.3-36.3-1.78-36.3-1.78Z"/><path class="cls-5" d="M148,395.1c1.29-3.56,10.11-18.11,11.06-21.77,1.71-6.56,7.48-21.49,10.94-27.32,3.05-5.14,5.13-14.55,10.29-17.55s12.79-6.21,14.24-12c1.14-4.49,2.69-1.67,3.51-6.24.68-3.84,6.39.13,8.74-3,6.54-8.68,14.33-16.4,20.48-25.37,4.95-7.23,8.84-15.59,9.52-24.22a25,25,0,0,1,2.49,5.61c3.51,11.64,1.42,24.33-2.79,35.74-3.81,10.34-9.3,20-14.76,29.53-4.92,8.62-10.94,16.7-14.76,25.86-13.53,32.55-29.49,51.95-42,57.81C163.07,403.34,144.85,403.61,148,395.1Z"/><path class="cls-6" d="M145.27,374.06c3.22-14.55,8.89-26.8,18.45-45.15,12.79-24.55,5.23-24.28,17.44-48.7S225.34,250,225.34,250l-1.82-.36c5.51-.77,10.23,3.06,13.21,8-.68,8.63-4.57,17-9.52,24.22-6.15,9-13.94,16.69-20.48,25.37-2.35,3.12-4.6,6.49-5.29,10.34-.82,4.56.64,9.35-.49,13.85-1.46,5.78-6.78,9.67-11.94,12.67s-10.81,5.87-13.86,11c-3.46,5.83-2.73,13.16-4.44,19.73-1,3.66-2.66,7.07-4,10.62a49,49,0,0,0-1.81,26.75C150,419.24,140,406.76,145.27,374.06Z"/><path class="cls-7" d="M223.52,249.62c7.49-1,13.52,6.39,15.7,13.63,3.51,11.64,1.42,24.33-2.79,35.74-3.81,10.34-9.3,20-14.76,29.53-4.92,8.62-10.94,16.7-14.76,25.86C177.13,426,135.57,434,145.27,374.06c3.22-14.55,8.89-26.8,18.45-45.15,12.79-24.55,5.23-24.28,17.44-48.7S225.34,250,225.34,250"/><path class="cls-5" d="M301.84,602.25c-1-.34-7.58-6.7-8.31-7.52-1-1.13-2.16-12.22-2.18-13.75-.14-14.75-3.57-3.81-.79-18.29-24.86,7-19.17,16.07-41.34,2.86.4,13.92-2.07,15.63-4.23,29.38-.15,1-10.19,2.64-10.71,3.46-1.93,3.07-9.47,4.18-12.66,2.48-5.5-2.93-12.31-15-17.67-18.2l-1.51-91.6s79.41,19.79,101.47,17.41,124.74,6.36,124.74,6.36c-2.59,23.11-5.61,60.24-7.43,82-16.58,5-47.94,8-56,9.79C345.46,611.07,321.13,608.49,301.84,602.25Z"/><path class="cls-6" d="M220.23,576.75c3.2,1.71,7.89,3,9.82,0a7.25,7.25,0,0,0,.84-2.78,225.73,225.73,0,0,0,2.64-41.63c22.18,13.2,50.36,9.77,75.22,2.81a222.58,222.58,0,0,0-4,44c0,1.52.1,3.19,1.12,4.32a6.28,6.28,0,0,0,2.86,1.54c19.3,6.24,42.83,15.61,62.61,11.14,8-1.82,34.22-10.51,50.8-15.49-.88,10.55-1.71,21.29-2.5,32.56H204.86L204,567.58Q212,572.35,220.23,576.75Z"/><path class="cls-8" d="M331.19,525.34c-15.58,7.45-32.22,13.43-49.52,15-15,1.37-30.52-.74-44.12-7.5A62.15,62.15,0,0,1,218.17,518c-1.17-1.35-3.12.62-2,2,9.91,11.47,24,18.66,38.67,21.75,16.47,3.45,33.51,1.67,49.56-3a184.53,184.53,0,0,0,28.15-11c1.61-.77.2-3.16-1.4-2.39Z"/><path class="cls-8" d="M254.17,542.1l-.27,17.43c-.07,5-.34,10,.31,14.89.59,4.46,2,8.82,5.19,12.15,1.7,1.79,3.76,3.19,5.48,4.95a15.65,15.65,0,0,1,3.52,5.83c1.67,4.91,1.52,10.23,1.33,15.33-.06,1.79,2.71,1.79,2.78,0a52.93,52.93,0,0,0-.78-13.71,20.45,20.45,0,0,0-7.07-11.4,22.89,22.89,0,0,1-5.07-5.28,19.3,19.3,0,0,1-2.3-6.15c-1-4.72-.72-9.62-.65-14.4l.3-19.64a1.39,1.39,0,0,0-2.77,0Z"/><path class="cls-8" d="M266.57,542.12a235.36,235.36,0,0,0,.44,42.72c.18,1.76,2.95,1.78,2.77,0a236.27,236.27,0,0,1-.44-42.72c.15-1.78-2.63-1.77-2.77,0Z"/><path class="cls-8" d="M427.26,514.84q-4.26,38-7.32,76.2-.88,11.07-1.66,22.15l1.39-1.39H213.59c-2.76,0-5.61-.2-8.37,0h-.36l1.38,1.39L206,601.06l-.58-29.13-.69-35.26-.61-30.51-.2-10.12a37.59,37.59,0,0,0-.09-4.75,1.55,1.55,0,0,1,0-.22l-1.75,1.34c3.36.84,6.74,1.64,10.12,2.44q12.21,2.88,24.49,5.51c10,2.13,20,4.14,30.06,5.88a263.74,263.74,0,0,0,27,3.6,62.28,62.28,0,0,0,9.56.09c2.48-.21,4.95-.38,7.45-.43,7.63-.16,15.27.1,22.9.4,9.7.38,19.41.91,29.1,1.5s19.6,1.27,29.4,2q11.88.86,23.76,1.8l12.2,1,.55,0c1.78.15,1.77-2.62,0-2.77l-8.48-.7q-10.74-.87-21.48-1.66-14.2-1.06-28.43-2c-9.9-.64-19.81-1.22-29.73-1.68-8.33-.39-16.66-.72-25-.73-2.95,0-5.9,0-8.84.19-2.54.14-5.05.43-7.6.41-8.22-.07-16.45-1.28-24.56-2.56-10.08-1.58-20.1-3.51-30.09-5.57q-13.29-2.75-26.52-5.82c-4.83-1.12-9.64-2.25-14.45-3.44l-.67-.16a1.39,1.39,0,0,0-1.75,1.33l.24,12.13.58,29.14.69,35.26.61,30.5c.1,4.95,0,9.93.29,14.87a1.7,1.7,0,0,1,0,.22,1.41,1.41,0,0,0,1.39,1.39H410.94c2.78,0,5.58.06,8.36,0h.37a1.43,1.43,0,0,0,1.39-1.39q2.69-38.19,6.59-76.27,1.14-11.05,2.39-22.08C430.23,513.06,427.46,513.08,427.26,514.84Z"/><path class="cls-9" d="M343.35,254.75c10.53-25.35,21.15-51.12,27.34-77.74-.13,2.8-.35,5.6-.68,8.39-1.72,14.87-6.22,29.26-10.7,43.54l-12.54,39.94c-2.46,7.85-4.92,15.7-7.86,23.39-.4,1-.81,2.09-1.23,3.13-7.83,5.85-15,11.15-20.72,15.48q3.59-6.19,6.88-12.55C331.13,284.18,337.25,269.45,343.35,254.75Z"/><path class="cls-10" d="M267.35,370.25c-2.06,6.8-17.29-60.18-17.29-60.18l2.7-31.38,0-58.5c0-14.37,0-28.8,2.28-43,3.75-23.43,14-46.16,30.93-62.79s40.82-26.63,64.47-24.61c1.07.09,2.14.22,3.2.36,7.11,15.63,11.72,32.65,14.47,49.55a179.5,179.5,0,0,1,2.55,37.3c-6.19,26.62-16.81,52.39-27.34,77.74-6.1,14.7-12.22,29.43-19.51,43.58q-3.29,6.36-6.88,12.55c-5.4,4.06-9.59,7.25-12,9.22C290.19,332.24,267.44,370,267.35,370.25Z"/><path class="cls-2" d="M379.13,231.44c-.34-10.77-2.91-21.35-3.6-32.09-1.74-27,8.38-53.82,5.75-80.73a98.35,98.35,0,0,0-4.56-21.05c12.91,6.8,23.64,17.58,29.29,31,3.42,8.12,5,16.88,6.34,25.59a629.48,629.48,0,0,1,7.12,73.8c-7,8.84-25.33,24.08-45.42,39.77C377,255.79,379.52,243.69,379.13,231.44Z"/><path class="cls-3" d="M346.77,268.88l12.54-39.94c4.48-14.28,9-28.67,10.7-43.54,1.76-15.19.58-30.6-1.87-45.69-2.75-16.9-7.36-33.92-14.47-49.55a69.56,69.56,0,0,1,23.05,7.41,98.35,98.35,0,0,1,4.56,21.05c2.63,26.91-7.49,53.74-5.75,80.73.69,10.74,3.26,21.32,3.6,32.09.39,12.25-2.11,24.35-5.08,36.29-12.18,9.5-25,19.16-36.37,27.67.42-1,.83-2.09,1.23-3.13C341.85,284.58,344.31,276.73,346.77,268.88Z"/><path class="cls-11" d="M420.86,228q-1-27.81-4.53-55.44c-1.13-9-2.33-18-4-27-1.53-8-3.76-15.93-7.72-23.1A66.6,66.6,0,0,0,374.74,95a72.33,72.33,0,0,0-42-6,87.37,87.37,0,0,0-41.45,18.75c-11.92,9.67-21.22,22.41-27.65,36.3-6.82,14.75-10.33,30.58-11.52,46.73-.68,9.25-.73,18.52-.73,27.78s0,18.78,0,28.17v27.94c0,3.09-.18,6-.45,9.1l-2.09,24.37a7.67,7.67,0,0,0,.16,3.17c.66,2.28,1.34,4.54,2,6.81,2.37,7.7,4.87,15.37,7.78,22.88a105.93,105.93,0,0,0,4.57,10.49c1.11,2.15,2.4,4.7,4.42,6.12,1.8,1.26,3.74.57,4.73-1.3.15-.29.27-.6.4-.9,0-.06-.18.27,0,0-.21.25-.09.11.07-.09l.46-.57c1.08-1.32,2.18-2.62,3.28-3.91A269.12,269.12,0,0,1,303,323.64c4.93-4.35,10-8.06,15.3-12,7.6-5.7,15.22-11.36,22.81-17.05q13.54-10.14,27-20.44c8.81-6.8,17.56-13.66,26.14-20.74,6.93-5.72,13.83-11.55,20.22-17.87a77,77,0,0,0,6.06-6.59c1.1-1.39-.85-3.36-2-2-4.38,5.49-9.75,10.24-15,14.86-7.55,6.66-15.36,13-23.24,19.25-8.83,7-17.76,13.87-26.74,20.67q-12.52,9.5-25.14,18.86c-6.27,4.69-12.56,9.35-18.78,14.1a183.56,183.56,0,0,0-20.38,18.34q-6.37,6.63-12.4,13.58-2,2.36-4.05,4.75a31.09,31.09,0,0,0-2.18,2.68c0,.05-.08.1-.12.16s-.11.27-.17.4c-.14.31.06-.07-.08.21a5.39,5.39,0,0,1-.3.52c-.16.28.12,0-.2.24-.1.07.22-.05-.14.07.13,0,.3-.08.09-.06s.19-.13.1,0-.37,0,0,0,0,0-.07,0c.09.05.11.09-.17-.1s0,0-.24-.17-.32-.29-.47-.45a6.06,6.06,0,0,1-.87-1.08,32,32,0,0,1-2.08-3.53c-3.58-6.91-6.11-14.4-8.58-21.76q-2.93-8.75-5.5-17.61c-.11-.39-.23-.77-.33-1.16.12.47,0,.35.07,0s.08-.83.11-1.24l.93-10.82,1.12-13c.2-2.43.51-4.86.51-7.3l0-55.07c0-17.59-.12-35.37,3.76-52.62A115.11,115.11,0,0,1,276,128.29,90.76,90.76,0,0,1,310.29,99c13.37-6.47,28.69-9.51,43.48-7.43a68.2,68.2,0,0,1,36.34,17.07,60.34,60.34,0,0,1,12.45,15.92c3.82,7.14,5.83,15,7.28,23a537.44,537.44,0,0,1,6.71,54.1q1,13.15,1.53,26.34C418.15,229.74,420.92,229.75,420.86,228Z"/><path class="cls-11" d="M409.78,205.7l-20.54,20S407.07,222.84,409.78,205.7Z"/><path class="cls-11" d="M407,190.53l-20.54,20S404.24,207.67,407,190.53Z"/><path class="cls-11" d="M404.28,174.66l-20.55,20S401.56,191.8,404.28,174.66Z"/><path class="cls-12" d="M239.86,471.32c.58-5,1.4-10.1,4-14.41l21.5,15.54c12.7,9.18,25.56,18.46,40.09,24.35,10.77,4.37,22.66,6.75,34.12,5.58-5.78,9.38-10.62,15.68-10.62,15.68s-32.75,7.55-60.12,11c-10.15,1.29-20-3.1-28.47-9.15A195.41,195.41,0,0,1,239.86,471.32Z"/><path class="cls-13" d="M360.32,357.36a175.08,175.08,0,0,0-32.22,16,227.78,227.78,0,0,0-.6-47.42c-.25-2.11-.67-4.46-2.41-5.67-1.41-1-3.28-.9-5-.71-23.74,2.63-44.89,21.18-50.61,44.37a272.66,272.66,0,0,0-24.38-60.61c-1.41-2.56-3.1-5.3-5.88-6.2-3.89-1.27-7.82,1.67-10.39,4.93,5.37-13.06,11.92-23.19,18.93-29l21.82,88.77S277.5,314,317.3,296.55s92.83-58.14,92.83-58.14,11.51-2.91,6.86,19.18-22.68,58.14-33.72,91.86c-1,3-2,6-3,9a14.12,14.12,0,0,0-6.12-3.21C369.56,354.21,364.76,355.71,360.32,357.36Z"/><path class="cls-12" d="M215.25,369.22c1-25.62,6.18-49.19,13.59-67.2,2.57-3.26,6.5-6.2,10.39-4.93,2.78.9,4.47,3.64,5.88,6.2a272.66,272.66,0,0,1,24.38,60.61c5.72-23.19,26.87-41.74,50.61-44.37,1.71-.19,3.58-.27,5,.71,1.74,1.21,2.16,3.56,2.41,5.67a227.78,227.78,0,0,1,.6,47.42,175.08,175.08,0,0,1,32.22-16c4.44-1.65,9.24-3.15,13.86-2.09a14.12,14.12,0,0,1,6.12,3.21C370,390,358.84,424.64,358.85,450.61c0,8.42-2.62,17.75-6.3,26.72-15-6.36-28.26-16.5-40.41-27.44-14.51-13.07-27.83-27.5-43.18-39.58-9.12-7.18-19.92-13.77-31.48-12.75-9.25.81-17.35,6.56-22.86,14.16C214.6,396.39,214.77,381.4,215.25,369.22Z"/><path class="cls-13" d="M237.48,397.56c11.56-1,22.36,5.57,31.48,12.75,15.35,12.08,28.67,26.51,43.18,39.58,12.15,10.94,25.44,21.08,40.41,27.44a176.39,176.39,0,0,1-13,25.05c-11.46,1.17-23.35-1.21-34.12-5.58-14.53-5.89-27.39-15.17-40.09-24.35l-21.5-15.54c-2.56,4.31-3.38,9.42-4,14.41a195.41,195.41,0,0,0,.46,48.63c-14.31-10.26-24.41-25.28-24.41-25.28s-1.26-42.65-1.29-82.95C220.13,404.12,228.23,398.37,237.48,397.56Z"/><path class="cls-14" d="M410.13,238.41s11.51-2.91,6.86,19.18-22.68,58.14-33.72,91.86-24.43,72.68-24.42,101.16-29.94,67.45-29.94,67.45-41.18,13.2-67.11,11.07c-27.5-2.26-45.89-34.46-45.89-34.46s-2.41-81.26-.66-125.45,15.85-82.3,32.52-96.25l21.82,88.77S277.5,314,317.3,296.55,410.13,238.41,410.13,238.41Z"/><path d="M265.23,368.49q-3.24,31.29-4.74,62.71-1.46,31.19-1.07,62.43.21,17.76,1,35.5c.07,1.78,2.85,1.79,2.77,0q-1.37-31.41-1-62.87.42-31.22,2.67-62.38,1.28-17.72,3.12-35.39c.18-1.77-2.59-1.76-2.78,0Z"/><path class="cls-5" d="M429.16,288.17c-.2.34-.39.68-.6,1-4.28,6.89-8,14.9-13.12,21.23-4.18,5.2-9.75,8.7-13.72,14-7.33,1.7-30.18,7.43-43.24,15.17,13.06-7.74,35.91-13.47,43.24-15.17-16,21.47-16.55,54.6-31,77.12-2.73,4.25-19.38-2-21.23,2.67-2.19,5.56-3.51,12.18-8.6,15.31.73-10.21-13.41-25.34-8.95-34.55,3.6-7.45,9.24-18.28,13.64-25.29s2.57,3,1.39-5.23c-.1-.67,1.72,8.39,1.21,7.95s-3.62-8-4.32-7.95c-2.71.17,10.57-3.43,7.86-3.47s-5.21-8.37-5.34-11.08c-.12-2.36,6-16.22,7.91-17.61,9.85-7.17,19.12-22.46,30.46-26.93,5.5-2.17,6.4-12.54,10.88-16.39,4.78-4.09,5.76,2.91,8.45-2.77,4.51-9.53-3.46-.95,1.05-10.48,3.2-6.76,17.45-16.5,18.2-23.94.57-5.66,6.71-11.51,3.5-16.08,4.84,2.64,12.81,8.82,14.24,16.79a34.16,34.16,0,0,1,.43,3.5,103,103,0,0,1-3.92,23.46c-.39,1.22-.8,2.43-1.24,3.64A128.38,128.38,0,0,1,429.16,288.17Z"/><path class="cls-15" d="M429.16,288a128.48,128.48,0,0,0,7.15-15.05A86.68,86.68,0,0,1,429.16,288Z"/><path class="cls-6" d="M436.31,272.94c.84-1.19,3.82-11.72,5.27-11.93,2-.3,7.09-4.31,8.23-2.68,9.29,13.36,29.39,20.82,28.48,37.07-.31,5.6,3.18,21.62,1.39,26.93-5.8,17.19-4.82,44.41-18.8,56-8.87,7.35-25.51,46.13-35.41,52s-22.11-2.16-26.9,8.31c-5.08,11.11-21.95,8-26.9,19.17-7,15.8-24,24.33-40.12,30.61-3.64,1.42-7.35,2.83-11,4.31C323.75,452,331,380.94,336.68,358.05c6.68-26.75,28.78-57,38.45-75s29.86-28.49,38-37.23,6.72-22.08,6.72-22.08a30.93,30.93,0,0,1,9.8,3.37c3.22,4.56,4.38,10.65,3.81,16.31-.74,7.44-4,14.36-7.19,21.12l-13.53,28.6c-2.69,5.68-5.51,11.54-10.29,15.63-4.48,3.85-10.25,5.76-15.74,7.93a144.61,144.61,0,0,0-32,17.56c-1.9,1.39-4,3.21-3.86,5.57.14,2.71,3.19,4.39,5.9,4.43s5.33-1,8-1.16a2.73,2.73,0,0,1,2,.45,2.86,2.86,0,0,1,.76,1.82c1.19,8.19-2.25,16.37-6.66,23.38s-9.87,13.38-13.48,20.83c-4.46,9.21-5.85,19.59-6.58,29.79,5.09-3.12,6.41-9.75,8.6-15.31a77.38,77.38,0,0,1,7.33-13.23c14.47-22.53,29-45.08,44.93-66.56l2.33-.53c11.05-13.2,19.24-25.13,25.11-35.75a86.68,86.68,0,0,0,7.15-15.05c.28-.71.55-1.42.81-2.12"/><path class="cls-15" d="M437.55,269.31c-.14.5-.28,1-.43,1.51-.26.7-.53,1.41-.81,2.12C436.75,271.74,437.16,270.53,437.55,269.31Z"/><path class="cls-16" d="M437.12,270.82a103.28,103.28,0,0,0,4.35-25C442,252.6,440.74,260.93,437.12,270.82Z"/><path class="cls-5" d="M371.67,457.82c4.95-11.16,4-24.28,9.08-35.39C385.54,412,395.13,404.5,405,398.6s20.52-10.74,29.4-18.09c14-11.57,22.47-28.48,28.27-45.67,1.8-5.32,3.38-10.76,3.69-16.36.91-16.25-8.79-31-18.08-44.32-1.14-1.63-2.71-3.47-4.68-3.18-1.44.22-2.44,1.51-3.27,2.71l-10.91,15.58a100.64,100.64,0,0,0,7.68-18.45c3.62-9.89,4.85-18.22,4.35-25v0c25.11,22,47.82,49.43,50.15,67.45s-26.75,72.09-39,117.44-18.93,118.36-18.93,118.36C378.76,600.83,316.35,577,316.35,577s.85-33.48,2.9-66.62c.29-4.77.72-10.77,1.27-17.63,3.68-1.48,7.39-2.89,11-4.31C347.65,482.15,364.67,473.62,371.67,457.82Z"/><path class="cls-7" d="M441.47,245.82c25.11,22,47.82,49.44,50.15,67.46s-26.75,72.09-39,117.44-18.93,118.36-18.93,118.36C378.76,600.83,316.35,577,316.35,577s.85-33.48,2.9-66.62S330,384.79,336.68,358.05s28.78-57,38.45-75,29.86-28.49,38-37.23,6.72-22.08,6.72-22.08,18.28,2.33,21.19,18.61-5.37,43.6-37,81.39c0,0-29.87,6.4-45.57,15.7"/><path class="cls-8" d="M374.94,331.81l-1.74,32.34c-.58,10.72-1,21.46-1.74,32.17a13.15,13.15,0,0,1-2,6.73,52.65,52.65,0,0,1-4.79,5.44q-4.85,5.31-9.36,10.87a255.28,255.28,0,0,0-16.78,23.15,252.53,252.53,0,0,0-15.64,28.14c-.77,1.61,1.63,3,2.39,1.4A252.92,252.92,0,0,1,356,422.87q4.54-5.69,9.42-11.11c3-3.36,7-6.61,8.16-11.16a36.19,36.19,0,0,0,.79-7.35l.44-8.21.88-16.41,2-36.82c.1-1.78-2.68-1.78-2.77,0Z"/><path class="cls-6" d="M198.28,421.85c4.46-.63,18.57,2.57,21.44,6.06,1.86,2.27,7.76,7.41,7.93,10.35,1.08,18.56-4.27,40.6-5.73,59.13-.8,10.09-1.78,50.09-2.58,60.19-6.45-1.27-19.32-3.68-24.9-7.16,2.39-16.39.09-59.39-1.07-75.91-.9-12.81-1.12-25.64-1-38.48C195.58,435.15,195,422.31,198.28,421.85Z"/><path class="cls-5" d="M220.33,333.61c-.08,4.84-6.33,23.12-7.91,27.69-3.53,10.19-13.64-.46-17.34,9.67,1-18.25,2.56-36.46,6-54.39.91-4.75,6.23-23.74,7.45-28.44,1,4,5.07,11.78,6.06,15.8S220.41,329.55,220.33,333.61Z"/><path class="cls-5" d="M217,445.25c-.17-2.93-.48-6.06-2.34-8.33-2.87-3.48-8.12-3.55-12.59-2.91a75.07,75.07,0,0,0-9.62,2c.2-15.92,1-31.85,1.76-47.76.28-5.76.57-11.54.9-17.3q5.55-15.2,10.84-30.46c1.58-4.58,3.17-9.25,3.25-14.09.08-4.05-.91-8-1.89-12s-2-8-3-12.05c4.83-18.62,12.18-36.61,23.23-52.3.86-1.22,1.93-2.54,3.42-2.63,2.1-.13,3.43,2.14,4.24,4.08l8,19.15c2.89,6.92,1.91,8.38-.69,15.27a152.63,152.63,0,0,0-8.31,35.59c-2.95,24.31-1.71,48.86-2,73.28-.25,23.9-2,47.75-3.8,71.58,0,11.49-1.73,23.25-2.59,34.71-.67,9.08-4.73,49.6.38,57.39a53.78,53.78,0,0,1-13.52-.93c.8-10.1,1.59-46.54,2.39-56.63C216.58,482.42,218.05,463.81,217,445.25Z"/><path class="cls-8" d="M227.06,466.41c0,10-1.28,20-2.19,29.95-.43,4.74-.79,9.49-1.17,14.23-.92,11.71-1.81,23.55-1.25,35.3.2,4.22.23,9.62,2.59,13.32l1.2-2.08a53.86,53.86,0,0,1-31.1-7.91l.63,1.57c1.63-11.32,1.21-23,.95-34.42-.28-12.44-.86-24.88-1.66-37.31-1.13-17.74-1.53-35.42-1.06-53.2.52-19.6,1.49-39.21,2.7-58.77,2.24-36.42,7-74,25.57-106.19,1-1.73,2-3.44,3.11-5.13a46.63,46.63,0,0,1,4-5.79c.63-.72,1.42-1.44,2.42-1a3.92,3.92,0,0,1,1.46,1.66,58.21,58.21,0,0,1,3,6.87c1.9,4.51,3.82,9,5.68,13.52,1.33,3.22,2.2,6.12,1.14,9.54-1.27,4.1-3,8-4.28,12.14-1.37,4.45-2.51,9-3.45,13.52a210.45,210.45,0,0,0-3.65,28.08c-1.33,19.52-.61,39.1-.77,58.66s-1.34,39.31-2.75,58.92q-.52,7.24-1.07,14.49c-.13,1.78,2.64,1.77,2.78,0,1.51-20.34,3-40.69,3.6-61.08.55-20-.25-40,.43-60,.66-19.39,2.78-39,9.4-57.36,1.18-3.26,2.94-6.61,3.1-10.13.18-4-2-7.88-3.46-11.45q-2.83-6.76-5.68-13.52c-1.21-2.88-3-7.69-7.09-6.68a6.78,6.78,0,0,0-3.56,2.84c-1.38,1.87-2.65,3.85-3.89,5.81q-3.63,5.76-6.69,11.86a168.57,168.57,0,0,0-9.95,24.6c-5.73,17.91-8.73,36.57-10.54,55.25-1.92,19.8-2.69,39.73-3.57,59.6-.88,20.11-1.42,40.26-.43,60.37,1.25,25.59,3.78,51.31,2.21,76.94-.14,2.21-.31,4.41-.62,6.6a1.45,1.45,0,0,0,.64,1.57,56.48,56.48,0,0,0,32.5,8.28,1.4,1.4,0,0,0,1.2-2.09c-1.93-3-2-7.61-2.17-11.13-.33-5.76-.2-11.55,0-17.31.39-9.83,1.26-19.63,2-29.43.89-11.18,2.47-22.3,2.5-33.53A1.39,1.39,0,0,0,227.06,466.41Z"/><path class="cls-8" d="M234.62,253.31A247.45,247.45,0,0,0,220,280.79c-1,2.29-2,4.61-3,6.94a47.23,47.23,0,0,0-2.72,7c-.58,2.39.37,4.41,1.6,6.4s2.48,3.75,3.79,5.58c3,4.17,6,8.42,7.4,13.43a1.39,1.39,0,0,0,2.67-.74A37.76,37.76,0,0,0,223.94,308c-1.24-1.79-2.54-3.55-3.78-5.35s-3.09-3.92-3.31-6a7.06,7.06,0,0,1,.81-3.16c.48-1.23,1-2.45,1.47-3.67q1.44-3.48,3-6.93,3.06-6.78,6.51-13.37,3.94-7.51,8.39-14.74c.94-1.53-1.46-2.92-2.39-1.4Z"/><path class="cls-8" d="M222.14,309.86l-15.06,57c-1.21,4.58-2.81,9.24-3.34,14-.5,4.58,1.09,8.85,2.58,13.1l9.82,28,11,31.29c.59,1.68,3.27,1,2.68-.73q-9.62-27.42-19.24-54.83c-.79-2.25-1.59-4.5-2.37-6.76a28.58,28.58,0,0,1-1.73-6.85c-.39-4.56,1.38-9.2,2.53-13.55l7.41-28,8.42-31.87a1.39,1.39,0,0,0-2.68-.73Z"/><path class="cls-12" d="M416.83,226.46s-1.62,5.81-16.35,17.83-59.2,37-71.7,43c-23,11.05-55.17,35.92-60.21,69.64,0,0-5.18-34-8.78-49.36-3.33-14.22-11.76-32.68-8.79-49.35,0,0-7.88,3.1-12.92,13.18s-3.4,29.46-3.4,29.46,4-21.65,12.32-16.28,20.35,85.65,20.35,85.65,9.49-50,51.35-72.09c0,0,10.08.78,11.24,17.44,0,0,31-16.27,51.94-36S423.48,240.41,416.83,226.46Z"/><path class="cls-14" d="M416.83,226.46s-1.62,5.81-16.35,17.83-59.2,37-71.7,43c-23,11.05-55.17,35.92-60.21,69.64,0,0-5.18-34-8.78-49.36-3.33-14.22-11.76-32.68-8.79-49.35,0,0-7.88,3.1-12.92,13.18s-3.4,29.46-3.4,29.46,4-21.65,12.32-16.28,20.35,85.65,20.35,85.65,9.49-50,51.35-72.09c0,0,10.08.78,11.24,17.44,0,0,31-16.27,51.94-36S423.48,240.41,416.83,226.46Z"/><path class="cls-6" d="M183.74,414.72c-8.16,1.8-23.06,3.19-31.26,1.58-7.59-1.49-7.16-21.51-8.89-28.9.3-2.2.57-4.45.76-6.71,1.73-19.92,49.47-26.2,49.47-26.2,41.09-21.2,53.27-9.18,53.27-9.18-7.58-5.19-6.38,11.31-2.89,23.5.88,3.07,6.83,17.91,8.18,21.08-5.32,3.43-13.74,6-19.58,8.41C218.15,404.28,199.19,411.3,183.74,414.72Z"/><path class="cls-5" d="M143.59,387.4c1.73,7.39,9.1,12.77,16.69,14.26,8.2,1.61,16.63-.29,24.79-2.09,15.45-3.42,31.07-6.57,45.72-12.55a102,102,0,0,0,16.87-8.71,175.62,175.62,0,0,0,9.1,18s-39.68,8.42-51.4,14-36,13.37-53,11.07C137.23,419.39,141.27,404.61,143.59,387.4Z"/><path class="cls-7" d="M145.69,375.93c-1.08,4.92-.55,3-1.14,8.79-.06.64-.13,1.27-.2,1.89"/><path class="cls-7" d="M144.35,386.61c-2.4,21.66-6.81,33.79,12.41,35.49,19.77,1.74,36.05-9.3,57-14s43-11.82,43-11.82-30.23-56-8.72-49.4c0,0-3.49-12.38-35.47,0S162,375.56,162,375.56"/><path class="cls-8" d="M191.83,353.15a99.68,99.68,0,0,0-27,8.09c-1.62.75-.21,3.14,1.4,2.4a97.49,97.49,0,0,1,26.29-7.82c1.76-.26,1-2.94-.74-2.67Z"/><path class="cls-3" d="M205.6,356.46c-8-2.09-12-4.21-20.1-3,.56-2.67,2.64-12.86,3.9-15.29,3.46-6.67,10.09-11.39,17.32-13.44s15-1.59,22.28.31a58.7,58.7,0,0,1,33.24,23.36l-.53-.37c-4.29,5.52-15.84,18.3-20.7,23.33-1.47-.74-9.56-2.12-11-2.9C219.72,362.84,217,359.43,205.6,356.46Z"/><path class="cls-17" d="M211.39,347.53c11.37,3,21.94,8.41,32.25,14.06,1.41.78,2.85,1.57,4.32,2.31a193,193,0,0,1-14.42,13.46c-2,1.71-4.37,3.47-7,3.32s-4.73-2.09-6.68-3.85A95.46,95.46,0,0,0,185.5,356.9a82.52,82.52,0,0,1,1.28-11A61.5,61.5,0,0,1,211.39,347.53Z"/><path class="cls-11" d="M263.43,347.73a60.32,60.32,0,0,0-32.56-23.58c-13.73-4-30.54-2.66-40,9.31-5.32,6.72-6.16,15.19-6.73,23.44a1.39,1.39,0,0,0,1,1.34A94.27,94.27,0,0,1,217.91,377c2.13,1.88,4.25,4.15,7.1,4.88s5.78-.59,8.11-2.38a144.33,144.33,0,0,0,14.68-13.4,195.64,195.64,0,0,0,14.89-17c1.08-1.4-.87-3.37-2-2a193.35,193.35,0,0,1-26.8,28.14c-2,1.72-4.52,4.3-7.41,4.09s-5.22-3.07-7.29-4.86a96.67,96.67,0,0,0-33.36-18.87l1,1.33c.48-7,1-14.28,5-20.25a27,27,0,0,1,14.44-10.34c13.21-4.08,28.15.36,39.34,7.79a56.94,56.94,0,0,1,15.33,15c1,1.46,3.41.07,2.39-1.4Z"/><path class="cls-6" d="M491.74,334.4c.54,13.53-5.55,32.38-12.66,43.92-3.55,5.77-14.09,16.72-19.38,21-4.23,3.38-14.92,26.56-20,28.48-14.15,5.39,1.72-17.25-13.26-15,8.16,3.54-31.77,40.42-22.94,39.36-14.29,10.25-27,14.45-42.53,22.75-9.12,4.89-18.85,7.68-28.91,10.09-1.26.3-12.79-3.38-14-3.76s-5.46-4.89-6.53-5.73c-11.55-9.1-11.75-6.26-23.54-15-5.51-4.1-13.44-10.44-16.82-16.42-4.09-7.23-4-14.67-11.67-17.82-5.33-2.19-7.7-8.08-12.07-11.85-5.62-4.86-12.9-18.13-13.64-25.52-1.49-14.75,4.43-35,14.33-41.08a38.85,38.85,0,0,1,17.18-3.63s51.27,59.94,71.95,74.06c0,0,4.6-4.1,8.09.17,0,0-.17-15.12,15.71-35.08s34.63-52,39.3-57.42,22.07-22.36,33.84-26.05c4.3-1.34,12.28-4.12,21.38-4.82,6,8.69,20.08,7.32,24.5,16.9C483.26,318.75,491.44,326.81,491.74,334.4Z"/><path class="cls-5" d="M248.12,347.72c-5.86,13.5-7,28.92-5.56,43.66.74,7.4,2.45,15.33,8.07,20.19,4.36,3.77,10.28,5,15.62,7.17a37.69,37.69,0,0,1,18.61,15.88c3.38,6,5.11,13.3,10.61,17.4,11.79,8.78,31-3.74,42.55,5.36a11.17,11.17,0,0,0,3.36,2.26,7.42,7.42,0,0,0,3.82-.19c10.06-2.41,19.31-7.35,28.42-12.23,15.5-8.31,31.05-16.65,45.34-26.9a50.61,50.61,0,0,1-26.09-3.82,209.68,209.68,0,0,0,43.85-11.44c5.06-1.93,10.12-4.09,14.34-7.48,5.29-4.24,8.95-10.13,12.5-15.91,7.11-11.53,14.46-24,13.93-37.5-.3-7.59-3.1-14.86-6.29-21.75A186.63,186.63,0,0,0,455.57,295c15.82-1.2,35.05,3.91,44.33,33.89,7.29,23.56-5.46,55-18.33,72.06-20.81,27.64-41,45.65-96.39,73.2s-62.47,32.08-81.65,12-64.54-76.42-77.26-99L220,378.39S229.05,356.55,248.12,347.72Z"/><path class="cls-7" d="M338.11,418.72c-15.7-9.89-72.81-74.63-72.81-74.63-31.4-.58-45.35,34.3-45.35,34.3s22.67,30.82,33.72,47.68,37.21,50.58,57.55,66.67S375.76,479,399,466.18s62.79-36.62,82.56-65.28,26.34-55.38,15.12-81.14c-8.14-18.69-29.07-31.68-58.72-21.4s-44.19,34.69-62.21,64.34-29.07,36.62-30.23,56.39l-1.17,19.77"/><path class="cls-8" d="M346.53,419c-1-2.27-2.49-4.63-5.25-4.79s-3.9,2.29-4.64,4.51q-3,8.81-5.9,17.62c-.57,1.7,2.11,2.42,2.68.74l4.71-14.1,1.12-3.33a5.31,5.31,0,0,1,1.12-2.4c1.71-1.46,3.29,2.08,3.77,3.15.72,1.63,3.11.22,2.39-1.4Z"/><path class="cls-18" d="M350.64,420.77a22.62,22.62,0,0,1-.26-2.85S350.54,419.08,350.64,420.77Z"/><path class="cls-17" d="M341.66,369.37c1.71-4.15,15.19,8.38,20,14.88,4,5.38,9.69,12.07,9.69,17.44-1,.53-3.08-.39-7.6-3.94a57.92,57.92,0,0,0-7.3-10.85C351.48,381.07,345.31,376.11,341.66,369.37Z"/><path class="cls-3" d="M316,401.83c-6.1-10.89-15-22.77-22.86-32.46-4.28-5.29-10.82-11.13-13.05-17.56,15.59-1.61,48.54-3.6,58,5.25,14,13.1,35.27,32,34.34,37.61-.49,3,.23,6.31-1.08,7q-6.21-7.9-12.2-16c-4.83-6.5-10-13.39-17.51-16.33,3.65,6.74,9.82,11.7,14.81,17.53a57.92,57.92,0,0,1,7.3,10.85c-.91-.71-1.89-1.51-3-2.45a85.59,85.59,0,0,1,2.32,23c-.34,5.88-.51,9.74-1.41,11.72-.34-.81-5,1.48-5.27.65-1.31-4.58-1.8-9.1-2.74-13.77-3.09-15.33-9.51-31-20.22-42.41,1.69,6.82,8.45,11,12.16,17,3.5,5.66,4.08,12.62,4.29,19.27q.3,9.35-.11,18.7c0,.5-.05,1-.08,1.51-.89,2.32-2.52,3.73-5.36,2.74a5.89,5.89,0,0,1-1.26-.62c-.28-1.79-4.11-6.88-4.06-8.67.12-4.81-2-7.68-2.58-12.46-.78-6.54-1.86-10.64-5.34-16.23-3-4.78-4.87-9.43-8.1-14-2.29-3.26-.94-4.92-4.72-3.66,1.66,2.55,1.95,2.35,3.7,4.84a59.77,59.77,0,0,1,10.46,29.38c-.86,5.21-2.49,12.48-5.31,16,.1-.94-5,1.64-4.93.72C323.16,419,320.86,410.54,316,401.83Z"/><path class="cls-17" d="M274.78,352.55s5.21-.9,12.71-1.68a59.07,59.07,0,0,0,9.84,17.77c7.85,9.7,18.79,16.92,24.88,27.81,4.88,8.7,6.17,19.07,5.23,29-.09.92-.2,1.85-.3,2.79-1.67,2.08-3.76,2.85-6.35,1.07-9.82-6.73,5.94-13.16-6.85-30.57s-15.75-21.81-23.47-29.26S272.71,355.4,274.78,352.55Z"/><path class="cls-17" d="M349.9,410.75c-.21-6.65-.79-13.61-4.29-19.27-3.71-6-10.47-10.18-12.16-17,10.71,11.4,21.87,23.64,25,39,.94,4.67,1.09,9.5,2.4,14.08a22.82,22.82,0,0,0,.87,2.48c-.85,1.87-2.35,2.06-5.27.65-3.91-1.9-5.28-6.75-5.77-9.89-.1-1.69-.26-2.85-.26-2.85a22.62,22.62,0,0,0,.26,2.85c.18,2.86.2,7.26-.93,10.19,0-.51.06-1,.08-1.51Q350.2,420.11,349.9,410.75Z"/><path class="cls-17" d="M316.64,375.47c3.77-1.25,7.27,2.37,9.56,5.63q4.86,6.91,9.33,14.1c3.48,5.59,6.85,11.5,7.64,18,.57,4.78-.27,9.6-.39,14.42a30.81,30.81,0,0,0,.31,5.42c-7.57-4.78-9.86-26.83-9.86-26.83s-.22,2.55-.78,6A59.77,59.77,0,0,0,322,382.86C320.24,380.37,318.29,378,316.64,375.47Z"/><path class="cls-11" d="M274.78,353.94c9.08-.46,18.16-1.06,27.23-1.53a101,101,0,0,1,15.65-.09,60.54,60.54,0,0,1,12.76,2.7,28.16,28.16,0,0,1,10.81,6.22c2.89,2.81,5.69,5.72,8.57,8.55,6.12,6,12.42,12.15,17.16,19.37a40.28,40.28,0,0,1,3.19,5.75,7.57,7.57,0,0,1,.91,2.49,6.09,6.09,0,0,1-.81,2.36c-.7,1-3-.36-3.86-.89A13.47,13.47,0,0,1,362,394.6a1.39,1.39,0,0,0-2.4,1.41c1.79,3.06,5.49,6.09,9,6.72,1.87.34,3.55-.18,4.25-2.05.62-1.66,1.25-3.08.63-4.83-3-8.47-9.46-15.52-15.61-21.88-3.26-3.38-6.64-6.63-10-9.94-3.13-3.1-6-6.39-9.86-8.64a43.66,43.66,0,0,0-13.17-4.7,68,68,0,0,0-15.78-1.38c-11.44.33-22.87,1.28-34.31,1.86-1.77.09-1.78,2.86,0,2.77Z"/><path class="cls-11" d="M340.63,372c3.3,4.16,7,8,10.52,12,3.77,4.28,7.91,8.87,9.07,14.61a74.41,74.41,0,0,1,1,10.23c.22,3.45.41,6.9.55,10.35.07,1.64.13,3.29.18,4.93.05,1.45.27,3.19-.39,4.53-1,2.07-4,1.47-5.43.27-1.67-1.36-2.27-4.07-2.81-6a38.47,38.47,0,0,1-1.37-6.8c-.16-1.76-2.93-1.78-2.77,0a42.07,42.07,0,0,0,1.37,7.21,20.14,20.14,0,0,0,2.62,6.5,7.47,7.47,0,0,0,6.57,3c2.93-.29,4.66-2.54,5-5.35a36.8,36.8,0,0,0,0-5.25q-.11-3.21-.27-6.41-.28-5.92-.73-11.82c-.27-3.58-.65-7.14-2.17-10.44a40,40,0,0,0-5.64-8.27c-4.24-5.2-9.06-9.88-13.22-15.14-1.11-1.39-3.06.58-2,2Z"/><path class="cls-11" d="M331.85,375.22c3,5.61,7.95,9.78,11.1,15.26a46.13,46.13,0,0,1,5.29,17.15,120.68,120.68,0,0,1,.9,18.62c-.08,2.48-1.1,6.76-4.5,6.09-3.15-.61-4.19-4.38-5-7A198.22,198.22,0,0,1,334,402c-.31-1.75-3-1-2.67.74A196.68,196.68,0,0,0,337,426.09c1,3.14,2.14,6.61,5.23,8.27a6,6,0,0,0,7.72-1.58c2.21-2.76,2-6.41,2-9.75s-.14-7-.39-10.43c-.48-6.65-1.54-13.34-4.17-19.51a41.24,41.24,0,0,0-6-9.75c-2.5-3.07-5.18-6-7-9.52-.84-1.58-3.24-.18-2.4,1.4Z"/><path class="cls-11" d="M314.6,375.32l9.46,14.42c2.75,4.19,5.68,8.45,7.1,13.31,1.5,5.16.64,10.35-1.16,15.31-.91,2.5-2,4.92-3.19,7.31-.9,1.87-2.05,4.71-4.54,3-3.92-2.61-3.32-8.6-2.88-12.61a31.91,31.91,0,0,0,.2-8.05,20.54,20.54,0,0,0-2.62-7,123.56,123.56,0,0,0-8.44-12.48q-4.47-6-9.39-11.71-5.59-6.44-11.74-12.35-3-2.88-6.12-5.63Q279.65,357.4,278,356c-.58-.49-2.55-1.83-2-2.74,1-1.51-1.44-2.9-2.39-1.4-1.4,2.21.41,4.42,2.08,5.82,2.12,1.79,4.21,3.6,6.25,5.47q6.13,5.61,11.76,11.73a175.85,175.85,0,0,1,20,26,20.32,20.32,0,0,1,3.2,7.65c.42,3-.13,6-.41,8.95-.43,4.55-.11,10.06,3.78,13.15,1.91,1.51,4.5,1.94,6.46.27s2.71-4.25,3.68-6.37c2.37-5.17,4.5-10.7,4.35-16.49-.15-6.15-3.08-11.66-6.32-16.72-3.74-5.85-7.61-11.62-11.42-17.43-1-1.49-3.38-.1-2.4,1.4Z"/><path class="cls-11" d="M310.78,368.5l-4.26-4.27a1.39,1.39,0,0,0-2,2l4.26,4.26a1.39,1.39,0,0,0,2-2Z"/><path class="cls-11" d="M330.33,366.27l-6.62-5a1.39,1.39,0,0,0-1.9.5,1.42,1.42,0,0,0,.5,1.9l6.61,5a1.39,1.39,0,0,0,1.9-.5,1.43,1.43,0,0,0-.49-1.9Z"/><path class="cls-19" d="M358.94,124.05c-1.49-7.1-7.52-17.8-10.81-24.27-3.52-6.89,20.32-20.59,14.69-25.77,10.13,5,36.42,20.85,45.34,55.49,2.31,9-6.81,17.67-20.27,30.08a69.55,69.55,0,0,0-10,10.87c1.35-6.3-15.77-3.91-14.43-10.21C366.11,147.64,361.59,136.66,358.94,124.05Z"/><path class="cls-20" d="M313.87,102.5s-1.32-8.45-17.68-3.7S169.48,141,169.48,141"/><path class="cls-21" d="M169.48,146s20.28-6.18,19-11.43-20.66,1.74-20.66,1.74Z"/><path class="cls-22" d="M172.38,131.46c-2.8,1.3-6.38,8.49-3.57,18.35,3.7,12.9,8.39,17.33,14.86,17.54,5.91.2,10.09-4.46,13.18-11.92,3.77-9.12,6.22-20-5.95-23C179.81,129.76,176.06,129.76,172.38,131.46Z"/><path class="cls-20" d="M172.38,131.46c-2.8,1.3-6.38,8.49-3.57,18.35,3.7,12.9,8.39,17.33,14.86,17.54,5.91.2,10.09-4.46,13.18-11.92,3.77-9.12,6.22-20-5.95-23C179.81,129.76,176.06,129.76,172.38,131.46Z"/><path class="cls-23" d="M267.68,246.43c24.57-2.84,39.05-18.25,57.9-34.28C340,199.86,356,171,362.11,153.06c1.64,6.58,5.52,39.22,5.17,46-5.27,14-14.76,33.57-30.41,44.22-22.09,15-36.09,29.55-74.63,27.83-23.45-1.05-28.27-9.67-28.85-18.4C241.68,249.86,256.88,247.69,267.68,246.43Z"/><path class="cls-9" d="M261,220.9a115.43,115.43,0,0,0,47.2-11.58c7.32-3.57,14.33-8,20-13.83s9.92-13.49,11.12-21.55C331,190,316.39,200.25,300.35,206.08c-8,2.91-16.26,6.3-24.68,7.65s-23.44.63-31.88-.27c-27.95-3-51.89-15.37-69.71-37,.37-.7.84-9.36,1.43-10s1.74-1.75,3-2.88c18.2.13,39.41,6,61.71,8,32.48,2.92,54.56-1,84.65-13.52,4.66-1.95,13.73-8.7,18.75-9.18s23.64-11.53,27.17-7.92c2.63,2.69-6.46,34-5.53,37.68,0,.1.05.2.07.29a107,107,0,0,1-31.89,46.37c-18.85,16-42.82,25.59-67.39,28.44a106.59,106.59,0,0,1-32.68-1c-.37-5.61,1-11.27.32-15-1.51-8-3.11-15-6.12-19.28l2.45.32C240.29,220.07,250.61,221.18,261,220.9Z"/><path class="cls-23" d="M225.8,216.41c-4.22-3.78-17.16-2.06-33.79-18-15-14.36-21.31-23.48-17.93-30,17.82,21.65,44.11,36.44,72,39.39a96.44,96.44,0,0,0,25.4-.56,135.44,135.44,0,0,0,24.62-6.83c16-5.83,32.1-13.47,43.11-26.52-1.2,8.06-5.46,15.7-11.12,21.55s-12.67,10.26-20,13.83A115.43,115.43,0,0,1,261,220.9c-10.34.28-20.66-.83-30.91-2.12l-2.45-.32A12.36,12.36,0,0,0,225.8,216.41Z"/><path class="cls-3" d="M365.35,178.88a94.73,94.73,0,0,0,4.11-16.72,94.73,94.73,0,0,1-4.11,16.72c0-.09,0-.19-.07-.29-.93-3.64-2.23-7.34-4.86-10-3.53-3.61-8.95-4.82-14-4.34s-9.77,2.42-14.43,4.36c-30.09,12.56-61.54,25.94-94,23-22.29-2-43.48-12.41-59.46-28,9.78-8.65,34.05-26.44,37.48-30.41,3.88-4.5,13.07-17.4,17.31-22.08s22.82-23.89,39.19-31.29,48.16-22.87,86.26-7.57c0,0,1.52.56,4.05,1.8,5.63,5.18,10,12,13.47,18.94A82.34,82.34,0,0,1,384,113.26c2.65,12.61.85,25.72-1.83,38.31-1.35,6.31-2.92,12.58-4.27,18.88-3.62,5.19-4.19,9.06-6.09,15.24-.87,2.84-2.32,7.63-4.48,13.37A68.53,68.53,0,0,0,365.35,178.88Z"/><path class="cls-21" d="M312.67,207.35l-2.38,8c-.38,1.31-.73,2.65-1.16,4-.18.53-.25.88-.85.72a5.89,5.89,0,0,1-1.47-.77c-3.5-2.12-6.25-5.26-10.55-5.68a1.4,1.4,0,0,0-1.39,1.38A63.93,63.93,0,0,1,291,233.68l2.32-.61-16.62-15a1.41,1.41,0,0,0-2.18.28c-3.29,7.39-3.29,15.67-6.29,23.14l2.53-.33-10.33-19.94a1.4,1.4,0,0,0-2.4,0c-3.51,7.1-7.34,14-11.15,21l1.9-.5c-.68-.51-.92-1.71-1.19-2.46s-.65-1.73-1-2.6q-1.14-2.85-2.41-5.66a116.92,116.92,0,0,0-5.65-10.89,1.39,1.39,0,0,0-2.4,1.4,117.12,117.12,0,0,1,6,11.74q1.33,3,2.49,6.1c.67,1.79,1.11,3.57,2.71,4.77a1.4,1.4,0,0,0,1.9-.5c3.81-7,7.64-13.89,11.15-21H258l10.34,19.94c.6,1.17,2.13.68,2.53-.33,2.92-7.24,2.84-15.33,6-22.47l-2.18.28,16.62,15a1.4,1.4,0,0,0,2.31-.61,66.63,66.63,0,0,0,4-19.43l-1.39,1.39c2.31.23,4.24,1.74,6,3.09s4,3.38,6.26,3.5c2.86.16,3.4-3.37,4-5.42l2.79-9.46a1.39,1.39,0,0,0-2.67-.74Z"/><path class="cls-4" d="M409.28,134.75c-4.55-26-24.54-52.13-52.52-63.38S292.08,65.7,262,86.18,227.56,120.23,217.13,132s-39.81,26.25-43.5,38.21,35,58.22,97.76,49.68,68.3-44.71,68.3-44.71"/><path class="cls-4" d="M225.8,216.41s7.28,7.86,8,22.89-3.23,32.55,30.82,31.78,65-16.91,82.31-38.29,22.92-37.35,26.86-55.66"/><path class="cls-11" d="M338.29,176.19a108.21,108.21,0,0,1-25.47,41.07,84.78,84.78,0,0,1-43.67,23.32,72.16,72.16,0,0,1-28.54-.23c-1.74-.37-2.49,2.3-.74,2.68,17.29,3.71,35.44.82,51.26-6.88,15.3-7.45,28-19.53,37.3-33.69A117,117,0,0,0,341,176.93c.6-1.69-2.08-2.41-2.67-.74Z"/><path class="cls-11" d="M232.12,219.83a47.6,47.6,0,0,1,5.59,20.94c0,1.78,2.83,1.79,2.77,0a50.71,50.71,0,0,0-6-22.34c-.84-1.58-3.24-.18-2.4,1.4Z"/><path class="cls-11" d="M332.54,177c1.6-.54,2.86-1.66,4.41-2.28a3,3,0,0,1,3.44.89,11.16,11.16,0,0,1,2.38,4.3,18.66,18.66,0,0,1,1,5.78,1.39,1.39,0,0,0,2.77,0,21.16,21.16,0,0,0-1.2-6.86,13.42,13.42,0,0,0-3.12-5.31,5.76,5.76,0,0,0-5.45-1.64c-1.83.46-3.2,1.85-5,2.45s-1,3.25.74,2.67Z"/><path class="cls-24" d="M327.52,142.73a22.57,22.57,0,0,1,.36,4.07c0,10.72-7.28,19.4-16.26,19.4-6.71,0-12.47-4.85-14.95-11.78A46.35,46.35,0,0,0,327.52,142.73Z"/><ellipse class="cls-21" cx="315.68" cy="150.75" rx="5.81" ry="8.18"/><ellipse class="cls-24" cx="313.27" cy="157.51" rx="2.4" ry="2.74"/><path class="cls-3" d="M311.62,127.4c7.81,0,14.33,6.57,15.9,15.33a46.35,46.35,0,0,1-30.85,11.69,22.53,22.53,0,0,1-1.31-7.62C295.36,136.09,302.64,127.4,311.62,127.4Z"/><path class="cls-4" d="M325.58,156.76a22.23,22.23,0,0,0,2.3-10,22.71,22.71,0,0,0-1.07-6.94"/><path class="cls-4" d="M322.91,132.84a14.94,14.94,0,0,0-11.29-5.44c-9,0-16.26,8.69-16.26,19.4,0,7.18,3.27,13.45,8.13,16.81"/><path class="cls-11" d="M326.45,141.58c-7.6,7.71-19.13,11.62-29.84,11.28-1.79-.06-1.79,2.72,0,2.78,11.41.36,23.71-3.88,31.8-12.1a1.39,1.39,0,0,0-2-2Z"/><path class="cls-25" d="M260.64,148.69c4.31,2.65,13,7.39,12.71,23.23s-6.11,23.49-16.14,24.28-21.1-.72-32.47-19.8c-7.65-12.84-19.26-39.26,0-36.88S255,145.2,260.64,148.69Z"/><path class="cls-20" d="M417.74,126.84s-1.32-8.44-17.69-3.69-126.7,42.23-126.7,42.23"/><path class="cls-20" d="M260.64,148.69c4.31,2.65,13,7.39,12.71,23.23s-6.11,23.49-16.14,24.28-21.1-.72-32.47-19.8c-7.65-12.84-19.26-39.26,0-36.88S255,145.2,260.64,148.69Z"/><path class="cls-21" d="M273.35,170.39s20.27-6.18,19-11.44-20.66,1.74-20.66,1.74Z"/><path class="cls-21" d="M217.32,140.37a24.42,24.42,0,0,0-3.88-3.06,12.63,12.63,0,0,0-6.06-1.68c-3.21-.1-6.38.36-8.68,2.76-1.23,1.29.73,3.25,2,2a4.79,4.79,0,0,1,1.77-1.33,12.38,12.38,0,0,1,4.95-.62c3.3.1,5.63,1.82,8,3.93,1.32,1.19,3.29-.76,2-2Z"/><path class="cls-21" d="M215.18,150.43a20.26,20.26,0,0,0-15.5-5.48,1.42,1.42,0,0,0-1.38,1.39,1.38,1.38,0,0,0,1.38,1.38,17.59,17.59,0,0,1,13.54,4.67c1.3,1.22,3.26-.74,2-2Z"/><path class="cls-11" d="M206.64,181.7c.16-.37,0,0,0,.08l-.17.31a5.27,5.27,0,0,1-.4.64l-.11.15c-.1.15.18-.21.06-.07l-.23.27c-.17.19-.35.37-.53.54l-.27.24-.14.11s.26-.19.06-.06a5.23,5.23,0,0,1-.63.41l-.31.17c-.27.14.31-.09,0,0l-.24.07-.15,0c.27-.1.27,0,.09,0a.87.87,0,0,1-.28,0s.39.1.17,0c0,0-.11,0-.12,0s.35.17.17.06c0,0,.29.24.14.1s-.12-.19.1.14c-.11-.17,0,.16.06.21v.09c0-.12,0-.12,0,0s0,0,0,0a.82.82,0,0,1,.06-.19s-.11.24,0,.06a6.61,6.61,0,0,1,.39-.68c.06-.1.13-.19.19-.28s.08,0-.06.07a.45.45,0,0,0,.11-.13,8.5,8.5,0,0,1,1-1,1.13,1.13,0,0,0,.13-.1c-.09.15-.19.14-.07.06s.23-.17.36-.25a5.51,5.51,0,0,1,.67-.38l.35-.17-.09,0,.2-.07a6.29,6.29,0,0,1,.74-.22,3,3,0,0,1,.43-.09l.17,0-.2,0,.17,0L207,180.4v.25s0,.09,0,.13,0,.06,0-.16a1.75,1.75,0,0,0-.09.41,2.25,2.25,0,0,0-.08.24c-.09.27.14-.28,0,0s-.14.28-.22.41-.12.12-.12.17c.12-.16.15-.2.08-.12a.39.39,0,0,1-.08.1,3.34,3.34,0,0,1-.33.32c-.16.15,0,0,.06,0a1.53,1.53,0,0,0-.21.14,4.78,4.78,0,0,1-.45.23,1.37,1.37,0,0,0-.64.83,1.43,1.43,0,0,0,.14,1.07,1.4,1.4,0,0,0,.83.64,1.65,1.65,0,0,0,1.07-.14,4.93,4.93,0,0,0,2.81-4.46,1.41,1.41,0,0,0-1.39-1.39,8.73,8.73,0,0,0-6.52,4,3.76,3.76,0,0,0-.74,2.24,2.25,2.25,0,0,0,1.68,2,4.37,4.37,0,0,0,3.63-1.05,8.88,8.88,0,0,0,2.9-3.76,1.38,1.38,0,0,0-.14-1.07,1.44,1.44,0,0,0-.83-.64,1.42,1.42,0,0,0-1.07.14,1.65,1.65,0,0,0-.64.83Z"/><path class="cls-26" d="M312.42,112.75c-4.19-.51-2.81,1.24-6.7,7.3s-9.38,8.78-15.63,8.6-5.19,6.77-2.08,10.19,15.84,7.55,22.87-6.86S314.69,113,312.42,112.75Z"/><path class="cls-20" d="M312.42,112.75c-4.19-.51-2.81,1.24-6.7,7.3s-9.38,8.78-15.63,8.6-5.19,6.77-2.08,10.19,15.84,7.55,22.87-6.86S314.69,113,312.42,112.75Z"/><path class="cls-27" d="M336.31,379.46s-11.54-3-15.79,4.36L328.06,394s11.89-6.44,15.77-4.7Z"/><path class="cls-28" d="M336.31,379.46s-11.54-3-15.79,4.36L328.06,394s11.89-6.44,15.77-4.7Z"/></g></svg>