<svg xmlns="http://www.w3.org/2000/svg" xmlns:xlink="http://www.w3.org/1999/xlink" viewBox="0 0 600 600"><defs><style>.cls-1{fill:#ffce55;}.cls-2{fill:#007fcc;}.cls-3{fill:#6fb7d6;}.cls-14,.cls-16,.cls-18,.cls-20,.cls-28,.cls-4,.cls-7{fill:none;}.cls-4{stroke:#1b5186;}.cls-14,.cls-20,.cls-28,.cls-4,.cls-7{stroke-linecap:round;stroke-linejoin:round;stroke-width:2.77px;}.cls-5{fill:#a02e13;}.cls-6{fill:#d64316;}.cls-7{stroke:#030304;}.cls-8{fill:#030304;}.cls-9{fill:#f1f3f3;}.cls-10{fill:#dedbe1;}.cls-11{fill:#1b5186;}.cls-12{fill:#80aeff;}.cls-13{fill:#3a75c9;}.cls-14{stroke:#000;}.cls-15{fill:#514545;}.cls-17{fill:#0080ca;}.cls-18{stroke:#6fb7d6;stroke-miterlimit:10;stroke-width:0.56px;}.cls-19{fill:#027ecb;}.cls-20{stroke:#1d1d1b;}.cls-21{fill:#1d1d1b;}.cls-22{fill:url(#Degradado_sin_nombre_16);}.cls-23{fill:#dedce0;}.cls-24{fill:#f2f3f2;}.cls-25{fill:#3c3c3b;}.cls-26{fill:url(#Degradado_sin_nombre_16-2);}.cls-27{fill:#fbb03b;}.cls-28{stroke:#8e6a2b;}</style><linearGradient id="Degradado_sin_nombre_16" x1="-606.15" y1="175.84" x2="-615.65" y2="136.28" gradientTransform="matrix(-1, 0, 0, 1, -452.97, 0)" gradientUnits="userSpaceOnUse"><stop offset="0" stop-color="#fcadab"/><stop offset="1" stop-color="#ded5ee"/></linearGradient><linearGradient id="Degradado_sin_nombre_16-2" x1="-667.09" y1="190.47" x2="-676.58" y2="150.9" xlink:href="#Degradado_sin_nombre_16"/></defs><g id="Capa_3" data-name="Capa 3"><g id="a"><rect class="cls-1" width="600" height="600"/></g></g><g id="Capa_2" data-name="Capa 2"><path class="cls-2" d="M381,149.64s6.88,4.1,16,10.74c2.8,9.61,12.39,14.58,15.43,24.3,2.58,8.26,3.09,9.07,8.44,15.87,4.82,6.14,9.93,15.57,15.17,21.35,2.69,3,3.21,14,5,17.55,2.05,4.09,2.16,11.41,2.77,16,1.31,9.78-.22,17.67,1,27.45-5.51-13.08-17.36-35.83-34.51-40C386,236.89,374,241.05,374,241.05Z"/><path class="cls-3" d="M437.64,240.23c-1.8-3.59-4.58-6.56-7.28-9.53q-7.86-8.67-15.1-17.88c-5.35-6.81-10.51-14-13.09-22.25-3-9.73-2.39-20.58-5.19-30.19,17,12.33,41.72,33.42,44.8,53.44,4.76,30.79,6.54,78.31,6.54,78.31s-1.2-3.79-3.5-9.28c-1.24-9.78-2.56-19.56-3.87-29.34C440.34,249,439.7,244.33,437.64,240.23Z"/><path class="cls-4" d="M381,149.64S437,183,441.78,213.82s6.54,78.31,6.54,78.31-13.66-43.36-38-49.3S374,241.05,374,241.05Z"/><path class="cls-5" d="M125.19,395.1c1.3-3.56,10.11-18.11,11.06-21.77,1.71-6.56,7.49-21.49,10.95-27.32,3-5.14,5.12-14.55,10.28-17.55s12.79-6.21,14.25-12c1.13-4.49,2.68-1.67,3.5-6.24.69-3.84,6.39.13,8.74-3,6.55-8.68,14.33-16.4,20.48-25.37,5-7.23,8.84-15.59,9.52-24.22a25,25,0,0,1,2.49,5.61c3.51,11.64,1.43,24.33-2.78,35.74-3.82,10.34-9.3,20-14.77,29.53-4.92,8.62-10.94,16.7-14.75,25.86-13.53,32.55-29.5,51.95-42,57.81C140.32,403.34,122.09,403.61,125.19,395.1Z"/><path class="cls-6" d="M122.52,374.06c3.22-14.55,8.88-26.8,18.44-45.15,12.79-24.55,5.23-24.28,17.44-48.7S202.59,250,202.59,250l-1.83-.36c5.51-.77,10.23,3.06,13.21,8-.68,8.63-4.57,17-9.52,24.22-6.15,9-13.93,16.69-20.48,25.37-2.35,3.12-4.6,6.49-5.29,10.34-.81,4.56.64,9.35-.49,13.85-1.45,5.78-6.78,9.67-11.94,12.67s-10.81,5.87-13.86,11c-3.46,5.83-2.73,13.16-4.44,19.73-.95,3.66-2.66,7.07-4,10.62a49.13,49.13,0,0,0-1.81,26.75C127.19,419.24,117.22,406.76,122.52,374.06Z"/><path class="cls-7" d="M200.76,249.62c7.49-1,13.52,6.39,15.7,13.63,3.51,11.64,1.43,24.33-2.78,35.74-3.82,10.34-9.3,20-14.77,29.53-4.92,8.62-10.94,16.7-14.75,25.86C154.37,426,112.81,434,122.52,374.06c3.22-14.55,8.88-26.8,18.44-45.15,12.79-24.55,5.23-24.28,17.44-48.7S202.59,250,202.59,250"/><path class="cls-5" d="M279.08,602.25c-1-.34-7.58-6.7-8.31-7.52-1-1.13-2.16-12.22-2.18-13.75-.14-14.75-3.57-3.81-.79-18.29-24.85,7-19.16,16.07-41.34,2.86.4,13.92-2.07,15.63-4.23,29.38-.15,1-10.19,2.64-10.71,3.46-1.93,3.07-9.46,4.18-12.66,2.48-5.5-2.93-12.31-15-17.67-18.2l-1.51-91.6s79.41,19.79,101.47,17.41,124.74,6.36,124.74,6.36c-2.59,23.11-5.61,60.24-7.43,82-16.57,5-47.94,8-56,9.79C322.7,611.07,298.37,608.49,279.08,602.25Z"/><path class="cls-6" d="M197.48,576.75c3.19,1.71,7.88,3,9.81,0a7.26,7.26,0,0,0,.85-2.78,226.6,226.6,0,0,0,2.63-41.63c22.18,13.2,50.37,9.77,75.22,2.81a221.82,221.82,0,0,0-4,44c0,1.52.1,3.19,1.12,4.32A6.23,6.23,0,0,0,286,585c19.29,6.24,42.82,15.61,62.6,11.14,8-1.82,34.23-10.51,50.8-15.49-.88,10.55-1.7,21.29-2.5,32.56H182.1l-.91-45.61Q189.23,572.35,197.48,576.75Z"/><path class="cls-8" d="M308.43,525.34c-15.58,7.45-32.22,13.43-49.52,15-15,1.37-30.51-.74-44.12-7.5A62,62,0,0,1,195.42,518c-1.17-1.35-3.13.62-2,2,9.91,11.47,24,18.66,38.67,21.75,16.47,3.45,33.51,1.67,49.57-3a184.82,184.82,0,0,0,28.14-11c1.61-.77.2-3.16-1.4-2.39Z"/><path class="cls-8" d="M231.41,542.1l-.27,17.43c-.07,5-.34,10,.31,14.89.59,4.46,2.05,8.82,5.19,12.15,1.7,1.79,3.76,3.19,5.48,4.95a15.52,15.52,0,0,1,3.52,5.83c1.68,4.91,1.53,10.23,1.34,15.33-.07,1.79,2.71,1.79,2.77,0A53.37,53.37,0,0,0,249,599a20.52,20.52,0,0,0-7.08-11.4,22.89,22.89,0,0,1-5.07-5.28,19.3,19.3,0,0,1-2.3-6.15c-1-4.72-.72-9.62-.64-14.4l.3-19.64a1.39,1.39,0,0,0-2.78,0Z"/><path class="cls-8" d="M243.81,542.12a235.36,235.36,0,0,0,.44,42.72c.18,1.76,3,1.78,2.78,0a235.36,235.36,0,0,1-.44-42.72c.14-1.78-2.64-1.77-2.78,0Z"/><path class="cls-8" d="M404.5,514.84q-4.26,38-7.32,76.2-.89,11.07-1.65,22.15l1.38-1.39H190.83c-2.76,0-5.61-.2-8.37,0h-.36l1.39,1.39-.24-12.13-.58-29.13-.7-35.26-.61-30.51-.2-10.12a37.59,37.59,0,0,0-.09-4.75,1.61,1.61,0,0,1,0-.22l-1.76,1.34c3.37.84,6.74,1.64,10.12,2.44q12.21,2.88,24.49,5.51c10,2.13,20,4.14,30.06,5.88a263.93,263.93,0,0,0,27,3.6,62.14,62.14,0,0,0,9.55.09c2.48-.21,5-.38,7.45-.43,7.63-.16,15.27.1,22.9.4,9.71.38,19.41.91,29.11,1.5s19.6,1.27,29.39,2q11.88.86,23.76,1.8l12.2,1,.55,0c1.78.15,1.77-2.62,0-2.77l-8.48-.7q-10.74-.87-21.48-1.66-14.21-1.06-28.42-2c-9.91-.64-19.82-1.22-29.74-1.68-8.32-.39-16.66-.72-25-.73-2.94,0-5.89,0-8.83.19-2.55.14-5.06.43-7.61.41-8.22-.07-16.45-1.28-24.56-2.56-10.07-1.58-20.1-3.51-30.09-5.57q-13.29-2.75-26.52-5.82c-4.82-1.12-9.64-2.25-14.44-3.44l-.67-.16a1.4,1.4,0,0,0-1.76,1.33l.24,12.13.58,29.14.7,35.26.6,30.5c.1,4.95,0,9.93.3,14.87v.22a1.41,1.41,0,0,0,1.39,1.39H388.18c2.79,0,5.58.06,8.37,0h.36a1.42,1.42,0,0,0,1.39-1.39q2.7-38.19,6.59-76.27,1.16-11.05,2.39-22.08C407.48,513.06,404.7,513.08,404.5,514.84Z"/><path class="cls-9" d="M320.59,254.75c10.53-25.35,21.15-51.12,27.35-77.74-.14,2.8-.36,5.6-.68,8.39-1.72,14.87-6.23,29.26-10.71,43.54q-6.27,20-12.53,39.94c-2.46,7.85-4.93,15.7-7.87,23.39-.4,1-.81,2.09-1.23,3.13-7.83,5.85-15,11.15-20.72,15.48,2.39-4.13,4.7-8.31,6.88-12.55C308.38,284.18,314.49,269.45,320.59,254.75Z"/><path class="cls-10" d="M244.59,370.25c-2.06,6.8-17.28-60.18-17.28-60.18L230,278.69l0-58.5c0-14.37,0-28.8,2.29-43,3.75-23.43,14-46.16,30.92-62.79s40.83-26.63,64.47-24.61c1.07.09,2.14.22,3.2.36,7.11,15.63,11.73,32.65,14.47,49.55a179.51,179.51,0,0,1,2.56,37.3c-6.2,26.62-16.82,52.39-27.35,77.74-6.1,14.7-12.21,29.43-19.51,43.58-2.18,4.24-4.49,8.42-6.88,12.55-5.4,4.06-9.59,7.25-12,9.22C267.43,332.24,244.68,370,244.59,370.25Z"/><path class="cls-2" d="M356.38,231.44c-.35-10.77-2.92-21.35-3.61-32.09-1.74-27,8.38-53.82,5.75-80.73A97.74,97.74,0,0,0,354,97.57c12.91,6.8,23.64,17.58,29.29,31,3.42,8.12,5,16.88,6.35,25.59a631.61,631.61,0,0,1,7.11,73.8c-7,8.84-25.33,24.08-45.42,39.77C354.27,255.79,356.77,243.69,356.38,231.44Z"/><path class="cls-3" d="M324,268.88q6.25-20,12.53-39.94c4.48-14.28,9-28.67,10.71-43.54,1.76-15.19.57-30.6-1.88-45.69-2.74-16.9-7.36-33.92-14.47-49.55a69.49,69.49,0,0,1,23,7.41,97.74,97.74,0,0,1,4.56,21.05c2.63,26.91-7.49,53.74-5.75,80.73.69,10.74,3.26,21.32,3.61,32.09.39,12.25-2.11,24.35-5.09,36.29-12.18,9.5-25,19.16-36.37,27.67.42-1,.83-2.09,1.23-3.13C319.09,284.58,321.56,276.73,324,268.88Z"/><path class="cls-11" d="M398.1,228q-1.05-27.81-4.52-55.44c-1.14-9-2.34-18-4-27-1.53-8-3.75-15.93-7.71-23.1-6.65-12-17.47-21.59-29.85-27.45a72.31,72.31,0,0,0-42-6,87.42,87.42,0,0,0-41.45,18.75c-11.92,9.67-21.21,22.41-27.64,36.3-6.83,14.75-10.34,30.58-11.53,46.73-.68,9.25-.72,18.52-.73,27.78s0,18.78,0,28.17v27.94c0,3.09-.18,6-.45,9.1l-2.09,24.37a7.85,7.85,0,0,0,.16,3.17c.66,2.28,1.34,4.54,2,6.81,2.36,7.7,4.87,15.37,7.77,22.88a108.41,108.41,0,0,0,4.58,10.49c1.1,2.15,2.39,4.7,4.42,6.12,1.79,1.26,3.73.57,4.72-1.3.16-.29.27-.6.4-.9,0-.06-.17.27,0,0l.07-.09.47-.57c1.07-1.32,2.17-2.62,3.27-3.91a268.13,268.13,0,0,1,26.2-27.3c4.93-4.35,10-8.06,15.3-12,7.59-5.7,15.21-11.36,22.81-17.05q13.54-10.14,27-20.44c8.81-6.8,17.56-13.66,26.14-20.74,6.93-5.72,13.83-11.55,20.23-17.87a76.93,76.93,0,0,0,6.05-6.59c1.1-1.39-.85-3.36-2-2-4.38,5.49-9.75,10.24-15,14.86-7.54,6.66-15.36,13-23.24,19.25-8.82,7-17.76,13.87-26.74,20.67q-12.53,9.5-25.13,18.86c-6.28,4.69-12.57,9.35-18.78,14.1a183.66,183.66,0,0,0-20.39,18.34q-6.37,6.63-12.39,13.58Q252,349,250,351.39a29.21,29.21,0,0,0-2.17,2.68,1,1,0,0,0-.12.16,2.83,2.83,0,0,0-.17.4c-.15.31.05-.07-.09.21s-.19.35-.29.52.12,0-.21.24c-.1.07.23-.05-.14.07.14,0,.3-.08.1-.06s.18-.13.09,0-.37,0,0,0,0,0-.08,0c.09.05.11.09-.17-.1s0,0-.24-.17-.31-.29-.46-.45a6.14,6.14,0,0,1-.88-1.08,32,32,0,0,1-2.08-3.53c-3.58-6.91-6.11-14.4-8.58-21.76q-2.92-8.75-5.5-17.61c-.11-.39-.23-.77-.33-1.16.13.47,0,.35.08,0s.07-.83.1-1.24l.93-10.82,1.12-13c.21-2.43.51-4.86.51-7.3l0-55.07c0-17.59-.12-35.37,3.76-52.62a115.11,115.11,0,0,1,18.07-41.39A90.76,90.76,0,0,1,287.53,99c13.37-6.47,28.7-9.51,43.49-7.43a68.17,68.17,0,0,1,36.33,17.07,60.34,60.34,0,0,1,12.45,15.92c3.82,7.14,5.84,15,7.29,23a534.54,534.54,0,0,1,6.7,54.1q1.05,13.15,1.53,26.34C395.39,229.74,398.17,229.75,398.1,228Z"/><path class="cls-11" d="M387,205.7l-20.55,20S384.31,222.84,387,205.7Z"/><path class="cls-11" d="M384.19,190.53l-20.54,20S381.48,207.67,384.19,190.53Z"/><path class="cls-11" d="M381.52,174.66,361,194.7S378.81,191.8,381.52,174.66Z"/><path class="cls-12" d="M217.1,471.32c.58-5,1.4-10.1,4-14.41l21.49,15.54c12.71,9.18,25.57,18.46,40.09,24.35,10.77,4.37,22.66,6.75,34.12,5.58-5.78,9.38-10.62,15.68-10.62,15.68s-32.74,7.55-60.12,11c-10.15,1.29-20-3.1-28.47-9.15A195.41,195.41,0,0,1,217.1,471.32Z"/><path class="cls-13" d="M337.56,357.36a175,175,0,0,0-32.21,16,228.47,228.47,0,0,0-.61-47.42c-.25-2.11-.67-4.46-2.41-5.67-1.41-1-3.28-.9-5-.71-23.74,2.63-44.9,21.18-50.62,44.37a272.66,272.66,0,0,0-24.38-60.61c-1.4-2.56-3.09-5.3-5.87-6.2-3.9-1.27-7.82,1.67-10.4,4.93C211.45,289,218,278.83,225,273l21.83,88.77s7.9-47.75,47.71-65.19,92.82-58.14,92.82-58.14,11.51-2.91,6.86,19.18-22.67,58.14-33.72,91.86c-1,3-2,6-3,9a14.21,14.21,0,0,0-6.13-3.21C346.8,354.21,342,355.71,337.56,357.36Z"/><path class="cls-12" d="M192.49,369.22c1-25.62,6.18-49.19,13.59-67.2,2.58-3.26,6.5-6.2,10.4-4.93,2.78.9,4.47,3.64,5.87,6.2a272.66,272.66,0,0,1,24.38,60.61c5.72-23.19,26.88-41.74,50.62-44.37,1.7-.19,3.57-.27,5,.71,1.74,1.21,2.16,3.56,2.41,5.67a228.47,228.47,0,0,1,.61,47.42,175,175,0,0,1,32.21-16c4.44-1.65,9.24-3.15,13.86-2.09a14.21,14.21,0,0,1,6.13,3.21c-10.34,31.48-21.47,66.16-21.46,92.13,0,8.42-2.61,17.75-6.3,26.72-15-6.36-28.26-16.5-40.41-27.44-14.51-13.07-27.83-27.5-43.17-39.58-9.12-7.18-19.93-13.77-31.49-12.75-9.25.81-17.34,6.56-22.86,14.16C191.84,396.39,192,381.4,192.49,369.22Z"/><path class="cls-13" d="M214.72,397.56c11.56-1,22.37,5.57,31.49,12.75,15.34,12.08,28.66,26.51,43.17,39.58,12.15,10.94,25.45,21.08,40.41,27.44a176.39,176.39,0,0,1-13,25.05c-11.46,1.17-23.35-1.21-34.12-5.58-14.52-5.89-27.38-15.17-40.09-24.35l-21.49-15.54c-2.57,4.31-3.39,9.42-4,14.41a195.41,195.41,0,0,0,.46,48.63c-14.31-10.26-24.4-25.28-24.4-25.28s-1.27-42.65-1.3-82.95C197.38,404.12,205.47,398.37,214.72,397.56Z"/><path class="cls-14" d="M387.37,238.41s11.51-2.91,6.86,19.18-22.67,58.14-33.72,91.86-24.43,72.68-24.42,101.16-29.94,67.45-29.94,67.45-41.18,13.2-67.1,11.07c-27.51-2.26-45.89-34.46-45.89-34.46s-2.41-81.26-.67-125.45S208.34,286.92,225,273l21.83,88.77s7.9-47.75,47.71-65.19S387.37,238.41,387.37,238.41Z"/><path d="M242.47,368.49q-3.24,31.29-4.74,62.71-1.44,31.19-1.07,62.43.22,17.76,1,35.5c.08,1.78,2.85,1.79,2.77,0q-1.37-31.41-1-62.87.42-31.22,2.67-62.38,1.27-17.72,3.12-35.39c.18-1.77-2.59-1.76-2.78,0Z"/><path class="cls-5" d="M406.4,288.17c-.2.34-.39.68-.6,1-4.28,6.89-8,14.9-13.12,21.23-4.18,5.2-9.74,8.7-13.72,14-7.32,1.7-30.18,7.43-43.24,15.17,13.06-7.74,35.92-13.47,43.24-15.17-15.95,21.47-16.55,54.6-31,77.12-2.73,4.25-19.39-2-21.24,2.67-2.19,5.56-3.5,12.18-8.6,15.31.73-10.21-13.41-25.34-9-34.55,3.61-7.45,9.24-18.28,13.65-25.29s2.57,3,1.38-5.23c-.09-.67,1.72,8.39,1.21,7.95s-3.62-8-4.32-7.95c-2.71.17,10.57-3.43,7.86-3.47s-5.21-8.37-5.34-11.08c-.12-2.36,6-16.22,7.91-17.61,9.86-7.17,19.13-22.46,30.47-26.93,5.49-2.17,6.39-12.54,10.88-16.39,4.77-4.09,5.76,2.91,8.44-2.77,4.52-9.53-3.46-.95,1-10.48,3.2-6.76,17.46-16.5,18.2-23.94.57-5.66,6.72-11.51,3.5-16.08,4.85,2.64,12.82,8.82,14.24,16.79a34.16,34.16,0,0,1,.43,3.5,103,103,0,0,1-3.91,23.46c-.39,1.22-.81,2.43-1.25,3.64A126.79,126.79,0,0,1,406.4,288.17Z"/><path class="cls-15" d="M406.4,288a126.88,126.88,0,0,0,7.15-15.05A86,86,0,0,1,406.4,288Z"/><path class="cls-6" d="M413.55,272.94c.84-1.19,3.83-11.72,5.27-11.93,2-.3,7.09-4.31,8.23-2.68,9.29,13.36,29.39,20.82,28.49,37.07-.32,5.6,3.17,21.62,1.38,26.93-5.8,17.19-4.82,44.41-18.79,56-8.87,7.35-25.52,46.13-35.41,52s-22.12-2.16-26.91,8.31c-5.07,11.11-21.94,8-26.89,19.17-7,15.8-24,24.33-40.13,30.61-3.64,1.42-7.35,2.83-11,4.31C301,452,308.2,380.94,313.92,358.05c6.69-26.75,28.78-57,38.45-75s29.86-28.49,38-37.23,6.72-22.08,6.72-22.08a30.93,30.93,0,0,1,9.8,3.37c3.22,4.56,4.38,10.65,3.82,16.31-.75,7.44-4,14.36-7.19,21.12L390,293.14c-2.69,5.68-5.51,11.54-10.28,15.63-4.49,3.85-10.26,5.76-15.75,7.93a144.32,144.32,0,0,0-32,17.56c-1.91,1.39-4,3.21-3.86,5.57.13,2.71,3.18,4.39,5.89,4.43s5.33-1,8-1.16a2.72,2.72,0,0,1,2,.45,2.81,2.81,0,0,1,.76,1.82c1.19,8.19-2.25,16.37-6.66,23.38s-9.87,13.38-13.47,20.83c-4.46,9.21-5.86,19.59-6.59,29.79,5.1-3.12,6.41-9.75,8.6-15.31A77.38,77.38,0,0,1,334,390.83c14.47-22.53,29-45.08,44.93-66.56l2.33-.53c11-13.2,19.25-25.13,25.11-35.75a86,86,0,0,0,7.15-15.05c.28-.71.55-1.42.81-2.12"/><path class="cls-15" d="M414.8,269.31c-.15.5-.29,1-.44,1.51-.26.7-.53,1.41-.81,2.12C414,271.74,414.41,270.53,414.8,269.31Z"/><path class="cls-16" d="M414.36,270.82a102.79,102.79,0,0,0,4.35-25C419.21,252.6,418,260.93,414.36,270.82Z"/><path class="cls-5" d="M348.92,457.82c4.95-11.16,4-24.28,9.07-35.39,4.79-10.47,14.38-17.93,24.28-23.83s20.52-10.74,29.39-18.09c14-11.57,22.47-28.48,28.28-45.67,1.79-5.32,3.37-10.76,3.69-16.36.9-16.25-8.8-31-18.09-44.32-1.13-1.63-2.71-3.47-4.68-3.18-1.44.22-2.44,1.51-3.27,2.71l-10.91,15.58a99.94,99.94,0,0,0,7.68-18.45c3.63-9.89,4.85-18.22,4.35-25v0c25.11,22,47.82,49.43,50.15,67.45s-26.74,72.09-38.95,117.44S411,549.08,411,549.08C356,600.83,293.6,577,293.6,577s.84-33.48,2.89-66.62c.29-4.77.73-10.77,1.27-17.63,3.68-1.48,7.39-2.89,11-4.31C324.89,482.15,341.92,473.62,348.92,457.82Z"/><path class="cls-7" d="M418.71,245.82c25.11,22,47.82,49.44,50.15,67.46s-26.74,72.09-38.95,117.44S411,549.08,411,549.08C356,600.83,293.6,577,293.6,577s.84-33.48,2.89-66.62,10.75-125.58,17.43-152.32,28.78-57,38.45-75,29.86-28.49,38-37.23,6.72-22.08,6.72-22.08,18.28,2.33,21.19,18.61-5.37,43.6-37,81.39c0,0-29.87,6.4-45.57,15.7"/><path class="cls-8" d="M352.18,331.81l-1.74,32.34c-.58,10.72-1,21.46-1.74,32.17a13,13,0,0,1-2,6.73,51.49,51.49,0,0,1-4.79,5.44q-4.83,5.31-9.36,10.87a253.59,253.59,0,0,0-32.42,51.29c-.76,1.61,1.63,3,2.4,1.4a252.39,252.39,0,0,1,30.73-49.18q4.56-5.69,9.43-11.11c3-3.36,7-6.61,8.16-11.16a36.91,36.91,0,0,0,.78-7.35l.44-8.21.89-16.41,2-36.82c.09-1.78-2.68-1.78-2.78,0Z"/><path class="cls-6" d="M175.52,421.85c4.46-.63,18.58,2.57,21.44,6.06,1.86,2.27,7.77,7.41,7.94,10.35,1.07,18.56-4.27,40.6-5.74,59.13-.8,10.09-1.77,50.09-2.57,60.19-6.46-1.27-19.32-3.68-24.91-7.16,2.39-16.39.1-59.39-1.07-75.91-.9-12.81-1.11-25.64-1-38.48C172.82,435.15,172.27,422.31,175.52,421.85Z"/><path class="cls-5" d="M197.58,333.61c-.09,4.84-6.33,23.12-7.92,27.69-3.52,10.19-13.64-.46-17.34,9.67,1.05-18.25,2.57-36.46,6-54.39.91-4.75,6.23-23.74,7.45-28.44,1,4,5.07,11.78,6.07,15.8S197.65,329.55,197.58,333.61Z"/><path class="cls-5" d="M194.22,445.25c-.17-2.93-.49-6.06-2.35-8.33-2.86-3.48-8.12-3.55-12.59-2.91a75.43,75.43,0,0,0-9.62,2c.2-15.92,1-31.85,1.76-47.76.28-5.76.57-11.54.9-17.3q5.55-15.2,10.84-30.46c1.59-4.58,3.17-9.25,3.26-14.09.07-4.05-.92-8-1.89-12l-3-12.05c4.83-18.62,12.18-36.61,23.23-52.3.86-1.22,1.94-2.54,3.43-2.63,2.09-.13,3.42,2.14,4.23,4.08q4,9.57,8.05,19.15c2.9,6.92,1.91,8.38-.69,15.27a152.63,152.63,0,0,0-8.31,35.59c-2.95,24.31-1.71,48.86-2,73.28-.26,23.9-2,47.75-3.81,71.58,0,11.49-1.73,23.25-2.58,34.71-.68,9.08-4.74,49.6.37,57.39a53.82,53.82,0,0,1-13.52-.93c.8-10.1,1.6-46.54,2.4-56.63C193.82,482.42,195.29,463.81,194.22,445.25Z"/><path class="cls-8" d="M204.3,466.41c0,10-1.28,20-2.18,29.95-.43,4.74-.8,9.49-1.17,14.23-.93,11.71-1.82,23.55-1.26,35.3.2,4.22.24,9.62,2.6,13.32l1.19-2.08a53.87,53.87,0,0,1-31.1-7.91l.64,1.57c1.62-11.32,1.2-23,.94-34.42-.28-12.44-.86-24.88-1.65-37.31-1.14-17.74-1.54-35.42-1.07-53.2.52-19.6,1.49-39.21,2.7-58.77,2.24-36.42,7-74,25.57-106.19q1.5-2.59,3.11-5.13a46.63,46.63,0,0,1,4-5.79c.63-.72,1.42-1.44,2.42-1a3.92,3.92,0,0,1,1.46,1.66,58.21,58.21,0,0,1,3,6.87c1.9,4.51,3.82,9,5.68,13.52,1.33,3.22,2.2,6.12,1.14,9.54-1.26,4.1-3,8-4.28,12.14-1.37,4.45-2.51,9-3.45,13.52a210.45,210.45,0,0,0-3.65,28.08c-1.33,19.52-.61,39.1-.76,58.66s-1.35,39.31-2.76,58.92q-.52,7.24-1.07,14.49c-.13,1.78,2.65,1.77,2.78,0,1.51-20.34,3-40.69,3.6-61.08.56-20-.24-40,.44-60,.65-19.39,2.77-39,9.39-57.36,1.18-3.26,2.94-6.61,3.1-10.13.18-4-2-7.88-3.45-11.45l-5.69-13.52c-1.21-2.88-3-7.69-7.09-6.68a6.72,6.72,0,0,0-3.55,2.84c-1.39,1.87-2.66,3.85-3.9,5.81q-3.63,5.76-6.69,11.86a169.69,169.69,0,0,0-10,24.6c-5.73,17.91-8.73,36.57-10.54,55.25-1.92,19.8-2.69,39.73-3.56,59.6-.89,20.11-1.43,40.26-.44,60.37,1.26,25.59,3.78,51.31,2.21,76.94-.13,2.21-.31,4.41-.62,6.6a1.46,1.46,0,0,0,.64,1.57,56.48,56.48,0,0,0,32.5,8.28,1.4,1.4,0,0,0,1.2-2.09c-1.93-3-2-7.61-2.17-11.13-.32-5.76-.2-11.55,0-17.31.4-9.83,1.26-19.63,2-29.43.88-11.18,2.46-22.3,2.49-33.53A1.39,1.39,0,0,0,204.3,466.41Z"/><path class="cls-8" d="M211.86,253.31a245.72,245.72,0,0,0-14.61,27.48c-1,2.29-2.05,4.61-3,6.94a49.55,49.55,0,0,0-2.72,7c-.58,2.39.37,4.41,1.6,6.4s2.49,3.75,3.79,5.58c3,4.17,6,8.42,7.4,13.43a1.39,1.39,0,0,0,2.68-.74,38,38,0,0,0-5.8-11.42c-1.24-1.79-2.53-3.55-3.77-5.35s-3.1-3.92-3.31-6a7.05,7.05,0,0,1,.8-3.16c.48-1.23,1-2.45,1.47-3.67q1.44-3.48,3-6.93,3-6.78,6.5-13.37,3.94-7.51,8.4-14.74c.94-1.53-1.46-2.92-2.4-1.4Z"/><path class="cls-8" d="M199.39,309.86l-15.06,57c-1.21,4.58-2.82,9.24-3.34,14-.51,4.58,1.08,8.85,2.57,13.1l9.82,28,11,31.29c.58,1.68,3.27,1,2.67-.73Q197.43,425,187.8,397.63c-.79-2.25-1.59-4.5-2.37-6.76A29.06,29.06,0,0,1,183.7,384c-.38-4.56,1.39-9.2,2.54-13.55l7.4-28,8.42-31.87a1.38,1.38,0,0,0-2.67-.73Z"/><path class="cls-12" d="M394.07,226.46s-1.62,5.81-16.34,17.83-59.21,37-71.71,43c-23,11.05-55.17,35.92-60.2,69.64,0,0-5.19-34-8.79-49.36-3.33-14.22-11.76-32.68-8.79-49.35,0,0-7.88,3.1-12.92,13.18s-3.4,29.46-3.4,29.46,4-21.65,12.32-16.28,20.35,85.65,20.35,85.65,9.49-50,51.35-72.09c0,0,10.08.78,11.24,17.44,0,0,31-16.27,51.94-36S400.72,240.41,394.07,226.46Z"/><path class="cls-14" d="M394.07,226.46s-1.62,5.81-16.34,17.83-59.21,37-71.71,43c-23,11.05-55.17,35.92-60.2,69.64,0,0-5.19-34-8.79-49.36-3.33-14.22-11.76-32.68-8.79-49.35,0,0-7.88,3.1-12.92,13.18s-3.4,29.46-3.4,29.46,4-21.65,12.32-16.28,20.35,85.65,20.35,85.65,9.49-50,51.35-72.09c0,0,10.08.78,11.24,17.44,0,0,31-16.27,51.94-36S400.72,240.41,394.07,226.46Z"/><path class="cls-6" d="M161,414.72c-8.16,1.8-23.06,3.19-31.26,1.58-7.59-1.49-7.16-21.51-8.89-28.9.3-2.2.57-4.45.76-6.71,1.73-19.92,49.48-26.2,49.48-26.2,41.08-21.2,53.26-9.18,53.26-9.18-7.58-5.19-6.38,11.31-2.88,23.5.88,3.07,6.82,17.91,8.17,21.08-5.32,3.43-13.73,6-19.58,8.41C195.39,404.28,176.43,411.3,161,414.72Z"/><path class="cls-5" d="M120.83,387.4c1.73,7.39,9.1,12.77,16.69,14.26,8.2,1.61,16.63-.29,24.79-2.09C177.76,396.15,193.38,393,208,387a102.1,102.1,0,0,0,16.88-8.71,176.73,176.73,0,0,0,9.09,18s-39.68,8.42-51.39,14-36,13.37-53,11.07C114.47,419.39,118.52,404.61,120.83,387.4Z"/><path class="cls-7" d="M122.94,375.93c-1.09,4.92-.56,3-1.15,8.79-.06.64-.13,1.27-.2,1.89"/><path class="cls-7" d="M121.59,386.61c-2.39,21.66-6.8,33.79,12.41,35.49,19.77,1.74,36.05-9.3,57-14s43-11.82,43-11.82-30.23-56-8.72-49.4c0,0-3.49-12.38-35.46,0s-50.58,28.63-50.58,28.63"/><path class="cls-8" d="M169.07,353.15a99.51,99.51,0,0,0-26.94,8.09c-1.62.75-.22,3.14,1.4,2.4a97.31,97.31,0,0,1,26.28-7.82c1.76-.26,1-2.94-.74-2.67Z"/><path class="cls-3" d="M182.84,356.46c-8-2.09-12-4.21-20.09-3,.55-2.67,2.63-12.86,3.89-15.29,3.46-6.67,10.09-11.39,17.32-13.44s15-1.59,22.28.31a58.67,58.67,0,0,1,33.24,23.36l-.53-.37c-4.29,5.52-15.84,18.3-20.7,23.33-1.46-.74-9.56-2.12-11-2.9C197,362.84,194.22,359.43,182.84,356.46Z"/><path class="cls-17" d="M188.63,347.53c11.38,3,21.94,8.41,32.25,14.06,1.42.78,2.86,1.57,4.32,2.31a191,191,0,0,1-14.42,13.46c-2,1.71-4.37,3.47-7,3.32s-4.73-2.09-6.68-3.85a95.5,95.5,0,0,0-34.33-19.93,82.5,82.5,0,0,1,1.27-11A61.49,61.49,0,0,1,188.63,347.53Z"/><path class="cls-11" d="M240.68,347.73a60.4,60.4,0,0,0-32.56-23.58c-13.74-4-30.55-2.66-40,9.31-5.33,6.72-6.17,15.19-6.74,23.44a1.41,1.41,0,0,0,1,1.34A94.27,94.27,0,0,1,195.15,377c2.13,1.88,4.25,4.15,7.1,4.88s5.79-.59,8.11-2.38A143.28,143.28,0,0,0,225,366.06a194,194,0,0,0,14.89-17c1.09-1.4-.86-3.37-2-2a193.82,193.82,0,0,1-26.79,28.14c-2,1.72-4.53,4.3-7.42,4.09s-5.22-3.07-7.29-4.86a96.49,96.49,0,0,0-33.35-18.87l1,1.33c.49-7,1-14.28,5.05-20.25a27,27,0,0,1,14.43-10.34c13.21-4.08,28.15.36,39.34,7.79a56.8,56.8,0,0,1,15.33,15c1,1.46,3.42.07,2.4-1.4Z"/><path class="cls-6" d="M469,334.4c.53,13.53-5.56,32.38-12.66,43.92-3.56,5.77-14.1,16.72-19.39,21-4.22,3.38-14.92,26.56-20,28.48-14.15,5.39,1.72-17.25-13.25-15,8.15,3.54-31.78,40.42-22.95,39.36-14.29,10.25-27,14.45-42.53,22.75-9.12,4.89-18.85,7.68-28.91,10.09-1.26.3-12.78-3.38-14-3.76s-5.46-4.89-6.53-5.73c-11.54-9.1-11.75-6.26-23.54-15-5.5-4.1-13.44-10.44-16.81-16.42-4.09-7.23-4-14.67-11.68-17.82-5.33-2.19-7.7-8.08-12.06-11.85-5.62-4.86-12.91-18.13-13.65-25.52-1.48-14.75,4.43-35,14.34-41.08a38.77,38.77,0,0,1,17.17-3.63s51.27,59.94,72,74.06c0,0,4.61-4.1,8.09.17,0,0-.16-15.12,15.71-35.08s34.63-52,39.3-57.42,22.07-22.36,33.85-26.05c4.3-1.34,12.27-4.12,21.37-4.82,6,8.69,20.08,7.32,24.51,16.9C460.5,318.75,468.69,326.81,469,334.4Z"/><path class="cls-5" d="M225.37,347.72c-5.86,13.5-7.05,28.92-5.57,43.66.75,7.4,2.45,15.33,8.07,20.19,4.36,3.77,10.29,5,15.62,7.17a37.69,37.69,0,0,1,18.61,15.88c3.38,6,5.11,13.3,10.62,17.4,11.79,8.78,31-3.74,42.55,5.36a11,11,0,0,0,3.35,2.26,7.46,7.46,0,0,0,3.83-.19c10.06-2.41,19.3-7.35,28.42-12.23,15.49-8.31,31-16.65,45.33-26.9a50.61,50.61,0,0,1-26.09-3.82A209.68,209.68,0,0,0,414,405.06c5.06-1.93,10.12-4.09,14.34-7.48,5.29-4.24,8.95-10.13,12.51-15.91,7.1-11.53,14.46-24,13.92-37.5-.3-7.59-3.1-14.86-6.29-21.75A186.63,186.63,0,0,0,432.81,295c15.82-1.2,35.05,3.91,44.33,33.89,7.29,23.56-5.46,55-18.33,72.06-20.81,27.64-41,45.65-96.39,73.2s-62.47,32.08-81.65,12-64.53-76.42-77.25-99l-6.33-8.67S206.3,356.55,225.37,347.72Z"/><path class="cls-7" d="M315.35,418.72c-15.7-9.89-72.81-74.63-72.81-74.63-31.4-.58-45.35,34.3-45.35,34.3s22.67,30.82,33.72,47.68,37.21,50.58,57.56,66.67S353,479,376.26,466.18s62.79-36.62,82.55-65.28,26.34-55.38,15.12-81.14c-8.14-18.69-29.07-31.68-58.72-21.4S371,333.05,353,362.7s-29.07,36.62-30.23,56.39l-1.16,19.77"/><path class="cls-8" d="M323.78,419c-1-2.27-2.5-4.63-5.25-4.79s-3.91,2.29-4.65,4.51q-3,8.81-5.9,17.62c-.57,1.7,2.11,2.42,2.68.74l4.72-14.1,1.11-3.33a5.53,5.53,0,0,1,1.12-2.4c1.71-1.46,3.29,2.08,3.77,3.15.73,1.63,3.12.22,2.4-1.4Z"/><path class="cls-18" d="M327.89,420.77a20.52,20.52,0,0,1-.26-2.85S327.78,419.08,327.89,420.77Z"/><path class="cls-17" d="M318.9,369.37c1.71-4.15,15.2,8.38,20,14.88,4,5.38,9.69,12.07,9.69,17.44-1,.53-3.07-.39-7.6-3.94a57.92,57.92,0,0,0-7.3-10.85C328.73,381.07,322.55,376.11,318.9,369.37Z"/><path class="cls-3" d="M293.23,401.83c-6.09-10.89-15-22.77-22.86-32.46-4.28-5.29-10.82-11.13-13.05-17.56,15.59-1.61,48.55-3.6,58,5.25,14,13.1,35.27,32,34.34,37.61-.49,3,.23,6.31-1.08,7q-6.19-7.9-12.2-16c-4.82-6.5-10-13.39-17.51-16.33,3.65,6.74,9.83,11.7,14.81,17.53a57.92,57.92,0,0,1,7.3,10.85c-.9-.71-1.89-1.51-3-2.45a85.37,85.37,0,0,1,2.33,23c-.34,5.88-.52,9.74-1.42,11.72-.33-.81-5,1.48-5.27.65-1.31-4.58-1.8-9.1-2.74-13.77-3.09-15.33-9.51-31-20.22-42.41,1.69,6.82,8.46,11,12.16,17,3.5,5.66,4.08,12.62,4.29,19.27q.3,9.35-.11,18.7c0,.5,0,1-.08,1.51-.89,2.32-2.51,3.73-5.36,2.74a5.82,5.82,0,0,1-1.25-.62c-.28-1.79-4.12-6.88-4.07-8.67.12-4.81-2-7.68-2.57-12.46-.79-6.54-1.86-10.64-5.34-16.23-3-4.78-4.87-9.43-8.11-14-2.29-3.26-.94-4.92-4.71-3.66,1.65,2.55,1.94,2.35,3.69,4.84a59.57,59.57,0,0,1,10.46,29.38c-.85,5.21-2.49,12.48-5.31,16,.11-.94-5,1.64-4.93.72C300.4,419,298.1,410.54,293.23,401.83Z"/><path class="cls-17" d="M252,352.55s5.2-.9,12.7-1.68a59.1,59.1,0,0,0,9.85,17.77c7.84,9.7,18.78,16.92,24.88,27.81,4.87,8.7,6.17,19.07,5.22,29q-.14,1.38-.3,2.79c-1.67,2.08-3.76,2.85-6.35,1.07-9.82-6.73,5.94-13.16-6.85-30.57s-15.75-21.81-23.47-29.26S250,355.4,252,352.55Z"/><path class="cls-17" d="M327.14,410.75c-.21-6.65-.79-13.61-4.29-19.27-3.7-6-10.47-10.18-12.16-17,10.71,11.4,21.87,23.64,25,39,.94,4.67,1.09,9.5,2.41,14.08a25.09,25.09,0,0,0,.86,2.48c-.85,1.87-2.35,2.06-5.27.65-3.91-1.9-5.28-6.75-5.76-9.89-.11-1.69-.26-2.85-.26-2.85a20.52,20.52,0,0,0,.26,2.85c.17,2.86.2,7.26-.94,10.19,0-.51.06-1,.08-1.51Q327.45,420.11,327.14,410.75Z"/><path class="cls-17" d="M293.88,375.47c3.77-1.25,7.28,2.37,9.56,5.63q4.86,6.91,9.33,14.1c3.48,5.59,6.85,11.5,7.64,18,.58,4.78-.27,9.6-.39,14.42a30.82,30.82,0,0,0,.32,5.42c-7.58-4.78-9.87-26.83-9.87-26.83s-.22,2.55-.78,6a59.57,59.57,0,0,0-10.46-29.38C297.48,380.37,295.54,378,293.88,375.47Z"/><path class="cls-11" d="M252,353.94c9.08-.46,18.15-1.06,27.23-1.53a100.82,100.82,0,0,1,15.64-.09,60.4,60.4,0,0,1,12.76,2.7,28.2,28.2,0,0,1,10.82,6.22c2.88,2.81,5.68,5.72,8.56,8.55,6.13,6,12.42,12.15,17.16,19.37a38.41,38.41,0,0,1,3.19,5.75,7.57,7.57,0,0,1,.91,2.49,6.09,6.09,0,0,1-.81,2.36c-.7,1-3-.36-3.86-.89a13.47,13.47,0,0,1-4.42-4.27,1.39,1.39,0,0,0-2.4,1.41c1.79,3.06,5.49,6.09,9,6.72,1.87.34,3.56-.18,4.26-2.05.62-1.66,1.24-3.08.63-4.83-3-8.47-9.47-15.52-15.61-21.88-3.27-3.38-6.65-6.63-10-9.94-3.14-3.1-6-6.39-9.87-8.64a43.66,43.66,0,0,0-13.17-4.7,68,68,0,0,0-15.78-1.38c-11.44.33-22.87,1.28-34.3,1.86-1.78.09-1.79,2.86,0,2.77Z"/><path class="cls-11" d="M317.88,372c3.3,4.16,7,8,10.51,12,3.77,4.28,7.91,8.87,9.08,14.61a77.67,77.67,0,0,1,1,10.23q.33,5.17.54,10.35c.07,1.64.13,3.29.18,4.93,0,1.45.28,3.19-.39,4.53-1,2.07-4,1.47-5.43.27-1.67-1.36-2.26-4.07-2.81-6a38.47,38.47,0,0,1-1.37-6.8c-.15-1.76-2.93-1.78-2.77,0a43.06,43.06,0,0,0,1.37,7.21,19.94,19.94,0,0,0,2.63,6.5,7.46,7.46,0,0,0,6.56,3c2.93-.29,4.67-2.54,5-5.35a36.8,36.8,0,0,0-.05-5.25q-.11-3.21-.27-6.41-.28-5.92-.73-11.82c-.27-3.58-.65-7.14-2.16-10.44a40.08,40.08,0,0,0-5.65-8.27c-4.23-5.2-9.06-9.88-13.22-15.14-1.11-1.39-3.06.58-2,2Z"/><path class="cls-11" d="M309.09,375.22c3,5.61,8,9.78,11.1,15.26a46,46,0,0,1,5.29,17.15,119.45,119.45,0,0,1,.9,18.62c-.08,2.48-1.1,6.76-4.5,6.09-3.14-.61-4.19-4.38-5-7A196.21,196.21,0,0,1,311.28,402c-.32-1.75-3-1-2.68.74a196.72,196.72,0,0,0,5.62,23.31c1,3.14,2.13,6.61,5.22,8.27a6,6,0,0,0,7.72-1.58c2.21-2.76,2-6.41,2-9.75s-.15-7-.4-10.43c-.48-6.65-1.54-13.34-4.17-19.51a40.92,40.92,0,0,0-6-9.75c-2.5-3.07-5.18-6-7-9.52-.84-1.58-3.23-.18-2.4,1.4Z"/><path class="cls-11" d="M291.84,375.32l9.46,14.42c2.75,4.19,5.68,8.45,7.1,13.31,1.51,5.16.64,10.35-1.16,15.31-.91,2.5-2,4.92-3.19,7.31-.89,1.87-2.05,4.71-4.54,3-3.92-2.61-3.31-8.6-2.88-12.61a31.91,31.91,0,0,0,.2-8.05,20.54,20.54,0,0,0-2.62-7,121.91,121.91,0,0,0-8.44-12.48q-4.47-6-9.38-11.71-5.59-6.44-11.75-12.35-3-2.88-6.12-5.63c-1.09-1-2.2-1.91-3.31-2.85-.59-.49-2.56-1.83-2-2.74,1-1.51-1.45-2.9-2.4-1.4-1.4,2.21.41,4.42,2.08,5.82,2.12,1.79,4.21,3.6,6.26,5.47q6.13,5.61,11.76,11.73a175.79,175.79,0,0,1,20,26,20.32,20.32,0,0,1,3.2,7.65c.43,3-.13,6-.41,8.95-.43,4.55-.11,10.06,3.78,13.15,1.91,1.51,4.51,1.94,6.46.27s2.71-4.25,3.68-6.37c2.38-5.17,4.5-10.7,4.36-16.49-.16-6.15-3.09-11.66-6.33-16.72-3.74-5.85-7.61-11.62-11.42-17.43-1-1.49-3.38-.1-2.4,1.4Z"/><path class="cls-11" d="M288,368.5l-4.27-4.27a1.39,1.39,0,0,0-2,2l4.26,4.26a1.39,1.39,0,0,0,2-2Z"/><path class="cls-11" d="M307.57,366.27l-6.62-5a1.39,1.39,0,0,0-1.9.5,1.43,1.43,0,0,0,.5,1.9l6.62,5a1.39,1.39,0,0,0,1.9-.5,1.44,1.44,0,0,0-.5-1.9Z"/><path class="cls-19" d="M336.18,124.05c-1.49-7.1-7.51-17.8-10.81-24.27C321.85,92.89,345.7,79.19,340.06,74c10.14,5,36.42,20.85,45.34,55.49,2.31,9-6.81,17.67-20.27,30.08a69.55,69.55,0,0,0-10,10.87c1.36-6.3-15.77-3.91-14.42-10.21C343.35,147.64,338.83,136.66,336.18,124.05Z"/><path class="cls-20" d="M291.12,102.5s-1.32-8.45-17.69-3.7S146.72,141,146.72,141"/><path class="cls-21" d="M146.72,146s20.28-6.18,19-11.43S145,136.35,145,136.35Z"/><path class="cls-22" d="M149.62,131.46c-2.8,1.3-6.38,8.49-3.56,18.35,3.69,12.9,8.38,17.33,14.85,17.54,5.91.2,10.09-4.46,13.18-11.92,3.77-9.12,6.22-20-5.94-23C157.06,129.76,153.3,129.76,149.62,131.46Z"/><path class="cls-20" d="M149.62,131.46c-2.8,1.3-6.38,8.49-3.56,18.35,3.69,12.9,8.38,17.33,14.85,17.54,5.91.2,10.09-4.46,13.18-11.92,3.77-9.12,6.22-20-5.94-23C157.06,129.76,153.3,129.76,149.62,131.46Z"/><path class="cls-23" d="M244.92,246.43c24.58-2.84,39.05-18.25,57.9-34.28,14.46-12.29,30.39-41.18,36.53-59.09,1.64,6.58,5.52,39.22,5.17,46-5.26,14-14.75,33.57-30.41,44.22-22.09,15-36.09,29.55-74.63,27.83-23.45-1.05-28.27-9.67-28.85-18.4C218.92,249.86,234.12,247.69,244.92,246.43Z"/><path class="cls-9" d="M238.19,220.9a115.39,115.39,0,0,0,47.2-11.58c7.32-3.57,14.33-8,20-13.83S315.3,182,316.5,173.94c-8.28,16.05-22.87,26.31-38.91,32.14-8,2.91-16.25,6.3-24.67,7.65s-23.44.63-31.89-.27c-27.94-3-51.89-15.37-69.71-37,.37-.7.84-9.36,1.44-10a41,41,0,0,1,3-2.88c18.19.13,39.41,6,61.7,8,32.48,2.92,54.56-1,84.66-13.52,4.65-1.95,13.72-8.7,18.74-9.18s23.65-11.53,27.17-7.92c2.63,2.69-6.45,34-5.52,37.68l.06.29a106.93,106.93,0,0,1-31.88,46.37c-18.85,16-42.82,25.59-67.4,28.44a106.6,106.6,0,0,1-32.68-1c-.37-5.61,1-11.27.32-15-1.51-8-3.11-15-6.12-19.28l2.45.32C217.53,220.07,227.85,221.18,238.19,220.9Z"/><path class="cls-23" d="M203.05,216.41c-4.22-3.78-17.17-2.06-33.79-18-15-14.36-21.32-23.48-17.94-30,17.82,21.65,44.11,36.44,72.05,39.39a96.43,96.43,0,0,0,25.4-.56,135.22,135.22,0,0,0,24.62-6.83c16-5.83,32.1-13.47,43.11-26.52-1.2,8.06-5.46,15.7-11.12,21.55s-12.67,10.26-20,13.83a115.39,115.39,0,0,1-47.2,11.58c-10.34.28-20.66-.83-30.91-2.12l-2.45-.32A12.79,12.79,0,0,0,203.05,216.41Z"/><path class="cls-3" d="M342.59,178.88a94.76,94.76,0,0,0,4.12-16.72,94.76,94.76,0,0,1-4.12,16.72l-.06-.29c-.93-3.64-2.24-7.34-4.87-10-3.52-3.61-9-4.82-14-4.34s-9.78,2.42-14.43,4.36c-30.1,12.56-61.55,25.94-94,23-22.3-2-43.48-12.41-59.46-28,9.78-8.65,34-26.44,37.47-30.41,3.88-4.5,13.07-17.4,17.31-22.08s22.82-23.89,39.2-31.29S297.91,56.91,336,72.21c0,0,1.52.56,4.05,1.8,5.64,5.18,10,12,13.48,18.94a82.31,82.31,0,0,1,7.65,20.31c2.65,12.61.86,25.72-1.83,38.31-1.34,6.31-2.91,12.58-4.27,18.88-3.62,5.19-4.18,9.06-6.09,15.24-.87,2.84-2.32,7.63-4.48,13.37A68.53,68.53,0,0,0,342.59,178.88Z"/><path class="cls-24" d="M302.8,142.73a23.52,23.52,0,0,1,.36,4.07c0,10.72-7.28,19.4-16.26,19.4-6.71,0-12.47-4.85-15-11.78A46.36,46.36,0,0,0,302.8,142.73Z"/><ellipse class="cls-21" cx="290.95" cy="150.75" rx="5.81" ry="8.18"/><ellipse class="cls-24" cx="288.55" cy="157.51" rx="2.4" ry="2.74"/><path class="cls-3" d="M286.9,127.4c7.81,0,14.33,6.57,15.9,15.33a46.36,46.36,0,0,1-30.86,11.69,22.78,22.78,0,0,1-1.3-7.62C270.64,136.09,277.92,127.4,286.9,127.4Z"/><path class="cls-4" d="M300.86,156.76a22.23,22.23,0,0,0,2.3-10,22.71,22.71,0,0,0-1.07-6.94"/><path class="cls-4" d="M298.19,132.84a15,15,0,0,0-11.29-5.44c-9,0-16.26,8.69-16.26,19.4,0,7.18,3.27,13.45,8.13,16.81"/><path class="cls-11" d="M301.73,141.58c-7.6,7.71-19.14,11.62-29.85,11.28-1.78-.06-1.78,2.72,0,2.78,11.42.36,23.72-3.88,31.81-12.1,1.25-1.27-.71-3.23-2-2Z"/><path class="cls-25" d="M287.69,112.75c-4.19-.51-2.8,1.24-6.7,7.3s-9.37,8.78-15.62,8.6-5.19,6.77-2.08,10.19,15.83,7.55,22.86-6.86S290,113,287.69,112.75Z"/><path class="cls-20" d="M287.69,112.75c-4.19-.51-2.8,1.24-6.7,7.3s-9.37,8.78-15.62,8.6-5.19,6.77-2.08,10.19,15.83,7.55,22.86-6.86S290,113,287.69,112.75Z"/><path class="cls-21" d="M289.91,207.35l-2.37,8c-.39,1.31-.74,2.65-1.17,4-.18.53-.25.88-.85.72a6.07,6.07,0,0,1-1.47-.77c-3.5-2.12-6.25-5.26-10.55-5.68a1.39,1.39,0,0,0-1.38,1.38,64.27,64.27,0,0,1-3.88,18.69l2.32-.61-16.62-15a1.41,1.41,0,0,0-2.18.28c-3.28,7.39-3.28,15.67-6.29,23.14l2.54-.33-10.34-19.94a1.39,1.39,0,0,0-2.39,0c-3.52,7.1-7.35,14-11.15,21l1.9-.5c-.69-.51-.93-1.71-1.2-2.46s-.65-1.73-1-2.6q-1.14-2.85-2.4-5.66a119.47,119.47,0,0,0-5.66-10.89,1.39,1.39,0,0,0-2.4,1.4,117.12,117.12,0,0,1,6,11.74q1.34,3,2.49,6.1c.67,1.79,1.12,3.57,2.72,4.77a1.39,1.39,0,0,0,1.89-.5c3.81-7,7.64-13.89,11.15-21h-2.39l10.33,19.94a1.41,1.41,0,0,0,2.54-.33c2.91-7.24,2.83-15.33,6-22.47l-2.18.28,16.62,15a1.41,1.41,0,0,0,2.32-.61,67,67,0,0,0,4-19.43l-1.39,1.39c2.31.23,4.24,1.74,6,3.09s4,3.38,6.26,3.5c2.86.16,3.4-3.37,4-5.42l2.8-9.46a1.39,1.39,0,0,0-2.68-.74Z"/><path class="cls-4" d="M386.53,134.75C382,108.71,362,82.62,334,71.37s-64.68-5.67-94.72,14.81S204.8,120.23,194.37,132s-39.8,26.25-43.49,38.21,35,58.22,97.76,49.68,68.3-44.71,68.3-44.71"/><path class="cls-4" d="M203.05,216.41s7.27,7.86,8,22.89-3.22,32.55,30.82,31.78,65-16.91,82.31-38.29S347.1,195.44,351,177.13"/><path class="cls-11" d="M315.53,176.19a108.21,108.21,0,0,1-25.47,41.07,84.78,84.78,0,0,1-43.67,23.32,72.17,72.17,0,0,1-28.54-.23c-1.74-.37-2.48,2.3-.74,2.68,17.29,3.71,35.45.82,51.26-6.88,15.31-7.45,28-19.53,37.3-33.69a116.62,116.62,0,0,0,12.54-25.53c.59-1.69-2.09-2.41-2.68-.74Z"/><path class="cls-11" d="M209.37,219.83A47.73,47.73,0,0,1,215,240.77c.06,1.78,2.83,1.79,2.78,0a50.86,50.86,0,0,0-6-22.34c-.84-1.58-3.24-.18-2.39,1.4Z"/><path class="cls-11" d="M309.78,177c1.6-.54,2.86-1.66,4.41-2.28a3,3,0,0,1,3.44.89,11,11,0,0,1,2.38,4.3,18.37,18.37,0,0,1,1,5.78,1.39,1.39,0,0,0,2.78,0,21.17,21.17,0,0,0-1.21-6.86,13.51,13.51,0,0,0-3.11-5.31,5.78,5.78,0,0,0-5.46-1.64c-1.83.46-3.2,1.85-5,2.45s-1,3.25.74,2.67Z"/><path class="cls-26" d="M237.89,148.69c4.31,2.65,13,7.39,12.7,23.23s-6.1,23.49-16.13,24.28-21.11-.72-32.47-19.8c-7.66-12.84-19.27-39.26,0-36.88S232.22,145.2,237.89,148.69Z"/><path class="cls-20" d="M395,126.84s-1.32-8.44-17.68-3.69-126.71,42.23-126.71,42.23"/><path class="cls-20" d="M237.89,148.69c4.31,2.65,13,7.39,12.7,23.23s-6.1,23.49-16.13,24.28-21.11-.72-32.47-19.8c-7.66-12.84-19.27-39.26,0-36.88S232.22,145.2,237.89,148.69Z"/><path class="cls-21" d="M250.59,170.39s20.28-6.18,19-11.44-20.65,1.74-20.65,1.74Z"/><path class="cls-21" d="M194.57,140.37a24.88,24.88,0,0,0-3.88-3.06,12.7,12.7,0,0,0-6.07-1.68c-3.21-.1-6.38.36-8.67,2.76-1.24,1.29.72,3.25,2,2a4.69,4.69,0,0,1,1.76-1.33,12.4,12.4,0,0,1,5-.62c3.3.1,5.63,1.82,8,3.93,1.33,1.19,3.3-.76,2-2Z"/><path class="cls-21" d="M192.43,150.43a20.29,20.29,0,0,0-15.5-5.48,1.42,1.42,0,0,0-1.39,1.39,1.39,1.39,0,0,0,1.39,1.38,17.57,17.57,0,0,1,13.53,4.67c1.3,1.22,3.27-.74,2-2Z"/><path class="cls-11" d="M183.88,181.7c.16-.37,0,0,0,.08l-.16.31a7,7,0,0,1-.41.64l-.1.15c-.11.15.17-.21.05-.07l-.23.27a6.75,6.75,0,0,1-.53.54l-.27.24-.14.11s.26-.19.07-.06a6.29,6.29,0,0,1-.64.41l-.3.17c-.28.14.3-.09,0,0l-.25.07-.14,0c.26-.1.26,0,.08,0a.87.87,0,0,1-.28,0s.39.1.18,0c0,0-.12,0-.12,0s.34.17.16.06c0,0,.29.24.14.1s-.12-.19.1.14c-.11-.17,0,.16.06.21v.09c0-.12,0-.12,0,0s0,0,0,0a.77.77,0,0,1,0-.19s-.11.24,0,.06.25-.46.39-.68a2.83,2.83,0,0,1,.2-.28c.09-.13.07,0-.06.07,0,0,.09-.11.1-.13.15-.18.31-.35.47-.51a5.68,5.68,0,0,1,.51-.47,1.21,1.21,0,0,0,.14-.1c-.1.15-.2.14-.08.06l.36-.25a6.38,6.38,0,0,1,.67-.38l.35-.17-.09,0,.2-.07a6.45,6.45,0,0,1,.75-.22l.42-.09.17,0-.2,0,.17,0-1.38-1.39a2,2,0,0,1,0,.25s0,.09,0,.13,0,.06,0-.16a1.75,1.75,0,0,0-.09.41,2.25,2.25,0,0,1-.08.24c-.09.27.15-.28,0,0s-.15.28-.23.41-.12.12-.12.17l.09-.12-.08.1-.33.32c-.17.15-.05,0,0,0a1.53,1.53,0,0,0-.21.14,3.17,3.17,0,0,1-.45.23,1.41,1.41,0,0,0-.64.83,1.39,1.39,0,0,0,1,1.71,1.65,1.65,0,0,0,1.07-.14A4.93,4.93,0,0,0,187,180.4a1.4,1.4,0,0,0-1.39-1.39,8.73,8.73,0,0,0-6.52,4,3.76,3.76,0,0,0-.74,2.24,2.25,2.25,0,0,0,1.68,2,4.37,4.37,0,0,0,3.63-1.05,8.88,8.88,0,0,0,2.9-3.76,1.38,1.38,0,0,0-.14-1.07,1.39,1.39,0,0,0-1.9-.5,1.7,1.7,0,0,0-.64.83Z"/><path class="cls-27" d="M315,380.44s-11.55-3-15.8,4.36l4.39,5.74s11.89-6.45,15.77-4.71Z"/><path class="cls-28" d="M315,380.44s-11.55-3-15.8,4.36l4.39,5.74s11.89-6.45,15.77-4.71Z"/></g></svg>