<svg xmlns="http://www.w3.org/2000/svg" xmlns:xlink="http://www.w3.org/1999/xlink" viewBox="0 0 600 600"><defs><style>.cls-1{fill:#83c4ff;}.cls-2{fill:#007fcc;}.cls-3{fill:#6fb7d6;}.cls-14,.cls-16,.cls-18,.cls-20,.cls-4,.cls-7{fill:none;}.cls-4{stroke:#1b5186;}.cls-14,.cls-20,.cls-4,.cls-7{stroke-linecap:round;stroke-linejoin:round;stroke-width:2.77px;}.cls-5{fill:#125bb2;}.cls-6{fill:#176be5;}.cls-7{stroke:#030304;}.cls-8{fill:#030304;}.cls-9{fill:#f1f3f3;}.cls-10{fill:#dedbe1;}.cls-11{fill:#1b5186;}.cls-12{fill:#fffffe;}.cls-13{fill:#d7dfe8;}.cls-14{stroke:#000;}.cls-15{fill:#514545;}.cls-17{fill:#0080ca;}.cls-18{stroke:#6fb7d6;stroke-miterlimit:10;stroke-width:0.56px;}.cls-19{fill:#027ecb;}.cls-20{stroke:#1d1d1b;}.cls-21{fill:#1d1d1b;}.cls-22{fill:url(#Degradado_sin_nombre_14);}.cls-23{fill:#dedce0;}.cls-24{fill:#f2f3f2;}.cls-25{fill:#3c3c3b;}.cls-26{fill:url(#Degradado_sin_nombre_14-2);}</style><linearGradient id="Degradado_sin_nombre_14" x1="749.41" y1="175.82" x2="739.91" y2="136.26" gradientTransform="matrix(-1, 0, 0, 1, 920.1, 0)" gradientUnits="userSpaceOnUse"><stop offset="0" stop-color="#00f1a5"/><stop offset="1" stop-color="#00b3e1"/></linearGradient><linearGradient id="Degradado_sin_nombre_14-2" x1="688.48" y1="190.45" x2="678.98" y2="150.88" xlink:href="#Degradado_sin_nombre_14"/></defs><g id="Capa_3" data-name="Capa 3"><g id="a"><rect class="cls-1" width="600" height="600"/></g></g><g id="Capa_2" data-name="Capa 2"><path class="cls-2" d="M398.46,149.62s6.88,4.1,16,10.74c2.81,9.61,12.4,14.58,15.44,24.3,2.58,8.26,3.09,9.07,8.44,15.87,4.82,6.14,9.92,15.57,15.16,21.36,2.7,3,3.22,14,5,17.54,2.06,4.09,2.16,11.41,2.77,15.95,1.32,9.78-.22,17.67,1,27.45-5.5-13.08-17.35-35.83-34.51-40-24.35-5.94-36.3-1.78-36.3-1.78Z"/><path class="cls-3" d="M455.14,240.21c-1.79-3.59-4.58-6.56-7.27-9.53Q440,222,432.77,212.8c-5.35-6.81-10.52-14-13.1-22.25-3-9.73-2.38-20.58-5.19-30.19,17,12.33,41.72,33.42,44.81,53.44,4.75,30.79,6.53,78.31,6.53,78.31s-1.19-3.79-3.5-9.28c-1.24-9.78-2.55-19.56-3.87-29.34C457.84,249,457.2,244.31,455.14,240.21Z"/><path class="cls-4" d="M398.46,149.62S454.54,183,459.29,213.8s6.53,78.31,6.53,78.31-13.66-43.36-38-49.3-36.3-1.78-36.3-1.78Z"/><path class="cls-5" d="M142.7,395.08c1.29-3.56,10.1-18.11,11.06-21.77,1.71-6.56,7.48-21.49,10.94-27.32,3.05-5.14,5.13-14.55,10.29-17.54s12.79-6.22,14.24-12c1.13-4.49,2.69-1.67,3.5-6.23.69-3.85,6.39.12,8.75-3,6.54-8.68,14.33-16.4,20.47-25.37,5-7.23,8.85-15.59,9.53-24.22a25.43,25.43,0,0,1,2.49,5.61c3.5,11.64,1.42,24.33-2.79,35.74-3.81,10.34-9.3,20-14.76,29.53-4.92,8.62-10.95,16.7-14.76,25.86-13.53,32.55-29.49,51.95-42,57.81C157.82,403.32,139.6,403.59,142.7,395.08Z"/><path class="cls-6" d="M140,374c3.22-14.55,8.89-26.8,18.45-45.15,12.79-24.55,5.23-24.28,17.44-48.7S220.09,250,220.09,250l-1.82-.36c5.51-.77,10.23,3.06,13.21,8-.68,8.63-4.57,17-9.53,24.22-6.14,9-13.93,16.69-20.47,25.37-2.36,3.12-4.6,6.49-5.29,10.34-.82,4.56.64,9.35-.49,13.85-1.46,5.78-6.78,9.67-11.95,12.67s-10.81,5.87-13.85,11c-3.46,5.83-2.73,13.16-4.44,19.73-1,3.66-2.67,7.07-4,10.62a49,49,0,0,0-1.81,26.75C144.7,419.22,134.72,406.74,140,374Z"/><path class="cls-7" d="M218.27,249.6c7.49-1,13.52,6.39,15.7,13.63,3.5,11.64,1.42,24.33-2.79,35.74-3.81,10.34-9.3,20-14.76,29.53-4.92,8.62-10.95,16.7-14.76,25.86C171.88,426,130.31,434,140,374c3.22-14.55,8.89-26.8,18.45-45.15,12.79-24.55,5.23-24.28,17.44-48.7S220.09,250,220.09,250"/><path class="cls-5" d="M296.58,602.23c-1-.34-7.57-6.7-8.3-7.52-1-1.13-2.17-12.22-2.18-13.75-.14-14.75-3.57-3.81-.79-18.29-24.86,7-19.17,16.07-41.35,2.86.41,13.92-2.06,15.63-4.22,29.38-.15,1-10.19,2.64-10.71,3.46-1.93,3.07-9.47,4.18-12.66,2.48-5.5-2.93-12.31-15-17.67-18.2l-1.52-91.6s79.42,19.79,101.48,17.41,124.74,6.36,124.74,6.36c-2.6,23.11-5.61,60.24-7.43,82-16.58,5-48,8-56,9.79C340.21,611.05,315.88,608.47,296.58,602.23Z"/><path class="cls-6" d="M215,576.73c3.2,1.71,7.89,3,9.82,0a7.2,7.2,0,0,0,.84-2.78,226.61,226.61,0,0,0,2.64-41.63c22.18,13.2,50.36,9.77,75.22,2.81a222.58,222.58,0,0,0-4,44c0,1.52.1,3.19,1.12,4.32a6.28,6.28,0,0,0,2.86,1.54c19.3,6.24,42.82,15.61,62.6,11.14,8-1.82,34.23-10.51,50.81-15.49-.88,10.55-1.71,21.29-2.5,32.56H199.6l-.9-45.61Q206.74,572.33,215,576.73Z"/><path class="cls-8" d="M325.93,525.32c-15.57,7.45-32.21,13.43-49.51,15-15,1.37-30.52-.74-44.12-7.5A62,62,0,0,1,212.92,518c-1.17-1.35-3.12.62-2,2,9.91,11.47,24,18.66,38.67,21.75,16.46,3.45,33.51,1.67,49.56-3a183.9,183.9,0,0,0,28.15-11c1.61-.77.2-3.16-1.41-2.39Z"/><path class="cls-8" d="M248.92,542.08l-.27,17.43c-.08,5-.34,10,.31,14.89.59,4.46,2,8.82,5.19,12.15,1.69,1.79,3.76,3.19,5.48,5a15.78,15.78,0,0,1,3.52,5.83c1.67,4.91,1.52,10.23,1.33,15.33-.06,1.79,2.71,1.79,2.78,0a52.93,52.93,0,0,0-.78-13.71,20.45,20.45,0,0,0-7.07-11.4,22.89,22.89,0,0,1-5.07-5.28,19.3,19.3,0,0,1-2.3-6.15c-1-4.72-.72-9.62-.65-14.4l.3-19.64a1.39,1.39,0,0,0-2.77,0Z"/><path class="cls-8" d="M261.32,542.1a235.36,235.36,0,0,0,.44,42.72c.18,1.76,2.95,1.78,2.77,0a235.36,235.36,0,0,1-.44-42.72c.15-1.78-2.63-1.77-2.77,0Z"/><path class="cls-8" d="M422,514.82q-4.26,38-7.33,76.2-.87,11.07-1.65,22.15l1.39-1.39H208.33c-2.75,0-5.61-.2-8.36,0h-.37l1.39,1.39L200.75,601l-.58-29.13-.7-35.26-.6-30.51-.2-10.12a37.59,37.59,0,0,0-.09-4.75.79.79,0,0,1,0-.22l-1.76,1.34c3.37.84,6.75,1.64,10.12,2.44q12.23,2.88,24.49,5.51c10,2.13,20,4.14,30.07,5.88a263.74,263.74,0,0,0,27,3.6,62.26,62.26,0,0,0,9.56.09c2.48-.21,4.95-.38,7.44-.43,7.64-.16,15.28.1,22.9.4,9.71.38,19.41.91,29.11,1.5s19.6,1.27,29.4,2q11.88.85,23.76,1.8l12.2,1,.55,0c1.78.16,1.77-2.62,0-2.77l-8.48-.7q-10.74-.87-21.48-1.66-14.2-1.06-28.43-2c-9.91-.64-19.82-1.22-29.73-1.68-8.33-.39-16.66-.72-25-.73-2.95,0-5.9,0-8.84.19-2.54.14-5.05.43-7.6.41-8.22-.07-16.45-1.28-24.56-2.56-10.08-1.58-20.1-3.51-30.09-5.57q-13.31-2.75-26.53-5.82c-4.82-1.12-9.63-2.25-14.44-3.44l-.67-.16a1.39,1.39,0,0,0-1.75,1.33l.24,12.13.57,29.14.7,35.26.61,30.5c.1,4.95,0,9.93.29,14.87,0,.08,0,.15,0,.22a1.4,1.4,0,0,0,1.38,1.39H405.69c2.78,0,5.58.06,8.36,0h.37a1.43,1.43,0,0,0,1.39-1.39Q418.5,575,422.4,536.9q1.14-11.05,2.38-22.08C425,513,422.21,513.06,422,514.82Z"/><path class="cls-9" d="M338.1,254.73c10.53-25.35,21.14-51.12,27.34-77.74-.13,2.8-.35,5.6-.68,8.39-1.72,14.87-6.22,29.26-10.71,43.54q-6.26,20-12.53,39.94c-2.46,7.85-4.92,15.7-7.86,23.39-.4,1-.82,2.09-1.23,3.13-7.83,5.85-15,11.15-20.72,15.48q3.59-6.19,6.88-12.55C325.88,284.16,332,269.44,338.1,254.73Z"/><path class="cls-10" d="M262.09,370.23c-2.06,6.8-17.28-60.18-17.28-60.18l2.7-31.38q0-29.25,0-58.5c0-14.37,0-28.8,2.29-43,3.75-23.43,14-46.16,30.93-62.79s40.82-26.63,64.47-24.61c1.07.09,2.13.22,3.2.36,7.1,15.63,11.72,32.65,14.46,49.55a179.51,179.51,0,0,1,2.56,37.3c-6.2,26.62-16.81,52.39-27.34,77.74-6.1,14.71-12.22,29.43-19.51,43.58q-3.29,6.36-6.88,12.55c-5.4,4.06-9.59,7.25-12,9.22C284.94,332.22,262.19,369.93,262.09,370.23Z"/><path class="cls-2" d="M373.88,231.42c-.34-10.77-2.91-21.35-3.6-32.09-1.75-27,8.38-53.82,5.74-80.73a97.72,97.72,0,0,0-4.55-21c12.91,6.8,23.63,17.58,29.29,31,3.42,8.12,5,16.88,6.34,25.59a629.48,629.48,0,0,1,7.12,73.8c-7,8.84-25.33,24.08-45.42,39.77C371.77,255.77,374.27,243.67,373.88,231.42Z"/><path class="cls-3" d="M341.52,268.86q6.27-20,12.53-39.94c4.49-14.28,9-28.67,10.71-43.54,1.76-15.19.57-30.6-1.88-45.69-2.74-16.9-7.36-33.92-14.46-49.55a69.56,69.56,0,0,1,23.05,7.41,97.72,97.72,0,0,1,4.55,21c2.64,26.91-7.49,53.74-5.74,80.73.69,10.74,3.26,21.32,3.6,32.09.39,12.25-2.11,24.35-5.08,36.29-12.18,9.5-25,19.16-36.37,27.67.41-1,.83-2.09,1.23-3.13C336.6,284.56,339.06,276.71,341.52,268.86Z"/><path class="cls-11" d="M415.61,227.94q-1-27.81-4.53-55.44c-1.13-9-2.34-18-4-26.95-1.52-8-3.75-15.93-7.71-23.1-6.65-12-17.47-21.59-29.84-27.45a72.33,72.33,0,0,0-42-6,87.37,87.37,0,0,0-41.45,18.75c-11.93,9.67-21.22,22.41-27.65,36.3-6.82,14.75-10.33,30.58-11.52,46.73-.69,9.25-.73,18.52-.73,27.78s0,18.78,0,28.17l0,27.94c0,3.09-.18,6-.44,9.1l-2.09,24.37a7.67,7.67,0,0,0,.16,3.17q1,3.42,2,6.81c2.36,7.7,4.87,15.37,7.78,22.88a105.93,105.93,0,0,0,4.57,10.49c1.11,2.15,2.39,4.7,4.42,6.12,1.8,1.26,3.74.57,4.73-1.3.15-.29.26-.6.39-.9,0-.06-.17.27,0,0-.21.25-.09.11.07-.09l.46-.57q1.62-2,3.28-3.91a269.12,269.12,0,0,1,26.19-27.3c4.93-4.35,10-8.06,15.3-12,7.59-5.7,15.22-11.36,22.81-17.05q13.54-10.14,27-20.44c8.8-6.8,17.56-13.66,26.14-20.74,6.93-5.72,13.83-11.55,20.22-17.87a77,77,0,0,0,6.06-6.59c1.1-1.39-.85-3.36-2-2-4.38,5.49-9.75,10.24-15,14.87-7.55,6.65-15.36,13-23.24,19.24-8.83,7-17.76,13.87-26.74,20.67q-12.52,9.5-25.14,18.86c-6.27,4.69-12.56,9.35-18.78,14.1A182.67,182.67,0,0,0,284,333q-6.37,6.63-12.4,13.58c-1.36,1.57-2.72,3.15-4.05,4.75a31.09,31.09,0,0,0-2.18,2.68c0,.05-.08.1-.12.16s-.11.27-.17.4c-.14.31,0-.07-.09.21s-.18.35-.29.53.12,0-.2.23c-.1.07.22-.05-.14.07.13,0,.3-.08.09-.06s.19-.13.1,0-.37,0,0,0,0,0-.07,0c.09.05.11.09-.17-.1s0,0-.24-.17-.32-.29-.47-.45a6.06,6.06,0,0,1-.87-1.08,30.52,30.52,0,0,1-2.08-3.53c-3.58-6.91-6.11-14.4-8.58-21.76q-2.93-8.74-5.5-17.61c-.11-.39-.23-.77-.34-1.16.13.47,0,.35.08,0s.07-.83.11-1.24l.93-10.82,1.11-13c.21-2.43.52-4.86.52-7.3l0-55.07c0-17.59-.12-35.37,3.76-52.62a114.94,114.94,0,0,1,18.07-41.39A90.73,90.73,0,0,1,305,99c13.37-6.47,28.7-9.51,43.49-7.43a68.14,68.14,0,0,1,36.33,17.07,60.38,60.38,0,0,1,12.46,15.92c3.82,7.14,5.83,15,7.28,23a537.44,537.44,0,0,1,6.71,54.1q1,13.16,1.53,26.34C412.9,229.72,415.67,229.73,415.61,227.94Z"/><path class="cls-11" d="M404.53,205.68l-20.54,20S401.82,222.82,404.53,205.68Z"/><path class="cls-11" d="M401.7,190.51l-20.54,20S399,207.65,401.7,190.51Z"/><path class="cls-11" d="M399,174.64l-20.54,20S396.31,191.78,399,174.64Z"/><path class="cls-12" d="M234.61,471.3c.58-5,1.4-10.1,4-14.41l21.5,15.54c12.7,9.18,25.56,18.46,40.09,24.35,10.76,4.37,22.66,6.75,34.12,5.58-5.79,9.38-10.62,15.68-10.62,15.68s-32.75,7.55-60.12,11c-10.15,1.3-20-3.1-28.47-9.15A195.41,195.41,0,0,1,234.61,471.3Z"/><path class="cls-13" d="M355.06,357.34a175.3,175.3,0,0,0-32.21,16,228.46,228.46,0,0,0-.6-47.42c-.25-2.11-.67-4.46-2.42-5.67-1.41-1-3.27-.9-5-.71-23.74,2.63-44.89,21.18-50.61,44.37a272.66,272.66,0,0,0-24.38-60.61c-1.41-2.56-3.1-5.3-5.88-6.2-3.89-1.27-7.82,1.67-10.39,4.93,5.37-13.06,11.92-23.19,18.93-29.05l21.82,88.77s7.91-47.75,47.71-65.19,92.83-58.14,92.83-58.14,11.51-2.91,6.86,19.18S389.06,315.71,378,349.43l-3,9a14.28,14.28,0,0,0-6.12-3.21C364.3,354.19,359.51,355.69,355.06,357.34Z"/><path class="cls-12" d="M210,369.2c1-25.62,6.17-49.19,13.59-67.2,2.57-3.26,6.5-6.2,10.39-4.93,2.78.9,4.47,3.64,5.88,6.2a272.66,272.66,0,0,1,24.38,60.61c5.72-23.19,26.87-41.74,50.61-44.37,1.71-.19,3.57-.27,5,.71,1.75,1.21,2.17,3.56,2.42,5.67a228.46,228.46,0,0,1,.6,47.42,175.3,175.3,0,0,1,32.21-16c4.45-1.65,9.24-3.15,13.87-2.09a14.28,14.28,0,0,1,6.12,3.21c-10.33,31.48-21.46,66.16-21.46,92.13,0,8.42-2.61,17.75-6.29,26.72-15-6.36-28.26-16.5-40.41-27.44-14.52-13.07-27.83-27.5-43.18-39.58-9.12-7.18-19.92-13.77-31.48-12.75-9.25.81-17.35,6.56-22.87,14.16C209.35,396.37,209.52,381.38,210,369.2Z"/><path class="cls-13" d="M232.23,397.54c11.56-1,22.36,5.57,31.48,12.75,15.35,12.08,28.66,26.51,43.18,39.58C319,460.81,332.33,471,347.3,477.31a176.39,176.39,0,0,1-13,25.05c-11.46,1.17-23.36-1.21-34.12-5.58-14.53-5.89-27.39-15.17-40.09-24.35l-21.5-15.54c-2.56,4.31-3.38,9.42-4,14.41a195.41,195.41,0,0,0,.46,48.63c-14.31-10.26-24.41-25.28-24.41-25.28s-1.26-42.65-1.3-82.95C214.88,404.1,223,398.35,232.23,397.54Z"/><path class="cls-14" d="M404.88,238.39s11.51-2.91,6.86,19.18S389.06,315.71,378,349.43s-24.43,72.68-24.43,101.16S323.66,518,323.66,518s-41.18,13.2-67.11,11.07c-27.5-2.26-45.89-34.46-45.89-34.46s-2.41-81.26-.66-125.45,15.85-82.3,32.52-96.25l21.82,88.77s7.91-47.75,47.71-65.19S404.88,238.39,404.88,238.39Z"/><path d="M260,368.48q-3.25,31.27-4.74,62.7-1.45,31.19-1.07,62.43.21,17.76,1,35.5c.08,1.78,2.86,1.79,2.78,0q-1.37-31.41-1-62.87.42-31.22,2.68-62.38,1.28-17.72,3.12-35.38c.18-1.78-2.6-1.77-2.78,0Z"/><path class="cls-5" d="M423.91,288.15l-.6,1c-4.28,6.89-8,14.9-13.12,21.23-4.18,5.2-9.75,8.7-13.72,14.05-7.33,1.7-30.19,7.43-43.24,15.17,13-7.74,35.91-13.47,43.24-15.17-16,21.47-16.56,54.6-31,77.12-2.73,4.25-19.39-2-21.24,2.67-2.19,5.56-3.5,12.18-8.59,15.31.73-10.21-13.41-25.34-8.95-34.55,3.6-7.45,9.23-18.28,13.64-25.29s2.57,3,1.39-5.23c-.1-.67,1.72,8.39,1.21,7.95s-3.62-8-4.33-7.95c-2.7.17,10.58-3.43,7.87-3.47s-5.21-8.37-5.35-11.08c-.11-2.36,6-16.22,7.92-17.61,9.85-7.17,19.12-22.46,30.46-26.93,5.5-2.17,6.4-12.54,10.88-16.39,4.77-4.09,5.76,2.91,8.45-2.77,4.51-9.53-3.46-1,1.05-10.48,3.2-6.76,17.45-16.5,18.2-23.94.56-5.66,6.71-11.51,3.5-16.08,4.84,2.64,12.81,8.82,14.24,16.79.19,1.12.34,2.28.43,3.5a103,103,0,0,1-3.92,23.46c-.39,1.22-.8,2.43-1.24,3.64A128.38,128.38,0,0,1,423.91,288.15Z"/><path class="cls-15" d="M423.91,288a128.48,128.48,0,0,0,7.15-15.05A86.68,86.68,0,0,1,423.91,288Z"/><path class="cls-6" d="M431.06,272.92c.84-1.19,3.82-11.72,5.27-11.93,2-.3,7.09-4.31,8.23-2.68,9.28,13.36,29.39,20.82,28.48,37.07-.31,5.6,3.18,21.62,1.39,26.93-5.81,17.19-4.83,44.41-18.8,56-8.87,7.35-25.51,46.13-35.41,52s-22.11-2.16-26.9,8.31c-5.08,11.11-21.95,8-26.9,19.17-7,15.8-24,24.33-40.12,30.61-3.64,1.42-7.35,2.83-11,4.31C318.5,452,325.7,380.92,331.43,358c6.68-26.75,28.78-57,38.45-75s29.86-28.49,38-37.23,6.72-22.08,6.72-22.08a31.32,31.32,0,0,1,9.8,3.37c3.22,4.56,4.38,10.65,3.81,16.31-.74,7.44-4,14.36-7.19,21.12l-13.53,28.6c-2.69,5.68-5.51,11.54-10.29,15.63-4.48,3.85-10.25,5.76-15.75,7.93a144.76,144.76,0,0,0-32,17.56c-1.91,1.39-4,3.21-3.86,5.57.13,2.71,3.19,4.39,5.9,4.43s5.33-1,8-1.16a2.74,2.74,0,0,1,2,.45,2.86,2.86,0,0,1,.76,1.82c1.18,8.19-2.25,16.37-6.66,23.38s-9.87,13.38-13.48,20.83c-4.46,9.21-5.85,19.59-6.58,29.79,5.09-3.12,6.4-9.75,8.59-15.31a76.75,76.75,0,0,1,7.34-13.23c14.47-22.52,29-45.08,44.93-66.56l2.33-.53c11.05-13.2,19.24-25.13,25.11-35.75a86.68,86.68,0,0,0,7.15-15.05c.28-.71.55-1.42.81-2.12"/><path class="cls-15" d="M432.3,269.29c-.14.5-.28,1-.43,1.51-.26.7-.53,1.41-.81,2.12C431.5,271.72,431.91,270.51,432.3,269.29Z"/><path class="cls-16" d="M431.87,270.8a103.76,103.76,0,0,0,4.35-25C436.72,252.58,435.49,260.91,431.87,270.8Z"/><path class="cls-5" d="M366.42,457.8c4.95-11.16,4-24.28,9.08-35.39,4.79-10.47,14.38-17.93,24.27-23.83s20.52-10.74,29.39-18.09c14-11.57,22.48-28.48,28.28-45.67,1.79-5.32,3.38-10.76,3.69-16.36.91-16.25-8.79-31-18.08-44.32-1.14-1.63-2.71-3.47-4.68-3.18-1.44.22-2.44,1.51-3.28,2.71l-10.9,15.58a100.64,100.64,0,0,0,7.68-18.45c3.62-9.89,4.85-18.22,4.35-25v0c25.11,22,47.82,49.43,50.15,67.45s-26.75,72.09-39,117.44-18.93,118.36-18.93,118.36C373.5,600.81,311.1,577,311.1,577s.85-33.48,2.9-66.62c.29-4.77.72-10.77,1.27-17.63,3.68-1.48,7.39-2.89,11-4.31C342.4,482.13,359.42,473.6,366.42,457.8Z"/><path class="cls-7" d="M436.22,245.8c25.11,22,47.82,49.44,50.15,67.46s-26.75,72.09-39,117.44-18.93,118.36-18.93,118.36C373.5,600.81,311.1,577,311.1,577s.85-33.48,2.9-66.62S324.74,384.77,331.43,358s28.78-57,38.45-75,29.86-28.49,38-37.23,6.72-22.07,6.72-22.07,18.28,2.32,21.19,18.6-5.37,43.6-37,81.39c0,0-29.87,6.4-45.57,15.7"/><path class="cls-8" d="M369.69,331.79,368,364.13c-.58,10.72-1,21.46-1.74,32.17a13.06,13.06,0,0,1-2,6.73,51.4,51.4,0,0,1-4.78,5.44q-4.85,5.31-9.36,10.87a255.28,255.28,0,0,0-16.78,23.15,252.53,252.53,0,0,0-15.64,28.14c-.77,1.61,1.62,3,2.39,1.4a252.92,252.92,0,0,1,30.74-49.18q4.54-5.69,9.42-11.11c3-3.36,7-6.61,8.16-11.16a36.92,36.92,0,0,0,.79-7.35l.44-8.2.88-16.42,2-36.82c.1-1.78-2.68-1.78-2.77,0Z"/><path class="cls-6" d="M193,421.83c4.47-.63,18.58,2.57,21.45,6.06,1.86,2.27,7.76,7.41,7.93,10.35,1.08,18.56-4.27,40.6-5.74,59.13-.79,10.09-1.77,50.09-2.57,60.19-6.46-1.27-19.32-3.68-24.91-7.16,2.4-16.39.1-59.39-1.06-75.91-.9-12.81-1.12-25.64-1-38.48C190.32,435.13,189.78,422.29,193,421.83Z"/><path class="cls-5" d="M215.08,333.59c-.08,4.84-6.33,23.12-7.91,27.69-3.53,10.19-13.65-.46-17.34,9.67,1-18.25,2.56-36.46,6-54.39.92-4.75,6.24-23.74,7.45-28.44,1,4,5.07,11.78,6.07,15.8S215.15,329.53,215.08,333.59Z"/><path class="cls-5" d="M211.72,445.23c-.17-2.93-.48-6.06-2.34-8.33-2.87-3.48-8.13-3.55-12.59-2.91a75.21,75.21,0,0,0-9.63,2c.2-15.92,1-31.85,1.77-47.76q.42-8.64.9-17.3,5.53-15.19,10.84-30.46c1.58-4.58,3.17-9.25,3.25-14.09.07-4-.91-8-1.89-12s-2-8-3-12.05c4.83-18.62,12.18-36.61,23.23-52.3.86-1.22,1.93-2.54,3.42-2.63,2.1-.13,3.43,2.14,4.24,4.08l8,19.15c2.89,6.92,1.9,8.38-.69,15.27a152.59,152.59,0,0,0-8.31,35.6c-2.95,24.3-1.72,48.85-2,73.27-.25,23.9-2,47.75-3.8,71.58,0,11.49-1.73,23.25-2.59,34.71-.67,9.08-4.74,49.6.38,57.39a53.78,53.78,0,0,1-13.52-.93c.79-10.1,1.59-46.53,2.39-56.63C211.33,482.4,212.8,463.79,211.72,445.23Z"/><path class="cls-8" d="M221.81,466.39c0,10-1.28,20-2.19,30-.43,4.73-.79,9.48-1.17,14.22-.92,11.71-1.81,23.55-1.25,35.3.2,4.22.23,9.62,2.59,13.32l1.2-2.08a53.86,53.86,0,0,1-31.1-7.91l.63,1.57c1.63-11.32,1.21-23,.95-34.42-.28-12.44-.87-24.88-1.66-37.31-1.13-17.74-1.53-35.42-1.06-53.2.52-19.6,1.49-39.21,2.69-58.77,2.24-36.42,7.05-74.05,25.58-106.19,1-1.73,2-3.44,3.11-5.13a46.63,46.63,0,0,1,4-5.79c.63-.72,1.42-1.44,2.42-1a4,4,0,0,1,1.46,1.66,60.69,60.69,0,0,1,3,6.87c1.89,4.51,3.82,9,5.68,13.52,1.33,3.22,2.2,6.12,1.14,9.54-1.27,4.1-3,8-4.28,12.14-1.38,4.45-2.51,9-3.45,13.52a208.83,208.83,0,0,0-3.65,28.08c-1.33,19.52-.61,39.11-.77,58.66s-1.35,39.31-2.75,58.92q-.52,7.25-1.07,14.49c-.13,1.78,2.64,1.77,2.77,0,1.52-20.34,3-40.69,3.6-61.08.56-20-.24-40,.44-60,.66-19.39,2.78-39,9.4-57.36,1.18-3.26,2.94-6.61,3.1-10.13.18-4-2-7.88-3.46-11.45q-2.83-6.76-5.68-13.52c-1.21-2.88-3-7.69-7.09-6.68a6.78,6.78,0,0,0-3.56,2.84c-1.38,1.87-2.65,3.85-3.89,5.81q-3.63,5.76-6.69,11.86a169.74,169.74,0,0,0-10,24.6c-5.72,17.91-8.72,36.57-10.53,55.25-1.92,19.8-2.69,39.73-3.57,59.6-.88,20.11-1.42,40.26-.44,60.38,1.26,25.58,3.79,51.3,2.22,76.93-.14,2.21-.31,4.41-.62,6.6a1.46,1.46,0,0,0,.63,1.57A56.53,56.53,0,0,0,221,559.88a1.4,1.4,0,0,0,1.2-2.09c-1.93-3-2-7.61-2.18-11.13-.32-5.76-.19-11.55,0-17.31.4-9.83,1.26-19.63,2-29.43.89-11.18,2.47-22.3,2.49-33.53A1.39,1.39,0,0,0,221.81,466.39Z"/><path class="cls-8" d="M229.37,253.29a247.45,247.45,0,0,0-14.62,27.48q-1.56,3.45-3,6.94a47.23,47.23,0,0,0-2.72,7c-.58,2.39.36,4.41,1.59,6.4s2.49,3.75,3.8,5.58c3,4.18,6,8.42,7.4,13.43a1.39,1.39,0,0,0,2.67-.74A38,38,0,0,0,218.69,308c-1.24-1.79-2.54-3.55-3.78-5.35s-3.09-3.92-3.31-6a7.06,7.06,0,0,1,.81-3.16c.48-1.23,1-2.45,1.47-3.67q1.44-3.48,3-6.93,3-6.78,6.51-13.37c2.62-5,5.43-9.93,8.39-14.74.94-1.53-1.46-2.92-2.39-1.4Z"/><path class="cls-8" d="M216.89,309.84l-15.06,57c-1.21,4.58-2.82,9.24-3.34,14s1.08,8.85,2.58,13.1l9.82,28,11,31.29c.59,1.68,3.27,1,2.68-.73q-9.63-27.42-19.24-54.83c-.79-2.25-1.59-4.5-2.37-6.76a28.11,28.11,0,0,1-1.73-6.85c-.39-4.56,1.38-9.2,2.53-13.55l7.4-28,8.43-31.87a1.39,1.39,0,0,0-2.68-.73Z"/><path class="cls-12" d="M411.57,226.44s-1.61,5.81-16.34,17.83-59.2,37-71.7,43c-23,11-55.17,35.92-60.21,69.64,0,0-5.19-34-8.78-49.36-3.33-14.22-11.76-32.68-8.79-49.35,0,0-7.88,3.1-12.92,13.18s-3.4,29.46-3.4,29.46,4-21.65,12.32-16.28,20.34,85.65,20.34,85.65,9.5-50,51.36-72.09c0,0,10.08.78,11.24,17.44,0,0,31-16.27,51.94-36S418.23,240.39,411.57,226.44Z"/><path class="cls-14" d="M411.57,226.44s-1.61,5.81-16.34,17.83-59.2,37-71.7,43c-23,11-55.17,35.92-60.21,69.64,0,0-5.19-34-8.78-49.36-3.33-14.22-11.76-32.68-8.79-49.35,0,0-7.88,3.1-12.92,13.18s-3.4,29.46-3.4,29.46,4-21.65,12.32-16.28,20.34,85.65,20.34,85.65,9.5-50,51.36-72.09c0,0,10.08.78,11.24,17.44,0,0,31-16.27,51.94-36S418.23,240.39,411.57,226.44Z"/><path class="cls-6" d="M178.48,414.7c-8.15,1.8-23,3.19-31.25,1.58-7.59-1.49-7.16-21.51-8.89-28.9.3-2.2.56-4.45.76-6.71,1.73-19.92,49.47-26.2,49.47-26.2,41.09-21.2,53.27-9.18,53.27-9.18-7.58-5.19-6.38,11.31-2.89,23.5.88,3.07,6.83,17.91,8.18,21.08-5.32,3.43-13.74,6-19.59,8.41C212.89,404.26,193.93,411.28,178.48,414.7Z"/><path class="cls-5" d="M138.34,387.38c1.73,7.39,9.1,12.77,16.69,14.26,8.2,1.61,16.63-.29,24.79-2.09,15.45-3.42,31.06-6.57,45.71-12.54a102.53,102.53,0,0,0,16.88-8.72,175.62,175.62,0,0,0,9.1,18s-39.68,8.42-51.4,14.05-36,13.36-53,11.06C132,419.37,136,404.59,138.34,387.38Z"/><path class="cls-7" d="M140.44,375.91c-1.09,4.92-.55,3-1.14,8.79-.06.64-.13,1.27-.2,1.89"/><path class="cls-7" d="M139.1,386.59c-2.4,21.66-6.81,33.79,12.41,35.49,19.77,1.74,36.05-9.3,57-13.95s43-11.82,43-11.82-30.23-56-8.72-49.4c0,0-3.49-12.38-35.47,0s-50.58,28.63-50.58,28.63"/><path class="cls-8" d="M186.58,353.13a99.68,99.68,0,0,0-27,8.09c-1.62.75-.21,3.14,1.4,2.4a97.38,97.38,0,0,1,26.29-7.82c1.76-.26,1-2.94-.74-2.67Z"/><path class="cls-3" d="M200.34,356.44c-8-2.09-12-4.21-20.09-3,.56-2.67,2.64-12.86,3.9-15.29,3.46-6.67,10.09-11.39,17.32-13.44s15-1.59,22.27.31A58.64,58.64,0,0,1,257,348.41l-.52-.37c-4.29,5.52-15.84,18.3-20.71,23.33-1.46-.74-9.56-2.12-11-2.89C214.47,362.82,211.72,359.41,200.34,356.44Z"/><path class="cls-17" d="M206.14,347.51c11.37,3,21.94,8.41,32.24,14.06,1.42.78,2.86,1.57,4.33,2.31a191.18,191.18,0,0,1-14.43,13.46c-2,1.71-4.36,3.47-7,3.33s-4.74-2.1-6.68-3.86a95.46,95.46,0,0,0-34.34-19.93,84.19,84.19,0,0,1,1.27-11A61.54,61.54,0,0,1,206.14,347.51Z"/><path class="cls-11" d="M258.18,347.71a60.32,60.32,0,0,0-32.56-23.58c-13.73-4-30.54-2.66-40,9.31-5.32,6.72-6.16,15.19-6.73,23.44a1.39,1.39,0,0,0,1,1.34,94.09,94.09,0,0,1,32.77,18.72c2.14,1.88,4.26,4.15,7.1,4.88,3,.78,5.79-.59,8.12-2.38A144.33,144.33,0,0,0,242.55,366a195.64,195.64,0,0,0,14.89-17c1.08-1.4-.87-3.37-2-2a193.35,193.35,0,0,1-26.8,28.14c-2,1.72-4.52,4.3-7.41,4.09s-5.22-3.07-7.29-4.86a96.67,96.67,0,0,0-33.36-18.87l1,1.33c.48-7,1-14.28,5-20.25a26.93,26.93,0,0,1,14.43-10.33c13.22-4.09,28.16.35,39.35,7.78a56.94,56.94,0,0,1,15.33,15c1,1.46,3.41.07,2.39-1.4Z"/><path class="cls-6" d="M486.49,334.38c.54,13.53-5.55,32.38-12.66,43.92-3.55,5.77-14.1,16.72-19.38,21-4.23,3.38-14.92,26.56-20,28.48-14.15,5.39,1.71-17.25-13.26-15,8.16,3.54-31.78,40.42-22.95,39.36-14.28,10.25-27,14.45-42.52,22.75-9.12,4.89-18.86,7.68-28.91,10.09-1.26.3-12.79-3.38-14-3.76s-5.47-4.89-6.53-5.73c-11.55-9.1-11.75-6.26-23.54-15-5.51-4.1-13.44-10.44-16.82-16.42-4.09-7.23-4-14.67-11.67-17.82-5.33-2.19-7.71-8.08-12.07-11.85-5.62-4.86-12.9-18.13-13.65-25.52-1.48-14.75,4.44-35,14.34-41.08A38.83,38.83,0,0,1,260,344.07s51.28,59.94,72,74.06c0,0,4.6-4.1,8.09.17,0,0-.17-15.12,15.71-35.08s34.63-52,39.3-57.42,22.07-22.36,33.84-26.05c4.3-1.34,12.28-4.12,21.38-4.82,6,8.69,20.08,7.32,24.5,16.9C478,318.73,486.19,326.79,486.49,334.38Z"/><path class="cls-5" d="M242.87,347.7c-5.86,13.5-7,28.92-5.56,43.66.74,7.4,2.44,15.33,8.07,20.19,4.36,3.77,10.28,5,15.62,7.17a37.69,37.69,0,0,1,18.61,15.88c3.38,6,5.11,13.3,10.61,17.4,11.79,8.78,31-3.74,42.55,5.36a11.17,11.17,0,0,0,3.36,2.26,7.42,7.42,0,0,0,3.82-.19c10.06-2.41,19.3-7.35,28.42-12.23,15.5-8.31,31.05-16.65,45.34-26.9a50.56,50.56,0,0,1-26.1-3.82A209.36,209.36,0,0,0,431.46,405c5.07-1.93,10.12-4.09,14.35-7.48,5.29-4.24,8.95-10.13,12.5-15.91,7.11-11.53,14.46-24,13.93-37.5-.3-7.59-3.11-14.86-6.29-21.75a186.63,186.63,0,0,0-15.63-27.47c15.82-1.2,35.05,3.91,44.33,33.89,7.29,23.56-5.46,55-18.33,72.06-20.81,27.64-41.05,45.65-96.39,73.2s-62.47,32.08-81.65,12S233.74,409.66,221,387l-6.32-8.67S223.8,356.53,242.87,347.7Z"/><path class="cls-7" d="M332.86,418.7c-15.7-9.89-72.82-74.63-72.82-74.63-31.39-.58-45.34,34.3-45.34,34.3s22.67,30.82,33.72,47.68,37.2,50.58,57.55,66.67,64.54-13.77,87.79-26.56,62.79-36.62,82.56-65.28,26.34-55.38,15.12-81.14c-8.14-18.69-29.07-31.67-58.72-21.4S388.53,333,370.51,362.68s-29.07,36.62-30.23,56.39l-1.17,19.77"/><path class="cls-8" d="M341.28,419c-1-2.27-2.49-4.63-5.25-4.79s-3.9,2.29-4.64,4.51q-3,8.8-5.9,17.62c-.57,1.7,2.11,2.43,2.67.74l4.72-14.1,1.12-3.33a5.31,5.31,0,0,1,1.12-2.4c1.71-1.46,3.29,2.08,3.77,3.16.72,1.62,3.11.21,2.39-1.41Z"/><path class="cls-18" d="M345.39,420.75a22.62,22.62,0,0,1-.26-2.85S345.29,419.06,345.39,420.75Z"/><path class="cls-17" d="M336.41,369.35c1.71-4.15,15.19,8.38,20,14.88,4,5.38,9.68,12.07,9.68,17.44-1,.53-3.07-.39-7.59-3.94a57.92,57.92,0,0,0-7.3-10.85C346.23,381.05,340.06,376.09,336.41,369.35Z"/><path class="cls-3" d="M310.74,401.81c-6.1-10.88-15-22.76-22.86-32.46-4.28-5.29-10.83-11.13-13.06-17.56,15.6-1.61,48.55-3.6,58,5.25,14,13.1,35.27,32,34.34,37.61-.49,3,.23,6.31-1.09,7q-6.19-7.91-12.19-16c-4.83-6.5-10-13.4-17.51-16.34,3.65,6.74,9.82,11.7,14.81,17.53a57.92,57.92,0,0,1,7.3,10.85c-.91-.71-1.9-1.51-3-2.44a85.55,85.55,0,0,1,2.32,23c-.34,5.88-.51,9.74-1.41,11.72-.34-.81-5,1.48-5.27.65-1.31-4.58-1.81-9.1-2.75-13.77-3.09-15.33-9.5-31-20.22-42.41,1.7,6.82,8.46,11,12.16,17,3.51,5.66,4.09,12.62,4.3,19.27q.3,9.34-.11,18.7c0,.5-.05,1-.08,1.51-.9,2.32-2.52,3.73-5.36,2.74a5.67,5.67,0,0,1-1.26-.62c-.28-1.79-4.11-6.88-4.07-8.67.12-4.81-2-7.68-2.57-12.46-.78-6.54-1.86-10.64-5.34-16.23-3-4.78-4.87-9.43-8.11-14-2.28-3.26-.93-4.92-4.71-3.66,1.66,2.55,1.94,2.35,3.7,4.84a59.66,59.66,0,0,1,10.45,29.38c-.85,5.21-2.48,12.48-5.3,16,.1-.94-5,1.64-4.93.72C317.91,419,315.61,410.52,310.74,401.81Z"/><path class="cls-17" d="M269.53,352.53s5.21-.9,12.71-1.68a59.07,59.07,0,0,0,9.84,17.77c7.85,9.7,18.79,16.92,24.88,27.81,4.88,8.7,6.17,19.07,5.23,29-.09.92-.2,1.85-.3,2.79-1.67,2.08-3.76,2.85-6.35,1.07-9.83-6.73,5.94-13.16-6.85-30.57s-15.75-21.81-23.47-29.26S267.46,355.38,269.53,352.53Z"/><path class="cls-17" d="M344.65,410.73c-.21-6.65-.79-13.61-4.3-19.27-3.7-6-10.46-10.18-12.16-17,10.72,11.4,21.88,23.64,25,39,.94,4.67,1.09,9.5,2.4,14.08a22.82,22.82,0,0,0,.87,2.48c-.85,1.87-2.35,2.06-5.27.65-3.91-1.9-5.29-6.75-5.77-9.89-.1-1.69-.26-2.85-.26-2.85a22.62,22.62,0,0,0,.26,2.85c.18,2.86.2,7.26-.93,10.19,0-.51.06-1,.08-1.51Q344.95,420.09,344.65,410.73Z"/><path class="cls-17" d="M311.39,375.45c3.77-1.25,7.27,2.37,9.56,5.63q4.86,6.92,9.33,14.1c3.48,5.59,6.85,11.5,7.64,18,.57,4.78-.27,9.6-.39,14.42a29.88,29.88,0,0,0,.31,5.42c-7.57-4.78-9.86-26.83-9.86-26.83s-.22,2.55-.79,6a59.66,59.66,0,0,0-10.45-29.38C315,380.35,313,378,311.39,375.45Z"/><path class="cls-11" d="M269.53,353.92c9.08-.46,18.15-1.05,27.23-1.53a101,101,0,0,1,15.65-.09,60.54,60.54,0,0,1,12.76,2.7A28.16,28.16,0,0,1,336,361.22c2.89,2.81,5.69,5.72,8.57,8.55,6.12,6,12.42,12.15,17.16,19.37a40.28,40.28,0,0,1,3.19,5.75,7.57,7.57,0,0,1,.91,2.49,6.09,6.09,0,0,1-.81,2.36c-.7,1-3-.36-3.87-.88a13.8,13.8,0,0,1-4.42-4.28,1.39,1.39,0,0,0-2.39,1.41c1.78,3.06,5.49,6.09,9,6.72,1.87.34,3.55-.18,4.25-2,.62-1.66,1.25-3.08.63-4.82-3-8.48-9.47-15.53-15.61-21.89-3.26-3.38-6.64-6.63-10-9.94-3.13-3.1-6-6.39-9.86-8.63a43.41,43.41,0,0,0-13.17-4.71,68,68,0,0,0-15.78-1.38c-11.45.33-22.87,1.28-34.31,1.86-1.77.09-1.78,2.86,0,2.77Z"/><path class="cls-11" d="M335.38,371.93c3.3,4.16,7,8,10.52,12,3.77,4.28,7.91,8.87,9.07,14.61a76,76,0,0,1,1,10.23c.22,3.45.41,6.9.55,10.35.07,1.64.13,3.29.18,4.93.05,1.45.27,3.19-.4,4.53-1,2.07-4,1.48-5.43.27-1.67-1.36-2.26-4.07-2.81-6a39.37,39.37,0,0,1-1.36-6.8c-.16-1.76-2.93-1.78-2.77,0a41.13,41.13,0,0,0,1.37,7.21,19.92,19.92,0,0,0,2.62,6.5,7.47,7.47,0,0,0,6.57,3c2.93-.29,4.66-2.54,5-5.35a36.8,36.8,0,0,0,0-5.25q-.12-3.21-.27-6.41-.3-5.92-.74-11.82c-.27-3.58-.64-7.14-2.16-10.44a39.7,39.7,0,0,0-5.65-8.27c-4.23-5.2-9.05-9.88-13.22-15.14-1.1-1.39-3.06.58-2,2Z"/><path class="cls-11" d="M326.6,375.2c3,5.61,7.94,9.78,11.1,15.26A46.32,46.32,0,0,1,343,407.61a119.44,119.44,0,0,1,.89,18.62c-.07,2.48-1.09,6.76-4.5,6.09-3.14-.61-4.18-4.38-5-7A196.25,196.25,0,0,1,328.78,402c-.31-1.75-3-1-2.67.74a196.68,196.68,0,0,0,5.61,23.31c1,3.14,2.14,6.61,5.23,8.27a6,6,0,0,0,7.72-1.58c2.21-2.76,2-6.41,2-9.75s-.14-7-.39-10.43c-.48-6.65-1.54-13.34-4.18-19.51a41.2,41.2,0,0,0-6-9.75c-2.5-3.07-5.18-6-7.05-9.52-.83-1.58-3.23-.18-2.39,1.4Z"/><path class="cls-11" d="M309.35,375.3l9.46,14.42c2.75,4.19,5.68,8.45,7.1,13.31,1.5,5.16.64,10.35-1.16,15.31-.92,2.5-2,4.92-3.19,7.31-.9,1.87-2.05,4.71-4.54,3.05-3.92-2.62-3.32-8.61-2.88-12.62a31.45,31.45,0,0,0,.19-8.05,20.32,20.32,0,0,0-2.61-7,123.56,123.56,0,0,0-8.44-12.48q-4.47-6-9.39-11.71-5.59-6.44-11.75-12.35-3-2.88-6.11-5.63c-1.1-1-2.2-1.91-3.32-2.85-.59-.49-2.55-1.83-2-2.74,1-1.51-1.44-2.9-2.39-1.4-1.41,2.21.41,4.42,2.08,5.82,2.11,1.79,4.21,3.6,6.25,5.47q6.13,5.61,11.76,11.73a175.85,175.85,0,0,1,20,26,20.32,20.32,0,0,1,3.2,7.65c.42,3-.13,6-.41,8.95-.44,4.55-.12,10.06,3.78,13.15,1.91,1.51,4.5,1.94,6.46.27s2.71-4.25,3.68-6.37c2.37-5.17,4.5-10.7,4.35-16.49-.15-6.15-3.08-11.66-6.32-16.72-3.74-5.85-7.61-11.62-11.42-17.43-1-1.49-3.38-.1-2.4,1.4Z"/><path class="cls-11" d="M305.53,368.48l-4.26-4.27a1.39,1.39,0,1,0-2,2l4.26,4.26a1.39,1.39,0,0,0,2-2Z"/><path class="cls-11" d="M325.07,366.25l-6.62-5a1.38,1.38,0,0,0-1.89.5,1.43,1.43,0,0,0,.49,1.9l6.62,5a1.39,1.39,0,0,0,1.9-.5,1.43,1.43,0,0,0-.5-1.9Z"/><path class="cls-19" d="M353.69,124c-1.49-7.1-7.52-17.8-10.82-24.27-3.51-6.89,20.33-20.59,14.7-25.77C367.7,79,394,94.84,402.9,129.48c2.32,9-6.8,17.67-20.27,30.08a69.88,69.88,0,0,0-10,10.87c1.35-6.3-15.77-3.91-14.43-10.21C360.86,147.62,356.34,136.64,353.69,124Z"/><path class="cls-20" d="M308.62,102.48s-1.32-8.45-17.68-3.7S164.23,141,164.23,141"/><path class="cls-21" d="M164.23,146s20.28-6.18,19-11.43-20.65,1.74-20.65,1.74Z"/><path class="cls-22" d="M167.13,131.44c-2.8,1.3-6.39,8.49-3.57,18.35,3.7,12.9,8.38,17.33,14.86,17.54,5.91.2,10.09-4.46,13.18-11.92,3.77-9.12,6.21-20-5.95-23C174.56,129.74,170.8,129.74,167.13,131.44Z"/><path class="cls-20" d="M167.13,131.44c-2.8,1.3-6.39,8.49-3.57,18.35,3.7,12.9,8.38,17.33,14.86,17.54,5.91.2,10.09-4.46,13.18-11.92,3.77-9.12,6.21-20-5.95-23C174.56,129.74,170.8,129.74,167.13,131.44Z"/><path class="cls-23" d="M262.43,246.42c24.57-2.85,39.05-18.26,57.9-34.28,14.46-12.3,30.39-41.19,36.52-59.1,1.65,6.58,5.52,39.22,5.18,46-5.27,14-14.76,33.57-30.42,44.22-22.08,15-36.09,29.55-74.63,27.83-23.44-1-28.26-9.67-28.84-18.4C236.43,249.84,251.62,247.67,262.43,246.42Z"/><path class="cls-9" d="M255.69,220.88A115.48,115.48,0,0,0,302.9,209.3c7.32-3.57,14.33-8,20-13.83A40.39,40.39,0,0,0,334,173.92c-8.28,16.05-22.87,26.31-38.92,32.14-8,2.91-16.25,6.3-24.67,7.65s-23.44.63-31.88-.27c-27.95-2.95-51.89-15.37-69.71-37,.36-.7.84-9.36,1.43-10s1.74-1.75,3-2.88c18.2.13,39.41,6,61.71,8,32.48,2.92,54.56-1,84.65-13.52,4.66-2,13.73-8.7,18.75-9.18s23.64-11.53,27.17-7.92c2.63,2.69-6.46,34-5.53,37.68,0,.1,0,.2.07.29a107,107,0,0,1-31.89,46.37c-18.85,16-42.82,25.59-67.39,28.44a106.59,106.59,0,0,1-32.68-1c-.37-5.61,1-11.27.32-15-1.51-8-3.11-15-6.12-19.28l2.44.32C235,220.05,245.36,221.16,255.69,220.88Z"/><path class="cls-23" d="M220.55,216.39c-4.22-3.78-17.16-2.06-33.79-18-15-14.36-21.31-23.48-17.93-30,17.82,21.65,44.1,36.44,72,39.39a96.44,96.44,0,0,0,25.4-.56,135.44,135.44,0,0,0,24.62-6.83c16-5.83,32.1-13.47,43.11-26.52a40.39,40.39,0,0,1-11.12,21.55c-5.66,5.86-12.67,10.26-20,13.83a115.48,115.48,0,0,1-47.21,11.58c-10.33.28-20.65-.83-30.91-2.12l-2.44-.32A12.36,12.36,0,0,0,220.55,216.39Z"/><path class="cls-3" d="M360.1,178.86a94.73,94.73,0,0,0,4.11-16.72,94.73,94.73,0,0,1-4.11,16.72c0-.09,0-.19-.07-.29-.93-3.64-2.23-7.34-4.86-10-3.53-3.61-9-4.82-14-4.34s-9.77,2.42-14.43,4.36c-30.09,12.56-61.54,25.94-94,23-22.29-2-43.48-12.41-59.46-28,9.78-8.65,34.05-26.44,37.48-30.41,3.88-4.5,13.06-17.4,17.31-22.08s22.82-23.89,39.19-31.29,48.16-22.87,86.25-7.57c0,0,1.53.56,4.06,1.8,5.63,5.18,10,12.05,13.47,18.94a82.34,82.34,0,0,1,7.66,20.31c2.64,12.61.85,25.72-1.83,38.31-1.35,6.31-2.92,12.58-4.27,18.88-3.62,5.19-4.19,9.06-6.09,15.24-.87,2.84-2.32,7.63-4.48,13.37A69.21,69.21,0,0,0,360.1,178.86Z"/><path class="cls-21" d="M307.42,207.33l-2.38,8c-.38,1.31-.73,2.65-1.16,3.95-.18.53-.25.88-.86.72a5.83,5.83,0,0,1-1.46-.77c-3.5-2.12-6.26-5.26-10.55-5.68a1.4,1.4,0,0,0-1.39,1.38,64.25,64.25,0,0,1-3.87,18.69l2.32-.61-16.62-15a1.41,1.41,0,0,0-2.18.28C266,225.73,266,234,263,241.48l2.53-.33-10.33-19.94a1.4,1.4,0,0,0-2.4,0c-3.51,7.1-7.34,14-11.15,21l1.9-.5c-.68-.51-.92-1.71-1.2-2.46s-.65-1.73-1-2.6q-1.12-2.85-2.4-5.66a116.92,116.92,0,0,0-5.65-10.89,1.39,1.39,0,0,0-2.4,1.4,117.12,117.12,0,0,1,6,11.74q1.33,3,2.49,6.1c.67,1.79,1.11,3.57,2.71,4.77a1.4,1.4,0,0,0,1.9-.5c3.81-6.95,7.64-13.89,11.15-21h-2.4l10.34,19.94c.6,1.17,2.12.68,2.53-.33,2.92-7.24,2.84-15.33,6-22.47l-2.18.28,16.62,15a1.41,1.41,0,0,0,2.32-.61,66.63,66.63,0,0,0,4-19.43L291,216.36c2.3.23,4.24,1.74,6,3.09s4,3.38,6.27,3.5c2.86.16,3.39-3.37,4-5.42l2.79-9.46a1.39,1.39,0,0,0-2.67-.74Z"/><path class="cls-4" d="M404,134.73c-4.55-26-24.54-52.13-52.52-63.38s-64.69-5.67-94.72,14.81-34.48,34.05-44.91,45.77-39.81,26.25-43.5,38.21,35,58.22,97.76,49.68,68.3-44.71,68.3-44.71"/><path class="cls-4" d="M220.55,216.39s7.27,7.86,8,22.89-3.23,32.55,30.82,31.78,65-16.91,82.3-38.29,22.93-37.35,26.87-55.66"/><path class="cls-11" d="M333,176.17a108.21,108.21,0,0,1-25.47,41.07,84.85,84.85,0,0,1-43.68,23.32,72.11,72.11,0,0,1-28.53-.23c-1.74-.37-2.49,2.3-.74,2.68,17.29,3.71,35.44.82,51.26-6.88,15.3-7.45,28-19.53,37.3-33.69a117,117,0,0,0,12.53-25.53c.59-1.69-2.09-2.41-2.67-.74Z"/><path class="cls-11" d="M226.87,219.81a47.6,47.6,0,0,1,5.59,20.94c0,1.78,2.83,1.79,2.77,0a50.85,50.85,0,0,0-6-22.34c-.84-1.58-3.24-.18-2.4,1.4Z"/><path class="cls-11" d="M327.29,177c1.59-.54,2.86-1.66,4.41-2.28a3,3,0,0,1,3.44.89,11.16,11.16,0,0,1,2.38,4.3,19,19,0,0,1,1,5.78,1.39,1.39,0,0,0,2.77,0,21.16,21.16,0,0,0-1.2-6.86A13.66,13.66,0,0,0,337,173.5a5.76,5.76,0,0,0-5.45-1.64c-1.83.46-3.2,1.85-5,2.45s-1,3.25.74,2.67Z"/><path class="cls-11" d="M201.39,181.68c.16-.37,0,0,0,.08l-.17.31a6.89,6.89,0,0,1-.4.64l-.11.15c-.1.15.17-.21.06-.07l-.23.27a6.88,6.88,0,0,1-.54.54l-.27.24-.13.11s.26-.19.06-.06a6.16,6.16,0,0,1-.63.41l-.31.17c-.27.14.3-.09,0,0a1.09,1.09,0,0,1-.24.07l-.15,0c.27-.1.27,0,.09,0a.87.87,0,0,1-.28,0s.38.1.17,0c0,0-.11,0-.12,0s.35.17.17.06c0,0,.28.24.13.1s-.12-.19.11.14c-.11-.17,0,.16.05.21v.09c0-.12,0-.12,0,0s0,0,0,0a.82.82,0,0,1,.06-.19s-.11.24,0,.06a6.61,6.61,0,0,1,.39-.68c.06-.1.13-.19.19-.28s.08,0-.06.07c0,0,.09-.11.11-.13a5.68,5.68,0,0,1,.47-.51c.16-.16.33-.32.51-.47a.57.57,0,0,0,.13-.1c-.09.15-.2.14-.07.06l.35-.25a6.52,6.52,0,0,1,.68-.38l.35-.17-.09,0,.2-.07a6.29,6.29,0,0,1,.74-.22l.42-.09.17,0-.19,0,.17,0-1.39-1.39v.25a.62.62,0,0,0,0,.13c0,.11,0,.06,0-.16a2.46,2.46,0,0,0-.1.41,2.25,2.25,0,0,1-.08.24c-.09.27.15-.28,0,0s-.14.28-.22.41-.12.12-.12.17c.12-.16.15-.2.08-.12a.39.39,0,0,1-.08.1,3.34,3.34,0,0,1-.33.32c-.17.15-.05,0,0,0-.06,0-.14.1-.21.14a3.68,3.68,0,0,1-.44.23,1.37,1.37,0,0,0-.64.83,1.43,1.43,0,0,0,.14,1.07,1.4,1.4,0,0,0,.83.64,1.65,1.65,0,0,0,1.07-.14,5,5,0,0,0,2.81-4.46,1.41,1.41,0,0,0-1.39-1.39,8.75,8.75,0,0,0-6.53,4,3.76,3.76,0,0,0-.73,2.25,2.25,2.25,0,0,0,1.68,2,4.37,4.37,0,0,0,3.63-1,9,9,0,0,0,2.9-3.76,1.38,1.38,0,0,0-.14-1.07,1.44,1.44,0,0,0-.83-.64,1.42,1.42,0,0,0-1.07.14,1.65,1.65,0,0,0-.64.83Z"/><path class="cls-24" d="M329,139.46a22.65,22.65,0,0,1,.36,4.07c0,10.72-7.28,19.41-16.26,19.41-6.71,0-12.47-4.86-15-11.79A46.3,46.3,0,0,0,329,139.46Z"/><ellipse class="cls-21" cx="317.16" cy="147.49" rx="5.81" ry="8.18"/><ellipse class="cls-24" cx="314.76" cy="154.24" rx="2.4" ry="2.74"/><path class="cls-3" d="M313.1,124.13c7.81,0,14.33,6.57,15.9,15.33a46.3,46.3,0,0,1-30.85,11.69,22.53,22.53,0,0,1-1.3-7.62C296.85,132.82,304.13,124.13,313.1,124.13Z"/><path class="cls-4" d="M327.06,153.49a22.2,22.2,0,0,0,2.3-10,22.81,22.81,0,0,0-1.07-6.94"/><path class="cls-4" d="M324.39,129.57a14.94,14.94,0,0,0-11.29-5.44c-9,0-16.25,8.69-16.25,19.4,0,7.19,3.27,13.46,8.13,16.81"/><path class="cls-11" d="M327.93,138.31c-7.6,7.72-19.13,11.63-29.84,11.28-1.79-.05-1.79,2.72,0,2.78,11.42.36,23.71-3.88,31.8-12.09,1.26-1.28-.7-3.24-2-2Z"/><path class="cls-25" d="M321.71,105.12c-2-3.72-2.62-1.58-9.82-1.31s-12.56-2.66-16-7.89-8.52-.37-9.54,4.13,2.87,17.31,18.71,14.82S322.78,107.15,321.71,105.12Z"/><path class="cls-20" d="M321.71,105.12c-2-3.72-2.62-1.58-9.82-1.31s-12.56-2.66-16-7.89-8.52-.37-9.54,4.13,2.87,17.31,18.71,14.82S322.78,107.15,321.71,105.12Z"/><path class="cls-26" d="M255.39,148.67c4.31,2.65,13,7.39,12.71,23.23S262,195.39,252,196.18s-21.1-.72-32.47-19.8c-7.65-12.84-19.26-39.26,0-36.88S249.72,145.18,255.39,148.67Z"/><path class="cls-20" d="M412.49,126.82s-1.32-8.44-17.69-3.69-126.7,42.23-126.7,42.23"/><path class="cls-20" d="M255.39,148.67c4.31,2.65,13,7.39,12.71,23.23S262,195.39,252,196.18s-21.1-.72-32.47-19.8c-7.65-12.84-19.26-39.26,0-36.88S249.72,145.18,255.39,148.67Z"/><path class="cls-21" d="M268.1,170.37s20.27-6.18,19-11.43-20.66,1.73-20.66,1.73Z"/><path class="cls-21" d="M212.07,140.35a24.42,24.42,0,0,0-3.88-3.06,12.63,12.63,0,0,0-6.06-1.68c-3.21-.1-6.39.36-8.68,2.76-1.23,1.29.73,3.25,2,2a4.79,4.79,0,0,1,1.77-1.33,12.38,12.38,0,0,1,4.95-.62c3.3.1,5.63,1.82,8,3.93,1.32,1.19,3.29-.76,2-2Z"/><path class="cls-21" d="M209.93,150.41a20.28,20.28,0,0,0-15.5-5.48,1.43,1.43,0,0,0-1.39,1.39,1.39,1.39,0,0,0,1.39,1.38A17.59,17.59,0,0,1,208,152.37c1.3,1.22,3.26-.74,2-2Z"/></g></svg>