<svg xmlns="http://www.w3.org/2000/svg" xmlns:xlink="http://www.w3.org/1999/xlink" viewBox="0 0 600 600"><defs><style>.cls-1{fill:#bf66ff;}.cls-2{fill:#38acc6;}.cls-3{fill:#f1f3f3;}.cls-4{fill:#474d9e;}.cls-5{fill:#606060;}.cls-6{fill:#c18d48;}.cls-7{fill:#282828;}.cls-8{fill:#996c36;}.cls-11,.cls-16,.cls-19,.cls-20,.cls-21,.cls-22,.cls-24,.cls-9{fill:none;}.cls-9{stroke:#030304;}.cls-11,.cls-16,.cls-20,.cls-21,.cls-22,.cls-9{stroke-linecap:round;stroke-linejoin:round;}.cls-16,.cls-21,.cls-9{stroke-width:2.77px;}.cls-10{fill:#293077;}.cls-11,.cls-16{stroke:#1b5186;}.cls-11,.cls-22{stroke-width:3.33px;}.cls-12{fill:#dedbe1;}.cls-13{fill:#f2f3f2;}.cls-14{fill:#1d1d1b;}.cls-15{fill:#6fb7d6;}.cls-17{fill:#007fcc;}.cls-18{fill:#1b5186;}.cls-19{stroke:#6fb7d6;stroke-width:0.56px;}.cls-19,.cls-24{stroke-miterlimit:10;}.cls-20,.cls-21,.cls-22,.cls-24{stroke:#1d1d1b;}.cls-20,.cls-24{stroke-width:2.22px;}.cls-23{fill:url(#Degradado_sin_nombre_19);}.cls-25{fill:url(#Degradado_sin_nombre_19-2);}.cls-26{fill:#3c3c3b;}</style><linearGradient id="Degradado_sin_nombre_19" x1="9634.99" y1="160.42" x2="9634.99" y2="129.35" gradientTransform="matrix(-1, 0, 0, 1, 9851.38, 0)" gradientUnits="userSpaceOnUse"><stop offset="0" stop-color="#4baef9"/><stop offset="1" stop-color="#fbe05d"/></linearGradient><linearGradient id="Degradado_sin_nombre_19-2" x1="285.49" y1="165.25" x2="285.49" y2="130.97" gradientTransform="matrix(1, 0, 0, 1, 0, 0)" xlink:href="#Degradado_sin_nombre_19"/></defs><g id="Capa_3" data-name="Capa 3"><g id="a"><rect class="cls-1" width="600" height="600"/></g></g><g id="Capa_2" data-name="Capa 2"><path class="cls-2" d="M201.29,212s29.13,79.68,74.09,83.74,92-57.69,95.12-65.8S368,202.39,368,202.39s-5.13-62-10.84-99.07c-4.43-28.83-17.47-51.7-65.32-52.67s-62,32.3-63.72,38.09S203.6,204.71,201.29,212Z"/><path class="cls-3" d="M219.35,173.51l15,67.7s18.45,13.44,27.68,26.36,20.56,44,28.46,43.22S332,256.66,332,256.66L345.18,167s-28.94,48.66-59.9,50.57C238.29,220.46,231,192.75,219.35,173.51Z"/><path class="cls-4" d="M231.61,495.9l2-25.4S253,483.44,285.9,483.44s53.28-14.76,53.28-14.76v26.79s11.31,6.16,22.05,5.3,19.63-2.3,19.63-2.3l-3.58,101.16h-179l-5.95-100.87s5.44,2.58,19.62,1.72S231.61,495.9,231.61,495.9Z"/><path class="cls-5" d="M234.23,470.3S249.05,484,283.45,484s54.31-13.47,54.31-13.47l-1.7-67.66-48.2-6.11-50.35,19.57Z"/><path class="cls-6" d="M237.51,416.32s-2.37,30.78-2.83,38.13-3.39,42.1-3.39,42.1-9.51,5.54-25,4.41-24.44-4.75-24.44-4.75-7.58-30.33-8.94-40.85a134.4,134.4,0,0,1-1-19.69s1.81,2.72,7.8,2.26S237.51,416.32,237.51,416.32Z"/><path class="cls-6" d="M318.51,386.62s-6.09-19.42-5.53-35.86,3.55-23.67,3.55-23.67-36.71,8.22-42.95,11.19S241,352.18,234,357.7,227.38,371,225,373.86s-5.11,3.54-5.82,2.41-2-10.49-2-10.49l1-8.36s-5.38,11.48-11,14-5.67.57-6.1-1.13.57-6.66.57-6.66-4.68,5.81-8.08,3,1.7-11.48,3-14,5-10.77,5-10.77-6.95,1.56-8.08.57,4.39-7.66,4.39-7.66l2.7-2.12s25.08-12.62,32-13.33,4.68-.42,4.68-.42l-11.77-62.51s-17.72-18.14-21-23.81-.7-18.71-.7-18.71l-.57-12.19s-9.92,8.36-12.47,12.47a25.38,25.38,0,0,0-3.26,8.08l-46.64,37.56s-16.3-1.13-24.09,21.69,5.95,61.65,19.13,96.66,32.46,55.28,37.14,58.26,11.76,1.27,14.46.56S284.5,395.69,318.51,386.62Z"/><path class="cls-6" d="M340.62,315.61l12.48-61.38s13.74-12.89,17.15-21.68,1.18-19.17,1.18-19.17l-2-13.31s10.85,7,13.26,10.65,5.53,12.47,5.53,12.47l30.19,19.71a24.37,24.37,0,0,1,24.23,5.1c11.63,10.2,15.45,30.05,8.37,65.06s-23,94.11-23.82,96.09a16.53,16.53,0,0,1-3.26,4.26s-16.15-.43-18.56-.71l-2.41-.29s-2.84,32.32-5.39,44.65-8.36,39.12-8.36,39.12a102.29,102.29,0,0,1-20.41,4.54c-10.21,1-29.34-4-29.34-4l-3.69-93.12-50.31-6.81L318,386.9s-3.83-27.35-4.4-33.31a149.49,149.49,0,0,1-.28-15l.85-1.28,53.29,13.18,5.39-21.4s-7.37-10.77-16.59-13.6S340.62,315.61,340.62,315.61Z"/><path class="cls-5" d="M281.49,283.36s-6.68-16.89-32.07-30.62-46.07-39.29-46.07-39.29-.27,13.27,2.26,19.69,20.24,25.11,20.24,25.11L233.34,294l3,24.66a236.1,236.1,0,0,1,23.31,8,205.89,205.89,0,0,1,20,10.39l7.32-1.27,31.89-10.11s10.2-7.5,13.37-8.58a92.43,92.43,0,0,1,9-2.26L352,254.64s15.17-15.36,17.79-22.95A40.91,40.91,0,0,0,372,217.6S317.17,257.71,307.05,267s-20.77,38.57-20.77,38.57Z"/><path class="cls-7" d="M235.44,437.12s18.05-10.36,50.16-10.36,51.28,13.14,51.28,13.14l-1.08-36.27-46.68-6.95-52.84,21.19Z"/><path class="cls-7" d="M226.51,259.91l7.33,38.27s-1.24-12.67,21.87-13.54,29.57,16,29.57,16-2-13.54-2.61-14.78-8.82-11.68-22.11-17.4-18.89,4.35-19.26,5.35-2.24,4.47-2.24,4.47S235.33,266.25,226.51,259.91Z"/><path class="cls-7" d="M286.28,302.53s-1.49-15.29,18.14-27.71,24.85-7.46,27.21-5.22,4.35,8.82,4.35,8.82l15.41-22.49-7.21,34.17s-3.11-5.84-21.87-7.2S286.28,302.53,286.28,302.53Z"/><path class="cls-8" d="M218,291.23A269.19,269.19,0,0,0,200.25,266s-7.31-27.07-5-40.25,8.88-14.32,8.88-14.32L204,200.14s-15,11.17-19.05,30.65,9.65,49.48,9.65,49.48L210.42,295s-2.87,14.47-4.73,22.92-2.86,12.6-2.86,12.6L212,326.6s1.72-11.74,3.3-16,9.45,0,9.45,0S225.31,303.4,218,291.23Z"/><path class="cls-8" d="M151.2,261.84s-15.12,6.68-18.07,28.67,37.11,106.6,45,118.19,44,1,72.84-9.62,66.95-17.87,66.95-17.87l.39,4.71S279,398.1,249,411.25s-64.59,29.06-72.25,25.92-26.51-20.82-42.8-65.58S110.16,294.82,118.8,276,151.2,261.84,151.2,261.84Z"/><path class="cls-8" d="M194.78,279.91c-.47-.71-11.21-20.32-10.86-35.38s1.29-20.08,1.29-20.08l-44.83,35.49s5.6.7,8.4.94a14.59,14.59,0,0,1,4.56,1.05s8.4-5.84,14.59-9.46,16,18.45,18.21,29.3l14.48,49.85,2.21-1.15s5.84-27.68,6-30.25.46-6.54.46-6.54S195.25,280.61,194.78,279.91Z"/><path class="cls-8" d="M358.5,291.23A267.12,267.12,0,0,1,376.26,266s7.3-27.07,5-40.25-8.88-14.32-8.88-14.32L370,200.11s17.53,11.2,21.54,30.68-9.64,49.48-9.64,49.48l-12.18,11.84s-.81,17.31,1.05,25.76,2.87,12.6,2.87,12.6l-9.17-3.87s-1.72-11.74-3.29-16-9.45,0-9.45,0S351.19,303.4,358.5,291.23Z"/><path class="cls-8" d="M389.72,223.19l26.86,19.49a69.16,69.16,0,0,0-23.79,29.63c-8.14,19.65-20.27,55.11-20.27,55.11l-6-7.37-2.31-24.56L383,279.37s9.37-17,10-34.54S389.72,223.19,389.72,223.19Z"/><path class="cls-9" d="M369.34,200.11s16.65,5.83,21.53,30.68-11.05,55.44-11.05,55.44-20.33,5.21-28.76,24.33"/><path class="cls-8" d="M193.54,433.42c-14,5-17.52,5.4-20.69,1.86v13.05s38.4,6.89,61.88-10.07l1.65-21.74S207.52,428.38,193.54,433.42Z"/><path class="cls-10" d="M193.79,515.7s26.24,4.74,44-3.71l2.67-15s32,8,86.89.15l1.49,13.64s22.83,7.26,51.15.29l.45-11.71s-5,2.22-20,.89-21.5-5-21.5-5l-.74-24.76s-20.17,12.9-50.71,12.9a116.12,116.12,0,0,1-54-13.94l-2.23,27.11s-12,3.43-21.34,3.58a166.47,166.47,0,0,1-16.91-.59Z"/><path class="cls-8" d="M336.06,402.86l1,19.19S358.68,437,401,429.31l2-16.9Z"/><path class="cls-8" d="M312.64,388.68s93.57,11.75,96.74,12.3,18.45-46.41,30.56-91.7-2.42-75.67-30-61.5c0,0,5.6-10.26,25-5.41s19,33.36,17,60.39-25.72,108.85-27,110-7.83,1.67-20.69-.38-116.3-15.6-116.3-15.6Z"/><path class="cls-11" d="M224.05,106.49,230.42,83s12.4-37.31,66-32.49c50,4.5,60.92,30.57,62.66,66.65s11.38,101.1,11.38,101.1"/><path class="cls-12" d="M244.58,249.19l-4.31-43.82a59.91,59.91,0,0,0,38.55,13.21c29.27-.58,54.2-29.81,54.2-29.81l-8.83,66s-25.69,20.42-28.05,23.85-9,21.27-9,21.27a151,151,0,0,0-12-26.21c-8.16-14.18-30.5-24.49-30.5-24.49"/><path class="cls-3" d="M214.12,155.49s4.65-8.68,9.14-12.64,13.87-3.39,20.07,1.09,11.87,4,23.58,0,35.65,15.4,59.76-.82S355,155.17,341,175s-35.32,46.65-72.91,43.17S214.92,172.67,214.12,155.49Z"/><path class="cls-13" d="M234.73,119.67a16.3,16.3,0,0,1-.34,2.83c-1.53,7.3-7.73,12.17-13.85,10.88-4.57-1-7.79-5.09-8.49-10.16C208.66,110.57,231.22,94.59,234.73,119.67Z"/><ellipse class="cls-14" cx="224.62" cy="121.62" rx="5.16" ry="3.66" transform="translate(59.36 316.38) rotate(-78.12)"/><ellipse class="cls-13" cx="222.26" cy="125.47" rx="1.73" ry="1.52" transform="translate(53.72 317.14) rotate(-78.12)"/><path class="cls-15" d="M227,106.72a13.3,13.3,0,0,1,8.18,12.12l-22.66-3.27S217.51,104.6,227,106.72Z"/><path class="cls-16" d="M231.4,129a15.43,15.43,0,0,0,3-6.45,15.91,15.91,0,0,0,.27-4.88"/><path class="cls-16" d="M233,112.28A10.42,10.42,0,0,0,226.1,107c-6.11-1.29-12.31,3.58-13.85,10.88a14.13,14.13,0,0,0,3.13,12.61"/><line class="cls-16" x1="234.71" y1="118.19" x2="212.69" y2="116.21"/><path class="cls-2" d="M368.11,350.27h-3.22L314.72,337.6s-1.82-12.57,11.5-17.3,23.52-6.44,34.26-2.58a17.32,17.32,0,0,1,11.71,13.65Z"/><path class="cls-17" d="M315.26,333s27.61-12.89,55.32.86L368,349.3l-7.84-.21-46-11.8Z"/><path class="cls-9" d="M200.47,336.1s6.76-15.2,9.46-41.51"/><path class="cls-9" d="M201.46,334.38s-7.87-29-12.55-44.51S173.17,267,167,266.26"/><line class="cls-9" x1="138.62" y1="260.45" x2="187.25" y2="221.82"/><path class="cls-13" d="M335.72,118a16.48,16.48,0,0,1,.25,2.84c0,7.45-5.06,13.5-11.31,13.5-4.67,0-8.68-3.38-10.41-8.2C308.34,114.47,327.12,94.19,335.72,118Z"/><ellipse class="cls-14" cx="326.22" cy="122" rx="3.66" ry="5.16"/><ellipse class="cls-13" cx="324.71" cy="126.25" rx="1.52" ry="1.73"/><path class="cls-15" d="M325.47,106.93A13.31,13.31,0,0,1,336,117.11l-22.85,1.47S315.76,106.81,325.47,106.93Z"/><path class="cls-16" d="M334.37,127.78a15.88,15.88,0,0,0,.85-11.77"/><path class="cls-16" d="M332.51,111.13a10.4,10.4,0,0,0-7.85-3.78c-6.25,0-11.32,6-11.32,13.5A14.14,14.14,0,0,0,319,132.54"/><line class="cls-16" x1="335.39" y1="116.57" x2="313.43" y2="119.16"/><path class="cls-18" d="M207,201.09l14.33,14S208.84,213.05,207,201.09Z"/><path class="cls-18" d="M208.93,190.51l14.33,14S210.82,202.47,208.93,190.51Z"/><path class="cls-18" d="M210.79,179.44l14.33,14S212.68,191.4,210.79,179.44Z"/><path class="cls-18" d="M365.77,201.09l-14.33,14S363.88,213.05,365.77,201.09Z"/><path class="cls-18" d="M363.79,190.51l-14.33,14S361.9,202.47,363.79,190.51Z"/><path class="cls-18" d="M361.93,179.44l-14.33,14S360,191.4,361.93,179.44Z"/><path class="cls-9" d="M236.26,318.8s-4.54-33.36-10.69-60.65"/><path class="cls-9" d="M341,315.79s4.53-31.83,10.68-59.13"/><line class="cls-9" x1="390.37" y1="224.36" x2="418.06" y2="242.1"/><path class="cls-9" d="M402.71,256.93s8.14-19.49,28.38-14.8,27.14,24.92,19.74,70.33-25.42,100.2-25.42,100.2.25,1.72-9.62,1c-6.2-.46-127.59-16.78-127.59-16.78"/><path class="cls-11" d="M316.76,327.56s9.45-11.28,29-12.34,26.47,13.89,26.47,13.89"/><line class="cls-9" x1="314.47" y1="338.08" x2="368.74" y2="350.73"/><path class="cls-9" d="M367.14,351.13s8.91-4.12,31.86-.42"/><path class="cls-9" d="M367.42,351.21s9.13-47.14,28.13-84.9"/><path class="cls-9" d="M233.58,470.5s43.61,30.17,103.94,0"/><line class="cls-9" x1="286.08" y1="483.45" x2="286.08" y2="397.36"/><path class="cls-9" d="M171.7,435.21s1,36.64,9.83,60.75c0,0,22.14,10.32,50.17.49l4.68-79.93"/><path class="cls-9" d="M402.26,413.52s-4.48,58.33-13.34,82.44c0,0-22.13,10.32-50.17.49l-3.08-93"/><line class="cls-9" x1="210.02" y1="466.46" x2="218.93" y2="461.72"/><line class="cls-9" x1="324.53" y1="446.4" x2="332.33" y2="441.1"/><line class="cls-9" x1="325.64" y1="437.48" x2="330.94" y2="431.63"/><line class="cls-9" x1="192.47" y1="499.33" x2="197.86" y2="598.87"/><line class="cls-9" x1="282.46" y1="501.01" x2="282.46" y2="558.68"/><path class="cls-9" d="M293.32,500.17v47.57s-4.7,7.42-8.93,10.2-4.09,41.69-4.09,41.69"/><line class="cls-9" x1="380.53" y1="499.06" x2="377.74" y2="598.52"/><path class="cls-9" d="M203.25,213.3s10.51,16.18,32.53,30.36,46.54,23.72,50.38,59.24v31.15"/><path class="cls-9" d="M224.74,310.56C216.31,291.44,196,286.23,196,286.23s-15.94-30.6-11.06-55.44S204,200.14,204,200.14"/><path class="cls-9" d="M286.33,304.05s4-26,33.2-46a591.91,591.91,0,0,0,52.55-40.83"/><path class="cls-9" d="M203.18,213.38s-6.15,13.28,11.06,31.23,25.33,33.94,25.33,33.94,1-8.61,8.61-11.31,22.77,6.34,30.64,14.46"/><path class="cls-9" d="M372.51,216.53s3.12,12.47-11.28,28.08c-16.86,18.29-25.33,33.94-25.33,33.94s-1-8.61-8.61-11.31-21.25,5-29.12,13.12"/><path class="cls-9" d="M157.4,263.6a27.7,27.7,0,0,0-29.86,1.73c-25.82,18.32-7.24,74,8.5,112.33s33.94,59.27,41.07,60.26,33.69-10.33,60.5-21.89,62.95-25.19,80.66-29.13c0,0-9.67-35.23-1.94-60.37,0,0-30.27,5.88-67.41,22.11"/><path class="cls-19" d="M202.63,361.9a15.91,15.91,0,0,0,1-2S203.19,360.71,202.63,361.9Z"/><path class="cls-17" d="M224,327.56c0-3.47-13.34,1.63-18.69,4.9-4.43,2.71-10.46,5.86-12,9.73.54.66,2.32.61,6.6-.64a45.42,45.42,0,0,1,8.38-5.68C213.53,333.13,219.4,331.36,224,327.56Z"/><path class="cls-2" d="M233,358.33c7.54-6.06,17.38-12,25.83-16.71,4.61-2.56,11-4.86,14.47-8.83-10.74-5.68-33.84-16.65-43.22-13-13.89,5.35-34.6,12.76-35.57,17.08-.51,2.28-2,4.46-1.25,5.36q6.73-3.9,13.39-8c5.35-3.27,11-6.74,17.31-6.67-4.57,3.8-10.44,5.57-15.72,8.31a45.42,45.42,0,0,0-8.38,5.68c.85-.25,1.8-.54,2.86-.88a66.44,66.44,0,0,0-8.33,15.84c-1.46,4.32-2.45,7.14-2.38,8.83.48-.49,3.19,2.52,3.6,2,2.27-2.91,3.93-6,6-9.1,6.66-10.12,15.82-19.52,26.81-24.61-3.19,4.41-9.27,5.47-13.66,8.69-4.16,3.05-6.58,7.88-8.67,12.6q-2.91,6.63-5.33,13.47c-.13.36-.26.73-.38,1.1,0,1.93.73,3.41,3.06,3.53a5,5,0,0,0,1.08-.08c.72-1.21,4.94-3.75,5.43-5.06,1.31-3.49,3.66-4.94,5.46-8.2,2.46-4.47,4.42-7.1,8.54-10.11,3.52-2.58,6.23-5.37,9.89-7.75,2.58-1.67,2.1-3.25,4.44-1.26-1.93,1.35-2.07,1.13-4.05,2.41a46.13,46.13,0,0,0-16,18.08c-.9,4-1.83,9.69-.83,13,.2-.7,3.13,2.63,3.34,1.94C222.88,368.61,227,363.17,233,358.33Z"/><path class="cls-17" d="M276.89,334.86s-3.47-2.16-8.64-4.89A45.69,45.69,0,0,1,256,339.88c-8.45,4.7-18.4,6.72-25.93,12.78-6,4.84-10,11.91-12.15,19.32-.21.69-.4,1.39-.6,2.09.6,2,1.88,3.13,4.25,2.61,9-2-.45-11.18,13.78-20s17.63-11.11,25.34-14.23S277.56,337.5,276.89,334.86Z"/><path class="cls-17" d="M206.06,354.91c2.09-4.72,4.51-9.55,8.67-12.6,4.39-3.22,10.47-4.28,13.66-8.69-11,5.09-22.56,10.65-29.22,20.77-2,3.08-3.54,6.51-5.81,9.42a17.46,17.46,0,0,1-1.34,1.53c.07,1.59,1.1,2.16,3.6,2,3.36-.23,5.75-3.32,7-5.43.56-1.19,1-2,1-2a15.91,15.91,0,0,1-1,2c-1,2-2.25,5.15-2.28,7.58.12-.37.25-.74.38-1.1Q203.15,361.54,206.06,354.91Z"/><path class="cls-17" d="M240.18,339.2c-2.35-2-5.91-.41-8.5,1.27q-5.49,3.57-10.78,7.43c-4.12,3-8.26,6.28-10.72,10.75-1.8,3.27-2.59,7-3.9,10.47a23.17,23.17,0,0,1-1.79,3.81c6.82-1.24,14.85-16.42,14.85-16.42s-.57,1.89-1.16,4.53a46.13,46.13,0,0,1,16-18.08C236.18,341.68,238.25,340.55,240.18,339.2Z"/><path class="cls-18" d="M277.59,333.66c-7.27-3.37-14.47-6.87-21.76-10.21-7.53-3.46-16.06-6.26-24.48-5.27-3.66.43-6.8,1.94-10.16,3.35-3.2,1.34-6.41,2.64-9.59,4-6.09,2.67-12.46,5.66-17.26,10.38-1.19,1.18-2,2.11-2.13,3.83-.09,1.5-.12,3,1.35,3.79,2.82,1.61,7.51.1,9.87-1.71,1.4-1.06,0-3.47-1.4-2.39a10.85,10.85,0,0,1-3.87,1.7,7.07,7.07,0,0,1-1.83.24,4.43,4.43,0,0,1-.81-.07c-.16,0-.69-.23-.63-.15a6.79,6.79,0,0,0,.08-1.12,1.44,1.44,0,0,1,.48-1.27,25.46,25.46,0,0,1,2.9-2.69c4.79-3.84,10.6-6.42,16.2-8.82,2.77-1.19,5.56-2.31,8.34-3.49,3.06-1.29,6-2.65,9.31-2.93,7.6-.64,15.2,1.76,22,4.88,7.36,3.36,14.63,6.91,22,10.31,1.61.74,3-1.65,1.4-2.4Z"/><path class="cls-18" d="M222.84,327.53c-4.11,2.33-8.47,4.2-12.66,6.39a41.09,41.09,0,0,0-6.52,4,18.44,18.44,0,0,0-4.89,6.22c-2.79,5.34-5.3,10.88-7.69,16.41-1,2.19-1.65,4.77.27,6.67a5.85,5.85,0,0,0,5.5,1.29c2-.54,3.51-2.26,4.77-3.85a34.11,34.11,0,0,0,3.67-5.49c.81-1.58-1.58-3-2.4-1.4a29.18,29.18,0,0,1-2.53,4,15.17,15.17,0,0,1-3.25,3.62c-1.08.74-3.1.88-4-.3-.62-.85-.12-2,.23-2.9.52-1.27,1.1-2.52,1.66-3.77,2.12-4.69,4.18-9.51,6.72-14,2.32-4.08,6.23-6.28,10.28-8.37s8.24-3.91,12.2-6.15a1.39,1.39,0,0,0-1.4-2.4Z"/><path class="cls-18" d="M227.69,332.78a43.12,43.12,0,0,1-7.29,4.46,34.06,34.06,0,0,0-6.58,4.53,42.85,42.85,0,0,0-9,12.53c-1.19,2.33-2.25,4.71-3.28,7.12s-2.52,5.05-2.4,7.75a5.26,5.26,0,0,0,3.92,5.17c2.79.57,5.23-1.09,7-3.09a126.31,126.31,0,0,0,12-16.65c1-1.51-1.45-2.91-2.4-1.4a151.83,151.83,0,0,1-9.35,13.33c-1.42,1.79-3.14,4.66-5.58,5.1-2.68.48-3.14-2.36-2.59-4.33a49.63,49.63,0,0,1,2.78-6.81c.9-2,1.85-4,2.9-6a38.89,38.89,0,0,1,8-10.75c4.14-3.75,9.61-5.42,13.87-9,1.37-1.15-.6-3.1-2-2Z"/><path class="cls-18" d="M240.33,337.63q-6,4.2-12.09,8.4c-3.33,2.32-6.65,4.75-9,8.09s-3.37,7.75-3.51,12c-.07,2.23.05,4.45.2,6.67.12,1.77.29,3.74,1.85,4.86,3.35,2.41,7.42-1.14,9-4,2-3.56,2.06-8,4.41-11.35a18.74,18.74,0,0,1,4.73-4.28c1.83-1.3,3.7-2.54,5.59-3.74q5.77-3.67,11.89-6.81a142.55,142.55,0,0,1,14.24-6.34c2.38-.91,4.78-1.73,7.2-2.54,1.94-.64,3.78-1.81,3.4-4.1-.29-1.76-3-1-2.68.74.08.43-4.39,1.67-4.86,1.83q-2.87,1-5.69,2.13c-3.8,1.51-7.54,3.16-11.2,5A128.16,128.16,0,0,0,233,356.7a16.86,16.86,0,0,0-6.26,8.63c-1,3.16-1.52,7.11-4.31,9.3a4,4,0,0,1-2.31.95c-1,0-1.25-.81-1.38-1.68a46.28,46.28,0,0,1-.29-5.65c-.07-3.83.26-7.81,2.17-11.22,2-3.62,5.49-6.15,8.83-8.49,4.08-2.85,8.17-5.67,12.26-8.51,1.46-1,.07-3.42-1.4-2.4Z"/><path class="cls-18" d="M247.53,338.07l4.3-1.83a1.41,1.41,0,0,0,.64-.83,1.4,1.4,0,0,0-.14-1.06,1.43,1.43,0,0,0-.83-.64l-.37,0a1.32,1.32,0,0,0-.7.19l-4.3,1.83a1.35,1.35,0,0,0-.64.82,1.42,1.42,0,0,0,.14,1.07,1.4,1.4,0,0,0,.83.64l.37.05a1.34,1.34,0,0,0,.7-.19Z"/><path class="cls-18" d="M233.54,331l6.2-1.68a1.39,1.39,0,1,0-.74-2.67l-6.2,1.67a1.41,1.41,0,0,0-1,1.71,1.43,1.43,0,0,0,1.71,1Z"/><line class="cls-20" x1="229.19" y1="170.99" x2="236.06" y2="167.46"/><path class="cls-3" d="M224.49,161.62S244.8,173.27,274,173.88s60.59-20.4,60.59-20.4l3.76-3.15s-22.59,42.2-64.09,44S224.49,161.62,224.49,161.62Z"/><path class="cls-11" d="M214.12,157.71s12.6,55.83,54,60.5S339.4,181.45,345.18,167"/><line class="cls-11" x1="202.25" y1="212.23" x2="219.79" y2="128.35"/><path class="cls-11" d="M245.3,157.71s-7.31-9.29-7.73-18.62c-.39-8.59,11.05-14.28,22.1-20.21"/><path class="cls-20" d="M222,158.81c8.45,4.3,16.24,8.23,16.24,8.23s34.76,16,70.55.21c0,0,20.18-9.79,32.35-19.39"/><path class="cls-20" d="M222,158.81s10.28,32.68,50.94,35.45c37.2,2.53,68.2-46.4,68.2-46.4"/><polyline class="cls-20" points="236.68 167.35 242.17 182.63 251.66 171.83 262.14 192.87 272.58 174.33 283.51 193.25 293.18 172.35 305.31 184.69 310.14 167.98 319.16 174.21 324.53 158.81"/><path class="cls-20" d="M339.12,145.46s5,1.14,3.87,7"/><path class="cls-18" d="M263,143.5,260.32,145a1.39,1.39,0,0,0-.5,1.9,1.37,1.37,0,0,0,.83.64,1.53,1.53,0,0,0,1.07-.14l2.69-1.52a1.39,1.39,0,0,0,.5-1.9,1.4,1.4,0,0,0-.83-.64,1.47,1.47,0,0,0-1.07.14Z"/><path class="cls-14" d="M305.71,136s10.06-1.22,10.43-5.94-9.45-2.73-9.45-2.73Z"/><line class="cls-21" x1="307.72" y1="130.11" x2="356.63" y2="122.75"/><path class="cls-22" d="M234.88,124s18.23-9.46,31.37,0"/><path class="cls-22" d="M234.88,132.7s17.94-13.94,31.37,0"/><path class="cls-23" d="M226.46,118.47c7,1.44,11.51,8.71,10.09,16.14a69.19,69.19,0,0,1-3.45,12.61c-3.79,9.21-22.87,9.07-29.27,3.49-5.29-4.62-7-15.91-7.82-24.18a6.19,6.19,0,0,1,4-6.53A50.7,50.7,0,0,1,226.46,118.47Z"/><path class="cls-24" d="M226.46,118.47c7,1.44,11.51,8.71,10.09,16.14a69.19,69.19,0,0,1-3.45,12.61c-3.79,9.21-22.87,9.07-29.27,3.49-5.29-4.62-7-15.91-7.82-24.18a6.19,6.19,0,0,1,4-6.53A50.7,50.7,0,0,1,226.46,118.47Z"/><path class="cls-25" d="M275.05,119c-7.24,1.59-11.95,9.61-10.48,17.8a79.88,79.88,0,0,0,3.58,13.93c3.94,10.16,23.73,10,30.38,3.85,5.49-5.1,7.28-17.56,8.11-26.69a6.89,6.89,0,0,0-4.15-7.21A49.73,49.73,0,0,0,275.05,119Z"/><path class="cls-24" d="M275.05,119c-7.24,1.59-11.95,9.61-10.48,17.8a79.88,79.88,0,0,0,3.58,13.93c3.94,10.16,23.73,10,30.38,3.85,5.49-5.1,7.28-17.56,8.11-26.69a6.89,6.89,0,0,0-4.15-7.21A49.73,49.73,0,0,0,275.05,119Z"/><path class="cls-26" d="M342.69,97.24c-1.76-3.83-2.53-1.73-9.73-1.87s-10,.72-16.25,1c-7.12.29-8.49-.86-9.76,3.58s2.61,7.68,18.57,6.1S343.64,99.32,342.69,97.24Z"/><path class="cls-21" d="M342.69,97.24c-1.76-3.83-2.53-1.73-9.73-1.87s-10,.72-16.25,1c-8.1.33-9.23,2-9.76,3.58-1.45,4.38,2.61,7.68,18.57,6.1S343.64,99.32,342.69,97.24Z"/><path class="cls-26" d="M204.35,97.24c1.76-3.84,2.52-1.73,9.73-1.87s10,.72,16.25,1c7.12.29,8.49-.86,9.76,3.57s-2.61,7.69-18.57,6.11S203.39,99.32,204.35,97.24Z"/><path class="cls-21" d="M204.35,97.24c1.76-3.84,2.52-1.73,9.73-1.87s10,.72,16.25,1c8.1.33,9.23,2,9.76,3.57,1.45,4.39-2.61,7.69-18.57,6.11S203.39,99.32,204.35,97.24Z"/></g></svg>