<svg xmlns="http://www.w3.org/2000/svg" xmlns:xlink="http://www.w3.org/1999/xlink" viewBox="0 0 600 600"><defs><style>.cls-1{fill:#83c4ff;}.cls-2{fill:#6fb7d6;}.cls-3{fill:#f1f3f3;}.cls-4{fill:#176be5;}.cls-5{fill:#fffffe;}.cls-6{fill:#d7dfe8;}.cls-7{fill:#125bb2;}.cls-13,.cls-16,.cls-17,.cls-18,.cls-19,.cls-21,.cls-8,.cls-9{fill:none;}.cls-8{stroke:#030304;}.cls-13,.cls-17,.cls-18,.cls-19,.cls-8,.cls-9{stroke-linecap:round;stroke-linejoin:round;}.cls-13,.cls-18,.cls-8{stroke-width:2.77px;}.cls-13,.cls-9{stroke:#1b5186;}.cls-19,.cls-9{stroke-width:3.33px;}.cls-10{fill:#dedbe1;}.cls-11{fill:#f2f3f2;}.cls-12{fill:#1d1d1b;}.cls-14{fill:#1b5186;}.cls-15{fill:#0080ca;}.cls-16{stroke:#6fb7d6;stroke-width:0.56px;}.cls-16,.cls-21{stroke-miterlimit:10;}.cls-17,.cls-18,.cls-19,.cls-21{stroke:#1d1d1b;}.cls-17,.cls-21{stroke-width:2.22px;}.cls-20{fill:url(#Degradado_sin_nombre_14);}.cls-22{fill:url(#Degradado_sin_nombre_14-2);}.cls-23{fill:#3c3c3b;}</style><linearGradient id="Degradado_sin_nombre_14" x1="5536.71" y1="163.7" x2="5536.71" y2="132.63" gradientTransform="matrix(-1, 0, 0, 1, 5786.35, 0)" gradientUnits="userSpaceOnUse"><stop offset="0" stop-color="#00f1a5"/><stop offset="1" stop-color="#00b3e1"/></linearGradient><linearGradient id="Degradado_sin_nombre_14-2" x1="318.74" y1="168.53" x2="318.74" y2="134.25" gradientTransform="matrix(1, 0, 0, 1, 0, 0)" xlink:href="#Degradado_sin_nombre_14"/></defs><g id="Capa_3" data-name="Capa 3"><g id="a"><rect class="cls-1" width="600" height="600"/></g></g><g id="Capa_2" data-name="Capa 2"><path class="cls-2" d="M234.53,215.32s29.14,79.68,74.1,83.74,92-57.7,95.12-65.8-2.51-27.59-2.51-27.59-5.14-62-10.84-99.07C386,77.77,372.93,54.9,325.08,53.93s-62,32.3-63.73,38.09S236.85,208,234.53,215.32Z"/><path class="cls-3" d="M252.6,176.79l15,67.7s18.45,13.44,27.68,26.36,20.56,44,28.46,43.22,41.54-54.13,41.54-54.13l13.19-89.67s-28.95,48.66-59.9,50.57C271.54,223.74,264.2,196,252.6,176.79Z"/><path class="cls-4" d="M264.86,499.18l2-25.4s19.38,12.94,52.33,12.94S372.43,472,372.43,472v26.79s11.31,6.15,22.05,5.3,19.62-2.3,19.62-2.3l-3.58,101.16h-179L225.62,502s5.44,2.58,19.62,1.72S264.86,499.18,264.86,499.18Z"/><path class="cls-5" d="M267.48,473.57s14.82,13.7,49.22,13.7S371,473.8,371,473.8l-1.7-67.66L321.11,400,270.76,419.6Z"/><path class="cls-4" d="M270.76,419.6s-2.38,30.78-2.83,38.13-3.39,42.1-3.39,42.1-9.51,5.54-25,4.41-24.44-4.75-24.44-4.75-7.58-30.33-8.94-40.85a133.64,133.64,0,0,1-1-19.69s1.81,2.72,7.81,2.26S270.76,419.6,270.76,419.6Z"/><path class="cls-4" d="M351.76,389.9s-6.09-19.42-5.53-35.86,3.55-23.67,3.55-23.67-36.71,8.22-42.95,11.19-32.6,13.89-39.54,19.42-6.67,13.33-9.08,16.16-5.1,3.54-5.81,2.41-2-10.49-2-10.49l1-8.36s-5.39,11.48-11,14-5.67.57-6.1-1.13.57-6.66.57-6.66-4.68,5.81-8.08,3,1.7-11.48,3-14,5-10.77,5-10.77-6.95,1.56-8.08.56S231,338,231,338l2.69-2.13s25.09-12.61,32-13.32,4.67-.42,4.67-.42l-11.76-62.51s-17.72-18.14-21-23.81-.71-18.71-.71-18.71l-.56-12.19s-9.93,8.36-12.48,12.47a25.67,25.67,0,0,0-3.26,8.08L174,263s-16.3-1.13-24.09,21.69,5.95,61.65,19.13,96.66,32.46,55.28,37.14,58.26,11.76,1.27,14.45.56S317.74,399,351.76,389.9Z"/><path class="cls-4" d="M373.87,318.89l12.47-61.38s13.75-12.89,17.15-21.68,1.19-19.17,1.19-19.17l-2-13.31s10.85,7,13.26,10.65,5.53,12.47,5.53,12.47l30.19,19.71a24.37,24.37,0,0,1,24.23,5.1c11.62,10.2,15.45,30,8.36,65.06s-23,94.11-23.81,96.09a16.4,16.4,0,0,1-3.26,4.25s-16.16-.42-18.56-.7l-2.41-.29s-2.84,32.32-5.39,44.65-8.36,39.12-8.36,39.12A101.86,101.86,0,0,1,402.08,504c-10.21,1-29.34-4-29.34-4l-3.69-93.13-50.31-6.8,32.45-9.92s-3.82-27.36-4.39-33.31a149.49,149.49,0,0,1-.28-15l.85-1.28,53.29,13.18,5.39-21.4s-7.37-10.77-16.59-13.61S373.87,318.89,373.87,318.89Z"/><path class="cls-5" d="M314.74,286.64s-6.69-16.89-32.07-30.62-46.07-39.3-46.07-39.3-.27,13.28,2.26,19.7,20.23,25.11,20.23,25.11l7.5,35.77,3,24.66a234.17,234.17,0,0,1,23.31,8,203.43,203.43,0,0,1,20,10.39l7.32-1.27L352.05,329s10.2-7.5,13.36-8.59,9-2.25,9-2.25l10.75-60.25s15.17-15.36,17.79-23a40.91,40.91,0,0,0,2.26-14.09S350.42,261,340.3,270.29s-20.77,38.57-20.77,38.57Z"/><path class="cls-6" d="M268.69,440.4S286.74,430,318.85,430s51.27,13.14,51.27,13.14l-1.07-36.28L322.37,400l-52.85,21.19Z"/><path class="cls-6" d="M259.76,263.19l7.33,38.27s-1.24-12.68,21.87-13.55,29.57,16,29.57,16-2-13.54-2.61-14.78-8.82-11.68-22.12-17.4-18.88,4.35-19.25,5.34-2.24,4.48-2.24,4.48S268.58,269.53,259.76,263.19Z"/><path class="cls-6" d="M319.53,305.81s-1.5-15.29,18.14-27.71,24.85-7.46,27.21-5.22,4.35,8.82,4.35,8.82l15.4-22.49-7.2,34.17s-3.11-5.84-21.87-7.2S319.53,305.81,319.53,305.81Z"/><path class="cls-7" d="M251.26,294.51A269.19,269.19,0,0,0,233.5,269.3s-7.31-27.07-5-40.25,8.88-14.32,8.88-14.32l-.14-11.32s-15,11.18-19.05,30.65,9.65,49.49,9.65,49.49l15.85,14.68s-2.87,14.47-4.73,22.92-2.87,12.6-2.87,12.6l9.17-3.87s1.72-11.74,3.3-16,9.45,0,9.45,0S258.56,306.68,251.26,294.51Z"/><path class="cls-7" d="M184.44,265.12s-15.11,6.68-18.06,28.66,37.11,106.61,45,118.2,44,1,72.84-9.62,66.95-17.87,66.95-17.87l.39,4.71s-39.26,12.17-69.3,25.33-64.6,29.06-72.25,25.91-26.51-20.81-42.8-65.57-23.76-76.77-15.12-95.61S184.44,265.12,184.44,265.12Z"/><path class="cls-7" d="M228,283.18c-.47-.7-11.21-20.31-10.86-35.37s1.28-20.08,1.28-20.08l-44.82,35.49s5.6.7,8.4.94a14.46,14.46,0,0,1,4.55,1s8.41-5.84,14.6-9.46,16,18.45,18.21,29.3l14.47,49.85,2.21-1.15s5.85-27.68,6-30.25.46-6.54.46-6.54S228.49,283.88,228,283.18Z"/><path class="cls-7" d="M391.75,294.51a267.12,267.12,0,0,1,17.76-25.21s7.3-27.07,5-40.25-8.88-14.32-8.88-14.32l-2.35-11.34s17.53,11.2,21.54,30.67-9.65,49.49-9.65,49.49L403,295.39s-.81,17.31,1.05,25.76,2.87,12.6,2.87,12.6l-9.17-3.87s-1.72-11.74-3.29-16-9.46,0-9.46,0S384.44,306.68,391.75,294.51Z"/><path class="cls-7" d="M423,226.47,449.83,246A69.22,69.22,0,0,0,426,275.59c-8.13,19.65-20.26,55.11-20.26,55.11l-6-7.37-2.31-24.56,18.73-16.12s9.36-17,10-34.54S423,226.47,423,226.47Z"/><path class="cls-8" d="M402.59,203.39s16.65,5.83,21.53,30.67-11.05,55.45-11.05,55.45-20.33,5.21-28.76,24.33"/><path class="cls-7" d="M226.79,436.69c-14,5-17.52,5.41-20.69,1.87v13.05s38.4,6.89,61.88-10.07l1.65-21.74S240.77,431.66,226.79,436.69Z"/><path class="cls-7" d="M227,519s26.25,4.74,44-3.71l2.67-15s32,8,86.89.14l1.48,13.65s22.84,7.26,51.16.29l.44-11.71s-5,2.22-20,.89-21.5-5-21.5-5l-.74-24.77s-20.17,12.9-50.71,12.9a116.18,116.18,0,0,1-54-13.93l-2.23,27.11s-12,3.43-21.34,3.58a166.47,166.47,0,0,1-16.91-.59Z"/><path class="cls-7" d="M369.31,406.14l1,19.19s21.62,14.91,63.93,7.26l2-16.9Z"/><path class="cls-7" d="M345.89,392s93.57,11.74,96.73,12.3,18.46-46.41,30.57-91.7-2.42-75.67-30-61.51c0,0,5.59-10.25,25-5.4s19,33.36,17,60.39-25.72,108.85-27,110-7.82,1.67-20.68-.38S321.11,400,321.11,400Z"/><path class="cls-9" d="M257.3,109.77l6.37-23.54s12.4-37.31,66-32.49c50,4.5,60.92,30.56,62.66,66.65s11.38,101.1,11.38,101.1"/><path class="cls-10" d="M277.83,252.47l-4.31-43.82a59.91,59.91,0,0,0,38.55,13.21c29.27-.58,54.2-29.81,54.2-29.81l-8.83,66s-25.69,20.41-28.05,23.85-9,21.27-9,21.27a151,151,0,0,0-12-26.21c-8.16-14.18-30.5-24.49-30.5-24.49"/><path class="cls-3" d="M247.36,158.77s4.66-8.68,9.14-12.64,13.88-3.39,20.07,1.09,11.88,4,23.58,0,35.66,15.4,59.77-.82,28.3,12,14.33,31.92S338.93,225,301.34,221.49,248.17,176,247.36,158.77Z"/><path class="cls-11" d="M264.89,119.74a14.18,14.18,0,0,1,.22,2.47c0,6.5-4.42,11.77-9.86,11.77-4.07,0-7.57-2.95-9.07-7.15A28.12,28.12,0,0,0,264.89,119.74Z"/><ellipse class="cls-12" cx="257.71" cy="124.6" rx="3.52" ry="4.96"/><ellipse class="cls-11" cx="256.25" cy="128.7" rx="1.46" ry="1.66"/><path class="cls-2" d="M255.25,110.44c4.73,0,8.69,4,9.64,9.3a28.12,28.12,0,0,1-18.71,7.09,13.66,13.66,0,0,1-.79-4.62C245.39,115.71,249.8,110.44,255.25,110.44Z"/><path class="cls-13" d="M263.71,128.25a13.43,13.43,0,0,0,1.4-6,13.81,13.81,0,0,0-.65-4.22"/><path class="cls-13" d="M262.1,113.74a9.06,9.06,0,0,0-6.85-3.3c-5.45,0-9.86,5.27-9.86,11.77a12.31,12.31,0,0,0,4.93,10.19"/><path class="cls-14" d="M263.86,118.65c-4.53,4.58-11.35,6.88-17.72,6.69-1.79-.06-1.79,2.72,0,2.77,7.07.22,14.66-2.41,19.68-7.49,1.25-1.27-.71-3.24-2-2Z"/><path class="cls-2" d="M401.36,353.55h-3.23L348,340.88s-1.83-12.57,11.49-17.3S383,317.14,393.73,321a17.32,17.32,0,0,1,11.71,13.65Z"/><path class="cls-15" d="M348.51,336.26s27.6-12.89,55.32.86l-2.58,15.46-7.84-.21-46-11.8Z"/><path class="cls-8" d="M233.72,339.38s6.76-15.2,9.46-41.51"/><path class="cls-8" d="M234.7,337.66s-7.87-29-12.54-44.52-15.74-22.87-21.89-23.6"/><line class="cls-8" x1="171.86" y1="263.73" x2="220.49" y2="225.1"/><path class="cls-11" d="M369,120.28a16.37,16.37,0,0,1,.25,2.83c0,7.44-5.05,13.47-11.29,13.47-4.66,0-8.66-3.37-10.38-8.18A32.23,32.23,0,0,0,369,120.28Z"/><ellipse class="cls-12" cx="360.75" cy="125.85" rx="4.03" ry="5.68"/><ellipse class="cls-11" cx="359.08" cy="130.54" rx="1.67" ry="1.9"/><path class="cls-2" d="M357.93,109.64c5.42,0,9.95,4.56,11,10.64a32.23,32.23,0,0,1-21.42,8.12,15.75,15.75,0,0,1-.91-5.29C346.64,115.67,351.7,109.64,357.93,109.64Z"/><path class="cls-13" d="M367.62,130a15.78,15.78,0,0,0,.85-11.73"/><path class="cls-13" d="M365.77,113.41a10.4,10.4,0,0,0-7.84-3.77c-6.23,0-11.29,6-11.29,13.47a14.11,14.11,0,0,0,5.65,11.67"/><path class="cls-14" d="M367.93,119.18c-5.22,5.28-13.08,7.94-20.42,7.71-1.79,0-1.79,2.72,0,2.78,8,.24,16.67-2.75,22.38-8.52,1.25-1.28-.71-3.24-2-2Z"/><path class="cls-14" d="M240.2,204.37l14.33,14S242.09,216.33,240.2,204.37Z"/><path class="cls-14" d="M242.18,193.79l14.32,14S244.07,205.75,242.18,193.79Z"/><path class="cls-14" d="M244,182.72l14.33,14S245.93,194.68,244,182.72Z"/><path class="cls-14" d="M399,204.37l-14.33,14S397.12,216.33,399,204.37Z"/><path class="cls-14" d="M397,193.79l-14.33,14S395.15,205.75,397,193.79Z"/><path class="cls-14" d="M395.18,182.72l-14.33,14S393.28,194.68,395.18,182.72Z"/><path class="cls-8" d="M269.51,322.08s-4.55-33.36-10.69-60.66"/><path class="cls-8" d="M374.29,319.07s4.53-31.83,10.68-59.13"/><line class="cls-8" x1="423.62" y1="227.64" x2="451.31" y2="245.38"/><path class="cls-8" d="M436,260.21s8.15-19.49,28.38-14.8,27.15,24.92,19.75,70.33-25.42,100.2-25.42,100.2.25,1.72-9.63,1c-6.19-.46-127.58-16.78-127.58-16.78"/><path class="cls-9" d="M350,330.84s9.46-11.28,29-12.34,26.47,13.89,26.47,13.89"/><line class="cls-8" x1="347.72" y1="341.36" x2="401.99" y2="354.01"/><path class="cls-8" d="M400.39,354.41s8.91-4.12,31.86-.42"/><path class="cls-8" d="M400.66,354.49s9.14-47.14,28.14-84.9"/><path class="cls-8" d="M266.82,473.78s43.61,30.16,104,0"/><line class="cls-8" x1="319.33" y1="486.73" x2="319.33" y2="400.64"/><path class="cls-8" d="M205,438.49s1,36.64,9.83,60.74c0,0,22.14,10.33,50.17.5l4.68-79.93"/><path class="cls-8" d="M435.51,416.8s-4.48,58.33-13.34,82.43c0,0-22.13,10.33-50.17.5l-3.08-93"/><line class="cls-8" x1="243.27" y1="469.74" x2="252.18" y2="465"/><line class="cls-8" x1="357.78" y1="449.68" x2="365.58" y2="444.38"/><line class="cls-8" x1="358.89" y1="440.76" x2="364.18" y2="434.91"/><line class="cls-8" x1="225.71" y1="502.61" x2="231.11" y2="602.15"/><line class="cls-8" x1="315.71" y1="504.29" x2="315.71" y2="561.96"/><path class="cls-8" d="M326.57,503.45V551s-4.7,7.43-8.93,10.21-4.09,41.69-4.09,41.69"/><line class="cls-8" x1="413.78" y1="502.34" x2="410.99" y2="601.8"/><path class="cls-8" d="M236.5,216.58S247,232.76,269,246.94s46.54,23.72,50.38,59.24v31.15"/><path class="cls-8" d="M258,313.84c-8.43-19.12-28.76-24.33-28.76-24.33s-15.94-30.6-11.06-55.45,19.05-30.65,19.05-30.65"/><path class="cls-8" d="M319.58,307.33s4-26,33.2-46a591.91,591.91,0,0,0,52.55-40.83"/><path class="cls-8" d="M236.42,216.66s-6.14,13.28,11.07,31.23,25.33,33.94,25.33,33.94,1-8.61,8.61-11.31,22.77,6.34,30.64,14.45"/><path class="cls-8" d="M405.76,219.81s3.12,12.46-11.29,28.08c-16.86,18.29-25.33,33.94-25.33,33.94s-1-8.61-8.6-11.31-21.25,5-29.12,13.12"/><path class="cls-8" d="M190.65,266.88a27.72,27.72,0,0,0-29.86,1.72c-25.83,18.33-7.24,74,8.5,112.34s33.93,59.27,41.07,60.25,33.69-10.32,60.5-21.88,62.95-25.19,80.65-29.13c0,0-9.66-35.23-1.93-60.37,0,0-30.28,5.88-67.41,22.11"/><path class="cls-16" d="M235.88,365.18a17.84,17.84,0,0,0,1-2S236.44,364,235.88,365.18Z"/><path class="cls-15" d="M257.22,330.84c0-3.47-13.34,1.63-18.69,4.9-4.43,2.71-10.46,5.86-12,9.73.55.66,2.33.6,6.61-.64a44.93,44.93,0,0,1,8.38-5.68C246.77,336.41,252.64,334.63,257.22,330.84Z"/><path class="cls-2" d="M266.26,361.61c7.53-6.06,17.38-12,25.83-16.71,4.61-2.56,11-4.86,14.46-8.83-10.73-5.68-33.84-16.65-43.21-13-13.89,5.35-34.6,12.76-35.57,17.08-.51,2.28-2,4.46-1.26,5.36q6.75-3.9,13.4-8c5.35-3.27,11-6.74,17.31-6.67-4.58,3.79-10.45,5.57-15.72,8.31a44.93,44.93,0,0,0-8.38,5.68c.85-.25,1.79-.54,2.86-.88a65.8,65.8,0,0,0-8.33,15.84c-1.46,4.32-2.45,7.14-2.38,8.83.48-.49,3.19,2.52,3.6,2,2.27-2.91,3.93-6,6-9.1,6.66-10.12,15.81-19.53,26.81-24.61-3.19,4.41-9.27,5.47-13.66,8.69-4.16,3.05-6.59,7.88-8.67,12.6-1.94,4.42-3.73,8.91-5.33,13.47-.13.36-.26.73-.38,1.1,0,1.93.72,3.41,3.06,3.53a5,5,0,0,0,1.08-.08c.71-1.21,4.94-3.75,5.43-5.06,1.31-3.49,3.66-4.94,5.46-8.21,2.46-4.46,4.41-7.09,8.53-10.1,3.53-2.58,6.23-5.37,9.9-7.75,2.58-1.67,2.09-3.26,4.44-1.26-1.93,1.35-2.07,1.13-4.05,2.41a46.27,46.27,0,0,0-16,18.07c-.89,4-1.83,9.7-.82,13,.2-.7,3.13,2.63,3.33,1.94C256.13,371.88,260.24,366.45,266.26,361.61Z"/><path class="cls-15" d="M310.14,338.14s-3.48-2.16-8.64-4.89a45.85,45.85,0,0,1-12.22,9.91c-8.45,4.69-18.4,6.72-25.93,12.78-6,4.84-10,11.91-12.15,19.32-.21.69-.4,1.39-.6,2.09.6,2,1.88,3.13,4.25,2.61,9-2-.45-11.18,13.78-20s17.63-11.11,25.34-14.23S310.81,340.78,310.14,338.14Z"/><path class="cls-15" d="M239.31,358.19c2.08-4.72,4.51-9.55,8.67-12.6,4.39-3.22,10.47-4.28,13.66-8.69-11,5.08-22.56,10.65-29.22,20.77-2,3.08-3.54,6.51-5.81,9.41a16.24,16.24,0,0,1-1.34,1.54c.07,1.59,1.1,2.16,3.6,2,3.36-.23,5.75-3.32,7-5.43.56-1.19,1-2,1-2a17.84,17.84,0,0,1-1,2c-1,2-2.25,5.15-2.28,7.58.12-.37.25-.74.38-1.1C235.58,367.1,237.37,362.61,239.31,358.19Z"/><path class="cls-15" d="M273.43,342.48c-2.35-2-5.91-.41-8.5,1.27q-5.49,3.57-10.79,7.43c-4.12,3-8.25,6.28-10.71,10.75-1.8,3.27-2.59,7-3.9,10.47a24.93,24.93,0,0,1-1.79,3.81c6.82-1.24,14.85-16.42,14.85-16.42s-.57,1.89-1.17,4.52a46.27,46.27,0,0,1,16-18.07C269.43,345,271.5,343.83,273.43,342.48Z"/><path class="cls-14" d="M310.84,336.94c-7.27-3.37-14.48-6.87-21.76-10.21-7.53-3.46-16.06-6.26-24.48-5.28-3.66.44-6.8,1.95-10.16,3.36-3.2,1.34-6.41,2.64-9.59,4-6.09,2.67-12.46,5.66-17.26,10.38-1.19,1.18-2,2.11-2.13,3.83-.09,1.5-.12,2.95,1.35,3.79,2.81,1.61,7.5.1,9.87-1.71,1.4-1.06,0-3.48-1.4-2.39a10.85,10.85,0,0,1-3.87,1.7,7.07,7.07,0,0,1-1.83.24,4.36,4.36,0,0,1-.81-.07c-.16,0-.69-.23-.63-.15a6.79,6.79,0,0,0,.08-1.12,1.44,1.44,0,0,1,.48-1.27,25.46,25.46,0,0,1,2.9-2.69c4.79-3.84,10.6-6.42,16.2-8.82,2.77-1.19,5.56-2.32,8.34-3.49,3.06-1.29,5.95-2.66,9.31-2.94,7.59-.63,15.2,1.77,22,4.89,7.35,3.36,14.63,6.91,22,10.3,1.61.75,3-1.64,1.4-2.39Z"/><path class="cls-14" d="M256.09,330.81c-4.11,2.33-8.48,4.2-12.66,6.39a41.09,41.09,0,0,0-6.52,4,18.6,18.6,0,0,0-4.9,6.22c-2.78,5.34-5.29,10.88-7.68,16.41-1,2.19-1.65,4.77.26,6.67a5.86,5.86,0,0,0,5.5,1.29c2-.54,3.51-2.26,4.78-3.86a33.59,33.59,0,0,0,3.67-5.48c.81-1.58-1.58-3-2.4-1.4a30.17,30.17,0,0,1-2.53,4,15.22,15.22,0,0,1-3.26,3.62c-1.07.74-3.09.88-3.95-.3-.63-.85-.12-2,.23-2.9.52-1.27,1.1-2.52,1.66-3.77,2.11-4.69,4.18-9.51,6.72-14,2.32-4.08,6.23-6.28,10.28-8.37s8.24-3.91,12.2-6.16a1.39,1.39,0,0,0-1.4-2.39Z"/><path class="cls-14" d="M260.94,336.06a43.77,43.77,0,0,1-7.29,4.46,33.46,33.46,0,0,0-6.58,4.53,42.85,42.85,0,0,0-9,12.53c-1.19,2.33-2.26,4.71-3.28,7.11s-2.52,5.06-2.4,7.76a5.26,5.26,0,0,0,3.92,5.17c2.79.57,5.23-1.09,7-3.09a126.31,126.31,0,0,0,12-16.65c1-1.52-1.45-2.91-2.4-1.4a151.83,151.83,0,0,1-9.35,13.33c-1.42,1.79-3.14,4.66-5.58,5.1-2.69.47-3.14-2.36-2.59-4.33a49,49,0,0,1,2.78-6.82c.9-2,1.85-4,2.89-6A39.12,39.12,0,0,1,249,347c4.14-3.75,9.61-5.42,13.87-9,1.37-1.15-.6-3.1-2-2Z"/><path class="cls-14" d="M273.58,340.91q-6,4.2-12.1,8.4c-3.32,2.32-6.64,4.75-9,8.09-2.5,3.49-3.37,7.75-3.51,12-.07,2.23.05,4.45.2,6.67.12,1.76.29,3.74,1.85,4.86,3.35,2.41,7.42-1.14,9-4,2-3.56,2.06-8,4.41-11.35a18.63,18.63,0,0,1,4.73-4.29c1.83-1.29,3.7-2.53,5.59-3.73q5.78-3.68,11.89-6.81a143.41,143.41,0,0,1,14.23-6.34c2.38-.91,4.79-1.73,7.21-2.54,1.94-.64,3.77-1.81,3.4-4.1-.29-1.76-3-1-2.68.74.07.43-4.39,1.67-4.87,1.83-1.9.67-3.8,1.38-5.68,2.13-3.8,1.51-7.54,3.16-11.21,5A128.5,128.5,0,0,0,266.27,360a16.86,16.86,0,0,0-6.26,8.63c-1,3.16-1.53,7.11-4.31,9.3a3.91,3.91,0,0,1-2.31.94c-1,0-1.25-.8-1.38-1.67a46.29,46.29,0,0,1-.3-5.65c-.06-3.83.27-7.81,2.18-11.22,2-3.62,5.49-6.15,8.83-8.49,4.08-2.85,8.17-5.67,12.26-8.51,1.46-1,.07-3.42-1.4-2.4Z"/><path class="cls-14" d="M280.78,341.35l4.3-1.83a1.36,1.36,0,0,0,.63-.83,1.43,1.43,0,0,0-.14-1.07,1.39,1.39,0,0,0-.83-.63l-.36-.05a1.32,1.32,0,0,0-.7.19l-4.3,1.82a1.4,1.4,0,0,0-.64.83,1.42,1.42,0,0,0,.14,1.07,1.37,1.37,0,0,0,.83.64l.37.05a1.34,1.34,0,0,0,.7-.19Z"/><path class="cls-14" d="M266.79,334.3l6.2-1.67a1.41,1.41,0,0,0,1-1.71,1.43,1.43,0,0,0-1.71-1l-6.2,1.68a1.39,1.39,0,1,0,.74,2.67Z"/><line class="cls-17" x1="262.43" y1="174.27" x2="269.3" y2="170.74"/><path class="cls-3" d="M257.74,164.9s20.31,11.65,49.47,12.26,60.58-20.4,60.58-20.4l3.77-3.15s-22.59,42.2-64.09,44S257.74,164.9,257.74,164.9Z"/><path class="cls-9" d="M247.36,161s12.61,55.83,54,60.5,71.3-36.76,77.09-51.22"/><line class="cls-9" x1="235.5" y1="215.51" x2="253.04" y2="131.63"/><path class="cls-9" d="M278.55,161s-7.31-9.29-7.73-18.62c-.39-8.59,11-14.28,22.1-20.21"/><path class="cls-17" d="M255.25,162.09c8.45,4.3,16.24,8.23,16.24,8.23s34.76,16,70.55.21c0,0,20.17-9.79,32.35-19.39"/><path class="cls-17" d="M255.25,162.09s10.28,32.68,50.93,35.45c37.21,2.53,68.21-46.4,68.21-46.4"/><polyline class="cls-17" points="269.93 170.63 275.42 185.91 284.91 175.11 295.39 196.15 305.83 177.61 316.75 196.53 326.43 175.63 338.56 187.97 343.39 171.26 352.41 177.49 357.78 162.09"/><path class="cls-17" d="M372.37,148.74s5,1.14,3.87,7"/><path class="cls-14" d="M296.26,146.78l-2.69,1.52a1.4,1.4,0,0,0-.64.83,1.43,1.43,0,0,0,.14,1.07,1.41,1.41,0,0,0,.83.64,1.54,1.54,0,0,0,1.07-.14l2.69-1.52a1.42,1.42,0,0,0,.63-.83,1.4,1.4,0,0,0-1-1.71,1.47,1.47,0,0,0-1.07.14Z"/><path class="cls-12" d="M339,139.31s10.06-1.22,10.42-5.94-9.44-2.73-9.44-2.73Z"/><line class="cls-18" x1="340.96" y1="133.39" x2="389.88" y2="126.03"/><path class="cls-19" d="M268.13,127.32s18.22-9.46,31.36,0"/><path class="cls-19" d="M268.13,136s17.94-13.94,31.36,0"/><path class="cls-20" d="M259.71,121.75c7,1.44,11.51,8.71,10.09,16.13a69.07,69.07,0,0,1-3.45,12.62c-3.79,9.21-22.87,9.07-29.27,3.49-5.3-4.62-7-15.91-7.82-24.18a6.19,6.19,0,0,1,4-6.53A50.65,50.65,0,0,1,259.71,121.75Z"/><path class="cls-21" d="M259.71,121.75c7,1.44,11.51,8.71,10.09,16.13a69.07,69.07,0,0,1-3.45,12.62c-3.79,9.21-22.87,9.07-29.27,3.49-5.3-4.62-7-15.91-7.82-24.18a6.19,6.19,0,0,1,4-6.53A50.65,50.65,0,0,1,259.71,121.75Z"/><path class="cls-22" d="M308.29,122.24c-7.23,1.59-11.94,9.61-10.47,17.8A79.88,79.88,0,0,0,301.4,154c3.94,10.16,23.73,10,30.37,3.85,5.5-5.1,7.28-17.56,8.12-26.69a6.88,6.88,0,0,0-4.16-7.21A49.71,49.71,0,0,0,308.29,122.24Z"/><path class="cls-21" d="M308.29,122.24c-7.23,1.59-11.94,9.61-10.47,17.8A79.88,79.88,0,0,0,301.4,154c3.94,10.16,23.73,10,30.37,3.85,5.5-5.1,7.28-17.56,8.12-26.69a6.88,6.88,0,0,0-4.16-7.21A49.71,49.71,0,0,0,308.29,122.24Z"/><path class="cls-23" d="M371,94.44c-1.52-2.87-2-1.22-7.56-1s-9.68-2.05-12.33-6.08-6.56-.29-7.35,3.18S346,103.87,358.17,102,371.82,96,371,94.44Z"/><path class="cls-18" d="M371,94.44c-1.52-2.87-2-1.22-7.56-1s-9.68-2.05-12.33-6.08-6.56-.29-7.35,3.18S346,103.87,358.17,102,371.82,96,371,94.44Z"/><path class="cls-23" d="M243.81,97.82c1-3.11,1.76-1.58,7.25-2.39s9.13-3.81,11-8.26,6.4-1.5,7.81,1.76.29,13.52-12.06,13.9S243.29,99.51,243.81,97.82Z"/><path class="cls-18" d="M243.81,97.82c1-3.11,1.76-1.58,7.25-2.39s9.13-3.81,11-8.26,6.4-1.5,7.81,1.76.29,13.52-12.06,13.9S243.29,99.51,243.81,97.82Z"/></g></svg>