<svg xmlns="http://www.w3.org/2000/svg" xmlns:xlink="http://www.w3.org/1999/xlink" viewBox="0 0 600 600"><defs><style>.cls-1{fill:#ffce55;}.cls-2{fill:#007fcc;}.cls-3{fill:#6fb7d6;}.cls-14,.cls-16,.cls-18,.cls-20,.cls-28,.cls-4,.cls-7{fill:none;}.cls-4{stroke:#1b5186;}.cls-14,.cls-20,.cls-28,.cls-4,.cls-7{stroke-linecap:round;stroke-linejoin:round;stroke-width:2.77px;}.cls-5{fill:#a02e13;}.cls-6{fill:#d64316;}.cls-7{stroke:#030304;}.cls-8{fill:#030304;}.cls-9{fill:#f1f3f3;}.cls-10{fill:#dedbe1;}.cls-11{fill:#1b5186;}.cls-12{fill:#80aeff;}.cls-13{fill:#3a75c9;}.cls-14{stroke:#000;}.cls-15{fill:#514545;}.cls-17{fill:#0080ca;}.cls-18{stroke:#6fb7d6;stroke-miterlimit:10;stroke-width:0.56px;}.cls-19{fill:#027ecb;}.cls-20{stroke:#1d1d1b;}.cls-21{fill:#1d1d1b;}.cls-22{fill:url(#Degradado_sin_nombre_16);}.cls-23{fill:#dedce0;}.cls-24{fill:#f2f3f2;}.cls-25{fill:#3c3c3b;}.cls-26{fill:url(#Degradado_sin_nombre_16-2);}.cls-27{fill:#fbb03b;}.cls-28{stroke:#8e6a2b;}</style><linearGradient id="Degradado_sin_nombre_16" x1="443.62" y1="162.35" x2="434.12" y2="122.79" gradientUnits="userSpaceOnUse"><stop offset="0" stop-color="#fcadab"/><stop offset="1" stop-color="#ded5ee"/></linearGradient><linearGradient id="Degradado_sin_nombre_16-2" x1="382.68" y1="176.98" x2="373.19" y2="137.41" xlink:href="#Degradado_sin_nombre_16"/></defs><g id="Capa_3" data-name="Capa 3"><g id="a"><rect class="cls-1" width="600" height="600"/></g></g><g id="Capa_1" data-name="Capa 1"><path class="cls-2" d="M215.85,136.15s-6.88,4.1-16,10.74c-2.81,9.61-12.4,14.58-15.44,24.3-2.58,8.26-3.09,9.07-8.44,15.87-4.82,6.14-9.92,15.57-15.16,21.35-2.7,3-3.22,14-5,17.54-2.06,4.1-2.16,11.42-2.77,16-1.32,9.78.22,17.67-1,27.45,5.5-13.08,17.35-35.83,34.51-40,24.35-5.94,36.3-1.78,36.3-1.78Z"/><path class="cls-3" d="M159.17,226.74c1.79-3.59,4.58-6.56,7.27-9.53q7.86-8.67,15.1-17.88c5.35-6.81,10.52-14,13.1-22.25,3-9.73,2.38-20.58,5.19-30.19-17,12.32-41.72,33.42-44.81,53.44-4.75,30.79-6.53,78.31-6.53,78.31s1.19-3.79,3.5-9.28c1.24-9.78,2.55-19.56,3.87-29.34C156.47,235.48,157.11,230.84,159.17,226.74Z"/><path class="cls-4" d="M215.85,136.15S159.77,169.53,155,200.33s-6.53,78.31-6.53,78.31,13.66-43.36,38-49.3,36.3-1.78,36.3-1.78Z"/><path class="cls-5" d="M471.61,381.61c-1.29-3.56-10.1-18.11-11.06-21.77-1.7-6.56-7.48-21.49-10.94-27.33-3.05-5.13-5.13-14.54-10.29-17.54s-12.79-6.21-14.24-12c-1.13-4.49-2.69-1.68-3.5-6.24-.69-3.84-6.39.13-8.75-3-6.54-8.67-14.33-16.39-20.47-25.36-5-7.23-8.85-15.59-9.53-24.22a25.43,25.43,0,0,0-2.49,5.61c-3.5,11.64-1.42,24.33,2.79,35.74,3.81,10.34,9.3,20,14.76,29.53,4.92,8.62,10.95,16.7,14.76,25.86,13.53,32.55,29.49,51.95,42,57.81C456.49,389.84,474.71,390.12,471.61,381.61Z"/><path class="cls-6" d="M474.29,360.57c-3.22-14.55-8.89-26.8-18.45-45.15-12.79-24.55-5.23-24.28-17.44-48.7s-44.18-30.23-44.18-30.23l1.82-.36c-5.51-.77-10.23,3.06-13.21,8,.68,8.63,4.57,17,9.53,24.22,6.14,9,13.93,16.69,20.47,25.36,2.36,3.13,4.6,6.5,5.29,10.35.82,4.56-.64,9.35.49,13.84,1.46,5.79,6.78,9.68,11.95,12.68s10.81,5.87,13.85,11c3.46,5.83,2.73,13.16,4.44,19.73.95,3.66,2.67,7.07,4,10.62a49,49,0,0,1,1.81,26.75C469.62,405.75,479.59,393.27,474.29,360.57Z"/><path class="cls-7" d="M396,236.13c-7.49-1-13.52,6.39-15.7,13.63-3.5,11.64-1.42,24.33,2.79,35.74,3.81,10.34,9.3,20,14.76,29.53,4.92,8.62,10.95,16.7,14.76,25.86,29.78,71.63,71.35,79.61,61.64,19.68-3.22-14.55-8.89-26.8-18.45-45.15-12.79-24.55-5.23-24.28-17.44-48.7s-44.18-30.23-44.18-30.23"/><path class="cls-5" d="M317.73,588.76c1-.34,7.57-6.7,8.3-7.52,1-1.13,2.17-12.22,2.18-13.75.15-14.75,3.57-3.81.79-18.29,24.86,6.95,19.17,16.07,41.35,2.86-.41,13.92,2.06,15.62,4.22,29.38.15,1,10.19,2.64,10.71,3.46,1.93,3.06,9.47,4.18,12.66,2.47,5.5-2.93,12.31-15,17.67-18.19l1.52-91.6S337.71,497.37,315.65,495s-124.74,6.36-124.74,6.36c2.6,23.11,5.61,60.24,7.43,82,16.58,5,47.95,8,56,9.79C274.1,597.58,298.43,595,317.73,588.76Z"/><path class="cls-6" d="M399.33,563.26c-3.2,1.7-7.89,3-9.82,0a7.24,7.24,0,0,1-.84-2.79A226.5,226.5,0,0,1,386,518.81c-22.18,13.2-50.36,9.77-75.22,2.81a222.51,222.51,0,0,1,4,44c0,1.52-.1,3.19-1.12,4.32a6.28,6.28,0,0,1-2.86,1.54c-19.3,6.23-42.82,15.61-62.6,11.14-8-1.82-34.23-10.51-50.81-15.49.88,10.55,1.71,21.29,2.5,32.56H414.71l.9-45.61Q407.57,558.86,399.33,563.26Z"/><path class="cls-8" d="M287,514.24c16,7.65,32.95,13.71,50.69,15.38,15.54,1.46,31.5-.82,45.57-7.77a63.84,63.84,0,0,0,20.11-15.38c1.16-1.34-.79-3.31-2-2-9.67,11.19-23.28,18.1-37.64,21.07-16,3.31-32.55,1.46-48.11-3.08a181,181,0,0,1-27.26-10.65c-1.61-.77-3,1.62-1.4,2.39Z"/><path class="cls-8" d="M362.62,528.61l.27,17.43c.07,4.94.39,10-.32,14.9a18.42,18.42,0,0,1-6.21,11.91,32.94,32.94,0,0,0-5.15,5,19.14,19.14,0,0,0-2.95,6c-1.5,4.94-1.4,10.25-1.21,15.35.07,1.78,2.84,1.79,2.78,0-.17-4.56-.3-9.25.85-13.71a17.29,17.29,0,0,1,2.7-5.92c1.48-2,3.56-3.51,5.41-5.17,7.48-6.68,7-16.94,6.9-26.15l-.3-19.63a1.39,1.39,0,0,0-2.77,0Z"/><path class="cls-8" d="M350.22,528.63a235.36,235.36,0,0,1-.44,42.72c-.18,1.78,2.59,1.76,2.77,0a235.36,235.36,0,0,0,.44-42.72c-.14-1.76-2.92-1.78-2.77,0Z"/><path class="cls-8" d="M189.53,501.35q4.26,38,7.32,76.2.87,11.07,1.65,22.15a1.43,1.43,0,0,0,1.39,1.39H406c2.78,0,5.58.06,8.36,0h.37a1.4,1.4,0,0,0,1.38-1.39l.24-12.13.58-29.14.7-35.26.61-30.5c.09-4.94.41-9.93.29-14.87v-.22a1.39,1.39,0,0,0-1.75-1.33q-5.06,1.25-10.12,2.43-12.22,2.88-24.49,5.51c-9.94,2.13-19.91,4.13-29.93,5.86a258.07,258.07,0,0,1-26.7,3.55,61.32,61.32,0,0,1-9.39,0c-2.49-.22-5-.37-7.47-.42-7.62-.15-15.25.11-22.86.41-9.71.38-19.42.91-29.12,1.51s-19.59,1.26-29.38,2q-11.82.86-23.64,1.8l-12.2,1-.55,0c-1.76.15-1.78,2.92,0,2.77,2.83-.24,5.65-.47,8.48-.69q10.74-.87,21.48-1.67,14.28-1.06,28.57-2c9.9-.64,19.81-1.23,29.72-1.68,8.35-.39,16.7-.72,25.06-.73,2.93,0,5.86,0,8.78.2,2.59.15,5.14.43,7.74.4,8.33-.1,16.68-1.34,24.9-2.63,10.07-1.58,20.09-3.5,30.08-5.57q13.36-2.76,26.66-5.85,7.23-1.66,14.45-3.43l.67-.17-1.76-1.34-.24,12.13-.58,29.14-.7,35.26-.6,30.5-.2,10.13a39.48,39.48,0,0,0-.1,4.74,1.62,1.62,0,0,1,0,.22l1.39-1.39H208.62c-2.76,0-5.61-.21-8.36,0-.12,0-.25,0-.37,0l1.39,1.39q-2.7-38.19-6.59-76.27-1.16-11.05-2.39-22.08C192.1,499.59,189.33,499.57,189.53,501.35Z"/><path class="cls-9" d="M276.21,241.26c-10.53-25.36-21.14-51.12-27.34-77.74.13,2.8.35,5.6.68,8.39,1.72,14.87,6.22,29.26,10.71,43.54q6.25,20,12.53,39.94c2.46,7.85,4.92,15.7,7.86,23.38.4,1.05.82,2.09,1.23,3.14,7.83,5.85,15,11.15,20.72,15.48q-3.59-6.19-6.88-12.55C288.43,270.69,282.31,256,276.21,241.26Z"/><path class="cls-10" d="M352.22,356.76c2.06,6.8,17.28-60.18,17.28-60.18l-2.7-31.38q0-29.25,0-58.5c0-14.37,0-28.8-2.29-43-3.75-23.43-14-46.16-30.93-62.79s-40.82-26.63-64.47-24.61c-1.07.09-2.13.22-3.2.36-7.1,15.62-11.72,32.65-14.46,49.55a179.51,179.51,0,0,0-2.56,37.3c6.2,26.62,16.81,52.38,27.34,77.74,6.1,14.7,12.22,29.43,19.51,43.58q3.28,6.36,6.88,12.55c5.4,4.05,9.59,7.25,12,9.22C329.37,318.75,352.12,356.46,352.22,356.76Z"/><path class="cls-2" d="M240.43,218c.34-10.77,2.91-21.35,3.61-32.09,1.74-27-8.38-53.82-5.75-80.73a97.72,97.72,0,0,1,4.55-21c-12.91,6.8-23.63,17.58-29.29,31-3.42,8.12-5,16.88-6.34,25.59a629.48,629.48,0,0,0-7.12,73.8c7,8.84,25.33,24.08,45.42,39.76C242.54,242.3,240,230.2,240.43,218Z"/><path class="cls-3" d="M272.79,255.39q-6.27-20-12.53-39.94c-4.49-14.28-9-28.67-10.71-43.54-1.76-15.19-.57-30.6,1.88-45.69,2.74-16.9,7.36-33.93,14.46-49.55a69.56,69.56,0,0,0-23,7.41,97.72,97.72,0,0,0-4.55,21c-2.63,26.91,7.49,53.74,5.75,80.73-.7,10.74-3.27,21.32-3.61,32.09-.39,12.25,2.11,24.35,5.08,36.28,12.18,9.51,25,19.17,36.37,27.68-.41-1.05-.83-2.09-1.23-3.14C277.71,271.09,275.25,263.24,272.79,255.39Z"/><path class="cls-11" d="M201.48,214.47q1-27.28,4.39-54.4c1.12-8.94,2.32-17.91,4-26.77,1.48-7.87,3.56-15.69,7.43-22.75,6.56-12,17.31-21.28,29.65-26.95a69.33,69.33,0,0,1,41.68-4.91,85.34,85.34,0,0,1,40.17,19.69A101.48,101.48,0,0,1,354.84,135c6.46,15.08,9.32,31.21,10.14,47.53.45,9,.41,18,.41,27.06v27.66q0,13.71,0,27.41c0,2.27.35,4.57.54,6.83l2,23.66a8.47,8.47,0,0,0,.1,1.13c.07.38,0,.24.06-.05l-.36,1.26q-1,3.54-2.13,7.08c-2.34,7.6-4.83,15.17-7.71,22.59a97.53,97.53,0,0,1-4.33,9.82,31.08,31.08,0,0,1-2.11,3.51,8,8,0,0,1-.83,1c-.14.13-.28.27-.43.39s.22-.15,0,0L350,342c-.38.19.18,0-.17.06-.08,0,.26.09-.1,0,.12,0,.33.09.13,0s.21.22.07,0,.14.21-.14-.1.05.16-.17-.24a6.63,6.63,0,0,1-.31-.59c.12.25-.15-.38-.2-.48a5.82,5.82,0,0,0-.36-.47c-2-2.55-4.14-5-6.27-7.43-8.34-9.58-17-19.12-26.89-27.19-4.61-3.79-9.44-7.32-14.21-10.9-7.55-5.66-15.12-11.28-22.67-16.94q-13.32-10-26.53-20.14c-8.59-6.63-17.12-13.34-25.48-20.26-6.75-5.59-13.47-11.28-19.69-17.46a73.81,73.81,0,0,1-5.92-6.45c-1.11-1.39-3.06.58-2,2,4.48,5.62,10,10.47,15.38,15.2,7.79,6.84,15.85,13.37,24,19.8q13.48,10.65,27.21,21,12.66,9.58,25.41,19.06c6.22,4.63,12.45,9.24,18.59,14a188.62,188.62,0,0,1,22,20.54q5.87,6.27,11.43,12.81c1,1.22,2.07,2.44,3.07,3.68l.41.5c.27.34,0-.07.06.08s-.16-.37,0,.08c.13.29.25.59.4.87a3.11,3.11,0,0,0,5,.92c1.93-1.56,3.18-4,4.27-6.2,3.66-7.2,6.29-14.95,8.84-22.59q2.88-8.62,5.41-17.37a8.39,8.39,0,0,0,.12-3.28l-1-11.52c-.65-7.51-1.53-15-1.53-22.54q0-28,0-56.09c0-17.68-.33-35.5-4.77-52.72a115,115,0,0,0-19.74-41.37,92.5,92.5,0,0,0-35.52-28.35c-13.82-6.14-29.23-8.75-44.23-6.36a70.83,70.83,0,0,0-36.69,17.88,62.47,62.47,0,0,0-12.6,16.22c-3.86,7.21-6,15.15-7.48,23.15a534,534,0,0,0-6.85,54.8q-1.08,13.41-1.57,26.86C198.64,216.25,201.41,216.25,201.48,214.47Z"/><path class="cls-11" d="M209.78,192.21l20.54,20S212.49,209.35,209.78,192.21Z"/><path class="cls-11" d="M212.61,177l20.54,20S215.33,194.18,212.61,177Z"/><path class="cls-11" d="M215.29,161.17l20.54,20S218,178.31,215.29,161.17Z"/><path class="cls-12" d="M379.7,457.82c-.58-5-1.4-10.09-4-14.4L354.24,459c-12.7,9.18-25.56,18.46-40.09,24.35-10.76,4.37-22.66,6.75-34.12,5.58,5.79,9.38,10.62,15.67,10.62,15.67s32.75,7.56,60.12,11.05c10.15,1.29,20-3.1,28.47-9.15A195,195,0,0,0,379.7,457.82Z"/><path class="cls-13" d="M259.25,343.87a175.3,175.3,0,0,1,32.21,16,228.46,228.46,0,0,1,.6-47.42c.25-2.11.67-4.46,2.42-5.67,1.41-1,3.27-.9,5-.71,23.74,2.63,44.89,21.18,50.61,44.37a272.66,272.66,0,0,1,24.38-60.61c1.41-2.56,3.1-5.3,5.88-6.2,3.89-1.27,7.82,1.67,10.39,4.93-5.37-13.06-11.92-23.19-18.93-29L350,348.25s-7.91-47.75-47.71-65.19-92.83-58.14-92.83-58.14-11.51-2.91-6.86,19.18,22.68,58.14,33.72,91.86l3,9a14.17,14.17,0,0,1,6.12-3.21C250,340.72,254.8,342.22,259.25,343.87Z"/><path class="cls-12" d="M404.31,355.73c-1-25.62-6.17-49.19-13.59-67.2-2.57-3.26-6.5-6.2-10.39-4.93-2.78.9-4.47,3.64-5.88,6.2a272.66,272.66,0,0,0-24.38,60.61c-5.72-23.19-26.87-41.74-50.61-44.37-1.71-.19-3.57-.27-5,.71-1.75,1.21-2.17,3.56-2.42,5.67a228.46,228.46,0,0,0-.6,47.42,175.3,175.3,0,0,0-32.21-16c-4.45-1.65-9.24-3.15-13.87-2.09a14.17,14.17,0,0,0-6.12,3.21c10.33,31.48,21.46,66.16,21.46,92.13,0,8.42,2.61,17.75,6.29,26.72,15-6.36,28.26-16.5,40.41-27.44,14.52-13.07,27.83-27.5,43.18-39.58,9.12-7.18,19.92-13.77,31.49-12.75,9.24.81,17.34,6.56,22.86,14.16C405,382.9,404.79,367.91,404.31,355.73Z"/><path class="cls-13" d="M382.09,384.07c-11.57-1-22.37,5.57-31.49,12.75-15.35,12.08-28.66,26.51-43.18,39.58C295.27,447.34,282,457.48,267,463.84a176.39,176.39,0,0,0,13,25.05c11.46,1.17,23.36-1.21,34.12-5.58,14.53-5.89,27.39-15.17,40.09-24.35l21.5-15.54c2.56,4.31,3.38,9.42,4,14.4a195,195,0,0,1-.46,48.64c14.31-10.27,24.41-25.28,24.41-25.28s1.26-42.65,1.3-82.95C399.43,390.63,391.33,384.88,382.09,384.07Z"/><path class="cls-14" d="M209.43,224.92s-11.51-2.91-6.86,19.18,22.68,58.14,33.72,91.86,24.43,72.68,24.43,101.16,29.93,67.44,29.93,67.44,41.18,13.21,67.11,11.08c27.5-2.26,45.89-34.46,45.89-34.46s2.41-81.27.66-125.45-15.85-82.3-32.52-96.25L350,348.25s-7.91-47.75-47.71-65.19S209.43,224.92,209.43,224.92Z"/><path d="M351.55,355q3.26,31.28,4.75,62.7,1.44,31.2,1.07,62.44-.22,17.76-1,35.5c-.08,1.79,2.7,1.78,2.78,0q1.37-31.41,1-62.87-.42-31.23-2.67-62.38-1.27-17.72-3.12-35.39c-.18-1.75-3-1.77-2.78,0Z"/><path class="cls-5" d="M190.4,274.68l.6,1c4.28,6.89,8,14.9,13.12,21.23,4.18,5.2,9.75,8.69,13.72,14,7.33,1.71,30.19,7.44,43.24,15.17-13-7.73-35.91-13.46-43.24-15.17,16,21.48,16.56,54.61,31,77.13,2.73,4.25,19.39-2,21.24,2.67,2.19,5.56,3.5,12.18,8.59,15.31-.73-10.21,13.42-25.34,9-34.55-3.61-7.45-9.24-18.28-13.65-25.29s-2.57,3-1.39-5.24c.1-.66-1.71,8.4-1.21,8s3.62-8,4.33-8c2.7.18-10.58-3.42-7.87-3.46s5.21-8.37,5.35-11.08c.11-2.36-6-16.22-7.92-17.61-9.85-7.17-19.12-22.46-30.46-26.93-5.5-2.17-6.4-12.55-10.88-16.39-4.77-4.09-5.76,2.91-8.45-2.77-4.51-9.53,3.47-.95-1-10.49-3.2-6.75-17.45-16.49-18.2-23.93-.56-5.66-6.71-11.52-3.49-16.08-4.85,2.64-12.82,8.82-14.25,16.79-.19,1.12-.34,2.28-.43,3.5A103,103,0,0,0,182,256c.39,1.22.8,2.43,1.24,3.64A128.38,128.38,0,0,0,190.4,274.68Z"/><path class="cls-15" d="M190.4,274.5a128.48,128.48,0,0,1-7.15-15.05A86.68,86.68,0,0,0,190.4,274.5Z"/><path class="cls-6" d="M183.25,259.45c-.84-1.19-3.82-11.72-5.27-11.93-2-.3-7.09-4.31-8.22-2.68-9.29,13.36-29.4,20.82-28.49,37.07.31,5.59-3.18,21.62-1.39,26.93,5.81,17.19,4.83,44.41,18.8,56,8.87,7.35,25.51,46.13,35.41,52s22.11-2.17,26.9,8.31c5.08,11.11,21.95,8,26.9,19.17,7,15.8,24,24.33,40.12,30.61,3.64,1.42,7.35,2.83,11,4.31-3.23-40.76-10.43-111.8-16.16-134.7-6.68-26.74-28.77-57-38.45-75s-29.86-28.49-38-37.23-6.72-22.08-6.72-22.08a31,31,0,0,0-9.8,3.37c-3.22,4.56-4.38,10.65-3.81,16.31.74,7.43,4,14.36,7.19,21.12l13.53,28.6c2.69,5.68,5.51,11.54,10.29,15.63,4.48,3.85,10.25,5.76,15.75,7.93a144.76,144.76,0,0,1,32,17.56c1.91,1.39,4,3.21,3.86,5.57-.13,2.71-3.19,4.39-5.9,4.43s-5.33-1-8-1.16a2.74,2.74,0,0,0-2,.45,2.86,2.86,0,0,0-.76,1.82c-1.18,8.19,2.25,16.37,6.66,23.38s9.87,13.38,13.48,20.83c4.46,9.21,5.85,19.59,6.58,29.79-5.09-3.13-6.4-9.75-8.59-15.31a77.38,77.38,0,0,0-7.33-13.23c-14.48-22.53-29-45.08-44.94-66.56-1.48-.35-2.33-.53-2.33-.53-11-13.2-19.24-25.13-25.11-35.75a86.68,86.68,0,0,1-7.15-15.05c-.28-.71-.55-1.42-.81-2.12"/><path class="cls-15" d="M182,255.82c.14.5.28,1,.43,1.51.26.7.53,1.41.81,2.12C182.81,258.25,182.4,257,182,255.82Z"/><path class="cls-16" d="M182.44,257.33a103.76,103.76,0,0,1-4.35-25C177.59,239.11,178.82,247.44,182.44,257.33Z"/><path class="cls-5" d="M247.89,444.33c-4.95-11.16-4-24.28-9.08-35.39C234,398.47,224.43,391,214.54,385.11S194,374.37,185.15,367c-14-11.57-22.48-28.48-28.28-45.67-1.79-5.32-3.38-10.76-3.69-16.36-.91-16.25,8.79-31,18.08-44.32,1.14-1.64,2.71-3.47,4.68-3.18,1.44.21,2.44,1.51,3.28,2.71l10.91,15.58a100,100,0,0,1-7.69-18.45c-3.62-9.89-4.85-18.22-4.35-25h0c-25.11,22-47.82,49.42-50.15,67.45s26.75,72.09,39,117.44,18.93,118.36,18.93,118.36c55,51.75,117.38,27.91,117.38,27.91s-.85-33.48-2.89-66.62c-.3-4.77-.73-10.77-1.28-17.63-3.68-1.48-7.39-2.89-11-4.31C271.91,468.66,254.89,460.13,247.89,444.33Z"/><path class="cls-7" d="M178.09,232.33c-25.11,22-47.82,49.43-50.15,67.46s26.75,72.09,39,117.44,18.93,118.36,18.93,118.36c55,51.75,117.38,27.91,117.38,27.91s-.85-33.48-2.89-66.62S289.57,371.3,282.88,344.55s-28.77-57-38.45-75-29.86-28.49-38-37.23-6.72-22.08-6.72-22.08-18.28,2.33-21.19,18.61,5.37,43.6,37,81.39c0,0,29.87,6.4,45.57,15.7"/><path class="cls-8" d="M241.85,318.32l1.77,32.84.88,16.41c.28,5.3.43,10.63.88,15.92a15.74,15.74,0,0,0,1.85,6.75,32.34,32.34,0,0,0,4.49,5.42q4.88,5.26,9.43,10.81a248.72,248.72,0,0,1,17.23,23.58,254.43,254.43,0,0,1,15.88,28.51c.77,1.61,3.16.21,2.39-1.4a255,255,0,0,0-30.21-48.53q-4.44-5.64-9.2-11c-1.56-1.76-3.15-3.49-4.75-5.21a14.52,14.52,0,0,1-3.88-6,36.37,36.37,0,0,1-.72-7.36l-.44-8.21-.87-16.17-2-36.32c-.09-1.78-2.87-1.79-2.77,0Z"/><path class="cls-6" d="M421.29,408.36c-4.47-.63-18.58,2.57-21.45,6.06-1.86,2.27-7.76,7.41-7.93,10.35-1.08,18.56,4.27,40.6,5.74,59.13.8,10.09,1.77,50.09,2.57,60.19,6.46-1.27,19.32-3.68,24.91-7.16-2.4-16.39-.1-59.39,1.06-75.91.9-12.81,1.12-25.64,1-38.48C424,421.66,424.53,408.82,421.29,408.36Z"/><path class="cls-5" d="M399.23,320.12c.08,4.84,6.33,23.12,7.91,27.69,3.53,10.19,13.65-.46,17.34,9.66-1-18.24-2.56-36.45-6-54.38-.92-4.75-6.24-23.74-7.45-28.44-1,4-5.07,11.78-6.07,15.79S399.16,316.06,399.23,320.12Z"/><path class="cls-5" d="M402.59,431.76c.17-2.93.48-6.06,2.34-8.33,2.87-3.48,8.13-3.55,12.59-2.91a75.21,75.21,0,0,1,9.63,2c-.2-15.92-1-31.85-1.77-47.76q-.42-8.64-.9-17.31-5.53-15.18-10.84-30.46c-1.58-4.57-3.17-9.24-3.25-14.08-.07-4.05.91-8,1.89-12s2-8,3-12.05c-4.83-18.62-12.18-36.61-23.23-52.3-.86-1.22-1.93-2.54-3.42-2.63-2.1-.14-3.43,2.14-4.24,4.08l-8.05,19.15c-2.89,6.91-1.9,8.38.69,15.27a152.63,152.63,0,0,1,8.31,35.59c2.95,24.31,1.72,48.86,2,73.28.25,23.9,2,47.75,3.8,71.58,0,11.49,1.73,23.25,2.59,34.71.67,9.08,4.74,49.6-.38,57.39a53.86,53.86,0,0,0,13.53-.93c-.8-10.1-1.6-46.54-2.4-56.63C403,468.93,401.51,450.32,402.59,431.76Z"/><path class="cls-8" d="M389.73,452.92c0,10,1.28,20,2.18,29.95.42,4.64.78,9.29,1.15,13.94.91,11.44,1.75,23,1.33,34.46a63.52,63.52,0,0,1-.7,8,13.57,13.57,0,0,1-1.57,5,1.4,1.4,0,0,0,1.2,2.09,56.53,56.53,0,0,0,32.51-8.28,1.46,1.46,0,0,0,.63-1.57,125.63,125.63,0,0,1-.94-15.51c-.12-6.77,0-13.54.15-20.31q.48-18.6,1.73-37.16c1.26-18.92,1.39-37.81.77-56.76-.65-20-1.56-40-3-59.88-2.58-36.63-8.53-74.52-28.62-106.06-1.15-1.81-2.32-3.63-3.6-5.35-1-1.36-2.23-2.66-4-2.9-4.09-.56-5.67,4.38-6.89,7.3l-5.69,13.52c-1.47,3.5-3.51,7.3-3.19,11.22.29,3.59,2.08,7,3.27,10.35A135.6,135.6,0,0,1,380.58,289a189.75,189.75,0,0,1,4.33,28.84c1.59,19.92.88,39.92,1,59.88.11,20.17,1.3,40.32,2.75,60.44q.53,7.41,1.09,14.8c.13,1.77,2.9,1.78,2.77,0C391,433.2,389.56,413.47,389,393.7c-.61-19.61.11-39.22-.4-58.82-.5-18.91-2.23-38.06-7.92-56.18-1.27-4-3.05-7.91-4.22-12-1-3.48.14-6.51,1.49-9.73q2.82-6.76,5.68-13.52a54.46,54.46,0,0,1,2.75-6.31,3.93,3.93,0,0,1,1.46-1.66c1.19-.56,2.12.56,2.78,1.41a90.59,90.59,0,0,1,7,10.95c2.16,3.78,4.15,7.67,6,11.63a172.93,172.93,0,0,1,9.06,24.79c5.17,18.05,7.75,36.71,9.29,55.39,1.62,19.45,2.42,39,3.21,58.5.79,19.7,1.15,39.45,0,59.14-.72,11.9-1.49,23.79-1.92,35.71-.45,12.53-.85,25.17,0,37.7.15,2.2.36,4.38.67,6.56l.64-1.57a53.91,53.91,0,0,1-31.11,7.91l1.2,2.08c2-3.18,2.22-7.65,2.47-11.29a163.63,163.63,0,0,0,.09-17.44c-.38-10.1-1.28-20.17-2.06-30.25-.88-11.27-2.49-22.5-2.52-33.82A1.39,1.39,0,0,0,389.73,452.92Z"/><path class="cls-8" d="M382.55,241.22a246.09,246.09,0,0,1,14.13,26.42,129.6,129.6,0,0,1,5.76,13.72c.77,2.38-.76,4.33-2,6.24s-2.48,3.59-3.74,5.38c-2.84,4-5.54,8.14-6.85,12.92a1.39,1.39,0,0,0,2.67.74c1.21-4.41,3.72-8.23,6.34-11.93,1.3-1.84,2.63-3.66,3.87-5.53s2.77-4,2.8-6.33-1.36-4.78-2.23-6.9q-1.42-3.49-3-7-3.1-7-6.66-13.82-4.08-7.83-8.72-15.36c-.93-1.51-3.33-.12-2.39,1.41Z"/><path class="cls-8" d="M394.74,297.1l14.87,56.26,1.85,7a48.55,48.55,0,0,1,1.58,6.95c.54,4.65-1.29,9-2.8,13.3l-9.58,27.3L389.76,439c-.59,1.68,2.09,2.41,2.68.73l19.48-55.53c1.55-4.41,3.57-8.93,4-13.64.37-4.51-1.24-9-2.38-13.33l-7.59-28.73-8.49-32.1a1.39,1.39,0,0,0-2.68.73Z"/><path class="cls-12" d="M202.74,213s1.61,5.81,16.34,17.83,59.2,37,71.7,43c23,11.05,55.17,35.92,60.21,69.64,0,0,5.19-34,8.78-49.36,3.33-14.22,11.76-32.68,8.79-49.35,0,0,7.88,3.1,12.92,13.18s3.4,29.45,3.4,29.45-4-21.64-12.31-16.27-20.35,85.65-20.35,85.65-9.5-50-51.36-72.09c0,0-10.08.78-11.24,17.44,0,0-31-16.28-51.94-36S196.08,226.92,202.74,213Z"/><path class="cls-14" d="M202.74,213s1.61,5.81,16.34,17.83,59.2,37,71.7,43c23,11.05,55.17,35.92,60.21,69.64,0,0,5.19-34,8.78-49.36,3.33-14.22,11.76-32.68,8.79-49.35,0,0,7.88,3.1,12.92,13.18s3.4,29.45,3.4,29.45-4-21.64-12.31-16.27-20.35,85.65-20.35,85.65-9.5-50-51.36-72.09c0,0-10.08.78-11.24,17.44,0,0-31-16.28-51.94-36S196.08,226.92,202.74,213Z"/><path class="cls-6" d="M435.83,401.22c8.15,1.81,23.05,3.2,31.25,1.59,7.59-1.49,7.16-21.51,8.89-28.9-.3-2.2-.56-4.45-.76-6.71C473.49,347.28,425.74,341,425.74,341c-41.09-21.19-53.27-9.18-53.27-9.18,7.58-5.18,6.39,11.32,2.89,23.51-.88,3.07-6.83,17.91-8.18,21.08,5.32,3.43,13.74,6,19.59,8.41C401.42,390.78,420.38,397.81,435.83,401.22Z"/><path class="cls-5" d="M476,373.91c-1.73,7.39-9.1,12.77-16.69,14.26-8.2,1.61-16.63-.29-24.79-2.09-15.45-3.42-31.06-6.57-45.71-12.55a101.71,101.71,0,0,1-16.88-8.71,175.62,175.62,0,0,1-9.1,18s39.68,8.42,51.4,14,36,13.37,53,11.06C482.34,405.9,478.29,391.12,476,373.91Z"/><path class="cls-7" d="M473.87,362.44c1.09,4.92.55,3,1.14,8.79.06.64.13,1.27.2,1.89"/><path class="cls-7" d="M475.21,373.12c2.4,21.66,6.81,33.79-12.41,35.49-19.77,1.74-36-9.3-57-14s-43-11.81-43-11.81,30.23-56,8.72-49.4c0,0,3.49-12.38,35.47,0s50.58,28.63,50.58,28.63"/><path class="cls-8" d="M427,342.33a97.36,97.36,0,0,1,26.29,7.81c1.61.75,3-1.64,1.4-2.39a99.68,99.68,0,0,0-26.95-8.09c-1.75-.27-2.5,2.41-.74,2.67Z"/><path class="cls-3" d="M414,343c8-2.09,12-4.21,20.09-3-.56-2.67-2.64-12.86-3.9-15.29-3.46-6.67-10.09-11.39-17.32-13.44s-15-1.59-22.27.31a58.64,58.64,0,0,0-33.24,23.36l.52-.38c4.29,5.53,15.84,18.31,20.71,23.34,1.46-.74,9.56-2.12,11-2.9C399.84,349.35,402.59,345.93,414,343Z"/><path class="cls-17" d="M408.17,334c-11.37,3-21.94,8.4-32.24,14.06-1.42.78-2.86,1.57-4.32,2.31A191.17,191.17,0,0,0,386,363.87c2,1.71,4.36,3.46,7,3.32s4.74-2.09,6.68-3.85a95.46,95.46,0,0,1,34.34-19.93,84.19,84.19,0,0,0-1.27-11A61.54,61.54,0,0,0,408.17,334Z"/><path class="cls-11" d="M358.52,335.64a57.39,57.39,0,0,1,30.16-22.08c12.8-3.92,28.41-3.17,37.6,7.79,5.17,6.17,5.86,14.36,6.39,22.06l1-1.34A97.75,97.75,0,0,0,402,359.57c-2.19,1.81-4.2,4.14-6.69,5.52-2.95,1.62-5.64,0-8-1.95a178.36,178.36,0,0,1-14.06-13,193.82,193.82,0,0,1-14.42-16.54c-1.09-1.4-3,.57-2,2a193.34,193.34,0,0,0,27.83,29c2.19,1.85,4.58,3.78,7.55,4s5.57-1.67,7.72-3.59a103.2,103.2,0,0,1,15.11-11.35,94.12,94.12,0,0,1,19.35-8.88,1.4,1.4,0,0,0,1-1.34c-.51-7.37-1.13-15.15-5.31-21.5a29.79,29.79,0,0,0-15.48-11.53c-14-4.71-30.24-.11-42.2,7.83a60.56,60.56,0,0,0-16.32,16c-1,1.47,1.38,2.86,2.39,1.4Z"/><path class="cls-6" d="M127.82,320.91c-.54,13.53,5.55,32.38,12.66,43.92,3.55,5.77,14.1,16.72,19.38,21,4.23,3.39,14.92,26.56,20,28.49,14.15,5.39-1.71-17.25,13.26-15-8.16,3.54,31.78,40.42,23,39.36,14.28,10.25,27,14.45,42.52,22.75,9.12,4.89,18.86,7.68,28.91,10.09,1.26.3,12.79-3.38,14-3.76S307,462.8,308,462c11.55-9.1,11.75-6.26,23.54-15,5.51-4.1,13.44-10.44,16.82-16.42,4.09-7.23,4-14.67,11.67-17.82,5.33-2.19,7.71-8.08,12.07-11.85,5.62-4.86,12.9-18.13,13.65-25.52,1.48-14.75-4.44-35-14.34-41.08a38.83,38.83,0,0,0-17.17-3.63s-51.28,59.94-72,74.06c0,0-4.6-4.1-8.08.16,0,0,.16-15.11-15.72-35.07s-34.63-52-39.3-57.42S197.14,290,185.37,286.28c-4.3-1.34-12.27-4.12-21.38-4.82-6,8.69-20.08,7.32-24.5,16.9C136.3,305.25,128.12,313.32,127.82,320.91Z"/><path class="cls-5" d="M371.44,334.23c5.86,13.5,7,28.92,5.56,43.66-.74,7.4-2.44,15.33-8.07,20.19-4.36,3.77-10.28,5-15.62,7.17a37.69,37.69,0,0,0-18.61,15.88c-3.38,6-5.11,13.3-10.61,17.4-11.79,8.77-31-3.74-42.55,5.36a11,11,0,0,1-3.36,2.25,7.31,7.31,0,0,1-3.82-.18c-10.06-2.41-19.3-7.35-28.42-12.23-15.5-8.31-31.05-16.65-45.34-26.9A50.66,50.66,0,0,0,226.7,403a209.36,209.36,0,0,1-43.85-11.44c-5.06-1.93-10.12-4.09-14.35-7.48-5.29-4.24-8.94-10.14-12.5-15.91-7.11-11.53-14.46-24-13.93-37.5.3-7.59,3.11-14.86,6.29-21.75A186.63,186.63,0,0,1,164,281.46c-15.82-1.2-35.05,3.91-44.33,33.89-7.29,23.56,5.46,55,18.33,72,20.81,27.65,41,45.65,96.39,73.21s62.47,32.08,81.65,12,64.54-76.42,77.26-99l6.32-8.67S390.51,343.06,371.44,334.23Z"/><path class="cls-7" d="M281.45,405.22c15.7-9.88,72.82-74.62,72.82-74.62,31.39-.58,45.34,34.3,45.34,34.3s-22.67,30.82-33.72,47.68-37.2,50.58-57.55,66.67-64.54-13.77-87.79-26.56S157.76,416.06,138,387.4,111.65,332,122.87,306.27c8.14-18.69,29.07-31.68,58.72-21.4s44.19,34.68,62.21,64.34S272.87,385.83,274,405.6l1.16,19.77"/><path class="cls-8" d="M275.42,406.93a9.62,9.62,0,0,1,1.49-2.63c.51-.54,1.46-1.11,2.18-.62s.92,1.59,1.16,2.31c.39,1.17.78,2.34,1.18,3.52l4.72,14.1c.56,1.68,3.24,1,2.67-.74q-2.94-8.82-5.9-17.62c-.72-2.16-1.82-4.57-4.49-4.52-2.83,0-4.38,2.5-5.4,4.8-.72,1.62,1.67,3,2.39,1.4Z"/><path class="cls-18" d="M268.92,407.28a22.62,22.62,0,0,0,.26-2.85S269,405.59,268.92,407.28Z"/><path class="cls-17" d="M277.9,355.87c-1.71-4.15-15.19,8.39-20,14.89-4,5.38-9.68,12.07-9.68,17.44,1,.53,3.07-.39,7.59-3.94a57.59,57.59,0,0,1,7.3-10.85C268.08,367.58,274.25,362.62,277.9,355.87Z"/><path class="cls-3" d="M303.57,388.34c6.1-10.89,15-22.77,22.86-32.47,4.28-5.29,10.83-11.12,13.06-17.55-15.6-1.62-48.55-3.6-58,5.25-14,13.1-35.26,32-34.34,37.61.49,3-.23,6.31,1.09,7q6.2-7.9,12.19-16c4.83-6.5,10-13.4,17.51-16.34-3.65,6.75-9.82,11.71-14.81,17.54a57.59,57.59,0,0,0-7.3,10.85c.91-.71,1.9-1.52,3-2.45a85.59,85.59,0,0,0-2.32,23c.34,5.88.51,9.74,1.41,11.72.34-.82,5,1.48,5.27.65,1.31-4.58,1.81-9.1,2.75-13.77,3.09-15.33,9.5-31,20.22-42.41-1.7,6.82-8.46,11-12.16,17-3.51,5.66-4.09,12.61-4.3,19.27q-.3,9.35.11,18.7c0,.5.05,1,.08,1.51.9,2.32,2.52,3.73,5.36,2.74a5.67,5.67,0,0,0,1.26-.62c.28-1.79,4.11-6.88,4.07-8.67-.12-4.81,2-7.69,2.57-12.47.79-6.53,1.86-10.63,5.34-16.22,3-4.78,4.87-9.43,8.11-14,2.28-3.26.93-4.92,4.71-3.66-1.66,2.55-1.94,2.35-3.7,4.84a59.62,59.62,0,0,0-10.45,29.38c.85,5.21,2.48,12.48,5.3,16-.1-.94,5,1.64,4.93.72C296.4,405.54,298.7,397.05,303.57,388.34Z"/><path class="cls-17" d="M344.78,339.06s-5.21-.9-12.71-1.68a59,59,0,0,1-9.84,17.76c-7.85,9.7-18.79,16.93-24.88,27.82-4.87,8.7-6.17,19.07-5.23,29,.09.92.2,1.85.3,2.79,1.67,2.08,3.76,2.85,6.35,1.07,9.83-6.73-5.93-13.17,6.85-30.57s15.75-21.81,23.47-29.26S346.85,341.91,344.78,339.06Z"/><path class="cls-17" d="M269.66,397.26c.21-6.66.79-13.61,4.3-19.27,3.7-6,10.46-10.18,12.16-17-10.72,11.4-21.88,23.64-25,39-.94,4.67-1.09,9.5-2.4,14.08a23.59,23.59,0,0,1-.87,2.48c.85,1.87,2.35,2.06,5.27.65,3.91-1.9,5.29-6.75,5.77-9.89.1-1.69.26-2.85.26-2.85a22.62,22.62,0,0,1-.26,2.85c-.18,2.86-.2,7.25.93,10.19,0-.51-.06-1-.08-1.51Q269.37,406.62,269.66,397.26Z"/><path class="cls-17" d="M302.92,362c-3.77-1.26-7.27,2.37-9.56,5.63q-4.86,6.92-9.33,14.1c-3.48,5.59-6.85,11.5-7.64,18-.57,4.78.27,9.6.39,14.42a29.88,29.88,0,0,1-.31,5.42c7.57-4.78,9.86-26.83,9.86-26.83s.22,2.55.79,6a59.62,59.62,0,0,1,10.45-29.38C299.33,366.88,301.27,364.53,302.92,362Z"/><path class="cls-11" d="M344.78,337.68c-10-.51-19.92-1.18-29.89-1.67-10.26-.51-20.75.1-30.27,4.32a29.56,29.56,0,0,0-5.95,3.49,45.08,45.08,0,0,0-4.67,4.39c-3.22,3.25-6.53,6.41-9.76,9.66-6.4,6.43-13.15,13.35-17,21.68a27.94,27.94,0,0,0-1.27,3.12,4.33,4.33,0,0,0,.13,2.86c.63,1.87,1.24,3.68,3.51,3.82a9.25,9.25,0,0,0,5.62-2,16.51,16.51,0,0,0,4.77-4.83,1.39,1.39,0,0,0-2.39-1.4,13.26,13.26,0,0,1-3.78,3.83,9.88,9.88,0,0,1-1.88,1.11c-.53.23-1.76.8-2.35.52-.38-.17-.46-.79-.61-1.19a2.81,2.81,0,0,1-.29-2.12,30.06,30.06,0,0,1,2.3-4.95c4.23-7.48,10.45-13.75,16.5-19.77,2.94-2.92,5.94-5.79,8.85-8.75a35.18,35.18,0,0,1,4.34-4,29.32,29.32,0,0,1,5.51-3.11c8.7-3.77,18.38-4.36,27.72-3.92,10.29.49,20.57,1.2,30.87,1.72,1.78.09,1.78-2.68,0-2.77Z"/><path class="cls-11" d="M277,356.49c-3.75,4.73-8,9-11.94,13.61a59.9,59.9,0,0,0-5.69,7.5,23.41,23.41,0,0,0-3.17,10c-.85,7.91-1.14,16-1.33,23.93-.07,2.78.33,5.89,3.18,7.16a7.12,7.12,0,0,0,7.17-1.19c2-1.63,2.87-4.4,3.58-6.82a42.2,42.2,0,0,0,1.64-8.18c.16-1.78-2.61-1.77-2.77,0a38,38,0,0,1-1.19,6.15,18.83,18.83,0,0,1-2.19,5.81,4.46,4.46,0,0,1-5.1,1.72,3.15,3.15,0,0,1-1.54-2.93c-.1-1.63,0-3.3.09-4.93.25-6.9.5-13.86,1.24-20.72a20.38,20.38,0,0,1,3.14-9.16,63.29,63.29,0,0,1,5.13-6.65c3.85-4.48,8-8.7,11.71-13.33,1.1-1.39-.85-3.37-2-2Z"/><path class="cls-11" d="M285.32,360.33c-3.28,6.2-8.9,10.74-12.07,17.05-3,6-4.33,12.61-5,19.24-.33,3.46-.48,6.94-.55,10.42s-.56,7.22.82,10.41c1.15,2.68,3.76,4.67,6.77,4.15,3.37-.59,5.35-3.55,6.47-6.54a115.22,115.22,0,0,0,3.63-12.63q1.62-6.53,2.79-13.14c.32-1.75-2.36-2.5-2.67-.74a196.47,196.47,0,0,1-4.93,21c-.82,2.82-1.48,6.67-4,8.52s-5.21-.08-5.88-2.87c-.72-3-.27-6.39-.19-9.42s.24-6.26.55-9.38c.6-6,1.84-12.16,4.58-17.62,3.16-6.31,8.78-10.86,12.06-17.06.84-1.58-1.56-3-2.39-1.4Z"/><path class="cls-11" d="M302.56,360.43q-5.12,7.8-10.23,15.6c-3,4.52-6,9.28-7.07,14.66-1.12,5.6.13,11.21,2.21,16.43,1,2.58,2.19,5.13,3.44,7.61,1,2,2.59,3.93,5.09,3.81,5.16-.25,7.11-6.65,7.25-10.85.19-5.69-1.83-11.18.64-16.64a51.58,51.58,0,0,1,4.25-7.11q2.25-3.36,4.64-6.63,4.94-6.74,10.47-13,6.06-6.9,12.78-13.18,3.44-3.21,7-6.24c1.83-1.55,4.59-3.89,2.91-6.53-1-1.5-3.35-.11-2.39,1.4.49.78-.94,1.87-1.48,2.32-1,.85-2,1.69-3,2.55q-2.88,2.52-5.67,5.14-5.48,5.18-10.55,10.78a191.65,191.65,0,0,0-18.34,23.82c-2.84,4.36-5,8.71-4.74,14,.19,4.66,1.79,10-.47,14.38-.81,1.58-3.1,4.2-4.89,2.34a10.28,10.28,0,0,1-1.59-2.74c-.6-1.25-1.19-2.51-1.76-3.78-2.14-4.81-3.92-10.05-3.42-15.39.54-5.7,3.76-10.75,6.82-15.43q5.22-8,10.47-16c1-1.5-1.42-2.89-2.4-1.4Z"/><path class="cls-11" d="M310.74,357l4.26-4.26a1.39,1.39,0,0,0-2-2L308.78,355a1.39,1.39,0,0,0,2,2Z"/><path class="cls-11" d="M290.64,355.18l6.62-5a1.49,1.49,0,0,0,.63-.83,1.39,1.39,0,0,0-2-1.57l-6.62,5a1.51,1.51,0,0,0-.64.83,1.43,1.43,0,0,0,.14,1.07,1.41,1.41,0,0,0,1.9.5Z"/><path class="cls-19" d="M260.62,110.56c1.49-7.1,7.52-17.81,10.82-24.27,3.51-6.89-20.33-20.6-14.7-25.77-10.13,5-36.41,20.85-45.33,55.49-2.32,9,6.8,17.67,20.27,30.07a70.31,70.31,0,0,1,10,10.88c-1.35-6.3,15.77-3.91,14.43-10.21C253.45,134.15,258,123.17,260.62,110.56Z"/><path class="cls-20" d="M305.69,89s1.32-8.45,17.68-3.7,126.71,42.24,126.71,42.24"/><path class="cls-21" d="M450.08,132.55s-20.28-6.18-19-11.43,20.65,1.74,20.65,1.74Z"/><path class="cls-22" d="M447.18,118c2.8,1.29,6.39,8.49,3.57,18.35-3.7,12.9-8.38,17.33-14.86,17.54-5.91.2-10.09-4.46-13.18-11.92-3.77-9.12-6.21-20,6-23C439.75,116.27,443.51,116.27,447.18,118Z"/><path class="cls-20" d="M447.18,118c2.8,1.29,6.39,8.49,3.57,18.35-3.7,12.9-8.38,17.33-14.86,17.54-5.91.2-10.09-4.46-13.18-11.92-3.77-9.12-6.21-20,6-23C439.75,116.27,443.51,116.27,447.18,118Z"/><path class="cls-23" d="M351.88,232.94c-24.57-2.84-39.05-18.25-57.9-34.28-14.46-12.29-30.39-41.18-36.52-59.09-1.65,6.58-5.52,39.22-5.18,46,5.27,14,14.76,33.58,30.42,44.23,22.08,15,36.09,29.55,74.63,27.83,23.44-1.05,28.26-9.67,28.84-18.4C377.88,236.37,362.69,234.2,351.88,232.94Z"/><path class="cls-9" d="M358.62,207.41a115.48,115.48,0,0,1-47.21-11.58c-7.32-3.57-14.33-8-20-13.83a40.39,40.39,0,0,1-11.12-21.55c8.28,16.05,22.87,26.31,38.92,32.14,8,2.91,16.25,6.3,24.67,7.65s23.44.63,31.88-.27c28-2.95,51.89-15.37,69.71-37-.36-.7-.84-9.36-1.43-10a41,41,0,0,0-3-2.88c-18.19.13-39.41,6-61.71,8-32.48,2.91-54.56-1-84.65-13.52-4.66-2-13.73-8.7-18.75-9.18s-23.64-11.53-27.17-7.92c-2.63,2.69,6.46,34,5.53,37.68,0,.1,0,.2-.07.29a107,107,0,0,0,31.89,46.37c18.85,16,42.82,25.59,67.39,28.44a106.59,106.59,0,0,0,32.68-1c.37-5.61-1-11.27-.31-15,1.5-8,3.1-15,6.11-19.28l-2.44.32C379.27,206.58,369,207.69,358.62,207.41Z"/><path class="cls-23" d="M393.76,202.92c4.22-3.78,17.16-2.06,33.79-18,15-14.35,21.31-23.47,17.93-30-17.82,21.65-44.1,36.44-72.05,39.39a96.87,96.87,0,0,1-25.4-.56A135.44,135.44,0,0,1,323.41,187c-16-5.83-32.1-13.47-43.11-26.52A40.39,40.39,0,0,0,291.42,182c5.66,5.86,12.67,10.26,20,13.83a115.48,115.48,0,0,0,47.21,11.58c10.33.28,20.65-.83,30.91-2.12L392,205A12,12,0,0,1,393.76,202.92Z"/><path class="cls-3" d="M254.21,165.39a95.62,95.62,0,0,1-4.11-16.72,95.62,95.62,0,0,0,4.11,16.72c0-.09,0-.19.07-.29.93-3.64,2.23-7.34,4.86-10,3.53-3.61,9-4.82,14-4.35s9.77,2.43,14.43,4.37c30.09,12.56,61.54,25.93,94,23,22.29-2,43.48-12.4,59.46-28-9.78-8.65-34-26.44-37.48-30.41-3.88-4.5-13.06-17.4-17.31-22.08s-22.82-23.89-39.19-31.29-48.16-22.87-86.25-7.57c0,0-1.53.56-4.06,1.8-5.63,5.17-10,12-13.47,18.94a82.19,82.19,0,0,0-7.66,20.31c-2.64,12.61-.85,25.72,1.83,38.31,1.35,6.31,2.92,12.58,4.27,18.88,3.62,5.19,4.19,9,6.09,15.24.87,2.83,2.32,7.63,4.48,13.36A69.17,69.17,0,0,1,254.21,165.39Z"/><path class="cls-24" d="M294,129.24a22.57,22.57,0,0,0-.36,4.07c0,10.72,7.28,19.4,16.25,19.4,6.72,0,12.48-4.85,15-11.78A46.35,46.35,0,0,1,294,129.24Z"/><ellipse class="cls-21" cx="305.85" cy="137.26" rx="5.81" ry="8.18"/><ellipse class="cls-24" cx="308.25" cy="144.01" rx="2.4" ry="2.74"/><path class="cls-3" d="M309.9,113.91c-7.8,0-14.32,6.57-15.89,15.33a46.35,46.35,0,0,0,30.85,11.69,22.53,22.53,0,0,0,1.3-7.62C326.16,122.6,318.88,113.91,309.9,113.91Z"/><path class="cls-4" d="M296,143.27a22.23,22.23,0,0,1-2.3-10,22.71,22.71,0,0,1,1.07-6.94"/><path class="cls-4" d="M298.62,119.35a14.93,14.93,0,0,1,11.28-5.44c9,0,16.26,8.69,16.26,19.4,0,7.18-3.27,13.45-8.13,16.81"/><path class="cls-11" d="M293.12,130.05c8.08,8.21,20.38,12.46,31.8,12.1,1.78-.06,1.79-2.84,0-2.78-10.71.34-22.24-3.57-29.84-11.28a1.39,1.39,0,0,0-2,2Z"/><path class="cls-25" d="M309.11,99.26c4.19-.51,2.8,1.24,6.7,7.3s9.37,8.78,15.63,8.6,5.18,6.77,2.08,10.18-15.84,7.56-22.87-6.85S306.84,99.54,309.11,99.26Z"/><path class="cls-20" d="M309.11,99.26c4.19-.51,2.8,1.24,6.7,7.3s9.37,8.78,15.63,8.6,5.18,6.77,2.08,10.18-15.84,7.56-22.87-6.85S306.84,99.54,309.11,99.26Z"/><path class="cls-21" d="M304.22,194.59l2.72,9.23c.62,2.08,1.14,5.82,4.07,5.66,2.22-.12,4.44-2.12,6.12-3.39s3.8-3,6.17-3.2l-1.39-1.39a67,67,0,0,0,4,19.43,1.41,1.41,0,0,0,2.32.61l16.62-15-2.18-.29c3.18,7.15,3.09,15.24,6,22.48.41,1,1.93,1.49,2.53.33l10.34-19.94h-2.4c3.51,7.1,7.34,14,11.15,21a1.4,1.4,0,0,0,1.9.5c1.54-1.16,2-2.82,2.63-4.56.8-2.13,1.65-4.23,2.58-6.31a117,117,0,0,1,6-11.74,1.39,1.39,0,0,0-2.4-1.4,119.38,119.38,0,0,0-5.65,10.89c-.82,1.8-1.59,3.61-2.32,5.45-.37.93-.73,1.87-1.07,2.81-.28.76-.52,1.95-1.2,2.46l1.9.5c-3.81-6.95-7.64-13.89-11.15-21a1.4,1.4,0,0,0-2.4,0L348.8,227.68l2.53.33c-3-7.47-3-15.75-6.29-23.14a1.41,1.41,0,0,0-2.18-.28l-16.62,15,2.32.61a64.65,64.65,0,0,1-3.87-18.69,1.41,1.41,0,0,0-1.39-1.39c-4.29.43-7.05,3.57-10.55,5.69a8.55,8.55,0,0,1-1.26.69c-.63.25-.77.14-1-.48-.48-1.25-.78-2.6-1.15-3.88l-2.44-8.27c-.51-1.71-3.19-1-2.68.73Z"/><path class="cls-4" d="M210.28,121.25c4.55-26,24.54-52.12,52.52-63.37s64.69-5.67,94.72,14.81,34.48,34.05,44.91,45.77,39.81,26.24,43.5,38.21-35,58.22-97.76,49.68-68.3-44.71-68.3-44.71"/><path class="cls-4" d="M393.76,202.92s-7.27,7.86-8,22.89,3.23,32.55-30.82,31.78-65-16.91-82.3-38.29S249.7,182,245.76,163.64"/><path class="cls-11" d="M278.6,163.44c5.58,15.89,14.41,30.73,26.47,42.57a87.19,87.19,0,0,0,45.22,23.87,75.75,75.75,0,0,0,29.4-.34c1.75-.38,1-3-.74-2.68-16.65,3.58-34.29.72-49.49-6.78-14.78-7.29-27-18.94-36-32.67a114.12,114.12,0,0,1-12.15-24.71c-.58-1.67-3.27-.95-2.67.74Z"/><path class="cls-11" d="M385,204.94a50.85,50.85,0,0,0-6,22.34c-.06,1.78,2.72,1.78,2.77,0a47.57,47.57,0,0,1,5.59-20.94c.84-1.57-1.56-3-2.4-1.4Z"/><path class="cls-11" d="M287.76,160.84c-1.76-.6-3.13-2-5-2.45a5.76,5.76,0,0,0-5.45,1.64,13.66,13.66,0,0,0-3.12,5.31,21.16,21.16,0,0,0-1.2,6.86,1.39,1.39,0,0,0,2.77,0,18.83,18.83,0,0,1,.95-5.67,11.35,11.35,0,0,1,2.42-4.41,3,3,0,0,1,3.43-.89c1.56.61,2.82,1.74,4.42,2.28s2.43-2.11.74-2.67Z"/><path class="cls-26" d="M358.92,135.2c-4.31,2.65-13,7.39-12.71,23.23s6.11,23.49,16.14,24.28,21.1-.72,32.47-19.8c7.65-12.84,19.26-39.26,0-36.88S364.59,131.71,358.92,135.2Z"/><path class="cls-20" d="M201.82,113.35s1.32-8.45,17.69-3.69,126.7,42.23,126.7,42.23"/><path class="cls-20" d="M358.92,135.2c-4.31,2.65-13,7.39-12.71,23.23s6.11,23.49,16.14,24.28,21.1-.72,32.47-19.8c7.65-12.84,19.26-39.26,0-36.88S364.59,131.71,358.92,135.2Z"/><path class="cls-21" d="M346.21,156.9s-20.27-6.18-19-11.44,20.66,1.74,20.66,1.74Z"/><path class="cls-21" d="M404.2,128.84c2.35-2.12,4.68-3.83,8-3.93a12.61,12.61,0,0,1,4.88.59c.13,0,.89.47,1,.55s.59.55.84.81c1.23,1.29,3.19-.67,2-2-2.29-2.4-5.47-2.87-8.68-2.77a12.88,12.88,0,0,0-6,1.64,23.36,23.36,0,0,0-4,3.11c-1.33,1.19.64,3.15,2,2Z"/><path class="cls-21" d="M406.34,138.9a17.59,17.59,0,0,1,13.54-4.67,1.39,1.39,0,0,0,1.39-1.38,1.41,1.41,0,0,0-1.39-1.39,20.31,20.31,0,0,0-15.5,5.47c-1.3,1.23.66,3.19,2,2Z"/><path class="cls-11" d="M410.24,169a8.85,8.85,0,0,0,2.34,3.32,5.35,5.35,0,0,0,3.56,1.58,2.41,2.41,0,0,0,2-1.17,2.9,2.9,0,0,0-.24-2.82,8.67,8.67,0,0,0-6.75-4.34,1.41,1.41,0,0,0-1.39,1.39,5,5,0,0,0,2.81,4.46,1.59,1.59,0,0,0,1.07.14,1.44,1.44,0,0,0,.83-.64,1.4,1.4,0,0,0-.5-1.9,3.68,3.68,0,0,1-.44-.23l-.18-.12c-.14-.09.23.21.05,0s-.25-.23-.36-.35-.19-.24-.05-.06,0-.05-.06-.1a3.18,3.18,0,0,1-.23-.4c-.12-.23.09.29,0,0a1.46,1.46,0,0,1-.07-.19c-.05-.15-.06-.31-.11-.45.1.34,0,.17,0,0v-.25l-1.39,1.39.17,0c-.24,0-.24,0-.11,0l.34.07a6.22,6.22,0,0,1,.71.19l.32.11c.32.12-.24-.11.07,0s.44.21.65.33a5.79,5.79,0,0,1,.58.38l.14.1-.07-.06a3.47,3.47,0,0,1,.29.25,5.55,5.55,0,0,1,.49.48c.07.08.14.15.2.23l.11.13c.2.24-.18-.26,0,0a5.57,5.57,0,0,1,.37.57,3.07,3.07,0,0,1,.17.31s.06.15.09.17-.09-.23,0,0c0,.06.08.26,0,.06s0-.07,0,0a.65.65,0,0,1,.1-.36c-.11.18.1-.12.11-.12l-.09.08c.13-.18.26-.18.13-.11.37-.19.26-.09.16-.07s-.2,0,.11,0a2.72,2.72,0,0,0-.28,0l-.14,0s.36.08.16,0l-.25-.06-.14-.05c-.16,0,.3.15.1,0s-.41-.21-.6-.34l-.3-.2-.14-.1.1.08-.1-.08a6.19,6.19,0,0,1-.59-.55,2.52,2.52,0,0,1-.27-.3l-.12-.13c-.13-.16,0-.08,0,0-.13-.23-.31-.43-.44-.66s-.15-.26-.22-.39-.24-.55-.08-.16a1.56,1.56,0,0,0-.64-.83,1.43,1.43,0,0,0-1.07-.14,1.41,1.41,0,0,0-1,1.71Z"/></g><g id="Capa_2" data-name="Capa 2"><path class="cls-27" d="M281.77,367s11.54-3,15.79,4.36l-4.39,5.74s-11.89-6.45-15.76-4.71Z"/><path class="cls-28" d="M281.77,367s11.54-3,15.79,4.36l-4.39,5.74s-11.89-6.45-15.76-4.71Z"/></g></svg>