<svg xmlns="http://www.w3.org/2000/svg" xmlns:xlink="http://www.w3.org/1999/xlink" viewBox="0 0 600 600"><defs><style>.cls-1{fill:#bf66ff;}.cls-2{fill:#007fcc;}.cls-3{fill:#38acc6;}.cls-16,.cls-18,.cls-20,.cls-22,.cls-4,.cls-7{fill:none;}.cls-4{stroke:#1b5186;}.cls-16,.cls-22,.cls-4,.cls-7{stroke-linecap:round;stroke-linejoin:round;stroke-width:2.77px;}.cls-5{fill:#996c36;}.cls-6{fill:#c18d48;}.cls-7{stroke:#030304;}.cls-8{fill:#293077;}.cls-9{fill:#474d9e;}.cls-10{fill:#030304;}.cls-11{fill:#f1f3f3;}.cls-12{fill:#dedbe1;}.cls-13{fill:#1b5186;}.cls-14{fill:#606060;}.cls-15{fill:#282828;}.cls-16{stroke:#000;}.cls-17{fill:#514545;}.cls-19{fill:#0080ca;}.cls-20{stroke:#6fb7d6;stroke-miterlimit:10;stroke-width:0.56px;}.cls-21{fill:#027ecb;}.cls-22{stroke:#1d1d1b;}.cls-23{fill:#1d1d1b;}.cls-24{fill:url(#Degradado_sin_nombre_19);}.cls-25{fill:#dedce0;}.cls-26{fill:#f2f3f2;}.cls-27{fill:#6fb7d6;}.cls-28{fill:url(#Degradado_sin_nombre_19-2);}.cls-29{fill:#3c3c3b;}</style><linearGradient id="Degradado_sin_nombre_19" x1="4816.61" y1="171.18" x2="4807.12" y2="131.62" gradientTransform="matrix(-1, 0, 0, 1, 4985.13, 0)" gradientUnits="userSpaceOnUse"><stop offset="0" stop-color="#4baef9"/><stop offset="1" stop-color="#fbe05d"/></linearGradient><linearGradient id="Degradado_sin_nombre_19-2" x1="4755.68" y1="185.8" x2="4746.19" y2="146.24" xlink:href="#Degradado_sin_nombre_19"/></defs><g id="Capa_3" data-name="Capa 3"><g id="a"><rect class="cls-1" width="600" height="600"/></g></g><g id="Capa_2" data-name="Capa 2"><path class="cls-2" d="M396.29,145s6.88,4.09,16,10.73c2.8,9.61,12.39,14.58,15.43,24.31,2.58,8.26,3.09,9.06,8.44,15.87,4.82,6.13,9.93,15.57,15.17,21.35,2.69,3,3.21,14,5,17.54,2.06,4.1,2.16,11.41,2.77,16,1.31,9.77-.22,17.66,1,27.45-5.51-13.08-17.36-35.84-34.51-40-24.35-5.94-36.31-1.78-36.31-1.78Z"/><path class="cls-3" d="M453,235.56c-1.8-3.58-4.58-6.56-7.28-9.53q-7.86-8.67-15.1-17.88c-5.34-6.8-10.51-14-13.09-22.25-3-9.72-2.39-20.58-5.19-30.19,17,12.33,41.72,33.43,44.81,53.44,4.75,30.8,6.53,78.31,6.53,78.31s-1.19-3.78-3.5-9.27c-1.24-9.79-2.56-19.56-3.87-29.34C455.67,244.3,455,239.66,453,235.56Z"/><path class="cls-4" d="M396.29,145s56.07,33.37,60.83,64.17,6.53,78.31,6.53,78.31-13.66-43.35-38-49.29-36.31-1.78-36.31-1.78Z"/><path class="cls-5" d="M140.52,390.43c1.3-3.55,10.11-18.1,11.06-21.76,1.71-6.56,7.49-21.5,10.95-27.33,3-5.13,5.12-14.54,10.28-17.54s12.79-6.21,14.25-12c1.13-4.49,2.68-1.68,3.5-6.24.69-3.85,6.39.12,8.74-3,6.55-8.68,14.33-16.4,20.48-25.36,4.95-7.23,8.84-15.6,9.52-24.23a24.73,24.73,0,0,1,2.49,5.61c3.51,11.65,1.43,24.33-2.78,35.74-3.82,10.34-9.3,20-14.77,29.54-4.91,8.62-10.94,16.69-14.75,25.86-13.53,32.54-29.5,51.94-42,57.81C155.65,398.67,137.42,398.94,140.52,390.43Z"/><path class="cls-6" d="M137.85,369.39c3.22-14.55,8.88-26.79,18.44-45.14,12.79-24.56,5.23-24.29,17.44-48.71s44.19-30.23,44.19-30.23l-1.83-.36c5.51-.76,10.23,3.06,13.21,8-.68,8.63-4.57,17-9.52,24.23-6.15,9-13.93,16.68-20.48,25.36-2.35,3.12-4.6,6.5-5.29,10.34-.81,4.57.64,9.36-.49,13.85-1.45,5.79-6.78,9.68-11.94,12.67s-10.81,5.87-13.86,11c-3.46,5.83-2.73,13.16-4.44,19.72-.95,3.66-2.66,7.07-4,10.63a49.12,49.12,0,0,0-1.81,26.75C142.52,414.58,132.55,402.1,137.85,369.39Z"/><path class="cls-7" d="M216.09,245c7.49-1,13.52,6.4,15.7,13.63,3.51,11.65,1.43,24.33-2.78,35.74-3.82,10.34-9.3,20-14.77,29.54-4.91,8.62-10.94,16.69-14.75,25.86-29.79,71.63-71.35,79.6-61.64,19.67,3.22-14.55,8.88-26.79,18.44-45.14,12.79-24.56,5.23-24.29,17.44-48.71s44.19-30.23,44.19-30.23"/><path class="cls-8" d="M294.41,597.59c-1-.34-7.58-6.71-8.31-7.52-1-1.14-2.16-12.23-2.18-13.75-.14-14.75-3.56-3.81-.79-18.3-24.85,7-19.16,16.08-41.34,2.87.4,13.92-2.07,15.62-4.23,29.38-.15,1-10.19,2.63-10.71,3.46-1.93,3.06-9.46,4.17-12.66,2.47-5.5-2.93-12.31-15-17.67-18.2L195,486.41s79.41,19.78,101.47,17.41,124.74,6.35,124.74,6.35c-2.59,23.12-5.61,60.24-7.43,82-16.57,5-47.94,8-56,9.79C338,606.41,313.7,603.82,294.41,597.59Z"/><path class="cls-9" d="M212.81,572.09c3.19,1.7,7.88,3,9.82,0a7.24,7.24,0,0,0,.84-2.79,227.43,227.43,0,0,0,2.64-41.63c22.17,13.21,50.36,9.78,75.21,2.82a221.72,221.72,0,0,0-4,44c0,1.53.1,3.19,1.12,4.33a6.21,6.21,0,0,0,2.86,1.53c19.29,6.24,42.82,15.61,62.6,11.14,8-1.81,34.23-10.5,50.8-15.49-.88,10.56-1.7,21.3-2.5,32.57H197.43l-.91-45.62Q204.56,567.68,212.81,572.09Z"/><path class="cls-10" d="M323.76,519.56c-15.58,7.46-32.22,13.44-49.52,15-15,1.38-30.51-.73-44.12-7.5a61.82,61.82,0,0,1-19.37-14.85c-1.17-1.36-3.13.61-2,2,9.91,11.46,24,18.66,38.67,21.74,16.47,3.46,33.52,1.68,49.57-3a184.78,184.78,0,0,0,28.14-11c1.61-.77.2-3.16-1.4-2.4Z"/><path class="cls-10" d="M246.74,536.32l-.27,17.43c-.07,5-.34,10,.31,14.89.59,4.47,2.05,8.83,5.19,12.15,1.7,1.8,3.76,3.19,5.48,5a15.37,15.37,0,0,1,3.52,5.83c1.68,4.9,1.53,10.22,1.34,15.33-.07,1.78,2.71,1.78,2.77,0a53.37,53.37,0,0,0-.77-13.71,20.48,20.48,0,0,0-7.08-11.4,22.93,22.93,0,0,1-5.07-5.29,19.3,19.3,0,0,1-2.3-6.15c-1-4.71-.72-9.62-.64-14.4l.3-19.64a1.39,1.39,0,0,0-2.78,0Z"/><path class="cls-10" d="M259.14,536.35a235.38,235.38,0,0,0,.44,42.72c.18,1.76,3,1.78,2.78,0a235.38,235.38,0,0,1-.44-42.72c.14-1.78-2.64-1.77-2.78,0Z"/><path class="cls-10" d="M419.83,510.17q-4.26,38-7.32,76.21-.87,11.07-1.65,22.15l1.38-1.39H206.16c-2.76,0-5.61-.21-8.36,0h-.37l1.39,1.39-.24-12.13L198,567.26,197.3,532l-.61-30.5-.2-10.13a37.47,37.47,0,0,0-.09-4.74,1.62,1.62,0,0,1,0-.22l-1.76,1.34c3.37.84,6.74,1.64,10.12,2.43q12.21,2.88,24.49,5.51c10,2.14,20,4.15,30.06,5.89a269.62,269.62,0,0,0,27,3.6,62.14,62.14,0,0,0,9.55.08c2.49-.21,5-.37,7.45-.42,7.63-.16,15.27.09,22.9.39,9.71.38,19.41.92,29.11,1.51s19.6,1.26,29.39,2q11.88.87,23.76,1.81,6.11.48,12.2,1l.55.05c1.78.15,1.77-2.63,0-2.78q-4.23-.36-8.48-.69-10.73-.87-21.48-1.67-14.2-1.05-28.42-2c-9.91-.64-19.82-1.23-29.74-1.69-8.32-.38-16.66-.71-25-.73-2.94,0-5.89,0-8.83.19-2.55.15-5.06.44-7.61.42-8.22-.08-16.45-1.29-24.56-2.56C257,498.49,247,496.56,237,494.5q-13.31-2.76-26.53-5.83-7.23-1.67-14.44-3.43l-.67-.17a1.41,1.41,0,0,0-1.76,1.34l.24,12.13.58,29.13.7,35.26.6,30.51c.1,4.95,0,9.93.3,14.87v.22a1.4,1.4,0,0,0,1.39,1.38H403.51c2.79,0,5.58.07,8.37,0h.36a1.41,1.41,0,0,0,1.39-1.38q2.7-38.19,6.59-76.28,1.15-11,2.39-22.08C422.81,508.4,420,508.41,419.83,510.17Z"/><path class="cls-11" d="M335.92,250.09c10.53-25.36,21.15-51.13,27.35-77.74-.14,2.8-.36,5.6-.68,8.39-1.72,14.87-6.23,29.26-10.71,43.54q-6.27,20-12.53,39.94c-2.46,7.85-4.93,15.7-7.87,23.38-.4,1-.81,2.09-1.23,3.13-7.83,5.86-15,11.16-20.72,15.48,2.39-4.13,4.7-8.3,6.88-12.55C323.71,279.51,329.82,264.79,335.92,250.09Z"/><path class="cls-12" d="M259.92,365.59c-2.06,6.79-17.28-60.19-17.28-60.19l2.7-31.38q0-29.25,0-58.5c0-14.36,0-28.8,2.29-43,3.75-23.44,14-46.17,30.92-62.79S319.4,83.12,343,85.14c1.07.09,2.14.21,3.2.36,7.11,15.62,11.73,32.64,14.47,49.54a179.65,179.65,0,0,1,2.56,37.31c-6.2,26.61-16.82,52.38-27.35,77.74-6.1,14.7-12.21,29.42-19.51,43.57-2.18,4.25-4.49,8.42-6.88,12.55-5.4,4.06-9.59,7.25-12,9.22C282.76,327.58,260,365.28,259.92,365.59Z"/><path class="cls-2" d="M371.71,226.77c-.35-10.76-2.92-21.34-3.61-32.09-1.74-27,8.38-53.81,5.75-80.72a97.61,97.61,0,0,0-4.56-21c12.91,6.8,23.64,17.58,29.29,31,3.42,8.12,5,16.88,6.35,25.58a631.61,631.61,0,0,1,7.11,73.8c-7,8.85-25.33,24.09-45.42,39.77C369.6,251.12,372.1,239,371.71,226.77Z"/><path class="cls-3" d="M339.35,264.22q6.27-20,12.53-39.94c4.48-14.28,9-28.67,10.71-43.54,1.76-15.2.57-30.6-1.88-45.7-2.74-16.9-7.36-33.92-14.47-49.54a69.49,69.49,0,0,1,23.05,7.41,97.61,97.61,0,0,1,4.56,21c2.63,26.91-7.49,53.74-5.75,80.72.69,10.75,3.26,21.33,3.61,32.09.39,12.26-2.11,24.35-5.09,36.29-12.17,9.5-25,19.17-36.37,27.67.42-1,.83-2.08,1.23-3.13C334.42,279.92,336.89,272.07,339.35,264.22Z"/><path class="cls-13" d="M413.43,223.29q-1.05-27.79-4.52-55.43c-1.14-9-2.34-18-4-27-1.53-8-3.75-15.93-7.71-23.1-6.65-12-17.47-21.59-29.85-27.45a72.23,72.23,0,0,0-42-6,87.32,87.32,0,0,0-41.45,18.75c-11.92,9.67-21.21,22.41-27.64,36.3C249.4,154.2,245.9,170,244.7,186.19,244,195.43,244,204.7,244,214s0,18.79,0,28.18v27.93c0,3.09-.18,6-.45,9.11l-2.09,24.36a7.9,7.9,0,0,0,.16,3.18q1,3.4,2,6.8c2.36,7.7,4.87,15.37,7.77,22.88A107.52,107.52,0,0,0,256,346.9c1.1,2.14,2.39,4.69,4.42,6.12a3.09,3.09,0,0,0,4.72-1.3c.16-.29.27-.6.4-.9,0-.06-.17.26,0,0-.2.26-.08.11.07-.08l.47-.57c1.07-1.32,2.17-2.62,3.27-3.91A267.2,267.2,0,0,1,295.53,319c4.93-4.34,10-8.05,15.3-12q11.39-8.54,22.81-17,13.55-10.14,27-20.45c8.81-6.79,17.56-13.66,26.14-20.74,6.93-5.72,13.83-11.54,20.23-17.87a74,74,0,0,0,6-6.59c1.11-1.38-.85-3.36-2-2-4.38,5.49-9.75,10.24-15,14.87-7.54,6.65-15.36,13-23.24,19.25-8.82,7-17.76,13.86-26.74,20.67Q333.56,286.58,321,296c-6.28,4.68-12.57,9.34-18.78,14.1a181.69,181.69,0,0,0-20.39,18.34Q275.4,335,269.39,342q-2.06,2.36-4.06,4.74a29.21,29.21,0,0,0-2.17,2.68c0,.06-.09.11-.12.16a3.56,3.56,0,0,0-.17.41c-.15.31.05-.08-.09.2s-.19.36-.29.53.12,0-.21.23c-.1.07.23,0-.14.07.14,0,.3-.07.1-.05s.18-.13.09,0-.37,0,0,0,0,0-.08,0c.09.05.11.09-.17-.09s0,0-.24-.17l-.46-.45a7,7,0,0,1-.88-1.08,32,32,0,0,1-2.08-3.53c-3.58-6.91-6.11-14.41-8.57-21.77q-2.94-8.74-5.51-17.61c-.11-.38-.23-.77-.33-1.16.13.48,0,.35.08,0s.07-.82.1-1.23l.93-10.82,1.12-13c.21-2.43.51-4.86.51-7.29l0-55.08c0-17.59-.13-35.36,3.75-52.62a115.11,115.11,0,0,1,18.07-41.39,90.73,90.73,0,0,1,34.29-29.29c13.37-6.47,28.7-9.52,43.49-7.44A68.19,68.19,0,0,1,382.68,104a60.18,60.18,0,0,1,12.45,15.92c3.82,7.14,5.84,15,7.29,23a534.74,534.74,0,0,1,6.7,54.11q1,13.14,1.54,26.33C410.72,225.07,413.5,225.08,413.43,223.29Z"/><path class="cls-13" d="M402.36,201l-20.55,20.05S399.64,218.18,402.36,201Z"/><path class="cls-13" d="M399.52,185.87l-20.54,20S396.81,203,399.52,185.87Z"/><path class="cls-13" d="M396.85,170l-20.54,20S394.14,187.14,396.85,170Z"/><path class="cls-14" d="M232.43,466.65c.58-5,1.4-10.09,4-14.41l21.49,15.54C270.6,477,283.46,486.24,298,492.14c10.77,4.37,22.66,6.74,34.12,5.58-5.78,9.38-10.62,15.67-10.62,15.67s-32.74,7.56-60.12,11.05c-10.15,1.29-20-3.11-28.47-9.15A195.49,195.49,0,0,1,232.43,466.65Z"/><path class="cls-15" d="M352.89,352.7a175,175,0,0,0-32.21,16,228.47,228.47,0,0,0-.61-47.42c-.25-2.11-.67-4.47-2.41-5.68-1.41-1-3.28-.9-5-.71-23.74,2.64-44.9,21.18-50.62,44.37a272.58,272.58,0,0,0-24.38-60.6c-1.4-2.56-3.09-5.3-5.87-6.21-3.9-1.27-7.82,1.68-10.4,4.93,5.37-13.05,11.93-23.18,18.94-29.05l21.82,88.77s7.9-47.75,47.71-65.19,92.82-58.14,92.82-58.14,11.51-2.9,6.86,19.19-22.67,58.14-33.72,91.86q-1.45,4.45-3,9a14.3,14.3,0,0,0-6.13-3.2C362.13,349.55,357.33,351,352.89,352.7Z"/><path class="cls-14" d="M207.82,364.56c1-25.62,6.18-49.2,13.59-67.21,2.58-3.25,6.5-6.2,10.4-4.93,2.78.91,4.47,3.65,5.87,6.21a272.58,272.58,0,0,1,24.38,60.6c5.72-23.19,26.88-41.73,50.62-44.37,1.7-.19,3.57-.26,5,.71,1.74,1.21,2.16,3.57,2.41,5.68a228.47,228.47,0,0,1,.61,47.42,175,175,0,0,1,32.21-16c4.44-1.66,9.24-3.15,13.86-2.09a14.3,14.3,0,0,1,6.13,3.2C362.54,385.29,351.42,420,351.42,446c0,8.42-2.61,17.75-6.3,26.72-15-6.36-28.26-16.51-40.41-27.45-14.51-13.07-27.83-27.49-43.17-39.58-9.12-7.17-19.93-13.76-31.49-12.75-9.25.81-17.34,6.56-22.86,14.17C207.18,391.72,207.34,376.73,207.82,364.56Z"/><path class="cls-15" d="M230.05,392.89c11.56-1,22.37,5.58,31.49,12.75,15.34,12.09,28.66,26.51,43.17,39.58,12.15,10.94,25.45,21.09,40.41,27.45a176.93,176.93,0,0,1-13,25.05c-11.46,1.16-23.35-1.21-34.12-5.58-14.52-5.9-27.38-15.17-40.09-24.36L236.4,452.24c-2.57,4.32-3.39,9.42-4,14.41a195.49,195.49,0,0,0,.46,48.64C218.59,505,208.49,490,208.49,490s-1.27-42.65-1.3-82.95C212.71,399.45,220.8,393.7,230.05,392.89Z"/><path class="cls-16" d="M402.7,233.74s11.51-2.9,6.86,19.19-22.67,58.14-33.72,91.86S351.42,417.46,351.42,446s-29.94,67.44-29.94,67.44-41.18,13.21-67.1,11.08C226.87,522.21,208.49,490,208.49,490s-2.41-81.27-.67-125.45,15.85-82.3,32.53-96.26l21.82,88.77s7.9-47.75,47.71-65.19S402.7,233.74,402.7,233.74Z"/><path d="M257.81,363.83q-3.26,31.28-4.75,62.7Q251.62,457.73,252,489q.22,17.76,1,35.51c.08,1.78,2.85,1.79,2.77,0q-1.37-31.43-1-62.87.42-31.23,2.67-62.39,1.28-17.71,3.12-35.38c.18-1.77-2.59-1.76-2.77,0Z"/><path class="cls-5" d="M421.73,283.51c-.2.33-.39.67-.6,1-4.28,6.9-8,14.91-13.12,21.23-4.17,5.2-9.74,8.7-13.72,14.05-7.32,1.71-30.18,7.43-43.24,15.17,13.06-7.74,35.92-13.46,43.24-15.17-16,21.48-16.55,54.61-31,77.13-2.73,4.25-19.39-2-21.24,2.66-2.19,5.56-3.5,12.19-8.6,15.31.73-10.2-13.41-25.33-8.95-34.54,3.61-7.45,9.24-18.29,13.65-25.29s2.57,2.95,1.38-5.24c-.09-.67,1.72,8.39,1.21,7.95s-3.62-8-4.32-7.95c-2.71.18,10.57-3.43,7.86-3.47s-5.21-8.37-5.34-11.08c-.12-2.35,6-16.21,7.91-17.6,9.86-7.18,19.13-22.47,30.47-26.94,5.49-2.17,6.39-12.54,10.88-16.39,4.77-4.09,5.76,2.92,8.45-2.76,4.51-9.54-3.47-1,1-10.49,3.2-6.76,17.46-16.5,18.2-23.94.57-5.66,6.72-11.51,3.5-16.07,4.85,2.64,12.82,8.81,14.24,16.79a34,34,0,0,1,.43,3.49,103.2,103.2,0,0,1-3.91,23.47c-.39,1.22-.81,2.43-1.25,3.63A125.33,125.33,0,0,1,421.73,283.51Z"/><path class="cls-17" d="M421.73,283.32a125.24,125.24,0,0,0,7.15-15A85.86,85.86,0,0,1,421.73,283.32Z"/><path class="cls-6" d="M428.88,268.28c.84-1.2,3.83-11.72,5.27-11.94,2-.29,7.09-4.31,8.23-2.67,9.29,13.36,29.39,20.82,28.49,37.06-.32,5.6,3.17,21.62,1.38,26.94-5.8,17.19-4.82,44.4-18.79,56-8.87,7.34-25.52,46.13-35.41,52s-22.12-2.17-26.91,8.31c-5.07,11.11-21.94,8-26.89,19.17-7,15.8-24,24.32-40.12,30.61-3.65,1.42-7.36,2.83-11,4.31,3.24-40.77,10.44-111.81,16.16-134.7,6.69-26.74,28.78-57,38.45-75s29.86-28.49,38-37.22,6.73-22.08,6.73-22.08a31,31,0,0,1,9.79,3.36c3.22,4.57,4.38,10.65,3.82,16.31-.75,7.44-4,14.37-7.19,21.12q-6.77,14.31-13.54,28.6c-2.69,5.69-5.51,11.55-10.28,15.64-4.49,3.84-10.26,5.76-15.75,7.92a144.35,144.35,0,0,0-32,17.57c-1.91,1.38-4,3.21-3.86,5.56.13,2.71,3.18,4.4,5.89,4.44s5.33-1,8-1.17a2.77,2.77,0,0,1,2,.45,2.83,2.83,0,0,1,.76,1.82c1.19,8.2-2.25,16.38-6.66,23.39s-9.87,13.38-13.47,20.83c-4.46,9.21-5.86,19.58-6.59,29.79,5.1-3.13,6.41-9.75,8.6-15.31a77.47,77.47,0,0,1,7.33-13.24c14.47-22.52,29-45.08,44.93-66.55,1.49-.35,2.34-.53,2.34-.53,11-13.21,19.24-25.13,25.1-35.76a85.86,85.86,0,0,0,7.15-15c.28-.72.55-1.42.81-2.12"/><path class="cls-17" d="M430.13,264.64c-.15.51-.29,1-.44,1.52-.26.7-.53,1.4-.81,2.12C429.32,267.07,429.74,265.86,430.13,264.64Z"/><path class="cls-18" d="M429.69,266.16a103,103,0,0,0,4.35-25C434.55,247.93,433.32,256.27,429.69,266.16Z"/><path class="cls-5" d="M364.25,453.16c4.95-11.17,4-24.28,9.07-35.39,4.79-10.48,14.38-17.94,24.28-23.84S418.12,383.2,427,375.85c14-11.57,22.47-28.49,28.28-45.68,1.79-5.31,3.37-10.76,3.69-16.36.9-16.24-8.8-31-18.09-44.31-1.13-1.64-2.7-3.48-4.68-3.18-1.44.21-2.44,1.51-3.27,2.7L422,284.61a100.23,100.23,0,0,0,7.68-18.45c3.63-9.89,4.86-18.23,4.35-25v0c25.11,22,47.83,49.43,50.15,67.45s-26.74,72.1-38.95,117.44-18.93,118.37-18.93,118.37c-55,51.74-117.38,27.91-117.38,27.91s.85-33.49,2.89-66.63c.29-4.77.73-10.77,1.27-17.62,3.68-1.48,7.39-2.89,11-4.31C340.22,477.48,357.25,469,364.25,453.16Z"/><path class="cls-7" d="M434,241.16c25.11,22,47.83,49.43,50.15,67.45s-26.74,72.1-38.95,117.44-18.93,118.37-18.93,118.37c-55,51.74-117.38,27.91-117.38,27.91s.85-33.49,2.89-66.63,10.75-125.58,17.43-152.32,28.78-57,38.45-75,29.86-28.49,38-37.22,6.73-22.08,6.73-22.08,18.27,2.33,21.18,18.6-5.37,43.61-37,81.4c0,0-29.88,6.39-45.58,15.7"/><path class="cls-10" d="M367.51,327.15l-1.74,32.33c-.58,10.72-1,21.46-1.74,32.17a13,13,0,0,1-2,6.74,51.36,51.36,0,0,1-4.79,5.44q-4.83,5.3-9.36,10.87A252.85,252.85,0,0,0,315.48,466c-.76,1.6,1.63,3,2.4,1.4a252,252,0,0,1,30.74-49.19q4.54-5.68,9.42-11.1c3-3.37,7-6.61,8.16-11.16a37,37,0,0,0,.78-7.35l.44-8.21.89-16.42,2-36.81c.09-1.79-2.68-1.78-2.78,0Z"/><path class="cls-6" d="M190.85,417.19c4.46-.64,18.58,2.57,21.44,6.05,1.86,2.27,7.77,7.42,7.94,10.35,1.07,18.56-4.27,40.6-5.74,59.14-.8,10.09-1.77,50.09-2.57,60.18-6.46-1.26-19.32-3.68-24.91-7.15,2.39-16.39.1-59.39-1.07-75.91-.9-12.81-1.11-25.65-.95-38.49C188.15,430.48,187.6,417.65,190.85,417.19Z"/><path class="cls-5" d="M212.91,328.94c-.09,4.84-6.33,23.13-7.92,27.7-3.52,10.18-13.64-.46-17.34,9.66,1-18.24,2.57-36.46,6-54.39.91-4.75,6.23-23.74,7.45-28.43,1,4,5.07,11.77,6.07,15.79S213,324.89,212.91,328.94Z"/><path class="cls-5" d="M209.55,440.59c-.17-2.93-.48-6.07-2.35-8.33-2.86-3.49-8.12-3.55-12.59-2.92a75.43,75.43,0,0,0-9.62,2c.2-15.92,1-31.85,1.76-47.75.29-5.77.57-11.54.9-17.31q5.55-15.18,10.84-30.46c1.59-4.57,3.17-9.24,3.26-14.08.07-4.06-.92-8.05-1.89-12l-3-12c4.83-18.63,12.18-36.61,23.23-52.31.86-1.22,1.94-2.53,3.43-2.63,2.09-.13,3.42,2.15,4.23,4.09q4,9.57,8.05,19.15c2.9,6.91,1.91,8.38-.69,15.26a152.59,152.59,0,0,0-8.31,35.6c-3,24.31-1.71,48.86-2,73.27-.26,23.9-2,47.75-3.81,71.58,0,11.49-1.73,23.26-2.58,34.72-.68,9.07-4.74,49.6.37,57.39a54.29,54.29,0,0,1-13.52-.94c.8-10.09,1.6-46.53,2.4-56.62C209.15,477.75,210.62,459.15,209.55,440.59Z"/><path class="cls-10" d="M219.63,461.74c0,10-1.28,20-2.18,30-.43,4.74-.8,9.49-1.17,14.23-.93,11.71-1.82,23.55-1.26,35.29.2,4.23.24,9.62,2.6,13.33l1.19-2.09a53.87,53.87,0,0,1-31.1-7.9l.64,1.56c1.62-11.32,1.2-23,1-34.41-.29-12.45-.87-24.89-1.66-37.31-1.14-17.74-1.54-35.43-1.06-53.21.51-19.59,1.49-39.2,2.69-58.77,2.24-36.42,7-74,25.57-106.19q1.5-2.6,3.11-5.12a47,47,0,0,1,4-5.79c.63-.72,1.42-1.44,2.42-1a3.92,3.92,0,0,1,1.46,1.66,57.5,57.5,0,0,1,3,6.87c1.9,4.5,3.82,9,5.68,13.52,1.33,3.21,2.2,6.12,1.14,9.53-1.26,4.1-3,8-4.28,12.15-1.37,4.44-2.51,9-3.45,13.52a210.31,210.31,0,0,0-3.65,28.07c-1.33,19.53-.61,39.11-.76,58.66s-1.35,39.31-2.76,58.93q-.52,7.25-1.07,14.48c-.13,1.79,2.65,1.78,2.78,0,1.51-20.33,3-40.68,3.6-61.07.56-20-.24-40,.44-60,.65-19.39,2.77-39,9.39-57.35,1.18-3.26,2.94-6.62,3.1-10.14.18-4-1.95-7.87-3.45-11.44q-2.85-6.77-5.69-13.52c-1.21-2.89-3-7.7-7.09-6.68a6.63,6.63,0,0,0-3.55,2.84c-1.39,1.87-2.65,3.84-3.9,5.81q-3.63,5.76-6.69,11.85a170.15,170.15,0,0,0-9.95,24.6c-5.73,17.92-8.73,36.57-10.54,55.26-1.92,19.8-2.69,39.72-3.56,59.59-.89,20.11-1.43,40.26-.44,60.38,1.26,25.58,3.78,51.3,2.21,76.94-.13,2.2-.3,4.41-.62,6.6a1.46,1.46,0,0,0,.64,1.56,56.51,56.51,0,0,0,32.5,8.29,1.4,1.4,0,0,0,1.2-2.09c-1.93-3-2-7.62-2.17-11.13-.32-5.77-.2-11.55,0-17.32.4-9.83,1.26-19.62,2-29.43.88-11.17,2.46-22.3,2.49-33.53A1.39,1.39,0,0,0,219.63,461.74Z"/><path class="cls-10" d="M227.19,248.64a246.6,246.6,0,0,0-14.61,27.48q-1.56,3.45-3,6.94a49.2,49.2,0,0,0-2.72,7c-.58,2.38.37,4.41,1.6,6.4s2.49,3.74,3.79,5.57c3,4.18,6,8.42,7.4,13.43a1.39,1.39,0,0,0,2.68-.74,38.17,38.17,0,0,0-5.79-11.41c-1.25-1.8-2.54-3.56-3.78-5.36s-3.1-3.91-3.31-6a7.08,7.08,0,0,1,.8-3.16q.72-1.83,1.47-3.66,1.44-3.49,3-6.93,3-6.78,6.5-13.38,3.94-7.51,8.4-14.74c.94-1.52-1.46-2.92-2.4-1.4Z"/><path class="cls-10" d="M214.72,305.19l-15.06,57c-1.21,4.58-2.82,9.24-3.34,14s1.08,8.86,2.57,13.11l9.83,28,11,31.29c.58,1.67,3.27,1,2.67-.74q-9.62-27.41-19.24-54.82c-.79-2.26-1.59-4.51-2.37-6.77a28.85,28.85,0,0,1-1.73-6.84c-.38-4.57,1.39-9.21,2.54-13.56l7.4-28,8.42-31.87a1.39,1.39,0,0,0-2.67-.74Z"/><path class="cls-14" d="M409.4,221.79s-1.62,5.82-16.34,17.83-59.21,37-71.71,43c-23,11.05-55.17,35.92-60.2,69.64,0,0-5.19-34-8.79-49.35-3.33-14.23-11.76-32.69-8.78-49.35,0,0-7.89,3.1-12.92,13.17s-3.41,29.46-3.41,29.46,4-21.65,12.32-16.28,20.35,85.66,20.35,85.66,9.49-50,51.35-72.09c0,0,10.08.77,11.24,17.44,0,0,31-16.28,51.94-36.05S416.05,235.75,409.4,221.79Z"/><path class="cls-16" d="M409.4,221.79s-1.62,5.82-16.34,17.83-59.21,37-71.71,43c-23,11.05-55.17,35.92-60.2,69.64,0,0-5.19-34-8.79-49.35-3.33-14.23-11.76-32.69-8.78-49.35,0,0-7.89,3.1-12.92,13.17s-3.41,29.46-3.41,29.46,4-21.65,12.32-16.28,20.35,85.66,20.35,85.66,9.49-50,51.35-72.09c0,0,10.08.77,11.24,17.44,0,0,31-16.28,51.94-36.05S416.05,235.75,409.4,221.79Z"/><path class="cls-6" d="M176.31,410.05c-8.16,1.8-23.06,3.19-31.26,1.58-7.59-1.49-7.16-21.51-8.89-28.89.3-2.21.57-4.45.76-6.71,1.73-19.92,49.48-26.21,49.48-26.21,41.08-21.2,53.27-9.18,53.27-9.18-7.59-5.18-6.39,11.32-2.89,23.51.88,3.06,6.82,17.9,8.17,21.07-5.32,3.44-13.73,6-19.58,8.41C210.72,399.61,191.76,406.63,176.31,410.05Z"/><path class="cls-5" d="M136.16,382.74c1.73,7.38,9.1,12.76,16.69,14.25,8.2,1.61,16.63-.28,24.79-2.08,15.45-3.42,31.07-6.57,45.72-12.55a103.66,103.66,0,0,0,16.88-8.71,176.73,176.73,0,0,0,9.09,18s-39.68,8.41-51.39,14-36,13.37-53,11.06C129.8,414.73,133.85,399.94,136.16,382.74Z"/><path class="cls-7" d="M138.27,371.27c-1.09,4.91-.56,3-1.14,8.79l-.21,1.88"/><path class="cls-7" d="M136.92,381.94c-2.39,21.66-6.8,33.8,12.41,35.49,19.77,1.75,36-9.3,57-13.95s43-11.81,43-11.81-30.23-56-8.72-49.41c0,0-3.49-12.38-35.46,0s-50.58,28.64-50.58,28.64"/><path class="cls-10" d="M184.4,348.48a99.87,99.87,0,0,0-26.94,8.09c-1.62.75-.21,3.14,1.4,2.4a97.29,97.29,0,0,1,26.28-7.81c1.76-.27,1-2.94-.74-2.68Z"/><path class="cls-3" d="M198.17,351.79c-8-2.08-12-4.2-20.09-3,.55-2.67,2.63-12.86,3.89-15.28,3.46-6.67,10.09-11.4,17.32-13.44s15-1.59,22.28.31a58.62,58.62,0,0,1,33.24,23.35l-.53-.37c-4.29,5.53-15.84,18.31-20.7,23.34-1.46-.74-9.56-2.12-11-2.9C212.29,358.17,209.55,354.76,198.17,351.79Z"/><path class="cls-19" d="M204,342.86c11.38,3,21.94,8.41,32.25,14.07,1.42.78,2.86,1.57,4.32,2.31a193,193,0,0,1-14.42,13.45c-2,1.71-4.37,3.47-7,3.33s-4.73-2.09-6.68-3.86a95.33,95.33,0,0,0-34.33-19.92,82.84,82.84,0,0,1,1.27-11A61.67,61.67,0,0,1,204,342.86Z"/><path class="cls-13" d="M256,343.06a60.45,60.45,0,0,0-32.56-23.58c-13.74-4-30.55-2.65-40,9.31-5.32,6.72-6.17,15.19-6.74,23.45a1.43,1.43,0,0,0,1,1.34,94.09,94.09,0,0,1,32.77,18.71c2.13,1.88,4.25,4.15,7.1,4.89s5.79-.59,8.12-2.38a144.32,144.32,0,0,0,14.67-13.41,192.53,192.53,0,0,0,14.89-17c1.09-1.39-.86-3.37-2-2a193.74,193.74,0,0,1-26.79,28.13c-2,1.72-4.53,4.31-7.42,4.09s-5.22-3.07-7.29-4.86a96.49,96.49,0,0,0-33.35-18.87l1,1.34c.48-7,1-14.29,5-20.26a26.94,26.94,0,0,1,14.43-10.33c13.21-4.09,28.15.35,39.34,7.78a56.94,56.94,0,0,1,15.33,15c1,1.46,3.42.08,2.4-1.4Z"/><path class="cls-6" d="M484.32,329.73c.53,13.54-5.56,32.39-12.66,43.92-3.56,5.77-14.1,16.73-19.39,21-4.22,3.39-14.92,26.56-20,28.49-14.14,5.38,1.72-17.25-13.25-15,8.15,3.55-31.78,40.43-23,39.37-14.29,10.25-27,14.44-42.53,22.75-9.12,4.88-18.85,7.68-28.91,10.09-1.26.3-12.78-3.39-14-3.76s-5.46-4.9-6.53-5.74c-11.54-9.1-11.75-6.26-23.54-15-5.5-4.1-13.44-10.45-16.81-16.42-4.09-7.24-4-14.68-11.67-17.83-5.34-2.18-7.71-8.08-12.07-11.85-5.62-4.85-12.91-18.12-13.65-25.51-1.48-14.75,4.43-35,14.34-41.08a38.64,38.64,0,0,1,17.17-3.63s51.27,59.93,71.95,74.05c0,0,4.61-4.09,8.09.17,0,0-.16-15.12,15.71-35.08s34.63-52,39.3-57.41,22.07-22.37,33.85-26.05c4.3-1.35,12.27-4.13,21.37-4.82,6,8.69,20.09,7.32,24.51,16.89C475.83,314.08,484,322.14,484.32,329.73Z"/><path class="cls-5" d="M240.7,343.06c-5.86,13.49-7,28.91-5.56,43.66.74,7.39,2.44,15.33,8.06,20.19,4.36,3.76,10.29,5,15.62,7.16A37.66,37.66,0,0,1,277.43,430c3.38,6,5.11,13.3,10.62,17.39,11.79,8.78,31-3.73,42.55,5.36A10.82,10.82,0,0,0,334,455a7.46,7.46,0,0,0,3.83-.19c10.06-2.41,19.3-7.34,28.42-12.23,15.49-8.3,31-16.64,45.33-26.89a50.61,50.61,0,0,1-26.09-3.82,209.71,209.71,0,0,0,43.85-11.45c5.06-1.92,10.12-4.09,14.34-7.48,5.29-4.24,8.95-10.13,12.51-15.9,7.1-11.53,14.46-24,13.92-37.51-.3-7.59-3.1-14.85-6.29-21.75a187,187,0,0,0-15.63-27.46c15.82-1.21,35.05,3.9,44.33,33.89,7.29,23.55-5.46,55-18.33,72.05-20.81,27.64-41,45.65-96.39,73.2s-62.47,32.08-81.65,12S231.57,405,218.85,382.39l-6.33-8.66S221.63,351.89,240.7,343.06Z"/><path class="cls-7" d="M330.68,414.05c-15.7-9.88-72.81-74.62-72.81-74.62-31.4-.58-45.35,34.3-45.35,34.3s22.67,30.81,33.72,47.67S283.45,472,303.8,488.08s64.53-13.77,87.79-26.56,62.79-36.63,82.55-65.29,26.34-55.37,15.12-81.14c-8.14-18.69-29.07-31.67-58.72-21.4S386.36,328.38,368.33,358s-29.07,36.63-30.23,56.4l-1.16,19.76"/><path class="cls-10" d="M339.11,414.36c-1-2.27-2.49-4.64-5.25-4.79s-3.91,2.29-4.65,4.5q-3,8.82-5.9,17.62c-.57,1.7,2.11,2.43,2.68.74l4.72-14.09,1.11-3.33a5.43,5.43,0,0,1,1.12-2.4c1.71-1.47,3.29,2.07,3.77,3.15.73,1.63,3.12.22,2.4-1.4Z"/><path class="cls-20" d="M343.22,416.11a20.6,20.6,0,0,1-.26-2.86S343.11,414.41,343.22,416.11Z"/><path class="cls-19" d="M334.23,364.7c1.71-4.15,15.2,8.39,20,14.89,4,5.38,9.69,12.06,9.69,17.44-1,.53-3.07-.39-7.6-3.95a58.25,58.25,0,0,0-7.3-10.85C344.06,376.4,337.88,371.45,334.23,364.7Z"/><path class="cls-3" d="M308.56,397.17c-6.09-10.89-15-22.77-22.85-32.47-4.29-5.29-10.83-11.13-13.06-17.56,15.59-1.61,48.55-3.59,58,5.25C344.73,365.5,366,384.37,365,390c-.48,3,.23,6.31-1.08,7q-6.19-7.92-12.19-16c-4.83-6.5-10-13.4-17.52-16.34,3.65,6.75,9.83,11.7,14.81,17.53a58.25,58.25,0,0,1,7.3,10.85c-.9-.71-1.89-1.51-3-2.44a85.37,85.37,0,0,1,2.33,23c-.34,5.88-.52,9.74-1.42,11.71-.33-.81-5,1.49-5.27.65-1.31-4.58-1.8-9.09-2.74-13.76-3.09-15.34-9.51-31-20.22-42.41,1.69,6.82,8.46,11,12.16,17,3.51,5.66,4.08,12.61,4.29,19.27q.3,9.35-.11,18.69c0,.5,0,1-.07,1.51-.9,2.32-2.52,3.73-5.37,2.74a6.28,6.28,0,0,1-1.25-.61c-.28-1.79-4.11-6.88-4.07-8.68.12-4.81-2-7.68-2.57-12.46-.79-6.54-1.86-10.63-5.34-16.22-3-4.79-4.87-9.43-8.11-14.05-2.29-3.25-.94-4.91-4.71-3.65,1.65,2.55,1.94,2.35,3.69,4.83A59.57,59.57,0,0,1,325,407.57c-.85,5.22-2.49,12.49-5.3,16,.1-.93-5,1.65-4.94.72C315.73,414.36,313.43,405.87,308.56,397.17Z"/><path class="cls-19" d="M267.36,347.89s5.2-.91,12.7-1.68A59.17,59.17,0,0,0,289.91,364c7.85,9.7,18.78,16.93,24.88,27.81,4.87,8.71,6.17,19.07,5.22,29-.09.93-.19,1.86-.29,2.79-1.68,2.09-3.77,2.85-6.36,1.08-9.82-6.74,5.94-13.17-6.85-30.57S290.77,372.26,283,364.81,265.29,350.73,267.36,347.89Z"/><path class="cls-19" d="M342.47,406.09c-.21-6.66-.78-13.61-4.29-19.27-3.7-6-10.47-10.18-12.16-17,10.71,11.39,21.87,23.64,25,39,.94,4.67,1.09,9.5,2.41,14.07a24.23,24.23,0,0,0,.86,2.48c-.85,1.88-2.35,2.06-5.27.65-3.91-1.89-5.28-6.74-5.76-9.88-.11-1.7-.26-2.86-.26-2.86a20.6,20.6,0,0,0,.26,2.86c.17,2.86.2,7.25-.93,10.18,0-.5,0-1,.07-1.51Q342.78,415.45,342.47,406.09Z"/><path class="cls-19" d="M309.21,370.81c3.78-1.26,7.28,2.36,9.56,5.62q4.86,6.93,9.33,14.11c3.48,5.59,6.85,11.5,7.64,18,.58,4.78-.27,9.6-.39,14.41a30.88,30.88,0,0,0,.32,5.43c-7.57-4.78-9.87-26.83-9.87-26.83s-.22,2.55-.78,6a59.57,59.57,0,0,0-10.46-29.38C312.81,375.71,310.87,373.36,309.21,370.81Z"/><path class="cls-13" d="M267.36,349.28c9.08-.46,18.15-1.06,27.23-1.54a100.82,100.82,0,0,1,15.64-.08,59.18,59.18,0,0,1,12.76,2.7,28.1,28.1,0,0,1,10.82,6.21c2.88,2.81,5.68,5.73,8.56,8.55,6.13,6,12.42,12.16,17.16,19.38a38.81,38.81,0,0,1,3.19,5.74,7.65,7.65,0,0,1,.91,2.49,6,6,0,0,1-.81,2.36c-.7,1-3-.35-3.86-.88a13.57,13.57,0,0,1-4.42-4.27,1.39,1.39,0,0,0-2.4,1.4c1.79,3.06,5.49,6.1,9,6.73,1.87.33,3.56-.18,4.26-2.06.62-1.66,1.25-3.07.63-4.82-3-8.47-9.47-15.53-15.61-21.88-3.26-3.38-6.65-6.64-10-9.94-3.14-3.1-6-6.4-9.87-8.64A43.31,43.31,0,0,0,317.44,346a68.5,68.5,0,0,0-15.78-1.37c-11.44.32-22.87,1.28-34.3,1.85-1.78.09-1.79,2.87,0,2.78Z"/><path class="cls-13" d="M333.21,367.28c3.3,4.16,7,8,10.52,12,3.76,4.28,7.9,8.87,9.07,14.61a77.68,77.68,0,0,1,1,10.22q.33,5.18.55,10.35l.18,4.93c0,1.45.27,3.19-.4,4.54-1,2.06-4,1.47-5.43.27-1.67-1.37-2.26-4.08-2.81-6a37.68,37.68,0,0,1-1.36-6.81c-.16-1.76-2.94-1.78-2.78,0a43.17,43.17,0,0,0,1.37,7.22,19.94,19.94,0,0,0,2.63,6.5,7.43,7.43,0,0,0,6.56,2.95c2.93-.28,4.67-2.54,5-5.35a36.82,36.82,0,0,0-.05-5.25c-.07-2.14-.16-4.27-.27-6.41q-.29-5.91-.73-11.82c-.27-3.58-.65-7.13-2.16-10.43a40.15,40.15,0,0,0-5.65-8.28c-4.23-5.19-9.06-9.88-13.22-15.13-1.11-1.4-3.06.58-2,2Z"/><path class="cls-13" d="M324.42,370.55c3,5.61,7.95,9.78,11.1,15.27A45.85,45.85,0,0,1,340.81,403a119.45,119.45,0,0,1,.9,18.62c-.08,2.48-1.1,6.76-4.5,6.1-3.14-.61-4.19-4.39-5-7a196.68,196.68,0,0,1-5.61-23.31c-.32-1.76-3-1-2.68.73a195.78,195.78,0,0,0,5.62,23.31c1,3.14,2.13,6.62,5.22,8.28a6,6,0,0,0,7.73-1.58c2.2-2.77,2-6.42,2-9.76s-.15-6.95-.4-10.42c-.48-6.66-1.54-13.35-4.17-19.52a40.66,40.66,0,0,0-6-9.74c-2.5-3.08-5.18-6-7-9.53-.84-1.58-3.23-.18-2.4,1.4Z"/><path class="cls-13" d="M307.18,370.66l9.45,14.41c2.75,4.19,5.69,8.45,7.1,13.32,1.51,5.15.64,10.35-1.16,15.3-.91,2.51-2,4.92-3.19,7.32-.89,1.87-2.05,4.7-4.54,3-3.92-2.62-3.31-8.61-2.88-12.61a31.92,31.92,0,0,0,.2-8.05,20.46,20.46,0,0,0-2.62-7,121,121,0,0,0-8.44-12.49q-4.47-6-9.38-11.7-5.6-6.44-11.75-12.36-3-2.88-6.12-5.62c-1.09-1-2.2-1.92-3.31-2.85-.59-.5-2.56-1.84-2-2.74,1-1.51-1.44-2.91-2.4-1.4-1.4,2.21.41,4.41,2.08,5.82q3.18,2.67,6.26,5.47,6.13,5.59,11.76,11.73a174.75,174.75,0,0,1,20,26,20.05,20.05,0,0,1,3.2,7.64c.43,3-.13,6-.41,8.95-.43,4.55-.11,10.06,3.78,13.15,1.91,1.52,4.51,1.94,6.46.28S322,422,323,419.9c2.38-5.17,4.5-10.71,4.36-16.49-.16-6.16-3.09-11.66-6.33-16.73-3.74-5.85-7.61-11.62-11.42-17.42-1-1.49-3.38-.1-2.39,1.4Z"/><path class="cls-13" d="M303.36,363.83l-4.27-4.26a1.39,1.39,0,0,0-2,2l4.27,4.27a1.39,1.39,0,0,0,2-2Z"/><path class="cls-13" d="M322.9,361.61l-6.62-5a1.4,1.4,0,0,0-1.9.49,1.44,1.44,0,0,0,.5,1.9l6.62,5a1.39,1.39,0,0,0,1.9-.5,1.42,1.42,0,0,0-.5-1.89Z"/><path class="cls-21" d="M351.51,119.38c-1.49-7.1-7.51-17.8-10.81-24.26-3.52-6.89,20.33-20.6,14.69-25.78,10.14,5,36.42,20.85,45.34,55.49,2.31,9-6.81,17.67-20.27,30.08a69.08,69.08,0,0,0-10,10.88c1.36-6.31-15.77-3.91-14.42-10.21C358.69,143,354.16,132,351.51,119.38Z"/><path class="cls-22" d="M306.45,97.83s-1.32-8.44-17.69-3.69-126.7,42.23-126.7,42.23"/><path class="cls-23" d="M162.06,141.38s20.27-6.18,19-11.44-20.66,1.74-20.66,1.74Z"/><path class="cls-24" d="M165,126.8c-2.8,1.29-6.38,8.49-3.56,18.34,3.69,12.91,8.38,17.34,14.85,17.55,5.92.2,10.1-4.47,13.18-11.92,3.77-9.13,6.22-20-5.94-23C172.39,125.1,168.63,125.1,165,126.8Z"/><path class="cls-22" d="M165,126.8c-2.8,1.29-6.38,8.49-3.56,18.34,3.69,12.91,8.38,17.34,14.85,17.55,5.92.2,10.1-4.47,13.18-11.92,3.77-9.13,6.22-20-5.94-23C172.39,125.1,168.63,125.1,165,126.8Z"/><path class="cls-25" d="M260.25,241.77c24.58-2.85,39.05-18.26,57.9-34.28,14.46-12.29,30.39-41.18,36.53-59.09,1.64,6.58,5.52,39.22,5.17,46-5.26,14-14.75,33.57-30.41,44.23-22.09,15-36.09,29.54-74.63,27.82-23.45-1-28.27-9.67-28.84-18.39C234.25,245.2,249.45,243,260.25,241.77Z"/><path class="cls-11" d="M253.52,216.23a115.24,115.24,0,0,0,47.2-11.58c7.32-3.56,14.33-8,20-13.82a40.29,40.29,0,0,0,11.12-21.55c-8.28,16-22.87,26.31-38.91,32.13-8,2.92-16.25,6.31-24.67,7.65s-23.44.63-31.89-.26c-27.94-3-51.89-15.37-69.71-37,.37-.71.84-9.36,1.44-10s1.74-1.74,3-2.88c18.19.14,39.41,6,61.7,8,32.48,2.92,54.56-1,84.66-13.52,4.65-1.94,13.72-8.7,18.75-9.17s23.64-11.53,27.16-7.92c2.63,2.69-6.45,34-5.52,37.68l.06.29A107,107,0,0,1,326,220.59c-18.85,16-42.82,25.58-67.4,28.43a106.84,106.84,0,0,1-32.67-1c-.38-5.62,1-11.27.31-15-1.51-8-3.11-15-6.12-19.27l2.45.31C232.87,215.41,243.18,216.52,253.52,216.23Z"/><path class="cls-25" d="M218.38,211.74c-4.22-3.77-17.17-2.06-33.79-18-15-14.35-21.32-23.47-17.94-30,17.82,21.65,44.11,36.44,72,39.39a96.86,96.86,0,0,0,25.4-.57,135,135,0,0,0,24.62-6.82c16-5.83,32.11-13.48,43.11-26.52a40.29,40.29,0,0,1-11.12,21.55c-5.66,5.85-12.67,10.26-20,13.82a115.24,115.24,0,0,1-47.2,11.58c-10.34.29-20.65-.82-30.91-2.12l-2.45-.31A12.39,12.39,0,0,0,218.38,211.74Z"/><path class="cls-3" d="M357.92,174.22A95.19,95.19,0,0,0,362,157.5a95.19,95.19,0,0,1-4.12,16.72l-.06-.29c-.93-3.65-2.24-7.34-4.87-10-3.52-3.61-8.95-4.82-14-4.35s-9.78,2.43-14.43,4.37c-30.1,12.55-61.55,25.93-94,23-22.3-2-43.48-12.4-59.46-28,9.78-8.65,34-26.44,37.47-30.41,3.88-4.49,13.07-17.4,17.31-22.08s22.82-23.88,39.2-31.28,48.15-22.87,86.25-7.57c0,0,1.53.56,4.05,1.79,5.64,5.18,10,12.06,13.48,19a82.16,82.16,0,0,1,7.65,20.31c2.65,12.6.86,25.71-1.83,38.31-1.34,6.3-2.91,12.57-4.27,18.88-3.62,5.18-4.18,9.05-6.09,15.24-.87,2.83-2.32,7.62-4.48,13.36A68.5,68.5,0,0,0,357.92,174.22Z"/><path class="cls-23" d="M305.24,202.68l-2.37,8c-.39,1.32-.74,2.65-1.17,3.95-.18.53-.25.89-.85.73a6.45,6.45,0,0,1-1.47-.77c-3.5-2.13-6.25-5.27-10.55-5.69a1.4,1.4,0,0,0-1.38,1.39A64.2,64.2,0,0,1,283.57,229l2.32-.61-16.62-15a1.4,1.4,0,0,0-2.18.28c-3.28,7.39-3.28,15.67-6.29,23.14l2.54-.34L253,216.56a1.39,1.39,0,0,0-2.39,0c-3.52,7.11-7.35,14-11.15,21l1.9-.49c-.69-.51-.93-1.72-1.2-2.46s-.65-1.74-1-2.6c-.75-1.91-1.56-3.8-2.4-5.66a119.47,119.47,0,0,0-5.66-10.89,1.39,1.39,0,0,0-2.39,1.4,120.14,120.14,0,0,1,6,11.73c.89,2,1.72,4,2.49,6.1.67,1.8,1.12,3.58,2.72,4.77a1.38,1.38,0,0,0,1.89-.5c3.81-6.94,7.64-13.88,11.15-21h-2.39l10.33,19.94a1.41,1.41,0,0,0,2.54-.33c2.91-7.24,2.83-15.32,6-22.47l-2.18.28,16.62,15a1.41,1.41,0,0,0,2.32-.61,66.82,66.82,0,0,0,4-19.42l-1.39,1.39c2.31.22,4.24,1.74,6,3.09s4,3.37,6.26,3.5c2.86.15,3.4-3.38,4-5.43l2.79-9.46a1.39,1.39,0,0,0-2.68-.74Z"/><path class="cls-4" d="M401.86,130.08c-4.55-26-24.55-52.12-52.53-63.37S284.65,61,254.61,81.52s-34.48,34-44.91,45.76-39.8,26.25-43.49,38.22,35,58.22,97.76,49.67,68.3-44.71,68.3-44.71"/><path class="cls-4" d="M218.38,211.74s7.27,7.86,8,22.9-3.22,32.55,30.82,31.78,65-16.91,82.31-38.3,22.92-37.35,26.86-55.65"/><path class="cls-13" d="M330.86,171.53a108.09,108.09,0,0,1-25.47,41.06,84.8,84.8,0,0,1-43.67,23.33,72.35,72.35,0,0,1-28.54-.23c-1.74-.38-2.48,2.3-.74,2.67,17.29,3.71,35.45.83,51.26-6.87C299,224,311.69,212,321,197.8a116.92,116.92,0,0,0,12.54-25.54c.59-1.68-2.09-2.41-2.68-.73Z"/><path class="cls-13" d="M224.7,215.17a47.69,47.69,0,0,1,5.58,20.93c.06,1.78,2.83,1.79,2.78,0a50.81,50.81,0,0,0-6-22.33c-.84-1.58-3.23-.18-2.39,1.4Z"/><path class="cls-13" d="M325.11,172.34c1.6-.54,2.87-1.67,4.41-2.28A3,3,0,0,1,333,171a11,11,0,0,1,2.38,4.29,18.43,18.43,0,0,1,1,5.79,1.39,1.39,0,0,0,2.78,0,21.08,21.08,0,0,0-1.21-6.86,13.55,13.55,0,0,0-3.11-5.32,5.79,5.79,0,0,0-5.46-1.63c-1.83.45-3.2,1.85-5,2.44s-1,3.25.74,2.68Z"/><path class="cls-26" d="M320.09,138.06a22.76,22.76,0,0,1,.37,4.08c0,10.71-7.28,19.4-16.26,19.4-6.72,0-12.48-4.86-15-11.78C280.74,133,307.74,103.82,320.09,138.06Z"/><ellipse class="cls-23" cx="306.45" cy="143.79" rx="5.26" ry="7.42"/><ellipse class="cls-26" cx="304.27" cy="149.91" rx="2.18" ry="2.48"/><path class="cls-27" d="M305.36,122.14s11.7,1.51,15.1,14.62l-32.85,2.12S291.41,122,305.36,122.14Z"/><path class="cls-4" d="M318.15,152.1a22.24,22.24,0,0,0,2.31-10,22.53,22.53,0,0,0-1.08-6.95"/><path class="cls-4" d="M315.48,128.17a15,15,0,0,0-11.28-5.43c-9,0-16.26,8.68-16.26,19.4,0,7.18,3.27,13.45,8.13,16.8"/><line class="cls-4" x1="319.62" y1="135.99" x2="288.07" y2="139.71"/><path class="cls-28" d="M253.22,144c4.31,2.65,13,7.39,12.7,23.23s-6.1,23.49-16.13,24.29-21.11-.73-32.47-19.8c-7.66-12.85-19.26-39.26,0-36.89S247.55,140.54,253.22,144Z"/><path class="cls-22" d="M410.31,122.18s-1.32-8.45-17.68-3.7-126.71,42.24-126.71,42.24"/><path class="cls-22" d="M253.22,144c4.31,2.65,13,7.39,12.7,23.23s-6.1,23.49-16.13,24.29-21.11-.73-32.47-19.8c-7.66-12.85-19.26-39.26,0-36.89S247.55,140.54,253.22,144Z"/><path class="cls-23" d="M265.92,165.72s20.28-6.18,19-11.43S264.23,156,264.23,156Z"/><path class="cls-23" d="M209.9,135.7a24.24,24.24,0,0,0-3.88-3A12.82,12.82,0,0,0,200,131c-3.21-.1-6.38.36-8.67,2.76-1.24,1.29.72,3.26,2,2a4.8,4.8,0,0,1,1.76-1.33,12.22,12.22,0,0,1,4.95-.61c3.3.1,5.63,1.81,8,3.93,1.33,1.19,3.3-.77,2-2Z"/><path class="cls-23" d="M207.76,145.76a20.33,20.33,0,0,0-15.5-5.48,1.43,1.43,0,0,0-1.39,1.39,1.41,1.41,0,0,0,1.39,1.39,17.56,17.56,0,0,1,13.53,4.66c1.3,1.23,3.27-.73,2-2Z"/><path class="cls-13" d="M199.22,177c.15-.37,0,0-.05.07s-.11.21-.16.32-.26.43-.41.64l-.1.14c-.11.15.17-.21.05-.06l-.23.27a6.75,6.75,0,0,1-.53.54l-.27.23-.14.11.07-.05c-.21.14-.42.28-.64.41l-.3.16c-.28.14.3-.09,0,0l-.25.07a.7.7,0,0,0-.14,0c.26-.11.26,0,.08,0s-.23,0-.28,0,.39.1.18,0l-.12,0s.34.17.16.06c0,0,.29.24.14.1s-.12-.2.1.13c-.11-.16,0,.16.06.21v.1c0-.13,0-.13,0,0s0,0,0,0a1.8,1.8,0,0,1,.05-.19c-.05,0-.11.23,0,.06s.25-.46.39-.69l.2-.28c.09-.13.07,0-.06.08a1.34,1.34,0,0,0,.11-.14,5.57,5.57,0,0,1,.46-.51c.16-.16.33-.31.51-.46a.76.76,0,0,0,.14-.11c-.1.15-.2.15-.08.06l.36-.24c.22-.14.44-.27.67-.39l.35-.16c.17-.08-.26.1-.09,0l.2-.08c.25-.08.5-.16.75-.22l.42-.09.17,0-.2,0,.17,0-1.38-1.38a2.18,2.18,0,0,1,0,.25s0,.08,0,.12,0,.06,0-.16a1.87,1.87,0,0,0-.09.41,2.25,2.25,0,0,1-.08.24c-.09.28.15-.28,0,0l-.23.4s-.12.13-.12.17l.09-.11-.08.09q-.17.18-.33.33c-.17.14,0,0,.05,0-.07,0-.15.11-.21.14a3.21,3.21,0,0,1-.45.24,1.45,1.45,0,0,0-.64.83,1.4,1.4,0,0,0,.14,1.06,1.43,1.43,0,0,0,.83.64,1.59,1.59,0,0,0,1.07-.14,4.92,4.92,0,0,0,2.81-4.45,1.39,1.39,0,0,0-1.39-1.39,8.7,8.7,0,0,0-6.52,4,3.72,3.72,0,0,0-.74,2.24,2.25,2.25,0,0,0,1.68,2,4.34,4.34,0,0,0,3.63-1,8.91,8.91,0,0,0,2.9-3.77,1.36,1.36,0,0,0-.14-1.06,1.39,1.39,0,0,0-1.9-.5,1.59,1.59,0,0,0-.63.83Z"/><path class="cls-29" d="M321.77,115c-2-3.72-2.62-1.58-9.82-1.31s-9.94,1.29-16.17,1.9c-7.09.7-8.52-.37-9.54,4.13s3.05,7.52,18.89,5S322.84,117,321.77,115Z"/><path class="cls-22" d="M321.77,115c-2-3.72-2.62-1.58-9.82-1.31s-9.94,1.29-16.17,1.9c-8.06.79-9.1,2.49-9.54,4.13-1.19,4.45,3.05,7.52,18.89,5S322.84,117,321.77,115Z"/></g></svg>