<svg xmlns="http://www.w3.org/2000/svg" xmlns:xlink="http://www.w3.org/1999/xlink" viewBox="0 0 600 600"><defs><style>.cls-1{fill:#ffabfd;}.cls-2{fill:#007fcc;}.cls-3{fill:#7fdadd;}.cls-14,.cls-16,.cls-17,.cls-20,.cls-22,.cls-31,.cls-4,.cls-7{fill:none;}.cls-4{stroke:#1b5186;}.cls-14,.cls-17,.cls-22,.cls-31,.cls-4,.cls-7{stroke-linecap:round;stroke-linejoin:round;}.cls-17,.cls-22,.cls-31,.cls-4,.cls-7{stroke-width:2.77px;}.cls-5{fill:#d7dfe8;}.cls-6{fill:#fffffe;}.cls-7{stroke:#b5bbc0;}.cls-8{fill:#b5bbc0;}.cls-9{fill:#f1f3f3;}.cls-10{fill:#dedbe1;}.cls-11{fill:#1b5186;}.cls-12{fill:#606060;}.cls-13{fill:#282828;}.cls-14,.cls-17{stroke:#000;}.cls-14,.cls-20{stroke-width:0.56px;}.cls-15{fill:#514545;}.cls-18{fill:#0080ca;}.cls-19{fill:#030304;}.cls-20{stroke:#6fb7d6;stroke-miterlimit:10;}.cls-21{fill:#027ecb;}.cls-22{stroke:#1d1d1b;}.cls-23{fill:#1d1d1b;}.cls-24{fill:url(#Degradado_sin_nombre_4);}.cls-25{fill:#dedce0;}.cls-26{fill:#f2f3f2;}.cls-27{fill:#6fb7d6;}.cls-28{fill:url(#Degradado_sin_nombre_4-2);}.cls-29{fill:#3c3c3b;}.cls-30{fill:#fbb03b;}.cls-31{stroke:#8e6a2b;}</style><linearGradient id="Degradado_sin_nombre_4" x1="3464.43" y1="171.13" x2="3454.94" y2="131.56" gradientTransform="matrix(-1, 0, 0, 1, 3640.58, 0)" gradientUnits="userSpaceOnUse"><stop offset="0" stop-color="#452b76"/><stop offset="1" stop-color="#872c91"/></linearGradient><linearGradient id="Degradado_sin_nombre_4-2" x1="3403.5" y1="185.75" x2="3394.01" y2="146.19" xlink:href="#Degradado_sin_nombre_4"/></defs><g id="Capa_3" data-name="Capa 3"><g id="a"><rect class="cls-1" width="600" height="600"/></g></g><g id="Capa_2" data-name="Capa 2"><path class="cls-2" d="M403.91,144.92s6.88,4.1,16,10.74c2.81,9.61,12.4,14.58,15.44,24.3,2.58,8.26,3.09,9.07,8.44,15.87,4.82,6.14,9.92,15.58,15.16,21.36,2.7,3,3.22,13.95,5,17.54,2.06,4.1,2.16,11.41,2.77,16,1.32,9.78-.22,17.67,1,27.46-5.5-13.09-17.35-35.84-34.51-40-24.35-5.94-36.3-1.79-36.3-1.79Z"/><path class="cls-3" d="M460.59,235.51c-1.79-3.58-4.58-6.56-7.27-9.53q-7.86-8.67-15.1-17.88c-5.35-6.81-10.52-14-13.1-22.25-3-9.72-2.38-20.58-5.19-30.19,17,12.33,41.72,33.43,44.81,53.44,4.75,30.8,6.53,78.31,6.53,78.31s-1.19-3.79-3.5-9.27c-1.24-9.79-2.55-19.57-3.87-29.34C463.29,244.25,462.65,239.61,460.59,235.51Z"/><path class="cls-4" d="M403.91,144.92S460,178.3,464.74,209.1s6.53,78.31,6.53,78.31-13.66-43.36-38-49.29-36.3-1.79-36.3-1.79Z"/><path class="cls-5" d="M148.15,390.38c1.29-3.55,10.1-18.1,11.06-21.76,1.7-6.57,7.48-21.5,10.94-27.33,3-5.14,5.13-14.55,10.29-17.54s12.79-6.22,14.24-12c1.13-4.5,2.69-1.68,3.5-6.24.69-3.85,6.39.12,8.75-3,6.54-8.68,14.33-16.4,20.47-25.37,5-7.22,8.85-15.59,9.53-24.22a25.64,25.64,0,0,1,2.49,5.61c3.5,11.64,1.42,24.33-2.79,35.74-3.81,10.34-9.3,20-14.76,29.54-4.92,8.62-11,16.69-14.76,25.86-13.53,32.54-29.49,51.94-42,57.81C163.27,398.62,145.05,398.89,148.15,390.38Z"/><path class="cls-6" d="M145.47,369.34c3.22-14.55,8.89-26.79,18.45-45.15,12.79-24.55,5.23-24.28,17.44-48.7s44.18-30.23,44.18-30.23l-1.82-.36c5.51-.76,10.23,3.06,13.21,8-.68,8.63-4.57,17-9.53,24.22-6.14,9-13.93,16.69-20.47,25.37-2.36,3.12-4.6,6.49-5.29,10.34-.82,4.56.64,9.35-.49,13.85-1.46,5.79-6.78,9.67-12,12.67s-10.81,5.87-13.85,11c-3.46,5.84-2.73,13.17-4.44,19.73-.95,3.66-2.67,7.07-4,10.62a49.07,49.07,0,0,0-1.81,26.76C150.14,414.52,140.17,402,145.47,369.34Z"/><path class="cls-7" d="M223.72,244.9c7.49-1,13.52,6.39,15.7,13.63,3.5,11.64,1.42,24.33-2.79,35.74-3.81,10.34-9.3,20-14.76,29.54-4.92,8.62-11,16.69-14.76,25.86-29.78,71.63-71.35,79.6-61.64,19.67,3.22-14.55,8.89-26.79,18.45-45.15,12.79-24.55,5.23-24.28,17.44-48.7s44.18-30.23,44.18-30.23"/><path class="cls-5" d="M302,597.53c-1-.33-7.57-6.7-8.3-7.51-1-1.14-2.17-12.23-2.18-13.75-.15-14.75-3.57-3.81-.79-18.3-24.86,7-19.17,16.07-41.35,2.87.41,13.91-2.06,15.62-4.22,29.37-.15,1-10.19,2.64-10.71,3.46-1.93,3.07-9.47,4.18-12.66,2.48-5.5-2.93-12.31-15-17.67-18.2l-1.52-91.59s79.42,19.78,101.48,17.4,124.74,6.36,124.74,6.36c-2.6,23.11-5.61,60.24-7.43,82-16.58,5-47.95,8-56,9.79C345.66,606.36,321.33,603.77,302,597.53Z"/><path class="cls-6" d="M220.43,572c3.2,1.7,7.89,3,9.82,0a7.2,7.2,0,0,0,.84-2.78,226.61,226.61,0,0,0,2.64-41.63c22.18,13.21,50.36,9.78,75.22,2.82a222.41,222.41,0,0,0-4,44c0,1.52.1,3.19,1.12,4.33a6.36,6.36,0,0,0,2.86,1.53c19.3,6.24,42.82,15.61,62.6,11.14,8-1.82,34.23-10.5,50.81-15.49-.88,10.56-1.71,21.29-2.5,32.56H205.05l-.9-45.61Q212.19,567.63,220.43,572Z"/><path class="cls-8" d="M331.38,519.51c-15.57,7.46-32.21,13.43-49.51,15-15,1.38-30.52-.74-44.12-7.5a61.89,61.89,0,0,1-19.38-14.86c-1.17-1.35-3.12.62-2,2,9.91,11.46,24,18.66,38.67,21.74,16.46,3.45,33.51,1.68,49.56-3a184.37,184.37,0,0,0,28.14-11c1.62-.77.21-3.17-1.4-2.4Z"/><path class="cls-8" d="M254.37,536.27l-.27,17.43c-.08,4.95-.34,10,.31,14.89.59,4.46,2,8.82,5.19,12.15,1.69,1.79,3.76,3.19,5.48,5a15.62,15.62,0,0,1,3.52,5.83c1.67,4.9,1.52,10.22,1.33,15.33-.06,1.78,2.71,1.78,2.78,0a52.88,52.88,0,0,0-.78-13.71,20.44,20.44,0,0,0-7.07-11.41,22.69,22.69,0,0,1-5.07-5.28,19.06,19.06,0,0,1-2.3-6.15c-1-4.72-.72-9.62-.65-14.4l.3-19.64a1.39,1.39,0,0,0-2.77,0Z"/><path class="cls-8" d="M266.77,536.3a235.26,235.26,0,0,0,.44,42.71c.18,1.76,3,1.78,2.77,0a235.26,235.26,0,0,1-.44-42.71c.15-1.78-2.63-1.77-2.77,0Z"/><path class="cls-8" d="M427.46,510.12q-4.26,38-7.33,76.21-.87,11.07-1.65,22.14l1.39-1.38H213.78c-2.75,0-5.61-.21-8.36,0h-.37l1.39,1.38-.24-12.13-.58-29.13-.7-35.26-.6-30.51-.2-10.12a37.63,37.63,0,0,0-.09-4.75.74.74,0,0,1,0-.21l-1.76,1.33q5.06,1.26,10.12,2.44,12.23,2.88,24.49,5.51c10,2.14,20,4.15,30.07,5.89a266.52,266.52,0,0,0,27,3.59,62.26,62.26,0,0,0,9.56.09c2.48-.21,4.95-.37,7.44-.43,7.64-.16,15.28.1,22.9.4,9.71.38,19.41.91,29.11,1.51s19.6,1.26,29.4,2q11.88.87,23.76,1.81l12.2,1,.55.05c1.78.15,1.77-2.63,0-2.78l-8.48-.7q-10.74-.86-21.48-1.66-14.22-1.06-28.43-2c-9.91-.64-19.82-1.22-29.73-1.68-8.33-.39-16.66-.71-25-.73-3,0-5.9,0-8.84.19-2.54.14-5.05.43-7.6.41-8.22-.07-16.46-1.28-24.56-2.55-10.08-1.59-20.1-3.51-30.09-5.58q-13.3-2.74-26.53-5.82-7.23-1.67-14.44-3.44L203,485a1.4,1.4,0,0,0-1.75,1.34l.24,12.13.57,29.13.7,35.26.61,30.51c.09,4.94,0,9.92.29,14.87,0,.07,0,.14,0,.21a1.4,1.4,0,0,0,1.38,1.39H411.14c2.78,0,5.58.06,8.36,0h.37a1.43,1.43,0,0,0,1.39-1.39q2.69-38.19,6.59-76.27,1.14-11,2.38-22.08C430.43,508.35,427.66,508.36,427.46,510.12Z"/><path class="cls-9" d="M343.55,250c10.53-25.35,21.14-51.12,27.34-77.73-.13,2.8-.35,5.59-.68,8.38-1.72,14.87-6.22,29.26-10.71,43.55q-6.25,20-12.53,39.94c-2.46,7.84-4.92,15.7-7.86,23.38-.4,1-.82,2.09-1.23,3.13-7.83,5.85-15,11.16-20.72,15.48q3.58-6.2,6.88-12.55C331.33,279.46,337.45,264.74,343.55,250Z"/><path class="cls-10" d="M267.54,365.54c-2.06,6.79-17.28-60.19-17.28-60.19L253,274q0-29.25,0-58.5c0-14.37,0-28.8,2.29-43,3.75-23.43,14-46.16,30.93-62.79S327,83.07,350.67,85.08c1.07.09,2.13.22,3.2.36,7.1,15.63,11.72,32.65,14.46,49.55a179.55,179.55,0,0,1,2.56,37.31c-6.2,26.61-16.81,52.38-27.34,77.73-6.1,14.71-12.22,29.43-19.51,43.58q-3.29,6.36-6.88,12.55c-5.4,4.06-9.59,7.25-12,9.22C290.39,327.52,267.64,365.23,267.54,365.54Z"/><path class="cls-2" d="M379.33,226.72c-.34-10.76-2.91-21.34-3.61-32.09-1.74-27,8.38-53.81,5.75-80.73a97.85,97.85,0,0,0-4.55-21.05c12.91,6.8,23.63,17.59,29.29,31,3.42,8.11,5,16.88,6.34,25.58a629.48,629.48,0,0,1,7.12,73.8c-7,8.85-25.33,24.09-45.42,39.77C377.22,251.07,379.72,239,379.33,226.72Z"/><path class="cls-3" d="M347,264.17q6.27-20,12.53-39.94c4.49-14.29,9-28.68,10.71-43.55,1.76-15.19.57-30.59-1.88-45.69-2.74-16.9-7.36-33.92-14.46-49.55a69.79,69.79,0,0,1,23.05,7.41,97.85,97.85,0,0,1,4.55,21.05c2.63,26.92-7.49,53.75-5.75,80.73.7,10.75,3.27,21.33,3.61,32.09.39,12.25-2.11,24.35-5.08,36.29-12.18,9.5-25,19.16-36.37,27.67.41-1,.83-2.09,1.23-3.13C342.05,279.87,344.51,272,347,264.17Z"/><path class="cls-11" d="M421.05,223.24q-1-27.8-4.52-55.44c-1.13-9-2.34-18-4-26.94-1.52-8-3.75-15.94-7.71-23.11-6.65-12-17.47-21.58-29.84-27.45a72.41,72.41,0,0,0-42-6A87.47,87.47,0,0,0,291.5,103.1c-11.93,9.68-21.22,22.42-27.65,36.31C257,154.15,253.52,170,252.33,186.14c-.69,9.24-.73,18.51-.73,27.77s0,18.78,0,28.17l0,27.94c0,3.09-.18,6-.44,9.1L249,303.49a7.67,7.67,0,0,0,.16,3.17q1,3.42,2,6.81c2.36,7.7,4.87,15.37,7.78,22.88a107.14,107.14,0,0,0,4.57,10.5C264.69,349,266,351.54,268,353c1.8,1.26,3.74.57,4.73-1.3.15-.28.26-.59.39-.89,0-.07-.17.26,0,0-.21.25-.09.11.07-.08s.31-.39.46-.58c1.08-1.32,2.17-2.61,3.28-3.91a269.12,269.12,0,0,1,26.19-27.3c4.93-4.35,10-8.06,15.3-12,7.59-5.7,15.22-11.35,22.81-17,9-6.77,18-13.56,27-20.45s17.56-13.66,26.13-20.74c6.94-5.72,13.84-11.55,20.23-17.87a77,77,0,0,0,6.06-6.59c1.1-1.38-.85-3.36-2-2-4.38,5.49-9.75,10.24-15,14.87-7.55,6.65-15.36,13-23.24,19.25-8.83,7-17.76,13.86-26.74,20.66q-12.52,9.49-25.14,18.87c-6.27,4.68-12.56,9.34-18.78,14.1a181.6,181.6,0,0,0-20.38,18.33Q283,335,277,341.92c-1.36,1.57-2.72,3.15-4.05,4.75a29.32,29.32,0,0,0-2.18,2.68l-.12.16c-.07.13-.11.27-.17.4-.14.32.05-.07-.09.21s-.18.35-.29.53.12,0-.2.23c-.1.07.22-.05-.14.07.13,0,.3-.08.09-.06s.19-.12.1,0h0c.26,0,0,0-.07,0,.09,0,.11.09-.17-.1s0,0-.24-.16-.32-.3-.47-.46a6.06,6.06,0,0,1-.87-1.08,28.93,28.93,0,0,1-2.08-3.53c-3.58-6.91-6.11-14.4-8.58-21.76q-2.94-8.75-5.5-17.61c-.11-.39-.23-.77-.34-1.16.13.48,0,.35.08,0s.07-.83.11-1.23l.93-10.82,1.11-13c.21-2.43.52-4.86.52-7.3l0-55.07c0-17.59-.12-35.37,3.76-52.62a114.94,114.94,0,0,1,18.07-41.39,90.7,90.7,0,0,1,34.28-29.29c13.37-6.48,28.7-9.52,43.49-7.44a68.21,68.21,0,0,1,36.33,17.07,60.29,60.29,0,0,1,12.45,15.92c3.83,7.14,5.84,15,7.29,23a537.44,537.44,0,0,1,6.71,54.1q1,13.15,1.53,26.34C418.35,225,421.12,225,421.05,223.24Z"/><path class="cls-11" d="M410,201l-20.54,20S407.27,218.12,410,201Z"/><path class="cls-11" d="M407.15,185.81l-20.54,20S404.43,203,407.15,185.81Z"/><path class="cls-11" d="M404.47,169.94l-20.54,20S401.76,187.08,404.47,169.94Z"/><path class="cls-12" d="M240.06,466.6c.58-5,1.4-10.09,4-14.41l21.5,15.54c12.7,9.19,25.56,18.46,40.09,24.36,10.76,4.36,22.66,6.74,34.12,5.58-5.79,9.37-10.62,15.67-10.62,15.67s-32.75,7.56-60.12,11c-10.15,1.3-20-3.1-28.47-9.15A195.41,195.41,0,0,1,240.06,466.6Z"/><path class="cls-13" d="M360.51,352.65a174,174,0,0,0-32.21,16,228.55,228.55,0,0,0-.6-47.43c-.25-2.1-.67-4.46-2.42-5.67-1.41-1-3.27-.9-5-.71-23.74,2.64-44.89,21.18-50.61,44.37a272.39,272.39,0,0,0-24.38-60.6c-1.41-2.56-3.1-5.31-5.88-6.21-3.89-1.27-7.82,1.67-10.39,4.93,5.37-13.05,11.92-23.19,18.93-29.05L269.79,357s7.91-47.75,47.71-65.19,92.83-58.14,92.83-58.14,11.51-2.91,6.86,19.19S394.51,311,383.47,344.74l-3,9a14.28,14.28,0,0,0-6.12-3.21C369.75,349.49,365,351,360.51,352.65Z"/><path class="cls-12" d="M215.45,364.5c1-25.61,6.17-49.19,13.59-67.2,2.57-3.26,6.5-6.2,10.39-4.93,2.78.9,4.47,3.65,5.88,6.21a272.39,272.39,0,0,1,24.38,60.6c5.72-23.19,26.87-41.73,50.61-44.37,1.71-.19,3.57-.27,5,.71,1.75,1.21,2.17,3.57,2.42,5.67a228.55,228.55,0,0,1,.6,47.43,174,174,0,0,1,32.21-16c4.45-1.66,9.24-3.16,13.87-2.1a14.28,14.28,0,0,1,6.12,3.21C370.17,385.24,359,419.92,359,445.9c0,8.41-2.61,17.75-6.29,26.72-15-6.36-28.26-16.51-40.41-27.45-14.52-13.07-27.83-27.5-43.18-39.58-9.12-7.18-19.92-13.77-31.49-12.75-9.24.81-17.34,6.56-22.86,14.16C214.8,391.67,215,376.68,215.45,364.5Z"/><path class="cls-13" d="M237.67,392.84c11.57-1,22.37,5.57,31.49,12.75,15.35,12.08,28.66,26.51,43.18,39.58,12.15,10.94,25.44,21.09,40.41,27.45a176.93,176.93,0,0,1-13,25.05c-11.46,1.16-23.36-1.22-34.12-5.58-14.53-5.9-27.39-15.17-40.09-24.36L244,452.19c-2.56,4.32-3.38,9.42-4,14.41a195.41,195.41,0,0,0,.46,48.63C226.21,505,216.11,490,216.11,490s-1.26-42.64-1.3-82.95C220.33,399.4,228.43,393.65,237.67,392.84Z"/><path class="cls-14" d="M410.33,233.69s11.51-2.91,6.86,19.19S394.51,311,383.47,344.74,359,417.41,359,445.9s-29.93,67.44-29.93,67.44-41.18,13.2-67.11,11.07C234.5,522.16,216.11,490,216.11,490s-2.41-81.26-.66-125.45S231.3,282.2,248,268.25L269.79,357s7.91-47.75,47.71-65.19S410.33,233.69,410.33,233.69Z"/><path d="M265.43,363.78q-3.21,30.87-4.72,61.87-1.43,30.54-1,61.12.22,17.61,1,35.21c.08,1.78,2.85,1.79,2.77,0-.9-20.67-1.27-41.36-1-62.05q.41-30.57,2.63-61.07,1.28-17.57,3.12-35.08c.18-1.78-2.6-1.76-2.78,0Z"/><path class="cls-5" d="M429.36,283.46l-.6,1c-4.28,6.9-8,14.91-13.12,21.23-4.18,5.2-9.75,8.7-13.72,14.05-7.33,1.71-30.19,7.43-43.24,15.17,13.05-7.74,35.91-13.46,43.24-15.17-16,21.47-16.56,54.6-31,77.12-2.73,4.25-19.39-2-21.24,2.67-2.19,5.56-3.5,12.18-8.59,15.31.73-10.21-13.41-25.33-9-34.54,3.61-7.45,9.24-18.29,13.65-25.3s2.57,3,1.39-5.23c-.1-.67,1.71,8.39,1.21,8s-3.62-8-4.33-8c-2.7.17,10.58-3.43,7.87-3.47s-5.21-8.37-5.35-11.08c-.11-2.36,6-16.22,7.92-17.61,9.85-7.17,19.12-22.46,30.46-26.93,5.5-2.17,6.4-12.54,10.88-16.39,4.77-4.09,5.76,2.91,8.45-2.77,4.51-9.53-3.47-.95,1.05-10.48,3.2-6.76,17.45-16.5,18.2-23.94.56-5.66,6.71-11.51,3.49-16.08,4.85,2.65,12.82,8.82,14.25,16.8.19,1.11.34,2.28.43,3.49a103.21,103.21,0,0,1-3.92,23.47c-.39,1.22-.8,2.43-1.24,3.63A129.24,129.24,0,0,1,429.36,283.46Z"/><path class="cls-15" d="M429.36,283.27a127.72,127.72,0,0,0,7.15-15A86.68,86.68,0,0,1,429.36,283.27Z"/><path class="cls-6" d="M436.51,268.22c.84-1.19,3.82-11.72,5.27-11.93,2-.29,7.09-4.31,8.22-2.67,9.29,13.35,29.4,20.81,28.49,37.06-.31,5.6,3.18,21.62,1.39,26.93-5.81,17.19-4.83,44.41-18.8,56-8.87,7.35-25.51,46.13-35.41,52s-22.11-2.17-26.9,8.3c-5.08,11.11-21.95,8-26.9,19.18-7,15.79-24,24.32-40.12,30.6-3.64,1.43-7.35,2.83-11,4.32,3.23-40.77,10.43-111.81,16.16-134.7,6.68-26.75,28.78-57,38.45-75s29.86-28.49,38-37.22S420.05,219,420.05,219a31.13,31.13,0,0,1,9.8,3.36c3.22,4.56,4.38,10.65,3.81,16.31-.74,7.44-4,14.36-7.19,21.12l-13.53,28.6c-2.69,5.68-5.51,11.54-10.29,15.64-4.48,3.84-10.25,5.75-15.75,7.92a144.76,144.76,0,0,0-32,17.56c-1.91,1.39-4,3.22-3.86,5.57.13,2.71,3.19,4.4,5.9,4.44s5.33-1,8-1.17a2.74,2.74,0,0,1,2,.45,2.86,2.86,0,0,1,.76,1.82c1.18,8.19-2.25,16.38-6.66,23.38s-9.87,13.39-13.48,20.84c-4.46,9.21-5.85,19.58-6.58,29.79,5.09-3.13,6.4-9.76,8.59-15.32A76.75,76.75,0,0,1,357,386.11c14.47-22.52,29-45.08,44.93-66.56l2.33-.52c11.05-13.21,19.24-25.13,25.11-35.76a86.68,86.68,0,0,0,7.15-15c.28-.71.55-1.42.81-2.11"/><path class="cls-15" d="M437.75,264.59c-.14.51-.28,1-.43,1.52-.26.69-.53,1.4-.81,2.11C437,267,437.36,265.81,437.75,264.59Z"/><path class="cls-16" d="M437.32,266.11a103.93,103.93,0,0,0,4.35-25C442.17,247.88,440.94,256.22,437.32,266.11Z"/><path class="cls-5" d="M371.87,453.11c4.95-11.17,4-24.28,9.08-35.39,4.79-10.48,14.38-17.94,24.27-23.84s20.52-10.74,29.39-18.08c14-11.58,22.48-28.49,28.28-45.68,1.79-5.31,3.38-10.76,3.69-16.36.91-16.24-8.79-31-18.08-44.32-1.14-1.63-2.71-3.47-4.68-3.18-1.44.22-2.44,1.52-3.28,2.71l-10.9,15.59a101.22,101.22,0,0,0,7.68-18.45c3.62-9.89,4.85-18.23,4.35-25v0c25.11,22,47.82,49.43,50.15,67.45s-26.75,72.09-39,117.44-18.93,118.37-18.93,118.37c-55,51.74-117.38,27.9-117.38,27.9s.85-33.48,2.89-66.62c.3-4.77.73-10.77,1.28-17.62,3.68-1.49,7.39-2.89,11-4.32C347.85,477.43,364.87,468.9,371.87,453.11Z"/><path class="cls-7" d="M441.67,241.11c25.11,22,47.82,49.43,50.15,67.45s-26.75,72.09-39,117.44-18.93,118.37-18.93,118.37c-55,51.74-117.38,27.9-117.38,27.9s.85-33.48,2.89-66.62,10.75-125.58,17.44-152.32,28.78-57,38.45-75,29.86-28.49,38-37.22S420.05,219,420.05,219s18.28,2.32,21.19,18.6-5.37,43.61-37,81.4c0,0-29.87,6.39-45.57,15.69"/><path class="cls-8" d="M375.14,327.09l-1.74,32.34c-.58,10.72-1,21.46-1.74,32.17a13.06,13.06,0,0,1-2,6.73,51.5,51.5,0,0,1-4.78,5.45q-4.84,5.3-9.37,10.86a257.12,257.12,0,0,0-16.77,23.15,253.43,253.43,0,0,0-15.64,28.14c-.77,1.61,1.62,3,2.39,1.41a252.69,252.69,0,0,1,30.74-49.19q4.54-5.68,9.42-11.1c3-3.37,7-6.61,8.16-11.16a37.08,37.08,0,0,0,.79-7.35l.44-8.21.88-16.42,2-36.82c.1-1.78-2.68-1.78-2.77,0Z"/><path class="cls-6" d="M198.47,417.14c4.47-.64,18.58,2.57,21.45,6.05,1.86,2.27,7.76,7.42,7.93,10.35,1.08,18.56-4.27,40.6-5.74,59.13-.79,10.1-1.77,50.1-2.57,60.19-6.46-1.27-19.32-3.68-24.91-7.16,2.4-16.39.1-59.38-1.06-75.91-.9-12.81-1.12-25.64-1-38.48C195.77,430.43,195.23,417.6,198.47,417.14Z"/><path class="cls-5" d="M220.53,328.89c-.08,4.84-6.33,23.12-7.91,27.7-3.53,10.18-13.65-.47-17.34,9.66,1-18.25,2.56-36.46,6-54.39.92-4.75,6.24-23.74,7.45-28.44,1,4,5.07,11.78,6.07,15.8S220.6,324.84,220.53,328.89Z"/><path class="cls-5" d="M217.17,440.54c-.17-2.94-.48-6.07-2.34-8.34-2.87-3.48-8.13-3.55-12.59-2.91a75.21,75.21,0,0,0-9.63,2c.2-15.92,1-31.85,1.77-47.75q.42-8.65.9-17.31,5.53-15.19,10.84-30.46c1.58-4.57,3.17-9.25,3.25-14.09.07-4.05-.91-8-1.89-12s-2-8-3-12c4.83-18.63,12.18-36.62,23.23-52.31.86-1.22,1.93-2.54,3.42-2.63,2.1-.13,3.43,2.15,4.24,4.08q4,9.59,8.05,19.16c2.89,6.91,1.9,8.37-.69,15.26a152.59,152.59,0,0,0-8.31,35.6c-3,24.3-1.72,48.85-2,73.27-.25,23.9-2,47.75-3.8,71.58,0,11.49-1.73,23.25-2.59,34.72-.67,9.07-4.74,49.59.38,57.39a54.23,54.23,0,0,1-13.52-.94c.79-10.09,1.59-46.53,2.39-56.63C216.78,477.7,218.25,459.1,217.17,440.54Z"/><path class="cls-8" d="M227.26,461.69c0,10-1.29,20-2.19,30-.43,4.74-.79,9.48-1.17,14.23-.92,11.71-1.81,23.54-1.25,35.29.2,4.23.23,9.62,2.59,13.33l1.2-2.09a54,54,0,0,1-31.11-7.9l.64,1.56c1.63-11.32,1.21-23,.95-34.42-.28-12.44-.87-24.88-1.66-37.3-1.13-17.75-1.53-35.43-1.06-53.21.52-19.6,1.49-39.21,2.69-58.77,2.24-36.42,7.05-74.05,25.58-106.19,1-1.73,2-3.44,3.11-5.12a47.78,47.78,0,0,1,3.95-5.8c.64-.72,1.43-1.43,2.43-1a4.12,4.12,0,0,1,1.46,1.66,60.69,60.69,0,0,1,3,6.87c1.89,4.51,3.82,9,5.68,13.52,1.32,3.22,2.2,6.12,1.14,9.54-1.27,4.1-3,8-4.28,12.14-1.38,4.45-2.51,9-3.45,13.52a208.83,208.83,0,0,0-3.65,28.08c-1.33,19.53-.61,39.11-.77,58.66s-1.35,39.31-2.75,58.92q-.53,7.24-1.07,14.49c-.13,1.78,2.64,1.77,2.77,0,1.52-20.34,3-40.68,3.6-61.07.56-20-.24-40,.44-60,.66-19.39,2.78-39,9.4-57.35,1.18-3.27,2.94-6.62,3.1-10.14.18-4-2-7.87-3.46-11.45q-2.84-6.75-5.68-13.52c-1.21-2.88-3-7.69-7.09-6.68a6.78,6.78,0,0,0-3.56,2.84c-1.38,1.87-2.65,3.85-3.89,5.82q-3.64,5.74-6.69,11.85a170.2,170.2,0,0,0-10,24.6c-5.72,17.92-8.72,36.57-10.53,55.26-1.92,19.8-2.69,39.72-3.57,59.59-.88,20.11-1.42,40.26-.44,60.38,1.26,25.58,3.79,51.3,2.22,76.93-.14,2.21-.31,4.42-.62,6.6a1.46,1.46,0,0,0,.63,1.57,56.46,56.46,0,0,0,32.51,8.28,1.4,1.4,0,0,0,1.2-2.08c-1.94-3-2-7.62-2.18-11.14-.32-5.76-.19-11.55,0-17.31.4-9.83,1.26-19.63,2-29.43.89-11.17,2.47-22.3,2.49-33.53A1.39,1.39,0,0,0,227.26,461.69Z"/><path class="cls-8" d="M234.82,248.59a247.45,247.45,0,0,0-14.62,27.48q-1.56,3.45-3,6.94a48.08,48.08,0,0,0-2.73,7c-.57,2.38.37,4.4,1.6,6.4s2.49,3.74,3.8,5.57c3,4.18,6,8.42,7.4,13.43a1.39,1.39,0,0,0,2.67-.74,38,38,0,0,0-5.79-11.42c-1.24-1.79-2.54-3.55-3.78-5.35s-3.09-3.92-3.31-6a7.06,7.06,0,0,1,.81-3.16c.48-1.23,1-2.45,1.47-3.67q1.44-3.48,3-6.92,3-6.8,6.51-13.38c2.62-5,5.43-9.92,8.39-14.74.94-1.53-1.46-2.92-2.39-1.4Z"/><path class="cls-8" d="M222.34,305.14l-15.06,57c-1.21,4.59-2.82,9.24-3.34,14s1.08,8.85,2.58,13.1l9.82,28,11,31.3c.59,1.67,3.27.95,2.68-.74q-9.63-27.42-19.24-54.82c-.79-2.26-1.59-4.51-2.37-6.77a28,28,0,0,1-1.73-6.85c-.39-4.56,1.38-9.2,2.53-13.55l7.4-28L225,305.88a1.39,1.39,0,0,0-2.68-.74Z"/><path class="cls-12" d="M417,221.74s-1.61,5.81-16.34,17.83-59.2,37-71.7,43c-23,11.05-55.17,35.92-60.21,69.64,0,0-5.19-34-8.78-49.35-3.33-14.23-11.76-32.69-8.79-49.36,0,0-7.88,3.1-12.92,13.18s-3.4,29.46-3.4,29.46,4-21.65,12.31-16.28,20.35,85.66,20.35,85.66,9.5-50,51.36-72.1c0,0,10.08.78,11.24,17.45,0,0,31-16.28,51.94-36.05S423.68,235.69,417,221.74Z"/><path class="cls-17" d="M417,221.74s-1.61,5.81-16.34,17.83-59.2,37-71.7,43c-23,11.05-55.17,35.92-60.21,69.64,0,0-5.19-34-8.78-49.35-3.33-14.23-11.76-32.69-8.79-49.36,0,0-7.88,3.1-12.92,13.18s-3.4,29.46-3.4,29.46,4-21.65,12.31-16.28,20.35,85.66,20.35,85.66,9.5-50,51.36-72.1c0,0,10.08.78,11.24,17.45,0,0,31-16.28,51.94-36.05S423.68,235.69,417,221.74Z"/><path class="cls-6" d="M183.93,410c-8.15,1.8-23.05,3.19-31.25,1.58-7.59-1.49-7.16-21.51-8.89-28.9.3-2.2.56-4.44.76-6.71,1.72-19.92,49.47-26.2,49.47-26.2,41.09-21.2,53.27-9.18,53.27-9.18-7.58-5.18-6.39,11.31-2.89,23.5.88,3.07,6.83,17.91,8.18,21.08-5.32,3.44-13.74,6-19.59,8.41C218.34,399.56,199.38,406.58,183.93,410Z"/><path class="cls-5" d="M143.79,382.68c1.73,7.39,9.1,12.77,16.69,14.26,8.2,1.61,16.63-.28,24.79-2.09,15.45-3.41,31.06-6.56,45.71-12.54a102.53,102.53,0,0,0,16.88-8.72,174.38,174.38,0,0,0,9.1,18s-39.68,8.42-51.4,14.05-36,13.36-53,11.06C137.42,414.67,141.47,399.89,143.79,382.68Z"/><path class="cls-7" d="M145.89,371.21c-1.09,4.92-.55,3-1.14,8.8-.06.63-.13,1.26-.2,1.88"/><path class="cls-7" d="M144.55,381.89c-2.4,21.66-6.81,33.8,12.41,35.49,19.77,1.74,36-9.3,57-13.95s43-11.82,43-11.82-30.23-56-8.72-49.4c0,0-3.49-12.38-35.47,0s-50.58,28.63-50.58,28.63"/><path class="cls-8" d="M192,348.43a99.68,99.68,0,0,0-26.95,8.09c-1.62.75-.21,3.14,1.4,2.4a97.36,97.36,0,0,1,26.29-7.81c1.76-.27,1-2.94-.74-2.68Z"/><path class="cls-3" d="M205.79,351.74c-8-2.09-12-4.21-20.09-3,.56-2.67,2.64-12.86,3.9-15.29,3.46-6.67,10.09-11.39,17.32-13.43s15-1.6,22.27.3a58.69,58.69,0,0,1,33.24,23.36l-.52-.37c-4.29,5.53-15.84,18.31-20.71,23.33-1.46-.74-9.56-2.11-11-2.89C219.92,358.12,217.17,354.71,205.79,351.74Z"/><path class="cls-18" d="M211.59,342.81c11.37,3,21.94,8.41,32.24,14.07,1.42.77,2.86,1.56,4.32,2.3a189.14,189.14,0,0,1-14.42,13.46c-2,1.71-4.36,3.47-7,3.33s-4.74-2.1-6.68-3.86a95.29,95.29,0,0,0-34.34-19.92,84.14,84.14,0,0,1,1.27-11A61.54,61.54,0,0,1,211.59,342.81Z"/><path class="cls-11" d="M263.63,343a60.45,60.45,0,0,0-32.56-23.58c-13.73-4-30.54-2.66-40,9.31-5.32,6.72-6.16,15.19-6.73,23.45a1.39,1.39,0,0,0,1,1.33,94.09,94.09,0,0,1,32.77,18.72c2.14,1.88,4.26,4.15,7.1,4.89,3,.77,5.79-.59,8.12-2.38A145.6,145.6,0,0,0,248,361.34a195.64,195.64,0,0,0,14.89-17c1.08-1.39-.87-3.37-2-2a193.79,193.79,0,0,1-26.8,28.13c-2,1.72-4.52,4.3-7.41,4.09s-5.22-3.07-7.29-4.86a96.67,96.67,0,0,0-33.36-18.87l1,1.34c.48-7,1-14.29,5-20.26a26.93,26.93,0,0,1,14.43-10.33c13.22-4.09,28.16.35,39.35,7.78a57.09,57.09,0,0,1,15.33,15c1,1.46,3.41.07,2.39-1.4Z"/><path class="cls-6" d="M491.94,329.68c.54,13.54-5.55,32.39-12.66,43.92-3.55,5.77-14.1,16.73-19.38,21-4.23,3.39-14.92,26.56-20,28.48-14.15,5.39,1.71-17.25-13.26-15,8.16,3.55-31.78,40.43-23,39.37-14.28,10.25-27,14.44-42.52,22.75-9.12,4.88-18.86,7.67-28.91,10.08-1.26.31-12.79-3.38-14-3.75s-5.47-4.9-6.53-5.74c-11.55-9.1-11.75-6.26-23.54-15-5.51-4.09-13.44-10.44-16.82-16.41-4.09-7.24-4-14.68-11.67-17.83-5.33-2.18-7.71-8.08-12.07-11.85-5.62-4.86-12.9-18.12-13.65-25.52-1.48-14.74,4.44-35,14.34-41.07a38.7,38.7,0,0,1,17.17-3.64s51.28,59.94,72,74.06c0,0,4.6-4.1,8.09.17,0,0-.17-15.12,15.71-35.08s34.63-52,39.3-57.42,22.07-22.36,33.84-26c4.3-1.35,12.28-4.13,21.38-4.82,6,8.69,20.08,7.32,24.5,16.89C483.46,314,491.64,322.09,491.94,329.68Z"/><path class="cls-5" d="M248.32,343c-5.86,13.49-7,28.91-5.56,43.66.74,7.39,2.44,15.33,8.07,20.18,4.36,3.77,10.28,5,15.62,7.17a37.69,37.69,0,0,1,18.61,15.88c3.38,6,5.11,13.3,10.61,17.4,11.79,8.78,31-3.74,42.55,5.36a11.17,11.17,0,0,0,3.36,2.26,7.42,7.42,0,0,0,3.82-.19c10.06-2.41,19.3-7.35,28.42-12.23,15.5-8.31,31.05-16.64,45.34-26.89a50.77,50.77,0,0,1-26.1-3.82,209.39,209.39,0,0,0,43.85-11.45c5.07-1.92,10.12-4.09,14.35-7.48,5.29-4.24,8.95-10.13,12.5-15.9,7.11-11.54,14.46-24,13.93-37.51-.3-7.59-3.11-14.85-6.29-21.75a186.52,186.52,0,0,0-15.63-27.46c15.82-1.21,35.05,3.9,44.33,33.88,7.29,23.56-5.46,55-18.33,72.06-20.81,27.64-41,45.65-96.39,73.2s-62.47,32.08-81.65,12-64.54-76.42-77.26-99l-6.32-8.66S229.25,351.83,248.32,343Z"/><path class="cls-7" d="M338.31,414c-15.7-9.89-72.82-74.63-72.82-74.63-31.39-.58-45.34,34.31-45.34,34.31s22.67,30.81,33.72,47.67,37.2,50.58,57.55,66.68,64.54-13.77,87.79-26.56,62.79-36.63,82.56-65.29S508.11,340.8,496.89,315c-8.14-18.69-29.07-31.67-58.72-21.4S394,328.33,376,358s-29.07,36.63-30.23,56.39l-1.17,19.77"/><path class="cls-19" d="M346.73,414.31c-1-2.28-2.49-4.64-5.25-4.8s-3.9,2.29-4.64,4.51q-3,8.81-5.9,17.62c-.57,1.7,2.11,2.43,2.67.74l4.72-14.1,1.12-3.33a5.32,5.32,0,0,1,1.11-2.39c1.71-1.47,3.3,2.07,3.78,3.15.72,1.63,3.11.22,2.39-1.4Z"/><path class="cls-20" d="M350.84,416.06a22.69,22.69,0,0,1-.26-2.86S350.74,414.36,350.84,416.06Z"/><path class="cls-18" d="M341.86,364.65c1.71-4.15,15.19,8.38,20,14.88,4,5.38,9.68,12.07,9.68,17.45-1,.52-3.07-.4-7.59-4a58.25,58.25,0,0,0-7.3-10.85C351.68,376.35,345.51,371.4,341.86,364.65Z"/><path class="cls-3" d="M316.19,397.11c-6.1-10.88-15-22.76-22.86-32.46-4.28-5.29-10.83-11.13-13.06-17.56,15.6-1.61,48.55-3.6,58,5.25,14,13.11,35.27,32,34.34,37.61-.49,3,.23,6.31-1.09,7q-6.19-7.92-12.19-16c-4.83-6.5-10-13.4-17.51-16.34,3.65,6.75,9.82,11.7,14.81,17.53A58.25,58.25,0,0,1,364,393c-.91-.71-1.9-1.51-3-2.44a85.55,85.55,0,0,1,2.32,23c-.34,5.88-.51,9.74-1.41,11.72-.34-.81-5,1.48-5.27.65-1.31-4.58-1.81-9.1-2.75-13.77-3.09-15.33-9.5-31-20.22-42.41,1.7,6.83,8.46,11,12.16,17,3.51,5.67,4.09,12.62,4.3,19.27q.3,9.35-.11,18.7c0,.5-.05,1-.08,1.51-.9,2.32-2.52,3.73-5.36,2.74a6.1,6.1,0,0,1-1.26-.61c-.28-1.79-4.11-6.88-4.07-8.68.12-4.81-2-7.68-2.57-12.46-.79-6.54-1.86-10.63-5.34-16.22-3-4.79-4.87-9.43-8.11-14.05-2.28-3.26-.93-4.91-4.71-3.65,1.66,2.54,1.94,2.35,3.7,4.83a59.66,59.66,0,0,1,10.45,29.38c-.85,5.22-2.48,12.48-5.3,16,.1-.94-5,1.64-4.93.72C323.36,414.31,321.06,405.82,316.19,397.11Z"/><path class="cls-18" d="M275,347.84s5.21-.91,12.71-1.69a59.07,59.07,0,0,0,9.84,17.77c7.85,9.7,18.79,16.92,24.88,27.81,4.87,8.7,6.17,19.07,5.23,29-.09.92-.2,1.85-.3,2.79-1.67,2.09-3.76,2.85-6.35,1.07-9.83-6.73,5.94-13.16-6.85-30.57s-15.75-21.81-23.47-29.26S272.91,350.68,275,347.84Z"/><path class="cls-18" d="M350.1,406c-.21-6.65-.79-13.6-4.3-19.27-3.7-6-10.46-10.17-12.16-17,10.72,11.4,21.88,23.64,25,39,.94,4.67,1.09,9.49,2.4,14.07a22.1,22.1,0,0,0,.87,2.48c-.85,1.88-2.35,2.06-5.27.65-3.91-1.89-5.29-6.75-5.77-9.88-.1-1.7-.26-2.86-.26-2.86a22.69,22.69,0,0,0,.26,2.86c.18,2.86.2,7.25-.93,10.18,0-.51.06-1,.08-1.51Q350.4,415.39,350.1,406Z"/><path class="cls-18" d="M316.84,370.76c3.77-1.26,7.27,2.36,9.56,5.62q4.86,6.92,9.33,14.1c3.48,5.59,6.85,11.51,7.64,18,.57,4.78-.27,9.61-.39,14.42a30,30,0,0,0,.31,5.43c-7.57-4.78-9.86-26.83-9.86-26.83s-.22,2.54-.79,6a59.66,59.66,0,0,0-10.45-29.38C320.43,375.66,318.49,373.31,316.84,370.76Z"/><path class="cls-11" d="M275,349.22c9.08-.45,18.15-1.05,27.23-1.53a102.08,102.08,0,0,1,15.64-.09,59.89,59.89,0,0,1,12.77,2.71,28,28,0,0,1,10.81,6.21c2.89,2.81,5.69,5.72,8.57,8.55,6.12,6,12.41,12.16,17.16,19.37a40.28,40.28,0,0,1,3.19,5.75,7.57,7.57,0,0,1,.91,2.49,6.09,6.09,0,0,1-.81,2.36c-.7,1-3-.36-3.87-.88a13.77,13.77,0,0,1-4.42-4.27,1.39,1.39,0,0,0-2.39,1.4c1.78,3.06,5.49,6.09,9,6.73,1.86.33,3.55-.19,4.25-2.06.62-1.66,1.25-3.08.63-4.82-3-8.48-9.47-15.53-15.61-21.89-3.26-3.37-6.64-6.63-10-9.93-3.13-3.1-6-6.4-9.86-8.64A43.5,43.5,0,0,0,325.07,346a67.41,67.41,0,0,0-15.78-1.37c-11.45.32-22.87,1.27-34.31,1.85-1.77.09-1.78,2.86,0,2.77Z"/><path class="cls-11" d="M340.83,367.23c3.3,4.16,7,8,10.52,12,3.77,4.28,7.91,8.86,9.07,14.6a76.32,76.32,0,0,1,1,10.23c.22,3.45.41,6.9.55,10.35.07,1.64.13,3.29.18,4.93.05,1.45.27,3.19-.4,4.54-1,2.06-4,1.47-5.43.27-1.67-1.37-2.26-4.08-2.81-6.05a39.19,39.19,0,0,1-1.36-6.8c-.16-1.76-2.93-1.78-2.77,0a41,41,0,0,0,1.37,7.21,19.83,19.83,0,0,0,2.62,6.5,7.47,7.47,0,0,0,6.57,3c2.93-.28,4.66-2.54,5-5.35a36.81,36.81,0,0,0,0-5.25c-.08-2.14-.17-4.27-.27-6.41q-.3-5.91-.74-11.82c-.27-3.58-.64-7.14-2.16-10.43A39.5,39.5,0,0,0,356,380.4c-4.23-5.19-9.05-9.88-13.22-15.13-1.1-1.4-3.06.57-2,2Z"/><path class="cls-11" d="M332.05,370.5c3,5.61,7.94,9.78,11.1,15.27a46.21,46.21,0,0,1,5.29,17.14,119.44,119.44,0,0,1,.89,18.62c-.07,2.48-1.09,6.76-4.5,6.1-3.14-.61-4.18-4.39-5-7a195.78,195.78,0,0,1-5.62-23.31c-.31-1.75-3-1-2.67.74a196.21,196.21,0,0,0,5.61,23.31c1,3.14,2.14,6.62,5.23,8.27a6,6,0,0,0,7.72-1.58c2.21-2.76,2-6.41,2-9.75s-.14-6.95-.39-10.42c-.48-6.66-1.54-13.35-4.18-19.52a40.66,40.66,0,0,0-6-9.74c-2.49-3.08-5.17-6-7-9.53-.83-1.58-3.23-.18-2.39,1.4Z"/><path class="cls-11" d="M314.8,370.6,324.26,385c2.75,4.19,5.68,8.45,7.1,13.31,1.5,5.16.64,10.35-1.17,15.31-.91,2.5-2,4.92-3.18,7.32-.9,1.86-2.05,4.7-4.54,3-3.92-2.62-3.32-8.61-2.88-12.62a31.45,31.45,0,0,0,.19-8.05,20.32,20.32,0,0,0-2.61-7,125.25,125.25,0,0,0-8.44-12.48q-4.47-6-9.39-11.7-5.59-6.45-11.75-12.36-3-2.88-6.11-5.63c-1.1-1-2.2-1.91-3.32-2.85-.59-.49-2.55-1.83-2-2.73,1-1.52-1.44-2.91-2.39-1.4-1.41,2.21.41,4.41,2.08,5.82,2.11,1.78,4.21,3.59,6.25,5.46q6.13,5.61,11.76,11.73a175.85,175.85,0,0,1,20,26,20.32,20.32,0,0,1,3.2,7.65c.42,3-.13,6-.41,9-.44,4.55-.12,10.06,3.78,13.15,1.91,1.51,4.5,1.94,6.46.27s2.71-4.25,3.68-6.36c2.37-5.18,4.5-10.71,4.35-16.5-.15-6.15-3.08-11.65-6.32-16.72C324.88,380.78,321,375,317.2,369.2c-1-1.48-3.38-.1-2.4,1.4Z"/><path class="cls-11" d="M311,363.78l-4.26-4.26a1.39,1.39,0,0,0-2,0,1.41,1.41,0,0,0,0,2l4.26,4.26a1.39,1.39,0,0,0,2-2Z"/><path class="cls-11" d="M330.52,361.55l-6.62-5a1.38,1.38,0,0,0-1.89.5,1.43,1.43,0,0,0,.49,1.9l6.62,5a1.39,1.39,0,0,0,1.9-.5,1.43,1.43,0,0,0-.5-1.9Z"/><path class="cls-21" d="M359.14,119.33c-1.49-7.1-7.52-17.8-10.82-24.26-3.51-6.9,20.33-20.6,14.7-25.78,10.13,5,36.41,20.85,45.33,55.49,2.32,9-6.8,17.67-20.27,30.08a69.41,69.41,0,0,0-10,10.88c1.35-6.31-15.77-3.91-14.43-10.22C366.31,142.92,361.79,131.94,359.14,119.33Z"/><path class="cls-22" d="M314.07,97.78s-1.32-8.45-17.68-3.7-126.71,42.24-126.71,42.24"/><path class="cls-23" d="M169.68,141.33s20.28-6.19,19-11.44S168,131.63,168,131.63Z"/><path class="cls-24" d="M172.58,126.74c-2.8,1.3-6.39,8.49-3.57,18.35,3.7,12.91,8.38,17.33,14.86,17.55,5.91.19,10.09-4.47,13.18-11.93,3.77-9.12,6.21-20-6-23C180,125,176.25,125,172.58,126.74Z"/><path class="cls-22" d="M172.58,126.74c-2.8,1.3-6.39,8.49-3.57,18.35,3.7,12.91,8.38,17.33,14.86,17.55,5.91.19,10.09-4.47,13.18-11.93,3.77-9.12,6.21-20-6-23C180,125,176.25,125,172.58,126.74Z"/><path class="cls-25" d="M267.88,241.72c24.57-2.85,39.05-18.26,57.9-34.28,14.46-12.3,30.39-41.19,36.52-59.09,1.65,6.57,5.52,39.22,5.18,46-5.27,14-14.76,33.57-30.42,44.22-22.08,15-36.09,29.55-74.63,27.83-23.44-1.05-28.26-9.67-28.84-18.39C241.88,245.15,257.07,243,267.88,241.72Z"/><path class="cls-9" d="M261.14,216.18a115.48,115.48,0,0,0,47.21-11.58c7.32-3.57,14.33-8,20-13.82a40.45,40.45,0,0,0,11.12-21.56c-8.28,16.05-22.87,26.31-38.92,32.14-8,2.91-16.25,6.3-24.67,7.65s-23.44.63-31.88-.26c-28-3-51.89-15.38-69.71-37,.36-.7.84-9.35,1.43-10a41,41,0,0,1,3-2.88c18.19.14,39.41,6,61.71,8,32.48,2.92,54.56-1,84.65-13.52,4.66-1.94,13.73-8.7,18.75-9.17s23.64-11.53,27.17-7.93c2.63,2.69-6.46,34-5.53,37.68,0,.1,0,.2.07.29a107,107,0,0,1-31.89,46.37c-18.85,16-42.82,25.59-67.39,28.44a106.9,106.9,0,0,1-32.68-1c-.37-5.62,1-11.28.31-15-1.5-8-3.1-15-6.11-19.28l2.44.32C240.49,215.35,250.81,216.46,261.14,216.18Z"/><path class="cls-25" d="M226,211.69c-4.22-3.77-17.16-2.06-33.79-18-15-14.36-21.31-23.47-17.93-30,17.82,21.65,44.1,36.44,72.05,39.39a96.44,96.44,0,0,0,25.4-.56,135.44,135.44,0,0,0,24.62-6.83c16-5.83,32.1-13.47,43.11-26.52a40.45,40.45,0,0,1-11.12,21.56c-5.66,5.85-12.67,10.25-20,13.82a115.48,115.48,0,0,1-47.21,11.58c-10.33.28-20.65-.83-30.91-2.12l-2.44-.32A12.36,12.36,0,0,0,226,211.69Z"/><path class="cls-3" d="M365.55,174.16a95.73,95.73,0,0,0,4.11-16.71,95.73,95.73,0,0,1-4.11,16.71c0-.09,0-.19-.07-.29-.93-3.64-2.23-7.34-4.86-10-3.53-3.61-9-4.82-14-4.34s-9.77,2.42-14.43,4.37c-30.09,12.55-61.54,25.93-94,23-22.29-2-43.48-12.41-59.46-28,9.78-8.65,34.05-26.44,37.48-30.41,3.88-4.49,13.06-17.4,17.31-22.08s22.82-23.88,39.19-31.28S320.87,52.2,359,67.49c0,0,1.53.56,4.06,1.8,5.63,5.18,10,12,13.47,18.94a82.34,82.34,0,0,1,7.66,20.31c2.64,12.61.85,25.72-1.83,38.32-1.35,6.3-2.92,12.57-4.27,18.88-3.62,5.18-4.19,9-6.09,15.24-.87,2.83-2.32,7.62-4.48,13.36A69.24,69.24,0,0,0,365.55,174.16Z"/><path class="cls-23" d="M312.87,202.63l-2.38,8c-.38,1.31-.73,2.65-1.16,4-.18.53-.25.88-.86.73a6.21,6.21,0,0,1-1.46-.78c-3.5-2.12-6.26-5.26-10.55-5.68a1.41,1.41,0,0,0-1.39,1.39A64.58,64.58,0,0,1,291.2,229l2.32-.61-16.62-15a1.4,1.4,0,0,0-2.18.28c-3.29,7.38-3.29,15.66-6.29,23.13l2.53-.33-10.33-19.94a1.4,1.4,0,0,0-2.4,0c-3.51,7.1-7.34,14-11.15,21l1.9-.5c-.68-.51-.92-1.71-1.2-2.46s-.65-1.73-1-2.59q-1.12-2.87-2.4-5.67a119.48,119.48,0,0,0-5.65-10.89,1.39,1.39,0,0,0-2.4,1.4,118.21,118.21,0,0,1,6,11.74q1.34,3,2.49,6.1c.67,1.8,1.11,3.57,2.71,4.77a1.4,1.4,0,0,0,1.9-.5c3.81-7,7.64-13.89,11.15-21h-2.4l10.34,19.94c.6,1.17,2.12.69,2.53-.33,2.92-7.24,2.83-15.33,6-22.47l-2.18.28,16.62,15a1.4,1.4,0,0,0,2.32-.61,66.57,66.57,0,0,0,4-19.42l-1.39,1.38c2.3.23,4.24,1.75,6,3.1s4,3.37,6.27,3.49c2.86.16,3.39-3.37,4-5.42l2.79-9.46a1.39,1.39,0,0,0-2.67-.74Z"/><path class="cls-4" d="M409.48,130C404.93,104,384.94,77.9,357,66.65S292.27,61,262.24,81.46s-34.48,34.05-44.91,45.77-39.81,26.25-43.5,38.21,35,58.23,97.76,49.68,68.3-44.71,68.3-44.71"/><path class="cls-4" d="M226,211.69s7.27,7.86,8,22.89-3.23,32.55,30.82,31.79,65-16.92,82.3-38.3,22.93-37.35,26.87-55.66"/><path class="cls-11" d="M338.49,171.47A108.13,108.13,0,0,1,313,212.54a84.94,84.94,0,0,1-43.68,23.33,72.11,72.11,0,0,1-28.53-.24c-1.74-.37-2.49,2.3-.74,2.68,17.29,3.71,35.44.83,51.26-6.88,15.3-7.45,28-19.53,37.3-33.68a117.33,117.33,0,0,0,12.53-25.54c.59-1.69-2.09-2.41-2.67-.74Z"/><path class="cls-11" d="M232.32,215.11a47.64,47.64,0,0,1,5.59,20.94c.05,1.78,2.83,1.79,2.77,0a50.85,50.85,0,0,0-6-22.34c-.84-1.57-3.24-.17-2.4,1.4Z"/><path class="cls-11" d="M332.74,172.28c1.59-.54,2.86-1.66,4.41-2.27a3,3,0,0,1,3.44.88,11.23,11.23,0,0,1,2.38,4.3,19,19,0,0,1,1,5.79,1.39,1.39,0,0,0,2.77,0,21.07,21.07,0,0,0-1.2-6.86,13.69,13.69,0,0,0-3.12-5.32,5.76,5.76,0,0,0-5.45-1.64c-1.83.46-3.2,1.86-5,2.45s-1,3.25.74,2.67Z"/><path class="cls-26" d="M327.72,138a23.61,23.61,0,0,1,.36,4.07c0,10.72-7.28,19.41-16.26,19.41-6.71,0-12.47-4.86-14.95-11.79C288.36,132.92,315.36,103.77,327.72,138Z"/><ellipse class="cls-23" cx="313.17" cy="141.87" rx="5.26" ry="7.42"/><ellipse class="cls-26" cx="315.35" cy="135.75" rx="2.18" ry="2.48"/><path class="cls-27" d="M310.94,162.82s-11.7-1.51-15.09-14.62l32.84-2.12S324.89,163,310.94,162.82Z"/><path class="cls-4" d="M325.78,152a22.2,22.2,0,0,0,2.3-10,22.76,22.76,0,0,0-1.07-6.94"/><path class="cls-4" d="M323.11,128.12a15,15,0,0,0-11.29-5.44c-9,0-16.26,8.69-16.26,19.4,0,7.19,3.27,13.46,8.13,16.81"/><line class="cls-4" x1="327.25" y1="145.51" x2="297.29" y2="149.04"/><path class="cls-28" d="M260.84,144c4.31,2.65,13,7.39,12.71,23.23s-6.11,23.49-16.14,24.28-21.1-.72-32.47-19.79c-7.65-12.85-19.26-39.27,0-36.89S255.17,140.48,260.84,144Z"/><path class="cls-22" d="M417.94,122.13s-1.32-8.45-17.69-3.7-126.7,42.23-126.7,42.23"/><path class="cls-22" d="M260.84,144c4.31,2.65,13,7.39,12.71,23.23s-6.11,23.49-16.14,24.28-21.1-.72-32.47-19.79c-7.65-12.85-19.26-39.27,0-36.89S255.17,140.48,260.84,144Z"/><path class="cls-23" d="M273.55,165.67s20.27-6.18,19-11.43S271.85,156,271.85,156Z"/><path class="cls-23" d="M217.52,135.65a24.42,24.42,0,0,0-3.88-3.06,12.74,12.74,0,0,0-6.06-1.68c-3.21-.1-6.39.36-8.68,2.76-1.23,1.29.73,3.25,2,2a4.79,4.79,0,0,1,1.77-1.33,12.38,12.38,0,0,1,5-.62c3.3.11,5.63,1.82,8,3.93,1.32,1.19,3.29-.76,2-2Z"/><path class="cls-23" d="M215.38,145.71a20.31,20.31,0,0,0-15.5-5.48,1.43,1.43,0,0,0-1.39,1.39,1.41,1.41,0,0,0,1.39,1.39,17.58,17.58,0,0,1,13.54,4.66c1.3,1.23,3.26-.73,2-2Z"/><path class="cls-11" d="M206.84,177c.16-.37,0,0,0,.08l-.17.32c-.12.22-.26.43-.4.64l-.11.14c-.1.15.17-.21.06-.07s-.15.19-.23.27a6.88,6.88,0,0,1-.54.54,2.1,2.1,0,0,1-.27.24l-.13.11s.26-.19.06-.06-.41.29-.63.42l-.31.16c-.27.14.3-.09,0,0l-.24.07a.8.8,0,0,0-.15,0c.27-.11.27,0,.09,0s-.23,0-.28,0,.38.1.17,0l-.12,0s.35.16.17.05l.13.11c-.07-.07-.12-.2.11.13-.11-.16,0,.16.05.21v.09c0-.12,0-.12,0,0s0,0,0,0a.76.76,0,0,1,.06-.18c-.05,0-.11.23,0,.06a4.7,4.7,0,0,1,.39-.69l.19-.28c.09-.13.08,0-.06.07,0,0,.09-.11.11-.13.15-.18.3-.35.46-.51s.34-.32.52-.46a1.27,1.27,0,0,0,.13-.11c-.09.15-.2.15-.07.06l.35-.25c.22-.14.45-.26.68-.38l.35-.16c.17-.08-.26.1-.09,0l.2-.08a6.29,6.29,0,0,1,.74-.22c.14,0,.28-.06.42-.09a.86.86,0,0,0,.17,0l-.19,0,.17,0-1.39-1.39v.26a.49.49,0,0,0,0,.12c0,.11,0,.06,0-.16a2.46,2.46,0,0,0-.1.41,2.25,2.25,0,0,1-.08.24c-.09.28.15-.28,0,0s-.14.27-.22.4-.12.12-.12.17c.12-.16.15-.19.08-.11l-.08.09a3.43,3.43,0,0,1-.33.33c-.17.14,0,0,.05,0l-.21.14a2.64,2.64,0,0,1-.44.23,1.37,1.37,0,0,0-.64.83,1.43,1.43,0,0,0,.14,1.07,1.37,1.37,0,0,0,.83.64,1.59,1.59,0,0,0,1.07-.14,4.94,4.94,0,0,0,2.81-4.46,1.4,1.4,0,0,0-1.39-1.38,8.74,8.74,0,0,0-6.53,4,3.76,3.76,0,0,0-.73,2.25,2.25,2.25,0,0,0,1.68,2,4.37,4.37,0,0,0,3.63-1.05,9,9,0,0,0,2.9-3.76,1.39,1.39,0,0,0-.14-1.07,1.44,1.44,0,0,0-.83-.64,1.42,1.42,0,0,0-1.07.14,1.65,1.65,0,0,0-.64.83Z"/><path class="cls-29" d="M312.61,108c-4.18-.52-2.8,1.24-6.69,7.3s-9.38,8.77-15.63,8.59-5.19,6.77-2.08,10.19,15.83,7.55,22.86-6.86S314.89,108.32,312.61,108Z"/><path class="cls-22" d="M312.61,108c-4.18-.52-2.8,1.24-6.69,7.3s-9.38,8.77-15.63,8.59-5.19,6.77-2.08,10.19,15.83,7.55,22.86-6.86S314.89,108.32,312.61,108Z"/><path class="cls-30" d="M338,375.72s-11.54-3-15.79,4.36l4.39,5.74s11.89-6.45,15.76-4.7Z"/><path class="cls-31" d="M338,375.72s-11.54-3-15.79,4.36l4.39,5.74s11.89-6.45,15.76-4.7Z"/></g></svg>