<svg id="Capa_2" data-name="Capa 2" xmlns="http://www.w3.org/2000/svg" xmlns:xlink="http://www.w3.org/1999/xlink" viewBox="0 0 400 400"><defs><style>.cls-1{fill:#7fe247;}.cls-2{fill:#feec30;}.cls-3{fill:#0bab92;}.cls-4{fill:#06f5e2;}.cls-5{fill:#5ea837;}.cls-6{fill:#53a22f;}.cls-7{fill:#5fa835;}.cls-8{fill:#175807;}.cls-9{fill:#83e145;}.cls-10{fill:url(#linear-gradient);}.cls-11{fill:#060203;}.cls-12{fill:#fff;}.cls-13{fill:url(#linear-gradient-2);}</style><linearGradient id="linear-gradient" x1="8668.99" y1="-306.54" x2="8668.99" y2="-326.98" gradientTransform="matrix(-0.99, 0.16, 0.16, 0.99, 8841.51, -1001.6)" gradientUnits="userSpaceOnUse"><stop offset="0" stop-color="#e8af15"/><stop offset="0.04" stop-color="#d69a16"/><stop offset="0.11" stop-color="#b87817"/><stop offset="0.19" stop-color="#9e5b18"/><stop offset="0.28" stop-color="#8a4319"/><stop offset="0.39" stop-color="#7a3119"/><stop offset="0.51" stop-color="#6e241a"/><stop offset="0.66" stop-color="#681c1a"/><stop offset="1" stop-color="#661a1a"/></linearGradient><linearGradient id="linear-gradient-2" x1="8758.64" y1="-312.61" x2="8758.64" y2="-332" xlink:href="#linear-gradient"/></defs><title>I</title><path class="cls-1" d="M180.44,259.34s-32.06,17.81-41.93,23-25.64,9.39-25.64,9.39-9.17.76-11.33-15,4.86-38.21,4.42-56-3.88-23.1-4.21-29.36,1.52-11,2.59-11.12,5.83,1,10.8-.86a15.54,15.54,0,0,1,8.63-.86s3.46-1.84,6.37-.65c0,0-1.08,4.53-.21,7.12s5.61,7.67,5.61,7.67l-2.38,5.07s3.57,4.1,2.7,7.88-3.13,7.66-7.66,12-4.53,4.53-5.29,12,2.16,26.88,2.16,26.88,37.34-28.5,43.17-31.63S191.88,239.16,180.44,259.34Z"/><path class="cls-1" d="M279,222.53c6,11.1,6.91,27.2,6.91,27.2l-1.08,116s-22.49,9.1-54.52,9.1-52.54-9.93-52.54-9.93a381.4,381.4,0,0,1-7.51-46.33c-2.43-25.1,1.13-54.08,1.13-54.08s-10.85-4.21-11.17-18.29,2.59-21.86,14.9-23.16a148.74,148.74,0,0,0,24.44-5s-1.62-16.84,20.56-24.78,38.21,8.1,41.13,12.63S274.23,213.74,279,222.53Z"/><path class="cls-2" d="M190.69,368.68s5.64,6.19,37.38,6.19,38.41-4.48,38.41-4.48-1.31-76.86-5-106.41c-4.75-38.21-58.21-46.43-69.73-6.26C174.93,316.44,190.69,368.68,190.69,368.68Z"/><path class="cls-1" d="M178.94,214.92c18,2.85,44.83,2.38,44.15,5s-59.83-36.69-64.87-30.76.24,7.59,35,16.18,68.12-11.67,83.91-40.58,4.18-74.72,3-88.68.6-11.65,1.31-15.18c-3.14-1-6.25-2.18-9.33-3.34l-10.64-4a42,42,0,0,0-8.74-2.6c-4.68-.69-9.45.2-14.1,1.09l-21.56,4.12a2.75,2.75,0,0,1-1.45,0c-1-.37-1.15-1.67-1-2.68.57-3.12,3-5.49,5.42-7.57s4.67-3.94,7.08-5.81c-3.13,1.34-5.74,2.44-7.38,3-6.62,2.44-24.1,7.24-38,13.09a38.07,38.07,0,0,0-19.07,17.11C158.94,79.08,136,128,135.64,138.78s-1.34,35.57-1.34,35.57c-7.19,1.46-4.45,9.32-4.45,9.32.23,3.86,12.71,17.07,17.77,19.88C155.25,207.73,165,212.71,178.94,214.92Z"/><path class="cls-3" d="M284.71,31.69a17.79,17.79,0,0,0-6.58-3.44,4.44,4.44,0,0,0,1,3.2c2.51,3.19,5.84,4.89,1.89,8.94s-.37,4.22.15,7-2.41.44-2.14,5.48,3.08,4.53,2.37,8.06A69.29,69.29,0,0,0,291,63.37C290.77,50.53,289.85,36,284.71,31.69Z"/><path class="cls-4" d="M214.64,53.52c-.19,1,0,2.31,1,2.68a2.75,2.75,0,0,0,1.45,0l21.56-4.12c4.65-.89,9.42-1.78,14.1-1.09a42,42,0,0,1,8.74,2.6l10.64,4c3.08,1.16,6.19,2.33,9.33,3.34.71-3.53-2.09-3-2.37-8.06s2.66-2.7,2.14-5.48-4.11-3-.15-7,.62-5.75-1.89-8.94a4.44,4.44,0,0,1-1-3.2c-7.16-2.08-15.41-.35-21.31.6s-20.17,7.21-29.68,11.29q-3.62,2.8-7.08,5.81C217.67,48,215.21,50.4,214.64,53.52Z"/><path class="cls-5" d="M280.11,76.11c1.21,14,12.82,59.77-3,88.68S228,214,193.23,205.37s-40.06-10.25-35-16.18,38.42-.34,43.48-2.47c2.53-1.06-18.64-9.82-52.19-4-13.93,2.42-14.73,5.44-13.28,9.65,13.76,19.49,35,22,58.37,25.07,36.11,4.68,88.24-5.56,99.1-42.72,4-13.59,3.86-32.27,3.64-41.75s-5.33-40.42-6.1-51.65c-.28-4-.16-10.74-.27-18a69.29,69.29,0,0,1-9.55-2.44C280.71,64.46,278.91,62.14,280.11,76.11Z"/><path class="cls-6" d="M147.81,85.31s-16.12,7.52-20.18,21.44-3,29.12,14.75,43.24C142.38,150,173,118,147.81,85.31Z"/><path class="cls-7" d="M197.09,105.88c1.47,14.19,7.7,32.32,23.45,42.12s35.4,9.06,45.15,1.49,14.34-21.18,1.77-42.88S193.41,70.35,197.09,105.88Z"/><path class="cls-4" d="M194.34,111c1,7.88,11.42,14,14.31,3.72s4.63-23.8,24.43-28.36,33.57,13.06,35.55,15.92,5,12.33,4.88,17.94,12.39,15.62,10.07-8.05c-2.54-25.93-16-40.6-39.69-45.1C223.53,63.17,190.44,79.68,194.34,111Z"/><path class="cls-6" d="M232.65,86.05c-11.66,2.59-21.92,10.73-25.74,18.37s-4,29.6,17.25,39.57,37-2.78,41.54-8a29.39,29.39,0,0,0,3.39-32c-6.51-13.34-21-21-35.6-18.11Q233.07,85.95,232.65,86.05Z"/><path class="cls-8" d="M239.87,148.93a37.94,37.94,0,0,1-16.25-3.8c-11.17-5.25-16-13.47-18.06-19.44-3-8.67-2-17.39.23-21.83,4.27-8.55,15.45-16.56,26.58-19h0l.88-.18c14.92-3,30.12,4.78,37,18.78a30.59,30.59,0,0,1-3.57,33.4A36.53,36.53,0,0,1,239.87,148.93Zm-7-61.66C221.07,89.91,211.43,98.18,208,105c-2.71,5.43-2.1,14.12-.1,19.89,1.92,5.51,6.38,13.11,16.76,18,8.85,4.16,17.63,4.71,26.08,1.65a35.35,35.35,0,0,0,14-9.33A28,28,0,0,0,268,104.53c-6.35-13-20.43-20.16-34.23-17.43l-.82.17Z"/><path class="cls-4" d="M135.15,93s3.09-19.27,12.9-23.07,18.92-.79,21.33,14.9,1.73,22.59-2.55,28.67S158.9,127.75,155.55,124c0,0,2.81-16.1-1.09-23.33S143.21,82,135.15,93Z"/><path class="cls-7" d="M134,142.47s-.77,11.35,2.49,14,12-12.23,11.74-16.87S134,142.47,134,142.47Z"/><path class="cls-8" d="M164.94,73.47a102.2,102.2,0,0,1,10.93-10.39,60.92,60.92,0,0,1,20.33-11c8.05-2.64,16.29-4.66,24.34-7.31,6.9-2.28,13.42-5.42,20.12-8.21a111.66,111.66,0,0,1,22-7.1c6.5-1.24,13.62-1.53,19.66,1.6a9.08,9.08,0,0,1,4.17,3.64c1.8,3.07,2.32,6.92,2.75,10.39,2,16.08.82,32.39,2.42,48.52,1,10.51,3.39,20.8,4.58,31.27,2.62,23.07.42,50-15.42,68.37a50.06,50.06,0,0,1-25.3,15.89,4,4,0,0,1-.5.09c-2.12.35-1.22,3.58.89,3.23,8.77-1.44,17.35-7,23.64-13,17.51-16.7,21.76-42.38,20.72-65.54-.51-11.14-2.92-21.94-4.41-33-2.27-16.69-1.5-33.47-2.73-50.23-.5-6.8-.73-16.57-6.81-21.11-9.84-7.37-24.25-4.11-34.9-.63a221.11,221.11,0,0,0-20.75,8.32c-7.82,3.47-16,5.86-24.18,8.22-7.4,2.12-15.07,4.1-21.93,7.66s-13.15,9-18.69,14.56c-1.12,1.11-2.22,2.24-3.27,3.41-1.44,1.6.92,4,2.36,2.36Z"/><path class="cls-8" d="M166.34,115.14a1.42,1.42,0,0,1-.65-.16,1.47,1.47,0,0,1-.66-2c6.93-13.94,2.09-29.66.44-34.15s-4.51-7.55-8.1-8.73a11.15,11.15,0,0,0-9.84,1.7c-7.38,4.9-11.47,23.58-11.51,23.77a1.46,1.46,0,0,1-2.86-.61c.18-.82,4.38-20,12.75-25.6a14.13,14.13,0,0,1,12.37-2c4.46,1.46,8,5.19,9.94,10.5,1.75,4.77,6.88,21.47-.56,36.46A1.48,1.48,0,0,1,166.34,115.14Z"/><path class="cls-8" d="M194.52,113.83a1.47,1.47,0,0,1-1.44-1.19,39.73,39.73,0,0,1,14.11-35.89C225,61.56,247.72,62.31,261,70.91c13.64,8.86,20.85,19,24.1,34a1.46,1.46,0,0,1-2.86.62c-3.12-14.33-9.73-23.64-22.83-32.16-12.32-8-33.55-8.64-50.28,5.62A37.45,37.45,0,0,0,196,112.1a1.47,1.47,0,0,1-1.17,1.71Z"/><path class="cls-8" d="M142.38,151.24a1.16,1.16,0,0,1-.6-.15c-.25-.13-6.28-3.45-11.25-12.45-4.84-8.74-9.59-20.53-3.3-34.13,6.08-13.16,14.93-16.92,15.3-17.07a1.26,1.26,0,0,1,1,2.32c-.08,0-8.34,3.6-14,15.8-5.82,12.58-1.34,23.64,3.21,31.87s10.2,11.42,10.25,11.45a1.26,1.26,0,0,1-.59,2.36Z"/><path class="cls-8" d="M135.47,175.48a1.45,1.45,0,0,1-1.42-1.14c-2.67-12.05-1.58-31.15-1.53-32a1.46,1.46,0,1,1,2.92.17c0,.19-1.12,19.5,1.46,31.14a1.46,1.46,0,0,1-1.11,1.75A1.66,1.66,0,0,1,135.47,175.48Z"/><path class="cls-8" d="M225,220.88h0c-11.64-.2-49.08-3-66.82-10.11a64.62,64.62,0,0,1-21.79-14.64c-5.59-5.78-8.67-11.52-8.22-15.34.64-5.52,4.14-8.53,22.26-10.66a181.28,181.28,0,0,1,48.23,0c24.06,3.27,40.74,3.62,49.54-4.78a1.46,1.46,0,0,1,2,2.12c-9.65,9.21-27,8.95-52,5.56a178.77,178.77,0,0,0-47.39,0h-.07c-19,2.24-19.4,5.35-19.72,8.1-.69,5.86,11.68,20.26,28.2,26.92C176.37,215,214,217.77,225,218a1.47,1.47,0,0,1,0,2.93Z"/><path class="cls-8" d="M167.9,145.14s-5.22,3.13-4.36,4.87S167.23,151.84,167.9,145.14Z"/><path class="cls-8" d="M182.6,145.38s1.25,5.57,3.3,5.41S188.17,149,182.6,145.38Z"/><ellipse class="cls-6" cx="238.78" cy="116.77" rx="23.67" ry="25.39" transform="translate(119.24 354.18) rotate(-89.33)"/><path class="cls-8" d="M238.83,140.86h-.33a26.58,26.58,0,0,1-18.15-7.26,23,23,0,0,1,.39-34.08,26.57,26.57,0,0,1,18.32-6.83c14.23.16,25.68,11.1,25.53,24.38h0C264.44,130.25,252.91,140.86,238.83,140.86Zm-.1-47.34a25.8,25.8,0,0,0-17.43,6.62,22.14,22.14,0,0,0-.38,32.86,25.76,25.76,0,0,0,17.59,7c13.78.17,25.09-10.14,25.24-23s-10.93-23.38-24.7-23.54Zm25.44,23.55h0Z"/><ellipse class="cls-9" cx="238.61" cy="116.95" rx="20.45" ry="18.09" transform="translate(-14.15 34.95) rotate(-8.14)"/><path class="cls-8" d="M237.86,135.52a21.76,21.76,0,0,1-12-3.5A17.42,17.42,0,0,1,218,119.91c-1.45-10.11,6.64-19.65,18-21.28a22.14,22.14,0,0,1,15.35,3.26A17.38,17.38,0,0,1,259.26,114c1.45,10.1-6.64,19.65-18,21.28A24.08,24.08,0,0,1,237.86,135.52Zm1.49-36.3a22.42,22.42,0,0,0-3.25.24c-10.93,1.56-18.7,10.68-17.32,20.33a16.58,16.58,0,0,0,7.55,11.53,21.31,21.31,0,0,0,14.78,3.13c10.93-1.56,18.71-10.68,17.33-20.33a16.58,16.58,0,0,0-7.56-11.53A20.92,20.92,0,0,0,239.35,99.22Z"/><path class="cls-6" d="M146.06,146.08s-9.59-3.86-12.88-15.94.38-22.07,7.28-30.41c9-10.93,12.15-4.79,12.15-4.79S164.87,112.56,146.06,146.08Z"/><path class="cls-8" d="M146.06,146.5a.41.41,0,0,1-.16,0,24.88,24.88,0,0,1-13.12-16.22c-3-10.93-.5-21.28,7.36-30.78,3.89-4.71,7.24-6.94,9.92-6.64A3.81,3.81,0,0,1,153,94.72c.26.39,3.14,4.79,3.84,13.19,1.19,14.31-5,28.77-10.39,38.38A.42.42,0,0,1,146.06,146.5Zm3.53-52.86c-1.7,0-4.53,1.19-8.81,6.36-7.78,9.41-10.14,19.23-7.19,30a24.2,24.2,0,0,0,12.29,15.51c5.28-9.48,11.23-23.58,10.1-37.5-.68-8.41-3.68-12.82-3.71-12.86l0-.05A3,3,0,0,0,150,93.66Z"/><path class="cls-8" d="M142.85,89.49a1.14,1.14,0,0,1-.26,0,1.45,1.45,0,0,1-1.18-1.7c2.59-14.54,9.56-20.3,9.85-20.54a1.46,1.46,0,0,1,1.85,2.27c-.1.08-6.44,5.44-8.82,18.79A1.46,1.46,0,0,1,142.85,89.49Z"/><path class="cls-8" d="M152.44,96.63a1.58,1.58,0,0,1-.52-.09,1.47,1.47,0,0,1-.84-1.89c5.47-14.39,15.59-16.24,16-16.31a1.46,1.46,0,1,1,.49,2.88c-.38.07-8.94,1.76-13.78,14.47A1.47,1.47,0,0,1,152.44,96.63Z"/><path class="cls-8" d="M212.7,95.8a1.47,1.47,0,0,1-1.45-1.28c-1-7.31-8.52-9.73-8.84-9.83a1.46,1.46,0,0,1,.85-2.8c.4.12,9.68,3,10.89,12.25a1.46,1.46,0,0,1-1.26,1.64Z"/><path class="cls-8" d="M237.93,85.11a1.53,1.53,0,0,1-.3,0,1.46,1.46,0,0,1-1.14-1.73c2.1-10.28-.4-15.37-.42-15.42a1.46,1.46,0,0,1,2.6-1.35c.12.24,3,5.94.69,17.36A1.46,1.46,0,0,1,237.93,85.11Z"/><path class="cls-8" d="M262.47,95.53a1.46,1.46,0,0,1-1.09-2.44c4.06-4.5,5.39-8.22,5.78-10.54a8.33,8.33,0,0,0,0-3.61,1.46,1.46,0,1,1,2.76-1c.1.29,2.44,7.32-6.34,17.08A1.47,1.47,0,0,1,262.47,95.53Z"/><path class="cls-9" d="M151.27,136.7c-7.25,5.45-12.1-.7-13.84-4.36s-3.8-18.2,4.92-25.73,15.4,1,15.4,1S157,126.55,151.27,136.7Z"/><path class="cls-8" d="M145.7,139.28a6.86,6.86,0,0,1-1.69-.21c-4-1-6.35-5.27-7-6.55-2-4.27-3.56-18.81,5-26.23,2.75-2.38,5.6-3.44,8.45-3.15a12,12,0,0,1,7.55,4.25.4.4,0,0,1,.08.28c0,.19-.82,19.12-6.52,29.24a.69.69,0,0,1-.11.13A9.82,9.82,0,0,1,145.7,139.28Zm3.94-35.35a10.76,10.76,0,0,0-7,3c-8.82,7.61-6.27,22.2-4.82,25.24.57,1.2,2.72,5.19,6.4,6.1,2.12.52,4.39-.1,6.74-1.84,5.29-9.47,6.28-26.78,6.37-28.63a11.25,11.25,0,0,0-6.88-3.82A7.26,7.26,0,0,0,149.64,103.93Zm1.63,32.77h0Z"/><path class="cls-8" d="M138.23,158.05a1.25,1.25,0,0,1-1-2l1-1.39c11.46-15.39,19-25.56,17.94-45.58a22.32,22.32,0,0,0-13.86-19.85,1.27,1.27,0,0,1-.76-1.61,1.26,1.26,0,0,1,1.6-.76c.15.06,14.63,5.41,15.53,22.09,1.13,20.92-6.65,31.38-18.43,47.21l-1,1.38A1.23,1.23,0,0,1,138.23,158.05Z"/><circle class="cls-10" cx="238.94" cy="115.33" r="10.22"/><path class="cls-8" d="M238.94,126a10.65,10.65,0,1,1,1.76-.15A10.55,10.55,0,0,1,238.94,126Zm-9.66-9a9.8,9.8,0,1,0,1.69-7.31,9.81,9.81,0,0,0-1.69,7.31Z"/><circle class="cls-11" cx="239.08" cy="115.19" r="7.09"/><circle class="cls-12" cx="233.39" cy="109.33" r="2.17"/><path class="cls-13" d="M156.24,118.93c.14-.77.3-1.53.48-2.29A9.69,9.69,0,1,0,152.44,134c.21-.5.42-1,.61-1.53.77-2,1.46-4,2.15-6a28.77,28.77,0,0,0,.47-3.09C155.83,121.89,155.94,120.38,156.24,118.93Z"/><path class="cls-8" d="M151,134.53a10.11,10.11,0,0,1-1.67-20.08,10,10,0,0,1,7.69,1.86.42.42,0,0,1,.16.43c-.18.75-.34,1.51-.48,2.27h0a35.59,35.59,0,0,0-.48,3.55c0,.27,0,.54-.08.81a31.59,31.59,0,0,1-.48,3.13s0,0,0,0c-.76,2.27-1.42,4.16-2.15,6.06-.19.52-.4,1-.61,1.54a.41.41,0,0,1-.32.26A10.25,10.25,0,0,1,151,134.53Zm0-19.38a10.21,10.21,0,0,0-1.55.12,9.28,9.28,0,0,0,2.73,18.35c.17-.44.35-.87.51-1.31.73-1.88,1.38-3.76,2.13-6a29.72,29.72,0,0,0,.47-3c0-.26.05-.53.08-.8a35.29,35.29,0,0,1,.49-3.64c.12-.67.26-1.35.42-2A9.16,9.16,0,0,0,151,115.15Zm5.27,3.78h0Z"/><path class="cls-11" d="M153.81,130.42c.48-1.32.94-2.66,1.39-4a28.77,28.77,0,0,0,.47-3.09c.13-1.15.22-2.35.41-3.53a6.75,6.75,0,1,0-2.27,10.62Z"/><circle class="cls-12" cx="145.68" cy="118.73" r="2.06"/><path class="cls-8" d="M250.54,177.37a1.52,1.52,0,0,1-.42-.06,1.48,1.48,0,0,1-1-1.83c1.27-4.21,1.58-8.75.64-9.34-1.59-1-6.38-.48-9.27.18a1.46,1.46,0,1,1-.66-2.85c7.75-1.77,10.91-.16,11.46.18,3.5,2.15,1.37,10.25.63,12.68A1.46,1.46,0,0,1,250.54,177.37Z"/><path class="cls-8" d="M125.5,257a1.47,1.47,0,0,1-.83-2.67c7.92-5.49,14.77-10.89,20.81-15.65C159,228,168.81,220.3,179.64,220c14.58-.41,22.26-3.73,22.33-3.76a1.47,1.47,0,0,1,1.19,2.68c-.33.14-8.21,3.57-23.43,4-9.87.28-19.34,7.75-32.44,18.09-6.07,4.79-12.95,10.22-21,15.76A1.48,1.48,0,0,1,125.5,257Z"/><path class="cls-8" d="M125.07,264.15a1.47,1.47,0,0,1-1.47-1.46,150.39,150.39,0,0,0-1.49-18.15c-1.43-10.39-1.33-23.18,1.66-26.45a18.36,18.36,0,0,1,2.83-2.24c3.38-2.37,8-5.62,8-12.1a1.47,1.47,0,0,1,2.93,0c0,8-5.57,11.91-9.26,14.49a17.66,17.66,0,0,0-2.35,1.83c-.67.73-1.48,3.37-1.72,8.55a90,90,0,0,0,.8,15.52,148.18,148.18,0,0,1,1.52,18.55A1.46,1.46,0,0,1,125.07,264.15Z"/><path class="cls-8" d="M110.82,293.08a1.55,1.55,0,0,1-.56-.11c-.28-.12-7-3-9.91-13.48-1.61-5.69-.33-16,1.3-29.1,1.35-10.84,2.88-23.12,3.17-35.82a58.51,58.51,0,0,0-3.25-15.39A30.79,30.79,0,0,1,100,186.51c.16-2,.74-6.62,2.66-7.51,1.21-.56,3.23-.37,6.4,0,1.2.14,2.33.27,3.23.3,1.57.06,6.7.91,6.7,9.34a47.1,47.1,0,0,0,.37,5.11c.46,4.32.89,8.39-2.15,9.63a5.08,5.08,0,0,1-5-.42c-2.62-1.79-3.88-6.15-3.76-12.94a1.47,1.47,0,0,1,1.47-1.44h0a1.46,1.46,0,0,1,1.44,1.49c-.14,7.82,1.69,9.93,2.49,10.48a2.22,2.22,0,0,0,2.19.12c1-.41.61-4,.33-6.61a54.2,54.2,0,0,1-.38-5.42c0-2.34-.51-6.28-3.88-6.41-1,0-2.26-.19-3.46-.33a25,25,0,0,0-4.68-.28c-.9,1.42-2.37,9.26.29,16.56a60.29,60.29,0,0,1,3.43,16.3v.1c-.3,12.88-1.84,25.25-3.19,36.17-1.53,12.25-2.84,22.83-1.4,27.94,2.25,7.94,6.72,10.78,7.93,11.43,17.24-1.86,62-29.48,62.43-29.76a1.46,1.46,0,0,1,1.54,2.49c-1.89,1.17-46.48,28.7-64.11,30.22Z"/><path class="cls-8" d="M177.34,364.79a1.48,1.48,0,0,1-1.42-1.09c-13.2-50.24-5.42-98.93-5.34-99.42a1.46,1.46,0,1,1,2.88.48c-.07.48-7.74,48.58,5.3,98.19a1.48,1.48,0,0,1-1,1.79A1.57,1.57,0,0,1,177.34,364.79Z"/><path class="cls-8" d="M284.82,366a1.46,1.46,0,0,1-1.46-1.46c0-6.78.07-16.93.16-28.69.21-29.11.5-69-.12-90.54-.34-12.07-4-21.58-11-28.26A27.57,27.57,0,0,0,262,210.56a1.46,1.46,0,0,1,.78-2.82,29.84,29.84,0,0,1,11.55,7.07c5.23,5,11.57,14.29,12,30.4.62,21.63.33,61.52.12,90.65-.09,11.75-.16,21.9-.16,28.67A1.46,1.46,0,0,1,284.82,366Z"/><path class="cls-8" d="M119.81,212.73a9.71,9.71,0,0,1-4.23-.86c-2.58-1.24-3.81-3.46-3.27-5.93.74-3.36,4.4-5.95,8.52-6a20.41,20.41,0,0,0,6.07-1.18c2.36-.74,4.59-1.44,7.09,0,4,2.25,3.5,7.63,2.24,10.5a1.46,1.46,0,0,1-2.68-1.18c.43-1,1.62-5.3-1-6.77-1.33-.75-2.48-.43-4.77.28a23,23,0,0,1-6.9,1.31c-3,.06-5.32,2-5.71,3.73-.24,1.12.32,2,1.68,2.66,3.86,1.86,11-1.21,13.45-2.55a1.47,1.47,0,0,1,1.41,2.57C131.39,209.42,125.31,212.73,119.81,212.73Z"/><path class="cls-8" d="M122.32,202.45a5.17,5.17,0,0,1-4.86-3.3,1.46,1.46,0,0,1,2.69-1.16,2.41,2.41,0,0,0,3.19,1.37c1.36-.41,2.21-1.44,2.12-1.92-.32-1.73-.52-5.17-.72-8.49-.15-2.57-.29-5-.48-6.5a3.21,3.21,0,0,0-1.62-2.48,5.41,5.41,0,0,0-4.77,0,21.88,21.88,0,0,1-7.8,1.85,1.47,1.47,0,1,1,0-2.93,19.6,19.6,0,0,0,6.67-1.61,8.24,8.24,0,0,1,7.38.18,6.13,6.13,0,0,1,3.06,4.66c.19,1.6.34,4.06.49,6.67.2,3.24.4,6.58.68,8.13.34,1.84-1,4.31-4.14,5.26A6.38,6.38,0,0,1,122.32,202.45Z"/><path class="cls-8" d="M124.2,180.3a1.48,1.48,0,0,1-1.06-2.49,5.91,5.91,0,0,1,7-.84,1.46,1.46,0,0,1-1.31,2.62,3,3,0,0,0-3.59.26A1.46,1.46,0,0,1,124.2,180.3Z"/><path class="cls-8" d="M130.72,199.88a5.94,5.94,0,0,1-4.81-2.32,1.46,1.46,0,0,1,.38-2,1.48,1.48,0,0,1,2,.36,3.11,3.11,0,0,0,3,1c1.49-.22,1.94-3.14,2-3.91a1.46,1.46,0,0,1,2.92.13c-.1,2.26-1.15,6.2-4.49,6.68A7.53,7.53,0,0,1,130.72,199.88Z"/><path class="cls-1" d="M274.77,230.52a69.91,69.91,0,0,0-18.56,10.58c-8.74,7.12-31.19,27.2-31.19,27.2s-32.17-7.66-37.67-10.79a64.52,64.52,0,0,1-8.85-5.94s-4.21-16-8.42-23.21-12.63-5.07-12.63-5.07a40.11,40.11,0,0,0-6.8-.43,18.27,18.27,0,0,0-4.75,1.29L143.63,226s-4.1,1-4.53,3.13a6.13,6.13,0,0,0,.54,3.88s-3.13-1.4-3.13.76,3.13,8.42,3.13,8.42l.65,1.4,3.34-1.4s7.56,12.2,12.52,15.11,10.15,3.67,12.52,6,23.43,17.38,42.1,26.66,24.07,9.18,26.23,8.64,28.6-17.27,40-33.46,9.71-21.16,8.64-27.42S274.77,230.52,274.77,230.52Z"/><path class="cls-8" d="M234.66,300c-2.17,0-10.64-2.19-22.75-7.78a212.62,212.62,0,0,1-46.08-29.49c-1.84-.49-10.51-3.06-14.39-8l-1.13-1.44c-3.72-4.73-7.94-10.09-10.52-12.68a1.46,1.46,0,1,1,2.07-2.07c2.71,2.71,7,8.15,10.75,12.94l1.13,1.44c3.64,4.63,13,7,13.13,7a1.46,1.46,0,0,1,.58.3c34.85,29,64.63,36.79,67.13,36.79h0c1.54-.11,9.55-3.77,25.66-18.61,2.09-1.93,4.06-3.69,5.95-5.4,10.26-9.21,17-15.29,18.64-25.27,1.74-10.9-3.77-14.4-4-14.54l-.06,0c-.33-.21-8.56-5.19-23.15,7.81-15.58,13.86-31.51,28.23-31.67,28.38a1.48,1.48,0,0,1-1.48.29c-.07,0-7-2.52-21-6.5-4.58-1.31-7.88-2.06-10.53-2.67-5.55-1.28-8.33-1.92-13.48-5.47a1.46,1.46,0,0,1,1.66-2.41c4.69,3.23,7,3.76,12.47,5,2.69.62,6,1.39,10.68,2.71,11.38,3.23,18.13,5.5,20.37,6.27,3.14-2.83,17.24-15.52,31-27.81,16.1-14.34,25.93-8.57,26.68-8.08s7.39,4.85,5.37,17.5c-1.76,11-8.85,17.37-19.57,27-1.89,1.7-3.85,3.45-5.93,5.37C250,291.9,239,299.68,234.83,300Z"/><path class="cls-8" d="M140.61,245.48a1.47,1.47,0,0,1-.84-.27,10.65,10.65,0,0,1-4.51-8.23c-.16-3.66.12-4.5.4-5a1.76,1.76,0,0,1,1.15-.87c.52-.13,2.08-.5,9.7,4.68a1.46,1.46,0,0,1-1.65,2.42,52.06,52.06,0,0,0-6.7-4c0,.54,0,1.36,0,2.6a7.73,7.73,0,0,0,3.27,6,1.47,1.47,0,0,1,.36,2A1.45,1.45,0,0,1,140.61,245.48Z"/><path class="cls-8" d="M138.88,234.47a1.45,1.45,0,0,1-1.42-1.14c0-.17-.89-4.1,1.5-6.89a4.63,4.63,0,0,1,3.5-1.59c3-.08,6.84,2.1,10.76,6.17a1.46,1.46,0,0,1-2.11,2c-3.24-3.36-6.44-5.34-8.57-5.27a1.75,1.75,0,0,0-1.36.56c-1.42,1.67-.87,4.32-.87,4.34a1.46,1.46,0,0,1-1.1,1.75A1.24,1.24,0,0,1,138.88,234.47Z"/><path class="cls-8" d="M161.12,230.37a1.45,1.45,0,0,1-1.2-.63c-1.84-2.64-4.32-5.38-8.85-5.75a5.27,5.27,0,0,0-5.52,3.14,1.47,1.47,0,0,1-2.76-1,8.17,8.17,0,0,1,8.52-5.06c5.77.46,8.91,4,11,7a1.45,1.45,0,0,1-.37,2A1.42,1.42,0,0,1,161.12,230.37Z"/><path class="cls-8" d="M180.22,255.08a1.43,1.43,0,0,1-1-.38c-3.36-3-5.76-11-7.51-16.85-.28-.93-.54-1.79-.78-2.57-1.66-5.29-5.49-9.38-8.24-10.53a4.34,4.34,0,0,0-4.39.71,1.47,1.47,0,0,1-2-2.17,7.28,7.28,0,0,1,7.49-1.24c4.09,1.71,8.16,6.79,9.9,12.35.25.79.51,1.67.8,2.61,1.55,5.18,3.91,13,6.67,15.53a1.46,1.46,0,0,1-1,2.54Z"/></svg>