<svg id="Capa_2" data-name="Capa 2" xmlns="http://www.w3.org/2000/svg" xmlns:xlink="http://www.w3.org/1999/xlink" viewBox="0 0 400 400"><defs><style>.cls-1{fill:#ffe266;}.cls-2{fill:#5ea837;}.cls-3{fill:#7fe247;}.cls-4{fill:#175807;}.cls-5{fill:#feec30;}.cls-6{fill:#0bab92;}.cls-7{fill:#06f5e2;}.cls-8{fill:#53a22f;}.cls-9{fill:#295654;}.cls-10{fill:#83e145;}.cls-11{fill:url(#linear-gradient);}.cls-12{fill:#060203;}.cls-13{fill:#fff;}.cls-14{fill:url(#linear-gradient-2);}.cls-15{fill:#68182b;}.cls-16{fill:#aa8053;}.cls-17{fill:#ff801d;}.cls-18{fill:#ee9e2b;}.cls-19{fill:#ef6200;}.cls-20{fill:#facb1a;}.cls-21{fill:#865725;}</style><linearGradient id="linear-gradient" x1="8137.44" y1="-984.4" x2="8137.44" y2="-1004.26" gradientTransform="matrix(-1, -0.02, -0.02, 1, 8381.87, 1310.57)" gradientUnits="userSpaceOnUse"><stop offset="0" stop-color="#e8af15"/><stop offset="0.04" stop-color="#d69a16"/><stop offset="0.11" stop-color="#b87817"/><stop offset="0.19" stop-color="#9e5b18"/><stop offset="0.28" stop-color="#8a4319"/><stop offset="0.39" stop-color="#7a3119"/><stop offset="0.51" stop-color="#6e241a"/><stop offset="0.66" stop-color="#681c1a"/><stop offset="1" stop-color="#661a1a"/></linearGradient><linearGradient id="linear-gradient-2" x1="8225.89" y1="-992.98" x2="8225.89" y2="-1011.82" xlink:href="#linear-gradient"/></defs><title>I</title><path class="cls-1" d="M146.63,24.11l1.38-2-.07,2.43a20.33,20.33,0,0,0,27.14,19.72l2.3-.82-1.49,1.93a20.34,20.34,0,0,0,10.37,31.91l2.33.68-2.33.69a20.33,20.33,0,0,0-10.37,31.9l1.49,1.94-2.3-.82a20.33,20.33,0,0,0-27.14,19.71l.07,2.44-1.38-2a20.32,20.32,0,0,0-33.54,0l-1.38,2,.07-2.44a20.32,20.32,0,0,0-27.13-19.71l-2.3.82,1.49-1.94a20.33,20.33,0,0,0-10.37-31.9L71.13,78l2.34-.68A20.34,20.34,0,0,0,83.84,45.36l-1.49-1.93,2.3.82a20.32,20.32,0,0,0,27.13-19.72l-.07-2.43,1.38,2A20.32,20.32,0,0,0,146.63,24.11Z"/><path class="cls-2" d="M287.85,272.24s2.8-12.85,13.1-7.23c6.6,3.59,15.81,23.74,18.9,50.62S308.34,353.51,297.11,350,278.3,317.57,287.85,272.24Z"/><path class="cls-3" d="M185,354.91a209.18,209.18,0,0,1,23.84-79.1c-4.95-16.5-7.9-10.39-13-8.17s-11.56,21.41-14.6,37-5.91,27.78-6.15,56.92c0,0,4.31,6.31,10.32,6.23C188.85,367.72,184.47,361,185,354.91Z"/><path class="cls-2" d="M208.88,275.81A209.18,209.18,0,0,0,185,354.91c-.57,6.1-2.8,11.86.45,12.85s10.72.24,10.72.24,17.87-74.51,12.82-91.67Z"/><path class="cls-4" d="M176.66,361.86a171.72,171.72,0,0,1,2.06-41.63c1.22-6.7,2.83-13.32,4.64-19.88s3.61-13.43,6.11-19.87,6.25-12.92,12.92-15.51c1.49-.57.84-3-.67-2.42-12.5,4.85-15.83,20-19.17,31.48-4,13.68-7.27,27.57-8.37,41.81a183.71,183.71,0,0,0,0,26c.1,1.6,2.61,1.61,2.5,0Z"/><path class="cls-4" d="M204.82,269c3.53,4.9,3.51,11,3.06,16.8-.53,6.73-1.32,13.46-2.14,20.16-1.59,13-3.61,25.9-5.86,38.77-1.33,7.59-2.73,15.15-4.14,22.72-.3,1.58,2.12,2.25,2.42.67,5.06-27.05,9.86-54.22,12.18-81.67.54-6.39.56-13.29-3.35-18.72-.94-1.29-3.12,0-2.17,1.27Z"/><path class="cls-5" d="M262.08,291.73c-.41-6.25-1.19-12.75-4.62-18-5.18-8-15.93-11.32-25.12-9s-16.61,9.77-20.33,18.5c-2.55,6-3.51,12.56-4.29,19a404.67,404.67,0,0,0-2.27,70.89s2.71,4.8,26.88,4.7,28.93-4.7,28.93-4.7C260.17,346.21,263.84,318.81,262.08,291.73Z"/><path class="cls-3" d="M212.92,245.33c-2.89,7.38-6.59,14.13-13.68,20.47,0,0-2.31,3.72-2.29,32.91s.94,49.82,4.38,72.1l4.12,2.39a404.67,404.67,0,0,1,2.27-70.89c.78-6.48,1.74-13,4.29-19,3.72-8.73,11.14-16.13,20.33-18.5s19.94,1,25.12,9c3.43,5.26,4.21,11.76,4.62,18,1.76,27.08-1.91,54.48-.82,81.47l14.17-1.79c17.94-5.67,14.44-35.47,17.47-24.37,0,0-16.19-61.72-12.78-67.53a15.17,15.17,0,0,1,9.27-6.87c-2.55-7.13-5.48-13.08-7.47-18.95-17.07-2.59-34.62-1.2-51.81-3.25C224.23,249.74,217.94,248.29,212.92,245.33Z"/><path class="cls-2" d="M271.54,221.71c-4.15-4.85-12.34-18.6-30.46-13.21s-21.7,17.94-25.26,28.64c-.94,2.82-1.87,5.54-2.9,8.19,5,3,11.31,4.41,17.19,5.11,17.19,2.05,32.46,9.43,49.52,12-.4-1.2,5.52-3.69,4.63-4.56C279.17,253,275.7,226.56,271.54,221.71Z"/><path class="cls-2" d="M296.57,366.52l-21.14,4.89s1.39-54-3.58-85.68-6-35.19-6-35.19h19.86S300,296.15,296.57,366.52Z"/><path class="cls-4" d="M199.42,267A53.2,53.2,0,0,0,213.75,247c3.21-7.89,4.07-16.78,8.73-24.06a29.54,29.54,0,0,1,17.76-12.55,28.36,28.36,0,0,1,21.49,3.5,29.2,29.2,0,0,1,8.16,7.34,33.46,33.46,0,0,1,5.2,10.95c1.21,4.18,2,8.47,3.06,12.68a68.59,68.59,0,0,0,4.77,12.69,107.37,107.37,0,0,1,5.23,12.66,108.55,108.55,0,0,1,3.34,12.93,185,185,0,0,1,3,26.77c.43,8.85.56,17.71,1,26.56.41,7.85.81,15.7.8,23.56q0,3.42-.09,6.84a1,1,0,0,0,2.09,0c.21-8.48,0-16.94-.45-25.4-.44-8.7-.75-17.4-1.06-26.11-.63-18.2-2.31-36.79-9.64-53.67-1.86-4.3-4.16-8.41-5.65-12.86-1.42-4.22-2.24-8.6-3.26-12.92a48.66,48.66,0,0,0-4.35-12.37,30.2,30.2,0,0,0-7.21-8.69,31.24,31.24,0,0,0-21.06-7.33,31.78,31.78,0,0,0-20.57,9,30.84,30.84,0,0,0-6.69,9.79,99.08,99.08,0,0,0-4.1,12.6,61.51,61.51,0,0,1-4.62,12,50.88,50.88,0,0,1-7.19,10.26,50.28,50.28,0,0,1-4.49,4.39c-1,.89.47,2.36,1.48,1.48Z"/><path class="cls-4" d="M197,281.37c-1.06,11.73-1.63,23.52-1.57,35.31a322.59,322.59,0,0,0,2,34.59q1.13,9.94,2.84,19.82a1.05,1.05,0,0,0,1.29.73,1.07,1.07,0,0,0,.73-1.28,323.15,323.15,0,0,1-4.13-34.8,335.67,335.67,0,0,1-.39-34.46q.41-10,1.31-19.91a1.06,1.06,0,0,0-1-1.05,1.07,1.07,0,0,0-1,1.05Z"/><path class="cls-4" d="M297.24,367.87a1,1,0,0,0,0-2.09,1,1,0,0,0,0,2.09Z"/><path class="cls-3" d="M189.69,243c16.7,5.94,42.41,10.27,41.28,12.69s-50.62-45.73-56.5-41S173.35,222,205,236.41s67.17,1,87.41-23.81,17.32-70.65,18.66-84.2,2.65-11,3.95-14.27c-2.82-1.53-5.57-3.2-8.31-4.86l-9.45-5.73a41.66,41.66,0,0,0-7.89-4C285.06,98,280.35,98,275.74,98l-21.34.09a2.6,2.6,0,0,1-1.38-.25c-.85-.53-.8-1.8-.44-2.74,1.1-2.87,3.88-4.7,6.53-6.26s5.16-2.93,7.8-4.29c-3.23.73-5.92,1.31-7.59,1.6-6.77,1.15-21.08,2.36-35.39,5.48s-24.51,13.2-24.51,13.2c-4.62,4.77-38,46.43-40.28,56.64s-4.88,34.76-4.88,34.76c-7.13.11-5.91,8.11-5.91,8.11-.47,3.73,9.1,18.58,13.43,22.17C168.33,231.89,176.73,238.38,189.69,243Z"/><path class="cls-6" d="M323.42,86.78a17.37,17.37,0,0,0-5.67-4.47,4.37,4.37,0,0,0,.4,3.24c1.83,3.5,4.72,5.72.21,8.89s-1.1,4-1.1,6.71-2.38,0-3,4.86,2.13,4.88.82,8.12a69,69,0,0,0,8.69,4C325.86,105.86,327.57,91.82,323.42,86.78Z"/><path class="cls-7" d="M252.58,95.13c-.36.94-.41,2.21.44,2.74a2.6,2.6,0,0,0,1.38.25L275.74,98c4.61,0,9.32,0,13.67,1.47a41.66,41.66,0,0,1,7.89,4l9.45,5.73c2.74,1.66,5.49,3.33,8.31,4.86,1.31-3.24-1.45-3.26-.82-8.12s3-2.11,3-4.86-3.4-3.55,1.1-6.71,1.62-5.39-.21-8.89a4.37,4.37,0,0,1-.4-3.24c-6.46-3.25-14.66-3.08-20.47-3.23s-20.55,3.3-30.37,5.5q-4,2-7.8,4.29C256.46,90.43,253.68,92.26,252.58,95.13Z"/><path class="cls-2" d="M311.11,128.4c-1.34,13.55,1.59,59.39-18.66,84.2S236.74,250.83,205,236.41s-36.45-16.94-30.57-21.71,36.78,6.53,42,5.4c2.6-.56-16.06-12.71-49.16-13.12-13.74-.17-15,2.58-14.41,6.86,9.67,21.08,30.45,24.76,51.3,34.36,32.59,15,93.47,3.39,114.3-27.95,7.47-11.23,14.76-24.9,1.75-30.6,1.48-9.1-.7-43.4.57-54.27.45-3.91,1.76-10.29,2.94-17.22a69,69,0,0,1-8.69-4C313.76,117.38,312.45,114.84,311.11,128.4Z"/><path class="cls-8" d="M183.13,113.79s-16.74,4.32-23.1,16.89S152,158,166.41,174.62C166.41,174.62,201.41,149.57,183.13,113.79Z"/><path class="cls-4" d="M166.41,175a.43.43,0,0,1-.32-.14c-6.72-7.75-10.45-15.74-11.09-23.75-.53-6.65,1-13.41,4.66-20.66,6.37-12.59,23.2-17.06,23.37-17.1a.41.41,0,0,1,.47.21C193,132.25,187.93,148,182,157.84A63.26,63.26,0,0,1,166.65,175,.37.37,0,0,1,166.41,175Zm16.5-60.75c-2.34.68-16.79,5.28-22.51,16.58-7.83,15.49-5.9,29.22,6.07,43.19a63.34,63.34,0,0,0,14.81-16.68C187.08,147.74,192.05,132.45,182.91,114.29Z"/><path class="cls-2" d="M223.75,152.24c2.26,13.68,9.36,30.91,25.21,39.49s34.87,6.72,43.89-1.18,12.68-21.4-.78-41.72S218.11,118,223.75,152.24Z"/><path class="cls-7" d="M221.38,157.32c1.41,7.59,11.9,12.94,14.1,2.78s3.77-11.85,22.71-17.44,32.67-.8,34.76,1.87,4,4.66,4.26,10.11,11.26,3.63,10.82-1.39c-2.2-25.23-14.18-43.6-29.71-37.34-3.38,1.36-8.64,1.56-11.75,2.73C235.44,130.35,216.25,129.82,221.38,157.32Z"/><path class="cls-8" d="M257.25,142.67c-11.15,3.19-21-.7-24.26,7s-2,29.24,19.21,37.85,35.79-4.77,39.85-10.13a29.09,29.09,0,0,0,1.31-31.61C286.2,133.07,257.53,142.59,257.25,142.67Z"/><path class="cls-4" d="M265.86,191.58a37.44,37.44,0,0,1-14.13-2.88c-11.18-4.53-16.37-12.32-18.75-18.06-3.47-8.34-3-17-1.15-21.45,2.35-5.58,7.65-5.87,13.78-6.2a50,50,0,0,0,11.29-1.52l0,0a81,81,0,0,1,16.26-3.32c10.93-1,18.08,1.4,21.26,7.05a30.24,30.24,0,0,1-1.41,33A35,35,0,0,1,265.86,191.58Zm-8.26-47.7a52.18,52.18,0,0,1-11.86,1.62c-6.29.34-9.94.72-11.59,4.66-2.3,5.48-1.16,14,1.14,19.52,2.21,5.29,7,12.49,17.38,16.69,8.85,3.59,17.39,3.65,25.4.18a34,34,0,0,0,13-9.91,27.7,27.7,0,0,0,1.22-30.23c-3.3-5.87-12.07-6.38-18.85-5.78a78.65,78.65,0,0,0-15.72,3.21Z"/><path class="cls-7" d="M169.66,118.91s6.39-17.86,16.44-19.74,18.22,2.62,17.73,18-2.39,21.89-7.56,26.93-10.11,12.17-12.64,8c0,0,5.56-14.88,3.13-22.49S179.33,109.79,169.66,118.91Z"/><path class="cls-2" d="M159.72,165.94s-2.76,10.71-.11,13.8,13.63-9.55,14.23-14S159.72,165.94,159.72,165.94Z"/><path class="cls-4" d="M201.12,104.92a91.77,91.77,0,0,1,17.21-10.49c8.56-4,17.85-4.79,27.12-5.68s18.15-1.85,27.09-4c8.37-2,16.81-3.9,25.41-4.5,7.85-.55,16.71-.23,23.31,4.6a10.65,10.65,0,0,1,4.46,6c1.31,5,.52,10.75-.07,15.84-1.19,10.46-3.48,20.74-4.57,31.21a215.81,215.81,0,0,0-.79,29.76c.25,7.29.74,14.63,0,21.9a.86.86,0,0,0,.61.81c14,5.86,1.68,24.71-4.26,31.93-10.65,13-24.84,21.52-40.72,26.55a95,95,0,0,1-12.53,3.18c-1.06.17-.61,1.79.44,1.61A97,97,0,0,0,299.5,240a79.9,79.9,0,0,0,19.44-17.83c4.38-5.58,8.58-12.17,9.71-19.31,1-6.22-1.39-11.52-7.32-14l.61.81c.7-6.62.34-13.3.09-19.94a238.37,238.37,0,0,1,.23-26.19c.83-11.23,3.16-22.21,4.65-33.35.78-5.93,1.72-12.26.72-18.22-1.66-10-13.5-13.06-22.16-13.46-8.81-.41-17.66,1.17-26.22,3-3.86.84-7.67,1.83-11.53,2.66a141.76,141.76,0,0,1-15.48,2.23c-10.23,1-21.16,1.2-30.87,4.92a85,85,0,0,0-21.1,12.14c-.84.65,0,2.1.85,1.44Z"/><path class="cls-4" d="M195.79,145.25a1,1,0,0,1-.84-1.68c9.2-12.21,7.36-28.22,6.58-32.84s-3.05-8.24-6.38-10.06a11.32,11.32,0,0,0-10-.14c-8.07,3.42-15.36,20.68-15.43,20.86a1,1,0,0,1-1.93-.81c.31-.74,7.7-18.23,16.54-22a13.38,13.38,0,0,1,11.86.24c3.9,2.13,6.54,6.23,7.43,11.54.82,4.83,2.73,21.58-7,34.45A1,1,0,0,1,195.79,145.25Z"/><path class="cls-4" d="M221.63,159.73a1,1,0,0,1-1-.8,32.39,32.39,0,0,1-.18-12.62c1.18-6.19,5-14.28,16.48-17.64a177.48,177.48,0,0,0,21.19-7.77c8.38-3.56,14.46-6.13,24.61-6.13H283c14.83.06,21.11,15.17,25.7,31.48a1,1,0,1,1-2,.56c-1.94-6.89-4.44-14.73-8.26-20.56-4.12-6.29-9.17-9.36-15.43-9.39-9.9,0-15.82,2.48-24,6a181.27,181.27,0,0,1-21.43,7.86c-8.37,2.45-13.41,7.82-15,16a30.89,30.89,0,0,0,.15,11.79,1.05,1.05,0,0,1-.77,1.27A1,1,0,0,1,221.63,159.73Z"/><path class="cls-4" d="M166.4,175.67a1.05,1.05,0,0,1-.65-.23c-.22-.18-5.34-4.39-8.48-13.83-3.05-9.18-5.48-21.23,2.92-33,8.12-11.43,17.18-13.44,17.56-13.52a1,1,0,0,1,.42,2c-.08,0-8.66,2-16.28,12.68-7.85,11.05-5.53,22.46-2.63,31.17s7.76,12.82,7.8,12.86a1,1,0,0,1-.66,1.86Z"/><path class="cls-4" d="M155.53,197.4a1,1,0,0,1-1.05-1c-.4-11.94,4-29.94,4.23-30.7a1,1,0,1,1,2,.51c-.05.18-4.56,18.48-4.17,30.12a1,1,0,0,1-1,1.08Z"/><path class="cls-4" d="M232.94,256.74l-.21,0c-11.06-2.26-46.28-11.56-61.91-21.53a62.37,62.37,0,0,1-18.09-17.76c-4.26-6.43-6.15-12.34-5.08-15.81,1.54-5,5.35-7.13,22.82-6,47.1,2.77,62.88,8.78,72.3,12.37a56.92,56.92,0,0,0,5.8,2c24.91,6.38,38.72,5,52.77-5.17a1,1,0,0,1,1.23,1.7c-14.64,10.62-28.9,12.06-54.51,5.5a58,58,0,0,1-6-2.07c-9.31-3.54-24.9-9.48-71.7-12.23-18.9-1.28-19.85,1.78-20.68,4.48-1.73,5.57,7.07,21.47,22.3,31.19,15.38,9.81,50.24,19,61.2,21.24a1,1,0,0,1-.21,2.07Z"/><path class="cls-9" d="M192,172.56s-5.55,2.07-5,3.88S190.17,178.85,192,172.56Z"/><path class="cls-9" d="M205.65,173.74s.2,5.54,2.18,5.76S210.32,178.22,205.65,173.74Z"/><path class="cls-8" d="M289.49,159.18c.61,12.69-9.92,23.51-23.54,24.17s-25.15-9.09-25.76-21.78,5.76-14.52,18.94-18C276.11,139.12,288.87,146.48,289.49,159.18Z"/><path class="cls-4" d="M264.65,183.8c-13.24,0-24.28-9.72-24.88-22.21-.64-13.18,6.43-15,19.26-18.41,9.38-2.46,18.1-1.42,23.93,2.85a17,17,0,0,1,7,13.12,22.57,22.57,0,0,1-6.55,16.92,25.92,25.92,0,0,1-17.39,7.7Zm4.07-41.09a37.49,37.49,0,0,0-9.48,1.28c-12.81,3.37-19.24,5.06-18.64,17.56.59,12,11.25,21.41,24.06,21.41l1.27,0a25,25,0,0,0,16.83-7.45,21.69,21.69,0,0,0,6.31-16.28,15.91,15.91,0,0,0-6.6-12.49C278.86,144.06,274.09,142.71,268.72,142.71Z"/><ellipse class="cls-10" cx="264.68" cy="160.56" rx="19.88" ry="17.59" transform="translate(-26.84 56.4) rotate(-11.58)"/><path class="cls-4" d="M263.72,178.66c-9.18,0-17.21-5.67-18.93-14-2-9.73,5.31-19.47,16.27-21.71s21.51,3.84,23.5,13.56S279.25,176,268.29,178.2A23.15,23.15,0,0,1,263.72,178.66Zm1.91-35.37a21.48,21.48,0,0,0-4.4.45c-10.51,2.15-17.52,11.45-15.62,20.72,1.64,8,9.32,13.36,18.11,13.37a22.13,22.13,0,0,0,4.4-.45c10.51-2.16,17.52-11.46,15.62-20.73C282.11,148.68,274.43,143.29,265.63,143.29Z"/><path class="cls-8" d="M170.62,171.55s-8.47-5.4-9.46-17.53,4.3-21,12.38-27.76c10.59-8.83,12.47-2.41,12.47-2.41S194.58,142.88,170.62,171.55Z"/><path class="cls-4" d="M170.62,172a.39.39,0,0,1-.23-.07,24.24,24.24,0,0,1-9.65-17.84c-.89-11,3.32-20.44,12.53-28.12,4.57-3.8,8.16-5.34,10.68-4.57a3.77,3.77,0,0,1,2.45,2.33c.18.42,2.15,5.15,1.31,13.29-1.42,13.89-9.9,26.61-16.77,34.83A.41.41,0,0,1,170.62,172Zm12-49.95c-1.71,0-4.48,1-8.8,4.57-9.11,7.59-13.12,16.56-12.23,27.4a23.63,23.63,0,0,0,9,17c6.74-8.12,14.93-20.52,16.33-34,.85-8.15-1.22-12.9-1.25-13s0,0,0,0a2.84,2.84,0,0,0-1.91-1.8A3.75,3.75,0,0,0,182.61,122Z"/><path class="cls-4" d="M177.91,116.55a1.19,1.19,0,0,1-.37-.06,1.05,1.05,0,0,1-.61-1.35c5-13.3,12.59-17.5,12.91-17.68a1.05,1.05,0,0,1,1.42.43,1,1,0,0,1-.43,1.41h0c-.07,0-7.22,4.07-11.94,16.58A1,1,0,0,1,177.91,116.55Z"/><path class="cls-4" d="M185.8,125.09a1,1,0,0,1-.54-.16,1,1,0,0,1-.35-1.43c7.69-12.59,17.47-12.56,17.89-12.55a1,1,0,1,1,0,2.09c-.4,0-9.05,0-16.07,11.55A1.06,1.06,0,0,1,185.8,125.09Z"/><path class="cls-4" d="M242.36,143.74a1,1,0,0,1-1-.84c-1.42-7.29-9.11-9.24-9.44-9.32a1,1,0,0,1,.49-2c.38.09,9.33,2.33,11,11a1,1,0,0,1-.83,1.22A.68.68,0,0,1,242.36,143.74Z"/><path class="cls-4" d="M268.34,138.81h-.11a1,1,0,0,1-.93-1.15c1.2-11.57-1.79-17.16-1.82-17.22a1,1,0,0,1,1.83-1c.14.24,3.34,6.14,2.07,18.45A1,1,0,0,1,268.34,138.81Z"/><path class="cls-4" d="M286,140.63a1.06,1.06,0,0,1-.63-.21,1,1,0,0,1-.21-1.46c4.49-6,5.8-11,6.1-14a12.22,12.22,0,0,0-.42-5.2,1,1,0,0,1,1.94-.79c.14.35,3.39,8.7-5.94,21.26A1.07,1.07,0,0,1,286,140.63Z"/><path class="cls-10" d="M177.28,163.52c-7.91,3.9-11.44-2.83-12.45-6.64s-.38-18.07,9.29-23.71,14.52,3.74,14.52,3.74S184.55,154.84,177.28,163.52Z"/><path class="cls-4" d="M172.82,165.12a7,7,0,0,1-2.91-.62c-3.69-1.68-5.13-6.18-5.49-7.52-1.18-4.44,0-18.61,9.49-24.17,3.06-1.78,6-2.29,8.65-1.51a11.58,11.58,0,0,1,6.45,5.42.42.42,0,0,1,0,.29c0,.18-4.2,18.12-11.45,26.78a.36.36,0,0,1-.14.1A10.49,10.49,0,0,1,172.82,165.12Zm7.24-33.34a11.5,11.5,0,0,0-5.73,1.75c-9.77,5.7-9.94,20.08-9.1,23.24.33,1.25,1.67,5.44,5,7,1.93.88,4.21.7,6.76-.55,6.74-8.1,10.77-24.44,11.19-26.21a11,11,0,0,0-5.88-4.87A8.17,8.17,0,0,0,180.06,131.78Zm-2.78,31.74Z"/><path class="cls-4" d="M161.23,181.43a1,1,0,0,1-.76-.33,1,1,0,0,1,.05-1.48l1.23-1.13c13.72-12.7,22.78-21.08,25.33-40.46a21.87,21.87,0,0,0-9.8-21.62,1,1,0,0,1,1.06-1.81c.13.08,12.91,7.71,10.81,23.7-2.64,20.13-11.92,28.72-26,41.72l-1.23,1.14A1.05,1.05,0,0,1,161.23,181.43Z"/><path class="cls-4" d="M302.15,213.69l-.24,0a1,1,0,0,1-.77-1.26c.81-3.45.56-5.86-.75-7.16-1.89-1.86-5.53-1-5.56-1a1,1,0,1,1-.51-2c.19-.05,4.8-1.18,7.53,1.51,1.87,1.84,2.32,4.91,1.32,9.13A1,1,0,0,1,302.15,213.69Z"/><path class="cls-4" d="M321.11,190.7a1.1,1.1,0,0,1-.4-.08,20.09,20.09,0,0,0-6-1.75,1,1,0,0,1,.05-2.09c.09,0,2.32.06,6.79,1.91a1,1,0,0,1-.4,2Z"/><circle class="cls-11" cx="264.68" cy="162.54" r="9.93"/><path class="cls-9" d="M264.69,172.89h-.2a10.35,10.35,0,0,1-10.15-10.55h0a10.35,10.35,0,1,1,10.35,10.55Zm0-19.86a9.43,9.43,0,1,0,.18,0Z"/><circle class="cls-12" cx="264.84" cy="162.43" r="6.89"/><circle class="cls-13" cx="259.82" cy="159.11" r="2.58"/><path class="cls-14" d="M183.77,148.53c.27-.71.56-1.41.86-2.11a9.42,9.42,0,1,0-7.18,15.82c.29-.45.58-.9.86-1.35,1.09-1.77,2.11-3.58,3.12-5.39a28.7,28.7,0,0,0,1-2.87A41.63,41.63,0,0,1,183.77,148.53Z"/><path class="cls-9" d="M177.45,162.66h0a9.87,9.87,0,0,1-9.55-10,9.84,9.84,0,0,1,17.05-6.5.44.44,0,0,1,.08.45c-.31.69-.6,1.39-.86,2.09h0c-.43,1.07-.77,2.22-1.09,3.32l-.22.75a29.37,29.37,0,0,1-1,2.91s0,0,0,0c-1.13,2-2.1,3.72-3.14,5.41l-.86,1.36A.41.41,0,0,1,177.45,162.66Zm.28-18.83a9,9,0,0,0-.5,18l.72-1.14c1-1.67,2-3.35,3.11-5.36.34-.82.66-1.74,1-2.8l.22-.75c.33-1.12.67-2.28,1.12-3.39.23-.61.49-1.24.76-1.86a8.9,8.9,0,0,0-6.24-2.68Zm6,4.7Z"/><path class="cls-12" d="M180.53,156.32l.27-.58c.79-1.74,1.66-3.52,2.31-5.36.1-.33.21-.65.32-1,0,0,0-.06,0-.08a6.53,6.53,0,1,0-5.69,9.93,7.23,7.23,0,0,0,1.15-.1C179.48,158.23,180,157.28,180.53,156.32Z"/><circle class="cls-13" cx="173.94" cy="149.88" r="2.58"/><path class="cls-4" d="M301.34,351.65a15.15,15.15,0,0,1-4.55-.7c-6.25-2-11-10.74-13.14-24-1.64-10.38-2.42-28.34,3.17-54.9h0c.06-.27,1.51-6.68,6.17-8.8,2.47-1.13,5.32-.83,8.46.88,7.09,3.87,16.31,24.16,19.44,51.42,1.65,14.36-1.65,26.09-9.05,32.19A16.53,16.53,0,0,1,301.34,351.65Zm-12.47-79.19c-5.53,26.25-4.76,43.92-3.15,54.13,1.94,12.3,6.32,20.65,11.71,22.36a13.8,13.8,0,0,0,13.08-2.87c6.84-5.63,9.87-16.69,8.3-30.33A136.48,136.48,0,0,0,310.74,282c-3.31-8.34-7.16-14.34-10.29-16.05-2.53-1.37-4.75-1.65-6.59-.81C290.2,266.78,288.91,272.29,288.87,272.46Z"/><path class="cls-3" d="M282.86,316.76s.76,25.74,13.28,32,21-3.67,19-22.66-7-56.35-8-81.28,3.45-49.32,4.64-58.72.43-11.65-1.51-14.89-8.42-15-10.26-15-2.91,3.56-3.34,8.85,3.56,11.65,3.56,11.65l-1.62,9.18s-2.7-4-6.58-2.38a24.65,24.65,0,0,0-6.8,4.43s-6.05,1.4-8.32,4.43-6.36,6.69-6.36,10.9,1.72,15.86,5.39,17,5.18-3.35,5.18-3.35,1.95,51.81,1.84,71.35S282.86,316.76,282.86,316.76Z"/><path class="cls-2" d="M283.29,320.7s5.18,15.54,14.47,14.89,7.12-46.62,4.1-79-1.95-48.14,2.59-64.55-1.73-31.3-1.73-31.3,5.61,6.48,7.77,12.95-1.08,24-2.16,31.3-2.8,43.39,3,83.76,3.45,50.51-.22,55.91-7.77,8.42-17.7,2.59S283.08,328.9,283.29,320.7Z"/><path class="cls-4" d="M285.88,189a1,1,0,0,1-.7-.28,1,1,0,0,1-.07-1.47c.18-.2,4.43-4.85,8.48-5.09,4.34-.26,6.13,3.69,6.2,3.86a1,1,0,1,1-1.91.84,4.5,4.5,0,0,0-4.16-2.62c-2.66.16-6,3.24-7.06,4.41A1,1,0,0,1,285.88,189Z"/><path class="cls-4" d="M277.47,221.4c-3.11,0-5.68-3.9-6.65-10.2-.11-.71-.24-1.41-.36-2.1-.87-4.8-1.77-9.76,3.89-15.42,2.5-2.5,8.87-8,14-4.68,2.67,1.7,3.8,7,3.91,7.59a1,1,0,0,1-.82,1.23,1.06,1.06,0,0,1-1.23-.82c-.38-1.92-1.54-5.31-3-6.24-1.29-.82-5-2-11.43,4.4-4.89,4.88-4.16,8.91-3.31,13.57.12.7.25,1.42.36,2.15.79,5.1,2.87,8.71,4.86,8.41,1.69-.26,2.59-3.07,2.8-4.13a1,1,0,0,1,2,.39c0,.22-1,5.27-4.54,5.8A3.79,3.79,0,0,1,277.47,221.4Z"/><path class="cls-4" d="M301.85,351.77a13.27,13.27,0,0,1-1.86-.14c-7.78-1.07-13.43-7.39-16.33-18.26a64.54,64.54,0,0,1-2.06-15.92,971.36,971.36,0,0,0-2.16-109.77,1,1,0,0,1,2.09-.19,976,976,0,0,1,2.16,110,64.22,64.22,0,0,0,2,15.37c2.71,10.11,7.62,15.73,14.58,16.69a8.75,8.75,0,0,0,7.45-2.11c6.75-6.06,6.49-22.25,6.48-23-.08-.92-1.83-21-5.18-44.82-3.42-24.4-3.46-51.89-3.46-52.17v-.06c.06-.84,1.32-20.68,3-29.49l.08-.42c1.7-8.7,3.31-16.92,1.88-22.21s-7.74-14.67-10.57-17.94a.41.41,0,0,0-.11-.1c-.23.09-.82.71-1.34,2.19-1.27,3.62-1.57,11,2.83,16.43a1,1,0,0,1,.23.81l-2.16,14.68a1,1,0,0,1-1.19.88,1,1,0,0,1-.88-1.18l2.09-14.24c-5.94-7.76-3.87-18.73-1.08-21.07a2.15,2.15,0,0,1,3.19.23c3,3.49,9.46,13,11,18.77s-.1,14.2-1.84,23.15l-.09.42c-1.66,8.52-2.94,28.25-3,29.19,0,1.1.1,28,3.45,51.84,3.41,24.36,5.17,44.76,5.18,45,0,0,0,0,0,.06a59.29,59.29,0,0,1-.68,9.65c-1.08,7.07-3.27,12.12-6.49,15A10.56,10.56,0,0,1,301.85,351.77Z"/><path class="cls-15" d="M154.89,78.05c2-8.26-.25-17-5.2-23.75-9.2-12.57-26.67-14.86-39.4-6.39-13.44,8.94-16,28-6.87,40.82a31.55,31.55,0,0,0,8.52,7.72,33.91,33.91,0,0,1,9.15,8.59c-1.63,2.69-.46,5.09.44,7.95,1.15,3.64,2.14,7.33,3.5,10.9,2,5.26,7.32,6.52,12.49,6.19,2,3,5.12,2.29,8.25,1.38,3-.87,5.63-2.55,5-5.93,3.19-2.36,5.46-5.64,4.86-9.72a117.45,117.45,0,0,0-2.84-11.93c-.63-2.46-1-5.68-3.81-6a27.83,27.83,0,0,1,2-9.8C152.27,84.7,154,81.65,154.89,78.05Z"/><path class="cls-16" d="M152.57,116.32a12.6,12.6,0,0,1-3.1,2.59,32.27,32.27,0,0,1-8.38,3.66c-3.87,1.16-9.94,2.41-13.63.13-.65-.41-2.22-1.43-2.82-5,3.69,2.81,10.26,1.41,14.44.31a35.28,35.28,0,0,0,10.83-4.83,7.93,7.93,0,0,0,2.82-3C154.2,113.87,153.1,115.64,152.57,116.32Z"/><path class="cls-16" d="M151.22,110.65a12.58,12.58,0,0,1-3.34,2.66,35.58,35.58,0,0,1-8.41,3.55c-3.58,1.07-9.9,2.59-13.6.46-.74-.43-2.41-1.44-2.85-4.86,3.81,3.08,11,1.36,15.24.16s11.47-3.54,13.15-8.11C152.83,108.29,151.77,110,151.22,110.65Z"/><path class="cls-16" d="M145.33,129.9c-2,.62-4.27,1.39-5.86,0,.91-.12,1.81-.29,2.67-.48a24.55,24.55,0,0,0,7.09-2.86C149.23,128.55,147.16,129.33,145.33,129.9Z"/><path class="cls-16" d="M140.8,128.05a19.43,19.43,0,0,1-9.84-.4,6.53,6.53,0,0,1-1.64-.7,7,7,0,0,1-2.8-3.71c3.88,2.78,10.39,1.51,14.84.27A31,31,0,0,0,152,118.34a7.49,7.49,0,0,0,2.05-2.29C154.81,123,146.49,126.75,140.8,128.05Z"/><path class="cls-16" d="M150.36,104.65c-.73,1.45-2.24,2.48-4,3.51a36.52,36.52,0,0,1-8.41,3.52c-3.79,1.13-10.89,2.88-14.41,0a5.21,5.21,0,0,1-1.45-1.91,5.68,5.68,0,0,1,0-3.14c2,3.19,5.34,2.84,8.85,2.31a48.63,48.63,0,0,0,12.33-3.6c2-.87,5.47-2.47,5.62-5a1.27,1.27,0,0,0,0-.2c0-.15,0-.3,0-.44A4.06,4.06,0,0,1,150.36,104.65Z"/><path class="cls-17" d="M140,105.08c3.34-1.06,7.38-2.74,7.35-5a29,29,0,0,1,1.54-11.24c1.17-3.13,3-6,3.92-9.24,2.74-9.69.27-20.49-7.16-27.5-6.5-6.14-15.38-9.24-24.26-7.19-8.7,2-16.12,7.56-19.61,15.92-4,9.48-2.78,20.88,4.34,28.62,5.48,6,13.23,9,17.4,16.27,1.45,2.53,5.2,2.26,8.5,1.54Z"/><path class="cls-18" d="M135.36,77.72h0Z"/><path class="cls-19" d="M131.38,105.21c-2.27.48-4.24.54-6-1.19a33.94,33.94,0,0,1-3-3.92,21.37,21.37,0,0,0-4.27-3.95c-3.79-2.79-7.8-5.19-11-8.7-6.31-7-7.46-16.23-5.87-25.1-3.25,9.16-1.84,19.79,4.91,27.13,5.48,6,13.23,9,17.4,16.27,1.45,2.53,5.2,2.26,8.5,1.54C131.81,106.59,131.59,105.9,131.38,105.21Z"/><path class="cls-20" d="M140.67,53.36C131.43,43,110.49,50.5,106.79,62c-2.26,7,3.9,7.91,7.8,4.22,4.26-4,13.63-7.61,23-6.44C142.62,60.41,143.57,56.62,140.67,53.36Z"/><path class="cls-21" d="M151.42,115.81a23,23,0,0,1-8.24,5c-5.14,2-13.41,3.81-17.79-.52a5.17,5.17,0,0,0,2.07,2.44c3.69,2.28,9.76,1,13.63-.13a32.27,32.27,0,0,0,8.38-3.66,12.6,12.6,0,0,0,3.1-2.59,4.66,4.66,0,0,0,.82-3.78A8.61,8.61,0,0,1,151.42,115.81Z"/><path class="cls-21" d="M139.47,116.86a35.58,35.58,0,0,0,8.41-3.55,12.58,12.58,0,0,0,3.34-2.66,4.34,4.34,0,0,0,.89-3.12,9.12,9.12,0,0,1-1.72,2.4,24.45,24.45,0,0,1-8.58,5.07c-4.95,1.92-13.06,3.93-17.84.47a4.87,4.87,0,0,0,1.9,1.85C129.57,119.45,135.89,117.93,139.47,116.86Z"/><path class="cls-21" d="M149.05,127.47a15.56,15.56,0,0,1-3.49,1.73,32,32,0,0,1-4,1.26,3.25,3.25,0,0,1-1,0c1.45.48,3.2-.11,4.79-.6S148.52,128.81,149.05,127.47Z"/><path class="cls-21" d="M153.84,118.75a8.56,8.56,0,0,1-1.71,2.59,21.73,21.73,0,0,1-7.84,4.75c-4.61,1.79-11.51,3.22-15.85.2a5.46,5.46,0,0,0,.88.66,6.53,6.53,0,0,0,1.64.7,19.43,19.43,0,0,0,9.84.4C145.7,126.93,152.55,124,153.84,118.75Z"/><path class="cls-21" d="M138.67,110.69a29.58,29.58,0,0,1-10.36,1.8c-2.25-.08-5.19-1-6.23-3l.06.29a5.21,5.21,0,0,0,1.45,1.91c3.52,2.89,10.62,1.14,14.41,0a36.52,36.52,0,0,0,8.41-3.52c1.71-1,3.22-2.06,4-3.51a4.17,4.17,0,0,0-.39-4,4.63,4.63,0,0,1-.21,3.26,8.35,8.35,0,0,1-2.9,3.09A31,31,0,0,1,138.67,110.69Z"/><path class="cls-15" d="M109.49,53.06a19.77,19.77,0,0,0-6.5,8.13c-1.34,2.85-2.53,6.54-2,9.72,0,0,0,0,.06,0,.78-3.23,1.25-6.24,2.72-9.27a41.32,41.32,0,0,1,5.88-8.38C109.74,53.15,109.62,53,109.49,53.06Z"/><path class="cls-15" d="M110.23,52.58a0,0,0,0,0,0,0c.47,0,1-.48,1.23-.88a.08.08,0,0,0,0-.11A1.13,1.13,0,0,0,110.23,52.58Z"/><path class="cls-15" d="M149.68,60.27a0,0,0,1,0-.06,0,45.71,45.71,0,0,1,2,9,36.4,36.4,0,0,1-.54,9.2.09.09,0,0,0,.17,0C153.56,72.52,152.59,65.87,149.68,60.27Z"/><path class="cls-15" d="M150.88,79.29a.66.66,0,0,0-.27.44,7,7,0,0,0-.26.89.07.07,0,0,0,.1.07c.35-.23.88-1,.48-1.4A0,0,0,0,0,150.88,79.29Z"/><path class="cls-15" d="M130,108.2a151.7,151.7,0,0,0-6.75-20.63c-6.21-.7-8.21-5-8.6-6.07-.92-2.44-.47-4.78,1.08-5.7.72-.42,2.66-1.07,5.25,2a32.06,32.06,0,0,1,4.2,7,18.16,18.16,0,0,0,3.16-.33,26.69,26.69,0,0,0,8.71-3.2c-.13-5.19.46-9.37,1.92-10.92a2.52,2.52,0,0,1,2.74-.73c2.06.71,3.27,2.83,3.08,5.42a10.76,10.76,0,0,1-4,7.14c-.24.21-.5.42-.76.62,0,.44.05.89.08,1.36a67,67,0,0,0,4.43,20.07l-2.7,1.13a72.36,72.36,0,0,1-4.61-20.78,29.7,29.7,0,0,1-8.34,2.76,23.21,23.21,0,0,1-2.44.33,153.37,153.37,0,0,1,6.4,19.91ZM117.22,78.38a3.62,3.62,0,0,0,.53,2.84,6.73,6.73,0,0,0,4,3,25,25,0,0,0-2.93-4.59A3.85,3.85,0,0,0,117.22,78.38Zm23.78-6c-.41.63-.95,2.68-1,6.45a6.83,6.83,0,0,0,1.92-4.1A2.43,2.43,0,0,0,141,72.42Z"/></svg>