<svg id="Capa_2" data-name="Capa 2" xmlns="http://www.w3.org/2000/svg" xmlns:xlink="http://www.w3.org/1999/xlink" viewBox="0 0 400 400"><defs><style>.cls-1{fill:#84e246;}.cls-2{fill:#64a835;}.cls-3{fill:#06f5e2;}.cls-4{fill:#53a22f;}.cls-5{fill:#175807;}.cls-6{fill:#5ea837;}.cls-7{fill:#83e145;}.cls-8{fill:url(#linear-gradient);}.cls-9{fill:#295654;}.cls-10{fill:#060203;}.cls-11{fill:#fff;}.cls-12{fill:#feec30;}.cls-13{fill:#3a1919;}.cls-14{fill:#bf0604;}.cls-15{fill:#2d2d2d;}.cls-16{fill:#e8eaea;}</style><linearGradient id="linear-gradient" x1="4606.72" y1="-955.54" x2="4606.72" y2="-973.88" gradientTransform="matrix(1, 0.04, -0.04, 1, -4463.91, 884.14)" gradientUnits="userSpaceOnUse"><stop offset="0" stop-color="#e8af15"/><stop offset="0.04" stop-color="#d69a16"/><stop offset="0.11" stop-color="#b87817"/><stop offset="0.19" stop-color="#9e5b18"/><stop offset="0.28" stop-color="#8a4319"/><stop offset="0.39" stop-color="#7a3119"/><stop offset="0.51" stop-color="#6e241a"/><stop offset="0.66" stop-color="#681c1a"/><stop offset="1" stop-color="#661a1a"/></linearGradient></defs><title>I</title><path class="cls-1" d="M239.75,81.32c-7.33-10.89-25.15-20.18-53.32-26.66s-51.48-4.21-65.08-1-25.91,6.15-23,13.6S112.28,77,111,101.94s-8.74,35.29.33,68.32,29.14,41.44,29.14,41.44,13.76,7.78,58.93,7.61,59.91-25.74,63.79-48.4S258.26,108.79,239.75,81.32Z"/><path class="cls-2" d="M179.79,218.34s-49-30.92-57.31-66.54S121,99.34,118.11,83.15,99.17,65.83,99.17,65.83s-.65,3.24,4.53,8.26,10,12.79,6,37.24-5.51,50.51,6.48,73.82,29.46,30.93,37.07,32.38S179.79,218.34,179.79,218.34Z"/><path class="cls-3" d="M97.87,64.21s-1.8,3.4,7.61,4.37c15.7,1.62,28,6,34,8.91s6.8-4.7,3.72-9.39-1.45-5.18,1.14-7.13,1.29-4.37-.49-6.8.32-3.72.32-3.72S106.61,52.07,97.87,64.21Z"/><path class="cls-1" d="M230,214.94s30.71,1.78,53.16,10.36,19.7,18.79,17.59,22.19-10,7.28-21.53,6.8-31.08-1.79-31.08-1.79S231.28,233.24,230,214.94Z"/><path class="cls-2" d="M272.35,221.42s4.53,14.25,6.26,23.1c0,0-36.92-21.81-50.73-28.07C227.88,216.45,243,213,272.35,221.42Z"/><path class="cls-1" d="M154.21,339.46s3.86,9.34,50.06,9.34c49.29,0,50.54-6.15,53.88-10.91,0,0-.48-22.73-1.94-40.22s-6.15-39.5-12.79-56.66-3.08-30.44-42.58-35.3-58.77,2.11-58.61,38.7S154.54,262.72,154.21,339.46Z"/><path class="cls-2" d="M180.39,218.61s-14,21.37-15.33,55.27,2.51,71.84,2.51,71.84a41.18,41.18,0,0,1-7.63-2.34c-5-1.94-5.73-3.7-5.73-3.7s-1-17-2.1-31.27-9.72-45.11-9.28-63.25S159.88,212.35,180.39,218.61Z"/><path class="cls-2" d="M144.82,213.49a112.1,112.1,0,0,0-11.17,1.78c-2.75.81-4.05,3.4-8.26,18.13s-6.8,52.46,10.69,52.94S161.34,251.21,160.2,236,144.82,213.49,144.82,213.49Z"/><path class="cls-4" d="M250.85,94.23S264,100.86,267,112.46s1.74,24.12-13.28,35.33C253.69,147.79,229.17,120.62,250.85,94.23Z"/><path class="cls-5" d="M253.69,148.21a.38.38,0,0,1-.31-.14,54,54,0,0,1-9.64-17c-3.15-9.3-4.53-23.29,6.79-37.07a.41.41,0,0,1,.51-.11c.13.07,13.32,6.85,16.33,18.49,3.76,14.53-.64,26.23-13.43,35.78A.46.46,0,0,1,253.69,148.21ZM251,94.77c-10.85,13.39-9.49,27-6.42,36a53.62,53.62,0,0,0,9.21,16.44c12.42-9.39,16.49-20.42,12.81-34.66C263.9,102.24,252.91,95.83,251,94.77Z"/><path class="cls-6" d="M206.93,111.31c.23,12.8-3.36,29.63-16.33,40.06s-30.56,11.9-40.07,6.21-15.06-17.32-6.21-38S206.37,79.26,206.93,111.31Z"/><path class="cls-3" d="M209.94,115.53c0,7.13-8.66,13.73-12.35,4.87s-5.39-10.14-23.52-12.07-29.81,4.7-31.27,7.47-2.88,4.9-2.19,9.89-9.62,5.17-10.05.54c-2.2-23.28,8.67-41.81,23.81-38.7,3.3.67,5.07-.17,8.1.38C192.68,93.37,210,89.71,209.94,115.53Z"/><path class="cls-4" d="M174.92,108.19c10.66,1,19-4.14,23.2,2.33s6.7,26.23-11.16,37.58a31,31,0,0,1-37.88-2.59A26.86,26.86,0,0,1,142.64,117C147,104.28,174.66,108.16,174.92,108.19Z"/><path class="cls-5" d="M169.7,154.64a32.82,32.82,0,0,1-21.47-8.21,28,28,0,0,1-6.78-29.82c2-5.69,8.09-9.06,18.22-10a75.71,75.71,0,0,1,15.34.32h0a45.89,45.89,0,0,0,10.48-.49c5.66-.72,10.55-1.35,13.64,3.38,2.46,3.78,4.31,11.57,2.54,19.75-1.22,5.62-4.65,13.58-14.08,19.57A33,33,0,0,1,169.7,154.64Zm-4.13-45.78c-1.79,0-3.71.07-5.67.25-6.22.58-14.07,2.49-16.08,8.32a25.46,25.46,0,0,0,6.11,27.15,31.36,31.36,0,0,0,13.39,6.83c7.82,1.81,15.55.34,23-4.37,8.7-5.53,11.86-12.84,13-18,1.17-5.41.8-13.28-2.18-17.85-2.13-3.26-5.31-3-11.22-2.26a48.31,48.31,0,0,1-11.06.5l-.1,0A75.21,75.21,0,0,0,165.57,108.86Z"/><path class="cls-3" d="M261.11,100.93s-2.06-16-10.07-19.38-15.61-1.13-18,11.77-2,18.61,1.38,23.74,6.19,11.95,9.05,8.92c0,0-1.91-13.37,1.49-19.25S254.73,91.6,261.11,100.93Z"/><path class="cls-5" d="M234.82,118.23a1,1,0,0,1-1-.61c-5.74-12.51-1.09-26.12.47-30,1.73-4.29,4.7-7.24,8.37-8.32a11.53,11.53,0,0,1,10,2c6.71,4.76,9.68,20.68,9.81,21.36a1,1,0,0,1-2.06.37c0-.15-2.94-15.76-9-20a9.41,9.41,0,0,0-8.23-1.68c-3,.9-5.54,3.42-7,7.11s-5.9,16.59-.5,28.34a1,1,0,0,1-.52,1.39A1.11,1.11,0,0,1,234.82,118.23Z"/><path class="cls-5" d="M129.77,121.11h-.09a1.06,1.06,0,0,1-1-1.14c1.46-15.61,4.67-30.4,18.18-32.93,9.36-1.76,15.35-.42,23.63,1.44A164.07,164.07,0,0,0,191.07,92c11,1.15,15.85,7.89,18,13.34A29.9,29.9,0,0,1,211,116.88a1,1,0,0,1-1.11,1,1,1,0,0,1-1-1.1A28.13,28.13,0,0,0,207.06,106c-2.78-7.09-8.23-11.12-16.21-12a169.72,169.72,0,0,1-20.77-3.57c-8-1.8-13.84-3.1-22.79-1.43-12.14,2.28-15.09,16.28-16.48,31.07A1,1,0,0,1,129.77,121.11Z"/><path class="cls-5" d="M253.69,148.84a1,1,0,0,1-.47-2c.08,0,4.76-2.48,8.75-9.2s8-15.69,3.47-26.23C261.09,101.21,254.37,98.05,254.3,98a1,1,0,1,1,.86-1.9c.3.13,7.51,3.47,12.21,14.49,4.85,11.4.62,21-3.6,28.12-4.34,7.3-9.4,9.89-9.61,10A1.12,1.12,0,0,1,253.69,148.84Z"/><path class="cls-5" d="M233.71,158.38s5.55,2.07,5,3.88S235.55,164.67,233.71,158.38Z"/><path class="cls-5" d="M224.07,159.83s-.21,5.54-2.19,5.76S219.4,164.31,224.07,159.83Z"/><path class="cls-4" d="M148.38,128.53c1.55,11.63,12.92,19.71,25.39,18.05s21.34-12.44,19.79-24.07-7.65-12.22-20.2-13.18C157.2,108.1,146.83,116.9,148.38,128.53Z"/><path class="cls-5" d="M170.54,147.21c-11.35,0-21.14-7.82-22.57-18.62h0a15.67,15.67,0,0,1,4.13-13.1c4.6-4.86,12.35-7.26,21.29-6.58,12.23.94,19,1.45,20.58,13.55a20.8,20.8,0,0,1-4.72,16.09A23.88,23.88,0,0,1,173.83,147,24.57,24.57,0,0,1,170.54,147.21Zm-21.75-18.73c1.52,11.38,12.71,19.31,24.93,17.68A23.08,23.08,0,0,0,188.6,138a20,20,0,0,0,4.54-15.45c-1.52-11.42-7.63-11.89-19.81-12.82-8.68-.66-16.2,1.64-20.62,6.31a14.7,14.7,0,0,0-3.92,12.42Z"/><ellipse class="cls-7" cx="171.15" cy="125.66" rx="16.24" ry="18.35" transform="translate(41.87 294.1) rotate(-88.78)"/><path class="cls-5" d="M171.25,142.32h-.46a20,20,0,0,1-13.15-5.14,15.38,15.38,0,0,1,.5-23.59A20,20,0,0,1,171.5,109c10.35.22,18.61,7.87,18.41,17S181.39,142.32,171.25,142.32ZM171,109.84a19,19,0,0,0-12.35,4.39,14.84,14.84,0,0,0-5.48,11h0a14.85,14.85,0,0,0,5,11.28,19.09,19.09,0,0,0,12.6,4.92c9.9.21,18.08-6.71,18.27-15.44s-7.71-16-17.6-16.19ZM152.8,125.27Z"/><path class="cls-4" d="M250.75,144.47a20,20,0,0,0,11-12.83c3-9.89.25-18.24-5.24-25.31-7.19-9.25-9.92-4.27-9.92-4.27S236.06,116.31,250.75,144.47Z"/><path class="cls-5" d="M250.75,144.89a.41.41,0,0,1-.37-.22c-4.22-8.08-9-20.2-7.61-32,.79-6.91,3.27-10.49,3.51-10.82a3.25,3.25,0,0,1,2.51-1.52c2.26-.19,5,1.75,8.09,5.76,6.27,8.06,8.05,16.7,5.31,25.68a20.66,20.66,0,0,1-11.3,13.11Zm-1.68-43.75h-.2a2.36,2.36,0,0,0-1.87,1.12l0,0s-2.6,3.6-3.38,10.51c-1.28,11.42,3.25,23.16,7.35,31.12a20,20,0,0,0,10.45-12.43c2.69-8.82,1-17-5.17-24.92C252.76,102.14,250.45,101.14,249.07,101.14Z"/><path class="cls-5" d="M254.87,97.65a1,1,0,0,1-1-.89,33.51,33.51,0,0,0-4.05-12.17A16.23,16.23,0,0,0,247,80.92a1,1,0,0,1,1.37-1.59c.23.21,5.8,5.11,7.56,17.12a1,1,0,0,1-.88,1.19Z"/><path class="cls-5" d="M246.77,103.3a1,1,0,0,1-1-.7C242.07,91.86,235,90.26,234.65,90.19a1,1,0,0,1-.82-1.23,1.06,1.06,0,0,1,1.23-.82c.35.07,8.57,1.84,12.7,13.78a1.05,1.05,0,0,1-.65,1.33A1,1,0,0,1,246.77,103.3Z"/><path class="cls-5" d="M174.21,109.28a1,1,0,0,1-1-.87c-1.77-10.24,7.2-16.47,7.58-16.73a1,1,0,0,1,1.18,1.73c-.12.08-8.23,5.77-6.7,14.65a1,1,0,0,1-.85,1.21Z"/><path class="cls-5" d="M151.38,109.52a1,1,0,0,1-1-.75c-3.74-12.8-1.49-19.66-1.39-20a1,1,0,0,1,2,.68h0c0,.06-2.12,6.6,1.41,18.68a1,1,0,0,1-.71,1.3A.92.92,0,0,1,151.38,109.52Z"/><path class="cls-7" d="M246.68,136.59c5.85,4.69,10-.27,11.55-3.25s3.59-14.94-3.42-21.38-12.74.47-12.74.47S242.21,128.06,246.68,136.59Z"/><path class="cls-5" d="M251.4,138.94a8.06,8.06,0,0,1-5-2,.33.33,0,0,1-.11-.13c-1.88-3.58-3.23-8.77-4-15.42-.59-4.94-.64-8.89-.64-8.93a.43.43,0,0,1,.1-.27,9.89,9.89,0,0,1,6.39-3.35,9.25,9.25,0,0,1,7,2.83c6.94,6.38,5.3,18.39,3.51,21.88-.54,1.06-2.57,4.55-6,5.28A6.53,6.53,0,0,1,251.4,138.94ZM247,136.32a6.54,6.54,0,0,0,5.45,1.67c3-.65,4.89-3.87,5.39-4.84,1.27-2.46,3.73-14.4-3.32-20.88a8.53,8.53,0,0,0-6.33-2.62,9.15,9.15,0,0,0-5.71,2.94C242.52,114.25,242.92,128.42,247,136.32Z"/><path class="cls-5" d="M256.94,154.57a1,1,0,0,1-.86-.45l-.81-1.17c-9.33-13.38-15.5-22.22-14-39.47a20.87,20.87,0,0,1,13.4-17.85,1,1,0,0,1,.64,2,18.41,18.41,0,0,0-11.95,16c-1.41,16.5,4.58,25.09,13.65,38.1l.82,1.16a1.05,1.05,0,0,1-.26,1.46A1,1,0,0,1,256.94,154.57Z"/><path class="cls-5" d="M195.51,109a1,1,0,0,1-1-.81c-1-4.21-.55-7.29,1.32-9.13,2.73-2.68,7.34-1.56,7.53-1.51a1,1,0,0,1-.51,2c-.05,0-3.68-.88-5.56,1-1.31,1.29-1.56,3.7-.75,7.15a1,1,0,0,1-.77,1.26A1,1,0,0,1,195.51,109Z"/><circle class="cls-8" cx="181.44" cy="127" r="9.17"/><path class="cls-9" d="M181.45,136.59H181a9.58,9.58,0,0,1-6-16.65,9.59,9.59,0,1,1,6.48,16.66Zm0-18.34a8.82,8.82,0,1,0,.4,0Z"/><circle class="cls-10" cx="181.3" cy="126.89" r="6.36"/><circle class="cls-11" cx="186.12" cy="124.13" r="2.38"/><path class="cls-5" d="M150.81,216.64l-.2,0c-.3-.06-7.54-1.54-16.17-8-7.92-5.92-18.54-17.33-24.14-38.11C104,147,105.74,134.92,107.81,121a190.24,190.24,0,0,0,2.13-19.07c.91-17.47-4.27-23.42-8.43-28.21a21.39,21.39,0,0,1-4.13-6,5.94,5.94,0,0,1,.14-5.09c2.57-4.91,12.27-7.22,23.51-9.89l.07,0c9.06-2.16,33.59-6.38,65.57,1,26.8,6.16,45.44,15.52,53.92,27.06a1,1,0,0,1-.22,1.46,1,1,0,0,1-1.46-.22c-5.71-7.76-19.48-18.62-52.71-26.26-31.55-7.25-55.69-3.1-64.61-1h-.08c-10.29,2.45-20,4.77-22.13,8.82a3.88,3.88,0,0,0,0,3.37,19.62,19.62,0,0,0,3.76,5.39C107.27,77.1,113,83.68,112,102a192.6,192.6,0,0,1-2.15,19.27c-2,13.73-3.79,25.6,2.44,48.73,3,11.11,9.46,26.54,23.28,36.9,8.26,6.2,15.34,7.66,15.42,7.67a1.05,1.05,0,0,1-.21,2.08Z"/><path class="cls-5" d="M228.69,216.8a1,1,0,0,1-.31-2.05h0A50.59,50.59,0,0,0,249.14,200a57.87,57.87,0,0,0,12-23.35c2.95-11.23,3.23-24.22.82-38.63a1,1,0,0,1,2.06-.34c2.46,14.73,2.17,28-.87,39.58a60,60,0,0,1-12.52,24.19c-10,11.57-21.18,15.13-21.65,15.27A1.18,1.18,0,0,1,228.69,216.8Z"/><path class="cls-5" d="M138.11,287.93a14.19,14.19,0,0,1-9.37-3.25c-7.88-6.59-7.8-20.74-7.79-21.34.13-13.79,3-35.45,6.56-43.79,1.86-4.31,7.89-6.58,17.92-6.75a90.7,90.7,0,0,1,14.12.95,1,1,0,1,1-.32,2.06c-7.25-1.13-26.74-2.52-29.8,4.57-2.89,6.69-6.23,26.5-6.39,43,0,.14-.07,13.77,7,19.72,3,2.5,6.9,3.3,11.62,2.4a1,1,0,0,1,1.22.83,1,1,0,0,1-.82,1.22A21.09,21.09,0,0,1,138.11,287.93Z"/><path class="cls-5" d="M276.27,254.77c-12.9,0-26.9-1.15-27.76-1.22a1,1,0,0,1,.18-2.09c.31,0,30.87,2.55,43.33.23,5.14-1,8.67-4.29,9-8.48.18-2.42-.6-10.8-18.21-16.92-25-8.7-51.47-10.07-51.73-10.09a1,1,0,1,1,.1-2.09c.26,0,27,1.41,52.31,10.21,12.84,4.46,20.17,11.58,19.61,19.05-.39,5.16-4.58,9.24-10.69,10.38A97.47,97.47,0,0,1,276.27,254.77Z"/><path class="cls-12" d="M180.52,347.75s7.79,3.58,38.86,2.58c30.54-1,34.62-10.67,34.62-10.67s0-52-15.76-83.05-53.54-23.53-56.77,0S184.63,310.41,180.52,347.75Z"/><path class="cls-5" d="M258.15,338.45h0a1,1,0,0,1-1-1.1c0-.65,3-65.74-17.83-101.32a1,1,0,1,1,1.8-1.05c11.06,18.9,15.39,45.77,17.08,65a307.24,307.24,0,0,1,1,37.5A1,1,0,0,1,258.15,338.45Z"/><path class="cls-5" d="M154.21,340.72a1,1,0,0,1-1-1c0-.39-2.19-39.74-9.53-74.54a1,1,0,1,1,2-.44c7.38,35,9.56,74.47,9.58,74.87a1,1,0,0,1-1,1.1Z"/><path class="cls-13" d="M224.32,175.82s7.77,2.8,11.49,12.57c0,0,7,3.72,7.29-1.62s-4-11.28-8.26-12.68S224.32,175.82,224.32,175.82Z"/><path class="cls-14" d="M223.88,175.55s9.83,1.4,12.15,12.73a5.12,5.12,0,0,0-3.94-.91c-2.16.48-3.56,3.83-7.67,3.77S214.17,182.62,223.88,175.55Z"/><path class="cls-5" d="M224.33,192.1a6.72,6.72,0,0,1-6.07-3.71c-2.06-3.91-1.1-10,4.08-13.39a14.4,14.4,0,0,1,13.52-1.39,12.57,12.57,0,0,1,7.72,8.51c.75,3.44.4,5.74-1.08,7s-3.95,1.32-7.43,0a5.32,5.32,0,0,0-6.53,1.75,1,1,0,0,1-.48.4A9.88,9.88,0,0,1,224.33,192.1Zm3.33-1.77h0Zm2.75-15.7a12.57,12.57,0,0,0-6.92,2.11c-3.22,2.12-5.42,6.8-3.38,10.68,1.29,2.43,3.84,3.19,6.87,2.06a7.41,7.41,0,0,1,8.82-2.28c2.59,1,4.48,1.09,5.33.36s1-2.44.41-5a10.45,10.45,0,0,0-6.47-7A12.25,12.25,0,0,0,230.41,174.63Z"/><path class="cls-1" d="M280.33,250.4s-12.46-62.17-15.05-71.08-12.15-46.62-10.36-48.73c3.59-4.25,14.73-1.78,19.59,7.77s21.37,59.75,24.93,84.52-.49,27.2-3.56,27.84S280.33,250.4,280.33,250.4Z"/><path class="cls-5" d="M302,246.53a1,1,0,0,1-1-1,296,296,0,0,0-10.22-55.79,465,465,0,0,0-19.59-54.59,1,1,0,0,1,.52-1.38,1.06,1.06,0,0,1,1.39.53,468.37,468.37,0,0,1,19.69,54.86,296.39,296.39,0,0,1,10.29,56.24,1,1,0,0,1-1,1.11Z"/><path class="cls-5" d="M276.56,236.39a1.06,1.06,0,0,1-1-.83l-22.12-102a1,1,0,1,1,2-.45l22.13,102a1,1,0,0,1-.8,1.24Z"/><path class="cls-15" d="M250.76,94.11,231,96.21s-11.66,5.67-11.66,18a21.83,21.83,0,0,0,9.39,18.05L259,133S239.75,118.23,250.76,94.11Z"/><path d="M261.56,133.86l-33.06-.79-.2-.12a22.46,22.46,0,0,1-9.79-18.76c0-12.69,12-18.67,12.13-18.73l.13-.06,21.36-2.28-.61,1.34c-4.44,9.73-4.46,19.05-.05,27.68a32.46,32.46,0,0,0,8.06,10.16ZM229,131.41l27.75.67A35.55,35.55,0,0,1,250,123c-3.11-6.06-5.66-15.73-.6-27.88L231.25,97c-1.22.64-11.06,6.2-11.06,17.16A21.15,21.15,0,0,0,229,131.41Z"/><path class="cls-15" d="M279.66,139l-17.37-.53a8,8,0,0,1-5.46-2.36C251,130.19,238,113.18,252.69,88.8a13.07,13.07,0,0,1,10.77-6.29l18.73-.62s-16.13,3.53-17,26.71S279.66,139,279.66,139Z"/><path d="M283.64,139.91l-21.38-.64a8.84,8.84,0,0,1-6-2.61c-6.24-6.28-19.16-23.55-4.26-48.29a13.82,13.82,0,0,1,11.45-6.69l18.73-.62.21,1.65a19.23,19.23,0,0,0-7.86,4.53c-5.19,4.79-8.12,12.19-8.45,21.4-.24,6.44.73,15.7,6.66,23.24a23.11,23.11,0,0,0,7.3,6.32Zm-6-57-14.17.47a12.18,12.18,0,0,0-10.08,5.88c-14.29,23.73-1.95,40.25,4,46.25a7.09,7.09,0,0,0,4.88,2.11l14.31.44a27.61,27.61,0,0,1-5.15-5c-3.48-4.39-7.53-12.18-7.08-24.42.24-6.77,2-16.19,9.07-22.63A22.6,22.6,0,0,1,277.66,82.88Z"/><ellipse class="cls-16" cx="282.19" cy="110.62" rx="17.3" ry="28.73"/><path d="M282.19,140.39c-10.12,0-18.35-13.35-18.35-29.77s8.23-29.77,18.35-29.77,18.35,13.35,18.35,29.77S292.31,140.39,282.19,140.39Zm0-57.45c-9,0-16.26,12.42-16.26,27.68s7.29,27.68,16.26,27.68,16.26-12.42,16.26-27.68S291.15,82.94,282.19,82.94Z"/><path class="cls-15" d="M192.91,101.45l-19.75,2.1s-11.66,5.67-11.66,18a21.83,21.83,0,0,0,9.39,18.05l30.27.73S181.9,125.57,192.91,101.45Z"/><path d="M203.72,141.2l-33.08-.79-.19-.12a22.46,22.46,0,0,1-9.79-18.76c0-12.69,12-18.67,12.13-18.73l.13-.06,21.36-2.28-.61,1.34c-4.46,9.76-4.46,19.09,0,27.74a32.59,32.59,0,0,0,8,10.1Zm-32.57-2.45,27.75.66a35.27,35.27,0,0,1-6.74-9.1c-3.11-6.06-5.66-15.73-.6-27.88l-18.16,1.94c-1.22.64-11.07,6.2-11.07,17.16A21.2,21.2,0,0,0,171.15,138.75Z"/><path class="cls-1" d="M164.25,255.09s-8.26,27-19.59,30.6-23.88-7.82-17-31.46c5.83-19.86,12.52-27.52,24.18-56.45s10.9-38.53,10.9-38.53l2.49-21.48,1.51-6.37s-3.67-8.2-1.19-16.51,4.75-7.67,5.61-7.56a15.64,15.64,0,0,1,2.81,1s3.78-6.58,7.23-9.12a3.59,3.59,0,0,1,5.5.92s1.52-2.7,3.35-2.37a3.76,3.76,0,0,1,2.59,1.72,34.16,34.16,0,0,0-4.32,18.24,47,47,0,0,0,6.37,20.4c.54.65,3.67,5.94,3.67,5.94A26.5,26.5,0,0,1,195,147.7c-1.62,1.29-4.43,2.7-5.51,4s-9.28,11.88-9.6,23.21S171.86,227.57,164.25,255.09Z"/><path class="cls-5" d="M178.82,119.17a.87.87,0,0,1-.31,0,1,1,0,0,1-.69-1.3,44.79,44.79,0,0,0,1.18-5.28c.46-2.51.89-4.87,1.84-6.45,0-.09,5.67-9.15,8.74-9.41,2.61-.21,4.18,2.7,4.25,2.82a1,1,0,0,1-.43,1.41,1,1,0,0,1-1.41-.42s-1-1.82-2.23-1.72-5,4.93-7.13,8.4a19.57,19.57,0,0,0-1.57,5.75,47.89,47.89,0,0,1-1.24,5.51A1,1,0,0,1,178.82,119.17Z"/><path class="cls-5" d="M141,287.32a18.29,18.29,0,0,1-6.59-1.3c-3.3-1.26-5.75-3.93-7.27-7.95-3.92-10.36-.66-27.64,4.61-37.71,6.74-12.86,22.66-47.71,28.88-73.37l3.72-30.37a.5.5,0,0,1,0-.12c0-.15,3.59-14.69,6-22.88a28.79,28.79,0,0,1,10.2-15.23c2.32-2,4.34-1.65,5.47-.67a3.32,3.32,0,0,1,.51,4.35,1,1,0,1,1-1.75-1.14,1.24,1.24,0,0,0-.14-1.63c-.59-.52-1.64-.26-2.73.68-3.2,2.74-7.18,6.15-9.55,14.23-2.32,7.87-5.71,21.69-6,22.72l-3.71,30.38s0,.08,0,.12c-6.26,25.85-22.29,60.95-29.07,73.9-5.07,9.67-8.23,26.18-4.52,36,1.3,3.43,3.34,5.7,6.07,6.74,11.3,4.31,16.79-4.68,17-5.06,16.1-29,22.72-78.68,25.54-99.91.72-5.39,1.19-8.95,1.55-10.21,1.67-5.82,7.44-17.89,12.56-20.2,4.07-1.84,5.91-6.5,5.93-6.55a1,1,0,0,1,2,.75c-.08.23-2.15,5.5-7,7.7-1.79.81-4.18,3.67-6.57,7.84a55.43,55.43,0,0,0-4.84,11c-.31,1.11-.81,4.8-1.49,9.91C177,200.72,170.3,250.71,154,280.05,153.93,280.16,149.6,287.32,141,287.32Z"/><path class="cls-5" d="M166.68,131.37a1,1,0,0,1-1-.82c-.09-.4-2.19-9.88-1.09-16.17.76-4.33,3.14-7.86,5.78-8.57A3.43,3.43,0,0,1,174,107a1.05,1.05,0,1,1-1.61,1.35,1.31,1.31,0,0,0-1.46-.5c-1.55.42-3.57,3-4.26,6.91-1,5.88,1.05,15.26,1.07,15.35a1,1,0,0,1-.79,1.25Z"/><path class="cls-15" d="M221.81,146.3l-17.71-.54a7.19,7.19,0,0,1-4.82-2c-5.93-5.83-20.56-24.25-2.36-50.8a6.78,6.78,0,0,1,5.34-3l22.08-.73s-16.13,3.53-17,26.71S221.81,146.3,221.81,146.3Z"/><path d="M225.82,147.25l-21.74-.65a8.06,8.06,0,0,1-5.39-2.29,39,39,0,0,1-10.45-18c-2.66-10.84,0-22.22,8-33.84a7.62,7.62,0,0,1,6-3.31l22.07-.73.2,1.65a19.3,19.3,0,0,0-7.85,4.53c-5.2,4.79-8.12,12.19-8.46,21.39-.81,22.38,13.81,29.5,14,29.57Zm-6-57-17.52.58a5.93,5.93,0,0,0-4.68,2.59c-7.69,11.2-10.29,22.14-7.75,32.49a37.19,37.19,0,0,0,10,17.23,6.31,6.31,0,0,0,4.26,1.81l14.64.45a27.61,27.61,0,0,1-5.15-5c-3.48-4.39-7.53-12.19-7.09-24.42.25-6.77,2-16.19,9.07-22.63A22.64,22.64,0,0,1,219.81,90.22Z"/><ellipse class="cls-16" cx="224.34" cy="117.96" rx="17.3" ry="28.73"/><path d="M224.34,147.73C214.22,147.73,206,134.38,206,118s8.23-29.77,18.35-29.77,18.35,13.35,18.35,29.77S234.45,147.73,224.34,147.73Zm0-57.45c-9,0-16.26,12.42-16.26,27.68s7.29,27.68,16.26,27.68,16.25-12.42,16.25-27.68S233.3,90.28,224.34,90.28Z"/></svg>