<svg id="Capa_2" data-name="Capa 2" xmlns="http://www.w3.org/2000/svg" xmlns:xlink="http://www.w3.org/1999/xlink" viewBox="0 0 400 400"><defs><style>.cls-1,.cls-25{fill:#fff;}.cls-2{fill:#33c1b9;}.cls-3{fill:#fcab28;}.cls-4{fill:#ffcf3f;}.cls-5{fill:#ffd733;}.cls-6{fill:#ffe266;}.cls-7{fill:#ffce45;}.cls-8{opacity:0.48;}.cls-9{fill:#fffffd;}.cls-10{fill:#53a22f;}.cls-11{fill:#83e145;}.cls-12{fill:#feec30;}.cls-13{fill:#175807;}.cls-14{fill:#84e246;}.cls-15{fill:#0ef5dc;}.cls-16{fill:#08b99e;}.cls-17{fill:#05fadb;}.cls-18{fill:#60a92b;}.cls-19{fill:url(#linear-gradient);}.cls-20{fill:#060203;}.cls-21{fill:url(#linear-gradient-2);}.cls-22{fill:#3062c6;}.cls-23{fill:#ed3737;}.cls-24{fill:#f4912f;}.cls-25{font-size:32px;font-family:MyriadPro-Regular, Myriad Pro;}.cls-26{letter-spacing:0.01em;}.cls-27{letter-spacing:0em;}.cls-28{letter-spacing:-0.01em;}.cls-29{letter-spacing:-0.01em;}.cls-30{letter-spacing:0em;}</style><linearGradient id="linear-gradient" x1="169.57" y1="223.53" x2="169.57" y2="202.8" gradientUnits="userSpaceOnUse"><stop offset="0" stop-color="#e8af15"/><stop offset="0.04" stop-color="#d69a16"/><stop offset="0.11" stop-color="#b87817"/><stop offset="0.19" stop-color="#9e5b18"/><stop offset="0.28" stop-color="#8a4319"/><stop offset="0.39" stop-color="#7a3119"/><stop offset="0.51" stop-color="#6e241a"/><stop offset="0.66" stop-color="#681c1a"/><stop offset="1" stop-color="#661a1a"/></linearGradient><linearGradient id="linear-gradient-2" x1="3907.44" y1="219.81" x2="3907.44" y2="199.08" gradientTransform="matrix(-1, 0, 0, 1, 4152.45, 0)" xlink:href="#linear-gradient"/></defs><title>I</title><path class="cls-1" d="M185.13,238a45,45,0,0,1-39.94-24.2l-.61-1.17-1.23.49a32,32,0,0,1-12,2.35,32.63,32.63,0,0,1-5.22-.43,32.25,32.25,0,0,1-24-18.34l-.37-.81-.9,0a42.21,42.21,0,0,1-19.21-78.88l1.33-.76-.82-1.29A33.82,33.82,0,0,1,110.65,63a34.66,34.66,0,0,1,5.56.46,33,33,0,0,1,4.91,1.24l1.85.59L123,63.3a45.08,45.08,0,0,1,.52-5.85,44.23,44.23,0,0,1,73.3-25.64l.78.7.92-.51a38.56,38.56,0,0,1,18.93-5,39.53,39.53,0,0,1,6.32.52,38.35,38.35,0,0,1,27.93,20.28l.64,1.22,1.25-.57a60.52,60.52,0,0,1,24.94-5.35,61.18,61.18,0,0,1,60.36,71.11,60.69,60.69,0,0,1-17,33.16l-.82.82.61,1a39,39,0,0,1-33.12,59.61h0a39.75,39.75,0,0,1-6.43-.53,38.78,38.78,0,0,1-5.81-1.48l-1.2-.39-.57,1.13a39.27,39.27,0,0,1-34.91,21.64,39.72,39.72,0,0,1-6.42-.53,38.72,38.72,0,0,1-13.63-5l-1-.6-.81.85A45.22,45.22,0,0,1,185.13,238Z"/><path class="cls-2" d="M167.18,18.93v2.93a42.74,42.74,0,0,1,28.69,11l1.56,1.41,1.83-1a37.2,37.2,0,0,1,18.21-4.8,37.38,37.38,0,0,1,22.06,7.25,37.73,37.73,0,0,1,10.9,12.77l1.28,2.44,2.51-1.13a59,59,0,0,1,24.34-5.22,60.8,60.8,0,0,1,9.79.8,59.64,59.64,0,0,1,32.52,101L319.25,148l1.22,2a37.55,37.55,0,0,1-38.07,56.85,37,37,0,0,1-5.59-1.42l-2.41-.79-1.13,2.27a37.52,37.52,0,0,1-52.9,15.49l-2-1.2-1.61,1.7a43.8,43.8,0,0,1-31.62,13.63,44.46,44.46,0,0,1-7.17-.59A43,43,0,0,1,159.27,228a44.16,44.16,0,0,1-12.78-14.94l-1.23-2.34-2.46,1A30.7,30.7,0,0,1,103.42,196l-.75-1.63-1.79-.07A40.74,40.74,0,0,1,82.34,118.2L85,116.68l-1.64-2.59a32.35,32.35,0,0,1,27.29-49.67,33,33,0,0,1,5.33.44A31.21,31.21,0,0,1,120.67,66l3.7,1.19.13-3.88a42.1,42.1,0,0,1,.51-5.66,42.82,42.82,0,0,1,42.17-35.83V18.93m0,0a45.42,45.42,0,0,0-45.62,44.32A35.18,35.18,0,0,0,75.86,91a35.09,35.09,0,0,0,5,24.61,43.67,43.67,0,0,0,19.87,81.62,33.6,33.6,0,0,0,43.14,17.16,46.41,46.41,0,0,0,33.59,24.36,47.34,47.34,0,0,0,7.64.63,46.54,46.54,0,0,0,33.74-14.55,40.44,40.44,0,0,0,57-16.7,39.85,39.85,0,0,0,6,1.53,40.49,40.49,0,0,0,41-61.29A62.58,62.58,0,0,0,253,47.13a40,40,0,0,0-55.19-16.41,45.69,45.69,0,0,0-30.65-11.79Z"/><path class="cls-3" d="M169.49,123.88c-.38-.11-9.44-2.8-24.31-15.45-15.37-13.08-15.86-34.67-15.87-35.59A2.78,2.78,0,0,1,132.07,70l26.36-.31.07,5.58-23.39.28c.66,5.9,3.3,19.78,13.69,28.62C162.6,115.92,171,118.49,171,118.51Z"/><path class="cls-3" d="M236.78,123.88l-1.53-5.37c.07,0,8.42-2.59,22.22-14.33,10.39-8.84,13-22.72,13.69-28.62l-23.39-.28.07-5.58L274.2,70A2.78,2.78,0,0,1,277,72.84c0,.92-.5,22.51-15.87,35.59C246.22,121.08,237.16,123.77,236.78,123.88Z"/><path class="cls-4" d="M157.23,70s-3.42-1.24-3.42-4.65-.62-5,2.49-8.07S182.87,50,201.79,50s44.77,5.17,47.88,8,1.86,10.24,1.24,11.48-3.11.93-3.11.93Z"/><path class="cls-5" d="M201.58,60.39c-11.68,0-36.29,1.56-45.28,8.07,0,0,0,33.5,9.3,50.56s25.75,31,25.75,31h22.33s16.44-14,25.75-31,9.31-50.56,9.31-50.56C238.81,62,213.27,60.39,201.58,60.39Z"/><path class="cls-6" d="M201.58,60.39c-11.68,0-36.29,1.56-45.28,8.07,0,0,0,33.5,9.3,50.56a109.92,109.92,0,0,0,15.52,21,33.34,33.34,0,0,0,12.4,2.58c28.54.62,36-23.58,39.08-32.26,4.89-13.69,7.67-35.17,8.77-45.15C229.37,61.4,211,60.39,201.58,60.39Z"/><path class="cls-7" d="M234.47,191.92c-2.8-8.38-8.69-7.14-8.69-7.14s0-2.69-4.14-3.07c-2.55-.79-9.14-3.32-11.37-9-2.79-7.14-1.55-16.13-1.55-16.13l-6.2-.81-6.21.81s1.24,9-1.55,16.13c-2.23,5.7-8.82,8.23-11.37,9-4.13.38-4.14,3.07-4.14,3.07s-5.89-1.24-8.69,7.14Z"/><path class="cls-3" d="M179.25,184.78q5.82-.37,11.63-.5c3.88-.1,7.76-.13,11.64-.14s7.75,0,11.63.14,7.75.25,11.63.5q-5.82.39-11.63.51c-3.88.1-7.76.13-11.63.14s-7.76,0-11.64-.14S183.13,185,179.25,184.78Z"/><path class="cls-3" d="M213.68,154.38h-22a2.48,2.48,0,0,1,0-5h22a2.48,2.48,0,0,1,0,5Z"/><path class="cls-3" d="M212.44,157.52H192.9a2.21,2.21,0,0,1,0-4.41h19.54a2.21,2.21,0,0,1,0,4.41Z"/><path class="cls-3" d="M171.91,188.92q7.65-.37,15.3-.5c5.1-.11,10.2-.13,15.31-.15s10.2,0,15.3.15,10.2.25,15.3.5q-7.65.38-15.3.51c-5.1.1-10.2.13-15.3.14s-10.21,0-15.31-.15S177,189.17,171.91,188.92Z"/><g class="cls-8"><path class="cls-9" d="M185.91,50.78c-5.21.51-10.26,1.21-14.69,2-.52,15.32-.68,40.91,3.07,55.07C179.87,129,189.8,139.5,189.8,139.5s-6.21-31-5.59-58.32C184.51,68.11,185.23,57.89,185.91,50.78Z"/></g><path class="cls-10" d="M169.06,305.74a107,107,0,0,0-4.1,28.15c.22,7.73-.23,31.15,1.82,36.61.43,1.17,4.32,2.12,10.18,2.84C170,351.74,168.27,328.6,169.06,305.74Z"/><path class="cls-11" d="M250.46,333.66c-.23-8.18-4.34-28.05-5.27-35.39-1.07-8.46-10.5-8.92-11.75-19.53-1.64-14-10.76-26.31-26-26.26-13.57.05-17.19,10.45-24.1,25.47-2.16,4.69-7.35,9.82-9.78,15.23a92.53,92.53,0,0,0-4.54,12.56c-.79,22.86.94,46,7.9,67.6,21.53,2.66,69.81,2.28,72.13-1.48C252.05,367.09,250.69,341.85,250.46,333.66Z"/><path class="cls-12" d="M237.66,323.34a29.7,29.7,0,0,0-29.7-29.7h0a29.7,29.7,0,0,0-29.7,29.7v50.38s12.49,1.21,25.12,1.62c13.28.42,34.56-.81,34.56-.81Z"/><path class="cls-13" d="M249.09,373.54a1.67,1.67,0,0,1-1.42-2.56c2.31-3.73,1.57-24.5,1.25-33.37-.06-1.53-.1-2.85-.13-3.9-.15-5.19-1.95-15.51-3.39-23.8-.83-4.73-1.54-8.81-1.87-11.43-.43-3.39-2.46-5.3-4.82-7.52-2.89-2.72-6.17-5.81-6.93-12-2.51-20.68-10.73-24.79-24.07-24.79h-.22c-16.14.06-20.8,13.49-21.87,24.74-.33,3.46-3.06,6.24-5.69,8.93-1.89,1.93-3.85,3.93-4.81,6.05-8.83,19.62-8.5,39.77-8.49,40,.05,1.8.07,4.42.09,7.45.05,9.24.15,24.7,1.62,28.62a1.67,1.67,0,1,1-3.13,1.18c-1.55-4.14-1.76-16.45-1.84-29.78,0-3,0-5.61-.09-7.37,0-.21-.34-21.14,8.79-41.44,1.2-2.67,3.37-4.88,5.47-7,2.33-2.38,4.53-4.63,4.75-6.9,1.69-17.86,10.64-27.72,25.19-27.77h.21c8.63,0,14.39,1.77,18.66,5.73,4.68,4.33,7.46,11.32,8.76,22,.6,5,3.17,7.42,5.9,10s5.26,5,5.84,9.54c.32,2.55,1,6.59,1.84,11.27,1.54,8.84,3.29,18.86,3.44,24.28,0,1.05.08,2.37.13,3.88,1,28.29-.37,33-1.74,35.26A1.69,1.69,0,0,1,249.09,373.54Z"/><path class="cls-10" d="M250.58,335.54a84.38,84.38,0,0,0-7.82-19.31c1.12,7.56,3,20.56,3.5,24.47.68,5.62-1.49,38.7-1.49,38.7l11-.45c-.1-2.84-.21-5.68-.36-8.51C254.76,358.7,253.68,346.92,250.58,335.54Z"/><path class="cls-14" d="M259.18,309.78c-5.49-13.84-25.07-25.89-25.07-25.89l7.82,26.75.83,5.59a84.38,84.38,0,0,1,7.82,19.31c3.1,11.38,4.18,23.16,4.79,34.9.15,2.83.26,5.67.36,8.51l15.54-.64S264.67,323.62,259.18,309.78Z"/><path class="cls-13" d="M244.77,381.07h-.11a1.68,1.68,0,0,1-1.56-1.78c.75-11.39,2-34.07,1.5-38.39-.67-5.54-4.29-29.76-4.32-30a1.67,1.67,0,1,1,3.31-.49c.15,1,3.66,24.51,4.33,30.09s-1.39,37.66-1.48,39A1.67,1.67,0,0,1,244.77,381.07Z"/><path class="cls-13" d="M271.26,380a1.67,1.67,0,0,1-1.65-1.48c-.07-.54-6.64-54.64-12-68.11-5.22-13.16-24.21-25-24.4-25.09a1.67,1.67,0,0,1,1.76-2.85,97.22,97.22,0,0,1,10.68,7.91c7.62,6.47,12.69,12.8,15.07,18.79,5.5,13.88,11.92,66.71,12.19,68.95a1.68,1.68,0,0,1-1.46,1.87Z"/><path class="cls-14" d="M180.71,284.32S158.49,295.6,153,309.5s-12.08,68.81-12.08,68.81l26.49,1.09s-2.17-33.22-1.49-38.86,1.83-23.23,1.83-23.23"/><path class="cls-10" d="M153.76,378.9s-1-35.46,4-59.74,20.56-33.52,20.56-33.52-18.29,11.17-22.18,17-9.06,29-10.2,41.45-5.42,34.32-5.42,34.32Z"/><path class="cls-13" d="M167.41,381.07a1.68,1.68,0,0,1-1.67-1.56c-.09-1.37-2.17-33.44-1.48-39.17.67-5.54,1.81-23,1.82-23.14a1.67,1.67,0,0,1,3.34.22c0,.72-1.16,17.69-1.84,23.32-.52,4.34.75,27.11,1.5,38.55a1.68,1.68,0,0,1-1.56,1.78Z"/><path class="cls-13" d="M140.92,380h-.2a1.67,1.67,0,0,1-1.46-1.86c.27-2.25,6.68-55.29,12.19-69.23C157.1,294.56,179,283.3,180,282.82a1.68,1.68,0,0,1,1.52,3c-.22.11-21.72,11.17-26.91,24.3-5.35,13.54-11.92,67.85-12,68.4A1.67,1.67,0,0,1,140.92,380Z"/><path class="cls-11" d="M268.72,223.24c5.18-29.44-8.6-43.81-12.84-50.88s-20.25-10.48-32.62-19.31-11.07-13-20-13c-9.21,0-15,11.78-19.55,15.31s-24.2,10.7-32.52,27.08c-8.12,16-10,17.72-8.21,37.24l.76,14.44.65,8.09-1.46,2.59s-1.62,14.9,8.9,26.23,26.23,15.54,36.11,17.16,36.59,4,56.5-5.34S270,255,270.49,251.32A54.7,54.7,0,0,0,271,245l-2.75-2.59S270.84,231.75,268.72,223.24Z"/><path class="cls-15" d="M226.12,155.49c-1.33,1.15-16.87,15.81-18.11,18.64s-5.92,1.32-8.3-2.21-11-14.95-19.26-14.07c7.69-4,12.48-17.75,22.24-17.76C211.81,140.08,223.64,154.52,226.12,155.49Z"/><path class="cls-10" d="M224.57,289s-43.45,3.32-62.56-9.31-19.43-33-19.26-34,1.94-2.75,1.94-2.75L143,219.72c-1.77-19.52.09-21.22,8.21-37.24,8.32-16.38,27.93-23.54,32.52-27.08s10.34-15.28,19.55-15.31H204a4.87,4.87,0,0,1-.72,3.29c-3,4.59-2.51,7.77-2.51,7.77s4.06,1.59,3.27,3.89-4.19,3.36-2.41,6.36,5.14.88,3.55,5.65-1.76,4.9-.35,8.55-5.65-2.72-11.31-6.6-17-4.6-21.67,2.11,18.76,28.33,20.24,38.3-.83,16.64-5.28,22.42c-13.63,17.72-34.91,6.59-36.62,5.8s-2.39,7.5,2.19,14.92,11.71,23.32,25.54,23.68c0,0,9.19-1.93,24.41-1.93s37.23,5.5,47.43,5.34C249.76,279.65,241,286,224.57,289Z"/><path class="cls-16" d="M199.71,171.92a8.52,8.52,0,0,0,5.09,3.61c-1.38-3.57-1.19-3.73.38-8.47s-1.76-2.65-3.55-5.65,1.61-4.06,2.41-6.36-3.27-3.89-3.27-3.89-.53-3.18,2.51-7.77a4.84,4.84,0,0,0,.73-3.19,9.72,9.72,0,0,0-1.06-.1c-5,.16-9,3.78-12.34,7.57-1.48,1.74-2.92,3.56-4.39,5.23-.34.39-.68.76-1,1.1l-.13.14a.94.94,0,0,1-.1.1,18.4,18.4,0,0,1-4.53,3.61C188.67,157,197.32,168.39,199.71,171.92Z"/><path class="cls-17" d="M193.05,220.41c4.89-2.45-3.14-27.32-9.91-35.73-8.41-10.42-29.75-4.19-36.3,11s-2.52,17.43-2.52,17.43,8.22-16.84,17.53-17.43,20.11,2.47,23.27,13.7C186.87,215.6,191.87,221,193.05,220.41Z"/><path class="cls-13" d="M194.23,218.05a1.47,1.47,0,0,1-1.47-1.47c0-8.77-4.81-25.58-12.66-33-3.42-3.25-9.33-4.06-15.43-2.14-8.11,2.57-17.85,10.62-20.84,25.5a1.46,1.46,0,0,1-2.87-.58c3.24-16.13,13.92-24.89,22.83-27.71,7.22-2.28,14.07-1.23,18.32,2.81,8.75,8.3,13.58,26.06,13.58,35.15A1.46,1.46,0,0,1,194.23,218.05Z"/><path class="cls-13" d="M183.13,205.57a.94.94,0,0,1-.36-.08.84.84,0,0,1-.39-1.12,24.73,24.73,0,0,1,6.79-8.24.83.83,0,1,1,1,1.34,23.46,23.46,0,0,0-6.27,7.63A.83.83,0,0,1,183.13,205.57Z"/><path class="cls-13" d="M166.84,196.52a.84.84,0,0,1-.82-.68,34.21,34.21,0,0,1,1.51-17.23.84.84,0,0,1,1.56.6c-3.05,7.86-1.44,16.22-1.43,16.31a.83.83,0,0,1-.65,1Z"/><path class="cls-13" d="M151.89,201.88a.85.85,0,0,1-.63-.29c-.18-.21-4.56-5.23-4.36-9.42a.84.84,0,1,1,1.67.08c-.17,3.52,3.91,8.19,4,8.24a.84.84,0,0,1-.08,1.18A.81.81,0,0,1,151.89,201.88Z"/><ellipse class="cls-10" cx="166.97" cy="215.7" rx="21.43" ry="20.02"/><path class="cls-13" d="M167,237c-12.51,0-22.69-9.55-22.69-21.28s10.18-21.27,22.69-21.27,22.69,9.54,22.69,21.27S179.48,237,167,237Zm0-40c-11.13,0-20.18,8.41-20.18,18.76s9.05,18.77,20.18,18.77,20.18-8.42,20.18-18.77S178.09,196.94,167,196.94Z"/><ellipse class="cls-10" cx="168.1" cy="216.05" rx="17.13" ry="15.78"/><path class="cls-13" d="M168.1,232.25c-9.68,0-17.55-7.26-17.55-16.2s7.87-16.19,17.55-16.19,17.54,7.26,17.54,16.19S177.77,232.25,168.1,232.25Zm0-31.56c-9.22,0-16.71,6.89-16.71,15.36s7.49,15.37,16.71,15.37,16.7-6.89,16.7-15.37S177.31,200.69,168.1,200.69Z"/><ellipse class="cls-11" cx="168.86" cy="214.43" rx="12.71" ry="12.07"/><path class="cls-13" d="M168.86,226.92c-7.24,0-13.13-5.61-13.13-12.49s5.89-12.49,13.13-12.49S182,207.54,182,214.43,176.1,226.92,168.86,226.92Zm0-24.15c-6.77,0-12.29,5.23-12.29,11.66s5.52,11.65,12.29,11.65,12.3-5.23,12.3-11.65S175.64,202.77,168.86,202.77Z"/><path class="cls-18" d="M249.6,188c-17.21,5.89-20.43,4.72-24.65,14.84s-1.6,4.33-3.31,16c-1.44,9.81,11.45,17.62,20,17.81,9.18.22,19.78-3.68,22.56-8,3-4.71,5.3-28,1.06-30.91S249.6,188,249.6,188Z"/><path class="cls-17" d="M219.57,220.18c-4.85-2.45,3.12-27.33,9.85-35.73,8.34-10.43,30.13-5.58,36.64,9.62s1.9,18.81,1.9,18.81-8.17-16.85-17.41-17.43-20,2.47-23.11,13.7C225.71,215.36,220.74,220.77,219.57,220.18Z"/><path class="cls-13" d="M218.4,217.6a1.25,1.25,0,0,1-1.25-1.25c0-9.06,4.78-26.74,13.42-35,4.67-4.47,12.47-5.76,19.87-3.3,10.76,3.58,18.29,13.83,20.67,28.13a1.26,1.26,0,0,1-2.48.41c-2.22-13.35-9.14-22.88-19-26.16-6.53-2.17-13.34-1.1-17.35,2.73-7.83,7.49-12.64,24.38-12.64,33.19A1.25,1.25,0,0,1,218.4,217.6Z"/><path class="cls-13" d="M231.05,203.7a.82.82,0,0,1-.75-.48,23.52,23.52,0,0,0-6.23-7.62.84.84,0,0,1,1-1.34,24.67,24.67,0,0,1,6.74,8.25.83.83,0,0,1-.4,1.11A.9.9,0,0,1,231.05,203.7Z"/><path class="cls-13" d="M244.13,196.28h-.07a.85.85,0,0,1-.77-.9,41.89,41.89,0,0,0-2.44-16.17.84.84,0,0,1,.48-1.08.83.83,0,0,1,1.08.48,42.67,42.67,0,0,1,2.55,16.9A.83.83,0,0,1,244.13,196.28Z"/><path class="cls-13" d="M257.06,196.52a.83.83,0,0,1-.6-.26.85.85,0,0,1,0-1.19s3.68-3.55,3.52-7a.82.82,0,0,1,.79-.87.85.85,0,0,1,.88.8c.2,4.23-3.86,8.14-4,8.31A.85.85,0,0,1,257.06,196.52Z"/><ellipse class="cls-10" cx="246.39" cy="212.58" rx="21.43" ry="20.02"/><path class="cls-13" d="M246.39,233.86c-12.51,0-22.69-9.55-22.69-21.28s10.18-21.27,22.69-21.27,22.69,9.54,22.69,21.27S258.9,233.86,246.39,233.86Zm0-40.05c-11.13,0-20.18,8.42-20.18,18.77s9,18.77,20.18,18.77,20.18-8.42,20.18-18.77S257.51,193.81,246.39,193.81Z"/><ellipse class="cls-10" cx="245.26" cy="212.93" rx="17.13" ry="15.78"/><path class="cls-13" d="M245.26,229.13c-9.68,0-17.55-7.26-17.55-16.2s7.87-16.2,17.55-16.2,17.54,7.27,17.54,16.2S254.93,229.13,245.26,229.13Zm0-31.56c-9.21,0-16.71,6.89-16.71,15.36s7.5,15.37,16.71,15.37S262,221.41,262,212.93,254.47,197.57,245.26,197.57Z"/><ellipse class="cls-11" cx="245.12" cy="211.03" rx="12.71" ry="12.07"/><path class="cls-13" d="M245.12,223.52c-7.24,0-13.13-5.61-13.13-12.49s5.89-12.49,13.13-12.49,13.13,5.6,13.13,12.49S252.36,223.52,245.12,223.52Zm0-24.15c-6.78,0-12.29,5.23-12.29,11.66s5.51,11.65,12.29,11.65,12.29-5.23,12.29-11.65S251.9,199.37,245.12,199.37Z"/><path class="cls-13" d="M268.5,244.61l-.26,0a1.46,1.46,0,0,1-1.18-1.7,60.06,60.06,0,0,0,.21-19.43,1.41,1.41,0,0,1,0-.46c4.38-24.92-4.9-38.46-10.45-46.55-.87-1.26-1.61-2.34-2.2-3.33-2.15-3.58-8.06-6.31-14.91-9.47-5.52-2.56-11.77-5.45-17.31-9.4a72.83,72.83,0,0,1-9.67-8.23c-3.31-3.25-4.53-4.47-9.49-4.45-5.77,0-10.29,5.51-13.93,9.92a33.31,33.31,0,0,1-4.74,5.08,46.93,46.93,0,0,1-5.36,3.18c-7.68,4.17-20.53,11.16-26.74,23.41-.63,1.24-1.22,2.4-1.78,3.48-6.52,12.72-7.88,15.37-6.29,33,.24,2.58.33,5.2.42,8a105.25,105.25,0,0,0,1,13.43,1.46,1.46,0,0,1-2.89.46,108.72,108.72,0,0,1-1.08-13.79c-.09-2.72-.18-5.3-.4-7.8-1.67-18.43-.08-21.53,6.59-34.55l1.78-3.48c6.62-13,20-20.32,27.95-24.65a46.55,46.55,0,0,0,5-2.93,33,33,0,0,0,4.26-4.62c4-4.89,9-11,16.18-11,6.14,0,8.06,1.87,11.55,5.3a71.28,71.28,0,0,0,9.32,7.93c5.31,3.79,11.44,6.62,16.84,9.12,7.29,3.37,13.58,6.27,16.19,10.63.54.91,1.27,2,2.1,3.17,5.41,7.89,15.46,22.54,11,48.48a63.06,63.06,0,0,1-.26,20.15A1.47,1.47,0,0,1,268.5,244.61Z"/><path class="cls-13" d="M221.22,236.08a10.84,10.84,0,0,0-1.45-1.64,3.54,3.54,0,0,0-2-.9,1.38,1.38,0,0,0-.87.18.72.72,0,0,0-.35.77,1.07,1.07,0,0,0,.25.42,34.59,34.59,0,0,0,2.72,2.83,1.64,1.64,0,0,0,1.32.65,1.13,1.13,0,0,0,.72-1.46,3.14,3.14,0,0,0-1.15-1.41,7.55,7.55,0,0,0-1.62-1.12,2.34,2.34,0,0,0-.58-.2.54.54,0,0,0-.58.18c-.13.24.09.52.29.7l2,1.86.68.65a7.63,7.63,0,0,0-2-2.56,2.68,2.68,0,0,1,1.2,1.13.76.76,0,0,0-.24-.39l.11.18"/><path class="cls-13" d="M201.65,235.08a18.79,18.79,0,0,0-4.76,2.95,4.18,4.18,0,0,0-.87,1.1.48.48,0,0,0-.07.23c0,.16.16.27.31.34a2.54,2.54,0,0,0,2.13-.16,7.47,7.47,0,0,0,1.72-1.36l1.21-1.16a3,3,0,0,0,1-1.41.44.44,0,0,0-.11-.44.45.45,0,0,0-.38,0,3.61,3.61,0,0,0-1.52,1.21,9.13,9.13,0,0,1-1.58,1.33A5.26,5.26,0,0,0,197,239c.14.21.47.07.66-.09l3.52-2.75"/><circle class="cls-19" cx="169.57" cy="213.17" r="10.36"/><path class="cls-13" d="M169.56,224a10.79,10.79,0,1,1,10.79-10.78A10.8,10.8,0,0,1,169.56,224Zm0-20.73a9.95,9.95,0,1,0,9.95,9.95A10,10,0,0,0,169.56,203.22Z"/><circle class="cls-20" cx="169.65" cy="210.53" r="7.44"/><ellipse class="cls-1" cx="169.89" cy="213.03" rx="3.4" ry="2.23" transform="translate(-83.78 113.56) rotate(-30.02)"/><circle class="cls-1" cx="166.85" cy="207.4" r="3.4"/><circle class="cls-1" cx="172.19" cy="218.92" r="2.87"/><circle class="cls-21" cx="245.01" cy="209.44" r="10.36"/><path class="cls-13" d="M245,220.23a10.79,10.79,0,1,1,10.78-10.79A10.8,10.8,0,0,1,245,220.23Zm0-20.73a9.95,9.95,0,1,0,10,9.94A10,10,0,0,0,245,199.5Z"/><circle class="cls-20" cx="244.93" cy="206.81" r="7.44"/><ellipse class="cls-1" cx="244.69" cy="209.31" rx="2.23" ry="3.4" transform="translate(-58.95 316.47) rotate(-59.98)"/><circle class="cls-1" cx="247.73" cy="203.68" r="3.4"/><circle class="cls-1" cx="242.38" cy="215.2" r="2.87"/><path class="cls-13" d="M194.7,290.24h-.12c-14.61-1.16-26.73-5.22-36-12.06a45.33,45.33,0,0,1-15.4-19.58c-2.56-6.38-3.26-13.13-1.56-15,2-2.27,6.58-4.81,6.77-4.92a1.46,1.46,0,1,1,1.42,2.56,30.34,30.34,0,0,0-6,4.26c-.56,1.16-.43,8,4,16.14a43.55,43.55,0,0,0,15.26,16.09c8.45,5.37,19.13,8.61,31.75,9.61a1.47,1.47,0,0,1-.11,2.93Z"/><path class="cls-13" d="M218.48,290.24a1.47,1.47,0,0,1-.12-2.93c13.15-1,36.79-5.88,47.51-26.49,4-7.79,4.12-14.11,3.59-15.22a39.21,39.21,0,0,0-6.87-3.13,1.46,1.46,0,1,1,1-2.75c1,.38,6.18,2.31,7.83,3.71,1.44,1.21,1.79,5.87-.31,12.41a45.09,45.09,0,0,1-14.74,21c-9.54,7.68-22.25,12.2-37.78,13.44Zm51.06-44.58h0Zm-.11-.12Z"/><path class="cls-13" d="M205.09,257.9c-8.65,0-12-1.86-15-3.51a13.55,13.55,0,0,0-7.67-2.16c-4,0-6.74,1.26-9.62,2.58-3.47,1.6-7.05,3.25-12.72,2.58-8.79-1-11.23-8-11.3-11.6a1.47,1.47,0,0,1,2.93-.06h0c0,.32.31,7.75,8.71,8.75,4.85.58,7.91-.83,11.15-2.33,3-1.4,6.19-2.85,10.85-2.85a16.24,16.24,0,0,1,9.08,2.53c2.8,1.54,5.69,3.14,13.59,3.14a1.47,1.47,0,0,1,0,2.93Z"/><path class="cls-13" d="M205.25,257.9a1.47,1.47,0,0,1,0-2.93c7.9,0,10.79-1.6,13.59-3.14a16.24,16.24,0,0,1,9.08-2.53c4.67,0,7.81,1.45,10.85,2.85,3.24,1.5,6.3,2.91,11.15,2.33,8.41-1,8.7-8.43,8.71-8.75a1.47,1.47,0,0,1,2.93.06c-.07,3.56-2.51,10.56-11.29,11.6-5.68.67-9.26-1-12.72-2.58-2.88-1.32-5.61-2.58-9.63-2.58a13.55,13.55,0,0,0-7.67,2.16C217.28,256,213.91,257.9,205.25,257.9Z"/><path class="cls-22" d="M215.39,95.08l-14,8.17c-4.51-2.76-13.07-7.52-13.07-7.52l-15.48,15.09,12.37.27.28,12.38L202.1,107c2,1.9,4.36,4.16,4.3,4.21l12.28,12.29.27-12.38,12.37-.27Z"/><path class="cls-23" d="M210.24,104.16l4.77.78a3,3,0,0,0,2.27-.53,3.06,3.06,0,0,0,1.21-2l.72-4.77a3,3,0,0,1,1.61-2.21l4.31-2.16a3,3,0,0,0,1.34-4.09l-2.22-4.3a2.91,2.91,0,0,1,0-2.72l2.22-4.29a3,3,0,0,0-1.34-4.1l-4.31-2.16a3,3,0,0,1-1.61-2.21l-.72-4.77a3.06,3.06,0,0,0-1.21-2A3,3,0,0,0,215,62.1l-4.77.78a3,3,0,0,1-2.6-.84l-3.39-3.44a3,3,0,0,0-4.31,0L196.55,62a3,3,0,0,1-2.6.84l-4.76-.78a3,3,0,0,0-3.49,2.53L185,69.4a3,3,0,0,1-1.6,2.21l-4.32,2.16a3,3,0,0,0-1.33,4.1L180,82.16a3,3,0,0,1,0,2.72l-2.22,4.3a3,3,0,0,0-.19,2.32,3,3,0,0,0,1.52,1.77l4.32,2.16a3,3,0,0,1,1.6,2.21l.72,4.77a3,3,0,0,0,3.49,2.53l4.76-.78a3,3,0,0,1,2.6.84l3.39,3.44a3,3,0,0,0,4.31,0l3.39-3.44A3,3,0,0,1,210.24,104.16Z"/><circle class="cls-5" cx="201.58" cy="83.57" r="17.5"/><polygon class="cls-24" points="189.93 75.87 190.65 79.14 194.2 77.45 194.26 77.45 194.26 92.2 198.47 92.2 198.47 73.58 194.86 73.58 189.93 75.87"/><path class="cls-24" d="M210.53,78.65l-3.16.72v2.25H206a18.45,18.45,0,0,0-2.27-.23c-2.57,0-4.22,1.46-4.22,3.39,0,1.23.81,2.4,2.95,3.12,1.21.4,1.52.66,1.52,1.18s-.4.87-1.37.87a6.28,6.28,0,0,1-2.78-.78l-.57,2.31a7.37,7.37,0,0,0,3.35.72c3,0,4.49-1.42,4.49-3.35,0-1.52-.85-2.52-2.82-3.2-1.27-.45-1.67-.7-1.67-1.19s.44-.84,1.23-.84a11.52,11.52,0,0,1,2.3.38h1.24v4.24a4.3,4.3,0,0,0,.89,3.07,3.36,3.36,0,0,0,2.42.89,6.66,6.66,0,0,0,2.1-.27l0-2.44a5.51,5.51,0,0,1-.95.08c-1,0-1.27-.57-1.27-1.82V84h2.31V81.62h-2.31Z"/><polygon class="cls-1" points="180.72 68.31 183.62 63.24 186.33 68.41 191.4 71.31 186.22 74.02 183.33 79.1 180.62 73.92 175.54 71.02 180.72 68.31"/><text class="cls-25" transform="translate(105.74 -37.61)"><tspan class="cls-26">S</tspan><tspan x="15.97" y="0">er t</tspan><tspan class="cls-27" x="59.84" y="0">r</tspan><tspan x="70.14" y="0">abajado</tspan><tspan class="cls-28" x="178.01" y="0">r</tspan><tspan x="188.16" y="0">e</tspan><tspan class="cls-29" x="204.19" y="0">s</tspan><tspan class="cls-30" x="216.51" y="0">.</tspan></text></svg>