<svg id="Capa_2" data-name="Capa 2" xmlns="http://www.w3.org/2000/svg" xmlns:xlink="http://www.w3.org/1999/xlink" viewBox="0 0 400 400"><defs><style>.cls-1{fill:#84e246;}.cls-2{fill:#53a22f;}.cls-3{fill:#7fe247;}.cls-4{fill:#0bab92;}.cls-5{fill:#06f5e2;}.cls-6{fill:#175807;}.cls-7{fill:#5ea837;}.cls-8{fill:url(#linear-gradient);}.cls-9{fill:#060203;}.cls-10{fill:#fff;}.cls-11{fill:url(#linear-gradient-2);}.cls-12{fill:#feec30;}</style><linearGradient id="linear-gradient" x1="7038.27" y1="-289.47" x2="7038.27" y2="-314" gradientTransform="matrix(-0.99, 0.12, 0.12, 0.99, 7246.33, -396.2)" gradientUnits="userSpaceOnUse"><stop offset="0" stop-color="#e8af15"/><stop offset="0.04" stop-color="#d69a16"/><stop offset="0.11" stop-color="#b87817"/><stop offset="0.19" stop-color="#9e5b18"/><stop offset="0.28" stop-color="#8a4319"/><stop offset="0.39" stop-color="#7a3119"/><stop offset="0.51" stop-color="#6e241a"/><stop offset="0.66" stop-color="#681c1a"/><stop offset="1" stop-color="#661a1a"/></linearGradient><linearGradient id="linear-gradient-2" x1="7147.52" y1="-300.07" x2="7147.52" y2="-323.33" xlink:href="#linear-gradient"/></defs><title>I</title><path class="cls-1" d="M295.35,330.05s-9.23-21.86-11.82-27.2-7.77-14.41-7.77-14.41-3.07-20.72-5-25.9-10.52-26.07-7.44-30,9.55-12.47,26.06,6,27.1,57.72,26.13,80.07c0,0,1.18,4.14-7,8.78S295.35,330.05,295.35,330.05Z"/><path class="cls-2" d="M277.76,291.9s-4.1-30.23,1.51-39.72,15.33-6.05,15.33-6.05-13-14.46-17.7-17.7-10.58.22-12.09,5.61S268.69,278.51,277.76,291.9Z"/><path class="cls-1" d="M262.65,222.22s5.34,21.54,10.52,52.3,3.24,61.2,3.24,61.2a102.23,102.23,0,0,1-45.63,20.84c-34.51,6.1-51-5.79-51-5.79s-26.13-65.6-14.24-94.06C186.88,205.55,245,214,262.65,222.22Z"/><path class="cls-2" d="M152.23,367s-6.8-37.57-10-52.46-8.09-39.51-1.78-51.16,23.64-13.6,23.64-13.6,17.16,67,17.48,97.46S152.23,367,152.23,367Z"/><path class="cls-3" d="M144.58,246.49c21.44,4.43,53.62,5.39,52.65,8.54s-69.67-47.4-76-40.57-.14,9.11,41.07,21.39,82.35-10.13,102.93-43.91,9.24-89.37,8.59-106.19,1.38-13.93,2.43-18.12c-3.71-1.4-7.37-3-11-4.54l-12.53-5.41a51.1,51.1,0,0,0-10.33-3.62c-5.59-1.09-11.35-.29-17,.52l-26.09,3.71a3.21,3.21,0,0,1-1.74-.07c-1.13-.5-1.28-2.06-1-3.27.86-3.7,3.95-6.41,6.93-8.76s5.82-4.46,8.82-6.57c-3.82,1.43-7,2.6-9,3.23C195.18,45.41,174,50.17,157,56.4s-23.84,19.44-23.84,19.44C128.29,82.45,95,138.77,94,151.64s-.61,43.67-.61,43.67c-8.71,1.33-5.87,10.91-5.87,10.91.06,4.65,14.27,21.2,20.18,24.86C116.57,236.52,128,243,144.58,246.49Z"/><path class="cls-4" d="M281.8,32.75a21.4,21.4,0,0,0-7.7-4.51,5.39,5.39,0,0,0,1,3.9c2.83,4,6.74,6.2,1.77,10.83s-.68,5.05-.22,8.41-2.92.39-2.87,6.45,3.43,5.61,2.38,9.8a84.21,84.21,0,0,0,11.31,3.46C288,55.68,287.72,38.22,281.8,32.75Z"/><path class="cls-5" d="M196.53,55c-.28,1.21-.13,2.77,1,3.27a3.21,3.21,0,0,0,1.74.07l26.09-3.71c5.63-.81,11.39-1.61,17-.52a51.1,51.1,0,0,1,10.33,3.62l12.53,5.41c3.63,1.57,7.29,3.14,11,4.54,1.05-4.19-2.33-3.74-2.38-9.8s3.34-3.09,2.87-6.45-4.76-3.77.22-8.41,1.06-6.86-1.77-10.83a5.39,5.39,0,0,1-1-3.9c-8.46-2.89-18.46-1.29-25.59-.49s-24.59,7.51-36.23,11.87c-3,2.11-5.94,4.29-8.82,6.57S197.39,51.25,196.53,55Z"/><path class="cls-2" d="M273.77,85.75c.65,16.82,12,72.41-8.59,106.19s-61.71,56.19-102.93,43.91-47.46-14.57-41.07-21.39,46.1,1.76,52.28-.5c3.1-1.13-21.79-12.83-62.36-7.74-16.84,2.12-18,5.69-16.47,10.83,15.39,24.15,41.44,25.14,68.57,33.37,42.42,12.86,120-9.58,135.13-53.53,5.53-16.06,13.85-33-3-37.73.27-11.39-8.2-53-8.48-66.5-.11-4.87.41-12.89.69-21.57a84.21,84.21,0,0,1-11.31-3.46C275.15,71.82,273.12,68.94,273.77,85.75Z"/><path class="cls-2" d="M113.66,89.67S93.9,97.78,88.25,114.24,83,149,103.48,166.92C103.48,166.92,142.07,130.35,113.66,89.67Z"/><path class="cls-6" d="M103.48,168.18a1.24,1.24,0,0,1-.83-.31C93,159.41,87,150.14,84.83,140.29c-1.8-8.19-1.07-16.85,2.23-26.46,5.77-16.8,25.29-25,26.12-25.32a1.26,1.26,0,0,1,1.51.44c15,21.49,11.37,41.82,5.68,55.09a77.57,77.57,0,0,1-16,23.79A1.24,1.24,0,0,1,103.48,168.18Zm9.74-76.94c-3.9,1.82-19.07,9.68-23.79,23.4-6.78,19.75-2.34,35.84,14,50.56A77.82,77.82,0,0,0,118.1,143a55.24,55.24,0,0,0,4.7-24.08C122.39,109.35,119.17,100.05,113.22,91.24Z"/><path class="cls-7" d="M171.6,117.14c1,17.09,7.39,39.19,25.72,51.83s41.94,12.87,54.07,4.35S269.79,148.73,256,122,169.2,74.32,171.6,117.14Z"/><path class="cls-5" d="M168,123.06c.74,9.51,12.91,17.46,17,5.28s6.9-28.28,30.9-32.63,39.52,17.56,41.73,21.11,5.27,15.07,4.84,21.79,14,19.44,12.53-9.08c-1.58-31.24-16.9-49.6-45-56.34C205.73,67.41,165.1,85.34,168,123.06Z"/><path class="cls-2" d="M215.36,95.36c-14.13,2.45-26.9,11.63-31.91,20.58S177,151.2,201.89,164.37s44.57-1.23,50.27-7.23a35.3,35.3,0,0,0,5.89-38.21C251,102.57,234,92.57,216.38,95.2Z"/><path class="cls-6" d="M222.41,171a44.69,44.69,0,0,1-21.1-5.5c-13-6.89-18.31-16.95-20.44-24.19-3.09-10.49-1.4-20.81,1.49-26,5.57-10,19.36-18.88,32.78-21.21h0L216.2,94c17.94-2.67,35.63,7.4,43,24.48A36.48,36.48,0,0,1,253.07,158,43.7,43.7,0,0,1,222.41,171ZM222,96a36.41,36.41,0,0,0-5.39.4l-1,.16h0c-14.43,2.5-26.53,11.93-31,20-2.64,4.71-4.16,14.24-1.27,24,2,6.77,6.95,16.2,19.2,22.68,10.44,5.52,21,6.7,31.37,3.48a42.62,42.62,0,0,0,17.4-10.46,33.92,33.92,0,0,0,5.65-36.85A38.34,38.34,0,0,0,222,96Zm-6.6-.68Z"/><path class="cls-5" d="M98,98.2s4.79-22.93,16.77-26.93,22.74.13,24.75,19.09.78,27.18-4.69,34.23-10.32,16.6-14.12,11.9c0,0,4.28-19.15,0-28.05S108.34,85.42,98,98.2Z"/><path class="cls-2" d="M93.83,157.43S92.27,171,96,174.33s15.06-14,15-19.57S93.83,157.43,93.83,157.43Z"/><path class="cls-6" d="M134.71,76.14a111.22,111.22,0,0,1,19.15-15.61c9.68-6.2,20.74-8.75,31.79-11.38C197,46.46,208.1,43.62,219,39.41c10.09-3.9,20.31-7.69,31-9.8,9.36-1.85,19.85-2.57,28.41,2.4a11.36,11.36,0,0,1,5.52,6.35c2.29,6.28,2.26,13.48,2.37,20.07.2,13.11-.84,26.2-.28,39.31a257.78,257.78,0,0,0,3.52,32c1.34,8,3,16,3.81,24.13.17,1.77.28,3.55.34,5.34a1.7,1.7,0,0,0,1.23,1.61c17.56,4.6,5.94,29,.17,38.49a96.43,96.43,0,0,1-20,23.59,116.61,116.61,0,0,1-25.34,15.93,110.53,110.53,0,0,1-14.51,5.9c-2.05.64-1.17,3.88.89,3.23a122.44,122.44,0,0,0,40.31-21.84A99,99,0,0,0,297.92,201c4.7-7.77,8.88-16.68,9.45-25.88.51-8.25-3.32-15.35-11.62-17.53l1.23,1.62c-.26-8-1.76-16-3.16-23.89a305.85,305.85,0,0,1-4.14-30.87c-1-13.67-.12-27.27-.07-40.95,0-7.9.16-16.31-1.9-24a15.84,15.84,0,0,0-5.95-9.22c-6.57-4.67-15-5.72-22.82-5.18-11.4.78-22.5,4.33-33.17,8.25-4.67,1.71-9.28,3.62-14,5.31a177.39,177.39,0,0,1-18.11,5.2c-11.26,2.76-23.08,4.76-33.71,9.54-9.74,4.39-18.41,11.57-26.08,18.91l-1.57,1.54c-1.51,1.53.86,3.9,2.37,2.36Z"/><path class="cls-6" d="M134.28,126.4a1.58,1.58,0,0,1-.81-.21,1.67,1.67,0,0,1-.65-2.27c9.11-16.36,4.19-35.52,2.47-41s-5-9.36-9.28-11c-3.79-1.44-7.93-.93-12,1.48-9.16,5.48-15.12,27.69-15.18,27.91a1.67,1.67,0,0,1-3.23-.85c.25-1,6.37-23.76,16.7-29.93,4.88-2.91,10.16-3.53,14.87-1.74,5.24,2,9.25,6.65,11.28,13.11,1.83,5.8,7,26.1-2.74,43.63A1.65,1.65,0,0,1,134.28,126.4Z"/><path class="cls-6" d="M168.14,126.44a1.69,1.69,0,0,1-1.66-1.45,44.21,44.21,0,0,1,1.08-14.64A48.34,48.34,0,0,1,185.4,82.84c22.2-17.19,49.36-15,64.72-4C266,90.27,274,102.85,277.05,121a1.67,1.67,0,0,1-3.3.56c-2.93-17.38-10.34-28.94-25.59-39.91-14.34-10.32-39.8-12.3-60.71,3.88a44.49,44.49,0,0,0-16.6,25.5,41.46,41.46,0,0,0-1,13.56,1.68,1.68,0,0,1-1.43,1.88Z"/><path class="cls-6" d="M103.47,168.6a1.7,1.7,0,0,1-.86-.24c-.29-.18-7.37-4.53-12.85-15.64-5.33-10.8-10.37-25.25-2-41.27,8.08-15.49,19-19.53,19.41-19.69a1.67,1.67,0,0,1,1.13,3.15c-.1,0-10.14,3.84-17.57,18.08-7.66,14.69-2.93,28.16,2.05,38.25s11.52,14.21,11.58,14.25a1.68,1.68,0,0,1-.87,3.11Z"/><path class="cls-6" d="M93.84,197a1.68,1.68,0,0,1-1.65-1.39c-2.52-14.59-.12-37.42,0-38.38a1.67,1.67,0,1,1,3.33.35c0,.23-2.45,23.33,0,37.46A1.68,1.68,0,0,1,94.12,197,1.33,1.33,0,0,1,93.84,197Z"/><path class="cls-6" d="M191.41,254.71h-.11c-5.08-.33-18.57-1.36-34-3.86-16.53-2.69-29.44-6.12-38.36-10.22a77.49,77.49,0,0,1-25.27-18.77c-6.37-7.23-9.72-14.26-9-18.79,1.07-6.55,5.43-9.93,27.26-11.46,58.16-4.58,78.51.11,90.67,2.92A68,68,0,0,0,210,196c33.88,3.87,44.27,1.75,58.53-11.94a1.67,1.67,0,1,1,2.31,2.41C255,201.73,242.26,203,209.67,199.3a72.5,72.5,0,0,1-7.77-1.51c-12-2.76-32-7.38-89.68-2.84-23,1.61-23.66,5.36-24.2,8.66s2.64,9.75,8.18,16a73.76,73.76,0,0,0,24.16,17.94c2.39,1.1,24.65,10.79,71.16,13.78a1.67,1.67,0,0,1-.11,3.34Z"/><path class="cls-6" d="M134.45,160.08s-6.43,3.46-5.51,5.59S133.27,168.08,134.45,160.08Z"/><path class="cls-6" d="M151.34,159.21s1.19,6.75,3.65,6.68S157.81,163.91,151.34,159.21Z"/><ellipse class="cls-2" cx="220.97" cy="132.56" rx="28.42" ry="30.48" transform="translate(75.65 345.35) rotate(-86.63)"/><path class="cls-6" d="M221.25,161.61q-1,0-2-.06c-17.13-1-30.3-14.83-29.35-30.82a27.87,27.87,0,0,1,10.32-20,32,32,0,0,1,22.44-7.19c17.13,1,30.29,14.84,29.35,30.83h0C251.13,149.75,237.51,161.61,221.25,161.61Zm-.57-56.85A30.65,30.65,0,0,0,201,111.71a26.66,26.66,0,0,0-9.87,19.09c-.9,15.3,11.73,28.53,28.17,29.5s30.54-10.69,31.44-26S239,105.78,222.61,104.82C222,104.78,221.32,104.76,220.68,104.76Zm30.73,29.59Z"/><ellipse class="cls-2" cx="220.75" cy="132.76" rx="24.55" ry="21.72" transform="translate(-11.57 21.49) rotate(-5.43)"/><path class="cls-6" d="M220.17,154.93c-12.57,0-23.2-8.45-24.28-19.8C194.74,123,205,112,218.66,110.72a26.5,26.5,0,0,1,18.17,4.77,20.82,20.82,0,0,1,8.78,14.91c1.16,12.15-9.05,23.1-22.76,24.41C222,154.89,221.05,154.93,220.17,154.93Zm1.2-43.5c-.88,0-1.75,0-2.63.12-13.25,1.26-23.12,11.8-22,23.5,1,10.92,11.3,19,23.44,19a25.43,25.43,0,0,0,2.6-.13c13.25-1.26,23.12-11.8,22-23.49a20,20,0,0,0-8.44-14.31A25.33,25.33,0,0,0,221.37,111.43Z"/><path class="cls-3" d="M108.11,162.45s-11.27-5.18-14.53-19.85,1.7-26.44,10.45-36c11.47-12.6,14.84-5.06,14.84-5.06S132.58,123.32,108.11,162.45Z"/><path class="cls-6" d="M107.56,94.32a1.64,1.64,0,0,1-.38,0,1.68,1.68,0,0,1-1.26-2c3.93-17.27,12.59-23.77,13-24a1.67,1.67,0,1,1,2,2.69c-.1.08-8,6.16-11.67,22.08A1.68,1.68,0,0,1,107.56,94.32Z"/><path class="cls-6" d="M118.66,103.43a1.79,1.79,0,0,1-.67-.14,1.68,1.68,0,0,1-.86-2.21c7.36-16.89,19.55-18.54,20.07-18.6a1.67,1.67,0,1,1,.4,3.32c-.45.06-10.86,1.59-17.41,16.62A1.67,1.67,0,0,1,118.66,103.43Z"/><path class="cls-6" d="M191,105.84a1.68,1.68,0,0,1-1.67-1.53c-.74-8.89-9.72-12.23-10.1-12.37a1.67,1.67,0,0,1,1.13-3.15c.46.16,11.38,4.18,12.31,15.23a1.68,1.68,0,0,1-1.53,1.81Z"/><path class="cls-6" d="M221.83,94.46a1.4,1.4,0,0,1-.41-.06,1.67,1.67,0,0,1-1.22-2,40.79,40.79,0,0,0,1.36-14,16.73,16.73,0,0,0-1-4.62,1.69,1.69,0,0,1,.82-2.22,1.67,1.67,0,0,1,2.21.81c.14.29,3.28,7.27-.15,20.8A1.68,1.68,0,0,1,221.83,94.46Z"/><path class="cls-6" d="M250.67,108.35a1.65,1.65,0,0,1-1.18-.49,1.67,1.67,0,0,1,0-2.36c9.54-9.64,7.8-16.46,7.72-16.75a1.67,1.67,0,0,1,3.21-.94c.1.35,2.5,8.87-8.55,20A1.68,1.68,0,0,1,250.67,108.35Z"/><path class="cls-2" d="M114.9,151.5c-9,6.11-14.47-1.53-16.36-6s-3.52-22,7.37-30.58,18.4,2.12,18.4,2.12S122.33,139.65,114.9,151.5Z"/><path class="cls-6" d="M108.48,154.19a8.44,8.44,0,0,1-2.4-.34c-4.75-1.42-7.27-6.64-7.92-8.21C96,140.42,95,123,105.65,114.57c3.42-2.68,6.86-3.79,10.25-3.29,5.38.79,8.62,5.31,8.75,5.5a.46.46,0,0,1,.08.28c0,.23-2.07,22.86-9.47,34.66a.68.68,0,0,1-.12.12A11.93,11.93,0,0,1,108.48,154.19ZM114.33,112a13.25,13.25,0,0,0-8.16,3.23c-11,8.65-8.81,26.34-7.24,30.08.62,1.49,3,6.43,7.38,7.73,2.55.76,5.34.14,8.28-1.84,6.94-11.13,9.09-32,9.29-34.06-.55-.71-3.56-4.37-8.11-5A10,10,0,0,0,114.33,112Zm.57,39.5h0Z"/><path class="cls-6" d="M98.12,176.53a1.7,1.7,0,0,1-1.06-.38,1.68,1.68,0,0,1-.23-2.36l1.31-1.6c14.59-17.78,24.23-29.53,24.06-53.54a26.64,26.64,0,0,0-15.4-24.44,1.68,1.68,0,0,1,1.27-3.1,30.24,30.24,0,0,1,17.48,27.52c.17,25.21-9.77,37.33-24.82,55.68l-1.31,1.6A1.66,1.66,0,0,1,98.12,176.53Z"/><path class="cls-6" d="M276,192.17h-.16a1.67,1.67,0,0,1-1.51-1.82c.28-2.9.16-6.7-2-8.29-2.43-1.81-6.54-.22-6.58-.2a1.68,1.68,0,0,1-1.26-3.11c.24-.09,5.88-2.32,9.84.63,2.72,2,3.83,5.82,3.31,11.29A1.67,1.67,0,0,1,276,192.17Z"/><path class="cls-6" d="M295.3,160.83a2,2,0,0,1-.42-.05c-5.12-1.34-7.52-1.11-7.54-1.11a1.68,1.68,0,0,1-1.84-1.48,1.66,1.66,0,0,1,1.45-1.84c.3,0,3-.3,8.77,1.19a1.67,1.67,0,0,1-.42,3.29Z"/><circle class="cls-8" cx="221.68" cy="135.52" r="12.27"/><path class="cls-6" d="M221.66,148.21A12.69,12.69,0,0,1,209.09,137h0a12.68,12.68,0,1,1,14.09,11.1A13,13,0,0,1,221.66,148.21Zm0-24.54a11.36,11.36,0,0,0-1.41.09,11.83,11.83,0,0,0-10.36,13.16h0a11.85,11.85,0,1,0,11.77-13.25Z"/><circle class="cls-9" cx="221.86" cy="135.36" r="8.51"/><circle class="cls-10" cx="230.24" cy="136.88" r="2.6"/><path class="cls-2" d="M208.77,134.53A99.31,99.31,0,0,0,233,130.38s-4.09-11.27-15.32-7.64C209.46,125.4,209.32,130.88,208.77,134.53Z"/><path class="cls-6" d="M208.77,135a.42.42,0,0,1-.31-.15.4.4,0,0,1-.1-.33c0-.26.07-.53.11-.81.51-3.7,1.2-8.77,9.07-11.32,11.49-3.72,15.8,7.78,15.84,7.9a.42.42,0,0,1,0,.33.41.41,0,0,1-.24.21,100.36,100.36,0,0,1-24.34,4.16ZM222,122.43a13.62,13.62,0,0,0-4.17.71c-7.37,2.38-8,7-8.5,10.64,0,.1,0,.2,0,.31a100,100,0,0,0,23.17-4,15.35,15.35,0,0,0-3.2-4.64A10.13,10.13,0,0,0,222,122.43Z"/><path class="cls-11" d="M120.31,132.06c.21-.92.44-1.82.7-2.72a11.63,11.63,0,1,0-6.11,20.57c.28-.6.55-1.2.82-1.8,1-2.35,2-4.74,2.91-7.13a35.06,35.06,0,0,0,.74-3.67C119.64,135.58,119.87,133.78,120.31,132.06Z"/><path class="cls-6" d="M113.65,150.39A12.05,12.05,0,1,1,121.28,129a.43.43,0,0,1,.13.44c-.25.9-.49,1.81-.7,2.7h0c-.35,1.38-.57,2.84-.78,4.24-.05.33-.09.65-.14,1a35.15,35.15,0,0,1-.76,3.72v0c-1,2.67-1.94,4.9-2.92,7.14-.27.61-.54,1.21-.82,1.81a.39.39,0,0,1-.34.24A11.15,11.15,0,0,1,113.65,150.39Zm0-23.27a12.22,12.22,0,0,0-1.35.08,11.22,11.22,0,0,0,2.3,22.31c.24-.52.48-1,.71-1.57,1-2.22,1.87-4.44,2.9-7.09a35.78,35.78,0,0,0,.73-3.61l.15-1a43.6,43.6,0,0,1,.79-4.32c.19-.82.4-1.65.63-2.47A11.11,11.11,0,0,0,113.67,127.12Zm6.64,4.94Z"/><path class="cls-9" d="M117.66,142.14c.08-.25.16-.5.23-.76.68-2.26,1.44-4.59,1.93-6.95.06-.41.14-.82.22-1.23,0,0,0-.08,0-.11a8.11,8.11,0,1,0-3.89,12.8C116.7,144.66,117.19,143.4,117.66,142.14Z"/><path class="cls-10" d="M118.51,139.25a.73.73,0,0,1,.18-.35c.06-.24.11-.48.16-.72a2.21,2.21,0,0,0-.77-.05,2.46,2.46,0,0,0-2.16,2.74,2.4,2.4,0,0,0,1.4,1.92A18.2,18.2,0,0,0,118.51,139.25Z"/><path class="cls-2" d="M121.2,128.7c-2.42-1.77-5.86-2.86-10.55-1.34-8.21,2.65-8.35,8.14-8.9,11.78a102.35,102.35,0,0,0,17.71-2.38C120.11,134.09,120.7,131.41,121.2,128.7Z"/><path class="cls-6" d="M101.75,139.56a.41.41,0,0,1-.31-.14.42.42,0,0,1-.1-.34c0-.26.07-.52.11-.8.51-3.7,1.2-8.77,9.07-11.32,4.15-1.34,7.83-.87,10.93,1.4a.43.43,0,0,1,.16.42c-.46,2.51-1,5.15-1.75,8.08a.4.4,0,0,1-.31.31,104,104,0,0,1-17.78,2.39Zm13.17-12.51a13.62,13.62,0,0,0-4.14.7c-7.37,2.39-8,7-8.5,10.64,0,.11,0,.21,0,.31a103.18,103.18,0,0,0,16.87-2.29c.66-2.71,1.19-5.18,1.63-7.52A10,10,0,0,0,114.92,127.05Z"/><path class="cls-6" d="M151.69,365.47a1.05,1.05,0,0,1-1-.92c-1.25-10.5-4-24.11-6.72-37.27-4.78-23.43-9.73-47.65-7.07-58.3,1.76-7,6.63-12.6,14.09-16.13a36.79,36.79,0,0,1,10.77-3.22,1,1,0,1,1,.23,2.07c-.19,0-19.19,2.29-23.06,17.78-2.55,10.2,2.35,34.18,7.09,57.38,2.7,13.2,5.48,26.85,6.75,37.44a1,1,0,0,1-.91,1.17Z"/><path class="cls-6" d="M315.65,318.88a1,1,0,0,1-1-1c-1.65-23.82-6.92-56.43-22.7-76.56-9.38-11.95-18.15-13.82-18.24-13.84a1,1,0,0,1,.4-2c.38.08,9.48,1.95,19.33,14.4,9,11.33,20.26,34,23.29,77.9a1,1,0,0,1-1,1.12Z"/><path class="cls-6" d="M277.11,334.17h0a1,1,0,0,1-1-1.06c0-.51.74-51.74-9.23-80.16a1,1,0,0,1,.64-1.33,1.06,1.06,0,0,1,1.34.64c10.09,28.77,9.35,80.37,9.34,80.88A1,1,0,0,1,277.11,334.17Z"/><path class="cls-6" d="M294.6,329.86a1.05,1.05,0,0,1-1-.71C286,307.07,274,286.81,273.84,286.6a1,1,0,0,1,1.79-1.07c.13.21,12.24,20.64,19.95,42.94a1,1,0,0,1-.64,1.33A1.06,1.06,0,0,1,294.6,329.86Z"/><path class="cls-12" d="M261.35,345.77s1.95-62.08-6.47-79.56-68.22-5.18-74.69,15.32,6,73.69,6,73.69S222.63,366.56,261.35,345.77Z"/><path class="cls-1" d="M146.4,360.65s-3-8,.76-19.32,6.37-40.48,6.26-43.61a16.66,16.66,0,0,0-.76-4.85s-2.48-20.51,0-26.45,9.5-20.07,15.54-21a13.16,13.16,0,0,1,9.83,2.05s7-.22,10.79,2,7.34,7.12,7.34,7.12a9.28,9.28,0,0,1,6.15,2.81,57.74,57.74,0,0,1,6.48,8c1.4,2.15,6.69,4.42,5.83,9.06S205.87,292,204,299.13s-7.23,12.19-11.44,9.06-2.59-7.12-2.59-7.12-6.15,16.84-5.83,32.06.54,26.66-1.19,32.49-5.72,10-18.35,7.88S147.27,365,146.4,360.65Z"/><path class="cls-6" d="M170.63,375.1c-10.76,0-16.68-4-17.57-4.69-1.43-.79-13.15-8.08-7.31-29.46,5.68-20.84,6-30.8,6-45.23-.36-1.65-2.94-14.41-1.06-25.86,1.93-11.78,9.77-21.26,13.65-24.62,2.9-2.51,8.31-1.52,9.9-1.15a11.34,11.34,0,0,1,4.43,1.85,24.8,24.8,0,0,1,11.27,2.56,14.78,14.78,0,0,1,6.88,6.75c2.35.64,9.17,3,12,9.86,1.18,1,5.59,5,7,8.28,1.2,2.75-1,6.82-4.15,12.45a99.69,99.69,0,0,0-5.33,10.7c-3.68,9.2-6.09,13.51-12.43,13.22a5.23,5.23,0,0,1-4.81-3,113.48,113.48,0,0,0-4,30.23c0,3.22.19,6.41.33,9.49.32,7.14.63,13.89-.58,18.92-1.43,6-4.9,9.08-10.59,9.54C173,375.06,171.78,375.1,170.63,375.1Zm-.8-128.6a5.6,5.6,0,0,0-3.58.95c-3.6,3.13-10.89,11.93-12.68,22.88-1.88,11.45,1,24.79,1.06,24.92a1.65,1.65,0,0,1,0,.32c0,14.8-.41,25.3-6.1,46.15-5.42,19.86,5.49,25.91,6,26.16l.22.14c.06.05,6.7,5,19.27,4,9.16-.74,9.2-9.68,8.48-25.42-.14-3.1-.29-6.32-.32-9.59-.26-22.11,7.12-41.23,9.39-46.57a1.47,1.47,0,0,1,2.7,1.15c-.36.84-.85,2-1.41,3.52a1.89,1.89,0,0,1-.05.23c-2.21,7-1.46,9.61-.82,10.53a2.39,2.39,0,0,0,2.07.95c3.77.16,5.59-1.38,9.59-11.39a100.12,100.12,0,0,1,5.48-11c2.19-4,4.66-8.44,4-9.86-1.13-2.57-5.08-6.26-6.51-7.46a1.46,1.46,0,0,1-.42-.59c-2.69-6.9-10.71-8.57-10.8-8.59a1.47,1.47,0,0,1-1.12-1c0-.13-1-3.35-5.74-5.79a21.89,21.89,0,0,0-10.44-2.21,1.46,1.46,0,0,1-1.39-.75C176.05,247.51,172.7,246.5,169.83,246.5Zm6.85,1.5h0Z"/><path class="cls-6" d="M169.06,260.82a1.5,1.5,0,0,1-.64-.15,1.47,1.47,0,0,1-.68-2c4.52-9.31,9.31-12.39,9.51-12.52a1.46,1.46,0,1,1,1.56,2.47c-.08.05-4.34,2.9-8.43,11.33A1.47,1.47,0,0,1,169.06,260.82Z"/><path class="cls-6" d="M186.55,269.17a1.53,1.53,0,0,1-.71-.18,1.46,1.46,0,0,1-.57-2c5.31-9.63,10.27-11.58,10.48-11.66a1.47,1.47,0,0,1,1.89.86,1.46,1.46,0,0,1-.84,1.87c-.11.05-4.29,1.86-9,10.34A1.46,1.46,0,0,1,186.55,269.17Z"/></svg>