<svg id="Capa_2" data-name="Capa 2" xmlns="http://www.w3.org/2000/svg" xmlns:xlink="http://www.w3.org/1999/xlink" viewBox="0 0 400 400"><defs><style>.cls-1{fill:#64a835;}.cls-2{fill:#f2f2f2;}.cls-3{opacity:0.2;fill:url(#Blanco_Negro);}.cls-4{fill:#ccc;}.cls-5{fill:#4d4d4d;}.cls-6{fill:#333;}.cls-7{fill:#151615;}.cls-8{fill:#05fadb;}.cls-9{fill:#05baa0;}.cls-10{fill:#06fad6;}.cls-11{fill:#84e246;}.cls-12{fill:#175807;}.cls-13{fill:url(#linear-gradient);}.cls-14{fill:#060203;}.cls-15{fill:#fff;}.cls-16{fill:url(#linear-gradient-2);}.cls-17{fill:#730e00;}.cls-18{fill:#eae8e9;}.cls-19{fill:#4b0d00;}.cls-20{fill:#918f8f;}.cls-21{fill:#63aa35;}</style><linearGradient id="Blanco_Negro" x1="205.36" y1="349.43" x2="205.36" y2="321.36" gradientUnits="userSpaceOnUse"><stop offset="0" stop-color="#fff"/><stop offset="1"/></linearGradient><linearGradient id="linear-gradient" x1="289.36" y1="83" x2="289.36" y2="59.1" gradientTransform="translate(-147.2 67.06) rotate(-1.75)" gradientUnits="userSpaceOnUse"><stop offset="0" stop-color="#e8af15"/><stop offset="0.04" stop-color="#d69a16"/><stop offset="0.11" stop-color="#b87817"/><stop offset="0.19" stop-color="#9e5b18"/><stop offset="0.28" stop-color="#8a4319"/><stop offset="0.39" stop-color="#7a3119"/><stop offset="0.51" stop-color="#6e241a"/><stop offset="0.66" stop-color="#681c1a"/><stop offset="1" stop-color="#661a1a"/></linearGradient><linearGradient id="linear-gradient-2" x1="395.4" y1="76.42" x2="395.4" y2="52.52" xlink:href="#linear-gradient"/></defs><title>I</title><path class="cls-1" d="M170.64,263.9s-11.5-43.55,24.28-57,59.42,28.66,58.61,55.21C253.53,262.12,208.2,277,170.64,263.9Z"/><path class="cls-2" d="M254.88,361.15S252,371,205.36,371c-44.9,0-51.83-9.83-51.83-9.83l-3.24-118.41s60.88-5.93,105.89-1.62l6,39.72Z"/><polygon class="cls-3" points="152.83 328.98 201.4 313.93 204.8 318.13 209.17 315.55 257.9 333.03 254.99 353.75 152.99 353.75 152.83 328.98"/><path class="cls-4" d="M155.58,242.53s18.35,20.07,26.77,24.17S197,254,197,254L166.37,235.4Z"/><path class="cls-4" d="M255.1,242.53s-18.35,20.07-26.77,24.17S213.65,254,213.65,254L244.3,235.4Z"/><path class="cls-2" d="M105,325.31s20.07-69.94,24.93-75.66,26.88-9,26.88-9-4.64,28.82-5.08,36.81.44,27.63.44,27.63S118.23,331.57,105,325.31Z"/><path class="cls-4" d="M152.13,306l-1.52-50.08s-17.26,29.57-14.67,56.77Z"/><path class="cls-2" d="M157.74,240.8s4.21-8.31,7.55-13.28c0,0,17.27,1,32.92,9.07A52,52,0,0,1,184,256S169,250.41,157.74,240.8Z"/><path class="cls-2" d="M252.61,240.8s-4.21-8.31-7.55-13.28c0,0-17.27,1-32.92,9.07A51.94,51.94,0,0,0,226.39,256S241.39,250.41,252.61,240.8Z"/><path class="cls-5" d="M254.34,362.34h-.13a1.47,1.47,0,0,1-1.33-1.59L260.17,279a1.46,1.46,0,1,1,2.91.26L255.8,361A1.47,1.47,0,0,1,254.34,362.34Z"/><path class="cls-5" d="M153.2,361.42a1.46,1.46,0,0,1-1.46-1.43l-2.16-91.74a1.46,1.46,0,0,1,1.43-1.5h0a1.46,1.46,0,0,1,1.46,1.43l2.16,91.75a1.46,1.46,0,0,1-1.43,1.49Z"/><path class="cls-6" d="M206.53,360.87l18.14-18.14a.69.69,0,0,0,.19-.61l-13.94-83.76a.7.7,0,0,1,.24-.65l8.72-7.47a.71.71,0,0,0,.13-.91l-5.41-8.46a.73.73,0,0,0-.56-.32l-7.72-.35v0l-.46,0h-.06l-.47,0v0l-7.71.35a.71.71,0,0,0-.56.32l-5.41,8.46a.71.71,0,0,0,.13.91l8.72,7.47a.7.7,0,0,1,.24.65l-14,83.76a.73.73,0,0,0,.2.61l18.14,18.14a.7.7,0,0,1,.2.49v.7h0a.71.71,0,0,1,1,0h0v-.7A.71.71,0,0,1,206.53,360.87Z"/><path class="cls-7" d="M206.32,363.53a1.41,1.41,0,0,1-.49-.09,1.46,1.46,0,0,1-2-1.38v-.38L186,343.77a2.2,2.2,0,0,1-.6-1.89l13.87-83.34-8.39-7.19a2.17,2.17,0,0,1-.41-2.81l5.41-8.46a2.16,2.16,0,0,1,1.72-1l7.36-.34a1.35,1.35,0,0,1,.49-.06l.43,0,.43,0a1.35,1.35,0,0,1,.49.06l7.36.34a2.16,2.16,0,0,1,1.72,1l5.41,8.46a2.18,2.18,0,0,1-.41,2.81l-8.39,7.19,13.87,83.34a2.18,2.18,0,0,1-.61,1.89l-17.91,17.91v.38a1.47,1.47,0,0,1-.91,1.36A1.55,1.55,0,0,1,206.32,363.53Zm1.25-1.63ZM188.3,342l17.53,17.53L223.36,342,209.48,258.6a2.17,2.17,0,0,1,.72-2l8.22-7L213.58,242l-7.32-.34a.85.85,0,0,1-.23,0h-.4a.85.85,0,0,1-.23,0l-7.32.34-4.84,7.56,8.21,7a2.17,2.17,0,0,1,.73,2Zm17.49-103.26Z"/><path class="cls-8" d="M184.65,37.63c-4.42,7.09-3.35,7.74.33,10.81s-1.5,7.17-1,11.31,2.87,1.49,4.09,6.27-1.69,13.18-1.69,13.18c4.32,1.41,8.58-2.16,11.53-5.62,6.88-8.09,12.64-17.38,20.07-24.83-12.57-7.38-22-18.78-33-18.69A7.3,7.3,0,0,1,184.65,37.63Z"/><path class="cls-9" d="M156.42,58.43c10,2.41,18,9.85,25.22,17.24a12.45,12.45,0,0,0,4.74,3.53s2.91-8.41,1.69-13.18-3.58-2.13-4.09-6.27,4.69-8.23,1-11.31-4.75-3.72-.33-10.81a7.3,7.3,0,0,0,.29-7.57,18,18,0,0,0-8.86,2.55C164,39.46,155.17,57.06,152.3,58.43l.48.62C153.57,58,155.15,58.13,156.42,58.43Z"/><path class="cls-1" d="M143.13,83.36c2.7-12,17.17-20.58,25.9-13.92a68.49,68.49,0,0,0,17.35,9.76,12.45,12.45,0,0,1-4.74-3.53c-7.21-7.39-15.18-14.83-25.22-17.24-1.27-.3-2.85-.42-3.64.62l-.48-.62-.1,0c-2.77,1-13.2,6.57-18.81,13.77s-10,12.76-10,12.76l9.5-3.08A30.9,30.9,0,0,1,143.13,83.36Z"/><path class="cls-1" d="M287.27,124.49c1.06-3.83,1.07-11.45-.42-19.73-1.71.74-4.06-.37-5.69-2.44-3.29-4.18-4.51-10.3-20.06-10.69s-30.59,14.66-36.15,21.3c-2.71,3.25-4.94,7.18-7,9.84a31.35,31.35,0,0,0-.18,4.22c21.61,42.32,60,12.06,60,12.06,0,10.6,4.61,20.51,3.81,34.39s-21,35.19-45.75,42-65.36,1.73-77.15-3.12-39.25-19.42-42.53-29.26,2.89-24.82,2.89-24.82c52.79,12.95,54.81-29,54.81-29l-2.83-8.4c-5.89-11.61-29.27-21.41-36.41-21-6.58.34-20.65,11.81-24,19.67-1.28,3-3.45,3.18-5.64,2.27a113.14,113.14,0,0,0,3.77,23.26c6.18,22.27-5.6,17.64-5.37,25.38.14,4.33,6.53,25.54,15,33.54s24.6,23.29,65,26.49,68-6.71,84-18.05c28.34-20.07,31.11-65.82,23.15-65.41C281.22,147.49,284.63,134.07,287.27,124.49Z"/><path class="cls-10" d="M184.5,123.42c-2.31-5.75-19.38-33.25-41.37-40.06a30.9,30.9,0,0,0-10.25-1.44l-9.77,1.87s-11.84,6.86-15.72,17.49c-2.16,5.93-3.26,10.33-2.7,19.29,2.19.92,4.36.73,5.65-2.27,3.36-7.85,11.23-13.61,17.41-15.88,15.38-5.67,26.38,1.61,38.21,12,2.92,2.56,6.84,6.87,8.12,7.84C179.74,126.54,187.16,130,184.5,123.42Z"/><path class="cls-11" d="M143.13,83.36c22,6.81,40,35.29,41.63,41.27.55,2.05.4,4.31-10.41-1.14-1.44-.72-.15-1.78-3.62-3.5l3.13,9.3s-2,41.94-54.81,29c0,0-6.17,15-2.89,24.82s30.75,24.41,42.53,29.26,52.39,10,77.15,3.12,45-28.16,45.75-42-3.79-23.79-3.81-34.39c0,0-38.41,30.26-60-12.06a31.35,31.35,0,0,1,.18-4.22c-2.17,2.79-4.17,4.17-6.4,1.9-4.35-4.44,4.88-12.48,13.79-27.31s35.27-22,35.27-22-15-15.27-35.09-22.92A50.87,50.87,0,0,1,218,48.75c-7.43,7.45-13.19,16.74-20.07,24.83-2.95,3.46-7.21,7-11.53,5.62A68.49,68.49,0,0,1,169,69.44C160.3,62.78,145.83,71.35,143.13,83.36Z"/><path class="cls-10" d="M279.72,84.49c-2.88-4.81-3-3.83-7.75-5.94,0,0-9.89-.93-12.27-1.59,0,0-25.45,5.58-34.37,20.4s-18.14,22.87-13.79,27.31c2.23,2.27,4.23.89,6.4-1.9s4.3-6.59,7-9.84c5.56-6.64,22-17.09,37.55-16.7s15.37,1.91,18.66,6.09c1.63,2.07,4,3.18,5.69,2.44C285.61,97.85,283.33,90.49,279.72,84.49Z"/><path class="cls-11" d="M129.33,111.16c-7.84,3.74-11,11.82-6,21.74S144.93,148,156,143.61s9.08-17.14,8.32-20.76S146.82,102.81,129.33,111.16Z"/><path class="cls-11" d="M259.77,100.8c-10,.31-23.06,4-25.25,16.75s4.31,20.1,16.06,21.17,18.59-5.22,22-13.11S275.23,100.31,259.77,100.8Z"/><path class="cls-12" d="M188.26,232.09a1.21,1.21,0,0,1-.37-.07c-.28-.07-1.43-.19-2.65-.31A173.93,173.93,0,0,1,155,226.28c-16.15-4.61-28.4-11.48-36.39-20.45-11.93-13.37-17.3-28.29-16.3-35.54.49-3.59,2.67-5.33,4.59-6.86,2.12-1.7,3.66-2.93,3.09-6.29-.53-3.11-1.36-6.6-2.23-10.29-3.16-13.27-7.08-29.79-1.37-45.92a27.35,27.35,0,0,1,17-17.05c9.56-3.45,20-2,25.42,1.22l2.33,1.37c10.4,6.06,27.81,16.21,34.9,38.7a1,1,0,0,1-2,.63c-6.84-21.72-23.82-31.61-34-37.52l-2.34-1.38c-5-3-14.69-4.28-23.64-1.05a25.29,25.29,0,0,0-15.72,15.78c-5.51,15.55-1.66,31.73,1.43,44.74.89,3.72,1.72,7.24,2.26,10.42.78,4.58-1.68,6.54-3.85,8.28-1.77,1.41-3.44,2.74-3.82,5.5-1,6.88,4.69,21.43,15.79,33.87,7.72,8.66,19.64,15.33,35.41,19.82a171.56,171.56,0,0,0,29.85,5.37,12.92,12.92,0,0,1,3.27.47,1,1,0,0,1,.49,1.39A1.05,1.05,0,0,1,188.26,232.09Zm-.45-.11.06,0Z"/><path class="cls-12" d="M229.53,228.68a1,1,0,0,1-.14-2.09c28.83-3.93,44.25-19.18,52.11-31.28,8.65-13.33,12-28.89,11.55-38.4-.45-9-3.46-9.48-6.11-9.92-1.24-.21-2.52-.43-3.29-1.53-.63-.9-.75-2.21-.38-4.11.3-1.57.61-3.13.92-4.69,2.55-12.71,5-24.71.53-38.54-3.45-10.76-8.64-17.34-15.44-19.54-8.57-2.78-20.17,1.13-34.49,11.64-17.91,13.14-23.44,33.9-23.49,34.11a1.06,1.06,0,0,1-1.28.75,1,1,0,0,1-.75-1.27c.23-.88,5.75-21.68,24.29-35.28,14.88-10.92,27.12-14.94,36.36-11.94C277.4,79,283,86,286.71,97.48c4.6,14.35,2,27.18-.47,39.59-.31,1.56-.62,3.11-.92,4.68s-.14,2.24.05,2.52,1,.51,1.91.66c3.71.62,7.36,2,7.86,11.87.47,9.13-2.37,25-11.89,39.65-8.09,12.47-24,28.18-53.58,32.22Z"/><path class="cls-12" d="M125,85.19a1,1,0,0,1-.45-.1,1.05,1.05,0,0,1-.49-1.4,62.21,62.21,0,0,1,24.9-25.12c4.34-2.35,9.18-8.11,13.86-13.69,6.69-8,13-15.5,19.27-15.83,10.86-.57,20.57,7.73,27.67,13.8,2.65,2.26,8.59,5.15,15.47,8.49,12.66,6.15,28.42,13.82,36.2,23.32A1,1,0,1,1,259.79,76c-7.48-9.15-23-16.7-35.5-22.77-7-3.4-13-6.35-15.91-8.78-7.21-6.16-16.19-13.83-26.2-13.3-5.36.28-11.67,7.81-17.78,15.08-4.81,5.73-9.78,11.65-14.47,14.19a61.33,61.33,0,0,0-24,24.19A1,1,0,0,1,125,85.19Z"/><path class="cls-12" d="M189.56,144.05s-7.29,3.78-5.56,6.79S188.81,151.14,189.56,144.05Z"/><path class="cls-12" d="M211.63,141.91s1,6.1,4.2,6.61S220.67,145.31,211.63,141.91Z"/><path class="cls-12" d="M140.14,154.82a34,34,0,0,1-3.91-.22c-12.33-1.42-21.64-10.76-25.53-25.6a20.44,20.44,0,0,1,3.75-17.82c5.16-6.91,13.21-10.69,18.49-10.85,13.48-.41,24.26,5.75,30.93,11a60.14,60.14,0,0,1,11.34,11.57,1,1,0,0,1-1.72,1.2s-.15-.22-.41-.55a24.54,24.54,0,0,1-6.78,20.36C159.85,150.74,149.91,154.82,140.14,154.82Zm-5.91-52.42-1.23,0c-4.66.15-12.16,3.7-16.88,10a18.43,18.43,0,0,0-3.4,16c3.66,14,12.32,22.74,23.75,24.06,10.32,1.19,21.43-2.76,28.3-10.06a22.22,22.22,0,0,0,6.08-19.66,1,1,0,0,1,.69-1.17C166.72,116,153.22,102.4,134.23,102.4Z"/><path class="cls-12" d="M118.91,108.32a1,1,0,0,1-.64-.22,20.69,20.69,0,0,1-7.79-14.45,1.05,1.05,0,0,1,1-1.09,1,1,0,0,1,1.09,1h0a19,19,0,0,0,7,12.89,1,1,0,0,1,.19,1.46A1.05,1.05,0,0,1,118.91,108.32Z"/><path class="cls-12" d="M133,102.42a1,1,0,0,1-.88-.49c-5.19-8.24-1.75-18.79-1.6-19.24a1,1,0,0,1,2,.66c0,.11-3.26,10.08,1.39,17.47a1,1,0,0,1-.33,1.44A1.06,1.06,0,0,1,133,102.42Z"/><path class="cls-12" d="M158.71,110a1,1,0,0,1-1-.72c-3-9.4,5.13-14.39,5.21-14.44A1,1,0,1,1,164,96.6h0c-.28.17-6.82,4.22-4.3,12a1,1,0,0,1-.68,1.31A.86.86,0,0,1,158.71,110Z"/><path class="cls-12" d="M251.67,147.11c-10.25,0-17.81-2.59-22.5-7.72-4.49-4.91-6.41-12.21-5.74-21.72a41.35,41.35,0,0,0-2.84,4,1,1,0,0,1-1.43.38,1,1,0,0,1-.37-1.43c.43-.75,10.87-18.3,31.14-23.37C263,94,272.62,94.45,278.4,98.68c3.52,2.58,5.46,6.46,5.78,11.55.46,7.47-1.69,19.15-9.28,27.46-5.43,6-12.59,9.13-21.28,9.39ZM225.8,114.85s0,.07,0,.1c-1.25,10.34.41,18.09,4.92,23s12.24,7.34,22.85,7c8.09-.25,14.76-3.18,19.8-8.7,7.14-7.84,9.17-18.87,8.73-25.93-.27-4.44-1.93-7.8-4.92-10-5.18-3.79-14.43-4.17-26.74-1.09C239,102.15,230.7,109.37,225.8,114.85Z"/><path class="cls-12" d="M248.15,99.19l-.18,0a1,1,0,0,1-.85-1.21c.67-3.87-2.61-7.38-4.06-8.71-1.73-1.6-3.27-2.28-4.56-2a1,1,0,0,1-.39-2.06c2-.37,4.13.48,6.37,2.55s5.52,5.9,4.7,10.61A1,1,0,0,1,248.15,99.19Z"/><path class="cls-12" d="M264.54,97.32a1,1,0,0,1-.33-.06,1,1,0,0,1-.66-1.32,7.85,7.85,0,0,0,.32-2.73,24.28,24.28,0,0,0-2.37-10.15c-.91-1.91-2.48-4.25-4.78-4.6a1.05,1.05,0,0,1-.87-1.2,1,1,0,0,1,1.19-.87c2.53.39,4.73,2.38,6.35,5.77a26.62,26.62,0,0,1,2.58,11,10.08,10.08,0,0,1-.44,3.43A1,1,0,0,1,264.54,97.32Z"/><path class="cls-12" d="M275.3,97.85a1,1,0,0,1-.56-.17,1,1,0,0,1-.33-1.44,20.32,20.32,0,0,0,2.92-7.77,6.09,6.09,0,0,0-.39-4,1,1,0,0,1,1.8-1.06,8.29,8.29,0,0,1,.66,5.42,22.58,22.58,0,0,1-3.22,8.57A1.06,1.06,0,0,1,275.3,97.85Z"/><path class="cls-12" d="M142.94,149.06a25.51,25.51,0,0,1-16-5.38,18.18,18.18,0,0,1-.87-28.56,25.73,25.73,0,0,1,16.49-6.39c13-.4,23.88,8.32,24.22,19.44h0c.34,11.11-10,20.48-23,20.88Zm.49-39.5h-.83a24.86,24.86,0,0,0-15.95,6.17,17.33,17.33,0,0,0,.83,27.28,24.75,24.75,0,0,0,16.3,5.19c12.56-.38,22.51-9.36,22.19-20h0C165.65,117.78,155.62,109.56,143.43,109.56Z"/><path class="cls-12" d="M252.67,141.06c-12.67,0-23.16-9.68-23.53-21.91-.37-12,9.66-21.42,23.33-21.84,13.45-.42,23.51,8.17,23.89,20.4h0c.38,12.47-9.9,22.94-22.92,23.34Zm.72-42.93h-.89c-13.2.41-22.88,9.43-22.53,21,.37,12,10.89,21.46,23.44,21.08s22.48-10.46,22.11-22.47h0C275.17,106.26,265.92,98.13,253.39,98.13Z"/><path class="cls-12" d="M251.27,136.31a17.12,17.12,0,0,1-.51-34.24h.53a17.12,17.12,0,0,1,.51,34.24Zm0-33.41h-.51a16.12,16.12,0,1,0,.51,0Z"/><path class="cls-12" d="M144.12,145.07c-9.19,0-16.78-6.86-17-15.53-.27-8.84,7.19-16.27,16.62-16.56s17.34,6.67,17.61,15.52a15.44,15.44,0,0,1-4.68,11.5,17.57,17.57,0,0,1-11.95,5.06Zm.15-31.26h-.54c-9,.28-16.07,7.32-15.81,15.71.25,8.21,7.46,14.71,16.2,14.71h.54A16.82,16.82,0,0,0,156,139.41a14.6,14.6,0,0,0,4.43-10.89C160.22,120.31,153,113.81,144.27,113.81Z"/><circle class="cls-13" cx="144.2" cy="129.24" r="11.95"/><path class="cls-12" d="M144.19,141.61a12.37,12.37,0,0,1-.37-24.73h.39a12.38,12.38,0,0,1,12.35,12h0a12.38,12.38,0,0,1-12,12.74Zm0-23.9h-.36a11.53,11.53,0,1,0,11.87,11.17h0A11.54,11.54,0,0,0,144.21,117.71Z"/><circle class="cls-14" cx="145.04" cy="129.22" r="7.53"/><circle class="cls-15" cx="149.27" cy="123.18" r="2.54"/><circle class="cls-16" cx="249.99" cy="119.42" r="11.95"/><path class="cls-12" d="M250,131.79a12.37,12.37,0,0,1-.38-24.73,12.37,12.37,0,1,1,.76,24.72Zm0-23.9h-.36a11.53,11.53,0,0,0,.35,23h.35a11.55,11.55,0,0,0,11.18-11.88h0A11.55,11.55,0,0,0,250,107.89Z"/><circle class="cls-14" cx="250.83" cy="119.4" r="7.53"/><circle class="cls-15" cx="255.06" cy="113.36" r="2.54"/><path class="cls-17" d="M117,169.45s15.2,4.54,47.39,1.42,46.66-4,74.44-1.42,38-3.4,38-3.4-26.94,48.25-76.27,49.62C144.38,217.23,117,169.45,117,169.45Z"/><path class="cls-18" d="M140,171.49s-.62,6,2.72,14.37c1.45,3.59-1.35,3.87,2.25,12.95,0,0,38.26,27.36,76.67,13.24,0,0,20.22-7.48,26.09-13.75a36.68,36.68,0,0,0,2.31-5.8,23.1,23.1,0,0,0-.1-6.91s1.21-2.8,2.71-7.63a14.09,14.09,0,0,0,0-7.87s-42.17-2.26-47.82-2.09-51.6,3.7-51.6,3.7Z"/><path class="cls-19" d="M252.87,170.76A36,36,0,0,1,250,185.59a25.67,25.67,0,0,1-2.21,12.71s12-9.17,18.51-17.64,10.51-14.61,10.51-14.61-14.75,4.53-24.1,4"/><path class="cls-19" d="M140.88,172.7a36,36,0,0,0,2.88,14.83A25.75,25.75,0,0,0,146,200.24s-12-9.17-18.51-17.64S117,168,117,168s14.75,4.53,24.1,4"/><path class="cls-12" d="M197.88,216.75c-28,0-48.46-12.3-60.87-22.81-13.85-11.73-20.67-23.47-20.95-24a1,1,0,0,1,.08-1.17,1.06,1.06,0,0,1,1.12-.35c.15.05,15.43,4.44,47,1.38,31.82-3.08,46.5-4,74.64-1.42,14.12,1.3,23.53.34,28.94-.69,5.85-1.12,8.41-2.56,8.43-2.57a1,1,0,0,1,1.44,1.41,116.89,116.89,0,0,1-19.83,24.54c-11.9,11.29-31.51,24.9-57.32,25.61C199.65,216.74,198.76,216.75,197.88,216.75Zm-78.66-45.69a105.45,105.45,0,0,0,19.2,21.34c12.51,10.57,33.42,23,62.07,22.22,25.13-.7,44.27-14,55.9-25a119.91,119.91,0,0,0,17.82-21.37c-4.87,1.64-15.83,4-35.51,2.23-28-2.56-42.57-1.65-74.25,1.42C139.49,174.33,124.79,172.21,119.22,171.06Z"/><path class="cls-12" d="M115.62,177.09a1.06,1.06,0,0,1-.92-.53A8.28,8.28,0,0,1,120,164.45a1,1,0,1,1,.48,2,6.18,6.18,0,0,0-4,9,1,1,0,0,1-.4,1.42A1.07,1.07,0,0,1,115.62,177.09Z"/><path class="cls-12" d="M278.89,172.53a1,1,0,0,1-.37-.07,1,1,0,0,1-.6-1.35,5.71,5.71,0,0,0-4.14-7.66,1,1,0,1,1,.43-2,7.8,7.8,0,0,1,5.66,10.46A1,1,0,0,1,278.89,172.53Z"/><path class="cls-20" d="M143.76,187.53s9.38,3.3,33.05,5c0,0-2.43,1.05-32.75-1.62Z"/><path class="cls-20" d="M250,185.15s-12.2,3.91-33.05,6.11c0,0,4,1.32,33.16-3.73Z"/><path class="cls-5" d="M184,257.48a1.54,1.54,0,0,1-.52-.09c-.62-.23-15.37-5.81-26.66-15.48a1.46,1.46,0,0,1-.36-1.77c.18-.34,4.29-8.45,7.65-13.43a1.48,1.48,0,0,1,1.3-.65c.71,0,17.76,1.08,33.51,9.23a1.46,1.46,0,0,1,.7,1.79c-.15.44-3.92,10.73-14.66,20A1.45,1.45,0,0,1,184,257.48Zm-24.39-17.05c9.29,7.64,20.95,12.63,24.09,13.9a52.46,52.46,0,0,0,12.67-17.05c-13-6.36-26.82-7.92-30.3-8.23C163.57,232.85,160.73,238.21,159.58,240.43Z"/><path class="cls-5" d="M226.38,257.48a1.43,1.43,0,0,1-.95-.36c-10.75-9.31-14.52-19.6-14.67-20a1.46,1.46,0,0,1,.7-1.79c15.75-8.15,32.8-9.19,33.52-9.23a1.47,1.47,0,0,1,1.29.65c3.36,5,7.48,13.09,7.65,13.43a1.46,1.46,0,0,1-.36,1.77c-11.29,9.67-26,15.25-26.66,15.48A1.54,1.54,0,0,1,226.38,257.48ZM214,237.29a52.56,52.56,0,0,0,12.67,17c3.14-1.27,14.8-6.26,24.1-13.9-1.16-2.22-4-7.58-6.47-11.38C240.83,229.36,226.94,230.93,214,237.29Z"/><path class="cls-5" d="M106.88,320.93l-2.77-.95c1.34-3.91,3.25-10.09,5.45-17.25,10.64-34.52,16.8-52.44,20.95-54.59,5.9-3.06,26-8.52,26.85-8.75l.76,2.82c-.2.06-20.64,5.61-26.26,8.52-.55.29-2.81,2.5-8.56,18.85-3.68,10.44-7.7,23.51-10.94,34C110.15,310.77,108.24,317,106.88,320.93Z"/><path class="cls-2" d="M224,305.13s8.74,4.21,13.6,5.5,10.69,1.19,13.92,2.38,3.13,1.62,7.24,2.26,11.11-2.15,11.11-2.15l-19.32-69.73,2.05-2.59a44.13,44.13,0,0,1,26.12,16.73c10.26,14.14,18.89,60.55,17.6,70.27s-1.95,15-7.67,14.78-77.6-26.12-77.6-26.12l13.27-4.75A19.12,19.12,0,0,1,224,305.13Z"/><path class="cls-5" d="M271.66,318.47a1.48,1.48,0,0,1-1.42-1.11c-3.19-12.64-13.81-52.85-13.92-53.25a1.47,1.47,0,0,1,2.84-.75c.1.41,10.72,40.63,13.92,53.28a1.46,1.46,0,0,1-1.06,1.78A1.49,1.49,0,0,1,271.66,318.47Z"/><path class="cls-5" d="M296.27,328.83a1.47,1.47,0,0,1-1.46-1.34c-4.35-51.26-14.46-65-20.49-73.17l-1.26-1.71c-5.74-8-21.29-11.37-21.45-11.4a1.47,1.47,0,0,1,.6-2.87c.69.15,16.82,3.62,23.23,12.56.39.55.81,1.11,1.24,1.69,6.21,8.44,16.62,22.57,21.05,74.65a1.46,1.46,0,0,1-1.33,1.58Z"/><path class="cls-5" d="M288.66,344.05c-6.37,0-30.78-9.15-56.63-18.83-7.36-2.75-15-5.6-21.91-8.14a1.46,1.46,0,1,1,1-2.75c7,2.54,14.57,5.39,21.93,8.15,24.46,9.16,49.76,18.64,55.6,18.64a4.64,4.64,0,0,0,3.72-1.63c3.06-3.54,2.6-12,2.17-15a1.47,1.47,0,0,1,2.9-.43c.07.49,1.7,12.07-2.86,17.35A7.48,7.48,0,0,1,288.66,344.05Z"/><path class="cls-11" d="M225.52,292.5a51.07,51.07,0,0,0-1.94,7.45A34.63,34.63,0,0,1,222,306.1s9,1.94,11.66,3.13,6.9,1.62,12.63,2.81,6.69,3.45,11.11,3.88,13.28.87,15.22-6-1.19-11.44-9.07-14.57A45.51,45.51,0,0,0,242,292.5,153.51,153.51,0,0,1,225.52,292.5Z"/><path class="cls-12" d="M260.48,316.53a15.68,15.68,0,0,1-7-1.36c-2.73-1.44-5.95-1.93-9.37-2.45a42.54,42.54,0,0,1-10-2.36,99.91,99.91,0,0,0-11-3.84,1,1,0,0,1,.53-2,102.63,102.63,0,0,1,11.3,3.93,40.81,40.81,0,0,0,9.49,2.23c3.6.55,7,1.07,10,2.68,3.35,1.77,11.92,1.62,15.74-1.91,2.2-2,2.52-4.92.94-8.57-2.14-5-12.41-8.77-20.29-9.09s-25.66.16-25.84.16a1,1,0,0,1-1.07-1,1.05,1.05,0,0,1,1-1.08c.18,0,17.93-.48,26-.16a38.73,38.73,0,0,1,13.12,3c3.26,1.39,7.47,3.79,9,7.35,2.45,5.67.57,9.08-1.44,10.94C268.93,315.49,264.48,316.53,260.48,316.53Z"/><path class="cls-2" d="M225.52,288.94l-19.1.38-2.92,2.75s-15.7,2.27-16.67,2.43S141,300,121.9,307.61s-22,20.24-12.46,26.07,22.5,3.56,32.7-.33,59.74-20.23,59.74-20.23,2.76,5.5,3.4,5.18,18.46-6.48,18.46-6.48A37.15,37.15,0,0,1,225.52,288.94Z"/><path class="cls-5" d="M122.37,339.19a25.61,25.61,0,0,1-6-.69c-6-1.44-10-4-11.92-7.71-2.82-5.48-.17-12.05,1.1-15.2a1.47,1.47,0,0,1,1.91-.81,1.46,1.46,0,0,1,.81,1.9c-1.2,3-3.42,8.48-1.21,12.77,1.48,2.88,4.84,5,10,6.2,8.76,2.11,18.27-1.48,34-7.42a485.24,485.24,0,0,1,50.44-16.53,1.46,1.46,0,1,1,.75,2.83A477.11,477.11,0,0,0,152.11,331C139.16,335.85,130.3,339.19,122.37,339.19Z"/><path class="cls-5" d="M136.58,305.08a1.46,1.46,0,0,1-.32-2.89,580.85,580.85,0,0,1,65.82-10.39,1.46,1.46,0,1,1,.26,2.91,575.59,575.59,0,0,0-65.43,10.34Z"/><path class="cls-5" d="M204.37,319.33a1.48,1.48,0,0,1-1.22-.65,29.09,29.09,0,0,1-3.75-9.56,26,26,0,0,1,4.65-21.05,1.47,1.47,0,0,1,1.18-.6h20.29a1.48,1.48,0,0,1,1.4,1.91c-1.33,4.16-4.17,16.06-1.41,21.09a1.46,1.46,0,0,1,.08,1.24,1.48,1.48,0,0,1-.9.85l-19.86,6.69A1.48,1.48,0,0,1,204.37,319.33ZM206,290.4c-7.85,11.35-2.8,22.43-1,25.7l17.25-5.81c-2-6,.19-15.78,1.31-19.89Z"/><path class="cls-11" d="M182.05,295.87l-12.47,1.38a36.71,36.71,0,0,0-11.33,5.59c-5.42,4-6.72,4.2-8.9,6.71s-5.35,6.32-8.18,6.16c0,0-1.86-.65-2.1-.81a19.58,19.58,0,0,0-3.57-.41c-1.37-.08-3.15-1.86-3.48-2.18s0-2.59,0-2.59-2.83-.49-3.32-1.46,2.51-10.77,7.69-14.49,14.74-5.75,27-4.86S182.05,295.87,182.05,295.87Z"/><path class="cls-21" d="M140.9,310.09s-.86,1.08,2.81.22,14.68-15.76,20.07-17.49,8-1.72,9.5-.86,9.39,4.21,9.39,4.21-16.51,1.62-18.67,3.13-9.5,5.83-12.52,8.42a38,38,0,0,0-4.64,4.86c-1,1-2.7,3.56-5.67,3.13s-3.4-2.59-2.54-3.89A4.75,4.75,0,0,1,140.9,310.09Z"/><path class="cls-12" d="M140.88,316.5a5.92,5.92,0,0,1-1.37-.16,2.94,2.94,0,0,1-2.45-2.26c-.07-.43-.19-2.81,3.82-7.33a1,1,0,0,1,1.56,1.39c-1.71,1.93-3.47,4.63-3.31,5.63,0,.13.27.39.87.54,1.52.37,4.92-.18,8.1-4.56,4.78-6.61,19.81-14.24,20.45-14.57a1,1,0,0,1,.94,1.87c-.15.08-15.21,7.73-19.7,13.93C146.81,315.09,143.39,316.5,140.88,316.5Z"/><path class="cls-12" d="M135.43,315.5a6.19,6.19,0,0,1-3.79-1.22c-2.85-2.14-.31-6.23,2.15-10.19.55-.88,1.12-1.79,1.62-2.66a1,1,0,1,1,1.81,1c-.52.91-1.09,1.84-1.65,2.74-1.87,3-4,6.42-2.68,7.4,2.08,1.56,4.75.38,4.78.37a1,1,0,0,1,.85,1.91A8.15,8.15,0,0,1,135.43,315.5Z"/><path class="cls-12" d="M131.78,311.09h-.09a7.89,7.89,0,0,1-3.61-1.34c-1.66-1.24-.24-3.92,1.56-7.33.53-1,1.08-2.05,1.51-3,1.47-3.23,6.27-9.57,13.94-10.48l1.94-.26c7.66-1,21.93-3,36,6.58a1,1,0,1,1-1.17,1.73c-13.42-9.09-27.17-7.23-34.56-6.23l-2,.25c-6.75.81-11,6.42-12.28,9.27-.46,1-1,2.08-1.58,3.12-.79,1.51-2.1,4-2,4.75a6,6,0,0,0,2.45.86,1,1,0,0,1-.1,2.09Z"/></svg>