<svg width="400" height="400" viewBox="0 0 400 400" fill="none" xmlns="http://www.w3.org/2000/svg">
<path d="M261.247 133.739C261.247 133.739 305.617 136.599 294.147 169.369C294.147 169.369 292.917 173.869 296.467 175.779C300.017 177.689 310.417 171.489 306.297 152.439C301.927 132.239 279.407 123.859 266.437 123.179C253.467 122.499 251.557 132.239 261.247 133.739Z" fill="#164589"/>
<path d="M285.556 140.768C285.556 140.768 275.196 136.618 274.286 132.338C273.376 128.058 280.116 126.248 280.116 126.248C280.116 126.248 268.846 123.248 264.696 123.248C260.546 123.248 257.046 123.118 258.086 126.248C259.126 129.378 258.476 132.988 267.676 135.068C273.773 136.51 279.75 138.415 285.556 140.768Z" fill="#0E3154"/>
<path d="M297.907 177.339C297.212 177.347 296.526 177.186 295.907 176.869C292.417 174.989 292.467 170.929 292.987 169.039V168.959C295.757 161.049 295.357 154.309 291.807 148.959C283.627 136.599 261.407 135.009 261.177 134.959H261.067C257.147 134.349 253.067 131.959 253.497 128.159C253.827 124.959 257.647 121.899 265.417 122.309C273.948 122.92 282.235 125.424 289.677 129.639C299.357 135.169 305.527 142.979 307.517 152.219C308.787 158.069 308.827 163.219 307.647 167.509C306.898 170.724 305.092 173.594 302.517 175.659C301.197 176.692 299.583 177.28 297.907 177.339ZM295.327 169.719C295.237 170.109 294.527 173.339 297.047 174.719C297.777 175.109 299.317 174.949 301.047 173.669C302.777 172.389 308.207 166.999 305.117 152.729C301.007 133.729 278.517 125.499 265.307 124.809C259.457 124.499 256.187 126.409 255.977 128.449C255.767 130.489 258.537 132.079 261.417 132.539C265.739 132.919 270.014 133.726 274.177 134.949C283.377 137.649 290.177 142.019 293.877 147.589C297.847 153.639 298.347 161.059 295.327 169.719Z" fill="#141C29"/>
<path d="M178.427 246.759C227.785 246.759 267.797 206.747 267.797 157.389C267.797 108.031 227.785 68.0193 178.427 68.0193C129.069 68.0193 89.0566 108.031 89.0566 157.389C89.0566 206.747 129.069 246.759 178.427 246.759Z" fill="#141C29"/>
<path d="M171.407 84.2083C189.486 82.5003 207.556 87.5673 222.111 98.4283C236.666 109.288 246.668 125.167 250.178 142.985C253.687 160.802 250.454 179.288 241.106 194.857C231.757 210.426 216.959 221.968 199.582 227.244C182.206 232.519 163.489 231.153 147.062 223.41C130.636 215.667 117.671 202.099 110.682 185.338C103.693 168.576 103.178 149.817 109.238 132.698C115.298 115.578 127.5 101.32 143.477 92.6883C152.123 88.0163 161.622 85.1323 171.407 84.2083ZM170.677 76.6383C154.713 78.1693 139.561 84.3983 127.137 94.5403C114.714 104.681 105.576 118.279 100.88 133.613C96.1837 148.947 96.1397 165.33 100.754 180.689C105.368 196.048 114.433 209.694 126.802 219.902C139.172 230.109 154.29 236.42 170.246 238.036C186.201 239.651 202.278 236.5 216.443 228.979C230.607 221.458 242.223 209.906 249.823 195.784C257.422 181.661 260.664 165.603 259.137 149.638C257.087 128.227 246.615 108.508 230.026 94.8183C213.436 81.1283 192.088 74.5883 170.677 76.6383Z" fill="url(#paint0_linear_4631_80065)"/>
<path d="M173.606 107.149C185.229 106.034 196.88 108.983 206.572 115.495C216.264 122.007 223.399 131.678 226.76 142.86C230.121 154.043 229.501 166.045 225.005 176.821C220.509 187.597 212.416 196.482 202.104 201.959C191.792 207.437 179.899 209.17 168.453 206.863C157.006 204.555 146.714 198.35 139.33 189.305C131.946 180.26 127.926 168.934 127.956 157.257C127.987 145.581 132.065 134.276 139.496 125.269C143.701 120.143 148.881 115.902 154.736 112.792C160.591 109.682 167.005 107.763 173.606 107.149ZM172.886 99.6093C161.472 100.712 150.641 105.174 141.762 112.431C132.883 119.689 126.354 129.415 123.001 140.381C119.648 151.348 119.621 163.062 122.924 174.043C126.226 185.025 132.71 194.781 141.556 202.079C150.401 209.377 161.212 213.889 172.621 215.044C184.03 216.2 195.526 213.948 205.655 208.572C215.785 203.197 224.093 194.939 229.531 184.843C234.969 174.746 237.292 163.265 236.206 151.849C235.48 144.261 233.267 136.891 229.691 130.16C226.115 123.429 221.248 117.469 215.367 112.62C209.487 107.771 202.708 104.129 195.419 101.901C188.129 99.6742 180.473 98.9053 172.886 99.6393V99.6093Z" fill="url(#paint1_linear_4631_80065)"/>
<path d="M175.677 128.919C182.266 128.285 188.871 129.956 194.366 133.647C199.861 137.338 203.906 142.82 205.813 149.159C207.719 155.498 207.368 162.302 204.82 168.411C202.271 174.52 197.684 179.557 191.838 182.663C185.992 185.769 179.251 186.751 172.762 185.443C166.273 184.135 160.438 180.618 156.252 175.49C152.066 170.362 149.787 163.942 149.805 157.322C149.822 150.703 152.134 144.294 156.347 139.189C158.73 136.284 161.665 133.88 164.983 132.117C168.301 130.354 171.936 129.267 175.677 128.919ZM174.957 121.379C167.834 122.062 161.074 124.842 155.531 129.368C149.988 133.893 145.911 139.961 143.817 146.803C141.722 153.645 141.704 160.955 143.764 167.808C145.824 174.661 149.869 180.749 155.389 185.302C160.909 189.856 167.655 192.67 174.775 193.39C181.894 194.109 189.067 192.701 195.386 189.344C201.706 185.987 206.888 180.832 210.277 174.529C213.666 168.227 215.11 161.062 214.427 153.939C213.973 149.209 212.593 144.615 210.363 140.419C208.134 136.223 205.101 132.507 201.435 129.484C197.77 126.46 193.546 124.189 189.002 122.798C184.459 121.407 179.687 120.925 174.957 121.379Z" fill="url(#paint2_linear_4631_80065)"/>
<path d="M166.257 204.458C166.257 203.938 166.387 203.458 166.407 202.878C166.587 196.498 166.767 190.112 166.947 183.718C167.227 174.718 167.547 165.718 167.817 156.718C168.077 148.308 168.297 139.898 168.537 131.498C168.747 124.498 168.937 117.498 169.167 110.498C169.297 106.788 170.897 104.418 173.737 103.498C177.317 102.388 180.737 104.208 181.927 108.008C183.277 112.208 184.487 116.458 185.787 120.678C190.307 135.398 194.837 150.112 199.377 164.818C199.505 165.302 199.769 165.739 200.137 166.078C200.617 164.398 201.094 162.732 201.567 161.078C203.317 154.758 205.047 148.428 206.827 142.078C208.057 137.738 210.717 134.828 215.317 134.138C219.317 133.528 223.157 135.688 225.407 139.448C227.657 143.208 230.077 146.838 232.317 150.588C233.827 153.118 235.817 153.898 238.737 153.478C244.227 152.688 249.737 152.208 255.297 151.618C255.924 151.513 256.567 151.555 257.175 151.741C257.782 151.927 258.339 152.253 258.799 152.692C259.259 153.13 259.61 153.67 259.825 154.269C260.04 154.867 260.113 155.507 260.037 156.138C259.988 157.015 259.632 157.846 259.029 158.484C258.427 159.123 257.619 159.528 256.747 159.628C249.347 160.378 241.927 161.048 234.517 161.688C232.277 161.878 230.577 160.688 229.097 159.168C225.303 155.05 222.078 150.442 219.507 145.468C219.252 144.843 218.916 144.255 218.507 143.718C217.999 143.048 217.302 142.543 216.507 142.268C215.507 142.108 214.907 143.098 214.617 143.998C214.147 145.478 213.767 146.998 213.357 148.498C211.267 156.168 209.207 163.838 207.087 171.498C206.685 173.038 205.795 174.406 204.552 175.399C203.308 176.392 201.777 176.956 200.187 177.008C198.553 176.998 196.965 176.465 195.656 175.485C194.348 174.506 193.388 173.133 192.917 171.568C191.787 168.048 190.727 164.498 189.647 160.958C186.44 150.418 183.23 139.878 180.017 129.338C179.077 126.338 178.017 123.288 176.927 120.238C176.867 122.168 176.797 124.088 176.747 126.018C176.3 140.732 175.854 155.445 175.407 170.158C175.207 177.158 175.077 184.158 174.877 191.158C174.747 195.608 174.597 200.068 174.337 204.508C174.077 208.948 171.457 212.068 167.567 212.818C165.55 213.28 163.432 212.942 161.659 211.875C159.886 210.809 158.595 209.097 158.057 207.098C155.277 197.788 152.577 188.458 149.787 179.158C147.557 171.708 145.257 164.278 142.997 156.838C142.337 154.668 141.737 152.488 141.087 150.318C140.916 149.93 140.715 149.556 140.487 149.198C139.897 150.558 139.427 151.668 138.947 152.768C136.717 157.858 134.517 162.948 132.267 168.018C131.813 169.203 131.014 170.224 129.972 170.948C128.931 171.672 127.695 172.066 126.427 172.078C120.687 172.448 114.957 173.078 109.237 173.638C107.067 173.858 104.917 174.298 102.747 174.538C99.9065 174.858 98.1365 173.418 97.8665 170.708C97.7785 170.131 97.8165 169.542 97.9775 168.981C98.1375 168.42 98.4175 167.9 98.7965 167.457C99.1765 167.014 99.6475 166.658 100.177 166.413C100.707 166.168 101.283 166.04 101.867 166.038C107.187 165.528 112.507 165.098 117.817 164.568C120.067 164.338 122.307 163.968 124.527 163.568C124.79 163.483 125.033 163.343 125.239 163.159C125.446 162.975 125.612 162.75 125.727 162.498C128.177 157.148 130.507 151.748 133.027 146.428C133.85 144.644 134.954 143.003 136.297 141.568C138.507 139.318 141.797 139.388 144.397 141.188C146.997 142.988 148.397 145.728 149.237 148.648C151.747 156.938 154.147 165.258 156.627 173.558C157.717 177.228 158.957 180.848 160.037 184.558C161.887 190.808 163.667 197.078 165.477 203.328C165.587 203.718 165.737 204.098 165.867 204.478L166.257 204.458Z" fill="white"/>
<path d="M229.677 87.0783C251.777 106.078 261.357 127.188 263.467 149.238C265.628 171.779 258.747 194.255 244.337 211.722C229.927 229.19 209.168 240.217 186.627 242.378C152.457 245.638 115.677 225.988 98.2266 190.258C98.2266 190.258 142.607 202.458 186.857 167.488C222.587 139.248 229.677 87.0783 229.677 87.0783Z" fill="url(#paint3_linear_4631_80065)"/>
<path d="M125.867 229.699C102.577 209.699 91.9269 190.309 89.5269 167.079C88.2259 155.148 89.3399 143.077 92.8039 131.586C96.2679 120.095 102.01 109.419 109.689 100.195C117.367 90.9713 126.825 83.3883 137.497 77.8983C148.169 72.4083 159.838 69.1223 171.807 68.2393C207.807 65.6093 244.187 84.7093 261.007 123.039C261.007 123.039 216.837 111.039 170.207 147.849C132.557 177.639 125.867 229.699 125.867 229.699Z" fill="url(#paint4_linear_4631_80065)"/>
<path d="M190.027 222.049C190.027 222.049 163.867 242.259 129.027 242.669C94.1871 243.079 112.187 209.769 110.967 205.259C109.747 200.749 101.547 198.709 97.0371 217.549C92.5271 236.389 101.957 256.039 129.797 256.039C157.637 256.039 190.407 239.659 199.797 227.789C209.187 215.919 195.757 218.779 190.027 222.049Z" fill="#164589"/>
<path d="M110.877 209.579C110.877 209.579 98.1772 229.269 103.877 246.119C103.877 246.119 93.2472 234.589 96.2272 220.459C99.2072 206.329 102.967 201.019 108.407 202.459C113.847 203.899 110.877 209.579 110.877 209.579Z" fill="#0E3154"/>
<path d="M130.067 257.279C117.297 257.279 107.327 253.189 101.227 245.459C95.4368 238.129 93.5768 227.859 96.1068 217.259C97.2768 212.399 100.697 201.079 107.337 200.969C108.509 200.978 109.644 201.376 110.565 202.1C111.486 202.824 112.141 203.833 112.427 204.969C112.757 206.169 112.277 208.079 111.337 211.629C109.497 218.629 106.717 229.119 111.757 235.629C114.877 239.629 120.757 241.629 129.287 241.509C163.287 241.109 189.287 221.359 189.517 221.159L189.657 221.059C191.967 219.79 194.455 218.877 197.037 218.349C200.367 217.689 202.647 218.049 203.817 219.399C206.197 222.169 202.337 227.039 201.067 228.629C196.117 234.879 185.427 241.959 172.487 247.579C157.967 253.809 142.907 257.279 130.067 257.279ZM107.427 203.439H107.377C104.747 203.439 101.037 207.289 98.5068 217.839C96.1568 227.689 97.8468 237.199 103.167 243.929C108.777 251.049 118.077 254.809 130.067 254.809C158.337 254.809 190.357 238.079 199.127 227.019C202.887 222.289 202.057 221.019 201.947 220.929C200.857 219.669 194.947 220.839 190.947 223.089C185.438 227.076 179.546 230.503 173.357 233.319C163.307 238.029 147.517 243.689 129.357 243.899C120.027 243.999 113.467 241.709 109.847 237.069C104.057 229.639 107.147 217.949 108.997 210.969C109.557 208.849 110.257 206.209 110.087 205.589C109.947 204.986 109.609 204.446 109.127 204.057C108.645 203.667 108.047 203.45 107.427 203.439Z" fill="#141C29"/>
<path d="M245.546 218.508C245.896 214.208 242.686 210.248 242.686 210.248C243.479 207.576 243.479 204.731 242.686 202.058C242.259 200.835 241.527 199.742 240.559 198.881C239.592 198.02 238.42 197.42 237.156 197.138L237.566 194.688C237.566 194.688 238.566 185.808 231.016 184.178C223.466 182.548 215.726 191.268 215.726 191.268C215.726 191.268 214.296 190.928 213.406 188.068C212.516 185.208 215.046 177.688 212.406 169.498C209.766 161.308 202.406 159.058 197.806 164.588C193.206 170.118 199.036 175.588 199.646 178.778C200.256 181.968 202.176 188.338 197.596 196.388C193.016 204.438 193.756 211.178 193.756 211.178C193.069 210.748 192.315 210.434 191.526 210.248C190.436 210.038 185.456 211.538 186.676 219.728C187.896 227.918 193.576 235.838 193.576 235.838C194.691 237.583 196.155 239.079 197.876 240.23C199.597 241.381 201.538 242.164 203.576 242.528C210.576 243.828 212.176 239.298 212.176 239.298C212.176 239.298 217.906 239.188 222.686 238.978C227.466 238.768 238.046 236.798 241.256 233.178C244.466 229.558 242.956 224.778 242.956 224.778C244.57 223.084 245.493 220.848 245.546 218.508Z" fill="#DFF2F9"/>
<path d="M221.476 207.768C221.161 207.775 220.856 207.66 220.623 207.448C220.39 207.236 220.247 206.943 220.224 206.629C220.201 206.315 220.299 206.004 220.498 205.76C220.698 205.516 220.983 205.358 221.296 205.318C228.756 204.178 235.666 199.438 236.366 194.968C236.632 193.632 236.622 192.255 236.337 190.922C236.051 189.589 235.496 188.329 234.706 187.218C234.142 186.524 233.434 185.96 232.631 185.565C231.829 185.17 230.95 184.953 230.056 184.928C225.476 184.648 218.646 189.928 216.396 191.978C216.276 192.087 216.137 192.172 215.985 192.227C215.832 192.282 215.671 192.306 215.509 192.299C215.348 192.291 215.189 192.252 215.043 192.183C214.896 192.115 214.765 192.018 214.656 191.898C214.547 191.779 214.463 191.639 214.408 191.487C214.353 191.335 214.328 191.173 214.336 191.012C214.343 190.85 214.382 190.692 214.451 190.545C214.52 190.399 214.616 190.267 214.736 190.158C215.096 189.828 223.656 182.068 230.196 182.468C231.441 182.496 232.666 182.794 233.784 183.341C234.903 183.888 235.89 184.672 236.676 185.638C237.681 187.018 238.393 188.588 238.768 190.253C239.143 191.918 239.173 193.642 238.856 195.318C237.986 200.838 230.296 206.408 221.716 207.718L221.476 207.768Z" fill="#3C3C3B"/>
<path d="M226.217 220.639C225.891 220.658 225.57 220.548 225.325 220.331C225.081 220.115 224.931 219.81 224.911 219.484C224.891 219.157 225.002 218.837 225.218 218.592C225.435 218.347 225.741 218.198 226.067 218.179C232.637 217.389 237.706 214.839 240.326 211.009C241.083 209.967 241.611 208.778 241.874 207.518C242.138 206.258 242.132 204.956 241.856 203.699C240.586 198.789 237.366 198.699 237.236 198.699C236.911 198.699 236.598 198.571 236.366 198.343C236.134 198.114 236.002 197.804 235.997 197.479C235.994 197.156 236.118 196.845 236.342 196.613C236.567 196.381 236.873 196.246 237.196 196.239C237.416 196.239 242.477 196.239 244.247 203.079C244.611 204.675 244.632 206.331 244.308 207.936C243.984 209.541 243.321 211.059 242.366 212.389C239.366 216.819 233.656 219.739 226.366 220.629L226.217 220.639Z" fill="#3C3C3B"/>
<path d="M234.497 229.978C234.174 230.004 233.854 229.901 233.607 229.692C233.359 229.483 233.204 229.185 233.175 228.862C233.146 228.54 233.246 228.219 233.452 227.969C233.658 227.719 233.955 227.561 234.277 227.528C238.787 226.708 243.757 223.358 243.997 217.948C244.227 212.868 241.997 211.608 241.867 211.558C241.721 211.488 241.591 211.39 241.483 211.269C241.375 211.148 241.292 211.008 241.239 210.855C241.185 210.702 241.163 210.54 241.172 210.379C241.181 210.217 241.222 210.059 241.292 209.913C241.362 209.768 241.461 209.637 241.581 209.529C241.702 209.422 241.843 209.339 241.995 209.285C242.148 209.232 242.31 209.209 242.471 209.218C242.633 209.227 242.791 209.268 242.937 209.338C243.097 209.408 246.777 211.218 246.467 218.058C246.157 224.898 240.167 228.968 234.717 229.958L234.497 229.978Z" fill="#3C3C3B"/>
<path d="M209.377 238.169C209.166 238.169 208.959 238.114 208.777 238.009C194.157 229.859 193.257 216.629 193.227 216.069C193.208 215.743 193.32 215.422 193.538 215.179C193.755 214.935 194.061 214.787 194.387 214.769C194.713 214.75 195.033 214.862 195.277 215.08C195.521 215.297 195.668 215.603 195.687 215.929C195.687 216.449 196.597 228.389 209.977 235.859C210.119 235.936 210.244 236.041 210.345 236.167C210.447 236.293 210.522 236.438 210.566 236.594C210.611 236.749 210.624 236.912 210.606 237.072C210.587 237.233 210.536 237.388 210.457 237.529C210.35 237.722 210.194 237.883 210.004 237.996C209.814 238.108 209.598 238.168 209.377 238.169Z" fill="#3C3C3B"/>
<path d="M282.917 161.328C282.917 161.328 271.677 163.638 265.507 167.058C259.337 170.478 261.697 173.308 261.697 173.308L262.447 175.658C262.447 175.658 258.727 178.458 260.067 182.368C260.53 183.556 261.252 184.626 262.181 185.5C263.11 186.374 264.223 187.029 265.437 187.418C265.579 189.582 266.482 191.626 267.987 193.188C269.051 194.289 270.243 195.259 271.537 196.078C271.537 196.078 275.297 201.448 277.627 202.758C279.287 203.608 281.079 204.169 282.927 204.418C282.927 204.418 287.247 209.658 294.027 205.418C300.807 201.178 303.097 192.418 304.367 188.748C304.994 187.193 305.418 185.562 305.627 183.898C305.627 183.898 311.787 182.238 309.167 175.038C306.397 167.734 300.937 161.766 293.907 158.358C287.387 155.448 282.477 157.768 282.917 161.328Z" fill="#DFF2F9"/>
<path d="M289.177 208.419C286.724 208.329 284.382 207.372 282.567 205.719C280.292 205.551 278.115 204.72 276.307 203.329C274.216 201.802 272.589 199.725 271.607 197.329C269.996 196.846 268.533 195.961 267.357 194.759C265.859 192.993 264.803 190.895 264.277 188.639C261.888 187.434 260.003 185.422 258.957 182.959C257.477 179.379 259.427 176.079 260.457 174.699C259.733 173.111 259.601 171.316 260.087 169.639C260.787 167.469 262.597 165.779 265.477 164.639C270.845 162.544 276.45 161.12 282.167 160.399C282.328 160.381 282.491 160.394 282.646 160.439C282.802 160.483 282.947 160.558 283.074 160.659C283.201 160.759 283.307 160.884 283.385 161.026C283.464 161.167 283.514 161.323 283.532 161.484C283.55 161.645 283.537 161.808 283.492 161.963C283.448 162.119 283.373 162.264 283.272 162.391C283.171 162.518 283.047 162.624 282.905 162.702C282.764 162.781 282.608 162.831 282.447 162.849C276.97 163.56 271.598 164.927 266.447 166.919C264.277 167.809 262.947 168.989 262.447 170.419C262.112 171.717 262.295 173.094 262.957 174.259C263.098 174.489 263.16 174.759 263.135 175.027C263.109 175.296 262.998 175.549 262.817 175.749C262.817 175.749 259.937 178.919 261.247 182.069C262.124 184.112 263.737 185.751 265.767 186.659C265.964 186.731 266.14 186.852 266.276 187.012C266.413 187.171 266.506 187.363 266.547 187.569C266.547 187.569 267.327 191.269 269.107 193.069C270.084 194.075 271.337 194.77 272.707 195.069C272.939 195.103 273.157 195.204 273.334 195.358C273.511 195.512 273.641 195.714 273.707 195.939C274.488 198.086 275.878 199.959 277.707 201.329C280.637 203.419 282.817 203.269 282.907 203.259C283.091 203.244 283.277 203.27 283.45 203.336C283.623 203.401 283.779 203.505 283.907 203.639C284.047 203.779 287.247 207.029 291.197 205.589C298.897 202.799 303.077 192.499 304.407 183.789C304.432 183.629 304.488 183.475 304.573 183.337C304.657 183.198 304.768 183.078 304.899 182.982C305.03 182.886 305.178 182.817 305.336 182.779C305.493 182.741 305.657 182.734 305.817 182.759C305.977 182.784 306.131 182.84 306.269 182.925C306.408 183.009 306.528 183.12 306.624 183.251C306.72 183.382 306.789 183.53 306.827 183.688C306.865 183.845 306.872 184.009 306.847 184.169C304.077 202.169 294.847 206.909 292.037 207.909C291.121 208.245 290.153 208.417 289.177 208.419Z" fill="#3C3C3B"/>
<path d="M304.277 185.169C302.956 185.165 301.65 184.892 300.437 184.369C300.139 184.232 299.908 183.982 299.793 183.675C299.679 183.367 299.691 183.027 299.827 182.729C299.894 182.582 299.989 182.449 300.107 182.339C300.225 182.228 300.364 182.142 300.516 182.086C300.667 182.029 300.828 182.003 300.99 182.009C301.151 182.014 301.31 182.052 301.457 182.119C301.627 182.189 305.527 183.899 307.627 181.229C309.727 178.559 306.687 171.819 305.137 169.749C305.078 169.675 305.027 169.594 304.987 169.509C304.987 169.449 302.307 163.619 294.447 159.509C289.977 157.199 285.937 157.959 284.447 159.839C283.187 161.389 283.597 163.669 285.577 166.119C285.68 166.244 285.757 166.388 285.804 166.543C285.851 166.698 285.866 166.86 285.849 167.021C285.833 167.182 285.784 167.338 285.706 167.48C285.629 167.623 285.524 167.748 285.397 167.849C285.142 168.055 284.816 168.151 284.49 168.118C284.164 168.084 283.864 167.923 283.657 167.669C280.917 164.289 280.497 160.779 282.537 158.279C284.747 155.579 289.947 154.379 295.637 157.279C303.717 161.469 306.767 167.279 307.237 168.279C309.077 170.809 312.867 178.539 309.617 182.659C308.989 183.469 308.177 184.119 307.249 184.556C306.321 184.992 305.302 185.202 304.277 185.169Z" fill="#3C3C3B"/>
<path d="M267.547 177.638C267.255 177.644 266.97 177.545 266.745 177.359C266.519 177.174 266.367 176.914 266.315 176.626C266.263 176.339 266.315 176.042 266.462 175.79C266.609 175.537 266.841 175.346 267.117 175.248L275.117 172.348C275.269 172.291 275.431 172.265 275.594 172.272C275.756 172.278 275.915 172.317 276.063 172.386C276.21 172.455 276.342 172.553 276.451 172.673C276.56 172.794 276.643 172.935 276.697 173.088C276.807 173.396 276.79 173.735 276.652 174.031C276.513 174.326 276.264 174.556 275.957 174.668L268.007 177.568C267.859 177.621 267.703 177.645 267.547 177.638Z" fill="#3C3C3B"/>
<path d="M275.087 192.299C274.833 192.303 274.585 192.228 274.376 192.084C274.166 191.941 274.006 191.737 273.918 191.499C273.829 191.262 273.816 191.003 273.88 190.757C273.945 190.512 274.083 190.293 274.277 190.129L281.777 183.709C282.029 183.519 282.344 183.432 282.657 183.467C282.971 183.501 283.26 183.653 283.465 183.893C283.67 184.132 283.776 184.441 283.762 184.756C283.747 185.072 283.613 185.369 283.387 185.589L275.887 191.999C275.665 192.191 275.381 192.298 275.087 192.299Z" fill="#3C3C3B"/>
<path d="M286.757 200.809C286.522 200.806 286.294 200.736 286.097 200.609C285.96 200.522 285.842 200.409 285.749 200.277C285.656 200.145 285.589 199.995 285.554 199.837C285.519 199.68 285.515 199.516 285.543 199.357C285.571 199.197 285.63 199.045 285.717 198.909L290.527 191.289C290.701 191.011 290.977 190.815 291.296 190.742C291.615 190.668 291.95 190.725 292.227 190.899C292.504 191.072 292.701 191.349 292.774 191.668C292.847 191.987 292.791 192.321 292.617 192.599L287.797 200.229C287.687 200.405 287.534 200.551 287.352 200.653C287.17 200.754 286.965 200.808 286.757 200.809Z" fill="#3C3C3B"/>
<rect x="31.5" y="294.5" width="337" height="39" rx="19.5" fill="white" fill-opacity="0.3" stroke="#DFF2F9"/>
<rect x="32" y="295" width="210" height="38" rx="19" fill="#0164C7"/>
<path d="M220.562 263.969H221.312V267.844H221.031C219.938 267.844 218.938 268 218.031 268.312C217.135 268.625 216.359 269.089 215.703 269.703C215.047 270.307 214.542 271.057 214.188 271.953C213.844 272.839 213.672 273.859 213.672 275.016V278.891C213.672 279.672 213.74 280.354 213.875 280.938C214.021 281.51 214.229 281.99 214.5 282.375C214.781 282.75 215.12 283.036 215.516 283.234C215.911 283.422 216.359 283.516 216.859 283.516C217.307 283.516 217.719 283.417 218.094 283.219C218.469 283.021 218.792 282.74 219.062 282.375C219.333 282.01 219.542 281.589 219.688 281.109C219.833 280.62 219.906 280.089 219.906 279.516C219.906 278.911 219.828 278.365 219.672 277.875C219.526 277.375 219.312 276.948 219.031 276.594C218.76 276.24 218.427 275.969 218.031 275.781C217.635 275.583 217.198 275.484 216.719 275.484C216.031 275.484 215.438 275.641 214.938 275.953C214.438 276.266 214.052 276.667 213.781 277.156C213.51 277.646 213.37 278.146 213.359 278.656L212.062 277.578C212.062 276.87 212.203 276.172 212.484 275.484C212.776 274.786 213.188 274.156 213.719 273.594C214.25 273.021 214.901 272.568 215.672 272.234C216.453 271.891 217.344 271.719 218.344 271.719C219.396 271.719 220.323 271.922 221.125 272.328C221.927 272.724 222.599 273.276 223.141 273.984C223.693 274.693 224.104 275.521 224.375 276.469C224.656 277.406 224.797 278.411 224.797 279.484C224.797 280.589 224.604 281.62 224.219 282.578C223.844 283.526 223.312 284.354 222.625 285.062C221.938 285.771 221.115 286.323 220.156 286.719C219.208 287.115 218.151 287.312 216.984 287.312C215.776 287.312 214.672 287.099 213.672 286.672C212.682 286.245 211.818 285.635 211.078 284.844C210.349 284.042 209.781 283.083 209.375 281.969C208.979 280.854 208.781 279.604 208.781 278.219V276.391C208.781 274.495 209.073 272.786 209.656 271.266C210.25 269.745 211.073 268.443 212.125 267.359C213.188 266.266 214.438 265.427 215.875 264.844C217.312 264.26 218.875 263.969 220.562 263.969ZM242.844 273.594V277.641C242.844 279.307 242.656 280.75 242.281 281.969C241.917 283.188 241.385 284.193 240.688 284.984C240 285.776 239.177 286.365 238.219 286.75C237.271 287.125 236.219 287.312 235.062 287.312C234.135 287.312 233.271 287.193 232.469 286.953C231.667 286.714 230.943 286.344 230.297 285.844C229.661 285.333 229.115 284.698 228.656 283.938C228.198 283.177 227.844 282.271 227.594 281.219C227.354 280.167 227.234 278.974 227.234 277.641V273.594C227.234 271.906 227.417 270.458 227.781 269.25C228.156 268.042 228.693 267.042 229.391 266.25C230.089 265.458 230.911 264.875 231.859 264.5C232.818 264.125 233.875 263.938 235.031 263.938C235.958 263.938 236.818 264.057 237.609 264.297C238.411 264.536 239.135 264.906 239.781 265.406C240.427 265.906 240.974 266.536 241.422 267.297C241.88 268.057 242.229 268.964 242.469 270.016C242.719 271.057 242.844 272.25 242.844 273.594ZM237.969 278.25V272.953C237.969 272.172 237.922 271.495 237.828 270.922C237.745 270.339 237.62 269.844 237.453 269.438C237.297 269.031 237.099 268.703 236.859 268.453C236.62 268.203 236.344 268.021 236.031 267.906C235.729 267.781 235.396 267.719 235.031 267.719C234.573 267.719 234.161 267.812 233.797 268C233.432 268.188 233.125 268.484 232.875 268.891C232.625 269.286 232.432 269.823 232.297 270.5C232.172 271.167 232.109 271.984 232.109 272.953V278.25C232.109 279.031 232.151 279.714 232.234 280.297C232.328 280.88 232.453 281.38 232.609 281.797C232.776 282.203 232.979 282.536 233.219 282.797C233.458 283.047 233.734 283.229 234.047 283.344C234.359 283.458 234.698 283.516 235.062 283.516C235.521 283.516 235.927 283.427 236.281 283.25C236.635 283.062 236.938 282.766 237.188 282.359C237.448 281.943 237.641 281.396 237.766 280.719C237.901 280.042 237.969 279.219 237.969 278.25ZM245.734 269.828V268.625C245.734 267.76 245.922 266.974 246.297 266.266C246.672 265.557 247.229 264.99 247.969 264.562C248.719 264.135 249.635 263.922 250.719 263.922C251.844 263.922 252.776 264.135 253.516 264.562C254.255 264.99 254.807 265.557 255.172 266.266C255.547 266.974 255.734 267.76 255.734 268.625V269.828C255.734 270.672 255.547 271.448 255.172 272.156C254.807 272.865 254.255 273.432 253.516 273.859C252.786 274.286 251.87 274.5 250.766 274.5C249.661 274.5 248.734 274.286 247.984 273.859C247.245 273.432 246.682 272.865 246.297 272.156C245.922 271.448 245.734 270.672 245.734 269.828ZM248.922 268.625V269.828C248.922 270.172 248.99 270.495 249.125 270.797C249.26 271.099 249.464 271.344 249.734 271.531C250.005 271.719 250.344 271.812 250.75 271.812C251.167 271.812 251.505 271.719 251.766 271.531C252.026 271.344 252.219 271.099 252.344 270.797C252.479 270.495 252.547 270.172 252.547 269.828V268.625C252.547 268.271 252.479 267.943 252.344 267.641C252.219 267.328 252.021 267.078 251.75 266.891C251.479 266.703 251.135 266.609 250.719 266.609C250.323 266.609 249.99 266.703 249.719 266.891C249.458 267.078 249.26 267.328 249.125 267.641C248.99 267.943 248.922 268.271 248.922 268.625ZM256.578 282.625V281.422C256.578 280.568 256.766 279.786 257.141 279.078C257.526 278.37 258.089 277.802 258.828 277.375C259.578 276.948 260.5 276.734 261.594 276.734C262.708 276.734 263.635 276.948 264.375 277.375C265.115 277.802 265.667 278.37 266.031 279.078C266.406 279.786 266.594 280.568 266.594 281.422V282.625C266.594 283.479 266.406 284.26 266.031 284.969C265.667 285.677 265.115 286.245 264.375 286.672C263.646 287.099 262.734 287.312 261.641 287.312C260.526 287.312 259.594 287.099 258.844 286.672C258.094 286.245 257.526 285.677 257.141 284.969C256.766 284.26 256.578 283.479 256.578 282.625ZM259.781 281.422V282.625C259.781 282.979 259.859 283.307 260.016 283.609C260.172 283.911 260.391 284.156 260.672 284.344C260.953 284.531 261.271 284.625 261.625 284.625C262.115 284.625 262.484 284.531 262.734 284.344C262.995 284.156 263.172 283.911 263.266 283.609C263.359 283.307 263.406 282.979 263.406 282.625V281.422C263.406 281.068 263.339 280.74 263.203 280.438C263.078 280.135 262.88 279.891 262.609 279.703C262.339 279.516 262 279.422 261.594 279.422C261.188 279.422 260.849 279.516 260.578 279.703C260.307 279.891 260.104 280.135 259.969 280.438C259.844 280.74 259.781 281.068 259.781 281.422ZM262.812 267.516L251.703 285.297L249.375 284.094L260.484 266.312L262.812 267.516Z" fill="white"/>
<defs>
<linearGradient id="paint0_linear_4631_80065" x1="100.585" y1="161.711" x2="262.755" y2="145.494" gradientUnits="userSpaceOnUse">
<stop stop-color="#0168CD"/>
<stop offset="0.99" stop-color="#023287"/>
</linearGradient>
<linearGradient id="paint1_linear_4631_80065" x1="123.624" y1="159.408" x2="239.714" y2="147.799" gradientUnits="userSpaceOnUse">
<stop stop-color="#0168CD"/>
<stop offset="0.99" stop-color="#023287"/>
</linearGradient>
<linearGradient id="paint2_linear_4631_80065" x1="145.485" y1="157.222" x2="217.845" y2="149.986" gradientUnits="userSpaceOnUse">
<stop stop-color="#0168CD"/>
<stop offset="0.99" stop-color="#023287"/>
</linearGradient>
<linearGradient id="paint3_linear_4631_80065" x1="216.911" y1="205.247" x2="178.549" y2="157.154" gradientUnits="userSpaceOnUse">
<stop offset="0.34" stop-color="#1C222B" stop-opacity="0.7"/>
<stop offset="0.92" stop-color="#152745" stop-opacity="0"/>
</linearGradient>
<linearGradient id="paint4_linear_4631_80065" x1="88.7299" y1="70.2373" x2="167.377" y2="146.34" gradientUnits="userSpaceOnUse">
<stop offset="0.23" stop-color="#CEF7FF" stop-opacity="0.7"/>
<stop offset="0.92" stop-color="#152745" stop-opacity="0"/>
</linearGradient>
</defs>
</svg>
