<svg width="400" height="400" viewBox="0 0 400 400" fill="none" xmlns="http://www.w3.org/2000/svg">
<path d="M202.44 88.8198C202.44 88.8198 244.13 74.4898 281.44 89.0398C318.75 103.59 339.44 154.83 337.44 184.36C335.44 213.89 326.8 230.82 310.3 249.27C293.8 267.72 271.22 278.15 259.71 280.54" fill="#183C60"/>
<path d="M249.86 284.61L249.69 281.67C276.51 280.12 307.69 257.19 323.85 227.15C331.645 212.98 335.819 197.103 336 180.93C336.12 162.93 331.11 145.15 321.11 127.93C310.92 110.46 297.43 98.0002 281 90.9202C267.82 85.2402 252.71 82.9202 236.07 84.1602C207.58 86.1902 184.23 97.8402 184 98.0002L182.67 95.3802C182.91 95.2602 206.67 83.3802 235.76 81.2802C252.89 80.0402 268.48 82.3802 282.11 88.2802C299.17 95.6202 313.11 108.49 323.62 126.55C333.89 144.22 339.03 162.55 338.91 181.04C338.732 197.691 334.449 214.041 326.44 228.64C317.981 244.312 306.067 257.854 291.6 268.24C277.85 278 263 283.85 249.86 284.61Z" fill="#141C29"/>
<path d="M229.79 287C283.87 287 327.71 241.185 327.71 184.67C327.71 128.155 283.87 82.3398 229.79 82.3398C175.71 82.3398 131.87 128.155 131.87 184.67C131.87 241.185 175.71 287 229.79 287Z" fill="#141C29"/>
<path d="M221.45 100.941C232.17 99.759 243.018 100.846 253.29 104.131C263.291 107.326 272.555 112.483 280.54 119.301C288.677 126.202 295.409 134.605 300.37 144.051C310.854 164.125 313.179 187.473 306.86 209.221C303.863 219.549 298.936 229.216 292.34 237.711C285.873 246.093 277.829 253.128 268.66 258.421C259.307 263.822 248.932 267.216 238.195 268.385C227.458 269.554 216.596 268.473 206.3 265.211C196.281 262.002 187.001 256.831 179 250.001C170.869 243.096 164.14 234.694 159.18 225.251C148.7 205.175 146.372 181.83 152.68 160.081C155.683 149.755 160.61 140.089 167.2 131.591C173.674 123.213 181.717 116.175 190.88 110.871C200.248 105.445 210.647 102.038 221.41 100.871L221.45 100.941ZM220.55 92.2506C171.75 97.5606 136.3 143.251 141.38 194.251C146.46 245.251 190.15 282.251 238.96 276.981C287.77 271.711 323.21 225.981 318.12 174.981C313.03 123.981 269.4 87.0006 220.59 92.3206L220.55 92.2506Z" fill="url(#paint0_linear_2542_90047)"/>
<path d="M224.07 127.18C231.336 126.388 238.686 127.099 245.666 129.268C252.645 131.438 259.104 135.019 264.64 139.79C276.171 149.631 283.404 163.585 284.8 178.68C286.389 193.839 282.069 209.027 272.74 221.08C268.284 226.927 262.688 231.809 256.29 235.431C249.893 239.053 242.827 241.338 235.52 242.15C228.263 242.937 220.922 242.225 213.952 240.057C206.982 237.89 200.531 234.314 195 229.55C183.469 219.705 176.235 205.748 174.84 190.65C173.254 175.491 177.574 160.305 186.9 148.25C191.357 142.404 196.953 137.522 203.351 133.901C209.748 130.279 216.814 127.993 224.12 127.18H224.07ZM223.26 118.56C188.32 122.36 162.95 155.04 166.58 191.56C170.21 228.08 201.49 254.56 236.43 250.79C271.37 247.02 296.74 214.31 293.1 177.79C289.46 141.27 258.19 114.79 223.26 118.57V118.56Z" fill="url(#paint1_linear_2542_90047)"/>
<path d="M226.55 152.091C230.668 151.64 234.836 152.041 238.792 153.27C242.749 154.498 246.411 156.527 249.55 159.231C256.093 164.808 260.202 172.72 261 181.281C261.887 189.862 259.437 198.456 254.16 205.281C251.63 208.607 248.449 211.384 244.811 213.442C241.173 215.5 237.155 216.796 233 217.251C228.881 217.701 224.713 217.298 220.756 216.068C216.8 214.838 213.138 212.807 210 210.101C203.475 204.532 199.376 196.641 198.57 188.101C197.678 179.519 200.128 170.923 205.41 164.101C207.935 160.788 211.106 158.021 214.731 155.969C218.356 153.917 222.36 152.621 226.5 152.161L226.55 152.091ZM225.64 143.531C203.86 145.901 188.05 166.271 190.32 189.031C192.59 211.791 212.07 228.311 233.85 225.941C255.63 223.571 271.44 203.201 269.17 180.451C266.9 157.701 247.41 141.161 225.64 143.531V143.531Z" fill="url(#paint2_linear_2542_90047)"/>
<path d="M285.26 103.681C309.65 125.221 320.33 149.311 322.84 174.541C328.19 228.251 290.84 276.321 239.48 281.911C202.13 285.981 161.61 263.801 142.22 223.051C142.22 223.051 190.95 236.601 239.12 196.151C278 163.481 285.26 103.681 285.26 103.681Z" fill="url(#paint3_linear_2542_90047)"/>
<path d="M172.85 268.001C147.16 245.311 135.31 223.211 132.47 196.641C126.22 138.001 167.2 87.2805 221.75 82.6505C261.2 79.3005 301.19 100.841 319.96 144.571C319.96 144.571 271.47 131.191 220.7 173.821C179.71 208.241 172.85 268.001 172.85 268.001Z" fill="url(#paint4_linear_2542_90047)"/>
<path d="M198.87 150.282L189.492 151.17C186.715 151.433 184.678 153.897 184.941 156.674L191.752 228.602C192.015 231.379 194.479 233.416 197.256 233.154L206.634 232.265C209.411 232.002 211.448 229.538 211.186 226.762L204.374 154.834C204.111 152.057 201.647 150.019 198.87 150.282Z" fill="white"/>
<path d="M257.223 172.153L247.845 173.041C245.069 173.304 243.031 175.768 243.294 178.545L247.535 223.325C247.798 226.101 250.262 228.139 253.038 227.876L262.416 226.988C265.193 226.725 267.231 224.261 266.968 221.484L262.727 176.705C262.464 173.928 260 171.89 257.223 172.153Z" fill="white"/>
<path d="M227.649 127.001L218.271 127.889C215.494 128.152 213.456 130.616 213.719 133.393L222.46 225.69C222.723 228.466 225.187 230.504 227.964 230.241L237.342 229.353C240.119 229.09 242.156 226.626 241.893 223.849L233.152 131.552C232.889 128.776 230.425 126.738 227.649 127.001Z" fill="white"/>
<path d="M326.42 188.31C321.73 189.9 319.09 195.22 319.23 200.17C319.37 205.12 321.72 209.73 324.37 213.92C330.22 223.16 337.7 231.24 345.14 239.26C351.74 246.38 358.61 253.69 367.48 257.64C370.48 258.96 373.87 259.87 376.9 258.7C382.04 256.7 383.36 249.95 382.42 244.52C379.58 228.13 364.6 217.23 352.9 205.4C345.27 197.68 337.17 188.23 326.32 188.29" fill="#164589"/>
<path d="M324.33 190.271C324.33 190.271 321.7 201.78 362.8 241.4L350 243.211C350 243.211 330.42 227.761 323 211.001C315.58 194.241 324.33 190.271 324.33 190.271Z" fill="#0E3154"/>
<path d="M326.14 187.3C324.718 187.824 323.413 188.623 322.301 189.653C321.188 190.683 320.291 191.922 319.66 193.3C318.281 196.272 317.858 199.598 318.45 202.82C319.194 206.487 320.615 209.984 322.64 213.13C324.666 216.446 326.883 219.642 329.28 222.7C334.03 228.84 339.28 234.53 344.58 240.21C349.47 245.48 354.46 250.78 360.43 254.87C363.39 257.016 366.679 258.664 370.17 259.75C373.52 260.69 377.17 260.47 379.87 258.12C381.911 256.178 383.203 253.579 383.52 250.78C383.932 247.848 383.756 244.863 383 242C381.314 235.935 378.336 230.306 374.27 225.5C370.112 220.559 365.618 215.912 360.82 211.59C358.5 209.39 356.17 207.2 353.92 204.93C351.67 202.66 349.38 200.24 347.03 197.93C342.49 193.55 337.29 189.24 331.03 187.78C329.513 187.422 327.959 187.24 326.4 187.24C326.138 187.266 325.895 187.388 325.718 187.583C325.541 187.778 325.443 188.032 325.443 188.295C325.443 188.559 325.541 188.812 325.718 189.007C325.895 189.202 326.138 189.325 326.4 189.35C332.4 189.35 337.74 192.53 342.21 196.35C346.97 200.41 351.12 205.16 355.64 209.49C360.16 213.82 364.75 217.97 368.98 222.49C373.172 226.781 376.623 231.738 379.19 237.16C381.36 242.08 382.79 248.03 380.78 253.23C380.387 254.384 379.713 255.422 378.819 256.251C377.926 257.08 376.84 257.674 375.66 257.98C372.31 258.75 368.76 257.14 365.86 255.62C359.76 252.4 354.67 247.62 349.93 242.71C344.85 237.42 339.85 232.02 335.11 226.42C332.71 223.59 330.41 220.7 328.26 217.68C326.096 214.747 324.189 211.632 322.56 208.37C320.994 205.364 320.253 201.996 320.41 198.61C320.608 195.893 321.734 193.326 323.6 191.34C324.493 190.44 325.581 189.755 326.78 189.34C327.045 189.259 327.269 189.078 327.405 188.836C327.541 188.594 327.579 188.309 327.51 188.04C327.435 187.773 327.258 187.546 327.016 187.409C326.774 187.272 326.488 187.236 326.22 187.31L326.14 187.3Z" fill="#141C29"/>
<path d="M382.67 249.21C385.67 258.21 367.67 262.21 360.52 264.02C335.09 270.41 315.07 271.68 289.36 277.02C282.16 278.52 274.8 280.02 267.46 279.32C265.78 279.16 263.89 278.76 263.08 277.44C262.03 275.73 263.38 273.64 264.9 272.25C275.9 262.25 296.36 256.76 310.9 252.42C328.032 247.285 345.649 243.934 363.47 242.42" fill="#164589"/>
<path d="M261.86 276.91L382.69 249.91C382.539 252.376 381.417 254.681 379.57 256.32C376.45 259.12 352.57 266.52 338.31 268.49C324.05 270.46 278.31 280.33 270.57 279.67C262.83 279.01 261.86 276.91 261.86 276.91Z" fill="#0E3154"/>
<path d="M381.65 249.49C381.738 249.749 381.812 250.013 381.87 250.28L381.93 250.64C381.93 250.45 381.93 250.8 381.93 250.86C381.95 251.107 381.95 251.354 381.93 251.6C381.93 251.66 381.93 251.94 381.93 251.74C381.93 251.88 381.88 252.02 381.85 252.16C381.82 252.3 381.72 252.62 381.64 252.84C381.56 253.06 381.64 252.76 381.58 252.99C381.52 253.22 381.47 253.22 381.4 253.33C381.185 253.737 380.927 254.119 380.63 254.47C379.015 256.178 377.055 257.521 374.88 258.41C370.36 260.53 365.43 261.71 360.59 262.92C352.09 265.04 343.5 266.79 334.86 268.26C326.51 269.69 318.12 270.9 309.75 272.26C305.39 272.974 301.037 273.73 296.69 274.53C292.09 275.4 287.52 276.44 282.92 277.27C278.294 278.199 273.575 278.581 268.86 278.41C267.895 278.382 266.935 278.269 265.99 278.07C265.262 277.951 264.593 277.6 264.08 277.07C262.98 275.64 264.84 273.76 265.83 272.87C270.97 268.24 277.4 265.08 283.75 262.48C290.63 259.66 297.75 257.48 304.85 255.33C312.94 252.93 321.04 250.58 329.28 248.76C338.331 246.75 347.485 245.231 356.7 244.21C358.953 243.964 361.203 243.744 363.45 243.55C364.79 243.44 364.8 241.34 363.45 241.45C353.901 242.267 344.404 243.603 335 245.45C325.94 247.22 317 249.56 308.2 252.18C300.99 254.31 293.77 256.43 286.74 259.08C279.71 261.73 272.91 264.72 267 269.2C265.487 270.238 264.121 271.476 262.94 272.88C261.76 274.42 261.07 276.56 262.34 278.27C263.61 279.98 265.68 280.27 267.56 280.42C269.993 280.62 272.437 280.62 274.87 280.42C279.722 279.974 284.54 279.205 289.29 278.12C293.957 277.154 298.623 276.264 303.29 275.45C311.96 273.94 320.67 272.67 329.36 271.28C338.24 269.85 347.09 268.28 355.85 266.21C361.615 265.026 367.295 263.456 372.85 261.51C375.414 260.616 377.841 259.367 380.06 257.8C381.86 256.45 383.56 254.64 383.95 252.33C384.145 251.186 384.055 250.012 383.69 248.91C383.28 247.63 381.24 248.18 381.69 249.47L381.65 249.49Z" fill="#141C29"/>
<path d="M200.7 305.92C200.564 304.01 200.604 302.092 200.82 300.19C201.19 298.52 202.06 295.93 202.06 295.93C202.06 295.93 201.63 288.78 203.06 286.38C204.49 283.98 206.06 283.73 212.06 275.38C218.06 267.03 218.85 261.51 234.87 257.44C244.48 254.993 254.492 254.554 264.28 256.15C264.28 256.15 273.41 248.81 285.43 255.22C297.45 261.63 298.68 277.36 295.66 282.72C292.64 288.08 290.05 287.65 287.09 287.59C284.13 287.53 280.74 287.53 280.74 287.53C280.74 287.53 274.82 292.83 269.74 293.14C264.66 293.45 255.44 290.8 255.44 290.8C255.21 295.332 254.359 299.81 252.91 304.11C250.69 309.91 247.48 313.55 243.85 312.93C240.22 312.31 239.26 309.85 238.62 304.45C237.98 299.05 237.93 293.57 237.93 293.57C237.93 293.57 233.43 312.99 227.45 313.79C221.47 314.59 219.45 308.92 220.05 303.06C220.65 297.2 222.05 288.06 222.05 288.06C222.05 288.06 214.49 301.33 213.51 304.67C211.46 311.69 200.7 310.05 200.7 305.92Z" fill="#DFF2F9"/>
<path d="M255 291.23C255 291.23 259 283.58 265.44 279.39C265.44 279.39 264.87 285.88 272.35 284.82C279.83 283.76 283.61 276.43 282.54 270.1C281.47 263.77 280.24 261.8 280.24 261.8L286.73 274.54L286.49 278.49C286.49 278.49 290.19 278.4 292.32 273.8C294.45 269.2 292.57 262.7 292.57 262.7C292.57 262.7 298.32 272.24 297.01 280.29C296.787 282.429 295.748 284.401 294.109 285.794C292.47 287.187 290.357 287.895 288.21 287.77L282.87 287.94L280.4 287.77C280.4 287.77 274.9 293.61 268.4 293.36C263.874 293.094 259.385 292.38 255 291.23Z" fill="#B2C9EA"/>
<path d="M202.79 297.55C202.491 297.549 202.199 297.458 201.953 297.289C201.706 297.119 201.517 296.879 201.41 296.6C200.41 294.05 200.19 287.6 202.41 285.16C203.262 284.241 204.159 283.367 205.1 282.54C206.067 281.71 206.976 280.815 207.82 279.86C208.882 278.476 209.765 276.964 210.45 275.36C211.169 273.708 212.064 272.139 213.12 270.68C222.57 258.38 233.36 256.63 239.12 255.68C240.12 255.51 241.12 255.36 241.78 255.19C250.99 252.9 263.52 253.3 271.56 256.19L272.06 256.37C277.78 258.37 288.45 262.14 288.44 276.44C288.44 281.63 284.74 285.78 280.76 289.5C273.04 296.69 259.76 294.08 254.87 291.79C254.69 291.711 254.528 291.597 254.394 291.454C254.259 291.312 254.154 291.144 254.085 290.96C254.016 290.776 253.985 290.581 253.993 290.385C254.001 290.189 254.048 289.996 254.131 289.819C254.214 289.641 254.333 289.482 254.478 289.351C254.624 289.22 254.795 289.119 254.98 289.055C255.166 288.991 255.362 288.964 255.558 288.977C255.753 288.99 255.945 289.042 256.12 289.13C260.92 291.38 272.49 293.13 278.75 287.35C282.25 284.08 285.49 280.5 285.49 276.44C285.49 264.22 276.82 261.17 271.08 259.14L270.58 258.97C263.14 256.33 251.06 255.97 242.49 258.09C241.67 258.29 240.71 258.45 239.59 258.63C233.82 259.56 224.17 261.13 215.43 272.5C214.501 273.799 213.713 275.193 213.08 276.66C212.304 278.488 211.295 280.209 210.08 281.78C209.149 282.847 208.147 283.849 207.08 284.78C206.214 285.531 205.389 286.329 204.61 287.17C203.52 288.4 203.42 293.53 204.2 295.6C204.269 295.78 204.302 295.973 204.297 296.166C204.292 296.359 204.248 296.55 204.169 296.726C204.09 296.903 203.977 297.062 203.837 297.195C203.696 297.327 203.531 297.431 203.35 297.5C203.169 297.555 202.978 297.572 202.79 297.55V297.55Z" fill="#3C3C3B"/>
<path d="M287.22 289.31C285.483 289.284 283.749 289.143 282.03 288.89C281.643 288.838 281.292 288.635 281.055 288.325C280.818 288.014 280.713 287.622 280.765 287.235C280.817 286.848 281.02 286.497 281.331 286.26C281.641 286.023 282.033 285.918 282.42 285.97C286.01 286.44 289.73 286.77 292.28 285.25C294.18 284.11 295.28 281.99 295.65 278.76C296.093 275.427 295.752 272.036 294.655 268.858C293.558 265.679 291.735 262.8 289.33 260.45C286.495 257.865 283.058 256.031 279.332 255.114C275.607 254.197 271.711 254.227 268 255.2C266.56 255.63 265.57 256.2 265.38 256.8C265.314 256.983 265.213 257.152 265.082 257.296C264.952 257.44 264.794 257.557 264.618 257.64C264.442 257.723 264.251 257.771 264.057 257.78C263.863 257.79 263.668 257.761 263.485 257.695C263.302 257.629 263.133 257.528 262.989 257.398C262.845 257.267 262.728 257.109 262.645 256.933C262.562 256.757 262.514 256.566 262.505 256.372C262.495 256.178 262.524 255.983 262.59 255.8C263.13 254.24 264.67 253.08 267.17 252.34C271.385 251.222 275.813 251.181 280.048 252.218C284.283 253.256 288.19 255.34 291.41 258.28C294.147 260.941 296.225 264.204 297.477 267.811C298.729 271.417 299.12 275.266 298.62 279.05C298.16 283.2 296.55 286.12 293.84 287.73C291.821 288.857 289.53 289.404 287.22 289.31V289.31Z" fill="#3C3C3B"/>
<path d="M206.14 311.86C205.711 311.864 205.282 311.827 204.86 311.75C203.388 311.469 202.038 310.743 200.991 309.67C199.945 308.597 199.254 307.229 199.01 305.75C198.57 303.21 199.36 300.75 200.06 298.63C202.06 292.63 204.06 286.36 207.94 280.74C213.13 273.25 221.35 267.44 231.07 264.37C231.257 264.312 231.454 264.292 231.649 264.311C231.844 264.33 232.033 264.387 232.206 264.481C232.378 264.574 232.53 264.7 232.653 264.853C232.775 265.006 232.866 265.182 232.92 265.37C233.032 265.748 232.989 266.155 232.802 266.502C232.615 266.848 232.297 267.107 231.92 267.22C222.92 270.05 215.07 275.61 210.32 282.46C206.67 287.72 204.71 293.75 202.82 299.58C202.2 301.49 201.55 303.47 201.82 305.29C201.973 306.164 202.387 306.97 203.006 307.606C203.625 308.241 204.421 308.674 205.29 308.85C206.235 308.957 207.193 308.838 208.083 308.503C208.973 308.167 209.771 307.625 210.41 306.92C211.546 305.538 212.417 303.958 212.98 302.26L213.34 301.37C215.56 295.93 217.02 292.37 220.63 287.25C220.742 287.092 220.883 286.958 221.047 286.855C221.21 286.753 221.392 286.683 221.583 286.65C221.773 286.618 221.968 286.623 222.156 286.666C222.344 286.709 222.522 286.788 222.68 286.9C222.838 287.012 222.972 287.153 223.075 287.317C223.177 287.48 223.247 287.662 223.28 287.853C223.312 288.043 223.307 288.238 223.264 288.426C223.221 288.614 223.142 288.792 223.03 288.95C219.62 293.76 218.21 297.23 216.03 302.48L215.68 303.36C214.994 305.395 213.928 307.282 212.54 308.92C211.722 309.811 210.735 310.529 209.636 311.034C208.537 311.539 207.349 311.82 206.14 311.86V311.86Z" fill="#3C3C3B"/>
<path d="M225.69 316C224.738 316.008 223.796 315.806 222.93 315.41C221.602 314.768 220.515 313.716 219.83 312.41C217.93 308.97 218.39 305.07 218.76 301.94L220 291.28C220.182 288.827 220.69 286.409 221.51 284.09C223.51 279.09 227.97 275.34 231.92 272C232.068 271.875 232.239 271.781 232.423 271.722C232.607 271.663 232.801 271.641 232.994 271.658C233.186 271.674 233.374 271.728 233.546 271.817C233.718 271.905 233.87 272.027 233.995 272.175C234.12 272.323 234.214 272.493 234.273 272.678C234.332 272.862 234.353 273.056 234.337 273.249C234.321 273.441 234.267 273.629 234.178 273.801C234.089 273.972 233.968 274.125 233.82 274.25C230.13 277.37 225.95 280.9 224.25 285.18C223.528 287.259 223.085 289.424 222.93 291.62L221.69 302.2C221.36 305.05 220.98 308.29 222.42 310.91C222.802 311.681 223.423 312.309 224.19 312.7C225.058 312.999 225.99 313.059 226.889 312.874C227.788 312.69 228.621 312.267 229.3 311.65C230.611 310.292 231.539 308.612 231.99 306.78C233.826 301.334 235.352 295.788 236.56 290.17C236.628 289.787 236.846 289.447 237.164 289.224C237.483 289.001 237.877 288.913 238.26 288.98C238.646 289.048 238.988 289.266 239.213 289.587C239.438 289.907 239.527 290.304 239.46 290.69C238.221 296.44 236.659 302.116 234.78 307.69C234.186 310.021 232.969 312.147 231.26 313.84C229.717 315.196 227.744 315.962 225.69 316V316Z" fill="#3C3C3B"/>
<path d="M245 314.561C243.691 314.522 242.414 314.15 241.288 313.479C240.163 312.809 239.228 311.863 238.57 310.731C237.619 308.817 237.13 306.707 237.14 304.571L236.74 298.731C236.47 294.731 236.19 290.531 237.21 286.381C237.714 284.115 238.677 281.976 240.039 280.096C241.401 278.216 243.134 276.635 245.13 275.451C245.468 275.256 245.87 275.203 246.247 275.304C246.624 275.406 246.945 275.652 247.14 275.991C247.335 276.329 247.388 276.73 247.286 277.107C247.185 277.484 246.938 277.806 246.6 278.001C244.949 278.988 243.518 280.303 242.395 281.864C241.272 283.426 240.48 285.201 240.07 287.081C239.16 290.791 239.43 294.721 239.68 298.531L240.07 304.371C240.058 306.062 240.42 307.735 241.13 309.271C241.532 309.978 242.114 310.566 242.816 310.977C243.518 311.388 244.316 311.606 245.13 311.611C247.84 311.541 249.39 308.761 249.8 307.911C251.138 305.034 251.893 301.921 252.02 298.751C252.34 295.311 252.68 291.751 255.57 287.301C255.676 287.138 255.812 286.999 255.972 286.889C256.132 286.78 256.312 286.703 256.501 286.663C256.69 286.623 256.886 286.621 257.076 286.657C257.266 286.692 257.448 286.765 257.61 286.871C257.772 286.976 257.912 287.113 258.021 287.273C258.131 287.432 258.208 287.612 258.247 287.802C258.287 287.991 258.29 288.186 258.254 288.377C258.218 288.567 258.146 288.748 258.04 288.911C255.54 292.741 255.27 295.651 254.95 299.031C254.784 302.547 253.935 305.998 252.45 309.191C250.87 312.471 248.16 314.481 245.2 314.551L245 314.561Z" fill="#3C3C3B"/>
<path d="M226.2 286C225.858 286.003 225.527 285.887 225.261 285.671C224.996 285.456 224.814 285.155 224.747 284.82C224.679 284.485 224.731 284.137 224.892 283.836C225.053 283.535 225.314 283.3 225.63 283.17C227.721 282.313 229.998 282.01 232.24 282.29C232.627 282.339 232.979 282.54 233.218 282.848C233.457 283.157 233.564 283.548 233.515 283.935C233.466 284.322 233.265 284.674 232.957 284.913C232.648 285.152 232.257 285.259 231.87 285.21C230.14 284.994 228.383 285.229 226.77 285.89C226.59 285.966 226.396 286.003 226.2 286V286Z" fill="#3C3C3B"/>
<path d="M211.5 286.56C211.11 286.578 210.729 286.441 210.44 286.179C210.297 286.049 210.181 285.892 210.099 285.717C210.016 285.542 209.969 285.353 209.96 285.16C209.951 284.967 209.98 284.774 210.045 284.592C210.11 284.41 210.211 284.243 210.341 284.1C210.604 283.811 210.97 283.638 211.36 283.62L217.23 283.06C217.619 283.021 218.006 283.139 218.308 283.386C218.61 283.634 218.802 283.991 218.84 284.38C218.878 284.768 218.761 285.156 218.513 285.458C218.266 285.76 217.909 285.951 217.52 285.99L211.65 286.56H211.5Z" fill="#3C3C3B"/>
<path d="M248.86 288.17C248.724 288.169 248.59 288.149 248.46 288.11C247.155 287.745 245.777 287.721 244.46 288.04C244.27 288.096 244.07 288.114 243.873 288.091C243.675 288.068 243.485 288.005 243.313 287.907C243.14 287.808 242.989 287.676 242.87 287.518C242.75 287.359 242.663 287.179 242.615 286.986C242.567 286.793 242.559 286.593 242.59 286.397C242.622 286.201 242.693 286.013 242.799 285.845C242.905 285.678 243.044 285.533 243.207 285.42C243.371 285.308 243.555 285.229 243.75 285.19C245.56 284.744 247.455 284.775 249.25 285.28C249.596 285.372 249.897 285.588 250.095 285.887C250.293 286.186 250.376 286.546 250.327 286.901C250.277 287.257 250.1 287.581 249.828 287.815C249.556 288.049 249.208 288.175 248.85 288.17H248.86Z" fill="#3C3C3B"/>
<path d="M239.78 269.35C239.478 269.35 239.183 269.257 238.936 269.083C238.688 268.91 238.501 268.664 238.398 268.38C238.295 268.096 238.282 267.787 238.362 267.495C238.441 267.204 238.608 266.943 238.84 266.75C241.248 264.778 244.03 263.315 247.02 262.45C247.395 262.34 247.799 262.384 248.142 262.571C248.485 262.759 248.74 263.075 248.85 263.45C248.96 263.826 248.917 264.229 248.729 264.572C248.541 264.916 248.225 265.17 247.85 265.28C245.245 266.028 242.819 267.297 240.72 269.01C240.457 269.231 240.124 269.352 239.78 269.35V269.35Z" fill="#3C3C3B"/>
<path d="M252.66 273C252.359 273 252.065 272.905 251.82 272.73C251.662 272.619 251.527 272.478 251.423 272.315C251.319 272.152 251.248 271.97 251.215 271.78C251.181 271.589 251.186 271.394 251.228 271.205C251.27 271.017 251.349 270.838 251.46 270.68C252.056 269.891 252.807 269.231 253.667 268.741C254.526 268.251 255.477 267.941 256.46 267.83C256.847 267.777 257.24 267.88 257.551 268.116C257.862 268.353 258.067 268.703 258.12 269.09C258.173 269.477 258.07 269.87 257.834 270.181C257.598 270.492 257.247 270.697 256.86 270.75C256.286 270.813 255.731 270.989 255.226 271.269C254.721 271.549 254.277 271.927 253.92 272.38C253.777 272.579 253.587 272.74 253.368 272.848C253.148 272.956 252.905 273.008 252.66 273V273Z" fill="#3C3C3B"/>
<path d="M234.73 301.001H64.73L39.73 245.721L18.92 199.561C18.0357 197.605 17.6558 195.459 17.815 193.318C17.9742 191.178 18.6673 189.112 19.8311 187.308C20.9949 185.505 22.5922 184.022 24.4769 182.995C26.3616 181.969 28.4737 181.431 30.62 181.431H166.25C170.57 181.431 174.798 182.677 178.427 185.02C182.056 187.363 184.932 190.704 186.71 194.641L220.53 269.551L234.73 301.001Z" fill="#D0CFE5"/>
<g opacity="0.3">
<path opacity="0.3" d="M234.73 301.001H64.73L39.73 245.721C70.86 276.451 145.65 294.021 220.5 269.541L234.73 301.001Z" fill="#000072"/>
</g>
<g opacity="0.5">
<path opacity="0.5" d="M24.39 190.33H160C164.32 190.331 168.547 191.578 172.176 193.921C175.805 196.264 178.681 199.604 180.46 203.54L214.28 278.45L224.48 301H234.73L220.53 269.54L186.71 194.63C184.932 190.693 182.056 187.353 178.427 185.009C174.798 182.666 170.57 181.42 166.25 181.42H30.62C27.6099 181.425 24.6972 182.486 22.3905 184.42C20.0838 186.354 18.5298 189.037 18 192C19.9474 190.894 22.1506 190.318 24.39 190.33V190.33Z" fill="white"/>
</g>
<path d="M344.65 301.01H64.64C60.8237 301.01 57.73 304.103 57.73 307.92V310.64C57.73 314.456 60.8237 317.55 64.64 317.55H344.65C348.466 317.55 351.56 314.456 351.56 310.64V307.92C351.56 304.103 348.466 301.01 344.65 301.01Z" fill="#D0CFE5"/>
<g opacity="0.3">
<path opacity="0.3" d="M343.28 310.431H66C64.4387 310.43 62.9096 309.987 61.5895 309.154C60.2693 308.32 59.2121 307.13 58.54 305.721C58.0046 306.831 57.7277 308.048 57.73 309.281C57.73 311.474 58.6013 313.578 60.1522 315.128C61.7031 316.679 63.8067 317.551 66 317.551H343.28C344.677 317.553 346.052 317.2 347.276 316.526C348.5 315.852 349.533 314.878 350.278 313.697C351.023 312.515 351.457 311.163 351.538 309.768C351.618 308.373 351.344 306.981 350.74 305.721C350.068 307.13 349.011 308.32 347.691 309.154C346.37 309.987 344.841 310.43 343.28 310.431V310.431Z" fill="#000072"/>
</g>
<path d="M233.39 301.61L184 192.07C183.41 191.18 177.49 182.73 167.87 182.73H29.71C27.1212 182.705 24.6017 183.566 22.57 185.17C19.47 187.69 18.33 191.38 19.17 196.17L66.06 300.4L63.38 301.61L16.34 197V196.83C14.94 189.39 17.97 185.13 20.75 182.83C23.306 180.796 26.4833 179.701 29.75 179.73H167.89C179.64 179.73 186.29 190.07 186.56 190.51L186.66 190.69L236.07 300.4L233.39 301.61Z" fill="#141C29"/>
<path d="M343 319.09C342.36 319.09 341.89 319.09 341.68 319.03H64H63.83C61.13 318.37 56.03 315.69 56.03 310.27C56.03 303.44 60.59 300.49 63.03 299.88H63.21H343.09C345.67 299.862 348.164 300.803 350.09 302.52C351.046 303.503 351.787 304.673 352.267 305.957C352.748 307.242 352.956 308.611 352.88 309.98C352.957 311.262 352.748 312.545 352.269 313.736C351.79 314.928 351.053 315.998 350.11 316.87C348.076 318.425 345.558 319.211 343 319.09V319.09ZM64.32 316.09H341.9H342C342 316.09 345.89 316.57 348.18 314.56C348.796 313.957 349.272 313.226 349.576 312.42C349.88 311.613 350.004 310.75 349.94 309.89C350.008 308.923 349.877 307.951 349.556 307.037C349.234 306.122 348.729 305.282 348.07 304.57C346.706 303.389 344.964 302.736 343.16 302.73H63.57C62.74 303 58.96 304.58 58.96 310.21C59 314.31 63.44 315.82 64.36 316.08L64.32 316.09Z" fill="#141C29"/>
<defs>
<linearGradient id="paint0_linear_2542_90047" x1="142.889" y1="204.103" x2="316.699" y2="165.251" gradientUnits="userSpaceOnUse">
<stop stop-color="#0168CD"/>
<stop offset="0.99" stop-color="#023287"/>
</linearGradient>
<linearGradient id="paint1_linear_2542_90047" x1="167.579" y1="198.583" x2="292.009" y2="170.77" gradientUnits="userSpaceOnUse">
<stop stop-color="#0168CD"/>
<stop offset="0.99" stop-color="#023287"/>
</linearGradient>
<linearGradient id="paint2_linear_2542_90047" x1="191.021" y1="193.344" x2="268.567" y2="176.01" gradientUnits="userSpaceOnUse">
<stop stop-color="#0168CD"/>
<stop offset="0.99" stop-color="#023287"/>
</linearGradient>
<linearGradient id="paint3_linear_2542_90047" x1="273.447" y1="237.999" x2="229.613" y2="183.959" gradientUnits="userSpaceOnUse">
<stop offset="0.34" stop-color="#1C222B" stop-opacity="0.7"/>
<stop offset="0.92" stop-color="#152745" stop-opacity="0"/>
</linearGradient>
<linearGradient id="paint4_linear_2542_90047" x1="128.901" y1="88.3051" x2="216.348" y2="171.554" gradientUnits="userSpaceOnUse">
<stop offset="0.23" stop-color="#CEF7FF" stop-opacity="0.7"/>
<stop offset="0.92" stop-color="#152745" stop-opacity="0"/>
</linearGradient>
</defs>
</svg>
