<svg width="400" height="400" viewBox="0 0 400 400" fill="none" xmlns="http://www.w3.org/2000/svg">
<g clip-path="url(#clip0_2542_89521)">
<path d="M385.49 169.81C385.49 169.81 394.68 202.62 381.33 213.27C367.98 223.92 326.76 206.2 316.9 191.57C307.04 176.94 322.58 181.79 341.34 192.93C356.13 201.71 374.52 203.71 372.84 193.7C371.16 183.69 366.84 171.16 366.84 171.16C366.84 171.16 367.35 165.87 373.93 164.23C380.51 162.59 385.49 169.81 385.49 169.81Z" fill="#164589"/>
<path d="M325.17 185.279C325.17 185.279 352.1 213.579 372.68 216.079C372.68 216.079 362.83 217.569 345 211.339C327.17 205.109 313.45 190.999 313.57 185.899C313.69 180.799 316.56 181.529 325.17 185.279Z" fill="#0E3154"/>
<path d="M369.54 218C367.196 217.988 364.855 217.798 362.54 217.43C344.99 214.74 322.63 202.81 315.63 192.43C313.48 189.25 310.9 184.72 313.25 182.24C314.96 180.43 318.51 180.62 324.41 182.83C330.524 185.29 336.421 188.257 342.04 191.7C353.83 198.7 366.04 200.48 370.04 197.7C370.79 197.19 371.75 196.24 371.37 193.95C369.74 184.18 365.47 171.77 365.42 171.64L365.32 171.34V171.02C365.49 169.779 365.93 168.591 366.61 167.54C367.389 166.333 368.401 165.292 369.585 164.478C370.769 163.665 372.104 163.094 373.51 162.8C381 160.93 386.43 168.64 386.66 168.97L386.8 169.17L386.86 169.41C388.421 175.303 389.425 181.329 389.86 187.41C390.72 200.57 388.15 209.64 382.21 214.41C379.28 216.78 375 218 369.54 218ZM316.81 183.94C315.75 183.94 315.46 184.22 315.44 184.24C315.42 184.26 314.44 185.36 318.12 190.77C324.75 200.61 346.12 211.93 363.04 214.52C370.93 215.73 376.93 214.91 380.41 212.14C392.26 202.68 384.95 173.51 384.14 170.48C383.35 169.43 379.23 164.48 374.28 165.68C369.59 166.85 368.56 170.08 368.35 171.06C370.852 178.385 372.837 185.877 374.29 193.48C374.9 197.12 373.23 199.12 371.72 200.15C365.58 204.36 351.07 200.44 340.59 194.21C335.12 190.851 329.377 187.961 323.42 185.57C321.326 184.649 319.091 184.091 316.81 183.92V183.94Z" fill="#141C29"/>
<path d="M165.42 262.44C165.42 262.44 165.06 296.58 147.19 302.51C129.32 308.44 90.1 278.58 84 261.54C77.9 244.5 93.25 254.01 110.13 270.54C123.44 283.54 142.79 291.27 144.13 281.21C145.47 271.15 144.7 257.84 144.7 257.84C144.7 257.84 146.92 252.97 154.59 253.48C162.26 253.99 165.42 262.44 165.42 262.44Z" fill="#164589"/>
<path d="M121.34 297.249C121.34 297.249 144.25 303.989 151.41 290.419C158.57 276.849 145.55 260.779 145.55 260.779L145.77 257.089C145.77 257.089 149.77 251.549 157.77 255.239C165.77 258.929 166.24 262.949 166.24 262.949C166.24 262.949 162.87 286.829 156.24 296.169C149.61 305.509 133.07 304.419 121.34 297.249Z" fill="#0E3154"/>
<path d="M142 304.76C137.945 304.645 133.939 303.847 130.15 302.4C123.128 299.746 116.477 296.201 110.36 291.85C96.8 282.47 85.66 270.49 82.63 262.04C81.36 258.47 80 253.52 82.91 251.65C85.15 250.22 88.85 251.38 94.57 255.31C100.482 259.575 106.037 264.314 111.18 269.48C121.08 279.18 134.73 285.97 140.39 284.02C141.034 283.816 141.601 283.418 142.012 282.882C142.423 282.345 142.66 281.695 142.69 281.02C143.99 271.22 143.26 258.07 143.25 257.94V257.58L143.4 257.25C143.51 257.01 146.14 251.44 154.73 252.02C156.568 252.178 158.352 252.724 159.962 253.624C161.572 254.525 162.973 255.757 164.07 257.24C165.214 258.66 166.144 260.24 166.83 261.93L166.93 262.19V262.46C166.93 263.9 166.35 297.73 147.69 303.92C145.852 304.508 143.93 304.791 142 304.76V304.76ZM85.15 254C84.9203 253.988 84.6918 254.04 84.49 254.15C84.05 254.43 83.67 256.24 85.39 261.06C88.23 269 98.93 280.37 112 289.43C126.2 299.25 139.17 303.62 146.71 301.12C162.53 295.87 163.83 266 163.92 262.71C163.36 261.42 160.41 255.34 154.48 254.94C148.92 254.58 146.74 257.31 146.19 258.19C146.31 260.58 146.8 272.19 145.58 281.4C145.483 282.62 145.027 283.785 144.269 284.746C143.511 285.707 142.484 286.422 141.32 286.8C140.324 287.131 139.279 287.29 138.23 287.27C130.73 287.27 118.6 280.9 109.09 271.59C95.64 258.4 87.74 254 85.15 254Z" fill="#141C29"/>
<path d="M225.17 309.599C285.7 309.599 334.77 260.53 334.77 199.999C334.77 139.469 285.7 90.3994 225.17 90.3994C164.64 90.3994 115.57 139.469 115.57 199.999C115.57 260.53 164.64 309.599 225.17 309.599Z" fill="#141C29"/>
<path d="M204.54 112.23C226.227 107.167 249.021 110.339 268.501 121.131C287.981 131.924 302.759 149.566 309.967 170.637C317.176 191.708 316.301 214.705 307.513 235.168C298.726 255.631 282.651 272.1 262.408 281.382C242.165 290.664 219.195 292.096 197.956 285.402C176.716 278.707 158.72 264.362 147.458 245.15C136.196 225.937 132.471 203.227 137.006 181.424C141.541 159.62 154.012 140.278 172 127.15C181.729 120.033 192.798 114.957 204.54 112.23V112.23ZM202.41 103.23C183.264 107.736 165.884 117.819 152.468 132.203C139.052 146.587 130.203 164.626 127.04 184.039C123.876 203.453 126.541 223.368 134.696 241.267C142.851 259.166 156.13 274.245 172.855 284.597C189.58 294.949 208.999 300.109 228.657 299.424C248.314 298.739 267.327 292.241 283.291 280.751C299.255 269.261 311.454 253.294 318.344 234.871C325.234 216.448 326.506 196.396 322 177.25C319.012 164.535 313.549 152.534 305.923 141.932C298.297 131.329 288.657 122.332 277.554 115.455C266.451 108.578 254.102 103.955 241.212 101.85C228.322 99.7458 215.144 100.201 202.43 103.19L202.41 103.23Z" fill="url(#paint0_linear_2542_89521)"/>
<path d="M211 139.74C224.937 136.47 239.576 138.133 252.424 144.445C265.273 150.758 275.535 161.33 281.462 174.361C287.39 187.391 288.616 202.074 284.933 215.907C281.249 229.74 272.883 241.868 261.26 250.225C249.637 258.582 235.477 262.651 221.19 261.738C206.904 260.825 193.376 254.987 182.912 245.219C172.447 235.45 165.693 222.356 163.8 208.167C161.907 193.977 164.992 179.57 172.53 167.4C176.797 160.477 182.394 154.467 188.997 149.72C195.6 144.972 203.078 141.58 211 139.74V139.74ZM208.87 130.74C195.163 133.962 182.72 141.177 173.113 151.471C163.507 161.766 157.169 174.678 154.901 188.574C152.633 202.471 154.537 216.728 160.372 229.542C166.207 242.357 175.711 253.153 187.682 260.566C199.653 267.979 213.554 271.676 227.626 271.188C241.698 270.701 255.309 266.051 266.739 257.828C278.168 249.604 286.903 238.176 291.837 224.989C296.771 211.801 297.684 197.446 294.46 183.74C290.137 165.362 278.691 149.455 262.641 139.515C246.59 129.576 227.248 126.42 208.87 130.74V130.74Z" fill="url(#paint1_linear_2542_89521)"/>
<path d="M217.14 165.85C225.043 163.989 233.346 164.927 240.635 168.502C247.924 172.078 253.748 178.07 257.114 185.458C260.48 192.846 261.18 201.173 259.095 209.019C257.009 216.866 252.268 223.746 245.678 228.488C239.088 233.23 231.057 235.541 222.955 235.025C214.852 234.51 207.179 231.201 201.243 225.662C195.307 220.124 191.475 212.698 190.401 204.651C189.326 196.603 191.075 188.432 195.35 181.53C197.765 177.605 200.934 174.199 204.674 171.507C208.414 168.816 212.651 166.893 217.14 165.85ZM215.02 156.85C206.476 158.859 198.72 163.357 192.732 169.775C186.745 176.193 182.796 184.243 181.384 192.906C179.972 201.568 181.162 210.455 184.801 218.442C188.441 226.429 194.368 233.157 201.832 237.775C209.296 242.392 217.962 244.693 226.734 244.385C235.506 244.077 243.989 241.174 251.111 236.043C258.232 230.913 263.673 223.786 266.743 215.564C269.813 207.341 270.376 198.392 268.36 189.85C265.658 178.403 258.522 168.497 248.521 162.309C238.519 156.121 226.469 154.158 215.02 156.85V156.85Z" fill="url(#paint2_linear_2542_89521)"/>
<path d="M218.16 259.219C218.16 258.569 218.16 257.919 218.08 257.219C217.25 249.429 216.39 241.639 215.57 233.849C214.42 222.849 213.32 211.849 212.17 200.919C211.09 190.659 209.97 180.409 208.88 170.149C207.96 161.599 207.03 153.039 206.16 144.469C205.7 139.929 207.25 136.799 210.56 135.249C214.72 133.309 219.16 134.949 221.26 139.369C223.59 144.259 225.77 149.219 228.04 154.129C235.973 171.269 243.913 188.399 251.86 205.519C252.078 206.119 252.476 206.636 253 206.999C253.3 204.879 253.61 202.759 253.9 200.639C254.99 192.639 256.04 184.639 257.16 176.719C257.93 171.249 260.69 167.269 266.16 165.719C270.91 164.319 275.94 166.319 279.3 170.509C282.66 174.699 286.2 178.719 289.54 182.909C291.79 185.729 294.33 186.349 297.82 185.349C304.36 183.479 311.01 181.989 317.63 180.349C318.374 180.115 319.163 180.059 319.933 180.184C320.703 180.309 321.432 180.613 322.064 181.07C322.696 181.528 323.212 182.127 323.57 182.82C323.929 183.512 324.121 184.279 324.13 185.059C324.218 186.131 323.923 187.198 323.299 188.073C322.675 188.948 321.761 189.574 320.72 189.839C311.85 191.909 303 193.999 294 195.999C291.32 196.609 289.06 195.489 287 193.839C281.704 189.461 277.019 184.392 273.07 178.769C272.66 178.042 272.16 177.37 271.58 176.769C270.859 176.041 269.936 175.546 268.93 175.349C267.65 175.349 267.13 176.609 266.93 177.759C266.6 179.639 266.38 181.539 266.14 183.429C264.87 193.099 263.63 202.769 262.32 212.429C262.092 214.37 261.239 216.183 259.889 217.595C258.54 219.008 256.768 219.943 254.84 220.259C252.854 220.517 250.838 220.132 249.087 219.16C247.335 218.189 245.942 216.681 245.11 214.859C243.11 210.759 241.28 206.619 239.39 202.499C233.797 190.213 228.167 177.933 222.5 165.659C220.86 162.109 219.11 158.659 217.24 155.109C217.48 157.456 217.723 159.789 217.97 162.109C219.863 180.063 221.757 198.016 223.65 215.969C224.56 224.529 225.57 233.069 226.48 241.629C227.06 247.059 227.61 252.499 228.04 257.949C228.47 263.399 225.78 267.609 221.18 269.159C218.805 270.051 216.177 269.989 213.847 268.986C211.517 267.983 209.665 266.117 208.68 263.779C203.76 252.929 198.93 242.039 194.01 231.189C190.07 222.509 186.01 213.859 182.06 205.189C180.9 202.669 179.81 200.109 178.67 197.579C178.397 197.136 178.086 196.718 177.74 196.329C177.26 198.069 176.87 199.499 176.46 200.919C174.6 207.469 172.77 214.019 170.87 220.559C170.515 222.072 169.712 223.443 168.567 224.494C167.422 225.544 165.988 226.226 164.45 226.449C157.54 227.859 150.68 229.549 143.81 231.199C141.21 231.819 138.67 232.709 136.07 233.359C132.68 234.209 130.29 232.759 129.52 229.509C128.79 226.439 130.33 223.949 133.59 223.179C139.96 221.669 146.36 220.279 152.73 218.749C155.42 218.099 158.09 217.279 160.73 216.389C161.032 216.239 161.301 216.028 161.519 215.77C161.738 215.512 161.901 215.213 162 214.889C164.1 207.989 166 201.029 168.23 194.159C168.925 191.849 169.992 189.667 171.39 187.699C173.7 184.609 177.71 184.149 181.17 185.909C184.63 187.669 186.73 190.769 188.29 194.169C192.71 203.829 197 213.549 201.38 223.229C203.32 227.499 205.38 231.699 207.38 235.979C210.65 243.259 213.85 250.589 217.08 257.899C217.28 258.349 217.53 258.779 217.76 259.229L218.16 259.219Z" fill="white"/>
<path d="M275.76 106.09C305.76 125.51 320.89 149.59 327.11 176.04C330.256 189.428 330.734 203.305 328.516 216.878C326.299 230.451 321.43 243.454 314.187 255.145C306.944 266.836 297.469 276.986 286.303 285.015C275.137 293.044 262.499 298.795 249.11 301.94C208.18 311.56 160.18 293.75 133.11 253.21C133.11 253.21 189.11 260.69 237.05 210.88C275.84 170.65 275.76 106.09 275.76 106.09Z" fill="url(#paint3_linear_2542_89521)"/>
<path d="M173.25 296.56C141.64 276.1 125.48 254.3 118.73 226.47C115.176 212.186 114.534 197.332 116.844 182.795C119.153 168.257 124.367 154.334 132.173 141.855C139.979 129.376 150.219 118.597 162.281 110.16C174.343 101.723 187.98 95.8023 202.38 92.7497C245.73 83.5997 293.06 100.75 319.84 144.6C319.84 144.6 264.18 137.27 213.6 189.76C172.76 232.15 173.25 296.56 173.25 296.56Z" fill="url(#paint4_linear_2542_89521)"/>
<path d="M376.34 101C372.123 103.112 368.492 106.232 365.771 110.084C363.049 113.935 361.321 118.4 360.74 123.08C358.54 139.42 356.16 155.22 356.24 156.33C356.32 157.44 357.14 168.45 363.37 173.83C363.37 173.83 355.14 178.69 365.13 182.83C375.12 186.97 391.3 177.15 391.49 173.83C391.68 170.51 389.63 166.33 389.63 166.33C389.63 166.33 401.03 160.71 402.38 150.4C403.73 140.09 398.83 139.52 398.83 139.52L395.28 141.78C395.28 141.78 393.9 154.38 383.07 150C372.24 145.62 386.48 134.72 392.66 138.65C398.84 142.58 401.74 132.02 396.57 128.01C391.4 124 386.92 123.75 386.92 123.75L394.12 108.66C394.12 108.66 393.12 100.42 384.31 105.9C384.31 106 380.19 98.7101 376.34 101Z" fill="#DFF2F9"/>
<path d="M366.49 175.93C365.079 175.905 363.715 175.424 362.6 174.56C360.05 172.69 358.27 169.29 357.23 166.77C356.012 163.836 355.211 160.746 354.85 157.59C354.37 152.38 355.43 147.25 356.46 142.3C356.92 140.05 357.4 137.73 357.73 135.46C357.95 133.85 358.11 132.19 358.26 130.58C358.459 127.968 358.793 125.367 359.26 122.79C361.031 114.499 365.596 107.068 372.19 101.74C375.03 99.4697 379.11 97.8697 382.04 100.2C382.942 100.997 383.606 102.027 383.959 103.178C384.312 104.328 384.34 105.554 384.04 106.72C383.608 108.37 382.934 109.947 382.04 111.4C381.9 111.65 381.76 111.9 381.63 112.16C379.005 117.084 377.425 122.497 376.99 128.06C376.95 128.441 376.763 128.791 376.468 129.037C376.174 129.282 375.795 129.402 375.413 129.372C375.031 129.342 374.676 129.164 374.423 128.876C374.17 128.588 374.04 128.212 374.06 127.83C374.534 121.859 376.236 116.051 379.06 110.77L379.49 109.98C380.232 108.777 380.798 107.474 381.17 106.11C381.348 105.482 381.359 104.818 381.201 104.185C381.043 103.552 380.722 102.971 380.27 102.5C378.69 101.25 375.94 102.5 374.08 104.04C368.02 108.938 363.826 115.769 362.2 123.39C361.732 125.86 361.398 128.353 361.2 130.86C361.05 132.5 360.89 134.2 360.65 135.86C360.32 138.22 359.83 140.59 359.35 142.86C358.35 147.86 357.35 152.52 357.79 157.29C358.28 162.51 361.03 169.73 364.35 172.16C364.726 172.477 365.168 172.707 365.643 172.833C366.119 172.959 366.616 172.979 367.1 172.89C367.482 172.806 367.881 172.878 368.21 173.089C368.54 173.3 368.771 173.633 368.855 174.015C368.939 174.397 368.867 174.796 368.656 175.125C368.445 175.454 368.112 175.686 367.73 175.77C367.324 175.868 366.908 175.922 366.49 175.93V175.93Z" fill="#3C3C3B"/>
<path d="M369.82 184.889C368.608 184.892 367.397 184.799 366.2 184.609C362.69 184.039 360.26 182.339 359.53 179.939C358.64 176.999 360.53 174.189 362.46 172.689C362.766 172.448 363.156 172.338 363.543 172.384C363.93 172.43 364.284 172.628 364.525 172.934C364.766 173.241 364.876 173.63 364.83 174.018C364.784 174.405 364.586 174.758 364.28 174.999C363.01 175.999 361.92 177.659 362.35 179.089C362.92 180.959 365.8 181.559 366.67 181.699C372.89 182.699 379.94 180.699 387.61 175.699C388.657 175.147 389.535 174.321 390.15 173.309C390.94 171.559 389.7 169.239 388.39 167.209C388.212 166.881 388.165 166.499 388.258 166.137C388.35 165.776 388.576 165.463 388.889 165.261C389.202 165.059 389.581 164.982 389.948 165.047C390.315 165.111 390.644 165.312 390.87 165.609C392.61 168.319 394.2 171.489 392.87 174.519C392.047 176.061 390.792 177.329 389.26 178.169C382.33 182.629 375.82 184.889 369.82 184.889Z" fill="#3C3C3B"/>
<path d="M384.58 166.63C383.845 166.627 383.11 166.583 382.38 166.5C382.015 166.427 381.691 166.219 381.472 165.917C381.254 165.616 381.157 165.243 381.201 164.873C381.245 164.504 381.427 164.164 381.71 163.922C381.994 163.681 382.358 163.555 382.73 163.57C385.233 163.872 387.772 163.598 390.152 162.768C392.533 161.939 394.692 160.576 396.466 158.784C398.239 156.993 399.579 154.819 400.384 152.43C401.189 150.041 401.437 147.5 401.11 145C401.046 143.831 400.631 142.709 399.92 141.78C399.67 141.46 399.329 141.223 398.941 141.102C398.553 140.98 398.138 140.98 397.75 141.1C397.078 141.614 396.565 142.307 396.27 143.1C394.59 146.46 392.57 149.79 389.16 151.38C388.043 151.874 386.83 152.113 385.609 152.08C384.388 152.047 383.189 151.743 382.1 151.19C381.285 150.796 380.573 150.216 380.023 149.497C379.472 148.778 379.098 147.94 378.93 147.05C378.722 145.371 379.073 143.669 379.93 142.21C380.935 140.093 382.687 138.422 384.85 137.52C386.897 136.919 389.05 136.772 391.16 137.09C393.98 137.31 395.78 137.36 396.91 136.09C398.62 134.2 396.99 130.79 395.48 128.96C394.303 127.393 392.734 126.165 390.93 125.4C387.06 123.96 382.72 126.16 380.47 127.6C378.22 129.04 373.38 132.7 373.24 137.95C373.227 138.339 373.061 138.707 372.778 138.975C372.496 139.243 372.119 139.388 371.73 139.38C371.536 139.376 371.346 139.334 371.169 139.256C370.992 139.177 370.832 139.065 370.699 138.924C370.566 138.784 370.462 138.618 370.394 138.437C370.325 138.256 370.293 138.063 370.3 137.87C370.42 133.18 373.55 128.54 378.88 125.12C383.56 122.12 388.2 121.24 391.96 122.63C394.246 123.577 396.24 125.112 397.74 127.08C400.34 130.22 401.86 134.99 399.1 138.08C400.29 138.285 401.376 138.888 402.18 139.79C403.287 141.16 403.949 142.834 404.08 144.59C404.44 147.349 404.205 150.153 403.39 152.813C402.576 155.474 401.201 157.929 399.358 160.013C397.515 162.098 395.247 163.763 392.707 164.898C390.166 166.032 387.412 166.609 384.63 166.59L384.58 166.63ZM388.42 139.94C387.544 139.912 386.67 140.041 385.84 140.32C384.362 140.968 383.176 142.14 382.51 143.61C381.963 144.509 381.724 145.563 381.83 146.61C381.931 147.046 382.13 147.452 382.413 147.799C382.695 148.146 383.054 148.423 383.46 148.61C384.147 148.956 384.902 149.147 385.671 149.169C386.439 149.192 387.204 149.045 387.91 148.74C390.51 147.53 392.2 144.74 393.63 141.82C393.91 141.24 394.227 140.679 394.58 140.14C393.35 140.214 392.116 140.187 390.89 140.06C390 140 389.21 139.94 388.42 139.94V139.94Z" fill="#3C3C3B"/>
<path d="M386.92 125.279C386.817 125.289 386.713 125.289 386.61 125.279C386.229 125.195 385.897 124.964 385.685 124.637C385.473 124.309 385.4 123.911 385.48 123.529C386.286 120.516 387.598 117.662 389.36 115.089C390.767 113.001 391.891 110.734 392.7 108.349C392.796 108.112 392.837 107.855 392.82 107.599C392.82 107.599 392.73 107.379 392.21 107.059C390.643 106.193 388.804 105.96 387.07 106.408C385.336 106.856 383.841 107.952 382.89 109.469C382.699 109.81 382.381 110.061 382.005 110.167C381.629 110.273 381.226 110.225 380.885 110.034C380.544 109.843 380.293 109.525 380.187 109.149C380.081 108.773 380.129 108.37 380.32 108.029C381.665 105.812 383.823 104.208 386.334 103.56C388.845 102.911 391.51 103.27 393.76 104.559C394.634 105.032 395.3 105.812 395.63 106.749C395.836 107.541 395.801 108.377 395.53 109.149C394.656 111.793 393.428 114.305 391.88 116.619C390.292 118.91 389.102 121.452 388.36 124.139C388.283 124.464 388.1 124.753 387.838 124.96C387.577 125.167 387.253 125.279 386.92 125.279V125.279Z" fill="#3C3C3B"/>
<path d="M378 151.819H377.79C377.598 151.794 377.414 151.73 377.247 151.632C377.08 151.535 376.934 151.405 376.818 151.251C376.702 151.096 376.617 150.92 376.57 150.733C376.522 150.546 376.512 150.351 376.54 150.159C376.942 147.219 378.096 144.433 379.89 142.069C380.007 141.915 380.153 141.785 380.32 141.687C380.487 141.59 380.672 141.526 380.863 141.499C381.055 141.473 381.25 141.484 381.438 141.533C381.625 141.582 381.801 141.667 381.955 141.784C382.109 141.901 382.239 142.047 382.337 142.214C382.435 142.381 382.499 142.566 382.525 142.758C382.552 142.95 382.54 143.145 382.491 143.332C382.442 143.519 382.357 143.695 382.24 143.849C380.75 145.81 379.789 148.12 379.45 150.559C379.402 150.909 379.228 151.23 378.961 151.461C378.695 151.693 378.353 151.82 378 151.819Z" fill="#3C3C3B"/>
<path d="M-3.12 184.83C20.06 215.75 26.94 255.54 33.15 293.69L122 281.23C122 281.23 115.73 197.82 86.34 165.05L-3.12 184.83Z" fill="white"/>
<path d="M-4.00003 185.359C0.457573 191.352 4.40474 197.707 7.79997 204.359C11.1686 210.987 14.0918 217.833 16.55 224.849C19 231.999 21.15 239.219 23 246.559C24.85 253.899 26.4 261.349 27.81 268.799C29.22 276.249 30.47 283.719 31.7 291.189L32.15 293.959C32.2293 294.225 32.4073 294.449 32.6473 294.587C32.8873 294.725 33.1711 294.765 33.44 294.699L35.81 294.369L42.26 293.459L51.85 292.119L63.5 290.479L76.25 288.7L89.13 286.89L101.13 285.2L111.33 283.769L118.63 282.769C119.77 282.609 120.95 282.509 122.08 282.289H122.23C122.456 282.239 122.657 282.111 122.799 281.929C122.941 281.747 123.016 281.521 123.01 281.289C122.95 280.529 122.88 279.779 122.81 279.019C122.623 276.913 122.407 274.809 122.16 272.709C121.793 269.449 121.387 266.193 120.94 262.939C120.38 258.899 119.767 254.863 119.1 250.829C118.32 246.189 117.47 241.559 116.52 236.939C115.5 231.939 114.363 226.966 113.11 222.019C111.817 216.906 110.373 211.839 108.78 206.819C107.18 201.819 105.42 196.919 103.42 192.099C101.513 187.437 99.3357 182.889 96.9 178.479C94.6405 174.366 92.0308 170.455 89.1 166.789C88.44 165.959 87.75 165.159 87.1 164.369C86.9703 164.243 86.8103 164.151 86.6352 164.104C86.4601 164.057 86.2758 164.055 86.1 164.099L83.7 164.629L77.13 165.999L67.48 168.129L55.77 170.719L42.94 173.559L29.94 176.429L17.8 179.129L7.59997 181.379L0.249972 182.999C-0.910028 183.249 -2.09003 183.469 -3.25003 183.769H-3.40003C-4.72003 184.059 -4.16003 186.089 -2.84003 185.769L-0.440028 185.239L6.04997 183.809L15.7 181.669L27.41 179.079L40.24 176.249L53.24 173.369L65.37 170.689L75.57 168.429L82.92 166.809C84.08 166.549 85.28 166.359 86.42 166.029H86.57L85.57 165.759C88.5157 169.105 91.1437 172.717 93.42 176.549C95.927 180.738 98.1681 185.08 100.13 189.549C102.2 194.229 104.01 199.029 105.66 203.879C107.31 208.729 108.84 213.879 110.19 218.959C111.54 224.039 112.7 228.869 113.77 233.869C114.777 238.536 115.697 243.249 116.53 248.009C117.263 252.183 117.93 256.366 118.53 260.559C119.01 263.939 119.43 267.109 119.84 270.559C120.12 272.933 120.377 275.306 120.61 277.679C120.71 278.759 120.73 279.889 120.9 280.969C120.905 281.016 120.905 281.063 120.9 281.109L121.68 280.109L119.31 280.439L112.86 281.339L103.27 282.689L91.62 284.319L78.87 286.109L66 287.999L54 289.679L43.8 291.109L36.5 292.109C35.36 292.279 34.18 292.369 33.04 292.599H32.89L34.19 293.339C32.97 285.829 31.73 278.339 30.35 270.849C28.97 263.359 27.45 255.849 25.66 248.459C23.87 241.069 21.84 233.799 19.41 226.639C17.0147 219.516 14.1689 212.552 10.89 205.789C7.61692 199.071 3.78686 192.639 -0.560028 186.559C-1.10003 185.799 -1.65003 185.049 -2.21003 184.299C-2.35541 184.063 -2.586 183.892 -2.85405 183.822C-3.12211 183.751 -3.4071 183.786 -3.65003 183.919C-3.88492 184.066 -4.05307 184.299 -4.11848 184.568C-4.18389 184.837 -4.14137 185.121 -4.00003 185.359V185.359Z" fill="#3C3C3B"/>
<path d="M23.64 202.17C31.58 199.863 39.58 197.81 47.64 196.01C55.7 194.21 63.82 192.687 72 191.44C76.6 190.773 81.21 190.157 85.83 189.59C86.0964 189.568 86.3455 189.449 86.5299 189.255C86.7142 189.062 86.821 188.807 86.83 188.54C86.83 188.275 86.7246 188.02 86.5371 187.833C86.3495 187.645 86.0952 187.54 85.83 187.54C77.5166 188.487 69.2466 189.713 61.02 191.22C52.7933 192.727 44.6466 194.493 36.58 196.52C32.04 197.66 27.5266 198.887 23.04 200.2C22.7747 200.274 22.5499 200.451 22.4149 200.691C22.2798 200.931 22.2457 201.215 22.32 201.48C22.3942 201.745 22.5708 201.97 22.8108 202.105C23.0509 202.24 23.3347 202.274 23.6 202.2L23.64 202.17Z" fill="#3C3C3B"/>
<path d="M29.8499 211.13C41.0279 207.802 52.3779 205.081 63.8499 202.98C67.0999 202.39 70.3499 201.84 73.6199 201.35C73.8875 201.275 74.1146 201.097 74.2514 200.856C74.3882 200.614 74.4237 200.328 74.3499 200.06C74.2728 199.793 74.0952 199.567 73.8545 199.429C73.6138 199.291 73.3289 199.252 73.0599 199.32C61.5174 201.069 50.0775 203.439 38.7899 206.42C35.5966 207.273 32.4299 208.166 29.2899 209.1C29.0604 209.203 28.8754 209.385 28.7686 209.612C28.6619 209.84 28.6405 210.099 28.7083 210.341C28.7762 210.583 28.9287 210.793 29.1382 210.932C29.3478 211.072 29.6003 211.131 29.8499 211.1V211.13Z" fill="#3C3C3B"/>
<path d="M42.41 249.799C49.5033 247.799 56.6633 246.076 63.89 244.629C71.05 243.199 78.28 242.049 85.53 241.199C89.6633 240.713 93.82 240.313 98 239.999C98.2583 239.979 98.5009 239.867 98.6842 239.683C98.8674 239.5 98.9794 239.258 99 238.999C98.9955 238.731 98.8902 238.474 98.705 238.279C98.5197 238.084 98.268 237.967 98 237.949C90.5933 238.489 83.2133 239.323 75.86 240.449C68.5066 241.576 61.22 242.966 54 244.619C49.92 245.579 45.8633 246.629 41.83 247.769C41.6004 247.872 41.4154 248.054 41.3087 248.282C41.2019 248.51 41.1805 248.768 41.2484 249.01C41.3162 249.253 41.4688 249.463 41.6783 249.602C41.8878 249.741 42.1404 249.8 42.39 249.769L42.41 249.799Z" fill="#3C3C3B"/>
<path d="M60.38 271.24C62.1117 267.515 64.5384 264.155 67.53 261.34L65.88 261.13C66.46 261.89 65.88 263.08 66.01 263.96C66.0186 264.51 66.204 265.044 66.5389 265.482C66.8738 265.919 67.3404 266.237 67.87 266.39C69.4 266.67 70.33 265.34 71.13 264.27C71.9467 263.177 72.644 262.001 73.21 260.76L71.56 260.98C71.6437 261.145 71.7074 261.319 71.75 261.5C71.75 261.75 71.75 262.19 71.81 262.5C71.7987 263.327 72.0743 264.133 72.59 264.78C72.8817 265.061 73.2289 265.278 73.6093 265.418C73.9897 265.558 74.395 265.617 74.7994 265.592C75.2039 265.566 75.5986 265.457 75.9586 265.271C76.3185 265.084 76.6357 264.825 76.89 264.51C77.61 263.64 78.27 262.72 78.96 261.83L87.22 251.16L89.46 248.27L87.7 247.27L80.34 265.27L79.47 267.39C79.1592 268.033 78.9049 268.702 78.71 269.39C78.49 270.45 78.71 271.92 79.93 272.22C80.2643 272.31 80.6202 272.275 80.93 272.12C81.2712 271.838 81.5389 271.478 81.71 271.07C82.11 270.4 82.51 269.74 82.93 269.07C83.7233 267.803 84.54 266.553 85.38 265.32C87.2666 262.56 89.2666 259.893 91.38 257.32H90C90.3879 257.74 90.617 258.283 90.6481 258.854C90.6791 259.425 90.51 259.99 90.17 260.45C90.1004 260.568 90.0549 260.7 90.036 260.836C90.0172 260.973 90.0255 261.112 90.0603 261.245C90.0951 261.378 90.1558 261.503 90.239 261.613C90.3222 261.723 90.4261 261.815 90.545 261.885C90.6638 261.954 90.7952 262 90.9316 262.019C91.0681 262.037 91.2069 262.029 91.3401 261.994C91.4734 261.959 91.5985 261.899 91.7083 261.816C91.818 261.732 91.9104 261.628 91.98 261.51C92.5569 260.65 92.8228 259.619 92.7337 258.588C92.6446 257.557 92.2058 256.587 91.49 255.84C91.3962 255.735 91.2814 255.651 91.153 255.594C91.0246 255.536 90.8856 255.507 90.745 255.507C90.6044 255.507 90.4653 255.536 90.337 255.594C90.2086 255.651 90.0938 255.735 90 255.84C86.1239 260.499 82.6324 265.465 79.56 270.69L80.46 270.17C80.2 270.17 80.66 270.29 80.77 270.36C80.88 270.43 80.77 270.45 80.77 270.36C80.77 270.46 80.77 270.44 80.77 270.3C80.7479 270.042 80.7962 269.782 80.91 269.55C81.3 268.55 81.75 267.48 82.17 266.46L84.71 260.27L89.77 247.91C90.16 246.96 88.64 246.07 88.01 246.91L82.49 254.05L75.67 262.86C75.33 263.3 74.88 263.86 74.26 263.55C74.1979 263.526 74.1476 263.48 74.12 263.42C74.03 263.27 74.12 263.54 74.12 263.37C74.0681 263.25 74.0279 263.127 74 263C73.9381 262.67 73.908 262.335 73.91 262C73.9374 261.082 73.6359 260.185 73.06 259.47C72.9466 259.356 72.8086 259.269 72.6566 259.217C72.5046 259.165 72.3427 259.149 72.1833 259.169C72.0239 259.189 71.8713 259.246 71.7372 259.334C71.6032 259.423 71.4912 259.541 71.41 259.68C70.9502 260.693 70.4014 261.663 69.77 262.58C69.4626 263.02 69.1286 263.44 68.77 263.84C68.6534 263.995 68.5229 264.139 68.38 264.27H68.24C68.32 264.27 68.33 264.36 68.24 264.27C68.4 264.4 68.24 264.2 68.31 264.27C68.2427 264.166 68.1952 264.051 68.17 263.93C68.11 263.599 68.11 263.26 68.17 262.93C68.2961 262.435 68.323 261.921 68.2492 261.417C68.1754 260.912 68.0023 260.427 67.74 259.99C67.6561 259.854 67.543 259.739 67.4089 259.653C67.2749 259.566 67.1232 259.511 66.9651 259.491C66.8069 259.471 66.6463 259.486 66.4949 259.536C66.3435 259.586 66.2051 259.669 66.09 259.78C62.962 262.712 60.4231 266.214 58.61 270.1C58.4788 270.343 58.4451 270.627 58.5157 270.895C58.5863 271.162 58.7558 271.393 58.99 271.54C59.2318 271.678 59.5184 271.716 59.788 271.645C60.0575 271.574 60.2881 271.4 60.43 271.16L60.38 271.24Z" fill="#3C3C3B"/>
<path d="M32.3 220.91C39.2733 218.87 46.3033 217.05 53.39 215.45C60.4767 213.85 67.5767 212.496 74.69 211.39C78.69 210.723 82.7333 210.163 86.82 209.71C87.097 209.7 87.3597 209.584 87.5548 209.387C87.7499 209.19 87.8626 208.927 87.87 208.65C87.8674 208.372 87.7559 208.106 87.5596 207.91C87.3632 207.714 87.0977 207.602 86.82 207.6C79.54 208.473 72.3 209.576 65.1 210.91C57.9 212.243 50.7733 213.806 43.72 215.6C39.72 216.62 35.72 217.716 31.72 218.89C31.4548 218.964 31.2299 219.14 31.0949 219.38C30.9599 219.621 30.9257 219.904 31 220.17C31.0743 220.435 31.2508 220.66 31.4909 220.795C31.7309 220.93 32.0148 220.964 32.28 220.89L32.3 220.91Z" fill="#3C3C3B"/>
<path d="M40.87 240.32C47.6566 238.407 54.5033 236.74 61.41 235.32C68.3166 233.9 75.2633 232.7 82.25 231.72C86.1833 231.18 90.13 230.723 94.09 230.35C94.3483 230.329 94.5909 230.218 94.7741 230.034C94.9574 229.851 95.0694 229.608 95.09 229.35C95.088 229.08 94.9838 228.82 94.7983 228.624C94.6128 228.427 94.3597 228.308 94.09 228.29C86.9833 228.957 79.9 229.89 72.84 231.09C65.78 232.29 58.8066 233.707 51.92 235.34C48.0266 236.28 44.1566 237.28 40.31 238.34C40.0804 238.443 39.8954 238.625 39.7887 238.853C39.6819 239.08 39.6605 239.339 39.7283 239.581C39.7962 239.824 39.9487 240.033 40.1583 240.173C40.3678 240.312 40.6203 240.371 40.87 240.34V240.32Z" fill="#3C3C3B"/>
<path d="M51.4 274.28C58.3933 272.413 65.4267 270.71 72.5 269.17C79.5733 267.63 86.6766 266.263 93.81 265.07C97.85 264.403 101.897 263.78 105.95 263.2C106.083 263.164 106.208 263.102 106.318 263.018C106.427 262.934 106.519 262.828 106.588 262.709C106.656 262.589 106.701 262.457 106.718 262.32C106.736 262.183 106.726 262.043 106.69 261.91C106.607 261.646 106.426 261.424 106.184 261.288C105.943 261.152 105.659 261.114 105.39 261.18C98.23 262.18 91.1 263.353 84 264.7C76.9 266.047 69.8233 267.557 62.77 269.23C58.77 270.19 54.8033 271.19 50.87 272.23C50.6422 272.333 50.4587 272.514 50.3525 272.741C50.2463 272.967 50.2243 273.224 50.2906 273.465C50.3569 273.706 50.5071 273.916 50.7142 274.056C50.9212 274.196 51.1715 274.258 51.42 274.23L51.4 274.28Z" fill="#3C3C3B"/>
<path d="M123 125.47L117.84 121.35C117.281 120.908 116.569 120.705 115.861 120.786C115.153 120.866 114.506 121.224 114.06 121.78L81.24 162.85C80.7976 163.403 80.1554 163.76 79.4521 163.844C78.7487 163.929 78.0404 163.733 77.48 163.3L67 155.11C66.4373 154.673 65.7245 154.477 65.0178 154.565C64.3111 154.653 63.6681 155.018 63.23 155.58L59.17 160.79C58.9527 161.069 58.7928 161.389 58.6993 161.73C58.6059 162.072 58.5807 162.428 58.6253 162.779C58.6699 163.13 58.7834 163.469 58.9592 163.777C59.135 164.084 59.3698 164.353 59.65 164.57L78.72 179.15C79.5137 179.744 80.5066 180.008 81.4907 179.887C82.4749 179.766 83.3741 179.269 84 178.5L123.42 129.26C123.866 128.701 124.072 127.988 123.993 127.278C123.915 126.567 123.557 125.917 123 125.47Z" fill="#141C29"/>
</g>
<defs>
<linearGradient id="paint0_linear_2542_89521" x1="131.647" y1="233.867" x2="318.722" y2="166.221" gradientUnits="userSpaceOnUse">
<stop stop-color="#0168CD"/>
<stop offset="0.99" stop-color="#023287"/>
</linearGradient>
<linearGradient id="paint1_linear_2542_89521" x1="158.222" y1="224.258" x2="292.136" y2="175.834" gradientUnits="userSpaceOnUse">
<stop stop-color="#0168CD"/>
<stop offset="0.99" stop-color="#023287"/>
</linearGradient>
<linearGradient id="paint2_linear_2542_89521" x1="183.454" y1="215.134" x2="266.915" y2="184.955" gradientUnits="userSpaceOnUse">
<stop stop-color="#0168CD"/>
<stop offset="0.99" stop-color="#023287"/>
</linearGradient>
<linearGradient id="paint3_linear_2542_89521" x1="279.767" y1="251.787" x2="225.186" y2="199.682" gradientUnits="userSpaceOnUse">
<stop offset="0.34" stop-color="#1C222B" stop-opacity="0.7"/>
<stop offset="0.92" stop-color="#152745" stop-opacity="0"/>
</linearGradient>
<linearGradient id="paint4_linear_2542_89521" x1="101.67" y1="108.915" x2="209.831" y2="188.39" gradientUnits="userSpaceOnUse">
<stop offset="0.23" stop-color="#CEF7FF" stop-opacity="0.7"/>
<stop offset="0.92" stop-color="#152745" stop-opacity="0"/>
</linearGradient>
<clipPath id="clip0_2542_89521">
<rect width="400" height="400" fill="white"/>
</clipPath>
</defs>
</svg>
