<svg width="24" height="24" viewBox="0 0 24 24" fill="none" xmlns="http://www.w3.org/2000/svg">
<path d="M12.17 15.5049C8.29998 15.5049 5 16.0899 5 18.4319C5 20.7739 8.28198 21.3789 12.17 21.3789C16.038 21.3789 19.34 20.7929 19.34 18.4519C19.34 16.1109 16.059 15.5049 12.17 15.5049Z" stroke="#707A8A" stroke-width="1.5" stroke-linecap="round" stroke-linejoin="round"/>
<path d="M12.1741 12.16C13.3874 12.1557 14.5495 11.6702 15.4052 10.8101C16.2608 9.94987 16.7402 8.7853 16.7381 7.572C16.736 6.35869 16.2525 5.19581 15.3938 4.33862C14.5352 3.48144 13.3714 3 12.1581 3C10.9448 3 9.78109 3.48144 8.9224 4.33862C8.06372 5.19581 7.58025 6.35869 7.57813 7.572C7.57601 8.7853 8.05542 9.94987 8.91111 10.8101C9.7668 11.6702 10.9288 12.1557 12.1421 12.16H12.1741Z" stroke="#707A8A" stroke-width="1.5" stroke-linecap="round" stroke-linejoin="round"/>
</svg>
