<svg width="24" height="24" viewBox="0 0 24 24" fill="none" xmlns="http://www.w3.org/2000/svg">
<path d="M19.8601 7.99083C19.8593 8.39878 19.8326 8.80627 19.7801 9.21083C19.0125 8.87586 18.1543 8.81015 17.3447 9.02435C16.5351 9.23855 15.8216 9.7201 15.3201 10.3908C14.8516 9.76434 14.1973 9.30174 13.4504 9.06897C12.7035 8.8362 11.9023 8.84514 11.1608 9.09452C10.4193 9.3439 9.77544 9.82099 9.32103 10.4578C8.86661 11.0946 8.62482 11.8585 8.63011 12.6408C8.65872 13.817 8.94168 14.9731 9.45954 16.0295C9.97741 17.086 10.7179 18.0178 11.6301 18.7608C11.5819 18.7851 11.5317 18.8052 11.4801 18.8208C11.1217 18.9308 10.7385 18.9308 10.3801 18.8208C7.79011 17.9308 2.00011 14.2508 2.00011 7.99083C1.9932 6.94663 2.31614 5.92692 2.9229 5.07708C3.52966 4.22724 4.38924 3.59066 5.37909 3.25813C6.36895 2.92559 7.43852 2.91407 8.4353 3.22521C9.43208 3.53634 10.3052 4.15425 10.9301 4.99083C11.555 4.15425 12.4281 3.53634 13.4249 3.22521C14.4217 2.91407 15.4913 2.92559 16.4811 3.25813C17.471 3.59066 18.3306 4.22724 18.9373 5.07708C19.5441 5.92692 19.867 6.94663 19.8601 7.99083V7.99083Z" stroke="#707A8A" stroke-width="1.5" stroke-linecap="round" stroke-linejoin="round"/>
<path d="M22.0002 12.6408C22.0002 17.3208 17.6702 20.0808 15.7302 20.7408C15.4593 20.8208 15.1711 20.8208 14.9002 20.7408C13.6969 20.2891 12.5881 19.6177 11.6302 18.7608C10.718 18.0177 9.97751 17.0859 9.45965 16.0295C8.94178 14.973 8.65882 13.817 8.63021 12.6408C8.62492 11.8585 8.86672 11.0945 9.32113 10.4577C9.77555 9.82091 10.4194 9.34383 11.1609 9.09445C11.9024 8.84507 12.7036 8.83613 13.4505 9.0689C14.1974 9.30167 14.8517 9.76427 15.3202 10.3908C15.8217 9.72003 16.5352 9.23848 17.3448 9.02428C18.1544 8.81007 19.0126 8.87579 19.7802 9.21075C20.4434 9.50506 21.0066 9.98616 21.4008 10.5953C21.795 11.2044 22.0033 11.9152 22.0002 12.6408V12.6408Z" stroke="#707A8A" stroke-width="1.5" stroke-linecap="round" stroke-linejoin="round"/>
</svg>
