<svg width="24" height="24" viewBox="0 0 24 24" fill="none" xmlns="http://www.w3.org/2000/svg">
<path d="M12.0002 13.1887V20.0212" stroke="#707A8A" stroke-width="1.5" stroke-linecap="round" stroke-linejoin="round"/>
<path d="M12 13.0689C14.7805 13.0689 17.0345 10.8149 17.0345 8.03443C17.0345 5.25399 14.7805 3 12 3C9.21957 3 6.96558 5.25399 6.96558 8.03443C6.96558 10.8149 9.21957 13.0689 12 13.0689Z" stroke="#707A8A" stroke-width="1.5" stroke-linecap="round" stroke-linejoin="round"/>
<path d="M20.0314 15.5862H15.3565C13.5585 15.5862 12.0002 17.1445 12.0002 18.9425V21.1001H16.6751C18.4731 21.1001 20.0314 19.5418 20.0314 17.7438V15.5862Z" stroke="#707A8A" stroke-width="1.5" stroke-linecap="round" stroke-linejoin="round"/>
<path d="M12.0001 21.1001H7.32529C5.52727 21.1001 3.96899 19.5418 3.96899 17.7438V15.5862H8.64383C10.4418 15.5862 12.0001 17.1445 12.0001 18.9425V21.1001Z" stroke="#707A8A" stroke-width="1.5" stroke-linecap="round" stroke-linejoin="round"/>
</svg>
