<svg width="24" height="24" viewBox="0 0 24 24" fill="none" xmlns="http://www.w3.org/2000/svg">
<path d="M8.26038 22C4.08038 22 3.24038 19.47 4.60038 16.39L8.85038 6.74H8.55038C7.92106 6.74177 7.31679 6.49358 6.87038 6.05C6.64745 5.83089 6.47066 5.56935 6.35043 5.28081C6.23021 4.99227 6.16899 4.68258 6.17038 4.37C6.1717 3.74184 6.42182 3.13979 6.86599 2.69562C7.31017 2.25144 7.91222 2.00132 8.54038 2L15.6504 2C16.011 2.00127 16.3666 2.08425 16.6905 2.24273C17.0145 2.4012 17.2983 2.63104 17.5206 2.91496C17.7429 3.19888 17.898 3.5295 17.9742 3.88198C18.0503 4.23445 18.0456 4.59961 17.9604 4.95C17.8115 5.47385 17.4933 5.93363 17.0555 6.25748C16.6176 6.58134 16.0849 6.75101 15.5404 6.74H15.3804L19.6004 16.4C20.9504 19.48 20.0704 22 15.9304 22H8.26038Z" stroke="#707A8A" stroke-width="1.5" stroke-linecap="round" stroke-linejoin="round"/>
<path d="M6.04028 13.1199C8.09428 13.0883 10.1401 13.3854 12.1003 13.9999C13.0809 14.2615 14.105 14.3175 15.1083 14.1643C16.1116 14.0112 17.0724 13.6522 17.9303 13.1099" stroke="#707A8A" stroke-width="1.5" stroke-linecap="round" stroke-linejoin="round"/>
</svg>
