<svg width="21" height="20" viewBox="0 0 21 20" fill="none" xmlns="http://www.w3.org/2000/svg">
<path fill-rule="evenodd" clip-rule="evenodd" d="M8.08634 19.1667C8.08634 19.1667 8.10522 17.086 8.09909 16.0441C4.88944 16.7411 4.21224 14.497 4.21224 14.497C3.68733 13.1645 2.93079 12.8096 2.93079 12.8096C1.8831 12.0935 3.01012 12.1076 3.01012 12.1076C4.16832 12.1898 4.77752 13.297 4.77752 13.297C5.80679 15.0601 7.47855 14.5508 8.13592 14.2561C8.24076 13.5102 8.53828 13.0016 8.86838 12.7133C6.30619 12.4222 3.61224 11.4319 3.61224 7.01018C3.61224 5.75069 4.06206 4.72071 4.80019 3.91387C4.68118 3.62202 4.2852 2.44895 4.91282 0.860071C4.91282 0.860071 5.88187 0.549803 8.08634 2.04306C9.00651 1.78733 9.99399 1.65912 10.9751 1.65487C11.9548 1.65912 12.9422 1.78733 13.8638 2.04306C16.0669 0.549803 17.0338 0.860071 17.0338 0.860071C17.6636 2.44895 17.2676 3.62202 17.1486 3.91387C17.8881 4.72071 18.3351 5.75069 18.3351 7.01018C18.3351 11.4432 15.6369 12.4186 13.0662 12.7041C13.4806 13.0604 13.8497 13.7645 13.8497 14.8413C13.8497 16.2833 13.8638 19.1667 13.8638 19.1667H8.08634Z" fill="#B5BCC8"/>
</svg>
