<svg width="21" height="20" viewBox="0 0 21 20" fill="none" xmlns="http://www.w3.org/2000/svg">
<path fill-rule="evenodd" clip-rule="evenodd" d="M6.85735 0.888332C7.83485 0.843332 8.14651 0.833332 10.6365 0.833332C13.1265 0.833332 13.4382 0.844165 14.4148 0.888332C15.3915 0.932499 16.0582 1.08833 16.6415 1.31417C17.2523 1.545 17.8065 1.90583 18.2648 2.3725C18.7315 2.83 19.0915 3.38333 19.3215 3.995C19.5482 4.57833 19.7032 5.245 19.7482 6.22C19.7932 7.19916 19.8032 7.51083 19.8032 10C19.8032 12.49 19.7923 12.8017 19.7482 13.7792C19.704 14.7542 19.5482 15.4208 19.3215 16.0042C19.0915 16.6159 18.7309 17.1702 18.2648 17.6283C17.8065 18.095 17.2523 18.455 16.6415 18.685C16.0582 18.9117 15.3915 19.0667 14.4165 19.1117C13.4382 19.1567 13.1265 19.1667 10.6365 19.1667C8.14651 19.1667 7.83485 19.1558 6.85735 19.1117C5.88235 19.0675 5.21568 18.9117 4.63235 18.685C4.02062 18.455 3.46637 18.0944 3.00818 17.6283C2.54183 17.1706 2.18094 16.6166 1.95068 16.005C1.72485 15.4217 1.56985 14.755 1.52485 13.78C1.47985 12.8008 1.46985 12.4892 1.46985 10C1.46985 7.51 1.48068 7.19833 1.52485 6.22166C1.56902 5.245 1.72485 4.57833 1.95068 3.995C2.18128 3.3834 2.54245 2.82943 3.00902 2.37167C3.46655 1.90542 4.02024 1.54453 4.63152 1.31417C5.21485 1.08833 5.88152 0.933332 6.85651 0.888332H6.85735ZM14.3407 2.53833C13.374 2.49417 13.084 2.485 10.6365 2.485C8.18901 2.485 7.89901 2.49417 6.93235 2.53833C6.03818 2.57917 5.55318 2.72833 5.22985 2.85417C4.80235 3.02083 4.49652 3.21833 4.17568 3.53917C3.87155 3.83504 3.6375 4.19523 3.49068 4.59333C3.36485 4.91667 3.21568 5.40166 3.17485 6.29583C3.13068 7.2625 3.12152 7.5525 3.12152 10C3.12152 12.4475 3.13068 12.7375 3.17485 13.7042C3.21568 14.5983 3.36485 15.0833 3.49068 15.4067C3.63735 15.8042 3.87152 16.165 4.17568 16.4608C4.47152 16.765 4.83235 16.9992 5.22985 17.1458C5.55318 17.2717 6.03818 17.4208 6.93235 17.4617C7.89901 17.5058 8.18818 17.515 10.6365 17.515C13.0848 17.515 13.374 17.5058 14.3407 17.4617C15.2348 17.4208 15.7198 17.2717 16.0432 17.1458C16.4707 16.9792 16.7765 16.7817 17.0973 16.4608C17.4015 16.165 17.6357 15.8042 17.7823 15.4067C17.9082 15.0833 18.0573 14.5983 18.0982 13.7042C18.1423 12.7375 18.1515 12.4475 18.1515 10C18.1515 7.5525 18.1423 7.2625 18.0982 6.29583C18.0573 5.40166 17.9082 4.91667 17.7823 4.59333C17.6157 4.16583 17.4182 3.86 17.0973 3.53917C16.8015 3.23506 16.4413 3.00101 16.0432 2.85417C15.7198 2.72833 15.2348 2.57917 14.3407 2.53833ZM9.46568 12.8258C10.1196 13.098 10.8477 13.1348 11.5256 12.9298C12.2036 12.7248 12.7893 12.2908 13.1829 11.7019C13.5764 11.113 13.7532 10.4057 13.6832 9.70092C13.6132 8.99611 13.3007 8.33748 12.799 7.8375C12.4792 7.5179 12.0925 7.27317 11.6668 7.12095C11.2411 6.96873 10.7869 6.9128 10.3369 6.95718C9.88698 7.00156 9.45248 7.14515 9.06468 7.37761C8.67689 7.61007 8.34547 7.92562 8.09427 8.30154C7.84307 8.67746 7.67834 9.10441 7.61194 9.55163C7.54555 9.99886 7.57914 10.4552 7.7103 10.8879C7.84145 11.3206 8.06692 11.7188 8.37045 12.0539C8.67398 12.389 9.04804 12.6527 9.46568 12.8258ZM7.30485 6.66833C7.74237 6.23081 8.26178 5.88375 8.83343 5.64697C9.40508 5.41018 10.0178 5.28831 10.6365 5.28831C11.2553 5.28831 11.868 5.41018 12.4396 5.64697C13.0112 5.88375 13.5307 6.23081 13.9682 6.66833C14.4057 7.10585 14.7528 7.62526 14.9895 8.19691C15.2263 8.76856 15.3482 9.38125 15.3482 10C15.3482 10.6187 15.2263 11.2314 14.9895 11.8031C14.7528 12.3747 14.4057 12.8941 13.9682 13.3317C13.0846 14.2153 11.8861 14.7117 10.6365 14.7117C9.3869 14.7117 8.18846 14.2153 7.30485 13.3317C6.42124 12.4481 5.92483 11.2496 5.92483 10C5.92483 8.75038 6.42124 7.55194 7.30485 6.66833ZM16.3932 5.99C16.5016 5.88772 16.5884 5.76473 16.6484 5.62831C16.7085 5.49189 16.7405 5.34481 16.7427 5.19577C16.7449 5.04674 16.7171 4.89879 16.6611 4.76067C16.6051 4.62256 16.5219 4.49709 16.4165 4.3917C16.3111 4.2863 16.1856 4.20313 16.0475 4.1471C15.9094 4.09106 15.7614 4.06331 15.6124 4.06548C15.4634 4.06766 15.3163 4.09971 15.1799 4.15975C15.0434 4.21978 14.9205 4.30658 14.8182 4.415C14.6193 4.62586 14.5104 4.90593 14.5146 5.19577C14.5188 5.48561 14.6358 5.7624 14.8408 5.96737C15.0458 6.17234 15.3226 6.28936 15.6124 6.29358C15.9022 6.29781 16.1823 6.18891 16.3932 5.99Z" fill="#B5BCC8"/>
</svg>
