<svg width="21" height="20" viewBox="0 0 21 20" fill="none" xmlns="http://www.w3.org/2000/svg">
<path fill-rule="evenodd" clip-rule="evenodd" d="M8.49393 7.47417H11.5889V9.01583C12.0348 8.12917 13.1781 7.3325 14.8956 7.3325C18.1881 7.3325 18.9698 9.0975 18.9698 12.3358V18.3333H15.6364V13.0733C15.6364 11.2292 15.1906 10.1892 14.0556 10.1892C12.4814 10.1892 11.8273 11.31 11.8273 13.0725V18.3333H8.49393V7.47417ZM2.7781 18.1917H6.11143V7.3325H2.7781V18.1917ZM6.58893 3.79167C6.58906 4.07106 6.53365 4.3477 6.42592 4.60549C6.3182 4.86328 6.16031 5.0971 5.96143 5.29334C5.55843 5.69385 5.01294 5.91805 4.44477 5.91667C3.87759 5.91629 3.33336 5.69267 2.92977 5.29417C2.73161 5.09726 2.57426 4.86319 2.46672 4.60536C2.35919 4.34753 2.30358 4.07102 2.3031 3.79167C2.3031 3.2275 2.5281 2.6875 2.9306 2.28917C3.33384 1.89013 3.8783 1.66642 4.4456 1.66667C5.01393 1.66667 5.55893 1.89083 5.96143 2.28917C6.3631 2.6875 6.58893 3.2275 6.58893 3.79167Z" fill="#B5BCC8"/>
</svg>
