<svg width="21" height="20" viewBox="0 0 21 20" fill="none" xmlns="http://www.w3.org/2000/svg">
<path d="M18.7472 2.60167L2.50748 8.86536C1.39909 9.31006 1.40566 9.92827 2.30545 10.2039L6.35568 11.4681L7.90539 16.2194C8.09379 16.7394 8.00092 16.9457 8.547 16.9457C8.96843 16.9457 9.15538 16.7535 9.39009 16.5243C9.53935 16.3782 10.4256 15.5166 11.4151 14.5545L15.6281 17.6673C16.4033 18.0949 16.9631 17.8734 17.1561 16.9472L19.9217 3.9151C20.2048 2.77994 19.4889 2.26504 18.7472 2.60167ZM6.99131 11.1777L16.1206 5.41796C16.5763 5.14157 16.9942 5.29017 16.6511 5.59472L8.83406 12.6476L8.52969 15.894L6.99131 11.1777Z" fill="#B5BCC8"/>
</svg>
