<svg width="23" height="20" viewBox="0 0 23 20" fill="none" xmlns="http://www.w3.org/2000/svg">
<path d="M21.3753 5.84836L19.0661 8.59252C18.9096 8.7662 18.753 8.90514 18.5182 9.00935C18.3225 9.11356 18.0876 9.18303 17.8528 9.21777C17.618 9.25251 17.3831 9.25251 17.1483 9.18303C16.9135 9.11356 16.7178 9.04409 16.5221 8.90514L16.483 8.87041C16.2481 8.73146 16.0916 8.52305 15.935 8.31463C15.8176 8.10621 15.7393 7.82832 15.7393 7.58517V6.54309C15.1914 6.54309 14.6826 6.7515 14.2912 7.06413C13.8998 7.41149 13.7041 7.86306 13.7041 8.34937V16.3039C13.7041 17.2766 12.8822 18.0755 11.7863 18.1102C11.5123 18.1102 11.2383 18.0755 11.0035 18.006C10.7687 17.9365 10.5338 17.7976 10.3381 17.6239C10.1424 17.4502 9.98589 17.2766 9.86847 17.0334C9.75105 16.825 9.71191 16.5818 9.71191 16.3387V8.34937C9.71191 7.65464 9.86847 6.95992 10.1816 6.29993C10.4947 5.63995 10.9252 5.04943 11.4732 4.56313C12.0211 4.07682 12.6865 3.65999 13.4301 3.41683C14.1738 3.13894 14.9565 3 15.7393 3H19.7315C20.9057 3 21.7276 3.72946 21.7276 4.77154C21.7276 5.18838 21.6102 5.57047 21.3753 5.84836Z" fill="#B5BCC8"/>
<path d="M6.73732 3H3.68449C2.62773 3 1.72754 3.7642 1.72754 4.73681V4.77154C1.72754 5.74416 2.62773 6.50835 3.68449 6.50835H6.73732C7.83321 6.50835 8.69427 5.74416 8.69427 4.77154V4.73681C8.73341 3.7642 7.83321 3 6.73732 3Z" fill="#B5BCC8"/>
</svg>
