<svg width="22" height="20" viewBox="0 0 22 20" fill="none" xmlns="http://www.w3.org/2000/svg">
<path fill-rule="evenodd" clip-rule="evenodd" d="M18.8627 5.68184C18.8702 5.85922 18.8727 6.03653 18.8727 6.2139C18.8727 11.5917 14.7458 17.8 7.19908 17.8C4.88087 17.8 2.72527 17.1227 0.909058 15.9698C1.2301 16.002 1.55616 16.0263 1.88721 16.0263C3.80933 16.0263 5.57967 15.3731 6.98394 14.2765C5.18858 14.2523 3.67258 13.0671 3.14973 11.4546C3.40073 11.503 3.65922 11.5273 3.92356 11.5273C4.29631 11.5273 4.65821 11.4789 5.00511 11.3822C3.12636 11.0113 1.71126 9.36656 1.71126 7.39121C1.71126 7.36703 1.71126 7.35892 1.71126 7.34279C2.26497 7.64111 2.89871 7.82646 3.57166 7.85064C2.46926 7.11694 1.7446 5.86727 1.7446 4.45631C1.7446 3.71454 1.9464 3.01306 2.30164 2.40837C4.32465 4.87553 7.34919 6.49614 10.759 6.66546C10.6889 6.36714 10.6531 6.05278 10.6531 5.73834C10.6531 3.48886 12.4901 1.66667 14.7566 1.66667C15.9366 1.66667 17.0023 2.15856 17.7503 2.9487C18.6867 2.77132 19.564 2.43271 20.3578 1.96508C20.0501 2.91647 19.4005 3.71451 18.5516 4.21439C19.3822 4.11764 20.1744 3.90011 20.9091 3.57761C20.3579 4.39193 19.6641 5.1094 18.8627 5.68184Z" fill="#B5BCC8"/>
</svg>
