<svg width="21" height="20" viewBox="0 0 21 20" fill="none" xmlns="http://www.w3.org/2000/svg">
<g clip-path="url(#clip0_466_3709)">
<path d="M20.2198 5.4225C20.1066 5.01853 19.886 4.65279 19.5815 4.36417C19.2684 4.06667 18.8847 3.85386 18.4665 3.74583C16.9015 3.33333 10.6315 3.33333 10.6315 3.33333C8.01761 3.30359 5.40436 3.4344 2.8065 3.725C2.38833 3.84101 2.0053 4.05857 1.6915 4.35833C1.38317 4.655 1.15983 5.02083 1.04317 5.42167C0.762911 6.93145 0.626744 8.46445 0.636501 10C0.626501 11.5342 0.762334 13.0667 1.04317 14.5783C1.15733 14.9775 1.37983 15.3417 1.689 15.6358C1.99817 15.93 2.38317 16.1425 2.8065 16.255C4.39233 16.6667 10.6315 16.6667 10.6315 16.6667C13.2487 16.6964 15.8653 16.5656 18.4665 16.275C18.8847 16.167 19.2684 15.9542 19.5815 15.6567C19.8859 15.3681 20.1062 15.0023 20.219 14.5983C20.5066 13.0891 20.6464 11.5555 20.6365 10.0192C20.6581 8.47634 20.5185 6.93547 20.2198 5.42167V5.4225ZM8.63817 12.8533V7.1475L13.8548 10.0008L8.63817 12.8533Z" fill="#B5BCC8"/>
</g>
<defs>
<clipPath id="clip0_466_3709">
<rect width="20" height="20" fill="white" transform="translate(0.636475)"/>
</clipPath>
</defs>
</svg>
