<svg id="Capa_2" data-name="Capa 2" xmlns="http://www.w3.org/2000/svg" viewBox="0 0 1110 546"><defs><style>.cls-1{fill:#7fe247;}.cls-2{fill:#5ea837;}.cls-3{fill:#175807;}.cls-4{fill:#36414c;}.cls-5{fill:#4a5766;}.cls-6{fill:#1e3b4d;}.cls-7{fill:#65a930;}.cls-8{fill:#84e247;}.cls-9{fill:#feec30;}.cls-10{fill:none;}.cls-11{fill:#64a934;}.cls-12{fill:#84e246;}.cls-13{fill:#08ddf9;}.cls-14{fill:#069eb7;}.cls-15{fill:#730e00;}.cls-16{fill:#eae8e9;}.cls-17{fill:#4b0d00;}.cls-18{fill:#918f8f;}.cls-19{fill:#fff;}.cls-20{fill:#424a66;}.cls-21{fill:#858faa;}.cls-22{fill:#e6e6e6;}.cls-23{fill:#2e3349;}</style></defs><title>i</title><path class="cls-1" d="M908.05,320.26s23.56-7.59,27.84.2a12.9,12.9,0,0,1,1.22,3.25c2.13,8.57-1,22.06-1,22.06l-5.26,5.46a172.79,172.79,0,0,1-39.53,25.51c-23.76,11.1-56.87,22.59-56.87,22.59s-17.13-1.27-22.1-16.46-.45-16.48-.45-16.48,13-9.81,18-11S908.05,320.26,908.05,320.26Z"/><path class="cls-2" d="M836.87,404.2l-24.54-21.33s43.52-11.39,76.24-20.15,48.2-20.16,48.2-20.16-8.76,9.35-12.27,12.56-35.34,21.91-44.11,26S836.87,404.2,836.87,404.2Z"/><path class="cls-3" d="M836.28,402.55a1.56,1.56,0,0,1-1.46-1,1.58,1.58,0,0,1,.89-2c.75-.29,75.44-29.72,92.28-48.94a1.57,1.57,0,0,1,2.37,2.07c-7.32,8.35-25.3,19.27-53.45,32.47-20.86,9.78-39.86,17.25-40,17.32A1.49,1.49,0,0,1,836.28,402.55Z"/><path class="cls-3" d="M811.88,368a1.47,1.47,0,0,1-.46-.07,1.56,1.56,0,0,1-1-2c1.45-4.71,10.93-9.26,18.62-12.25a33.67,33.67,0,0,1,4-1.25c5-1.27,44.3-18.68,76.22-34.07a1.57,1.57,0,1,1,1.37,2.83c-30.21,14.56-71.12,32.83-76.81,34.29a32.25,32.25,0,0,0-3.63,1.12c-9.53,3.71-15.95,7.64-16.76,10.26A1.57,1.57,0,0,1,811.88,368Z"/><path class="cls-4" d="M857.3,385.8c-3.8-3.25-6.12-7.84-8.61-12.18a130.11,130.11,0,0,0-14.88-20.92,30.65,30.65,0,0,0-3.47-3.46l-3,1.1s11.45,19.56,14.85,60c0,0,15.72-2.93,38.66-15.48,0,0,.07-2.26-.09-6C872.82,391.63,863.61,391.2,857.3,385.8Z"/><path class="cls-5" d="M830.34,349.24a30.65,30.65,0,0,1,3.47,3.46,130.11,130.11,0,0,1,14.88,20.92c2.49,4.34,4.81,8.93,8.61,12.18,6.31,5.4,15.52,5.83,23.49,3.1-.48-11.19-3-35.63-15.64-52.52Z"/><path class="cls-6" d="M844.93,411.77a1.57,1.57,0,1,1,0-3.14c11.69,0,30.58-12.06,34.38-14.57,0-19.36-4.12-33.66-7.6-42.29a67.23,67.23,0,0,0-7.15-13.55c-12.64,4.08-26.81,9.6-36.6,13.57a1.57,1.57,0,0,1-1.18-2.91c10.11-4.1,24.9-9.86,37.89-14a1.58,1.58,0,0,1,1.69.51c.67.81,16.33,20.45,16.09,59.52a1.6,1.6,0,0,1-.68,1.29C880.84,396.83,858.89,411.77,844.93,411.77Z"/><path class="cls-4" d="M641.26,346.14s-7.11,41.19,0,58.06,10.91,18.73,12-3.22S650.37,341.1,641.26,346.14Z"/><path class="cls-7" d="M589.9,365.57c1.81,2.16,4.82,2.79,7.59,3.32,22.65,4.41,44.66,11.54,67.24,16.24,18.31,3.82,16.2-13,34.74-15.25,4.37,3.47,34.06,24.93-20.07,33.38-19.25,3-46.65-15.15-56.41-17.75S584.5,375,581.32,372c-1.87-1.78-1.48-10.34,5.36-17.28.36,1.77.73,3.54,1.09,5.31C588.18,362,588.62,364,589.9,365.57Z"/><path class="cls-8" d="M720.4,381.48c-18.66,2.12-26.23,11.82-56.73,8.27-23.14-2.69-43.18-16.17-66-20.73-2.79-.55-5.83-1.2-7.66-3.38a12.48,12.48,0,0,1-2.18-5.58c-.38-1.78-.75-3.56-1.13-5.34,4.8-4.86,12.33-8.29,23.4-6.52,26.87,4.3,45.74,6.37,57.46,7.77S723.66,379.41,720.4,381.48Z"/><path class="cls-3" d="M683.55,405.77a28.25,28.25,0,0,1-3.36-.19c-13.46-1.53-30.71-8.26-43.31-13.17-5.79-2.25-10.79-4.2-13.85-5-2.22-.59-5.45-1.41-9.2-2.34-18-4.5-30.94-9.38-33.53-11.85-2.13-2-2.51-6.88.34-12.64,2.57-5.19,10.62-16.95,29.69-13.9,3.49.56,7.9,1.18,13,1.91,24.86,3.52,62.42,8.84,72.64,17.63a1.57,1.57,0,0,1-2.05,2.38c-9.52-8.19-48-13.65-71-16.9-5.11-.73-9.52-1.35-13-1.92-15.42-2.46-22.67,5.7-25.62,10.78-3.31,5.72-2.34,9.65-1.73,10.4,2.18,2.08,21.32,8.35,32.12,11.06,3.76.94,7,1.76,9.25,2.36,3.22.87,8.29,2.85,14.17,5.14,12.44,4.84,29.47,11.48,42.53,13,18.63,2.12,45.25-17.19,45.52-17.39a1.57,1.57,0,0,1,1.85,2.54,130.83,130.83,0,0,1-16.23,9.8C700.79,403,691.35,405.77,683.55,405.77Z"/><path class="cls-4" d="M694.42,380.44c-.27-8-3.85-19-6.07-25.09a129.65,129.65,0,0,1-6.06,35.49,33.29,33.29,0,0,1-3.29,7.71c-2,3.23-5,5.76-8,8.15-3.4,2.74-7,5.4-11.06,6.9a17,17,0,0,1-10.07.71c-.58,1.66-1,2.66-1,2.66l25.45,5.68C694.88,409.94,694.82,392.15,694.42,380.44Z"/><path class="cls-5" d="M660,413.6c4.1-1.5,7.66-4.16,11.06-6.9,3-2.39,5.93-4.92,8-8.15a33.29,33.29,0,0,0,3.29-7.71,129.65,129.65,0,0,0,6.06-35.49c-1-2.79-1.75-4.56-1.75-4.56-27.92-6.88-43.27-4.09-43.27-4.09,10.07,4.7,11.64,33.81,11.44,44.88-.15,8.16-3.25,18.08-4.87,22.73A17,17,0,0,0,660,413.6Z"/><path class="cls-6" d="M678.78,421.58a1.56,1.56,0,0,1-1.28-.67,1.58,1.58,0,0,1,.37-2.19c18.3-13,16.7-47.06,11.33-54.66a1.57,1.57,0,0,1,2.56-1.82c6.51,9.21,7.48,45.17-12.07,59A1.53,1.53,0,0,1,678.78,421.58Z"/><path class="cls-6" d="M648.72,418.74a1.06,1.06,0,0,1-.25,0c-3.45-.47-11.14-17.87-11.14-27.14a1.57,1.57,0,0,1,3.14,0c0,7.61,5,18.37,7.6,22.53,6.52-25.38,3.56-50.67-2.12-63.78-.47-1.09-1.44-2.93-2.56-2.88-.76,0-1.09,2.25-1.28,3.58,0,.28-.08.54-.12.8a1.57,1.57,0,0,1-3.1-.5c0-.24.07-.49.11-.75.36-2.44.9-6.12,4.26-6.27,2.28-.09,4.16,1.51,5.57,4.77,8.67,20,6.91,49.44,1.61,68.32A1.78,1.78,0,0,1,648.72,418.74Zm.61-3h0Z"/><path class="cls-6" d="M675.74,424.61a1.59,1.59,0,0,1-.43-.06,240.58,240.58,0,0,0-25.49-6,1.58,1.58,0,0,1,.56-3.1,246.93,246.93,0,0,1,25.79,6.11,1.57,1.57,0,0,1-.43,3.08Z"/><path class="cls-6" d="M690.13,353.15a1.45,1.45,0,0,1-.35,0c-36.43-8.3-45.9-5.75-46-5.73a1.57,1.57,0,0,1-1.95-1,1.55,1.55,0,0,1,1-1.95c.38-.13,9.87-2.95,47.63,5.66a1.57,1.57,0,0,1-.35,3.1Z"/><path class="cls-9" d="M812.94,432.8c-1.32-12.09-3.59-24.28-9.14-35.11s-14.73-20.23-26.36-23.78c-6.45-2-13.35-2.08-20.05-1.32s-13.66,2.48-19.61,5.93c-9.47,5.51-16,15.11-19.83,25.38s-5.12,21.27-6.18,32.17a780,780,0,0,0-2.48,118.29H816.17C818,513.79,817.39,473.21,812.94,432.8Z"/><path class="cls-10" d="M685.34,380.47a62.68,62.68,0,0,0-16.26,26c-3,9.26-3.34,20.95,4.2,27.1,3.21,2.62,7.38,3.78,10.72,6.22l.14.11c-.91-17.26-1.62-31.66-1.85-38.71A52.35,52.35,0,0,1,685.34,380.47Z"/><path class="cls-11" d="M752.27,366c17,0,34.27-2.74,50.11-8.88-2-1.6-3-4.33-2.39-9.25,6-51.86-58.67-90.86-81.57-24.16-6.27,18.25,6,29.34-8.84,34.56-10.15,3.56-19.56,10.11-24.24,22.2a51.38,51.38,0,0,1,16.47-10.59C717.62,363.67,735.28,366.05,752.27,366Z"/><path class="cls-11" d="M684.14,439.93c2.45,46.71,6.41,110.53,6.41,110.53l11.73,3.9q-4.06-44.31-8.14-88.62C693.27,456.25,691.76,445.6,684.14,439.93Z"/><path class="cls-12" d="M826.51,366.92c-5.78-9.82-18.64-5.32-24.13-9.8-15.84,6.14-33.07,8.84-50.11,8.88s-34.65-2.33-50.46,3.88a51.38,51.38,0,0,0-16.47,10.59,52.35,52.35,0,0,0-3.05,20.75c.23,7,.94,21.45,1.85,38.71,7.62,5.67,9.13,16.32,10,25.81q4.07,44.31,8.14,88.62h7a780,780,0,0,1,2.48-118.29c1.06-10.9,2.38-21.9,6.18-32.17s10.36-19.87,19.83-25.38c6-3.45,12.77-5.16,19.61-5.93s13.6-.66,20.05,1.32c11.63,3.55,20.82,13,26.36,23.78s7.82,23,9.14,35.11c4.45,40.41,5,81,3.23,121.56l18.21-7S848.61,404.48,826.51,366.92Z"/><path class="cls-3" d="M692.71,370.3a1.54,1.54,0,0,1-1.08-.43,1.57,1.57,0,0,1-.06-2.22,43.62,43.62,0,0,1,17.49-10.86c7.45-2.62,7.05-6.52,6.34-13.6-.54-5.34-1.21-12,1.53-20,9.22-26.83,26.78-40.12,47-35.53,10.88,2.47,21.22,10.1,28.36,20.95a59.31,59.31,0,0,1,9.28,39.43c-.39,3.36,0,5.7,1.14,7.15,1.65,2.08,5,2.46,8.89,2.9,5.52.62,12.38,1.39,16.28,8a1.57,1.57,0,1,1-2.7,1.6c-3.11-5.28-8.61-5.9-13.93-6.5-4.39-.5-8.54-1-11-4.06-1.7-2.14-2.29-5.24-1.8-9.47a56.19,56.19,0,0,0-8.78-37.35c-6.7-10.17-16.34-17.32-26.43-19.61a29.58,29.58,0,0,0-23.82,4.54c-8.29,5.66-14.84,15.4-19.5,29-2.52,7.35-1.89,13.62-1.38,18.65.73,7.22,1.36,13.44-8.42,16.88a40.55,40.55,0,0,0-16.25,10.06A1.58,1.58,0,0,1,692.71,370.3Z"/><path class="cls-3" d="M833.5,550.15h-.16a1.57,1.57,0,0,1-1.4-1.72c.1-1,10.29-99.68,1-155.07a1.57,1.57,0,1,1,3.09-.52c9.32,55.82-.91,154.92-1,155.92A1.56,1.56,0,0,1,833.5,550.15Z"/><path class="cls-3" d="M690.57,552.43a1.58,1.58,0,0,1-.73-.18c-.55-.29-.72-.53-.82-1.33h0l0-.37v-.07c0-.26,0-.56-.06-.93l-.24-4c-.21-3.44-.5-8.38-.86-14.38-.71-12-1.66-28.29-2.64-45.38-1.79-31.16-4-71.11-4.46-84.54-.08-2.28-.05-4.52.09-6.66a1.54,1.54,0,0,1,1.66-1.46,1.56,1.56,0,0,1,1.47,1.66c-.13,2-.16,4.18-.09,6.35.85,25.12,7.75,140.84,8.26,149.1a.31.31,0,0,0,0,.1,1.93,1.93,0,0,0,0,.24c0,.07,0,.11,0,.12h0a1.53,1.53,0,0,1-.71,1.44A1.54,1.54,0,0,1,690.57,552.43Z"/><path class="cls-4" d="M840.44,543.45a345,345,0,0,1-34.64,1c-19.55-.26-39.39-1.38-57.88-7.73s-35.7-18.54-44.29-36.1c-7.12-14.55-7.78-31.29-8.31-47.48q-.59-18.09-1.18-36.2c-.39-11.72-.69-23.9,4-34.64,3.89-8.89,12.29-16.45,21.6-17.61a69.56,69.56,0,0,1-7.95-7.58l-22-5.51s-17,9-14.39,71.46S673.24,552,673.24,552s79.66,13.41,168.14,0c0,0,.28-3.23.7-8.72Z"/><path class="cls-5" d="M698.17,382.31c-4.72,10.74-4.42,22.92-4,34.64q.58,18.1,1.18,36.2c.53,16.19,1.19,32.93,8.31,47.48,8.59,17.56,25.8,29.76,44.29,36.1s38.33,7.47,57.88,7.73a345,345,0,0,0,34.64-1l1.64-.17c1.8-23.41,6.18-87.92,2.42-117.56-4.64-36.58-9.75-61.84-16.26-75.56l-19,8s-15.18,25.31-41.65,26c-19.48.5-37.45-10.8-47.83-19.42C710.46,365.86,702.06,373.42,698.17,382.31Z"/><path class="cls-6" d="M841.38,553.57h-.17a1.56,1.56,0,0,1-1.39-1.72c.13-1.27,13.3-127.63-6.92-182.17a1.57,1.57,0,0,1,3-1.09c8.6,23.21,12.41,61.18,11.31,112.84-.81,38.4-4.19,70.43-4.22,70.75A1.58,1.58,0,0,1,841.38,553.57Z"/><path class="cls-6" d="M673.24,553.57h-.06a1.57,1.57,0,0,1-1.51-1.63c2-49.5,2.56-85.62,2.18-128.85a1.57,1.57,0,0,1,1.55-1.59h0a1.58,1.58,0,0,1,1.57,1.56c.38,43.28-.23,79.45-2.18,129A1.57,1.57,0,0,1,673.24,553.57Z"/><path class="cls-6" d="M764.7,385.79c-14.53,0-28-7-36.92-13.12A107.5,107.5,0,0,1,711,358.52c-7.62-2-14.86-3.86-21.51-5.37a1.57,1.57,0,0,1,.7-3.07c6.82,1.56,14.24,3.41,22.06,5.52a1.61,1.61,0,0,1,.76.46c.26.29,26.18,28.41,54.52,26.5,28.17-1.93,40.24-24.91,40.35-25.14a1.58,1.58,0,0,1,.77-.72c.08,0,8.08-3.55,19-8a1.57,1.57,0,0,1,1.18,2.91c-9.38,3.8-16.58,6.92-18.46,7.74-2,3.56-15.09,24.44-42.66,26.33C766.7,385.76,765.7,385.79,764.7,385.79Z"/><path class="cls-6" d="M761.89,395.86a59.44,59.44,0,0,1-27.13-6.69c-13-6.74-24.14-18.1-32.09-32.86a1.57,1.57,0,0,1,2.77-1.48c7.64,14.19,18.28,25.1,30.76,31.55,13.75,7.11,29.79,8.32,42.91,3.23a1.57,1.57,0,0,1,1.14,2.93A50.87,50.87,0,0,1,761.89,395.86Z"/><path class="cls-6" d="M795.77,386.85a1.57,1.57,0,0,1-.81-2.92,51.36,51.36,0,0,0,21.82-27.35,1.58,1.58,0,0,1,2-1,1.56,1.56,0,0,1,1,2,54.56,54.56,0,0,1-23.17,29.05A1.64,1.64,0,0,1,795.77,386.85Z"/><path class="cls-13" d="M737.51,78.54c-6.45,9.67-5,10.61,0,15s-2.39,9.89-1.86,15.67,3.91,2.19,5.41,8.88-2.91,18.25-2.91,18.25c6,2.14,12-2.64,16.25-7.32,9.92-11,18.31-23.62,29-33.65-17.15-10.79-29.74-27-45.13-27.38A10.15,10.15,0,0,1,737.51,78.54Z"/><path class="cls-14" d="M697.4,106.25c13.85,3.77,24.61,14.45,34.32,25,1.87,2,3.83,4.16,6.43,5.1,0,0,4.41-11.56,2.91-18.25s-4.89-3.1-5.41-8.88,6.86-11.24,1.86-15.67-6.45-5.37,0-15A10.15,10.15,0,0,0,738.23,68a25,25,0,0,0-12.42,3.17c-17.06,9-30.09,33.09-34.14,34.87l.65.89C693.45,105.54,695.65,105.77,697.4,106.25Z"/><path class="cls-2" d="M677.87,140.32c4.27-16.58,24.74-27.87,36.59-18.24a95.06,95.06,0,0,0,23.69,14.3c-2.6-.94-4.56-3.07-6.43-5.1-9.71-10.58-20.47-21.26-34.32-25-1.75-.48-3.95-.71-5.08.71l-.65-.89-.13.06c-3.9,1.29-18.63,8.56-26.73,18.33s-14.46,17.31-14.46,17.31l13.34-3.88A43,43,0,0,1,677.87,140.32Z"/><path class="cls-2" d="M878.52,204.13c1.63-5.28-.13-16.4-1.84-28-2.41,1-5.63-.7-7.81-3.64-4.39-5.94-5.82-14.5-27.42-15.7s-43.13,19.06-51.14,28.07c-3.91,4.39-7.16,9.76-10.15,13.37a41.84,41.84,0,0,0-.43,5.86c28.23,59.72,82.89,19.3,82.89,19.3-.43,14.74,5.54,28.69,3.83,47.95s-33.6,48.68-68.3,57.15-87.95-1-104.13-8.28-53.73-28.66-57.86-42.47,5.06-34.37,5.06-34.37c72.81,20.24,77.41-38,77.41-38l-3.58-11.79c-14.88-15.15-50.53-23.86-57.6-24.15-9.15-.38-21.3,8.91-26.31,19.68-1.92,4.11-4.94,4.28-7.95,2.92.31,9.89-1.1,21.61-.06,33.44,1.86,21.15-8.46,13.88-11.89,24.1-6.32,18.83,15.65,45.75,27.12,57.22s33.19,33.42,89.13,39.58,97.66-8.54,121.08-22.48,54.38-61,46.58-85.87c-3.36-4.24-5.9-6.43-16.21-5.95C878.58,223,876,212.38,878.52,204.13Z"/><path class="cls-13" d="M734,199.45c-3-8.09-25.83-48.73-56.1-59.13a43,43,0,0,0-14.18-2.43l-13.34,3.88s-17.06,4.34-22.9,18.94c-3.26,8.14-4.65,18.91-4.26,31.4,3,1.36,6,1.19,7.95-2.92,5-10.77,17.16-20.06,26.31-19.68,7.07.29,34.22,5.05,51.91,21.78,3.92,3.7,8.44,4.72,10.19,6.12C727.23,203.59,737.39,208.76,734,199.45Z"/><path class="cls-1" d="M677.87,140.32c30.27,10.4,53.14,51,56.1,59.13,3.42,9.31-6.74,4.14-14.42-2-1.75-1.4-.13-2.47-4.88-5l4,13.06s-4.6,58.2-77.41,38c0,0-9.2,20.55-5.06,34.37S677.84,313,694,320.25s72.37,16.08,107.07,7.61,80-50.8,83.88-69.73c4.69-22.58-14.78-13.68-14.06-22.58.56-7-.24-13.51-8.29-12.12,0,0-54.66,40.42-82.89-19.3a41.84,41.84,0,0,1,.43-5.86c-3.14,3.77-6,5.62-9,2.37-5.86-6.36,2.7-23.56,15.71-43.78S834,127.55,834,127.55s-12.63-15.25-40.29-26.74a69.54,69.54,0,0,1-10.31-5.4c-10.65,10-19,22.7-29,33.65-4.24,4.68-10.3,9.46-16.25,7.32a95.06,95.06,0,0,1-23.69-14.3C702.61,112.45,682.14,123.74,677.87,140.32Z"/><path class="cls-13" d="M867.63,147.69c-3.8-6.79-8.82-12.41-15.28-15.55,0,0-15.12-3.57-18.39-4.59,0,0-34.05,9.09-47.07,29.31s-21.57,37.42-15.71,43.78c3,3.25,5.84,1.4,9-2.37,3-3.61,6.24-9,10.15-13.37,8-9,29.54-29.27,51.14-28.07s23,9.76,27.42,15.7c2.18,2.94,5.4,4.6,7.81,3.64C875.25,166.51,872.39,156.18,867.63,147.69Z"/><path class="cls-1" d="M657.51,178.4c-11,4.87-15.79,16-9.22,30s29.34,21.94,44.88,16.27,13.34-23.43,12.44-28.5S682.17,167.54,657.51,178.4Z"/><path class="cls-1" d="M839.21,169.54c-13.84,0-32.21,4.52-35.8,22.21s5.14,28.11,21.43,30.1,26-6.47,31.09-17.28S860.72,169.53,839.21,169.54Z"/><path class="cls-3" d="M734.32,349.07a1.57,1.57,0,0,1-.6-.12c-.4-.11-2-.32-3.65-.54a242.31,242.31,0,0,1-41.78-8.84c-22.28-7.09-39-17.17-49.76-30-21.75-25.94-32.39-49.74-27.76-62.12,1.71-4.57,5.45-7.59,10.85-8.78-.07-5.35-.48-10.93-.93-16.81-1.33-17.71-2.84-37.78,5.3-58.7a38.1,38.1,0,0,1,24.4-23c13.46-4.4,28-1.93,35.36,2.78,1,.63,2,1.3,3.17,2,14.22,8.88,38,23.74,46.91,55.33a1.57,1.57,0,0,1-3,.85c-8.58-30.42-31.72-44.88-45.55-53.51l-3.2-2c-6.76-4.32-20.16-6.54-32.7-2.45a35.1,35.1,0,0,0-22.45,21.19c-7.87,20.25-6.39,39.95-5.09,57.32.49,6.43.94,12.49.94,18.34a1.56,1.56,0,0,1-1.32,1.55c-5,.8-8.28,3.17-9.73,7-4.17,11.15,6.52,34.31,27.23,59,16.2,19.32,46.32,32,89.54,37.73,3.34.44,4.07.54,4.56.8a1.57,1.57,0,0,1-.72,3Zm-.72-.18.09,0Z"/><path class="cls-3" d="M801.09,344.62a1.57,1.57,0,0,1-.4-3.09c27.5-7.25,51.23-21.69,68.64-41.76,14.38-16.58,20.23-32,21.27-36.57.13-.59.28-1.22.44-1.88,1.78-7.62,4.77-20.36-.15-25-2.37-2.24-6.6-2.48-12.58-.72a1.56,1.56,0,0,1-2-1.6c.13-2.3.29-4.67.45-7.11,1.27-19,2.71-40.55-2.87-60C868.49,148.11,858.3,135,845.94,131c-12-3.9-26,.26-41.46,12.37C766.36,173.16,771,199.22,771,199.48a1.57,1.57,0,1,1-3.08.6c-.06-.29-1.35-7.26,2.34-18.1,6.07-17.84,20.91-32.18,32.28-41.06,16.38-12.8,31.31-17.13,44.37-12.89,13.37,4.34,24.3,18.2,30,38s4.21,42.74,3,61.05c-.11,1.67-.22,3.31-.32,4.92,6-1.4,10.57-.73,13.48,2,6.23,5.89,3.11,19.2,1,28-.15.66-.3,1.29-.43,1.87,0,.18-4.12,17.36-22,37.93s-42.1,35.32-70.21,42.74A1.75,1.75,0,0,1,801.09,344.62Z"/><path class="cls-3" d="M652.62,142.25a1.57,1.57,0,0,1-1.39-2.3,86.69,86.69,0,0,1,35.71-33.9C693.05,103,700,95.19,706.75,87.64c9.65-10.81,18.77-21,27.54-21.21h.62c14.89,0,27.84,11.76,37.33,20.39,3.62,3.29,11.17,6.83,19.91,10.93,15.41,7.22,34.58,16.2,44.89,29.64a1.57,1.57,0,0,1-2.49,1.91c-9.85-12.83-28.63-21.63-43.73-28.71-9-4.2-16.72-7.84-20.69-11.45-9.62-8.73-21.55-19.57-35.2-19.57h-.58c-7.4.16-16.48,10.33-25.25,20.16-6.94,7.77-14.1,15.8-20.75,19.13-23.21,11.62-34.23,32.34-34.34,32.55A1.58,1.58,0,0,1,652.62,142.25Z"/><path class="cls-3" d="M739.82,226.67s-10.29,4.94-8,9.2S738.48,236.49,739.82,226.67Z"/><path class="cls-3" d="M770.57,224.63s1.11,8.51,5.55,9.36S783,229.74,770.57,224.63Z"/><path class="cls-3" d="M672.18,239.68a48.67,48.67,0,0,1-6.94-.5c-17.13-2.51-29.7-15.91-34.49-36.76-2.27-9.91-1.25-17.85,3.06-23.59,4.81-6.44,13.71-10.09,26.45-10.85.48,0,1,0,1.47,0,21.79,0,57.24,27.1,58.77,28.28a1.57,1.57,0,0,1-1.91,2.49l-.61-.47a34.26,34.26,0,0,1-10.4,27.32C698.65,234.47,685.31,239.68,672.18,239.68Zm-10.42-68.61c-.44,0-.88,0-1.31,0-11.77.71-19.89,3.94-24.13,9.6-3.72,5-4.57,12-2.51,21,4.49,19.52,16.11,32,31.89,34.35,14.26,2.09,29.82-2.91,39.66-12.74,5.24-5.25,11.11-14.19,9.25-27a1.55,1.55,0,0,1,0-.57C704.7,188.69,678.37,171.07,661.76,171.07Z"/><path class="cls-3" d="M643.2,174.13a1.58,1.58,0,0,1-1-.35A28.91,28.91,0,0,1,632,153.28a1.57,1.57,0,0,1,3.14-.05h0c0,.11.29,10.91,9.1,18.12a1.57,1.57,0,0,1,.22,2.21A1.55,1.55,0,0,1,643.2,174.13Z"/><path class="cls-3" d="M663,169.14a1.55,1.55,0,0,1-1.35-.77c-6.86-11.69-1.67-28.72-1.44-29.44a1.57,1.57,0,1,1,3,.93c-.05.17-5,16.44,1.15,26.92a1.57,1.57,0,0,1-.56,2.15A1.61,1.61,0,0,1,663,169.14Z"/><path class="cls-3" d="M699.13,185.31a1.57,1.57,0,0,1-1.5-1.14c-1.55-5.35-.87-11.69,2-18.32a43,43,0,0,1,4.76-8.43,1.57,1.57,0,0,1,2.5,1.91c-.1.12-9.49,12.66-6.22,24a1.57,1.57,0,0,1-1.07,1.94A1.62,1.62,0,0,1,699.13,185.31Z"/><path class="cls-3" d="M828.7,233.72c-14.76,0-25.76-4.1-32.71-12.17-6.32-7.35-9-17.74-7.92-30.94-2.59,3.69-4,6.19-4,6.28a1.57,1.57,0,1,1-2.75-1.51,98.31,98.31,0,0,1,12.41-16.88c7.33-8.08,19.19-18.4,34.11-21.66,14.5-3.16,26.48-1.46,34.65,4.91,6.42,5,10.11,12.8,10.4,21.94.32,10.42-3.17,26.59-14.09,37.85C850.93,229.62,840.82,233.72,828.7,233.72Zm-36.9-48.09c-2.18,14.87,0,26.26,6.57,33.87,6.32,7.35,16.53,11.08,30.33,11.08,11.23,0,20.59-3.78,27.81-11.22,10.23-10.56,13.5-25.77,13.2-35.58-.26-8.18-3.52-15.13-9.2-19.56-7.41-5.77-18.49-7.27-32-4.31C812.12,163.48,799.37,176.12,791.8,185.63Z"/><path class="cls-3" d="M809.81,167.76a1.73,1.73,0,0,1-.32,0,1.57,1.57,0,0,1-1.22-1.86c1.08-5.29-3.3-10.27-5.24-12.17-2.31-2.26-4.37-3.26-6.15-3a1.57,1.57,0,1,1-.49-3.1c2.8-.45,5.78.84,8.84,3.84,2.86,2.8,7.46,8.48,6.11,15A1.56,1.56,0,0,1,809.81,167.76Z"/><path class="cls-3" d="M838.55,157.31a1.52,1.52,0,0,1-.55-.1,1.58,1.58,0,0,1-.92-2,11.36,11.36,0,0,0,.56-3.74,33.93,33.93,0,0,0-2.86-14.15c-1.17-2.66-3.23-6-6.36-6.54a1.57,1.57,0,1,1,.57-3.08c3.55.65,6.54,3.54,8.66,8.35a36.94,36.94,0,0,1,3.13,15.48,14.24,14.24,0,0,1-.76,4.78A1.56,1.56,0,0,1,838.55,157.31Z"/><path class="cls-3" d="M855.93,158.53a1.5,1.5,0,0,1-.88-.27,1.56,1.56,0,0,1-.42-2.18A28.33,28.33,0,0,0,859,145.45c.46-2.48.35-4.25-.36-5.56a1.57,1.57,0,1,1,2.76-1.49c1.41,2.6,1.07,5.59.69,7.62a31.53,31.53,0,0,1-4.85,11.82A1.57,1.57,0,0,1,855.93,158.53Z"/><path class="cls-3" d="M676,232.66c-18.66,0-33.83-13-33.83-29s15.17-29,33.83-29,33.82,13,33.82,29S694.68,232.66,676,232.66Zm0-54.91c-16.92,0-30.69,11.61-30.69,25.88s13.77,25.89,30.69,25.89,30.68-11.61,30.68-25.89S693,177.75,676,177.75Z"/><path class="cls-3" d="M828.71,226.2c-18.66,0-33.83-14.56-33.83-32.45s15.17-32.44,33.83-32.44,33.82,14.55,33.82,32.44S847.36,226.2,828.71,226.2Zm0-61.75c-16.92,0-30.69,13.14-30.69,29.3s13.77,29.31,30.69,29.31,30.68-13.15,30.68-29.31S845.63,164.45,828.71,164.45Z"/><path class="cls-3" d="M826.64,219.53a24.79,24.79,0,1,1,24.79-24.79A24.83,24.83,0,0,1,826.64,219.53Zm0-46.44a21.65,21.65,0,1,0,21.65,21.65A21.67,21.67,0,0,0,826.64,173.09Z"/><path class="cls-3" d="M677.41,227.16c-13.67,0-24.79-10.46-24.79-23.31s11.12-23.3,24.79-23.3S702.2,191,702.2,203.85,691.08,227.16,677.41,227.16Zm0-43.47c-11.94,0-21.65,9.05-21.65,20.16S665.47,224,677.41,224s21.65-9.05,21.65-20.17S689.35,183.69,677.41,183.69Z"/><path class="cls-15" d="M635.09,253.17s22.81,6.81,71.17,2.13,70.06-6,111.78-2.13,57.06-5.11,57.06-5.11-40.45,72.45-114.53,74.51C676.27,324.91,635.09,253.17,635.09,253.17Z"/><path class="cls-16" d="M669.74,256.22s-.92,9.08,4.09,21.58c2.17,5.4-2,5.81,3.38,19.45,0,0,56.37,44.54,115.14,19.89,0,0,30.36-11.24,39.17-20.65,0,0,3-6.24,3.47-8.72a34.49,34.49,0,0,0-.14-10.37s1.81-4.2,4.06-11.46a21.13,21.13,0,0,0,0-11.82s-63.32-3.39-71.8-3.14-77.5,5.55-77.5,5.55Z"/><path class="cls-17" d="M839.18,255.13s.55,11.58-4.33,22.27a38.72,38.72,0,0,1-3.33,19.09s18-13.77,27.8-26.49,15.78-21.94,15.78-21.94-22.14,6.8-36.19,6.06"/><path class="cls-17" d="M671,258s-.54,11.59,4.34,22.27a38.61,38.61,0,0,0,3.33,19.1s-18-13.78-27.8-26.5S635.09,251,635.09,251s22.14,6.8,36.19,6.06"/><path class="cls-3" d="M756.6,324.19c-42,0-72.77-18.47-91.4-34.25-20.8-17.61-31.05-35.25-31.47-36a1.57,1.57,0,0,1,1.81-2.29h0c.22.07,23.17,6.67,70.56,2.07,47.79-4.62,69.83-6,112.09-2.13,21.19,2,35.33.51,43.46-1,8.79-1.68,12.62-3.84,12.66-3.86a1.57,1.57,0,0,1,2.16,2.12,174.86,174.86,0,0,1-29.78,36.86c-17.87,16.95-47.31,37.38-86.08,38.46C759.27,324.17,757.93,324.19,756.6,324.19Zm-118.12-68.6a158,158,0,0,0,28.84,32c18.78,15.89,50.21,34.58,93.2,33.38,37.78-1.05,66.54-21,84-37.6a179.15,179.15,0,0,0,26.69-32c-7.31,2.47-23.76,6.08-53.32,3.36-42-3.85-63.93-2.48-111.49,2.13C668.91,260.49,646.84,257.3,638.48,255.59Z"/><path class="cls-3" d="M633.07,264.64a1.56,1.56,0,0,1-1.37-.8,12.44,12.44,0,0,1,8-18.19,1.58,1.58,0,0,1,1.89,1.18,1.56,1.56,0,0,1-1.17,1.88,9.29,9.29,0,0,0-6,13.59,1.57,1.57,0,0,1-.61,2.14A1.49,1.49,0,0,1,633.07,264.64Z"/><path class="cls-3" d="M878.26,257.79a1.44,1.44,0,0,1-.57-.11,1.57,1.57,0,0,1-.89-2,8.55,8.55,0,0,0-6.21-11.49,1.57,1.57,0,0,1,.64-3.08,11.71,11.71,0,0,1,8.5,15.71A1.58,1.58,0,0,1,878.26,257.79Z"/><path class="cls-18" d="M675.34,280.31s14.08,5,49.63,7.46c0,0-3.65,1.58-49.2-2.43Z"/><path class="cls-18" d="M834.82,276.74s-18.32,5.87-49.63,9.17c0,0,6,2,49.8-5.6Z"/><polygon class="cls-19" points="628.99 185.41 682.15 191.26 706.69 234.78 654.4 227.77 623.73 193.88 628.99 185.41"/><polygon class="cls-19" points="758.11 183.66 759.27 199.14 796.66 228.35 823.54 219.59 833.47 201.48 800.17 183.66 758.11 183.66"/><rect x="596.37" y="179.58" width="295.33" height="10.22" transform="translate(-4.77 20.4) rotate(-1.57)"/><rect x="615.36" y="190.7" width="21.32" height="12.56" transform="translate(-5.15 17.18) rotate(-1.57)"/><rect x="625.16" y="201.83" width="21.32" height="12.56" transform="translate(-5.45 17.45) rotate(-1.57)"/><rect x="635.79" y="210.99" width="21.32" height="12.56" transform="translate(-5.7 17.74) rotate(-1.57)"/><rect x="684.66" y="207.85" width="60.32" height="12.56" transform="translate(-5.58 19.61) rotate(-1.57)"/><rect x="666.14" y="187.68" width="98" height="12.56" transform="translate(-5.03 19.61) rotate(-1.57)"/><rect x="675.63" y="198.21" width="88.95" height="12.56" transform="translate(-5.32 19.75) rotate(-1.57)"/><rect x="646.7" y="219.57" width="87.63" height="12.56" transform="translate(-5.91 18.95) rotate(-1.57)"/><rect x="657.16" y="228.36" width="68.65" height="12.56" transform="translate(-6.15 18.98) rotate(-1.57)"/><rect x="645.6" y="191.63" width="10.52" height="10.52" transform="translate(-5.14 17.86) rotate(-1.57)"/><rect x="656.15" y="201.42" width="10.52" height="10.52" transform="translate(-5.4 18.15) rotate(-1.57)"/><rect x="666.15" y="211.08" width="10.52" height="10.52" transform="translate(-5.66 18.43) rotate(-1.57)"/><rect x="743.26" y="187.21" width="21.32" height="12.56" transform="translate(-5.01 20.67) rotate(-1.57)"/><rect x="753.04" y="198.33" width="21.32" height="11.25" transform="translate(-5.29 20.94) rotate(-1.57)"/><rect x="763.68" y="207.49" width="21.32" height="12.56" transform="translate(-5.55 21.24) rotate(-1.57)"/><rect x="812.55" y="204.36" width="60.32" height="12.56" transform="translate(-5.44 23.1) rotate(-1.57)"/><rect x="794.04" y="184.18" width="98" height="12.56" transform="translate(-4.89 23.11) rotate(-1.57)"/><rect x="803.53" y="194.72" width="88.95" height="12.56" transform="translate(-5.18 23.25) rotate(-1.57)"/><rect x="774.6" y="216.08" width="87.63" height="12.56" transform="translate(-5.77 22.44) rotate(-1.57)"/><rect x="785.06" y="224.87" width="68.65" height="12.56" transform="translate(-6.01 22.47) rotate(-1.57)"/><rect x="773.5" y="188.13" width="10.52" height="10.52" transform="translate(-4.99 21.35) rotate(-1.57)"/><rect x="784.04" y="197.93" width="10.52" height="10.52" transform="translate(-5.26 21.64) rotate(-1.57)"/><rect x="794.05" y="207.59" width="10.52" height="10.52" transform="translate(-5.52 21.92) rotate(-1.57)"/><path class="cls-1" d="M608,350.92c0-5.49-1.21-10.9-2.38-16.26-4.28-19.64-8.63-39.31-11.34-59.23-.79-5.79-1.51-11.8-4.56-16.78S580.58,250,575,251.8a13.17,13.17,0,0,0-5.29,3.49,19.88,19.88,0,0,0-4.79,8.13c-1.36,4.49-1.09,9.28-.78,13.95.22,3.3.46,6.59.72,9.89q.27.39.51.78c5.56,9.15,8,19.79,10.37,30.23,1.09,4.78,2.17,9.56,3.17,14.36,1.63,7.81,3.08,15.81,6.94,22.79,3.48,6.31,9.38,11.75,16.36,13.05a16.9,16.9,0,0,0,1.55-1.92C606.92,362,608.08,356.4,608,350.92Z"/><path class="cls-7" d="M585.87,355.42c-3.86-7-5.31-15-6.94-22.79-1-4.8-2.08-9.58-3.17-14.36C573.4,307.83,571,297.19,565.39,288q-.24-.39-.51-.78,1.64,21.15,4.23,42.22,1.6,13.15,3.6,26.27c1.22,8.05,2.1,14.83,10.83,17.85,6.63,2.29,14.85,1.72,19.5-3.33C596.06,369,589.35,361.73,585.87,355.42Z"/><path class="cls-3" d="M591.36,377.87h-.05c-12.32-.37-18.9-13.62-20.15-21.89-1.32-8.72-2.54-17.57-3.61-26.31-2.13-17.27-3.79-34.83-5-52.2-.28-4.27-.64-9.59.84-14.5a21.63,21.63,0,0,1,5.17-8.78,14.76,14.76,0,0,1,5.94-3.89c5-1.59,12.25.48,16.55,7.53,3.1,5.07,3.9,11,4.68,16.71l.09.67c2.63,19.23,6.84,38.56,10.91,57.25l.41,1.87c1.17,5.35,2.37,10.88,2.42,16.58a33.38,33.38,0,0,1-1,8.58,1.57,1.57,0,0,1-3-.78,30.66,30.66,0,0,0,.88-7.78c0-5.37-1.21-10.74-2.35-15.93l-.41-1.88c-4.08-18.74-8.31-38.13-11-57.48l-.09-.67c-.73-5.41-1.49-11-4.25-15.51-2.55-4.18-7.94-7.76-12.91-6.17a11.64,11.64,0,0,0-4.65,3.09,18.36,18.36,0,0,0-4.41,7.5c-1.22,4-1.06,8.27-.71,13.38,1.16,17.31,2.82,34.81,4.93,52,1.07,8.71,2.28,17.53,3.6,26.22,1.1,7.27,6.73,18.91,17.14,19.22a1.57,1.57,0,0,1,0,3.14Z"/><path class="cls-2" d="M572.62,220.3c1.18.94,3.2,1.16,4.23.08.83-.88.7-2.18.53-3.33a231.23,231.23,0,0,0-11-43.06c-.82.56-1.42,1.91-1.69,4.34-1,8.57.75,13.72.95,16.06,2.09,7.49,2.28,14.81,4.79,22.17A7.65,7.65,0,0,0,572.62,220.3Z"/><path class="cls-1" d="M596.49,222.46l-11.29-2.58s-1-22.83-4.47-30.52c-2.85-6.27-10.73-17.93-14.34-15.37,5,14.64,8.65,27.68,11,42.91.19,1.19.33,2.54-.5,3.45-1,1.12-3.05.9-4.23-.09a8,8,0,0,1-2.18-3.89c-2.51-7.68-4.33-14.41-6.42-22.23.11,1.29.28.64.28.64s-9.39-22-15.65-15.74c5.4,16,12.59,31.56,15,48.17-4.11-2-6-6.6-7.4-10.79-3-8.63-5.74-17.4-9-25.95,1.73,13.32,9.72,31.8,9.72,31.8s-7.37-3.66-11.46,3.27-6.91,8.48-.78,21.22,7,17,15.68,21c0,0,26.64,9.4,35.94-7.61S596.49,222.46,596.49,222.46Zm-21.29,9.85c-4-1.1-7.47-3.84-8.86-7.51a1.42,1.42,0,0,1,0-1.3,1.2,1.2,0,0,1,1.32-.31,4.29,4.29,0,0,1,1.21.77c4,3.12,9.63,3.34,14.8,3.87,1.42.15,3,.39,3.88,1.42C591.22,233.39,577.31,232.9,575.2,232.31Z"/><path class="cls-2" d="M563.69,227.21c-2.45-16.61-9.64-32.18-15-48.17l-.1.12c-1.69,2.35-1.89,6.49-1.27,11.31,3.27,8.55,6,17.32,9,25.95C557.74,220.61,559.58,225.17,563.69,227.21Z"/><path class="cls-2" d="M583.65,227.83c-5.17-.53-10.78-.75-14.8-3.87a4.29,4.29,0,0,0-1.21-.77,1.2,1.2,0,0,0-1.32.31,1.42,1.42,0,0,0,0,1.3c1.39,3.67,4.91,6.41,8.86,7.51,2.11.59,16,1.08,12.33-3.06C586.61,228.22,585.07,228,583.65,227.83Z"/><path class="cls-3" d="M568.37,271.19a20.36,20.36,0,0,1-8.41-1.88c-5.31-2.43-12.59-8.45-17.08-23.31-.12-.39-.57-1.58-1-2.83-1.63-4.29-2.37-6.35-2.47-7.28-.3-2.88,1.24-5.5,2.36-7.42,1.54-2.62,3.86-6.59,8-7.94,4.54-1.49,9.22.8,11.85,3.73s3.93,6.85,4.85,10.54a9.7,9.7,0,0,1,.32,4.59,6.93,6.93,0,0,1-7.17,4.94,7.7,7.7,0,0,1-6.68-5.39,1.57,1.57,0,1,1,3-.9,4.55,4.55,0,0,0,3.9,3.16,3.79,3.79,0,0,0,3.88-2.52,6.94,6.94,0,0,0-.31-3.12c-.82-3.3-1.89-6.7-4.14-9.2-1.88-2.1-5.36-3.89-8.53-2.85-2.76.91-4.53,3.62-6.25,6.55-1.17,2-2.12,3.79-1.94,5.5.09.74,1.51,4.49,2.27,6.5.6,1.57,1,2.56,1.12,3,7.81,25.86,23.69,23,24.36,22.82a1.57,1.57,0,0,1,.64,3.07A12.78,12.78,0,0,1,568.37,271.19Z"/><path class="cls-3" d="M557,223.84a1.56,1.56,0,0,1-1.49-1.09l-10.36-32.42A17.57,17.57,0,0,1,544,184a7.19,7.19,0,0,1,3.9-6.21,7.72,7.72,0,0,1,7.85,1.24,16.4,16.4,0,0,1,4.24,5.64,105.23,105.23,0,0,1,11,33.46,1.57,1.57,0,0,1-3.1.47,102.16,102.16,0,0,0-10.71-32.46,13.89,13.89,0,0,0-3.39-4.63,4.74,4.74,0,0,0-4.59-.87,4.15,4.15,0,0,0-2.09,3.55,14.59,14.59,0,0,0,1,5.23l10.35,32.42a1.56,1.56,0,0,1-1.5,2.05Z"/><path class="cls-3" d="M585.2,221.45a1.58,1.58,0,0,1-1.57-1.56c-.15-16.08-1.65-27.19-9.13-39.86A10.59,10.59,0,0,0,571,176c-1.24-.71-3.13-.89-4.14,0s-1,2.67-.92,4.1a95.59,95.59,0,0,0,1.78,12l5.23,27.24a1.57,1.57,0,1,1-3.08.59l-5.23-27.23a95.82,95.82,0,0,1-1.83-12.44c-.13-2.13,0-4.8,1.92-6.59,2.17-2,5.58-1.76,7.83-.47a13.41,13.41,0,0,1,4.68,5.18c7.81,13.21,9.42,25.2,9.57,41.43a1.57,1.57,0,0,1-1.56,1.59Z"/><path class="cls-3" d="M592.51,267a1.6,1.6,0,0,1-1.09-.44,1.58,1.58,0,0,1,0-2.22c2.45-2.56,7-14.8,7.5-18.41a49.91,49.91,0,0,0-.56-15.71c-.73-3.76-1.9-5.94-3.78-7.08s-4.12-1.13-6.22-1.21l-14.14-.5a10.38,10.38,0,0,0-2.58.12,4,4,0,0,0-2.64,2.27,5,5,0,0,0-.05,4.26c1.22,2.46,4.36,4.19,8,4.4,3.43.19,6.82-.76,10.56-1.93a1.57,1.57,0,1,1,.94,3c-3.9,1.21-7.72,2.28-11.68,2.06-3.79-.21-8.57-1.94-10.64-6.13a8.14,8.14,0,0,1,0-7,7.14,7.14,0,0,1,4.76-4,13.42,13.42,0,0,1,3.41-.2l14.14.5c2.36.09,5.3.19,7.73,1.66,3.51,2.12,4.67,6.25,5.25,9.17a53.13,53.13,0,0,1,.58,16.69c-.47,3.82-5.21,16.92-8.34,20.2A1.58,1.58,0,0,1,592.51,267Z"/><path class="cls-3" d="M565.51,253.49a1.57,1.57,0,0,1-1.55-1.37,9.55,9.55,0,0,1,1.44-5.66,33.54,33.54,0,0,1,15.84-14.56,1.57,1.57,0,1,1,1.29,2.86A30.44,30.44,0,0,0,568.16,248a6.77,6.77,0,0,0-1.09,3.77,1.57,1.57,0,0,1-1.36,1.76Z"/><path class="cls-3" d="M556.5,247.9a1.56,1.56,0,0,1-1.51-1.17,84.26,84.26,0,0,0-5-13.82,1.57,1.57,0,0,1,2.85-1.32A86.21,86.21,0,0,1,558,245.93a1.56,1.56,0,0,1-1.11,1.92A1.92,1.92,0,0,1,556.5,247.9Z"/><path class="cls-19" d="M723.58,417h-6.84l-.27-2.35H733.1l.28,2.35h-6.87l2.24,19.05h-3Z"/><path class="cls-19" d="M755.17,425.16c.89,7.37-3.35,11.27-9.1,11.27-6,0-10.65-4.38-11.41-10.86-.81-6.8,3.1-11.24,9.11-11.24S754.41,418.81,755.17,425.16Zm-17.42.35c.55,4.57,3.64,8.67,8.22,8.67s6.73-4,6.15-8.9c-.51-4.25-3.38-8.7-8.22-8.7S737.2,420.81,737.75,425.51Z"/><path class="cls-19" d="M767.93,417H761.1l-.29-2.35h16.64l.29,2.35h-6.87l2.33,19.05h-2.94Z"/><path class="cls-19" d="M782.85,414.68l1.11,8.95h10.88l-1.12-8.95h2.93l2.69,21.4H796.4l-1.26-10H784.26l1.24,10h-2.91L780,414.68Z"/><path class="cls-19" d="M814.77,426.05H806l1,7.72h9.76l.3,2.31H804.39l-2.7-21.4h12.13l.3,2.32h-9.24l.86,6.76h8.74Z"/><path class="cls-19" d="M743.92,464.8c-.52-3-1.15-6.58-1.43-9.25h-.1c-.48,2.51-1.1,5.18-1.89,8.14l-2.77,10.38h-2.21l-4.86-10.19c-1.42-3-2.65-5.78-3.59-8.33H727c.24,2.67.49,6.26.67,9.47l.46,9.18h-2.78l-.92-21.41h3.72l5.07,10.36c1.24,2.63,2.29,5,3.12,7.2h.11a69.94,69.94,0,0,1,1.53-7.2l2.8-10.36h3.71l4,21.41H745.6Z"/><path class="cls-19" d="M771,463.27c.89,7.37-3.36,11.28-9.14,11.28-6,0-10.7-4.39-11.47-10.86-.81-6.8,3.11-11.25,9.14-11.25S770.19,456.92,771,463.27Zm-17.5.35c.55,4.58,3.66,8.67,8.26,8.67s6.76-4,6.17-8.89c-.52-4.26-3.41-8.7-8.26-8.7S752.91,458.92,753.47,463.62Z"/><path class="cls-19" d="M794.07,463.27c.92,7.37-3.33,11.28-9.11,11.28-6,0-10.71-4.39-11.5-10.86-.83-6.8,3.08-11.25,9.11-11.25S793.28,456.92,794.07,463.27Zm-17.5.35c.56,4.58,3.69,8.67,8.28,8.67s6.75-4,6.15-8.89c-.53-4.26-3.42-8.7-8.28-8.7S776,458.92,776.57,463.62Z"/><path class="cls-19" d="M799.22,474.2l-2.67-21.41h3.18l8.6,10.83a70.26,70.26,0,0,1,4.94,7l.07,0c-.64-2.86-1-5.47-1.46-8.8l-1.13-9h2.75l2.72,21.41h-3l-8.55-10.86a79.29,79.29,0,0,1-5.12-7.15l-.1,0c.51,2.7.9,5.27,1.34,8.83L802,474.2Z"/><path class="cls-1" d="M906.31,322.07,979,248.45s12.27-6,27.07,14.61l-72.84,84.52S896.57,360.24,906.31,322.07Z"/><path class="cls-2" d="M987.32,237.94l-22.78,28.43A22,22,0,0,1,978,272.21c5.84,5.65,5.45,16.36,5.45,16.36l21.81-26.1L984.58,260Z"/><path class="cls-3" d="M927.44,355a1.54,1.54,0,0,1-1-.39,1.57,1.57,0,0,1-.15-2.22c20.49-23.37,75.37-88.7,75.93-89.36a1.57,1.57,0,0,1,2.4,2c-.55.66-55.46,66-76,89.41A1.54,1.54,0,0,1,927.44,355Z"/><path class="cls-3" d="M907.58,322.86a1.6,1.6,0,0,1-1.13-.47,1.58,1.58,0,0,1,0-2.22c.42-.42,42.52-41.64,56.1-54.64,12.52-12,13.9-14.57,13.95-14.68a.87.87,0,0,0-.07.19l3,.86c-.45,1.56-5.82,7.36-14.74,15.9-13.57,13-55.65,54.19-56.08,54.61A1.55,1.55,0,0,1,907.58,322.86Z"/><path class="cls-20" d="M993.81,152.11,983.06,267.39s-.92,6.34,5.94,10.19.93,4.83,18.59,2.66,45.95-2.61,47.32-8,6.2-50.74,6.2-50.74,8.3-63.51,7.39-69.35-4.88-12.66-9.43-12.48-56.55,5.14-60.51,7.51S993.38,149,993.81,152.11Z"/><path class="cls-21" d="M991,278.87s-1-6.51,0-22.5,10-103.94,10-103.94a205.64,205.64,0,0,1,25.89-3.81c16.12-1.5,39.28-3.81,39.28-3.81l-7.16-5.15s-57.31,5.54-62.25,7.55-6.72,37.06-6.72,37.06l-7,87.72A28.55,28.55,0,0,0,991,278.87Z"/><path class="cls-21" d="M1010.39,160.54c0,.92-3.5,29.2-3.5,29.2l14.18-.49,3.86-29.22Z"/><path class="cls-22" d="M1013.59,176.72a4.83,4.83,0,0,0-2,5.54c.53,1.77,1.71,3.52,3.9,3.19a4.32,4.32,0,0,0,3.6-3.76C1019.28,180.1,1017.65,174.48,1013.59,176.72Z"/><path class="cls-22" d="M1015,164.59a4.83,4.83,0,0,0-2,5.54c.52,1.77,1.71,3.52,3.9,3.19a4.33,4.33,0,0,0,3.6-3.76C1020.68,168,1019.05,162.35,1015,164.59Z"/><path class="cls-23" d="M996.36,283.14a8.06,8.06,0,0,1-8-8.8L999,157.14h0a8.11,8.11,0,0,1,7.1-7.28l55-6.42a8.07,8.07,0,0,1,9,8.87l-12.47,117.07a8,8,0,0,1-7,7.16l-53.2,6.54A8.51,8.51,0,0,1,996.36,283.14Zm5.77-125.71-10.66,117.2A4.92,4.92,0,0,0,997,280l53.21-6.54a4.9,4.9,0,0,0,4.29-4.37L1066.93,152a4.92,4.92,0,0,0-5.46-5.41l-55,6.42a5,5,0,0,0-4.34,4.45Z"/><path class="cls-23" d="M996.79,283.11c-3.53,0-8.34-3.72-10.73-6-1.78-1.73-4.74-5.05-4.48-7.91L992.25,152a8.1,8.1,0,0,1,7.09-7.28l55-6.42c3.47-.39,9.94,2.4,13.34,5.76,1.71,1.69,2.49,3.37,2.32,5a1.57,1.57,0,1,1-3.12-.34,3.79,3.79,0,0,0-1.41-2.42c-2.85-2.82-8.49-5.13-10.77-4.87l-55,6.42a5,5,0,0,0-4.34,4.45l-10.66,117.2c-.08.86,1,2.9,3.54,5.37,3.4,3.29,7.25,5.3,8.72,5.13a1.57,1.57,0,0,1,.39,3.12A5.3,5.3,0,0,1,996.79,283.11Z"/><path class="cls-23" d="M1008.27,192.55a2.92,2.92,0,0,1-2.08-.88,3.19,3.19,0,0,1-.88-2.6l3.2-27.78a3.05,3.05,0,0,1,2.71-2.73l12-1.08a2.94,2.94,0,0,1,2.37.9,3.14,3.14,0,0,1,.85,2.62l-3.59,27.74a3,3,0,0,1-2.69,2.68l-11.66,1.12Zm3.36-30.87-3.2,27.72,11.35-1.09,3.59-27.68Zm-1.56-.21h0Z"/><path class="cls-23" d="M1016.45,173.7l-.39,0a3.76,3.76,0,0,1-2.75-1.81,5.57,5.57,0,0,1-.77-3.62c.32-2.74,2.4-4.74,4.66-4.49a3.73,3.73,0,0,1,2.74,1.81,5.52,5.52,0,0,1,.78,3.62C1020.42,171.76,1018.55,173.7,1016.45,173.7Zm.36-9.35c-1.79,0-3.39,1.7-3.65,4a5,5,0,0,0,.68,3.21,3.18,3.18,0,0,0,2.29,1.53c1.91.22,3.69-1.55,4-3.94a4.92,4.92,0,0,0-.67-3.21,3.2,3.2,0,0,0-2.29-1.53Z"/><path class="cls-23" d="M1015.05,185.83l-.39,0a3.74,3.74,0,0,1-2.74-1.82,5.77,5.77,0,0,1,.8-7,3.64,3.64,0,0,1,5.83.67,5.6,5.6,0,0,1,.77,3.63C1019,183.89,1017.15,185.83,1015.05,185.83Zm.36-9.34a3.22,3.22,0,0,0-2.25,1,5.2,5.2,0,0,0-.72,6.19,3.16,3.16,0,0,0,2.29,1.52c1.9.22,3.69-1.54,4-3.94A5,5,0,0,0,1018,178a3.18,3.18,0,0,0-2.29-1.53Z"/><path class="cls-23" d="M1003.12,153.93a1.51,1.51,0,0,1-.5-.09,42.86,42.86,0,0,1-6.45-2.79,1.57,1.57,0,1,1,1.48-2.77,40.14,40.14,0,0,0,6,2.59,1.57,1.57,0,0,1-.51,3.06Z"/><path class="cls-23" d="M986.51,234.38c.47.12.93.25,1.39.41.24.08.48.16.72.26l.27.1.18.08-.11,0a19.5,19.5,0,0,1,2.55,1.36,1.58,1.58,0,0,0,2.14-.57,1.6,1.6,0,0,0-.56-2.14,19.72,19.72,0,0,0-5.75-2.48,1.57,1.57,0,1,0-.83,3Z"/><path class="cls-23" d="M989.35,198c.53.19,1.06.39,1.58.6l.21.09-.07,0,.42.18.71.33a29.27,29.27,0,0,1,3,1.63,1.58,1.58,0,0,0,1.59-2.72,32.89,32.89,0,0,0-6.57-3.1,1.58,1.58,0,0,0-1.93,1.09,1.6,1.6,0,0,0,1.1,1.93Z"/><path class="cls-1" d="M1077.29,233.07s-1.17,6.72-18.25,7.3-21.62-7.3-19.43-11.83a14.46,14.46,0,0,1,6.87-6.43s-12.86-4.38-11.4-12.26,16.22-6.87,17.24-6.87,6.13.44,6.13.44L1056,198s-16.94-1.61-18.84-8.62,7-11,21.32-7,17.82,7.45,15.78,13.43-10.52,10.08-10.52,10.08,9.35.15,12,6.14a8.85,8.85,0,0,1-2,10.07S1078.61,226.93,1077.29,233.07Z"/><path class="cls-3" d="M1061.41,206a18.07,18.07,0,0,1-2.65-.19,1.57,1.57,0,1,1,.45-3.11,15.13,15.13,0,0,0,13-4.25c1.57-1.7,2.23-3.53,1.85-5.13-1.22-5.24-7.14-9.85-12.44-9.69a74.21,74.21,0,0,1-9.61-.38c-1.92-.16-3.9-.33-6.27-.4a6.59,6.59,0,0,0-6.19,3.25,4,4,0,0,0,.66,4.52c2.83,3.55,12.81,5,16.41,5.26a1.57,1.57,0,0,1-.23,3.13,58.12,58.12,0,0,1-7.52-1.13c-5.53-1.21-9.27-3-11.12-5.3a7.12,7.12,0,0,1-1-7.89,9.82,9.82,0,0,1,9.11-5c2.44.08,4.47.25,6.42.42a74.94,74.94,0,0,0,9.25.36h.39c6.75,0,13.66,5.47,15.21,12.12.62,2.65-.3,5.48-2.6,8A18,18,0,0,1,1061.41,206Z"/><path class="cls-3" d="M1060.16,224.41a74.53,74.53,0,0,1-8.16-.49c-7.62-.86-13.17-3.42-15.62-7.2a9.55,9.55,0,0,1-.89-8.47c1.27-4,5.56-6,12.77-6h.2a52.72,52.72,0,0,1,9.81,1.07c6.25.7,17.09,2.67,20,8a6.19,6.19,0,0,1,0,5.91C1075.6,222.81,1068,224.41,1060.16,224.41Zm-11.82-19c-4.51,0-8.92.85-9.86,3.83A6.51,6.51,0,0,0,1039,215c1.91,2.93,6.77,5,13.34,5.79,17.1,1.93,21.84-2.28,23.14-5a3.07,3.07,0,0,0,.06-3c-1.64-3-8.26-5.37-17.71-6.42a.45.45,0,0,1-.16,0A48.21,48.21,0,0,0,1048.34,205.37Z"/><path class="cls-3" d="M1055.32,241c-7.14,0-14.4-1.69-16.85-7.11a7.33,7.33,0,0,1-.07-6.79c2.32-4.26,9-5.3,9.25-5.34a1.57,1.57,0,0,1,1.79,1.32,1.56,1.56,0,0,1-1.32,1.78c-1.5.23-5.66,1.35-7,3.75a4.33,4.33,0,0,0,.17,4c3.21,7.09,20.5,5.74,27.24,3.26,3.77-1.39,6.56-4.4,6.77-7.33.16-2.13-1.11-4-3.67-5.4a1.57,1.57,0,0,1,1.51-2.75c5,2.71,5.44,6.42,5.3,8.38-.31,4.18-3.86,8.22-8.82,10.05A46.38,46.38,0,0,1,1055.32,241Z"/><path class="cls-1" d="M1021.21,220s-.59,4.87-9.54,5.65-25.22.53-25.22.53l-4.09,31.26-4.58-8s-1.36-10.71-4.87-17.72,1-18.5,6.62-20.45,15-2.14,26.29-3.12,11.49-1.17,14.61,3.51S1021.21,220,1021.21,220Z"/><path class="cls-3" d="M978.27,253a1.57,1.57,0,0,1-1.57-1.47c0-.14-.91-13.73-5-20.61-2.41-4-2.24-9.9.42-15,2.51-4.8,6.64-7.83,11-8.13,2.83-.19,6.36-.29,10.11-.39,7.81-.22,16.66-.46,21.47-1.61,3.27-.79,6.25.74,8,4.08,2.08,4.05,2.05,10.6-1.32,13.53-5.12,4.44-26.5,4.09-29.19,3.88a1.57,1.57,0,1,1,.24-3.13c5.32.41,23.34,0,26.89-3.13,2-1.68,2.24-6.5.58-9.72-1.07-2.08-2.56-2.91-4.44-2.46-5.13,1.23-14.15,1.48-22.12,1.7-3.71.1-7.21.2-10,.38-3.31.23-6.48,2.64-8.48,6.45-2.16,4.15-2.36,8.82-.5,11.92,4.52,7.54,5.44,21.45,5.47,22a1.57,1.57,0,0,1-1.46,1.67Z"/></svg>