<svg id="Capa_2" data-name="Capa 2" xmlns="http://www.w3.org/2000/svg" xmlns:xlink="http://www.w3.org/1999/xlink" viewBox="0 0 1110 546"><defs><style>.cls-1{fill:#007fcc;}.cls-2{fill:#6fb7d6;}.cls-3{fill:#1b5186;}.cls-4{fill:#302a2a;}.cls-5{fill:#514545;}.cls-6{fill:#030304;}.cls-7{fill:#191717;}.cls-8{fill:#302929;}.cls-9{fill:#f1f3f3;}.cls-10{fill:#dedbe1;}.cls-11{fill:#fff;}.cls-12{fill:#d7dfe8;}.cls-13{fill:#fffffe;}.cls-14{fill:#b5bbc0;}.cls-15{fill:none;}.cls-16{fill:#514546;}.cls-17{fill:#312929;}.cls-18{fill:#302829;}.cls-19{fill:#0080ca;}.cls-20{fill:#027ecb;}.cls-21{fill:#1d1d1b;}.cls-22{fill:url(#Degradado_sin_nombre_2);}.cls-23{fill:#dedce0;}.cls-24{fill:#f2f3f2;}.cls-25{fill:url(#Degradado_sin_nombre_2-2);}.cls-26{fill:#3c3c3b;}</style><linearGradient id="Degradado_sin_nombre_2" x1="977.46" y1="169.3" x2="965.71" y2="130.85" gradientTransform="matrix(-1, 0, 0, 1, 1693.36, 0)" gradientUnits="userSpaceOnUse"><stop offset="0" stop-color="#fff"/><stop offset="1"/></linearGradient><linearGradient id="Degradado_sin_nombre_2-2" x1="923.37" y1="185.83" x2="911.63" y2="147.38" xlink:href="#Degradado_sin_nombre_2"/></defs><title>i</title><path class="cls-1" d="M925.6,135.87s6.19,3.68,14.41,9.66c2.52,8.64,11.14,13.1,13.87,21.84,2.32,7.43,2.78,8.15,7.59,14.27,4.34,5.52,8.92,14,13.64,19.2,2.42,2.67,2.88,12.55,4.5,15.77,1.85,3.69,1.94,10.26,2.49,14.35,1.18,8.79-.2,15.88.92,24.68-4.95-11.76-15.61-32.22-31-36-21.89-5.34-32.64-1.61-32.64-1.61Z"/><path class="cls-2" d="M976.56,217.31c-1.61-3.22-4.12-5.89-6.54-8.56Q963,201,956.45,192.67c-4.81-6.12-9.46-12.57-11.78-20-2.73-8.74-2.14-18.5-4.66-27.14,15.25,11.08,37.51,30.05,40.28,48,4.27,27.69,5.87,70.41,5.87,70.41s-1.07-3.41-3.14-8.34c-1.12-8.8-2.3-17.59-3.48-26.38C979,225.17,978.41,221,976.56,217.31Z"/><path class="cls-3" d="M985,264.35c-.13-.38-12.32-38.37-33.29-43.48-21.18-5.17-31.83-1.67-31.93-1.64a1.24,1.24,0,0,1-1.65-1.27l6.25-82.18a1.24,1.24,0,0,1,1.88-1,228.58,228.58,0,0,1,25.91,18.58c17.67,14.75,27.55,28.21,29.37,40,4.24,27.44,5.88,70.12,5.89,70.55a1.26,1.26,0,0,1-1,1.28h-.22A1.23,1.23,0,0,1,985,264.35Zm-64.25-47.94c3.93-.85,14.35-2.16,31.56,2,9.43,2.3,18.2,10.64,26.09,24.77a122.93,122.93,0,0,1,6.18,12.9c-.68-13.67-2.39-42.17-5.5-62.35-3.69-23.92-43.53-50.19-52.37-55.75Z"/><path class="cls-4" d="M695.66,356.55c1.16-3.19,9.08-16.28,9.94-19.57,1.53-5.9,6.73-19.32,9.84-24.57,2.74-4.61,4.61-13.07,9.25-15.77s11.49-5.58,12.8-10.79c1-4,2.42-1.5,3.15-5.6.62-3.46,5.75.11,7.86-2.7,5.89-7.8,12.89-14.74,18.41-22.8,4.45-6.5,8-14,8.56-21.78a22.38,22.38,0,0,1,2.24,5c3.16,10.47,1.28,21.87-2.5,32.13-3.43,9.3-8.36,17.95-13.27,26.56-4.43,7.75-9.84,15-13.27,23.25-12.17,29.25-26.52,46.7-37.74,52C709.25,364,692.87,364.2,695.66,356.55Z"/><path class="cls-5" d="M693.25,337.64c2.9-13.09,8-24.09,16.58-40.59,11.5-22.08,4.71-21.84,15.68-43.79s39.73-27.18,39.73-27.18l-1.64-.32c4.95-.69,9.2,2.75,11.87,7.21-.61,7.75-4.11,15.28-8.56,21.78-5.52,8.06-12.52,15-18.41,22.8-2.11,2.81-4.13,5.84-4.75,9.3-.74,4.1.57,8.41-.44,12.45-1.31,5.2-6.1,8.7-10.74,11.39s-9.72,5.28-12.46,9.89c-3.11,5.25-2.45,11.84-4,17.74-.86,3.29-2.4,6.36-3.56,9.55a44.07,44.07,0,0,0-1.63,24.05C697.45,378.26,688.49,367,693.25,337.64Z"/><path class="cls-6" d="M701,374.46c-9.12-2.6-12.4-16.09-9-37,0,0,0-.05,0-.07,2.88-13,7.88-24,16.7-40.9,5.77-11.09,6.84-16.35,8-21.91,1.09-5.38,2.23-10.94,7.69-21.86,9.28-18.57,30.52-25.39,38-27.26a1.27,1.27,0,0,1,1-.92c7.26-1,13.28,5.84,15.48,13.13,2.87,9.53,2,20.6-2.53,32.92-3.47,9.42-8.5,18.23-13.36,26.75-1.49,2.6-3.1,5.18-4.67,7.68a107.83,107.83,0,0,0-8.53,15.43c-7.55,18.15-16.4,32.92-25.6,42.7-7.23,7.69-14.22,11.76-20.06,11.76A11.21,11.21,0,0,1,701,374.46Zm64.43-147.15c-.28.05-28.27,5.38-38.83,26.51-5.31,10.62-6.41,16-7.48,21.24-1.12,5.49-2.27,11.17-8.21,22.56-8.7,16.71-13.64,27.53-16.46,40.25-3.11,19.24-.41,32,7.23,34.19,5.36,1.53,12.9-2.35,20.69-10.64,9-9.56,17.68-24.07,25.12-41.95a108.52,108.52,0,0,1,8.72-15.8c1.55-2.47,3.15-5,4.61-7.59,4.81-8.43,9.79-17.15,13.19-26.37,4.35-11.8,5.19-22.35,2.48-31.34-1.64-5.43-5.6-10.61-10.45-11.36A1.3,1.3,0,0,1,765.46,227.31Z"/><path class="cls-7" d="M834,542.79c-.94-.3-6.81-6-7.47-6.76-.92-1-1.94-11-2-12.36-.13-13.26-3.21-3.42-.71-16.45-22.34,6.26-17.23,14.45-37.17,2.58.36,12.51-1.86,14.05-3.8,26.41-.13.87-9.16,2.37-9.63,3.11-1.73,2.76-8.51,3.76-11.38,2.23-4.94-2.64-11.07-13.5-15.88-16.36l-1.37-82.35s71.4,17.78,91.23,15.65S948,464.2,948,464.2c-2.33,20.78-5,54.16-6.68,73.7-14.9,4.48-43.1,7.17-50.33,8.81C873.23,550.73,851.36,548.4,834,542.79Z"/><path class="cls-8" d="M760.64,519.87c2.88,1.53,7.1,2.71,8.83,0a6.5,6.5,0,0,0,.76-2.5,203.91,203.91,0,0,0,2.37-37.43c19.94,11.87,45.28,8.79,67.62,2.53A200.45,200.45,0,0,0,836.66,522a5.74,5.74,0,0,0,1,3.89,5.5,5.5,0,0,0,2.57,1.38c17.34,5.61,38.5,14,56.28,10,7.23-1.63,30.77-9.44,45.68-13.93-.8,9.49-1.54,19.15-2.25,29.28H746.82l-.81-41Q753.23,515.91,760.64,519.87Z"/><path class="cls-6" d="M861.66,475.8a173.2,173.2,0,0,1-22.25,9,112.13,112.13,0,0,1-23.34,4.86,82.1,82.1,0,0,1-21.58-.74A70.82,70.82,0,0,1,775,482.6a57.76,57.76,0,0,1-16.32-11.91c-.58-.61-1.14-1.24-1.69-1.88a1.27,1.27,0,0,1,0-1.76,1.26,1.26,0,0,1,1.76,0,54.61,54.61,0,0,0,15.27,12.23A67,67,0,0,0,792.65,486a77.73,77.73,0,0,0,20.59,1.35A103.8,103.8,0,0,0,836,483.18a157.09,157.09,0,0,0,21.7-8.27l2.69-1.27a1.28,1.28,0,0,1,1.7.45,1.26,1.26,0,0,1-.44,1.71Z"/><path class="cls-6" d="M793.65,488.71l-.24,15.73c-.07,4.39-.35,8.89.27,13.26a20.08,20.08,0,0,0,1.55,5.65,14.51,14.51,0,0,0,3.69,4.82,34.75,34.75,0,0,1,4.94,4.76,16.84,16.84,0,0,1,2.67,5.36c1.37,4.47,1.29,9.26,1.11,13.88-.06,1.6-2.55,1.61-2.49,0,.15-4,.26-8.18-.72-12.12a15.88,15.88,0,0,0-2.28-5.25,25.64,25.64,0,0,0-4.67-4.58,17.12,17.12,0,0,1-4.07-4.93,20.76,20.76,0,0,1-1.95-5.78c-.81-4.31-.64-8.73-.58-13.09l.27-17.71a1.25,1.25,0,0,1,2.5,0Z"/><path class="cls-6" d="M804.8,488.74a209.08,209.08,0,0,0-.3,29.93q.25,4.25.69,8.47a1.25,1.25,0,1,1-2.49,0,208.92,208.92,0,0,1-.92-29.91q.18-4.26.52-8.49a1.28,1.28,0,0,1,1.25-1.25,1.26,1.26,0,0,1,1.25,1.25Z"/><path class="cls-6" d="M949.27,464.2q-3.82,34.14-6.58,68.37-.8,10-1.49,20.06a1.28,1.28,0,0,1-1.25,1.25H754.67c-2.51,0-5,0-7.53,0h-.32a1.27,1.27,0,0,1-1.25-1.25l-.22-10.9-.51-26.19-.63-31.8-.55-27.39c-.09-4.43-.36-8.9-.26-13.32a1.15,1.15,0,0,0,0-.19,1.26,1.26,0,0,1,1.58-1.2q4.56,1.13,9.14,2.2,11,2.58,22,4.94c9,1.92,17.95,3.72,27,5.28a228.48,228.48,0,0,0,24,3.18,53.54,53.54,0,0,0,8.4,0c2.23-.2,4.46-.33,6.7-.37,6.86-.14,13.73.09,20.59.36,8.75.35,17.48.83,26.22,1.36s17.55,1.14,26.32,1.78q10.65.76,21.27,1.61l11,.89.48,0c1.59.13,1.6,2.63,0,2.49-2.54-.22-5.09-.42-7.63-.63q-9.67-.78-19.35-1.5-12.79-.94-25.6-1.78-13.37-.87-26.75-1.52c-7.48-.34-15-.64-22.46-.65-2.65,0-5.31,0-8,.18-2.29.13-4.55.39-6.85.36a156,156,0,0,1-22.4-2.35c-9.08-1.42-18.11-3.15-27.1-5q-12-2.48-24-5.27-6.51-1.5-13-3.09l-.59-.15,1.58-1.2.22,10.9.51,26.19.63,31.8.55,27.39.18,9a41,41,0,0,1,.08,4.29,1.21,1.21,0,0,0,0,.19l-1.25-1.25H932.1c2.49,0,5-.17,7.52,0H940l-1.25,1.25q2.41-34.26,5.91-68.43,1-10,2.16-20C947,462.62,949.45,462.61,949.27,464.2Z"/><path class="cls-9" d="M871.33,230.37c9.47-22.79,19-46,24.59-69.89q-.18,3.78-.61,7.54c-1.55,13.37-5.6,26.31-9.63,39.15q-5.64,18-11.27,35.91c-2.21,7-4.43,14.11-7.07,21-.36.94-.73,1.88-1.11,2.81-7,5.27-13.45,10-18.62,13.92,2.15-3.71,4.22-7.47,6.18-11.28C860.35,256.83,865.85,243.59,871.33,230.37Z"/><path class="cls-10" d="M803,334.22c-1.85,6.1-15.54-54.12-15.54-54.12l2.43-28.21q0-26.29,0-52.59c0-12.92,0-25.9,2.06-38.65,3.37-21.07,12.58-41.5,27.8-56.45s36.71-23.94,58-22.13c1,.08,1.92.2,2.88.33a176.45,176.45,0,0,1,13,44.54,162.68,162.68,0,0,1,2.3,33.54c-5.58,23.93-15.12,47.1-24.59,69.89-5.48,13.22-11,26.46-17.54,39.18-2,3.81-4,7.57-6.18,11.28-4.86,3.65-8.63,6.52-10.78,8.29C823.54,300,803.08,333.94,803,334.22Z"/><path class="cls-1" d="M903.5,209.41c-.31-9.68-2.62-19.19-3.24-28.85-1.56-24.26,7.54-48.38,5.17-72.58a87.52,87.52,0,0,0-4.1-18.92c11.61,6.11,21.25,15.81,26.34,27.87,3.07,7.3,4.48,15.18,5.7,23a567.73,567.73,0,0,1,6.4,66.35c-6.32,8-22.78,21.66-40.84,35.76C901.61,231.3,903.85,220.43,903.5,209.41Z"/><path class="cls-2" d="M874.41,243.08q5.64-18,11.27-35.91c4-12.84,8.08-25.78,9.63-39.15,1.58-13.66.51-27.51-1.69-41.08a176.45,176.45,0,0,0-13-44.54,62.42,62.42,0,0,1,20.72,6.66,87.52,87.52,0,0,1,4.1,18.92c2.37,24.2-6.73,48.32-5.17,72.58.62,9.66,2.93,19.17,3.24,28.85.35,11-1.89,21.89-4.57,32.63-10.95,8.54-22.47,17.23-32.7,24.87.38-.93.75-1.87,1.11-2.81C870,257.19,872.2,250.13,874.41,243.08Z"/><path class="cls-3" d="M938.52,206.28q-.93-24.53-3.95-48.91c-1-8-2.08-16.09-3.58-24.06-1.32-7.07-3.2-14.11-6.68-20.45-5.89-10.77-15.56-19.13-26.65-24.24a62.43,62.43,0,0,0-37.48-4.41,76.81,76.81,0,0,0-36.11,17.7,91.29,91.29,0,0,0-23.43,32.94c-5.81,13.55-8.38,28.06-9.11,42.73-.41,8.1-.37,16.22-.37,24.32v24.88q0,12.32,0,24.64c0,2-.32,4.11-.49,6.14l-1.83,21.27a8.78,8.78,0,0,1-.09,1c-.06.34,0,.21-.06-.05.12.38.22.75.33,1.13q.93,3.19,1.91,6.37c2.11,6.83,4.34,13.64,6.93,20.31a86.72,86.72,0,0,0,3.9,8.83,26.6,26.6,0,0,0,1.9,3.15,5.92,5.92,0,0,0,.74.88l.39.36c.17.14-.2-.14,0,0l.21.13c.35.17-.16,0,.15.06.08,0-.23.07.09,0-.11,0-.29.08-.11,0s-.19.19-.06,0-.13.19.12-.09,0,.14.15-.21c.1-.18.2-.36.28-.54a3.32,3.32,0,0,1,.18-.43,4.71,4.71,0,0,1,.33-.42c1.79-2.29,3.72-4.49,5.63-6.68,7.5-8.61,15.33-17.19,24.18-24.45,4.14-3.4,8.48-6.58,12.78-9.8q10.17-7.62,20.38-15.23,12-9,23.84-18.1c7.73-6,15.39-12,22.91-18.22,6.07-5,12.11-10.14,17.71-15.69a69.5,69.5,0,0,0,5.32-5.8c1-1.26,2.75.52,1.76,1.76-4,5.06-9,9.42-13.83,13.68-7,6.14-14.24,12-21.55,17.79C897.2,245,889,251.29,880.81,257.5q-11.38,8.63-22.85,17.14c-5.58,4.17-11.19,8.31-16.71,12.56a170.59,170.59,0,0,0-19.8,18.47q-5.26,5.64-10.27,11.52c-.93,1.09-1.86,2.19-2.76,3.3l-.37.45c-.24.3,0-.06,0,.07s.14-.33,0,.08-.22.53-.36.78a2.79,2.79,0,0,1-4.47.82c-1.73-1.4-2.85-3.62-3.84-5.57a147.43,147.43,0,0,1-7.95-20.31q-2.58-7.76-4.86-15.62a7.26,7.26,0,0,1-.1-2.94l.89-10.37c.58-6.74,1.37-13.48,1.37-20.25q0-25.22,0-50.43c0-15.9.31-31.92,4.29-47.4a103.5,103.5,0,0,1,17.76-37.2,83,83,0,0,1,31.93-25.48c12.42-5.52,26.28-7.87,39.77-5.72a63.69,63.69,0,0,1,33,16.07,56.52,56.52,0,0,1,11.33,14.58c3.47,6.49,5.38,13.62,6.72,20.82a479.41,479.41,0,0,1,6.16,49.27q1,12,1.42,24.14C941.08,207.89,938.58,207.88,938.52,206.28Z"/><path class="cls-3" d="M931.06,186.27l-18.47,18S928.62,201.68,931.06,186.27Z"/><path class="cls-3" d="M928.51,172.63l-18.47,18S926.07,188.05,928.51,172.63Z"/><path class="cls-3" d="M926.11,158.36l-18.47,18S923.67,173.78,926.11,158.36Z"/><path class="cls-11" d="M778.29,425.07c.52-4.48,1.26-9.07,3.56-12.95l19.33,14c11.42,8.26,23,16.6,36,21.9,9.68,3.93,20.38,6.06,30.68,5-5.2,8.43-9.55,14.09-9.55,14.09s-29.44,6.79-54.05,9.93c-9.13,1.16-18-2.79-25.6-8.23A175.81,175.81,0,0,1,778.29,425.07Z"/><path class="cls-12" d="M886.59,322.63a156.77,156.77,0,0,0-29,14.35,205.22,205.22,0,0,0-.55-42.63c-.22-1.9-.6-4-2.17-5.1-1.27-.88-2.94-.81-4.48-.64-21.34,2.37-40.36,19-45.5,39.89A245.64,245.64,0,0,0,783,274c-1.27-2.3-2.78-4.76-5.28-5.58-3.51-1.14-7,1.51-9.35,4.44,4.83-11.74,10.72-20.85,17-26.12L805,326.56s7.11-42.93,42.89-58.61,83.46-52.27,83.46-52.27,10.35-2.61,6.17,17.25-20.39,52.27-30.32,82.58c-.87,2.68-1.77,5.38-2.66,8.12a12.72,12.72,0,0,0-5.51-2.88C894.89,319.79,890.58,321.14,886.59,322.63Z"/><path class="cls-13" d="M756.16,333.29c.91-23,5.56-44.23,12.22-60.42,2.32-2.93,5.84-5.58,9.35-4.44,2.5.82,4,3.28,5.28,5.58a245.64,245.64,0,0,1,21.92,54.49c5.14-20.85,24.16-37.52,45.5-39.89,1.54-.17,3.21-.24,4.48.64,1.57,1.09,2,3.2,2.17,5.1a205.22,205.22,0,0,1,.55,42.63,156.77,156.77,0,0,1,29-14.35c4-1.49,8.3-2.84,12.46-1.88a12.72,12.72,0,0,1,5.51,2.88c-9.3,28.3-19.3,59.48-19.3,82.83,0,7.57-2.34,16-5.66,24-13.45-5.72-25.41-14.84-36.33-24.68-13-11.75-25-24.72-38.82-35.58-8.2-6.46-17.91-12.38-28.3-11.47-8.32.73-15.6,5.9-20.56,12.74C755.58,357.71,755.73,344.23,756.16,333.29Z"/><path class="cls-12" d="M776.15,358.76c10.39-.91,20.1,5,28.3,11.47,13.8,10.86,25.77,23.83,38.82,35.58,10.92,9.84,22.88,19,36.33,24.68A159.43,159.43,0,0,1,867.9,453c-10.3,1-21-1.09-30.68-5-13.06-5.3-24.62-13.64-36-21.9l-19.33-14c-2.3,3.88-3,8.47-3.56,12.95a175.81,175.81,0,0,0,.41,43.73c-12.86-9.23-21.94-22.73-21.94-22.73s-1.14-38.34-1.17-74.57C760.55,364.66,767.83,359.49,776.15,358.76Z"/><path class="cls-14" d="M797.92,478.3c-10.42-.86-21-6.61-30.7-16.63a83.71,83.71,0,0,1-11.54-15,1.34,1.34,0,0,1-.17-.58c0-.73-2.15-73.56-.6-112.87,1.51-38.12,13.72-74.08,29.69-87.45a1.28,1.28,0,0,1,1.19-.23,1.25,1.25,0,0,1,.82.89L805,321.13a101.28,101.28,0,0,1,7-18.55c10.5-21.32,25.09-31.22,35.48-35.77,35.24-15.44,82.73-51.76,83.2-52.12a1.35,1.35,0,0,1,.45-.22,6.69,6.69,0,0,1,6,1.63c2.93,2.82,3.51,8.57,1.72,17.08-2.37,11.25-8.61,26.62-15.22,42.9-5.3,13.05-10.79,26.55-15.13,39.82q-.87,2.66-1.76,5.34c-9.44,28.73-20.14,61.3-20.14,85.22,0,25.74-26.06,60-27.17,61.4a1.31,1.31,0,0,1-.61.43c-.09,0-9.45,3-21.53,5.72-13.36,3-24.65,4.51-33.69,4.51C801.54,478.52,799.67,478.44,797.92,478.3ZM884,406.46c0-24.32,10.76-57.09,20.26-86l1.76-5.33c4.37-13.36,9.87-26.9,15.19-40C927.79,259,934,243.7,936.32,232.67c2-9.46.56-13.24-1-14.75a4.14,4.14,0,0,0-3.45-1.07c-3.71,2.83-49.26,37.25-83.47,52.24-18.12,7.94-28.61,23.16-34.22,34.53a93.81,93.81,0,0,0-8,23.14,1.25,1.25,0,0,1-2.44.1l-19.12-77.8c-14.73,13.92-25.85,48-27.28,84.28-1.5,37.89.43,107.06.59,112.38,1.72,2.86,17.55,28.24,40.12,30.09,21.55,1.77,55.53-8.55,59.47-9.78C860.23,462.51,884,430.09,884,406.46Z"/><path class="cls-14" d="M803.6,332.63q-2.93,28.13-4.27,56.37-1.3,28-1,56.12.2,16,.9,31.94c.07,1.6-2.43,1.6-2.5,0q-1.23-28.24-.88-56.52.39-28.07,2.4-56.08,1.15-15.93,2.81-31.83a1.28,1.28,0,0,1,1.25-1.24,1.25,1.25,0,0,1,1.25,1.24Z"/><path class="cls-8" d="M948.48,260.42c-.18.3-.35.6-.54.9-3.85,6.2-7.22,13.4-11.79,19.09-3.76,4.68-8.77,7.82-12.34,12.63-6.59,1.54-27.14,6.68-38.87,13.64,11.73-7,32.28-12.1,38.87-13.64-14.34,19.31-14.88,49.09-27.89,69.34-2.46,3.82-17.43-1.83-19.1,2.4-2,5-3.15,11-7.72,13.76.65-9.17-12.07-22.77-8.06-31.05,3.25-6.7,8.31-16.44,12.27-22.74s2.32,2.65,1.25-4.71c-.09-.6,1.54,7.54,1.09,7.15s-3.26-7.19-3.89-7.15c-2.43.16,9.51-3.08,7.07-3.12s-4.69-7.53-4.8-10c-.11-2.12,5.4-14.58,7.11-15.83,8.86-6.45,17.2-20.19,27.39-24.22,4.94-2,5.75-11.27,9.78-14.73,4.29-3.68,5.18,2.62,7.6-2.49,4.05-8.57-3.12-.85.94-9.42,2.87-6.08,15.69-14.84,16.36-21.53.51-5.08,6-10.35,3.15-14.45,4.35,2.38,11.52,7.93,12.8,15.1a30.26,30.26,0,0,1,.39,3.14,93.18,93.18,0,0,1-3.52,21.1c-.35,1.09-.73,2.18-1.12,3.26A115.7,115.7,0,0,1,948.48,260.42Z"/><path class="cls-5" d="M948.48,260.26a115.7,115.7,0,0,0,6.43-13.53A78.23,78.23,0,0,1,948.48,260.26Z"/><path class="cls-5" d="M954.91,246.73c.75-1.08,3.44-10.54,4.73-10.73,1.78-.27,6.38-3.88,7.4-2.41,8.35,12,26.43,18.72,25.61,33.32-.28,5,2.86,19.44,1.25,24.22-5.22,15.45-4.34,39.92-16.9,50.33-8,6.61-22.94,41.47-31.83,46.78s-19.89-1.95-24.19,7.47c-4.57,10-19.73,7.2-24.18,17.23-6.3,14.21-21.6,21.87-36.07,27.52-3.28,1.28-6.61,2.55-9.92,3.88,2.91-36.65,9.38-100.52,14.52-121.1,6-24.05,25.88-51.23,34.57-67.43s26.85-25.61,34.17-33.46,6-19.85,6-19.85a27.66,27.66,0,0,1,8.81,3,22,22,0,0,1,3.43,14.66c-.67,6.69-3.59,12.92-6.46,19Q939.8,252,933.72,264.88c-2.42,5.11-5,10.38-9.25,14.06-4,3.46-9.22,5.18-14.16,7.13a129.84,129.84,0,0,0-28.73,15.79c-1.72,1.24-3.58,2.88-3.47,5,.11,2.44,2.86,3.95,5.3,4s4.79-.89,7.22-1.05a2.49,2.49,0,0,1,1.8.4,2.6,2.6,0,0,1,.69,1.64c1.06,7.37-2,14.72-6,21s-8.87,12-12.12,18.73c-4,8.28-5.26,17.61-5.91,26.79,4.57-2.82,5.75-8.77,7.72-13.77a70.18,70.18,0,0,1,6.59-11.9c13-20.25,26.06-40.53,40.4-59.84,1.33-.31,2.1-.47,2.1-.47a206.17,206.17,0,0,0,22.57-32.14,78.23,78.23,0,0,0,6.43-13.53c.25-.64.49-1.28.72-1.91"/><path class="cls-5" d="M956,243.46c-.13.45-.26.91-.4,1.36-.23.63-.47,1.27-.72,1.91C955.3,245.65,955.68,244.56,956,243.46Z"/><path class="cls-15" d="M955.63,244.82a93,93,0,0,0,3.92-22.46C960,228.43,958.89,235.93,955.63,244.82Z"/><path class="cls-8" d="M896.8,412.94c4.45-10,3.59-21.82,8.16-31.81,4.3-9.42,12.93-16.13,21.82-21.43s18.45-9.65,26.43-16.26c12.56-10.41,20.2-25.61,25.42-41.07a56.14,56.14,0,0,0,3.32-14.7c.81-14.61-7.91-27.84-16.26-39.85-1-1.47-2.44-3.12-4.21-2.86-1.3.2-2.19,1.36-2.94,2.44l-9.81,14a89.79,89.79,0,0,0,6.9-16.59c3.26-8.89,4.37-16.39,3.92-22.46h0c22.57,19.8,43,44.44,45.08,60.64s-24,64.82-35,105.59-17,106.41-17,106.41c-49.43,46.52-105.53,25.09-105.53,25.09s.76-30.1,2.6-59.89c.27-4.29.66-9.69,1.15-15.85,3.31-1.33,6.64-2.6,9.92-3.88C875.2,434.81,890.5,427.15,896.8,412.94Z"/><path class="cls-6" d="M846.62,521.25a1.23,1.23,0,0,1-.8-1.2c0-.3.78-30.47,2.6-59.94,1.86-30.15,9.72-113.24,15.7-137.17,4.43-17.7,16.2-36.95,25.65-52.41,3.44-5.63,6.69-10.93,9-15.31,6-11.16,16.32-19.12,24.62-25.52a86.76,86.76,0,0,0,9.74-8.2c6.83-7.33,5.72-18.76,5.71-18.87a1.28,1.28,0,0,1,.37-1,1.25,1.25,0,0,1,1-.34,28.78,28.78,0,0,1,9,3c6.15,3.26,10,8.36,11.15,14.73.15.83.27,1.74.36,2.74,20.38,17.95,42.83,43.31,45.12,61.09,1.21,9.39-6.53,28.78-15.49,51.23-6.91,17.32-14.75,37-19.56,54.84-10.83,40.2-16.93,105.55-17,106.21a1.21,1.21,0,0,1-.38.79c-25.82,24.3-53.48,29.91-72.13,30.33l-2.51,0C860,526.26,847.17,521.46,846.62,521.25Zm121.79-133c4.85-18,12.72-37.73,19.66-55.12,8.83-22.12,16.46-41.23,15.33-50-1.78-13.76-18.37-36.33-42.51-57.95-.08,12.44-6,34.45-34,68a1.24,1.24,0,0,1-.69.42c-.27.06-26.83,5.8-40.6,14a1.25,1.25,0,0,1-1.27-2.15c13.33-7.9,37.32-13.37,40.92-14.17,29.66-35.55,33.91-57.53,33.09-68.78a.37.37,0,0,1,0-.11,28,28,0,0,0-.37-2.94c-1-5.65-4.3-10-9.79-12.93a27.54,27.54,0,0,0-6.7-2.49c.09,3.68-.41,12.68-6.46,19.18a86.26,86.26,0,0,1-10,8.47c-8.11,6.26-18.2,14-23.94,24.73-2.38,4.44-5.64,9.78-9.1,15.43-9.37,15.32-21,34.39-25.36,51.71-5.94,23.8-13.78,106.64-15.63,136.72-1.64,26.57-2.43,53.7-2.58,59a101.31,101.31,0,0,0,32.93,4.53c18.14-.41,45-5.85,70.13-29.33C952,488.38,958,426.84,968.41,388.25Z"/><path class="cls-6" d="M902.23,299.65l-1.58,29.41-.79,14.64c-.26,4.85-.39,9.73-.81,14.57a13.77,13.77,0,0,1-1.89,6.42A38.32,38.32,0,0,1,893,369.6q-4.38,4.75-8.48,9.75a225.82,225.82,0,0,0-15.22,20.91,230.21,230.21,0,0,0-12.78,22.59c-.47,1-.93,1.92-1.39,2.89a1.26,1.26,0,0,1-1.71.45,1.28,1.28,0,0,1-.45-1.71,227.43,227.43,0,0,1,12.4-22.68,229.9,229.9,0,0,1,14.89-21.11q4-5.07,8.3-9.91c1.42-1.59,2.86-3.15,4.31-4.71a12.61,12.61,0,0,0,3.24-5,30.86,30.86,0,0,0,.7-6.72l.39-7.26.79-14.64,1.57-29.15.19-3.63c.09-1.59,2.58-1.6,2.5,0Z"/><path class="cls-16" d="M740.9,380.61c4-.57,16.71,2.31,19.28,5.44,1.68,2,7,6.67,7.13,9.3,1,16.69-3.83,36.5-5.15,53.17-.72,9.07-1.6,45-2.32,54.11-5.8-1.14-17.37-3.31-22.39-6.43,2.15-14.74.09-53.4-1-68.25-.81-11.52-1-23.06-.86-34.6C738.48,392.56,738,381,740.9,380.61Z"/><path class="cls-16" d="M760.73,301.27c-.07,4.35-5.69,20.79-7.11,24.9-3.17,9.15-12.27-.42-15.59,8.69.94-16.41,2.3-32.78,5.41-48.9.82-4.27,5.6-21.35,6.7-25.57.89,3.61,4.55,10.59,5.45,14.2S760.8,297.62,760.73,301.27Z"/><path class="cls-17" d="M757.71,401.64c-.15-2.63-.43-5.45-2.11-7.49-2.57-3.13-7.3-3.19-11.31-2.62a69.4,69.4,0,0,0-8.66,1.82c.18-14.31.89-28.64,1.59-42.93.25-5.19.51-10.38.81-15.56q5-13.67,9.75-27.39c1.42-4.11,2.84-8.31,2.92-12.66A41.58,41.58,0,0,0,749,284q-1.35-5.42-2.69-10.83c4.34-16.75,11-32.92,20.88-47,.78-1.1,1.74-2.28,3.08-2.37,1.89-.11,3.08,1.93,3.81,3.67l7.24,17.22c2.6,6.22,1.71,7.54-.62,13.73a137.26,137.26,0,0,0-7.47,32c-2.65,21.85-1.54,43.93-1.78,65.88-.23,21.48-1.82,42.93-3.42,64.35,0,10.33-1.56,20.91-2.32,31.21-.61,8.16-4.26,44.59.34,51.6a48.6,48.6,0,0,1-12.16-.84c.71-9.08,1.43-41.84,2.15-50.91C757.36,435.06,758.68,418.33,757.71,401.64Z"/><path class="cls-6" d="M769.28,420.66c0,9-1.16,18-2,26.94-.38,4.17-.7,8.35-1,12.52-.82,10.29-1.58,20.66-1.19,31a56.28,56.28,0,0,0,.63,7.22,12.24,12.24,0,0,0,1.4,4.52,1.26,1.26,0,0,1-1.07,1.88,50.87,50.87,0,0,1-29.23-7.45,1.31,1.31,0,0,1-.57-1.41,111.94,111.94,0,0,0,.85-13.94c.11-6.09,0-12.18-.14-18.26q-.44-16.73-1.56-33.41c-1.13-17-1.24-34-.69-51,.59-18,1.41-35.92,2.67-53.84,2.32-32.93,7.67-67,25.73-95.35,1-1.63,2.09-3.26,3.24-4.81a5.62,5.62,0,0,1,3.59-2.61c3.67-.5,5.09,3.94,6.2,6.57l5.11,12.15c1.32,3.15,3.16,6.56,2.87,10.09-.26,3.23-1.87,6.29-2.94,9.3a121.63,121.63,0,0,0-3.68,12.54,172,172,0,0,0-3.9,25.92c-1.42,17.91-.78,35.89-.88,53.84-.09,18.14-1.17,36.25-2.46,54.34q-.48,6.66-1,13.3c-.12,1.6-2.62,1.61-2.5,0,1.32-17.73,2.64-35.47,3.19-53.24s-.11-35.25.36-52.88c.45-17,2-34.21,7.12-50.51,1.14-3.62,2.74-7.11,3.79-10.75.9-3.13-.13-5.85-1.34-8.75-1.69-4.06-3.4-8.1-5.1-12.16a49.16,49.16,0,0,0-2.48-5.67,3.57,3.57,0,0,0-1.31-1.49c-1.07-.5-1.91.5-2.5,1.27a82.81,82.81,0,0,0-6.28,9.84c-1.94,3.4-3.72,6.9-5.36,10.46a155.81,155.81,0,0,0-8.14,22.28c-4.64,16.23-7,33-8.36,49.81-1.45,17.48-2.17,35.06-2.88,52.59-.71,17.71-1,35.47,0,53.17.65,10.7,1.34,21.39,1.72,32.1.41,11.27.77,22.64,0,33.9-.13,2-.32,3.94-.6,5.9l-.57-1.41a48.39,48.39,0,0,0,28,7.1L765,504.1c-1.83-2.86-2-6.88-2.23-10.16a148.91,148.91,0,0,1-.07-15.67c.34-9.08,1.14-18.13,1.85-27.2.79-10.13,2.24-20.22,2.26-30.41A1.25,1.25,0,0,1,769.28,420.66Z"/><path class="cls-6" d="M775.73,230.33A222.48,222.48,0,0,0,763,254.07c-.93,2-1.84,4.11-2.72,6.18s-1.8,4.11-2.48,6.22a3.47,3.47,0,0,0,.13,2.72,21,21,0,0,0,1.55,2.62c1.08,1.66,2.25,3.27,3.4,4.89,2.59,3.64,5.1,7.42,6.28,11.78a1.25,1.25,0,0,1-2.41.67c-1-3.88-3.26-7.26-5.55-10.52-1.16-1.65-2.36-3.28-3.48-5s-2.57-3.64-2.65-5.8a8.23,8.23,0,0,1,.8-3.33c.41-1.05.82-2.09,1.25-3.13.89-2.17,1.82-4.34,2.77-6.49q2.79-6.25,6-12.33,3.6-6.89,7.69-13.52c.84-1.36,3-.11,2.15,1.26Z"/><path class="cls-6" d="M764.77,280.58,758.06,306l-6.71,25.37-1.66,6.31a44,44,0,0,0-1.36,6c-.52,4.2,1.12,8.11,2.48,12l8.69,24.76L768.14,405l1.1,3.14a1.25,1.25,0,0,1-.87,1.53,1.26,1.26,0,0,1-1.53-.87l-8.73-24.87-8.77-25c-1.39-4-3.19-8-3.57-12.2s1.17-8.45,2.23-12.46l6.77-25.62,6.74-25.5.85-3.22a1.25,1.25,0,0,1,2.41.67Z"/><path class="cls-11" d="M937.39,204.93s-1.45,5.23-14.69,16-53.23,33.29-64.47,38.68c-20.67,9.93-49.6,32.29-54.13,62.61,0,0-4.66-30.55-7.89-44.37-3-12.79-10.58-29.39-7.9-44.37,0,0-7.09,2.79-11.62,11.85s-3.06,26.48-3.06,26.48,3.6-19.46,11.08-14.64,18.29,77,18.29,77,8.54-45,46.17-64.82c0,0,9.06.7,10.11,15.68,0,0,27.87-14.63,46.69-32.41S943.37,217.48,937.39,204.93Z"/><path class="cls-14" d="M803,335.46a1.24,1.24,0,0,1-1.21-1.06c-4.16-27.69-12.64-72.85-17.74-76.15a2.5,2.5,0,0,0-2.55-.37c-3.16,1.36-5.74,9.42-6.62,14.19a1.25,1.25,0,0,1-2.47-.12c-.06-.73-1.45-17.88,3.19-27.15s12-12.33,12.27-12.45a1.24,1.24,0,0,1,1.68,1.38c-1.92,10.79,1.69,22.66,4.87,33.14,1.15,3.79,2.23,7.36,3,10.73,2.28,9.74,5.29,27.92,6.86,37.75,3.13-11.51,9.81-22.56,19.94-32.92a121.77,121.77,0,0,1,33.47-23.91c12-5.76,51.24-27.93,64.22-38.52,12.49-10.19,14.25-15.3,14.28-15.42a1.27,1.27,0,0,1,1.09-.89,1.25,1.25,0,0,1,1.24.71c6.33,13.27-11.95,30.53-31.3,48.81l-.39.37c-18.73,17.69-46.69,32.46-47,32.61a1.26,1.26,0,0,1-1.19,0,1.24,1.24,0,0,1-.64-1c-.85-12.21-7.12-14.18-8.63-14.48-18.91,10.12-30.16,26.8-36.28,39.06a106.46,106.46,0,0,0-8.89,24.7,1.25,1.25,0,0,1-1.23,1Zm1.12-12a1.25,1.25,0,0,1-1.23-1.06c0-.31-4.69-30.66-7.88-44.28-.77-3.28-1.84-6.82-3-10.57-3-10-6.43-21.15-5.29-31.81a25.47,25.47,0,0,0-8.91,10.13c-2.37,4.75-3,12-3.14,17.63,1.31-3.41,3.22-6.84,5.82-8a5,5,0,0,1,4.89.58c1.27.81,5.12,3.3,12.5,41.12,2.34,12,4.31,23.81,5.41,30.69.39-1.37.88-2.93,1.47-4.66A1,1,0,0,1,804.1,323.5Zm45.17-55.34c.39,0,9.35.88,11.07,14.93,6.24-3.43,28.9-16.33,44.78-31.32l.39-.38c16.56-15.63,33.63-31.76,31.59-43.3-1.77,2.68-5.58,7.29-13.61,13.84-13.11,10.7-52.65,33-64.72,38.84-21.61,10.38-48.25,32.29-53.2,60.24a119.5,119.5,0,0,1,5.29-12.31c6.32-12.68,18-30,37.73-40.4a1.19,1.19,0,0,1,.58-.15Z"/><path class="cls-5" d="M727.83,374.19c-7.33,1.62-20.73,2.87-28.1,1.42-6.82-1.34-6.44-19.34-8-26,.26-2,.51-4,.68-6C694,325.69,736.9,320,736.9,320c36.94-19.06,47.89-8.26,47.89-8.26-6.82-4.65-5.74,10.18-2.6,21.14.79,2.76,6.14,16.1,7.36,18.95-4.79,3.09-12.35,5.41-17.61,7.56C758.77,364.8,741.72,371.12,727.83,374.19Z"/><path class="cls-18" d="M691.74,349.63c1.55,6.64,8.18,11.48,15,12.82,7.37,1.45,15-.26,22.29-1.88,13.89-3.07,27.93-5.9,41.1-11.28a92,92,0,0,0,15.18-7.83,157.85,157.85,0,0,0,8.17,16.2s-35.67,7.57-46.21,12.63-32.32,12-47.66,9.94C686,378.39,689.66,365.1,691.74,349.63Z"/><path class="cls-6" d="M692.42,350.16a1.25,1.25,0,0,0,1.24-1.11c.06-.56.12-1.12.18-1.7.19-1.83.25-2.8.3-3.5a19.87,19.87,0,0,1,.71-4.26,1.25,1.25,0,0,0-2.44-.54,22.24,22.24,0,0,0-.76,4.64c0,.69-.11,1.63-.29,3.41-.06.56-.12,1.13-.18,1.68a1.26,1.26,0,0,0,1.1,1.38Z"/><path class="cls-6" d="M707.39,382.24c10,0,19-3.29,28.54-6.75a153.6,153.6,0,0,1,19.14-6c18.66-4.15,38.6-10.59,38.8-10.65a1.26,1.26,0,0,0,.77-.73,1.21,1.21,0,0,0-.06-1.05c-7.43-13.77-17.75-37.41-13.79-42.25.76-.93,2.27-1.06,4.49-.38a1.26,1.26,0,0,0,1.23-.3,1.23,1.23,0,0,0,.33-1.23c-.07-.27-.82-2.63-4.14-4.29-7.38-3.69-20.06-.16-29.39,3.46-28.63,11.08-45.68,25.82-45.85,26a1.25,1.25,0,0,0,1.64,1.88c.17-.15,16.92-14.61,45.11-25.52,8.86-3.44,20.81-6.84,27.38-3.56a8.25,8.25,0,0,1,1.09.66,4.81,4.81,0,0,0-3.82,1.73c-2.83,3.45-1.39,11.9,4.4,25.82,3.22,7.72,6.91,15,8.42,17.86-4.86,1.54-21.47,6.66-37.15,10.14a156,156,0,0,0-19.45,6.09c-10.48,3.81-20.39,7.41-31.39,6.43-5-.44-8.2-1.68-10-3.89-3-3.7-2.11-10.37-.91-19.59.29-2.24.59-4.55.86-7.05a1.24,1.24,0,0,0-1.1-1.37,1.25,1.25,0,0,0-1.38,1.1c-.27,2.47-.57,4.77-.86,7-1.28,9.83-2.2,16.94,1.45,21.48,2.23,2.77,5.94,4.3,11.7,4.81C704.79,382.19,706.1,382.24,707.39,382.24Z"/><path class="cls-6" d="M735.77,321.24a87.43,87.43,0,0,0-23.63,7,1.25,1.25,0,1,1-1.26-2.15,88.93,88.93,0,0,1,24.23-7.27,1.28,1.28,0,0,1,1.53.87,1.26,1.26,0,0,1-.87,1.53Z"/><path class="cls-2" d="M747.48,321.81c-7.19-1.88-10.75-3.78-18.06-2.67.5-2.4,2.37-11.56,3.5-13.74,3.11-6,9.07-10.24,15.57-12.08s13.49-1.43,20,.27a52.76,52.76,0,0,1,29.89,21l-.48-.33c-3.85,5-14.24,16.46-18.61,21-1.32-.67-8.6-1.91-9.87-2.61C760.18,327.55,757.71,324.48,747.48,321.81Z"/><path class="cls-19" d="M752.69,313.78c10.23,2.67,19.73,7.56,29,12.65,1.28.7,2.57,1.41,3.89,2.07a170.5,170.5,0,0,1-13,12.1c-1.82,1.54-3.92,3.12-6.3,3s-4.26-1.88-6-3.46a85.79,85.79,0,0,0-30.87-17.92,76,76,0,0,1,1.14-9.89A55.37,55.37,0,0,1,752.69,313.78Z"/><path class="cls-3" d="M797.33,315.22a51.53,51.53,0,0,0-27.07-19.84c-6.38-1.95-13.29-2.74-19.86-1.26a25.46,25.46,0,0,0-14.1,8.4c-4.55,5.52-5.16,12.84-5.63,19.69l-.92-1.2a87.72,87.72,0,0,1,29,16.12c1,.88,2.06,1.8,3.09,2.71a11.6,11.6,0,0,0,3,2.16c2.4,1,4.63-.46,6.45-1.95a159.59,159.59,0,0,0,12.81-11.86,174.59,174.59,0,0,0,12.91-14.81,1.24,1.24,0,0,1,1.76,0,1.26,1.26,0,0,1,0,1.76,173.47,173.47,0,0,1-24.63,25.76c-2.15,1.82-4.51,3.87-7.48,4-2.8.07-5-1.81-7-3.58a86.2,86.2,0,0,0-13.43-10,83.61,83.61,0,0,0-17.18-7.86,1.29,1.29,0,0,1-.92-1.21c.46-6.65,1-13.68,4.83-19.39a26.79,26.79,0,0,1,14.07-10.37c6.87-2.25,14.39-1.92,21.33-.18a53.33,53.33,0,0,1,16.52,7.36A54.09,54.09,0,0,1,799.48,314a1.25,1.25,0,0,1-.44,1.71,1.27,1.27,0,0,1-1.71-.45Z"/><path class="cls-5" d="M1004.75,302c.48,12.17-5,29.12-11.38,39.48-3.2,5.19-12.68,15-17.43,18.86-3.8,3-13.42,23.87-18,25.61-12.72,4.84,1.55-15.51-11.91-13.52,7.33,3.19-28.57,36.35-20.63,35.39-12.85,9.22-24.31,13-38.24,20.46-8.2,4.39-17,6.9-26,9.07-1.13.27-11.49-3.05-12.61-3.38s-4.91-4.41-5.87-5.16c-10.38-8.18-10.56-5.63-21.16-13.52-4.95-3.68-12.08-9.39-15.12-14.76-3.67-6.5-3.58-13.19-10.49-16-4.8-2-6.93-7.26-10.85-10.65-5.06-4.36-11.6-16.29-12.27-22.94-1.33-13.26,4-31.47,12.89-36.93a34.81,34.81,0,0,1,15.44-3.27s46.1,53.89,64.69,66.59c0,0,4.14-3.69,7.27.15,0,0-.15-13.6,14.12-31.54s31.14-46.79,35.34-51.62,19.84-20.11,30.43-23.42c3.86-1.21,11-3.71,19.21-4.33,5.37,7.81,18.06,6.58,22,15.18C997.12,287.91,1004.48,295.15,1004.75,302Z"/><path class="cls-8" d="M785.72,314c-5.27,12.13-6.33,26-5,39.25.67,6.65,2.2,13.78,7.25,18.15,3.92,3.39,9.25,4.48,14,6.44a33.94,33.94,0,0,1,16.74,14.28c3,5.38,4.59,12,9.54,15.65,10.6,7.89,27.87-3.36,38.25,4.82a9.88,9.88,0,0,0,3,2,6.61,6.61,0,0,0,3.44-.16c9-2.17,17.35-6.61,25.55-11,13.93-7.47,27.91-15,40.76-24.18a45.56,45.56,0,0,1-23.46-3.43,188.29,188.29,0,0,0,39.42-10.29c4.55-1.73,9.1-3.68,12.9-6.73,4.75-3.81,8-9.11,11.24-14.3,6.39-10.37,13-21.55,12.52-33.72-.27-6.82-2.79-13.35-5.65-19.55a168.09,168.09,0,0,0-14.06-24.69c14.23-1.09,31.52,3.51,39.86,30.46,6.55,21.18-4.91,49.42-16.48,64.78-18.71,24.86-36.9,41.05-86.66,65.82s-56.17,28.84-73.41,10.79-58-68.71-69.46-89.05l-5.68-7.79S768.57,321.89,785.72,314Z"/><path class="cls-6" d="M855.91,449.78c5.53,0,12-1.37,19.53-4.12,12.8-4.67,26.36-12.51,37.26-18.82,3.34-1.93,6.5-3.76,9.28-5.29,36.24-19.93,61.36-39.81,74.65-59.08,19-27.51,23.46-51.76,13.71-74.15a38.23,38.23,0,0,0-19.8-20c-10-4.31-21.92-4.27-34.55.11-26.74,9.26-40.28,31.54-56,57.35l-.63,1c-5.21,8.59-9.87,15.18-13.61,20.47-8.12,11.49-13,18.43-13.75,30.81l-1,17.77a1.25,1.25,0,1,0,2.49.15l1-17.77c.69-11.67,5.44-18.39,13.3-29.52,3.76-5.32,8.44-12,13.71-20.61l.62-1c16.07-26.44,28.76-47.32,54.65-56.29,27.68-9.58,44.9,4,51.24,18.56,9.38,21.54,5,45-13.48,71.75-13.06,18.94-37.89,38.56-73.79,58.31-2.81,1.54-6,3.37-9.33,5.31-21.12,12.22-53,30.69-68.23,18.68-10.68-8.45-33.71-32.54-51.47-59.65-9-13.81-27-38.28-29.94-42.34a63.62,63.62,0,0,1,9.37-14.7c8.41-9.78,18.25-14.73,29.27-14.73h.14c5,5.66,51.73,58.32,65.36,66.9a1.25,1.25,0,0,0,1.33-2.11c-13.8-8.69-64.67-66.28-65.19-66.86a1.22,1.22,0,0,0-.91-.42c-11.93-.21-23,5.19-31.94,15.66a63.24,63.24,0,0,0-10,16,1.26,1.26,0,0,0,.15,1.2c.21.28,20.48,27.85,30.28,42.81a357.44,357.44,0,0,0,22.82,30.34c7.6,9.12,18.84,21.71,29.2,29.9C845.44,448.29,850.15,449.78,855.91,449.78Z"/><path class="cls-6" d="M872,379.32a8.63,8.63,0,0,0-1.28-2.3,1.82,1.82,0,0,0-1.81-.73c-.57.22-.83,1-1,1.49-.39,1.09-.74,2.18-1.1,3.27l-4.44,13.26c-.51,1.52-2.92.87-2.4-.66l4-12a54.51,54.51,0,0,1,2-5.6,3.71,3.71,0,0,1,4.27-2.22c2.08.49,3.17,2.39,4,4.2a1.29,1.29,0,0,1-.45,1.71,1.26,1.26,0,0,1-1.71-.45Z"/><path class="cls-2" d="M877.64,379.67l.5-.05c-.09-1.52-.24-2.57-.24-2.58l-.49,0A18.58,18.58,0,0,0,877.64,379.67Z"/><path class="cls-19" d="M869.81,333.42c1.54-3.73,13.66,7.54,18,13.38,3.6,4.84,8.71,10.85,8.71,15.68-.87.48-2.76-.35-6.83-3.55a52.52,52.52,0,0,0-6.56-9.75C878.65,343.94,873.1,339.48,869.81,333.42Z"/><path class="cls-2" d="M846.73,362.61c-5.48-9.79-13.49-20.47-20.55-29.19-3.84-4.76-9.73-10-11.73-15.79,14-1.45,43.64-3.23,52.17,4.72,12.63,11.78,31.71,28.75,30.88,33.82-.44,2.68.2,5.67-1,6.31q-5.57-7.11-11-14.37c-4.34-5.85-9-12.05-15.75-14.69,3.29,6.06,8.84,10.52,13.32,15.76a52.52,52.52,0,0,1,6.56,9.75c-.81-.63-1.7-1.36-2.7-2.19a76.48,76.48,0,0,1,2.09,20.66c-.3,5.29-.46,8.76-1.27,10.54-.3-.73-4.52,1.33-4.73.58-1.18-4.12-1.63-8.18-2.47-12.38-2.78-13.78-8.55-27.88-18.18-38.12,1.52,6.13,7.6,9.91,10.93,15.28,3.15,5.09,3.67,11.34,3.86,17.32q.27,8.42-.1,16.81c0,.45,0,.91-.07,1.36-.8,2.09-2.26,3.35-4.82,2.46a5.13,5.13,0,0,1-1.13-.55c-.25-1.61-3.69-6.18-3.65-7.8.1-4.32-1.8-6.9-2.32-11.2-.71-5.88-1.67-9.56-4.8-14.59-2.68-4.3-4.38-8.47-7.29-12.62-2-2.93-.84-4.42-4.23-3.29,1.49,2.29,1.74,2.11,3.32,4.35a53.68,53.68,0,0,1,9.4,26.41c-.77,4.69-2.24,11.22-4.77,14.38.09-.83-4.51,1.48-4.43.65C853.18,378.07,851.11,370.43,846.73,362.61Z"/><path class="cls-19" d="M809.69,318.3s4.68-.81,11.42-1.51a53.21,53.21,0,0,0,8.85,16c7.06,8.72,16.89,15.22,22.37,25,4.38,7.82,5.55,17.14,4.7,26.07-.08.83-.18,1.67-.27,2.5-1.5,1.88-3.38,2.57-5.71,1-8.83-6.05,5.34-11.84-6.16-27.48s-14.16-19.61-21.1-26.31S807.83,320.86,809.69,318.3Z"/><path class="cls-19" d="M877.22,370.62c-.19-6-.71-12.23-3.86-17.32C870,347.93,864,344.15,862.43,338c9.63,10.24,19.66,21.25,22.44,35,.85,4.2,1,8.54,2.16,12.66a22.67,22.67,0,0,0,.78,2.23c-.76,1.68-2.11,1.85-4.73.58-3.52-1.7-4.76-6.06-5.19-8.89-.09-1.52-.23-2.56-.23-2.56a18.71,18.71,0,0,0,.23,2.56c.16,2.58.18,6.52-.84,9.16,0-.45.05-.91.07-1.36Q877.5,379,877.22,370.62Z"/><path class="cls-19" d="M847.32,338.91c3.39-1.13,6.54,2.12,8.59,5q4.37,6.23,8.39,12.68c3.13,5,6.16,10.35,6.87,16.22.52,4.3-.24,8.64-.35,13a27.51,27.51,0,0,0,.28,4.88c-6.81-4.29-8.86-24.12-8.86-24.12s-.21,2.29-.71,5.38a53.68,53.68,0,0,0-9.4-26.41C850.55,343.31,848.81,341.2,847.32,338.91Z"/><path class="cls-3" d="M809.69,317.05c8.74-.43,17.47-1,26.21-1.46a74.76,74.76,0,0,1,15,.36,50.65,50.65,0,0,1,12,3.12,28.13,28.13,0,0,1,5.45,2.95,32.1,32.1,0,0,1,4.39,3.93c2.8,2.86,5.69,5.62,8.53,8.45,3,3,6,6,8.68,9.28a53.67,53.67,0,0,1,6.81,9.78c.43.83.82,1.68,1.18,2.54a7.39,7.39,0,0,1,.78,2.45,6.58,6.58,0,0,1-.63,2.44,4,4,0,0,1-1.17,2.05c-1.48,1.13-3.61.42-5.12-.27a15.13,15.13,0,0,1-4.31-3.27,10.4,10.4,0,0,1-1.59-2,1.25,1.25,0,0,1,2.15-1.26,11.63,11.63,0,0,0,3.34,3.4,6.28,6.28,0,0,0,3.84,1.51c-.22,0,.29-.07.14,0s.06,0,.07,0-.05.06,0,0c-.09.12,0-.08,0-.06,0-.17.11-.33.17-.5.13-.34.27-.68.38-1,.06-.18.11-.35.16-.53a1.6,1.6,0,0,0,0-.21c.08-.39,0,.09,0-.1s.09.25,0,0c0-.07,0-.15-.08-.23s-.14-.41-.22-.61-.25-.68-.39-1c-.34-.79-.72-1.56-1.13-2.32-3.64-6.8-9.2-12.48-14.61-17.88-2.7-2.7-5.45-5.33-8.13-8a42.12,42.12,0,0,0-3.92-3.76,25.1,25.1,0,0,0-4.91-2.91,44.79,44.79,0,0,0-11.13-3.15,64.38,64.38,0,0,0-13.87-.6c-8.42.38-16.83.95-25.24,1.41l-2.92.15c-1.61.08-1.6-2.41,0-2.5Z"/><path class="cls-3" d="M870.66,334c3.26,4.13,7,7.87,10.4,11.85a63.06,63.06,0,0,1,5,6.48,20.46,20.46,0,0,1,2.11,4.11,21.43,21.43,0,0,1,1.07,4.9c.43,3.39.57,6.84.77,10.26s.35,6.93.47,10.39c.09,2.78.33,6.33-2.58,7.82a6.4,6.4,0,0,1-6.94-1.17c-1.73-1.51-2.45-4.1-3-6.23a37.61,37.61,0,0,1-1.4-7.05,1.25,1.25,0,0,1,2.5,0c0,.18,0,.35.05.52l0,.23c0-.28,0,.13,0,.15.07.46.15.92.23,1.37.2,1.06.44,2.11.71,3.15a18.66,18.66,0,0,0,2,5.28c0,.07.36.48.17.26a4.7,4.7,0,0,0,.49.51,4.36,4.36,0,0,0,1.14.71,3.83,3.83,0,0,0,2.59.21,2.38,2.38,0,0,0,1.53-2,17.93,17.93,0,0,0,0-4.27c-.21-6.41-.46-12.86-1.11-19.25a18.41,18.41,0,0,0-2.6-8.12,50.5,50.5,0,0,0-4.53-6c-3.55-4.18-7.45-8.08-10.86-12.38a1.3,1.3,0,0,1,0-1.77,1.27,1.27,0,0,1,1.77,0Z"/><path class="cls-3" d="M863.15,337.42a42.76,42.76,0,0,0,5.31,7.33,43,43,0,0,1,5.28,7.51,47.39,47.39,0,0,1,4.67,17.16c.31,3,.46,6,.54,9,0,1.53.06,3.06.08,4.59a16.51,16.51,0,0,1-.43,4.75c-.83,2.94-3.43,5.36-6.64,4.72s-4.88-3.62-5.84-6.43c-1.23-3.6-2.2-7.31-3.11-11s-1.77-7.69-2.46-11.58a1.28,1.28,0,0,1,.87-1.54,1.27,1.27,0,0,1,1.54.87,177.09,177.09,0,0,0,4.54,19.29c.72,2.43,1.31,5.72,3.53,7.29a3.05,3.05,0,0,0,3.05.5,4.1,4.1,0,0,0,2-2.57,13.53,13.53,0,0,0,.41-4.3c0-1.43,0-2.85-.08-4.28-.07-2.83-.2-5.65-.46-8.47a46.26,46.26,0,0,0-4-15.91,39.1,39.1,0,0,0-5.24-7.75,46.56,46.56,0,0,1-5.77-7.91c-.74-1.42,1.41-2.69,2.16-1.26Z"/><path class="cls-3" d="M847.64,337.51l9.05,13.79c2.65,4,5.36,8.25,6.42,13,1.12,5,.08,10.1-1.76,14.82-.94,2.4-2,4.74-3.17,7.06-1,2-2.58,3.88-5.07,3.49-2.19-.33-3.94-2.19-4.85-4.11a14.71,14.71,0,0,1-1.25-6.41c0-2.54.52-5.05.63-7.59a14.54,14.54,0,0,0-1.48-7.16,55.62,55.62,0,0,0-3.79-6.16c-1.34-2-2.72-4-4.15-5.89q-4.31-5.86-9.12-11.32c-3.17-3.6-6.5-7.08-10-10.4q-2.64-2.54-5.39-5c-.9-.8-1.81-1.58-2.73-2.36a9.44,9.44,0,0,1-2.35-2.45,3,3,0,0,1-.06-3.23,1.3,1.3,0,0,1,1.71-.45,1.28,1.28,0,0,1,.45,1.71c-.17.24-.15.33,0,.63a3.9,3.9,0,0,0,.9,1.08c.83.78,1.74,1.48,2.61,2.23,1.73,1.49,3.44,3,5.11,4.59q5.07,4.74,9.73,9.88a172.73,172.73,0,0,1,16.91,22,30,30,0,0,1,3.27,6.19,17.63,17.63,0,0,1,.75,7.43c-.33,4-1.46,8.73.9,12.37.82,1.27,2.66,2.84,4,1.39a9.2,9.2,0,0,0,1.38-2.4c.53-1.1,1.06-2.21,1.56-3.33,1.9-4.25,3.48-8.84,3.15-13.57-.32-4.57-2.63-8.72-5-12.51-2.72-4.3-5.56-8.52-8.35-12.77l-2.18-3.32c-.89-1.35,1.27-2.6,2.15-1.26Z"/><path class="cls-3" d="M840.29,334.4l-3.83-3.83a1.26,1.26,0,0,1,0-1.77,1.27,1.27,0,0,1,1.76,0l3.83,3.84a1.25,1.25,0,0,1,0,1.76,1.27,1.27,0,0,1-1.76,0Z"/><path class="cls-3" d="M858.36,332.79l-6-4.5a1.32,1.32,0,0,1-.57-.74,1.25,1.25,0,0,1,1.83-1.41l6,4.49a1.44,1.44,0,0,1,.58.75,1.28,1.28,0,0,1-.13,1,1.27,1.27,0,0,1-1.71.45Z"/><path class="cls-20" d="M885.35,112.86c-1.34-6.38-6.76-16-9.72-21.81-3.17-6.2,18.27-18.52,13.21-23.18,9.11,4.47,32.74,18.75,40.76,49.89,2.08,8.09-6.12,15.89-18.23,27a62.91,62.91,0,0,0-9,9.78c1.22-5.66-14.18-3.51-13-9.18C891.8,134.08,887.73,124.2,885.35,112.86Z"/><path class="cls-21" d="M715,129.38a1.44,1.44,0,0,0,.4-.06c1-.34,99.34-33.74,113.86-38,7.07-2,10.63-1.2,12.37-.13a4.06,4.06,0,0,1,2,2.47,1.25,1.25,0,0,0,2.47-.41,6.55,6.55,0,0,0-3-4.13c-3.15-2-8-2.07-14.48-.19-14.57,4.23-113,37.65-114,38a1.24,1.24,0,0,0,.41,2.42Z"/><path class="cls-21" d="M715,132.64s18.22-5.56,17.05-10.28-18.58,1.56-18.58,1.56Z"/><path class="cls-22" d="M717.62,119.53c-2.52,1.16-5.74,7.63-3.2,16.49,3.32,11.61,7.53,15.58,13.35,15.78,5.32.17,9.07-4,11.85-10.72,3.39-8.2,5.59-18-5.35-20.65C724.3,118,720.93,118,717.62,119.53Z"/><path class="cls-21" d="M727.73,153c-6.89-.22-11.23-5.21-14.51-16.68-2.63-9.2.62-16.46,3.88-18h0c3.77-1.75,7.69-1.57,17.47.81,3.86.94,6.52,2.82,7.92,5.57,2.58,5.07.25,12-1.72,16.77-3.16,7.64-7.42,11.5-12.68,11.5Zm-9.59-32.38c-1.71.79-5,6.42-2.52,15,3.68,12.87,8.23,14.74,12.19,14.87h.28c4.21,0,7.61-3.27,10.38-10s3.38-11.57,1.8-14.69c-1.07-2.1-3.13-3.5-6.29-4.27-5.59-1.36-9-1.91-11.38-1.91A9.91,9.91,0,0,0,718.14,120.66Z"/><path class="cls-23" d="M803.3,222.89c22.09-2.56,35.11-16.41,52.06-30.81,13-11.06,27.32-37,32.83-53.13,1.48,5.91,5,35.26,4.65,41.35-4.73,12.56-13.26,30.18-27.34,39.76-19.85,13.51-32.44,26.56-67.09,25-21.08-.94-25.42-8.7-25.94-16.54C779.92,226,793.59,224,803.3,222.89Z"/><path class="cls-9" d="M797.25,199.94a103.88,103.88,0,0,0,42.44-10.41,63.29,63.29,0,0,0,18-12.43,36.31,36.31,0,0,0,10-19.38c-7.44,14.43-20.56,23.65-35,28.89-7.21,2.62-14.61,5.67-22.18,6.88s-21.08.57-28.67-.24c-25.12-2.65-46.65-13.82-62.67-33.28.33-.64.76-8.42,1.29-9s1.56-1.57,2.71-2.59c16.36.13,35.44,5.37,55.48,7.17,29.2,2.62,49-.87,76.11-12.16,4.18-1.74,12.34-7.82,16.86-8.24S892.85,124.78,896,128c2.36,2.42-5.8,30.6-5,33.88l.06.26a96.25,96.25,0,0,1-28.67,41.69c-16.94,14.41-38.49,23-60.59,25.56a95.85,95.85,0,0,1-29.38-.87c-.33-5,.91-10.13.29-13.47-1.36-7.19-2.8-13.5-5.5-17.33l2.2.29C778.68,199.19,788,200.19,797.25,199.94Z"/><path class="cls-23" d="M765.65,195.9c-3.79-3.39-15.43-1.85-30.38-16.15-13.49-12.91-19.16-21.1-16.12-27,16,19.47,39.65,32.76,64.78,35.42a86.83,86.83,0,0,0,22.83-.51,121.21,121.21,0,0,0,22.14-6.14c14.42-5.24,28.86-12.11,38.75-23.84a36.31,36.31,0,0,1-10,19.38,63.29,63.29,0,0,1-18,12.43,103.88,103.88,0,0,1-42.44,10.41c-9.29.25-18.57-.75-27.79-1.91l-2.2-.29A11.6,11.6,0,0,0,765.65,195.9Z"/><path class="cls-2" d="M891.11,162.16a85,85,0,0,0,3.7-15,85,85,0,0,1-3.7,15l-.06-.26c-.83-3.28-2-6.6-4.37-9-3.17-3.24-8-4.33-12.57-3.91s-8.78,2.19-13,3.93c-27.06,11.29-55.33,23.32-84.53,20.69-20-1.8-39.09-11.15-53.46-25.21,8.8-7.77,30.61-23.77,33.7-27.34,3.48-4,11.74-15.64,15.56-19.85s20.51-21.47,35.24-28.12,43.29-20.57,77.54-6.81c0,0,1.37.5,3.65,1.61,5.06,4.66,8.95,10.84,12.11,17a73.78,73.78,0,0,1,6.88,18.25c2.38,11.34.77,23.12-1.64,34.45-1.21,5.67-2.62,11.31-3.84,17-3.26,4.67-3.76,8.14-5.47,13.71-.79,2.54-2.09,6.85-4,12A61.56,61.56,0,0,0,891.11,162.16Z"/><path class="cls-21" d="M846.15,188.42l-1.88,6.38-.94,3.18a9.12,9.12,0,0,1-1,2.58A2.62,2.62,0,0,1,840,201.8a6.12,6.12,0,0,1-2.58-1,47.85,47.85,0,0,1-4-2.83,9.4,9.4,0,0,0-4.48-2.09l1.24-1.24a59.27,59.27,0,0,1-3.57,17.46,1.26,1.26,0,0,1-2.08.55l-14.94-13.47,2-.25c-2.88,6.41-2.76,13.7-5.4,20.2-.37.91-1.74,1.35-2.28.3l-9.29-17.93h2.15c-3.15,6.39-6.6,12.63-10,18.87a1.26,1.26,0,0,1-1.71.45c-1.54-1.08-1.95-3-2.58-4.67s-1.41-3.55-2.19-5.3A105.29,105.29,0,0,0,775,200.49a1.25,1.25,0,0,1,2.15-1.26,104.83,104.83,0,0,1,5.15,9.93c.78,1.72,1.51,3.47,2.21,5.23.32.83.64,1.67.94,2.51a3.59,3.59,0,0,0,.91,1.76l-1.7.44c3.42-6.24,6.86-12.48,10-18.87a1.25,1.25,0,0,1,2.15,0l9.29,17.93-2.28.3c2.73-6.71,2.68-14.17,5.66-20.8a1.25,1.25,0,0,1,2-.25l14.94,13.47-2.08.55a57.24,57.24,0,0,0,3.48-16.8,1.26,1.26,0,0,1,1.25-1.25c4.12.36,6.67,3.63,10.11,5.47.24.13.84.54,1.13.46,0,0,.18-.36.22-.45a35.41,35.41,0,0,0,1.06-3.55l2.23-7.56a1.25,1.25,0,0,1,2.4.67Z"/><path class="cls-3" d="M792.83,201.18a104,104,0,0,0,14-1c16.3-2.22,38.65-8.07,52.62-23.37,8.45-9.27,9.8-17.53,9.85-17.88a1.25,1.25,0,0,0-2.47-.37c0,.07-1.33,8-9.35,16.7-13.48,14.65-35.17,20.29-51,22.45a92.64,92.64,0,0,1-49.25-6.23c-16.12-6.82-25.73-16.33-30-21.39-6.09-7.18-8-12.93-7.26-15.44,1.85-6,11.87-13.12,21.55-20,6.9-4.9,13.41-9.53,17.3-13.89,2.5-2.82,4.62-5.74,6.86-8.83,6.35-8.75,13.55-18.66,33.28-32.12A105.19,105.19,0,0,1,841.7,62.7c14.8-2.3,29.06-.93,41.22,4,23.59,9.49,42.26,32,46.46,56a1.25,1.25,0,1,0,2.46-.42c-4.34-24.85-23.62-48.13-48-57.92-12.58-5.06-27.29-6.48-42.55-4.12a107.67,107.67,0,0,0-43.78,17.56c-20.09,13.7-27.75,24.25-33.9,32.72a107.69,107.69,0,0,1-6.71,8.63c-3.7,4.15-10.1,8.7-16.87,13.52-10,7.12-20.39,14.48-22.49,21.29-1.21,3.92,1.75,10.74,7.73,17.79,4.44,5.24,14.37,15.06,31,22.08A93.12,93.12,0,0,0,792.83,201.18Z"/><path class="cls-3" d="M798.67,246.32c.63,0,1.26,0,1.91,0,29.31-.66,58-14,74.95-34.89,15.32-18.89,20.69-33.35,24.4-50.56a1.25,1.25,0,0,0-2.44-.53c-3.63,16.85-8.89,31-23.9,49.52-16.47,20.31-44.46,33.32-73.06,34-10.64.24-17.73-1.5-21.68-5.31-4.45-4.29-4.54-10.71-4.64-17.52,0-1.5,0-3-.11-4.56-.68-13.81-7.25-21.07-7.53-21.37a1.25,1.25,0,0,0-1.84,1.7h0c.07.06,6.25,6.94,6.87,19.79.08,1.47.1,3,.12,4.48.1,7,.2,14.27,5.4,19.27C781.32,244.34,788.38,246.32,798.67,246.32Z"/><path class="cls-3" d="M869.19,160.41a106.18,106.18,0,0,1-9.69,20.47,93.72,93.72,0,0,1-14.08,17.77A81,81,0,0,1,827,212.31a76.27,76.27,0,0,1-22.32,7.84,68.42,68.42,0,0,1-23.54.23c-.95-.16-1.9-.34-2.85-.55-1.57-.34-.91-2.74.66-2.4a64.12,64.12,0,0,0,22.61.71,73.34,73.34,0,0,0,21.77-6.75,77.48,77.48,0,0,0,18.45-12.72A89.85,89.85,0,0,0,855.9,181.9a101.93,101.93,0,0,0,9.93-19.53c.33-.87.64-1.75.95-2.63a1.25,1.25,0,0,1,2.41.67Z"/><path class="cls-3" d="M773.49,197.72a45.47,45.47,0,0,1,5.36,20.08c0,1.6-2.45,1.6-2.49,0a42.69,42.69,0,0,0-5-18.82c-.75-1.42,1.4-2.68,2.16-1.26Z"/><path class="cls-3" d="M861,158.07c1.58-.54,2.81-1.79,4.46-2.2a5.18,5.18,0,0,1,4.9,1.47,12.09,12.09,0,0,1,2.8,4.78,19,19,0,0,1,1.09,6.17,1.25,1.25,0,0,1-2.5,0,16.74,16.74,0,0,0-.85-5.11,10.33,10.33,0,0,0-2.18-4,2.72,2.72,0,0,0-3.08-.8c-1.4.55-2.54,1.57-4,2.05s-2.18-1.89-.66-2.4Z"/><path class="cls-24" d="M857.1,129.66a20.85,20.85,0,0,1,.33,3.66c0,9.63-6.55,17.44-14.62,17.44-6,0-11.22-4.36-13.45-10.59A41.69,41.69,0,0,0,857.1,129.66Z"/><ellipse class="cls-21" cx="846.45" cy="136.87" rx="5.22" ry="7.36"/><ellipse class="cls-24" cx="844.29" cy="142.94" rx="2.16" ry="2.46"/><path class="cls-2" d="M842.81,115.88c7,0,12.88,5.9,14.29,13.78a41.69,41.69,0,0,1-27.74,10.51,20.39,20.39,0,0,1-1.17-6.85C828.19,123.69,834.73,115.88,842.81,115.88Z"/><path class="cls-3" d="M855.35,143.52a1.25,1.25,0,0,0,1.12-.69,21.3,21.3,0,0,0,2.2-9.51,21.67,21.67,0,0,0-1-6.63,1.25,1.25,0,0,0-2.38.77,19.1,19.1,0,0,1,.91,5.86,18.71,18.71,0,0,1-1.94,8.39,1.25,1.25,0,0,0,.56,1.68A1.23,1.23,0,0,0,855.35,143.52Z"/><path class="cls-3" d="M835.5,149.68a1.25,1.25,0,0,0,.71-2.28c-4.18-2.88-6.77-8.28-6.77-14.08,0-8.93,6-16.2,13.37-16.2a12.22,12.22,0,0,1,9.21,4.46A1.24,1.24,0,1,0,853.9,120a14.65,14.65,0,0,0-11.09-5.32c-8.75,0-15.87,8.38-15.87,18.69,0,6.61,3,12.79,7.85,16.14A1.24,1.24,0,0,0,835.5,149.68Z"/><path class="cls-3" d="M857.9,130.39c-5.69,5.82-13.76,9.31-21.75,10.46a38.21,38.21,0,0,1-6.84.41c-1.6,0-1.61-2.55,0-2.49a38.39,38.39,0,0,0,21.91-6.13,29.14,29.14,0,0,0,4.92-4c1.12-1.15,2.89.61,1.76,1.76Z"/><path class="cls-25" d="M797,135c3.87,2.39,11.68,6.65,11.42,20.89s-5.49,21.12-14.51,21.83-19-.65-29.19-17.8c-6.88-11.55-17.32-35.3,0-33.16S791.88,131.88,797,135Z"/><path class="cls-21" d="M808.4,151.27a1.44,1.44,0,0,0,.4-.06c1-.34,99.34-33.74,113.86-38,7.07-2,10.63-1.21,12.37-.14a4,4,0,0,1,2,2.48,1.25,1.25,0,0,0,2.47-.41,6.55,6.55,0,0,0-3-4.13c-3.15-2-8-2.07-14.47-.2-14.58,4.24-113,37.66-114,38a1.25,1.25,0,0,0,.4,2.43Z"/><path class="cls-21" d="M763.63,160.57c-2.31-3.88-13.58-23.65-8.22-31.86,1.74-2.67,4.92-3.74,9.45-3.18,15.83,2,26.86,4.79,32.77,8.42h0l.4.25c4.16,2.53,11.89,7.25,11.61,21.72S804.1,178.18,794,179c-1.13.09-2.26.14-3.41.14C782,179.12,772.81,176,763.63,160.57Zm32.69-24.49c-5.6-3.45-16.29-6.16-31.77-8.07-3.5-.43-5.88.26-7,2.06-3.28,5,2,18.68,8.27,29.22,10.19,17.11,19.81,17.85,28,17.2,8.62-.68,13.12-7.62,13.36-20.62s-6.43-17.11-10.42-19.54l-.41-.25Z"/><path class="cls-21" d="M808.4,154.53s18.22-5.56,17.05-10.28-18.58,1.56-18.58,1.56Z"/><path class="cls-21" d="M756.26,129.3A18.77,18.77,0,0,0,753.4,127a8.79,8.79,0,0,0-4.27-1.24,11.6,11.6,0,0,0-4.46.54c-.25.09.14-.08-.11,0l-.28.14a4,4,0,0,0-.55.36c.26-.2-.2.18-.27.25s-.28.27-.41.41c-1.11,1.16-2.87-.61-1.76-1.77a7.18,7.18,0,0,1,2.61-1.81,13.42,13.42,0,0,1,5.23-.67,11.51,11.51,0,0,1,5.4,1.51,21.58,21.58,0,0,1,3.5,2.76c1.19,1.07-.58,2.83-1.77,1.76Z"/><path class="cls-21" d="M754.34,138.34a15.82,15.82,0,0,0-12.17-4.19,1.26,1.26,0,0,1-1.25-1.25,1.28,1.28,0,0,1,1.25-1.25,18.24,18.24,0,0,1,13.93,4.93c1.17,1.1-.59,2.86-1.76,1.76Z"/><path class="cls-3" d="M750.83,165.36a7.86,7.86,0,0,1-2.1,3,4.84,4.84,0,0,1-3.2,1.42,2.19,2.19,0,0,1-1.84-1.06,2.61,2.61,0,0,1,.22-2.53,7.79,7.79,0,0,1,2.35-2.56,7.69,7.69,0,0,1,3.72-1.34,1.27,1.27,0,0,1,1.25,1.25,4.43,4.43,0,0,1-2.53,4,1.34,1.34,0,0,1-1,.13,1.3,1.3,0,0,1-.75-.57,1.27,1.27,0,0,1,.45-1.71,2.52,2.52,0,0,0,.4-.21l.16-.1c.13-.08-.2.18,0,0a3.22,3.22,0,0,0,.32-.32s.17-.21.05-.05,0,0,0-.08.14-.24.21-.37-.09.27,0,0l.06-.17c0-.14.06-.28.1-.41-.09.31,0,.16,0,0v-.22l1.25,1.24a.41.41,0,0,1-.16,0c.22,0,.23,0,.11,0a2.84,2.84,0,0,0-.31.06,5,5,0,0,0-.64.17l-.29.1c-.29.11.22-.1-.06,0a6.36,6.36,0,0,0-.58.3c-.18.11-.36.22-.53.34a.94.94,0,0,1-.12.09s.23-.19.07-.05l-.27.22c-.15.14-.3.29-.44.44l-.18.2-.1.12c-.18.21.16-.23,0,0s-.23.34-.33.51a1.51,1.51,0,0,0-.15.28s-.06.14-.08.16.07-.21,0,0-.07.23,0,.05,0-.06,0,0a.66.66,0,0,0-.09-.33c.09.16-.09-.1-.1-.11a.6.6,0,0,0,.08.08c-.12-.16-.23-.16-.12-.1-.33-.17-.23-.08-.14-.06s.18,0-.1,0a1.93,1.93,0,0,0,.24,0h.13s-.32.07-.14,0l.23-.06.12,0c.15,0-.27.13-.09,0a5.7,5.7,0,0,0,.54-.3l.27-.18.13-.09-.09.07.09-.08a4.88,4.88,0,0,0,.53-.49l.24-.26.11-.13c.11-.14,0-.07,0,0,.11-.21.28-.4.4-.6l.19-.35c0-.08.22-.49.07-.14A1.4,1.4,0,0,1,749,164a1.29,1.29,0,0,1,1-.13,1.27,1.27,0,0,1,.87,1.54Z"/><path class="cls-26" d="M853.84,105.41c-3.08,2.22-2.75.23-8.44-2.85s-11.19-2.85-16,0-7-3.09-6.05-7.12,9.2-12.82,21-4.51S855.51,104.2,853.84,105.41Z"/><path class="cls-21" d="M848.68,106.16a30.3,30.3,0,0,0-3.88-2.5c-5.12-2.78-10.1-2.79-14.81,0-2.75,1.61-4.66.74-5.56.07-2.42-1.79-3-5.75-2.34-8.56s3.66-6.45,8-8.07c3.25-1.23,8.49-1.73,15,2.83,9,6.38,11,10.8,11,13.38a3.76,3.76,0,0,1-1.42,3.13,5,5,0,0,1-2.82,1.18A5.39,5.39,0,0,1,848.68,106.16ZM830.93,89.42c-3.71,1.4-6,4.53-6.41,6.31-.54,2.28.09,5,1.39,6,.27.2,1.08.8,2.82-.22,5.43-3.18,11.4-3.19,17.26,0a32.73,32.73,0,0,1,4.17,2.69c1.63,1.2,1.63,1.2,3,.25h0a1.26,1.26,0,0,0,.38-1.09c0-4.07-7.6-9.72-9.92-11.36a15.54,15.54,0,0,0-8.87-3.22A10.53,10.53,0,0,0,830.93,89.42Z"/></svg>