<svg width="24" height="24" viewBox="0 0 24 24" fill="none" xmlns="http://www.w3.org/2000/svg">
<path fill-rule="evenodd" clip-rule="evenodd" d="M15.1588 2.8621L14.9218 3.2108C16.7209 4.02738 17.9388 5.57391 17.9388 7.34374H6.06144C6.06144 5.57391 7.27936 4.02738 9.07975 3.2108L8.8413 2.8621L8.60416 2.51843L8.07578 1.74575C8.01137 1.65044 8.03841 1.52251 8.1351 1.45982C8.23303 1.39706 8.36447 1.42218 8.43019 1.51749L8.99724 2.34536L9.23569 2.69274L9.47669 3.04646C10.2435 2.75674 11.0993 2.59496 12.0001 2.59496C12.9023 2.59496 13.7567 2.75674 14.5235 3.04646L14.7658 2.69274L15.5726 1.51749C15.6357 1.42218 15.7685 1.39582 15.8651 1.45982C15.963 1.52251 15.9902 1.65044 15.9244 1.74575L15.396 2.51843L15.1588 2.8621ZM6.06144 8.1692H6.15296H17.9388V17.253C17.9388 17.9742 17.3382 18.5612 16.5959 18.5612H15.6254C15.6589 18.6703 15.6783 18.7845 15.6783 18.9049V21.5201C15.6783 22.2037 15.1073 22.7581 14.4036 22.7581C13.7013 22.7581 13.1316 22.2037 13.1316 21.5201V18.9049C13.1316 18.7845 13.1497 18.6703 13.1819 18.5612H10.8183C10.8505 18.6703 10.8698 18.7845 10.8698 18.9049V21.5201C10.8698 22.2037 10.2989 22.7581 9.59657 22.7581C8.89415 22.7581 8.32325 22.2037 8.32325 21.5201V18.9049C8.32325 18.7845 8.34128 18.6703 8.37479 18.5612H7.40564C6.66331 18.5612 6.06144 17.9742 6.06144 17.253V8.1692ZM3.93995 8.1692C3.23629 8.1692 2.66663 8.72366 2.66663 9.40722V14.7067C2.66663 15.3903 3.23629 15.9447 3.93995 15.9447C4.64229 15.9447 5.21196 15.3903 5.21196 14.7067V9.40722C5.21196 8.72366 4.64229 8.1692 3.93995 8.1692ZM18.7879 9.40722C18.7879 8.72366 19.3575 8.1692 20.0612 8.1692C20.7636 8.1692 21.3332 8.72366 21.3332 9.40722V14.7067C21.3332 15.3903 20.7636 15.9447 20.0612 15.9447C19.3575 15.9447 18.7879 15.3903 18.7879 14.7067V9.40722ZM8.422 5.69172C8.07021 5.69172 7.78551 5.4146 7.78551 5.07223C7.78551 4.72987 8.07021 4.45405 8.422 4.45405C8.77372 4.45405 9.05849 4.72987 9.05849 5.07223C9.05849 5.4146 8.77372 5.69172 8.422 5.69172ZM12.8764 5.07223C12.8764 5.4146 13.1611 5.69172 13.5129 5.69172C13.8646 5.69172 14.1494 5.4146 14.1494 5.07223C14.1494 4.72987 13.8646 4.45405 13.5129 4.45405C13.1611 4.45405 12.8764 4.72987 12.8764 5.07223Z" fill="#DEE2E7"/>
</svg>
