<svg width="24" height="24" viewBox="0 0 24 24" fill="none" xmlns="http://www.w3.org/2000/svg">
<path fill-rule="evenodd" clip-rule="evenodd" d="M15.6168 1.4248C15.8052 2.72059 15.2842 3.98999 14.597 4.88813C13.8617 5.85147 12.5943 6.59657 11.3664 6.55767C11.1421 5.31714 11.7161 4.03892 12.4145 3.17968C13.1806 2.23135 14.4935 1.50381 15.6168 1.4248ZM19.3056 19.6634C19.9387 18.6813 20.1752 18.1858 20.6666 17.0769C17.0923 15.7009 16.5196 10.5567 20.057 8.58235C18.978 7.21253 17.4618 6.41858 16.0306 6.41858C14.9994 6.41858 14.2929 6.691 13.6505 6.93868C13.1152 7.14505 12.6246 7.33428 12.0277 7.33428C11.3828 7.33428 10.8117 7.12692 10.2137 6.90989C9.55659 6.67138 8.867 6.42107 8.01129 6.42107C6.40523 6.42107 4.69569 7.41449 3.61182 9.11291C2.08823 11.505 2.34813 16.0019 4.81883 19.8328C5.70194 21.2038 6.88183 22.7442 8.42517 22.758C9.06551 22.7644 9.49162 22.571 9.95277 22.3615C10.4805 22.1219 11.0542 21.8614 12.0475 21.8561C13.0465 21.85 13.6112 22.1136 14.1319 22.3568C14.5812 22.5666 14.9979 22.7612 15.6328 22.7542C17.1773 22.7417 18.4225 21.0345 19.3056 19.6634Z" fill="#DEE2E7"/>
</svg>
