<svg width="299" height="67" viewBox="0 0 299 67" fill="none" xmlns="http://www.w3.org/2000/svg">
<path d="M10.2407 57.3412C13.5105 60.4983 17.3974 62.9451 21.6573 64.5281C26.6605 66.3844 32.0363 67.0112 37.3322 66.3555C42.6185 65.7069 47.6701 63.7903 52.057 60.7689C56.4439 57.7474 60.0363 53.7105 62.5286 49.0016C63.8869 46.464 64.9072 43.7594 65.5636 40.9568C65.8026 39.9765 65.9861 38.9836 66.1135 37.9827C66.1766 37.4563 66.2433 36.93 66.2941 36.3966C66.3494 35.8246 66.416 35.2561 66.4274 34.6788C66.4581 33.1786 66.4484 31.6793 66.2897 30.1835C66.1827 29.1799 66.053 28.1815 65.8688 27.1884C64.7395 21.1833 61.9743 15.6069 57.8783 11.0742C53.7317 6.49875 48.7078 3.3045 42.8068 1.49141C40.4331 0.764024 37.9817 0.319952 35.5038 0.168442C35.3918 0.167894 35.2802 0.156138 35.1706 0.13335C35.0817 0.0983551 34.997 0.0536331 34.918 0L31.5524 0C31.4252 0.17546 31.2297 0.146509 31.0526 0.164055C30.4256 0.224589 29.7968 0.271086 29.1698 0.339515C27.5958 0.51592 26.0386 0.819283 24.5134 1.24664C17.4103 3.22671 11.5578 7.12456 7.01888 12.9314C2.67287 18.4935 0.382367 24.8408 0.0351081 31.8864C-0.0497111 33.695 0.0192266 35.5076 0.241182 37.3046C1.14929 44.9414 4.68336 52.0247 10.238 57.3412H10.2407ZM0.497243 33.3488C0.510396 15.1097 15.4119 0.52638 33.3106 0.543926C51.1024 0.564981 66.0977 15.0132 66.0766 33.3848C66.0556 51.7563 51.0243 66.1677 33.2326 66.1484C15.4057 66.1283 0.515658 51.5853 0.497243 33.3488Z" fill="#B5BCC8"/>
<path d="M33.2423 65.1615L35.0067 65.087C36.0849 65.0355 37.1594 64.9233 38.225 64.7509C40.2062 64.445 42.1526 63.9455 44.0363 63.2595C49.0997 61.4264 53.6136 58.3346 57.1534 54.275C60.6931 50.2154 63.1422 45.3216 64.2703 40.0541C64.4457 39.2452 64.5948 38.4337 64.6877 37.6108C64.7684 36.901 64.885 36.1922 64.9113 35.4798C64.971 33.8542 64.999 32.2277 64.8587 30.6011C64.771 29.623 64.657 28.6492 64.4825 27.685C63.7631 23.7141 62.296 19.9162 60.1593 16.4933C57.1123 11.6477 53.0624 7.88053 48.0096 5.1919C43.6733 2.89513 39.0388 1.71077 34.1421 1.55724C30.9 1.47126 27.6636 1.87437 24.5416 2.753C19.1705 4.29442 14.5017 7.04125 10.5986 11.0391C5.14416 16.6258 2.14159 23.3441 1.54354 31.1293C1.38322 33.2996 1.45436 35.4809 1.75575 37.6362C1.98383 39.3182 2.34478 40.9795 2.83524 42.6044C6.76909 55.6209 18.8679 65.1466 33.2423 65.1615ZM42.7341 50.5159C42.7233 50.5969 42.7063 50.677 42.6832 50.7554C42.4508 50.837 42.2272 50.7861 42.029 50.7984C41.8624 50.7027 41.8089 50.551 41.7283 50.4229C41.4765 50.0013 41.1763 49.6106 40.8338 49.2587C40.1086 48.5437 39.2475 48.2937 38.2513 48.4981C37.7873 48.6048 37.335 48.757 36.9008 48.9525C36.8131 48.9902 36.7211 49.0306 36.6325 49.0727C36.5833 49.1006 36.5268 49.1127 36.4706 49.1076C36.4143 49.1024 36.361 49.0801 36.3177 49.0438C36.23 48.9762 36.1178 48.9359 36.0906 48.7393C36.1511 48.7024 36.2097 48.6623 36.266 48.6191C38.7529 46.5742 40.2998 43.923 41.2223 40.8778C41.5473 39.7892 41.7736 38.6734 41.8984 37.5441C41.9466 37.1265 41.9922 36.7089 42.0413 36.2913C42.0475 36.2369 42.0641 36.1834 42.0773 36.1211C42.1791 36.0766 42.2889 36.0537 42.4 36.0537C42.5111 36.0537 42.6209 36.0766 42.7227 36.1211C42.77 36.4378 42.7832 49.7877 42.7341 50.5159ZM44.2249 16.4696C44.8058 16.6761 45.3708 16.9247 45.9155 17.2135C46.3654 17.4416 46.8188 17.6654 47.2835 17.8601C47.6064 17.9955 47.9403 18.1029 48.2815 18.1812C49.3022 18.4146 50.1958 18.1759 50.9368 17.4171C51.2204 17.1238 51.4737 16.8025 51.6927 16.4582C51.7804 16.3284 51.861 16.195 51.9382 16.0652C51.9642 16.0074 52.0072 15.959 52.0614 15.9262C52.1156 15.8935 52.1784 15.878 52.2416 15.8818C52.417 15.8915 52.6055 15.845 52.7958 15.9362C52.8203 16.0114 52.8382 16.0886 52.8493 16.1669C52.8599 16.3073 52.8563 16.4477 52.8563 16.588C52.8622 21.0792 52.8677 25.5698 52.873 30.0599C52.873 30.2265 52.8669 30.3932 52.8642 30.5503C52.6275 30.695 52.4135 30.6696 52.1916 30.5968C52.117 30.4289 52.079 30.2471 52.0803 30.0634C52.0157 29.1966 51.8959 28.3348 51.7216 27.4832C51.1955 24.7978 50.1326 22.3458 48.4376 20.1885C47.31 18.7477 45.8992 17.5534 44.2924 16.6793C44.2047 16.6328 44.1231 16.5819 44.0416 16.5284C44.0205 16.5152 44.0109 16.4836 43.9749 16.4266C44.06 16.4349 44.1444 16.4493 44.2275 16.4696H44.2249ZM44.1977 50.2851C46.5653 49.0008 48.3806 47.1584 49.7143 44.8275C50.7678 42.9857 51.4808 40.969 51.819 38.8741C51.9312 38.1959 52.0312 37.5178 52.082 36.8317C52.0943 36.6659 52.1303 36.501 52.1548 36.3396C52.3758 36.2343 52.581 36.2632 52.8064 36.3018C52.8332 36.377 52.8541 36.4541 52.8686 36.5326C52.8761 36.6306 52.8778 36.7291 52.8739 36.8273C52.8674 41.3577 52.861 45.8884 52.8546 50.4194C52.8546 50.6115 52.8958 50.8133 52.7783 50.9993C52.5766 51.0791 52.3661 51.0519 52.1601 51.0317C52.0924 51.0171 52.0325 50.978 51.9917 50.9221C51.9258 50.8315 51.8652 50.7371 51.8102 50.6396C51.5518 50.2052 51.2411 49.8042 50.885 49.4456C50.1598 48.7437 49.2926 48.5463 48.3236 48.7367C47.8431 48.8416 47.3765 49.0027 46.9336 49.2166C46.5636 49.385 46.2067 49.5798 45.8375 49.7509C45.342 49.9798 44.8422 50.2 44.3415 50.4167C44.227 50.4582 44.1098 50.4916 43.9907 50.5167C43.9811 50.4922 43.9714 50.4676 43.9626 50.4431C44.0398 50.3887 44.1161 50.3299 44.2003 50.2851H44.1977ZM40.6979 17.3478C41.0963 16.9719 41.4388 16.5408 41.7151 16.0678C41.9834 15.6344 41.8852 15.6493 42.4815 15.659C42.5445 15.665 42.6069 15.6755 42.6683 15.6906C42.6972 15.7793 42.7189 15.8703 42.7332 15.9625C42.7455 16.102 42.7394 16.2433 42.7394 16.3836C42.7475 20.8579 42.7546 25.3321 42.7604 29.8063C42.7604 29.9818 42.7885 30.1686 42.7122 30.3722C42.504 30.4243 42.286 30.4219 42.079 30.3652C42.0276 30.1067 41.9918 29.8454 41.9721 29.5826C41.7195 26.9007 41.0373 24.3478 39.7026 21.9878C38.873 20.5218 37.8549 19.2138 36.5764 18.1119C36.4738 18.0242 36.337 17.9584 36.3019 17.7943C36.4459 17.6626 36.6172 17.5643 36.8035 17.5066C37.0429 17.5943 37.2744 17.6987 37.5138 17.7698C37.8206 17.8723 38.1338 17.9549 38.4512 18.0172C39.3027 18.1645 40.0542 17.9242 40.6979 17.3478ZM30.3038 18.9743C32.0953 17.5241 34.1342 16.6135 36.3808 16.1511C36.8061 16.0634 37.2367 16.002 37.6646 15.9309C37.747 15.9265 37.8296 15.9265 37.9119 15.9309C37.8278 15.9946 37.7399 16.0532 37.6488 16.1064C37.2428 16.2976 36.8289 16.4713 36.4308 16.6758C36.0327 16.8802 35.6661 17.089 35.297 17.3171C33.5835 18.3698 32.4172 19.8683 31.7314 21.7527C31.4028 22.6632 31.1812 23.6088 31.0711 24.5706C30.9492 25.6286 30.8387 26.6893 30.7545 27.7508C30.6896 28.5614 30.6668 29.3756 30.637 30.1879C30.5862 31.5337 30.5379 32.8795 30.5002 34.2235C30.4514 35.7939 30.4938 37.3657 30.6274 38.9311C30.7448 40.414 31.0011 41.8826 31.3929 43.3176C31.5876 44.0058 31.8288 44.6799 32.1146 45.3354C32.8596 47.0741 34.0743 48.5706 35.6223 49.657C35.817 49.7947 36.0143 49.929 36.2089 50.0658C36.2756 50.1123 36.3598 50.1439 36.3642 50.2702C36.2992 50.2777 36.2336 50.2777 36.1686 50.2702C33.9763 49.7438 31.9182 48.9236 30.1284 47.5295C27.6669 45.6135 25.8815 43.2001 24.8827 40.2243C24.4123 38.8431 24.0843 37.4173 23.904 35.9693C23.4388 31.9727 24.1607 27.9276 25.9797 24.339C27.0206 22.2617 28.4952 20.4322 30.3038 18.9743V18.9743ZM13.766 31.889C13.9963 29.3837 14.6935 26.9437 15.8215 24.6952C16.9929 22.3005 18.7406 20.2346 20.9076 18.683C22.4913 17.5425 24.2557 16.8179 26.1551 16.4108C26.5795 16.3231 27.0092 16.2511 27.4372 16.1775C27.5192 16.1708 27.6016 16.1708 27.6836 16.1775C27.6459 16.3187 27.5397 16.3301 27.4547 16.3696C27.0487 16.56 26.6339 16.7345 26.2384 16.9442C25.8175 17.167 25.4065 17.4074 25.0055 17.6654C23.4665 18.6523 22.3966 20.0244 21.7267 21.7176C21.3552 22.6876 21.102 23.6988 20.9725 24.7294C20.7656 26.2454 20.6454 27.7692 20.5718 29.2966C20.5077 30.6275 20.5007 31.9618 20.4437 33.2927C20.3902 34.5411 20.356 35.7895 20.3946 37.0379C20.4578 39.046 20.6472 41.041 21.14 42.9956C21.3937 44.0314 21.7546 45.0378 22.2169 45.9986C22.8728 47.3435 23.7594 48.5042 24.9353 49.4298C25.3106 49.7237 25.7017 49.9965 26.0841 50.2808C26.1577 50.3369 26.2235 50.4036 26.3585 50.5229C26.1788 50.4939 26.0841 50.486 25.992 50.4641C24.2452 50.0421 22.579 49.4263 21.0707 48.4525C18.0927 46.5329 16.0121 43.8984 14.8288 40.5489C13.8465 37.7746 13.4837 34.8186 13.766 31.889V31.889Z" fill="#B5BCC8"/>
<path d="M85.4759 37.987C87.1866 37.7327 88.764 36.9159 89.9595 35.6656C90.0759 35.5503 90.1718 35.4161 90.2431 35.2686C90.3269 35.0819 90.2652 34.1586 90.1785 33.8293C90.1564 33.8293 90.127 33.8293 90.1138 33.8293C89.9668 33.9528 89.8346 34.0763 89.6994 34.2057C88.9088 34.9643 88.0373 35.6009 87.0145 35.9934C84.4252 36.9814 82.0357 36.6285 79.9048 34.8173C79.0167 34.0381 78.3351 33.0512 77.921 31.9445C77.1318 29.9665 76.9612 27.7954 77.4316 25.7183C77.6574 24.5853 78.1185 23.5125 78.7851 22.5691C79.8137 21.1445 81.1687 20.1771 82.9248 19.8684C83.8991 19.6999 84.8965 19.7183 85.8639 19.9228C86.5817 20.06 87.2613 20.3515 87.8555 20.7772C88.4497 21.2029 88.9445 21.7526 89.3055 22.3883C89.3893 22.5353 89.4525 22.6823 89.5421 22.8205C89.5848 22.8926 89.6024 23.0043 89.7302 22.9896C89.8243 22.3339 89.814 20.0492 89.7097 19.4611C89.5172 19.367 89.3129 19.2524 89.0983 19.1671C87.0112 18.2651 84.6948 18.0375 82.4721 18.5158C79.004 19.2509 76.6865 21.3724 75.4286 24.6685C75.1297 25.4603 74.9322 26.2868 74.8408 27.1282C74.8143 27.3634 74.804 27.6045 74.5469 27.7265V29.5613C74.7761 29.5613 74.7908 29.7378 74.8217 29.8995C74.9231 30.4302 74.9848 30.9712 75.1318 31.4873C76.1325 35.026 78.4162 37.2034 82.0386 37.9164C83.1715 38.1408 84.3348 38.1647 85.4759 37.987V37.987Z" fill="#B5BCC8"/>
<path d="M298.694 31.9586C298.694 31.4969 298.512 31.0897 298.308 30.6913C298.065 30.2336 297.759 29.8124 297.398 29.4401C296.616 28.6065 295.666 28.0067 294.669 27.4671C293.843 27.0261 293.022 26.563 292.214 26.0881C291.646 25.7521 291.132 25.3328 290.688 24.8443C290.327 24.4689 290.08 23.9989 289.976 23.4888C289.61 21.5776 290.816 20.2426 292.093 19.7972C292.944 19.5066 293.863 19.485 294.727 19.7354C295.277 19.8698 295.795 20.1135 296.249 20.4519C296.703 20.7903 297.085 21.2166 297.372 21.7055C297.46 21.8525 297.494 22.0598 297.742 22.1377C297.757 21.976 297.776 21.8437 297.777 21.7069C297.777 21.2365 297.751 20.7645 297.786 20.297C297.832 19.7222 297.601 19.3517 297.078 19.1415C296.752 19.0106 296.431 18.8607 296.102 18.743C295.131 18.3946 294.124 18.3755 293.11 18.4284C292.357 18.4685 291.62 18.6605 290.943 18.993C289.661 19.6134 288.719 20.5528 288.312 21.9539C288.121 22.6185 288.144 23.3006 288.196 23.9828C288.243 24.5708 288.438 25.1373 288.763 25.6294C289.19 26.3088 289.751 26.8944 290.411 27.351C291.031 27.7744 291.682 28.1508 292.33 28.5272C292.978 28.9035 293.652 29.252 294.29 29.6371C294.872 29.9937 295.406 30.4241 295.877 30.9177C296.435 31.4656 296.794 32.1844 296.897 32.9598C297.053 34.1741 296.694 35.1871 295.721 35.9516C295.386 36.2116 295.007 36.4107 294.603 36.5397C293.289 36.9719 292.008 36.8558 290.759 36.3045C289.737 35.8511 288.906 35.0556 288.408 34.0551C288.281 33.8154 288.152 33.5787 287.986 33.2685C287.956 33.3595 287.934 33.453 287.92 33.5478C287.92 34.3947 287.936 35.2415 287.911 36.0869C287.898 36.5029 288.081 36.7382 288.424 36.9205C289.026 37.2393 289.657 37.4993 290.309 37.6967C291.338 38.0113 292.389 38.0275 293.45 37.9908C294.204 37.9713 294.95 37.8222 295.654 37.5497C297.338 36.8778 298.486 35.7384 298.727 33.8522C298.736 33.7816 298.838 33.7243 298.897 33.6596V32.3893C298.828 32.3421 298.773 32.2772 298.737 32.2015C298.702 32.1258 298.687 32.0419 298.694 31.9586Z" fill="#B5BCC8"/>
<path d="M94.8678 21.5362C94.8678 26.0026 94.8678 30.4686 94.8678 34.934C94.8729 35.1454 94.867 35.3569 94.8501 35.5677C94.7766 36.2778 94.6282 36.9614 94.0948 37.4951C94.0742 37.5157 94.0948 37.576 94.0948 37.6186C94.5356 37.6862 96.7958 37.7259 97.5967 37.6759C97.6824 37.6634 97.7666 37.6422 97.848 37.6127C97.848 37.5568 97.848 37.5289 97.8407 37.5142C97.294 36.8482 97.0882 36.069 97.0882 35.2222C97.0882 33.2021 97.0882 31.1811 97.0882 29.1591C97.0997 29.017 97.1218 28.876 97.1544 28.7372C97.3498 28.7195 97.5085 28.6931 97.6687 28.6931C100.769 28.6931 103.87 28.6931 106.969 28.6931C107.136 28.7036 107.302 28.7242 107.466 28.7548C107.5 28.8999 107.523 29.0473 107.534 29.1959C107.534 31.2174 107.55 33.2389 107.534 35.2589C107.534 36.0176 107.387 36.7571 106.9 37.3848C106.871 37.4479 106.851 37.5155 106.843 37.5848C106.907 37.6199 106.976 37.6447 107.047 37.6583C108.103 37.6583 109.16 37.6553 110.217 37.6495C110.326 37.6371 110.434 37.6159 110.539 37.5863C110.458 37.4539 110.407 37.3554 110.344 37.2672C110.025 36.7981 109.837 36.2526 109.798 35.6868C109.773 35.4309 109.773 35.1707 109.773 34.9134C109.773 30.447 109.773 25.9811 109.773 21.5156C109.773 21.3039 109.773 21.0922 109.791 20.8819C109.812 20.2675 110.008 19.6719 110.355 19.1648C110.407 19.0927 110.452 19.0177 110.539 18.8707C109.97 18.7737 108.16 18.7325 107.159 18.7869C107.043 18.8021 106.927 18.8252 106.814 18.856C106.827 18.9353 106.853 19.012 106.889 19.0839C107.385 19.7043 107.532 20.4409 107.54 21.201C107.559 23.0814 107.548 24.9617 107.54 26.8406C107.523 27.0077 107.489 27.1726 107.44 27.3331C107.146 27.3331 106.893 27.3493 106.637 27.3493C104.359 27.3493 102.08 27.3493 99.8025 27.3493C99.0677 27.3493 98.3462 27.3493 97.6173 27.3493C97.4546 27.3365 97.293 27.3119 97.1338 27.2758C97.1176 27.1023 97.0927 26.9656 97.0927 26.8347C97.0927 24.9774 97.0927 23.1206 97.0927 21.2642C97.0927 20.3924 97.3028 19.5911 97.8994 18.9251C97.9097 18.9148 97.8994 18.884 97.8994 18.8634C97.8704 18.8375 97.8395 18.8139 97.8069 18.7928C97.7985 18.7877 97.7888 18.7851 97.7789 18.7855C96.6288 18.7855 95.4781 18.7938 94.327 18.8104C94.255 18.8104 94.18 18.8825 94.0801 18.9354C94.7223 19.6705 94.878 20.5115 94.8722 21.4009C94.8678 21.4391 94.8678 21.4891 94.8678 21.5362Z" fill="#B5BCC8"/>
<path d="M147.117 35.6519C147.097 35.3476 147.078 35.0418 147.078 34.7375C147.078 31.0002 147.078 27.263 147.078 23.5258C147.078 23.3376 147.078 23.1494 147.093 22.9627C147.111 22.8732 147.138 22.7859 147.175 22.7025C147.456 22.7775 147.559 23.0083 147.701 23.1847C150.172 26.2329 152.64 29.2831 155.105 32.3352C156.598 34.1798 158.092 36.0239 159.586 37.8675C159.677 37.9792 159.733 38.1851 159.98 38.0968V37.3294C159.98 32.2063 159.98 27.0827 159.98 21.9586C159.98 21.6763 159.98 21.394 159.988 21.1117C160.025 20.3678 160.212 19.6768 160.705 19.0917C160.75 19.0202 160.782 18.9424 160.802 18.8609C159.837 18.7374 158.072 18.7683 157.64 18.9094C157.64 18.9315 157.631 18.9579 157.64 18.9756C157.66 19.0172 157.686 19.0554 157.718 19.0888C158.087 19.4582 158.324 19.9385 158.394 20.456C158.443 20.7806 158.468 21.1084 158.469 21.4367C158.469 24.9651 158.469 28.4906 158.469 32.0132C158.474 32.1775 158.47 32.3419 158.457 32.5057C158.436 32.5893 158.403 32.6695 158.36 32.7439C158.066 32.6248 157.943 32.3808 157.785 32.1837C154.921 28.6376 152.06 25.0896 149.202 21.5396C148.552 20.7354 147.901 19.9327 147.256 19.124C147.192 19.0266 147.105 18.9463 147.002 18.8901C146.9 18.834 146.785 18.8038 146.668 18.8021C145.778 18.8021 144.887 18.8021 143.998 18.8109L143.951 18.9403C144.013 19.0007 144.078 19.0576 144.147 19.1108C145.118 19.7768 145.587 20.6927 145.522 21.8733C145.522 21.9204 145.522 21.9674 145.522 22.0203V34.8536C145.522 35.0418 145.522 35.23 145.522 35.4182C145.526 36.0818 145.312 36.7283 144.914 37.2588C144.849 37.3441 144.799 37.4426 144.734 37.5529C145.265 37.6837 146.342 37.7175 147.718 37.6543C147.809 37.6387 147.9 37.6141 147.987 37.5808C147.945 37.5077 147.899 37.4379 147.847 37.372C147.402 36.9066 147.143 36.2951 147.117 35.6519V35.6519Z" fill="#B5BCC8"/>
<path d="M221.035 19.5284C220.3 19.1506 219.512 18.883 218.684 18.8727C216.381 18.8433 214.079 18.8448 211.777 18.8374C211.691 18.8458 211.607 18.863 211.525 18.8889C211.533 18.9668 211.525 19.0285 211.544 19.0535C211.984 19.5507 212.232 20.1881 212.244 20.8516C212.263 21.1559 212.284 21.4617 212.284 21.766C212.284 26.0913 212.284 30.4176 212.284 34.7449C212.284 35.0257 212.272 35.308 212.256 35.5902C212.242 36.2294 212.032 36.8488 211.655 37.3648C211.619 37.4118 211.628 37.4927 211.617 37.5574C212.091 37.6485 214.019 37.6867 214.926 37.6206C214.985 37.6206 215.039 37.5662 215.138 37.5147C214.454 36.737 214.362 35.8196 214.37 34.8684C214.384 33.4114 214.37 31.953 214.37 30.496C214.37 30.2431 214.313 29.977 214.459 29.7462C214.505 29.7236 214.554 29.7091 214.606 29.7036C214.722 29.7132 214.838 29.7294 214.952 29.7521C216.313 30.0323 217.714 30.0542 219.083 29.8168C221.62 29.339 223.399 27.5395 223.786 25.021C224.064 23.2039 223.382 20.7178 221.035 19.5284ZM221.448 25.6797C221.007 27.3381 219.706 28.3951 217.946 28.5951C216.915 28.6976 215.875 28.6441 214.86 28.4363C214.716 28.3964 214.576 28.3442 214.441 28.2805C214.411 28.1231 214.391 27.964 214.381 27.8041C214.381 25.4332 214.381 23.0613 214.381 20.6884C214.39 20.5282 214.408 20.3687 214.435 20.2106C214.482 20.1813 214.531 20.1566 214.582 20.1371C215.799 20.0885 217.019 20.0018 218.229 20.2091C219.674 20.4561 221.169 21.4441 221.543 23.5905C221.664 24.2836 221.631 24.9946 221.448 25.6738V25.6797Z" fill="#B5BCC8"/>
<path d="M126.55 31.9967C127.041 33.2655 127.535 34.5342 128.02 35.8089C128.228 36.3617 128.228 36.9115 127.896 37.4261C127.876 37.4599 127.896 37.5172 127.896 37.5643C128.399 37.6731 129.939 37.701 131.535 37.626C131.629 37.6112 131.722 37.5876 131.811 37.5555C131.772 37.4823 131.725 37.4133 131.672 37.3496C131.07 36.7855 130.587 36.1074 130.251 35.3546C130.087 35.0165 129.946 34.6666 129.81 34.3255C127.727 29.1916 125.645 24.0572 123.564 18.9223C123.477 18.7062 123.376 18.4974 123.214 18.1357C123.039 18.5415 122.92 18.7959 122.822 19.0517C120.743 24.0905 118.672 29.1293 116.607 34.1682C116.438 34.5813 116.255 34.9885 116.061 35.3899C115.73 36.1185 115.274 36.7837 114.715 37.3555C114.663 37.4274 114.621 37.5061 114.591 37.5893C115.104 37.6731 117.245 37.6996 117.862 37.6305C117.895 37.6305 117.921 37.5702 117.953 37.5364C117.953 37.5158 117.961 37.4893 117.953 37.4717C117.935 37.4286 117.91 37.3881 117.881 37.3511C117.485 36.8689 117.466 36.322 117.618 35.753C117.683 35.504 117.76 35.2586 117.851 35.0179C118.205 34.0976 118.565 33.1797 118.931 32.2643C118.993 32.1224 119.063 31.984 119.141 31.8497C119.773 31.7703 125.82 31.7688 126.422 31.8497C126.472 31.8921 126.515 31.9416 126.55 31.9967V31.9967ZM125.522 30.45C123.668 30.45 121.815 30.45 119.962 30.45C119.882 30.4368 119.804 30.4136 119.73 30.3809C119.755 30.2229 119.79 30.0667 119.836 29.9134C120.819 27.1995 122.453 23.227 122.784 22.7521C122.975 22.8418 123.004 23.0462 123.067 23.1932C123.549 24.3899 124.023 25.5896 124.499 26.7878C124.879 27.7473 125.259 28.7064 125.639 29.665C125.723 29.8796 125.786 30.106 125.889 30.3898C125.767 30.4184 125.642 30.4385 125.517 30.45H125.522Z" fill="#B5BCC8"/>
<path d="M203.293 37.5844C203.418 37.6072 203.545 37.6229 203.672 37.6314C204.798 37.6256 205.925 37.6158 207.052 37.602C207.086 37.602 207.118 37.5535 207.152 37.5271C207.14 37.4962 207.136 37.458 207.122 37.43C207.118 37.4209 207.112 37.4125 207.105 37.405C206.296 36.6817 205.782 35.7614 205.377 34.7763C205.083 34.0618 204.789 33.34 204.495 32.6225C202.661 28.0943 200.825 23.5671 198.987 19.0409C198.884 18.788 198.827 18.5072 198.6 18.2705C198.395 18.5087 198.331 18.7851 198.229 19.0365C196.21 23.9704 194.19 28.9034 192.168 33.8354C191.964 34.3353 191.745 34.8293 191.516 35.3174C191.182 36.0717 190.717 36.7611 190.143 37.3536C190.098 37.4171 190.061 37.4863 190.033 37.5594C190.317 37.6976 190.597 37.6329 190.866 37.6432C191.135 37.6535 191.43 37.6432 191.713 37.6432C191.995 37.6432 192.277 37.652 192.558 37.6432C192.838 37.6344 193.107 37.702 193.416 37.5418C192.793 36.8493 192.877 36.101 193.134 35.3365C193.156 35.2703 193.184 35.2042 193.21 35.1395C193.583 34.175 193.955 33.212 194.334 32.2505C194.403 32.0995 194.479 31.9522 194.564 31.8095H201.867C201.958 32.0021 202.058 32.1859 202.133 32.3799C202.509 33.3414 202.881 34.3054 203.249 35.2718C203.341 35.5129 203.41 35.7628 203.488 36.0069C203.562 36.2186 203.591 36.4433 203.573 36.6668C203.555 36.8903 203.491 37.1076 203.385 37.3051C203.347 37.3954 203.316 37.4889 203.293 37.5844V37.5844ZM201.224 30.3937C200.599 30.4834 197.322 30.5187 195.57 30.4584C195.432 30.4468 195.294 30.4281 195.157 30.4025C195.097 30.1085 195.245 29.8806 195.338 29.6468C196.024 27.9032 196.715 26.161 197.41 24.4203C197.573 24.0072 197.735 23.5926 197.904 23.1795C197.964 23.0325 198.041 22.8854 198.102 22.7619C198.373 22.7502 198.383 22.9516 198.439 23.0898C198.99 24.46 199.534 25.8317 200.08 27.2063C200.409 28.034 200.74 28.8603 201.065 29.6895C201.149 29.8982 201.284 30.1041 201.224 30.3937V30.3937Z" fill="#B5BCC8"/>
<path d="M264.885 36.028C265.018 36.4356 264.985 36.8792 264.794 37.2629C264.752 37.3423 264.723 37.4276 264.675 37.5408C264.771 37.5664 264.869 37.5841 264.969 37.5937C266.073 37.5937 267.176 37.5849 268.278 37.5672C268.313 37.5672 268.347 37.5158 268.382 37.4893C268.382 37.4673 268.391 37.4393 268.382 37.4246C268.331 37.3473 268.273 37.274 268.21 37.2056C267.734 36.7164 267.341 36.1521 267.048 35.5354C266.842 35.115 266.658 34.6813 266.482 34.2461C265 30.5912 263.52 26.9358 262.041 23.2799C261.442 21.8009 260.84 20.3224 260.237 18.8444C260.169 18.6797 260.141 18.4842 259.899 18.4033C259.79 18.6488 259.681 18.8797 259.584 19.1164C257.838 23.374 256.094 27.6317 254.351 31.8894C253.941 32.8891 253.531 33.8874 253.103 34.8797C252.726 35.8192 252.178 36.6806 251.487 37.4202C251.481 37.4271 251.477 37.4351 251.475 37.4437C251.475 37.4732 251.475 37.5158 251.475 37.5481C251.519 37.5555 251.569 37.5614 251.622 37.5672L251.838 37.5849C251.956 37.5937 252.086 37.5996 252.225 37.6055H252.42C252.579 37.6055 252.745 37.6055 252.912 37.6055C253.197 37.6055 253.484 37.6055 253.746 37.5908L253.962 37.5805C254.066 37.5805 254.163 37.5687 254.255 37.5614C254.393 37.553 254.529 37.5348 254.664 37.507C254.279 36.7719 254.197 36.3705 254.341 35.7707C254.398 35.5433 254.47 35.3198 254.557 35.1017C254.918 34.1589 255.284 33.2179 255.653 32.279C255.733 32.1001 255.821 31.9254 255.919 31.7556H257.763H259.596C260.206 31.7556 260.817 31.7438 261.427 31.7556C262.037 31.7673 262.641 31.6924 263.27 31.8144C263.361 32.0143 263.458 32.1996 263.534 32.3937C263.86 33.2228 264.185 34.0535 264.501 34.893C264.639 35.2679 264.776 35.6442 264.885 36.028ZM262.21 30.4751C260.511 30.5486 257.067 30.5015 256.511 30.3957C256.4 30.1575 256.548 29.9546 256.629 29.7444C257.002 28.7843 257.387 27.8331 257.768 26.8701C258.226 25.716 258.679 24.5605 259.143 23.4079C259.237 23.1726 259.29 22.9109 259.519 22.708C259.605 22.7507 259.666 22.761 259.683 22.7918C260.662 25.2265 261.635 27.6626 262.6 30.1001C262.622 30.1965 262.633 30.2952 262.632 30.3942C262.493 30.4306 262.352 30.4576 262.21 30.4751V30.4751Z" fill="#B5BCC8"/>
<path d="M187.644 34.5817C187.644 34.3744 187.626 34.1671 187.61 33.7996C187.316 34.0598 187.149 34.2127 186.981 34.37C186.326 34.9782 185.583 35.4842 184.777 35.8711C183.323 36.5746 181.667 36.7368 180.105 36.3286C178.543 35.9204 177.177 34.9685 176.253 33.6437C175.805 33.0103 175.446 32.3176 175.188 31.5855C174.526 29.7125 174.402 27.6917 174.829 25.7518C175.123 24.3507 175.693 23.0686 176.653 21.9866C177.633 20.881 178.828 20.1195 180.296 19.8607C181.456 19.647 182.65 19.7058 183.783 20.0327C184.878 20.347 185.829 21.0307 186.477 21.9675C186.653 22.2159 186.794 22.4894 186.953 22.7496C187.008 22.8364 187.015 22.9819 187.178 22.9481C187.254 21.4544 187.229 20.0386 187.11 19.4726C186.896 19.3726 186.67 19.252 186.43 19.155C184.596 18.4008 182.594 18.1472 180.63 18.4199C177.783 18.7919 175.514 20.1459 173.964 22.5482C172.008 25.5783 171.655 28.87 172.831 32.2706C173.842 35.1992 175.929 37.0237 178.926 37.7926C180.003 38.0449 181.113 38.1262 182.215 38.0337C183.991 37.936 185.679 37.2264 186.991 36.0254C187.786 35.3139 187.629 35.4535 187.644 34.5817Z" fill="#B5BCC8"/>
<path d="M249.71 18.8383H246.117C242.972 18.8383 239.826 18.8407 236.679 18.8456C236.385 18.8456 236.068 18.7898 235.798 18.9338C235.611 19.1691 235.651 19.4366 235.629 19.691C235.587 20.132 235.551 20.5731 235.512 21.0141C235.598 20.9877 235.711 20.9862 235.764 20.9289C236.225 20.4349 236.816 20.2408 237.461 20.1703C237.764 20.1364 238.068 20.0982 238.371 20.0938C239.263 20.0835 240.156 20.0938 241.048 20.0938C242.122 20.0938 242.092 20.0512 242.092 21.1303C242.092 25.6889 242.092 30.2465 242.092 34.8031C242.092 34.9912 242.092 35.1794 242.092 35.3676C242.042 36.1027 241.905 36.8099 241.432 37.4112C241.41 37.4391 241.432 37.4979 241.432 37.5435C241.873 37.6332 243.87 37.6729 244.716 37.6038C244.78 37.5841 244.841 37.5533 244.894 37.5126C244.876 37.44 244.849 37.3695 244.816 37.3024C244.47 36.7951 244.28 36.1977 244.269 35.5837C244.255 35.0897 244.218 34.5972 244.217 34.1047C244.217 30.5331 244.217 26.9621 244.217 23.3915C244.217 22.5696 244.217 21.7478 244.217 20.9245C244.217 20.6701 244.181 20.404 244.377 20.1497C244.527 20.1228 244.68 20.1047 244.832 20.0953C245.231 20.0865 245.63 20.0953 246.03 20.0953C246.71 20.0953 247.394 20.0644 248.071 20.1026C249.541 20.185 249.835 20.2614 250.716 21.1318C250.716 19.9086 250.652 19.3675 250.465 18.8868C250.218 18.8589 249.964 18.8397 249.71 18.8383Z" fill="#B5BCC8"/>
<path d="M273.662 37.5944C275.752 37.5944 277.841 37.5944 279.93 37.5944C281.058 37.5944 282.184 37.59 283.31 37.5811C283.539 37.5811 283.783 37.6341 283.98 37.4606C284.233 36.6182 284.346 35.6037 284.234 35.1377C284.182 35.1834 284.133 35.2325 284.087 35.2847C283.868 35.5619 283.595 35.7916 283.284 35.9599C282.973 36.1282 282.632 36.2316 282.28 36.2639C281.815 36.3291 281.348 36.3689 280.879 36.3829C279.424 36.3976 277.968 36.3829 276.513 36.3829C276.349 36.3829 276.184 36.3829 276.021 36.3712C275.786 36.3491 275.671 36.2536 275.648 36.0257C275.625 35.7686 275.616 35.5104 275.62 35.2524C275.62 31.0241 275.62 26.7958 275.62 22.5676C275.62 22.1441 275.608 21.7222 275.62 21.2988C275.651 20.5416 275.767 19.8036 276.208 19.1582C276.243 19.0819 276.266 19.0005 276.277 18.9171C275.414 18.8245 273.393 18.8465 272.888 18.9479C272.888 18.97 272.869 19.0009 272.878 19.0141C273.402 19.7492 273.555 20.5843 273.552 21.4782C273.54 25.9416 273.54 30.4052 273.552 34.8687C273.552 35.8037 273.405 36.6873 272.772 37.5811C273.151 37.5841 273.407 37.5944 273.662 37.5944Z" fill="#B5BCC8"/>
<path d="M139.631 37.5748C139.645 37.5586 139.645 37.5321 139.668 37.4557C139.052 36.7735 138.942 35.9032 138.943 34.9917C138.949 30.4831 138.949 25.9686 138.943 21.4483C138.943 21.2601 138.943 21.0719 138.958 20.8852C138.978 20.2693 139.182 19.6735 139.543 19.1739C139.604 19.0795 139.659 18.9813 139.707 18.8798C139.188 18.7872 137.243 18.7534 136.289 18.8181C136.189 18.8352 136.091 18.8608 135.995 18.8945C136.046 18.9857 136.101 19.0741 136.161 19.1592C136.537 19.6437 136.744 20.2381 136.75 20.8514C136.767 21.1807 136.767 21.51 136.767 21.8393C136.767 25.4374 136.767 29.0344 136.767 32.6305C136.767 33.5244 136.767 34.4183 136.767 35.3122C136.767 36.1105 136.577 36.8456 136.069 37.4645C136.076 37.5057 136.069 37.5366 136.085 37.5498C136.101 37.563 136.155 37.6248 136.191 37.6248C137.153 37.6306 138.116 37.6341 139.08 37.6351C139.243 37.6351 139.406 37.6174 139.569 37.6042C139.593 37.6023 139.615 37.5919 139.631 37.5748V37.5748Z" fill="#B5BCC8"/>
<path d="M228.084 37.328C228.044 37.4127 228.016 37.5028 228.002 37.5956C228.196 37.6059 228.334 37.6206 228.472 37.6191C229.434 37.6103 230.396 37.5995 231.358 37.5867C231.382 37.5847 231.405 37.5749 231.423 37.5588C231.444 37.5321 231.463 37.503 231.478 37.4721C231.443 37.3979 231.404 37.3257 231.361 37.256C231.065 36.8291 230.888 36.3306 230.85 35.8122C230.822 35.4153 230.795 35.0169 230.795 34.6184C230.795 30.3657 230.795 26.1134 230.795 21.8616C230.795 21.5808 230.795 21.2985 230.81 21.0162C230.85 20.3517 230.992 19.7151 231.398 19.1653C231.446 19.0786 231.488 18.9887 231.524 18.8962C231.417 18.8659 231.308 18.8447 231.198 18.833C230.165 18.833 229.133 18.8413 228.1 18.858C228.065 18.858 228.029 18.9065 227.978 18.9433C227.989 19.0064 228.011 19.0671 228.043 19.1226C228.52 19.7225 228.645 20.4326 228.686 21.1691C228.686 21.2632 228.686 21.3573 228.686 21.4514C228.686 25.9855 228.686 30.5191 228.686 35.0521C228.686 35.1698 228.686 35.2888 228.686 35.405C228.626 36.0901 228.507 36.7561 228.084 37.328Z" fill="#B5BCC8"/>
<path d="M235.504 21.0202C235.512 21.0402 235.519 21.0582 235.526 21.0742C235.526 21.0877 235.541 21.1012 235.549 21.1148L235.504 21.0142V21.0202Z" fill="#B5BCC8"/>
<path d="M77.792 44.5207H76.3988V48.3873H75.8316V44.5207H74.4414V44.0532H77.792V44.5207Z" fill="#B5BCC8"/>
<path d="M81.7641 48.3932H81.1895V46.3893H79.0057V48.3932H78.4341V44.0591H79.0057V45.9218H81.1895V44.0591H81.7641V48.3932Z" fill="#B5BCC8"/>
<path d="M85.2266 46.3893H83.35V47.9257H85.5308V48.3932H82.7783V44.0591H85.5014V44.5207H83.35V45.9159H85.2266V46.3893Z" fill="#B5BCC8"/>
<path d="M88.3214 46.6966V48.3932H87.7498V44.0591H89.3472C89.8213 44.0591 90.1931 44.1801 90.4625 44.4222C90.5958 44.5433 90.701 44.6921 90.7705 44.8583C90.8401 45.0244 90.8724 45.2038 90.8652 45.3837C90.8763 45.5649 90.8467 45.7462 90.7785 45.9143C90.7104 46.0825 90.6054 46.2333 90.4714 46.3555C90.2088 46.5829 89.8321 46.6966 89.3413 46.6966H88.3214ZM88.3214 46.2291H89.3501C89.6029 46.246 89.853 46.1691 90.0525 46.013C90.1366 45.9331 90.202 45.8358 90.2441 45.7278C90.2863 45.6198 90.3042 45.5038 90.2965 45.3881C90.3018 45.2734 90.2828 45.1588 90.2407 45.0519C90.1987 44.9449 90.1346 44.8481 90.0525 44.7677C89.8687 44.6047 89.6294 44.5184 89.3839 44.5266H88.3214V46.2291Z" fill="#B5BCC8"/>
<path d="M94.0423 46.3893H92.1656V47.9257H94.3465V48.3932H91.594V44.0591H94.3171V44.5207H92.1656V45.9159H94.0423V46.3893Z" fill="#B5BCC8"/>
<path d="M96.6462 46.6393H95.6293V48.3932H95.0547V44.0591H96.4846C96.9744 44.0591 97.3496 44.1703 97.6102 44.3928C97.745 44.5142 97.8505 44.6646 97.9187 44.8327C97.9869 45.0007 98.0161 45.1821 98.0041 45.3631C98.0092 45.6156 97.9329 45.8631 97.7866 46.0688C97.6307 46.2723 97.4187 46.4257 97.1767 46.5099L98.1951 48.3506V48.3859H97.5867L96.6462 46.6393ZM95.6293 46.1717H96.511C96.7559 46.1848 96.9969 46.1061 97.187 45.9512C97.2699 45.878 97.3354 45.7872 97.3789 45.6855C97.4224 45.5838 97.4427 45.4737 97.4383 45.3631C97.4458 45.2491 97.4284 45.1348 97.3873 45.0281C97.3462 44.9215 97.2824 44.8251 97.2002 44.7457C97.0041 44.5905 96.7577 44.513 96.5081 44.5281H95.6337L95.6293 46.1717Z" fill="#B5BCC8"/>
<path d="M101.199 46.4795H99.381V48.3908H98.8093V44.0566H101.493V44.5212H99.381V46.0061H101.199V46.4795Z" fill="#B5BCC8"/>
<path d="M104.626 46.3893H102.749V47.9257H104.93V48.3932H102.178V44.0591H104.899V44.5207H102.749V45.9159H104.626V46.3893Z" fill="#B5BCC8"/>
<path d="M108.829 47.021C108.8 47.4264 108.619 47.8059 108.322 48.0825C108.003 48.3439 107.598 48.477 107.186 48.4559C106.952 48.4643 106.72 48.4191 106.507 48.3238C106.294 48.2284 106.105 48.0856 105.956 47.9061C105.647 47.5385 105.493 47.0485 105.493 46.4359V46.0184C105.485 45.6524 105.559 45.2893 105.709 44.9554C105.839 44.6657 106.052 44.4208 106.32 44.2512C106.596 44.0843 106.914 43.9992 107.237 44.0057C107.642 43.9863 108.039 44.1249 108.344 44.3924C108.634 44.6744 108.807 45.0556 108.829 45.4597H108.254C108.234 45.1794 108.12 44.9141 107.931 44.707C107.739 44.5416 107.49 44.4577 107.237 44.4732C107.072 44.4667 106.907 44.5002 106.758 44.5708C106.608 44.6414 106.478 44.7472 106.377 44.879C106.172 45.1495 106.067 45.5332 106.067 46.0316V46.4521C106.047 46.8479 106.15 47.2402 106.361 47.5753C106.452 47.7089 106.575 47.8172 106.72 47.89C106.864 47.9628 107.024 47.9976 107.186 47.9914C107.448 48.0104 107.709 47.9343 107.92 47.7767C108.091 47.6297 108.203 47.3812 108.258 47.024L108.829 47.021Z" fill="#B5BCC8"/>
<path d="M112.513 44.5207H111.122V48.3873H110.553V44.5207H109.164V44.0532H112.513V44.5207Z" fill="#B5BCC8"/>
<path d="M115.822 46.4623C115.431 46.3713 115.066 46.1934 114.753 45.9419C114.645 45.8471 114.559 45.73 114.501 45.5987C114.444 45.4675 114.415 45.3252 114.418 45.1818C114.415 45.0185 114.451 44.8568 114.522 44.7098C114.593 44.5628 114.698 44.4344 114.828 44.335C115.131 44.1008 115.507 43.982 115.89 43.9998C116.165 43.9953 116.438 44.0547 116.687 44.1733C116.908 44.2777 117.096 44.4429 117.227 44.6496C117.355 44.8472 117.422 45.0776 117.42 45.3127H116.845C116.851 45.1975 116.832 45.0824 116.789 44.9754C116.746 44.8685 116.68 44.7723 116.595 44.6937C116.397 44.5316 116.145 44.4506 115.89 44.4673C115.656 44.4538 115.424 44.5196 115.232 44.654C115.154 44.7154 115.092 44.7943 115.051 44.8843C115.01 44.9742 114.991 45.0727 114.995 45.1715C114.996 45.2574 115.017 45.3418 115.056 45.4183C115.095 45.4948 115.151 45.5613 115.22 45.6126C115.451 45.7731 115.71 45.8874 115.984 45.9492C116.279 46.0235 116.563 46.1362 116.829 46.2844C117.013 46.3865 117.169 46.5331 117.282 46.7108C117.383 46.8851 117.434 47.0841 117.429 47.2857C117.433 47.449 117.399 47.611 117.327 47.758C117.256 47.9049 117.15 48.0324 117.019 48.1295C116.698 48.3538 116.312 48.465 115.921 48.4456C115.634 48.4485 115.35 48.3904 115.088 48.2751C114.849 48.1767 114.643 48.0144 114.491 47.8061C114.351 47.6085 114.278 47.3718 114.281 47.1298H114.854C114.85 47.2494 114.874 47.3682 114.926 47.4764C114.977 47.5846 115.053 47.6789 115.148 47.7517C115.374 47.9127 115.647 47.9925 115.924 47.9781C116.168 47.9946 116.412 47.93 116.616 47.7943C116.694 47.7364 116.757 47.6603 116.799 47.5727C116.841 47.4851 116.861 47.3886 116.857 47.2915C116.862 47.1977 116.845 47.104 116.806 47.0183C116.767 46.9326 116.709 46.8574 116.635 46.799C116.385 46.6412 116.111 46.5273 115.822 46.4623V46.4623Z" fill="#B5BCC8"/>
<path d="M121.493 46.3659C121.502 46.7475 121.429 47.1264 121.279 47.4774C121.153 47.7741 120.942 48.0265 120.672 48.2022C120.469 48.3337 120.241 48.4197 120.002 48.4545C119.763 48.4893 119.519 48.4719 119.288 48.4036C119.056 48.3353 118.842 48.2177 118.66 48.0588C118.478 47.9 118.333 47.7036 118.234 47.4833C118.082 47.1439 118.006 46.7758 118.009 46.4041V46.0924C118.001 45.713 118.075 45.3364 118.227 44.9883C118.352 44.6899 118.564 44.436 118.836 44.2596C119.107 44.0832 119.425 43.9924 119.749 43.9989C120.073 43.9922 120.392 44.0795 120.668 44.2503C120.94 44.4286 121.153 44.6847 121.279 44.9854C121.428 45.3365 121.501 45.7153 121.493 46.0969V46.3659ZM120.925 46.0866C120.925 45.572 120.822 45.1775 120.616 44.9031C120.516 44.7691 120.385 44.6616 120.233 44.5899C120.082 44.5181 119.916 44.4844 119.749 44.4914C119.584 44.4851 119.42 44.5194 119.272 44.5911C119.123 44.6629 118.994 44.77 118.897 44.9031C118.69 45.1785 118.584 45.5597 118.578 46.0469V46.3659C118.578 46.8648 118.682 47.2569 118.891 47.5421C118.992 47.6728 119.122 47.779 119.27 47.8528C119.418 47.9266 119.581 47.9661 119.746 47.9684C119.912 47.9706 120.076 47.9356 120.226 47.8659C120.376 47.7961 120.508 47.6935 120.613 47.5656C120.815 47.296 120.919 46.9104 120.925 46.4085V46.0866Z" fill="#B5BCC8"/>
<path d="M122.925 47.9257H124.982V48.3932H122.349V44.0591H122.923L122.925 47.9257Z" fill="#B5BCC8"/>
<path d="M128.521 44.0601V47.0005C128.527 47.1851 128.496 47.369 128.43 47.5414C128.363 47.7139 128.264 47.8713 128.136 48.0046C127.857 48.2762 127.487 48.4335 127.098 48.4457H126.951C126.539 48.4674 126.133 48.3301 125.818 48.0619C125.675 47.9269 125.563 47.7626 125.489 47.5802C125.415 47.3978 125.381 47.2016 125.389 47.0049V44.0527H125.955V46.9931C125.941 47.1272 125.957 47.2627 126.002 47.3897C126.048 47.5167 126.121 47.6319 126.216 47.727C126.312 47.822 126.427 47.8944 126.555 47.9389C126.682 47.9834 126.817 47.9988 126.951 47.984C127.086 47.9934 127.221 47.9753 127.349 47.9308C127.477 47.8863 127.594 47.8164 127.693 47.7253C127.784 47.6267 127.854 47.5106 127.898 47.3842C127.942 47.2579 127.96 47.1238 127.951 46.9902V44.0498L128.521 44.0601Z" fill="#B5BCC8"/>
<path d="M132.412 44.5207H131.019V48.3873H130.45V44.5207H129.062V44.0532H132.411L132.412 44.5207Z" fill="#B5BCC8"/>
<path d="M133.664 48.3932H133.092V44.0591H133.664V48.3932Z" fill="#B5BCC8"/>
<path d="M138.045 46.3659C138.053 46.7475 137.98 47.1264 137.83 47.4774C137.705 47.7741 137.493 48.0265 137.223 48.2022C137.021 48.3337 136.792 48.4197 136.553 48.4545C136.314 48.4893 136.071 48.4719 135.839 48.4036C135.608 48.3353 135.394 48.2177 135.212 48.0588C135.03 47.9 134.884 47.7036 134.785 47.4833C134.634 47.1439 134.557 46.7758 134.561 46.4041V46.0924C134.553 45.713 134.627 45.3364 134.778 44.9883C134.904 44.6899 135.116 44.436 135.387 44.2596C135.659 44.0832 135.977 43.9924 136.301 43.9989C136.625 43.9922 136.944 44.0795 137.219 44.2503C137.492 44.4286 137.705 44.6847 137.83 44.9854C137.98 45.3365 138.053 45.7153 138.045 46.0969V46.3659ZM137.476 46.0866C137.476 45.572 137.373 45.1775 137.168 44.9031C137.067 44.7691 136.936 44.6616 136.785 44.5899C136.634 44.5181 136.468 44.4844 136.301 44.4914C136.136 44.4851 135.972 44.5194 135.823 44.5911C135.675 44.6629 135.546 44.77 135.448 44.9031C135.242 45.1785 135.135 45.5597 135.129 46.0469V46.3659C135.129 46.8648 135.234 47.2569 135.442 47.5421C135.544 47.6728 135.673 47.779 135.822 47.8528C135.97 47.9266 136.132 47.9661 136.298 47.9684C136.463 47.9706 136.627 47.9356 136.777 47.8659C136.927 47.7961 137.06 47.6935 137.165 47.5656C137.366 47.296 137.47 46.9104 137.476 46.4085V46.0866Z" fill="#B5BCC8"/>
<path d="M142.232 48.3932H141.658L139.477 45.0529V48.3932H138.902V44.0591H139.477L141.663 47.4141V44.0591H142.232V48.3932Z" fill="#B5BCC8"/>
<path d="M147.143 46.4795H145.325V48.3908H144.753V44.0566H147.438V44.5212H145.325V46.0061H147.143V46.4795Z" fill="#B5BCC8"/>
<path d="M151.455 46.3659C151.463 46.7475 151.39 47.1264 151.24 47.4774C151.114 47.7741 150.903 48.0265 150.633 48.2022C150.431 48.3337 150.202 48.4197 149.963 48.4545C149.724 48.4893 149.48 48.4719 149.249 48.4036C149.017 48.3353 148.803 48.2177 148.621 48.0588C148.439 47.9 148.294 47.7036 148.195 47.4833C148.043 47.1439 147.967 46.7758 147.97 46.4041V46.0924C147.962 45.713 148.037 45.3364 148.188 44.9883C148.313 44.6896 148.526 44.4356 148.798 44.2592C149.069 44.0828 149.388 43.9921 149.712 43.9989C150.035 43.9924 150.354 44.0797 150.629 44.2503C150.901 44.4286 151.114 44.6847 151.24 44.9854C151.389 45.3365 151.463 45.7153 151.455 46.0969V46.3659ZM150.886 46.0866C150.886 45.572 150.783 45.1775 150.577 44.9031C150.477 44.7693 150.346 44.662 150.195 44.5902C150.045 44.5185 149.879 44.4846 149.712 44.4914C149.547 44.485 149.382 44.5192 149.234 44.5909C149.085 44.6627 148.956 44.7699 148.858 44.9031C148.651 45.1785 148.545 45.5598 148.539 46.0469V46.3659C148.539 46.8648 148.643 47.2569 148.852 47.5421C148.953 47.6728 149.083 47.779 149.231 47.8528C149.379 47.9266 149.542 47.9661 149.708 47.9684C149.873 47.9706 150.037 47.9356 150.187 47.8659C150.337 47.7961 150.469 47.6935 150.574 47.5656C150.775 47.2961 150.879 46.9104 150.886 46.4085V46.0866Z" fill="#B5BCC8"/>
<path d="M153.9 46.6393H152.883V48.3932H152.309V44.0591H153.743C154.233 44.0591 154.608 44.1703 154.869 44.3928C155.004 44.514 155.109 44.6644 155.178 44.8325C155.246 45.0005 155.276 45.182 155.264 45.3631C155.269 45.6158 155.192 45.8632 155.045 46.0688C154.889 46.272 154.678 46.4253 154.436 46.5099L155.453 48.3506V48.3859H154.841L153.9 46.6393ZM152.883 46.1717H153.765C154.01 46.1847 154.252 46.1061 154.442 45.9512C154.525 45.878 154.591 45.7872 154.634 45.6855C154.678 45.5838 154.698 45.4737 154.694 45.3631C154.701 45.249 154.683 45.1346 154.642 45.028C154.601 44.9214 154.536 44.825 154.454 44.7457C154.258 44.5905 154.012 44.513 153.762 44.5281H152.88L152.883 46.1717Z" fill="#B5BCC8"/>
<path d="M160.021 46.3893H158.143V47.9257H160.323V48.3932H157.573V44.0591H160.294V44.5207H158.143V45.9159H160.021V46.3893Z" fill="#B5BCC8"/>
<path d="M163.427 47.2582H161.612L161.205 48.3932H160.617L162.272 44.0591H162.772L164.428 48.3932H163.84L163.427 47.2582ZM161.785 46.7922H163.255L162.52 44.7648L161.785 46.7922Z" fill="#B5BCC8"/>
<path d="M166.288 46.4623C165.897 46.3713 165.531 46.1934 165.218 45.9419C165.111 45.8471 165.025 45.73 164.967 45.5987C164.909 45.4675 164.881 45.3252 164.883 45.1818C164.881 45.0185 164.917 44.8568 164.988 44.7098C165.059 44.5628 165.164 44.4344 165.293 44.335C165.596 44.1008 165.973 43.982 166.356 43.9998C166.631 43.9953 166.904 44.0547 167.152 44.1733C167.374 44.2777 167.561 44.4429 167.693 44.6496C167.82 44.8472 167.887 45.0776 167.885 45.3127H167.317C167.323 45.1975 167.304 45.0824 167.26 44.9754C167.217 44.8685 167.151 44.7723 167.067 44.6937C166.869 44.5316 166.617 44.4506 166.361 44.4673C166.127 44.4538 165.895 44.5196 165.703 44.654C165.626 44.7154 165.564 44.7943 165.522 44.8843C165.481 44.9742 165.462 45.0727 165.466 45.1715C165.468 45.2574 165.488 45.3418 165.527 45.4183C165.566 45.4948 165.622 45.5613 165.691 45.6126C165.922 45.7731 166.181 45.8874 166.456 45.9492C166.751 46.0235 167.035 46.1362 167.301 46.2844C167.485 46.3865 167.64 46.5331 167.753 46.7108C167.854 46.8851 167.905 47.0841 167.9 47.2857C167.905 47.449 167.87 47.611 167.799 47.758C167.727 47.9049 167.621 48.0324 167.49 48.1295C167.169 48.3538 166.783 48.465 166.392 48.4456C166.106 48.4485 165.822 48.3904 165.559 48.2751C165.321 48.1767 165.114 48.0144 164.962 47.8061C164.823 47.6085 164.749 47.3718 164.752 47.1298H165.327C165.323 47.2494 165.347 47.3682 165.399 47.4764C165.45 47.5846 165.526 47.6789 165.621 47.7517C165.846 47.9127 166.12 47.9925 166.397 47.9781C166.641 47.9946 166.885 47.93 167.089 47.7943C167.167 47.7364 167.23 47.6603 167.272 47.5727C167.314 47.4851 167.334 47.3886 167.33 47.2915C167.335 47.1977 167.317 47.104 167.279 47.0183C167.24 46.9326 167.182 46.8574 167.108 46.799C166.856 46.6404 166.579 46.5265 166.288 46.4623Z" fill="#B5BCC8"/>
<path d="M169.946 46.235L171.077 44.0591H171.725L170.232 46.776V48.3932H169.668V46.776L168.174 44.0591H168.829L169.946 46.235Z" fill="#B5BCC8"/>
<path d="M176.186 47.2582H174.371L173.962 48.3932H173.374L175.028 44.0591H175.527L177.185 48.3932H176.597L176.186 47.2582ZM174.543 46.7922H176.012L175.277 44.7648L174.543 46.7922Z" fill="#B5BCC8"/>
<path d="M181.099 48.3932H180.524L178.339 45.0529V48.3932H177.764V44.0591H178.339L180.525 47.4141V44.0591H181.094L181.099 48.3932Z" fill="#B5BCC8"/>
<path d="M182.112 48.3935V44.0595H183.335C183.684 44.0527 184.029 44.1389 184.334 44.3094C184.623 44.4751 184.857 44.7227 185.006 45.021C185.168 45.3505 185.25 45.7137 185.245 46.081V46.3573C185.253 46.7293 185.172 47.0979 185.009 47.4321C184.86 47.7307 184.624 47.9776 184.333 48.1407C184.019 48.3104 183.668 48.3974 183.311 48.3935H182.112ZM182.684 44.527V47.926H183.285C183.476 47.9371 183.667 47.906 183.845 47.8349C184.023 47.7637 184.183 47.6543 184.314 47.5144C184.559 47.2409 184.681 46.8499 184.681 46.3382V46.0854C184.681 45.5929 184.566 45.2033 184.334 44.9371C184.212 44.7983 184.06 44.6888 183.89 44.6167C183.72 44.5447 183.536 44.512 183.351 44.5211L182.684 44.527Z" fill="#B5BCC8"/>
<path d="M188.185 46.6966V48.3932H187.615V44.0591H189.213C189.687 44.0591 190.058 44.1801 190.327 44.4222C190.461 44.5433 190.566 44.6921 190.635 44.8583C190.705 45.0244 190.737 45.2038 190.73 45.3837C190.741 45.5649 190.711 45.7462 190.643 45.9143C190.575 46.0825 190.47 46.2333 190.336 46.3555C190.074 46.5829 189.697 46.6966 189.207 46.6966H188.185ZM188.185 46.2291H189.213C189.466 46.246 189.716 46.1691 189.916 46.013C190 45.9329 190.065 45.8355 190.107 45.7276C190.149 45.6197 190.167 45.5038 190.16 45.3881C190.165 45.2734 190.146 45.1589 190.103 45.0521C190.061 44.9452 189.998 44.8483 189.916 44.7677C189.731 44.605 189.492 44.5188 189.246 44.5266H188.185V46.2291Z" fill="#B5BCC8"/>
<path d="M193.05 46.6393H192.031V48.3932H191.457V44.0591H192.887C193.375 44.0591 193.751 44.1708 194.012 44.3928C194.147 44.514 194.253 44.6644 194.322 44.8325C194.39 45.0005 194.42 45.182 194.408 45.3631C194.412 45.6158 194.336 45.8632 194.189 46.0688C194.034 46.2726 193.822 46.426 193.58 46.5099L194.597 48.3506V48.3859H193.989L193.05 46.6393ZM192.031 46.1717H192.913C193.158 46.1847 193.4 46.1061 193.591 45.9512C193.673 45.878 193.739 45.7872 193.782 45.6855C193.826 45.5838 193.846 45.4737 193.842 45.3631C193.85 45.249 193.832 45.1345 193.791 45.0278C193.749 44.9211 193.685 44.8248 193.602 44.7457C193.406 44.5905 193.16 44.513 192.91 44.5281H192.028L192.031 46.1717Z" fill="#B5BCC8"/>
<path d="M198.544 46.3659C198.553 46.7475 198.48 47.1264 198.33 47.4774C198.204 47.7741 197.993 48.0265 197.723 48.2022C197.52 48.3337 197.292 48.4197 197.053 48.4545C196.814 48.4893 196.57 48.4719 196.339 48.4036C196.107 48.3353 195.893 48.2177 195.711 48.0588C195.529 47.9 195.384 47.7036 195.285 47.4833C195.133 47.1439 195.057 46.7758 195.06 46.4041V46.0924C195.052 45.713 195.126 45.3364 195.278 44.9883C195.403 44.6896 195.616 44.4356 195.888 44.2592C196.159 44.0828 196.478 43.9921 196.802 43.9989C197.125 43.9924 197.444 44.0797 197.719 44.2503C197.991 44.4286 198.204 44.6847 198.33 44.9854C198.479 45.3365 198.552 45.7153 198.544 46.0969V46.3659ZM197.976 46.0866C197.976 45.572 197.873 45.1775 197.667 44.9031C197.564 44.7745 197.433 44.6708 197.284 44.5995C197.135 44.5283 196.972 44.4913 196.807 44.4913C196.642 44.4913 196.48 44.5283 196.331 44.5995C196.182 44.6708 196.051 44.7745 195.948 44.9031C195.742 45.178 195.635 45.5588 195.629 46.0469V46.3659C195.629 46.8648 195.733 47.2569 195.942 47.5421C196.043 47.6728 196.173 47.779 196.321 47.8528C196.469 47.9266 196.632 47.9661 196.797 47.9684C196.963 47.9706 197.127 47.9356 197.277 47.8659C197.427 47.7961 197.559 47.6935 197.664 47.5656C197.866 47.2961 197.97 46.9104 197.976 46.4085V46.0866Z" fill="#B5BCC8"/>
<path d="M201.791 46.4795H199.973V48.3908H199.401V44.0566H202.085V44.5212H199.973V46.0061H201.791V46.4795Z" fill="#B5BCC8"/>
<path d="M203.383 48.3932H202.811V44.0591H203.383V48.3932Z" fill="#B5BCC8"/>
<path d="M207.334 44.5207H205.941V48.3873H205.378V44.5207H203.988V44.0532H207.338L207.334 44.5207Z" fill="#B5BCC8"/>
<path d="M210.134 47.2582H208.317L207.91 48.3932H207.322L208.977 44.0591H209.477L211.133 48.3932H210.545L210.134 47.2582ZM208.491 46.7922H209.96L209.225 44.7648L208.491 46.7922Z" fill="#B5BCC8"/>
<path d="M211.716 48.3932V44.0591H213.133C213.603 44.0591 213.956 44.1561 214.194 44.3531C214.316 44.4602 214.411 44.5939 214.473 44.7438C214.534 44.8937 214.561 45.0559 214.55 45.2176C214.552 45.4106 214.491 45.5991 214.376 45.7542C214.255 45.915 214.092 46.04 213.906 46.1159C214.128 46.173 214.325 46.3048 214.461 46.4893C214.599 46.6802 214.671 46.911 214.666 47.1465C214.674 47.3176 214.645 47.4884 214.58 47.6468C214.514 47.8052 214.415 47.9471 214.288 48.0624C214.035 48.2849 213.679 48.3961 213.22 48.3961L211.716 48.3932ZM212.288 45.9071H213.151C213.367 45.9186 213.579 45.8517 213.75 45.7189C213.824 45.657 213.883 45.5787 213.922 45.4902C213.961 45.4017 213.979 45.3054 213.975 45.2088C213.984 45.1117 213.969 45.014 213.933 44.9236C213.897 44.8331 213.84 44.7525 213.766 44.6883C213.578 44.567 213.356 44.5102 213.133 44.5266H212.285L212.288 45.9071ZM212.288 46.3658V47.9257H213.231C213.46 47.9384 213.684 47.8643 213.86 47.7184C213.938 47.6462 213.999 47.5579 214.039 47.4596C214.079 47.3612 214.097 47.2554 214.091 47.1494C214.091 46.627 213.807 46.3658 213.24 46.3658H212.288Z" fill="#B5BCC8"/>
<path d="M216.084 47.9257H218.141V48.3932H215.518V44.0591H216.091L216.084 47.9257Z" fill="#B5BCC8"/>
<path d="M221.237 46.3893H219.361V47.9257H221.543V48.3932H218.789V44.0591H221.511V44.5207H219.361V45.9159H221.237V46.3893Z" fill="#B5BCC8"/>
<path d="M223.761 48.3932V44.0591H225.177C225.648 44.0591 226 44.1561 226.238 44.3531C226.36 44.4603 226.455 44.594 226.516 44.744C226.578 44.8939 226.604 45.056 226.593 45.2176C226.595 45.4105 226.535 45.599 226.421 45.7542C226.299 45.915 226.137 46.04 225.95 46.1159C226.172 46.1738 226.368 46.3054 226.506 46.4893C226.643 46.6803 226.715 46.9111 226.709 47.1465C226.718 47.3176 226.688 47.4886 226.623 47.647C226.558 47.8054 226.458 47.9473 226.331 48.0624C226.079 48.2849 225.723 48.3961 225.263 48.3961L223.761 48.3932ZM224.332 45.9071H225.195C225.411 45.9186 225.624 45.8517 225.795 45.7189C225.869 45.657 225.928 45.5787 225.967 45.4902C226.006 45.4017 226.024 45.3054 226.019 45.2088C226.028 45.1117 226.014 45.014 225.977 44.9236C225.941 44.8331 225.884 44.7525 225.811 44.6883C225.623 44.567 225.4 44.5102 225.177 44.5266H224.335L224.332 45.9071ZM224.332 46.3658V47.9257H225.276C225.504 47.9381 225.729 47.8641 225.905 47.7184C225.982 47.6458 226.043 47.5574 226.082 47.4592C226.122 47.361 226.14 47.2553 226.136 47.1494C226.136 46.627 225.852 46.3658 225.285 46.3658H224.332Z" fill="#B5BCC8"/>
<path d="M228.128 47.9257H230.185V48.3932H227.553V44.0591H228.128V47.9257Z" fill="#B5BCC8"/>
<path d="M233.282 47.2582H231.467L231.059 48.3932H230.471L232.124 44.0591H232.624L234.281 48.3932H233.693L233.282 47.2582ZM231.639 46.7922H233.109L232.374 44.7648L231.639 46.7922Z" fill="#B5BCC8"/>
<path d="M238.018 47.0211C237.991 47.4268 237.81 47.8067 237.511 48.0825C237.193 48.3437 236.788 48.4768 236.377 48.456C236.143 48.4645 235.911 48.4194 235.697 48.3241C235.484 48.2288 235.295 48.0858 235.145 47.9061C234.837 47.5386 234.682 47.0485 234.682 46.4359V46.0184C234.675 45.6524 234.749 45.2893 234.898 44.9554C235.029 44.6657 235.241 44.4208 235.51 44.2512C235.786 44.0845 236.104 43.9994 236.427 44.0057C236.832 43.9863 237.228 44.1249 237.533 44.3924C237.823 44.6744 237.997 45.0556 238.018 45.4597H237.444C237.425 45.1796 237.311 44.9142 237.122 44.707C236.929 44.5417 236.68 44.4579 236.427 44.4732C236.262 44.4669 236.097 44.5005 235.948 44.5711C235.799 44.6418 235.669 44.7474 235.569 44.879C235.361 45.1495 235.257 45.5337 235.257 46.0316V46.4521C235.236 46.8479 235.339 47.2405 235.551 47.5753C235.642 47.7091 235.765 47.8176 235.909 47.8904C236.053 47.9632 236.214 47.9979 236.375 47.9914C236.638 48.0102 236.899 47.934 237.11 47.7767C237.279 47.6297 237.392 47.3812 237.447 47.024L238.018 47.0211Z" fill="#B5BCC8"/>
<path d="M239.899 46.3785L239.369 46.9298V48.4H238.798V44.0659H239.369V46.2094L241.294 44.0659H241.984L240.28 45.9772L242.118 48.3971H241.433L239.899 46.3785Z" fill="#B5BCC8"/>
<path d="M245.713 47.021C245.685 47.4264 245.503 47.8059 245.206 48.0825C244.887 48.3439 244.482 48.477 244.07 48.4559C243.837 48.4643 243.604 48.4191 243.391 48.3238C243.178 48.2284 242.989 48.0856 242.84 47.9061C242.531 47.5385 242.377 47.0485 242.377 46.4359V46.0184C242.369 45.6524 242.443 45.2893 242.593 44.9554C242.723 44.6657 242.936 44.4208 243.204 44.2512C243.481 44.0843 243.799 43.9992 244.121 44.0057C244.526 43.9863 244.923 44.1249 245.228 44.3924C245.518 44.6744 245.691 45.0556 245.713 45.4597H245.138C245.119 45.1794 245.005 44.9141 244.815 44.707C244.623 44.5416 244.374 44.4577 244.121 44.4732C243.956 44.4667 243.792 44.5002 243.642 44.5708C243.492 44.6414 243.362 44.7472 243.262 44.879C243.056 45.1495 242.952 45.5332 242.952 46.0316V46.4521C242.931 46.8479 243.034 47.2402 243.246 47.5753C243.336 47.7089 243.46 47.8172 243.604 47.89C243.748 47.9628 243.909 47.9976 244.07 47.9914C244.333 48.0104 244.594 47.9343 244.805 47.7767C244.975 47.6297 245.087 47.3812 245.143 47.024L245.713 47.021Z" fill="#B5BCC8"/>
<path d="M249.821 48.3932H249.247V46.3893H247.063V48.3932H246.491V44.0591H247.063V45.9218H249.247V44.0591H249.821V48.3932Z" fill="#B5BCC8"/>
<path d="M253.286 47.2582H251.471L251.062 48.3932H250.474L252.129 44.0591H252.629L254.286 48.3932H253.699L253.286 47.2582ZM251.643 46.7922H253.112L252.377 44.7648L251.643 46.7922Z" fill="#B5BCC8"/>
<path d="M255.478 48.3932H254.902V44.0591H255.474L255.478 48.3932Z" fill="#B5BCC8"/>
<path d="M259.851 48.3932H259.277L257.096 45.0529V48.3932H256.518V44.0591H257.093L259.28 47.4141V44.0591H259.848L259.851 48.3932Z" fill="#B5BCC8"/>
<path d="M262.985 48.3932H262.413V44.0591H262.985V48.3932Z" fill="#B5BCC8"/>
<path d="M267.361 48.3932H266.786L264.601 45.0529V48.3932H264.028V44.0591H264.601L266.787 47.4141V44.0591H267.356L267.361 48.3932Z" fill="#B5BCC8"/>
<path d="M269.809 47.6346L271.048 44.0591H271.672L270.066 48.3932H269.559L267.956 44.0591H268.577L269.809 47.6346Z" fill="#B5BCC8"/>
<path d="M274.701 46.3893H272.83V47.9257H275.013V48.3932H272.26V44.0591H274.982V44.5207H272.83V45.9159H274.709L274.701 46.3893Z" fill="#B5BCC8"/>
<path d="M276.992 46.4624C276.601 46.371 276.236 46.1932 275.923 45.942C275.815 45.8471 275.729 45.7301 275.671 45.5988C275.614 45.4676 275.585 45.3253 275.587 45.1819C275.585 45.0185 275.621 44.8569 275.692 44.7099C275.763 44.5628 275.868 44.4345 275.997 44.335C276.301 44.1006 276.678 43.9817 277.061 43.9998C277.336 43.9954 277.608 44.0547 277.856 44.1733C278.078 44.2778 278.266 44.4429 278.399 44.6497C278.525 44.8476 278.591 45.0779 278.59 45.3127H278.015C278.021 45.1975 278.002 45.0824 277.959 44.9755C277.916 44.8685 277.85 44.7724 277.765 44.6938C277.568 44.5318 277.316 44.4509 277.061 44.4674C276.827 44.4537 276.594 44.5195 276.402 44.6541C276.324 44.7154 276.262 44.7943 276.221 44.8843C276.18 44.9743 276.161 45.0727 276.165 45.1716C276.166 45.2574 276.187 45.3419 276.226 45.4184C276.265 45.4949 276.321 45.5614 276.39 45.6126C276.62 45.7732 276.88 45.8875 277.154 45.9493C277.449 46.0236 277.733 46.1363 277.999 46.2845C278.183 46.3866 278.339 46.5331 278.452 46.7109C278.553 46.8852 278.604 47.0842 278.599 47.2857C278.603 47.449 278.568 47.6111 278.497 47.758C278.426 47.905 278.32 48.0324 278.189 48.1296C277.868 48.3539 277.482 48.4651 277.091 48.4457C276.804 48.4486 276.52 48.3904 276.258 48.2751C276.019 48.1767 275.813 48.0144 275.661 47.8061C275.521 47.6085 275.448 47.3718 275.451 47.1299H276.025C276.021 47.2494 276.046 47.3683 276.097 47.4764C276.148 47.5846 276.224 47.679 276.319 47.7517C276.545 47.9127 276.818 47.9925 277.095 47.9782C277.34 47.9943 277.584 47.9298 277.789 47.7944C277.867 47.7363 277.929 47.6602 277.971 47.5726C278.013 47.4851 278.033 47.3886 278.03 47.2916C278.035 47.1976 278.017 47.1038 277.978 47.0181C277.939 46.9324 277.88 46.8573 277.806 46.7991C277.556 46.6411 277.281 46.5272 276.992 46.4624V46.4624Z" fill="#B5BCC8"/>
<path d="M282.324 44.5207H280.932V48.3873H280.363V44.5207H278.973V44.0532H282.324V44.5207Z" fill="#B5BCC8"/>
<path d="M283.705 44.0591L285.12 47.5949L286.537 44.0591H287.272V48.3932H286.7V46.7054L286.755 44.8839L285.332 48.3932H284.891L283.472 44.8927L283.527 46.7054V48.3932H282.97V44.0591H283.705Z" fill="#B5BCC8"/>
<path d="M290.736 46.3893H288.858V47.9257H291.038V48.3932H288.287V44.0591H291.009V44.5207H288.858V45.9159H290.736V46.3893Z" fill="#B5BCC8"/>
<path d="M295.08 48.3932H294.505L292.324 45.0529V48.3932H291.75V44.0591H292.324L294.511 47.4141V44.0591H295.08V48.3932Z" fill="#B5BCC8"/>
<path d="M299 44.5207H297.608V48.3873H297.04V44.5207H295.651V44.0532H299V44.5207Z" fill="#B5BCC8"/>
</svg>
