<svg width="710" height="140" viewBox="0 0 710 140" fill="none" xmlns="http://www.w3.org/2000/svg">
<g clip-path="url(#clip0_6463_88397)">
<path d="M332.34 61.8102C334.49 61.8102 336.34 62.5502 337.9 64.0402C339.38 65.6002 340.13 67.4502 340.13 69.6002C340.13 80.3602 336.31 89.5202 328.67 97.0802C321.1 104.72 311.94 108.54 301.18 108.54C290.42 108.54 281.26 104.72 273.7 97.0802C266.06 89.5102 262.24 80.3502 262.24 69.6002C262.24 58.8502 266.06 49.6802 273.7 42.1202C281.27 34.4802 290.43 30.6602 301.18 30.6602C310.68 30.6602 319.02 33.7002 326.22 39.7802C327.85 41.1902 328.78 42.9702 329 45.1202C329.15 47.2702 328.55 49.1602 327.22 50.8002C325.81 52.4302 324.03 53.3202 321.88 53.4702C319.73 53.6902 317.84 53.1002 316.2 51.6902C311.9 48.0602 306.89 46.2402 301.18 46.2402C294.73 46.2402 289.24 48.5402 284.71 53.1402C280.11 57.6702 277.81 63.1502 277.81 69.6102C277.81 76.0702 280.11 81.5502 284.71 86.0802C289.23 90.6802 294.73 92.9802 301.18 92.9802C306.22 92.9802 310.75 91.5302 314.76 88.6402C318.76 85.7502 321.58 82.0002 323.22 77.4002H307.86C305.71 77.4002 303.85 76.6202 302.3 75.0602C300.82 73.5802 300.07 71.7602 300.07 69.6102C300.07 67.4602 300.81 65.6002 302.3 64.0502C303.86 62.5702 305.71 61.8202 307.86 61.8202H332.34V61.8102Z" fill="#B5BCC8"/>
<path d="M390.2 108.54C379.44 108.54 370.28 104.72 362.72 97.0802C355.08 89.5102 351.26 80.3502 351.26 69.6002C351.26 58.8502 355.08 49.6802 362.72 42.1202C370.29 34.4802 379.45 30.6602 390.2 30.6602C400.95 30.6602 410.12 34.4802 417.69 42.1202C425.33 49.6902 429.15 58.8502 429.15 69.6002C429.15 80.3502 425.33 89.5202 417.69 97.0802C410.12 104.72 400.96 108.54 390.2 108.54ZM390.2 46.2302C383.75 46.2302 378.26 48.5302 373.73 53.1302C369.13 57.6602 366.83 63.1402 366.83 69.6002C366.83 76.0602 369.13 81.5402 373.73 86.0702C378.25 90.6702 383.75 92.9702 390.2 92.9702C396.65 92.9702 402.14 90.6702 406.67 86.0702C411.27 81.5502 413.57 76.0602 413.57 69.6002C413.57 63.1402 411.27 57.6602 406.67 53.1302C402.14 48.5302 396.65 46.2302 390.2 46.2302Z" fill="#B5BCC8"/>
<path d="M440.83 46.2304C438.68 46.2304 436.82 45.4904 435.27 44.0004C433.79 42.4404 433.04 40.5904 433.04 38.4404C433.04 36.2904 433.78 34.4304 435.27 32.8804C436.83 31.4004 438.68 30.6504 440.83 30.6504H494.24C496.39 30.6504 498.25 31.3904 499.8 32.8804C501.28 34.4404 502.03 36.2904 502.03 38.4404C502.03 40.5904 501.29 42.4504 499.8 44.0004C498.24 45.4804 496.39 46.2304 494.24 46.2304H475.32V100.75C475.32 102.9 474.58 104.72 473.09 106.2C471.53 107.76 469.68 108.54 467.53 108.54C465.38 108.54 463.56 107.76 462.08 106.2C460.52 104.72 459.74 102.9 459.74 100.75V46.2304H440.82H440.83Z" fill="#B5BCC8"/>
<path d="M561.01 30.6504C567.46 30.6504 572.95 32.9504 577.48 37.5504C582.08 42.0804 584.38 47.5604 584.38 54.0204C584.38 58.8404 583.01 63.2604 580.26 67.2604C585.97 71.9304 588.83 77.9104 588.83 85.1804C588.83 91.6304 586.53 97.1204 581.93 101.65C577.4 106.25 571.91 108.55 565.46 108.55H525.4C523.25 108.55 521.43 107.77 519.95 106.21C518.39 104.73 517.61 102.91 517.61 100.76V38.4404C517.61 36.2904 518.39 34.4304 519.95 32.8804C521.43 31.4004 523.25 30.6504 525.4 30.6504H561.01ZM533.19 61.8104H561.01C563.16 61.8104 564.98 61.0304 566.46 59.4704C568.02 57.9904 568.8 56.1704 568.8 54.0204C568.8 51.8704 568.02 50.0504 566.46 48.5704C564.98 47.0104 563.16 46.2304 561.01 46.2304H533.19V61.8104ZM565.46 92.9704C567.61 92.9704 569.43 92.1904 570.91 90.6304C572.47 89.1504 573.25 87.3304 573.25 85.1804C573.25 83.0304 572.47 81.2104 570.91 79.7304C569.42 78.1704 567.61 77.3904 565.46 77.3904H533.19V92.9704H565.46Z" fill="#B5BCC8"/>
<path d="M618.87 108.54C616.72 108.54 614.86 107.8 613.31 106.31C611.83 104.75 611.08 102.9 611.08 100.75V38.4404C611.08 36.2904 611.82 34.4304 613.31 32.8804C614.87 31.4004 616.72 30.6504 618.87 30.6504C621.02 30.6504 622.87 31.3904 624.43 32.8804C625.91 34.4404 626.66 36.2904 626.66 38.4404V100.75C626.66 102.9 625.92 104.76 624.43 106.31C622.87 107.79 621.02 108.54 618.87 108.54Z" fill="#B5BCC8"/>
<path d="M647.8 46.2304C645.65 46.2304 643.79 45.4904 642.24 44.0004C640.76 42.4404 640.01 40.5904 640.01 38.4404C640.01 36.2904 640.75 34.4304 642.24 32.8804C643.8 31.4004 645.65 30.6504 647.8 30.6504H701.21C703.36 30.6504 705.22 31.3904 706.77 32.8804C708.25 34.4404 709 36.2904 709 38.4404C709 40.5904 708.26 42.4504 706.77 44.0004C705.21 45.4804 703.36 46.2304 701.21 46.2304H682.29V100.75C682.29 102.9 681.55 104.72 680.06 106.2C678.5 107.76 676.65 108.54 674.5 108.54C672.35 108.54 670.53 107.76 669.05 106.2C667.49 104.72 666.71 102.9 666.71 100.75V46.2304H647.79H647.8Z" fill="#B5BCC8"/>
<path d="M9.96 79.6895C15.4608 79.6895 19.92 75.2303 19.92 69.7295C19.92 64.2288 15.4608 59.7695 9.96 59.7695C4.45924 59.7695 0 64.2288 0 69.7295C0 75.2303 4.45924 79.6895 9.96 79.6895Z" fill="#B5BCC8"/>
<path d="M79.3599 120.26C84.8607 120.26 89.3199 115.801 89.3199 110.3C89.3199 104.799 84.8607 100.34 79.3599 100.34C73.8591 100.34 69.3999 104.799 69.3999 110.3C69.3999 115.801 73.8591 120.26 79.3599 120.26Z" fill="#B5BCC8"/>
<path d="M223.13 62.19C220.58 59.85 218.43 59.61 216.42 59.84C216.05 59.8 215.68 59.77 215.3 59.77H108.97C113.6 37.07 133.72 19.93 157.77 19.93C171 19.93 183.44 25.05 192.83 34.36C196.61 38.11 202.83 38.42 206.76 34.81C210.97 30.95 211.07 24.41 207.08 20.41C193.91 7.25 176.4 0 157.77 0C141.22 0 126.01 5.8 114.04 15.47C108.54 19.67 104.39 19.92 95.7302 19.92H79.0002C73.3902 19.92 68.8702 24.54 69.0402 30.18C69.2002 35.63 73.9602 39.84 79.4202 39.84H105.87L95.7802 41.62C94.5602 41.84 93.5102 42.65 93.0502 43.8C91.6102 47.39 90.6402 51.16 89.6202 54.97C88.7302 58.31 83.7502 59.76 76.5102 59.76H40.2802C34.8202 59.76 30.0702 63.96 29.9002 69.42C29.7302 74.88 34.2502 79.69 39.8602 79.69H102.58L92.3002 81.42C90.5402 81.72 89.4002 83.44 89.7902 85.18C96.8402 116.22 124.63 139.46 157.77 139.46C195.09 139.46 225.66 109.99 227.42 73.1C227.62 69.01 226.14 64.96 223.13 62.19ZM157.77 119.54C133.72 119.54 113.6 102.4 108.97 79.7H206.57C201.94 102.4 181.82 119.54 157.77 119.54Z" fill="#B5BCC8"/>
</g>
<defs>
<clipPath id="clip0_6463_88397">
<rect width="709.01" height="139.47" fill="white"/>
</clipPath>
</defs>
</svg>
