<svg width="300" height="75" viewBox="0 0 300 75" fill="none" xmlns="http://www.w3.org/2000/svg">
<path d="M64.3804 43.6094C61.1949 61.7099 44.3156 73.7315 26.6806 70.4619C13.3559 67.9916 2.9271 57.2876 0.518555 43.6094C0.850524 43.7417 1.19839 43.8214 1.55331 43.8468H3.78175C4.35033 46.6234 5.29857 49.3039 6.59819 51.8069C6.74122 52.1005 6.88425 52.356 7.04317 52.6478L7.56055 53.5268L8.13091 54.4602L8.91492 55.6129C9.18155 55.9609 9.4323 56.3089 9.71659 56.6569L10.5359 57.6628C10.8026 57.9926 11.267 58.4675 11.6237 58.8698C12.3723 59.6383 13.1564 60.3705 13.9775 61.0665C14.5125 61.4869 15.0652 61.9273 15.6179 62.3297C16.4513 62.935 17.3148 63.4969 18.203 64.0134L19.9865 64.9831C20.5568 65.2948 21.5015 65.6609 22.2855 65.9708C23.0695 66.2825 23.873 66.52 24.6923 66.7574L25.9231 67.0691L26.5464 67.2159C30.4417 68.0206 34.4536 68.0206 38.349 67.2159L38.9723 67.0691L40.2031 66.7574C41.0224 66.52 41.8258 66.2626 42.6098 65.9708C43.3939 65.6772 44.1602 65.3492 44.9089 64.9831C45.5216 64.6967 46.1167 64.3723 46.6924 64.0134C47.5806 63.4969 48.444 62.935 49.2775 62.3297C49.8302 61.9273 50.3829 61.5069 50.9179 61.0665C52.2017 59.95 53.3953 58.7248 54.4831 57.4072L55.1435 56.6025L55.5002 56.1077C58.216 52.5101 60.0948 48.3234 60.9918 43.8649H63.1849C63.5946 43.845 63.9972 43.758 64.3804 43.6094Z" fill="#B5BCC8"/>
<path d="M64.8966 37.3135C64.4798 37.0616 64.0066 36.9238 63.5245 36.9111H61.7411C61.5804 30.5277 59.4456 24.3617 55.6438 19.3068L55.2694 18.812C55.0734 18.5383 54.8421 18.2629 54.6285 18.0073C53.5142 16.6824 52.2905 15.459 50.9733 14.348L49.3505 13.159C48.5153 12.5029 47.6465 11.8921 46.7477 11.3284L44.9643 10.3588C44.3939 10.0652 43.3962 9.79147 42.6104 9.38911C41.8406 9.04112 41.0406 8.76563 40.2213 8.56626L38.9906 8.25452L38.3672 8.10771C34.4719 7.30298 30.46 7.30298 26.5646 8.10771L25.9413 8.25452L24.7106 8.56626C23.8912 8.80369 23.0878 9.06106 22.3038 9.35286C21.5198 9.64648 20.7534 9.97453 20.0047 10.3406C19.392 10.627 18.7969 10.9514 18.2213 11.3103C17.3295 11.8794 16.4661 12.4956 15.6361 13.159C15.0658 13.5614 14.5307 13.9819 13.9957 14.4223C13.1464 15.0657 12.3429 15.7689 11.5889 16.5265L10.5012 17.7155L9.68187 18.7395C9.39581 19.0875 9.12917 19.4174 8.88019 19.7835L8.1315 20.8456L7.56114 21.779C7.3828 22.0726 7.20445 22.3644 7.04376 22.658L6.59878 23.4809C4.45687 27.5861 3.28438 32.148 3.1749 36.8024H1.39145C1.07714 36.797 0.762825 36.8477 0.464405 36.9492C0.301952 37.0598 0.146561 37.1812 0 37.3153C0 18.9208 14.5272 4.00977 32.4483 4.00977C50.3694 4.00977 64.8966 18.9208 64.8966 37.3135Z" fill="#B5BCC8"/>
<path d="M42.3983 48.1845C39.7496 50.8578 36.1809 52.3494 32.4674 52.3385H31.4697L31.8617 49.1179C32.817 49.1886 33.7776 49.1215 34.7135 48.9167H34.9625L35.4075 48.7881L36.2992 48.4945C36.5976 48.3857 36.889 48.257 37.1733 48.1102L37.8866 47.7441C38.5877 48.2951 39.4317 48.6195 40.3111 48.6775H40.3994C41.0951 48.6793 41.7802 48.5108 42.3983 48.1845Z" fill="#B5BCC8"/>
<path d="M44.3935 29.6298C43.5283 30.4309 42.9085 31.475 42.6101 32.6314V32.7419C42.2675 31.997 41.849 31.2919 41.3617 30.6376L41.2363 30.4545C41.148 30.4545 41.0756 30.2533 40.9873 30.1427C40.6395 29.744 40.2651 29.3706 39.8643 29.0262L38.9902 24.5801C41.2593 25.7165 43.1875 27.462 44.5701 29.6316H44.3935V29.6298Z" fill="#B5BCC8"/>
<path d="M28.2067 23.6436L27.7617 27.3027L27.066 27.6688C26.7269 27.87 26.3879 28.0893 26.0859 28.3086L25.4626 28.7852C25.143 29.0408 24.8393 29.3144 24.5532 29.608L24.1436 30.0847L23.8222 30.4689L23.5185 30.8712L23.1794 31.2736L22.9658 31.6216C22.9658 31.7321 22.8404 31.859 22.7698 31.9514V32.042C22.4255 30.8694 21.8145 29.7965 20.9863 28.9121C22.7945 26.4237 25.3196 24.5805 28.2067 23.6436Z" fill="#B5BCC8"/>
<path d="M21.0573 58.4145C15.5975 55.2679 11.6103 49.9863 10.0034 43.7747H12.0358C12.3625 43.782 12.6874 43.7312 12.9982 43.6279C13.3796 44.9855 13.9005 46.2978 14.5486 47.5448C14.6563 47.746 14.7446 47.929 14.8699 48.1302L15.2266 48.7338L15.6186 49.3555C15.7793 49.6111 15.9577 49.8322 16.136 50.1059C16.3144 50.3796 16.4927 50.6007 16.6711 50.8381L17.2591 51.5341L18.0078 52.357C18.5304 52.8573 19.0655 53.3322 19.6129 53.7853L20.2185 54.262L20.8789 57.7022V58.0139C20.9284 58.1499 20.9867 58.2858 21.0573 58.4145Z" fill="#B5BCC8"/>
<path d="M54.8599 43.7739C52.1653 54.208 42.9655 61.4722 32.4502 61.4686C31.1346 61.4649 29.8226 61.3435 28.5283 61.1025C29.526 60.4464 30.2888 59.4767 30.7038 58.3385C32.6709 58.5216 34.6521 58.411 36.5874 58.0087L37.0324 57.8981L37.8888 57.6969C38.4592 57.5265 39.0118 57.3435 39.5469 57.1478C40.0819 56.9103 40.617 56.7091 41.1343 56.4518C41.6517 56.1962 41.9907 56.0313 42.4004 55.7939C42.8101 55.5564 43.6135 55.0435 44.1839 54.623L45.3069 53.7621C46.2145 52.9955 47.055 52.1509 47.8214 51.2374L48.2858 50.6883L48.5348 50.3403C50.2105 48.0693 51.4236 45.4739 52.0999 42.71L52.5996 43.0761C53.2742 43.5165 54.0582 43.7557 54.8599 43.7739Z" fill="#B5BCC8"/>
<path d="M55.5729 36.2704C54.7395 34.7715 54.0014 33.2184 53.3621 31.6217L53.2368 31.4568C52.6823 30.4147 51.8294 29.5701 50.7947 29.0409C50.1802 27.669 49.4138 26.3731 48.5133 25.1806L48.1389 24.6315L47.6745 24.0823C46.9135 23.1798 46.08 22.3479 45.1777 21.594C44.8192 21.2805 44.4431 20.9887 44.0546 20.715C43.4843 20.2927 42.8892 19.9067 42.2712 19.5624C41.8615 19.3249 41.4695 19.1056 41.0051 18.8845L39.4177 18.2067C38.8826 18.011 38.3299 17.8279 37.7596 17.6576H37.4382C36.9879 15.5843 35.1939 14.109 33.1244 14.1072H33.0167C31.2173 14.2159 29.6599 15.4302 29.0772 17.1809L28.3638 17.3096H27.9188L27.0624 17.5289C26.4991 17.6739 25.9446 17.8569 25.4043 18.078L23.8169 18.7559C23.3895 18.9752 22.9604 19.1944 22.5508 19.4337C22.1411 19.6711 21.3377 20.1659 20.7673 20.5863L19.609 21.5922C19.0439 22.0688 18.5018 22.5763 17.9862 23.1109L17.2375 23.9337L16.6495 24.6297L16.1145 25.3619C15.9361 25.6174 15.7225 25.911 15.5971 26.1122L15.2051 26.7338C15.0656 26.9223 14.9455 27.1234 14.8484 27.3373L14.527 27.9227C14.0114 28.9122 13.5823 29.9471 13.2433 31.0146V31.1795C11.7635 34.0339 10.8542 35.7357 10.3015 36.6691H9.28613C9.75583 23.883 19.9957 13.7683 32.4622 13.7773C44.761 13.8009 54.9019 23.6709 55.5729 36.2704Z" fill="#B5BCC8"/>
<path d="M64.8261 39.8227V41.0117C64.766 41.1839 64.6671 41.3397 64.54 41.4684C64.3634 41.6569 64.1427 41.7947 63.899 41.8708C63.7401 41.907 63.5759 41.907 63.417 41.8708H55.4479C54.8299 41.9107 54.2154 41.7783 53.6645 41.4865C53.2601 41.2092 52.9034 40.8613 52.6121 40.4625C51.1535 38.3402 49.9563 36.042 49.0469 33.6188C48.9039 33.3324 48.6125 33.153 48.2982 33.162C48.0122 33.162 47.6378 33.4738 47.4595 34.1135L46.8185 35.8517L43.3769 44.6348C43.0273 45.985 41.8124 46.9039 40.4528 46.8495C40.1332 46.826 39.8189 46.7462 39.5257 46.6121C38.5493 46.1971 37.8677 45.2727 37.7423 44.1961L34.1771 26.4832L33.5167 23.1519L33.3384 22.311L33.2307 23.19L32.8563 26.3926L30.0929 48.8632L29.7009 52.0657L29.1305 56.7871C28.968 58.5325 27.6225 59.9136 25.9221 60.0803H25.7084C24.2604 60.084 23.0014 59.0581 22.6783 57.61L22.3216 55.7794L20.3598 45.6044L18.3803 35.2101L18.2373 34.5522L17.8276 33.0515C17.7199 33.2345 17.614 33.4176 17.5239 33.6006C16.4362 35.6868 15.5445 37.2599 14.8505 38.6138C13.7275 40.6093 13.2631 41.5228 12.479 41.762C12.3078 41.8273 12.1259 41.8581 11.944 41.8527H1.65648C1.47814 41.8363 1.30509 41.7929 1.1391 41.724C0.323307 41.3434 -0.0386812 40.3574 0.332136 39.52C0.333902 39.5164 0.335667 39.5146 0.335667 39.511C0.402767 39.3823 0.480463 39.2591 0.566987 39.1449C0.725909 38.9963 0.90602 38.873 1.10202 38.7788C1.26448 38.7226 1.43046 38.6863 1.60174 38.6682H11.2289L12.1912 36.9482C12.7792 35.9042 13.5827 34.3854 14.741 32.1543C15.8994 29.9232 17.0948 29.2073 18.5393 29.6296C19.1043 29.8072 19.6023 30.1588 19.966 30.6355C20.6847 31.549 21.1738 32.631 21.3928 33.7837L21.6594 35.1195L23.4429 44.2686L24.4953 49.7585L25.8497 56.8216C25.968 56.7164 26.0333 56.5606 26.028 56.4011L26.7414 51.058L27.151 47.6724L29.7362 26.6282L30.1635 23.2244L30.7515 18.4124C30.8716 17.044 31.9469 15.9711 33.2837 15.8877C34.193 15.8877 35.0336 16.3825 35.4944 17.1872C35.6922 17.5008 35.814 17.8578 35.8511 18.2312L36.9565 23.721L37.7052 27.5272L40.7177 42.8078L43.4282 35.4874L44.2298 33.2907C44.7384 31.6378 46.1245 30.4289 47.795 30.1806C49.3595 29.9848 50.8886 30.7533 51.6991 32.138L51.8069 32.3211L52.3419 33.5843C53.0464 35.433 53.9806 37.1802 55.123 38.7806H63.7878C64.2787 38.9383 64.6636 39.3261 64.8261 39.8227Z" fill="#B5BCC8"/>
<path d="M97.1603 45.1789C97.1603 32.1678 78.7978 37.2008 78.7978 29.1484C78.7978 25.7085 81.3476 24.0791 84.6461 24.1716C88.2112 24.2821 90.279 26.4769 90.4768 28.8928H96.7524C96.2527 22.7996 91.5645 19.2129 84.9321 19.2129C77.8001 19.2129 72.9865 23.1113 72.9865 29.3495C73.0042 42.4694 91.4038 36.9797 91.4038 45.4888C91.4038 48.5083 89.1577 50.723 85.1635 50.723C81.1692 50.723 79.2445 48.3633 78.9231 45.4345H72.8965C72.8965 51.747 78.2451 55.6454 85.1794 55.6454C92.9171 55.6454 97.1603 50.5218 97.1603 45.1789ZM102.099 41.1337C102.099 50.0089 107.679 55.7723 115.578 55.7723C121.435 56.1348 126.732 52.22 128.254 46.4041H122.032C121.135 49.2749 118.415 51.1235 115.489 50.8499C110.889 50.8499 107.842 47.3737 107.842 41.1699C107.842 34.9661 110.891 31.49 115.489 31.49C118.401 31.2725 121.09 33.0994 122.032 35.9357H128.164C126.614 30.0074 122.228 26.5675 115.487 26.5675C107.591 26.5875 102.099 32.3327 102.099 41.1337ZM132.051 41.043C132.051 49.7534 137.791 55.6817 144.923 55.6817C148.674 55.7868 152.248 54.0541 154.55 51.0148V55.2775H160.22V27.0442H154.48V31.1438C152.17 28.1461 148.609 26.4552 144.888 26.5875C137.756 26.5875 131.962 32.3327 131.962 41.043H132.051ZM154.568 41.1337C154.568 47.2269 150.521 50.6668 146.225 50.6668C141.929 50.6668 137.756 47.1345 137.756 41.0412C137.756 34.948 141.856 31.6531 146.099 31.6531C150.343 31.6531 154.478 35.1474 154.478 41.1319H154.568V41.1337ZM187.212 55.2793H192.865V38.6271C192.865 30.7397 188.016 26.5875 181.579 26.5875C178.459 26.5077 175.465 27.8471 173.397 30.2467V27.0442H167.709V55.2793H173.414V39.5061C173.414 34.3282 176.16 31.6567 180.35 31.6567C184.541 31.6567 187.249 34.3282 187.249 39.5061L187.212 55.2793Z" fill="#B5BCC8"/>
<path d="M212.203 21.2429H200.865V56.854H212.203C223.327 56.854 230.62 50.1388 230.62 39.1771C230.62 28.2154 223.327 21.2429 212.203 21.2429ZM206.551 52.0963V26.0006H212.203C220.386 26.0006 224.772 31.0338 224.772 39.1753C224.772 47.3168 220.386 52.0945 212.203 52.0945H206.551V52.0963ZM247.842 33.0655C251.769 32.7501 255.2 35.7624 255.507 39.7915C255.507 39.7933 255.507 39.797 255.507 39.7988C255.507 39.9275 255.507 40.0543 255.507 40.183H240.283C240.574 36.134 243.885 33.0148 247.842 33.0655ZM260.713 48.4369H254.58C253.42 51.0015 250.839 52.5657 248.091 52.3717C243.918 52.5258 240.412 49.1873 240.247 44.9063H261.303C261.447 43.9565 261.513 42.9941 261.499 42.0335C261.894 34.7674 256.475 28.5507 249.398 28.1447C249.396 28.1447 249.396 28.1447 249.394 28.1447H248.128C239.998 28.1447 234.401 33.8358 234.401 42.7839C234.401 51.732 240.249 57.4231 248.128 57.4231C253.828 57.7402 259.011 54.0483 260.715 48.4569V48.4369H260.713ZM267.061 56.854H272.749V41.2814H284.23V36.5237H272.749V26.0205H287.475V21.2628H267.063V56.854H267.061ZM292.769 56.854H298.457V28.6178H292.769V56.854ZM295.658 24.8841C297.627 24.8841 299.223 23.2457 299.223 21.2248C299.223 19.2039 297.627 17.5654 295.658 17.5654C293.689 17.5654 292.093 19.2039 292.093 21.2248C292.091 23.2457 293.687 24.8841 295.658 24.8841Z" fill="#B5BCC8"/>
</svg>
