<svg xmlns="http://www.w3.org/2000/svg" viewBox="0 0 1553.15 505.65"><defs><style>.cls-1{fill:#b5bcc8;}</style></defs><title>Recurso 5</title><g id="Capa_2" data-name="Capa 2"><g id="Capa_1-2" data-name="Capa 1"><path class="cls-1" d="M497.21,248.84V413H464.59V248.84h-61.1v-29.3H558.57v29.3Z"/><path class="cls-1" d="M769.49,316.29c0,55.29-44.79,98.14-102.56,98.14s-102.56-42.85-102.56-98.14c0-55.56,44.78-97.58,102.56-97.58S769.49,261,769.49,316.29Zm-172,0c0,38.43,31.79,68.83,69.67,68.83A68.66,68.66,0,0,0,736,316.29c0-38.42-31-68.28-68.83-68.28C629.06,248,597.54,277.87,597.54,316.29Z"/><path class="cls-1" d="M897.18,354.44c-2.77.28-5.81.28-8.84.28H842.45V413H809.82V219.54h78.52c49.48,0,77.95,24.05,77.95,66.07,0,30.95-14.37,52.8-40.08,62.75L969.61,413h-37Zm-8.84-29c29.85,0,47-12.71,47-39,0-25.43-17.14-37.59-47-37.59H842.45v76.57Z"/><path class="cls-1" d="M1102.55,354.44c-2.76.28-5.8.28-8.84.28h-45.89V413H1015.2V219.54h78.51c49.48,0,78,24.05,78,66.07,0,30.95-14.37,52.8-40.08,62.75L1175,413h-37Zm-8.84-29c29.85,0,47-12.71,47-39,0-25.43-17.14-37.59-47-37.59h-45.89v76.57Z"/><path class="cls-1" d="M1253.2,248.84v52.25h94.54v29.3H1253.2v53.35h108.91V413H1220.57V219.54H1358.8v29.3Z"/><path class="cls-1" d="M1538.74,238.06l-13.55,28.75c-21-12.72-42-18-56.67-18-19.07,0-31.51,7.18-31.51,20.18,0,42.3,104.49,19.63,104.22,89.29,0,34.56-30.41,55.84-73,55.84a119,119,0,0,1-79.07-30.69l14.1-28.19c19.91,18.25,44.78,28.19,65.52,28.19,22.67,0,36.22-8.57,36.22-23.49,0-43.12-104.5-19.08-104.5-87.91,0-33.17,28.47-53.91,70.49-53.91C1496.17,218.15,1520.77,226.17,1538.74,238.06Z"/><path class="cls-1" d="M425.68,432.59c12.58,0,22.2,9.32,22.2,21.59s-9.68,21.59-22.39,21.59H408.22V432.59Zm-12.53,38.49h12.59c9.62,0,17.15-7.21,17.15-16.84s-7.65-16.9-17.34-16.9h-12.4Z"/><path class="cls-1" d="M465.66,437.34v14.19h21.78v4.75H465.66v14.8h25.17v4.69h-30.1V432.59H490v4.75Z"/><path class="cls-1" d="M524,462c-.92.06-1.91.12-2.9.12H509.66v13.63h-4.94V432.59h16.41c10.8,0,17,5.31,17,14.5,0,7.15-3.46,12-9.69,14l10.12,14.68H533Zm-2.9-4.63c7.84,0,12.28-3.46,12.28-10.18,0-6.54-4.44-9.87-12.28-9.87H509.66v20.05Z"/><path class="cls-1" d="M558.1,437.34v14.19h21.77v4.75H558.1v14.8h25.17v4.69H553.16V432.59h29.3v4.75Z"/><path class="cls-1" d="M631.39,438.76l-3,3.76a18.14,18.14,0,0,0-12.77-5.42c-9.74,0-17.58,7.52-17.58,17a17.26,17.26,0,0,0,17.58,17A18.81,18.81,0,0,0,628.43,466l3,3.4a23.91,23.91,0,0,1-16,6.66,22,22,0,0,1-22.34-21.9c0-12.09,10-21.65,22.52-21.65A23.37,23.37,0,0,1,631.39,438.76Z"/><path class="cls-1" d="M675.14,475.77v-19h-26v19h-4.93V432.59h4.93v19.49h26V432.59h4.94v43.18Z"/><path class="cls-1" d="M738.14,454.18c0,12.16-10,21.84-22.57,21.84s-22.64-9.68-22.64-21.84,10-21.71,22.64-21.71S738.14,442,738.14,454.18Zm-40.22,0c0,9.5,8,17.09,17.65,17.09a17.06,17.06,0,1,0,0-34.11C705.94,437.16,697.92,444.68,697.92,454.18Z"/><path class="cls-1" d="M775.42,458.07a3.7,3.7,0,1,1-3.7-3.89A3.71,3.71,0,0,1,775.42,458.07Z"/><path class="cls-1" d="M813.3,437.34v15.18h20.18v4.74H813.3v18.51h-4.93V432.59h27.45v4.75Z"/><path class="cls-1" d="M846.94,475.77V432.59h4.93v43.18Z"/><path class="cls-1" d="M899.62,475.77l-25.91-34.66v34.66h-4.93V432.59h5.12l25.91,34.73V432.59h4.87v43.18Z"/><path class="cls-1" d="M925.42,464.86l-4.81,10.91h-5.24l19.37-43.18h5.11l19.32,43.18H953.8L949,464.86Zm11.72-26.65-9.62,21.89h19.37Z"/><path class="cls-1" d="M1000.64,475.77l-25.91-34.66v34.66H969.8V432.59h5.11l25.91,34.73V432.59h4.87v43.18Z"/><path class="cls-1" d="M1025.26,471.08h28.94l-.07,4.69h-35.34v-3.95l28.62-34.48h-27.82v-4.75h34.3v4Z"/><path class="cls-1" d="M1071,464.86l-4.82,10.91h-5.24l19.37-43.18h5.12l19.31,43.18h-5.37l-4.81-10.91Zm11.72-26.65-9.62,21.89h19.36Z"/><path class="cls-1" d="M1141.38,436.42l-2.1,4.63a22.2,22.2,0,0,0-11.9-3.65c-5.55,0-9.19,2.1-9.19,5.74,0,11.1,24.3,5.31,24.24,21,0,7.22-6.35,11.85-15.6,11.85a24.68,24.68,0,0,1-16.54-6.6l2.22-4.45a21.47,21.47,0,0,0,14.38,6.11c6.22,0,10.11-2.53,10.11-6.66.06-11.35-24.24-5.31-24.24-20.79,0-6.78,6-11.16,14.93-11.16A25.49,25.49,0,0,1,1141.38,436.42Z"/><path class="cls-1" d="M1179.52,458.38a2.91,2.91,0,1,1-5.8,0,2.91,2.91,0,1,1,5.8,0Z"/><path class="cls-1" d="M1218.71,437.34v14.19h21.77v4.75h-21.77v14.8h25.16v4.69h-30.1V432.59h29.3v4.75Z"/><path class="cls-1" d="M1296.88,475.77l-.07-35.59-15.72,31h-3l-15.67-31v35.59h-4.68V432.59h6.11l15.79,31.09,15.73-31.09h6v43.18Z"/><path class="cls-1" d="M1334.64,432.59c10.67,0,16.84,5.31,16.84,14.5,0,9.56-6.17,15.05-16.84,15.05h-11.29v13.63h-4.93V432.59Zm-11.29,24.8h11.11c7.77,0,12.27-3.46,12.27-10.18,0-6.54-4.5-9.87-12.27-9.87h-11.11Z"/><path class="cls-1" d="M1382.84,462c-.93.06-1.92.12-2.91.12h-11.47v13.63h-4.93V432.59h16.4c10.8,0,17,5.31,17,14.5,0,7.15-3.46,12-9.68,14l10.11,14.68h-5.61Zm-2.91-4.63c7.84,0,12.28-3.46,12.28-10.18,0-6.54-4.44-9.87-12.28-9.87h-11.47v20.05Z"/><path class="cls-1" d="M1416.9,437.34v14.19h21.77v4.75H1416.9v14.8h25.16v4.69H1412V432.59h29.3v4.75Z"/><path class="cls-1" d="M1482.48,436.42l-2.1,4.63a22.2,22.2,0,0,0-11.9-3.65c-5.55,0-9.19,2.1-9.19,5.74,0,11.1,24.31,5.31,24.24,21,0,7.22-6.35,11.85-15.6,11.85a24.7,24.7,0,0,1-16.54-6.6l2.23-4.45A21.42,21.42,0,0,0,1468,471c6.22,0,10.11-2.53,10.11-6.66.06-11.35-24.24-5.31-24.24-20.79,0-6.78,6-11.16,14.93-11.16A25.46,25.46,0,0,1,1482.48,436.42Z"/><path class="cls-1" d="M1500.76,464.86,1496,475.77h-5.25l19.37-43.18h5.12l19.31,43.18h-5.37l-4.81-10.91Zm11.72-26.65-9.62,21.89h19.36Z"/><polygon class="cls-1" points="164.63 505.65 0 505.65 0 404.03 164.63 255.66 164.63 505.65"/><polygon class="cls-1" points="164.63 203.83 0 356.27 0 254.64 164.63 102.21 164.63 203.83"/><polygon class="cls-1" points="370.93 254.64 206.3 101.62 206.3 0 370.93 153.02 370.93 254.64"/><polygon class="cls-1" points="370.93 505.65 206.3 505.65 206.3 156.07 370.93 305.45 370.93 505.65"/><rect class="cls-1" x="370.93" y="499.89" width="1182.22" height="5.76"/></g></g></svg>