<svg width="916" height="400" viewBox="0 0 916 400" fill="none" xmlns="http://www.w3.org/2000/svg">
<path d="M517.29 215.49C508.29 205.78 491.43 210.07 485.6 198.93C485.473 196.65 485.276 194.497 485.01 192.47C468.34 201.04 448.49 202.42 430.48 208.34C419.455 211.962 409.076 217.312 399.73 224.19C395.19 227.54 390.73 231.45 388.63 236.69C386.45 242.12 387.05 248.2 386.9 254.06C386.9 255.38 386.79 256.71 386.68 258.06H535.27C535.27 258.06 526.27 225.2 517.29 215.49Z" fill="#84E147"/>
<path d="M388.63 236.69C390.75 231.45 395.19 227.54 399.73 224.19C409.077 217.312 419.456 211.962 430.48 208.34C448.48 202.42 468.34 201.04 485.01 192.47C482.19 170.66 471.89 163.27 455.17 163.53C436.9 163.81 429.76 175.53 428.62 184.94C427.48 194.35 428.05 196.65 422.34 203.21C416.63 209.77 396.93 210.64 387.79 216.92C378.65 223.2 370.61 258 370.61 258H386.68C386.79 256.68 386.87 255.35 386.9 254C387.05 248.2 386.45 242.12 388.63 236.69Z" fill="#64A835"/>
<path d="M419.85 258C420.6 250.26 421.54 240.6 424.24 233.31C426.94 226.02 431.6 219.19 438.33 215.31C447.01 210.824 457.026 209.647 466.51 212C474.77 214.52 481.3 221.2 485.24 228.9C489.18 236.6 490.79 249.41 491.73 258H419.85Z" fill="#FEEC30"/>
<path d="M535.27 259.58L379.4 254.67C379.004 254.657 378.628 254.494 378.35 254.213C378.071 253.932 377.91 253.556 377.9 253.16C377.9 251.91 377.25 222.32 386.97 215.64C391.44 212.56 398.14 210.78 404.62 209.05C411.44 207.23 418.49 205.35 421.22 202.2C425.81 196.92 426.04 194.76 426.73 188.35C426.84 187.27 426.97 186.08 427.13 184.76C427.8 179.06 430.376 173.753 434.44 169.7C439.51 164.7 446.5 162.11 455.2 161.98C475.75 161.66 485.63 172.92 487.2 198.5C490.03 203.58 495.54 204.95 501.89 206.5C507.84 207.99 513.98 209.5 518.49 214.4C527.63 224.27 536.49 256.23 536.83 257.58C536.902 257.812 536.919 258.058 536.878 258.298C536.837 258.538 536.74 258.765 536.595 258.96C536.45 259.155 536.26 259.313 536.042 259.421C535.824 259.529 535.583 259.583 535.34 259.58H535.27ZM380.93 251.58L533.2 256.38C531.08 249.12 523.51 224.46 516.15 216.5C512.26 212.31 506.57 210.88 501.07 209.5C494.48 207.85 487.66 206.15 484.23 199.6C484.128 199.405 484.07 199.19 484.06 198.97C483.32 186.27 480.53 177.46 475.53 172.06C470.94 167.12 464.53 164.87 455.2 165.06C438.5 165.32 431.32 175.59 430.2 185.06C430.04 186.37 429.92 187.55 429.8 188.61C429.08 195.36 428.8 198.15 423.55 204.16C420.16 208.1 413 210 405.37 212C399.15 213.66 392.71 215.38 388.67 218.16C382.13 222.69 380.88 242.61 380.93 251.62V251.58Z" fill="#175807"/>
<path d="M445.43 20C441.2 26.32 442.16 26.94 445.43 29.84C448.7 32.74 443.86 36.31 444.2 40.09C444.54 43.87 446.77 41.52 447.74 45.89C448.71 50.26 445.84 57.83 445.84 57.83C449.73 59.23 453.7 56.11 456.47 53.04C462.96 45.88 468.47 37.59 475.41 31.04C464.19 24 456 13.4 445.89 13.17C446.44 14.2432 446.688 15.4456 446.607 16.6487C446.526 17.8518 446.119 19.0102 445.43 20V20Z" fill="#05FADB"/>
<path d="M419.19 38.16C428.25 40.63 435.28 47.62 441.63 54.53C442.751 55.9599 444.193 57.1044 445.84 57.87C445.84 57.87 448.72 50.31 447.74 45.93C446.76 41.55 444.55 43.93 444.2 40.13C443.85 36.33 448.69 32.77 445.43 29.88C442.17 26.99 441.2 26.36 445.43 20.04C446.127 19.0459 446.538 17.8802 446.619 16.6692C446.7 15.4582 446.448 14.2481 445.89 13.17C443.05 13.142 440.251 13.8554 437.77 15.24C426.61 21.13 418.09 36.88 415.44 38.05L415.86 38.63C416.61 37.7 418 37.85 419.19 38.16Z" fill="#05BAA0"/>
<path d="M406.42 60.45C409.21 49.61 422.59 42.22 430.34 48.52C435.023 52.3752 440.245 55.5252 445.84 57.87C444.193 57.1045 442.75 55.9599 441.63 54.53C435.28 47.62 428.25 40.63 419.19 38.16C418.04 37.85 416.61 37.7 415.86 38.63L415.44 38.05H415.35C412.81 38.9 403.17 43.65 397.87 50.05C392.57 56.45 388.42 61.37 388.42 61.37L397.14 58.84C400.302 58.8459 403.44 59.3904 406.42 60.45V60.45Z" fill="#64A835"/>
<path d="M537.65 102.18C538.71 98.73 537.56 91.45 536.44 83.89C534.87 84.52 532.76 83.44 531.34 81.51C528.46 77.63 527.53 72.03 513.4 71.24C499.27 70.45 485.19 83.71 480 89.6C477.44 92.48 475.31 95.99 473.35 98.35C473.169 99.6187 473.075 100.898 473.07 102.18C491.54 141.24 527.29 114.8 527.29 114.8C527.01 124.44 530.91 133.57 529.79 146.16C528.67 158.75 507.79 178 485.12 183.54C462.45 189.08 427.6 182.86 417.02 178.12C406.44 173.38 381.88 159.38 379.17 150.35C376.46 141.32 382.49 127.87 382.49 127.87C430.07 141.11 433.07 103 433.07 103L430.73 95.29C421 85.38 397.68 79.69 393.06 79.5C387.06 79.25 379.13 85.32 375.85 92.37C374.6 95.06 372.62 95.17 370.66 94.28C370.86 100.75 369.93 108.41 370.61 116.15C371.83 129.98 365.08 125.23 362.84 131.91C358.7 144.23 373.08 161.83 380.57 169.33C388.06 176.83 402.28 191.19 438.87 195.22C475.46 199.25 502.74 189.64 518.06 180.52C533.38 171.4 553.62 140.6 548.52 124.36C546.33 121.59 544.67 120.15 537.92 120.46C537.69 114.54 536 107.58 537.65 102.18Z" fill="#64A835"/>
<path d="M443.11 99.12C441.17 93.83 426.22 67.25 406.42 60.45C403.439 59.3972 400.301 58.8595 397.14 58.86L388.42 61.39C388.42 61.39 377.26 64.23 373.42 73.78C371.29 79.11 370.42 86.15 370.64 94.32C372.64 95.21 374.58 95.1 375.83 92.41C379.11 85.41 387.06 79.29 393.04 79.54C397.66 79.73 415.42 82.84 426.99 93.78C429.56 96.2 432.51 96.87 433.65 97.78C438.7 101.83 445.34 105.21 443.11 99.12Z" fill="#05FADB"/>
<path d="M406.42 60.45C426.22 67.25 441.17 93.83 443.11 99.12C445.34 105.21 438.7 101.83 433.67 97.79C432.53 96.87 433.59 96.17 430.48 94.5L433.07 103.04C433.07 103.04 430.07 141.11 382.45 127.87C382.45 127.87 376.45 141.31 379.13 150.35C381.81 159.39 406.4 173.35 416.98 178.12C427.56 182.89 464.31 188.64 486.98 183.12C509.65 177.6 539.27 149.9 541.84 137.52C544.9 122.75 532.17 128.57 532.64 122.75C533.01 118.18 532.49 113.91 527.22 114.82C527.22 114.82 491.47 141.26 473 102.2C473.005 100.918 473.099 99.6387 473.28 98.37C471.23 100.84 469.37 102.04 467.41 99.91C463.58 95.76 469.18 84.51 477.69 71.28C486.2 58.05 508.5 52.09 508.5 52.09C508.5 52.09 500.24 42.09 482.15 34.61C479.808 33.6207 477.553 32.4365 475.41 31.07C468.41 37.63 462.96 45.92 456.47 53.07C453.7 56.14 449.73 59.26 445.84 57.86C440.245 55.5152 435.023 52.3652 430.34 48.51C422.59 42.22 409.21 49.61 406.42 60.45Z" fill="#84E246"/>
<path d="M530.53 65.27C528.04 60.82 524.76 57.15 520.53 55.09C520.53 55.09 510.64 52.76 508.53 52.09C508.53 52.09 486.26 58.04 477.75 71.26C469.24 84.48 463.64 95.74 467.47 99.89C469.47 102.02 471.29 100.82 473.34 98.35C475.39 95.88 477.43 92.48 479.99 89.6C485.22 83.71 499.3 70.46 513.43 71.24C527.56 72.02 528.49 77.63 531.37 81.51C532.79 83.44 534.9 84.51 536.47 83.89C535.601 77.3821 533.591 71.0787 530.53 65.27V65.27Z" fill="#05FADB"/>
<path d="M393.1 85.35C385.87 88.54 382.77 95.79 387.1 104.95C391.43 114.11 406.29 119.3 416.45 115.59C426.61 111.88 425.18 100.26 424.59 96.95C424 93.64 409.23 78.25 393.1 85.35Z" fill="#84E246"/>
<path d="M511.94 79.5599C502.88 79.5599 490.87 82.5599 488.53 94.0899C486.19 105.62 491.88 112.47 502.53 113.77C513.18 115.07 519.53 109.54 522.86 102.47C526.19 95.3999 526 79.5499 511.94 79.5599Z" fill="#84E246"/>
<path d="M443.33 197.5C443.145 197.497 442.962 197.46 442.79 197.39C442.5 197.33 441.52 197.2 440.49 197.06C431.2 195.943 422.027 194.002 413.08 191.26C398.41 186.6 387.38 179.94 380.29 171.49C365.72 154.12 358.9 138.73 362.04 130.34C362.603 128.829 363.541 127.486 364.766 126.436C365.99 125.387 367.461 124.665 369.04 124.34C369.04 120.99 368.73 117.49 368.45 113.8C367.62 102.18 366.63 89 372 75.2C373.364 71.5658 375.541 68.2915 378.365 65.6276C381.188 62.9637 384.583 60.9806 388.29 59.83C397.29 56.9 406.93 58.56 411.86 61.71L413.93 63.01C423.29 68.86 438.93 78.64 444.84 99.5C444.952 99.8978 444.901 100.324 444.698 100.684C444.495 101.044 444.158 101.309 443.76 101.42C443.363 101.531 442.937 101.48 442.577 101.278C442.217 101.075 441.952 100.738 441.84 100.34C436.29 80.64 421.26 71.25 412.28 65.64C411.534 65.18 410.834 64.74 410.18 64.32C405.87 61.56 397.29 60.15 389.24 62.78C385.972 63.7941 382.979 65.5423 380.49 67.8909C378.001 70.2394 376.082 73.126 374.88 76.33C369.78 89.46 370.74 102.33 371.59 113.59C371.91 117.8 372.21 121.78 372.21 125.59C372.21 125.959 372.078 126.316 371.838 126.597C371.598 126.877 371.265 127.063 370.9 127.12C367.78 127.62 365.83 129.02 364.9 131.39C362.24 138.51 369.2 153.45 382.62 169.46C393.13 182 412.72 190.24 440.85 193.96C443.16 194.26 443.6 194.33 444.01 194.54C444.321 194.699 444.569 194.958 444.715 195.276C444.86 195.594 444.893 195.951 444.81 196.29C444.727 196.629 444.531 196.93 444.255 197.144C443.98 197.358 443.64 197.473 443.29 197.47L443.33 197.5Z" fill="#175807"/>
<path d="M487 194.59C486.619 194.592 486.25 194.454 485.964 194.202C485.678 193.949 485.495 193.6 485.45 193.221C485.406 192.842 485.503 192.46 485.722 192.148C485.942 191.836 486.268 191.616 486.64 191.53C509.82 186.06 523.99 174.05 531.8 164.94C540.31 155.01 544.41 144.88 545 140.82C545.15 139.82 545.36 138.71 545.58 137.51C546.46 132.87 547.78 125.86 545.16 123.51C543.8 122.29 541.28 122.21 537.65 123.28C537.411 123.352 537.158 123.365 536.912 123.318C536.666 123.271 536.436 123.165 536.24 123.01C536.046 122.853 535.893 122.653 535.792 122.425C535.691 122.197 535.646 121.949 535.66 121.7C535.753 120.187 535.853 118.637 535.96 117.05C536.79 104.66 537.72 90.61 534.1 78.05C530.62 65.93 524.1 57.5 516.17 54.93C508.49 52.44 499.53 55.13 489.53 62.93C482.44 68.47 473.17 77.38 469.35 88.34C467.09 94.79 467.83 99 467.84 99C467.851 99.3665 467.731 99.7249 467.502 100.011C467.273 100.298 466.95 100.494 466.59 100.565C466.23 100.636 465.857 100.576 465.536 100.398C465.216 100.219 464.969 99.9332 464.84 99.59C464.69 98.84 461.51 80.82 487.67 60.38C498.53 51.9 508.46 49.04 517.18 51.87C526.09 54.77 533.36 63.96 537.18 77.09C541 90.22 539.96 105.18 539.18 117.19C539.18 118.05 539.07 118.89 539.02 119.71C542.73 118.96 545.47 119.44 547.37 121.15C551.28 124.69 549.88 132.1 548.76 138.05C548.54 139.21 548.33 140.31 548.2 141.23C547.04 149.23 532.58 183.87 487.48 194.51C487.326 194.563 487.163 194.591 487 194.59V194.59Z" fill="#175807"/>
<path d="M389.9 62.23C389.637 62.2306 389.378 62.1638 389.148 62.0361C388.919 61.9084 388.725 61.7239 388.587 61.5004C388.449 61.2768 388.37 61.0216 388.358 60.7589C388.346 60.4963 388.402 60.235 388.52 60C394.053 50.4082 402.247 42.6245 412.11 37.59C416.02 35.59 420.54 30.59 424.92 25.67C431.3 18.52 437.34 11.76 443.3 11.67C453.42 11.44 462.13 19.35 468.49 25.13C470.8 27.23 475.7 29.53 481.38 32.19C491.51 36.94 504.11 42.85 510.93 51.73C511.069 51.8893 511.174 52.0754 511.238 52.2768C511.303 52.4782 511.325 52.6906 511.305 52.9011C511.284 53.1115 511.22 53.3155 511.118 53.5005C511.016 53.6855 510.876 53.8476 510.709 53.9768C510.541 54.1059 510.349 54.1995 510.144 54.2516C509.939 54.3038 509.726 54.3134 509.517 54.28C509.308 54.2466 509.109 54.1708 508.93 54.0573C508.752 53.9438 508.598 53.795 508.48 53.62C502.11 45.33 489.89 39.62 480.07 35C474.16 32.23 469.07 29.84 466.4 27.42C460.1 21.7 452.25 14.56 443.4 14.77C438.79 14.87 432.93 21.43 427.26 27.77C422.48 33.12 417.97 38.17 413.53 40.4C404.279 45.1627 396.563 52.4423 391.27 61.4C391.14 61.6514 390.944 61.8621 390.702 62.0086C390.46 62.1551 390.182 62.2318 389.9 62.23V62.23Z" fill="#175807"/>
<path d="M446.93 116.92C446.93 116.92 440.2 120.16 441.69 122.92C443.18 125.68 446.05 123.35 446.93 116.92Z" fill="#175807"/>
<path d="M467 115.59C467 115.59 467.73 121.16 470.64 121.71C473.55 122.26 475.16 118.93 467 115.59Z" fill="#175807"/>
<path d="M402.69 126C401.148 126.001 399.607 125.89 398.08 125.67C386.65 124 378.27 115.09 375.08 101.23C373.55 94.59 374.26 89.23 377.17 85.37C380.41 81.03 386.37 78.57 394.86 78.06C409.19 77.21 433.58 95.84 434.61 96.63C434.902 96.8492 435.108 97.1646 435.19 97.5204C435.272 97.8763 435.226 98.2498 435.06 98.575C434.894 98.9002 434.618 99.1563 434.282 99.2981C433.945 99.4399 433.569 99.4583 433.22 99.35C433.325 102.556 432.757 105.749 431.551 108.722C430.345 111.695 428.529 114.382 426.22 116.61C419.885 122.663 411.452 126.028 402.69 126V126ZM395.89 81.13C395.61 81.13 395.33 81.13 395.05 81.13C387.51 81.58 382.33 83.62 379.66 87.19C377.32 90.32 376.8 94.8 378.11 100.51C380.99 113.05 388.44 121.09 398.53 122.57C403.12 123.206 407.794 122.798 412.204 121.377C416.614 119.955 420.646 117.557 424 114.36C426.297 112.182 428.032 109.482 429.06 106.489C430.087 103.496 430.375 100.299 429.9 97.17C429.895 97.1034 429.895 97.0365 429.9 96.97C423.28 92.25 406.47 81.08 395.89 81.08V81.13Z" fill="#175807"/>
<path d="M383.74 83.08C383.375 83.0879 383.02 82.9636 382.74 82.73C380.708 81.0236 379.047 78.9186 377.86 76.545C376.673 74.1715 375.986 71.5797 375.84 68.93C375.837 68.7264 375.875 68.5244 375.95 68.3353C376.026 68.1462 376.138 67.9739 376.28 67.8281C376.422 67.6823 376.591 67.5659 376.778 67.4856C376.965 67.4053 377.166 67.3626 377.37 67.36V67.36C377.578 67.3492 377.785 67.3804 377.981 67.4515C378.176 67.5227 378.355 67.6325 378.507 67.7743C378.659 67.9161 378.781 68.0871 378.866 68.2771C378.951 68.467 378.996 68.6721 379 68.88V68.88C379.152 71.0754 379.739 73.2186 380.728 75.1845C381.717 77.1504 383.088 78.8996 384.76 80.33C385.009 80.5334 385.188 80.8092 385.274 81.1191C385.359 81.429 385.346 81.7577 385.236 82.0598C385.126 82.3619 384.925 82.6223 384.66 82.8051C384.396 82.9879 384.081 83.0839 383.76 83.08H383.74Z" fill="#175807"/>
<path d="M396.68 79.8199C396.411 79.8213 396.147 79.7518 395.913 79.6184C395.68 79.485 395.486 79.2923 395.35 79.0599C390.75 71.2099 394.21 59.8599 394.35 59.3799C394.411 59.183 394.509 58.9998 394.641 58.8409C394.772 58.6821 394.933 58.5506 395.115 58.454C395.297 58.3574 395.496 58.2977 395.701 58.2781C395.906 58.2585 396.113 58.2795 396.31 58.3399C396.507 58.4004 396.691 58.499 396.849 58.6302C397.008 58.7614 397.14 58.9226 397.236 59.1046C397.333 59.2866 397.393 59.4858 397.412 59.6909C397.432 59.896 397.411 60.103 397.35 60.2999C397.3 60.4599 394.16 70.8499 398.05 77.4899C398.258 77.8441 398.317 78.2662 398.214 78.6637C398.111 79.0612 397.854 79.4015 397.5 79.6099C397.251 79.7518 396.968 79.8243 396.68 79.8199V79.8199Z" fill="#175807"/>
<path d="M420.32 90.3901C419.985 90.3886 419.658 90.2789 419.39 90.0771C419.121 89.8753 418.925 89.5922 418.83 89.2701C416.33 80.6201 423.04 71.69 423.33 71.27C423.449 71.097 423.602 70.9499 423.78 70.8378C423.958 70.7256 424.156 70.6508 424.364 70.6178C424.571 70.5848 424.783 70.5943 424.987 70.6457C425.191 70.6971 425.382 70.7894 425.549 70.917C425.716 71.0445 425.855 71.2047 425.958 71.3877C426.061 71.5707 426.126 71.7728 426.148 71.9817C426.171 72.1905 426.151 72.4018 426.089 72.6026C426.028 72.8035 425.926 72.9897 425.79 73.1501C425.7 73.2701 419.79 81.2501 421.79 88.3601C421.861 88.5922 421.876 88.8377 421.834 89.0767C421.792 89.3157 421.695 89.5415 421.55 89.7361C421.405 89.9306 421.217 90.0885 421 90.1968C420.782 90.3052 420.543 90.3611 420.3 90.3601L420.32 90.3901Z" fill="#175807"/>
<path d="M505.06 122.05C495.25 122.05 487.92 119.31 483.27 113.91C479.36 109.36 477.54 103.08 477.85 95.2C476.85 96.7 476.33 97.65 476.31 97.7C476.211 97.8786 476.078 98.036 475.919 98.1633C475.76 98.2906 475.577 98.3853 475.381 98.442C475.185 98.4986 474.98 98.5161 474.777 98.4935C474.574 98.4708 474.378 98.4085 474.2 98.31C474.021 98.2115 473.864 98.0788 473.736 97.9194C473.609 97.7601 473.514 97.5772 473.458 97.3813C473.401 97.1854 473.383 96.9802 473.406 96.7775C473.429 96.5748 473.491 96.3786 473.59 96.2C474.07 95.33 485.51 74.85 504.36 70.74C516.54 68.09 523.64 71.07 527.46 74.05C531.78 77.42 534.27 82.66 534.46 88.79C534.68 95.71 532.35 106.45 525.1 113.93C519.88 119.32 513.13 122.05 505.06 122.05ZM481.42 90.3C480.06 99.79 481.47 107.06 485.63 111.89C489.79 116.72 496.2 119 505.06 119C512.26 119 518.26 116.59 522.87 111.82C529.45 105.04 531.56 95.25 531.36 88.94C531.2 83.67 529.19 79.38 525.55 76.54C520.83 72.86 513.73 71.92 505.02 73.82C494.54 76.06 486.33 84.15 481.42 90.3Z" fill="#175807"/>
<path d="M492.71 78.92C492.603 78.9347 492.496 78.9347 492.39 78.92C492.19 78.8796 492.001 78.8 491.832 78.6859C491.664 78.5718 491.52 78.4254 491.408 78.2553C491.296 78.0851 491.22 77.8945 491.182 77.6945C491.145 77.4945 491.147 77.2891 491.19 77.09C491.85 73.88 489.11 70.79 487.91 69.61C486.52 68.26 485.32 67.61 484.33 67.8C484.129 67.8328 483.924 67.8257 483.727 67.779C483.529 67.7324 483.343 67.6471 483.178 67.5282C483.014 67.4092 482.875 67.2589 482.768 67.0859C482.662 66.9129 482.591 66.7206 482.56 66.52C482.496 66.1131 482.596 65.6977 482.838 65.3642C483.08 65.0308 483.443 64.8064 483.85 64.74C485.85 64.42 487.95 65.32 490.08 67.4C492.03 69.31 495.15 73.18 494.22 77.72C494.141 78.0613 493.948 78.3656 493.674 78.5835C493.4 78.8014 493.06 78.9201 492.71 78.92V78.92Z" fill="#175807"/>
<path d="M511.51 72.08C511.337 72.0826 511.164 72.0555 511 72C510.809 71.9289 510.634 71.8206 510.484 71.6812C510.335 71.5419 510.216 71.3743 510.132 71.1882C510.048 71.0021 510.002 70.8013 509.997 70.5973C509.991 70.3933 510.026 70.1902 510.1 70C510.328 69.2651 510.439 68.4992 510.43 67.73C510.472 64.6335 509.848 61.5642 508.6 58.73C507.88 57.11 506.65 55.1 504.82 54.73C504.62 54.6925 504.429 54.616 504.258 54.5048C504.088 54.3936 503.94 54.2499 503.825 54.0818C503.71 53.9137 503.629 53.7246 503.587 53.5253C503.545 53.3259 503.543 53.1202 503.58 52.92C503.618 52.7197 503.694 52.5288 503.805 52.3581C503.916 52.1874 504.06 52.0402 504.228 51.9251C504.396 51.81 504.585 51.729 504.785 51.687C504.984 51.6449 505.19 51.6425 505.39 51.68C507.89 52.15 509.98 54.14 511.39 57.45C512.819 60.7073 513.531 64.2334 513.48 67.79C513.492 68.9154 513.313 70.0347 512.95 71.1C512.835 71.388 512.636 71.6351 512.38 71.8097C512.123 71.9842 511.82 72.0783 511.51 72.08V72.08Z" fill="#175807"/>
<path d="M522.87 72.88C522.587 72.883 522.309 72.808 522.066 72.6634C521.823 72.5188 521.624 72.3101 521.492 72.0601C521.36 71.8101 521.299 71.5286 521.316 71.2463C521.334 70.9641 521.428 70.692 521.59 70.46C522.966 68.4238 523.909 66.1261 524.36 63.71C524.673 62.6245 524.61 61.4648 524.18 60.42C524.071 60.2407 524 60.0412 523.97 59.8336C523.941 59.626 523.954 59.4146 524.008 59.2122C524.063 59.0098 524.158 58.8205 524.288 58.6559C524.418 58.4913 524.58 58.3548 524.764 58.2545C524.948 58.1543 525.151 58.0925 525.36 58.0729C525.568 58.0532 525.779 58.0761 525.979 58.1402C526.178 58.2043 526.363 58.3082 526.521 58.4457C526.679 58.5831 526.808 58.7513 526.9 58.94C527.671 60.6068 527.851 62.4871 527.41 64.27C526.88 67.1094 525.77 69.809 524.15 72.2C524.009 72.4097 523.818 72.5814 523.595 72.7C523.371 72.8186 523.123 72.8804 522.87 72.88V72.88Z" fill="#175807"/>
<path d="M405.21 120.26C393.33 120.26 383.67 112 383.67 101.86C383.67 91.72 393.33 83.46 405.21 83.46C417.09 83.46 426.75 91.71 426.75 101.86C426.75 112.01 417.09 120.26 405.21 120.26ZM405.21 84.34C393.82 84.34 384.56 92.2 384.56 101.86C384.56 111.52 393.82 119.37 405.21 119.37C416.6 119.37 425.86 111.51 425.86 101.86C425.86 92.21 416.6 84.34 405.21 84.34Z" fill="#175807"/>
<path d="M505.07 116C493.19 116 483.53 106.74 483.53 95.36C483.53 83.98 493.19 74.73 505.07 74.73C516.95 74.73 526.61 84 526.61 95.39C526.61 106.78 516.94 116 505.07 116ZM505.07 75.61C493.68 75.61 484.41 84.47 484.41 95.36C484.41 106.25 493.68 115.11 505.07 115.11C516.46 115.11 525.72 106.25 525.72 95.36C525.72 84.47 516.46 75.64 505.07 75.64V75.61Z" fill="#175807"/>
<path d="M503.71 111.67C500.621 111.668 497.601 110.751 495.033 109.034C492.465 107.317 490.463 104.878 489.281 102.024C488.098 99.1698 487.787 96.0295 488.388 92.9993C488.989 89.9692 490.475 87.185 492.657 84.9986C494.839 82.8121 497.621 81.3213 500.65 80.7145C503.679 80.1077 506.82 80.4121 509.676 81.5893C512.532 82.7665 514.975 84.7636 516.697 87.3284C518.419 89.8933 519.342 92.9109 519.35 96C519.352 98.0561 518.95 100.092 518.165 101.993C517.381 103.893 516.229 105.62 514.777 107.076C513.324 108.531 511.599 109.686 509.7 110.474C507.801 111.262 505.766 111.669 503.71 111.67V111.67ZM503.71 81.29C500.791 81.29 497.937 82.1561 495.511 83.7787C493.085 85.4012 491.194 87.7072 490.079 90.4047C488.964 93.1023 488.674 96.0701 489.246 98.9324C489.819 101.795 491.227 104.423 493.294 106.484C495.361 108.545 497.993 109.947 500.857 110.511C503.721 111.076 506.688 110.778 509.382 109.656C512.077 108.533 514.378 106.636 515.993 104.206C517.609 101.775 518.468 98.919 518.46 96C518.447 92.0958 516.887 88.3559 514.123 85.599C511.358 82.842 507.614 81.2927 503.71 81.29V81.29Z" fill="#175807"/>
<path d="M406.11 116.66C397.5 116.66 390.48 110.08 390.48 102C390.48 93.92 397.48 87.34 406.11 87.34C414.74 87.34 421.75 93.92 421.75 102C421.75 110.08 414.73 116.66 406.11 116.66ZM406.11 88.23C397.98 88.23 391.37 94.41 391.37 102C391.37 109.59 397.98 115.77 406.11 115.77C414.24 115.77 420.86 109.59 420.86 102C420.86 94.41 414.25 88.23 406.11 88.23V88.23Z" fill="#175807"/>
<path d="M406.11 113.51C403.873 113.51 401.686 112.847 399.826 111.604C397.966 110.361 396.517 108.595 395.661 106.528C394.805 104.462 394.581 102.187 395.017 99.9936C395.454 97.7996 396.531 95.7844 398.112 94.2026C399.694 92.6209 401.709 91.5437 403.903 91.1073C406.097 90.6709 408.371 90.8949 410.438 91.7509C412.505 92.607 414.271 94.0566 415.514 95.9165C416.756 97.7764 417.42 99.9631 417.42 102.2C417.417 105.199 416.225 108.074 414.104 110.194C411.984 112.315 409.109 113.507 406.11 113.51V113.51ZM406.11 91.78C404.049 91.782 402.036 92.3948 400.324 93.541C398.611 94.6871 397.277 96.3152 396.49 98.2194C395.703 100.124 395.498 102.218 395.901 104.239C396.304 106.26 397.298 108.115 398.755 109.572C400.213 111.028 402.07 112.019 404.091 112.421C406.112 112.822 408.206 112.615 410.11 111.826C412.013 111.037 413.64 109.701 414.784 107.988C415.929 106.275 416.54 104.26 416.54 102.2C416.537 99.4355 415.437 96.7852 413.481 94.8314C411.526 92.8775 408.874 91.78 406.11 91.78V91.78Z" fill="#175807"/>
<path d="M502.54 107.52C500.302 107.522 498.114 106.86 496.252 105.618C494.391 104.376 492.94 102.61 492.083 100.543C491.225 98.4758 491 96.2009 491.437 94.006C491.873 91.8111 492.95 89.795 494.532 88.2126C496.115 86.6303 498.131 85.5529 500.326 85.1169C502.521 84.6808 504.795 84.9056 506.862 85.7629C508.93 86.6201 510.696 88.0713 511.938 89.9328C513.18 91.7942 513.842 93.9823 513.84 96.22C513.834 99.2153 512.642 102.086 510.524 104.204C508.406 106.323 505.535 107.515 502.54 107.52V107.52ZM502.54 85.8C500.481 85.8079 498.47 86.4258 496.762 87.5755C495.053 88.7253 493.724 90.3554 492.941 92.2601C492.159 94.1648 491.958 96.2586 492.365 98.2773C492.771 100.296 493.767 102.149 495.226 103.602C496.685 105.055 498.541 106.044 500.562 106.443C502.582 106.841 504.675 106.633 506.576 105.843C508.478 105.053 510.103 103.718 511.246 102.005C512.39 100.292 513 98.2792 513 96.22C512.998 94.8487 512.727 93.491 512.2 92.2248C511.673 90.9585 510.902 89.8086 509.931 88.8407C508.959 87.8729 507.806 87.1061 506.538 86.5844C505.27 86.0626 503.911 85.7961 502.54 85.8Z" fill="#175807"/>
<path d="M395.25 104.27C395.177 104.269 395.105 104.251 395.041 104.216C394.976 104.181 394.921 104.131 394.88 104.07C394.818 103.972 394.796 103.855 394.818 103.741C394.84 103.627 394.906 103.527 395 103.46C395.09 103.4 404.26 97.35 417.12 101.78C417.233 101.819 417.326 101.9 417.378 102.007C417.43 102.114 417.439 102.237 417.4 102.35C417.36 102.461 417.277 102.551 417.171 102.602C417.064 102.652 416.942 102.659 416.83 102.62C404.39 98.33 395.59 104.13 395.5 104.19C395.427 104.24 395.34 104.268 395.25 104.27Z" fill="#175807"/>
<path d="M491.67 98C491.597 97.9993 491.525 97.9807 491.46 97.9459C491.396 97.911 491.341 97.8609 491.3 97.8C491.238 97.7024 491.216 97.5846 491.238 97.4709C491.26 97.3573 491.326 97.2567 491.42 97.19C491.51 97.12 500.68 91.08 513.54 95.51C513.596 95.5281 513.647 95.557 513.691 95.595C513.735 95.633 513.771 95.6794 513.797 95.7315C513.823 95.7836 513.839 95.8403 513.843 95.8984C513.847 95.9565 513.839 96.0149 513.82 96.07C513.802 96.1254 513.773 96.1766 513.735 96.2207C513.697 96.2648 513.651 96.3009 513.599 96.327C513.547 96.353 513.49 96.3685 513.432 96.3724C513.374 96.3764 513.315 96.3688 513.26 96.35C508.324 94.5826 502.98 94.2907 497.88 95.51C495.766 95.9925 493.741 96.8058 491.88 97.92C491.818 97.9636 491.746 97.9911 491.67 98V98Z" fill="#175807"/>
<path d="M378.44 134.25C378.44 134.25 393.36 138.71 424.98 135.65C456.6 132.59 470.81 131.75 498.09 134.25C525.37 136.75 535.41 130.91 535.41 130.91C535.41 130.91 509 178.3 460.5 179.64C405.37 181.17 378.44 134.25 378.44 134.25Z" fill="#730E00"/>
<path d="M401.1 136.25C401.1 136.25 400.49 142.19 403.77 150.36C405.19 153.9 402.44 154.16 405.98 163.08C405.98 163.08 442.85 192.22 481.29 176.08C481.29 176.08 501.15 168.73 506.91 162.58C507.823 160.746 508.582 158.84 509.18 156.88C509.487 154.625 509.454 152.336 509.08 150.09C509.08 150.09 510.27 147.34 511.74 142.6C512.476 140.073 512.476 137.388 511.74 134.86C511.74 134.86 470.33 132.65 464.74 132.81C459.15 132.97 414.06 136.44 414.06 136.44L401.1 136.25Z" fill="#EAE8E9"/>
<path d="M511.92 135.53C512.015 140.533 511.047 145.499 509.08 150.1C509.428 154.38 508.681 158.678 506.91 162.59C506.91 162.59 518.67 153.59 525.09 145.26C531.51 136.93 535.41 130.91 535.41 130.91C535.41 130.91 520.93 135.36 511.74 134.91" fill="#4B0D00"/>
<path d="M401.92 137.44C401.831 142.439 402.799 147.401 404.76 152C404.413 156.281 405.163 160.58 406.94 164.49C406.94 164.49 395.18 155.49 388.75 147.17C382.32 138.85 378.44 132.82 378.44 132.82C378.44 132.82 392.91 137.26 402.1 136.82" fill="#4B0D00"/>
<path d="M457.91 181.23C430.29 181.23 410.04 169.08 397.79 158.7C384.12 147.12 377.37 135.51 377.09 135.02C376.938 134.751 376.869 134.443 376.892 134.135C376.915 133.827 377.029 133.533 377.22 133.29C377.413 133.047 377.674 132.868 377.97 132.775C378.266 132.683 378.583 132.681 378.88 132.77C379.1 132.83 394.04 137.08 424.83 134.1C456.12 131.1 470.55 130.17 498.24 132.71C524.52 135.12 534.54 129.62 534.63 129.57C534.924 129.399 535.266 129.33 535.603 129.372C535.941 129.415 536.255 129.567 536.497 129.806C536.739 130.045 536.896 130.357 536.944 130.694C536.991 131.031 536.927 131.374 536.76 131.67C531.389 140.613 524.803 148.768 517.19 155.9C505.44 167.04 486.07 180.48 460.55 181.19C459.66 181.22 458.78 181.23 457.91 181.23ZM381.8 136.59C386.941 143.953 393.019 150.616 399.88 156.41C412.09 166.73 432.52 178.86 460.46 178.09C484.96 177.41 503.64 164.46 514.99 153.71C521.24 147.766 526.824 141.156 531.64 134C526.23 135.58 515.64 137.41 497.95 135.79C470.54 133.27 456.21 134.17 425.13 137.18C402.24 139.41 388.08 137.74 381.8 136.59Z" fill="#175807"/>
<path d="M381.4 129.27C380.231 129.558 379.138 130.095 378.197 130.846C377.256 131.597 376.49 132.544 375.95 133.62C375.377 134.824 375.097 136.147 375.133 137.48C375.17 138.813 375.521 140.119 376.16 141.29C376.84 142.54 378.75 141.43 378.07 140.17C377.605 139.321 377.35 138.374 377.326 137.407C377.301 136.44 377.509 135.481 377.93 134.61C378.336 133.815 378.909 133.117 379.609 132.565C380.31 132.013 381.122 131.619 381.99 131.41C383.37 131.07 382.79 128.93 381.4 129.27V129.27Z" fill="#175807"/>
<path d="M532.37 128.42C533.169 128.583 533.922 128.921 534.576 129.41C535.229 129.899 535.766 130.526 536.148 131.247C536.531 131.967 536.749 132.764 536.787 133.578C536.825 134.393 536.683 135.207 536.37 135.96C536.323 136.103 536.306 136.254 536.32 136.404C536.333 136.554 536.377 136.699 536.449 136.832C536.521 136.964 536.618 137.08 536.736 137.174C536.854 137.267 536.99 137.336 537.135 137.375C537.28 137.414 537.432 137.424 537.581 137.403C537.73 137.382 537.873 137.331 538.002 137.252C538.13 137.174 538.242 137.071 538.329 136.948C538.416 136.826 538.478 136.687 538.51 136.54C538.899 135.508 539.062 134.405 538.989 133.305C538.916 132.205 538.608 131.133 538.086 130.162C537.564 129.191 536.84 128.343 535.962 127.675C535.085 127.007 534.075 126.535 533 126.29C532.728 126.242 532.448 126.296 532.214 126.444C531.98 126.591 531.809 126.82 531.736 127.087C531.662 127.353 531.69 127.637 531.815 127.884C531.939 128.13 532.152 128.322 532.41 128.42H532.37Z" fill="#175807"/>
<path d="M404.76 152C404.76 152 413.97 155.25 437.22 156.89C437.22 156.89 434.83 157.89 405.04 155.29L404.76 152Z" fill="#918F8F"/>
<path d="M509.07 149.67C509.07 149.67 497.07 153.51 476.61 155.67C476.61 155.67 480.55 156.96 509.18 152L509.07 149.67Z" fill="#918F8F"/>
<path d="M369.65 86.37L406.35 90.4L423.29 120.44L387.2 115.6L366.02 92.21L369.65 86.37Z" fill="white"/>
<path d="M458.78 85.16L459.58 95.84L485.39 116.01L503.94 109.96L510.8 97.46L487.81 85.16H458.78Z" fill="white"/>
<path d="M550.866 79.5691L359.804 84.6724L359.992 91.7298L551.054 86.6266L550.866 79.5691Z" fill="#0F1314"/>
<path d="M374.856 89.7927L360.142 90.196L360.379 98.8628L375.094 98.4595L374.856 89.7927Z" fill="#0F1314"/>
<path d="M381.614 97.4746L366.899 97.8779L367.137 106.545L381.851 106.141L381.614 97.4746Z" fill="#0F1314"/>
<path d="M388.944 103.791L374.229 104.195L374.467 112.861L389.182 112.458L388.944 103.791Z" fill="#0F1314"/>
<path d="M449.602 101.26L407.978 102.401L408.215 111.068L449.839 109.927L449.602 101.26Z" fill="#0F1314"/>
<path d="M462.826 86.9729L395.201 88.8264L395.439 97.4932L463.063 95.6397L462.826 86.9729Z" fill="#0F1314"/>
<path d="M463.124 94.332L401.747 96.0143L401.985 104.681L463.362 102.999L463.124 94.332Z" fill="#0F1314"/>
<path d="M442.247 109.079L381.779 110.736L382.017 119.403L442.484 117.745L442.247 109.079Z" fill="#0F1314"/>
<path d="M436.364 115.328L389.002 116.626L389.239 125.292L436.602 123.994L436.364 115.328Z" fill="#0F1314"/>
<path d="M388.289 90.5351L381.031 90.734L381.23 97.9913L388.487 97.7924L388.289 90.5351Z" fill="#0F1314"/>
<path d="M395.973 96.3001L388.713 96.5179L388.931 103.778L396.191 103.56L395.973 96.3001Z" fill="#0F1314"/>
<path d="M402.471 103.961L395.214 104.16L395.413 111.418L402.67 111.219L402.471 103.961Z" fill="#0F1314"/>
<path d="M463.136 87.3649L448.422 87.7682L448.659 96.4349L463.374 96.0316L463.136 87.3649Z" fill="#0F1314"/>
<path d="M469.894 95.047L455.18 95.4503L455.392 103.207L470.107 102.804L469.894 95.047Z" fill="#0F1314"/>
<path d="M477.235 101.373L462.521 101.777L462.758 110.443L477.473 110.04L477.235 101.373Z" fill="#0F1314"/>
<path d="M537.882 98.8324L496.258 99.9733L496.495 108.64L538.12 107.499L537.882 98.8324Z" fill="#0F1314"/>
<path d="M551.106 84.5552L483.481 86.4087L483.719 95.0754L551.344 93.222L551.106 84.5552Z" fill="#0F1314"/>
<path d="M551.405 91.9142L490.028 93.5964L490.266 102.263L551.643 100.581L551.405 91.9142Z" fill="#0F1314"/>
<path d="M530.527 106.661L470.06 108.318L470.297 116.985L530.764 115.328L530.527 106.661Z" fill="#0F1314"/>
<path d="M524.636 112.92L477.273 114.218L477.511 122.885L524.873 121.587L524.636 112.92Z" fill="#0F1314"/>
<path d="M476.569 88.1072L469.312 88.3062L469.51 95.5634L476.768 95.3645L476.569 88.1072Z" fill="#0F1314"/>
<path d="M483.841 94.8652L476.584 95.0641L476.783 102.321L484.04 102.122L483.841 94.8652Z" fill="#0F1314"/>
<path d="M490.751 101.533L483.494 101.732L483.693 108.99L490.95 108.791L490.751 101.533Z" fill="#0F1314"/>
<path d="M350 228.6C359.054 240.923 366.638 254.259 372.6 268.34C374.7 268.6 376.39 268.44 377.27 267.58C381.47 263.51 378.55 256.49 375.46 251.58L349.46 209.83C344.87 202.44 340.23 195 334 189C331.93 187 329.51 185.09 326.74 184.46C327.314 191.348 329.36 198.032 332.74 204.06C337.52 212.87 344.11 220.54 350 228.6Z" fill="#64A835"/>
<path d="M350 228.6C344.07 220.54 337.48 212.87 332.73 204.06C329.35 198.032 327.304 191.348 326.73 184.46C326.283 184.358 325.828 184.291 325.37 184.26C309.25 183.26 325.5 223.32 328.37 230.1C333.63 242.38 341.69 253.83 353.02 260.9C355.49 262.45 366.02 267.51 372.6 268.34C366.638 254.259 359.054 240.923 350 228.6Z" fill="#84E246"/>
<path d="M353.62 260C346.097 255.101 339.793 248.548 335.19 240.84C332.936 237.185 330.964 233.364 329.29 229.41C329.23 229.27 329.08 228.91 329.22 229.25C329.16 229.09 329.09 228.94 329.03 228.79C328.88 228.44 328.74 228.09 328.6 227.74C328.25 226.89 327.91 226.04 327.6 225.18C325.69 220.3 323.95 215.35 322.5 210.32C321.68 207.52 320.96 204.69 320.4 201.83C320.27 201.16 320.15 200.48 320.04 199.83L319.89 198.89C319.89 198.82 319.82 198.35 319.89 198.56C319.89 198.39 319.84 198.22 319.82 198.05C319.67 196.78 319.56 195.51 319.53 194.24C319.503 193.141 319.557 192.041 319.69 190.95C319.69 191.26 319.69 190.88 319.69 190.8L319.75 190.46C319.75 190.21 319.85 189.96 319.91 189.71C320.021 189.272 320.158 188.841 320.32 188.42C320.43 188.12 320.23 188.59 320.32 188.3C320.37 188.21 320.41 188.12 320.45 188.03C320.547 187.838 320.654 187.651 320.77 187.47L320.93 187.23C320.93 187.16 321.2 186.87 320.98 187.15C321.105 186.99 321.239 186.836 321.38 186.69C321.51 186.56 321.66 186.44 321.79 186.32C321.92 186.2 321.57 186.46 321.79 186.32L322.07 186.13C322.231 186.033 322.398 185.947 322.57 185.87C322.83 185.73 322.38 185.92 322.62 185.87L322.96 185.75C323.15 185.689 323.344 185.639 323.54 185.6L323.88 185.54C323.95 185.54 324.1 185.54 323.8 185.54H324.02C324.579 185.485 325.141 185.485 325.7 185.54C327.896 185.931 329.934 186.944 331.57 188.46C335.239 191.707 338.484 195.402 341.23 199.46C344.23 203.64 346.91 208.03 349.63 212.38L358.63 226.8L367.5 241.02L372.06 248.32C373.36 250.42 374.75 252.48 375.89 254.66C376.884 256.471 377.614 258.413 378.06 260.43C378.498 262.179 378.307 264.027 377.52 265.65C377.324 266.008 377.089 266.343 376.82 266.65C376.7 266.79 376.55 266.91 376.43 267.05C376.31 267.19 376.64 266.95 376.35 267.11L376.1 267.25L375.96 267.31C375.96 267.31 376.21 267.24 376.04 267.31C375.87 267.38 375.6 267.45 375.37 267.49H375.22C374.96 267.54 375.48 267.49 375.22 267.49H374.9C374.62 267.49 374.33 267.49 374.05 267.49C373.77 267.49 373.46 267.49 373.17 267.43H372.73C372.51 267.43 372.68 267.43 372.73 267.43L372.42 267.38C369.376 266.832 366.399 265.96 363.54 264.78C360.897 263.758 358.307 262.603 355.78 261.32C355.04 260.94 354.31 260.56 353.61 260.13C352.39 259.37 351.28 261.29 352.49 262.04C354.45 263.201 356.488 264.223 358.59 265.1C361.63 266.484 364.761 267.66 367.96 268.62C370.5 269.36 373.46 270.16 376.12 269.56C376.794 269.376 377.423 269.057 377.97 268.622C378.517 268.187 378.969 267.645 379.3 267.03C380.315 265.278 380.71 263.234 380.42 261.23C379.89 256.51 377.26 252.46 374.81 248.53L365.58 233.74C359.58 224.04 353.58 214.28 347.41 204.65C344.657 200.226 341.586 196.008 338.22 192.03C336.596 190.104 334.809 188.321 332.88 186.7C331.059 185.079 328.846 183.963 326.46 183.46C325.356 183.224 324.213 183.235 323.113 183.493C322.014 183.751 320.985 184.248 320.1 184.95C318.707 186.303 317.809 188.085 317.55 190.01C317.17 192.419 317.13 194.87 317.43 197.29C317.751 200.186 318.258 203.059 318.95 205.89C320.343 211.511 322.069 217.044 324.12 222.46C325.779 227.096 327.702 231.634 329.88 236.05C333.971 244.476 339.759 251.966 346.88 258.05C348.652 259.498 350.512 260.834 352.45 262.05C353.71 262.62 354.83 260.7 353.62 260Z" fill="#175807"/>
<path d="M318.36 224.73C322.06 224.07 325.01 219.47 322.87 216.37C325.87 218.14 329.87 218.37 332.7 216.44C335.53 214.51 336.7 210.16 334.7 207.34C338.724 210.799 343.306 213.551 348.25 215.48C349.848 216.209 351.595 216.552 353.35 216.48C354.228 216.423 355.069 216.108 355.768 215.574C356.468 215.041 356.994 214.312 357.28 213.48C357.95 210.9 355.54 208.66 353.46 206.99C347.183 201.913 341.761 195.863 337.4 189.07C342.4 190.59 348.74 191.7 351.89 187.57C352.558 186.691 352.998 185.661 353.17 184.57C348.173 183.449 343.427 181.415 339.17 178.57C324.83 168.79 305.44 188.78 305.61 204.33C305.61 204.33 304.54 215.63 311.23 223.15C313.343 224.508 315.871 225.068 318.36 224.73Z" fill="#84E246"/>
<path d="M353.17 184.56C352.998 185.651 352.558 186.681 351.89 187.56C348.74 191.69 342.36 190.56 337.4 189.06C341.76 195.86 347.182 201.917 353.46 207C355.54 208.67 357.95 210.91 357.28 213.49C356.994 214.322 356.468 215.051 355.768 215.584C355.069 216.118 354.228 216.433 353.35 216.49C351.595 216.562 349.848 216.219 348.25 215.49C343.306 213.561 338.724 210.809 334.7 207.35C336.7 210.17 335.56 214.5 332.7 216.45C329.84 218.4 325.84 218.15 322.87 216.38C325.01 219.48 322.06 224.08 318.36 224.74C315.861 225.066 313.329 224.488 311.22 223.11C312.131 224.142 313.161 225.062 314.29 225.85C324.35 232.93 338.95 229.47 328.5 219.2C328.5 219.2 338.06 225.57 343.7 216.04C343.7 216.04 358.7 224.39 361.7 218.3C364.7 212.21 338.62 190.87 338.62 190.87C338.62 190.87 353.03 200.87 359.46 191.87C363.59 186.11 360 186.25 353.17 184.56Z" fill="#64A835"/>
<path d="M337.86 191.64C339.81 193.559 342.183 194.992 344.789 195.824C347.395 196.656 350.16 196.864 352.86 196.43C355.54 196.01 358.51 194.91 360.2 192.67C361.89 190.43 362.54 187.09 359.75 185.59C358.534 185.041 357.224 184.729 355.89 184.67C354.583 184.54 353.293 184.275 352.04 183.88C349.203 182.838 346.484 181.497 343.93 179.88C341.221 178.17 338.277 176.863 335.19 176C332.071 175.23 328.81 175.23 325.69 176C322.524 176.884 319.591 178.454 317.1 180.6C314.945 182.327 312.998 184.301 311.3 186.48C307.981 190.689 305.761 195.659 304.84 200.94C303.825 206.386 304.337 212.007 306.32 217.18C308.38 222.103 312.003 226.211 316.63 228.87C319.239 230.452 322.203 231.352 325.25 231.49C326.69 231.553 328.12 231.23 329.393 230.555C330.666 229.879 331.735 228.877 332.49 227.65C333.107 226.627 333.331 225.415 333.12 224.24C332.871 223.317 332.428 222.458 331.82 221.72C330.394 219.939 328.744 218.349 326.91 216.99C326.17 216.41 325.41 215.84 324.64 215.3C324.387 215.154 324.086 215.114 323.803 215.189C323.52 215.264 323.279 215.448 323.13 215.7C322.986 215.955 322.946 216.255 323.019 216.539C323.091 216.822 323.271 217.066 323.52 217.22C325.026 218.254 326.456 219.393 327.8 220.63C328.565 221.313 329.274 222.055 329.92 222.85C330.163 223.168 330.384 223.502 330.58 223.85C330.779 224.153 330.915 224.493 330.98 224.85C330.985 224.913 330.985 224.977 330.98 225.04C330.98 224.76 330.98 225.04 330.98 225.1C330.974 225.241 330.958 225.381 330.93 225.52C330.808 226.082 330.566 226.61 330.22 227.07C329.595 227.896 328.744 228.525 327.77 228.88C325.17 229.88 322.18 229.04 319.77 227.98C315.419 226.073 311.807 222.802 309.48 218.66C307.198 214.299 306.215 209.373 306.65 204.47C306.959 199.61 308.452 194.9 311 190.75C313.672 186.327 317.37 182.612 321.78 179.92C324.291 178.509 327.103 177.721 329.981 177.621C332.859 177.522 335.719 178.115 338.32 179.35C343.59 181.68 348.14 185.64 353.96 186.63C355.06 186.82 356.19 186.86 357.29 187.08C358.08 187.24 359.1 187.48 359.4 188.23C359.79 189.17 359.06 190.46 358.56 191.23C357.82 192.21 356.813 192.956 355.66 193.38C353.473 194.257 351.111 194.612 348.762 194.415C346.413 194.219 344.142 193.478 342.13 192.25C341.139 191.648 340.226 190.925 339.41 190.1C338.41 189.1 336.84 190.65 337.85 191.66L337.86 191.64Z" fill="#175807"/>
<path d="M315.19 205.39C316.972 210.158 320.018 214.351 324 217.52C328.06 220.72 333.81 223.7 339.08 221.92C340.411 221.515 341.623 220.795 342.614 219.819C343.605 218.844 344.345 217.643 344.77 216.32C344.831 216.042 344.782 215.751 344.635 215.507C344.487 215.264 344.251 215.087 343.976 215.012C343.701 214.938 343.408 214.972 343.158 215.107C342.907 215.243 342.719 215.469 342.63 215.74C342.337 216.666 341.83 217.51 341.151 218.205C340.472 218.9 339.64 219.426 338.72 219.74C336.429 220.478 333.951 220.386 331.72 219.48C327.45 217.82 323.734 214.988 321 211.31C319.477 209.334 318.254 207.144 317.37 204.81C317.291 204.524 317.103 204.281 316.848 204.13C316.593 203.979 316.289 203.932 316 204C315.72 204.082 315.483 204.269 315.339 204.523C315.195 204.777 315.156 205.078 315.23 205.36L315.19 205.39Z" fill="#175807"/>
<path d="M323.65 196C331.02 204.28 338.65 212.91 348.2 218.69C350.534 220.219 353.19 221.184 355.96 221.51C358.39 221.7 361.71 221 362.83 218.51C363.95 216.02 362.12 213.33 360.43 211.51C358.27 209.21 356.09 206.95 353.93 204.67L339.31 189.29C338.31 188.29 336.76 189.82 337.74 190.86L350 203.81L356.22 210.34C357.22 211.34 358.22 212.34 359.15 213.43C359.957 214.239 360.557 215.23 360.9 216.32C361.48 218.65 358.37 219.32 356.68 219.32C354.185 219.176 351.771 218.38 349.68 217.01C345.205 214.281 341.064 211.039 337.34 207.35C333.05 203.27 329.1 198.85 325.16 194.43C324.21 193.36 322.65 194.93 323.6 195.99L323.65 196Z" fill="#175807"/>
<path d="M566 228.6C556.943 240.92 549.359 254.257 543.4 268.34C541.3 268.6 539.61 268.44 538.73 267.58C534.53 263.51 537.44 256.49 540.54 251.58L566.54 209.83C571.14 202.44 575.79 195 582 189C584.07 187 586.49 185.09 589.25 184.46C588.677 191.348 586.631 198.032 583.25 204.06C578.49 212.87 571.91 220.54 566 228.6Z" fill="#64A835"/>
<path d="M566 228.6C571.93 220.54 578.51 212.87 583.27 204.06C586.651 198.032 588.697 191.348 589.27 184.46C589.721 184.358 590.179 184.291 590.64 184.26C606.76 183.26 590.51 223.32 587.64 230.1C582.38 242.38 574.33 253.83 563 260.9C560.53 262.45 550 267.51 543.42 268.34C549.372 254.258 556.95 240.921 566 228.6V228.6Z" fill="#84E246"/>
<path d="M563.521 261.86C571.387 256.753 577.979 249.911 582.79 241.86C585.903 236.661 588.541 231.193 590.67 225.52C592.67 220.43 594.46 215.27 595.94 210.01C597.42 204.75 598.861 198.89 598.771 193.23C598.711 189.32 597.63 184.5 593.26 183.41C589.47 182.46 585.76 184.35 582.92 186.72C579.061 190.128 575.651 194.012 572.771 198.28C569.701 202.59 566.941 207.11 564.141 211.59L554.92 226.38L545.701 241.17L541.081 248.56C539.748 250.577 538.543 252.674 537.47 254.84C535.77 258.52 534.361 263.37 536.831 267.06C537.164 267.646 537.613 268.158 538.151 268.564C538.69 268.97 539.305 269.261 539.961 269.42C541.237 269.645 542.544 269.645 543.82 269.42C546.929 268.904 549.969 268.035 552.88 266.83C555.726 265.746 558.513 264.515 561.23 263.14C562 262.75 562.781 262.35 563.521 261.89C564.721 261.14 563.611 259.22 562.401 259.98C560.507 261.111 558.539 262.113 556.51 262.98C553.668 264.271 550.745 265.376 547.76 266.29C546.357 266.718 544.928 267.052 543.48 267.29H543.281C543.501 267.29 543.28 267.29 543.22 267.29L542.781 267.34L541.86 267.39C541.6 267.39 541.351 267.39 541.091 267.39H540.701C541.021 267.39 540.63 267.39 540.55 267.39C540.47 267.39 540.12 267.27 539.91 267.2C540.01 267.2 540.03 267.27 539.85 267.2L539.56 267.03C539.37 266.92 539.71 267.21 539.56 267.03C539.41 266.85 539.241 266.71 539.091 266.54C538.806 266.192 538.561 265.813 538.36 265.41C537.678 263.79 537.548 261.991 537.99 260.29C538.99 255.74 541.78 251.85 544.19 247.97L553 233.55C558.87 224.15 564.64 214.67 570.63 205.34C573.246 201.129 576.17 197.118 579.38 193.34C580.987 191.445 582.75 189.689 584.651 188.09C586.264 186.637 588.272 185.694 590.42 185.38C590.943 185.34 591.468 185.34 591.99 185.38C592.32 185.38 591.81 185.38 592.12 185.38L592.401 185.43C592.617 185.472 592.831 185.529 593.04 185.6L593.35 185.71C593.46 185.71 593.131 185.6 593.401 185.71C593.586 185.8 593.766 185.9 593.94 186.01L594.17 186.16C594.42 186.33 594.02 186.02 594.24 186.22L594.68 186.63C594.74 186.69 594.791 186.76 594.841 186.82C594.891 186.88 595.111 187.18 594.901 186.88C595.031 187.06 595.15 187.23 595.26 187.41C595.37 187.59 595.45 187.75 595.54 187.92C595.63 188.09 595.63 188.12 595.68 188.23C595.73 188.34 595.76 188.42 595.68 188.15C595.68 188.21 595.68 188.28 595.76 188.34C595.91 188.77 596.05 189.2 596.16 189.65C596.21 189.87 596.26 190.09 596.3 190.32C596.34 190.55 596.35 190.57 596.37 190.7C596.365 190.753 596.365 190.807 596.37 190.86C596.37 191.11 596.37 190.65 596.37 190.86C596.616 193.23 596.565 195.622 596.22 197.98C596.22 198.06 596.22 198.41 596.22 198.35C596.22 198.29 596.22 198.62 596.16 198.72C596.16 199.07 596.06 199.42 596 199.77C595.89 200.45 595.77 201.12 595.63 201.77C595.35 203.21 595.03 204.63 594.63 206.05C593.262 211.446 591.592 216.761 589.63 221.97C588.91 223.89 588.171 225.79 587.391 227.68L586.98 228.68L586.8 229.09C586.97 228.68 586.8 229.16 586.73 229.27C585.92 231.16 585.05 233.03 584.11 234.86C580.119 242.99 574.503 250.215 567.61 256.09C565.96 257.505 564.22 258.811 562.401 260C561.191 260.7 562.301 262.62 563.521 261.86Z" fill="#175807"/>
<path d="M597.66 224.73C593.95 224.07 591.01 219.47 593.15 216.37C590.15 218.14 586.15 218.37 583.32 216.44C580.49 214.51 579.32 210.16 581.32 207.34C577.293 210.801 572.708 213.554 567.76 215.48C566.162 216.209 564.415 216.552 562.66 216.48C561.783 216.42 560.943 216.103 560.245 215.57C559.546 215.036 559.02 214.31 558.73 213.48C558.06 210.9 560.48 208.66 562.55 206.99C568.829 201.913 574.255 195.863 578.62 189.07C573.62 190.59 567.27 191.7 564.13 187.57C563.463 186.69 563.02 185.66 562.84 184.57C567.837 183.45 572.583 181.416 576.84 178.57C591.18 168.79 610.57 188.78 610.4 204.33C610.4 204.33 611.46 215.63 604.78 223.15C602.67 224.506 600.146 225.066 597.66 224.73V224.73Z" fill="#84E246"/>
<path d="M562.84 184.56C563.02 185.65 563.463 186.68 564.13 187.56C567.27 191.69 573.66 190.56 578.62 189.06C574.257 195.86 568.831 201.917 562.55 207C560.48 208.67 558.06 210.91 558.73 213.49C559.02 214.32 559.547 215.046 560.245 215.58C560.944 216.113 561.783 216.43 562.66 216.49C564.415 216.562 566.162 216.219 567.76 215.49C572.709 213.564 577.294 210.811 581.32 207.35C579.32 210.17 580.46 214.5 583.32 216.45C586.18 218.4 590.17 218.15 593.15 216.38C591.01 219.48 593.95 224.08 597.66 224.74C600.159 225.066 602.691 224.488 604.8 223.11C603.885 224.137 602.855 225.057 601.73 225.85C591.67 232.93 577.07 229.47 587.52 219.2C587.52 219.2 577.95 225.57 572.32 216.04C572.32 216.04 557.32 224.39 554.32 218.3C551.32 212.21 577.41 190.87 577.41 190.87C577.41 190.87 563 200.87 556.56 191.87C552.43 186.11 556 186.25 562.84 184.56Z" fill="#64A835"/>
<path d="M576.59 190.08C574.902 191.747 572.846 192.994 570.588 193.722C568.33 194.45 565.933 194.637 563.59 194.27C561.42 193.9 558.71 193.1 557.44 191.15C556.97 190.42 556.28 189.15 556.64 188.3C557 187.45 558.2 187.22 559.06 187.06C560.15 186.85 561.27 186.79 562.37 186.58C563.742 186.312 565.082 185.904 566.37 185.36C569.021 184.165 571.593 182.803 574.07 181.28C576.546 179.758 579.245 178.634 582.07 177.95C584.866 177.353 587.768 177.467 590.51 178.28C593.248 179.186 595.77 180.646 597.92 182.57C599.819 184.153 601.545 185.933 603.07 187.88C606.04 191.722 608.042 196.222 608.91 201C609.873 205.886 609.528 210.94 607.91 215.65C606.242 220.052 603.198 223.798 599.23 226.33C597.108 227.721 594.727 228.666 592.23 229.11C589.85 229.5 587.06 229.01 585.62 226.89C585.321 226.459 585.111 225.973 585 225.46C584.989 225.32 584.989 225.18 585 225.04C585 225.04 585 224.7 585 224.98C584.994 224.887 584.994 224.793 585 224.7L585.09 224.42C585.09 224.42 585.22 224.09 585.09 224.3C585.17 224.13 585.25 223.97 585.34 223.81C585.553 223.445 585.79 223.094 586.05 222.76C587.393 221.175 588.913 219.749 590.58 218.51C591.1 218.11 591.8 217.6 592.4 217.18C592.649 217.026 592.829 216.783 592.903 216.5C592.978 216.217 592.941 215.916 592.8 215.66C592.648 215.409 592.404 215.227 592.121 215.152C591.837 215.078 591.535 215.116 591.28 215.26C589.541 216.472 587.894 217.809 586.35 219.26C584.91 220.61 583.19 222.32 582.79 224.34C582.27 226.88 584.28 229.34 586.41 230.5C589.28 232.01 592.71 231.57 595.66 230.5C600.729 228.66 605.029 225.161 607.86 220.57C610.636 215.872 611.929 210.445 611.57 205C611.342 199.621 609.771 194.385 607 189.77C605.557 187.393 603.835 185.197 601.87 183.23C599.804 181.077 597.448 179.222 594.87 177.72C592.014 176.146 588.801 175.333 585.54 175.36C582.313 175.443 579.141 176.206 576.23 177.6C573.4 178.91 570.81 180.67 568.06 182.11C566.722 182.832 565.323 183.435 563.88 183.91C562.603 184.29 561.294 184.554 559.97 184.7C557.52 185.01 554.2 185.79 554.35 188.93C554.5 192.07 556.82 194.22 559.42 195.34C561.932 196.377 564.653 196.808 567.363 196.6C570.072 196.391 572.695 195.549 575.02 194.14C576.174 193.439 577.238 192.599 578.19 191.64C578.371 191.427 578.465 191.154 578.453 190.875C578.441 190.595 578.324 190.331 578.126 190.134C577.928 189.937 577.663 189.822 577.383 189.812C577.104 189.802 576.831 189.898 576.62 190.08H576.59Z" fill="#175807"/>
<path d="M598.69 204.81C597.087 208.983 594.435 212.671 590.99 215.52C589.232 216.995 587.268 218.204 585.16 219.11C582.948 220.155 580.455 220.45 578.06 219.95C576.987 219.706 575.994 219.191 575.176 218.454C574.359 217.717 573.744 216.782 573.39 215.74C573.302 215.469 573.113 215.243 572.863 215.107C572.612 214.972 572.319 214.938 572.044 215.012C571.769 215.087 571.534 215.264 571.386 215.507C571.238 215.751 571.189 216.042 571.25 216.32C571.608 217.485 572.219 218.556 573.038 219.458C573.857 220.36 574.865 221.071 575.99 221.54C578.583 222.601 581.47 222.7 584.13 221.82C589.094 220.173 593.444 217.063 596.61 212.9C598.386 210.623 599.808 208.091 600.83 205.39C600.891 205.112 600.842 204.821 600.694 204.577C600.546 204.334 600.311 204.157 600.036 204.082C599.761 204.008 599.468 204.042 599.218 204.177C598.967 204.313 598.778 204.539 598.69 204.81Z" fill="#175807"/>
<path d="M590.8 194.44C583.8 202.26 576.8 210.24 567.91 216.02C565.836 217.493 563.501 218.559 561.03 219.16C559.916 219.405 558.763 219.405 557.65 219.16C557.143 219.1 556.656 218.927 556.225 218.653C555.794 218.38 555.43 218.013 555.16 217.58C555.044 217.097 555.043 216.594 555.158 216.111C555.272 215.628 555.499 215.179 555.82 214.8C556.546 213.773 557.37 212.819 558.28 211.95L564.49 205.42L578.28 190.92C579.28 189.92 577.69 188.31 576.71 189.35L563.71 203.06L557.2 209.91C555.39 211.81 552.98 213.91 552.85 216.76C552.72 219.76 555.73 221.2 558.28 221.5C561.036 221.672 563.781 221.025 566.17 219.64C568.58 218.348 570.869 216.842 573.01 215.14C575.25 213.43 577.39 211.6 579.45 209.68C584.04 205.4 588.23 200.68 592.45 196.02C593.45 194.96 591.83 193.39 590.88 194.46L590.8 194.44Z" fill="#175807"/>
<path d="M415.07 367.34C410.017 367.798 404.926 367.583 399.93 366.7C398.217 366.345 396.531 365.877 394.88 365.3C394.402 368.559 393.622 371.766 392.55 374.88C412.216 382.34 432.978 386.502 454 387.2V387.3H456.92H459.84V387.2C480.865 386.501 501.63 382.339 521.3 374.88C517.93 366.27 515.91 341.16 514.71 316.88C490 346 453.25 364.87 415.07 367.34Z" fill="#0269A3"/>
<path d="M492.59 201.23C492.59 201.23 480.46 219.17 456.92 221.41C433.39 219.17 421.26 201.23 421.26 201.23C421.26 201.23 381.68 201.78 361.41 224.45C369.57 237.68 385.34 244.32 397.41 254.36C399.88 256.42 402.41 259.28 401.73 262.42C401.527 263.187 401.188 263.912 400.73 264.56C400.56 276.14 399.44 338.19 394.83 365.3C396.481 365.877 398.168 366.345 399.88 366.7C404.876 367.583 409.967 367.798 415.02 367.34C453.2 364.87 489.96 346.03 514.66 316.87C513.59 295.32 513.17 274.42 513.04 266.26C512.318 263.867 512.263 261.322 512.88 258.9C513.97 255.09 517.18 252.21 520.7 250.39C524.22 248.57 528.12 247.64 531.87 246.39C538.897 243.982 545.449 240.364 551.23 235.7C552.83 231.98 553.88 229.6 553.88 229.6C534.23 205 492.59 201.23 492.59 201.23Z" fill="#0071BC"/>
<path d="M397.43 254.36C385.34 244.36 369.57 237.68 361.43 224.45C360.88 225.07 360.33 225.7 359.81 226.35C359.81 226.35 371.93 256.68 376.3 271.24L400.83 262.68C400.83 262.68 400.83 263.34 400.83 264.56C401.288 263.912 401.626 263.187 401.83 262.42C402.45 259.28 399.9 256.42 397.43 254.36Z" fill="#0269A3"/>
<path d="M537.57 271.24C540.64 260.99 547.5 244.51 551.28 235.66C545.499 240.324 538.947 243.942 531.92 246.35C528.17 247.64 524.27 248.58 520.75 250.35C517.23 252.12 514.02 255.05 512.93 258.86C512.313 261.282 512.368 263.827 513.09 266.22C513.09 263.92 513.03 262.64 513.03 262.64L537.57 271.24Z" fill="#0269A3"/>
<path d="M459.84 388.41H456.9C455.97 388.41 454.99 388.41 454 388.41C453.829 388.413 453.66 388.371 453.51 388.29C432.511 387.506 411.779 383.322 392.12 375.9C391.854 375.789 391.641 375.579 391.527 375.314C391.413 375.049 391.407 374.75 391.51 374.48C398.04 357.76 399.51 276.63 399.68 264.24L376.68 272.29C376.54 272.34 376.392 272.361 376.244 272.35C376.096 272.34 375.951 272.299 375.82 272.23C375.686 272.162 375.567 272.068 375.471 271.953C375.374 271.838 375.303 271.704 375.26 271.56C370.96 257.21 358.92 227.06 358.8 226.76C358.728 226.578 358.706 226.38 358.736 226.187C358.765 225.994 358.846 225.812 358.97 225.66C364.69 218.53 376.05 208.89 397.68 203.51C405.409 201.572 413.318 200.436 421.28 200.12C421.463 200.123 421.642 200.168 421.804 200.254C421.965 200.339 422.104 200.461 422.21 200.61C422.33 200.78 434.32 218.1 456.96 220.3C479.6 218.1 491.59 200.78 491.71 200.61C491.819 200.448 491.969 200.318 492.145 200.232C492.32 200.146 492.515 200.107 492.71 200.12C500.686 201.047 508.557 202.721 516.22 205.12C537.76 211.84 549.1 221.74 554.81 228.86C554.938 229.018 555.019 229.208 555.046 229.409C555.072 229.61 555.043 229.815 554.96 230C554.84 230.27 542.96 257.22 538.65 271.55C538.606 271.693 538.533 271.826 538.437 271.941C538.341 272.056 538.223 272.151 538.09 272.22C537.957 272.289 537.811 272.33 537.661 272.34C537.512 272.35 537.361 272.33 537.22 272.28L514.22 264.23C514.41 276.62 515.86 357.75 522.39 374.47C522.496 374.738 522.493 375.037 522.38 375.303C522.268 375.568 522.056 375.779 521.79 375.89C502.131 383.31 481.398 387.494 460.4 388.28C460.229 388.374 460.035 388.419 459.84 388.41V388.41ZM456.9 386.17H459.38C459.517 386.114 459.662 386.084 459.81 386.08C480.336 385.324 500.614 381.325 519.89 374.23C517.05 365.72 514.89 344.77 513.36 311.9C512.21 286.43 511.93 262.9 511.93 262.67C511.925 262.492 511.964 262.316 512.045 262.157C512.125 261.998 512.244 261.861 512.39 261.76C512.533 261.657 512.698 261.589 512.872 261.563C513.046 261.537 513.223 261.553 513.39 261.61L536.83 269.8C541.02 256.38 550.83 233.8 552.63 229.72C534.63 207.89 498.32 202.98 493.1 202.38C488.772 208.018 483.337 212.713 477.129 216.174C470.921 219.636 464.071 221.792 457 222.51C456.93 222.52 456.86 222.52 456.79 222.51C449.713 221.79 442.858 219.631 436.646 216.164C430.434 212.697 424.998 207.996 420.67 202.35C415.67 202.55 379.08 204.71 361.03 226.54C362.72 230.79 372.76 256.19 376.97 269.82L400.42 261.63C400.587 261.574 400.764 261.558 400.938 261.585C401.112 261.611 401.277 261.678 401.42 261.78C401.563 261.884 401.68 262.021 401.76 262.18C401.839 262.338 401.881 262.513 401.88 262.69C401.88 262.92 401.6 286.45 400.44 311.92C398.95 344.79 396.76 365.74 393.91 374.25C413.19 381.342 433.471 385.341 454 386.1C454.144 386.104 454.287 386.134 454.42 386.19L456.9 386.17Z" fill="#2E3192"/>
<path d="M412.41 203.62C415.632 210.543 420.1 216.814 425.59 222.12C431.265 227.588 438.205 231.566 445.79 233.7C453.638 235.888 461.968 235.623 469.66 232.94C477.03 230.132 484.007 226.388 490.42 221.8C496.17 217.56 501.42 212.26 504.27 205.62C504.64 204.76 504.99 203.89 505.27 203C505.72 201.64 503.58 201.06 503.13 202.41C500.92 208.97 496.3 214.32 490.96 218.59C488.212 220.759 485.304 222.718 482.26 224.45C478.895 226.428 475.408 228.191 471.82 229.73C468.13 231.344 464.215 232.386 460.21 232.82C456.433 233.172 452.624 232.956 448.91 232.18C441.5 230.606 434.616 227.163 428.91 222.18C423.394 217.319 418.842 211.464 415.49 204.92C415.08 204.13 414.68 203.32 414.3 202.52C414.15 202.267 413.907 202.083 413.622 202.009C413.338 201.934 413.036 201.974 412.78 202.12C412.534 202.273 412.356 202.515 412.281 202.796C412.207 203.076 412.242 203.375 412.38 203.63L412.41 203.62Z" fill="#2E3192"/>
<path d="M365.12 223C369.52 234.127 373.613 245.373 377.4 256.74C378.473 259.953 379.52 263.177 380.54 266.41C380.97 267.76 383.11 267.18 382.68 265.82C379.067 254.413 375.147 243.107 370.92 231.9C369.72 228.727 368.5 225.563 367.26 222.41C367.174 222.133 366.986 221.898 366.733 221.755C366.48 221.612 366.182 221.571 365.9 221.64C365.618 221.72 365.378 221.906 365.232 222.161C365.087 222.415 365.046 222.716 365.12 223V223Z" fill="#2E3192"/>
<path d="M398.43 205C398.076 214.947 397.943 224.903 398.03 234.87C398.03 237.67 398.073 240.47 398.16 243.27C398.16 243.564 398.276 243.847 398.485 244.055C398.693 244.263 398.975 244.38 399.27 244.38C399.564 244.38 399.846 244.263 400.054 244.055C400.263 243.847 400.38 243.564 400.38 243.27C400.16 233.323 400.16 223.37 400.38 213.41C400.453 210.61 400.536 207.807 400.63 205C400.68 203.58 398.46 203.58 398.41 205H398.43Z" fill="#2E3192"/>
<path d="M513.33 208.44C514.029 217.608 513.632 226.826 512.15 235.9C511.73 238.46 511.224 241.007 510.63 243.54C510.31 244.92 512.44 245.54 512.77 244.13C514.9 235.019 515.94 225.687 515.87 216.33C515.87 213.69 515.74 211.06 515.55 208.44C515.543 208.148 515.423 207.87 515.217 207.663C515.01 207.457 514.732 207.338 514.44 207.33C514.148 207.335 513.868 207.454 513.661 207.661C513.454 207.868 513.335 208.147 513.33 208.44Z" fill="#2E3192"/>
<path d="M546.78 223.62L533.09 257.8L529.24 267.42C529.163 267.704 529.201 268.006 529.345 268.263C529.489 268.519 529.728 268.708 530.01 268.79C530.294 268.859 530.593 268.816 530.846 268.671C531.099 268.526 531.287 268.289 531.37 268.01L545.07 233.83L548.92 224.21C548.997 223.928 548.96 223.626 548.815 223.371C548.671 223.117 548.432 222.929 548.15 222.85C547.867 222.775 547.565 222.814 547.31 222.958C547.054 223.101 546.864 223.339 546.78 223.62V223.62Z" fill="#2E3192"/>
<path d="M478.436 276.545C478.436 277.485 478.126 278.401 477.648 279.006L472.676 285.368C472.37 285.762 471.984 286.092 471.544 286.342C471.103 286.592 470.616 286.756 470.11 286.825C469.604 286.894 469.088 286.866 468.593 286.745C468.096 286.622 467.631 286.407 467.223 286.113L467.165 286.07C466.68 285.721 466.288 285.267 466.017 284.749C465.747 284.228 465.607 283.655 465.607 283.073V280.642C464.457 280.646 463.353 281.088 462.54 281.873C461.728 282.657 461.274 283.719 461.274 284.825V303.28C461.274 305.507 459.472 307.405 457.153 307.485C456.579 307.504 456.007 307.412 455.47 307.215C454.932 307.019 454.441 306.718 454.028 306.336C453.613 305.953 453.283 305.494 453.058 304.985C452.833 304.478 452.717 303.931 452.715 303.379V284.825C452.715 283.198 453.049 281.584 453.698 280.08C454.346 278.577 455.299 277.209 456.498 276.058C457.697 274.907 459.12 273.994 460.686 273.371C462.253 272.75 463.931 272.429 465.627 272.431H474.16C476.675 272.431 478.436 274.127 478.436 276.545Z" fill="white"/>
<path d="M450.539 276.463V276.582C450.539 278.819 448.651 280.633 446.321 280.633H439.784C437.454 280.633 435.564 278.819 435.564 276.582V276.463C435.564 274.224 437.454 272.41 439.784 272.41H446.321C448.651 272.41 450.539 274.224 450.539 276.463Z" fill="white"/>
<circle cx="457" cy="288" r="31.25" stroke="white" stroke-width="4"/>
</svg>
