<svg width="916" height="400" viewBox="0 0 916 400" fill="none" xmlns="http://www.w3.org/2000/svg">
<path d="M316.34 196.22C316.34 196.22 322.61 166.3 324.8 164C329.37 159.2 356.22 148.35 362.51 147.55C373.59 146.14 371.08 153.61 364.34 157.26C360.11 159.54 335.34 169.14 333.48 170.74C331.62 172.34 328.57 191.88 327 200C325.43 208.12 319.92 207.66 317.29 205.26C314.66 202.86 316.34 196.22 316.34 196.22Z" fill="url(#paint0_linear_2650_90672)"/>
<path d="M321.09 207.76C319.427 207.75 317.827 207.123 316.6 206C313.6 203.31 315.17 196.87 315.39 196C316.45 190.91 321.82 165.7 324.09 163.32C327.09 160.13 338.09 155.32 342.63 153.37C351.15 149.76 359.28 146.97 362.38 146.57C365.74 146.15 369.95 146.27 370.92 149.28C371.78 151.97 369.15 155.77 364.8 158.12C362.88 159.12 356.99 161.6 350.75 164.18C344.12 166.93 335.03 170.69 334.13 171.48C332.92 172.76 330.51 186.08 329.22 193.24C328.74 195.86 328.3 198.34 327.93 200.18C326.93 205.18 324.63 206.89 322.86 207.48C322.289 207.668 321.692 207.762 321.09 207.76ZM365 148.35C364.201 148.357 363.403 148.414 362.61 148.52C356.61 149.28 329.83 160.12 325.49 164.68C324.1 166.16 319.86 184.13 317.28 196.42V196.47C316.85 198.15 316.12 202.89 317.91 204.53C318.478 205.068 319.174 205.452 319.932 205.643C320.691 205.834 321.486 205.826 322.24 205.62C324.07 205.01 325.37 203 326 199.8C326.36 197.97 326.81 195.51 327.28 192.89C329.96 178.08 331.4 171.26 332.83 170C333.89 169.07 340.02 166.5 349.99 162.37C356.18 159.81 361.99 157.37 363.86 156.37C367.57 154.37 369.53 151.37 369.04 149.85C368.73 148.89 367.28 148.35 365 148.35Z" fill="#313B47"/>
<path d="M402.75 216C405.31 215.86 407.52 218 408.27 220.5C409.02 223 408.67 225.57 408.27 228.1C407.283 234.647 406.187 241.177 404.98 247.69C402.12 263.197 398.663 278.577 394.61 293.83C392.61 301.45 390.443 309.03 388.11 316.57C387.11 319.83 384.9 325.26 383.75 328.43C383.75 328.43 377.48 341.71 375.98 344.83L372.85 351.32L361.41 346L369.92 329.67C371.32 324.97 373.54 320.67 375.1 315.99C385.066 286.465 392.264 256.078 396.6 225.22C397.16 221.24 398.72 216.2 402.75 216Z" fill="url(#paint1_linear_2650_90672)"/>
<path d="M404.52 224.9C404.52 224.9 389.85 309.56 366.14 350.4C366.14 350.4 361.04 348.4 362.41 345.61C369.25 331.84 378.58 306.87 386.07 278.88C390.765 261.035 394.415 242.931 397 224.66L404.52 224.9Z" fill="#686868"/>
<path d="M373.29 351.11C375.172 348.468 376.821 345.667 378.22 342.74C379.98 339.25 381.56 335.67 383.06 332.07C385.51 326.22 387.78 320.28 389.8 314.27C390.97 310.78 391.94 307.27 392.94 303.68C394.553 297.973 396.087 292.24 397.54 286.48C400.42 275.02 402.974 263.487 405.2 251.88C406.3 246.113 407.32 240.327 408.26 234.52C408.73 231.65 409.26 228.77 409.57 225.87C409.84 223.35 409.76 220.63 408.4 218.4C407.856 217.415 407.068 216.585 406.112 215.99C405.157 215.395 404.065 215.054 402.94 215C402.008 215.031 401.097 215.282 400.28 215.732C399.463 216.182 398.764 216.819 398.24 217.59C397.12 219.215 396.357 221.059 396 223C395.45 225.49 395.2 228.07 394.82 230.59C393.094 241.963 390.977 253.263 388.47 264.49C385.963 275.717 383.077 286.843 379.81 297.87C377.47 305.77 375.08 313.68 371.99 321.32C369.24 328.13 366.39 334.9 363.34 341.58C362.74 342.9 362.13 344.22 361.48 345.58C360.93 346.71 362.62 347.71 363.18 346.58C366.3 340.2 369.04 333.58 371.77 327.05C372.92 324.29 374.06 321.53 375.14 318.74C376.51 315.25 377.6 311.65 378.74 308.08C382.16 297.333 385.217 286.477 387.91 275.51C390.603 264.543 392.937 253.503 394.91 242.39C395.91 236.79 396.75 231.18 397.56 225.55C397.771 223.643 398.288 221.783 399.09 220.04C399.79 218.62 400.89 217.23 402.57 217.04C404.62 216.8 406.35 218.45 407.13 220.2C408.18 222.58 407.73 225.41 407.36 227.89C406.493 233.67 405.537 239.433 404.49 245.18C402.43 256.553 400.057 267.853 397.37 279.08C394.72 290.14 391.83 301.16 388.5 312.08C386.99 317.03 385.1 321.89 383.21 326.7C380.649 333.598 377.553 340.285 373.95 346.7C373.234 347.925 372.457 349.114 371.62 350.26C371.542 350.479 371.542 350.718 371.621 350.936C371.7 351.155 371.853 351.339 372.052 351.457C372.252 351.576 372.487 351.621 372.717 351.585C372.946 351.549 373.156 351.434 373.31 351.26L373.29 351.11Z" fill="#313B47"/>
<path d="M408 230.64C408 230.64 411.45 220.77 406.7 217.52C401.95 214.27 398.7 218.2 397.44 223.37C396.18 228.54 394.8 238.78 394.8 238.78C394.8 238.78 399.83 221.94 408 230.64Z" fill="#313B47"/>
<path d="M385.19 368.15C391.404 369.814 397.858 370.396 404.27 369.87C404.501 369.619 404.706 369.344 404.88 369.05C405.243 368.335 405.557 367.597 405.82 366.84L396.55 355.77L357.16 355.41C357.16 355.41 356.34 356.03 357.16 357.48C356.786 357.677 356.48 357.983 356.285 358.359C356.091 358.734 356.015 359.16 356.07 359.58C362.07 362.75 369.07 363.49 375.7 365.29C378.9 366.16 382 367.3 385.19 368.15Z" fill="#939286"/>
<path d="M404.27 369.87C397.859 370.396 391.404 369.814 385.19 368.15C382 367.3 378.9 366.15 375.72 365.29C369.13 363.49 362.08 362.75 356.09 359.58C356.095 359.64 356.095 359.7 356.09 359.76C356.081 360.93 355.639 362.056 354.85 362.92C357.535 364.341 360.407 365.377 363.38 366C367.17 366.87 371.04 367.38 374.81 368.33C377.37 368.98 379.88 369.83 382.44 370.48C389.155 372.166 396.149 372.425 402.97 371.24C403.31 370.92 403.84 370.38 404.27 369.87Z" fill="#E5E4C8"/>
<path d="M382.45 370.48C379.89 369.83 377.38 368.98 374.82 368.33C371.05 367.38 367.18 366.87 363.39 366C360.417 365.377 357.546 364.341 354.86 362.92C354.716 363.087 354.588 363.268 354.48 363.46C354.38 363.77 353.48 365.98 357.79 367.61C362.1 369.24 367.49 368.61 374.38 371.12C381.27 373.63 393.22 374.33 397.61 373.34C402 372.35 402.68 371.54 402.68 371.54L402.98 371.24C396.159 372.425 389.165 372.166 382.45 370.48V370.48Z" fill="white"/>
<path d="M358.7 343.09C357.951 344.7 357.703 346.498 357.99 348.25C358.62 350.62 356.26 349.36 357.55 355.25C357.55 355.25 370.45 358.87 374.34 361.59C378.23 364.31 388.85 364.96 394.88 366.9C398.532 368.042 402.473 367.829 405.98 366.3C405.98 366.3 406.98 362.3 410.35 361.92C413.72 361.54 414 362.12 414 362.12C414 362.12 413.72 359.63 407.55 357.18C402.27 354.961 397.255 352.157 392.6 348.82C390.82 347.42 383.12 339.53 382.2 338.87C381.28 338.21 379.4 335.41 374.2 341.11C369 346.81 367.32 349.45 364.36 344.62C362.46 341.43 362.83 339.5 358.7 343.09Z" fill="#999698"/>
<path d="M409.45 362.1C406.59 363.22 406.55 363.56 405.98 366.28C405.41 369 403.34 369.71 402.98 371.28C402.62 372.85 404.05 373.23 407.31 372.01C410.57 370.79 413.2 370.67 413.99 366.83C414.78 362.99 414.64 360.08 409.45 362.1Z" fill="#575756"/>
<path d="M358 348.58L361.27 351.43C361.27 351.43 362.81 350.15 366.84 352.11C370.87 354.07 383.3 356.86 385.02 357.47C386.74 358.08 396.58 360.81 397.86 361.42C399.14 362.03 404.11 364.04 404.11 364.04C404.11 364.04 389.34 363.11 384.11 362.44C378.88 361.77 373.11 361.11 373.11 361.11C373.11 361.11 369.03 357.7 357.22 355.41C357.16 355.41 356.56 352.83 358 348.58Z" fill="#D9D7DA"/>
<path d="M384.08 344.6C384.08 344.6 378.08 344.95 377.81 345.6C377.54 346.25 381.01 346.54 382.81 346.21C384.61 345.88 381.52 348.85 381.27 349.5C381.02 350.15 381.48 351.5 383.67 348.75C385.86 346 385.85 346.32 385.85 346.32L390.4 346.56L388.14 344.56L385.69 342.7L384.08 344.6Z" fill="#D9D7DA"/>
<path d="M389.26 349C389.26 349 383.6 349.35 383.37 350.05C383.14 350.75 386.37 350.99 388.07 350.66C389.77 350.33 386.87 353.31 386.62 353.95C386.37 354.59 386.82 355.95 388.88 353.2C390.94 350.45 390.41 350.75 390.41 350.75L395.19 351.01L393.07 349.01L390.78 347.15L389.26 349Z" fill="#D9D7DA"/>
<path d="M395 352.64C395 352.64 389.59 352.98 389.37 353.64C389.15 354.3 392.23 354.56 393.86 354.24C395.49 353.92 392.71 356.79 392.47 357.41C392.23 358.03 392.66 359.41 394.63 356.69C396.6 353.97 396.63 354.35 396.63 354.35L400.71 354.57L398.71 352.63L396.52 350.84L395 352.64Z" fill="#D9D7DA"/>
<path d="M357.93 355.13C357.42 353.747 357.391 352.231 357.85 350.83C358.073 350.101 358.237 349.355 358.34 348.6C358.4 347.83 358.34 347.05 358.34 346.28C358.258 345.577 358.348 344.865 358.602 344.205C358.856 343.544 359.268 342.956 359.8 342.49C360.035 342.274 360.316 342.115 360.623 342.026C360.929 341.938 361.252 341.922 361.566 341.98C361.879 342.039 362.175 342.169 362.429 342.362C362.684 342.555 362.889 342.804 363.03 343.09C363.622 344.164 364.329 345.17 365.14 346.09C365.553 346.523 366.057 346.859 366.616 347.072C367.175 347.285 367.774 347.37 368.37 347.32C370.72 347.04 372.01 344.64 373.23 342.89C374.053 341.701 375.066 340.657 376.23 339.8C377.241 338.907 378.501 338.345 379.84 338.19C380.339 338.24 380.822 338.39 381.26 338.633C381.699 338.875 382.083 339.204 382.39 339.6C383.23 340.48 383.98 341.45 384.82 342.34C389.055 346.825 393.939 350.648 399.31 353.68C401.851 355.135 404.499 356.395 407.23 357.45C409.23 358.19 411.49 358.84 412.78 360.64C413.117 361.114 413.386 361.632 413.58 362.18C413.75 362.65 414.51 362.44 414.34 361.97C413.971 360.895 413.334 359.932 412.49 359.17C411.663 358.489 410.731 357.945 409.73 357.56C408.6 357.09 407.44 356.71 406.3 356.24C404.82 355.63 403.36 354.94 401.93 354.24C396.151 351.282 390.882 347.42 386.32 342.8C385.32 341.8 384.41 340.74 383.49 339.68C382.857 338.836 382.035 338.151 381.09 337.68C380.551 337.487 379.976 337.412 379.405 337.46C378.834 337.508 378.28 337.679 377.78 337.96C376.462 338.615 375.257 339.476 374.21 340.51C373.276 341.49 372.439 342.558 371.71 343.7C371.103 344.75 370.244 345.633 369.21 346.27C368.607 346.543 367.933 346.616 367.286 346.48C366.638 346.343 366.051 346.003 365.61 345.51C364.61 344.57 364.21 343.29 363.37 342.27C363.017 341.802 362.525 341.459 361.964 341.29C361.403 341.121 360.803 341.135 360.25 341.33C359.684 341.552 359.173 341.895 358.753 342.336C358.333 342.776 358.015 343.303 357.82 343.88C357.3 345.43 357.67 347.08 357.5 348.67C357.33 350.26 356.65 351.59 356.67 353.15C356.688 353.899 356.844 354.638 357.13 355.33C357.32 355.79 358.07 355.59 357.89 355.12L357.93 355.13Z" fill="#27273D"/>
<path d="M406.39 364.2C406.001 364.949 405.699 365.741 405.49 366.56C405.313 367.401 404.973 368.199 404.49 368.91C403.84 369.69 402.49 370.28 402.3 371.34C402.251 371.696 402.345 372.057 402.56 372.345C402.775 372.634 403.095 372.826 403.45 372.88C404.364 373.019 405.297 372.951 406.18 372.68C407.983 372.257 409.729 371.619 411.38 370.78C412.127 370.446 412.792 369.955 413.33 369.34C413.812 368.706 414.153 367.976 414.33 367.2C414.557 366.255 414.694 365.291 414.74 364.32C414.883 363.498 414.753 362.652 414.37 361.91C413.57 360.79 411.7 361.18 410.58 361.45C409.738 361.606 408.936 361.93 408.221 362.402C407.506 362.875 406.894 363.486 406.42 364.2C406.15 364.63 406.83 365.03 407.09 364.6C407.887 363.402 409.122 362.565 410.53 362.27C411.011 362.137 411.503 362.047 412 362C412.512 361.899 413.043 361.969 413.51 362.2C414.11 362.61 413.95 363.71 413.92 364.33C413.874 365.23 413.746 366.123 413.54 367C413.397 367.73 413.082 368.416 412.62 369C412.089 369.528 411.461 369.949 410.77 370.24C409.432 370.886 408.036 371.405 406.6 371.79C406.13 371.92 402.92 372.79 403.06 371.56C403.11 371.12 403.77 370.66 404.06 370.39C404.477 370.074 404.853 369.708 405.18 369.3C406.18 367.92 406.18 366.1 407.04 364.63C407.31 364.15 406.63 363.76 406.39 364.2Z" fill="#27273D"/>
<path d="M357.48 354.89C357.253 355.029 357.055 355.212 356.899 355.428C356.743 355.645 356.632 355.89 356.572 356.15C356.513 356.41 356.506 356.679 356.552 356.942C356.598 357.205 356.696 357.456 356.84 357.68L356.98 357.14C356.616 357.335 356.311 357.622 356.095 357.974C355.879 358.325 355.76 358.728 355.75 359.14C355.744 359.674 355.687 360.207 355.58 360.73C355.43 361.15 355.218 361.544 354.95 361.9C354.431 362.514 354.085 363.257 353.95 364.05C353.952 364.475 354.042 364.895 354.214 365.284C354.386 365.673 354.637 366.022 354.95 366.31C355.948 367.243 357.183 367.883 358.52 368.16C360.035 368.524 361.571 368.787 363.12 368.95C367.07 369.615 370.979 370.499 374.83 371.6C379.185 372.755 383.626 373.558 388.11 374C393.082 374.488 398.1 373.974 402.87 372.49C403.35 372.33 403.15 371.57 402.67 371.73C394.5 374.46 385.67 373.36 377.49 371.47C375.33 370.97 373.18 370.47 371.03 369.88C369.15 369.4 367.27 368.88 365.35 368.52C362.59 368.05 359.58 368.05 357 366.85C356.375 366.578 355.813 366.18 355.35 365.68C355.014 365.337 354.808 364.888 354.768 364.41C354.728 363.931 354.856 363.454 355.13 363.06C355.707 362.342 356.142 361.521 356.41 360.64C356.58 359.7 356.29 358.29 357.41 357.83C357.456 357.805 357.497 357.771 357.529 357.73C357.562 357.689 357.585 357.641 357.598 357.591C357.611 357.54 357.614 357.487 357.606 357.435C357.597 357.384 357.578 357.334 357.55 357.29C357.452 357.157 357.383 357.005 357.348 356.844C357.313 356.683 357.313 356.516 357.347 356.354C357.381 356.193 357.448 356.04 357.546 355.907C357.643 355.773 357.767 355.662 357.91 355.58C357.955 355.554 357.994 355.52 358.025 355.479C358.057 355.439 358.08 355.392 358.093 355.343C358.107 355.293 358.11 355.241 358.104 355.19C358.097 355.139 358.081 355.09 358.055 355.045C358.03 355 357.995 354.961 357.955 354.93C357.914 354.898 357.867 354.875 357.818 354.862C357.768 354.848 357.716 354.845 357.665 354.851C357.614 354.858 357.565 354.874 357.52 354.9L357.48 354.89Z" fill="#27273D"/>
<path d="M357.22 355.79L362.17 357.2C363.79 357.66 365.42 358.09 367 358.66C368.547 359.241 370.059 359.909 371.53 360.66C372.944 361.364 374.392 361.994 375.87 362.55C378.898 363.643 381.995 364.535 385.14 365.22C388.37 365.95 391.61 366.68 394.87 367.22C398.524 367.94 402.285 367.92 405.93 367.16C406.42 367.05 406.21 366.29 405.72 366.41C402.429 367.11 399.032 367.164 395.72 366.57C392.51 366.07 389.32 365.34 386.15 364.63C383.025 363.973 379.943 363.129 376.92 362.1C375.413 361.563 373.934 360.949 372.49 360.26C371.08 359.57 369.7 358.84 368.25 358.26C366.54 357.603 364.794 357.045 363.02 356.59L357.42 354.99C357.37 354.976 357.318 354.972 357.267 354.979C357.215 354.985 357.166 355.001 357.121 355.027C357.076 355.053 357.036 355.087 357.004 355.128C356.972 355.168 356.949 355.215 356.935 355.265C356.921 355.315 356.918 355.367 356.924 355.418C356.93 355.47 356.947 355.519 356.972 355.564C356.998 355.609 357.032 355.649 357.073 355.681C357.114 355.713 357.16 355.736 357.21 355.75L357.22 355.79Z" fill="#27273D"/>
<path d="M362.24 356.7C361.444 355.668 360.924 354.449 360.73 353.16C360.62 351.67 362.02 351.26 363.26 351.41C364.765 351.718 366.231 352.194 367.63 352.83C369.28 353.42 370.93 353.96 372.63 354.47C379.33 356.47 386.17 358.03 392.85 360.13C396.623 361.284 400.301 362.728 403.85 364.45L404.05 363.72C396.05 363.307 388.097 362.59 380.19 361.57C377.923 361.277 375.663 360.96 373.41 360.62C372.91 360.54 372.7 361.3 373.2 361.38C381.16 362.58 389.16 363.48 397.2 364.08C399.48 364.24 401.77 364.38 404.05 364.5C404.137 364.502 404.222 364.475 404.292 364.423C404.362 364.371 404.412 364.297 404.435 364.213C404.458 364.129 404.453 364.04 404.419 363.96C404.386 363.879 404.326 363.813 404.25 363.77C397.59 360.48 390.41 358.51 383.25 356.62C379.63 355.62 376.02 354.71 372.45 353.62C370.67 353.08 368.9 352.49 367.16 351.85C365.757 351.179 364.248 350.756 362.7 350.6C362.362 350.56 362.02 350.589 361.693 350.686C361.367 350.783 361.064 350.946 360.803 351.164C360.542 351.382 360.328 351.651 360.174 351.955C360.021 352.258 359.931 352.59 359.91 352.93C360.028 354.454 360.595 355.909 361.54 357.11C361.82 357.52 362.54 357.11 362.21 356.71L362.24 356.7Z" fill="#27273D"/>
<path d="M361.5 350.66L358.27 348C358.196 347.93 358.098 347.89 357.995 347.89C357.893 347.89 357.795 347.93 357.72 348C357.647 348.075 357.606 348.175 357.606 348.28C357.606 348.385 357.647 348.485 357.72 348.56L360.94 351.24C361.015 351.313 361.116 351.354 361.22 351.354C361.325 351.354 361.426 351.313 361.5 351.24C361.573 351.167 361.614 351.068 361.614 350.965C361.614 350.862 361.573 350.763 361.5 350.69V350.66Z" fill="#27273D"/>
<path d="M387.69 344.45C386.058 344.248 384.414 344.172 382.77 344.22C381.94 344.22 381.12 344.31 380.3 344.4C379.529 344.429 378.763 344.55 378.02 344.76C377.907 344.801 377.802 344.865 377.714 344.946C377.625 345.028 377.553 345.127 377.503 345.237C377.453 345.347 377.425 345.465 377.421 345.586C377.417 345.707 377.437 345.827 377.48 345.94C377.584 346.19 377.761 346.402 377.988 346.55C378.214 346.698 378.48 346.775 378.75 346.77C379.55 346.83 380.4 346.69 381.2 346.67C382 346.65 382.87 346.67 383.71 346.67C385.628 346.722 387.542 346.889 389.44 347.17C389.93 347.24 390.14 346.49 389.65 346.41C387.904 346.149 386.145 345.982 384.38 345.91C382.6 345.84 380.84 345.97 379.06 346C378.891 346.025 378.719 346.025 378.55 346C378.31 345.93 378.03 345.69 378.38 345.52C378.822 345.389 379.28 345.319 379.74 345.31C380.62 345.19 381.5 345.11 382.39 345.07C384.16 344.995 385.932 345.065 387.69 345.28C388.19 345.34 388.18 344.56 387.69 344.5V344.45Z" fill="#27273D"/>
<path d="M384.42 344.45C384.48 344.37 384.42 344.45 384.42 344.45V344.39L384.52 344.27C384.58 344.19 384.65 344.12 384.71 344.05C384.842 343.899 384.983 343.756 385.13 343.62C385.27 343.482 385.417 343.352 385.57 343.23L385.69 343.14C385.74 343.09 385.69 343.14 385.69 343.14L385.75 343.09L386 342.91C386.05 342.888 386.095 342.855 386.132 342.815C386.169 342.774 386.196 342.726 386.213 342.674C386.23 342.621 386.236 342.566 386.23 342.512C386.224 342.457 386.207 342.405 386.179 342.357C386.152 342.31 386.114 342.269 386.07 342.237C386.025 342.205 385.975 342.182 385.921 342.171C385.867 342.16 385.812 342.161 385.758 342.173C385.705 342.184 385.654 342.207 385.61 342.24C384.877 342.741 384.232 343.359 383.7 344.07C383.673 344.114 383.656 344.162 383.648 344.213C383.641 344.264 383.644 344.315 383.657 344.365C383.67 344.414 383.693 344.461 383.725 344.501C383.756 344.541 383.795 344.575 383.84 344.6C383.929 344.651 384.035 344.665 384.134 344.639C384.233 344.613 384.318 344.548 384.37 344.46L384.42 344.45Z" fill="#27273D"/>
<path d="M383.14 346.25C382.126 347.456 381.364 348.854 380.9 350.36C380.877 350.444 380.882 350.534 380.914 350.615C380.947 350.697 381.005 350.765 381.08 350.81C381.291 350.942 381.533 351.017 381.781 351.029C382.03 351.042 382.277 350.99 382.5 350.88C382.956 350.648 383.345 350.304 383.63 349.88C384.35 348.88 385.07 347.97 385.78 347.01C385.807 346.965 385.825 346.916 385.832 346.865C385.84 346.813 385.837 346.761 385.824 346.71C385.811 346.66 385.788 346.613 385.756 346.572C385.725 346.53 385.685 346.496 385.64 346.47C385.551 346.421 385.446 346.409 385.348 346.435C385.249 346.461 385.164 346.524 385.11 346.61L383.24 349.1C382.89 349.56 382.19 350.68 381.47 350.17L381.65 350.61C382.079 349.231 382.776 347.95 383.7 346.84C383.773 346.766 383.814 346.666 383.813 346.561C383.812 346.457 383.77 346.358 383.695 346.285C383.621 346.212 383.521 346.172 383.417 346.173C383.313 346.173 383.213 346.216 383.14 346.29V346.25Z" fill="#27273D"/>
<path d="M393.38 349C391.723 348.782 390.05 348.705 388.38 348.77C387.53 348.77 386.67 348.84 385.81 348.93C385.44 348.93 385.07 349.01 384.7 349.06C384.307 349.076 383.919 349.153 383.55 349.29C383.424 349.364 383.317 349.467 383.237 349.591C383.158 349.714 383.109 349.854 383.093 350C383.078 350.145 383.096 350.293 383.148 350.43C383.199 350.567 383.282 350.691 383.39 350.79C383.9 351.33 384.76 351.16 385.39 351.13C386.97 351.05 388.54 351.05 390.11 351.13C391.898 351.161 393.681 351.308 395.45 351.57C395.95 351.65 396.16 350.9 395.66 350.82C392.979 350.423 390.269 350.256 387.56 350.32C386.9 350.32 386.24 350.32 385.56 350.32L384.7 350.37C384.508 350.4 384.312 350.4 384.12 350.37C383.94 350.32 383.7 350.13 383.93 349.98C384.229 349.878 384.544 349.827 384.86 349.83L385.91 349.71C386.66 349.63 387.42 349.59 388.17 349.57C389.816 349.498 391.465 349.561 393.1 349.76C393.6 349.83 393.81 349.08 393.31 349.01L393.38 349Z" fill="#27273D"/>
<path d="M389.23 349C389.23 348.92 389.34 348.85 389.39 348.78C389.44 348.71 389.39 348.83 389.39 348.78L389.47 348.68C389.582 348.543 389.703 348.413 389.83 348.29C389.95 348.16 390.08 348.05 390.21 347.93L390.41 347.76C390.41 347.76 390.49 347.71 390.41 347.76C390.33 347.81 390.41 347.76 390.41 347.76L390.48 347.71C390.564 347.655 390.627 347.574 390.66 347.48C390.695 347.38 390.695 347.27 390.66 347.17C390.606 347.081 390.519 347.016 390.419 346.99C390.318 346.964 390.211 346.978 390.12 347.03C389.484 347.506 388.925 348.076 388.46 348.72C388.409 348.811 388.394 348.918 388.421 349.018C388.447 349.119 388.511 349.206 388.6 349.26C388.691 349.309 388.798 349.322 388.898 349.296C388.998 349.27 389.084 349.207 389.14 349.12L389.23 349Z" fill="#27273D"/>
<path d="M388.05 350.61C387.17 351.737 386.518 353.024 386.13 354.4C386.11 354.484 386.116 354.573 386.149 354.654C386.181 354.734 386.237 354.803 386.31 354.85C386.502 354.974 386.724 355.045 386.952 355.056C387.18 355.066 387.408 355.016 387.61 354.91C388.027 354.672 388.372 354.327 388.61 353.91C389.23 353.04 389.84 352.16 390.45 351.28C390.478 351.237 390.497 351.188 390.505 351.137C390.513 351.086 390.511 351.034 390.498 350.984C390.484 350.934 390.461 350.887 390.429 350.847C390.396 350.807 390.356 350.774 390.31 350.75C390.266 350.723 390.218 350.706 390.167 350.698C390.116 350.691 390.065 350.694 390.015 350.707C389.966 350.72 389.919 350.743 389.879 350.775C389.839 350.806 389.805 350.845 389.78 350.89L388.18 353.17C387.9 353.57 387.33 354.58 386.74 354.17L386.92 354.61C387.269 353.362 387.856 352.194 388.65 351.17C388.721 351.094 388.761 350.994 388.761 350.89C388.761 350.786 388.721 350.686 388.65 350.61C388.575 350.537 388.475 350.496 388.37 350.496C388.265 350.496 388.165 350.537 388.09 350.61H388.05Z" fill="#27273D"/>
<path d="M399.55 352.86C397.935 352.703 396.312 352.647 394.69 352.69C393.067 352.698 391.446 352.822 389.84 353.06C389.21 353.17 388.65 353.65 389.03 354.34C389.41 355.03 390.34 354.9 391.03 354.86C392.65 354.77 394.28 354.75 395.91 354.78C397.752 354.78 399.592 354.89 401.42 355.11C401.92 355.17 401.91 354.39 401.42 354.32C398.589 353.993 395.737 353.886 392.89 354L390.89 354.09C390.63 354.09 390.02 354.24 389.81 354.09C389.6 353.94 389.86 353.91 390.01 353.88C390.195 353.843 390.382 353.816 390.57 353.8C391.99 353.622 393.419 353.528 394.85 353.52C396.422 353.482 397.995 353.538 399.56 353.69C400.06 353.75 400.06 352.96 399.56 352.91L399.55 352.86Z" fill="#27273D"/>
<path d="M395 353.06C395.216 352.803 395.45 352.562 395.7 352.34L395.88 352.18L395.99 352.1C396.131 351.991 396.278 351.891 396.43 351.8C396.517 351.744 396.58 351.658 396.606 351.557C396.632 351.457 396.619 351.351 396.57 351.26C396.515 351.173 396.428 351.11 396.328 351.084C396.228 351.058 396.121 351.071 396.03 351.12C395.422 351.505 394.879 351.985 394.42 352.54C394.347 352.615 394.304 352.715 394.3 352.82C394.304 352.922 394.347 353.019 394.42 353.09C394.456 353.127 394.498 353.157 394.546 353.177C394.593 353.197 394.644 353.208 394.695 353.208C394.747 353.208 394.798 353.197 394.845 353.177C394.892 353.157 394.935 353.127 394.97 353.09L395 353.06Z" fill="#27273D"/>
<path d="M393.84 354.33C392.953 355.292 392.272 356.425 391.84 357.66C391.817 357.743 391.823 357.831 391.855 357.911C391.888 357.99 391.946 358.057 392.02 358.1C392.204 358.209 392.412 358.273 392.626 358.285C392.84 358.297 393.054 358.258 393.25 358.17C393.648 357.996 393.993 357.72 394.25 357.37L396.12 355.07C396.191 354.994 396.231 354.894 396.231 354.79C396.231 354.686 396.191 354.586 396.12 354.51C396.045 354.437 395.945 354.396 395.84 354.396C395.735 354.396 395.635 354.437 395.56 354.51L393.91 356.51C393.61 356.88 393.02 357.76 392.44 357.38L392.62 357.83C392.995 356.72 393.594 355.699 394.38 354.83C394.72 354.46 394.16 353.9 393.82 354.28L393.84 354.33Z" fill="#27273D"/>
<path d="M363.07 357.07C363.034 357.069 362.999 357.06 362.968 357.042C362.937 357.025 362.91 357 362.89 356.97C362.89 356.97 362.68 356.59 362.45 356.07C362.432 356.022 362.433 355.969 362.451 355.921C362.469 355.873 362.505 355.834 362.55 355.81C362.598 355.79 362.652 355.789 362.701 355.807C362.749 355.826 362.788 355.863 362.81 355.91C362.934 356.206 363.078 356.493 363.24 356.77C363.265 356.816 363.271 356.871 363.256 356.921C363.241 356.972 363.207 357.015 363.16 357.04L363.07 357.07Z" fill="#27273D"/>
<path d="M400.85 363.61H400.8L398.88 363.11C398.855 363.104 398.831 363.093 398.81 363.078C398.789 363.062 398.771 363.043 398.758 363.02C398.745 362.998 398.736 362.973 398.733 362.947C398.73 362.921 398.733 362.895 398.74 362.87C398.754 362.82 398.787 362.778 398.832 362.752C398.877 362.725 398.93 362.718 398.98 362.73L400.9 363.23C400.95 363.244 400.992 363.277 401.019 363.322C401.045 363.366 401.052 363.42 401.04 363.47C401.029 363.511 401.004 363.548 400.969 363.573C400.935 363.598 400.893 363.611 400.85 363.61V363.61ZM397.01 362.61H397L395.08 362.09C395.055 362.084 395.031 362.073 395.01 362.058C394.989 362.042 394.971 362.023 394.958 362C394.945 361.978 394.936 361.953 394.933 361.927C394.93 361.901 394.933 361.875 394.94 361.85C394.956 361.801 394.989 361.76 395.034 361.735C395.078 361.709 395.13 361.7 395.18 361.71L397.1 362.23C397.149 362.246 397.19 362.279 397.215 362.324C397.241 362.368 397.25 362.42 397.24 362.47C397.224 362.518 397.19 362.558 397.146 362.582C397.101 362.606 397.049 362.613 397 362.6L397.01 362.61ZM393.18 361.56H393.12L392.87 361.48C392.6 361.39 392.07 361.25 391.21 361.04C391.181 361.038 391.152 361.029 391.126 361.015C391.101 361.001 391.078 360.981 391.061 360.957C391.044 360.933 391.033 360.906 391.027 360.877C391.022 360.848 391.023 360.818 391.03 360.79C391.038 360.761 391.052 360.735 391.071 360.712C391.089 360.69 391.113 360.671 391.14 360.659C391.166 360.647 391.196 360.64 391.225 360.64C391.254 360.641 391.283 360.647 391.31 360.66C392.17 360.87 392.71 361.01 392.99 361.1L393.24 361.18C393.29 361.196 393.332 361.231 393.357 361.278C393.381 361.325 393.386 361.38 393.37 361.43C393.353 361.466 393.326 361.496 393.292 361.518C393.259 361.539 393.22 361.55 393.18 361.55V361.56ZM389.33 360.56H389.28L387.35 360.1C387.325 360.095 387.301 360.085 387.279 360.071C387.258 360.057 387.24 360.039 387.226 360.017C387.212 359.996 387.202 359.971 387.198 359.946C387.193 359.921 387.194 359.895 387.2 359.87C387.206 359.844 387.217 359.82 387.232 359.799C387.247 359.777 387.267 359.759 387.289 359.745C387.311 359.731 387.336 359.722 387.362 359.718C387.388 359.713 387.414 359.714 387.44 359.72L389.37 360.18C389.42 360.18 389.469 360.2 389.504 360.236C389.54 360.271 389.56 360.32 389.56 360.37C389.56 360.42 389.54 360.469 389.504 360.504C389.469 360.54 389.42 360.56 389.37 360.56H389.33ZM385.46 359.65L383.53 359.19C383.505 359.184 383.481 359.173 383.46 359.158C383.439 359.143 383.421 359.123 383.408 359.1C383.395 359.078 383.386 359.053 383.383 359.027C383.38 359.001 383.383 358.975 383.39 358.95C383.396 358.926 383.407 358.903 383.421 358.883C383.436 358.862 383.455 358.845 383.476 358.832C383.497 358.819 383.521 358.811 383.546 358.807C383.571 358.803 383.596 358.804 383.62 358.81L385.55 359.27C385.6 359.27 385.649 359.29 385.684 359.326C385.72 359.361 385.74 359.41 385.74 359.46C385.74 359.51 385.72 359.559 385.684 359.594C385.649 359.63 385.6 359.65 385.55 359.65H385.46ZM381.6 358.72H381.55L379.62 358.23C379.595 358.224 379.571 358.213 379.55 358.198C379.529 358.182 379.511 358.163 379.498 358.14C379.485 358.118 379.476 358.093 379.473 358.067C379.47 358.041 379.473 358.015 379.48 357.99C379.496 357.941 379.529 357.9 379.574 357.875C379.618 357.849 379.67 357.84 379.72 357.85L381.64 358.34C381.665 358.345 381.689 358.354 381.711 358.369C381.732 358.383 381.75 358.401 381.764 358.423C381.778 358.444 381.788 358.469 381.792 358.494C381.797 358.519 381.796 358.545 381.79 358.57C381.778 358.612 381.753 358.648 381.719 358.675C381.685 358.702 381.643 358.718 381.6 358.72V358.72ZM377.75 357.72H377.7C377.01 357.54 376.37 357.35 375.78 357.18C375.731 357.162 375.691 357.126 375.667 357.08C375.643 357.034 375.637 356.98 375.65 356.93C375.666 356.88 375.701 356.838 375.748 356.813C375.795 356.789 375.85 356.784 375.9 356.8C376.48 356.98 377.12 357.16 377.8 357.35C377.825 357.356 377.849 357.367 377.87 357.382C377.891 357.397 377.909 357.417 377.922 357.44C377.935 357.462 377.944 357.487 377.947 357.513C377.95 357.539 377.948 357.565 377.94 357.59C377.927 357.63 377.902 357.666 377.868 357.691C377.834 357.716 377.792 357.73 377.75 357.73V357.72ZM373.95 356.55H373.88L373.43 356.37L372.05 355.77C372.026 355.76 372.004 355.746 371.985 355.727C371.967 355.708 371.953 355.686 371.943 355.662C371.934 355.637 371.93 355.611 371.931 355.585C371.932 355.559 371.939 355.533 371.95 355.51C371.96 355.487 371.974 355.466 371.992 355.449C372.01 355.431 372.031 355.417 372.054 355.408C372.078 355.399 372.102 355.394 372.127 355.394C372.152 355.395 372.177 355.4 372.2 355.41L373.58 356.01L374.02 356.19C374.068 356.208 374.108 356.244 374.13 356.291C374.153 356.337 374.156 356.391 374.14 356.44C374.127 356.469 374.108 356.495 374.084 356.516C374.06 356.537 374.031 356.552 374 356.56L373.95 356.55ZM370.3 355H370.22L368.39 354.25C368.366 354.241 368.344 354.228 368.326 354.21C368.307 354.193 368.292 354.172 368.282 354.148C368.272 354.125 368.266 354.1 368.266 354.074C368.266 354.049 368.27 354.024 368.28 354C368.3 353.951 368.339 353.912 368.387 353.891C368.436 353.871 368.491 353.87 368.54 353.89C369.15 354.13 369.77 354.38 370.38 354.64C370.42 354.659 370.453 354.692 370.473 354.732C370.492 354.772 370.498 354.818 370.489 354.861C370.48 354.905 370.456 354.944 370.422 354.973C370.388 355.002 370.345 355.018 370.3 355.02V355ZM362.01 354.31C361.963 354.31 361.917 354.293 361.882 354.262C361.847 354.23 361.825 354.187 361.82 354.14C361.79 353.972 361.773 353.801 361.77 353.63C361.747 353.405 361.786 353.178 361.883 352.973C361.98 352.769 362.131 352.595 362.32 352.47C362.443 352.398 362.579 352.351 362.72 352.33C362.772 352.321 362.825 352.333 362.868 352.363C362.911 352.393 362.94 352.438 362.95 352.49C362.956 352.541 362.944 352.593 362.914 352.636C362.884 352.678 362.84 352.708 362.79 352.72C362.695 352.727 362.603 352.754 362.52 352.8C362.393 352.895 362.294 353.022 362.232 353.167C362.171 353.313 362.149 353.473 362.17 353.63C362.156 353.78 362.156 353.93 362.17 354.08C362.176 354.133 362.162 354.186 362.13 354.228C362.099 354.271 362.052 354.3 362 354.31H362.01ZM366.61 353.55H366.54C365.83 353.29 365.19 353.1 364.66 352.96C364.61 352.946 364.568 352.913 364.542 352.868C364.515 352.823 364.508 352.77 364.52 352.72C364.534 352.67 364.567 352.628 364.612 352.602C364.657 352.575 364.71 352.568 364.76 352.58C365.3 352.72 365.95 352.92 366.67 353.18C366.695 353.188 366.718 353.201 366.737 353.218C366.757 353.235 366.773 353.256 366.784 353.279C366.795 353.302 366.802 353.328 366.803 353.354C366.804 353.38 366.799 353.406 366.79 353.43C366.776 353.466 366.751 353.497 366.719 353.518C366.687 353.54 366.649 353.551 366.61 353.55V353.55Z" fill="#27273D"/>
<path d="M403.67 364.33H403.62L402.67 364.09C402.645 364.084 402.621 364.073 402.6 364.058C402.579 364.042 402.561 364.023 402.548 364C402.535 363.978 402.526 363.953 402.523 363.927C402.52 363.901 402.523 363.875 402.53 363.85C402.544 363.8 402.577 363.758 402.622 363.731C402.667 363.705 402.72 363.698 402.77 363.71L403.77 363.95C403.82 363.964 403.862 363.997 403.888 364.042C403.915 364.086 403.922 364.14 403.91 364.19C403.904 364.215 403.893 364.239 403.878 364.26C403.863 364.281 403.843 364.299 403.82 364.312C403.798 364.325 403.773 364.334 403.747 364.337C403.721 364.34 403.695 364.337 403.67 364.33V364.33Z" fill="#27273D"/>
<path d="M359.24 354.91C359.198 354.91 359.157 354.896 359.122 354.871C359.088 354.846 359.063 354.81 359.05 354.77C358.879 354.199 358.788 353.606 358.78 353.01C358.775 352.93 358.775 352.85 358.78 352.77C358.778 352.744 358.782 352.718 358.792 352.694C358.802 352.67 358.817 352.648 358.836 352.631C358.855 352.614 358.878 352.601 358.903 352.594C358.928 352.587 358.955 352.585 358.98 352.59C359.032 352.593 359.08 352.615 359.115 352.652C359.151 352.689 359.17 352.739 359.17 352.79C359.17 352.86 359.17 352.94 359.17 353.01C359.18 353.569 359.268 354.125 359.43 354.66C359.446 354.71 359.441 354.765 359.417 354.812C359.392 354.859 359.351 354.894 359.3 354.91H359.24ZM359.08 351.22C359.044 351.23 359.006 351.23 358.97 351.22C358.445 350.782 357.99 350.266 357.62 349.69C357.594 349.646 357.585 349.593 357.596 349.543C357.607 349.493 357.637 349.449 357.68 349.42C357.701 349.405 357.725 349.394 357.75 349.389C357.775 349.383 357.801 349.383 357.826 349.387C357.851 349.392 357.875 349.402 357.897 349.416C357.918 349.43 357.936 349.449 357.95 349.47C358.285 350.003 358.7 350.482 359.18 350.89C359.203 350.903 359.222 350.921 359.237 350.942C359.252 350.963 359.263 350.987 359.269 351.012C359.274 351.037 359.275 351.064 359.27 351.089C359.265 351.114 359.255 351.139 359.24 351.16C359.221 351.182 359.196 351.2 359.168 351.21C359.14 351.221 359.11 351.224 359.08 351.22V351.22Z" fill="#27273D"/>
<path d="M511.16 98.68C511.16 98.68 564.4 60.83 571.28 59.61C578.16 58.39 576.34 64.88 564.2 74.19C552.06 83.5 512.58 113.26 505.29 111.84C498 110.42 503.87 103.74 511.16 98.68Z" fill="url(#paint2_linear_2650_90672)"/>
<path d="M505.91 112.89C505.638 112.89 505.366 112.86 505.1 112.8C502.74 112.34 501.37 111.32 501.04 109.8C500.17 105.68 507.43 100.13 510.6 97.93C510.9 97.71 524.16 88.29 538.09 78.84C566.6 59.49 570 58.84 571.09 58.7C574.35 58.12 575.56 59.2 576 60.2C577.28 63.11 573.08 68.65 564.77 75.02C558.26 80.02 545.52 89.63 533.45 97.9C513.74 111.37 508 112.89 505.91 112.89ZM572.79 60.45C572.34 60.4542 571.892 60.4977 571.45 60.58C565.98 61.58 526.45 88.99 511.73 99.48C506.16 103.34 502.56 107.4 502.97 109.33C503.16 110.24 504.44 110.67 505.49 110.87C510.04 111.74 532.31 97.4 563.61 73.4C572.39 66.67 574.78 62.18 574.23 60.93C574.08 60.62 573.56 60.45 572.79 60.45Z" fill="#313B47"/>
<path d="M586.22 73C586.22 73 583.96 75.78 581.64 75.88C579.32 75.98 572.53 70.43 567.74 62.5C562.95 54.57 561.92 50.45 563.67 48.7C564.992 47.536 566.572 46.703 568.28 46.27C568.28 46.27 566.81 40.35 573.66 34.9C580.51 29.45 586 31.45 586 31.45C586 31.45 591.81 25.06 598.2 26.81C600.086 27.3734 601.8 28.4011 603.185 29.7988C604.571 31.1965 605.583 32.9195 606.13 34.81C606.13 34.81 609.43 36.05 610.45 38.68C611.066 39.9385 611.266 41.3605 611.02 42.74C611.968 43.1026 612.821 43.6765 613.514 44.4181C614.207 45.1597 614.722 46.0496 615.02 47.02C615.79 50.16 615.02 51.55 615.02 51.55C615.02 51.55 620.89 52.27 619.29 58.14C617.69 64.01 598.13 72.87 593.96 74.14C592.66 74.4799 591.304 74.5542 589.974 74.3583C588.644 74.1625 587.367 73.7005 586.22 73V73Z" fill="#DFF2F9"/>
<path d="M593.3 51.46C593.724 53.0224 593.828 54.6545 593.604 56.2579C593.381 57.8613 592.835 59.4029 592 60.79C590.237 63.5728 587.812 65.8748 584.94 67.49C584.94 67.49 596.08 67.36 604.01 61.49C604.01 61.49 602.42 61.49 602.24 60.18C602.204 58.8107 602.325 57.4418 602.6 56.1C602.6 56.1 601.7 56.55 599.6 54.74C598.166 53.3199 597.042 51.6173 596.3 49.74L595.89 48.25C595.424 49.587 594.509 50.7213 593.3 51.46V51.46Z" fill="#B2C9EA"/>
<path d="M582.12 77.22C581.468 77.2127 580.822 77.0943 580.21 76.87C577.47 75.87 571.81 72.5 564.65 60.54C560.82 54.14 561.49 50.39 562.72 48.37C563.298 47.441 564.115 46.6856 565.087 46.1839C566.059 45.6821 567.149 45.4527 568.24 45.52C568.402 45.5196 568.562 45.5523 568.71 45.6162C568.859 45.6801 568.992 45.7738 569.103 45.8914C569.214 46.0091 569.299 46.1483 569.354 46.3003C569.409 46.4523 569.431 46.6139 569.421 46.7752C569.411 46.9364 569.368 47.0938 569.294 47.2376C569.22 47.3814 569.118 47.5086 568.993 47.6113C568.868 47.7139 568.724 47.7898 568.569 47.8343C568.413 47.8788 568.25 47.891 568.09 47.87C567.427 47.8308 566.765 47.9708 566.173 48.2751C565.582 48.5794 565.084 49.037 564.73 49.6C563.47 51.67 564.16 55.13 566.67 59.33C573.7 71.08 579 74 581 74.66C583.68 75.6 585.06 72.9 585.12 72.78C585.277 72.5444 585.514 72.3731 585.787 72.2976C586.06 72.2221 586.351 72.2473 586.607 72.3686C586.863 72.4899 587.067 72.6992 587.181 72.9584C587.296 73.2175 587.313 73.5091 587.23 73.78C586.769 74.7617 586.05 75.6001 585.15 76.2058C584.251 76.8116 583.203 77.1621 582.12 77.22V77.22Z" fill="#3C3C3B"/>
<path d="M571.001 53.08C570.735 53.0757 570.479 52.9843 570.271 52.82C568.681 51.4457 567.562 49.6086 567.068 47.5661C566.575 45.5237 566.733 43.3781 567.521 41.43C569.526 36.8378 573.211 33.1855 577.821 31.22C579.31 30.5174 580.929 30.1291 582.575 30.0792C584.222 30.0293 585.861 30.3189 587.391 30.93C590.391 32.26 594.901 38.68 596.391 43.93C597.201 46.78 597.091 48.99 596.051 50.5C595.539 51.2872 594.808 51.9069 593.948 52.2821C593.087 52.6572 592.135 52.7712 591.211 52.61C587.971 52.14 584.401 48.92 583.211 45.43C583.112 45.1343 583.136 44.8117 583.276 44.5332C583.415 44.2547 583.66 44.0431 583.956 43.945C584.251 43.8469 584.574 43.8702 584.852 44.0099C585.131 44.1496 585.342 44.3943 585.441 44.69C586.291 47.28 589.181 49.95 591.501 50.28C591.991 50.3765 592.498 50.3209 592.956 50.1207C593.413 49.9206 593.799 49.5853 594.061 49.16C594.671 48.29 594.671 46.66 594.061 44.57C592.691 39.8 588.571 34.08 586.371 33.12C585.13 32.6466 583.807 32.4291 582.48 32.4806C581.153 32.5322 579.851 32.8517 578.651 33.42C574.643 35.1468 571.431 38.3162 569.651 42.3C569.033 43.7805 568.893 45.4171 569.252 46.9808C569.611 48.5444 570.449 49.9567 571.651 51.02C571.838 51.1746 571.973 51.3832 572.037 51.6174C572.102 51.8516 572.092 52.1 572.01 52.3285C571.928 52.5571 571.777 52.7549 571.579 52.8947C571.38 53.0346 571.143 53.1097 570.901 53.11L571.001 53.08Z" fill="#3C3C3B"/>
<path d="M606.351 36.59C606.061 36.5893 605.781 36.4819 605.565 36.2882C605.349 36.0945 605.213 35.8282 605.181 35.54C605.04 34.5758 604.708 33.6494 604.205 32.8149C603.702 31.9805 603.037 31.2547 602.251 30.68C600.064 28.9194 597.29 28.0544 594.491 28.26C591.722 28.7434 589.208 30.1753 587.381 32.31C587.187 32.554 586.904 32.7111 586.595 32.7467C586.285 32.7823 585.975 32.6936 585.731 32.5C585.487 32.3064 585.329 32.0238 585.294 31.7143C585.258 31.4049 585.347 31.094 585.541 30.85C587.746 28.2266 590.818 26.4809 594.201 25.93C597.624 25.6516 601.025 26.6887 603.711 28.83C604.748 29.5947 605.62 30.5611 606.275 31.6712C606.929 32.7813 607.353 34.0121 607.521 35.29C607.552 35.5924 607.466 35.8954 607.28 36.1358C607.093 36.3761 606.821 36.5353 606.521 36.58L606.351 36.59Z" fill="#3C3C3B"/>
<path d="M611.05 44.54C610.896 44.5392 610.743 44.5086 610.6 44.45C610.458 44.3918 610.328 44.3061 610.218 44.1976C610.109 44.0891 610.022 43.9601 609.963 43.818C609.903 43.6758 609.872 43.5233 609.872 43.3692C609.872 43.2151 609.902 43.0624 609.96 42.92C610.188 41.665 609.968 40.3701 609.34 39.26C608.815 38.3857 608.097 37.643 607.241 37.0885C606.385 36.5339 605.413 36.1821 604.4 36.06C598.4 34.92 594.73 39.8 594.57 40.01C594.48 40.1347 594.366 40.2404 594.234 40.321C594.103 40.4016 593.957 40.4555 593.804 40.4796C593.652 40.5038 593.496 40.4977 593.347 40.4617C593.197 40.4257 593.055 40.3606 592.93 40.27C592.806 40.1794 592.7 40.0651 592.619 39.9336C592.539 39.8022 592.485 39.6561 592.461 39.5038C592.437 39.3515 592.443 39.196 592.479 39.046C592.515 38.8961 592.58 38.7547 592.67 38.63C592.85 38.37 597.31 32.33 604.83 33.75C606.193 33.9271 607.496 34.4175 608.638 35.1826C609.78 35.9477 610.729 36.9668 611.41 38.16C612.389 39.8733 612.652 41.9041 612.14 43.81C612.051 44.0259 611.9 44.2105 611.706 44.3404C611.512 44.4704 611.284 44.5398 611.05 44.54V44.54Z" fill="#3C3C3B"/>
<path d="M601.29 57.13C601.19 57.1397 601.09 57.1397 600.99 57.13C598.62 56.5 594.41 53.92 595.51 48.59C596.03 46.03 598.29 43.87 601.7 42.67C605.47 41.33 610.83 41.25 613.7 43.67C617.59 46.87 616.7 50.67 615.76 52.29C615.681 52.4273 615.575 52.5473 615.448 52.6427C615.322 52.7382 615.177 52.8072 615.023 52.8456C614.87 52.884 614.71 52.891 614.553 52.8662C614.397 52.8414 614.247 52.7854 614.112 52.7014C613.978 52.6173 613.862 52.5071 613.771 52.3772C613.68 52.2474 613.616 52.1005 613.583 51.9455C613.55 51.7904 613.549 51.6303 613.579 51.4748C613.61 51.3192 613.671 51.1713 613.76 51.04C613.93 50.75 615.38 48.11 612.2 45.48C610.2 43.87 606.04 43.62 602.42 44.9C599.81 45.82 598.11 47.34 597.75 49.08C596.83 53.57 601.33 54.81 601.53 54.86C601.806 54.9338 602.046 55.1054 602.205 55.3429C602.365 55.5805 602.432 55.8677 602.396 56.1513C602.359 56.4349 602.22 56.6955 602.006 56.8848C601.792 57.074 601.516 57.1789 601.23 57.18L601.29 57.13Z" fill="#3C3C3B"/>
<path d="M591 76.24C586.22 76.24 583.22 72.08 582.2 69.47C582.129 69.3236 582.089 69.1642 582.082 69.0016C582.075 68.839 582.103 68.6768 582.162 68.5252C582.221 68.3737 582.311 68.236 582.426 68.1208C582.541 68.0056 582.678 67.9154 582.83 67.856C582.981 67.7965 583.143 67.769 583.306 67.7752C583.469 67.7814 583.628 67.8211 583.775 67.8919C583.921 67.9627 584.051 68.0631 584.157 68.1867C584.263 68.3102 584.342 68.4544 584.39 68.61C584.5 68.89 587.19 75.54 593.26 73.49C599.1 71.49 610.2 65.69 614.08 62.56C616.78 60.38 618.24 57.78 617.9 55.77C617.727 55.0888 617.373 54.4667 616.877 53.9688C616.381 53.4709 615.76 53.1156 615.08 52.94C612.3 51.94 608 52.85 605.3 54.99C604.43 55.68 602.99 57.12 603.19 58.93C603.212 59.3223 603.32 59.7049 603.506 60.0507C603.693 60.3964 603.954 60.6966 604.27 60.93C605.69 61.93 608.27 61.64 609.13 61.44C609.423 61.3946 609.723 61.4615 609.969 61.6275C610.216 61.7935 610.39 62.0462 610.459 62.3353C610.527 62.6244 610.483 62.9286 610.337 63.1871C610.191 63.4456 609.953 63.6395 609.67 63.73C609.5 63.73 605.5 64.73 602.92 62.85C602.327 62.4247 601.835 61.8749 601.477 61.2392C601.12 60.6035 600.905 59.8973 600.85 59.17C600.61 56.99 601.67 54.85 603.85 53.17C607.18 50.54 612.35 49.49 615.85 50.75C616.933 51.0521 617.912 51.6468 618.679 52.4689C619.447 53.291 619.973 54.3086 620.2 55.41C620.69 58.3 618.95 61.66 615.54 64.41C611.42 67.73 600.14 73.67 593.99 75.74C593.027 76.0675 592.017 76.2364 591 76.24Z" fill="#3C3C3B"/>
<path d="M589.93 64C589.69 63.999 589.456 63.9249 589.26 63.7876C589.063 63.6503 588.913 63.4563 588.829 63.2314C588.745 63.0065 588.732 62.7615 588.791 62.529C588.85 62.2965 588.979 62.0875 589.16 61.93C590.668 60.7342 591.772 59.104 592.323 57.2599C592.874 55.4158 592.845 53.447 592.24 51.62C592.125 51.3308 592.128 51.0077 592.25 50.7211C592.372 50.4345 592.602 50.2076 592.89 50.09C593.033 50.0301 593.186 49.9994 593.341 49.9997C593.496 50.0001 593.65 50.0315 593.792 50.0921C593.935 50.1527 594.064 50.2412 594.172 50.3525C594.28 50.4638 594.364 50.5955 594.42 50.74C595.202 53.0265 595.266 55.4977 594.603 57.8215C593.94 60.1454 592.581 62.2107 590.71 63.74C590.488 63.9143 590.212 64.0062 589.93 64Z" fill="#3C3C3B"/>
<path d="M451.83 273.05C451.83 273.05 485.39 221.41 488.18 215.93C490.97 210.45 480.49 210.45 480.49 210.45C480.49 210.45 473.18 206.51 476.64 201.31C480.1 196.11 497.3 200.58 502.22 205.74C508.73 212.55 467.02 269.4 459.81 276.42C452.6 283.44 448.46 277.77 451.83 273.05Z" fill="url(#paint3_linear_2650_90672)"/>
<path d="M453.71 280.69C452.746 280.714 451.806 280.383 451.07 279.76C449.22 278.18 449.2 275.06 451.02 272.5C451.79 271.31 484.59 220.82 487.31 215.5C487.93 214.27 487.59 213.7 487.47 213.5C486.55 212 482.7 211.44 480.47 211.44H480.22L480 211.32C479.83 211.23 475.75 208.99 474.87 205.48C474.679 204.676 474.663 203.84 474.823 203.029C474.984 202.218 475.317 201.451 475.8 200.78C476.8 199.24 478.8 198.34 481.57 198.09C488.28 197.51 499.05 201.03 502.91 205.09C504.78 207.04 503.91 211.5 500.22 219.09C496.282 226.839 491.867 234.337 487 241.54C476.83 256.96 464.41 273.33 460.51 277.12C457.82 279.73 455.5 280.69 453.71 280.69ZM480.71 209.47C482.09 209.47 487.45 209.78 489.1 212.47C489.441 213.067 489.613 213.745 489.597 214.432C489.581 215.12 489.379 215.79 489.01 216.37C486.23 221.84 454.01 271.48 452.61 273.59C451.2 275.59 451.41 277.46 452.32 278.25C453.23 279.04 455.73 278.97 459.11 275.69C462.49 272.41 474.54 256.78 485.32 240.43C499.99 218.2 503.32 208.27 501.49 206.38C498.02 202.75 487.87 199.47 481.74 200.01C480.24 200.14 478.28 200.56 477.44 201.83C477.104 202.272 476.871 202.782 476.756 203.326C476.642 203.869 476.65 204.43 476.78 204.97C477.32 207.08 479.66 208.83 480.75 209.47H480.71Z" fill="#313B47"/>
<path d="M461.33 303C466.278 306.72 471.829 309.561 477.74 311.4C478.035 311.251 478.316 311.077 478.58 310.88C479.157 310.375 479.702 309.834 480.21 309.26L475.91 296.04L440.91 281.55C440.91 281.55 439.91 281.81 440.18 283.4C439.776 283.444 439.395 283.61 439.087 283.877C438.78 284.143 438.561 284.496 438.46 284.89C442.66 289.89 448.69 293.07 453.91 297.04C456.43 299 458.79 301.13 461.33 303Z" fill="#939286"/>
<path d="M477.74 311.44C471.829 309.601 466.278 306.76 461.33 303.04C458.79 301.13 456.43 299.04 453.9 297.04C448.68 293.04 442.65 289.87 438.45 284.89L438.39 285.06C437.954 286.094 437.159 286.936 436.15 287.43C438.036 289.66 440.223 291.616 442.65 293.24C445.72 295.38 448.99 297.24 452.01 299.43C454.06 300.93 456.01 302.59 458.01 304.09C463.384 308.003 469.514 310.752 476.01 312.16C476.5 312 477.17 311.74 477.74 311.44Z" fill="#E5E4C8"/>
<path d="M458 304.13C455.95 302.63 454 300.97 452 299.47C449 297.27 445.71 295.42 442.64 293.28C440.213 291.656 438.025 289.7 436.14 287.47C435.951 287.563 435.773 287.677 435.61 287.81C435.4 288.05 433.78 289.69 437.06 292.7C440.34 295.71 445.35 297.1 450.6 301.8C455.85 306.5 466.26 311.44 470.54 312.14C474.82 312.84 475.7 312.35 475.7 312.35L476.08 312.2C469.556 310.802 463.397 308.053 458 304.13V304.13Z" fill="white"/>
<path d="M446.7 271.15C445.455 272.318 444.591 273.834 444.22 275.5C443.92 277.84 442.22 275.87 441.31 281.57C441.31 281.57 451.52 289.44 454.01 293.27C456.5 297.1 465.75 301.49 470.43 305.39C473.28 307.725 476.878 308.95 480.56 308.84C480.56 308.84 482.85 305.65 486.03 306.51C489.21 307.37 489.21 308.01 489.21 308.01C489.21 308.01 489.86 305.68 485.21 301.28C481.293 297.398 477.822 293.092 474.86 288.44C473.79 286.55 469.75 276.74 469.16 275.82C468.57 274.9 467.91 271.73 461.26 274.95C454.61 278.17 452.12 279.95 451.26 274.55C450.65 271 451.68 269.43 446.7 271.15Z" fill="#999698"/>
<path d="M485.15 306.37C482.2 306.37 482.03 306.62 480.56 308.84C479.09 311.06 476.96 310.96 476.09 312.2C475.22 313.44 476.35 314.32 479.69 314.4C483.03 314.48 485.43 315.33 487.52 312.19C489.61 309.05 490.51 306.43 485.15 306.37Z" fill="#575756"/>
<path d="M444.05 275.78L445.95 279.5C445.95 279.5 447.78 278.91 450.68 282.11C453.58 285.31 463.68 292.27 464.97 293.43C466.26 294.59 474.08 300.57 474.97 301.58C475.86 302.59 479.61 306.16 479.61 306.16C479.61 306.16 466.76 300.01 462.35 297.55C457.94 295.09 452.99 292.39 452.99 292.39C452.99 292.39 450.57 287.89 440.86 281.59C441.421 279.417 442.518 277.419 444.05 275.78V275.78Z" fill="#D9D7DA"/>
<path d="M468.81 281.63C468.81 281.63 463.31 279.77 462.81 280.31C462.31 280.85 465.32 282.31 467.06 282.65C468.8 282.99 464.96 284.55 464.49 285.04C464.02 285.53 463.95 286.93 466.91 285.23C469.87 283.53 469.72 283.85 469.72 283.85L473.72 285.69L472.43 283.09L470.91 280.55L468.81 281.63Z" fill="#D9D7DA"/>
<path d="M471.84 287.43C471.84 287.43 466.67 285.71 466.21 286.25C465.75 286.79 468.54 288.17 470.21 288.49C471.88 288.81 468.21 290.42 467.73 290.91C467.25 291.4 467.18 292.8 470.02 291.04C472.86 289.28 472.27 289.41 472.27 289.41L476.44 291.36L475.27 288.8L473.89 286.32L471.84 287.43Z" fill="#D9D7DA"/>
<path d="M475.61 292.71C475.61 292.71 470.66 291.07 470.22 291.59C469.78 292.11 472.45 293.44 474.02 293.73C475.59 294.02 472.07 295.6 471.64 296.07C471.21 296.54 471.1 297.89 473.82 296.2C476.54 294.51 476.41 294.81 476.41 294.81L479.98 296.48L478.86 294L477.55 291.61L475.61 292.71Z" fill="#D9D7DA"/>
<path d="M441.7 281.57C441.731 280.295 442.173 279.064 442.96 278.06C443.32 277.55 443.73 277.06 444.07 276.54C444.407 275.997 444.685 275.421 444.9 274.82C445.35 273.65 445.76 272.29 446.83 271.54C447.257 271.176 447.794 270.967 448.354 270.945C448.915 270.923 449.466 271.09 449.92 271.42C450.83 272.29 450.66 273.84 450.92 274.97C451.14 276.087 451.728 277.097 452.59 277.84C454.84 279.6 457.44 277.76 459.38 276.47C460.566 275.663 461.872 275.048 463.25 274.65C464.487 274.206 465.821 274.106 467.11 274.36C468.93 274.93 469.29 277.26 469.85 278.81C472.941 287.167 477.865 294.725 484.26 300.93C485.88 302.47 488 303.93 488.61 306.21C488.758 306.798 488.822 307.404 488.8 308.01C488.8 308.51 489.57 308.51 489.58 308.01C489.63 306.835 489.364 305.668 488.81 304.63C488.2 303.637 487.441 302.743 486.56 301.98C484.41 300.023 482.386 297.932 480.5 295.72C476.449 290.85 473.214 285.355 470.92 279.45C470.53 278.45 470.23 277.34 469.82 276.31C469.528 275.455 469.01 274.694 468.32 274.11C467.438 273.524 466.364 273.298 465.32 273.48C463.88 273.626 462.472 274.001 461.15 274.59C459.84 275.265 458.574 276.023 457.36 276.86C456.18 277.56 454.72 278.19 453.41 277.45C452.905 277.094 452.482 276.634 452.17 276.101C451.858 275.568 451.663 274.975 451.6 274.36C451.37 273.15 451.41 271.79 450.46 270.86C450.042 270.506 449.535 270.273 448.994 270.186C448.452 270.1 447.898 270.163 447.39 270.37C446.275 270.801 445.376 271.657 444.89 272.75C444.437 274.01 443.875 275.228 443.21 276.39C442.394 277.36 441.721 278.44 441.21 279.6C440.984 280.242 440.879 280.92 440.9 281.6C440.9 281.703 440.941 281.803 441.014 281.876C441.088 281.949 441.187 281.99 441.29 281.99C441.394 281.99 441.493 281.949 441.566 281.876C441.639 281.803 441.68 281.703 441.68 281.6L441.7 281.57Z" fill="#27273D"/>
<path d="M481.62 307.16C480.39 308.16 479.7 309.81 478.33 310.62C477.47 311.13 476.15 311.14 475.49 311.96C475.394 312.1 475.326 312.258 475.291 312.425C475.255 312.592 475.254 312.763 475.285 312.931C475.317 313.098 475.381 313.258 475.475 313.4C475.568 313.542 475.689 313.665 475.83 313.76C476.535 314.233 477.346 314.525 478.19 314.61C479.895 314.885 481.627 314.965 483.35 314.85C484.131 314.836 484.905 314.694 485.64 314.43C486.38 314.087 487.018 313.556 487.49 312.89C488.041 312.167 488.517 311.39 488.91 310.57C489.364 309.847 489.613 309.014 489.63 308.16C489.48 306.78 487.7 306.38 486.57 306.16C485.738 305.972 484.877 305.955 484.038 306.109C483.199 306.264 482.4 306.587 481.69 307.06C481.3 307.36 481.69 308.06 482.09 307.73C483.26 306.931 484.697 306.626 486.09 306.88C486.86 306.99 488.4 307.16 488.76 307.99C489.05 308.64 488.43 309.65 488.15 310.22C487.808 310.918 487.41 311.587 486.96 312.22C486.521 312.899 485.886 313.429 485.14 313.74C484.525 313.934 483.885 314.035 483.24 314.04C481.765 314.13 480.285 314.08 478.82 313.89C478.41 313.84 475.3 313.35 476.1 312.39C476.537 312.057 477.043 311.825 477.58 311.71C478.08 311.568 478.553 311.345 478.98 311.05C480.22 310.11 480.92 308.66 482.13 307.68C482.56 307.4 482 306.84 481.62 307.16Z" fill="#27273D"/>
<path d="M441.32 281.24C441.064 281.282 440.819 281.377 440.6 281.518C440.382 281.66 440.195 281.844 440.051 282.061C439.908 282.278 439.811 282.522 439.766 282.778C439.721 283.035 439.729 283.297 439.79 283.55L440.17 283.05C439.756 283.087 439.359 283.237 439.024 283.484C438.689 283.731 438.428 284.065 438.27 284.45C438.083 284.876 437.869 285.29 437.63 285.69C437.348 286.034 437.01 286.328 436.63 286.56C435.942 286.921 435.357 287.451 434.93 288.1C434.764 288.48 434.678 288.89 434.678 289.305C434.678 289.72 434.764 290.13 434.93 290.51C435.509 291.731 436.412 292.768 437.54 293.51C438.838 294.428 440.194 295.259 441.6 296C444.904 298.047 448.096 300.27 451.16 302.66C454.653 305.258 458.364 307.55 462.25 309.51C466.407 311.626 470.94 312.903 475.59 313.27C476.1 313.27 476.1 312.52 475.59 312.49C467.59 312 460.33 308.06 453.85 303.61C452.1 302.4 450.39 301.15 448.67 299.89C446.95 298.63 445.52 297.5 443.86 296.42C441.53 294.91 438.81 293.86 436.81 291.87C436.297 291.391 435.897 290.804 435.64 290.15C435.448 289.718 435.415 289.232 435.546 288.778C435.678 288.324 435.967 287.932 436.36 287.67C437.069 287.265 437.707 286.749 438.25 286.14C438.79 285.4 439.03 283.86 440.17 283.82C440.23 283.82 440.29 283.807 440.344 283.781C440.398 283.755 440.445 283.716 440.482 283.669C440.518 283.622 440.544 283.566 440.556 283.508C440.568 283.449 440.566 283.388 440.55 283.33C440.517 283.175 440.517 283.015 440.551 282.86C440.585 282.706 440.651 282.56 440.746 282.433C440.841 282.306 440.962 282.201 441.1 282.124C441.239 282.048 441.392 282.002 441.55 281.99C442.04 281.91 441.83 281.15 441.34 281.23L441.32 281.24Z" fill="#27273D"/>
<path d="M440.77 281.93L444.87 285.12C446.18 286.12 447.51 287.12 448.74 288.25C449.97 289.38 451.05 290.67 452.17 291.91C453.233 293.08 454.358 294.191 455.54 295.24C457.911 297.292 460.405 299.195 463.01 300.94C465.57 302.7 468.13 304.49 470.81 306.08C473.645 307.875 476.805 309.095 480.11 309.67C480.6 309.75 480.81 308.99 480.31 308.92C474.31 308.02 469.26 304.25 464.31 300.92C461.68 299.175 459.146 297.289 456.72 295.27C455.545 294.273 454.423 293.215 453.36 292.1C452.25 290.93 451.23 289.68 450.1 288.53C448.811 287.266 447.442 286.087 446 285L441.36 281.4C440.97 281.1 440.41 281.65 440.81 281.96L440.77 281.93Z" fill="#27273D"/>
<path d="M445 284.52C444.682 283.365 444.648 282.151 444.9 280.98C444.946 280.703 445.072 280.446 445.262 280.24C445.452 280.034 445.698 279.888 445.97 279.82C446.714 279.735 447.462 279.939 448.06 280.39C449.35 281.337 450.563 282.384 451.69 283.52C452.94 284.62 454.22 285.68 455.52 286.72C460.7 290.85 466.16 294.61 471.26 298.83C474.151 301.178 476.859 303.742 479.36 306.5L479.84 305.88C472.84 302.633 465.967 299.12 459.22 295.34C457.313 294.26 455.413 293.163 453.52 292.05C453.43 291.997 453.322 291.982 453.221 292.008C453.12 292.034 453.033 292.1 452.98 292.19C452.927 292.28 452.912 292.388 452.938 292.489C452.965 292.59 453.03 292.677 453.12 292.73C459.787 296.65 466.577 300.317 473.49 303.73C475.49 304.73 477.49 305.64 479.44 306.57C479.523 306.611 479.617 306.622 479.707 306.601C479.797 306.58 479.877 306.529 479.934 306.456C479.99 306.383 480.02 306.293 480.017 306.201C480.015 306.108 479.98 306.02 479.92 305.95C475.24 300.72 469.64 296.44 464.04 292.24C461.17 290.09 458.28 287.96 455.49 285.7C454.13 284.6 452.8 283.48 451.49 282.31C450.37 281.1 449.055 280.086 447.6 279.31C447.298 279.143 446.963 279.044 446.618 279.02C446.274 278.995 445.928 279.045 445.605 279.167C445.282 279.289 444.989 279.479 444.747 279.724C444.504 279.97 444.318 280.265 444.2 280.59C443.825 281.955 443.825 283.395 444.2 284.76C444.31 285.25 445.07 285.04 444.96 284.55L445 284.52Z" fill="#27273D"/>
<path d="M446.47 278.86L444.56 275.3C444.32 274.86 443.64 275.3 443.88 275.7L445.79 279.26C446.03 279.7 446.71 279.31 446.47 278.86Z" fill="#27273D"/>
<path d="M472.14 282.8C470.753 282.024 469.309 281.356 467.82 280.8C467.07 280.52 466.3 280.28 465.52 280.06C464.804 279.797 464.059 279.625 463.3 279.55C463.071 279.555 462.853 279.646 462.69 279.806C462.527 279.966 462.43 280.182 462.42 280.41C462.421 280.678 462.504 280.939 462.658 281.159C462.812 281.379 463.029 281.547 463.28 281.64C463.98 281.929 464.694 282.183 465.42 282.4C466.21 282.69 467 283.01 467.77 283.34C469.461 284.08 471.107 284.918 472.7 285.85C472.788 285.889 472.887 285.894 472.978 285.864C473.069 285.835 473.147 285.773 473.195 285.69C473.243 285.607 473.259 285.509 473.24 285.415C473.22 285.321 473.167 285.237 473.09 285.18C471.583 284.287 470.023 283.486 468.42 282.78C466.9 282.11 465.33 281.61 463.79 281.01C463.63 280.95 462.9 280.58 463.3 280.34C463.4 280.28 463.81 280.44 463.93 280.46L464.54 280.61C465.35 280.81 466.15 281.05 466.94 281.32C468.6 281.891 470.206 282.607 471.74 283.46C472.19 283.7 472.58 283.02 472.14 282.78V282.8Z" fill="#27273D"/>
<path d="M469.13 281.66C469.298 281.557 469.472 281.463 469.65 281.38L469.9 281.26H469.99L470.11 281.21C470.474 281.068 470.849 280.954 471.23 280.87C471.329 280.842 471.414 280.776 471.464 280.686C471.515 280.596 471.528 280.489 471.5 280.39C471.472 280.29 471.406 280.205 471.317 280.153C471.227 280.101 471.121 280.085 471.02 280.11C470.217 280.291 469.447 280.598 468.74 281.02C468.695 281.046 468.656 281.08 468.624 281.122C468.592 281.163 468.569 281.21 468.556 281.26C468.543 281.311 468.541 281.363 468.548 281.415C468.556 281.466 468.573 281.515 468.6 281.56C468.652 281.648 468.737 281.713 468.836 281.739C468.936 281.765 469.041 281.751 469.13 281.7V281.66Z" fill="#27273D"/>
<path d="M467.33 282.77C466.015 283.466 464.855 284.422 463.92 285.58C463.86 285.641 463.822 285.72 463.811 285.805C463.8 285.89 463.817 285.976 463.86 286.05C463.985 286.237 464.153 286.392 464.349 286.501C464.546 286.611 464.766 286.672 464.99 286.68C465.494 286.67 465.984 286.514 466.4 286.23C467.4 285.63 468.4 285.01 469.4 284.39C469.477 284.333 469.531 284.249 469.55 284.155C469.569 284.061 469.553 283.963 469.505 283.88C469.457 283.797 469.38 283.735 469.288 283.706C469.197 283.676 469.098 283.681 469.01 283.72L466.45 285.26C466.092 285.517 465.698 285.719 465.28 285.86C465.144 285.909 464.996 285.916 464.855 285.881C464.714 285.845 464.587 285.768 464.49 285.66L464.43 286.13C465.327 285.031 466.431 284.121 467.68 283.45C468.13 283.21 467.68 282.53 467.29 282.77H467.33Z" fill="#27273D"/>
<path d="M475.51 288.81C474.109 288.028 472.648 287.359 471.14 286.81C470.35 286.52 469.55 286.25 468.74 286.02C468.39 285.92 468.04 285.82 467.69 285.74C467.35 285.62 466.991 285.562 466.63 285.57C466.495 285.599 466.368 285.659 466.259 285.744C466.149 285.828 466.06 285.937 465.998 286.06C465.936 286.184 465.902 286.32 465.899 286.458C465.896 286.596 465.923 286.734 465.98 286.86C466.24 287.52 467.05 287.68 467.64 287.86C469.12 288.37 470.57 288.96 472 289.59C473.564 290.26 475.083 291.028 476.55 291.89C476.98 292.16 477.38 291.48 476.95 291.22C474.68 289.895 472.301 288.765 469.84 287.84L468.09 287.19L467.33 286.93C467.13 286.887 466.944 286.795 466.79 286.66C466.764 286.637 466.743 286.61 466.727 286.579C466.712 286.548 466.703 286.514 466.7 286.48C466.7 286.31 466.7 286.33 466.88 286.34C467.521 286.424 468.149 286.585 468.75 286.82C469.43 287.02 470.11 287.25 470.75 287.49C472.25 288.035 473.702 288.704 475.09 289.49C475.18 289.542 475.287 289.555 475.388 289.528C475.488 289.501 475.574 289.435 475.625 289.345C475.677 289.255 475.691 289.148 475.664 289.047C475.636 288.947 475.57 288.862 475.48 288.81H475.51Z" fill="#27273D"/>
<path d="M471.79 287.44C472.081 287.255 472.386 287.091 472.7 286.95H472.76H472.86L473.11 286.85L473.6 286.71C473.65 286.697 473.697 286.674 473.738 286.643C473.779 286.612 473.814 286.573 473.84 286.528C473.866 286.483 473.883 286.434 473.89 286.383C473.897 286.332 473.893 286.28 473.88 286.23C473.867 286.18 473.844 286.133 473.813 286.092C473.782 286.051 473.743 286.017 473.698 285.991C473.654 285.965 473.604 285.948 473.553 285.941C473.502 285.934 473.45 285.937 473.4 285.95C472.69 286.134 472.015 286.431 471.4 286.83C471.312 286.882 471.248 286.967 471.221 287.066C471.195 287.165 471.209 287.271 471.26 287.36C471.314 287.449 471.401 287.513 471.502 287.54C471.603 287.566 471.71 287.552 471.8 287.5L471.79 287.44Z" fill="#27273D"/>
<path d="M470.14 288.43C468.98 289.105 467.961 289.998 467.14 291.06C467.081 291.123 467.043 291.204 467.032 291.29C467.021 291.376 467.038 291.464 467.08 291.54C467.187 291.71 467.334 291.851 467.509 291.95C467.683 292.05 467.88 292.105 468.08 292.11C468.547 292.098 468.998 291.941 469.37 291.66L472.01 289.94C472.43 289.67 472.01 288.99 471.61 289.27L469.4 290.71C469.07 290.92 468.1 291.71 467.75 291.14L467.68 291.62C468.461 290.605 469.432 289.752 470.54 289.11C470.585 289.084 470.624 289.049 470.655 289.008C470.686 288.966 470.709 288.919 470.722 288.869C470.735 288.819 470.738 288.767 470.731 288.715C470.724 288.664 470.707 288.615 470.68 288.57C470.654 288.525 470.619 288.486 470.578 288.455C470.537 288.424 470.489 288.401 470.439 288.388C470.389 288.375 470.337 288.372 470.286 288.379C470.234 288.386 470.185 288.404 470.14 288.43V288.43Z" fill="#27273D"/>
<path d="M479.7 294.57C478.332 293.854 476.919 293.226 475.47 292.69C474.01 292.095 472.505 291.613 470.97 291.25C470.36 291.11 469.66 291.25 469.7 292.04C469.74 292.83 470.58 293.04 471.17 293.25C472.66 293.74 474.12 294.31 475.56 294.92C477.226 295.587 478.849 296.355 480.42 297.22C480.511 297.272 480.618 297.286 480.718 297.258C480.818 297.231 480.904 297.165 480.955 297.075C481.007 296.985 481.021 296.878 480.994 296.777C480.966 296.677 480.901 296.592 480.81 296.54C478.403 295.232 475.899 294.108 473.32 293.18C472.71 292.96 472.11 292.74 471.49 292.53C471.21 292.44 470.75 292.37 470.56 292.12C470.37 291.87 470.48 291.97 470.65 291.98C470.82 291.99 470.97 292.06 471.12 292.09C473.951 292.851 476.693 293.911 479.3 295.25C479.75 295.48 480.14 294.81 479.7 294.57V294.57Z" fill="#27273D"/>
<path d="M475.54 293.09L475.99 292.87H476.08C475.98 292.878 475.886 292.924 475.819 292.999C475.752 293.075 475.717 293.173 475.721 293.274C475.724 293.375 475.767 293.47 475.84 293.54C475.912 293.61 476.009 293.649 476.11 293.649C476.211 293.649 476.308 293.61 476.381 293.54C476.453 293.47 476.496 293.375 476.5 293.274C476.504 293.173 476.469 293.075 476.401 292.999C476.334 292.924 476.241 292.878 476.14 292.87L476.36 292.79C476.666 292.679 476.981 292.592 477.3 292.53C477.35 292.517 477.397 292.495 477.439 292.463C477.48 292.432 477.515 292.393 477.541 292.349C477.567 292.304 477.584 292.255 477.59 292.203C477.597 292.152 477.594 292.1 477.58 292.05C477.55 291.949 477.482 291.864 477.391 291.812C477.3 291.76 477.192 291.745 477.09 291.77C476.412 291.905 475.758 292.141 475.15 292.47C475.105 292.496 475.066 292.53 475.034 292.572C475.003 292.613 474.98 292.66 474.967 292.711C474.954 292.761 474.951 292.813 474.958 292.865C474.966 292.916 474.983 292.966 475.01 293.01C475.062 293.098 475.147 293.163 475.246 293.189C475.346 293.215 475.451 293.201 475.54 293.15V293.09Z" fill="#27273D"/>
<path d="M474 293.83C472.9 294.363 471.92 295.115 471.12 296.04C471.063 296.103 471.026 296.181 471.016 296.265C471.005 296.35 471.02 296.435 471.06 296.51C471.176 296.67 471.326 296.802 471.499 296.897C471.672 296.992 471.863 297.048 472.06 297.06C472.488 297.068 472.909 296.95 473.27 296.72C474.14 296.25 474.99 295.72 475.84 295.29C476.29 295.05 475.84 294.37 475.45 294.62L473.3 295.81C473.011 295.991 472.702 296.138 472.38 296.25C472.18 296.3 471.84 296.32 471.7 296.12L471.64 296.59C472.394 295.714 473.32 295.003 474.36 294.5C474.81 294.28 474.41 293.6 473.96 293.83H474Z" fill="#27273D"/>
<path d="M445.64 285.21C445.593 285.21 445.548 285.193 445.513 285.162C445.478 285.13 445.455 285.087 445.45 285.04C445.45 285.04 445.39 284.61 445.37 284.04C445.369 284.014 445.373 283.988 445.382 283.964C445.391 283.94 445.405 283.918 445.422 283.899C445.44 283.88 445.462 283.865 445.485 283.855C445.509 283.845 445.535 283.84 445.56 283.84C445.61 283.84 445.658 283.858 445.695 283.891C445.732 283.925 445.755 283.97 445.76 284.02C445.76 284.57 445.84 285.02 445.84 285.02C445.845 285.046 445.844 285.072 445.837 285.097C445.831 285.123 445.819 285.146 445.803 285.167C445.787 285.188 445.767 285.205 445.744 285.217C445.722 285.23 445.696 285.238 445.67 285.24L445.64 285.21Z" fill="#27273D"/>
<path d="M477 304.62C476.961 304.633 476.919 304.633 476.88 304.62L475.35 303.49C475.314 303.453 475.293 303.402 475.293 303.35C475.293 303.298 475.314 303.247 475.35 303.21C475.387 303.176 475.435 303.158 475.485 303.158C475.535 303.158 475.583 303.176 475.62 303.21L477.16 304.35C477.194 304.387 477.213 304.435 477.213 304.485C477.213 304.535 477.194 304.583 477.16 304.62C477.109 304.641 477.052 304.641 477 304.62V304.62ZM473.94 302.35C473.901 302.36 473.86 302.36 473.82 302.35L472.3 301.2C472.264 301.163 472.243 301.112 472.243 301.06C472.243 301.008 472.264 300.957 472.3 300.92C472.318 300.902 472.339 300.888 472.362 300.878C472.385 300.869 472.41 300.864 472.435 300.864C472.46 300.864 472.485 300.869 472.508 300.878C472.532 300.888 472.553 300.902 472.57 300.92L474 302C474.037 302.037 474.057 302.088 474.057 302.14C474.057 302.192 474.037 302.243 474 302.28C473.981 302.311 473.953 302.335 473.92 302.35H473.94ZM470.94 300.03C470.902 300.044 470.859 300.044 470.82 300.03L470.64 299.89C470.42 299.71 469.99 299.39 469.3 298.89C469.281 298.873 469.266 298.852 469.255 298.829C469.245 298.806 469.239 298.781 469.239 298.755C469.239 298.729 469.245 298.704 469.255 298.681C469.266 298.658 469.281 298.637 469.3 298.62C469.314 298.599 469.333 298.58 469.354 298.566C469.375 298.552 469.399 298.542 469.425 298.537C469.45 298.533 469.476 298.533 469.501 298.539C469.526 298.544 469.55 298.555 469.57 298.57C470.27 299.08 470.7 299.4 470.93 299.57L471.1 299.71C471.12 299.728 471.135 299.749 471.146 299.774C471.156 299.798 471.162 299.824 471.162 299.85C471.162 299.876 471.156 299.902 471.146 299.926C471.135 299.951 471.12 299.972 471.1 299.99C471.069 300.01 471.034 300.021 470.997 300.023C470.96 300.025 470.923 300.017 470.89 300L470.94 300.03ZM467.86 297.77C467.821 297.783 467.779 297.783 467.74 297.77L466.18 296.68C466.144 296.643 466.123 296.592 466.123 296.54C466.123 296.488 466.144 296.437 466.18 296.4C466.198 296.382 466.219 296.368 466.242 296.358C466.265 296.349 466.29 296.344 466.315 296.344C466.34 296.344 466.365 296.349 466.388 296.358C466.412 296.368 466.433 296.382 466.45 296.4L468.01 297.49C468.052 297.522 468.081 297.568 468.09 297.62C468.099 297.672 468.089 297.726 468.06 297.77C468.024 297.797 467.98 297.811 467.935 297.811C467.89 297.811 467.846 297.797 467.81 297.77H467.86ZM464.74 295.57H464.62L463 294.43C462.982 294.412 462.968 294.391 462.959 294.368C462.949 294.345 462.944 294.32 462.944 294.295C462.944 294.27 462.949 294.245 462.959 294.222C462.968 294.199 462.982 294.178 463 294.16C463.015 294.138 463.035 294.12 463.057 294.105C463.079 294.091 463.104 294.081 463.13 294.077C463.156 294.072 463.183 294.072 463.208 294.078C463.234 294.084 463.259 294.095 463.28 294.11L464.83 295.22C464.852 295.234 464.87 295.252 464.884 295.274C464.899 295.295 464.908 295.319 464.913 295.344C464.918 295.37 464.917 295.395 464.912 295.42C464.906 295.446 464.895 295.469 464.88 295.49C464.858 295.519 464.829 295.541 464.796 295.555C464.763 295.569 464.726 295.574 464.69 295.57H464.74ZM461.63 293.36C461.595 293.374 461.556 293.374 461.52 293.36L459.97 292.24C459.938 292.201 459.92 292.151 459.92 292.1C459.92 292.049 459.938 291.999 459.97 291.96C460.008 291.923 460.058 291.903 460.11 291.903C460.163 291.903 460.213 291.923 460.25 291.96C460.75 292.33 461.25 292.71 461.79 293.08C461.823 293.119 461.841 293.169 461.841 293.22C461.841 293.271 461.823 293.321 461.79 293.36C461.758 293.378 461.722 293.388 461.685 293.388C461.648 293.388 461.612 293.378 461.58 293.36H461.63ZM458.56 291.09C458.521 291.103 458.479 291.103 458.44 291.09L456.93 289.92C456.896 289.881 456.877 289.832 456.877 289.78C456.877 289.728 456.896 289.679 456.93 289.64C456.968 289.603 457.018 289.583 457.07 289.583C457.123 289.583 457.173 289.603 457.21 289.64C457.66 290.01 458.21 290.4 458.71 290.81C458.728 290.828 458.742 290.849 458.752 290.872C458.762 290.895 458.767 290.92 458.767 290.945C458.767 290.97 458.762 290.995 458.752 291.018C458.742 291.041 458.728 291.062 458.71 291.08C458.682 291.101 458.647 291.114 458.612 291.115C458.576 291.117 458.541 291.108 458.51 291.09H458.56ZM455.56 288.68C455.536 288.681 455.512 288.678 455.49 288.669C455.468 288.66 455.447 288.647 455.43 288.63C455.3 288.51 455.18 288.4 455.08 288.29L454.08 287.29C454.046 287.251 454.027 287.202 454.027 287.15C454.027 287.098 454.046 287.048 454.08 287.01C454.098 286.991 454.12 286.975 454.144 286.964C454.168 286.954 454.194 286.948 454.22 286.948C454.247 286.948 454.273 286.954 454.297 286.964C454.321 286.975 454.343 286.991 454.36 287.01L455.36 288.01L455.69 288.33C455.727 288.367 455.747 288.418 455.747 288.47C455.747 288.522 455.727 288.573 455.69 288.61C455.654 288.65 455.604 288.675 455.55 288.68H455.56ZM452.87 285.98C452.82 285.979 452.771 285.961 452.73 285.93C452.28 285.48 451.82 285.03 451.36 284.6C451.324 284.563 451.303 284.512 451.303 284.46C451.303 284.408 451.324 284.357 451.36 284.32C451.378 284.301 451.4 284.285 451.424 284.274C451.448 284.264 451.474 284.258 451.5 284.258C451.527 284.258 451.553 284.264 451.577 284.274C451.601 284.285 451.623 284.301 451.64 284.32C452.09 284.75 452.55 285.2 453 285.65C453.018 285.668 453.032 285.689 453.042 285.712C453.052 285.735 453.057 285.76 453.057 285.785C453.057 285.81 453.052 285.835 453.042 285.858C453.032 285.881 453.018 285.902 453 285.92C452.984 285.942 452.963 285.961 452.939 285.975C452.915 285.988 452.888 285.997 452.86 286L452.87 285.98ZM450.1 283.36C450.076 283.363 450.052 283.36 450.029 283.351C450.007 283.342 449.986 283.328 449.97 283.31C449.42 282.83 448.97 282.43 448.5 282.12C448.479 282.104 448.462 282.084 448.448 282.062C448.435 282.039 448.426 282.014 448.422 281.988C448.419 281.962 448.42 281.936 448.427 281.91C448.433 281.885 448.445 281.861 448.46 281.84C448.476 281.819 448.496 281.801 448.518 281.788C448.541 281.775 448.566 281.766 448.592 281.762C448.618 281.758 448.645 281.76 448.67 281.766C448.695 281.773 448.719 281.784 448.74 281.8C449.17 282.12 449.67 282.53 450.23 283.02C450.267 283.057 450.287 283.108 450.287 283.16C450.287 283.212 450.267 283.263 450.23 283.3C450.193 283.338 450.143 283.359 450.09 283.36H450.1ZM445.71 282.36C445.685 282.354 445.66 282.343 445.639 282.328C445.618 282.313 445.599 282.293 445.586 282.271C445.572 282.249 445.562 282.224 445.558 282.198C445.554 282.172 445.554 282.146 445.56 282.12C445.75 281.35 446.1 280.91 446.61 280.83C446.756 280.801 446.905 280.801 447.05 280.83C447.101 280.844 447.144 280.877 447.172 280.921C447.2 280.965 447.21 281.018 447.2 281.07C447.195 281.095 447.184 281.119 447.168 281.14C447.153 281.161 447.133 281.179 447.111 281.192C447.088 281.205 447.063 281.214 447.037 281.217C447.012 281.22 446.985 281.217 446.96 281.21C446.864 281.196 446.766 281.196 446.67 281.21C446.33 281.26 446.09 281.6 445.94 282.21C445.933 282.234 445.922 282.257 445.906 282.277C445.89 282.297 445.87 282.314 445.848 282.326C445.825 282.338 445.801 282.345 445.776 282.348C445.75 282.35 445.725 282.348 445.7 282.34L445.71 282.36Z" fill="#27273D"/>
<path d="M479.26 306.3C479.225 306.314 479.186 306.314 479.15 306.3L478.36 305.72C478.34 305.705 478.323 305.686 478.31 305.664C478.297 305.642 478.288 305.618 478.284 305.593C478.277 305.543 478.29 305.491 478.32 305.45C478.351 305.409 478.396 305.382 478.447 305.374C478.498 305.367 478.549 305.38 478.59 305.41L479.38 305.98C479.417 306.017 479.437 306.068 479.437 306.12C479.437 306.172 479.417 306.223 479.38 306.26C479.345 306.285 479.303 306.299 479.26 306.3V306.3Z" fill="#27273D"/>
<path d="M443 282.14C442.949 282.135 442.902 282.11 442.868 282.071C442.834 282.032 442.817 281.981 442.82 281.93C442.859 281.244 443.008 280.569 443.26 279.93C443.282 279.883 443.321 279.846 443.37 279.827C443.418 279.809 443.472 279.81 443.52 279.83C443.543 279.84 443.564 279.854 443.581 279.872C443.599 279.89 443.613 279.911 443.622 279.934C443.631 279.957 443.636 279.982 443.636 280.007C443.635 280.032 443.63 280.057 443.62 280.08C443.39 280.672 443.252 281.296 443.21 281.93C443.213 281.958 443.21 281.987 443.201 282.014C443.191 282.041 443.176 282.065 443.156 282.086C443.135 282.106 443.111 282.121 443.084 282.131C443.057 282.14 443.028 282.143 443 282.14ZM444.24 278.62C444.211 278.62 444.183 278.614 444.157 278.602C444.131 278.59 444.108 278.572 444.09 278.55C443.745 277.955 443.505 277.306 443.38 276.63C443.371 276.58 443.382 276.528 443.409 276.485C443.437 276.442 443.48 276.412 443.53 276.4C443.555 276.393 443.582 276.391 443.607 276.394C443.633 276.398 443.658 276.407 443.68 276.422C443.702 276.436 443.72 276.455 443.734 276.477C443.748 276.499 443.757 276.524 443.76 276.55C443.872 277.164 444.085 277.755 444.39 278.3C444.408 278.318 444.422 278.339 444.432 278.362C444.441 278.385 444.446 278.41 444.446 278.435C444.446 278.46 444.441 278.485 444.432 278.508C444.422 278.531 444.408 278.552 444.39 278.57C444.368 278.589 444.343 278.603 444.315 278.612C444.288 278.62 444.259 278.623 444.23 278.62H444.24Z" fill="#27273D"/>
<path d="M435.71 29.1V230.55C435.71 230.55 376.22 229.75 356.85 180.84C337.48 131.93 336.89 45.68 435.71 29.1Z" fill="#313B47"/>
<path d="M433.63 229.52C418.888 228.682 404.508 224.627 391.5 217.64C379.437 211.264 369.151 201.985 361.57 190.64C352.23 176.62 347 159.24 346 139C344.32 104.76 353 77.43 371.69 57.77C381.276 47.7856 393.009 40.115 406 35.34C416.12 31.52 427.16 29.34 436.28 29.34C436.644 29.34 436.992 29.4843 437.249 29.7413C437.506 29.9982 437.65 30.3466 437.65 30.71C437.65 31.0733 437.506 31.4218 437.249 31.6787C436.992 31.9357 436.644 32.08 436.28 32.08C427.48 32.08 416.79 34.21 406.97 37.91C394.375 42.5349 382.998 49.9659 373.7 59.64C355.51 78.74 347.12 105.39 348.76 138.84C349.76 158.58 354.76 175.47 363.76 189.05C371.077 200.016 381.005 208.992 392.65 215.17C405.329 221.929 419.311 225.888 433.65 226.78C434.014 226.78 434.362 226.924 434.619 227.181C434.876 227.438 435.02 227.787 435.02 228.15C435.02 228.513 434.876 228.862 434.619 229.119C434.362 229.376 434.014 229.52 433.65 229.52H433.63Z" fill="#313B47"/>
<path d="M437.81 230.03C482.38 230.03 518.51 185.129 518.51 129.74C518.51 74.3514 482.38 29.45 437.81 29.45C393.241 29.45 357.11 74.3514 357.11 129.74C357.11 185.129 393.241 230.03 437.81 230.03Z" fill="url(#paint4_linear_2650_90672)"/>
<path opacity="0.93" d="M437.82 222.5C479.026 222.5 512.43 180.983 512.43 129.77C512.43 78.5566 479.026 37.04 437.82 37.04C396.614 37.04 363.21 78.5566 363.21 129.77C363.21 180.983 396.614 222.5 437.82 222.5Z" fill="url(#paint5_linear_2650_90672)"/>
<path d="M437.82 214.3C475.387 214.3 505.84 176.455 505.84 129.77C505.84 83.0854 475.387 45.24 437.82 45.24C400.254 45.24 369.8 83.0854 369.8 129.77C369.8 176.455 400.254 214.3 437.82 214.3Z" fill="url(#paint6_linear_2650_90672)"/>
<path d="M506.78 172C488.27 219.08 442.55 238.6 404.67 215.59C366.79 192.58 351.07 135.77 369.59 88.68C371.515 83.7557 373.818 78.9881 376.48 74.42C376.48 74.42 375.68 126.19 424.66 160.21C471 192.38 506.78 172 506.78 172Z" fill="url(#paint7_linear_2650_90672)"/>
<path d="M486.31 103.42L474.63 122.72C473.955 123.889 473.05 124.91 471.97 125.72C470.976 126.465 469.823 126.968 468.6 127.19C467.412 127.4 466.19 127.318 465.04 126.95C463.844 126.549 462.749 125.894 461.83 125.03L461.69 124.9C460.509 123.782 459.59 122.416 459 120.9C458.344 119.286 458.005 117.562 458 115.82V108.44C456.596 108.483 455.22 108.841 453.973 109.488C452.727 110.136 451.642 111.056 450.8 112.18C448.816 114.738 447.758 117.893 447.8 121.13V177.13C447.8 183.89 443.56 189.65 438.12 189.89C436.756 189.946 435.399 189.664 434.17 189.07C432.859 188.437 431.703 187.526 430.78 186.4C429.779 185.184 429.009 183.794 428.51 182.3C427.973 180.733 427.699 179.087 427.7 177.43V121.13C427.69 116.24 428.47 111.381 430.01 106.74C431.457 102.312 433.682 98.1772 436.58 94.53C439.256 91.157 442.608 88.381 446.42 86.38C450.003 84.5135 453.981 83.5328 458.02 83.52H478.02C483.92 83.52 488.02 88.67 488.02 96.01C488.096 98.5859 487.507 101.138 486.31 103.42V103.42Z" fill="url(#paint8_linear_2650_90672)"/>
<path d="M412.75 83.4H397.39C391.92 83.4 387.49 88.91 387.49 95.7V96.06C387.49 102.85 391.92 108.35 397.39 108.35H412.75C418.22 108.35 422.65 102.85 422.65 96.06V95.7C422.65 88.91 418.22 83.4 412.75 83.4Z" fill="url(#paint9_linear_2650_90672)"/>
<path d="M308.72 199.85L309.43 203.1C309.43 203.1 299.09 211.1 297.43 221.02C295.77 230.94 298.05 233.65 299.18 234.61C299.536 235.193 299.985 235.713 300.51 236.15C300.865 236.322 301.229 236.476 301.6 236.61C301.677 237.519 302.041 238.38 302.64 239.069C303.238 239.757 304.04 240.237 304.93 240.44C305.762 240.667 306.637 240.688 307.479 240.5C308.321 240.311 309.104 239.92 309.76 239.36C309.76 239.36 309.76 242.94 312.93 243.44C316.1 243.94 318.64 241.19 318.64 241.19C318.871 242.364 319.468 243.436 320.344 244.251C321.22 245.066 322.332 245.584 323.52 245.73C327.77 246.32 330.35 240.78 330.98 238.44C331.61 236.1 332.56 233.02 332.56 233.02C332.56 233.02 342.82 228.44 343.23 222.69C343.64 216.94 337.36 210.89 335.9 209.85C334.999 209.205 334.134 208.511 333.31 207.77L334.69 202.89C334.69 202.89 329.98 199.55 321.56 198.35C313.14 197.15 308.72 199.85 308.72 199.85Z" fill="#DFF2F9"/>
<path d="M333.2 208.49C333.071 208.49 332.943 208.47 332.82 208.43C332.673 208.381 332.538 208.304 332.421 208.203C332.304 208.102 332.208 207.978 332.139 207.839C332.071 207.701 332.03 207.55 332.02 207.396C332.01 207.241 332.03 207.086 332.08 206.94L333.22 203.56C328.447 200.404 322.797 198.839 317.08 199.09C314.832 199.191 312.608 199.598 310.47 200.3L311.05 203.7C311.08 203.997 310.997 204.295 310.816 204.533C310.635 204.77 310.371 204.931 310.077 204.982C309.782 205.032 309.48 204.97 309.23 204.806C308.98 204.642 308.802 204.39 308.73 204.1L307.98 199.74C307.937 199.482 307.98 199.216 308.103 198.985C308.226 198.753 308.422 198.569 308.66 198.46C309.19 198.23 321.66 192.82 335.29 202.11C335.502 202.255 335.66 202.466 335.742 202.71C335.823 202.953 335.822 203.217 335.74 203.46L334.31 207.69C334.231 207.922 334.082 208.124 333.883 208.267C333.684 208.411 333.446 208.489 333.2 208.49V208.49Z" fill="#3C3C3B"/>
<path d="M301.31 237.41C301.184 237.41 301.06 237.389 300.94 237.35C299.992 236.984 299.135 236.416 298.429 235.686C297.723 234.955 297.184 234.08 296.85 233.12C294.85 228.32 295.54 221.12 298.66 214.69C303.43 204.92 310.58 201.87 310.88 201.75C311.023 201.691 311.175 201.66 311.33 201.66C311.484 201.66 311.637 201.691 311.779 201.75C311.922 201.809 312.051 201.895 312.16 202.004C312.269 202.113 312.356 202.243 312.415 202.385C312.474 202.527 312.505 202.68 312.505 202.834C312.505 202.989 312.475 203.141 312.416 203.284C312.357 203.427 312.27 203.556 312.161 203.665C312.052 203.774 311.923 203.861 311.78 203.92C310.395 204.593 309.102 205.44 307.93 206.44C304.913 208.989 302.475 212.153 300.78 215.72C298.45 220.48 297.01 227.43 299.02 232.21C299.239 232.852 299.588 233.442 300.046 233.943C300.504 234.444 301.06 234.845 301.68 235.12C301.952 235.202 302.185 235.379 302.335 235.62C302.486 235.86 302.544 236.147 302.498 236.427C302.453 236.707 302.308 236.961 302.089 237.142C301.871 237.323 301.594 237.418 301.31 237.41V237.41Z" fill="#3C3C3B"/>
<path d="M306.69 241.63C305.973 241.623 305.26 241.519 304.57 241.32C299.97 240.06 300.03 234.58 300.7 231.85C300.778 231.549 300.972 231.291 301.239 231.133C301.506 230.974 301.826 230.927 302.127 231.002C302.429 231.077 302.689 231.268 302.85 231.533C303.012 231.799 303.062 232.118 302.99 232.42V232.42C302.754 233.469 302.679 234.548 302.77 235.62C303.05 238.46 304.66 238.9 305.19 239.05C305.656 239.228 306.154 239.309 306.652 239.288C307.151 239.267 307.64 239.146 308.09 238.93C308.594 238.581 308.951 238.057 309.09 237.46C309.153 237.155 309.333 236.887 309.591 236.714C309.848 236.54 310.164 236.474 310.47 236.53C310.774 236.588 311.042 236.764 311.218 237.018C311.394 237.272 311.463 237.585 311.41 237.89C311.142 239.124 310.398 240.202 309.34 240.89C308.546 241.387 307.626 241.644 306.69 241.63V241.63Z" fill="#3C3C3B"/>
<path d="M314.72 245C313.784 244.984 312.864 244.754 312.03 244.33C307.29 242 309.73 234.56 309.84 234.24C309.889 234.093 309.966 233.957 310.067 233.84C310.169 233.723 310.292 233.628 310.431 233.559C310.569 233.49 310.72 233.45 310.875 233.439C311.029 233.429 311.184 233.45 311.33 233.5C311.625 233.6 311.869 233.813 312.007 234.092C312.146 234.372 312.169 234.694 312.07 234.99V234.99C312.07 235.05 310.21 240.82 313.07 242.21C313.487 242.456 313.956 242.601 314.439 242.632C314.922 242.664 315.405 242.581 315.85 242.39C317.2 241.74 318.35 239.82 318.92 237.24C318.949 237.084 319.009 236.935 319.097 236.802C319.184 236.669 319.298 236.556 319.431 236.468C319.563 236.381 319.712 236.321 319.869 236.292C320.025 236.264 320.186 236.267 320.341 236.302C320.496 236.337 320.642 236.403 320.771 236.496C320.9 236.589 321.009 236.708 321.091 236.844C321.173 236.98 321.227 237.131 321.249 237.289C321.271 237.446 321.262 237.606 321.22 237.76C320.47 241.13 318.92 243.53 316.87 244.51C316.199 244.831 315.464 244.999 314.72 245V245Z" fill="#3C3C3B"/>
<path d="M323.85 247.43H323.69C319.15 247.36 317.77 243.34 317.69 241.22C317.7 240.923 317.821 240.641 318.029 240.43C318.237 240.219 318.518 240.094 318.814 240.08C319.111 240.066 319.401 240.164 319.629 240.355C319.856 240.546 320.003 240.816 320.04 241.11C320.04 241.52 320.36 245.03 323.75 245.11H323.86C327.36 245.11 328.86 242.47 330.11 238.21C330.562 236.617 330.933 235.001 331.22 233.37C331.615 230.979 332.248 228.634 333.11 226.37C333.165 226.221 333.25 226.085 333.359 225.97C333.467 225.855 333.598 225.763 333.744 225.699C333.889 225.636 334.046 225.602 334.204 225.601C334.363 225.599 334.52 225.63 334.666 225.69C334.813 225.751 334.946 225.84 335.057 225.953C335.168 226.066 335.256 226.2 335.314 226.348C335.372 226.495 335.4 226.653 335.396 226.811C335.392 226.97 335.356 227.126 335.29 227.27C334.484 229.402 333.895 231.61 333.53 233.86C333.23 235.565 332.843 237.254 332.37 238.92C331 243.31 329.08 247.43 323.85 247.43Z" fill="#3C3C3B"/>
<path d="M332.44 234.68C332.165 234.678 331.9 234.581 331.689 234.405C331.479 234.228 331.336 233.984 331.287 233.714C331.237 233.444 331.283 233.165 331.417 232.925C331.551 232.685 331.764 232.499 332.02 232.4C336.66 230.65 340.19 227.73 341.45 224.59C341.852 223.565 342.028 222.465 341.966 221.366C341.904 220.266 341.605 219.193 341.09 218.22C337.67 211.1 329.2 206.89 329.09 206.85C328.83 206.705 328.636 206.468 328.545 206.185C328.454 205.902 328.475 205.595 328.602 205.327C328.729 205.058 328.954 204.848 329.23 204.739C329.506 204.63 329.814 204.631 330.09 204.74C330.47 204.92 339.39 209.33 343.16 217.21C343.823 218.474 344.204 219.868 344.277 221.294C344.349 222.72 344.112 224.145 343.58 225.47C342.08 229.21 338.05 232.63 332.8 234.61C332.684 234.651 332.563 234.675 332.44 234.68V234.68Z" fill="#3C3C3B"/>
<defs>
<linearGradient id="paint0_linear_2650_90672" x1="315.79" y1="177.08" x2="370.11" y2="177.08" gradientUnits="userSpaceOnUse">
<stop offset="0.08" stop-color="#797D86"/>
<stop offset="0.47" stop-color="#A8ABB0"/>
<stop offset="0.82" stop-color="#CBCCCF"/>
<stop offset="1" stop-color="#D8D9DB"/>
</linearGradient>
<linearGradient id="paint1_linear_2650_90672" x1="420.716" y1="286.486" x2="386.053" y2="267.973" gradientUnits="userSpaceOnUse">
<stop offset="0.08" stop-color="#797D86"/>
<stop offset="0.47" stop-color="#A8ABB0"/>
<stop offset="0.82" stop-color="#CBCCCF"/>
<stop offset="1" stop-color="#D8D9DB"/>
</linearGradient>
<linearGradient id="paint2_linear_2650_90672" x1="501.95" y1="85.68" x2="575.27" y2="85.68" gradientUnits="userSpaceOnUse">
<stop offset="0.08" stop-color="#797D86"/>
<stop offset="0.47" stop-color="#A8ABB0"/>
<stop offset="0.82" stop-color="#CBCCCF"/>
<stop offset="1" stop-color="#D8D9DB"/>
</linearGradient>
<linearGradient id="paint3_linear_2650_90672" x1="450.64" y1="239.36" x2="502.91" y2="239.36" gradientUnits="userSpaceOnUse">
<stop offset="0.08" stop-color="#797D86"/>
<stop offset="0.47" stop-color="#A8ABB0"/>
<stop offset="0.82" stop-color="#CBCCCF"/>
<stop offset="1" stop-color="#D8D9DB"/>
</linearGradient>
<linearGradient id="paint4_linear_2650_90672" x1="437.81" y1="-424.65" x2="437.81" y2="220.49" gradientUnits="userSpaceOnUse">
<stop stop-color="white"/>
<stop offset="0.14" stop-color="#C9CBCE"/>
<stop offset="0.31" stop-color="#92969C"/>
<stop offset="0.47" stop-color="#656A73"/>
<stop offset="0.62" stop-color="#424853"/>
<stop offset="0.77" stop-color="#29303C"/>
<stop offset="0.9" stop-color="#19212E"/>
<stop offset="1" stop-color="#141C29"/>
</linearGradient>
<linearGradient id="paint5_linear_2650_90672" x1="363.21" y1="129.77" x2="512.44" y2="129.77" gradientUnits="userSpaceOnUse">
<stop stop-color="#E340A1"/>
<stop offset="0.49" stop-color="#664AD6"/>
<stop offset="0.99" stop-color="#14B2F5"/>
</linearGradient>
<linearGradient id="paint6_linear_2650_90672" x1="437.82" y1="-337.51" x2="437.82" y2="206.25" gradientUnits="userSpaceOnUse">
<stop stop-color="white"/>
<stop offset="0.14" stop-color="#C9CBCE"/>
<stop offset="0.31" stop-color="#92969C"/>
<stop offset="0.47" stop-color="#656A73"/>
<stop offset="0.62" stop-color="#424853"/>
<stop offset="0.77" stop-color="#29303C"/>
<stop offset="0.9" stop-color="#19212E"/>
<stop offset="1" stop-color="#141C29"/>
</linearGradient>
<linearGradient id="paint7_linear_2650_90672" x1="389.86" y1="206.87" x2="426.84" y2="148.36" gradientUnits="userSpaceOnUse">
<stop offset="0.34" stop-color="#1C222B" stop-opacity="0.7"/>
<stop offset="0.92" stop-color="#152745" stop-opacity="0"/>
</linearGradient>
<linearGradient id="paint8_linear_2650_90672" x1="475.58" y1="154.15" x2="423.42" y2="101.92" gradientUnits="userSpaceOnUse">
<stop offset="0.08" stop-color="#797D86"/>
<stop offset="0.47" stop-color="#A8ABB0"/>
<stop offset="0.82" stop-color="#CBCCCF"/>
<stop offset="1" stop-color="#D8D9DB"/>
</linearGradient>
<linearGradient id="paint9_linear_2650_90672" x1="437.81" y1="119.26" x2="387.45" y2="83.3" gradientUnits="userSpaceOnUse">
<stop stop-color="#797D86"/>
<stop offset="0.09" stop-color="#95999F"/>
<stop offset="0.2" stop-color="#AEB0B5"/>
<stop offset="0.32" stop-color="#C1C2C6"/>
<stop offset="0.47" stop-color="#CECFD2"/>
<stop offset="0.65" stop-color="#D6D7D9"/>
<stop offset="1" stop-color="#D8D9DB"/>
</linearGradient>
</defs>
</svg>
