<svg width="916" height="400" viewBox="0 0 916 400" fill="none" xmlns="http://www.w3.org/2000/svg">
<path d="M614.41 172.48C614.41 172.48 610.28 204.74 594.58 209.13C578.88 213.52 549.24 182.61 546.02 166.13C542.8 149.65 554.65 159.65 567.02 176.42C576.75 189.65 592.17 198.24 594.42 188.82C595.961 181.55 597 174.182 597.53 166.77C597.53 166.77 599.94 162.31 606.33 163.32C612.72 164.33 614.41 172.48 614.41 172.48Z" fill="url(#paint0_linear_2710_93963)"/>
<path d="M555.63 163.629C555.63 163.629 568.77 198.529 585.93 208.379C585.93 208.379 576.72 206.029 563.36 193.909C550 181.789 543.19 164.309 545.21 159.909C547.23 155.509 549.46 157.139 555.63 163.629Z" fill="#686868"/>
<path d="M591.37 211C587.13 211 582.09 209.26 576.57 205.85C562.15 196.95 546.93 178.15 544.64 166.4C543.94 162.8 543.36 157.87 546.35 156.56C548.52 155.56 551.57 157.08 555.93 161.23C560.392 165.664 564.473 170.464 568.13 175.58C575.89 186.12 585.94 192.22 590.47 191.3C591.32 191.13 592.47 190.65 593.03 188.5C594.555 181.306 595.581 174.016 596.1 166.68V166.37L596.24 166.11C596.36 165.89 599.24 160.78 606.5 161.93C613.76 163.08 615.68 171.87 615.76 172.24L615.81 172.47V172.71C615.63 174.06 611.36 205.94 594.96 210.53C593.79 210.849 592.582 211.007 591.37 211V211ZM547.71 159.1C547.631 159.085 547.549 159.085 547.47 159.1C547.47 159.1 546.21 159.73 547.4 165.83C549.57 176.95 564.17 194.83 578.05 203.43C584.53 207.43 590.11 208.94 594.2 207.79C601.72 205.69 606.43 196.26 609.06 188.71C610.853 183.452 612.172 178.044 613 172.55C612.69 171.33 610.93 165.41 606.12 164.65C601.57 163.94 599.45 166.39 598.9 167.18C598.376 174.551 597.337 181.875 595.79 189.1C595.587 190.308 595.02 191.426 594.163 192.301C593.307 193.177 592.203 193.77 591 194C584 195.42 572.73 186.56 565.84 177.19C562.278 172.203 558.308 167.52 553.97 163.19C550.05 159.47 548.3 159.05 547.71 159.05V159.1Z" fill="#313B47"/>
<path d="M632 108.601C627.495 108.875 623.128 110.26 619.289 112.634C615.45 115.007 612.259 118.294 610 122.201C602 135.741 594 148.751 593.68 149.751C593.36 150.751 589.96 160.751 593.43 167.751C593.43 167.751 584.43 168.961 591.62 176.341C598.81 183.721 616.74 181.081 618.13 178.261C619.52 175.441 619.62 169.391 619.62 169.391C619.62 169.391 631.4 170.281 636.42 161.711C641.44 153.141 637.36 150.831 637.36 150.831L633.36 151.501C633.36 151.501 627.46 162.061 619.57 154.181C611.68 146.301 628.26 142.011 632.22 147.771C636.18 153.531 642.67 145.321 639.62 139.871C636.57 134.421 632.72 132.531 632.72 132.531L644.72 122.001C644.72 122.001 646.94 114.401 637.13 115.931C637.13 115.921 636.21 108.001 632 108.601Z" fill="#DFF2F9"/>
<path d="M622.1 132.48C624.067 128.687 626.637 125.239 629.71 122.27C631.29 120.75 633.08 119.5 634.71 118.03C635.547 117.351 636.231 116.503 636.719 115.541C637.207 114.58 637.486 113.527 637.54 112.45C637.532 111.494 637.233 110.562 636.683 109.78C636.133 108.997 635.357 108.401 634.46 108.07C632.776 107.503 630.966 107.426 629.24 107.85C627.313 108.274 625.439 108.908 623.65 109.74C621.793 110.559 620.012 111.543 618.33 112.68C614.927 114.976 611.955 117.853 609.55 121.18C606.86 124.9 605.04 129.18 602.61 133.04C600.32 136.7 597.61 140.11 595.47 143.83C593.582 146.935 592.274 150.357 591.61 153.93C591.052 157.033 590.978 160.204 591.39 163.33C591.76 165.82 592.65 168.66 594.92 170.07C595.428 170.381 595.986 170.601 596.57 170.72C596.698 170.756 596.832 170.767 596.964 170.75C597.096 170.734 597.224 170.692 597.339 170.626C597.455 170.559 597.556 170.471 597.637 170.365C597.717 170.26 597.776 170.139 597.81 170.01C597.845 169.883 597.854 169.751 597.838 169.62C597.822 169.49 597.78 169.364 597.715 169.25C597.65 169.136 597.563 169.035 597.459 168.955C597.355 168.874 597.237 168.815 597.11 168.78C596.854 168.731 596.604 168.661 596.36 168.57C596.56 168.64 596.28 168.57 596.22 168.5C596.083 168.432 595.953 168.352 595.83 168.26L595.69 168.17C595.55 168.08 595.86 168.32 595.69 168.17L595.44 167.94L595.17 167.67L595.06 167.54C595.03 167.506 595.003 167.469 594.98 167.43V167.43C594.312 166.499 593.851 165.435 593.63 164.31C593.055 161.554 592.961 158.719 593.35 155.93C593.699 152.897 594.569 149.947 595.92 147.21C597.889 143.603 600.097 140.132 602.53 136.82C603.72 135.07 604.86 133.28 605.9 131.43C606.94 129.58 607.97 127.55 609.08 125.64C611.041 122.18 613.585 119.084 616.6 116.49C619.447 114.07 622.691 112.162 626.19 110.85C627.784 110.184 629.47 109.762 631.19 109.6C632.57 109.53 634.19 109.71 635.04 110.87C636.04 112.22 635.4 114.14 634.45 115.37C633.2 117 631.35 118.13 629.81 119.47C626.711 122.169 624.037 125.322 621.88 128.82C621.35 129.68 620.88 130.56 620.39 131.46C619.8 132.61 621.53 133.62 622.12 132.46L622.1 132.48Z" fill="#3C3C3B"/>
<path d="M593.2 166.82C591.628 167.221 590.227 168.115 589.2 169.37C588.701 170.004 588.374 170.756 588.25 171.553C588.125 172.349 588.208 173.165 588.49 173.92C589.73 177.14 593.37 178.92 596.42 180.02C599.708 181.138 603.168 181.666 606.64 181.58C608.41 181.555 610.176 181.425 611.93 181.19C613.661 181.058 615.368 180.705 617.01 180.14C617.869 179.812 618.633 179.274 619.232 178.575C619.831 177.877 620.246 177.04 620.44 176.14C620.727 174.353 620.673 172.528 620.28 170.76C620.246 170.633 620.188 170.513 620.108 170.408C620.027 170.303 619.927 170.215 619.813 170.149C619.699 170.083 619.572 170.04 619.441 170.024C619.31 170.007 619.177 170.016 619.05 170.05C618.921 170.084 618.8 170.143 618.695 170.224C618.589 170.305 618.501 170.406 618.434 170.521C618.368 170.637 618.326 170.764 618.31 170.896C618.293 171.028 618.304 171.162 618.34 171.29C618.73 173.52 619.17 176.73 616.81 178.04C615.473 178.638 614.041 178.997 612.58 179.1C611.055 179.327 609.52 179.474 607.98 179.54C604.956 179.72 601.922 179.444 598.98 178.72C597.524 178.35 596.113 177.824 594.77 177.15C593.471 176.555 592.292 175.728 591.29 174.71C590.802 174.27 590.459 173.692 590.307 173.053C590.156 172.413 590.202 171.743 590.44 171.13C590.796 170.536 591.27 170.02 591.832 169.614C592.394 169.209 593.033 168.921 593.71 168.77C593.967 168.7 594.186 168.531 594.318 168.299C594.451 168.067 594.485 167.793 594.415 167.535C594.345 167.278 594.175 167.059 593.943 166.927C593.712 166.795 593.437 166.76 593.18 166.83L593.2 166.82Z" fill="#3C3C3B"/>
<path d="M615 139.87C616.66 136.3 620.32 134.38 624 133.47C627.68 132.56 632.28 132.29 635.42 134.75C637.006 136.139 638.133 137.977 638.65 140.02C639.216 141.618 639.337 143.339 639 145C638.88 145.691 638.553 146.329 638.062 146.83C637.57 147.33 636.938 147.668 636.25 147.8C634.67 148.02 633.05 147.12 631.65 146.39C630 145.418 628.193 144.741 626.31 144.39C625.184 144.309 624.053 144.455 622.985 144.819C621.916 145.184 620.932 145.759 620.09 146.51C619.204 147.122 618.494 147.955 618.032 148.928C617.571 149.9 617.373 150.977 617.46 152.05C617.65 153.008 618.061 153.907 618.66 154.678C619.259 155.449 620.029 156.069 620.91 156.49C625.21 158.73 629.67 156.05 632.99 153.3C633.688 152.561 634.528 151.969 635.46 151.56C635.832 151.477 636.221 151.505 636.577 151.642C636.932 151.779 637.24 152.019 637.46 152.33C638.79 154 637.89 156.62 637.19 158.33C635.701 161.937 632.989 164.904 629.53 166.71C625.665 168.662 621.184 169 617.07 167.65C616.045 167.319 615.056 166.883 614.12 166.35C613.891 166.231 613.625 166.204 613.378 166.276C613.13 166.348 612.92 166.513 612.79 166.736C612.661 166.959 612.624 167.224 612.685 167.474C612.746 167.725 612.902 167.942 613.12 168.08C617.316 170.437 622.263 171.075 626.92 169.86C631.161 168.691 634.842 166.036 637.29 162.38C639.46 159.17 642.19 152.65 637.84 149.99C637.362 149.697 636.823 149.518 636.265 149.466C635.706 149.413 635.144 149.49 634.62 149.69C633.543 150.197 632.554 150.872 631.69 151.69C630.017 153.256 628.004 154.413 625.81 155.07C624.899 155.313 623.94 155.318 623.027 155.085C622.113 154.853 621.274 154.39 620.59 153.74C619.956 153.171 619.536 152.402 619.4 151.56C619.347 150.662 619.64 149.778 620.22 149.09C620.872 148.232 621.711 147.533 622.672 147.045C623.633 146.556 624.692 146.292 625.77 146.27C627.56 146.35 629.24 147.37 630.77 148.17C632.3 148.97 634.23 149.93 636.14 149.76C637.074 149.682 637.969 149.352 638.732 148.807C639.494 148.261 640.094 147.519 640.47 146.66C641.195 144.83 641.356 142.823 640.93 140.9C640.528 138.656 639.595 136.541 638.21 134.73C635.35 131.11 630.45 130.45 626.15 131.02C622.09 131.56 617.77 133.08 615 136.24C614.303 137.019 613.724 137.895 613.28 138.84C613.212 138.954 613.167 139.081 613.148 139.212C613.129 139.344 613.137 139.477 613.171 139.606C613.204 139.734 613.263 139.855 613.343 139.96C613.424 140.066 613.525 140.154 613.64 140.22C613.753 140.287 613.879 140.33 614.009 140.348C614.14 140.366 614.272 140.358 614.4 140.325C614.527 140.291 614.646 140.233 614.751 140.153C614.856 140.074 614.944 139.974 615.01 139.86L615 139.87Z" fill="#3C3C3B"/>
<path d="M634.23 118.2C635.599 117.203 637.279 116.725 638.969 116.853C640.658 116.982 642.247 117.707 643.45 118.901C643.748 119.2 644.006 119.536 644.22 119.901C644.342 120.088 644.397 120.311 644.377 120.535C644.357 120.758 644.263 120.967 644.11 121.13C643.503 121.942 642.806 122.68 642.03 123.331C640.5 124.691 638.79 125.821 637.15 127.041C635.147 128.416 633.378 130.104 631.91 132.04C631.843 132.154 631.8 132.28 631.782 132.41C631.764 132.54 631.772 132.673 631.805 132.8C631.839 132.928 631.897 133.047 631.977 133.152C632.056 133.256 632.156 133.344 632.27 133.411C632.384 133.479 632.51 133.523 632.641 133.542C632.773 133.561 632.907 133.553 633.035 133.52C633.164 133.486 633.284 133.427 633.39 133.347C633.495 133.266 633.584 133.166 633.65 133.051C636.3 129.291 640.73 127.341 644 124.221C644.941 123.441 645.704 122.469 646.24 121.371C646.75 120.021 645.99 118.74 645.13 117.74C643.636 116.122 641.607 115.099 639.418 114.861C637.229 114.622 635.027 115.183 633.22 116.441C633.106 116.507 633.006 116.595 632.927 116.699C632.847 116.804 632.789 116.923 632.755 117.051C632.722 117.178 632.714 117.311 632.732 117.441C632.75 117.571 632.793 117.697 632.86 117.81C632.926 117.924 633.014 118.024 633.119 118.104C633.223 118.183 633.343 118.241 633.47 118.275C633.597 118.308 633.73 118.316 633.86 118.298C633.991 118.28 634.116 118.237 634.23 118.17V118.2Z" fill="#3C3C3B"/>
<path d="M620 146.36C617.612 147.751 615.614 149.722 614.19 152.09C614.07 152.318 614.043 152.584 614.115 152.832C614.187 153.079 614.352 153.29 614.575 153.419C614.799 153.548 615.063 153.586 615.314 153.524C615.564 153.463 615.781 153.307 615.92 153.09C616.09 152.81 616.27 152.54 616.45 152.27L616.71 151.91L616.84 151.73C616.91 151.64 616.76 151.83 616.84 151.68C617.239 151.183 617.667 150.709 618.12 150.26C618.34 150.04 618.57 149.83 618.8 149.63L619.14 149.34L619.35 149.17C619.863 148.79 620.397 148.439 620.95 148.12C621.18 147.987 621.349 147.768 621.418 147.511C621.488 147.254 621.452 146.98 621.32 146.75C621.187 146.519 620.968 146.35 620.711 146.281C620.454 146.211 620.18 146.247 619.95 146.38L620 146.36Z" fill="#3C3C3B"/>
<path d="M410.85 189.32C410.85 189.32 404.45 221.32 386.64 223.68C368.83 226.04 337.34 191.11 334.64 174.04C331.94 156.97 344.64 168.62 357.55 187.11C367.73 201.7 384.55 212.35 387.55 203.11C390.55 193.87 392.24 181.3 392.24 181.3C392.24 181.3 395.18 177.12 402.24 178.96C409.3 180.8 410.85 189.32 410.85 189.32Z" fill="url(#paint1_linear_2710_93963)"/>
<path d="M362.71 213.229C362.71 213.229 383 223.599 392.12 212.139C401.24 200.679 391.88 183.309 391.88 183.309L392.74 179.889C392.74 179.889 397.49 175.409 404.37 180.289C411.25 185.169 410.94 189.019 410.94 189.019C410.94 189.019 403.55 210.829 395.68 218.409C387.81 225.989 372.43 221.999 362.71 213.229Z" fill="#686868"/>
<path d="M384.2 223.859C380.2 223.859 375.49 222.319 370.25 219.259C364.162 215.55 358.579 211.07 353.64 205.929C342.64 194.779 334.36 181.649 333.04 173.259C332.19 167.879 332.79 164.859 334.89 164.009C340.4 161.789 352.72 178.369 357.76 185.599C365.54 196.749 377.08 205.449 382.97 204.599C383.683 204.505 384.35 204.198 384.886 203.718C385.421 203.238 385.799 202.608 385.97 201.909C388.97 192.909 390.59 180.409 390.61 180.289V180.039L390.76 179.839C390.89 179.649 394.18 175.109 401.87 177.099C403.512 177.559 405.037 178.362 406.344 179.457C407.651 180.552 408.71 181.913 409.45 183.449C410.258 184.948 410.838 186.559 411.17 188.229V188.409V188.599C409.92 194.277 408.077 199.808 405.67 205.099C400.52 216.269 393.75 222.719 386.11 223.749C385.476 223.826 384.838 223.862 384.2 223.859V223.859ZM336.06 165.799C335.917 165.798 335.775 165.822 335.64 165.869C335.26 166.029 334.08 166.999 335.02 172.949C336.28 180.949 344.34 193.649 355.07 204.519C366.73 216.329 378.25 222.779 385.88 221.749C402.08 219.569 408.63 191.019 409.2 188.389C408.94 187.209 407.25 180.549 401.41 179.039C395.86 177.599 393.19 180.109 392.57 180.819C392.31 182.739 390.66 194.109 387.88 202.529C387.589 203.577 386.996 204.516 386.174 205.227C385.352 205.939 384.338 206.392 383.26 206.529C376.6 207.529 364.42 198.619 356.12 186.709C352.296 181.065 348.015 175.743 343.32 170.799C339 166.479 336.92 165.799 336.06 165.799Z" fill="#313B47"/>
<path d="M516.78 195.92C519.22 194.45 522.54 195.45 524.55 197.46C526.56 199.47 527.55 202.25 528.55 204.93C530.99 211.876 533.323 218.876 535.55 225.93C540.816 242.663 545.44 259.583 549.42 276.69C551.42 285.23 553.24 293.806 554.88 302.42C555.6 306.16 556.26 312.64 556.78 316.36C556.78 316.36 557.55 332.68 557.7 336.53C557.85 340.38 558.01 344.53 558.01 344.53L544.01 345.3L543.86 324.81C542.78 319.46 542.69 314.04 541.86 308.67C536.255 274.454 527.484 240.833 515.66 208.24C514 204 512.93 198.23 516.78 195.92Z" fill="url(#paint2_linear_2710_93963)"/>
<path d="M523.17 203.76C523.17 203.76 552.89 294.61 550.89 347.12C550.89 347.12 544.82 347.78 544.73 344.35C544.27 327.26 540.42 297.85 533.18 266.43C528.478 246.439 522.615 226.738 515.62 207.43L523.17 203.76Z" fill="#686868"/>
<path d="M558.17 344.31C558.648 340.701 558.822 337.058 558.69 333.42C558.6 329.1 558.3 324.79 557.9 320.5C557.25 313.4 556.37 306.3 555.21 299.27C554.54 295.21 553.63 291.18 552.76 287.16C551.366 280.727 549.886 274.316 548.32 267.93C545.2 255.21 541.713 242.59 537.86 230.07C535.953 223.863 533.953 217.683 531.86 211.53C530.86 208.53 529.86 205.53 528.73 202.59C527.902 200.022 526.383 197.731 524.34 195.97C523.376 195.183 522.235 194.643 521.015 194.395C519.796 194.148 518.534 194.201 517.34 194.55C516.329 194.921 515.431 195.545 514.73 196.363C514.03 197.18 513.551 198.164 513.34 199.22C512.96 201.487 513.111 203.811 513.78 206.01C514.49 208.72 515.59 211.35 516.52 214.01C520.78 226.117 524.613 238.36 528.02 250.74C531.426 263.12 534.42 275.54 537 288C538.286 294.333 539.463 300.687 540.53 307.06C540.68 307.97 540.84 308.88 540.97 309.79C541.02 310.07 540.97 309.79 540.97 309.91C540.975 310.016 540.975 310.123 540.97 310.23C540.97 310.48 541.04 310.74 541.07 311C541.24 312.4 541.39 313.81 541.53 315.21C542.38 323.42 543.12 331.65 543.62 339.88C543.72 341.52 543.81 343.16 543.86 344.8C543.86 346.09 545.86 346.1 545.86 344.8C545.6 336.91 544.86 329.01 544.11 321.15C543.8 317.85 543.48 314.55 543.11 311.26C542.61 307.03 541.8 302.85 541.03 298.67C538.79 286.317 536.123 274.057 533.03 261.89C529.936 249.723 526.46 237.63 522.6 225.61C520.6 219.61 518.6 213.7 516.46 207.77C515.33 204.59 513.59 198.48 517.66 196.58C519.74 195.58 522.32 196.66 523.84 198.17C525.76 200.07 526.69 202.71 527.56 205.17C529.68 211.17 531.713 217.233 533.66 223.36C537.573 235.6 541.14 247.933 544.36 260.36C547.55 272.69 550.46 285.1 552.9 297.6C553.98 303.16 554.65 308.83 555.28 314.46C556.369 322.639 556.82 330.891 556.63 339.14C556.581 340.673 556.448 342.202 556.23 343.72C556.195 343.847 556.186 343.98 556.203 344.111C556.22 344.242 556.262 344.368 556.328 344.483C556.394 344.597 556.482 344.697 556.587 344.777C556.692 344.858 556.812 344.916 556.94 344.95C557.066 344.985 557.199 344.994 557.329 344.978C557.46 344.962 557.586 344.92 557.7 344.855C557.814 344.79 557.914 344.703 557.995 344.599C558.076 344.495 558.135 344.377 558.17 344.25V344.31Z" fill="#313B47"/>
<path d="M529.53 207.609C529.53 207.609 527.79 196.109 521.42 195.389C515.05 194.669 513.93 200.209 515.42 205.959C516.91 211.709 520.86 222.489 520.86 222.489C520.86 222.489 517 203.289 529.53 207.609Z" fill="black"/>
<path d="M568.29 369.27C575.205 371.12 582.386 371.769 589.52 371.19C589.776 370.906 590.004 370.597 590.2 370.27C590.582 369.473 590.915 368.655 591.2 367.82L580.92 355.5L537.1 355.1C537.1 355.1 536.19 355.79 537.1 357.4C536.683 357.618 536.344 357.96 536.129 358.379C535.914 358.798 535.834 359.273 535.9 359.74C542.56 363.26 550.4 364.09 557.73 366.09C561.29 367.06 564.74 368.32 568.29 369.27Z" fill="#939286"/>
<path d="M589.52 371.19C582.386 371.77 575.205 371.12 568.29 369.27C564.74 368.32 561.29 367.06 557.75 366.09C550.42 364.09 542.58 363.26 535.92 359.74C535.915 359.807 535.915 359.874 535.92 359.94C535.906 361.24 535.415 362.489 534.54 363.45C537.524 365.031 540.715 366.186 544.02 366.88C548.24 367.88 552.55 368.41 556.75 369.47C559.59 370.19 562.38 371.14 565.23 371.86C572.7 373.74 580.481 374.029 588.07 372.71C588.45 372.35 589 371.75 589.52 371.19Z" fill="#E5E4C8"/>
<path d="M565.24 371.859C562.39 371.139 559.6 370.189 556.76 369.469C552.56 368.409 548.25 367.849 544.03 366.879C540.725 366.185 537.534 365.03 534.55 363.449C534.388 363.635 534.244 363.836 534.12 364.049C534.01 364.399 532.97 366.859 537.8 368.669C542.63 370.479 548.59 369.809 556.26 372.569C563.93 375.329 577.26 376.149 582.11 375.049C586.96 373.949 587.74 373.049 587.74 373.049L588.08 372.719C580.49 374.035 572.709 373.742 565.24 371.859V371.859Z" fill="white"/>
<path d="M538.81 341.389C538.81 341.389 537.34 344.499 538.03 347.129C538.72 349.759 536.1 348.359 537.53 354.899C537.53 354.899 551.89 358.899 556.22 361.949C560.55 364.999 572.37 365.699 579.07 367.859C583.133 369.131 587.518 368.893 591.42 367.189C591.42 367.189 592.5 362.759 596.29 362.319C600.08 361.879 600.34 362.539 600.34 362.539C600.34 362.539 600.03 359.769 593.17 357.049C587.292 354.578 581.711 351.455 576.53 347.739C574.53 346.179 565.99 337.409 564.96 336.669C563.93 335.929 561.85 332.819 556.11 339.159C550.37 345.499 548.45 348.449 545.11 343.069C543 339.539 543.42 337.389 538.81 341.389Z" fill="#999698"/>
<path d="M595.29 362.54C592.1 363.79 592.05 364.16 591.42 367.19C590.79 370.22 588.48 371.01 588.08 372.71C587.68 374.41 589.28 374.88 592.89 373.52C596.5 372.16 599.46 372.03 600.34 367.76C601.22 363.49 601.05 360.29 595.29 362.54Z" fill="#575756"/>
<path d="M538 347.5L541.64 350.67C541.64 350.67 543.35 349.25 547.84 351.42C552.33 353.59 566.16 356.71 568.07 357.42C569.98 358.13 580.93 361.14 582.35 361.82C583.77 362.5 589.35 364.73 589.35 364.73C589.35 364.73 572.91 363.73 567.12 362.95C561.33 362.17 554.84 361.46 554.84 361.46C554.84 361.46 550.3 357.68 537.16 355.13C537.1 355.1 536.44 352.23 538 347.5Z" fill="#D9D7DA"/>
<path d="M567.06 343.07C567.06 343.07 560.36 343.46 560.06 344.23C559.76 345 563.62 345.29 565.63 344.91C567.64 344.53 564.2 347.86 563.92 348.58C563.64 349.3 564.15 350.85 566.59 347.74C569.03 344.63 569 345 569 345L574.07 345.26L571.55 343.03L568.86 341L567.06 343.07Z" fill="#D9D7DA"/>
<path d="M572.82 348C572.82 348 566.53 348.39 566.27 349.16C566.01 349.93 569.6 350.22 571.5 349.84C573.4 349.46 570.15 352.79 569.88 353.51C569.61 354.23 570.1 355.78 572.39 352.67C574.68 349.56 574.1 349.94 574.1 349.94L579.42 350.23L577.06 348L574.5 345.93L572.82 348Z" fill="#D9D7DA"/>
<path d="M579.14 352C579.14 352 573.14 352.38 572.88 353.12C572.62 353.86 576.07 354.12 577.88 353.78C579.69 353.44 576.6 356.62 576.34 357.32C576.08 358.02 576.55 359.51 578.74 356.51C580.93 353.51 580.91 353.9 580.91 353.9L585.46 354.15L583.2 352L580.76 350L579.14 352Z" fill="#D9D7DA"/>
<path d="M537.92 354.789C537.352 353.237 537.328 351.537 537.85 349.969C538.092 349.168 538.269 348.349 538.38 347.519C538.45 346.679 538.38 345.839 538.38 344.989C538.38 343.359 538.63 341.689 540.05 340.669C540.573 340.26 541.228 340.057 541.89 340.099C542.246 340.167 542.584 340.309 542.882 340.516C543.18 340.723 543.431 340.989 543.62 341.299C544.292 342.509 545.079 343.651 545.97 344.709C546.434 345.192 547 345.566 547.625 345.805C548.251 346.043 548.922 346.14 549.59 346.089C552.22 345.769 553.59 343.089 555 341.089C555.915 339.792 557.037 338.654 558.32 337.719C559.46 336.899 560.9 335.899 562.32 335.919C562.885 335.971 563.433 336.139 563.931 336.413C564.428 336.687 564.863 337.06 565.21 337.509C566.14 338.509 566.96 339.509 567.88 340.509C572.598 345.509 578.043 349.77 584.03 353.149C586.852 354.767 589.794 356.164 592.83 357.329C595.04 358.159 597.59 358.889 599.03 360.909C599.394 361.436 599.689 362.008 599.91 362.609C600.08 363.089 600.86 362.879 600.68 362.399C600.268 361.196 599.556 360.119 598.61 359.269C597.708 358.532 596.696 357.941 595.61 357.519C594.32 356.979 593 356.519 591.71 356.009C590.083 355.342 588.48 354.596 586.9 353.769C580.517 350.495 574.692 346.232 569.64 341.139C568.53 340.009 567.49 338.839 566.46 337.639C565.748 336.686 564.824 335.912 563.76 335.379C563.151 335.161 562.502 335.079 561.857 335.138C561.213 335.196 560.59 335.395 560.03 335.719C558.6 336.443 557.288 337.38 556.14 338.499C555.104 339.587 554.177 340.772 553.37 342.039C552.694 343.207 551.743 344.192 550.6 344.909C549.939 345.223 549.195 345.319 548.476 345.182C547.757 345.045 547.1 344.684 546.6 344.149C545.51 343.149 545.02 341.749 544.12 340.599C543.739 340.046 543.188 339.634 542.55 339.424C541.913 339.215 541.224 339.22 540.59 339.439C539.953 339.686 539.379 340.072 538.911 340.571C538.444 341.07 538.095 341.667 537.89 342.319C537.35 344.029 537.74 345.819 537.55 347.569C537.36 349.319 536.62 350.779 536.63 352.479C536.633 353.331 536.807 354.175 537.14 354.959C537.33 355.439 538.14 355.229 537.91 354.749L537.92 354.789Z" fill="#27273D"/>
<path d="M591.9 364.889C591.469 365.75 591.133 366.655 590.9 367.589C590.702 368.483 590.343 369.334 589.84 370.099C589.389 370.582 588.904 371.033 588.39 371.449C587.937 371.797 587.591 372.265 587.39 372.799C587.36 372.992 587.369 373.188 587.415 373.377C587.461 373.566 587.544 373.744 587.659 373.901C587.774 374.058 587.92 374.191 588.086 374.292C588.253 374.393 588.438 374.46 588.63 374.489C589.632 374.65 590.658 374.581 591.63 374.289C593.573 373.838 595.459 373.167 597.25 372.289C598.112 371.923 598.885 371.377 599.52 370.689C600.083 369.964 600.47 369.119 600.65 368.219C600.9 367.182 601.05 366.124 601.1 365.059C601.265 364.145 601.121 363.202 600.69 362.379C599.81 361.159 597.76 361.599 596.53 361.879C595.594 362.054 594.703 362.414 593.908 362.938C593.113 363.461 592.43 364.138 591.9 364.929C591.863 365.02 591.86 365.122 591.892 365.215C591.924 365.308 591.988 365.387 592.073 365.436C592.158 365.486 592.258 365.504 592.355 365.486C592.451 365.468 592.538 365.416 592.6 365.339C593.484 364.001 594.86 363.067 596.43 362.739C596.975 362.593 597.53 362.486 598.09 362.419C598.687 362.3 599.307 362.384 599.85 362.659C600.49 363.129 600.34 364.279 600.3 364.959C600.26 365.932 600.129 366.9 599.91 367.849C599.768 368.698 599.425 369.5 598.91 370.189C598.306 370.812 597.581 371.305 596.78 371.639C595.284 372.36 593.724 372.939 592.12 373.369C591.23 373.652 590.304 373.804 589.37 373.819C588.93 373.819 588.09 373.689 588.15 373.069C588.21 372.449 588.94 372.069 589.28 371.759C589.743 371.399 590.166 370.99 590.54 370.539C591.64 368.999 591.69 366.969 592.61 365.339C592.85 364.849 592.15 364.439 591.9 364.889Z" fill="#27273D"/>
<path d="M537.47 354.55C537.216 354.697 536.995 354.895 536.821 355.131C536.647 355.368 536.523 355.637 536.457 355.923C536.391 356.209 536.385 356.506 536.439 356.794C536.493 357.083 536.606 357.357 536.77 357.6L536.92 357.05C536.53 357.254 536.2 357.558 535.965 357.93C535.73 358.302 535.597 358.73 535.58 359.17C535.557 359.743 535.503 360.313 535.42 360.88C535.278 361.379 535.044 361.847 534.73 362.26C534.127 362.97 533.72 363.825 533.55 364.74C533.547 365.194 533.633 365.645 533.805 366.065C533.977 366.486 534.23 366.868 534.55 367.19C535.646 368.232 537.01 368.948 538.49 369.26C540.165 369.669 541.865 369.963 543.58 370.14C547.966 370.872 552.306 371.854 556.58 373.08C561.461 374.362 566.437 375.248 571.46 375.73C577.029 376.294 582.655 375.726 588 374.06C588.48 373.89 588.27 373.12 587.78 373.28C578.62 376.34 568.78 375.07 559.54 372.94C557.11 372.38 554.7 371.76 552.29 371.15C550.29 370.63 548.21 370.02 546.13 369.68C543.06 369.18 539.69 369.17 536.84 367.79C536.142 367.484 535.522 367.022 535.03 366.44C534.646 366.008 534.42 365.458 534.39 364.88C534.44 364.359 534.63 363.862 534.94 363.44C535.583 362.653 536.047 361.735 536.3 360.75C536.45 359.75 536.19 358.24 537.36 357.75C537.451 357.696 537.518 357.608 537.546 357.506C537.574 357.403 537.561 357.293 537.51 357.2C537.397 357.049 537.318 356.876 537.278 356.692C537.238 356.508 537.237 356.317 537.276 356.133C537.314 355.948 537.392 355.774 537.503 355.622C537.614 355.47 537.756 355.343 537.92 355.25C538.011 355.196 538.078 355.107 538.104 355.004C538.13 354.901 538.114 354.792 538.06 354.7C538.006 354.609 537.917 354.543 537.814 354.516C537.711 354.49 537.601 354.506 537.51 354.56L537.47 354.55Z" fill="#27273D"/>
<path d="M537.18 355.479L542.72 357.059C544.53 357.569 546.36 358.059 548.13 358.699C549.838 359.365 551.507 360.126 553.13 360.979C554.71 361.764 556.328 362.468 557.98 363.089C561.354 364.313 564.805 365.315 568.31 366.089C571.87 366.899 575.45 367.699 579.05 368.309C583.109 369.114 587.289 369.094 591.34 368.249C591.85 368.129 591.63 367.349 591.13 367.469C587.51 368.244 583.775 368.312 580.13 367.669C576.51 367.119 572.92 366.289 569.35 365.499C565.898 364.766 562.492 363.832 559.15 362.699C557.471 362.124 555.825 361.456 554.22 360.699C552.65 359.939 551.11 359.119 549.5 358.449C547.57 357.705 545.601 357.071 543.6 356.549L537.39 354.789C537.29 354.769 537.187 354.788 537.101 354.841C537.015 354.894 536.952 354.978 536.925 355.076C536.899 355.174 536.91 355.278 536.957 355.368C537.004 355.457 537.084 355.526 537.18 355.559V355.479Z" fill="#27273D"/>
<path d="M542.73 356.549C541.826 355.387 541.244 354.008 541.04 352.549C540.92 350.929 542.41 350.439 543.78 350.549C545.464 350.868 547.103 351.392 548.66 352.109C550.48 352.776 552.316 353.383 554.17 353.929C561.66 356.219 569.31 357.929 576.78 360.259C580.998 361.543 585.11 363.151 589.08 365.069L589.29 364.319C580.43 363.906 571.566 363.133 562.7 361.999C560.193 361.666 557.686 361.313 555.18 360.939C554.68 360.859 554.46 361.629 554.97 361.709C563.83 363.043 572.733 364.043 581.68 364.709C584.22 364.889 586.75 365.049 589.29 365.179C589.379 365.181 589.466 365.152 589.537 365.099C589.609 365.045 589.66 364.969 589.683 364.883C589.706 364.796 589.699 364.705 589.664 364.623C589.629 364.541 589.568 364.473 589.49 364.429C582.08 360.769 574.09 358.579 566.14 356.429C562.14 355.359 558.14 354.309 554.14 353.089C552.18 352.489 550.233 351.823 548.3 351.089C546.723 350.346 545.033 349.873 543.3 349.689C541.76 349.689 540.3 350.519 540.22 352.199C540.299 353.946 540.921 355.624 542 356.999C542.29 357.419 543 356.999 542.69 356.599L542.73 356.549Z" fill="#27273D"/>
<path d="M541.91 349.83L538.32 346.83C538.244 346.756 538.141 346.715 538.035 346.715C537.929 346.715 537.827 346.756 537.75 346.83C537.677 346.905 537.636 347.005 537.636 347.11C537.636 347.215 537.677 347.315 537.75 347.39L541.34 350.39C541.416 350.466 541.518 350.508 541.625 350.508C541.732 350.508 541.834 350.466 541.91 350.39C541.986 350.315 542.028 350.212 542.028 350.105C542.028 349.998 541.986 349.896 541.91 349.82V349.83Z" fill="#27273D"/>
<path d="M571.07 342.929C569.262 342.706 567.44 342.623 565.62 342.679C564.62 342.679 563.73 342.779 562.79 342.889L561.62 343.039C561.165 343.075 560.715 343.162 560.28 343.299C560.157 343.353 560.046 343.431 559.953 343.529C559.861 343.627 559.79 343.742 559.743 343.868C559.696 343.994 559.675 344.128 559.682 344.262C559.688 344.397 559.721 344.528 559.78 344.649C559.926 344.913 560.145 345.13 560.411 345.272C560.677 345.414 560.979 345.475 561.28 345.449C562.17 345.449 563.08 345.359 563.97 345.329C564.86 345.299 565.8 345.329 566.71 345.329C568.822 345.388 570.929 345.571 573.02 345.879C573.53 345.959 573.75 345.179 573.24 345.109C571.272 344.808 569.289 344.621 567.3 344.549C565.3 344.469 563.39 344.619 561.43 344.649C561.22 344.649 560.29 344.589 560.49 344.139C560.57 343.949 561.09 343.929 561.25 343.909L562.03 343.789C563.03 343.649 564.03 343.559 565.03 343.509C567.033 343.413 569.04 343.49 571.03 343.739C571.54 343.799 571.54 342.989 571.03 342.929H571.07Z" fill="#27273D"/>
<path d="M567.41 342.889C567.47 342.799 567.41 342.889 567.41 342.889L567.46 342.829C567.491 342.781 567.528 342.738 567.57 342.699L567.78 342.449L568.24 341.969L568.73 341.539L568.86 341.439C568.92 341.389 568.86 341.439 568.86 341.439H568.92L569.2 341.239C569.249 341.215 569.294 341.181 569.33 341.14C569.366 341.098 569.393 341.049 569.409 340.996C569.425 340.944 569.43 340.888 569.424 340.833C569.418 340.779 569.4 340.726 569.373 340.678C569.345 340.63 569.308 340.589 569.263 340.556C569.219 340.523 569.168 340.5 569.114 340.488C569.06 340.476 569.005 340.475 568.951 340.486C568.896 340.496 568.845 340.518 568.8 340.549C567.994 341.102 567.279 341.777 566.68 342.549C566.628 342.642 566.615 342.752 566.643 342.855C566.671 342.957 566.738 343.045 566.83 343.099C566.922 343.149 567.03 343.162 567.132 343.136C567.234 343.11 567.322 343.047 567.38 342.959L567.41 342.889Z" fill="#27273D"/>
<path d="M566 344.931C564.87 346.267 564.023 347.818 563.51 349.491C563.486 349.575 563.491 349.665 563.524 349.746C563.556 349.827 563.615 349.896 563.69 349.941C563.919 350.086 564.183 350.17 564.454 350.184C564.726 350.198 564.996 350.142 565.24 350.021C565.744 349.754 566.171 349.361 566.48 348.881L568.88 345.691C568.932 345.599 568.946 345.49 568.92 345.388C568.894 345.285 568.829 345.197 568.74 345.141C568.648 345.089 568.539 345.074 568.437 345.1C568.334 345.126 568.246 345.191 568.19 345.281L566.11 348.051C565.7 348.581 564.92 349.831 564.11 349.251L564.29 349.701C564.763 348.163 565.538 346.735 566.57 345.501C566.644 345.424 566.685 345.322 566.685 345.216C566.685 345.109 566.644 345.007 566.57 344.931C566.495 344.857 566.394 344.816 566.29 344.816C566.185 344.816 566.084 344.857 566.01 344.931H566Z" fill="#27273D"/>
<path d="M577.4 347.94C575.573 347.708 573.73 347.621 571.89 347.68C570.95 347.68 570.01 347.76 569.07 347.86C568.66 347.86 568.25 347.94 567.85 348C567.408 348.024 566.971 348.105 566.55 348.24C566.398 348.314 566.269 348.426 566.172 348.564C566.075 348.702 566.015 348.862 565.997 349.03C565.979 349.198 566.004 349.367 566.069 349.523C566.134 349.678 566.238 349.815 566.37 349.92C566.95 350.48 567.92 350.27 568.65 350.24C570.4 350.15 572.16 350.16 573.91 350.24C575.871 350.274 577.829 350.434 579.77 350.72C580.28 350.81 580.5 350.03 579.99 349.95C576.977 349.509 573.933 349.321 570.89 349.39C570.16 349.39 569.44 349.39 568.71 349.45L567.71 349.5C567.531 349.53 567.348 349.53 567.17 349.5C566.93 349.5 566.58 349.21 566.9 348.99C567.242 348.877 567.6 348.82 567.96 348.82L569.18 348.68C570.006 348.606 570.836 348.556 571.67 348.53C573.493 348.458 575.318 348.531 577.13 348.75C577.64 348.82 577.86 348.05 577.35 347.98L577.4 347.94Z" fill="#27273D"/>
<path d="M572.75 347.94C572.81 347.87 572.86 347.77 572.93 347.7L572.98 347.64C573.008 347.599 573.041 347.562 573.08 347.53C573.202 347.376 573.332 347.229 573.47 347.09C573.6 346.96 573.74 346.82 573.89 346.69L574.12 346.5C574.12 346.5 574.19 346.44 574.12 346.5L574.19 346.45C574.272 346.389 574.334 346.306 574.37 346.21C574.392 346.161 574.404 346.108 574.404 346.055C574.404 346.001 574.392 345.948 574.37 345.9C574.315 345.808 574.228 345.742 574.125 345.714C574.022 345.686 573.913 345.699 573.82 345.75C573.115 346.273 572.497 346.904 571.99 347.62C571.938 347.713 571.925 347.823 571.953 347.925C571.981 348.028 572.048 348.116 572.14 348.17C572.231 348.221 572.339 348.233 572.44 348.205C572.541 348.177 572.627 348.111 572.68 348.02L572.75 347.94Z" fill="#27273D"/>
<path d="M571.5 349.779C570.523 351.031 569.8 352.461 569.37 353.989C569.347 354.074 569.352 354.163 569.384 354.245C569.417 354.326 569.475 354.394 569.55 354.439C569.757 354.578 569.997 354.658 570.245 354.67C570.494 354.682 570.741 354.627 570.96 354.509C571.396 354.254 571.761 353.893 572.02 353.459L574.07 350.529C574.122 350.437 574.137 350.329 574.111 350.226C574.084 350.124 574.02 350.035 573.93 349.979C573.836 349.931 573.728 349.919 573.626 349.947C573.524 349.975 573.436 350.04 573.38 350.129L571.6 352.669C571.29 353.109 570.6 354.259 569.96 353.749L570.14 354.199C570.527 352.803 571.183 351.495 572.07 350.349C572.14 350.271 572.178 350.169 572.178 350.064C572.178 349.959 572.14 349.858 572.07 349.779C571.994 349.705 571.891 349.664 571.785 349.664C571.679 349.664 571.576 349.705 571.5 349.779V349.779Z" fill="#27273D"/>
<path d="M584.26 352.291C582.492 352.118 580.715 352.054 578.94 352.101C577.15 352.119 575.363 352.252 573.59 352.501C573.217 352.498 572.858 352.641 572.59 352.901C572.49 353.048 572.436 353.223 572.436 353.401C572.436 353.579 572.49 353.753 572.59 353.901C573.04 354.701 574.14 354.501 574.9 354.461C576.68 354.361 578.48 354.341 580.26 354.371C582.265 354.375 584.269 354.499 586.26 354.741C586.77 354.801 586.77 354.001 586.26 353.931C583.11 353.569 579.937 353.452 576.77 353.581C576.05 353.581 575.33 353.581 574.61 353.671C574.28 353.671 573.61 353.841 573.35 353.611C573.09 353.381 574.02 353.251 574.21 353.221C575.786 353.033 577.372 352.929 578.96 352.911C580.712 352.874 582.465 352.938 584.21 353.101C584.73 353.161 584.72 352.361 584.21 352.301L584.26 352.291Z" fill="#27273D"/>
<path d="M579.16 352.46C579.396 352.175 579.653 351.907 579.93 351.66L580.14 351.48L580.25 351.39L580.73 351.05C580.821 350.996 580.888 350.908 580.916 350.806C580.944 350.703 580.931 350.594 580.88 350.5C580.822 350.413 580.734 350.349 580.632 350.324C580.53 350.298 580.423 350.311 580.33 350.36C579.657 350.79 579.054 351.32 578.54 351.93C578.466 352.01 578.424 352.113 578.42 352.22C578.423 352.326 578.466 352.425 578.54 352.5C578.616 352.574 578.719 352.616 578.825 352.616C578.931 352.616 579.033 352.574 579.11 352.5L579.16 352.46Z" fill="#27273D"/>
<path d="M577.94 353.921C576.973 354.99 576.235 356.246 575.77 357.611C575.747 357.695 575.751 357.785 575.784 357.866C575.816 357.947 575.875 358.016 575.95 358.061C576.151 358.179 576.377 358.249 576.61 358.263C576.843 358.277 577.076 358.235 577.29 358.141C577.721 357.943 578.093 357.636 578.37 357.251C579.06 356.401 579.75 355.541 580.45 354.691C580.519 354.612 580.558 354.511 580.558 354.406C580.558 354.301 580.519 354.199 580.45 354.121C580.373 354.047 580.271 354.005 580.165 354.005C580.059 354.005 579.956 354.047 579.88 354.121L578 356.391C577.65 356.811 577 357.801 576.32 357.391L576.5 357.841C576.933 356.603 577.613 355.467 578.5 354.501C578.85 354.121 578.28 353.501 577.93 353.941L577.94 353.921Z" fill="#27273D"/>
<path d="M543.67 356.92C543.635 356.92 543.601 356.911 543.571 356.893C543.541 356.876 543.516 356.85 543.5 356.82C543.5 356.82 543.28 356.44 543.04 355.91C543.028 355.885 543.022 355.859 543.02 355.832C543.019 355.805 543.023 355.779 543.033 355.753C543.042 355.728 543.056 355.705 543.075 355.686C543.093 355.666 543.115 355.65 543.14 355.64C543.189 355.619 543.245 355.618 543.295 355.636C543.345 355.655 543.386 355.692 543.41 355.74C543.542 356.04 543.688 356.334 543.85 356.62C543.875 356.668 543.881 356.724 543.866 356.776C543.851 356.828 543.817 356.872 543.77 356.9L543.67 356.92Z" fill="#27273D"/>
<path d="M586 364.259H585.95L583.95 363.749C583.924 363.743 583.9 363.731 583.879 363.715C583.858 363.7 583.84 363.68 583.827 363.657C583.813 363.634 583.804 363.609 583.801 363.583C583.797 363.557 583.798 363.53 583.805 363.504C583.811 363.479 583.823 363.455 583.839 363.434C583.855 363.412 583.875 363.395 583.897 363.381C583.92 363.368 583.945 363.359 583.971 363.355C583.998 363.351 584.024 363.353 584.05 363.359L586.05 363.869C586.1 363.883 586.144 363.916 586.171 363.96C586.199 364.005 586.209 364.058 586.2 364.109C586.187 364.153 586.161 364.19 586.125 364.217C586.089 364.244 586.045 364.259 586 364.259ZM582 363.259L580 362.729C579.974 362.724 579.95 362.713 579.929 362.697C579.908 362.682 579.891 362.662 579.878 362.64C579.865 362.617 579.856 362.592 579.853 362.566C579.85 362.541 579.852 362.514 579.86 362.489C579.867 362.464 579.879 362.439 579.895 362.418C579.912 362.397 579.932 362.38 579.955 362.367C579.979 362.354 580.004 362.345 580.031 362.342C580.057 362.339 580.084 362.342 580.11 362.349L582.11 362.869C582.16 362.886 582.203 362.92 582.229 362.967C582.255 363.013 582.263 363.068 582.25 363.119C582.232 363.168 582.196 363.207 582.149 363.23C582.102 363.252 582.049 363.256 582 363.239V363.259ZM578.07 362.189H578L576.82 361.839C576.65 361.779 576.38 361.709 576.05 361.619C575.997 361.605 575.952 361.571 575.924 361.525C575.896 361.478 575.888 361.422 575.9 361.369C575.916 361.319 575.951 361.276 575.997 361.25C576.044 361.224 576.098 361.217 576.15 361.229L576.95 361.459L578.11 361.809C578.154 361.819 578.194 361.844 578.222 361.88C578.25 361.915 578.265 361.959 578.265 362.004C578.265 362.05 578.25 362.094 578.222 362.129C578.194 362.165 578.154 362.189 578.11 362.199L578.07 362.189ZM574.07 361.129L572.07 360.659C572.044 360.653 572.02 360.643 571.999 360.627C571.977 360.612 571.959 360.593 571.945 360.57C571.931 360.548 571.922 360.523 571.917 360.497C571.913 360.472 571.914 360.445 571.92 360.419C571.926 360.394 571.937 360.37 571.952 360.348C571.967 360.327 571.986 360.309 572.009 360.295C572.031 360.281 572.056 360.271 572.082 360.267C572.108 360.263 572.134 360.263 572.16 360.269L574.16 360.739C574.185 360.745 574.21 360.756 574.231 360.771C574.252 360.787 574.271 360.806 574.285 360.828C574.299 360.851 574.308 360.875 574.312 360.901C574.317 360.927 574.316 360.954 574.31 360.979C574.296 361.016 574.272 361.049 574.24 361.072C574.208 361.095 574.169 361.108 574.13 361.109L574.07 361.129ZM570.07 360.189L568.07 359.719C568.044 359.713 568.02 359.703 567.999 359.687C567.977 359.672 567.959 359.653 567.945 359.63C567.931 359.608 567.922 359.583 567.917 359.557C567.913 359.532 567.914 359.505 567.92 359.479C567.926 359.454 567.937 359.43 567.952 359.408C567.967 359.387 567.986 359.369 568.009 359.355C568.031 359.341 568.056 359.331 568.082 359.327C568.108 359.323 568.134 359.323 568.16 359.329L570.16 359.799C570.21 359.813 570.254 359.846 570.281 359.89C570.309 359.935 570.319 359.988 570.31 360.039C570.298 360.072 570.277 360.101 570.251 360.123C570.225 360.146 570.194 360.162 570.16 360.169L570.07 360.189ZM566.07 359.249H566.02L564.02 358.769C563.969 358.755 563.926 358.723 563.898 358.678C563.871 358.634 563.86 358.581 563.87 358.529C563.884 358.477 563.918 358.432 563.965 358.404C564.011 358.376 564.067 358.367 564.12 358.379L566.12 358.859C566.171 358.876 566.215 358.91 566.242 358.956C566.27 359.002 566.28 359.057 566.27 359.109C566.258 359.158 566.23 359.2 566.19 359.229L566.07 359.249ZM562.07 358.249H562.02L560.02 357.729C559.969 357.715 559.926 357.683 559.898 357.638C559.871 357.594 559.86 357.541 559.87 357.489C559.884 357.437 559.918 357.392 559.965 357.364C560.011 357.336 560.067 357.327 560.12 357.339C560.75 357.519 561.41 357.689 562.12 357.859C562.173 357.859 562.224 357.88 562.261 357.918C562.299 357.955 562.32 358.006 562.32 358.059C562.32 358.112 562.299 358.163 562.261 358.201C562.224 358.238 562.173 358.259 562.12 358.259L562.07 358.249ZM558.13 357.179C557.37 356.949 556.71 356.739 556.13 356.559C556.105 356.55 556.082 356.537 556.062 356.519C556.042 356.501 556.026 356.479 556.015 356.455C556.004 356.43 555.998 356.404 555.997 356.378C555.996 356.351 556 356.324 556.01 356.299C556.018 356.275 556.03 356.252 556.048 356.232C556.065 356.212 556.085 356.196 556.109 356.185C556.132 356.174 556.158 356.168 556.184 356.167C556.21 356.166 556.236 356.17 556.26 356.179C556.8 356.359 557.45 356.569 558.2 356.789C558.226 356.796 558.25 356.808 558.271 356.825C558.292 356.841 558.31 356.862 558.323 356.885C558.336 356.908 558.344 356.934 558.347 356.96C558.35 356.987 558.347 357.014 558.34 357.039C558.341 357.091 558.323 357.14 558.29 357.179H558.13ZM554.3 355.789H554.22L552.35 354.979C552.304 354.957 552.268 354.919 552.25 354.871C552.231 354.824 552.232 354.771 552.251 354.724C552.27 354.677 552.306 354.639 552.353 354.617C552.399 354.596 552.452 354.593 552.5 354.609L554.38 355.419C554.427 355.441 554.464 355.481 554.483 355.529C554.501 355.578 554.5 355.632 554.48 355.679C554.484 355.717 554.477 355.756 554.46 355.789H554.3ZM550.54 354.199H550.47L548.58 353.449C548.555 353.44 548.532 353.427 548.512 353.409C548.492 353.391 548.476 353.369 548.465 353.345C548.454 353.32 548.448 353.294 548.447 353.268C548.446 353.241 548.45 353.214 548.46 353.189C548.48 353.14 548.518 353.101 548.567 353.081C548.616 353.06 548.671 353.06 548.72 353.079C549.34 353.309 549.98 353.569 550.62 353.829C550.669 353.849 550.708 353.888 550.729 353.937C550.749 353.985 550.75 354.04 550.73 354.089C550.73 354.128 550.72 354.166 550.7 354.199H550.54ZM542.39 354.109C542.344 354.108 542.299 354.092 542.263 354.063C542.226 354.034 542.201 353.994 542.19 353.949C542.131 353.676 542.098 353.399 542.09 353.119C542.067 352.878 542.107 352.635 542.207 352.413C542.307 352.192 542.463 352.001 542.66 351.859C542.705 351.83 542.76 351.82 542.812 351.831C542.865 351.843 542.911 351.874 542.94 351.919C542.969 351.964 542.979 352.019 542.968 352.072C542.957 352.124 542.925 352.17 542.88 352.199C542.742 352.306 542.634 352.447 542.567 352.609C542.501 352.77 542.477 352.946 542.5 353.119C542.504 353.369 542.534 353.617 542.59 353.859C542.599 353.912 542.587 353.967 542.558 354.011C542.528 354.056 542.482 354.087 542.43 354.099L542.39 354.109ZM546.73 352.759H546.67C546.015 352.539 545.347 352.359 544.67 352.219C544.619 352.205 544.576 352.173 544.548 352.128C544.521 352.084 544.51 352.031 544.52 351.979C544.526 351.954 544.537 351.93 544.552 351.908C544.567 351.887 544.586 351.869 544.609 351.855C544.631 351.841 544.656 351.831 544.682 351.827C544.708 351.823 544.734 351.823 544.76 351.829C545.437 351.974 546.104 352.157 546.76 352.379C546.81 352.395 546.852 352.431 546.876 352.478C546.901 352.524 546.906 352.579 546.89 352.629C546.904 352.672 546.904 352.717 546.89 352.759H546.73Z" fill="#27273D"/>
<path d="M588.85 364.999H588.8L587.8 364.749C587.774 364.743 587.751 364.732 587.73 364.717C587.709 364.702 587.691 364.682 587.678 364.659C587.665 364.637 587.656 364.612 587.653 364.586C587.65 364.56 587.652 364.534 587.66 364.509C587.664 364.483 587.675 364.458 587.689 364.436C587.704 364.413 587.724 364.395 587.746 364.38C587.769 364.366 587.794 364.357 587.821 364.353C587.847 364.35 587.874 364.352 587.9 364.359L588.9 364.609C588.926 364.615 588.95 364.626 588.971 364.641C588.993 364.656 589.011 364.676 589.025 364.698C589.039 364.72 589.048 364.745 589.052 364.771C589.057 364.797 589.056 364.823 589.05 364.849C589.037 364.892 589.011 364.93 588.975 364.957C588.939 364.984 588.895 364.999 588.85 364.999Z" fill="#27273D"/>
<path d="M539.29 354C539.243 353.999 539.199 353.983 539.162 353.954C539.126 353.925 539.101 353.885 539.09 353.84C538.982 353.371 538.925 352.892 538.92 352.41C538.909 352.2 538.909 351.99 538.92 351.78C538.923 351.754 538.932 351.728 538.946 351.706C538.959 351.683 538.977 351.663 538.999 351.647C539.02 351.631 539.045 351.62 539.071 351.613C539.096 351.607 539.123 351.606 539.15 351.61C539.176 351.613 539.201 351.62 539.224 351.633C539.247 351.645 539.267 351.663 539.283 351.683C539.298 351.704 539.31 351.728 539.316 351.753C539.323 351.778 539.324 351.804 539.32 351.83C539.309 352.023 539.309 352.217 539.32 352.41C539.322 352.865 539.375 353.318 539.48 353.76C539.486 353.813 539.474 353.866 539.445 353.91C539.415 353.954 539.371 353.986 539.32 354H539.29ZM539.09 350.29C539.051 350.303 539.009 350.303 538.97 350.29C538.458 349.822 538.008 349.291 537.63 348.71C537.615 348.688 537.605 348.663 537.6 348.637C537.595 348.611 537.595 348.584 537.601 348.558C537.606 348.531 537.617 348.507 537.632 348.485C537.648 348.463 537.667 348.444 537.69 348.43C537.735 348.403 537.79 348.394 537.841 348.405C537.893 348.416 537.939 348.447 537.97 348.49C538.325 349.035 538.745 349.535 539.22 349.98C539.239 349.998 539.255 350.02 539.265 350.044C539.276 350.068 539.281 350.094 539.281 350.12C539.281 350.146 539.276 350.173 539.265 350.197C539.255 350.221 539.239 350.242 539.22 350.26C539.184 350.292 539.138 350.31 539.09 350.31V350.29Z" fill="#27273D"/>
<path d="M449.19 195.92C446.75 194.45 443.44 195.45 441.42 197.46C439.4 199.47 438.42 202.25 437.42 204.93C434.98 211.876 432.647 218.876 430.42 225.93C425.153 242.663 420.53 259.583 416.55 276.69C414.55 285.23 412.73 293.806 411.09 302.42C410.37 306.16 409.72 312.64 409.19 316.36C409.19 316.36 408.42 332.68 408.27 336.53C408.12 340.38 407.96 344.53 407.96 344.53L421.96 345.3L422.12 324.81C423.19 319.46 423.28 314.04 424.12 308.67C429.723 274.453 438.498 240.831 450.33 208.24C452 204 453 198.23 449.19 195.92Z" fill="url(#paint3_linear_2710_93963)"/>
<path d="M442.8 203.76C442.8 203.76 413.08 294.61 415.08 347.12C415.08 347.12 421.15 347.78 421.24 344.35C421.71 327.26 425.56 297.85 432.79 266.43C437.492 246.439 443.355 226.738 450.35 207.43L442.8 203.76Z" fill="#686868"/>
<path d="M409.74 343.779C409.289 340.282 409.141 336.752 409.3 333.229C409.39 329.009 409.69 324.799 410.07 320.589C410.7 313.669 411.56 306.749 412.68 299.889C413.32 296.039 414.18 292.219 414.99 288.399C416.323 282.112 417.763 275.842 419.31 269.589C422.35 257.109 425.747 244.716 429.5 232.409C431.373 226.249 433.337 220.109 435.39 213.989C436.397 210.976 437.43 207.976 438.49 204.989C439.37 202.509 440.33 199.889 442.28 198.039C443.85 196.569 446.48 195.609 448.5 196.699C450.3 197.699 450.83 199.649 450.82 201.569C450.72 203.764 450.257 205.926 449.45 207.969C448.39 210.969 447.33 213.879 446.31 216.839C442.223 228.752 438.533 240.792 435.24 252.959C431.947 265.126 429.073 277.382 426.62 289.729C424.91 298.359 423.26 307.009 422.36 315.729C421.53 323.819 420.8 331.919 420.36 340.039C420.26 341.619 420.18 343.209 420.13 344.789C420.13 346.089 422.13 346.079 422.13 344.789C422.39 336.789 423.13 328.699 423.92 320.689C424.23 317.419 424.54 314.149 424.92 310.889C424.92 310.649 424.97 310.409 425 310.169C425.03 309.929 425 309.969 425 309.859C425 309.959 425 309.859 425 309.709C425.14 308.709 425.31 307.709 425.48 306.769C426.01 303.589 426.57 300.399 427.16 297.229C429.513 284.609 432.29 272.082 435.49 259.649C438.69 247.216 442.317 234.912 446.37 222.739C447.377 219.719 448.407 216.719 449.46 213.739C450.38 211.119 451.46 208.529 452.16 205.829C453.16 201.759 453.25 196.019 448.36 194.499C447.147 194.195 445.879 194.185 444.661 194.471C443.444 194.756 442.312 195.328 441.36 196.139C439.23 197.819 438.01 200.359 437.06 202.839C434.78 208.839 432.84 214.979 430.88 221.069C426.88 233.529 423.213 246.099 419.88 258.779C416.58 271.449 413.59 284.209 411.07 297.059C409.95 302.729 409.28 308.519 408.63 314.259C407.63 322.569 406.87 331.019 407.25 339.379C407.318 341.036 407.472 342.688 407.71 344.329C407.745 344.457 407.804 344.577 407.886 344.681C407.967 344.786 408.068 344.873 408.184 344.938C408.299 345.004 408.426 345.045 408.558 345.061C408.689 345.076 408.823 345.066 408.95 345.029C409.077 344.994 409.196 344.935 409.299 344.854C409.403 344.774 409.49 344.673 409.555 344.559C409.62 344.445 409.662 344.319 409.678 344.189C409.694 344.058 409.685 343.926 409.65 343.799L409.74 343.779Z" fill="#313B47"/>
<path d="M436.44 207.609C436.44 207.609 438.18 196.109 444.55 195.389C450.92 194.669 452 200.209 450.6 205.999C449.2 211.789 445.16 222.529 445.16 222.529C445.16 222.529 449 203.289 436.44 207.609Z" fill="black"/>
<path d="M397.69 369.27C390.772 371.119 383.588 371.769 376.45 371.19C376.194 370.906 375.966 370.597 375.77 370.27C375.388 369.473 375.055 368.655 374.77 367.82L385.1 355.5L428.92 355.1C428.92 355.1 429.84 355.79 428.92 357.4C429.337 357.619 429.677 357.961 429.893 358.379C430.11 358.798 430.192 359.273 430.13 359.74C423.46 363.26 415.62 364.09 408.29 366.09C404.69 367.06 401.23 368.32 397.69 369.27Z" fill="#939286"/>
<path d="M376.45 371.19C383.587 371.769 390.772 371.12 397.69 369.27C401.23 368.32 404.69 367.06 408.22 366.09C415.55 364.09 423.39 363.26 430.06 359.74C430.06 359.81 430.06 359.87 430.06 359.94C430.081 361.24 430.575 362.488 431.45 363.45C428.462 365.032 425.268 366.186 421.96 366.88C417.74 367.88 413.44 368.41 409.24 369.47C406.39 370.19 403.6 371.14 400.75 371.86C393.28 373.74 385.499 374.029 377.91 372.71C377.52 372.35 376.93 371.75 376.45 371.19Z" fill="#E5E4C8"/>
<path d="M400.73 371.859C403.58 371.139 406.37 370.189 409.22 369.469C413.42 368.409 417.72 367.849 421.94 366.879C425.248 366.185 428.442 365.03 431.43 363.449C431.59 363.634 431.731 363.835 431.85 364.049C431.96 364.399 433 366.859 428.17 368.669C423.34 370.479 417.38 369.809 409.71 372.569C402.04 375.329 388.71 376.149 383.86 375.049C379.01 373.949 378.23 373.049 378.23 373.049L377.89 372.719C385.479 374.035 393.261 373.742 400.73 371.859Z" fill="white"/>
<path d="M427.16 341.389C427.16 341.389 428.63 344.499 427.94 347.129C427.25 349.759 429.87 348.359 428.44 354.899C428.44 354.899 414.08 358.899 409.76 361.949C405.44 364.999 393.61 365.699 386.9 367.859C382.837 369.131 378.451 368.893 374.55 367.189C374.55 367.189 373.47 362.759 369.69 362.319C365.91 361.879 365.63 362.539 365.63 362.539C365.63 362.539 365.94 359.769 372.8 357.049C378.677 354.578 384.259 351.455 389.44 347.739C391.44 346.179 399.98 337.409 401.01 336.669C402.04 335.929 404.13 332.819 409.87 339.159C415.61 345.499 417.52 348.449 420.81 343.069C423 339.539 422.56 337.389 427.16 341.389Z" fill="#999698"/>
<path d="M370.69 362.54C373.87 363.79 373.92 364.16 374.55 367.19C375.18 370.22 377.49 371.01 377.89 372.71C378.29 374.41 376.69 374.88 373.08 373.52C369.47 372.16 366.52 372.03 365.64 367.76C364.76 363.49 364.92 360.29 370.69 362.54Z" fill="#575756"/>
<path d="M428.87 355.1C415.73 357.65 411.19 361.43 411.19 361.43C411.19 361.43 404.7 362.18 398.91 362.92C393.12 363.66 376.68 364.7 376.68 364.7C376.68 364.7 382.21 362.46 383.68 361.79C385.15 361.12 396.06 358.07 397.97 357.39C399.88 356.71 413.7 353.59 418.19 351.39C422.68 349.19 424.39 350.64 424.39 350.64L428 347.5C429.54 352.23 428.87 355.1 428.87 355.1Z" fill="#D9D7DA"/>
<path d="M398.91 343.07C398.91 343.07 405.61 343.46 405.91 344.23C406.21 345 402.36 345.29 400.34 344.91C398.32 344.53 401.77 347.86 402.06 348.58C402.35 349.3 401.82 350.85 399.39 347.74C396.96 344.63 396.96 345.04 396.96 345.04L391.9 345.3L394.41 343.07L397.13 340.99L398.91 343.07Z" fill="#D9D7DA"/>
<path d="M393.16 348C393.16 348 399.45 348.39 399.7 349.16C399.95 349.93 396.37 350.22 394.48 349.84C392.59 349.46 395.82 352.79 396.09 353.51C396.36 354.23 395.87 355.78 393.58 352.67C391.29 349.56 391.88 349.94 391.88 349.94L386.55 350.23L388.91 348L391.47 345.93L393.16 348Z" fill="#D9D7DA"/>
<path d="M386.83 352C386.83 352 392.83 352.38 393.09 353.12C393.35 353.86 389.9 354.12 388.09 353.78C386.28 353.44 389.38 356.62 389.63 357.32C389.88 358.02 389.42 359.51 387.24 356.51C385.06 353.51 385.06 353.9 385.06 353.9L380.51 354.15L382.77 352L385.21 350L386.83 352Z" fill="#D9D7DA"/>
<path d="M428.83 355C429.405 353.45 429.465 351.756 429 350.17C428.736 349.302 428.535 348.417 428.4 347.52C428.32 346.65 428.4 345.77 428.4 344.9C428.528 343.323 428.028 341.76 427.01 340.55C426.581 340.051 426.022 339.682 425.394 339.484C424.767 339.286 424.097 339.267 423.46 339.43C422.07 339.9 421.46 341.27 420.75 342.43C420.421 343.11 419.953 343.714 419.376 344.202C418.799 344.689 418.126 345.05 417.4 345.26C414.46 345.8 412.84 342.26 411.4 340.33C410.44 339.056 409.294 337.933 408 337C406.831 336.032 405.427 335.39 403.93 335.14C401.32 334.94 399.77 337.49 398.24 339.14C393.39 344.47 387.714 348.984 381.43 352.51C378.462 354.193 375.366 355.638 372.17 356.83C369.92 357.67 367.56 358.55 366.17 360.62C365.798 361.176 365.499 361.778 365.28 362.41C365.1 362.89 365.88 363.1 366.06 362.62C366.461 361.444 367.185 360.404 368.15 359.62C369.106 358.932 370.157 358.386 371.27 358C374.156 356.921 376.984 355.689 379.74 354.31C385.815 351.153 391.386 347.109 396.27 342.31C397.41 341.18 398.53 340.03 399.56 338.81C400.261 337.841 401.116 336.994 402.09 336.3C402.652 335.997 403.285 335.851 403.924 335.875C404.562 335.9 405.182 336.095 405.72 336.44C407.127 337.17 408.409 338.118 409.52 339.25C410.485 340.32 411.362 341.467 412.14 342.68C412.812 343.748 413.689 344.672 414.72 345.4C415.264 345.741 415.882 345.947 416.521 346.003C417.161 346.058 417.805 345.961 418.4 345.72C419.648 345.122 420.679 344.151 421.35 342.94C422.04 341.84 422.63 340.2 424.11 340.01C424.807 340.012 425.487 340.232 426.053 340.639C426.619 341.046 427.045 341.62 427.27 342.28C427.9 343.92 427.48 345.73 427.64 347.43C427.8 349.13 428.53 350.61 428.57 352.27C428.58 353.105 428.417 353.932 428.09 354.7C427.9 355.18 428.67 355.39 428.87 354.91L428.83 355Z" fill="#27273D"/>
<path d="M373.38 365.301C374.2 366.761 374.38 368.491 375.13 369.971C375.69 371.041 376.74 371.621 377.52 372.521C377.73 372.771 377.93 373.031 377.75 373.351C377.68 373.45 377.591 373.534 377.488 373.598C377.385 373.661 377.27 373.703 377.15 373.721C376.299 373.839 375.432 373.771 374.61 373.521C372.86 373.107 371.158 372.514 369.53 371.751C368.862 371.529 368.246 371.177 367.715 370.716C367.185 370.254 366.751 369.691 366.44 369.061C366.112 368.202 365.897 367.305 365.8 366.391C365.647 365.466 365.603 364.526 365.67 363.591C365.77 362.721 366.3 362.391 367.13 362.361C367.822 362.349 368.511 362.433 369.18 362.611C370.026 362.751 370.834 363.062 371.556 363.525C372.278 363.987 372.899 364.591 373.38 365.301C373.434 365.392 373.523 365.458 373.626 365.485C373.729 365.511 373.838 365.495 373.93 365.441C374.021 365.386 374.088 365.298 374.114 365.195C374.14 365.092 374.124 364.982 374.07 364.891C373.118 363.425 371.64 362.38 369.94 361.971C368.74 361.641 367.18 361.261 365.94 361.791C365.613 361.953 365.336 362.202 365.141 362.511C364.945 362.819 364.837 363.175 364.83 363.541C364.761 364.543 364.811 365.55 364.98 366.541C365.24 368.441 365.72 370.371 367.39 371.541C368.279 372.104 369.224 372.573 370.21 372.941C371.254 373.375 372.323 373.749 373.41 374.061C374.69 374.431 377.96 375.401 378.53 373.461C378.9 372.171 377.19 371.171 376.41 370.461C375.78 369.746 375.343 368.882 375.14 367.951C374.88 366.914 374.507 365.908 374.03 364.951C373.82 364.441 373.12 364.851 373.38 365.301Z" fill="#27273D"/>
<path d="M428.1 355.24C428.263 355.335 428.404 355.462 428.514 355.614C428.624 355.766 428.701 355.94 428.74 356.124C428.778 356.308 428.778 356.498 428.738 356.682C428.699 356.865 428.621 357.039 428.51 357.19C428.482 357.235 428.463 357.285 428.454 357.338C428.446 357.39 428.448 357.444 428.461 357.496C428.475 357.547 428.498 357.595 428.53 357.637C428.563 357.68 428.604 357.715 428.65 357.74C429.65 358.17 429.59 359.38 429.65 360.3C429.74 361.227 430.086 362.11 430.65 362.85C431.19 363.63 431.83 364.47 431.5 365.48C431.224 366.216 430.719 366.843 430.06 367.27C428.751 368.066 427.296 368.589 425.78 368.81C424.17 369.13 422.52 369.3 420.89 369.53C419.042 369.822 417.213 370.22 415.41 370.72C413 371.32 410.59 371.95 408.17 372.53C403.501 373.752 398.738 374.578 393.93 375C388.637 375.473 383.302 374.899 378.23 373.31C377.74 373.15 377.53 373.92 378.02 374.09C387.57 377.28 397.86 375.83 407.45 373.57C410.03 372.96 412.6 372.29 415.17 371.64C417.128 371.094 419.114 370.657 421.12 370.33C422.82 370.1 424.53 369.92 426.21 369.58C427.779 369.339 429.279 368.766 430.61 367.9C431.363 367.384 431.942 366.652 432.27 365.8C432.411 365.301 432.427 364.774 432.317 364.267C432.207 363.76 431.975 363.287 431.64 362.89C431.319 362.445 431.025 361.981 430.76 361.5C430.525 360.906 430.413 360.27 430.43 359.63C430.462 359.119 430.349 358.609 430.105 358.158C429.861 357.707 429.496 357.334 429.05 357.08L429.2 357.63C429.366 357.388 429.48 357.113 429.534 356.824C429.589 356.536 429.583 356.239 429.518 355.952C429.452 355.666 429.327 355.396 429.152 355.16C428.977 354.924 428.755 354.726 428.5 354.58C428.409 354.537 428.305 354.529 428.209 354.559C428.113 354.588 428.032 354.653 427.981 354.74C427.931 354.828 427.915 354.93 427.937 355.029C427.959 355.127 428.017 355.213 428.1 355.27V355.24Z" fill="#27273D"/>
<path d="M428.58 354.71L423.14 356.26C421.36 356.76 419.56 357.26 417.81 357.86C414.44 359.05 411.38 360.95 408.03 362.21C404.722 363.439 401.334 364.441 397.89 365.21C394.37 366.02 390.82 366.81 387.26 367.43C383.161 368.285 378.929 368.285 374.83 367.43C374.33 367.31 374.11 368.09 374.62 368.21C378.195 368.98 381.882 369.071 385.49 368.48C389.15 367.97 392.77 367.13 396.38 366.33C399.896 365.6 403.365 364.661 406.77 363.52C408.432 362.944 410.061 362.276 411.65 361.52C413.26 360.77 414.82 359.92 416.44 359.22C418.411 358.423 420.432 357.755 422.49 357.22L428.79 355.42C428.886 355.387 428.965 355.319 429.012 355.229C429.06 355.139 429.071 355.035 429.044 354.937C429.018 354.84 428.955 354.756 428.869 354.702C428.783 354.649 428.679 354.63 428.58 354.65V354.71Z" fill="#27273D"/>
<path d="M423.94 357C425.27 355.1 427.26 350.77 423.71 349.93C422.165 349.716 420.592 349.967 419.19 350.65C417.24 351.4 415.28 352.09 413.29 352.72C405.38 355.26 397.29 357.01 389.29 359.48C384.886 360.809 380.593 362.481 376.45 364.48C376.379 364.527 376.324 364.596 376.294 364.676C376.264 364.756 376.259 364.844 376.281 364.926C376.303 365.009 376.351 365.083 376.417 365.137C376.483 365.191 376.564 365.224 376.65 365.23C385.643 364.77 394.603 363.96 403.53 362.8C406.023 362.48 408.503 362.13 410.97 361.75C411.48 361.67 411.27 360.9 410.76 360.98C401.94 362.313 393.073 363.313 384.16 363.98C381.66 364.16 379.16 364.32 376.65 364.44L376.86 365.19C383.86 361.73 391.44 359.6 398.97 357.59C402.76 356.59 406.55 355.59 410.31 354.49C412.2 353.93 414.08 353.34 415.93 352.7C417.61 352.12 419.25 351.36 420.93 350.9C422.2 350.57 424.67 350.3 424.86 352.18C424.885 352.973 424.713 353.759 424.36 354.47C424.045 355.228 423.646 355.95 423.17 356.62C422.88 357.04 423.57 357.45 423.87 357.02L423.94 357Z" fill="#27273D"/>
<path d="M424.63 350.399L428.22 347.399C428.258 347.363 428.287 347.319 428.308 347.271C428.328 347.223 428.339 347.171 428.339 347.119C428.339 347.067 428.328 347.015 428.308 346.967C428.287 346.919 428.258 346.875 428.22 346.839C428.145 346.766 428.045 346.725 427.94 346.725C427.835 346.725 427.735 346.766 427.66 346.839L424.07 349.839C424 349.914 423.962 350.014 423.964 350.117C423.965 350.219 424.007 350.317 424.079 350.391C424.151 350.464 424.248 350.507 424.351 350.51C424.453 350.514 424.553 350.477 424.63 350.409V350.399Z" fill="#27273D"/>
<path d="M394.9 343.74C396.889 343.49 398.897 343.414 400.9 343.51C401.9 343.56 402.9 343.65 403.9 343.79L404.67 343.91C404.83 343.91 405.35 343.91 405.44 344.14C405.64 344.59 404.71 344.65 404.49 344.65C402.49 344.65 400.59 344.47 398.62 344.55C396.634 344.621 394.654 344.808 392.69 345.11C392.18 345.18 392.39 345.96 392.9 345.88C396.573 345.335 400.294 345.184 404 345.43C404.324 345.499 404.659 345.5 404.983 345.431C405.307 345.362 405.612 345.225 405.88 345.03C406.076 344.85 406.201 344.605 406.23 344.34C406.26 344.075 406.192 343.808 406.04 343.59C405.81 343.351 405.5 343.205 405.17 343.18C404.72 343.1 404.26 343.04 403.81 342.98C402.9 342.86 402 342.77 401.09 342.72C399.008 342.605 396.919 342.675 394.85 342.93C394.35 342.99 394.34 343.8 394.85 343.74H394.9Z" fill="#27273D"/>
<path d="M399.26 342.479C398.663 341.705 397.948 341.029 397.14 340.479C397.048 340.427 396.939 340.412 396.837 340.438C396.734 340.465 396.646 340.529 396.59 340.619C396.541 340.713 396.529 340.821 396.557 340.923C396.585 341.025 396.65 341.113 396.74 341.169L397.02 341.369H397.07C397.16 341.439 397.07 341.369 397.07 341.369L397.2 341.479L397.7 341.919C397.86 342.069 398.01 342.229 398.15 342.389C398.29 342.549 398.3 342.559 398.38 342.649L398.47 342.759L398.53 342.829C398.58 342.899 398.53 342.779 398.53 342.829C398.586 342.915 398.671 342.979 398.77 343.009C398.819 343.031 398.871 343.042 398.925 343.042C398.978 343.042 399.031 343.031 399.08 343.009C399.125 342.982 399.165 342.947 399.197 342.904C399.228 342.862 399.251 342.814 399.264 342.763C399.277 342.712 399.28 342.659 399.272 342.607C399.265 342.554 399.247 342.504 399.22 342.459L399.26 342.479Z" fill="#27273D"/>
<path d="M399.37 345.499C400.401 346.734 401.176 348.161 401.65 349.699L401.83 349.249C401.02 349.829 400.23 348.579 399.83 348.049L397.75 345.279C397.692 345.191 397.604 345.128 397.502 345.102C397.4 345.076 397.292 345.089 397.2 345.139C397.108 345.193 397.041 345.281 397.013 345.384C396.985 345.486 396.998 345.596 397.05 345.689L399.45 348.879C399.761 349.355 400.192 349.741 400.7 349.999C400.942 350.119 401.21 350.175 401.48 350.161C401.75 350.147 402.012 350.064 402.24 349.919C402.315 349.874 402.373 349.806 402.406 349.724C402.438 349.643 402.443 349.553 402.42 349.469C401.906 347.799 401.063 346.248 399.94 344.909C399.864 344.833 399.762 344.791 399.655 344.791C399.548 344.791 399.445 344.833 399.37 344.909C399.294 344.985 399.252 345.087 399.252 345.194C399.252 345.301 399.294 345.403 399.37 345.479V345.499Z" fill="#27273D"/>
<path d="M388.79 348.71C392.007 348.29 395.268 348.34 398.47 348.86C398.657 348.864 398.842 348.895 399.02 348.95C399.25 349.09 399.13 349.29 398.94 349.4C398.559 349.525 398.152 349.546 397.76 349.46C397.07 349.46 396.37 349.39 395.67 349.38C394.08 349.38 392.48 349.38 390.88 349.46C389.242 349.521 387.609 349.678 385.99 349.93C385.48 350.01 385.69 350.79 386.2 350.7C389.686 350.197 393.212 350.033 396.73 350.21C397.502 350.33 398.288 350.33 399.06 350.21C399.231 350.169 399.391 350.09 399.526 349.978C399.662 349.866 399.771 349.725 399.844 349.565C399.917 349.405 399.953 349.231 399.949 349.055C399.945 348.879 399.901 348.706 399.82 348.55C399.42 347.96 398.22 348 397.58 347.92C396.67 347.81 395.75 347.74 394.83 347.7C392.744 347.591 390.652 347.668 388.58 347.93C388.07 348 388.28 348.77 388.79 348.7V348.71Z" fill="#27273D"/>
<path d="M393.91 347.54C393.402 346.824 392.785 346.193 392.08 345.67C391.987 345.619 391.877 345.606 391.775 345.634C391.672 345.662 391.584 345.728 391.53 345.82C391.48 345.912 391.467 346.02 391.493 346.122C391.519 346.224 391.582 346.312 391.67 346.37C391.716 346.391 391.757 346.421 391.79 346.46V346.46H391.85L392.08 346.65C392.23 346.78 392.37 346.92 392.5 347.05C392.63 347.18 392.77 347.34 392.9 347.49L392.99 347.6V347.65C393.06 347.72 393.11 347.82 393.17 347.89C393.226 347.979 393.314 348.045 393.416 348.072C393.518 348.1 393.626 348.089 393.72 348.04C393.81 347.984 393.874 347.895 393.9 347.793C393.927 347.69 393.912 347.582 393.86 347.49L393.91 347.54Z" fill="#27273D"/>
<path d="M393.91 350.349C394.79 351.498 395.442 352.805 395.83 354.199L396.02 353.749C395.34 354.259 394.69 353.109 394.38 352.669L392.59 350.129C392.566 350.08 392.532 350.035 392.49 349.999C392.448 349.963 392.4 349.936 392.347 349.92C392.294 349.904 392.239 349.899 392.184 349.905C392.129 349.911 392.076 349.929 392.028 349.956C391.981 349.984 391.939 350.021 391.907 350.066C391.874 350.11 391.851 350.161 391.839 350.215C391.827 350.268 391.826 350.324 391.836 350.378C391.847 350.433 391.868 350.484 391.9 350.529L393.95 353.459C394.202 353.865 394.544 354.207 394.95 354.459C395.172 354.583 395.424 354.643 395.678 354.632C395.932 354.622 396.179 354.541 396.39 354.399C396.464 354.353 396.523 354.285 396.557 354.205C396.591 354.124 396.599 354.035 396.58 353.949C396.146 352.42 395.419 350.991 394.44 349.739C394.365 349.666 394.264 349.625 394.16 349.625C394.055 349.625 393.955 349.666 393.88 349.739C393.806 349.816 393.765 349.918 393.765 350.024C393.765 350.131 393.806 350.233 393.88 350.309L393.91 350.349Z" fill="#27273D"/>
<path d="M381.71 353.089C384.859 352.774 388.034 352.794 391.18 353.149L392.18 353.279C392.31 353.279 392.67 353.279 392.69 353.479C392.71 353.679 392 353.699 391.88 353.689C391.17 353.689 390.45 353.609 389.74 353.579C388.11 353.529 386.47 353.529 384.84 353.579C383.21 353.629 381.38 353.709 379.67 353.929C379.16 353.999 379.16 354.799 379.67 354.739C383.26 354.321 386.881 354.217 390.49 354.429C391.316 354.606 392.174 354.565 392.98 354.309C393.139 354.235 393.274 354.118 393.369 353.97C393.463 353.822 393.513 353.65 393.513 353.474C393.513 353.298 393.463 353.126 393.369 352.979C393.274 352.831 393.139 352.713 392.98 352.639C392.621 352.522 392.247 352.454 391.87 352.439L390.58 352.289C389.67 352.209 388.76 352.159 387.85 352.129C385.811 352.046 383.77 352.102 381.74 352.299C381.23 352.359 381.22 353.159 381.74 353.099L381.71 353.089Z" fill="#27273D"/>
<path d="M387.38 351.891C386.866 351.28 386.263 350.75 385.59 350.321C385.544 350.289 385.493 350.268 385.439 350.257C385.385 350.247 385.329 350.248 385.275 350.26C385.221 350.272 385.171 350.295 385.126 350.328C385.082 350.36 385.045 350.402 385.017 350.449C384.989 350.497 384.972 350.55 384.965 350.605C384.959 350.66 384.964 350.715 384.981 350.768C384.997 350.821 385.024 350.869 385.06 350.911C385.096 350.953 385.14 350.987 385.19 351.011L385.66 351.341L385.77 351.431L385.99 351.621C386.271 351.862 386.529 352.13 386.76 352.421C386.836 352.495 386.939 352.536 387.045 352.536C387.151 352.536 387.253 352.495 387.33 352.421C387.402 352.343 387.441 352.241 387.441 352.136C387.441 352.03 387.402 351.928 387.33 351.851L387.38 351.891Z" fill="#27273D"/>
<path d="M387.46 354.48C388.35 355.444 389.031 356.581 389.46 357.82L389.64 357.37C388.98 357.8 388.31 356.81 387.96 356.37L386.12 354.1C386.043 354.026 385.941 353.985 385.835 353.985C385.729 353.985 385.626 354.026 385.55 354.1C385.48 354.179 385.442 354.28 385.442 354.385C385.442 354.49 385.48 354.592 385.55 354.67C386.25 355.52 386.94 356.38 387.63 357.23C387.889 357.596 388.232 357.894 388.63 358.1C388.847 358.204 389.087 358.253 389.327 358.243C389.568 358.232 389.802 358.163 390.01 358.04C390.085 357.995 390.143 357.927 390.176 357.846C390.208 357.764 390.213 357.675 390.19 357.59C389.729 356.224 388.991 354.967 388.02 353.9C387.67 353.51 387.11 354.08 387.45 354.46L387.46 354.48Z" fill="#27273D"/>
<path d="M422.3 356.921H422.2C422.153 356.893 422.118 356.849 422.103 356.797C422.088 356.744 422.094 356.689 422.12 356.641C422.287 356.356 422.437 356.063 422.57 355.761C422.592 355.713 422.631 355.677 422.679 355.658C422.728 355.639 422.782 355.64 422.83 355.661C422.854 355.671 422.877 355.687 422.895 355.707C422.913 355.726 422.928 355.749 422.937 355.774C422.946 355.8 422.951 355.826 422.949 355.853C422.948 355.88 422.941 355.906 422.93 355.931C422.69 356.461 422.48 356.821 422.47 356.841C422.451 356.868 422.426 356.89 422.396 356.905C422.366 356.919 422.333 356.924 422.3 356.921V356.921Z" fill="#27273D"/>
<path d="M380 364.26C379.953 364.257 379.909 364.238 379.875 364.206C379.841 364.174 379.819 364.132 379.813 364.085C379.807 364.039 379.818 363.992 379.843 363.953C379.868 363.913 379.906 363.884 379.95 363.87L381.95 363.36C381.976 363.353 382.002 363.352 382.029 363.355C382.055 363.359 382.08 363.368 382.103 363.381C382.125 363.395 382.145 363.413 382.161 363.434C382.177 363.455 382.189 363.479 382.195 363.505C382.202 363.53 382.203 363.557 382.199 363.583C382.196 363.609 382.187 363.634 382.173 363.657C382.16 363.68 382.142 363.7 382.121 363.716C382.1 363.731 382.076 363.743 382.05 363.75L380.05 364.26H380ZM383.95 363.26C383.905 363.259 383.861 363.245 383.825 363.218C383.789 363.191 383.763 363.153 383.75 363.11C383.738 363.057 383.747 363.001 383.775 362.954C383.803 362.908 383.848 362.874 383.9 362.86L385.9 362.34C385.925 362.332 385.951 362.33 385.977 362.333C386.003 362.336 386.028 362.344 386.05 362.357C386.073 362.371 386.093 362.388 386.108 362.409C386.123 362.43 386.134 362.454 386.14 362.48C386.148 362.505 386.15 362.531 386.147 362.557C386.144 362.583 386.135 362.608 386.122 362.63C386.109 362.653 386.091 362.672 386.07 362.688C386.049 362.703 386.025 362.714 386 362.72L384 363.25L383.95 363.26ZM387.88 362.19C387.837 362.187 387.795 362.172 387.761 362.145C387.727 362.118 387.702 362.081 387.69 362.04C387.683 362.015 387.68 361.988 387.683 361.963C387.686 361.937 387.695 361.912 387.708 361.889C387.721 361.867 387.739 361.847 387.76 361.832C387.781 361.816 387.805 361.805 387.83 361.8L389 361.45L389.79 361.22C389.816 361.212 389.842 361.21 389.869 361.213C389.895 361.217 389.921 361.225 389.944 361.238C389.967 361.251 389.988 361.268 390.004 361.289C390.021 361.31 390.033 361.334 390.04 361.36C390.047 361.385 390.049 361.412 390.046 361.438C390.043 361.465 390.035 361.49 390.022 361.514C390.009 361.537 389.991 361.557 389.97 361.574C389.95 361.59 389.926 361.602 389.9 361.61L389.12 361.83L387.94 362.18L387.88 362.19ZM391.83 361.13C391.784 361.129 391.739 361.113 391.703 361.084C391.667 361.055 391.641 361.015 391.63 360.97C391.624 360.944 391.623 360.917 391.628 360.892C391.632 360.866 391.641 360.841 391.655 360.819C391.669 360.796 391.687 360.777 391.709 360.762C391.73 360.746 391.754 360.735 391.78 360.73L393.78 360.26C393.806 360.254 393.832 360.253 393.858 360.257C393.884 360.262 393.909 360.271 393.931 360.285C393.953 360.299 393.973 360.317 393.988 360.338C394.003 360.36 394.014 360.384 394.02 360.41C394.027 360.435 394.029 360.462 394.026 360.489C394.022 360.515 394.013 360.54 393.999 360.563C393.985 360.586 393.966 360.605 393.944 360.62C393.921 360.635 393.896 360.645 393.87 360.65L391.87 361.12L391.83 361.13ZM395.83 360.19C395.786 360.18 395.746 360.155 395.718 360.119C395.69 360.084 395.675 360.04 395.675 359.995C395.675 359.949 395.69 359.905 395.718 359.87C395.746 359.834 395.786 359.81 395.83 359.8L397.83 359.33C397.856 359.322 397.883 359.32 397.909 359.324C397.936 359.328 397.961 359.337 397.984 359.351C398.006 359.365 398.026 359.384 398.041 359.406C398.055 359.428 398.066 359.453 398.07 359.48C398.076 359.505 398.077 359.532 398.072 359.558C398.068 359.584 398.059 359.608 398.045 359.631C398.031 359.653 398.013 359.672 397.991 359.688C397.97 359.703 397.946 359.714 397.92 359.72L395.92 360.19H395.83ZM399.83 359.25C399.786 359.251 399.743 359.236 399.708 359.209C399.673 359.181 399.649 359.143 399.64 359.1C399.627 359.048 399.635 358.993 399.661 358.947C399.687 358.901 399.729 358.866 399.78 358.85L401.78 358.37C401.832 358.358 401.886 358.367 401.931 358.395C401.976 358.423 402.008 358.468 402.02 358.52C402.032 358.571 402.023 358.626 401.995 358.671C401.967 358.716 401.922 358.748 401.87 358.76L399.87 359.24L399.83 359.25ZM403.83 358.25C403.786 358.251 403.743 358.236 403.708 358.209C403.673 358.181 403.649 358.143 403.64 358.1C403.632 358.074 403.63 358.047 403.633 358.021C403.636 357.994 403.644 357.968 403.657 357.945C403.67 357.922 403.688 357.901 403.709 357.885C403.73 357.869 403.754 357.857 403.78 357.85C404.46 357.68 405.12 357.51 405.78 357.33C405.833 357.317 405.889 357.326 405.935 357.354C405.982 357.382 406.016 357.427 406.03 357.48C406.042 357.53 406.035 357.583 406.009 357.628C405.982 357.673 405.94 357.706 405.89 357.72L403.89 358.24L403.83 358.25ZM407.77 357.18C407.726 357.181 407.683 357.166 407.648 357.139C407.613 357.111 407.589 357.073 407.58 357.03C407.564 356.979 407.569 356.925 407.594 356.878C407.618 356.831 407.66 356.796 407.71 356.78C408.46 356.56 409.12 356.35 409.65 356.17C409.674 356.16 409.7 356.156 409.726 356.157C409.752 356.158 409.778 356.164 409.801 356.175C409.824 356.187 409.845 356.203 409.862 356.222C409.879 356.242 409.892 356.265 409.9 356.29C409.91 356.315 409.914 356.341 409.913 356.368C409.912 356.394 409.906 356.421 409.895 356.445C409.884 356.469 409.868 356.491 409.848 356.509C409.828 356.527 409.805 356.541 409.78 356.55L407.83 357.17L407.77 357.18ZM411.61 355.79C411.565 355.788 411.523 355.772 411.488 355.743C411.454 355.714 411.431 355.675 411.421 355.631C411.412 355.587 411.418 355.542 411.438 355.501C411.457 355.461 411.49 355.429 411.53 355.41L413.4 354.6C413.424 354.588 413.45 354.582 413.477 354.582C413.504 354.581 413.53 354.586 413.555 354.597C413.579 354.607 413.601 354.623 413.619 354.642C413.637 354.661 413.651 354.684 413.66 354.71C413.672 354.733 413.678 354.759 413.679 354.785C413.68 354.811 413.676 354.837 413.667 354.861C413.657 354.886 413.643 354.908 413.625 354.927C413.606 354.945 413.584 354.96 413.56 354.97L411.69 355.78L411.61 355.79ZM415.36 354.2C415.319 354.199 415.279 354.186 415.246 354.163C415.212 354.14 415.186 354.107 415.17 354.07C415.15 354.021 415.151 353.966 415.171 353.917C415.192 353.868 415.231 353.83 415.28 353.81C415.92 353.55 416.56 353.29 417.18 353.06C417.229 353.04 417.284 353.04 417.333 353.061C417.382 353.082 417.42 353.121 417.44 353.17C417.45 353.195 417.454 353.221 417.453 353.248C417.452 353.274 417.446 353.301 417.435 353.325C417.424 353.349 417.408 353.371 417.388 353.389C417.368 353.407 417.345 353.421 417.32 353.43L415.43 354.18L415.36 354.2ZM423.51 354.11C423.484 354.105 423.459 354.095 423.437 354.08C423.414 354.065 423.396 354.046 423.381 354.023C423.367 354 423.358 353.975 423.354 353.949C423.351 353.922 423.353 353.895 423.36 353.87C423.417 353.627 423.447 353.379 423.45 353.13C423.471 352.956 423.447 352.779 423.378 352.617C423.31 352.456 423.2 352.315 423.06 352.21C423.016 352.179 422.986 352.133 422.975 352.081C422.964 352.029 422.973 351.975 423 351.93C423.014 351.907 423.033 351.888 423.055 351.872C423.077 351.857 423.101 351.846 423.127 351.841C423.154 351.835 423.18 351.835 423.207 351.84C423.233 351.845 423.258 351.855 423.28 351.87C423.478 352.01 423.636 352.201 423.736 352.422C423.836 352.644 423.875 352.888 423.85 353.13C423.842 353.409 423.809 353.687 423.75 353.96C423.75 353.998 423.738 354.035 423.718 354.067C423.697 354.099 423.668 354.124 423.633 354.14C423.598 354.155 423.56 354.161 423.522 354.156C423.484 354.15 423.449 354.134 423.42 354.11H423.51ZM419.17 352.76C419.128 352.759 419.086 352.746 419.052 352.721C419.018 352.695 418.993 352.66 418.98 352.62C418.967 352.569 418.973 352.516 418.997 352.47C419.021 352.423 419.061 352.388 419.11 352.37C419.765 352.147 420.433 351.964 421.11 351.82C421.136 351.814 421.162 351.813 421.188 351.817C421.214 351.822 421.239 351.831 421.261 351.845C421.283 351.859 421.303 351.877 421.318 351.898C421.333 351.92 421.344 351.944 421.35 351.97C421.356 351.995 421.357 352.022 421.352 352.048C421.348 352.074 421.339 352.098 421.325 352.121C421.311 352.143 421.293 352.162 421.271 352.178C421.25 352.193 421.226 352.204 421.2 352.21C420.543 352.35 419.895 352.53 419.26 352.75L419.17 352.76Z" fill="#27273D"/>
<path d="M377.12 364.999C377.076 365 377.033 364.985 376.998 364.958C376.963 364.931 376.939 364.892 376.93 364.849C376.922 364.824 376.92 364.798 376.923 364.772C376.926 364.746 376.935 364.721 376.948 364.698C376.961 364.676 376.979 364.656 377 364.641C377.021 364.626 377.045 364.615 377.07 364.609L378.07 364.359C378.123 364.347 378.179 364.355 378.225 364.383C378.272 364.411 378.306 364.456 378.32 364.509C378.329 364.56 378.319 364.614 378.291 364.658C378.264 364.702 378.22 364.735 378.17 364.749L377.17 364.999H377.12Z" fill="#27273D"/>
<path d="M426.68 354C426.654 353.994 426.63 353.983 426.609 353.968C426.587 353.953 426.569 353.934 426.555 353.911C426.541 353.889 426.532 353.864 426.528 353.838C426.523 353.812 426.524 353.786 426.53 353.76C426.629 353.317 426.682 352.865 426.69 352.41C426.7 352.217 426.7 352.023 426.69 351.83C426.686 351.805 426.687 351.778 426.693 351.753C426.7 351.728 426.711 351.704 426.727 351.683C426.743 351.663 426.763 351.646 426.786 351.633C426.809 351.62 426.834 351.613 426.86 351.61C426.886 351.606 426.913 351.607 426.939 351.613C426.965 351.62 426.989 351.631 427.011 351.647C427.032 351.663 427.05 351.683 427.064 351.706C427.077 351.729 427.086 351.754 427.09 351.78C427.101 351.99 427.101 352.2 427.09 352.41C427.084 352.892 427.027 353.371 426.92 353.84C426.915 353.867 426.905 353.892 426.89 353.915C426.876 353.937 426.857 353.956 426.834 353.971C426.812 353.986 426.787 353.997 426.76 354.002C426.734 354.007 426.706 354.006 426.68 354V354ZM426.88 350.29C426.85 350.291 426.82 350.286 426.792 350.274C426.764 350.262 426.74 350.243 426.72 350.22C426.683 350.183 426.663 350.133 426.663 350.08C426.663 350.028 426.683 349.978 426.72 349.94C427.194 349.492 427.616 348.992 427.98 348.45C428.009 348.407 428.053 348.377 428.103 348.366C428.153 348.355 428.206 348.364 428.25 348.39C428.273 348.405 428.292 348.423 428.307 348.445C428.323 348.467 428.333 348.492 428.339 348.518C428.345 348.544 428.345 348.571 428.34 348.597C428.335 348.623 428.325 348.648 428.31 348.67C427.931 349.251 427.481 349.782 426.97 350.25C426.947 350.28 426.916 350.301 426.88 350.31V350.29Z" fill="#27273D"/>
<path d="M484.29 238.49C543.495 238.49 591.49 190.495 591.49 131.29C591.49 72.0849 543.495 24.0898 484.29 24.0898C425.085 24.0898 377.09 72.0849 377.09 131.29C377.09 190.495 425.085 238.49 484.29 238.49Z" fill="url(#paint4_linear_2710_93963)"/>
<path opacity="0.93" d="M484.32 230.439C539.062 230.439 583.44 186.062 583.44 131.319C583.44 76.5768 539.062 32.1992 484.32 32.1992C429.577 32.1992 385.2 76.5768 385.2 131.319C385.2 186.062 429.577 230.439 484.32 230.439Z" fill="url(#paint5_linear_2710_93963)"/>
<path d="M484.32 221.671C534.219 221.671 574.67 181.22 574.67 131.321C574.67 81.4218 534.219 40.9707 484.32 40.9707C434.421 40.9707 393.97 81.4218 393.97 131.321C393.97 181.22 434.421 221.671 484.32 221.671Z" fill="url(#paint6_linear_2710_93963)"/>
<path d="M575.92 176.46C564.111 200.628 543.185 219.115 517.746 227.854C492.307 236.593 464.438 234.869 440.27 223.06C416.102 211.251 397.615 190.325 388.876 164.886C380.136 139.447 381.861 111.578 393.67 87.4099C396.276 82.0744 399.341 76.9752 402.83 72.1699C402.83 72.1699 401.76 127.5 466.83 163.87C528.33 198.24 575.92 176.46 575.92 176.46Z" fill="url(#paint7_linear_2710_93963)"/>
<path d="M548.72 103.151L533.21 123.781C532.253 125.056 531.053 126.13 529.68 126.941C527.612 128.164 525.227 128.747 522.828 128.615C520.428 128.484 518.122 127.643 516.2 126.201L516.02 126.061C514.51 124.93 513.285 123.462 512.442 121.775C511.598 120.088 511.159 118.227 511.16 116.341V108.461C507.573 108.469 504.136 109.898 501.602 112.437C499.067 114.975 497.643 118.414 497.64 122.001V181.851C497.691 184.039 497.202 186.206 496.218 188.161C495.233 190.116 493.782 191.799 491.994 193.06C490.205 194.322 488.134 195.125 485.962 195.397C483.79 195.669 481.585 195.402 479.54 194.621C477.03 193.65 474.872 191.944 473.348 189.726C471.825 187.508 471.006 184.882 471 182.191V122.001C471.013 111.331 475.262 101.103 482.814 93.565C490.365 86.0269 500.6 81.7955 511.27 81.8008H537.89C545.73 81.8008 551.23 87.3108 551.23 95.1508C551.256 98.0151 550.378 100.815 548.72 103.151V103.151Z" fill="url(#paint8_linear_2710_93963)"/>
<path d="M451 81.7598H430.61C428.883 81.7585 427.173 82.0973 425.577 82.7569C423.981 83.4166 422.53 84.3841 421.308 85.6042C420.086 86.8244 419.117 88.2733 418.454 89.8682C417.792 91.4632 417.451 93.1729 417.45 94.8998V95.2898C417.451 97.0167 417.792 98.7264 418.454 100.321C419.117 101.916 420.086 103.365 421.308 104.585C422.53 105.805 423.981 106.773 425.577 107.433C427.173 108.092 428.883 108.431 430.61 108.43H451C452.727 108.431 454.437 108.092 456.033 107.433C457.629 106.773 459.079 105.805 460.301 104.585C461.523 103.365 462.493 101.916 463.155 100.321C463.817 98.7264 464.158 97.0167 464.16 95.2898V94.8998C464.158 93.1729 463.817 91.4632 463.155 89.8682C462.493 88.2733 461.523 86.8244 460.301 85.6042C459.079 84.3841 457.629 83.4166 456.033 82.7569C454.437 82.0973 452.727 81.7585 451 81.7598V81.7598Z" fill="url(#paint9_linear_2710_93963)"/>
<path d="M359.89 121.75H278.27C274.034 121.75 270.6 125.184 270.6 129.42V181.6C270.6 185.836 274.034 189.27 278.27 189.27H359.89C364.126 189.27 367.56 185.836 367.56 181.6V129.42C367.56 125.184 364.126 121.75 359.89 121.75Z" fill="#488ECC"/>
<path d="M359.89 190.27H278.26C275.961 190.268 273.758 189.353 272.132 187.728C270.507 186.103 269.592 183.899 269.59 181.6V129.41C269.592 127.112 270.507 124.908 272.132 123.283C273.758 121.657 275.961 120.743 278.26 120.74H359.89C362.188 120.743 364.392 121.657 366.018 123.283C367.643 124.908 368.557 127.112 368.56 129.41V181.6C368.557 183.899 367.643 186.103 366.018 187.728C364.392 189.353 362.188 190.268 359.89 190.27ZM278.26 122.75C276.494 122.753 274.802 123.455 273.553 124.704C272.305 125.952 271.602 127.645 271.6 129.41V181.6C271.602 183.366 272.305 185.058 273.553 186.307C274.802 187.555 276.494 188.258 278.26 188.26H359.89C361.655 188.258 363.348 187.555 364.596 186.307C365.845 185.058 366.547 183.366 366.55 181.6V129.41C366.547 127.645 365.845 125.952 364.596 124.704C363.348 123.455 361.655 122.753 359.89 122.75H278.26Z" fill="#1E547C"/>
<path d="M318.94 132.95C320.878 132.95 322.45 131.378 322.45 129.44C322.45 127.501 320.878 125.93 318.94 125.93C317.001 125.93 315.43 127.501 315.43 129.44C315.43 131.378 317.001 132.95 318.94 132.95Z" fill="#FEFFF8"/>
<path d="M304.76 132.95C306.699 132.95 308.27 131.378 308.27 129.44C308.27 127.501 306.699 125.93 304.76 125.93C302.821 125.93 301.25 127.501 301.25 129.44C301.25 131.378 302.821 132.95 304.76 132.95Z" fill="#FEFFF8"/>
<path d="M331.77 132.95C333.708 132.95 335.28 131.378 335.28 129.44C335.28 127.501 333.708 125.93 331.77 125.93C329.831 125.93 328.26 127.501 328.26 129.44C328.26 131.378 329.831 132.95 331.77 132.95Z" fill="#FEFFF8"/>
<path d="M312.73 140.641H283.73C282.295 140.641 280.919 141.211 279.904 142.225C278.89 143.24 278.32 144.616 278.32 146.051V175.051C278.322 176.484 278.894 177.857 279.908 178.87C280.922 179.882 282.297 180.451 283.73 180.451H312.73C314.162 180.451 315.535 179.882 316.548 178.869C317.561 177.856 318.13 176.483 318.13 175.051V146.051C318.13 144.618 317.561 143.243 316.549 142.229C315.536 141.214 314.163 140.643 312.73 140.641ZM314.62 171.831C314.625 172.507 314.497 173.177 314.242 173.804C313.987 174.43 313.611 175 313.135 175.48C312.659 175.961 312.093 176.343 311.469 176.603C310.845 176.864 310.176 176.999 309.5 177.001H287.33C286.656 176.999 285.989 176.865 285.367 176.606C284.746 176.347 284.181 175.968 283.705 175.491C283.23 175.014 282.853 174.447 282.596 173.825C282.34 173.202 282.208 172.534 282.21 171.861V149.571C282.208 148.897 282.34 148.23 282.596 147.607C282.853 146.984 283.23 146.418 283.705 145.94C284.181 145.463 284.746 145.084 285.367 144.825C285.989 144.566 286.656 144.432 287.33 144.431H309.5C310.173 144.432 310.84 144.566 311.462 144.825C312.084 145.084 312.649 145.463 313.124 145.94C313.6 146.418 313.977 146.984 314.233 147.607C314.49 148.23 314.621 148.897 314.62 149.571V171.831Z" fill="#FEFFF8"/>
<path d="M354.25 141.859H328.73C327.498 141.859 326.5 142.858 326.5 144.089C326.5 145.321 327.498 146.319 328.73 146.319H354.25C355.482 146.319 356.48 145.321 356.48 144.089C356.48 142.858 355.482 141.859 354.25 141.859Z" fill="#FEFFF8"/>
<path d="M354.25 152.529H328.73C327.498 152.529 326.5 153.528 326.5 154.759C326.5 155.991 327.498 156.989 328.73 156.989H354.25C355.482 156.989 356.48 155.991 356.48 154.759C356.48 153.528 355.482 152.529 354.25 152.529Z" fill="#FEFFF8"/>
<path d="M354.25 162.391H328.73C327.498 162.391 326.5 163.389 326.5 164.621C326.5 165.852 327.498 166.851 328.73 166.851H354.25C355.482 166.851 356.48 165.852 356.48 164.621C356.48 163.389 355.482 162.391 354.25 162.391Z" fill="#FEFFF8"/>
<path d="M354.25 172.65H328.73C327.498 172.65 326.5 173.649 326.5 174.88C326.5 176.112 327.498 177.11 328.73 177.11H354.25C355.482 177.11 356.48 176.112 356.48 174.88C356.48 173.649 355.482 172.65 354.25 172.65Z" fill="#FEFFF8"/>
<path d="M390 105L387.39 102C387.25 101.837 387.08 101.704 386.888 101.608C386.697 101.512 386.489 101.454 386.275 101.438C386.061 101.422 385.847 101.449 385.643 101.516C385.44 101.583 385.252 101.69 385.09 101.83L360.88 122.63C360.553 122.908 360.13 123.047 359.702 123.017C359.274 122.987 358.875 122.791 358.59 122.47L353.23 116.4C353.089 116.238 352.918 116.105 352.726 116.01C352.534 115.914 352.325 115.858 352.111 115.844C351.897 115.83 351.683 115.859 351.48 115.929C351.277 115.998 351.09 116.107 350.93 116.25L347.93 118.9C347.606 119.188 347.409 119.593 347.383 120.026C347.357 120.459 347.503 120.884 347.79 121.21L357.52 132.06C357.928 132.51 358.496 132.784 359.102 132.823C359.709 132.862 360.307 132.664 360.77 132.27L389.84 107.34C390.007 107.199 390.145 107.026 390.244 106.83C390.343 106.635 390.402 106.422 390.417 106.204C390.432 105.985 390.402 105.766 390.331 105.559C390.259 105.352 390.147 105.162 390 105V105Z" fill="url(#paint10_linear_2710_93963)"/>
<path d="M359.24 133.62C358.803 133.625 358.371 133.539 357.969 133.366C357.568 133.194 357.207 132.94 356.91 132.62L347.17 121.77C346.74 121.284 346.521 120.647 346.56 120C346.579 119.681 346.661 119.369 346.802 119.082C346.943 118.795 347.139 118.54 347.38 118.33L350.38 115.68C350.866 115.255 351.499 115.038 352.143 115.078C352.787 115.117 353.39 115.409 353.82 115.89L359.18 121.97C359.326 122.133 359.53 122.233 359.749 122.248C359.967 122.263 360.183 122.192 360.35 122.05L384.55 101.25C384.792 101.041 385.073 100.882 385.377 100.782C385.681 100.682 386.001 100.644 386.32 100.67C386.641 100.69 386.954 100.775 387.241 100.919C387.528 101.063 387.783 101.264 387.99 101.51L390.6 104.51C390.809 104.752 390.967 105.033 391.067 105.336C391.167 105.64 391.206 105.96 391.181 106.279C391.157 106.597 391.071 106.908 390.926 107.193C390.782 107.478 390.583 107.732 390.34 107.94L361.27 132.87C360.705 133.356 359.985 133.622 359.24 133.62V133.62ZM352 116.62C351.798 116.616 351.602 116.687 351.45 116.82L348.45 119.47C348.29 119.619 348.19 119.822 348.17 120.04C348.163 120.15 348.178 120.261 348.214 120.366C348.25 120.47 348.307 120.567 348.38 120.65L358.11 131.49C358.378 131.784 358.75 131.963 359.147 131.989C359.544 132.015 359.936 131.886 360.24 131.63L389.3 106.7C389.384 106.63 389.453 106.543 389.503 106.446C389.553 106.349 389.583 106.243 389.592 106.134C389.6 106.025 389.586 105.915 389.552 105.811C389.517 105.708 389.462 105.612 389.39 105.53L386.78 102.53C386.634 102.366 386.429 102.265 386.21 102.25C386.102 102.24 385.992 102.253 385.889 102.287C385.786 102.322 385.691 102.377 385.61 102.45L361.4 123.24C360.914 123.651 360.287 123.857 359.651 123.812C359.016 123.767 358.423 123.476 358 123L352.64 116.93C352.562 116.838 352.463 116.765 352.352 116.716C352.241 116.668 352.121 116.645 352 116.65V116.62Z" fill="#0B5B2F"/>
<defs>
<linearGradient id="paint0_linear_2710_93963" x1="558.33" y1="164.46" x2="602.78" y2="189.95" gradientUnits="userSpaceOnUse">
<stop offset="0.08" stop-color="#797D86"/>
<stop offset="0.47" stop-color="#A8ABB0"/>
<stop offset="0.82" stop-color="#CBCCCF"/>
<stop offset="1" stop-color="#D8D9DB"/>
</linearGradient>
<linearGradient id="paint1_linear_2710_93963" x1="334.28" y1="194.76" x2="410.85" y2="194.76" gradientUnits="userSpaceOnUse">
<stop offset="0.08" stop-color="#797D86"/>
<stop offset="0.47" stop-color="#A8ABB0"/>
<stop offset="0.82" stop-color="#CBCCCF"/>
<stop offset="1" stop-color="#D8D9DB"/>
</linearGradient>
<linearGradient id="paint2_linear_2710_93963" x1="557.97" y1="270.25" x2="514.15" y2="270.25" gradientUnits="userSpaceOnUse">
<stop offset="0.08" stop-color="#797D86"/>
<stop offset="0.47" stop-color="#A8ABB0"/>
<stop offset="0.82" stop-color="#CBCCCF"/>
<stop offset="1" stop-color="#D8D9DB"/>
</linearGradient>
<linearGradient id="paint3_linear_2710_93963" x1="408" y1="270.25" x2="451.82" y2="270.25" gradientUnits="userSpaceOnUse">
<stop offset="0.08" stop-color="#797D86"/>
<stop offset="0.47" stop-color="#A8ABB0"/>
<stop offset="0.82" stop-color="#CBCCCF"/>
<stop offset="1" stop-color="#D8D9DB"/>
</linearGradient>
<linearGradient id="paint4_linear_2710_93963" x1="484.29" y1="-461.27" x2="484.29" y2="228.28" gradientUnits="userSpaceOnUse">
<stop stop-color="white"/>
<stop offset="0.14" stop-color="#C9CBCE"/>
<stop offset="0.31" stop-color="#92969C"/>
<stop offset="0.47" stop-color="#656A73"/>
<stop offset="0.62" stop-color="#424853"/>
<stop offset="0.77" stop-color="#29303C"/>
<stop offset="0.9" stop-color="#19212E"/>
<stop offset="1" stop-color="#141C29"/>
</linearGradient>
<linearGradient id="paint5_linear_2710_93963" x1="385.2" y1="131.319" x2="583.43" y2="131.319" gradientUnits="userSpaceOnUse">
<stop stop-color="#E340A1"/>
<stop offset="0.49" stop-color="#664AD6"/>
<stop offset="0.99" stop-color="#14B2F5"/>
</linearGradient>
<linearGradient id="paint6_linear_2710_93963" x1="484.32" y1="-368.119" x2="484.32" y2="213.061" gradientUnits="userSpaceOnUse">
<stop stop-color="white"/>
<stop offset="0.14" stop-color="#C9CBCE"/>
<stop offset="0.31" stop-color="#92969C"/>
<stop offset="0.47" stop-color="#656A73"/>
<stop offset="0.62" stop-color="#424853"/>
<stop offset="0.77" stop-color="#29303C"/>
<stop offset="0.9" stop-color="#19212E"/>
<stop offset="1" stop-color="#141C29"/>
</linearGradient>
<linearGradient id="paint7_linear_2710_93963" x1="430.32" y1="218.15" x2="470.19" y2="155.05" gradientUnits="userSpaceOnUse">
<stop offset="0.34" stop-color="#1C222B" stop-opacity="0.7"/>
<stop offset="0.92" stop-color="#152745" stop-opacity="0"/>
</linearGradient>
<linearGradient id="paint8_linear_2710_93963" x1="528.14" y1="155.591" x2="471.5" y2="98.8708" gradientUnits="userSpaceOnUse">
<stop offset="0.08" stop-color="#797D86"/>
<stop offset="0.47" stop-color="#A8ABB0"/>
<stop offset="0.82" stop-color="#CBCCCF"/>
<stop offset="1" stop-color="#D8D9DB"/>
</linearGradient>
<linearGradient id="paint9_linear_2710_93963" x1="482.03" y1="124.53" x2="418.61" y2="79.2498" gradientUnits="userSpaceOnUse">
<stop stop-color="#797D86"/>
<stop offset="0.09" stop-color="#95999F"/>
<stop offset="0.2" stop-color="#AEB0B5"/>
<stop offset="0.32" stop-color="#C1C2C6"/>
<stop offset="0.47" stop-color="#CECFD2"/>
<stop offset="0.65" stop-color="#D6D7D9"/>
<stop offset="1" stop-color="#D8D9DB"/>
</linearGradient>
<linearGradient id="paint10_linear_2710_93963" x1="358.08" y1="122.55" x2="378.52" y2="107.05" gradientUnits="userSpaceOnUse">
<stop stop-color="#22B573"/>
<stop offset="0.98" stop-color="#009245"/>
</linearGradient>
</defs>
</svg>
