<svg width="916" height="400" viewBox="0 0 916 400" fill="none" xmlns="http://www.w3.org/2000/svg">
<path d="M499.279 236.87C501.179 235.73 503.759 236.5 505.279 238.07C506.731 239.749 507.79 241.73 508.379 243.87C510.266 249.283 512.073 254.72 513.799 260.18C517.899 273.18 521.496 286.33 524.589 299.63C526.129 306.297 527.543 312.963 528.829 319.63C529.389 322.53 529.899 327.57 530.309 330.46C530.309 330.46 530.909 343.15 531.029 346.14C531.149 349.13 531.269 352.37 531.269 352.37L520.369 352.96L520.249 337.04C519.419 332.88 519.349 328.66 518.669 324.49C514.312 297.891 507.489 271.755 498.289 246.42C497.139 243.15 496.289 238.66 499.279 236.87Z" fill="url(#paint0_linear_2650_92149)"/>
<path d="M504.249 243C504.249 243 527.349 313.63 525.799 354.45C525.799 354.45 521.079 354.96 521.009 352.3C520.649 339.01 517.659 316.14 512.009 291.72C508.359 276.183 503.801 260.874 498.359 245.87L504.249 243Z" fill="#686868"/>
<path d="M531.52 352.24C531.902 349.431 532.039 346.593 531.93 343.76C531.86 340.4 531.62 337.05 531.32 333.71C530.81 328.19 530.13 322.71 529.22 317.19C528.7 314.03 527.99 310.9 527.32 307.77C526.24 302.777 525.09 297.797 523.87 292.83C521.443 282.943 518.73 273.133 515.73 263.4C514.25 258.567 512.7 253.763 511.08 248.99C510.29 246.66 509.54 244.32 508.65 241.99C508.001 239.98 506.811 238.188 505.21 236.81C504.452 236.196 503.557 235.775 502.601 235.581C501.645 235.388 500.657 235.429 499.72 235.7C498.923 235.991 498.215 236.483 497.663 237.127C497.111 237.772 496.735 238.548 496.57 239.38C496.267 241.152 496.383 242.971 496.91 244.69C497.46 246.8 498.32 248.84 499.04 250.89C502.347 260.297 505.333 269.83 508 279.49C510.667 289.15 512.977 298.817 514.93 308.49C515.93 313.417 516.843 318.357 517.67 323.31C517.79 324.02 517.91 324.72 518.02 325.43C518.02 325.67 518.02 325.43 518.02 325.51V325.76C518.02 325.96 518.07 326.16 518.09 326.36C518.223 327.453 518.343 328.543 518.45 329.63C519.11 336.01 519.69 342.41 520.08 348.81C520.15 350.08 520.22 351.36 520.26 352.64C520.26 353.72 521.99 353.73 521.96 352.64C521.76 346.5 521.18 340.36 520.6 334.25C520.36 331.68 520.11 329.12 519.81 326.56C519.42 323.27 518.81 320.01 518.2 316.75C516.453 307.15 514.387 297.62 512 288.16C509.613 278.7 506.897 269.297 503.85 259.95C502.34 255.3 500.72 250.69 499.08 246.08C498.21 243.65 496.85 238.91 499.98 237.46C501.57 236.72 503.54 237.53 504.71 238.69C506.058 240.264 507.039 242.119 507.58 244.12C509.226 248.787 510.807 253.5 512.32 258.26C515.36 267.767 518.133 277.363 520.64 287.05C523.12 296.63 525.38 306.28 527.27 316.05C528.12 320.36 528.63 324.77 529.12 329.13C529.967 335.49 530.322 341.906 530.18 348.32C530.139 349.505 530.036 350.686 529.87 351.86C529.825 352.07 529.861 352.289 529.971 352.475C530.08 352.66 530.254 352.797 530.46 352.86C530.67 352.909 530.892 352.875 531.078 352.766C531.264 352.656 531.401 352.478 531.46 352.27L531.52 352.24Z" fill="#313B47"/>
<path d="M509.199 246C509.199 246 507.839 237.06 502.889 236.5C497.939 235.94 497.069 240.26 498.179 244.72C499.289 249.18 502.409 257.57 502.409 257.57C502.409 257.57 499.459 242.6 509.199 246Z" fill="black"/>
<path d="M539.319 371.63C544.697 373.068 550.281 373.571 555.829 373.12C556.028 372.9 556.205 372.663 556.359 372.41C556.668 371.791 556.939 371.153 557.169 370.5L549.169 360.92L515.099 360.61C515.099 360.61 514.389 361.14 515.099 362.4C514.775 362.571 514.511 362.837 514.343 363.162C514.175 363.488 514.111 363.857 514.159 364.22C519.339 366.96 525.439 367.6 531.159 369.16C533.879 369.91 536.569 370.89 539.319 371.63Z" fill="#939286"/>
<path d="M555.83 373.12C550.282 373.571 544.697 373.067 539.32 371.63C536.57 370.89 533.88 369.91 531.13 369.16C525.44 367.6 519.34 366.96 514.13 364.22C514.125 364.27 514.125 364.32 514.13 364.37C514.119 365.382 513.734 366.354 513.05 367.1C515.372 368.332 517.857 369.231 520.43 369.77C523.71 370.52 527.06 370.96 530.32 371.77C532.53 372.33 534.7 373.06 536.91 373.62C542.718 375.082 548.769 375.307 554.67 374.28C555 374 555.46 373.56 555.83 373.12Z" fill="#E5E4C8"/>
<path d="M536.999 373.64C534.789 373.08 532.619 372.35 530.409 371.79C527.149 370.96 523.799 370.52 520.519 369.79C517.946 369.251 515.462 368.352 513.139 367.12C513.015 367.264 512.908 367.422 512.819 367.59C512.729 367.86 511.919 369.77 515.669 371.18C519.419 372.59 524.059 372.07 530.019 374.18C535.979 376.29 546.319 376.95 550.119 376.1C553.919 375.25 554.499 374.54 554.499 374.54L554.759 374.28C548.86 375.314 542.809 375.096 536.999 373.64V373.64Z" fill="white"/>
<path d="M516.41 350C515.767 351.396 515.555 352.952 515.8 354.47C516.34 356.47 514.3 355.42 515.42 360.47C515.42 360.47 526.58 363.61 529.94 365.96C533.3 368.31 542.5 368.87 547.7 370.55C550.861 371.539 554.273 371.354 557.31 370.03C557.31 370.03 558.15 366.59 561.09 366.24C564.03 365.89 564.24 366.42 564.24 366.42C564.24 366.42 564 364.26 558.67 362.15C554.101 360.225 549.761 357.796 545.73 354.91C544.2 353.7 537.54 346.91 536.73 346.31C535.92 345.71 534.31 343.31 529.84 348.24C525.37 353.17 523.9 355.46 521.33 351.24C519.67 348.52 520 346.84 516.41 350Z" fill="#999698"/>
<path d="M560.31 366.4C557.84 367.4 557.8 367.66 557.31 370.01C556.82 372.36 555.02 373.01 554.71 374.3C554.4 375.59 555.64 375.99 558.45 374.93C561.26 373.87 563.55 373.77 564.24 370.45C564.93 367.13 564.8 364.65 560.31 366.4Z" fill="#575756"/>
<path d="M515.759 354.7L518.589 357.16C518.589 357.16 519.919 356.06 523.409 357.75C526.899 359.44 537.649 361.86 539.139 362.39C540.629 362.92 549.139 365.28 550.239 365.81C551.339 366.34 555.649 368.08 555.649 368.08C555.649 368.08 542.869 367.27 538.369 366.69C533.869 366.11 528.819 365.54 528.819 365.54C528.819 365.54 525.299 362.54 515.079 360.61C514.806 358.614 515.04 356.582 515.759 354.7V354.7Z" fill="#D9D7DA"/>
<path d="M538.37 351.26C538.37 351.26 533.16 351.56 532.95 352.16C532.74 352.76 535.71 352.98 537.28 352.69C538.85 352.4 536.16 354.98 535.94 355.54C535.72 356.1 536.12 357.31 538.02 354.89C539.92 352.47 539.9 352.79 539.9 352.79L543.84 352.99L541.84 351.26L539.73 349.65L538.37 351.26Z" fill="#D9D7DA"/>
<path d="M542.849 355.08C542.849 355.08 537.949 355.39 537.749 355.99C537.549 356.59 540.349 356.81 541.819 356.52C543.289 356.23 540.769 358.81 540.569 359.37C540.369 359.93 540.739 361.13 542.509 358.72C544.279 356.31 543.839 356.59 543.839 356.59L547.979 356.82L546.139 355.08L544.139 353.47L542.849 355.08Z" fill="#D9D7DA"/>
<path d="M547.759 358.22C547.759 358.22 543.09 358.51 542.89 359.09C542.69 359.67 545.37 359.88 546.78 359.6C548.19 359.32 545.78 361.81 545.58 362.35C545.38 362.89 545.75 364.05 547.45 361.72C549.15 359.39 549.14 359.72 549.14 359.72L552.669 359.91L550.919 358.24L549.02 356.68L547.759 358.22Z" fill="#D9D7DA"/>
<path d="M515.739 360.36C515.304 359.161 515.283 357.852 515.679 356.64C515.875 356.01 516.015 355.364 516.099 354.71C516.159 354.05 516.099 353.38 516.099 352.71C516.029 352.102 516.107 351.486 516.326 350.915C516.545 350.344 516.9 349.834 517.359 349.43C517.769 349.096 518.293 348.938 518.819 348.99C519.101 349.05 519.367 349.171 519.599 349.343C519.83 349.516 520.021 349.737 520.159 349.99C520.669 350.93 521.28 351.811 521.979 352.62C522.338 352.99 522.774 353.275 523.257 353.457C523.739 353.638 524.255 353.711 524.769 353.67C526.769 353.44 527.919 351.36 528.979 349.85C529.7 348.819 530.585 347.914 531.599 347.17C532.476 346.398 533.568 345.913 534.729 345.78C535.159 345.825 535.576 345.956 535.954 346.166C536.332 346.375 536.663 346.659 536.929 347C537.659 347.77 538.299 348.6 539.029 349.37C542.69 353.25 546.914 356.557 551.559 359.18C553.759 360.441 556.052 361.531 558.419 362.44C560.119 363.08 562.089 363.64 563.209 365.2C563.501 365.61 563.736 366.057 563.909 366.53C564.059 366.94 564.709 366.76 564.559 366.35C564.242 365.42 563.691 364.586 562.959 363.93C562.247 363.334 561.439 362.864 560.569 362.54C559.569 362.13 558.569 361.8 557.569 361.4C556.289 360.87 555.019 360.27 553.789 359.64C548.789 357.082 544.232 353.74 540.289 349.74C539.429 348.87 538.629 347.96 537.839 347.04C537.292 346.313 536.578 345.727 535.759 345.33C535.295 345.161 534.8 345.094 534.308 345.136C533.815 345.177 533.338 345.325 532.909 345.57C531.764 346.131 530.717 346.874 529.809 347.77C529.004 348.62 528.281 349.544 527.649 350.53C527.122 351.436 526.381 352.199 525.489 352.75C524.968 352.988 524.385 353.052 523.825 352.933C523.265 352.815 522.758 352.519 522.379 352.09C521.677 351.196 521.029 350.261 520.439 349.29C520.132 348.887 519.706 348.592 519.221 348.447C518.736 348.301 518.217 348.313 517.739 348.48C517.25 348.671 516.808 348.967 516.445 349.347C516.083 349.727 515.807 350.182 515.639 350.68C515.189 352.03 515.499 353.45 515.359 354.83C515.219 356.21 514.619 357.36 514.639 358.7C514.656 359.346 514.792 359.983 515.039 360.58C515.199 360.98 515.859 360.81 515.689 360.4L515.739 360.36Z" fill="#27273D"/>
<path d="M557.66 368.21C557.327 368.845 557.069 369.516 556.89 370.21C556.734 370.926 556.442 371.605 556.03 372.21C555.47 372.89 554.33 373.4 554.13 374.32C554.09 374.628 554.172 374.94 554.359 375.189C554.546 375.437 554.823 375.603 555.13 375.65C555.92 375.764 556.725 375.706 557.49 375.48C559.051 375.135 560.565 374.605 562 373.9C562.649 373.619 563.227 373.195 563.69 372.66C564.099 372.107 564.386 371.473 564.53 370.8C564.726 369.986 564.844 369.156 564.88 368.32C565.009 367.607 564.896 366.872 564.56 366.23C563.86 365.23 562.25 365.6 561.28 365.83C560.552 365.966 559.858 366.247 559.239 366.656C558.621 367.065 558.091 367.593 557.68 368.21C557.65 368.286 557.648 368.369 557.674 368.446C557.701 368.523 557.754 368.588 557.824 368.629C557.894 368.67 557.977 368.685 558.057 368.671C558.137 368.656 558.209 368.613 558.26 368.55C558.962 367.519 560.038 366.801 561.26 366.55C561.69 366.435 562.128 366.355 562.57 366.31C563.013 366.217 563.475 366.277 563.88 366.48C564.4 366.84 564.26 367.79 564.23 368.33C564.195 369.106 564.085 369.876 563.9 370.63C563.783 371.26 563.511 371.851 563.11 372.35C562.652 372.808 562.108 373.172 561.51 373.42C560.353 373.975 559.148 374.424 557.91 374.76C557.5 374.88 554.72 375.65 554.84 374.56C554.84 374.18 555.46 373.78 555.72 373.56C556.085 373.282 556.42 372.967 556.72 372.62C557.58 371.42 557.62 369.85 558.32 368.57C558.368 368.482 558.379 368.38 558.351 368.284C558.323 368.188 558.258 368.108 558.17 368.06C558.083 368.012 557.98 368.001 557.884 368.029C557.788 368.058 557.708 368.122 557.66 368.21V368.21Z" fill="#27273D"/>
<path d="M515.349 360.16C515.149 360.276 514.974 360.433 514.837 360.62C514.699 360.806 514.602 361.019 514.55 361.245C514.499 361.471 514.494 361.706 514.537 361.934C514.58 362.161 514.669 362.378 514.799 362.57L514.919 362.1C514.605 362.273 514.341 362.526 514.155 362.833C513.969 363.14 513.867 363.491 513.859 363.85C513.86 364.314 513.81 364.777 513.709 365.23C513.579 365.588 513.397 365.925 513.169 366.23C512.716 366.76 512.415 367.403 512.299 368.09C512.293 368.462 512.364 368.832 512.507 369.176C512.649 369.52 512.861 369.831 513.129 370.09C513.991 370.892 515.056 371.442 516.209 371.68C517.526 372 518.862 372.23 520.209 372.37C523.626 372.943 527.008 373.708 530.339 374.66C534.121 375.651 537.977 376.337 541.869 376.71C546.171 377.133 550.513 376.688 554.639 375.4C555.049 375.27 554.879 374.61 554.459 374.75C547.389 377.11 539.789 376.15 532.679 374.52C530.809 374.09 528.959 373.62 527.099 373.15C525.469 372.73 523.839 372.24 522.189 371.97C519.799 371.56 517.189 371.56 514.959 370.52C514.419 370.293 513.935 369.952 513.539 369.52C513.246 369.226 513.066 368.838 513.032 368.425C512.997 368.011 513.109 367.599 513.349 367.26C513.845 366.636 514.219 365.923 514.449 365.16C514.599 364.35 514.349 363.16 515.289 362.73C515.365 362.684 515.421 362.61 515.443 362.524C515.465 362.438 515.453 362.347 515.409 362.27C515.322 362.156 515.261 362.024 515.229 361.884C515.198 361.745 515.197 361.6 515.226 361.459C515.255 361.319 515.315 361.186 515.4 361.071C515.485 360.955 515.594 360.86 515.719 360.79C515.797 360.744 515.854 360.668 515.877 360.58C515.899 360.492 515.886 360.398 515.839 360.32C515.793 360.242 515.717 360.185 515.629 360.163C515.541 360.14 515.447 360.154 515.369 360.2L515.349 360.16Z" fill="#27273D"/>
<path d="M515.129 360.93L519.419 362.15C520.809 362.55 522.229 362.92 523.599 363.42C524.935 363.936 526.24 364.527 527.509 365.19C528.732 365.804 529.987 366.351 531.269 366.83C533.881 367.777 536.553 368.546 539.269 369.13C542.049 369.77 544.859 370.4 547.679 370.87C550.834 371.511 554.085 371.511 557.239 370.87C557.327 370.846 557.401 370.788 557.446 370.71C557.491 370.631 557.503 370.538 557.479 370.45C557.455 370.362 557.398 370.288 557.319 370.243C557.24 370.198 557.147 370.186 557.059 370.21C554.219 370.816 551.288 370.864 548.429 370.35C545.639 369.92 542.889 369.29 540.139 368.68C537.431 368.107 534.76 367.372 532.139 366.48C530.835 366.019 529.556 365.488 528.309 364.89C527.089 364.3 525.889 363.67 524.639 363.15C523.161 362.581 521.652 362.097 520.119 361.7L515.269 360.32C515.187 360.308 515.104 360.327 515.035 360.372C514.966 360.417 514.915 360.486 514.893 360.566C514.871 360.645 514.879 360.73 514.915 360.805C514.951 360.879 515.013 360.938 515.089 360.97L515.129 360.93Z" fill="#27273D"/>
<path d="M519.479 361.72C518.784 360.831 518.333 359.777 518.169 358.66C518.069 357.37 519.289 357.02 520.359 357.15C521.661 357.42 522.928 357.833 524.14 358.38C525.56 358.89 527 359.38 528.44 359.8C534.23 361.56 540.15 362.88 545.93 364.69C549.204 365.69 552.397 366.94 555.479 368.43L555.65 367.79C548.75 367.437 541.87 366.82 535.01 365.94C533.01 365.69 531.09 365.41 529.14 365.12C528.72 365.05 528.53 365.7 528.96 365.77C535.85 366.77 542.779 367.6 549.719 368.1C551.719 368.25 553.67 368.37 555.65 368.47C555.723 368.468 555.794 368.443 555.852 368.398C555.91 368.352 555.951 368.29 555.97 368.219C555.99 368.148 555.985 368.072 555.958 368.004C555.931 367.936 555.882 367.878 555.82 367.84C550.06 365 543.819 363.29 537.669 361.65C534.549 360.82 531.42 360.01 528.33 359.05C526.79 358.58 525.26 358.05 523.75 357.52C522.537 356.943 521.235 356.578 519.9 356.44C519.608 356.404 519.312 356.428 519.03 356.51C518.748 356.592 518.485 356.732 518.259 356.919C518.032 357.106 517.846 357.337 517.712 357.599C517.578 357.861 517.499 358.147 517.479 358.44C517.589 359.755 518.079 361.009 518.89 362.05C519.14 362.4 519.729 362.05 519.479 361.7V361.72Z" fill="#27273D"/>
<path d="M518.829 356.5L515.999 354.18C515.935 354.122 515.85 354.092 515.764 354.094C515.677 354.097 515.595 354.132 515.533 354.194C515.472 354.255 515.436 354.337 515.434 354.424C515.431 354.511 515.462 354.595 515.519 354.66L518.319 356.98C518.383 357.04 518.467 357.074 518.554 357.074C518.642 357.074 518.726 357.04 518.789 356.98C518.822 356.949 518.848 356.912 518.866 356.871C518.884 356.829 518.893 356.785 518.893 356.74C518.893 356.695 518.884 356.651 518.866 356.609C518.848 356.568 518.822 356.531 518.789 356.5H518.829Z" fill="#27273D"/>
<path d="M541.49 351.13C540.077 350.954 538.653 350.887 537.23 350.93C536.52 350.93 535.81 351.01 535.1 351.09C534.423 351.114 533.752 351.218 533.1 351.4C533.003 351.435 532.914 351.488 532.838 351.557C532.762 351.626 532.701 351.709 532.657 351.802C532.613 351.895 532.589 351.996 532.584 352.098C532.579 352.201 532.595 352.303 532.63 352.4C532.717 352.615 532.869 352.799 533.064 352.926C533.258 353.053 533.487 353.117 533.72 353.11C534.431 353.123 535.142 353.096 535.85 353.03C536.57 353.03 537.29 353.03 538.01 353.03C539.684 353.071 541.353 353.215 543.01 353.46C543.44 353.53 543.62 352.87 543.19 352.81C541.679 352.578 540.157 352.431 538.63 352.37C537.09 352.31 535.57 352.42 534.04 352.45C533.89 352.47 533.739 352.47 533.59 352.45C533.39 352.39 533.15 352.18 533.44 352.03C533.823 351.915 534.22 351.854 534.62 351.85C535.38 351.75 536.15 351.68 536.91 351.64C538.442 351.58 539.977 351.64 541.5 351.82C541.93 351.88 541.93 351.2 541.5 351.15L541.49 351.13Z" fill="#27273D"/>
<path d="M538.66 351.13C538.71 351.06 538.66 351.13 538.66 351.13V351.08C538.683 351.041 538.71 351.004 538.74 350.97L538.9 350.78C539.02 350.65 539.14 350.53 539.27 350.41C539.386 350.292 539.509 350.182 539.64 350.08L539.75 349.99H539.81L540.02 349.83C540.065 349.812 540.106 349.784 540.14 349.749C540.174 349.713 540.199 349.671 540.215 349.625C540.231 349.578 540.237 349.529 540.232 349.48C540.227 349.432 540.212 349.384 540.187 349.342C540.162 349.3 540.129 349.264 540.089 349.236C540.048 349.208 540.003 349.188 539.955 349.18C539.906 349.171 539.857 349.173 539.809 349.185C539.762 349.197 539.718 349.219 539.68 349.25C539.048 349.684 538.49 350.217 538.03 350.83C537.995 350.913 537.995 351.007 538.03 351.09C538.056 351.174 538.113 351.246 538.19 351.29C538.267 351.334 538.358 351.346 538.444 351.324C538.53 351.301 538.604 351.246 538.65 351.17L538.66 351.13Z" fill="#27273D"/>
<path d="M537.549 352.69C536.673 353.733 536.014 354.94 535.609 356.24C535.593 356.314 535.6 356.39 535.628 356.46C535.657 356.53 535.706 356.589 535.769 356.63C535.953 356.743 536.162 356.807 536.377 356.818C536.592 356.828 536.806 356.784 536.999 356.69C537.407 356.485 537.753 356.174 537.999 355.79L539.869 353.31C539.914 353.232 539.927 353.139 539.903 353.052C539.88 352.964 539.822 352.89 539.744 352.845C539.666 352.8 539.573 352.788 539.486 352.811C539.399 352.835 539.324 352.892 539.279 352.97L537.669 355.12C537.359 355.52 536.759 356.48 536.139 356.04L536.299 356.42C536.664 355.23 537.262 354.125 538.059 353.17C538.123 353.106 538.158 353.02 538.158 352.93C538.158 352.84 538.123 352.754 538.059 352.69C537.996 352.626 537.909 352.591 537.819 352.591C537.729 352.591 537.643 352.626 537.579 352.69H537.549Z" fill="#27273D"/>
<path d="M546.409 355C544.983 354.818 543.545 354.752 542.109 354.8C541.359 354.8 540.619 354.86 539.879 354.94L538.879 355.05C538.538 355.069 538.201 355.137 537.879 355.25C537.771 355.316 537.68 355.405 537.612 355.511C537.544 355.618 537.501 355.738 537.487 355.863C537.472 355.989 537.487 356.116 537.529 356.235C537.571 356.354 537.639 356.461 537.729 356.55C538.179 357.02 538.919 356.87 539.499 356.84C540.849 356.77 542.219 356.78 543.579 356.84C545.126 356.867 546.669 356.994 548.199 357.22C548.619 357.29 548.809 356.64 548.379 356.57C546.062 356.229 543.721 356.082 541.379 356.13H539.669L538.929 356.18C538.76 356.2 538.589 356.2 538.419 356.18C538.269 356.13 538.059 355.97 538.259 355.84C538.516 355.75 538.787 355.706 539.059 355.71L539.969 355.6C540.619 355.54 541.269 355.5 541.969 355.48C543.391 355.422 544.816 355.478 546.229 355.65C546.659 355.71 546.839 355.06 546.409 355V355Z" fill="#27273D"/>
<path d="M542.819 355.06C542.872 355.001 542.919 354.937 542.959 354.87C542.959 354.87 542.959 354.87 542.959 354.87V354.82L543.039 354.73C543.126 354.617 543.226 354.507 543.339 354.4L543.669 354.09L543.849 353.94C543.849 353.94 543.919 353.89 543.849 353.94C543.779 353.99 543.849 353.94 543.849 353.94L543.909 353.89C543.983 353.843 544.04 353.772 544.069 353.69C544.087 353.625 544.084 353.556 544.062 353.493C544.04 353.429 544 353.374 543.946 353.333C543.893 353.292 543.828 353.269 543.761 353.264C543.694 353.26 543.628 353.276 543.569 353.31C543.014 353.716 542.528 354.209 542.129 354.77C542.084 354.848 542.072 354.941 542.096 355.028C542.119 355.116 542.176 355.19 542.254 355.235C542.333 355.28 542.426 355.292 542.513 355.269C542.6 355.245 542.674 355.188 542.719 355.11L542.819 355.06Z" fill="#27273D"/>
<path d="M541.799 356.46C541.036 357.434 540.472 358.548 540.139 359.74C540.12 359.811 540.124 359.887 540.151 359.955C540.178 360.024 540.226 360.081 540.289 360.12C540.455 360.229 540.647 360.293 540.846 360.303C541.045 360.314 541.242 360.271 541.419 360.18C541.759 359.975 542.044 359.69 542.249 359.35C542.789 358.59 543.309 357.83 543.839 357.07C543.862 357.032 543.878 356.99 543.884 356.946C543.891 356.902 543.888 356.857 543.877 356.814C543.866 356.772 543.846 356.731 543.819 356.696C543.792 356.661 543.758 356.632 543.719 356.61C543.642 356.566 543.551 356.554 543.465 356.576C543.379 356.599 543.305 356.654 543.259 356.73L541.869 358.73C541.639 359.07 541.139 359.94 540.629 359.56L540.789 359.94C541.082 358.851 541.589 357.832 542.279 356.94C542.34 356.875 542.374 356.789 542.374 356.7C542.374 356.611 542.34 356.525 542.279 356.46C542.215 356.396 542.129 356.361 542.039 356.361C541.949 356.361 541.863 356.396 541.799 356.46Z" fill="#27273D"/>
<path d="M551.74 358.4C550.344 358.263 548.941 358.217 547.54 358.26C546.137 358.262 544.736 358.368 543.35 358.58C542.8 358.67 542.35 359.09 542.65 359.68C542.95 360.27 543.78 360.17 544.35 360.14C545.76 360.05 547.16 360.04 548.57 360.06C550.164 360.061 551.757 360.158 553.34 360.35C553.77 360.41 553.77 359.73 553.34 359.67C550.891 359.387 548.423 359.293 545.96 359.39C545.39 359.39 544.82 359.39 544.25 359.47C544.02 359.47 543.5 359.6 543.32 359.42C543.14 359.24 543.32 359.27 543.48 359.24L543.97 359.17C545.198 359.02 546.433 358.94 547.67 358.93C549.028 358.9 550.387 358.95 551.74 359.08C552.18 359.13 552.17 358.45 551.74 358.4Z" fill="#27273D"/>
<path d="M547.799 358.58C547.984 358.356 548.184 358.145 548.399 357.95L548.559 357.82L548.649 357.74C548.589 357.74 548.649 357.74 548.649 357.74C548.649 357.74 548.889 357.56 549.019 357.48C549.059 357.457 549.093 357.427 549.12 357.391C549.147 357.355 549.167 357.314 549.178 357.27C549.189 357.226 549.192 357.181 549.185 357.136C549.178 357.092 549.163 357.049 549.139 357.01C549.094 356.934 549.02 356.879 548.934 356.856C548.848 356.834 548.757 356.846 548.679 356.89C548.155 357.225 547.686 357.64 547.289 358.12C547.227 358.184 547.191 358.27 547.189 358.36C547.189 358.405 547.198 358.449 547.215 358.49C547.232 358.532 547.257 358.569 547.289 358.6C547.353 358.664 547.44 358.699 547.529 358.699C547.619 358.699 547.706 358.664 547.769 358.6L547.799 358.58Z" fill="#27273D"/>
<path d="M546.81 359.67C546.054 360.505 545.475 361.485 545.11 362.55C545.092 362.624 545.098 362.701 545.127 362.771C545.155 362.841 545.205 362.9 545.27 362.94C545.429 363.033 545.608 363.087 545.792 363.097C545.977 363.108 546.161 363.074 546.33 363C546.667 362.842 546.96 362.601 547.18 362.3L548.8 360.3C548.861 360.235 548.895 360.149 548.895 360.06C548.895 359.971 548.861 359.885 548.8 359.82C548.736 359.756 548.65 359.721 548.56 359.721C548.47 359.721 548.383 359.756 548.32 359.82L546.89 361.58C546.63 361.9 546.11 362.67 545.61 362.34L545.77 362.72C546.097 361.766 546.614 360.889 547.29 360.14C547.58 359.82 547.1 359.34 546.81 359.66V359.67Z" fill="#27273D"/>
<path d="M520.19 362C520.161 362.018 520.128 362.027 520.095 362.027C520.061 362.027 520.028 362.018 520 362C520 362 519.82 361.67 519.62 361.22C519.602 361.18 519.601 361.135 519.616 361.094C519.631 361.053 519.661 361.019 519.7 361C519.741 360.982 519.788 360.98 519.83 360.995C519.873 361.01 519.908 361.04 519.93 361.08C520.04 361.336 520.163 361.587 520.3 361.83C520.318 361.87 520.322 361.916 520.309 361.958C520.296 362.001 520.268 362.037 520.23 362.06L520.19 362Z" fill="#27273D"/>
<path d="M552.869 367.7L551.209 367.27C551.187 367.267 551.166 367.258 551.147 367.246C551.128 367.234 551.112 367.218 551.1 367.199C551.087 367.18 551.079 367.159 551.076 367.137C551.072 367.114 551.073 367.092 551.079 367.07C551.085 367.048 551.095 367.028 551.109 367.01C551.123 366.992 551.14 366.977 551.159 366.966C551.179 366.955 551.2 366.948 551.223 366.945C551.245 366.942 551.268 366.944 551.289 366.95L552.949 367.38C552.971 367.385 552.991 367.394 553.009 367.406C553.026 367.419 553.041 367.435 553.053 367.454C553.064 367.473 553.071 367.494 553.074 367.515C553.077 367.537 553.075 367.559 553.069 367.58C553.065 367.601 553.056 367.622 553.043 367.639C553.03 367.657 553.014 367.672 552.995 367.683C552.977 367.694 552.956 367.702 552.934 367.705C552.912 367.708 552.89 367.706 552.869 367.7ZM549.549 366.83L547.889 366.38C547.846 366.368 547.808 366.339 547.786 366.3C547.763 366.26 547.757 366.214 547.769 366.17C547.781 366.126 547.81 366.089 547.849 366.066C547.889 366.044 547.936 366.038 547.979 366.05L549.639 366.5C549.661 366.506 549.681 366.516 549.699 366.529C549.717 366.543 549.732 366.56 549.743 366.58C549.754 366.599 549.761 366.621 549.764 366.643C549.767 366.666 549.765 366.688 549.759 366.71C549.754 366.732 549.743 366.752 549.73 366.77C549.716 366.788 549.699 366.803 549.679 366.814C549.66 366.825 549.638 366.832 549.616 366.835C549.594 366.838 549.571 366.836 549.549 366.83V366.83ZM546.239 365.92L546.019 365.85C545.779 365.77 545.319 365.65 544.589 365.47C544.546 365.46 544.508 365.434 544.483 365.397C544.459 365.359 544.45 365.314 544.459 365.27C544.464 365.247 544.473 365.226 544.486 365.207C544.5 365.188 544.517 365.172 544.536 365.16C544.556 365.148 544.578 365.14 544.601 365.136C544.624 365.133 544.647 365.134 544.669 365.14C545.409 365.32 545.879 365.45 546.129 365.53L546.339 365.59C546.382 365.606 546.417 365.637 546.438 365.678C546.458 365.719 546.462 365.766 546.449 365.81C546.436 365.852 546.406 365.887 546.367 365.908C546.327 365.928 546.282 365.933 546.239 365.92V365.92ZM542.899 365.07L541.219 364.68C541.177 364.668 541.142 364.64 541.12 364.602C541.099 364.564 541.092 364.519 541.103 364.477C541.113 364.435 541.139 364.398 541.176 364.374C541.212 364.351 541.256 364.342 541.299 364.35L542.969 364.74C543.013 364.75 543.051 364.776 543.075 364.813C543.1 364.851 543.108 364.896 543.099 364.94C543.088 364.982 543.061 365.019 543.024 365.043C542.987 365.067 542.943 365.076 542.899 365.07V365.07ZM539.559 364.28L537.889 363.88C537.845 363.868 537.807 363.84 537.783 363.801C537.758 363.762 537.75 363.715 537.759 363.67C537.765 363.648 537.775 363.628 537.789 363.61C537.803 363.592 537.82 363.577 537.839 363.566C537.859 363.555 537.88 363.548 537.903 363.545C537.925 363.542 537.948 363.544 537.969 363.55L539.639 363.95C539.661 363.955 539.681 363.964 539.699 363.976C539.716 363.989 539.731 364.005 539.743 364.024C539.754 364.043 539.761 364.064 539.764 364.085C539.767 364.107 539.765 364.129 539.759 364.15C539.756 364.172 539.748 364.193 539.736 364.212C539.723 364.231 539.707 364.247 539.688 364.26C539.67 364.272 539.648 364.28 539.626 364.284C539.604 364.287 539.581 364.286 539.559 364.28V364.28ZM536.219 363.48L534.549 363.06C534.528 363.054 534.507 363.044 534.489 363.03C534.472 363.017 534.457 363 534.445 362.98C534.434 362.96 534.427 362.939 534.424 362.917C534.422 362.894 534.423 362.872 534.429 362.85C534.434 362.829 534.443 362.808 534.456 362.791C534.468 362.773 534.485 362.758 534.503 362.747C534.522 362.735 534.543 362.728 534.565 362.725C534.586 362.722 534.608 362.724 534.629 362.73L536.299 363.15C536.321 363.156 536.341 363.166 536.359 363.18C536.377 363.193 536.392 363.21 536.403 363.23C536.414 363.249 536.422 363.271 536.424 363.293C536.427 363.316 536.425 363.338 536.419 363.36C536.406 363.4 536.378 363.435 536.341 363.457C536.305 363.479 536.261 363.487 536.219 363.48ZM532.889 362.62L531.229 362.15C531.186 362.137 531.149 362.107 531.127 362.066C531.106 362.026 531.101 361.979 531.114 361.935C531.128 361.891 531.158 361.854 531.198 361.833C531.238 361.811 531.286 361.807 531.329 361.82L532.979 362.29C533.001 362.296 533.021 362.306 533.039 362.32C533.056 362.333 533.07 362.351 533.081 362.371C533.091 362.39 533.097 362.412 533.099 362.434C533.1 362.457 533.097 362.479 533.089 362.5C533.085 362.521 533.076 362.541 533.063 362.559C533.05 362.577 533.034 362.592 533.015 362.603C532.996 362.614 532.976 362.622 532.954 362.625C532.932 362.627 532.91 362.626 532.889 362.62V362.62ZM529.609 361.62H529.549L529.149 361.46L527.959 360.94C527.938 360.932 527.919 360.92 527.903 360.905C527.887 360.889 527.874 360.871 527.865 360.85C527.857 360.829 527.853 360.807 527.854 360.785C527.854 360.762 527.86 360.74 527.869 360.72C527.877 360.699 527.889 360.68 527.904 360.663C527.92 360.647 527.939 360.635 527.959 360.626C527.98 360.618 528.002 360.614 528.025 360.614C528.047 360.615 528.069 360.62 528.089 360.63L529.289 361.15L529.669 361.3C529.69 361.308 529.71 361.32 529.726 361.335C529.743 361.35 529.756 361.369 529.765 361.389C529.774 361.41 529.78 361.432 529.78 361.454C529.781 361.477 529.777 361.499 529.769 361.52C529.753 361.547 529.729 361.569 529.701 361.583C529.672 361.597 529.641 361.603 529.609 361.6V361.62ZM526.449 360.27H526.379L524.799 359.62C524.778 359.612 524.759 359.6 524.742 359.585C524.726 359.57 524.713 359.551 524.703 359.531C524.694 359.51 524.689 359.488 524.688 359.466C524.688 359.443 524.691 359.421 524.699 359.4C524.707 359.379 524.719 359.36 524.734 359.343C524.75 359.327 524.768 359.313 524.788 359.304C524.809 359.295 524.831 359.29 524.853 359.289C524.876 359.288 524.898 359.292 524.919 359.3C525.449 359.51 525.989 359.73 526.509 359.96C526.53 359.968 526.55 359.979 526.566 359.995C526.582 360.01 526.595 360.029 526.603 360.05C526.612 360.071 526.616 360.093 526.615 360.115C526.614 360.138 526.609 360.16 526.599 360.18C526.583 360.204 526.56 360.224 526.534 360.236C526.508 360.248 526.478 360.253 526.449 360.25V360.27ZM519.279 359.68C519.238 359.68 519.197 359.665 519.166 359.637C519.134 359.61 519.114 359.571 519.109 359.53C519.1 359.383 519.1 359.236 519.109 359.09C519.091 358.895 519.127 358.7 519.211 358.524C519.296 358.348 519.426 358.198 519.589 358.09C519.696 358.033 519.811 357.993 519.929 357.97C519.974 357.966 520.018 357.978 520.055 358.004C520.091 358.029 520.118 358.067 520.129 358.11C520.135 358.155 520.124 358.2 520.098 358.237C520.072 358.274 520.033 358.3 519.989 358.31C519.91 358.323 519.833 358.346 519.759 358.38C519.648 358.461 519.56 358.571 519.506 358.698C519.451 358.824 519.432 358.963 519.449 359.1C519.435 359.23 519.435 359.36 519.449 359.49C519.455 359.534 519.444 359.578 519.418 359.613C519.392 359.649 519.353 359.673 519.309 359.68H519.279ZM523.279 359.02C522.659 358.8 522.109 358.63 521.649 358.51C521.628 358.504 521.607 358.494 521.59 358.48C521.572 358.466 521.557 358.449 521.546 358.43C521.535 358.41 521.527 358.389 521.525 358.367C521.522 358.344 521.523 358.322 521.529 358.3C521.535 358.278 521.545 358.258 521.559 358.24C521.573 358.222 521.59 358.208 521.609 358.196C521.629 358.185 521.65 358.178 521.673 358.175C521.695 358.172 521.718 358.174 521.739 358.18C522.209 358.3 522.739 358.48 523.389 358.7C523.41 358.707 523.429 358.718 523.446 358.732C523.462 358.746 523.475 358.764 523.485 358.783C523.494 358.803 523.499 358.824 523.5 358.846C523.501 358.868 523.497 358.89 523.489 358.91C523.481 358.933 523.468 358.953 523.45 358.971C523.433 358.988 523.413 359.001 523.39 359.01C523.367 359.018 523.343 359.022 523.319 359.02C523.294 359.018 523.271 359.011 523.249 359L523.279 359.02Z" fill="#27273D"/>
<path d="M555.31 368.32L554.49 368.11C554.468 368.104 554.447 368.094 554.43 368.08C554.412 368.067 554.397 368.05 554.386 368.03C554.374 368.011 554.367 367.989 554.365 367.967C554.362 367.944 554.363 367.922 554.37 367.9C554.374 367.879 554.383 367.858 554.396 367.841C554.409 367.823 554.425 367.808 554.444 367.797C554.462 367.785 554.483 367.778 554.505 367.775C554.527 367.772 554.549 367.774 554.57 367.78L555.39 367.99C555.426 367.999 555.459 368.02 555.483 368.05C555.506 368.08 555.519 368.117 555.519 368.155C555.519 368.193 555.506 368.23 555.483 368.26C555.459 368.29 555.426 368.311 555.39 368.32H555.31Z" fill="#27273D"/>
<path d="M516.879 360.18C516.844 360.179 516.809 360.168 516.78 360.146C516.751 360.124 516.73 360.094 516.719 360.06C516.568 359.564 516.487 359.049 516.479 358.53C516.479 358.46 516.479 358.39 516.479 358.33C516.479 358.307 516.484 358.285 516.493 358.264C516.502 358.243 516.516 358.224 516.533 358.209C516.55 358.194 516.57 358.183 516.592 358.176C516.614 358.169 516.637 358.167 516.659 358.17C516.682 358.171 516.704 358.177 516.724 358.187C516.744 358.196 516.762 358.21 516.777 358.227C516.792 358.243 516.803 358.263 516.81 358.284C516.818 358.305 516.821 358.328 516.819 358.35C516.819 358.41 516.819 358.47 516.819 358.53C516.828 359.015 516.905 359.497 517.049 359.96C517.055 359.982 517.057 360.004 517.054 360.027C517.052 360.049 517.044 360.07 517.033 360.09C517.022 360.11 517.007 360.127 516.989 360.14C516.972 360.154 516.951 360.164 516.929 360.17L516.879 360.18ZM516.739 356.98C516.71 356.989 516.679 356.989 516.649 356.98C516.197 356.6 515.802 356.155 515.479 355.66C515.45 355.627 515.434 355.584 515.434 355.54C515.434 355.496 515.45 355.453 515.479 355.42C515.498 355.407 515.518 355.398 515.54 355.394C515.561 355.39 515.584 355.39 515.605 355.395C515.627 355.399 515.647 355.408 515.665 355.421C515.683 355.434 515.698 355.451 515.709 355.47C516.006 355.925 516.367 356.336 516.779 356.69C516.795 356.705 516.807 356.723 516.815 356.743C516.824 356.762 516.828 356.783 516.828 356.805C516.828 356.826 516.824 356.848 516.815 356.867C516.807 356.887 516.795 356.905 516.779 356.92C516.775 356.95 516.761 356.978 516.739 357V356.98Z" fill="#27273D"/>
<path d="M531 302.61C531 302.61 459.73 306.78 443.09 306.17C426.45 305.56 422.39 245.46 425.9 236.17C429.41 226.88 432.53 231.68 435.7 247.82C438.3 261 438.7 276.61 442.27 289.31C442.66 290.7 443.45 294.31 444.9 294.31C453.52 294.18 524.42 289.89 529.68 292.13C536 294.76 540.94 298.38 531 302.61Z" fill="url(#paint1_linear_2650_92149)"/>
<path d="M428.59 231.7C428.59 231.7 430.25 254.64 433.14 272.49C436.03 290.34 436.55 298.93 446.36 299.49C456.17 300.05 532.94 296.42 534.08 295.29C535.22 294.16 531.89 291.96 527.95 291.61C524.01 291.26 445.57 294 445.57 294C443.832 291.63 442.363 289.074 441.19 286.38C439.97 283.06 436.47 247.78 435.07 238.67C433.67 229.56 428.59 231.7 428.59 231.7Z" fill="#686868"/>
<path d="M446.209 307.23C445.019 307.23 443.969 307.23 443.079 307.18C439.899 307.07 437.009 305.07 434.469 301.25C424.249 285.87 421.969 243.75 424.969 235.8C426.649 231.34 428.679 230.64 430.079 230.8C433.679 231.31 436.429 238.43 437.259 249.39C438.059 259.78 439.869 275.61 442.359 286V286.06C443.909 292.49 445.639 293.06 446.129 293.06C458.429 293.35 476.789 292.43 492.979 291.62C514.769 290.53 528.269 289.92 531.139 291.14C534.729 292.67 537.139 294.14 537.139 296.24C537.139 298.34 534.929 300.08 529.749 302.29L529.599 302.36H529.429C528.769 302.45 466.879 307.23 446.209 307.23ZM429.669 232.85C428.789 232.85 427.749 234.2 426.869 236.52C424.049 244.02 426.469 285.52 436.169 300.12C438.319 303.37 440.669 305.06 443.169 305.12C459.169 305.71 525.309 300.65 529.169 300.35C534.569 298.03 535.169 296.71 535.169 296.24C535.169 295.77 534.349 294.68 530.429 293.01C527.839 291.91 510.209 292.8 493.159 293.65C476.929 294.47 458.529 295.39 446.159 295.1C443.689 295.04 441.829 292.24 440.459 286.55V286.49C437.939 276 436.149 260.49 435.309 249.56C434.419 237.81 431.499 233.06 429.879 232.83L429.669 232.85Z" fill="#313B47"/>
<path d="M546.499 303.49C549.213 308.354 551.073 313.648 551.999 319.14C551.834 319.386 551.646 319.617 551.439 319.83C550.915 320.279 550.364 320.697 549.789 321.08L538.549 315.63L529.939 282.63C529.939 282.63 530.289 281.81 531.679 282.21C531.764 281.852 531.958 281.529 532.233 281.285C532.509 281.042 532.854 280.89 533.219 280.85C537.129 285.21 539.219 290.97 542.139 296.11C543.499 298.64 545.109 301 546.499 303.49Z" fill="#939286"/>
<path d="M552 319.14C551.086 313.65 549.239 308.357 546.54 303.49C545.15 301 543.54 298.64 542.14 296.15C539.24 291.01 537.14 285.25 533.22 280.89H533.37C534.347 280.628 535.196 280.02 535.76 279.18C537.513 281.134 538.987 283.321 540.14 285.68C541.67 288.68 542.91 291.82 544.5 294.78C545.59 296.78 546.83 298.72 547.91 300.73C550.748 306.006 552.451 311.817 552.91 317.79C552.64 318.11 552.3 318.67 552 319.14Z" fill="#E5E4C8"/>
<path d="M547.87 300.71C546.79 298.71 545.55 296.77 544.46 294.76C542.87 291.76 541.63 288.66 540.1 285.66C538.947 283.301 537.473 281.114 535.72 279.16C535.826 279.003 535.95 278.858 536.09 278.73C536.33 278.58 537.99 277.33 540.27 280.62C542.55 283.91 543.17 288.55 546.71 293.8C550.25 299.05 553.37 308.93 553.47 312.8C553.57 316.67 553.02 317.43 553.02 317.43L552.84 317.75C552.388 311.786 550.695 305.982 547.87 300.71Z" fill="white"/>
<path d="M519.89 286.56C521.081 285.589 522.539 285.003 524.07 284.88C526.19 284.88 524.63 283.19 529.83 283.03C529.83 283.03 535.59 293.09 538.69 295.78C541.79 298.47 544.58 307.25 547.47 311.89C549.2 314.712 549.854 318.064 549.31 321.33C549.31 321.33 546.18 322.99 546.56 325.92C546.94 328.85 547.5 328.92 547.5 328.92C547.5 328.92 545.35 329.21 541.99 324.55C539.012 320.589 535.601 316.973 531.82 313.77C530.28 312.57 522.04 307.77 521.29 307.14C520.54 306.51 517.8 305.52 521.49 300C525.18 294.48 527.04 292.47 522.36 291C519.29 290.06 518.28 289.44 519.89 286.56Z" fill="#999698"/>
<path d="M546.54 325.12C546.87 322.49 547.15 322.38 549.31 321.33C551.47 320.28 551.63 318.39 552.84 317.77C554.05 317.15 554.7 318.26 554.36 321.24C554.02 324.22 554.48 326.47 551.43 327.95C548.38 329.43 545.94 329.9 546.54 325.12Z" fill="#575756"/>
<path d="M529.9 282.67C534.32 292.09 538.03 294.8 538.03 294.8C538.03 294.8 539.82 299.55 541.48 303.8C543.14 308.05 547 320.19 547 320.19C547 320.19 544.26 316.45 543.48 315.5C542.7 314.55 538.34 306.87 537.48 305.56C536.62 304.25 531.64 294.42 529.15 291.45C526.66 288.48 527.41 286.92 527.41 286.92L524.33 284.77C525.981 283.613 527.897 282.891 529.9 282.67V282.67Z" fill="#D9D7DA"/>
<path d="M526.509 307.53C526.509 307.53 525.509 302.41 526.059 302.05C526.609 301.69 527.529 304.53 527.629 306.12C527.729 307.71 529.629 304.49 530.069 304.12C530.509 303.75 531.819 303.87 529.939 306.3C528.059 308.73 528.369 308.64 528.369 308.64L529.519 312.41L527.359 310.93L525.279 309.27L526.509 307.53Z" fill="#D9D7DA"/>
<path d="M531.31 310.94C531.31 310.94 530.41 306.12 530.95 305.78C531.49 305.44 532.37 308.1 532.45 309.6C532.53 311.1 534.45 308.03 534.91 307.69C535.37 307.35 536.66 307.42 534.75 309.74C532.84 312.06 533.01 311.54 533.01 311.54L534.24 315.54L532.11 314.18L530.06 312.65L531.31 310.94Z" fill="#D9D7DA"/>
<path d="M535.55 315C535.55 315 534.69 310.39 535.21 310.06C535.73 309.73 536.58 312.28 536.65 313.71C536.72 315.14 538.55 312.2 539.02 311.88C539.49 311.56 540.71 311.62 538.87 313.88C537.03 316.14 537.32 316.01 537.32 316.01L538.32 319.39L536.31 318L534.31 316.53L535.55 315Z" fill="#D9D7DA"/>
<path d="M529.92 282.7C528.742 282.541 527.543 282.75 526.49 283.3C525.94 283.57 525.42 283.89 524.89 284.17C524.281 284.453 523.639 284.658 522.98 284.78C521.768 284.935 520.63 285.447 519.71 286.25C519.359 286.603 519.095 287.032 518.935 287.504C518.776 287.975 518.726 288.476 518.79 288.97C518.938 289.483 519.229 289.944 519.63 290.298C520.03 290.652 520.522 290.885 521.05 290.97C522.153 291.191 523.184 291.682 524.05 292.4C526.11 294.46 523.51 296.85 522.19 298.4C521.349 299.389 520.674 300.506 520.19 301.71C519.682 302.775 519.451 303.952 519.52 305.13C519.78 307 521.63 307.76 523.12 308.5C530.502 312.359 536.863 317.914 541.68 324.71C542.81 326.35 543.93 328.14 545.88 328.88C546.391 329.07 546.926 329.191 547.47 329.24C547.9 329.24 547.9 328.61 547.47 328.56C546.465 328.466 545.512 328.076 544.73 327.44C544.008 326.786 543.376 326.039 542.85 325.22C541.455 323.185 539.932 321.241 538.29 319.4C534.72 315.444 530.577 312.047 526 309.32C525 308.73 524 308.18 522.95 307.67C522.174 307.351 521.462 306.893 520.85 306.32C520.561 305.974 520.363 305.561 520.274 305.12C520.185 304.678 520.208 304.221 520.34 303.79C520.618 302.53 521.109 301.326 521.79 300.23C522.463 299.239 523.201 298.293 524 297.4C524.741 296.626 525.25 295.659 525.47 294.61C525.78 292.28 523.63 291 521.69 290.48C520.69 290.19 519.4 289.8 519.4 288.48C519.431 287.95 519.608 287.438 519.911 287.002C520.215 286.566 520.633 286.223 521.12 286.01C522.26 285.46 523.57 285.42 524.74 284.93C525.758 284.369 526.81 283.871 527.89 283.44C528.481 283.274 529.102 283.236 529.71 283.33C530.14 283.39 530.32 282.73 529.89 282.67L529.92 282.7Z" fill="#27273D"/>
<path d="M548.129 322.59C549.039 321.73 550.259 321.29 551.209 320.48C551.83 319.789 552.345 319.011 552.739 318.17C552.879 317.96 553.039 317.71 553.319 317.78C553.404 317.806 553.481 317.85 553.547 317.908C553.612 317.967 553.664 318.039 553.699 318.12C553.943 318.715 554.046 319.359 553.999 320C554.023 321.392 553.906 322.782 553.649 324.15C553.576 325.227 553.101 326.236 552.319 326.98C551.741 327.398 551.109 327.734 550.439 327.98C549.773 328.266 549.079 328.483 548.369 328.63C548.229 328.677 548.079 328.692 547.932 328.674C547.784 328.656 547.643 328.606 547.517 328.526C547.392 328.447 547.286 328.34 547.206 328.215C547.127 328.089 547.077 327.947 547.059 327.8C546.923 327.302 546.856 326.787 546.859 326.27C546.801 325.6 546.88 324.926 547.092 324.288C547.303 323.65 547.643 323.062 548.089 322.56C548.147 322.495 548.178 322.411 548.175 322.324C548.173 322.237 548.137 322.155 548.076 322.094C548.014 322.032 547.932 321.997 547.845 321.994C547.759 321.992 547.674 322.022 547.609 322.08C546.654 323.115 546.141 324.482 546.179 325.89C546.07 326.897 546.283 327.913 546.789 328.79C546.983 329.018 547.236 329.187 547.521 329.279C547.805 329.37 548.109 329.381 548.399 329.31C549.212 329.155 550.004 328.906 550.759 328.57C551.466 328.364 552.118 328.004 552.67 327.516C553.221 327.029 553.658 326.426 553.949 325.75C554.438 324.128 554.684 322.444 554.679 320.75C554.679 319.75 554.779 317.11 553.209 317.09C552.139 317.09 551.719 318.6 551.279 319.35C550.847 319.939 550.277 320.413 549.619 320.73C548.906 321.118 548.236 321.581 547.619 322.11C547.329 322.41 547.809 322.89 548.129 322.59Z" fill="#27273D"/>
<path d="M530.19 283.23C530.227 283.092 530.293 282.963 530.385 282.852C530.476 282.742 530.59 282.652 530.719 282.589C530.848 282.527 530.989 282.493 531.132 282.489C531.275 282.486 531.418 282.514 531.55 282.57C531.636 282.595 531.728 282.585 531.807 282.541C531.886 282.498 531.944 282.426 531.97 282.34C532.12 281.41 533.19 281.34 533.91 281.03C534.518 280.765 535.05 280.352 535.46 279.83C535.95 279.27 536.46 278.65 537.28 278.73C537.901 278.818 538.476 279.106 538.92 279.55C539.755 280.414 540.414 281.433 540.86 282.55C541.4 283.7 541.86 284.89 542.3 286.06C542.876 287.391 543.523 288.689 544.24 289.95C545.15 291.64 546.07 293.32 546.96 295.02C548.743 298.303 550.252 301.728 551.47 305.26C552.833 309.165 553.414 313.3 553.18 317.43C553.18 317.87 553.82 317.86 553.86 317.43C554.45 309.59 551.38 302.08 547.86 295.26C546.92 293.46 545.95 291.68 544.99 289.89C544.203 288.518 543.496 287.102 542.87 285.65C542.38 284.41 541.87 283.16 541.34 281.96C540.859 280.823 540.144 279.8 539.24 278.96C538.68 278.469 537.981 278.165 537.24 278.09C536.839 278.081 536.441 278.167 536.08 278.341C535.719 278.515 535.403 278.772 535.16 279.09C534.916 279.384 534.655 279.665 534.38 279.93C533.97 280.257 533.491 280.487 532.98 280.6C532.577 280.674 532.204 280.86 531.902 281.136C531.599 281.411 531.38 281.766 531.27 282.16L531.69 281.92C531.471 281.841 531.239 281.808 531.008 281.823C530.776 281.838 530.55 281.9 530.344 282.006C530.137 282.112 529.955 282.26 529.808 282.439C529.661 282.619 529.553 282.827 529.49 283.05C529.466 283.138 529.478 283.231 529.523 283.31C529.568 283.388 529.642 283.446 529.73 283.47C529.817 283.494 529.911 283.482 529.989 283.437C530.068 283.392 530.126 283.318 530.15 283.23H530.19Z" fill="#27273D"/>
<path d="M529.64 283L531.95 287C532.67 288.24 533.36 289.5 534.17 290.69C535.001 291.853 535.892 292.971 536.84 294.04C537.761 295.106 538.619 296.224 539.41 297.39C540.966 299.721 542.366 302.153 543.6 304.67C544.85 307.14 546.11 309.67 547.21 312.16C548.538 314.961 549.286 318.002 549.41 321.1C549.41 321.19 549.446 321.277 549.509 321.34C549.573 321.404 549.66 321.44 549.75 321.44C549.84 321.44 549.926 321.404 549.99 321.34C550.054 321.277 550.09 321.19 550.09 321.1C550.03 315.51 547.23 310.45 544.81 305.56C543.587 303.034 542.231 300.574 540.75 298.19C540.003 297.009 539.195 295.868 538.33 294.77C537.42 293.63 536.42 292.55 535.52 291.4C534.543 290.075 533.657 288.685 532.87 287.24L530.23 282.65C530.183 282.572 530.108 282.515 530.02 282.493C529.931 282.47 529.838 282.484 529.76 282.53C529.682 282.576 529.625 282.652 529.602 282.74C529.58 282.828 529.593 282.922 529.64 283V283Z" fill="#27273D"/>
<path d="M532 285.93C530.922 285.46 529.734 285.301 528.57 285.47C528.3 285.531 528.044 285.645 527.819 285.806C527.593 285.967 527.402 286.171 527.256 286.406C527.109 286.642 527.012 286.904 526.968 287.178C526.924 287.451 526.935 287.731 527 288C527.374 289.379 528.058 290.655 529 291.73C529.88 293 530.71 294.31 531.52 295.63C534.78 300.98 537.58 306.63 540.85 311.94C542.656 314.935 544.688 317.786 546.93 320.47C546.983 320.524 547.052 320.559 547.127 320.569C547.202 320.579 547.278 320.564 547.343 320.526C547.408 320.488 547.459 320.43 547.488 320.36C547.516 320.29 547.52 320.213 547.5 320.14C545.5 313.473 543.21 306.917 540.63 300.47C539.91 298.64 539.17 296.81 538.41 295C538.24 294.6 537.59 294.78 537.76 295.18C540.427 301.593 542.86 308.097 545.06 314.69C545.667 316.563 546.263 318.44 546.85 320.32L547.41 319.99C543.718 315.401 540.486 310.461 537.76 305.24C536.33 302.66 534.93 300.08 533.45 297.54C531.97 295 530.37 292.6 528.74 290.18C528.13 289.27 526.93 287.18 528.27 286.38C528.823 286.113 529.449 286.035 530.05 286.16C530.681 286.244 531.299 286.405 531.89 286.64C532.3 286.79 532.48 286.14 532.07 285.98L532 285.93Z" fill="#27273D"/>
<path d="M527.169 286.73L524.239 284.59C524.201 284.567 524.159 284.552 524.115 284.545C524.071 284.539 524.027 284.541 523.984 284.552C523.941 284.563 523.9 284.583 523.865 284.61C523.83 284.637 523.801 284.671 523.779 284.71C523.735 284.787 523.723 284.878 523.745 284.964C523.768 285.05 523.823 285.124 523.899 285.17L526.829 287.31C526.867 287.341 526.911 287.363 526.959 287.375C527.006 287.387 527.056 287.389 527.104 287.38C527.152 287.372 527.198 287.353 527.238 287.324C527.278 287.296 527.312 287.26 527.336 287.218C527.361 287.176 527.377 287.128 527.381 287.08C527.386 287.031 527.381 286.982 527.365 286.935C527.349 286.889 527.323 286.847 527.289 286.811C527.256 286.776 527.215 286.748 527.169 286.73Z" fill="#27273D"/>
<path d="M527.79 310.42C527.244 308.994 526.816 307.526 526.51 306.03C526.35 305.24 526.22 304.44 526.13 303.63L526.07 303C526.045 302.854 526.045 302.706 526.07 302.56C526.21 302.09 526.55 302.67 526.61 302.89C526.8 303.59 526.89 304.32 527.05 305.03C527.21 305.74 527.41 306.54 527.63 307.29C528.06 308.803 528.581 310.289 529.19 311.74C529.36 312.14 530.01 311.96 529.84 311.56C528.716 308.842 527.882 306.013 527.35 303.12C527.339 302.874 527.276 302.633 527.163 302.414C527.051 302.195 526.893 302.002 526.7 301.85C526.519 301.734 526.303 301.686 526.09 301.716C525.877 301.745 525.682 301.849 525.54 302.01C525.21 302.46 525.44 303.28 525.54 303.79C525.62 304.5 525.73 305.2 525.86 305.91C526.169 307.51 526.621 309.08 527.21 310.6C527.37 311 528.02 310.82 527.86 310.42H527.79Z" fill="#27273D"/>
<path d="M525.999 307.37C525.785 307.622 525.585 307.886 525.399 308.16C525.224 308.444 525.08 308.745 524.969 309.06C524.944 309.146 524.955 309.239 524.998 309.317C525.041 309.396 525.113 309.454 525.199 309.48C525.243 309.492 525.288 309.495 525.333 309.49C525.377 309.484 525.42 309.47 525.459 309.448C525.499 309.425 525.533 309.396 525.56 309.36C525.588 309.324 525.608 309.283 525.619 309.24V309.12V309.07L525.709 308.87C525.767 308.743 525.838 308.623 525.919 308.51C525.988 308.395 526.065 308.284 526.149 308.18V308.13C526.149 308.13 526.149 308.07 526.149 308.13C526.197 308.059 526.251 307.992 526.309 307.93C526.369 307.864 526.404 307.779 526.409 307.69C526.41 307.645 526.401 307.601 526.384 307.56C526.367 307.518 526.341 307.481 526.309 307.45C526.246 307.387 526.159 307.351 526.069 307.351C525.979 307.351 525.893 307.387 525.829 307.45L525.999 307.37Z" fill="#27273D"/>
<path d="M528.279 306.74C529.013 305.729 529.941 304.876 531.009 304.23L530.599 304.18C531.179 304.68 530.369 305.51 530.049 305.91L528.379 308C528.345 308.031 528.317 308.068 528.297 308.11C528.277 308.152 528.267 308.198 528.265 308.244C528.264 308.29 528.272 308.337 528.289 308.38C528.306 308.423 528.332 308.462 528.365 308.495C528.397 308.527 528.437 308.553 528.48 308.57C528.523 308.587 528.569 308.595 528.615 308.594C528.661 308.593 528.707 308.582 528.749 308.562C528.791 308.543 528.828 308.515 528.859 308.48L530.859 306.03C531.158 305.702 531.368 305.302 531.469 304.87C531.507 304.663 531.493 304.449 531.428 304.249C531.364 304.048 531.251 303.866 531.099 303.72C531.045 303.669 530.976 303.637 530.902 303.628C530.829 303.619 530.754 303.634 530.689 303.67C529.516 304.378 528.496 305.313 527.689 306.42C527.645 306.497 527.633 306.588 527.656 306.674C527.678 306.76 527.733 306.834 527.809 306.88C527.888 306.925 527.981 306.937 528.068 306.915C528.156 306.892 528.232 306.837 528.279 306.76V306.74Z" fill="#27273D"/>
<path d="M532.739 314.16C531.81 311.819 531.22 309.358 530.989 306.85C530.989 306.67 530.849 306.13 531.169 306.26C531.489 306.39 531.449 306.85 531.489 307.08C531.589 307.61 531.709 308.14 531.829 308.68C532.109 309.887 532.443 311.087 532.829 312.28C533.199 313.544 533.64 314.786 534.149 316C534.319 316.4 534.909 316.05 534.729 315.66C533.685 313.103 532.891 310.45 532.359 307.74C532.316 307.12 532.149 306.515 531.869 305.96C531.798 305.855 531.705 305.765 531.598 305.697C531.49 305.629 531.369 305.585 531.243 305.566C531.117 305.547 530.989 305.554 530.866 305.588C530.743 305.621 530.628 305.68 530.529 305.76C530.119 306.16 530.359 307.01 530.419 307.51C530.509 308.22 530.629 308.92 530.769 309.62C531.074 311.231 531.526 312.811 532.119 314.34C532.279 314.74 532.939 314.57 532.779 314.16H532.739Z" fill="#27273D"/>
<path d="M530.8 310.44C530.355 310.963 529.997 311.554 529.74 312.19C529.715 312.276 529.725 312.369 529.768 312.447C529.811 312.526 529.884 312.584 529.97 312.61C530.057 312.632 530.15 312.619 530.228 312.574C530.306 312.53 530.364 312.456 530.39 312.37V312.37C530.39 312.37 530.39 312.37 530.39 312.32L530.44 312.22C530.467 312.15 530.501 312.084 530.54 312.02C530.61 311.88 530.68 311.74 530.76 311.61C530.84 311.48 530.92 311.36 531.01 311.24L531.08 311.15C531.08 311.15 531.08 311.09 531.08 311.15C531.08 311.21 531.08 311.15 531.08 311.15L531.23 310.96C531.293 310.896 531.329 310.81 531.329 310.72C531.329 310.63 531.293 310.544 531.23 310.48C531.166 310.417 531.08 310.381 530.99 310.381C530.9 310.381 530.814 310.417 530.75 310.48L530.8 310.44Z" fill="#27273D"/>
<path d="M532.92 310C533.625 309.092 534.502 308.331 535.5 307.76H535.09C535.59 308.16 534.83 308.87 534.57 309.17L533 310.94C532.72 311.27 533.2 311.75 533.48 311.42C534.1 310.71 534.72 310.01 535.33 309.29C535.618 308.997 535.818 308.63 535.91 308.23C535.945 308.048 535.932 307.86 535.872 307.685C535.812 307.51 535.708 307.353 535.57 307.23C535.517 307.178 535.449 307.144 535.375 307.133C535.301 307.122 535.226 307.135 535.16 307.17C534.109 307.769 533.185 308.567 532.44 309.52C532.379 309.585 532.345 309.671 532.345 309.76C532.345 309.849 532.379 309.935 532.44 310C532.504 310.064 532.59 310.099 532.68 310.099C532.77 310.099 532.856 310.064 532.92 310V310Z" fill="#27273D"/>
<path d="M537.349 318.59C536.518 316.288 535.931 313.905 535.599 311.48C535.559 311.2 535.529 310.92 535.509 310.64C535.509 310.58 535.439 310.31 535.509 310.28C535.579 310.25 535.759 310.69 535.779 310.78C535.919 311.33 535.999 311.9 536.119 312.45C536.379 313.7 536.689 314.93 537.039 316.16C537.385 317.465 537.802 318.751 538.289 320.01C538.439 320.41 539.099 320.23 538.939 319.83C537.925 317.158 537.152 314.4 536.629 311.59C536.509 311.01 536.499 310.21 536.009 309.8C535.914 309.713 535.799 309.652 535.673 309.623C535.548 309.595 535.417 309.599 535.294 309.637C535.17 309.674 535.059 309.743 534.971 309.836C534.882 309.93 534.82 310.045 534.789 310.17C534.77 310.787 534.841 311.403 534.999 312C535.109 312.72 535.249 313.43 535.399 314.14C535.722 315.709 536.157 317.253 536.699 318.76C536.849 319.17 537.499 318.99 537.349 318.58V318.59Z" fill="#27273D"/>
<path d="M535.32 314.55C534.953 315.053 534.666 315.609 534.47 316.2C534.451 316.245 534.442 316.293 534.443 316.341C534.445 316.389 534.456 316.437 534.477 316.48C534.498 316.524 534.529 316.562 534.566 316.593C534.603 316.624 534.646 316.647 534.693 316.659C534.739 316.672 534.788 316.675 534.836 316.668C534.883 316.66 534.929 316.643 534.969 316.616C535.01 316.59 535.044 316.555 535.07 316.514C535.096 316.474 535.113 316.428 535.12 316.38L535.2 316.17C535.2 316.17 535.2 316.1 535.2 316.06V316.01C535.26 315.88 535.32 315.75 535.39 315.62C535.521 315.363 535.675 315.119 535.85 314.89C535.872 314.851 535.887 314.808 535.893 314.764C535.898 314.72 535.895 314.675 535.884 314.632C535.872 314.588 535.852 314.548 535.825 314.513C535.798 314.477 535.764 314.447 535.725 314.425C535.686 314.403 535.643 314.388 535.599 314.382C535.555 314.377 535.51 314.38 535.467 314.391C535.423 314.403 535.383 314.423 535.347 314.45C535.312 314.477 535.282 314.511 535.26 314.55H535.32Z" fill="#27273D"/>
<path d="M537.309 314C537.865 313.156 538.59 312.437 539.439 311.89L539.029 311.84C539.469 312.25 538.849 312.93 538.599 313.26L537.249 315.07C537.226 315.109 537.211 315.152 537.204 315.196C537.197 315.241 537.2 315.286 537.211 315.33C537.222 315.374 537.242 315.415 537.269 315.451C537.296 315.487 537.33 315.517 537.369 315.54C537.447 315.582 537.538 315.592 537.623 315.57C537.708 315.548 537.782 315.494 537.829 315.42L539.389 313.33C539.627 313.043 539.782 312.698 539.839 312.33C539.867 312.149 539.852 311.964 539.794 311.79C539.737 311.617 539.639 311.459 539.509 311.33C539.456 311.278 539.388 311.244 539.314 311.233C539.241 311.222 539.165 311.235 539.099 311.27C538.155 311.884 537.345 312.684 536.719 313.62C536.479 313.99 537.069 314.33 537.309 313.97V314Z" fill="#27273D"/>
<path d="M532.369 287.48C532.369 287.48 532.019 287.38 531.549 287.3C531.506 287.29 531.468 287.264 531.443 287.227C531.419 287.189 531.411 287.144 531.419 287.1C531.423 287.079 531.431 287.059 531.442 287.04C531.454 287.022 531.469 287.007 531.487 286.995C531.505 286.982 531.525 286.974 531.546 286.97C531.567 286.966 531.588 286.966 531.609 286.97C532.099 287.05 532.439 287.15 532.459 287.15C532.481 287.156 532.501 287.166 532.519 287.18C532.536 287.193 532.551 287.211 532.561 287.231C532.571 287.25 532.577 287.272 532.579 287.294C532.58 287.317 532.577 287.339 532.569 287.36C532.565 287.381 532.556 287.402 532.543 287.419C532.53 287.437 532.514 287.452 532.495 287.463C532.477 287.474 532.456 287.482 532.434 287.485C532.412 287.488 532.39 287.486 532.369 287.48V287.48Z" fill="#27273D"/>
<path d="M545.819 317.8C545.788 317.801 545.757 317.793 545.731 317.777C545.704 317.761 545.683 317.738 545.669 317.71C545.419 317.24 545.139 316.71 544.849 316.21C544.828 316.17 544.823 316.124 544.837 316.08C544.85 316.037 544.879 316.001 544.919 315.98C544.958 315.958 545.003 315.952 545.046 315.963C545.089 315.974 545.126 316.002 545.149 316.04L545.969 317.55C545.981 317.569 545.989 317.591 545.992 317.614C545.995 317.636 545.993 317.659 545.986 317.681C545.98 317.703 545.968 317.723 545.953 317.74C545.938 317.757 545.92 317.771 545.899 317.78C545.876 317.797 545.847 317.804 545.819 317.8ZM544.169 314.8C544.138 314.801 544.107 314.793 544.081 314.777C544.054 314.761 544.033 314.738 544.019 314.71L543.189 313.21C543.167 313.171 543.161 313.126 543.172 313.083C543.184 313.04 543.211 313.003 543.249 312.98C543.289 312.961 543.335 312.958 543.378 312.971C543.42 312.984 543.456 313.012 543.479 313.05C543.739 313.51 544.029 314.05 544.319 314.55C544.331 314.569 544.339 314.591 544.342 314.614C544.345 314.636 544.343 314.659 544.336 314.681C544.33 314.703 544.318 314.723 544.303 314.74C544.288 314.757 544.27 314.771 544.249 314.78L544.169 314.8ZM542.479 311.8C542.45 311.8 542.42 311.793 542.394 311.779C542.368 311.765 542.346 311.745 542.329 311.72L542.209 311.53C542.069 311.31 541.839 310.89 541.479 310.21C541.469 310.19 541.463 310.168 541.462 310.145C541.46 310.122 541.463 310.1 541.471 310.078C541.478 310.057 541.49 310.037 541.505 310.02C541.52 310.003 541.539 309.99 541.559 309.98C541.578 309.97 541.599 309.963 541.62 309.961C541.642 309.959 541.664 309.962 541.684 309.968C541.705 309.975 541.724 309.985 541.74 309.999C541.756 310.013 541.77 310.031 541.779 310.05C542.139 310.73 542.369 311.14 542.499 311.35C542.544 311.414 542.584 311.481 542.619 311.55C542.641 311.589 542.647 311.634 542.636 311.677C542.625 311.72 542.597 311.757 542.559 311.78C542.536 311.797 542.507 311.804 542.479 311.8ZM540.839 308.8C540.809 308.798 540.779 308.789 540.753 308.773C540.727 308.758 540.705 308.736 540.689 308.71L539.899 307.18C539.881 307.14 539.877 307.094 539.89 307.052C539.903 307.009 539.931 306.973 539.969 306.95C540.009 306.929 540.056 306.924 540.099 306.937C540.142 306.95 540.178 306.98 540.199 307.02L540.989 308.55C541.008 308.59 541.011 308.636 540.998 308.678C540.985 308.721 540.957 308.757 540.919 308.78L540.839 308.8ZM539.259 305.74C539.228 305.741 539.197 305.733 539.171 305.717C539.144 305.701 539.123 305.678 539.109 305.65L538.319 304.13C538.298 304.09 538.293 304.044 538.307 304C538.32 303.957 538.349 303.921 538.389 303.9C538.429 303.879 538.476 303.874 538.519 303.887C538.562 303.9 538.598 303.93 538.619 303.97L539.409 305.5C539.42 305.52 539.426 305.541 539.428 305.563C539.431 305.586 539.428 305.608 539.422 305.629C539.415 305.651 539.405 305.671 539.391 305.688C539.376 305.705 539.359 305.719 539.339 305.73L539.259 305.74ZM537.669 302.74C537.638 302.741 537.607 302.733 537.581 302.717C537.554 302.701 537.533 302.678 537.519 302.65L536.709 301.14C536.697 301.121 536.689 301.1 536.685 301.078C536.681 301.056 536.682 301.033 536.688 301.012C536.694 300.99 536.704 300.97 536.718 300.952C536.732 300.935 536.749 300.92 536.769 300.91C536.789 300.898 536.81 300.89 536.833 300.887C536.855 300.884 536.878 300.886 536.9 300.893C536.922 300.9 536.942 300.911 536.959 300.926C536.976 300.941 536.99 300.959 536.999 300.98L537.819 302.49C537.838 302.53 537.841 302.576 537.828 302.618C537.815 302.661 537.787 302.697 537.749 302.72L537.669 302.74ZM536.019 299.74C535.991 299.74 535.963 299.733 535.938 299.719C535.914 299.705 535.893 299.685 535.879 299.66L535.019 298.17C535.004 298.151 534.993 298.129 534.987 298.105C534.981 298.081 534.98 298.057 534.984 298.033C534.988 298.008 534.998 297.986 535.012 297.966C535.026 297.945 535.044 297.929 535.065 297.916C535.086 297.904 535.11 297.896 535.134 297.894C535.159 297.891 535.183 297.894 535.206 297.902C535.23 297.91 535.251 297.923 535.269 297.94C535.286 297.957 535.3 297.977 535.309 298C535.569 298.43 535.859 298.93 536.169 299.49C536.182 299.509 536.19 299.53 536.193 299.552C536.197 299.574 536.196 299.597 536.19 299.618C536.185 299.64 536.175 299.66 536.161 299.678C536.147 299.695 536.129 299.71 536.109 299.72C536.088 299.719 536.067 299.712 536.048 299.702C536.029 299.692 536.012 299.677 535.999 299.66L536.019 299.74ZM534.239 296.81C534.211 296.81 534.183 296.803 534.158 296.789C534.134 296.775 534.113 296.755 534.099 296.73L533.859 296.4L533.069 295.4C533.037 295.368 533.02 295.325 533.02 295.28C533.02 295.235 533.037 295.192 533.069 295.16C533.101 295.131 533.142 295.115 533.184 295.115C533.227 295.115 533.268 295.131 533.299 295.16L534.099 296.16C534.169 296.27 534.259 296.38 534.349 296.51C534.377 296.544 534.392 296.586 534.392 296.63C534.392 296.674 534.377 296.716 534.349 296.75C534.311 296.755 534.273 296.748 534.239 296.73V296.81ZM532.159 294C532.132 294 532.105 293.994 532.081 293.982C532.056 293.97 532.035 293.952 532.019 293.93C531.679 293.48 531.339 293.01 531.019 292.55C530.99 292.517 530.973 292.474 530.973 292.43C530.973 292.386 530.99 292.343 531.019 292.31C531.034 292.293 531.053 292.279 531.073 292.27C531.094 292.261 531.117 292.256 531.139 292.256C531.162 292.256 531.184 292.261 531.205 292.27C531.226 292.279 531.244 292.293 531.259 292.31C531.593 292.77 531.926 293.23 532.259 293.69C532.289 293.723 532.305 293.766 532.305 293.81C532.305 293.854 532.289 293.897 532.259 293.93C532.236 293.965 532.2 293.99 532.159 294V294ZM530.159 291.21C530.13 291.209 530.101 291.202 530.075 291.188C530.049 291.174 530.026 291.154 530.009 291.13C529.649 290.58 529.339 290.08 529.109 289.65C529.099 289.63 529.092 289.609 529.09 289.587C529.088 289.564 529.09 289.542 529.097 289.52C529.103 289.499 529.114 289.479 529.128 289.462C529.142 289.445 529.16 289.431 529.179 289.42C529.199 289.409 529.22 289.403 529.243 289.401C529.265 289.399 529.287 289.401 529.309 289.407C529.33 289.414 529.35 289.424 529.367 289.439C529.384 289.453 529.399 289.47 529.409 289.49C529.639 289.91 529.939 290.4 530.299 290.94C530.329 290.973 530.345 291.016 530.345 291.06C530.345 291.104 530.329 291.147 530.299 291.18L530.159 291.21ZM528.649 288.15C528.606 288.15 528.564 288.134 528.532 288.104C528.501 288.074 528.482 288.033 528.479 287.99V287.89C528.468 287.804 528.468 287.716 528.479 287.63C528.609 287.18 529.049 286.92 529.779 286.85C529.825 286.849 529.869 286.865 529.904 286.895C529.939 286.924 529.962 286.965 529.969 287.01C529.969 287.054 529.953 287.097 529.924 287.131C529.894 287.164 529.853 287.185 529.809 287.19C529.229 287.24 528.899 287.42 528.809 287.73C528.803 287.783 528.803 287.837 528.809 287.89C528.809 287.89 528.809 287.94 528.809 287.97C528.811 287.992 528.807 288.015 528.8 288.036C528.793 288.057 528.781 288.076 528.767 288.093C528.752 288.11 528.734 288.124 528.714 288.133C528.693 288.143 528.672 288.149 528.649 288.15V288.15Z" fill="#27273D"/>
<path d="M547 320C546.969 319.998 546.94 319.989 546.914 319.973C546.888 319.958 546.866 319.936 546.85 319.91L546.45 319.16C546.428 319.12 546.424 319.074 546.437 319.031C546.45 318.987 546.48 318.951 546.52 318.93C546.559 318.909 546.606 318.904 546.649 318.917C546.692 318.931 546.728 318.96 546.75 319L547.15 319.75C547.162 319.769 547.169 319.791 547.172 319.814C547.175 319.836 547.173 319.859 547.167 319.881C547.16 319.903 547.149 319.923 547.134 319.94C547.119 319.957 547.1 319.971 547.08 319.98L547 320Z" fill="#27273D"/>
<path d="M526.619 285.37C526.598 285.371 526.577 285.367 526.558 285.359C526.539 285.35 526.522 285.337 526.509 285.32C526.063 285.01 525.574 284.764 525.059 284.59C525.038 284.582 525.019 284.57 525.002 284.555C524.986 284.54 524.973 284.521 524.963 284.501C524.954 284.48 524.949 284.458 524.948 284.436C524.948 284.413 524.951 284.391 524.959 284.37C524.966 284.348 524.977 284.328 524.992 284.31C525.007 284.293 525.026 284.279 525.047 284.27C525.067 284.26 525.09 284.255 525.113 284.255C525.136 284.256 525.159 284.26 525.179 284.27C525.737 284.461 526.262 284.734 526.739 285.08C526.771 285.112 526.789 285.155 526.789 285.2C526.789 285.245 526.771 285.288 526.739 285.32C526.706 285.349 526.664 285.366 526.619 285.37ZM528.079 284.92C528.043 284.921 528.007 284.91 527.978 284.888C527.949 284.866 527.928 284.835 527.919 284.8C527.912 284.779 527.908 284.757 527.91 284.734C527.911 284.712 527.917 284.69 527.928 284.671C527.938 284.651 527.953 284.633 527.97 284.62C527.988 284.606 528.008 284.596 528.029 284.59C528.591 284.43 529.176 284.363 529.759 284.39C529.805 284.393 529.849 284.413 529.88 284.446C529.912 284.48 529.929 284.524 529.929 284.57C529.928 284.592 529.922 284.614 529.913 284.634C529.903 284.654 529.889 284.673 529.873 284.687C529.856 284.702 529.836 284.714 529.815 284.721C529.794 284.728 529.772 284.731 529.749 284.73C529.203 284.701 528.656 284.762 528.129 284.91L528.079 284.92Z" fill="#27273D"/>
<path d="M388.349 210.74C392.809 207.06 405.289 195.74 412.769 188.81C420.249 181.88 422.489 173.31 411.859 179.75C401.229 186.19 383.119 205.75 383.119 205.75C384.161 206.533 385.141 207.395 386.049 208.33C386.774 209.172 387.542 209.976 388.349 210.74V210.74Z" fill="url(#paint2_linear_2650_92149)"/>
<path d="M368.91 247.61H365.14V360.87H368.91V247.61Z" fill="#6D5050"/>
<path d="M364.609 361.38V247.1H369.399V361.38H364.609ZM365.659 248.12V360.36H368.409V248.12H365.659Z" fill="#281414"/>
<path d="M367.13 252.49V362.89H368.97V250.39L367.13 252.49Z" fill="#351919"/>
<path d="M370.55 373.46H363.47V362.73C363.468 362.244 363.658 361.776 364 361.43C364.346 361.088 364.813 360.894 365.3 360.89H368.72C369.205 360.89 369.671 361.083 370.014 361.426C370.357 361.769 370.55 362.235 370.55 362.72V373.46Z" fill="#F5AB35"/>
<path d="M371.06 374H363V362.73C363 362.109 363.247 361.514 363.685 361.075C364.124 360.637 364.719 360.39 365.34 360.39H368.76C369.068 360.387 369.374 360.446 369.659 360.563C369.944 360.679 370.203 360.852 370.421 361.069C370.638 361.287 370.811 361.546 370.927 361.831C371.044 362.116 371.103 362.422 371.1 362.73L371.06 374ZM364 373H370V362.73C370.002 362.556 369.97 362.383 369.905 362.222C369.839 362.06 369.743 361.914 369.62 361.79C369.371 361.54 369.033 361.4 368.68 361.4H365.3C364.947 361.4 364.609 361.54 364.36 361.79C364.237 361.914 364.141 362.06 364.075 362.222C364.01 362.383 363.978 362.556 363.98 362.73L364 373Z" fill="#BC6B1B"/>
<path d="M363.739 247.61C362.379 239.32 353.309 237.37 346.449 242.33C346.179 242.525 345.873 242.665 345.548 242.74C345.224 242.816 344.887 242.826 344.559 242.77C344.23 242.714 343.916 242.594 343.634 242.415C343.353 242.236 343.11 242.004 342.919 241.73L342.379 240.96C342.146 240.623 342.03 240.218 342.048 239.808C342.066 239.398 342.217 239.006 342.479 238.69C344.479 236.22 349.839 230.64 356.479 230.64C361.609 230.64 368.889 234.34 375.009 234.34C377.083 234.316 379.145 234.017 381.139 233.45C381.386 233.385 381.642 233.369 381.894 233.403C382.147 233.437 382.39 233.521 382.609 233.65C382.827 233.782 383.017 233.956 383.166 234.162C383.316 234.368 383.422 234.602 383.479 234.85C383.587 235.311 383.511 235.796 383.269 236.202C383.026 236.609 382.636 236.905 382.179 237.03C378.529 238.03 370.299 241.03 370.299 247.61H363.739Z" fill="#F5AB35"/>
<path d="M370.85 248.12H363.31L363.24 247.69C363.057 246.197 362.484 244.778 361.578 243.577C360.672 242.376 359.465 241.435 358.08 240.85C354.66 239.44 350.32 240.16 346.75 242.74C346.426 242.978 346.057 243.149 345.666 243.241C345.274 243.334 344.869 243.348 344.472 243.28C344.076 243.213 343.697 243.067 343.358 242.851C343.019 242.634 342.727 242.352 342.5 242.02L341.97 241.25C341.67 240.822 341.518 240.308 341.538 239.786C341.558 239.265 341.748 238.764 342.08 238.36C344.08 235.89 349.61 230.14 356.52 230.14C359.453 230.343 362.348 230.928 365.13 231.88C368.47 232.88 371.93 233.88 375.05 233.88C377.079 233.856 379.097 233.563 381.05 233.01C381.364 232.919 381.693 232.893 382.017 232.934C382.342 232.976 382.654 233.083 382.935 233.25C383.217 233.417 383.461 233.639 383.652 233.904C383.844 234.169 383.979 234.471 384.05 234.79C384.185 235.378 384.087 235.995 383.778 236.513C383.469 237.031 382.971 237.41 382.39 237.57C378.93 238.51 370.88 241.39 370.88 247.66L370.85 248.12ZM364.17 247.12H369.85C370.25 240.51 378.49 237.54 382.09 236.56C382.41 236.462 382.681 236.247 382.85 235.958C383.019 235.669 383.072 235.327 383 235C382.957 234.819 382.878 234.649 382.768 234.5C382.658 234.35 382.519 234.225 382.36 234.13C382.036 233.942 381.652 233.888 381.29 233.98C379.252 234.559 377.147 234.865 375.03 234.89C371.76 234.89 368.24 233.89 364.83 232.89C361.77 232.01 358.83 231.18 356.5 231.18C350.03 231.18 344.8 236.68 342.85 239.04C342.659 239.272 342.549 239.559 342.537 239.858C342.524 240.158 342.609 240.453 342.78 240.7L343.31 241.47C343.463 241.687 343.657 241.871 343.882 242.012C344.107 242.152 344.358 242.247 344.62 242.29C344.882 242.339 345.151 242.333 345.411 242.272C345.671 242.212 345.915 242.099 346.13 241.94C349.98 239.16 354.7 238.39 358.45 239.94C359.933 240.549 361.237 241.526 362.238 242.778C363.239 244.031 363.904 245.519 364.17 247.1V247.12Z" fill="#BC6B1B"/>
<path d="M370.339 247.61H363.739V251.35C363.734 251.386 363.734 251.424 363.739 251.46C363.739 252.33 365.219 253.03 367.039 253.03C368.859 253.03 370.349 252.33 370.349 251.46L370.339 247.61Z" fill="#F5AB35"/>
<path d="M366.999 253.54C365.798 253.627 364.606 253.271 363.649 252.54C363.371 252.279 363.206 251.921 363.189 251.54C363.184 251.49 363.184 251.44 363.189 251.39V247.1H370.809V251.46C370.789 251.842 370.62 252.2 370.339 252.46C369.396 253.218 368.207 253.602 366.999 253.54V253.54ZM364.209 248.12V251.47C364.225 251.586 364.282 251.692 364.369 251.77C365.131 252.321 366.062 252.587 366.999 252.52C367.932 252.587 368.859 252.325 369.619 251.78C369.713 251.698 369.774 251.584 369.789 251.46V248.12H364.209Z" fill="#BC6B1B"/>
<path d="M388.35 211.42C388.25 211.42 388.152 211.397 388.062 211.354C387.972 211.311 387.892 211.248 387.83 211.17C387.766 211.1 387.718 211.018 387.687 210.929C387.657 210.839 387.646 210.744 387.654 210.65C387.663 210.556 387.691 210.465 387.737 210.382C387.782 210.299 387.845 210.227 387.92 210.17C392.46 206.44 405.19 194.9 412.31 188.27C417.06 183.85 419.06 179.38 418.31 178.36C417.97 177.92 416.31 177.82 412.23 180.29C401.79 186.6 383.82 205.95 383.64 206.15C383.517 206.283 383.346 206.361 383.165 206.367C382.984 206.374 382.807 206.308 382.675 206.185C382.542 206.062 382.464 205.891 382.457 205.71C382.451 205.529 382.517 205.353 382.64 205.22C382.69 205.22 387.25 200.22 393.05 194.62C400.85 187.03 407.05 181.82 411.52 179.13C415.65 176.63 418.3 176.13 419.39 177.55C421.06 179.76 417.58 185.24 413.26 189.26C406.12 195.9 393.36 207.47 388.8 211.26C388.672 211.363 388.514 211.419 388.35 211.42V211.42Z" fill="#313B47"/>
<path d="M372.13 208.9C372.26 208.141 372.548 207.417 372.974 206.775C373.401 206.134 373.957 205.588 374.607 205.174C375.256 204.76 375.985 204.486 376.747 204.37C377.509 204.254 378.286 204.298 379.03 204.5C384.94 205.68 389.4 210.5 389.86 215.5C390.32 220.5 388.15 222.66 387.43 223.06C386.515 223.437 385.572 223.742 384.61 223.97C384.389 226.792 383.177 229.445 381.19 231.46C377.84 234.87 374.36 235.92 375.81 239.01C377.26 242.1 379.03 247.09 372.99 246.76C366.95 246.43 364.52 243.54 364.12 241.37C363.72 239.2 363.07 236.91 363.07 236.91C363.07 236.91 359.59 239.27 359.85 245.18C360.11 251.09 357.75 251.55 354.93 251.18C352.11 250.81 350.93 247.11 350.33 245.47C349.974 244.474 349.755 243.435 349.68 242.38C349.68 242.38 348.68 237.26 348.68 236.86C348.68 236.46 348.88 235.09 348.88 235.09C347.608 233.651 346.866 231.819 346.78 229.9C346.739 228.449 346.849 226.998 347.11 225.57C346.823 224.356 346.856 223.088 347.207 221.891C347.557 220.693 348.213 219.608 349.11 218.74C352.17 215.66 358.93 211.07 372.13 208.9Z" fill="#DFF2F9"/>
<path d="M384.429 224.74C384.515 222.873 384.278 221.006 383.729 219.22C382.839 216.62 378.909 212.94 378.909 212.94C378.909 212.94 384.429 216.94 386.459 214.09C388.489 211.24 386.079 208.25 386.079 208.25C386.079 208.25 390.199 212.5 390.389 215.99C390.4 217.31 390.116 218.615 389.557 219.811C388.998 221.006 388.179 222.062 387.159 222.9C386.199 223.6 384.939 224 384.429 224.74Z" fill="#B2C9EA"/>
<path d="M385.389 225C384.829 225.018 384.279 224.845 383.829 224.51C383.723 224.427 383.635 224.322 383.57 224.204C383.505 224.085 383.464 223.955 383.451 223.82C383.438 223.685 383.453 223.549 383.493 223.421C383.534 223.292 383.601 223.172 383.689 223.07C383.773 222.965 383.876 222.878 383.994 222.814C384.112 222.75 384.241 222.71 384.375 222.697C384.508 222.684 384.643 222.698 384.771 222.738C384.899 222.778 385.017 222.843 385.119 222.93C385.42 223.002 385.736 222.963 386.009 222.82C386.709 222.52 388.009 221.47 388.869 217.9C389.1 216.663 389.06 215.391 388.753 214.17C388.446 212.95 387.878 211.811 387.089 210.83C386.05 209.365 384.719 208.129 383.181 207.2C381.643 206.271 379.93 205.668 378.149 205.43C377.45 205.307 376.732 205.333 376.043 205.505C375.354 205.677 374.709 205.992 374.149 206.43C373.516 207.077 373.158 207.945 373.149 208.85C373.156 208.981 373.137 209.113 373.092 209.236C373.048 209.36 372.98 209.474 372.892 209.572C372.804 209.669 372.697 209.748 372.578 209.805C372.459 209.861 372.331 209.893 372.199 209.9C372.068 209.907 371.937 209.887 371.813 209.843C371.689 209.799 371.575 209.731 371.478 209.642C371.38 209.554 371.301 209.448 371.245 209.329C371.188 209.21 371.156 209.081 371.149 208.95C371.13 208.212 371.259 207.478 371.528 206.791C371.798 206.104 372.203 205.478 372.719 204.95C373.999 203.71 375.899 203.19 378.349 203.39C380.422 203.655 382.416 204.346 384.208 205.42C386 206.494 387.549 207.927 388.759 209.63C389.726 210.844 390.416 212.254 390.782 213.761C391.148 215.269 391.181 216.838 390.879 218.36C389.809 222.84 387.879 224.36 386.539 224.8C386.17 224.932 385.781 225 385.389 225V225Z" fill="#3C3C3B"/>
<path d="M347.059 225.78C346.875 225.783 346.693 225.735 346.534 225.642C346.376 225.548 346.246 225.413 346.159 225.25C345.791 224.167 345.831 222.987 346.269 221.93C347.069 219.51 349.469 215.93 356.379 212.71C366.889 207.8 374.209 207.63 374.519 207.63C374.784 207.63 375.039 207.735 375.226 207.923C375.414 208.11 375.519 208.365 375.519 208.63C375.519 208.895 375.414 209.15 375.226 209.337C375.039 209.525 374.784 209.63 374.519 209.63C374.449 209.63 367.299 209.82 357.209 214.53C347.379 219.12 347.909 224.03 347.949 224.31C348.062 224.544 348.079 224.813 347.996 225.059C347.914 225.305 347.74 225.51 347.509 225.63C347.373 225.715 347.219 225.767 347.059 225.78V225.78Z" fill="#3C3C3B"/>
<path d="M348.72 235.82C348.554 235.822 348.391 235.783 348.244 235.706C348.098 235.629 347.972 235.517 347.88 235.38C342.69 227.89 349.19 219.84 349.25 219.76C349.421 219.55 349.668 219.417 349.937 219.39C350.206 219.363 350.475 219.444 350.685 219.615C350.894 219.786 351.027 220.033 351.054 220.302C351.082 220.572 351.001 220.84 350.83 221.05C349.829 222.362 349.049 223.828 348.52 225.39C347.947 226.83 347.739 228.39 347.913 229.93C348.087 231.471 348.639 232.944 349.52 234.22C349.599 234.329 349.655 234.454 349.684 234.585C349.714 234.717 349.717 234.853 349.693 234.985C349.668 235.118 349.617 235.244 349.543 235.357C349.469 235.469 349.372 235.566 349.26 235.64C349.101 235.751 348.913 235.814 348.72 235.82V235.82Z" fill="#3C3C3B"/>
<path d="M350.069 242.35C349.871 242.352 349.677 242.295 349.511 242.186C349.346 242.078 349.216 241.922 349.139 241.74C344.649 231.51 353.949 224.8 354.039 224.74C354.149 224.663 354.273 224.607 354.404 224.578C354.535 224.548 354.67 224.545 354.802 224.567C354.935 224.59 355.061 224.639 355.175 224.71C355.288 224.782 355.387 224.875 355.464 224.985C355.542 225.095 355.597 225.219 355.626 225.349C355.656 225.48 355.66 225.616 355.637 225.748C355.614 225.881 355.565 226.007 355.494 226.121C355.422 226.234 355.329 226.333 355.219 226.41C354.879 226.64 347.219 232.25 350.999 240.94C351.055 241.062 351.086 241.194 351.09 241.328C351.095 241.462 351.072 241.595 351.023 241.72C350.975 241.845 350.901 241.959 350.808 242.055C350.715 242.152 350.603 242.228 350.479 242.28C350.348 242.328 350.209 242.352 350.069 242.35V242.35Z" fill="#3C3C3B"/>
<path d="M356 252.34C355.494 252.341 354.989 252.278 354.5 252.15C351.97 251.51 350.06 249.38 349.25 246.3C347.61 240.12 352.08 232.3 352.25 231.99C352.316 231.872 352.405 231.769 352.512 231.687C352.619 231.604 352.742 231.544 352.873 231.511C353.004 231.477 353.14 231.47 353.273 231.491C353.407 231.511 353.535 231.559 353.65 231.63C353.766 231.696 353.868 231.785 353.95 231.891C354.031 231.998 354.09 232.119 354.124 232.249C354.157 232.378 354.165 232.514 354.145 232.646C354.125 232.778 354.079 232.906 354.01 233.02C354.01 233.09 349.77 240.41 351.19 245.78C352.04 248.99 353.93 249.91 354.98 250.18C355.531 250.347 356.115 250.369 356.677 250.244C357.24 250.12 357.76 249.853 358.19 249.47C359.03 248.59 358.9 247.07 358.76 245.31C358.561 243.821 358.591 242.31 358.85 240.83C359.68 237.05 363.77 234.67 366.27 234.26C366.401 234.238 366.535 234.241 366.665 234.271C366.795 234.301 366.918 234.356 367.027 234.433C367.135 234.51 367.228 234.607 367.298 234.72C367.369 234.833 367.417 234.959 367.44 235.09C367.462 235.221 367.458 235.356 367.429 235.486C367.399 235.615 367.344 235.738 367.267 235.847C367.19 235.956 367.092 236.048 366.979 236.119C366.867 236.19 366.741 236.238 366.61 236.26C364.97 236.54 361.49 238.34 360.84 241.26C360.634 242.544 360.614 243.85 360.78 245.14C360.95 247.14 361.13 249.31 359.67 250.86C359.189 251.341 358.616 251.719 357.985 251.974C357.355 252.228 356.679 252.353 356 252.34V252.34Z" fill="#3C3C3B"/>
<path d="M373.059 247.53C372.045 247.512 371.037 247.368 370.059 247.1C362.779 245.22 362.329 237.21 362.319 237.1C362.31 236.92 362.373 236.743 362.494 236.609C362.615 236.475 362.784 236.394 362.964 236.385C363.145 236.376 363.321 236.438 363.455 236.559C363.589 236.68 363.67 236.85 363.679 237.03V237.03C363.679 237.32 364.099 244.13 370.399 245.76C373.179 246.47 375.199 246.18 376.099 244.94C376.879 243.86 376.709 242.13 375.679 240.53C373.539 237.22 375.439 235.53 378.059 233.21C378.719 232.62 379.469 231.96 380.249 231.21C383.999 227.51 384.839 221.13 382.109 216.98C382.025 216.83 382.001 216.654 382.041 216.488C382.081 216.321 382.183 216.175 382.326 216.08C382.469 215.986 382.643 215.948 382.812 215.976C382.981 216.004 383.134 216.094 383.239 216.23C386.309 220.9 385.389 228.05 381.239 232.18C380.439 232.97 379.669 233.65 378.999 234.25C376.229 236.7 375.419 237.59 376.859 239.81C378.299 242.03 378.349 244.22 377.239 245.75C376.745 246.37 376.104 246.858 375.374 247.168C374.645 247.479 373.849 247.603 373.059 247.53V247.53Z" fill="#3C3C3B"/>
<path d="M380.049 215.48C379.787 215.479 379.535 215.375 379.349 215.19C377.921 213.826 376.325 212.65 374.599 211.69C374.477 211.631 374.369 211.548 374.28 211.445C374.191 211.343 374.125 211.223 374.083 211.094C374.042 210.965 374.028 210.829 374.041 210.694C374.054 210.56 374.094 210.429 374.159 210.31C374.219 210.19 374.303 210.084 374.405 209.997C374.507 209.911 374.625 209.845 374.753 209.805C374.881 209.765 375.015 209.751 375.149 209.764C375.282 209.777 375.411 209.816 375.529 209.88C377.436 210.925 379.195 212.22 380.759 213.73C380.854 213.823 380.93 213.934 380.982 214.057C381.033 214.18 381.06 214.312 381.06 214.445C381.06 214.578 381.033 214.71 380.982 214.833C380.93 214.956 380.854 215.067 380.759 215.16C380.668 215.258 380.559 215.337 380.437 215.392C380.315 215.447 380.183 215.477 380.049 215.48Z" fill="#3C3C3B"/>
<path d="M516.269 148.2C515.839 148.533 515.479 148.947 515.209 149.42C514.671 150.403 514.434 151.523 514.529 152.64C514.74 152.472 514.968 152.328 515.209 152.21C516.143 151.794 517.152 151.574 518.174 151.566C519.196 151.557 520.209 151.759 521.149 152.16C523.019 152.972 524.768 154.035 526.349 155.32L565.059 184.07C565.919 184.71 566.869 185.53 566.789 186.59C566.789 187.12 566.459 187.59 566.389 188.11C566.358 188.693 566.464 189.276 566.699 189.81L567.929 193.29L573.179 193.95C574.179 191.02 573.309 187.71 571.619 185.12C571.459 184.87 571.289 184.64 571.119 184.41C569.372 182.214 567.356 180.245 565.119 178.55L556.119 171.16C546.119 162.93 536.039 154.62 524.449 148.84C521.889 147.54 518.579 146.44 516.269 148.2Z" fill="#686868"/>
<path d="M568.219 187.57C568.289 187.05 568.219 188.1 568.219 187.57C568.289 186.51 565.919 184.71 565.059 184.07L526.349 155.32C524.768 154.035 523.018 152.972 521.149 152.16C520.209 151.759 519.196 151.557 518.174 151.566C517.152 151.574 516.143 151.794 515.209 152.21C514.968 152.328 514.74 152.472 514.529 152.64C514.566 153.226 514.68 153.804 514.869 154.36C515.753 156.439 517.08 158.299 518.759 159.81C531.48 172.832 546.083 183.871 562.079 192.56L567.929 193.29L566.699 189.81C566.509 189.26 568.139 188.15 568.219 187.57ZM564.109 188.38C564.007 188.945 563.692 189.45 563.229 189.79C563.472 189.29 563.767 188.818 564.109 188.38V188.38Z" fill="url(#paint3_linear_2650_92149)"/>
<path d="M562.509 191.82C554.192 187.309 546.241 182.153 538.729 176.4C535.029 173.567 531.446 170.593 527.979 167.48C526.199 165.88 524.459 164.25 522.739 162.58C521.019 160.91 519.399 159.37 517.879 157.58C516.421 156.143 515.527 154.23 515.359 152.19C515.284 151.315 515.511 150.441 516.002 149.713C516.494 148.985 517.22 148.447 518.059 148.19C519.939 147.71 522.059 148.52 523.699 149.33C525.839 150.33 527.929 151.52 529.969 152.73C538.309 157.67 545.889 163.73 553.359 169.88C557.359 173.16 561.343 176.447 565.309 179.74C568.669 182.53 572.399 185.92 572.729 190.59C572.812 191.624 572.686 192.665 572.359 193.65C572.009 194.65 573.649 195.13 573.989 194.1C575.579 189.35 572.889 184.57 569.599 181.29C567.819 179.52 565.829 177.97 563.899 176.38L557.529 171.13C549.759 164.72 541.979 158.25 533.439 152.87C531.319 151.53 529.159 150.26 526.959 149.09C524.981 147.883 522.819 147.005 520.559 146.49C519.498 146.238 518.387 146.292 517.355 146.646C516.323 147 515.413 147.64 514.729 148.49C514.172 149.35 513.818 150.326 513.695 151.343C513.572 152.36 513.683 153.392 514.019 154.36C514.889 156.587 516.257 158.585 518.019 160.2C519.719 161.94 521.456 163.65 523.229 165.33C526.769 168.663 530.436 171.87 534.229 174.95C541.851 181.087 549.954 186.601 558.459 191.44C559.459 192.03 560.539 192.61 561.589 193.18C562.639 193.75 563.409 192.24 562.449 191.71L562.509 191.82Z" fill="#313B47"/>
<path d="M564.17 195.26C561.91 197.4 559.17 198.96 556.74 200.91C553.48 203.52 550.74 206.83 546.98 208.69C546.363 209.036 545.683 209.254 544.98 209.33C543.633 209.247 542.335 208.794 541.23 208.02C540.029 207.368 538.782 206.803 537.5 206.33C535.71 207.88 533.94 209.47 532.17 211.07C529.85 213.16 525.36 214.59 526.55 218.56C526.89 219.501 527.442 220.352 528.163 221.045C528.884 221.739 529.756 222.257 530.71 222.56C533.66 223.64 537.49 220.08 539.9 218.63C543.82 216.257 547.67 213.767 551.45 211.16C558.998 205.938 566.222 200.261 573.08 194.16L568.08 188.44C567.587 191.091 566.209 193.496 564.17 195.26V195.26Z" fill="#686868"/>
<path d="M542.999 201.77C541.119 203.24 539.289 204.77 537.489 206.33C538.772 206.803 540.018 207.368 541.219 208.02C542.325 208.794 543.622 209.247 544.969 209.33C545.672 209.254 546.352 209.036 546.969 208.69C550.709 206.83 553.469 203.52 556.729 200.91C559.159 198.96 561.899 197.4 564.159 195.26C566.079 193.43 570.319 191.04 570.639 188.45L566.369 186.62C558.146 190.968 550.326 196.038 542.999 201.77V201.77Z" fill="url(#paint4_linear_2650_92149)"/>
<path d="M565.999 185.89C558.93 189.629 552.154 193.898 545.729 198.66C542.429 201.12 539.233 203.707 536.139 206.42C534.589 207.77 533.079 209.17 531.529 210.53C530.709 211.25 529.629 211.88 528.669 212.53C527.603 213.208 526.707 214.121 526.049 215.2C525.741 215.818 525.57 216.495 525.547 217.186C525.525 217.876 525.652 218.563 525.919 219.2C526.59 220.771 527.799 222.051 529.329 222.81C530.02 223.199 530.782 223.447 531.569 223.54C532.273 223.583 532.978 223.495 533.649 223.28C535.12 222.754 536.505 222.012 537.759 221.08C539.029 220.21 540.299 219.35 541.619 218.54C545.166 216.36 548.663 214.08 552.109 211.7C558.812 207.048 565.261 202.041 571.429 196.7C572.189 196.04 572.959 195.37 573.709 194.7C574.459 194.03 573.329 192.77 572.519 193.5C566.61 198.758 560.428 203.701 553.999 208.31C550.739 210.637 547.406 212.88 543.999 215.04C542.379 216.04 540.709 217.04 539.089 218.09C537.909 218.86 536.789 219.72 535.589 220.47C534.523 221.239 533.283 221.734 531.979 221.91C531.382 221.917 530.792 221.769 530.269 221.48C529.597 221.16 528.982 220.731 528.449 220.21C527.949 219.716 527.569 219.114 527.339 218.45C527.248 218.177 527.184 217.896 527.149 217.61C527.149 217.48 527.149 217.35 527.149 217.22C527.13 217.097 527.13 216.973 527.149 216.85C527.246 216.355 527.462 215.892 527.779 215.5C527.779 215.56 527.899 215.37 527.939 215.33C527.979 215.29 528.149 215.1 528.249 215C528.349 214.9 528.669 214.61 528.889 214.43C529.729 213.76 530.819 213.12 531.739 212.43C533.149 211.43 534.399 210.12 535.739 208.96C538.739 206.33 541.739 203.76 544.879 201.35C551.035 196.662 557.526 192.43 564.299 188.69L566.779 187.35C567.779 186.84 566.889 185.35 565.919 185.89H565.999Z" fill="#313B47"/>
<path d="M425.09 120.34L420.36 125.94C420.36 125.94 399.79 122.09 389.89 116.31C379.99 110.53 379.04 104.76 386.22 104.23C393.4 103.7 397.51 104.58 408.22 110.97C418.93 117.36 425.09 120.34 425.09 120.34Z" fill="#444E66"/>
<path d="M474.43 258.48C517.784 258.48 552.93 223.334 552.93 179.98C552.93 136.626 517.784 101.48 474.43 101.48C431.075 101.48 395.93 136.626 395.93 179.98C395.93 223.334 431.075 258.48 474.43 258.48Z" fill="url(#paint5_linear_2650_92149)"/>
<path opacity="0.93" d="M474.449 252.59C514.54 252.59 547.039 220.09 547.039 180C547.039 139.91 514.54 107.41 474.449 107.41C434.359 107.41 401.859 139.91 401.859 180C401.859 220.09 434.359 252.59 474.449 252.59Z" fill="url(#paint6_linear_2650_92149)"/>
<path d="M474.449 246.17C510.994 246.17 540.619 216.545 540.619 180C540.619 143.455 510.994 113.83 474.449 113.83C437.905 113.83 408.279 143.455 408.279 180C408.279 216.545 437.905 246.17 474.449 246.17Z" fill="url(#paint7_linear_2650_92149)"/>
<path d="M541.529 213.06C537.247 221.823 531.28 229.657 523.97 236.114C516.66 242.571 508.15 247.526 498.926 250.694C489.701 253.862 479.943 255.183 470.208 254.58C460.473 253.977 450.952 251.462 442.189 247.18C433.426 242.898 425.592 236.931 419.135 229.621C412.678 222.311 407.724 213.801 404.555 204.576C401.387 195.352 400.066 185.594 400.669 175.859C401.272 166.124 403.787 156.603 408.069 147.84C409.976 143.934 412.218 140.2 414.769 136.68C414.769 136.68 413.989 177.2 461.639 203.84C506.679 229 541.529 213.06 541.529 213.06Z" fill="url(#paint8_linear_2650_92149)"/>
<path d="M521.61 159.37L510.26 174.48C509.553 175.41 508.674 176.194 507.67 176.79C506.665 177.389 505.549 177.78 504.39 177.94C503.235 178.101 502.06 178.037 500.93 177.75C499.797 177.463 498.734 176.953 497.8 176.25L497.66 176.14C496.541 175.315 495.63 174.24 495 173C494.386 171.756 494.068 170.387 494.07 169V163.23C491.441 163.235 488.921 164.284 487.065 166.146C485.209 168.008 484.167 170.531 484.17 173.16V217C484.204 218.594 483.849 220.171 483.133 221.596C482.418 223.02 481.365 224.248 480.066 225.172C478.767 226.096 477.262 226.689 475.682 226.897C474.102 227.106 472.494 226.925 471 226.37C469.152 225.667 467.562 224.42 466.438 222.793C465.315 221.166 464.712 219.237 464.71 217.26V173.19C464.721 165.377 467.833 157.887 473.362 152.367C478.892 146.847 486.387 143.747 494.2 143.75H513.7C514.999 143.693 516.295 143.907 517.506 144.379C518.717 144.851 519.817 145.569 520.735 146.489C521.653 147.409 522.37 148.511 522.839 149.723C523.308 150.935 523.52 152.232 523.46 153.53C523.469 155.622 522.822 157.665 521.61 159.37V159.37Z" fill="url(#paint9_linear_2650_92149)"/>
<path d="M450.049 143.7H435.119C433.854 143.699 432.601 143.947 431.431 144.43C430.262 144.914 429.199 145.623 428.304 146.517C427.408 147.411 426.698 148.473 426.213 149.642C425.729 150.811 425.479 152.065 425.479 153.33V153.61C425.479 154.875 425.729 156.128 426.214 157.296C426.698 158.465 427.409 159.526 428.304 160.419C429.2 161.313 430.262 162.021 431.432 162.503C432.601 162.986 433.854 163.233 435.119 163.23H450.049C451.314 163.231 452.567 162.984 453.735 162.501C454.904 162.018 455.967 161.31 456.862 160.417C457.757 159.523 458.467 158.462 458.953 157.294C459.438 156.127 459.688 154.875 459.689 153.61V153.33C459.687 150.775 458.67 148.326 456.862 146.52C455.055 144.714 452.604 143.7 450.049 143.7V143.7Z" fill="url(#paint10_linear_2650_92149)"/>
<path d="M426.33 118.49C426.33 118.49 424.33 84.22 421.85 66.02C419.37 47.82 416.85 30.61 416.85 30.61C416.85 30.61 437.67 23.19 475.09 23.19C512.51 23.19 529.42 30 529.42 30C529.42 30 524.05 67 522.79 104.5C522.79 104.5 549.99 99.43 556.4 108.57C565.07 120.91 550.76 137.25 528.83 140.87C506.9 144.49 487.2 142.11 460.15 135.36C433.1 128.61 419.05 116.61 419.44 116.71L426.33 118.49Z" fill="#444E66"/>
<path d="M507.079 144C500.295 143.972 493.52 143.495 486.799 142.57C450.569 137.75 431.719 126.16 416.579 116.84C412.089 114.08 407.849 111.47 403.759 109.48C392.659 104.07 384.419 104.42 382.979 106.73C382.149 108.04 383.649 110.44 386.879 112.98C398.029 121.76 421.139 124.72 421.369 124.74L421.119 126.74C416.637 126.115 412.194 125.24 407.809 124.12C397.969 121.62 390.509 118.4 385.619 114.55C379.809 109.98 380.389 106.99 381.259 105.62C383.779 101.62 394.059 102.46 404.649 107.62C408.829 109.62 413.109 112.29 417.649 115.08C432.649 124.29 451.269 135.76 487.069 140.52C526.679 145.8 544.549 134.95 550.399 130.04C555.039 126.14 557.709 121.49 557.899 116.93C558.059 112.93 556.899 109.99 554.429 107.82C549.289 103.37 538.169 102.58 522.269 105.55L521.889 103.55C538.659 100.43 550.059 101.35 555.759 106.29C558.759 108.85 560.119 112.47 559.929 117.03C559.719 122.16 556.799 127.34 551.709 131.61C546.779 135.76 533.619 144 507.079 144Z" fill="#2A3042"/>
<path d="M425.79 119.12L425 105.28C425 105.28 448.9 105.72 471.31 106.28C493.72 106.84 521.91 104.71 521.91 104.71V122.3C521.91 122.3 515.17 127.91 485.76 128.3C456.35 128.69 449.34 127.77 449.34 127.77L425.79 119.12Z" fill="#CC3737"/>
<path d="M416.939 125C416.939 125 395.499 118.7 392.689 112.13C389.879 105.56 397.419 105.81 404.209 108.58C410.999 111.35 424.559 120.58 424.559 120.58L418.559 125.05L416.939 125Z" fill="#2A3042"/>
<path d="M430.43 28.54C435.435 60.3974 438.773 92.4944 440.43 124.7L448.13 126.92L451.63 127.92L450.56 25.67C450.56 25.67 439.53 27 430.43 28.54Z" fill="#6B7996"/>
<path d="M439.14 105.03L440.41 124.02L451.61 128.4L451.45 105.39L439.14 105.03Z" fill="#E55555"/>
<path d="M503.79 138.27C497.402 138.254 491.023 137.83 484.69 137C448.07 132.27 407.43 111.47 407.02 111.27L407.96 109.46C408.36 109.66 448.7 130.29 484.96 134.98C506.37 137.75 521.5 135.43 530.42 132.98C541.5 129.98 549.33 125.05 551.91 119.49C553.73 115.6 553.74 112.2 551.91 109.39C550.08 106.58 545.91 103.83 540.36 103.83V101.83C544.9 101.83 550.77 103.83 553.63 108.33C555.14 110.69 556.37 114.7 553.73 120.39C549.29 130 531 138.27 503.79 138.27Z" fill="#2A3042"/>
<path d="M466 107.89C458.67 107.89 452.59 107.77 447.72 107.61C432.36 107.11 425.5 106.13 425.21 106.09L425.56 103.74C425.62 103.74 432.63 104.74 447.88 105.24C461.95 105.7 486.14 105.81 521.4 103.73L521.54 106.1C498.33 107.47 479.91 107.89 466 107.89Z" fill="#7F202B"/>
<path d="M473.74 129.75C467.12 129.75 459.65 129.6 451.21 129.26L451.29 127.26C502.15 129.32 517.92 124.13 520.82 122.94C520.46 86.66 526.73 38.7 527.7 31.53C498.19 24.26 469.89 24.67 451.27 26.3C440.112 27.2161 429.038 28.9609 418.14 31.52C425.24 73.59 426.72 119.66 426.73 120.12L424.73 120.18C424.73 119.72 423.21 73.11 416 30.93L415.85 30.02L416.74 29.78C428.023 27.0407 439.505 25.2016 451.08 24.28C470.08 22.61 498.99 22.21 529.08 29.78L530 30L529.87 30.9C529.8 31.44 522.42 84.56 522.87 123.57V124.17L522.35 124.47C521.91 124.69 512.58 129.75 473.74 129.75Z" fill="#2A3042"/>
<defs>
<linearGradient id="paint0_linear_2650_92149" x1="531.309" y1="294.65" x2="497.239" y2="294.65" gradientUnits="userSpaceOnUse">
<stop offset="0.08" stop-color="#797D86"/>
<stop offset="0.47" stop-color="#A8ABB0"/>
<stop offset="0.82" stop-color="#CBCCCF"/>
<stop offset="1" stop-color="#D8D9DB"/>
</linearGradient>
<linearGradient id="paint1_linear_2650_92149" x1="421.162" y1="266.604" x2="538.696" y2="284.107" gradientUnits="userSpaceOnUse">
<stop offset="0.08" stop-color="#797D86"/>
<stop offset="0.47" stop-color="#A8ABB0"/>
<stop offset="0.82" stop-color="#CBCCCF"/>
<stop offset="1" stop-color="#D8D9DB"/>
</linearGradient>
<linearGradient id="paint2_linear_2650_92149" x1="383.119" y1="194.1" x2="419.119" y2="194.1" gradientUnits="userSpaceOnUse">
<stop offset="0.08" stop-color="#797D86"/>
<stop offset="0.47" stop-color="#A8ABB0"/>
<stop offset="0.82" stop-color="#CBCCCF"/>
<stop offset="1" stop-color="#D8D9DB"/>
</linearGradient>
<linearGradient id="paint3_linear_2650_92149" x1="538.013" y1="186.879" x2="544.819" y2="157.425" gradientUnits="userSpaceOnUse">
<stop offset="0.08" stop-color="#797D86"/>
<stop offset="0.47" stop-color="#A8ABB0"/>
<stop offset="0.82" stop-color="#CBCCCF"/>
<stop offset="1" stop-color="#D8D9DB"/>
</linearGradient>
<linearGradient id="paint4_linear_2650_92149" x1="539.72" y1="209.22" x2="569.723" y2="187.059" gradientUnits="userSpaceOnUse">
<stop offset="0.08" stop-color="#797D86"/>
<stop offset="0.47" stop-color="#A8ABB0"/>
<stop offset="0.82" stop-color="#CBCCCF"/>
<stop offset="1" stop-color="#D8D9DB"/>
</linearGradient>
<linearGradient id="paint5_linear_2650_92149" x1="474.43" y1="-253.98" x2="474.43" y2="251.01" gradientUnits="userSpaceOnUse">
<stop stop-color="white"/>
<stop offset="0.14" stop-color="#C9CBCE"/>
<stop offset="0.31" stop-color="#92969C"/>
<stop offset="0.47" stop-color="#656A73"/>
<stop offset="0.62" stop-color="#424853"/>
<stop offset="0.77" stop-color="#29303C"/>
<stop offset="0.9" stop-color="#19212E"/>
<stop offset="1" stop-color="#141C29"/>
</linearGradient>
<linearGradient id="paint6_linear_2650_92149" x1="401.859" y1="180" x2="547.029" y2="180" gradientUnits="userSpaceOnUse">
<stop stop-color="#E340A1"/>
<stop offset="0.49" stop-color="#664AD6"/>
<stop offset="0.99" stop-color="#14B2F5"/>
</linearGradient>
<linearGradient id="paint7_linear_2650_92149" x1="474.449" y1="-185.76" x2="474.449" y2="239.86" gradientUnits="userSpaceOnUse">
<stop stop-color="white"/>
<stop offset="0.14" stop-color="#C9CBCE"/>
<stop offset="0.31" stop-color="#92969C"/>
<stop offset="0.47" stop-color="#656A73"/>
<stop offset="0.62" stop-color="#424853"/>
<stop offset="0.77" stop-color="#29303C"/>
<stop offset="0.9" stop-color="#19212E"/>
<stop offset="1" stop-color="#141C29"/>
</linearGradient>
<linearGradient id="paint8_linear_2650_92149" x1="434.899" y1="243.59" x2="464.099" y2="197.38" gradientUnits="userSpaceOnUse">
<stop offset="0.34" stop-color="#1C222B" stop-opacity="0.7"/>
<stop offset="0.92" stop-color="#152745" stop-opacity="0"/>
</linearGradient>
<linearGradient id="paint9_linear_2650_92149" x1="506.54" y1="197.78" x2="465.06" y2="156.24" gradientUnits="userSpaceOnUse">
<stop offset="0.08" stop-color="#797D86"/>
<stop offset="0.47" stop-color="#A8ABB0"/>
<stop offset="0.82" stop-color="#CBCCCF"/>
<stop offset="1" stop-color="#D8D9DB"/>
</linearGradient>
<linearGradient id="paint10_linear_2650_92149" x1="472.779" y1="175.03" x2="426.329" y2="141.87" gradientUnits="userSpaceOnUse">
<stop stop-color="#797D86"/>
<stop offset="0.09" stop-color="#95999F"/>
<stop offset="0.2" stop-color="#AEB0B5"/>
<stop offset="0.32" stop-color="#C1C2C6"/>
<stop offset="0.47" stop-color="#CECFD2"/>
<stop offset="0.65" stop-color="#D6D7D9"/>
<stop offset="1" stop-color="#D8D9DB"/>
</linearGradient>
</defs>
</svg>
