<svg width="916" height="400" viewBox="0 0 916 400" fill="none" xmlns="http://www.w3.org/2000/svg">
<g clip-path="url(#clip0_2710_93803)">
<path d="M555.994 199.174C550.862 189.864 547.026 179.896 544.594 169.547C540.604 152.447 535.322 121.743 535.322 121.743L532.789 112.332C532.789 112.332 525.696 111.382 520.768 102.401C517.143 95.4264 513.949 88.2351 511.205 80.8684C511.205 80.8684 500.996 65.3265 500.299 62.3499C499.603 59.3733 502.187 57.3593 504.429 59.4493C506.671 61.5392 515.727 72.7111 518.552 74.8138C521.376 76.9164 522.896 78.7911 521.237 72.4198C519.578 66.0485 511.598 46.2761 513.194 42.5015C514.79 38.7268 519.35 39.4615 521.516 42.5775C523.682 45.6934 530.864 63.5152 530.864 63.5152C530.864 63.5152 526.81 40.4115 527.963 38.3088C529.116 36.2062 533.258 35.6995 535.284 37.8655C537.311 40.0315 541.694 53.4453 542.276 58.1319C542.859 62.8186 543.682 72.3311 544.987 73.3318C546.291 74.3324 547.596 74.0538 548.47 68.7718C549.344 63.4899 552.371 44.5028 554.474 44.0721C556.577 43.6414 558.819 46.6054 557.957 54.2053C557.096 61.8052 553.891 77.9551 555.994 77.0051C558.097 76.0551 561.504 72.5085 564.759 72.9518C568.015 73.3951 568.749 75.4091 568.091 76.2831C567.432 77.1571 564.835 84.0983 562.733 87.075C560.63 90.0516 555.424 95.9415 555.424 95.9415L550.357 109.178C550.357 109.178 564.797 145.126 567.761 152.244C570.725 159.363 577.755 178.679 577.755 178.679C577.755 178.679 577.033 187.445 577.033 187.736C577.033 188.027 555.994 199.174 555.994 199.174Z" fill="#84E146"/>
<path d="M522.073 75.9167C521.837 75.9154 521.608 75.8401 521.417 75.7015C521.226 75.5629 521.084 75.3679 521.009 75.144L512.751 49.3169C512.135 47.6994 511.825 45.9812 511.839 44.2503C511.87 43.2433 512.173 42.2636 512.718 41.4158C513.262 40.568 514.027 39.8841 514.929 39.4371C515.943 39.0267 517.048 38.8995 518.128 39.0691C519.208 39.2386 520.221 39.6986 521.06 40.3997C522.474 41.6362 523.613 43.155 524.404 44.8583C528.797 53.1717 531.764 62.163 533.182 71.458C533.225 71.7503 533.151 72.0479 532.975 72.2854C532.8 72.5229 532.537 72.6809 532.245 72.7247C531.953 72.7616 531.659 72.6847 531.423 72.5101C531.187 72.3355 531.028 72.0766 530.978 71.7874C529.603 62.726 526.713 53.9607 522.428 45.859C521.796 44.4125 520.863 43.1172 519.692 42.059C519.176 41.6186 518.554 41.3213 517.887 41.1968C517.22 41.0724 516.532 41.1251 515.892 41.3497C515.371 41.649 514.936 42.0781 514.63 42.5953C514.323 43.1124 514.156 43.7001 514.144 44.301C514.167 45.7446 514.446 47.1726 514.967 48.519L523.226 74.3713C523.271 74.5119 523.288 74.6599 523.275 74.807C523.263 74.954 523.221 75.0971 523.153 75.2279C523.084 75.3587 522.991 75.4746 522.877 75.5689C522.764 75.6632 522.632 75.7341 522.491 75.7773C522.363 75.8524 522.221 75.8999 522.073 75.9167V75.9167Z" fill="#175807"/>
<path d="M578.262 180.378C578.016 180.377 577.777 180.296 577.581 180.147C577.384 179.999 577.241 179.791 577.173 179.555C577.173 179.415 573.233 165.33 563.126 144.392C557.855 133.075 553.246 121.461 549.319 109.61C549.258 109.418 549.249 109.214 549.294 109.018C549.339 108.822 549.435 108.642 549.572 108.495C550.472 107.558 551.472 104.303 552.346 101.427C553.524 97.6274 554.538 94.3214 555.956 93.0421C558.554 90.4133 560.694 87.3695 562.29 84.0362C562.834 83.0229 563.354 82.0729 563.86 81.2496C564.152 80.7809 564.494 80.2743 564.836 79.7549C565.95 78.1083 567.622 75.613 567.192 74.587C567.002 74.1183 566.178 73.903 565.697 73.8143C562.416 73.1937 559.072 75.879 557.274 77.323C556.121 78.235 555.551 78.7036 554.74 78.4503C553.689 78.0956 553.828 76.9303 554.094 74.8023C554.272 73.3077 554.563 71.281 554.905 68.9377C555.804 62.7818 557.033 54.3586 556.906 50.2546C556.805 46.8346 555.64 45.4286 554.778 45.188C554.501 45.1413 554.216 45.1881 553.969 45.3211C553.721 45.4541 553.525 45.6657 553.41 45.9226C553.106 46.6446 552.359 51.0653 551.65 55.3339C548.749 72.4843 547.938 75.0177 546.444 75.3723C546.062 75.4849 545.658 75.5057 545.266 75.433C544.875 75.3604 544.506 75.1964 544.189 74.9543C543.914 74.6974 543.696 74.3851 543.55 74.038C543.403 73.691 543.332 73.3169 543.34 72.9403C540.997 59.2225 539.224 49.5706 535.956 40.8307C535.404 39.5113 534.422 38.4175 533.169 37.7274C532.649 37.4015 532.045 37.234 531.431 37.2453C530.817 37.2565 530.219 37.446 529.711 37.7907C529.356 38.268 529.105 38.8145 528.974 39.3948C528.843 39.9752 528.835 40.5765 528.951 41.16C529.215 44.3921 529.688 47.6036 530.37 50.7739L534.537 72.4843C534.581 72.6347 534.593 72.7924 534.572 72.9476C534.551 73.1027 534.498 73.2518 534.417 73.3854C534.335 73.5191 534.227 73.6342 534.098 73.7236C533.97 73.8131 533.824 73.8747 533.671 73.9047C533.517 73.9348 533.359 73.9325 533.206 73.898C533.054 73.8635 532.91 73.7976 532.784 73.7045C532.658 73.6114 532.553 73.4931 532.476 73.3572C532.398 73.2213 532.349 73.0707 532.333 72.915L528.166 51.1919C527.466 47.9295 526.98 44.625 526.709 41.2994C526.555 40.3839 526.608 39.4456 526.865 38.5534C527.121 37.6612 527.574 36.8378 528.191 36.1441C529.049 35.4686 530.092 35.0724 531.182 35.009C532.271 34.9456 533.354 35.218 534.284 35.7894C536.012 36.716 537.358 38.2233 538.084 40.0454C541.428 48.9879 543.226 58.7665 545.595 72.6617C545.601 72.7502 545.601 72.8391 545.595 72.9277C545.582 73.0243 545.582 73.1223 545.595 73.219C546.608 71.357 548.318 61.1478 549.395 54.9665C549.834 51.6253 550.472 48.3134 551.308 45.0487C551.619 44.3295 552.163 43.7355 552.852 43.3613C553.541 42.9871 554.335 42.8543 555.108 42.984C556.248 43.1993 558.908 44.314 559.072 50.1279C559.199 54.4219 557.996 62.6171 557.046 69.191C556.729 71.3697 556.4 73.5863 556.21 75.119C558.388 73.409 562.011 70.7997 565.976 71.547C566.637 71.5981 567.275 71.8183 567.827 72.1865C568.379 72.5547 568.828 73.0585 569.129 73.6497C570.029 75.803 568.192 78.539 566.596 80.9456C566.254 81.4396 565.938 81.9209 565.659 82.3642C565.178 83.1369 564.671 84.0616 564.139 85.0369C562.423 88.607 560.105 91.8549 557.286 94.6381C556.336 95.5121 555.222 99.1221 554.335 102.023C553.759 104.615 552.861 107.126 551.662 109.496C555.498 121.053 559.998 132.379 565.14 143.417C575.349 164.557 579.288 178.883 579.326 178.959C579.404 179.246 579.365 179.553 579.218 179.811C579.071 180.07 578.827 180.26 578.541 180.34L578.262 180.378Z" fill="#175807"/>
<path d="M511.231 80.8164C511.231 80.8164 521.808 107.581 539.49 104.579L536.729 107.758C539.802 113.801 541.852 120.311 542.796 127.024C544.531 138.614 555.678 188.305 558.87 197.956L562.062 207.659C562.062 207.659 548.002 183.035 547.432 180.869C546.862 178.703 539.313 147.835 536.703 133.636C534.094 119.437 532.663 111.824 532.663 111.824C532.663 111.824 519.996 113.699 511.231 80.8164Z" fill="#53A22F"/>
<path d="M749.805 352.794C754.086 351.147 757.404 347.727 760.254 344.13C769.45 332.363 774.264 316.542 771.654 302.115C783.979 322.496 770.388 354.415 751.958 355.733C743.775 356.328 736.859 354.833 731.691 351.933C737.683 353.693 744.054 355.011 749.805 352.794Z" fill="#61A938"/>
<path d="M678.327 348.564C678.327 348.564 685.585 311.299 703.939 296.961C722.293 282.622 749.057 277.366 767.69 296.961C769.183 298.531 770.5 300.259 771.616 302.116C774.264 316.543 769.45 332.364 760.216 344.131C757.404 347.741 754.048 351.148 749.767 352.795C744.016 355.011 737.645 353.694 731.628 351.971C724.142 347.804 720.355 340.724 721.774 332.794C723.724 321.863 731.109 317.468 735.048 318.519C733.344 320.863 732.18 323.555 731.64 326.402C731.099 329.249 731.194 332.18 731.919 334.986C732.026 335.955 732.328 336.892 732.807 337.741C733.286 338.59 733.932 339.333 734.706 339.925C735.481 340.517 736.367 340.946 737.312 341.185C738.257 341.425 739.24 341.47 740.203 341.319C749.982 340.724 758.291 331.654 758.608 321.863C758.924 312.072 751.641 302.737 742.217 300.077C728.854 296.277 714.452 305.473 708.106 317.81C701.76 330.147 701.773 344.752 703.04 358.583C703.681 363.53 703.905 368.521 703.711 373.505C702.951 383.232 698.442 392.403 692.311 400.041C690.421 402.403 688.4 404.657 686.257 406.792H666.383L678.327 348.564Z" fill="#83E145"/>
<path d="M703.737 373.581C703.931 368.597 703.706 363.606 703.066 358.66C701.799 344.828 701.799 330.236 708.132 317.886C714.465 305.536 728.88 296.353 742.243 300.153C751.667 302.813 758.95 312.161 758.634 321.939C758.317 331.718 750.008 340.8 740.229 341.395C739.266 341.547 738.282 341.501 737.338 341.261C736.393 341.022 735.506 340.593 734.732 340.001C733.958 339.409 733.311 338.666 732.832 337.817C732.353 336.968 732.052 336.031 731.945 335.062C731.22 332.256 731.124 329.325 731.665 326.478C732.206 323.631 733.37 320.939 735.074 318.595C735.494 318.694 735.889 318.878 736.235 319.135C736.581 319.392 736.872 319.717 737.088 320.09C739.482 324.27 730.375 335.923 738.975 337.823C747.576 339.723 753.82 330.705 751.908 320.09C749.995 309.475 741.876 305.156 730.375 307.069C718.873 308.982 708.195 324.181 709.272 337.101C710.349 350.021 716.593 359.559 715.859 371.035C715.124 382.511 711.299 396.837 700.785 406.868H686.32C688.464 404.734 690.485 402.48 692.375 400.117C698.468 392.479 702.977 383.309 703.737 373.581Z" fill="#FEEC30"/>
<path d="M700.785 407.995H666.383C666.216 407.994 666.051 407.957 665.9 407.885C665.749 407.813 665.616 407.708 665.51 407.579C665.405 407.449 665.33 407.297 665.29 407.135C665.25 406.972 665.247 406.803 665.281 406.639L677.226 348.373C678.713 341.373 680.707 334.489 683.192 327.778C688.714 312.831 695.465 302.179 703.243 296.111C713.123 288.397 724.636 283.787 735.644 283.153C741.75 282.732 747.872 283.689 753.559 285.951C759.246 288.214 764.353 291.725 768.501 296.225C779.761 308.056 778.634 325.282 774.378 336.454C769.742 348.411 761.167 356.239 751.996 356.898C740.596 357.709 730.805 354.58 725.168 348.323C723.26 346.234 721.863 343.73 721.09 341.008C720.316 338.286 720.186 335.422 720.71 332.642C721.875 326.08 726.106 318.506 732.629 317.442C733.644 317.173 734.718 317.233 735.696 317.613C736.675 317.993 737.508 318.674 738.076 319.557C739.241 321.584 738.392 324.51 737.493 327.6C736.594 330.691 735.77 333.566 736.771 335.276C737.055 335.68 737.421 336.021 737.844 336.276C738.267 336.531 738.738 336.695 739.228 336.758C740.633 337.106 742.103 337.085 743.497 336.697C744.891 336.308 746.161 335.566 747.183 334.542C750.438 331.413 751.831 325.966 750.818 320.317C749.07 310.614 741.888 306.32 730.552 308.208C719.709 310.006 709.323 324.864 710.285 337.113C710.904 342.394 712.08 347.595 713.794 352.629C715.618 358.785 717.353 364.587 716.935 371.097C716.378 379.799 713.642 396.114 701.52 407.678C701.324 407.873 701.062 407.986 700.785 407.995V407.995ZM667.751 405.753H700.329C711.628 394.72 714.263 379.254 714.731 370.958C715.124 364.84 713.465 359.229 711.679 353.225C709.929 348.004 708.744 342.611 708.145 337.138C707.03 323.648 718.164 307.84 730.235 305.839C742.75 303.749 751.059 308.828 753.035 319.772C754.187 326.106 752.541 332.376 748.753 336.024C747.461 337.298 745.866 338.223 744.117 338.71C742.369 339.198 740.525 339.232 738.76 338.81C737.967 338.688 737.209 338.399 736.537 337.963C735.864 337.526 735.292 336.951 734.858 336.277C733.351 333.744 734.364 330.235 735.352 326.84C736.074 324.307 736.834 321.774 736.138 320.507C735.441 319.24 733.718 319.38 733.022 319.494C729.222 320.152 724.408 324.636 722.888 332.933C722.411 335.377 722.518 337.899 723.201 340.294C723.883 342.689 725.121 344.889 726.815 346.714C731.983 352.465 741.103 355.315 751.819 354.555C760.103 353.959 767.943 346.676 772.25 335.555C776.341 325.004 777.38 308.752 766.854 297.682C748.564 278.454 722.407 283.888 704.598 297.796C686.789 311.704 679.48 348.361 679.404 348.728L667.751 405.753Z" fill="#175807"/>
<path d="M606.648 287.727C592.993 282.597 595.121 282.496 586.787 266.397C578.452 250.298 555.057 193.716 555.057 193.716L576.16 177.098C576.16 177.098 603.849 234.249 610.98 249.044C618.111 263.838 629.473 296.315 606.648 287.727Z" fill="#84E146"/>
<path d="M557.008 188.89C557.008 188.89 578.452 243.647 595.4 259.582C612.348 275.516 617.997 262.469 617.997 262.469C617.997 262.469 624.33 273.489 621.911 280.874C619.492 288.259 603.658 291.729 594.678 280C585.697 268.271 555.855 199.314 555.855 199.314L545.722 175.564C545.722 175.564 551.941 184.684 557.008 188.89Z" fill="#53A22F"/>
<path d="M609.928 289.423C605.023 289.423 600.295 287.594 596.666 284.294C593.937 281.519 591.651 278.34 589.89 274.87C574.462 247.713 563.607 223.798 554.664 197.3C554.548 196.947 554.576 196.563 554.742 196.23C554.908 195.898 555.199 195.645 555.551 195.526C555.725 195.465 555.909 195.439 556.093 195.45C556.277 195.461 556.456 195.508 556.622 195.59C556.787 195.671 556.934 195.785 557.055 195.924C557.176 196.063 557.267 196.225 557.324 196.4C566.191 222.722 576.995 246.497 592.322 273.489C593.951 276.707 596.061 279.658 598.579 282.242C600.593 284.081 603.026 285.401 605.666 286.087C608.306 286.774 611.073 286.806 613.728 286.181C621.429 284.243 620.467 275.807 619.985 273.261C619.02 269.231 617.534 265.343 615.565 261.696C608.809 247.696 602.269 234.121 595.944 220.974C589.62 207.826 583.088 194.251 576.349 180.251C576.266 180.084 576.216 179.903 576.203 179.718C576.19 179.532 576.214 179.346 576.272 179.17C576.331 178.993 576.424 178.83 576.546 178.689C576.668 178.549 576.816 178.434 576.983 178.351C577.149 178.268 577.33 178.218 577.516 178.205C577.701 178.192 577.887 178.215 578.064 178.274C578.24 178.333 578.403 178.426 578.544 178.547C578.684 178.669 578.799 178.818 578.883 178.984C585.638 192.968 592.174 206.542 598.49 219.707C604.807 232.872 611.343 246.442 618.098 260.417C620.186 264.284 621.749 268.411 622.747 272.691C624.317 280.975 621.125 287.169 614.425 288.853C612.956 289.23 611.445 289.421 609.928 289.423V289.423Z" fill="#175807"/>
<path d="M704.294 291.539C706.741 290.719 709.315 290.346 711.894 290.437C711.666 290.83 711.463 291.21 711.26 291.565C707.878 297.594 702.14 308.88 696.212 334.884C690.285 360.888 685.281 407.577 685.281 407.577L662.076 416.229C672.083 367.006 678.999 327.563 688.917 308.107C692.489 301.242 697.036 294.136 704.294 291.539Z" fill="#53A22F"/>
<path d="M596.654 297.01C602.734 276.351 605.229 257.085 619.998 253.108C634.768 249.131 629.41 241.632 631.918 231.575C634.426 221.518 648.827 180.769 687.98 203.329C700.405 210.472 708.347 222.151 707.321 230.802C706.295 239.453 704.636 249.093 704.395 253.602C704.155 258.111 709.551 263.507 715.073 269.321C720.267 274.793 715.365 284.217 711.957 290.335C709.378 290.244 706.804 290.617 704.357 291.437C697.1 294.033 692.552 301.139 689.044 308.005C679.126 327.422 688.195 385.207 683.977 406.664L656.795 416.025C662.013 387.892 673.717 313.755 678.936 285.623C679.455 282.887 677.606 286.89 676.871 284.154C676.136 281.418 672.248 284.154 670.196 282.19C660.696 273.324 653.489 270.79 640.835 273.716C628.181 276.642 622.152 275.249 618.174 287.65C616.388 293.185 612.563 301.583 612.17 307.447C610.663 329.842 605.229 391.046 604.571 413.504L582.556 406.918C582.556 406.918 590.574 317.657 596.654 297.01Z" fill="#84E146"/>
<path d="M685.75 407.575H685.573C685.385 407.558 685.203 407.503 685.038 407.414C684.872 407.326 684.725 407.204 684.607 407.058C684.489 406.911 684.402 406.743 684.35 406.562C684.298 406.381 684.283 406.191 684.306 406.005C689.765 363.61 694.123 336.985 697.999 322.228C700.291 313.463 702.685 304.938 706.637 296.984C707.587 295.046 708.676 293.184 709.728 291.423C712.35 286.99 714.794 282.797 715.212 277.604C715.719 270.789 713.135 268.737 709.538 266.014C706.845 264.163 704.574 261.763 702.875 258.972C700.659 255.058 701.951 251.954 703.091 249.206C703.635 248.014 704.06 246.771 704.357 245.494C705.392 239.775 705.648 233.942 705.117 228.154C704.961 224.361 704.016 220.643 702.343 217.235C700.152 213.296 696.314 210.395 692.869 208.077C687.226 204.072 680.918 201.099 674.236 199.3C667.645 197.547 660.666 197.955 654.324 200.465C647.117 203.556 641.088 210.129 637.339 218.983C634.997 224.892 633.446 231.085 632.728 237.4C632.576 238.49 632.525 239.668 632.475 240.909C632.285 245.203 632.057 250.548 626.61 252.664C624.957 253.278 623.264 253.782 621.543 254.171C618.427 254.944 616.173 255.438 613.323 258.566C609.434 262.759 607.091 268.547 605.204 273.652C594.424 302.785 588.927 337.238 584.177 405.384C584.142 405.748 583.966 406.084 583.687 406.32C583.408 406.557 583.047 406.675 582.683 406.651C582.317 406.612 581.981 406.434 581.745 406.152C581.509 405.871 581.391 405.51 581.416 405.143C586.191 336.655 591.726 301.962 602.607 272.588C604.583 267.23 607.053 261.188 611.296 256.565C614.716 252.879 617.731 252.144 620.923 251.359C622.519 250.998 624.09 250.528 625.622 249.953C629.105 248.61 629.422 245.558 629.701 240.694C629.701 239.427 629.815 238.16 629.979 236.894C630.749 230.333 632.38 223.902 634.831 217.767C638.859 208.242 645.42 201.136 653.286 197.754C660.192 195.021 667.793 194.577 674.971 196.488C681.975 198.359 688.589 201.464 694.503 205.658C698.303 208.191 702.381 211.333 704.864 215.791C706.751 219.538 707.813 223.646 707.98 227.837C708.533 233.879 708.269 239.967 707.194 245.938C706.865 247.4 706.39 248.826 705.776 250.194C704.661 252.854 703.863 254.779 705.409 257.49C706.923 259.962 708.948 262.083 711.349 263.709C714.972 266.508 718.721 269.409 718.1 277.731C717.657 283.57 714.896 288.244 712.236 292.766C711.21 294.501 710.146 296.3 709.234 298.136C705.434 305.863 703.053 314.236 700.798 322.849C696.998 337.491 692.628 364.002 687.181 406.271C687.155 406.63 686.993 406.966 686.726 407.209C686.46 407.451 686.11 407.583 685.75 407.575V407.575Z" fill="#175807"/>
<path d="M672.944 411.049C673.463 409.314 670.943 420.068 635.084 419.397C599.428 418.725 594.424 412.645 594.424 412.645C594.424 412.645 596.717 319.787 614.121 290.375C631.525 260.964 668.448 267.196 680.341 281.977C700.152 306.576 670.145 345.221 672.944 411.049Z" fill="#FCED2E"/>
<path d="M717.48 274.337C712.565 269.992 705.092 269.777 699.164 272.64C701.191 265.166 706.219 260.987 717.087 265.863C723.813 268.878 727.22 273.767 730.539 291.563C733.858 309.36 739.241 368.513 739.241 368.513H734.174C732.135 341.736 729.108 319.113 724.94 292.513C723.927 285.94 722.508 278.77 717.48 274.337Z" fill="#55A630"/>
<path d="M709.906 407.07L733.541 398.393L739.368 365.625C739.368 365.625 734.567 297.226 722.369 278.986C710.172 260.746 699.152 262.646 697.353 275.249C695.554 287.852 710.02 369.425 710.02 369.425C708.536 381.927 708.498 394.559 709.906 407.07V407.07Z" fill="#84E146"/>
<path d="M733.946 400.179H733.706C733.524 400.148 733.35 400.082 733.194 399.984C733.038 399.886 732.903 399.757 732.797 399.606C732.691 399.456 732.616 399.285 732.576 399.105C732.536 398.925 732.533 398.739 732.566 398.558C734.833 385.891 737.556 370.058 737.835 368.462C737.358 339.753 733.826 311.177 727.296 283.216C726.683 279.69 725.484 276.29 723.75 273.159C722.17 270.835 720.04 268.939 717.549 267.639C715.058 266.34 712.284 265.677 709.475 265.711H709.373C703.445 265.711 699.341 269.967 698.417 277.01C698.073 281.153 698.32 285.324 699.151 289.398C699.206 289.765 699.113 290.14 698.892 290.439C698.671 290.738 698.341 290.937 697.973 290.994C697.792 291.024 697.606 291.018 697.427 290.976C697.247 290.933 697.079 290.856 696.93 290.747C696.781 290.639 696.656 290.501 696.561 290.344C696.466 290.186 696.404 290.011 696.377 289.828C695.499 285.491 695.247 281.051 695.63 276.642C696.745 268.207 701.963 262.95 709.361 262.899H709.475C712.757 262.87 715.996 263.655 718.901 265.185C721.805 266.715 724.285 268.941 726.118 271.664C728.04 275.057 729.364 278.755 730.032 282.596C736.61 310.777 740.168 339.578 740.647 368.513C740.653 368.601 740.653 368.69 740.647 368.779C740.647 368.943 737.734 385.752 735.352 399.014C735.297 399.345 735.125 399.645 734.867 399.859C734.608 400.073 734.282 400.187 733.946 400.179V400.179Z" fill="#175807"/>
<path d="M709.892 406.676C709.545 406.675 709.21 406.545 708.952 406.311C708.695 406.077 708.534 405.756 708.499 405.41C707.359 390.767 708.385 370.602 708.499 368.677L698.366 303.039C698.324 302.851 698.322 302.656 698.358 302.467C698.395 302.277 698.47 302.098 698.579 301.939C698.688 301.78 698.829 301.645 698.992 301.543C699.156 301.44 699.338 301.373 699.529 301.344C699.72 301.315 699.914 301.326 700.1 301.376C700.287 301.425 700.461 301.513 700.612 301.632C700.763 301.752 700.888 301.902 700.979 302.072C701.069 302.242 701.124 302.429 701.14 302.621L711.273 368.398C711.286 368.495 711.286 368.593 711.273 368.69C711.273 368.905 710.095 390.083 711.273 405.207C711.305 405.575 711.189 405.94 710.952 406.223C710.714 406.505 710.374 406.682 710.006 406.714L709.892 406.676Z" fill="#175807"/>
<path d="M590.042 166.672C590.042 166.672 584.874 161.884 582.239 151.675C579.605 141.465 578.984 126.494 588.421 114.942C597.857 103.39 606.825 104.314 606.825 104.314C606.825 104.314 637.63 128.913 590.042 166.646" fill="#53A22F"/>
<path d="M610.853 241.719C628.434 249.319 655.857 255.931 654.464 258.452C653.071 260.972 603.215 205.366 596.515 210.078C589.814 214.79 594.767 217.868 627.902 235.766C661.038 253.664 700.304 241.846 723.991 216.513C747.677 191.18 747.892 141.552 750.337 127.024C752.782 112.495 753.998 115.333 755.657 111.925C752.718 110.063 749.868 108.062 747.031 106.073L737.265 99.1828C734.708 97.2494 731.952 95.5934 729.044 94.2429C724.459 92.3049 719.38 91.9629 714.402 91.7095L691.374 90.1642C690.86 90.1811 690.351 90.0539 689.905 89.7969C689.018 89.1636 689.17 87.7956 689.626 86.8076C691.02 83.793 694.161 82.0197 697.137 80.5377C700.114 79.0557 702.913 77.751 705.865 76.4844C702.331 77.029 699.379 77.4597 697.555 77.6497C690.171 78.397 671.12 78.6757 655.452 80.9937C646.287 82.238 637.836 86.6201 631.538 93.3942C626.205 98.1948 592.981 143.376 586.787 152.826C580.593 162.275 576.071 188.646 576.071 188.646C568.37 188.241 569.092 196.956 569.092 196.956C568.319 200.958 577.54 217.678 581.948 221.871C588.623 228.179 597.262 235.804 610.853 241.719Z" fill="#84E146"/>
<path d="M766.689 83.0223C765.147 80.8924 763.175 79.1101 760.901 77.791C760.5 78.9444 760.569 80.2087 761.091 81.3123C762.813 85.2263 765.752 87.8356 760.66 90.9135C755.568 93.9915 759.178 95.1188 758.975 98.0828C758.773 101.047 756.442 97.8928 755.365 103.149C754.289 108.406 757.303 108.571 755.657 112.016C758.56 113.888 761.591 115.556 764.726 117.007C767.905 103.783 770.793 88.7729 766.689 83.0223Z" fill="#0BAB92"/>
<path d="M689.627 86.8098C689.171 87.7978 689.019 89.1657 689.905 89.7991C690.351 90.0561 690.86 90.1833 691.374 90.1664L714.402 91.6484C719.38 91.965 724.459 92.307 729.045 94.1817C731.952 95.5323 734.708 97.1882 737.265 99.1216L747.031 106.012C749.869 108.001 752.718 110.002 755.657 111.864C757.304 108.457 754.39 108.242 755.366 102.998C756.341 97.7536 758.773 100.946 758.976 97.931C759.178 94.9163 755.594 94.0044 760.66 90.9137C765.727 87.8231 762.814 85.2265 761.091 81.3125C760.569 80.2089 760.501 78.9446 760.901 77.7912C754.162 73.7886 745.296 73.3833 739.051 72.7246C732.807 72.0659 716.619 74.7639 705.865 76.4232C702.909 77.6899 700 79.041 697.138 80.4765C694.161 82.0218 690.994 83.7951 689.627 86.8098Z" fill="#06F5E2"/>
<path d="M750.337 127.026C747.893 141.555 747.665 191.233 723.991 216.515C700.317 241.798 661.038 253.654 627.903 235.768C594.767 217.883 589.827 214.793 596.515 210.081C603.203 205.369 635.781 219.834 641.431 219.011C644.281 218.593 625.04 204.102 589.358 201.277C574.539 200.011 572.892 202.937 573.297 207.611C582.164 231.069 604.33 236.566 626.117 248.473C660.177 267.08 730.704 261.709 751.515 226.737C759.115 213.957 769.248 200.948 755.657 193.804C757.925 184.089 758.102 146.938 760.268 135.272C761.053 131.092 762.928 124.303 764.714 116.918C761.578 115.468 758.548 113.8 755.645 111.928C753.998 115.335 752.782 112.498 750.337 127.026Z" fill="#53A22F"/>
<path d="M657.136 135.663C654.894 150.496 656.465 170.585 669.917 184.695C683.369 198.806 703.572 203.227 715.516 198.097C727.461 192.967 735.681 180.3 728.601 154.904C721.52 129.507 662.735 98.5251 657.136 135.663Z" fill="#53A22F"/>
<path d="M652.995 140.11C651.918 148.381 660.936 157.387 666.586 147.71C672.235 138.033 677.555 124.708 698.911 125.265C720.266 125.822 729.652 147.381 730.906 150.813C732.16 154.246 732.73 164.683 731.16 170.371C729.589 176.058 739.659 189.522 743.522 164.823C747.765 137.754 737.898 119.223 714.985 108.469C695.275 99.134 657.25 107.241 652.995 140.11Z" fill="#06F5E2"/>
<path d="M674.755 182.226C665.585 173.664 660.645 160.807 661.266 151.827C661.886 142.846 673.451 122.909 697.998 125.227C706.012 125.797 713.617 128.984 719.643 134.298C725.669 139.612 729.782 146.759 731.349 154.639C732.26 160.584 731.419 166.666 728.929 172.142C726.438 177.617 722.407 182.248 717.328 185.469C711.028 189.708 703.506 191.75 695.928 191.279C688.35 190.807 681.139 187.847 675.414 182.86L674.755 182.226Z" fill="#53A22F"/>
<path d="M697.91 192.714C689.283 192.738 680.949 189.581 674.502 183.847C674.262 183.645 674.034 183.429 673.806 183.214C664.939 174.879 659.151 161.922 659.873 151.712C660.24 146.494 663.989 138.02 671.349 131.763C676.415 127.456 685.193 122.567 698.151 123.783C706.485 124.364 714.395 127.676 720.657 133.206C726.92 138.735 731.185 146.174 732.794 154.372C733.769 160.589 732.903 166.955 730.304 172.686C727.704 178.416 723.484 183.26 718.164 186.621C712.156 190.594 705.113 192.713 697.91 192.714V192.714ZM675.718 181.2L676.365 181.795C681.852 186.584 688.767 189.428 696.036 189.886C703.305 190.344 710.522 188.391 716.568 184.329C721.431 181.274 725.293 176.862 727.676 171.637C730.06 166.413 730.862 160.604 729.982 154.93C729.792 153.878 724.915 129.204 697.885 126.658C685.902 125.543 677.821 130.027 673.16 133.992C668.271 138.134 663.103 145.645 662.659 151.991C662.115 159.958 666.459 172.561 675.718 181.251V181.2Z" fill="#175807"/>
<path d="M597.465 106.315C597.465 106.315 605.673 87.5184 616.655 86.2264C627.637 84.9344 636.123 90.4063 634.451 107.012C632.779 123.618 630.271 130.458 624.318 135.524C618.365 140.591 612.5 147.9 610.093 143.124C610.093 143.124 617.187 127.481 615.16 119.058C613.133 110.635 609.701 102.579 597.465 106.315Z" fill="#05FADB"/>
<path d="M585.165 151.193C585.165 151.193 579.503 167.66 582.138 171.194C584.773 174.728 597.54 161.897 598.528 157.096C599.516 152.295 585.165 151.193 585.165 151.193Z" fill="#53A22F"/>
<path d="M688.93 259.241C688.577 259.227 688.243 259.082 687.993 258.834C687.742 258.585 687.595 258.252 687.579 257.9C687.563 257.547 687.68 257.202 687.907 256.932C688.133 256.662 688.453 256.487 688.803 256.442C689.031 256.442 712.578 254.01 731.02 242.509C748.158 231.767 761.623 214.351 761.04 203.66C760.961 201.814 760.357 200.028 759.298 198.513C758.239 196.999 756.769 195.818 755.062 195.11C754.784 194.981 754.557 194.762 754.417 194.489C754.277 194.216 754.232 193.904 754.289 193.603C755.26 187.035 755.76 180.406 755.784 173.767C756.176 160.974 756.67 145.052 762.117 123.101C770.464 89.3322 768.361 85.6083 763.573 81.4663C751.743 70.8518 725.929 75.133 710.501 77.6663L707.587 78.135C699.491 79.2132 691.334 79.7717 683.166 79.807C673.818 80.0603 664.99 80.2883 658.555 81.859C646.522 84.7976 632.982 93.8035 632.842 93.8922C632.688 93.9946 632.516 94.0657 632.335 94.1014C632.153 94.1371 631.967 94.1367 631.785 94.1002C631.604 94.0638 631.432 93.9919 631.279 93.8889C631.125 93.7858 630.994 93.6535 630.892 93.4995C630.789 93.3467 630.719 93.1752 630.683 92.9948C630.647 92.8145 630.648 92.6289 630.684 92.4488C630.721 92.2686 630.793 92.0975 630.896 91.9452C630.999 91.793 631.131 91.6626 631.284 91.5615C631.854 91.1689 645.369 82.1883 657.884 79.1357C664.61 77.5017 673.578 77.261 683.078 77.0077C691.126 76.969 699.164 76.4232 707.144 75.3737L710.045 74.8924C726.992 72.0804 752.617 67.8371 765.435 79.3257C771.503 84.5949 773.162 90.0922 764.84 123.76C759.495 145.394 759.013 161.151 758.621 173.818C758.579 180.25 758.122 186.673 757.253 193.046C759.179 194.042 760.806 195.533 761.968 197.364C763.13 199.196 763.784 201.303 763.865 203.47C764.194 209.424 760.964 217.049 754.796 225.003C748.551 232.835 741.026 239.555 732.54 244.877C713.541 256.796 690.082 259.19 689.094 259.279L688.93 259.241Z" fill="#175807"/>
<path d="M623.786 136.918C623.448 136.918 623.122 136.792 622.874 136.563C622.733 136.444 622.618 136.298 622.534 136.134C622.45 135.97 622.399 135.791 622.385 135.607C622.371 135.423 622.394 135.238 622.451 135.063C622.509 134.888 622.601 134.726 622.722 134.587C633.476 122.174 632.69 104.859 632.184 99.8428C631.677 94.8269 629.549 90.8876 626.167 88.7216C624.594 87.7624 622.819 87.1839 620.982 87.0321C619.146 86.8804 617.3 87.1596 615.59 87.8476C606.724 90.9129 598.795 106.759 598.719 106.847C598.638 107.013 598.525 107.16 598.387 107.282C598.249 107.403 598.088 107.496 597.913 107.555C597.739 107.614 597.555 107.637 597.371 107.625C597.188 107.612 597.009 107.563 596.844 107.481C596.678 107.401 596.529 107.289 596.407 107.151C596.284 107.013 596.191 106.852 596.132 106.677C596.073 106.502 596.049 106.318 596.063 106.134C596.076 105.95 596.127 105.77 596.211 105.606C596.553 104.909 604.735 88.5696 614.666 85.137C616.779 84.3169 619.053 83.9944 621.311 84.1942C623.569 84.3941 625.751 85.1111 627.687 86.2896C631.804 88.9243 634.388 93.6235 634.983 99.5008C635.502 104.795 636.338 123.099 624.85 136.36C624.725 136.527 624.565 136.663 624.381 136.76C624.197 136.856 623.993 136.91 623.786 136.918V136.918Z" fill="#175807"/>
<path d="M745.384 159.136C745.012 159.12 744.662 158.958 744.408 158.685C744.155 158.413 744.019 158.051 744.029 157.679C744.637 142.239 740.343 130.991 729.222 118.844C718.746 107.444 697.251 101.111 676.402 111.244C670.477 114.074 665.351 118.335 661.485 123.642C657.62 128.95 655.137 135.136 654.261 141.644C654.261 141.836 654.221 142.026 654.144 142.203C654.068 142.38 653.955 142.538 653.815 142.67C653.674 142.801 653.508 142.902 653.326 142.967C653.145 143.031 652.952 143.058 652.76 143.045C652.568 143.032 652.381 142.979 652.21 142.891C652.039 142.802 651.888 142.68 651.766 142.531C651.644 142.382 651.554 142.209 651.502 142.024C651.45 141.838 651.436 141.644 651.462 141.454C652.323 134.46 654.945 127.8 659.084 122.097C663.222 116.395 668.741 111.837 675.123 108.85C697.201 98.096 720.064 104.822 731.236 117.007C742.762 129.598 747.411 141.808 746.79 157.844C746.761 158.197 746.601 158.526 746.34 158.765C746.08 159.005 745.738 159.137 745.384 159.136V159.136Z" fill="#175807"/>
<path d="M576.501 190.221C576.131 190.207 575.78 190.048 575.526 189.778C575.272 189.507 575.136 189.147 575.146 188.777C575.589 175.831 581.72 156.692 581.986 155.844C582.114 155.507 582.367 155.233 582.692 155.078C583.016 154.922 583.388 154.897 583.731 155.007C584.073 155.118 584.361 155.355 584.533 155.671C584.706 155.987 584.751 156.357 584.659 156.705C584.659 156.908 578.325 176.275 577.945 188.827C577.946 189.015 577.908 189.2 577.835 189.373C577.762 189.545 577.654 189.701 577.52 189.831C577.385 189.961 577.225 190.063 577.05 190.13C576.875 190.196 576.689 190.227 576.501 190.221V190.221Z" fill="#175807"/>
<path d="M655.655 259.974C655.53 259.971 655.406 259.95 655.287 259.911C643.507 256.656 606.141 244.014 589.979 232.045C582.535 226.505 576.309 219.495 571.688 211.449C567.534 204.128 565.912 197.516 567.356 193.792C569.434 188.396 573.765 186.293 592.689 188.877C643.355 195.35 659.961 203 669.955 207.573C671.932 208.531 673.962 209.377 676.035 210.106C706.004 220.011 714.554 218.973 728.386 210.321C728.541 210.203 728.719 210.118 728.909 210.072C729.098 210.026 729.296 210.021 729.488 210.055C729.68 210.09 729.863 210.164 730.025 210.273C730.186 210.382 730.324 210.524 730.428 210.689C730.532 210.854 730.601 211.039 730.63 211.232C730.658 211.425 730.647 211.622 730.595 211.81C730.544 211.998 730.453 212.174 730.33 212.325C730.207 212.477 730.054 212.601 729.88 212.69C713.515 222.95 702.407 221.785 675.148 212.766C672.992 211.987 670.878 211.095 668.815 210.093C659.037 205.584 642.684 198.035 592.423 191.626C572.334 188.877 571.131 192.006 570.067 194.767C567.812 200.594 576.628 218.58 591.739 229.739C607.572 241.443 644.47 253.92 656.123 257.137C656.452 257.228 656.736 257.434 656.923 257.719C657.111 258.003 657.188 258.346 657.142 258.684C657.096 259.021 656.928 259.331 656.671 259.554C656.414 259.777 656.084 259.9 655.743 259.898L655.655 259.974Z" fill="#175807"/>
<path d="M617.617 165.85C617.617 165.85 611.486 167.674 611.891 169.65C612.297 171.626 615.172 172.487 617.617 165.85Z" fill="#175807"/>
<path d="M632.247 168.115C632.247 168.115 632.057 174.107 634.185 174.448C636.313 174.79 636.959 173.296 632.247 168.115Z" fill="#175807"/>
<path d="M722.478 164.691C726.07 151.422 717.449 137.543 703.222 133.691C688.994 129.839 674.549 137.472 670.956 150.741C667.364 164.009 675.985 177.888 690.212 181.741C704.439 185.593 718.885 177.959 722.478 164.691Z" fill="#53A22F"/>
<path d="M697.682 184.139C695.033 184.139 692.396 183.786 689.841 183.088C674.882 179.034 665.775 164.367 669.575 150.37C670.504 146.987 672.125 143.835 674.336 141.111C676.547 138.388 679.299 136.154 682.419 134.55C688.948 131.206 696.489 130.416 703.57 132.335C710.65 134.253 716.761 138.741 720.71 144.923C722.605 147.877 723.86 151.194 724.395 154.662C724.929 158.13 724.731 161.671 723.814 165.058C722.896 168.445 721.279 171.602 719.067 174.325C716.854 177.049 714.096 179.279 710.969 180.871C706.872 183.027 702.311 184.148 697.682 184.139V184.139ZM695.731 134.094C691.553 134.082 687.436 135.09 683.736 137.032C680.966 138.462 678.522 140.45 676.56 142.873C674.598 145.295 673.16 148.098 672.336 151.105C668.954 163.607 677.149 176.729 690.601 180.377C696.994 182.165 703.827 181.454 709.715 178.388C712.5 176.975 714.958 174.993 716.928 172.569C718.899 170.146 720.339 167.336 721.154 164.321C721.97 161.306 722.143 158.153 721.663 155.067C721.182 151.981 720.059 149.03 718.366 146.405C714.844 140.771 709.303 136.693 702.875 135.006C700.544 134.389 698.142 134.082 695.731 134.094V134.094Z" fill="#175807"/>
<path d="M717.88 160.245C719.042 149.802 710.42 140.272 698.621 138.959C686.822 137.646 676.316 145.047 675.154 155.49C673.991 165.933 682.614 175.463 694.413 176.776C706.211 178.089 716.718 170.688 717.88 160.245Z" fill="#83E145"/>
<path d="M697.1 178.312C696.139 178.314 695.179 178.259 694.224 178.148C688.335 177.557 682.865 174.831 678.847 170.484C676.935 168.486 675.485 166.092 674.598 163.472C673.711 160.853 673.41 158.07 673.716 155.321C674.021 152.572 674.926 149.924 676.366 147.563C677.807 145.202 679.747 143.185 682.052 141.655C686.951 138.353 692.863 136.899 698.735 137.551C704.606 138.203 710.055 140.919 714.111 145.215C715.996 147.236 717.425 149.64 718.299 152.263C719.173 154.886 719.473 157.666 719.177 160.414C718.851 163.157 717.938 165.798 716.5 168.157C715.062 170.515 713.132 172.536 710.843 174.082C706.804 176.868 702.006 178.345 697.1 178.312V178.312ZM695.833 140.199C691.472 140.175 687.211 141.503 683.635 143.999C681.657 145.3 679.99 147.022 678.753 149.041C677.516 151.06 676.739 153.327 676.478 155.681C676.217 158.034 676.477 160.416 677.242 162.657C678.006 164.899 679.255 166.944 680.899 168.648C684.495 172.438 689.316 174.835 694.509 175.412C699.702 175.989 704.932 174.71 709.272 171.802C711.233 170.483 712.887 168.757 714.122 166.742C715.357 164.727 716.144 162.469 716.429 160.123V160.123C716.666 157.77 716.394 155.394 715.632 153.156C714.869 150.918 713.633 148.87 712.008 147.153C708.452 143.312 703.613 140.906 698.404 140.389C697.56 140.276 696.71 140.213 695.858 140.199H695.833Z" fill="#175807"/>
<path d="M594.615 163.164C591.797 160.739 589.543 157.728 588.012 154.341C586.48 150.954 585.708 147.273 585.748 143.556C585.584 130.396 591.942 121.187 601.163 114.512C613.235 105.772 614.793 112.827 614.793 112.827C614.793 112.827 622.595 133.993 594.615 163.164Z" fill="#53A22F"/>
<path d="M594.614 163.72C594.496 163.726 594.38 163.69 594.285 163.619C591.378 161.157 589.051 158.082 587.47 154.616C585.889 151.15 585.094 147.377 585.14 143.568C584.988 131.611 590.207 121.68 600.783 114.055C606.014 110.255 610.042 108.874 612.74 109.9C613.35 110.129 613.897 110.498 614.337 110.978C614.777 111.458 615.098 112.035 615.274 112.661C615.451 113.168 617.212 118.425 615.717 127.152C613.184 142.06 603.05 155.183 595.02 163.556C594.967 163.609 594.904 163.651 594.834 163.679C594.764 163.708 594.69 163.722 594.614 163.72V163.72ZM610.84 110.698C608.991 110.698 606.04 111.636 601.442 114.967C591.068 122.478 586.103 131.826 586.242 143.542C586.226 147.092 586.957 150.605 588.386 153.854C589.815 157.103 591.911 160.016 594.538 162.403C621.518 134.005 614.26 113.231 614.184 113.003C614.108 112.775 614.184 113.003 614.184 112.927C614.056 112.468 613.821 112.046 613.497 111.695C613.173 111.345 612.77 111.077 612.322 110.914C611.844 110.757 611.343 110.684 610.84 110.698V110.698Z" fill="#175807"/>
<path d="M606.61 104.633C606.409 104.633 606.21 104.59 606.028 104.506C605.688 104.352 605.424 104.069 605.294 103.719C605.163 103.37 605.176 102.983 605.331 102.644C611.778 88.5716 620.341 84.5563 620.708 84.3917C621.034 84.2902 621.386 84.3108 621.698 84.4497C622.01 84.5886 622.261 84.8363 622.403 85.1465C622.546 85.4568 622.571 85.8083 622.473 86.1356C622.376 86.4629 622.163 86.7434 621.873 86.925C621.747 86.925 613.843 90.7249 607.94 103.784C607.829 104.042 607.643 104.261 607.405 104.413C607.168 104.564 606.891 104.641 606.61 104.633V104.633Z" fill="#175807"/>
<path d="M614.501 114.423C614.212 114.419 613.93 114.331 613.69 114.17C613.539 114.063 613.411 113.927 613.313 113.77C613.215 113.613 613.149 113.439 613.118 113.256C613.087 113.074 613.093 112.887 613.135 112.707C613.176 112.527 613.253 112.357 613.361 112.206C622.671 99.0712 633.386 99.8312 633.83 99.8692C634.188 99.9162 634.514 100.099 634.741 100.38C634.967 100.66 635.078 101.018 635.048 101.377C635.019 101.737 634.852 102.072 634.583 102.312C634.314 102.553 633.962 102.68 633.602 102.669C633.196 102.669 623.975 102.086 615.653 113.828C615.523 114.012 615.35 114.163 615.15 114.266C614.949 114.37 614.726 114.424 614.501 114.423Z" fill="#175807"/>
<path d="M676.06 129.419H675.883C675.696 129.4 675.515 129.344 675.35 129.255C675.185 129.165 675.04 129.044 674.922 128.898C674.804 128.752 674.716 128.584 674.664 128.404C674.611 128.223 674.595 128.035 674.616 127.848C675.579 120.02 668.22 115.435 668.144 115.384C667.97 115.297 667.816 115.175 667.692 115.026C667.567 114.876 667.475 114.702 667.422 114.516C667.368 114.329 667.353 114.133 667.379 113.94C667.405 113.747 667.471 113.562 667.572 113.396C667.673 113.23 667.807 113.086 667.966 112.975C668.126 112.863 668.306 112.786 668.497 112.748C668.688 112.71 668.884 112.712 669.074 112.753C669.264 112.795 669.443 112.876 669.6 112.99C669.968 113.218 678.581 118.589 677.403 128.19C677.359 128.52 677.2 128.823 676.955 129.048C676.709 129.273 676.393 129.404 676.06 129.419V129.419Z" fill="#175807"/>
<path d="M704.548 125.178C704.332 125.177 704.119 125.125 703.927 125.026C703.761 124.946 703.612 124.834 703.489 124.696C703.366 124.558 703.272 124.398 703.212 124.223C703.152 124.049 703.127 123.864 703.139 123.68C703.151 123.496 703.199 123.316 703.281 123.151C708.145 113.182 706.929 107.318 706.916 107.254C706.853 106.9 706.928 106.534 707.127 106.233C707.326 105.932 707.632 105.719 707.983 105.638C708.334 105.556 708.703 105.613 709.014 105.796C709.325 105.979 709.553 106.274 709.652 106.621C709.652 106.9 711.159 113.41 705.852 124.354C705.741 124.606 705.558 124.818 705.326 124.965C705.093 125.112 704.822 125.186 704.548 125.178V125.178Z" fill="#175807"/>
<path d="M726.79 142.237C726.5 142.224 726.221 142.121 725.992 141.943C725.763 141.765 725.595 141.521 725.51 141.243C725.426 140.966 725.429 140.669 725.52 140.393C725.61 140.118 725.784 139.877 726.017 139.704C736.074 133.029 735.656 126.746 735.656 126.683C735.64 126.5 735.661 126.316 735.716 126.141C735.772 125.965 735.861 125.803 735.979 125.662C736.097 125.522 736.242 125.406 736.405 125.321C736.568 125.237 736.746 125.185 736.929 125.169C737.112 125.153 737.297 125.174 737.472 125.229C737.647 125.285 737.809 125.374 737.95 125.492C738.09 125.61 738.206 125.755 738.291 125.918C738.375 126.081 738.427 126.259 738.443 126.442C738.443 126.759 739 134.46 727.562 142.035C727.331 142.178 727.062 142.249 726.79 142.237V142.237Z" fill="#295654"/>
<path d="M602.392 154.994C593.525 158.63 590.257 151.093 589.446 146.9C588.636 142.708 590.371 127.381 601.226 122.011C612.081 116.64 616.616 127.077 616.616 127.077C616.616 127.077 610.878 146.166 602.392 154.994Z" fill="#83E145"/>
<path d="M598.034 156.513C596.736 156.524 595.456 156.211 594.31 155.601C590.422 153.498 589.244 148.495 588.889 147.013C587.939 142.099 590.219 126.823 600.973 121.503C602.407 120.684 603.995 120.173 605.638 120.003C607.28 119.832 608.94 120.007 610.511 120.515C613.427 121.732 615.788 123.989 617.135 126.848C617.18 126.971 617.18 127.105 617.135 127.228C616.907 128.013 611.271 146.506 602.784 155.322C602.732 155.382 602.667 155.43 602.594 155.462C601.158 156.107 599.608 156.464 598.034 156.513V156.513ZM607.104 121.047C605.139 121.098 603.214 121.605 601.48 122.529C590.561 127.925 589.32 143.352 589.991 146.81C590.257 148.166 591.384 152.751 594.842 154.626C595.975 155.155 597.214 155.421 598.464 155.403C599.714 155.386 600.945 155.085 602.062 154.524C609.852 146.354 615.375 129.191 615.995 127.177C614.76 124.661 612.661 122.674 610.08 121.579C609.128 121.222 608.12 121.037 607.104 121.034V121.047Z" fill="#175807"/>
<path d="M583.835 172.852C583.708 172.855 583.582 172.827 583.468 172.772C583.354 172.717 583.254 172.636 583.176 172.536C583.107 172.45 583.055 172.352 583.024 172.246C582.993 172.14 582.983 172.03 582.995 171.92C583.007 171.811 583.04 171.705 583.093 171.608C583.146 171.512 583.217 171.427 583.303 171.358L584.709 170.218C600.504 157.551 610.941 149.09 615.109 128.266C616.099 123.763 615.768 119.07 614.155 114.751C612.541 110.432 609.714 106.671 606.014 103.921C605.923 103.86 605.844 103.781 605.783 103.689C605.722 103.597 605.68 103.494 605.659 103.386C605.638 103.277 605.638 103.166 605.66 103.058C605.682 102.95 605.725 102.847 605.786 102.756C605.848 102.664 605.927 102.586 606.019 102.525C606.11 102.464 606.213 102.422 606.322 102.4C606.43 102.379 606.541 102.38 606.649 102.401C606.757 102.423 606.86 102.466 606.951 102.528C610.888 105.497 613.899 109.524 615.635 114.139C617.371 118.755 617.759 123.768 616.755 128.595C612.436 150.015 601.821 158.577 585.748 171.535L584.342 172.662C584.198 172.778 584.02 172.845 583.835 172.852V172.852Z" fill="#175807"/>
<path d="M731.096 218.617C730.958 218.64 730.817 218.64 730.678 218.617C730.502 218.563 730.339 218.476 730.197 218.359C730.055 218.242 729.938 218.098 729.852 217.935C729.766 217.773 729.713 217.595 729.696 217.412C729.679 217.229 729.699 217.044 729.754 216.869C730.514 214.411 731.02 211.118 729.526 209.358C727.74 207.318 723.889 207.964 723.851 207.977C723.497 208.015 723.142 207.917 722.857 207.704C722.572 207.491 722.379 207.177 722.316 206.827C722.254 206.476 722.326 206.115 722.519 205.816C722.712 205.517 723.012 205.303 723.357 205.216C723.572 205.216 728.778 204.278 731.628 207.483C733.579 209.687 733.845 213.119 732.439 217.692C732.339 217.967 732.156 218.203 731.915 218.369C731.675 218.535 731.388 218.621 731.096 218.617V218.617Z" fill="#175807"/>
<path d="M755.669 195.196C755.454 195.2 755.242 195.152 755.049 195.056C753.072 193.96 750.935 193.182 748.716 192.751C748.352 192.707 748.021 192.524 747.791 192.24C747.561 191.955 747.45 191.593 747.483 191.228C747.516 190.864 747.69 190.527 747.967 190.289C748.245 190.051 748.604 189.93 748.969 189.952C751.521 190.386 753.982 191.242 756.252 192.485C756.418 192.567 756.566 192.681 756.687 192.821C756.809 192.96 756.901 193.122 756.96 193.297C757.019 193.473 757.043 193.658 757.03 193.842C757.017 194.027 756.968 194.207 756.885 194.372C756.781 194.61 756.611 194.814 756.396 194.959C756.181 195.105 755.929 195.187 755.669 195.196V195.196Z" fill="#175807"/>
<path d="M589.839 167.571C589.623 167.573 589.409 167.524 589.215 167.427C589.021 167.33 588.853 167.188 588.725 167.014C576.261 150.547 575.032 134.309 584.925 117.614C587.269 113.777 590.143 110.289 593.462 107.253C595.316 105.521 597.611 104.334 600.096 103.82C602.58 103.306 605.158 103.486 607.547 104.34C609.946 105.158 612.069 106.631 613.676 108.592C615.283 110.552 616.31 112.923 616.642 115.436C617.61 122.34 617.107 129.371 615.164 136.067C613.221 142.762 609.883 148.971 605.368 154.284C601.18 159.45 596.158 163.881 590.511 167.394C590.306 167.51 590.075 167.571 589.839 167.571ZM602.86 106.316C600.083 106.322 597.413 107.392 595.4 109.305C592.299 112.144 589.609 115.401 587.407 118.982C578.173 134.512 579.047 148.939 590.194 164.278C595.121 160.994 599.535 156.999 603.291 152.422C612.158 141.503 615.768 129.192 613.88 115.803C613.618 113.797 612.8 111.905 611.52 110.338C610.24 108.772 608.548 107.594 606.635 106.937C605.42 106.522 604.144 106.313 602.86 106.316Z" fill="#175807"/>
<path d="M598.592 153.814C603.859 153.814 608.129 149.544 608.129 144.276C608.129 139.009 603.859 134.738 598.592 134.738C593.324 134.738 589.054 139.009 589.054 144.276C589.054 149.544 593.324 153.814 598.592 153.814Z" fill="url(#paint0_linear_2710_93803)"/>
<path d="M598.592 154.372C596.588 154.372 594.628 153.778 592.962 152.664C591.296 151.551 589.997 149.968 589.23 148.117C588.463 146.265 588.262 144.227 588.653 142.262C589.044 140.296 590.009 138.491 591.426 137.073C592.844 135.656 594.649 134.691 596.615 134.3C598.58 133.909 600.618 134.11 602.47 134.877C604.321 135.644 605.904 136.943 607.017 138.609C608.131 140.275 608.725 142.235 608.725 144.239C608.725 146.926 607.657 149.504 605.757 151.404C603.857 153.304 601.279 154.372 598.592 154.372ZM598.592 135.372C596.814 135.37 595.076 135.895 593.598 136.88C592.119 137.866 590.966 139.269 590.285 140.91C589.603 142.552 589.424 144.358 589.77 146.102C590.117 147.845 590.972 149.446 592.229 150.703C593.486 151.96 595.087 152.815 596.83 153.161C598.573 153.507 600.38 153.329 602.022 152.647C603.663 151.966 605.066 150.813 606.051 149.334C607.037 147.855 607.562 146.117 607.56 144.34C607.565 143.158 607.337 141.986 606.888 140.893C606.44 139.799 605.781 138.804 604.948 137.965C604.115 137.126 603.125 136.46 602.034 136.004C600.944 135.548 599.774 135.312 598.592 135.309V135.372Z" fill="#175807"/>
<path d="M597.921 150.281C601.237 150.281 603.925 147.593 603.925 144.277C603.925 140.961 601.237 138.273 597.921 138.273C594.605 138.273 591.917 140.961 591.917 144.277C591.917 147.593 594.605 150.281 597.921 150.281Z" fill="#060203"/>
<path d="M594.399 141.592C595.518 141.592 596.426 140.685 596.426 139.566C596.426 138.446 595.518 137.539 594.399 137.539C593.28 137.539 592.373 138.446 592.373 139.566C592.373 140.685 593.28 141.592 594.399 141.592Z" fill="white"/>
<path d="M684.509 171.029C689.777 171.029 694.047 166.759 694.047 161.491C694.047 156.223 689.777 151.953 684.509 151.953C679.241 151.953 674.971 156.223 674.971 161.491C674.971 166.759 679.241 171.029 684.509 171.029Z" fill="url(#paint1_linear_2710_93803)"/>
<path d="M684.509 171.585C682.505 171.585 680.545 170.991 678.879 169.877C677.213 168.764 675.914 167.181 675.147 165.329C674.38 163.478 674.179 161.44 674.57 159.475C674.961 157.509 675.926 155.703 677.343 154.286C678.761 152.869 680.566 151.904 682.532 151.513C684.497 151.122 686.535 151.323 688.387 152.09C690.238 152.857 691.821 154.155 692.934 155.822C694.048 157.488 694.642 159.447 694.642 161.452C694.642 164.139 693.574 166.717 691.674 168.617C689.774 170.517 687.196 171.585 684.509 171.585ZM684.509 152.585C682.735 152.585 681.001 153.111 679.526 154.096C678.052 155.082 676.902 156.482 676.223 158.121C675.545 159.76 675.367 161.563 675.713 163.302C676.059 165.042 676.913 166.64 678.167 167.894C679.422 169.148 681.02 170.002 682.759 170.348C684.499 170.695 686.302 170.517 687.941 169.838C689.579 169.159 690.98 168.01 691.965 166.535C692.951 165.06 693.477 163.327 693.477 161.553C693.483 160.37 693.256 159.198 692.809 158.104C692.361 157.009 691.702 156.014 690.869 155.174C690.036 154.335 689.045 153.669 687.953 153.214C686.862 152.759 685.691 152.523 684.509 152.522V152.585Z" fill="#175807"/>
<path d="M683.837 167.496C687.153 167.496 689.841 164.808 689.841 161.492C689.841 158.176 687.153 155.488 683.837 155.488C680.522 155.488 677.833 158.176 677.833 161.492C677.833 164.808 680.522 167.496 683.837 167.496Z" fill="#060203"/>
<path d="M680.316 158.807C681.435 158.807 682.342 157.9 682.342 156.781C682.342 155.661 681.435 154.754 680.316 154.754C679.196 154.754 678.289 155.661 678.289 156.781C678.289 157.9 679.196 158.807 680.316 158.807Z" fill="white"/>
<path d="M555.703 198.124C555.415 198.12 555.139 198.007 554.93 197.808C554.69 197.567 548.977 191.804 542.745 167.725C540.212 157.756 537.818 144.418 535.753 132.651C534.259 124.19 532.967 116.793 531.953 113.094C530.117 112.942 526.063 111.903 521.82 106.077C518.324 101.093 515.659 95.5744 513.929 89.737V89.737C513.929 89.737 512.662 85.823 511.168 82.5931C509.627 79.8907 507.935 77.2773 506.101 74.7651C503.15 70.5219 500.11 66.1392 499.299 63.9733C498.829 62.9365 498.738 61.7679 499.041 60.6708C499.345 59.5738 500.023 58.6178 500.958 57.9693C501.68 57.5767 504.264 56.576 507.292 60.5026C511.47 65.7067 516.03 70.5926 520.933 75.1198C520.945 75.0103 520.945 74.9 520.933 74.7905C520.917 74.6333 520.933 74.4743 520.982 74.3239C521.031 74.1734 521.11 74.035 521.216 73.9174C521.322 73.7998 521.451 73.7058 521.596 73.6415C521.74 73.5771 521.896 73.5438 522.054 73.5438C522.213 73.5438 522.369 73.5771 522.513 73.6415C522.658 73.7058 522.787 73.7998 522.893 73.9174C522.998 74.035 523.078 74.1734 523.127 74.3239C523.176 74.4743 523.192 74.6333 523.175 74.7905C523.18 75.226 523.094 75.6578 522.924 76.0588C522.754 76.4598 522.504 76.8215 522.187 77.1211C521.958 77.2921 521.693 77.4083 521.412 77.461C521.131 77.5137 520.842 77.5014 520.566 77.4251C518.729 76.9691 508.495 65.7086 505.468 61.82C504.201 60.148 502.833 59.4007 501.984 59.8693C501.529 60.262 501.217 60.795 501.098 61.3843C500.979 61.9736 501.059 62.5858 501.326 63.1246C502.035 65.0246 505.126 69.4579 507.874 73.4225C509.81 76.0311 511.578 78.7599 513.169 81.5924C514.701 84.949 515.993 88.863 516.044 89.0277C517.732 94.6161 520.297 99.9006 523.644 104.683C528.432 111.232 532.511 110.814 532.688 110.789C532.958 110.746 533.235 110.802 533.467 110.946C533.7 111.09 533.873 111.313 533.955 111.574C535.006 115.07 536.412 122.974 538.021 132.195C540.085 143.924 542.416 157.212 544.974 167.104C551.004 190.347 556.501 196.085 556.564 196.136C556.772 196.347 556.889 196.631 556.889 196.927C556.889 197.224 556.772 197.508 556.564 197.719C556.461 197.847 556.33 197.951 556.18 198.021C556.031 198.091 555.868 198.126 555.703 198.124V198.124Z" fill="#175807"/>
<path d="M534.183 85.6959C530.66 85.6506 527.162 85.1003 523.796 84.0619C523.514 83.9695 523.28 83.7689 523.146 83.504C523.012 83.2391 522.988 82.9318 523.08 82.6496C523.173 82.3674 523.374 82.1335 523.638 81.9993C523.903 81.8651 524.211 81.8416 524.493 81.934C524.619 81.934 537.299 85.9999 543.391 80.6673C543.501 80.5691 543.63 80.4938 543.77 80.4456C543.909 80.3975 544.057 80.3776 544.204 80.387C544.351 80.3965 544.495 80.435 544.628 80.5006C544.76 80.5661 544.878 80.6572 544.975 80.7686C545.17 80.9926 545.269 81.2846 545.25 81.5811C545.231 81.8776 545.095 82.1546 544.873 82.352C541.935 84.9359 537.919 85.6959 534.183 85.6959Z" fill="#175807"/>
<path d="M433.488 119.898C426.933 136.845 419.476 153.429 411.148 169.578C408.228 175.301 404.151 180.353 399.174 184.416C394.198 188.478 388.431 191.461 382.24 193.176C370.829 196.281 358.363 199.231 350.802 202.165C338.025 207.118 339.578 214.368 349.917 215.082C360.257 215.796 399.597 213.126 413.834 196.561C428.07 179.996 450.085 125.736 450.085 125.736L433.488 119.898Z" fill="url(#paint2_linear_2710_93803)"/>
<path d="M459.431 117.041C459.573 117.111 459.708 117.195 459.835 117.29C459.75 117.297 459.665 117.276 459.593 117.231C459.52 117.186 459.463 117.12 459.431 117.041V117.041Z" fill="#D1D6D0"/>
<path d="M353.736 216.85C352.184 216.85 350.88 216.85 349.793 216.741C344.188 216.353 340.478 214.133 340.028 210.795C339.453 206.976 343.133 203.235 350.181 200.502C355.677 198.375 363.595 196.279 371.916 194.075C375.161 193.221 378.499 192.336 381.728 191.451C387.688 189.795 393.24 186.922 398.034 183.013C402.827 179.104 406.759 174.243 409.58 168.738C417.867 152.662 425.294 136.156 431.827 119.291L435.149 120.455C428.579 137.446 421.101 154.071 412.747 170.26C409.709 176.189 405.476 181.425 400.313 185.636C395.151 189.847 389.171 192.943 382.752 194.727C379.508 195.612 376.154 196.497 372.91 197.351C364.619 199.54 356.81 201.605 351.485 203.669C345.617 205.936 343.241 208.606 343.49 210.236C343.692 211.525 345.803 212.969 350.088 213.264C359.884 213.931 398.852 211.292 412.592 195.317C426.331 179.342 448.299 125.594 448.563 125.051L451.668 126.339C450.767 128.559 429.405 180.972 415.122 197.568C402.003 212.86 368.64 216.85 353.736 216.85Z" fill="#313B47"/>
<path d="M265.508 338.721C208.174 338.721 161.708 274.603 161.708 195.503C161.708 116.403 208.174 52.2852 265.508 52.2852H321.057L304.554 339.699L265.508 338.721Z" fill="#17202E"/>
<path d="M306.292 340.181L265.492 339.918C237.19 339.918 210.627 324.858 190.724 297.519C170.821 270.179 160 234.084 160 195.504C160 156.924 170.867 120.565 190.724 93.2254C210.58 65.8859 237.206 50.5938 265.508 50.5938H303.56L306.292 340.181ZM265.508 54.0093C209.214 54.0093 163.462 117.491 163.462 195.504C163.462 233.37 174.143 268.875 193.534 295.501C212.925 322.126 238.355 336.471 265.539 336.471L302.799 336.719L300.082 54.0093H265.508Z" fill="#313B47"/>
<path d="M332.514 300.888C335.976 298.823 340.664 300.236 343.505 303.077C346.347 305.918 347.806 309.846 349.141 313.634C352.588 323.477 355.879 333.366 359.015 343.302C366.467 366.962 373.003 390.886 378.623 415.074C381.428 427.153 384.015 439.283 386.385 451.465C387.395 456.743 388.326 465.919 389.071 471.166C389.071 471.166 390.158 494.252 390.375 499.701C390.593 505.15 390.81 511.019 390.81 511.019L370.985 512.105L370.767 483.136C369.215 475.575 369.122 467.906 367.88 460.314C359.957 411.927 347.551 364.381 330.822 318.291C328.617 312.314 327.08 304.164 332.514 300.888Z" fill="url(#paint3_linear_2710_93803)"/>
<path d="M341.565 311.971C341.565 311.971 383.591 440.456 380.812 514.789C380.812 514.789 372.242 515.721 372.103 510.861C371.451 486.689 366.017 445.098 355.77 400.634C349.12 372.374 340.826 344.527 330.93 317.234L341.565 311.971Z" fill="#686868"/>
<path d="M391.338 510.834C392.03 505.69 392.279 500.496 392.083 495.309C391.959 489.208 391.539 483.106 390.981 477.036C390.049 466.976 388.807 456.853 387.161 446.933C386.214 441.189 384.926 435.491 383.699 429.855C381.722 420.758 379.652 411.696 377.489 402.671C373.07 384.683 368.133 366.834 362.678 349.125C359.977 340.359 357.152 331.618 354.202 322.904C352.773 318.681 351.407 314.427 349.793 310.266C348.604 306.572 346.417 303.279 343.474 300.75C342.078 299.609 340.426 298.826 338.66 298.466C336.894 298.106 335.067 298.181 333.336 298.685C331.856 299.22 330.539 300.128 329.513 301.323C328.488 302.517 327.788 303.956 327.483 305.5C326.922 308.753 327.129 312.092 328.089 315.25C329.098 319.1 330.666 322.811 331.97 326.552C337.994 343.661 343.412 360.971 348.225 378.483C353.037 395.995 357.24 413.59 360.831 431.268C362.653 440.221 364.319 449.21 365.83 458.235C366.047 459.508 366.265 460.797 366.451 462.085C366.529 462.567 366.451 461.946 366.451 462.178C366.451 462.411 366.451 462.473 366.451 462.629C366.451 462.784 366.544 463.358 366.575 463.715C366.824 465.703 367.025 467.69 367.243 469.662C368.438 481.274 369.478 492.949 370.193 504.562C370.332 506.875 370.456 509.219 370.534 511.517C370.612 513.815 374.043 513.737 373.965 511.517C373.608 500.354 372.552 489.192 371.497 478.076C371.062 473.419 370.612 468.761 370.068 464.104C369.354 458.111 368.205 452.165 367.119 446.219C363.952 428.769 360.194 411.438 355.847 394.226C351.5 377.014 346.558 359.905 341.021 342.9C338.273 334.439 335.323 326.055 332.343 317.672C330.79 313.34 328.275 304.755 333.895 302.147C336.721 300.858 340.214 302.302 342.279 304.351C344.949 307.006 346.237 310.686 347.464 314.163C350.455 322.692 353.327 331.261 356.08 339.873C361.628 357.126 366.679 374.55 371.233 392.145C375.75 409.58 379.865 427.139 383.311 444.806C384.864 452.662 385.78 460.626 386.665 468.575C388.203 480.157 388.841 491.841 388.574 503.522C388.481 505.633 388.295 508.055 388.015 509.918C387.908 510.356 387.972 510.818 388.194 511.211C388.416 511.603 388.78 511.896 389.211 512.029C389.649 512.144 390.115 512.084 390.509 511.861C390.904 511.637 391.195 511.269 391.322 510.834H391.338Z" fill="#313B47"/>
<path d="M350.554 317.422C350.554 317.422 348.085 301.152 339.096 300.143C330.107 299.134 328.493 306.974 330.527 315.093C332.56 323.213 338.211 338.474 338.211 338.474C338.211 338.474 332.84 311.321 350.554 317.422Z" fill="black"/>
<path d="M302.675 342.463C363.286 342.463 412.421 276.959 412.421 196.155C412.421 115.352 363.286 49.8477 302.675 49.8477C242.064 49.8477 192.929 115.352 192.929 196.155C192.929 276.959 242.064 342.463 302.675 342.463Z" fill="url(#paint4_linear_2710_93803)"/>
<path opacity="0.93" d="M302.706 331.47C358.747 331.47 404.177 270.901 404.177 196.185C404.177 121.469 358.747 60.9004 302.706 60.9004C246.665 60.9004 201.234 121.469 201.234 196.185C201.234 270.901 246.665 331.47 302.706 331.47Z" fill="url(#paint5_linear_2710_93803)"/>
<path d="M302.706 319.499C353.8 319.499 395.219 264.289 395.219 196.184C395.219 128.079 353.8 72.8691 302.706 72.8691C251.612 72.8691 210.192 128.079 210.192 196.184C210.192 264.289 251.612 319.499 302.706 319.499Z" fill="url(#paint6_linear_2710_93803)"/>
<path d="M396.492 257.802C371.31 326.5 309.133 354.973 257.605 321.455C206.078 287.936 184.716 205.017 209.897 136.304C212.489 129.156 215.602 122.207 219.212 115.516C219.212 115.516 218.125 191.029 284.743 240.663C347.775 287.533 396.492 257.802 396.492 257.802Z" fill="url(#paint7_linear_2710_93803)"/>
<path d="M368.64 157.714L352.758 185.876C351.845 187.532 350.622 188.997 349.156 190.192C347.802 191.273 346.203 192.004 344.499 192.319C342.881 192.63 341.21 192.507 339.655 191.962C338.006 191.376 336.514 190.42 335.292 189.167L335.106 188.981C333.48 187.315 332.231 185.319 331.442 183.128C330.562 180.759 330.115 178.25 330.123 175.723V164.948C328.179 165.036 326.283 165.574 324.583 166.519C322.883 167.465 321.426 168.793 320.326 170.398C317.631 174.217 316.217 178.795 316.29 183.47V265.162C316.29 275.02 310.53 283.419 303.125 283.792C301.261 283.861 299.411 283.449 297.753 282.597C295.928 281.664 294.336 280.332 293.095 278.7C291.715 276.907 290.664 274.883 289.99 272.723C289.269 270.421 288.897 268.024 288.888 265.612V183.485C288.86 176.367 289.907 169.285 291.993 162.48C293.931 156.083 296.951 150.066 300.92 144.688C304.55 139.834 309.17 135.807 314.473 132.874C319.294 130.172 324.721 128.741 330.247 128.713H357.524C365.551 128.713 371.171 136.227 371.171 146.924C371.213 150.672 370.344 154.375 368.64 157.714Z" fill="url(#paint8_linear_2710_93803)"/>
<path d="M268.598 128.543H247.716C240.28 128.543 234.241 136.585 234.241 146.49V147.018C234.241 156.923 240.28 164.949 247.716 164.949H268.598C276.034 164.949 282.073 156.923 282.073 147.018V146.49C282.073 136.585 276.034 128.543 268.598 128.543Z" fill="url(#paint9_linear_2710_93803)"/>
<path d="M259.174 300.545C255.727 298.465 251.039 299.893 248.182 302.734C245.325 305.575 243.897 309.488 242.562 313.291C239.115 323.113 235.824 332.998 232.688 342.944C225.236 366.604 218.7 390.528 213.08 414.716C210.265 426.815 207.677 438.951 205.317 451.122C204.308 456.401 203.377 465.576 202.632 470.823C202.632 470.823 201.545 493.909 201.328 499.358C201.11 504.808 200.893 510.676 200.893 510.676L220.718 511.763L220.936 482.793C222.488 475.233 222.488 467.563 223.823 459.971C231.746 411.584 244.152 364.038 260.881 317.949C263.07 311.925 264.623 303.774 259.174 300.545Z" fill="url(#paint10_linear_2710_93803)"/>
<path d="M250.138 311.582C250.138 311.582 208.112 440.067 210.938 514.323C210.938 514.323 219.523 515.27 219.663 510.411C220.315 486.238 225.748 444.647 235.995 400.183C242.645 371.923 250.939 344.076 260.835 316.783L250.138 311.582Z" fill="#686868"/>
<path d="M203.672 509.511C203.367 507.318 203.18 505.11 203.113 502.897C203.004 500.165 203.004 497.433 203.113 494.685C203.237 488.723 203.656 482.761 204.2 476.815C205.1 467.035 206.296 457.3 207.895 447.613C208.78 442.164 209.991 436.745 211.155 431.374C213.059 422.483 215.093 413.613 217.256 404.764C221.551 387.107 226.354 369.584 231.663 352.196C234.323 343.471 237.102 334.788 240 326.145C241.429 321.881 242.888 317.627 244.378 313.384C245.605 309.922 246.94 306.258 249.672 303.681C251.768 301.709 255.37 300.358 258.102 301.833C260.54 303.153 261.207 305.854 261.207 308.462C261.073 311.54 260.423 314.574 259.282 317.436C257.73 321.612 256.286 325.788 254.842 329.98C249.057 346.83 243.84 363.855 239.193 381.057C234.546 398.259 230.484 415.595 227.006 433.066C224.569 445.3 222.24 457.549 220.967 469.953C219.787 481.395 218.762 492.868 218.079 504.341C217.939 506.577 217.815 508.828 217.753 511.064C217.691 513.299 221.122 513.284 221.184 511.064C221.557 499.684 222.643 488.304 223.715 476.909C224.149 472.251 224.6 467.671 225.158 463.06C225.158 462.719 225.158 462.377 225.283 462.051V461.601C225.283 461.787 225.283 461.803 225.283 461.477C225.485 460.079 225.717 458.698 225.95 457.316C226.711 452.798 227.503 448.311 228.341 443.809C231.643 425.966 235.565 408.257 240.109 390.683C244.653 373.108 249.786 355.705 255.51 338.472C256.928 334.208 258.382 329.949 259.872 325.695C261.176 321.985 262.729 318.321 263.692 314.502C265.244 308.587 265.244 300.312 258.102 298.123C256.343 297.682 254.504 297.668 252.738 298.081C250.972 298.494 249.33 299.323 247.949 300.498C245.056 303.093 242.911 306.417 241.739 310.123C238.51 318.585 235.778 327.201 232.999 335.895C227.306 353.49 222.131 371.266 217.474 389.223C212.816 407.139 208.578 425.195 205.054 443.359C203.501 451.416 202.523 459.629 201.592 467.764C200.009 479.54 199.355 491.422 199.635 503.301C199.739 505.666 199.967 508.024 200.318 510.365C200.438 510.805 200.728 511.18 201.124 511.407C201.52 511.634 201.989 511.695 202.43 511.576C202.864 511.442 203.23 511.147 203.453 510.751C203.675 510.355 203.737 509.889 203.625 509.449L203.672 509.511Z" fill="#313B47"/>
<path d="M241.087 317.031C241.087 317.031 243.556 300.761 252.545 299.752C261.534 298.743 263.148 306.568 261.114 314.703C259.081 322.838 253.507 338.083 253.507 338.083C253.507 338.083 258.863 310.93 241.087 317.031Z" fill="black"/>
<path d="M248.85 313.398C233.078 304.39 217.8 294.543 203.082 283.9C197.855 280.166 193.464 275.384 190.187 269.859C186.91 264.334 184.819 258.187 184.048 251.81C182.62 240.073 181.58 227.296 179.81 219.378C176.798 206.027 169.393 206.477 167.157 216.584C164.922 226.691 161.739 265.984 176.006 282.549C190.274 299.115 240.621 328.954 240.621 328.954L248.85 313.398Z" fill="url(#paint11_linear_2710_93803)"/>
<path d="M163.323 360.316L162.872 360.441C163.121 360.192 163.323 360.316 163.323 360.316Z" fill="#D1D6D0"/>
<path d="M239.736 330.433C237.671 329.206 189.016 300.314 174.718 283.733C160.419 267.153 162.934 227.844 165.496 216.277C166.707 210.782 169.455 207.506 172.824 207.49C176.674 207.49 179.825 211.713 181.486 219.056C182.775 224.816 183.66 233.029 184.591 241.552C184.949 244.874 185.337 248.321 185.74 251.643C186.489 257.783 188.504 263.7 191.657 269.02C194.811 274.341 199.034 278.949 204.06 282.554C218.732 293.138 233.958 302.932 249.672 311.896L247.996 314.892C232.166 305.889 216.831 296.042 202.057 285.395C196.644 281.514 192.095 276.552 188.698 270.822C185.302 265.093 183.132 258.721 182.325 252.109C181.906 248.771 181.533 245.309 181.176 241.971C180.244 233.464 179.36 225.422 178.071 219.864C176.689 213.731 174.407 210.983 172.761 210.983C171.442 210.983 169.656 212.862 168.787 217.054C166.66 226.648 163.493 265.569 177.248 281.529C191.003 297.489 240.901 327.219 241.413 327.514L239.736 330.433Z" fill="#313B47"/>
<path d="M305.298 303.993C305.491 303.471 305.596 302.92 305.609 302.363C305.632 301.932 305.566 301.502 305.414 301.098C305.261 300.694 305.026 300.327 304.724 300.019C304.46 299.74 303.793 299.01 302.97 298.063C300.936 295.781 297.862 292.319 295.207 289.85L289.587 287.754C283.781 286.574 280.365 293.172 280.117 296.184C277.012 295.004 275.196 293.949 272.944 293.157L269.032 291.496C264.375 289.943 260.121 288.701 262.418 281.87C262.853 280.597 263.195 278.47 263.692 277.089C266.439 269.621 271.454 260.663 268.225 251.923C265.989 245.713 261.254 244.16 257.559 244.719C255.975 244.839 254.478 245.495 253.316 246.579C252.154 247.662 251.394 249.109 251.163 250.681C250.713 258.754 247.716 281.327 239.333 288.732C237.65 290.222 236.092 291.847 234.675 293.592C233.4 293.234 232.057 293.188 230.76 293.458C229.463 293.728 228.25 294.307 227.223 295.144C222.845 298.435 218.793 306.648 220.284 316.879C222.193 330.137 227.348 331.147 228.885 331.147H229.211C231.763 334.695 234.973 337.72 238.665 340.058C242.966 342.93 246.847 345.29 250.278 347.355C254.115 349.451 257.753 351.893 261.145 354.651C263.291 356.776 266.184 357.974 269.203 357.989C271.868 357.924 274.466 357.135 276.717 355.707C279.154 354.263 282.927 352.602 286.156 351.05C289.074 349.897 291.867 348.45 294.493 346.734C296.76 344.809 297.055 339.437 297.101 337.916C297.66 337.558 298.157 337.217 298.53 336.937C302.227 334.177 304.816 330.184 305.826 325.682C306.428 323.492 306.471 321.186 305.951 318.975C307.333 317.454 308.202 315.537 308.435 313.495C308.636 310.359 306.292 305.748 305.298 303.993Z" fill="#DFF2F9"/>
<path d="M228.062 332.107C226.509 332.107 221.076 331.051 219.104 317.389C218.033 309.968 219.818 299.784 226.261 294.956C227.457 293.938 228.915 293.277 230.469 293.049C232.023 292.822 233.61 293.036 235.048 293.667C235.23 293.731 235.396 293.831 235.537 293.963C235.678 294.094 235.789 294.254 235.865 294.431C235.94 294.608 235.977 294.799 235.975 294.992C235.972 295.184 235.929 295.374 235.849 295.549C235.768 295.724 235.652 295.88 235.508 296.007C235.363 296.135 235.194 296.231 235.011 296.289C234.827 296.347 234.633 296.366 234.442 296.345C234.251 296.324 234.066 296.263 233.899 296.167C232.907 295.759 231.82 295.636 230.762 295.812C229.703 295.987 228.715 296.454 227.907 297.16C224.025 300.063 220.455 307.515 221.836 317.001C223.622 329.421 228.046 329.421 228.046 329.421C228.226 329.393 228.41 329.401 228.587 329.446C228.763 329.49 228.929 329.57 229.074 329.68C229.219 329.79 229.34 329.929 229.431 330.087C229.521 330.245 229.578 330.42 229.599 330.601C229.639 330.967 229.534 331.333 229.308 331.623C229.082 331.913 228.752 332.103 228.388 332.154L228.062 332.107Z" fill="#3C3C3B"/>
<path d="M227.549 309.674H227.239C226.886 309.589 226.581 309.369 226.389 309.061C226.197 308.753 226.135 308.382 226.214 308.028C228.345 300.399 232.662 293.561 238.634 288.358C247.173 280.813 250.231 257.758 250.697 249.545C250.868 246.44 253.662 243.863 257.357 243.335C261.052 242.807 266.098 244.422 268.426 250.803C271.687 259.792 268.193 269.324 265.399 276.994C264.871 278.406 264.39 279.741 263.955 281.03C261.642 287.892 264.607 288.917 269.513 290.609L270.025 290.78C274.435 292.332 283.253 295.841 285.255 296.648L293.779 294.614C294.135 294.53 294.51 294.591 294.821 294.783C295.133 294.975 295.355 295.283 295.44 295.639C295.481 295.814 295.488 295.996 295.458 296.174C295.429 296.352 295.365 296.522 295.27 296.675C295.175 296.828 295.05 296.961 294.903 297.065C294.757 297.17 294.591 297.244 294.415 297.285L285.457 299.427C285.189 299.512 284.902 299.512 284.634 299.427C284.526 299.427 274.015 295.142 269.109 293.45L268.613 293.279C263.955 291.727 258.133 289.662 261.331 280.207C261.782 278.888 262.263 277.537 262.791 276.109C265.585 268.486 268.752 259.854 265.818 251.796C264.064 246.984 260.493 245.711 257.745 246.114C255.339 246.471 253.522 248.008 253.429 249.778C253.429 250.089 251.582 280.673 240.435 290.531C234.922 295.378 230.905 301.695 228.853 308.742C228.762 309.015 228.586 309.252 228.352 309.419C228.118 309.586 227.837 309.675 227.549 309.674V309.674Z" fill="#3C3C3B"/>
<path d="M292.32 313.848C291.997 313.848 291.685 313.735 291.438 313.529C291.19 313.323 291.022 313.036 290.963 312.719C290.904 312.403 290.958 312.075 291.115 311.794C291.272 311.512 291.522 311.294 291.823 311.178C297.707 308.911 300.299 307.126 302.364 305.154C303.223 304.458 303.779 303.457 303.917 302.36C303.933 302.175 303.889 301.99 303.793 301.832C303.451 301.491 302.783 300.745 301.867 299.721C299.818 297.407 296.729 293.914 294.105 291.477C292.273 289.675 289.841 288.613 287.274 288.496V288.496C280.816 289.769 281.39 295.156 281.468 295.777C281.521 296.138 281.429 296.504 281.212 296.797C280.996 297.09 280.671 297.284 280.311 297.338C279.951 297.391 279.584 297.299 279.291 297.082C278.999 296.865 278.804 296.541 278.751 296.181C278.597 294.962 278.685 293.725 279.011 292.54C279.337 291.356 279.894 290.248 280.651 289.28C281.407 288.311 282.347 287.502 283.417 286.899C284.487 286.295 285.666 285.91 286.886 285.764H287.072C290.421 285.811 293.623 287.146 296.015 289.49C298.685 292.02 301.836 295.56 303.917 297.92C304.771 298.867 305.469 299.627 305.718 299.907C306.033 300.239 306.279 300.632 306.439 301.062C306.599 301.491 306.67 301.949 306.649 302.406C306.584 303.319 306.339 304.21 305.929 305.028C305.518 305.846 304.951 306.575 304.258 307.173C301.961 309.362 299.12 311.318 292.816 313.771C292.657 313.828 292.489 313.854 292.32 313.848V313.848Z" fill="#3C3C3B"/>
<path d="M286.11 333.801C285.849 333.798 285.595 333.722 285.376 333.582C285.156 333.442 284.98 333.244 284.868 333.009C284.713 332.68 284.695 332.302 284.817 331.959C284.939 331.616 285.191 331.335 285.52 331.178C289.767 329.095 293.847 326.687 297.722 323.974C303.808 319.611 306.494 316.522 306.727 313.681C306.96 310.84 304.522 306.322 303.622 304.723C303.475 304.413 303.449 304.059 303.548 303.731C303.648 303.402 303.866 303.123 304.161 302.946C304.455 302.77 304.805 302.71 305.141 302.777C305.478 302.844 305.777 303.034 305.982 303.31C306.385 303.978 309.863 309.908 309.537 313.898C309.149 318.556 304.429 322.592 299.399 326.21C295.388 329.012 291.168 331.503 286.777 333.662C286.569 333.761 286.34 333.809 286.11 333.801V333.801Z" fill="#3C3C3B"/>
<path d="M283.532 346.422C283.22 346.422 282.917 346.316 282.672 346.122C282.428 345.927 282.256 345.655 282.186 345.351C282.116 345.047 282.151 344.727 282.285 344.445C282.42 344.163 282.646 343.935 282.927 343.798C283.051 343.798 294.648 338.132 297.645 335.803C300.939 333.359 303.251 329.819 304.165 325.82C305.035 321.753 304.305 320.138 304.289 320.123C304.202 319.966 304.147 319.794 304.127 319.616C304.107 319.437 304.123 319.257 304.174 319.085C304.224 318.913 304.309 318.753 304.422 318.614C304.535 318.475 304.675 318.36 304.833 318.275C305.157 318.101 305.536 318.061 305.89 318.162C306.244 318.264 306.544 318.499 306.727 318.819C306.929 319.207 307.938 321.365 306.866 326.395C305.816 331.029 303.146 335.136 299.337 337.976C296.108 340.491 284.619 346.049 284.122 346.282C283.939 346.374 283.737 346.422 283.532 346.422Z" fill="#3C3C3B"/>
<path d="M269.234 359.541C266.11 359.53 263.116 358.293 260.897 356.095C257.456 353.282 253.766 350.788 249.874 348.643C246.365 346.516 242.375 344.109 237.982 341.175C233.695 338.498 230.062 334.897 227.347 330.634C225.919 328.456 225.094 325.938 224.956 323.337C224.992 322.998 225.153 322.684 225.406 322.456C225.66 322.228 225.989 322.102 226.33 322.102C226.671 322.102 227 322.228 227.254 322.456C227.508 322.684 227.668 322.998 227.704 323.337C227.704 326.194 230.188 332.652 239.503 338.862C243.85 341.765 247.809 344.156 251.302 346.267C255.366 348.49 259.212 351.089 262.791 354.03C266.284 357.337 270.833 357.601 275.599 354.76C278.207 353.207 282.073 351.422 285.488 349.854C288.235 348.726 290.888 347.382 293.422 345.833C294.555 344.855 295.145 340.896 295.176 338.505C295.184 338.144 295.333 337.8 295.591 337.548C295.85 337.295 296.196 337.154 296.558 337.154V337.154C296.92 337.166 297.264 337.319 297.516 337.58C297.768 337.84 297.908 338.189 297.908 338.552C297.908 339.747 297.66 345.802 295.191 347.867C292.482 349.621 289.607 351.103 286.606 352.291C283.253 353.844 279.449 355.582 276.981 357.057C274.67 358.57 271.993 359.428 269.234 359.541V359.541Z" fill="#3C3C3B"/>
<path d="M271.997 353.826C271.687 353.828 271.386 353.724 271.143 353.531C270.857 353.303 270.674 352.97 270.633 352.606C270.592 352.242 270.698 351.877 270.926 351.591C273.686 347.822 275.55 343.473 276.375 338.876C276.734 336.277 276.925 333.659 276.95 331.036C277.074 326.813 277.198 322.823 279.123 318.895C281.809 313.415 281.918 307.81 280.676 305.311C280.543 304.988 280.538 304.626 280.661 304.299C280.784 303.972 281.026 303.704 281.339 303.549C281.652 303.393 282.012 303.362 282.347 303.461C282.682 303.561 282.967 303.783 283.144 304.084C284.697 307.189 284.697 313.772 281.592 320.106C279.93 323.491 279.822 327.03 279.698 331.113C279.668 333.851 279.465 336.583 279.092 339.295C278.201 344.356 276.144 349.14 273.084 353.268C272.959 353.439 272.795 353.578 272.607 353.675C272.418 353.772 272.209 353.824 271.997 353.826V353.826Z" fill="#3C3C3B"/>
<path d="M428.583 114.587C428.583 114.587 425.291 116.139 426.099 118.235C426.906 120.331 428.132 126.23 437.37 128.792C446.607 131.354 454.447 130.034 456.093 129.149C457.739 128.264 459.291 122.147 459.291 122.147C459.291 122.147 468.792 115.658 472.161 109.184C474.542 104.131 476.359 98.8305 477.58 93.3794C477.58 93.3794 490.9 78.2891 493.648 75.0909C496.396 71.8928 500.137 61.5065 493.834 62.1275C487.531 62.7485 472.41 82.9 472.41 82.9C474.734 75.9935 477.519 69.2509 480.747 62.7175C485.016 54.7376 484.659 50.7322 479.691 49.8473C474.723 48.9623 470.19 55.0947 467.519 61.2116C464.849 67.3284 461.309 81.0991 459.353 78.7082C457.397 76.3174 461.216 68.7567 462.722 61.6307C464.228 54.5048 466.991 43.4354 460.16 41.5569C453.329 39.6784 451.451 46.2144 451.544 50.9806C451.637 55.7468 451.373 73.259 448.532 74.1439C445.691 75.0288 444.465 73.1348 444.294 67.67C444.123 62.2052 445.536 45.0345 440.568 43.3578C440.568 43.3578 433.457 40.2528 432.573 46.3697C431.688 52.4865 435.414 66.9713 433.1 75.8672C431.59 81.6285 429.723 87.2904 427.511 92.8205C427.511 92.8205 418.553 81.5493 415.262 80.8352C411.971 80.121 406.91 81.6425 407.5 83.7694C408.09 85.8963 416.722 104.899 421.069 108.889C423.328 111.092 425.852 113.006 428.583 114.587V114.587Z" fill="#DFF2F9"/>
<path d="M426.906 93.4278C426.906 93.4278 430.57 85.1685 431.113 82.8398L432.836 75.248C432.836 75.248 447.15 87.668 445.256 104.404C445.256 104.404 444.387 98.3492 436.671 95.4926C428.955 92.636 426.906 93.4278 426.906 93.4278Z" fill="#B2C9EA"/>
<path d="M429.437 116.464C433.718 120.4 438.751 123.431 444.232 125.375C446.624 126.05 449.143 126.136 451.576 125.628C454.009 125.12 456.282 124.032 458.204 122.456C458.204 122.456 462.07 131.243 448.486 130.436C434.901 129.629 426.44 121.587 426.114 119.848C425.788 118.109 425.509 114.865 429.437 116.464Z" fill="#B2C9EA"/>
<path d="M449.619 132.005C449.029 132.005 448.408 132.005 447.756 132.005C436.097 131.26 428.753 125.578 426.238 122.333C425.366 121.171 424.95 119.729 425.07 118.281C425.191 116.833 425.838 115.479 426.89 114.477C427.153 114.225 427.504 114.084 427.869 114.084C428.233 114.084 428.584 114.225 428.847 114.477C429.102 114.736 429.245 115.084 429.245 115.448C429.245 115.811 429.102 116.159 428.847 116.418C428.277 116.955 427.921 117.68 427.844 118.459C427.767 119.238 427.974 120.018 428.427 120.656C430.648 123.528 437.246 128.574 447.927 129.257C452.041 129.521 454.975 128.869 456.419 127.348C456.883 126.817 457.221 126.187 457.407 125.507C457.592 124.826 457.621 124.113 457.49 123.42C457.466 123.239 457.478 123.056 457.525 122.88C457.573 122.704 457.654 122.539 457.765 122.395C457.876 122.251 458.015 122.13 458.173 122.039C458.331 121.949 458.505 121.89 458.686 121.867C459.052 121.823 459.421 121.926 459.711 122.153C460.002 122.38 460.192 122.712 460.238 123.078C460.429 124.183 460.364 125.317 460.049 126.393C459.734 127.47 459.178 128.46 458.422 129.288C456.621 131.058 453.671 132.005 449.619 132.005Z" fill="#3C3C3B"/>
<path d="M442.151 121.896C438.339 121.655 434.615 120.639 431.209 118.909C427.802 117.179 424.785 114.772 422.341 111.836C416.054 104.647 411.862 96.0466 409.083 90.3489C408.058 88.2841 407.267 86.6385 406.63 85.6914C406.071 84.9572 405.783 84.0526 405.814 83.1305C405.845 82.2083 406.194 81.3252 406.801 80.6303C408.804 78.4723 413.29 78.5034 417.436 80.6303C422.683 83.3937 426.642 90.2558 427.993 92.8485C429.669 92.6001 433.038 92.6156 438.332 94.6804C446.421 97.7854 446.654 104.834 446.669 105.129C446.673 105.309 446.641 105.489 446.576 105.658C446.51 105.826 446.411 105.979 446.286 106.109C446.16 106.239 446.01 106.343 445.844 106.415C445.678 106.486 445.499 106.524 445.318 106.526C444.956 106.526 444.607 106.385 444.347 106.133C444.086 105.881 443.933 105.538 443.921 105.175C443.921 104.973 443.657 99.726 437.339 97.242C430.772 94.6804 427.775 95.6895 427.744 95.6895C427.419 95.8057 427.063 95.7987 426.742 95.67C426.422 95.5413 426.16 95.2997 426.005 94.9909C426.005 94.8978 421.721 85.9709 416.147 83.0367C412.53 81.1271 409.627 81.4842 408.804 82.4157C408.447 82.8038 408.509 83.3937 408.974 84.1545C409.673 85.2878 410.527 86.9955 411.552 89.138C414.268 94.6959 418.367 103.11 424.422 110.004C426.624 112.625 429.325 114.783 432.369 116.35C435.413 117.917 438.738 118.863 442.151 119.132C442.491 119.168 442.804 119.329 443.033 119.582C443.261 119.836 443.387 120.165 443.387 120.506C443.387 120.847 443.261 121.176 443.033 121.43C442.804 121.684 442.491 121.844 442.151 121.88V121.896Z" fill="#3C3C3B"/>
<path d="M454.043 123.963C451.829 123.974 449.627 123.628 447.523 122.938C447.192 122.798 446.929 122.536 446.789 122.205C446.649 121.875 446.642 121.503 446.772 121.168C446.901 120.833 447.155 120.562 447.481 120.411C447.806 120.261 448.178 120.243 448.517 120.361C451.575 121.435 454.886 121.565 458.02 120.735C461.154 119.904 463.965 118.151 466.091 115.703C470.903 109.793 474.073 102.72 475.282 95.195C475.317 94.9865 475.39 94.7863 475.499 94.605C475.872 94.0461 484.814 80.7256 491.536 75.0125C495.526 71.6591 497.156 67.0481 496.194 64.8591C496.039 64.502 495.573 63.4153 493.353 63.7103C488.944 64.2847 477.3 78.5677 470.997 87.448C470.81 87.7041 470.542 87.8885 470.236 87.9702C469.93 88.0519 469.605 88.026 469.316 87.8969C469.027 87.7678 468.791 87.5432 468.647 87.2608C468.504 86.9784 468.462 86.6554 468.528 86.3457C470.543 78.9934 473.652 71.9858 477.75 65.5577C482.765 57.3605 482.967 54.1158 482.252 52.8272C481.693 51.8336 480.157 51.2747 477.595 51.2747C472.673 51.2747 468.28 62.9495 465.734 69.9047C464.928 72.2681 463.979 74.5804 462.893 76.8289C461.061 80.2289 459.462 80.3996 458.453 79.9339C455.099 78.3814 458.127 69.4235 459.136 66.7066C463.669 54.4884 464.585 44.3661 461.309 42.6428C460.513 42.1269 459.597 41.8258 458.651 41.7686C457.704 41.7115 456.759 41.9003 455.906 42.3168C454.261 43.3104 453.391 45.6081 453.407 48.8063C453.331 54.3307 452.843 59.8419 451.948 65.2938C450.147 76.5184 448.33 76.8289 447.29 76.9996C446.956 77.0573 446.614 77.0384 446.288 76.9443C445.963 76.8501 445.663 76.6833 445.412 76.4563C442.431 73.8481 442.772 59.5961 442.943 55.2802C443.16 49.8775 442.058 45.6857 439.993 44.0556C439.481 43.6748 438.882 43.4283 438.25 43.3389C437.618 43.2494 436.974 43.3196 436.376 43.5433C433.054 44.4903 433.706 52.5012 434.327 60.2482C434.606 63.5861 434.886 67.0481 434.901 70.3084C434.901 82.2626 428.536 93.5959 428.256 94.0461C428.055 94.3212 427.758 94.512 427.424 94.5816C427.09 94.6513 426.742 94.5949 426.447 94.4233C426.153 94.2518 425.932 93.9772 425.827 93.6525C425.722 93.3277 425.742 92.9758 425.881 92.6644C425.881 92.5557 432.215 81.5174 432.091 70.3239C432.091 67.2189 431.796 63.7568 431.532 60.4655C430.74 50.809 430.073 42.4721 435.553 40.904C436.571 40.5588 437.659 40.4689 438.72 40.6421C439.781 40.8154 440.783 41.2465 441.639 41.8976C444.433 44.1022 445.893 49.0236 445.629 55.4044C445.256 64.5641 445.924 71.8609 446.855 73.9102C448.517 70.8983 450.597 57.0656 450.535 48.8218C450.535 43.4501 452.584 41.0593 454.338 39.9725C455.596 39.2967 457.01 38.9625 458.437 39.0033C459.865 39.0442 461.256 39.4587 462.474 40.2054C469.879 44.1177 463.032 63.7724 461.589 67.6691C460.332 70.5534 459.641 73.6527 459.555 76.7978C459.855 76.3972 460.12 75.9713 460.347 75.5248C461.367 73.3839 462.264 71.1861 463.032 68.9422C466.417 59.8445 470.64 48.5113 477.471 48.5113C481.088 48.5113 483.37 49.4583 484.457 51.3989C486.103 54.3332 484.69 59.1614 479.908 66.9239C477.602 70.6969 475.578 74.6355 473.853 78.7074C479.473 71.5349 488.059 61.5368 492.809 60.9158C493.936 60.6489 495.121 60.7779 496.164 61.2811C497.207 61.7843 498.045 62.6311 498.538 63.6792C500.091 67.3586 497.839 73.1029 493.151 77.0462C487.143 82.0919 479.07 93.9064 477.797 95.8159C476.501 103.764 473.121 111.227 468 117.442C466.297 119.489 464.163 121.134 461.75 122.261C459.338 123.388 456.706 123.969 454.043 123.963V123.963Z" fill="#3C3C3B"/>
<path d="M452.941 108.577C452.613 108.58 452.297 108.458 452.056 108.235C451.78 108.001 451.609 107.666 451.58 107.305C451.551 106.944 451.666 106.586 451.901 106.31C452.118 106.046 457.537 99.8675 468.482 104.603C468.814 104.752 469.075 105.026 469.208 105.365C469.342 105.705 469.337 106.083 469.196 106.419C469.049 106.754 468.776 107.018 468.435 107.152C468.095 107.286 467.715 107.279 467.379 107.133C458.406 103.236 454.168 107.894 453.981 108.096C453.853 108.246 453.694 108.368 453.514 108.451C453.335 108.534 453.139 108.577 452.941 108.577V108.577Z" fill="#3C3C3B"/>
<path d="M472.72 91.4668C472.531 91.4646 472.345 91.425 472.172 91.3504C471.998 91.2758 471.842 91.1676 471.71 91.0321C458.188 76.5628 443.098 78.6121 440.195 79.1089H439.822C439.475 79.1041 439.143 78.9689 438.891 78.7302C438.639 78.4916 438.486 78.1669 438.463 77.8208C438.439 77.4746 438.547 77.1323 438.764 76.8619C438.982 76.5914 439.293 76.4126 439.636 76.361C442.741 75.771 459.166 73.5975 473.682 89.1225C473.937 89.3811 474.08 89.7297 474.08 90.0928C474.08 90.456 473.937 90.8046 473.682 91.0632C473.425 91.3156 473.08 91.4601 472.72 91.4668V91.4668Z" fill="#3C3C3B"/>
</g>
<defs>
<linearGradient id="paint0_linear_2710_93803" x1="598.592" y1="153.814" x2="598.592" y2="134.751" gradientUnits="userSpaceOnUse">
<stop stop-color="#E8AF15"/>
<stop offset="0.04" stop-color="#D69A16"/>
<stop offset="0.11" stop-color="#B87817"/>
<stop offset="0.19" stop-color="#9E5B18"/>
<stop offset="0.28" stop-color="#8A4319"/>
<stop offset="0.39" stop-color="#7A3119"/>
<stop offset="0.51" stop-color="#6E241A"/>
<stop offset="0.66" stop-color="#681C1A"/>
<stop offset="1" stop-color="#661A1A"/>
</linearGradient>
<linearGradient id="paint1_linear_2710_93803" x1="684.509" y1="171.029" x2="684.509" y2="151.953" gradientUnits="userSpaceOnUse">
<stop stop-color="#E8AF15"/>
<stop offset="0.04" stop-color="#D69A16"/>
<stop offset="0.11" stop-color="#B87817"/>
<stop offset="0.19" stop-color="#9E5B18"/>
<stop offset="0.28" stop-color="#8A4319"/>
<stop offset="0.39" stop-color="#7A3119"/>
<stop offset="0.51" stop-color="#6E241A"/>
<stop offset="0.66" stop-color="#681C1A"/>
<stop offset="1" stop-color="#661A1A"/>
</linearGradient>
<linearGradient id="paint2_linear_2710_93803" x1="412.163" y1="166.559" x2="448.581" y2="142.182" gradientUnits="userSpaceOnUse">
<stop offset="0.08" stop-color="#797D86"/>
<stop offset="0.47" stop-color="#A8ABB0"/>
<stop offset="0.82" stop-color="#CBCCCF"/>
<stop offset="1" stop-color="#D8D9DB"/>
</linearGradient>
<linearGradient id="paint3_linear_2710_93803" x1="390.779" y1="406.008" x2="328.803" y2="406.008" gradientUnits="userSpaceOnUse">
<stop offset="0.08" stop-color="#797D86"/>
<stop offset="0.47" stop-color="#A8ABB0"/>
<stop offset="0.82" stop-color="#CBCCCF"/>
<stop offset="1" stop-color="#D8D9DB"/>
</linearGradient>
<linearGradient id="paint4_linear_2710_93803" x1="302.675" y1="-612.635" x2="302.675" y2="328.537" gradientUnits="userSpaceOnUse">
<stop stop-color="white"/>
<stop offset="0.14" stop-color="#C9CBCE"/>
<stop offset="0.31" stop-color="#92969C"/>
<stop offset="0.47" stop-color="#656A73"/>
<stop offset="0.62" stop-color="#424853"/>
<stop offset="0.77" stop-color="#29303C"/>
<stop offset="0.9" stop-color="#19212E"/>
<stop offset="1" stop-color="#141C29"/>
</linearGradient>
<linearGradient id="paint5_linear_2710_93803" x1="201.219" y1="196.185" x2="404.177" y2="196.185" gradientUnits="userSpaceOnUse">
<stop stop-color="#E340A1"/>
<stop offset="0.49" stop-color="#664AD6"/>
<stop offset="0.99" stop-color="#14B2F5"/>
</linearGradient>
<linearGradient id="paint6_linear_2710_93803" x1="302.706" y1="-485.503" x2="302.706" y2="307.762" gradientUnits="userSpaceOnUse">
<stop stop-color="white"/>
<stop offset="0.14" stop-color="#C9CBCE"/>
<stop offset="0.31" stop-color="#92969C"/>
<stop offset="0.47" stop-color="#656A73"/>
<stop offset="0.62" stop-color="#424853"/>
<stop offset="0.77" stop-color="#29303C"/>
<stop offset="0.9" stop-color="#19212E"/>
<stop offset="1" stop-color="#141C29"/>
</linearGradient>
<linearGradient id="paint7_linear_2710_93803" x1="233.728" y1="307.218" x2="288.205" y2="221.039" gradientUnits="userSpaceOnUse">
<stop offset="0.34" stop-color="#1C222B" stop-opacity="0.7"/>
<stop offset="0.92" stop-color="#152745" stop-opacity="0"/>
</linearGradient>
<linearGradient id="paint8_linear_2710_93803" x1="356.484" y1="232.451" x2="280.613" y2="156.487" gradientUnits="userSpaceOnUse">
<stop offset="0.08" stop-color="#797D86"/>
<stop offset="0.47" stop-color="#A8ABB0"/>
<stop offset="0.82" stop-color="#CBCCCF"/>
<stop offset="1" stop-color="#D8D9DB"/>
</linearGradient>
<linearGradient id="paint9_linear_2710_93803" x1="303.622" y1="179.201" x2="233.682" y2="129.273" gradientUnits="userSpaceOnUse">
<stop stop-color="#797D86"/>
<stop offset="0.09" stop-color="#95999F"/>
<stop offset="0.2" stop-color="#AEB0B5"/>
<stop offset="0.32" stop-color="#C1C2C6"/>
<stop offset="0.47" stop-color="#CECFD2"/>
<stop offset="0.65" stop-color="#D6D7D9"/>
<stop offset="1" stop-color="#D8D9DB"/>
</linearGradient>
<linearGradient id="paint10_linear_2710_93803" x1="200.939" y1="405.618" x2="262.9" y2="405.618" gradientUnits="userSpaceOnUse">
<stop offset="0.08" stop-color="#797D86"/>
<stop offset="0.47" stop-color="#A8ABB0"/>
<stop offset="0.82" stop-color="#CBCCCF"/>
<stop offset="1" stop-color="#D8D9DB"/>
</linearGradient>
<linearGradient id="paint11_linear_2710_93803" x1="185.972" y1="212.157" x2="213.061" y2="301.692" gradientUnits="userSpaceOnUse">
<stop offset="0.08" stop-color="#797D86"/>
<stop offset="0.47" stop-color="#A8ABB0"/>
<stop offset="0.82" stop-color="#CBCCCF"/>
<stop offset="1" stop-color="#D8D9DB"/>
</linearGradient>
<clipPath id="clip0_2710_93803">
<rect width="916" height="400" fill="white"/>
</clipPath>
</defs>
</svg>
