<svg id="Icons" xmlns="http://www.w3.org/2000/svg" viewBox="0 0 24 24"><defs><style>.cls-1{fill:none;stroke:#b5bcc8;stroke-linecap:round;stroke-linejoin:round;stroke-width:1.5px;}</style></defs><title>l</title><path class="cls-1" d="M7.26,2h9.48a13.34,13.34,0,0,1,1.75.09C21.26,2.4,22,3.7,22,7.26v6.32c0,3.56-.75,4.86-3.52,5.17a13.25,13.25,0,0,1-1.75.09H7.26a13.34,13.34,0,0,1-1.75-.09C2.74,18.44,2,17.14,2,13.58V7.26C2,3.7,2.74,2.4,5.51,2.09A13.34,13.34,0,0,1,7.26,2Z"/><path class="cls-1" d="M7,22H17"/><path class="cls-1" d="M2,9.17l6,0a2.18,2.18,0,0,1,1.87,1.27L11,13.3c.26.65.67.65.93,0l2.29-5.81c.22-.56.63-.58.91,0l1,2A2.21,2.21,0,0,0,18,10.48H22"/></svg>