<svg id="Icons" xmlns="http://www.w3.org/2000/svg" viewBox="0 0 24 24"><defs><style>.cls-1{fill:none;stroke:#b5bcc8;stroke-linecap:round;stroke-linejoin:round;stroke-width:1.5px;}</style></defs><title>l</title><path class="cls-1" d="M22,13V9c0-5-2-7-7-7H9C4,2,2,4,2,9v6c0,5,2,7,7,7h4"/><path class="cls-1" d="M7.33,14.49,9.71,11.4a1,1,0,0,1,1.41-.18L13,12.66a1,1,0,0,0,1.41-.17l2.31-3"/><path class="cls-1" d="M19.48,15.82l.28.57a1.25,1.25,0,0,0,.8.6l.38.06c1.14.19,1.41,1,.59,1.86l-.35.35a1.27,1.27,0,0,0-.29,1l.05.21c.31,1.38-.42,1.91-1.62,1.19l-.26-.15a1.23,1.23,0,0,0-1.12,0l-.26.15c-1.21.73-1.94.19-1.62-1.19l.05-.21a1.27,1.27,0,0,0-.29-1l-.35-.35c-.82-.83-.55-1.67.59-1.86l.38-.06a1.24,1.24,0,0,0,.8-.6l.28-.57C18.06,14.73,18.94,14.73,19.48,15.82Z"/></svg>