<svg width="916" height="400" viewBox="0 0 916 400" fill="none" xmlns="http://www.w3.org/2000/svg">
<g clip-path="url(#clip0_2690_90494)">
<path d="M311.564 51.2828L332.34 24.1273L363.036 23.4695L365.229 27.5149L344.026 59.3078L334.993 55.5694C334.993 55.5694 340.606 55.4927 341.669 51.9077C342.733 48.3228 341.746 46.2179 338.983 46.788C336.22 47.3581 328.491 49.0683 322.232 49.9563C315.972 50.8443 311.564 51.2828 311.564 51.2828Z" fill="#3D4C69"/>
<path d="M338.698 316.601C338.698 316.601 340.003 301.855 342.821 291.879C345.638 281.902 352.797 266.664 352.797 266.664C352.797 266.664 333.71 243.016 325.258 232.941C316.805 222.866 303.244 206.147 303.244 206.147C303.244 206.147 301.643 178.871 298.902 162.427C296.162 145.982 294.517 114.715 294.517 114.715C294.517 114.715 302.981 108.137 304.932 100.726C306.884 93.3153 317.507 81.541 317.507 81.541C317.507 81.541 332.471 86.7375 335.399 85.9262C336.404 85.6227 337.287 85.0081 337.922 84.1709C338.556 83.3338 338.909 82.317 338.929 81.2669C338.929 80.2364 338.008 78.559 335.508 77.364C333.009 76.1691 324.129 73.2419 321.519 73.0775C318.91 72.913 308.945 77.1448 308.298 77.5833C307.651 78.0218 304.932 79.5128 304.932 79.5128L315.073 68.0673L327.275 65.6774C327.275 65.6774 339.74 68.451 344.027 67.0916C348.313 65.7322 347.601 62.7064 346.515 61.1825C345.43 59.6586 336.374 56.3588 336.374 56.3588C336.374 56.3588 342.777 52.9931 341.582 49.3643C340.387 45.7355 338.984 47.3032 333.612 48.4982C328.24 49.6932 308.725 51.4254 300.591 51.9626C292.456 52.4997 289.485 57.8168 287.742 61.6649C285.999 65.5129 276.527 94.2581 275.814 98.5338C273.897 110.092 272.638 121.75 272.043 133.451C271.396 149.019 273.139 207.573 273.512 212.506C273.885 217.439 275.946 223.239 277.788 224.565C279.629 225.892 284.563 233.336 286.47 238.171C288.378 243.005 306.796 272.869 316.882 289.248C323.035 299.204 330.36 308.387 338.698 316.601V316.601Z" fill="#84E246"/>
<path d="M342.711 292.887C342.711 292.887 349.004 273.483 352.797 265.129L308.452 213.515L302.74 206.213C302.74 206.213 298.727 164.685 296.995 147.122C295.263 129.559 295.066 114.047 295.066 114.047C295.066 114.047 305.47 104.289 307.125 97.0208C308.78 89.7523 317.639 80.5762 317.639 80.5762C317.639 80.5762 327.615 85.1259 333.579 85.4548C339.543 85.7837 338.918 81.6177 338.918 81.6177C338.918 81.6177 335.443 81.9466 327.209 79.6663C318.976 77.3859 318.318 76.5308 316.148 77.8245C313.977 79.1181 305.952 87.4829 302.915 94.8501C299.878 102.217 292.073 106.91 288.279 113.29C284.486 119.671 291.426 204.284 291.568 212.506C291.711 220.728 342.711 292.887 342.711 292.887Z" fill="#63AA33"/>
<path d="M300.547 61.6978C300.547 61.6978 306.566 51.9406 309.822 51.2828C313.078 50.625 335.278 47.6321 338.205 47.3032C341.132 46.9743 341.867 50.8004 340.968 52.1051C340.069 53.4097 334.949 55.5146 334.949 55.5146C334.949 55.5146 328.207 52.6642 326.661 52.7519C325.115 52.8396 307.903 57.0604 300.547 61.6978Z" fill="#63AA33"/>
<path d="M345.101 60.9194C344.839 60.9178 344.581 60.8462 344.355 60.7121C344.129 60.5779 343.943 60.386 343.815 60.156C343.688 59.9261 343.624 59.6664 343.631 59.4036C343.637 59.1409 343.713 58.8845 343.852 58.661L363.519 27.6464L362.149 24.9605L333.053 25.5744L313.637 51.7543C313.522 51.909 313.378 52.0396 313.212 52.1385C313.046 52.2374 312.863 52.3027 312.672 52.3307C312.481 52.3587 312.287 52.3488 312.1 52.3017C311.912 52.2545 311.737 52.1709 311.582 52.0557C311.427 51.9406 311.296 51.796 311.198 51.6304C311.099 51.4648 311.033 51.2813 311.005 51.0904C310.977 50.8995 310.987 50.705 311.034 50.5179C311.082 50.3309 311.165 50.1549 311.28 50.0002L331.123 23.2502C331.254 23.0664 331.426 22.9166 331.627 22.8136C331.827 22.7105 332.049 22.6572 332.275 22.6582L362.971 22.0004C363.247 21.9936 363.519 22.0652 363.756 22.2069C363.993 22.3485 364.184 22.5545 364.309 22.8008L366.501 27.0654C366.617 27.2914 366.672 27.5439 366.661 27.7977C366.649 28.0515 366.572 28.2979 366.436 28.5125L346.34 60.2397C346.207 60.4473 346.024 60.6182 345.807 60.7369C345.591 60.8557 345.348 60.9184 345.101 60.9194V60.9194Z" fill="#2F344A"/>
<path d="M340.354 59.4284C340.093 59.4252 339.838 59.3527 339.615 59.2184C339.391 59.084 339.208 58.8926 339.083 58.6638C338.958 58.435 338.896 58.1771 338.903 57.9165C338.911 57.6559 338.988 57.4021 339.126 57.181L361.655 23.02C361.76 22.8573 361.895 22.7168 362.054 22.6064C362.212 22.4961 362.391 22.4181 362.58 22.3768C362.769 22.3356 362.964 22.332 363.154 22.3661C363.345 22.4003 363.526 22.4716 363.689 22.576C363.852 22.6804 363.992 22.8158 364.102 22.9745C364.213 23.1332 364.291 23.312 364.332 23.5009C364.373 23.6897 364.377 23.8848 364.343 24.0751C364.309 24.2653 364.237 24.447 364.133 24.6097L341.582 58.7706C341.447 58.9726 341.264 59.1383 341.05 59.253C340.836 59.3677 340.597 59.428 340.354 59.4284V59.4284Z" fill="#2F344A"/>
<path d="M333.052 28.7209L325.181 39.4099H331.78L339.586 28.5126L333.052 28.7209Z" fill="#8A93B0"/>
<path d="M331.78 40.8789H325.202C324.93 40.8825 324.661 40.8101 324.427 40.6697C324.193 40.5293 324.003 40.3265 323.878 40.0841C323.752 39.8416 323.697 39.5691 323.718 39.297C323.739 39.025 323.836 38.7642 323.996 38.5438L331.868 27.8438C331.997 27.6714 332.161 27.5291 332.351 27.4268C332.54 27.3246 332.749 27.2648 332.964 27.2518L339.487 27.0435C339.762 27.033 340.034 27.0998 340.273 27.2363C340.511 27.3728 340.707 27.5736 340.837 27.8157C340.967 28.0579 341.027 28.3317 341.009 28.606C340.992 28.8804 340.897 29.1443 340.737 29.3677L332.931 40.265C332.801 40.4503 332.629 40.6024 332.429 40.709C332.229 40.8157 332.007 40.8738 331.78 40.8789ZM328.097 37.9408H331.024L336.659 30.0803L333.819 30.168L328.097 37.9408Z" fill="#2F344A"/>
<path d="M333.601 33.4788C334.321 33.4788 334.905 32.8947 334.905 32.1742C334.905 31.4537 334.321 30.8696 333.601 30.8696C332.88 30.8696 332.296 31.4537 332.296 32.1742C332.296 32.8947 332.88 33.4788 333.601 33.4788Z" fill="#EAE7E2"/>
<path d="M331.167 37.1405C331.887 37.1405 332.472 36.5564 332.472 35.8359C332.472 35.1153 331.887 34.5312 331.167 34.5312C330.446 34.5312 329.862 35.1153 329.862 35.8359C329.862 36.5564 330.446 37.1405 331.167 37.1405Z" fill="#EAE7E2"/>
<path d="M339.378 67.3109L332.866 76.6624C329.962 74.9747 326.711 73.9735 323.361 73.7352C317.748 73.3296 304.077 79.2168 304.077 79.2168C304.077 79.2168 314.492 67.9906 315.95 67.6617C317.408 67.3328 329.456 65.798 329.697 65.7103C329.939 65.6226 336.045 67.3876 339.378 67.3109Z" fill="#3D4C69"/>
<path d="M329.457 76.4212C329.191 76.4218 328.93 76.3502 328.701 76.2142C328.473 76.0781 328.286 75.8827 328.16 75.6486C328.034 75.4146 327.974 75.1508 327.986 74.8853C327.998 74.6197 328.082 74.3625 328.229 74.1409L333.436 66.2584C333.654 65.9426 333.987 65.7246 334.363 65.6511C334.74 65.5775 335.13 65.6541 335.451 65.8646C335.772 66.0752 335.998 66.4028 336.08 66.7776C336.162 67.1523 336.095 67.5444 335.892 67.87L330.684 75.8182C330.543 76.0101 330.358 76.1651 330.144 76.2701C329.931 76.3751 329.695 76.4269 329.457 76.4212V76.4212Z" fill="#2F344A"/>
<path d="M334.226 78.1643C333.936 78.162 333.654 78.0743 333.414 77.9122C333.253 77.806 333.114 77.6687 333.005 77.5083C332.897 77.3478 332.822 77.1674 332.784 76.9776C332.747 76.7878 332.747 76.5924 332.786 76.4028C332.824 76.2131 332.9 76.0331 333.009 75.8731L338.699 67.3328C338.935 67.0663 339.261 66.895 339.614 66.8506C339.968 66.8063 340.326 66.8921 340.621 67.092C340.916 67.2918 341.128 67.5921 341.218 67.937C341.309 68.2818 341.27 68.6477 341.111 68.9663L335.421 77.5066C335.289 77.704 335.112 77.8668 334.904 77.9813C334.696 78.0958 334.463 78.1586 334.226 78.1643V78.1643Z" fill="#2F344A"/>
<path d="M459.731 375.56C463.656 361.626 468.25 347.681 476.055 335.501C481.767 326.61 489.398 318.662 498.508 313.454C496.924 319.228 494.634 324.785 491.689 329.997C491.689 329.997 467.504 335.084 462.922 410.916L442.092 419.917C442.092 419.686 442.147 419.445 442.169 419.215C445.26 392.454 452.43 401.499 459.731 375.56Z" fill="#63AA33"/>
<path d="M346.965 278.197C357.029 254.714 357.029 264.592 368.957 258.123C380.885 251.655 384.612 218.93 415.539 205.051C446.466 191.172 468.896 221.496 473.742 251.195C478.588 280.894 483.433 266.642 492.62 279.699C499.286 289.16 502.027 299.991 498.508 313.465C489.397 318.673 481.767 326.621 476.055 335.512C468.282 347.703 463.656 361.626 459.731 375.56C452.43 401.499 445.26 392.454 442.135 419.215C442.135 419.445 442.135 419.686 442.059 419.917L420.933 421.309C428.914 383.508 442.64 380.954 446.148 342.473C447.694 325.437 447.08 307.699 440.14 292.043C437.542 286.189 433.957 280.576 428.749 276.859C422.226 272.211 413.905 270.983 405.902 270.599C396.704 270.161 387.013 270.775 379.12 275.533C369.647 281.234 364.363 291.879 360.713 302.316C354.562 319.857 351.624 338.428 349.157 356.901C344.772 389.604 341.801 388.332 340.255 421.298H337.701C329.479 362.657 336.901 301.658 346.965 278.197Z" fill="#84E246"/>
<path d="M360.69 302.327C364.341 291.89 369.625 281.245 379.097 275.544C386.99 270.786 396.638 270.172 405.88 270.61C413.883 270.994 422.204 272.222 428.727 276.87C433.934 280.587 437.497 286.2 440.118 292.054C447.057 307.698 447.671 325.437 446.125 342.484C442.639 380.965 428.913 383.519 420.91 421.32C420.91 421.32 418.718 430.09 382.024 430.09C345.331 430.09 340.211 421.32 340.211 421.32C341.757 388.354 344.739 389.626 349.113 356.923C351.602 338.439 354.54 319.911 360.69 302.327Z" fill="#FEEC30"/>
<path d="M337.679 422.778C337.324 422.776 336.981 422.647 336.713 422.413C336.445 422.18 336.271 421.858 336.221 421.506C328.546 366.417 334.576 311.777 343.993 282.067C344.043 281.873 344.131 281.691 344.254 281.533C344.376 281.375 344.529 281.243 344.704 281.146C344.879 281.049 345.072 280.988 345.271 280.968C345.47 280.949 345.671 280.97 345.862 281.03C346.052 281.091 346.229 281.19 346.38 281.321C346.531 281.452 346.653 281.612 346.74 281.793C346.827 281.973 346.876 282.169 346.885 282.369C346.893 282.569 346.86 282.768 346.789 282.955C337.481 312.347 331.496 366.472 339.115 421.09C339.165 421.476 339.063 421.866 338.829 422.177C338.596 422.489 338.25 422.696 337.865 422.756L337.679 422.778Z" fill="#175807"/>
<path d="M462.921 412.385H462.801C462.412 412.36 462.049 412.182 461.79 411.891C461.532 411.599 461.399 411.217 461.42 410.828C464.708 356.506 477.579 342.408 485.275 333.977L486.152 333.023C491.023 327.734 494.619 321.4 496.666 314.507C500.328 301.888 498.606 290.782 491.382 280.521C488.257 276.136 485.812 275.105 483.444 274.173C478.336 272.145 475.299 270.084 472.251 251.425C468.962 231.417 458.317 213.887 445.063 206.761C436.084 201.927 426.338 201.795 416.109 206.389C397.231 214.863 388.8 230.376 382.036 242.852C377.815 250.625 374.482 256.775 369.626 259.406C366.911 260.927 363.937 261.927 360.855 262.355C358.06 262.816 356.656 263.057 354.201 266.85C354.081 267.038 353.92 267.196 353.73 267.312C353.54 267.428 353.326 267.498 353.104 267.519C352.875 267.534 352.646 267.495 352.435 267.406C352.223 267.316 352.036 267.179 351.887 267.004C349.958 264.712 304.461 210.949 301.841 207.025C301.696 206.806 301.612 206.552 301.6 206.29C301.6 206.005 299.944 177.939 296.951 158.283C293.958 138.626 293.465 114.518 293.465 114.277C293.461 114.042 293.514 113.81 293.619 113.6C293.724 113.39 293.878 113.208 294.068 113.071C298.883 109.088 302.594 103.935 304.845 98.1062C307.503 91.4708 311.39 85.3969 316.301 80.2035C316.496 80.0064 316.742 79.8687 317.012 79.8066C317.282 79.7444 317.564 79.7604 317.825 79.8527C325.115 82.44 333.732 84.7642 335.541 84.2379C335.972 84.0453 336.355 83.7624 336.666 83.4085C336.978 83.0546 337.209 82.638 337.346 82.1868C337.482 81.7356 337.519 81.2604 337.456 80.7934C337.392 80.3263 337.229 79.8784 336.978 79.4799C336.144 78.7564 331.496 77.5285 328.393 76.7173C325.938 76.0704 323.624 75.4675 321.947 74.8755C318.735 73.7791 307.695 79.6554 303.99 81.5958L302.29 82.4948C302.118 82.5895 301.929 82.6488 301.734 82.6692C301.539 82.6897 301.342 82.6708 301.154 82.6137C300.966 82.5567 300.792 82.4626 300.641 82.337C300.49 82.2115 300.366 82.0569 300.276 81.8826C300.186 81.7083 300.132 81.5177 300.117 81.3221C300.101 81.1265 300.126 80.9298 300.188 80.7437C300.25 80.5575 300.348 80.3857 300.478 80.2383C300.607 80.0909 300.765 79.971 300.942 79.8856L302.608 79.0085C310.282 74.9084 318.834 70.6766 322.923 72.1018C324.491 72.65 326.749 73.1981 329.139 73.8778C334.379 75.2482 337.657 76.1691 338.907 77.2654C339.549 77.9362 340.013 78.7573 340.256 79.6535C340.5 80.5498 340.514 81.4927 340.299 82.3961C340.116 83.4217 339.662 84.3795 338.983 85.17C338.304 85.9605 337.426 86.5547 336.44 86.891C333.151 87.9873 321.706 84.227 317.803 82.8566C313.462 87.6372 310.003 93.1491 307.586 99.1368C305.231 105.263 301.379 110.702 296.381 114.957C296.48 119.101 297.127 140.172 299.813 157.844C302.63 176.317 304.253 202.102 304.472 205.709C307.827 210.27 336.66 244.507 352.863 263.66C355.494 260.272 357.687 259.91 360.373 259.461C363.142 259.087 365.816 258.194 368.255 256.83C372.344 254.637 375.655 248.52 379.481 241.481C386.059 229.302 395.148 212.616 414.947 203.736C425.91 198.824 436.796 198.989 446.499 204.207C460.521 211.75 471.78 230.113 475.189 250.986C478.116 268.911 480.824 269.986 484.563 271.466C487.073 272.463 490.187 273.658 493.815 278.866C501.588 289.884 503.452 301.822 499.527 315.351C497.354 322.671 493.537 329.398 488.367 335.019L487.479 335.983C480.046 344.129 467.614 357.745 464.391 411.026C464.36 411.395 464.193 411.74 463.921 411.991C463.649 412.243 463.292 412.384 462.921 412.385V412.385Z" fill="#175807"/>
<path d="M625.197 242.172C624.101 243.63 623.498 246.47 625.317 246.557C626.085 242.819 631.819 242.041 634.483 244.77C634.548 244.836 634.603 244.913 634.658 244.979C633.562 242.139 631.281 241.81 629.505 242.929C629.505 242.929 644.788 221.331 643.878 213.405C643.766 212.227 643.539 211.063 643.198 209.93L643.067 210.291C638.558 221.667 632.548 232.389 625.197 242.172V242.172Z" fill="#63AA33"/>
<path d="M634.658 245.034C634.658 244.968 634.549 244.891 634.483 244.825C631.819 242.095 626.085 242.874 625.318 246.612C623.498 246.47 624.09 243.63 625.197 242.227C632.542 232.471 638.551 221.779 643.067 210.434L643.198 210.072C641.894 206.147 639.46 207.627 636.785 211.859C633.496 217.034 626.03 227.208 626.03 227.208L626.864 225.081C624.543 228.785 623.096 232.969 622.632 237.316L617.041 232.81C623.826 222.302 628.348 210.496 630.317 198.144C628.486 197.3 626.063 198.144 623.871 202.014C619.759 209.349 607.875 230.354 607.875 230.354C607.875 230.354 600.607 221.825 595.301 229.981C589.995 238.138 595.224 257.652 595.224 257.652C595.224 257.652 580.555 274.097 575.962 279.666C571.368 285.235 561.217 300.057 559.682 306.591L558.3 308.236C558.3 308.236 516.334 286.068 509.756 284.643C503.682 283.339 494.769 278.504 484.661 274.952C482.173 283.47 483.225 293.359 485.264 302.195C491.173 301.197 500.613 301.603 512.508 304.114C520.62 305.824 527.998 310.198 534.817 314.934C541.867 319.824 549.475 326.204 557.84 324.472C563.552 323.288 567.772 318.585 571.555 314.134L582.299 301.515C588.1 294.997 593.486 288.121 598.425 280.927C600.464 277.835 602.394 274.458 602.515 270.753C602.646 266.719 600.859 261.895 603.786 259.11C604.481 260.607 605.49 261.936 606.744 263.009C607.998 264.081 609.468 264.872 611.055 265.326C608.588 257.389 601.451 250.701 602.021 242.413C602.098 241.317 602.525 240.089 603.567 239.98C603.946 239.971 604.322 240.054 604.663 240.221C607.805 241.587 610.492 243.823 612.407 246.664C614.322 249.505 615.386 252.834 615.473 256.26C615.473 258.332 615.188 260.557 616.284 262.311C618.685 260.689 619.167 257.444 619.924 254.637C620.68 251.831 622.577 248.695 625.482 248.849C625.109 251.326 624.759 253.914 625.548 256.293C626.337 258.672 628.661 260.678 631.139 260.338C631.302 260.308 631.463 260.268 631.621 260.217C633.233 258.393 634.297 256.151 634.691 253.749C635.513 249.649 635.338 246.842 634.658 245.034Z" fill="#83E143"/>
<path d="M622.631 237.261C623.095 232.914 624.543 228.73 626.863 225.026C628.814 219.917 633.561 207.079 633.265 203.1C633.251 202.075 632.971 201.071 632.455 200.185C631.938 199.3 631.201 198.563 630.316 198.046C628.347 210.398 623.825 222.204 617.04 232.711L622.631 237.261Z" fill="#63AA33"/>
<path d="M625.558 256.293C624.769 253.914 625.12 251.326 625.493 248.849C622.587 248.695 620.68 251.831 619.934 254.637C619.189 257.444 618.695 260.689 616.295 262.311C615.198 260.557 615.505 258.332 615.483 256.26C615.388 252.842 614.32 249.522 612.406 246.689C610.491 243.857 607.809 241.628 604.674 240.265C604.333 240.097 603.957 240.015 603.577 240.023C602.536 240.133 602.108 241.405 602.032 242.457C601.461 250.745 608.609 257.433 611.065 265.37C609.479 264.915 608.009 264.125 606.755 263.053C605.501 261.98 604.492 260.651 603.797 259.154C600.869 261.939 602.7 266.762 602.525 270.797C602.404 274.502 600.475 277.879 598.436 280.971C593.492 288.15 588.102 295.012 582.298 301.515L571.598 314.079C567.816 318.53 563.595 323.233 557.883 324.417C549.485 326.149 541.877 319.769 534.861 314.879C528.042 310.143 520.609 305.769 512.551 304.059C500.612 301.548 491.217 301.143 485.308 302.14C485.45 302.798 485.735 305.966 485.9 306.613C492.061 310.746 513.242 321.961 534.992 329.537C560.799 338.505 562.4 343.69 584.392 310.68C606.384 277.671 609.07 273.154 609.07 273.154C609.07 273.154 618.871 271.915 620.614 269.295C621.725 267.554 622.591 265.669 623.19 263.693C624.761 263.724 626.32 263.431 627.773 262.833C629.225 262.235 630.539 261.345 631.632 260.217C631.474 260.268 631.313 260.308 631.15 260.338C628.672 260.733 626.348 258.672 625.558 256.293Z" fill="#63AA33"/>
<path d="M559.505 310.22C559.289 310.22 559.075 310.171 558.88 310.077C553.903 307.742 548.86 305.33 543.992 302.995C530.343 296.417 516.245 289.686 501.982 283.974C500.85 283.463 499.751 282.881 498.693 282.231C492.444 278.613 483.005 273.143 474.629 284.895C474.523 285.066 474.383 285.212 474.218 285.327C474.054 285.441 473.867 285.52 473.671 285.56C473.474 285.599 473.271 285.598 473.075 285.557C472.879 285.515 472.693 285.433 472.53 285.317C472.366 285.201 472.228 285.052 472.125 284.881C472.021 284.709 471.953 284.518 471.926 284.319C471.898 284.121 471.912 283.919 471.966 283.725C472.02 283.532 472.113 283.352 472.239 283.196C476.525 277.177 481.722 274.426 487.686 274.886C492.597 275.303 496.972 277.835 500.173 279.688C501.11 280.263 502.08 280.783 503.078 281.245C517.429 286.989 531.582 293.775 545.264 300.342C550.132 302.677 555.131 305.089 560.13 307.413C560.482 307.582 560.754 307.882 560.887 308.249C561.02 308.616 561.004 309.021 560.843 309.376C560.723 309.629 560.534 309.844 560.297 309.993C560.06 310.143 559.785 310.222 559.505 310.22Z" fill="#175807"/>
<path d="M559.045 310.845C558.958 310.855 558.87 310.855 558.782 310.845C558.591 310.812 558.409 310.741 558.246 310.637C558.083 310.533 557.942 310.397 557.831 310.238C557.721 310.079 557.644 309.899 557.604 309.71C557.564 309.52 557.562 309.325 557.598 309.135C560.142 295.332 570.162 283.92 578.209 274.82L592.998 258.025C593.123 257.871 593.278 257.744 593.454 257.652C593.629 257.559 593.822 257.504 594.02 257.488C594.217 257.472 594.416 257.496 594.604 257.559C594.793 257.622 594.966 257.723 595.114 257.855C595.262 257.987 595.382 258.147 595.467 258.327C595.551 258.506 595.598 258.701 595.606 258.899C595.613 259.097 595.58 259.295 595.508 259.48C595.437 259.665 595.329 259.834 595.191 259.976L580.401 276.761C572.596 285.63 562.86 296.659 560.481 309.65C560.416 309.984 560.237 310.285 559.976 310.503C559.714 310.72 559.386 310.841 559.045 310.845Z" fill="#175807"/>
<path d="M557.139 337.047C554.328 337.006 551.532 336.638 548.807 335.95C542.724 334.317 536.788 332.182 531.057 329.57C529.051 328.726 526.99 327.849 524.951 327.037C522.473 326.051 519.963 325.086 517.54 324.154C507.388 320.24 497.806 316.546 488.455 310.681C488.282 310.583 488.132 310.451 488.012 310.293C487.891 310.136 487.804 309.955 487.756 309.763C487.707 309.571 487.698 309.371 487.729 309.175C487.759 308.979 487.829 308.792 487.935 308.624C488.04 308.456 488.178 308.311 488.34 308.197C488.503 308.084 488.687 308.005 488.881 307.965C489.075 307.924 489.275 307.924 489.469 307.963C489.664 308.002 489.848 308.08 490.012 308.192C499.122 313.904 508.583 317.543 518.603 321.348C521.026 322.29 523.537 323.255 526.047 324.253C528.108 325.075 530.191 325.952 532.198 326.807C537.782 329.348 543.564 331.43 549.486 333.034C552.699 333.802 556.875 334.58 560.822 333.736C565.131 332.815 568.058 329.515 570.689 326.204C584.302 309.157 596.709 291.182 607.821 272.408C608.019 272.073 608.342 271.829 608.719 271.731C609.096 271.634 609.497 271.69 609.833 271.888C610.168 272.085 610.412 272.408 610.51 272.786C610.607 273.163 610.551 273.564 610.353 273.899C599.174 292.792 586.69 310.881 572.991 328.035C570.163 331.598 566.698 335.49 561.447 336.608C560.03 336.906 558.586 337.052 557.139 337.047V337.047Z" fill="#175807"/>
<path d="M595.224 259.066C594.914 259.066 594.612 258.969 594.36 258.788C594.108 258.607 593.92 258.352 593.821 258.058C591.694 251.623 590.871 244.829 591.398 238.072C591.606 235.353 592.111 231.889 594.106 229.082C596.298 225.947 600.114 224.456 603.304 225.475C604.653 225.966 605.896 226.71 606.966 227.668C608.873 229.181 610.748 230.781 612.557 232.404C614.405 233.933 615.99 235.755 617.249 237.798C618.427 239.936 618.979 242.363 618.841 244.8C618.704 247.237 617.882 249.587 616.471 251.578C616.002 252.311 615.332 252.894 614.541 253.256C613.696 253.569 612.777 253.627 611.899 253.42C609.415 252.891 607.137 251.657 605.336 249.866C603.536 248.076 602.29 245.804 601.747 243.323C601.674 242.949 601.746 242.561 601.95 242.239C602.154 241.917 602.474 241.685 602.843 241.591C603.033 241.553 603.228 241.552 603.417 241.589C603.607 241.626 603.787 241.7 603.948 241.807C604.109 241.914 604.247 242.052 604.355 242.212C604.463 242.373 604.538 242.553 604.576 242.742C604.997 244.656 605.96 246.409 607.35 247.791C608.74 249.173 610.498 250.126 612.414 250.537C612.739 250.61 613.076 250.61 613.401 250.537C613.667 250.366 613.892 250.138 614.059 249.868C615.128 248.327 615.75 246.52 615.856 244.647C615.963 242.774 615.549 240.908 614.662 239.256C613.549 237.496 612.165 235.924 610.561 234.597C608.796 233.007 606.955 231.45 605.08 229.97C604.279 229.254 603.359 228.682 602.361 228.282C600.168 227.58 597.713 229.016 596.452 230.792C594.873 232.985 594.457 235.978 594.259 238.313C593.76 244.681 594.539 251.085 596.551 257.148C596.672 257.517 596.642 257.919 596.467 258.267C596.293 258.614 595.988 258.878 595.619 259C595.491 259.042 595.358 259.064 595.224 259.066Z" fill="#175807"/>
<path d="M624.616 265.26C623.464 265.286 622.346 264.87 621.491 264.098C620.67 263.283 620.086 262.26 619.803 261.138C617.698 254.56 620.022 250.274 622.653 248.564C622.981 248.389 623.362 248.344 623.721 248.437C624.08 248.53 624.392 248.755 624.593 249.066C624.794 249.378 624.871 249.754 624.808 250.12C624.746 250.486 624.548 250.815 624.254 251.041C621.623 252.741 621.535 256.885 622.598 260.239C622.748 260.86 623.045 261.435 623.465 261.917C624.407 262.772 626.282 262.147 627.63 261.204C629.865 259.594 631.621 257.408 632.712 254.879C633.803 252.35 634.187 249.573 633.825 246.842C633.771 246.176 633.556 245.533 633.2 244.968C632.775 244.571 632.243 244.308 631.67 244.21C631.097 244.113 630.509 244.186 629.977 244.42C628.551 245.083 627.275 246.031 626.227 247.204C626.089 247.339 625.926 247.445 625.746 247.516C625.567 247.588 625.376 247.623 625.183 247.621C624.99 247.618 624.799 247.578 624.622 247.502C624.445 247.425 624.284 247.315 624.15 247.177C624.015 247.039 623.909 246.875 623.838 246.696C623.766 246.517 623.731 246.325 623.733 246.132C623.736 245.939 623.776 245.749 623.852 245.572C623.929 245.394 624.039 245.234 624.177 245.099C625.512 243.625 627.145 242.452 628.968 241.657C630.083 241.189 631.316 241.08 632.496 241.348C633.675 241.615 634.742 242.245 635.546 243.148C636.23 244.121 636.653 245.253 636.774 246.437C637.215 249.722 636.753 253.065 635.438 256.107C634.123 259.149 632.003 261.775 629.308 263.704C627.931 264.672 626.299 265.214 624.616 265.26Z" fill="#175807"/>
<path d="M613.05 274.305H612.896C610.009 274.176 607.265 273.015 605.163 271.033C603.06 269.051 601.739 266.38 601.44 263.506C601.411 263.117 601.537 262.731 601.792 262.435C602.047 262.139 602.409 261.957 602.799 261.928C603.189 261.899 603.574 262.025 603.87 262.28C604.166 262.535 604.349 262.897 604.378 263.287C604.619 265.428 605.611 267.414 607.179 268.891C608.747 270.369 610.789 271.242 612.94 271.356H612.995C615.129 271.273 617.166 270.446 618.754 269.019C620.342 267.591 621.38 265.652 621.688 263.539C621.706 263.346 621.762 263.159 621.853 262.988C621.944 262.817 622.068 262.666 622.218 262.543C622.368 262.421 622.541 262.33 622.727 262.275C622.913 262.22 623.108 262.202 623.3 262.224C623.687 262.265 624.042 262.458 624.289 262.759C624.535 263.061 624.652 263.448 624.616 263.835C624.24 266.668 622.872 269.275 620.754 271.192C618.635 273.11 615.905 274.213 613.05 274.305V274.305Z" fill="#175807"/>
<path d="M614.431 262.278C614.058 262.279 613.699 262.138 613.426 261.884C613.153 261.629 612.987 261.28 612.962 260.908C612.802 258.387 611.665 256.027 609.794 254.33C609.65 254.201 609.533 254.045 609.449 253.871C609.365 253.697 609.317 253.508 609.306 253.315C609.295 253.122 609.323 252.929 609.387 252.747C609.451 252.565 609.55 252.397 609.679 252.253C609.808 252.109 609.963 251.991 610.138 251.908C610.312 251.824 610.501 251.776 610.694 251.765C610.887 251.754 611.08 251.782 611.262 251.845C611.444 251.909 611.612 252.009 611.756 252.138C614.183 254.333 615.668 257.381 615.9 260.645C615.914 260.838 615.889 261.032 615.827 261.215C615.765 261.398 615.668 261.568 615.541 261.713C615.413 261.859 615.259 261.978 615.085 262.064C614.912 262.15 614.723 262.2 614.53 262.213L614.431 262.278Z" fill="#175807"/>
<path d="M624.166 242.063C623.957 242.06 623.751 242.013 623.561 241.924C623.372 241.835 623.204 241.707 623.069 241.547L615.834 233.15C615.677 233.011 615.551 232.841 615.466 232.651C615.38 232.46 615.336 232.254 615.336 232.045C615.336 231.836 615.381 231.629 615.468 231.439C615.554 231.249 615.68 231.079 615.838 230.942C615.995 230.804 616.18 230.702 616.38 230.641C616.58 230.581 616.79 230.564 616.997 230.591C617.205 230.618 617.403 230.69 617.581 230.8C617.758 230.91 617.91 231.057 618.026 231.231L625.262 239.629C625.388 239.775 625.484 239.944 625.544 240.128C625.605 240.311 625.629 240.504 625.614 240.697C625.6 240.889 625.548 241.077 625.461 241.249C625.374 241.421 625.255 241.575 625.108 241.701C624.848 241.931 624.513 242.06 624.166 242.063V242.063Z" fill="#175807"/>
<path d="M625.799 247.511C625.596 247.514 625.394 247.475 625.205 247.398C625.017 247.321 624.846 247.206 624.703 247.062C624.566 246.925 624.457 246.763 624.382 246.584C624.308 246.405 624.27 246.214 624.27 246.02C624.27 245.827 624.308 245.635 624.382 245.456C624.457 245.277 624.566 245.115 624.703 244.979C633.417 236.629 639.473 225.894 642.112 214.118C642.49 212.894 642.531 211.591 642.233 210.346C642.02 209.855 641.628 209.463 641.137 209.25C641.028 209.192 640.909 209.156 640.787 209.145C640.665 209.134 640.541 209.147 640.424 209.184C639.953 209.371 639.503 210.083 639.174 210.609L623.015 236.164C622.821 236.503 622.501 236.751 622.125 236.854C621.749 236.957 621.347 236.906 621.008 236.712C620.67 236.519 620.421 236.199 620.319 235.823C620.216 235.447 620.267 235.045 620.46 234.706C624.999 225.936 629.691 216.913 631.423 207.123C631.84 205.461 631.84 203.721 631.423 202.058C631.249 201.416 630.885 200.842 630.378 200.411C629.871 199.981 629.245 199.714 628.584 199.646C626.95 199.701 625.668 201.598 624.626 203.44L609.705 230.025C609.615 230.201 609.489 230.356 609.337 230.483C609.185 230.609 609.009 230.703 608.819 230.76C608.63 230.816 608.431 230.834 608.234 230.811C608.038 230.789 607.848 230.727 607.676 230.63C607.503 230.532 607.353 230.401 607.233 230.244C607.113 230.087 607.025 229.907 606.976 229.716C606.927 229.524 606.918 229.324 606.948 229.129C606.978 228.933 607.047 228.746 607.151 228.578L622.214 201.959C623.661 199.405 625.503 196.774 628.639 196.675C629.934 196.708 631.185 197.149 632.213 197.937C633.241 198.725 633.993 199.819 634.361 201.061C634.969 203.206 635.01 205.472 634.482 207.638C633.948 210.615 633.189 213.547 632.213 216.409L636.839 209.075C637.431 207.948 638.368 207.041 639.514 206.487C639.994 206.309 640.505 206.228 641.017 206.249C641.529 206.269 642.032 206.391 642.496 206.608C643.694 207.157 644.63 208.152 645.105 209.382C645.638 211.17 645.638 213.075 645.105 214.863C642.341 227.21 635.991 238.465 626.852 247.215C626.553 247.448 626.175 247.554 625.799 247.511V247.511Z" fill="#175807"/>
<path d="M387.627 244.935C395.224 247.092 403.03 248.429 410.912 248.925C439.932 251.293 471.067 247.522 494.002 229.587C502.575 222.888 510.063 213.602 510.907 202.76C511.521 194.834 508.55 186.995 508.857 179.058C509.394 165.069 519.82 153.174 521.596 139.273C523.723 122.17 512.431 106.603 501.764 93.0741L495.975 85.7508C506.302 87.2198 535.124 88.4039 540.244 97.8979C547.732 111.799 539.29 121.951 536.604 131.73C533.918 141.509 525.17 159.499 524.051 165.409C522.933 171.318 521.486 196.675 520.225 203.911C518.965 211.147 516.794 224.313 504.439 234.608C492.083 244.902 486.437 251.568 463.195 259.823C439.954 268.078 420.132 264.372 399.895 256.534C383.625 250.263 367.082 236.998 358.772 226.484C368.332 234.608 375.611 241.262 387.627 244.935Z" fill="#52A32D"/>
<path d="M521.596 139.273C519.864 153.174 509.394 165.069 508.857 179.058C508.55 186.995 511.521 194.834 510.907 202.76C510.063 213.602 502.575 222.888 494.002 229.587C471.067 247.522 439.932 251.293 410.912 248.925C403.03 248.429 395.224 247.092 387.627 244.935C375.633 241.262 368.321 234.586 358.772 226.506C358.772 226.506 357.04 224.423 355.856 222.91C353.849 220.367 354.387 221.726 353.499 219.687C348.938 209.239 343.336 200.83 357.632 199.197C356.581 200.146 355.451 201.004 354.255 201.762C355.451 201.004 356.581 200.146 357.632 199.197C362.083 195.217 366.402 189.155 367.838 184.221C367.977 183.724 368.109 183.231 368.233 182.741C368.233 182.741 368.233 182.741 368.233 182.686C370.13 178.027 371.029 173.094 369.329 168.895C369.319 168.852 369.319 168.807 369.329 168.763C369.242 167.503 371.873 166.439 371.719 165.189L371.182 164.575C369.987 161.911 367.641 161.977 363.804 160.081H363.694C362.784 159.861 352.556 158.217 357.281 151.551C364.33 141.586 405.738 89.7633 425.055 84.6765C444.372 79.5896 486.24 81.552 494.922 83.1526C495.306 83.2293 495.273 85.7618 495.745 85.8276C495.87 85.8474 495.984 85.9139 496.063 86.014L501.731 93.1838C512.431 106.603 523.723 122.17 521.596 139.273Z" fill="#83E143"/>
<path d="M401.922 93.3592C401.922 93.3592 390.444 95.0475 384.852 98.5338C379.261 102.02 363.036 116.798 366.116 140.566C369.285 165.178 405.452 114.09 406.504 113.575C407.557 113.06 401.922 93.3592 401.922 93.3592Z" fill="#53A22F"/>
<path d="M411.274 80.0171L411.362 78.7454C411.373 79.1711 411.343 79.5969 411.274 80.0171V80.0171Z" fill="#83E145"/>
<path d="M411.274 81.0696H411.142C410.885 81.0252 410.652 80.8904 410.485 80.6894C410.318 80.4884 410.229 80.2345 410.233 79.9733L410.309 78.6906C410.316 78.5542 410.35 78.4206 410.409 78.2975C410.468 78.1744 410.551 78.0642 410.653 77.9734C410.755 77.8826 410.874 77.813 411.004 77.7687C411.133 77.7243 411.269 77.706 411.406 77.7149C411.674 77.7306 411.927 77.8442 412.117 78.0341C412.307 78.2241 412.42 78.4772 412.436 78.7454C412.459 79.2324 412.437 79.7205 412.37 80.2035C412.317 80.4528 412.178 80.6757 411.978 80.8338C411.778 80.9919 411.529 81.0753 411.274 81.0696Z" fill="#175807"/>
<path d="M418.235 93.6223C416.602 102.009 413.576 118.519 408.61 121.523C404.97 123.716 405.036 121.348 404.411 114.639C407.218 109.431 406.604 104.136 404.257 98.3364C404.06 93.2276 397.526 93.6661 394.27 92.6795C392.911 91.9997 393.854 90.2457 393.854 90.2457C393.854 90.2457 396.671 72.1895 407.59 72.628C415.813 72.9678 416.931 77.7149 416.986 80.05L416.898 81.2998C416.898 81.2998 419.869 85.2465 418.235 93.6223Z" fill="#05FADB"/>
<path d="M416.756 176.35C440.611 181.612 456.047 193.003 456.047 193.003C456.047 193.003 484.299 208.472 491.305 207.507C491.305 207.507 442.639 223.184 416.887 224.182C399.982 224.84 388.284 224.039 374.438 215.751C367.126 211.366 358.706 202.837 355.362 199.745C356.152 199.438 356.371 200.589 357.073 199.833C365.624 190.459 367.213 180.187 369.428 169.893C369.987 167.327 371.423 165.222 371.27 163.907L373.331 165.343C373.331 165.343 396.89 171.965 416.756 176.35Z" fill="white"/>
<path d="M438.561 136.236C435.634 140.051 414.354 138.593 424.462 124.9C434.57 111.207 466.012 109.102 475.353 111.821C484.693 114.54 501.467 121.501 508.988 137.234C515.829 151.486 515.971 155.871 508.845 161.681C501.719 167.492 495.415 166.483 492.061 152.582C488.706 138.681 482.347 125.656 465.256 125.602C448.164 125.547 441.499 132.421 438.561 136.236Z" fill="#05FADB"/>
<path d="M539.98 101.549C538.884 100.799 537.729 100.139 536.527 99.5752C535.255 99.1806 533.523 99.7178 533.348 101.033C533.216 101.943 533.885 102.809 533.808 103.719C533.676 105.265 531.495 105.824 530.124 105.09C528.754 104.355 527.932 102.897 526.956 101.801C525.98 100.704 524.424 99.6081 522.955 100.058C519.545 101.154 521.858 107.918 518.449 109.179C516.947 109.738 515.379 108.707 513.943 107.984C512.507 107.26 510.358 107.063 509.678 108.521L511.871 110.275C507.914 108.02 503.694 106.26 499.307 105.035C479.08 99.7616 474.202 100.935 471.823 96.4836C469.63 92.4712 479.223 88.349 490.175 84.808C495.875 84.7452 501.573 85.0529 507.234 85.7289C519.161 87.5707 537.722 89.0726 542.929 101.165C543.094 101.538 543.236 101.899 543.368 102.261C542.195 102.338 541.023 102.091 539.98 101.549V101.549Z" fill="#0EF5DC"/>
<path d="M509.679 108.466C510.358 107.008 512.507 107.217 513.943 107.929C515.38 108.642 516.947 109.683 518.449 109.124C521.826 107.863 519.545 101.154 522.955 100.003C524.424 99.5094 525.97 100.551 526.957 101.746C527.943 102.941 528.754 104.366 530.125 105.035C531.495 105.704 533.677 105.21 533.808 103.664C533.885 102.755 533.216 101.888 533.348 100.979C533.523 99.6629 535.256 99.1257 536.527 99.5204C537.73 100.084 538.885 100.744 539.981 101.494C541.025 102.019 542.192 102.25 543.357 102.163C542.02 113.126 542.491 118.377 537.777 129.877C532.471 124.823 522.593 116.097 511.86 110.144L509.679 108.466Z" fill="#08B99E"/>
<path d="M377.518 142.836C374.763 141.078 372.4 138.771 370.579 136.058C368.757 133.345 367.515 130.285 366.932 127.069C366.348 123.854 366.435 120.553 367.187 117.373C367.939 114.192 369.34 111.202 371.302 108.589C373.264 105.975 375.745 103.795 378.589 102.186C381.433 100.576 384.579 99.5716 387.83 99.2349C391.08 98.8981 394.365 99.2366 397.479 100.229C400.593 101.221 403.468 102.846 405.924 105.002C405.924 105.002 402.909 127.816 377.518 142.836Z" fill="#53A22F"/>
<path d="M377.519 143.888C377.321 143.889 377.126 143.832 376.96 143.724C373.005 141.188 369.852 137.579 367.871 133.319C365.889 129.059 365.161 124.323 365.77 119.664C366.379 115.005 368.301 110.616 371.311 107.008C374.322 103.401 378.296 100.724 382.77 99.2902C386.835 97.9631 391.175 97.7191 395.363 98.5824C399.55 99.4456 403.44 101.386 406.648 104.213C406.782 104.324 406.885 104.469 406.946 104.632C407.008 104.796 407.026 104.972 406.999 105.145C406.138 109.913 404.521 114.514 402.208 118.772C396.682 129.2 388.321 137.854 378.089 143.735C377.917 143.837 377.72 143.89 377.519 143.888ZM390.379 100.178C385.528 100.169 380.802 101.716 376.895 104.591C372.988 107.465 370.105 111.517 368.67 116.151C367.235 120.784 367.323 125.756 368.922 130.336C370.52 134.916 373.545 138.863 377.552 141.597C387.181 135.948 395.058 127.745 400.311 117.895C402.39 113.97 403.9 109.769 404.795 105.419C400.75 102.041 395.649 100.187 390.379 100.178Z" fill="#175807"/>
<path d="M403.106 114.946C403.106 114.946 395.213 137.529 382.627 138.878C377.913 136.959 374.854 133.517 373.089 128.024C370.063 118.64 374.613 108.773 383.252 106C390.926 103.533 399.225 107.469 403.106 114.946" fill="#83E145"/>
<path d="M382.628 139.93C382.493 139.926 382.36 139.9 382.233 139.854C377.179 137.804 373.956 134.142 372.081 128.342C368.891 118.476 373.759 107.951 382.935 104.991C390.971 102.404 399.851 106.394 404.039 114.463C404.166 114.723 404.186 115.022 404.093 115.296C402.6 119.352 400.721 123.255 398.48 126.95C393.602 134.964 388.307 139.327 382.748 139.919L382.628 139.93ZM387.923 106.307C386.434 106.306 384.954 106.539 383.538 106.997C375.469 109.596 371.215 118.881 374.054 127.696C375.688 132.772 378.44 135.984 382.748 137.804C393.459 136.378 400.783 118.07 401.923 115.022C400.576 112.455 398.568 110.294 396.107 108.762C393.646 107.23 390.821 106.382 387.923 106.307Z" fill="#175807"/>
<path d="M404.465 154.895C404.465 154.895 407.655 158.315 408.39 161.265C409.124 164.214 406.307 165.332 404.904 161.944C404.075 159.687 403.923 157.237 404.465 154.895V154.895Z" fill="#175807"/>
<path d="M392.44 150.937C392.44 150.937 389.622 154.325 387.144 155.224C384.667 156.123 383.647 153.36 386.476 151.77C388.311 150.821 390.415 150.527 392.44 150.937Z" fill="#175807"/>
<path d="M461.309 185.109C477.839 185.109 491.238 171.709 491.238 155.18C491.238 138.651 477.839 125.251 461.309 125.251C444.78 125.251 431.38 138.651 431.38 155.18C431.38 171.709 444.78 185.109 461.309 185.109Z" fill="#53A22F"/>
<path d="M461.276 186.173C453.466 186.178 445.941 183.237 440.204 177.937C434.467 172.638 430.94 165.369 430.326 157.583C429.713 149.797 432.059 142.066 436.896 135.934C441.733 129.801 448.704 125.719 456.419 124.501C464.134 123.283 472.024 125.02 478.514 129.365C485.005 133.709 489.618 140.342 491.433 147.939C493.247 155.535 492.13 163.537 488.304 170.346C484.478 177.155 478.225 182.27 470.792 184.671C467.719 185.667 464.508 186.174 461.276 186.173V186.173ZM461.276 126.303C455.182 126.307 449.246 128.239 444.317 131.822C439.387 135.405 435.718 140.455 433.833 146.251C431.949 152.046 431.946 158.289 433.826 164.086C435.705 169.883 439.37 174.936 444.296 178.524C449.223 182.111 455.158 184.048 461.252 184.057C467.346 184.066 473.286 182.147 478.223 178.574C483.16 175.002 486.84 169.959 488.737 164.168C490.634 158.377 490.65 152.134 488.783 146.333C486.931 140.501 483.265 135.413 478.319 131.81C473.373 128.207 467.406 126.278 461.287 126.303H461.276Z" fill="#175807"/>
<path d="M461.123 178.312C474.22 178.312 484.836 167.695 484.836 154.599C484.836 141.503 474.22 130.886 461.123 130.886C448.027 130.886 437.41 141.503 437.41 154.599C437.41 167.695 448.027 178.312 461.123 178.312Z" fill="#53A22F"/>
<path d="M461.091 179.376C454.852 179.372 448.844 177.015 444.266 172.776C439.687 168.537 436.877 162.727 436.394 156.506C435.911 150.286 437.792 144.112 441.661 139.217C445.53 134.322 451.102 131.067 457.266 130.1C463.43 129.133 469.732 130.526 474.914 134.002C480.096 137.477 483.776 142.779 485.221 148.848C486.665 154.918 485.768 161.309 482.708 166.747C479.647 172.184 474.649 176.267 468.71 178.181C466.248 178.971 463.677 179.374 461.091 179.376V179.376ZM461.146 131.927C458.779 131.929 456.427 132.299 454.173 133.024C451.341 133.935 448.716 135.394 446.448 137.32C444.181 139.246 442.314 141.599 440.956 144.246C439.598 146.893 438.775 149.782 438.533 152.747C438.292 155.712 438.637 158.696 439.549 161.528C440.831 165.504 443.187 169.048 446.358 171.768C449.529 174.488 453.39 176.278 457.515 176.94C461.639 177.603 465.867 177.111 469.73 175.521C473.593 173.93 476.94 171.302 479.403 167.927C481.865 164.552 483.346 160.562 483.682 156.398C484.018 152.234 483.196 148.058 481.306 144.333C479.417 140.607 476.533 137.476 472.975 135.287C469.418 133.097 465.323 131.935 461.146 131.927V131.927Z" fill="#175807"/>
<path d="M460.059 172.074C470.522 172.074 479.004 163.592 479.004 153.13C479.004 142.667 470.522 134.186 460.059 134.186C449.597 134.186 441.115 142.667 441.115 153.13C441.115 163.592 449.597 172.074 460.059 172.074Z" fill="#83E145"/>
<path d="M460.037 173.138C455.001 173.134 450.151 171.232 446.456 167.811C442.761 164.389 440.492 159.7 440.102 154.679C439.712 149.658 441.23 144.674 444.353 140.723C447.476 136.772 451.974 134.144 456.949 133.364C461.924 132.584 467.011 133.708 471.194 136.513C475.376 139.318 478.347 143.597 479.513 148.497C480.68 153.396 479.955 158.555 477.485 162.943C475.015 167.332 470.981 170.628 466.188 172.173C464.201 172.814 462.125 173.14 460.037 173.138V173.138ZM460.037 135.227C455.65 135.238 451.419 136.856 448.145 139.776C444.87 142.696 442.78 146.714 442.268 151.071C441.756 155.429 442.86 159.822 445.369 163.421C447.878 167.019 451.619 169.574 455.884 170.6C460.149 171.627 464.643 171.055 468.515 168.992C472.387 166.929 475.368 163.519 476.895 159.406C478.422 155.293 478.389 150.763 476.802 146.673C475.214 142.584 472.183 139.217 468.282 137.212C465.746 135.905 462.934 135.225 460.081 135.227H460.037Z" fill="#175807"/>
<path d="M513.34 151.387C513.001 151.388 512.671 151.27 512.409 151.054C512.147 150.838 511.968 150.537 511.904 150.203C509.604 138.526 502.909 128.177 493.201 121.292C483.492 114.407 471.512 111.512 459.731 113.202C456.701 113.676 453.699 114.321 450.741 115.132C441.971 117.412 432.016 120.427 425.329 127.356C425.057 127.636 424.685 127.797 424.294 127.804C423.904 127.81 423.526 127.66 423.246 127.389C422.965 127.117 422.804 126.745 422.798 126.354C422.792 125.963 422.941 125.586 423.213 125.306C430.427 117.829 440.82 114.671 449.996 112.292C453.063 111.454 456.174 110.784 459.314 110.286C471.841 108.491 484.578 111.572 494.9 118.893C505.222 126.214 512.34 137.217 514.788 149.633C514.862 150.016 514.781 150.414 514.564 150.738C514.346 151.063 514.009 151.288 513.626 151.365C513.532 151.383 513.436 151.391 513.34 151.387Z" fill="#175807"/>
<path d="M409.914 123.957C409.635 123.956 409.363 123.875 409.129 123.723C408.895 123.572 408.709 123.356 408.593 123.102C408.478 122.849 408.438 122.567 408.478 122.291C408.517 122.015 408.636 121.756 408.818 121.545C411.625 118.256 413.116 113.948 414.639 109.113C416.346 104.249 417.533 99.2184 418.18 94.1047C418.809 89.1418 417.971 84.1033 415.769 79.6115C414.913 78.0219 413.061 75.2263 410.221 74.6343C407.152 73.9546 404.06 76.0156 402.196 78.1534C399.39 81.4423 396.715 88.7767 395.618 94.0938C395.58 94.2831 395.504 94.4629 395.395 94.6229C395.287 94.783 395.148 94.9201 394.987 95.0265C394.826 95.1328 394.645 95.2064 394.455 95.2429C394.265 95.2795 394.07 95.2783 393.881 95.2394C393.691 95.2005 393.512 95.1247 393.352 95.0164C393.192 94.908 393.054 94.7692 392.948 94.6078C392.842 94.4465 392.768 94.2658 392.732 94.076C392.695 93.8862 392.696 93.6911 392.735 93.5017C393.7 88.7876 396.419 80.346 399.96 76.2239C402.383 73.4503 406.538 70.8082 410.824 71.7619C413.784 72.4088 416.459 74.711 418.334 78.2302C420.812 83.2278 421.768 88.8426 421.086 94.3788C420.416 99.7001 419.188 104.936 417.424 110.001C415.801 115.143 414.201 119.704 411.044 123.442C410.905 123.606 410.732 123.737 410.536 123.826C410.341 123.915 410.129 123.96 409.914 123.957Z" fill="#175807"/>
<path d="M368.627 151.387C368.305 151.39 367.99 151.286 367.732 151.093C367.474 150.899 367.287 150.626 367.2 150.315C367.112 150.005 367.13 149.674 367.249 149.374C367.368 149.075 367.583 148.823 367.86 148.657L368.54 148.24C366.722 145.709 365.313 142.909 364.363 139.941C362.576 134.394 361.534 125.569 366.753 115.011C375.392 97.4703 395.531 92.1861 396.353 91.9888C396.451 91.9728 396.551 91.9728 396.649 91.9888C401.714 91.7695 405.244 96.5933 406.395 101.187C408.084 107.984 406.56 115.943 402.185 123.025C398.085 129.669 392.176 134.822 386.925 138.966C381.331 143.406 375.473 147.502 369.384 151.233C369.151 151.354 368.889 151.407 368.627 151.387ZM397.022 94.8501C395.191 95.3654 377.102 100.803 369.439 116.316C361.776 131.829 368.671 143.384 371.094 146.662C375.951 143.548 380.676 140.172 385.193 136.598C390.236 132.607 395.915 127.674 399.774 121.414C403.633 115.154 405.135 107.874 403.622 101.834C402.756 98.3254 400.223 94.8501 397.044 94.8501H397.022Z" fill="#175807"/>
<path d="M460.805 126.632C460.521 126.632 460.242 126.548 460.005 126.391C459.843 126.286 459.703 126.149 459.593 125.989C459.484 125.83 459.407 125.65 459.367 125.46C459.328 125.271 459.326 125.075 459.362 124.885C459.398 124.695 459.471 124.514 459.578 124.352C460.804 122.552 461.479 120.434 461.518 118.256C461.543 116.162 460.758 114.139 459.325 112.61C459.052 112.333 458.9 111.958 458.903 111.568C458.906 111.179 459.064 110.806 459.342 110.533C459.62 110.26 459.994 110.108 460.384 110.111C460.774 110.114 461.146 110.272 461.419 110.549C463.38 112.622 464.464 115.371 464.445 118.223C464.4 120.961 463.562 123.626 462.033 125.898C461.907 126.113 461.728 126.293 461.513 126.422C461.299 126.55 461.055 126.623 460.805 126.632V126.632Z" fill="#175807"/>
<path d="M480.483 132.399C480.176 132.401 479.875 132.307 479.624 132.13C479.373 131.952 479.184 131.7 479.084 131.41C478.983 131.119 478.976 130.805 479.064 130.51C479.152 130.215 479.33 129.956 479.573 129.768C481.53 128.164 482.928 125.98 483.564 123.531C484.2 121.082 484.043 118.494 483.114 116.14C483.017 115.959 482.959 115.759 482.944 115.553C482.93 115.347 482.958 115.141 483.028 114.947C483.098 114.753 483.209 114.577 483.352 114.428C483.495 114.28 483.667 114.163 483.858 114.086C484.049 114.008 484.255 113.972 484.461 113.979C484.667 113.986 484.869 114.037 485.054 114.127C485.239 114.217 485.403 114.346 485.536 114.504C485.668 114.662 485.766 114.846 485.822 115.044C486.992 117.989 487.198 121.229 486.41 124.298C485.622 127.368 483.881 130.108 481.437 132.125C481.159 132.321 480.823 132.418 480.483 132.399V132.399Z" fill="#175807"/>
<path d="M492.017 152.045C491.656 152.032 491.312 151.887 491.051 151.638C490.789 151.389 490.627 151.053 490.596 150.693C490.565 150.333 490.667 149.974 490.882 149.684C491.098 149.393 491.412 149.192 491.765 149.117C494.348 148.609 496.674 147.218 498.343 145.182C500.071 143.056 501.333 140.591 502.049 137.946C503.016 135.251 503.135 132.324 502.388 129.559C502.325 129.377 502.299 129.183 502.312 128.99C502.325 128.797 502.376 128.609 502.463 128.436C502.55 128.264 502.671 128.11 502.818 127.985C502.965 127.859 503.136 127.765 503.32 127.707C503.69 127.585 504.092 127.615 504.439 127.79C504.786 127.964 505.05 128.27 505.173 128.638C506.138 131.533 506.028 134.854 504.866 138.779C504.04 141.821 502.579 144.653 500.579 147.089C498.475 149.638 495.555 151.381 492.313 152.023L492.017 152.045Z" fill="#175807"/>
<path d="M404.258 99.8055C403.991 99.8076 403.729 99.7355 403.501 99.5972C403.335 99.497 403.19 99.3649 403.075 99.2085C402.96 99.0521 402.878 98.8745 402.832 98.6859C402.786 98.4973 402.778 98.3015 402.808 98.1098C402.838 97.9181 402.906 97.7343 403.008 97.569C404.55 95.1088 406.723 93.1061 409.3 91.7683C411.878 90.4305 414.766 89.8064 417.665 89.9606C418.33 89.9352 418.991 90.0787 419.585 90.3778C420.179 90.6769 420.688 91.1218 421.064 91.6709C421.262 92.0067 421.318 92.4073 421.22 92.7846C421.123 93.1618 420.879 93.4849 420.543 93.6826C420.207 93.8803 419.807 93.9365 419.43 93.8388C419.052 93.7412 418.729 93.4977 418.532 93.1618C418.532 93.1618 418.356 92.9535 417.435 92.8878C415.07 92.7614 412.714 93.2714 410.612 94.3646C408.51 95.4579 406.74 97.0944 405.485 99.1038C405.356 99.3139 405.175 99.4882 404.961 99.6108C404.746 99.7333 404.505 99.8003 404.258 99.8055Z" fill="#175807"/>
<path d="M399.697 94.3787C399.318 94.3819 398.952 94.2371 398.678 93.9751C398.404 93.7131 398.242 93.3545 398.228 92.9755C398.151 90.7828 400.991 85.8385 401.517 84.9943C404.389 80.8613 407.141 77.978 412.02 76.3883C412.985 76.0254 414.018 75.883 415.045 75.9717C415.712 76.0231 416.353 76.2541 416.899 76.6402C417.445 77.0262 417.877 77.5529 418.148 78.1643C418.22 78.3436 418.256 78.5352 418.254 78.7284C418.252 78.9215 418.212 79.1124 418.136 79.29C418.06 79.4677 417.95 79.6286 417.812 79.7637C417.674 79.8988 417.51 80.0054 417.331 80.0774C417.152 80.1494 416.96 80.1854 416.767 80.1833C416.574 80.1812 416.383 80.1411 416.206 80.0652C416.028 79.9894 415.867 79.8793 415.732 79.7412C415.597 79.6032 415.49 79.4399 415.418 79.2606C415.337 79.1426 415.229 79.0453 415.104 78.9767C414.978 78.9081 414.838 78.8702 414.695 78.866C414.091 78.8457 413.491 78.9502 412.93 79.1729C408.818 80.4995 406.516 82.9223 403.929 86.6498C403.019 87.9653 401.1 91.923 401.111 92.8439C401.117 93.2338 400.97 93.6105 400.702 93.8933C400.433 94.1761 400.065 94.3425 399.675 94.3568L399.697 94.3787Z" fill="#175807"/>
<path d="M468.183 256.709C467.83 256.713 467.488 256.589 467.218 256.361C466.949 256.133 466.771 255.816 466.716 255.467C466.662 255.119 466.735 254.762 466.921 254.463C467.108 254.163 467.396 253.941 467.733 253.837C492.148 245.976 518.734 225.146 519.929 202.003L520.049 199.482C520.948 181.787 521.968 161.725 528.425 149.962C535.891 136.378 543.05 117.072 540.77 103.708C538.643 91.2542 532.273 90.0483 494.275 84.9724L485.921 83.8761C463.184 80.7954 446.619 81.7602 436.741 83.1087C426.03 84.5887 420.636 86.7813 420.581 86.8361C420.399 86.9334 420.199 86.9913 419.994 87.0061C419.788 87.021 419.582 86.9924 419.388 86.9222C419.194 86.852 419.017 86.7419 418.869 86.5989C418.72 86.4559 418.604 86.2832 418.526 86.0922C418.449 85.9011 418.413 85.6959 418.42 85.4899C418.427 85.2839 418.477 85.0817 418.568 84.8965C418.658 84.7113 418.787 84.5471 418.945 84.4148C419.103 84.2824 419.287 84.1848 419.485 84.1282C420.384 83.7445 441.948 74.974 486.36 80.9818L494.703 82.0781C532.24 87.0992 541.164 88.2942 543.708 103.237C544.881 110.122 543.916 118.651 540.846 128.584C538.311 136.51 535.014 144.172 531.001 151.464C524.873 162.624 523.832 183.191 522.987 199.701L522.867 202.223C522.373 211.728 517.034 222.669 508.209 232.25C501.171 239.826 488.662 250.241 468.632 256.709C468.483 256.731 468.332 256.731 468.183 256.709V256.709Z" fill="#175807"/>
<path d="M429.341 264.383H429.254C411.675 262.724 394.754 256.858 379.92 247.281C362.203 235.583 343.325 213.372 346.438 203.352C347.151 201.071 349.311 198.375 355.45 198.506C355.673 198.511 355.892 198.565 356.092 198.666C356.291 198.766 356.465 198.91 356.601 199.087C360.535 203.878 365.14 208.076 370.272 211.552C381.786 219.607 395.479 223.966 409.531 224.05H409.882C434.494 224.05 468.918 214.183 486.623 208.472C480.934 207.704 473.369 205.358 464.029 199.624L462.088 198.44C441.258 185.646 434.932 181.776 404.038 175.199C372.026 168.391 354.99 157.219 354.288 156.748C353.992 156.554 353.776 156.26 353.679 155.92C353.582 155.579 353.612 155.215 353.762 154.895C356.694 149.127 360.166 143.65 364.133 138.538C364.248 138.384 364.393 138.255 364.559 138.157C364.725 138.059 364.908 137.995 365.099 137.969C365.289 137.942 365.483 137.954 365.669 138.002C365.855 138.051 366.03 138.136 366.183 138.253C366.338 138.369 366.469 138.514 366.568 138.68C366.667 138.846 366.732 139.031 366.759 139.222C366.787 139.414 366.776 139.609 366.728 139.796C366.68 139.983 366.595 140.159 366.479 140.314C362.97 144.938 359.842 149.84 357.127 154.972C361.381 157.515 377.837 166.593 404.762 172.326C436.149 179.014 443.133 183.289 463.743 195.93L465.684 197.125C482.501 207.43 493.092 206.125 496.72 205.139L498.343 204.569C498.693 204.444 499.078 204.457 499.419 204.605C499.76 204.752 500.033 205.024 500.182 205.365C500.331 205.706 500.345 206.09 500.221 206.441C500.098 206.792 499.846 207.082 499.516 207.255C498.815 207.591 498.08 207.852 497.323 208.033C487.226 211.541 440.984 226.988 409.904 226.988H409.542C394.859 226.92 380.547 222.373 368.518 213.953C363.38 210.443 358.741 206.254 354.727 201.499C351.657 201.565 349.815 202.497 349.245 204.284C348.149 207.858 351.251 214.786 357.61 222.844C364.43 231.354 372.494 238.787 381.531 244.891C404.214 259.867 429.166 261.489 429.418 261.5C429.808 261.512 430.177 261.678 430.444 261.961C430.711 262.245 430.855 262.623 430.843 263.013C430.832 263.403 430.666 263.772 430.382 264.039C430.098 264.306 429.72 264.45 429.33 264.438L429.341 264.383Z" fill="#175807"/>
<path d="M496.698 214.797C496.49 214.798 496.285 214.755 496.096 214.67C495.907 214.585 495.738 214.46 495.601 214.304C495.343 214.013 495.211 213.631 495.233 213.243C495.256 212.855 495.432 212.491 495.722 212.232C496.63 211.43 497.31 210.403 497.695 209.255C498.081 208.106 498.157 206.877 497.917 205.689C497.678 204.502 497.13 203.399 496.329 202.49C495.528 201.581 494.502 200.899 493.354 200.512C492.985 200.387 492.68 200.121 492.508 199.771C492.335 199.422 492.308 199.018 492.433 198.649C492.558 198.279 492.825 197.975 493.174 197.802C493.524 197.63 493.928 197.603 494.297 197.728C495.929 198.284 497.387 199.259 498.525 200.555C499.663 201.85 500.442 203.422 500.783 205.112C501.125 206.802 501.018 208.553 500.472 210.189C499.926 211.824 498.961 213.289 497.673 214.436C497.403 214.67 497.056 214.799 496.698 214.797V214.797Z" fill="#175807"/>
<path d="M355.976 201.795C355.635 201.796 355.305 201.676 355.045 201.455C354.745 201.209 354.554 200.854 354.515 200.468C354.476 200.081 354.592 199.696 354.836 199.394C358.125 195.338 363.607 187.587 365.043 182.807C365.163 182.336 366.753 175.078 367.817 170.276C368.792 165.781 369.198 163.94 369.253 163.698C369.347 163.32 369.588 162.995 369.922 162.795C370.256 162.594 370.656 162.535 371.034 162.629C371.412 162.724 371.737 162.965 371.938 163.299C372.138 163.633 372.198 164.033 372.103 164.411C372.103 164.652 371.38 167.7 370.689 170.857C368.496 180.581 367.937 183.322 367.86 183.607C366.183 189.198 360.099 197.563 357.117 201.214C356.982 201.389 356.809 201.533 356.612 201.633C356.415 201.734 356.198 201.789 355.976 201.795V201.795Z" fill="#5E5E5E"/>
<path d="M475.528 210.346C450.105 210.346 421.677 204.865 402.952 198.846C402.609 198.703 402.332 198.436 402.177 198.099C402.021 197.761 401.998 197.377 402.113 197.023C402.228 196.669 402.471 196.372 402.796 196.19C403.12 196.007 403.501 195.954 403.862 196.039C424.922 202.837 458.393 208.888 485.713 207.079C486.102 207.053 486.486 207.183 486.78 207.44C487.074 207.697 487.254 208.06 487.28 208.45C487.307 208.839 487.177 209.223 486.92 209.517C486.663 209.811 486.3 209.991 485.91 210.017C482.533 210.237 479.058 210.346 475.528 210.346Z" fill="#5E5E5E"/>
<path d="M455.225 158.535C461.153 158.535 465.958 153.729 465.958 147.802C465.958 141.874 461.153 137.069 455.225 137.069C449.297 137.069 444.492 141.874 444.492 147.802C444.492 153.729 449.297 158.535 455.225 158.535Z" fill="url(#paint0_linear_2690_90494)"/>
<path d="M455.236 158.951C454.77 158.955 454.305 158.926 453.843 158.864C450.91 158.497 448.242 156.98 446.427 154.646C444.611 152.313 443.797 149.354 444.163 146.421V146.421C444.429 144.291 445.303 142.284 446.682 140.639C448.06 138.995 449.884 137.783 451.934 137.15C453.984 136.516 456.174 136.487 458.24 137.067C460.306 137.647 462.161 138.811 463.581 140.419C465.002 142.027 465.929 144.011 466.25 146.133C466.572 148.254 466.274 150.424 465.393 152.38C464.511 154.337 463.084 155.997 461.283 157.163C459.481 158.329 457.381 158.95 455.236 158.951V158.951ZM444.579 146.464H444.996C444.745 148.487 445.098 150.538 446.011 152.36C446.925 154.182 448.357 155.692 450.128 156.701C451.899 157.709 453.929 158.171 455.962 158.027C457.994 157.883 459.939 157.14 461.55 155.893C462.887 154.852 463.946 153.498 464.635 151.951C465.323 150.403 465.62 148.71 465.498 147.021C465.376 145.332 464.84 143.698 463.937 142.265C463.034 140.833 461.791 139.645 460.32 138.806C458.848 137.968 457.192 137.506 455.499 137.46C453.806 137.414 452.128 137.786 450.613 138.543C449.098 139.3 447.793 140.419 446.813 141.801C445.833 143.182 445.209 144.784 444.996 146.464H444.579Z" fill="#175807"/>
<path d="M454.72 152.604C458.456 152.604 461.485 149.575 461.485 145.839C461.485 142.104 458.456 139.075 454.72 139.075C450.985 139.075 447.956 142.104 447.956 145.839C447.956 149.575 450.985 152.604 454.72 152.604Z" fill="#060203"/>
<path d="M450.412 144.535C451.672 144.535 452.692 143.514 452.692 142.255C452.692 140.995 451.672 139.974 450.412 139.974C449.153 139.974 448.132 140.995 448.132 142.255C448.132 143.514 449.153 144.535 450.412 144.535Z" fill="white"/>
<path d="M385.04 128.836C390.967 128.836 395.772 124.03 395.772 118.103C395.772 112.175 390.967 107.37 385.04 107.37C379.112 107.37 374.307 112.175 374.307 118.103C374.307 124.03 379.112 128.836 385.04 128.836Z" fill="url(#paint1_linear_2690_90494)"/>
<path d="M385.051 129.252C384.585 129.256 384.12 129.226 383.658 129.165C380.73 128.79 378.07 127.27 376.259 124.938C374.449 122.606 373.637 119.651 374 116.722V116.722C374.266 114.592 375.14 112.585 376.519 110.94C377.897 109.296 379.721 108.084 381.771 107.451C383.821 106.817 386.011 106.788 388.077 107.368C390.143 107.948 391.997 109.112 393.418 110.72C394.839 112.328 395.766 114.312 396.087 116.434C396.408 118.555 396.111 120.725 395.23 122.681C394.348 124.638 392.921 126.298 391.12 127.464C389.318 128.63 387.218 129.251 385.073 129.252H385.051ZM374.395 116.765L374.811 116.82C374.559 118.842 374.911 120.893 375.824 122.715C376.736 124.536 378.169 126.046 379.939 127.054C381.71 128.062 383.74 128.522 385.772 128.377C387.804 128.232 389.748 127.487 391.357 126.238C392.966 124.988 394.169 123.29 394.813 121.357C395.458 119.424 395.515 117.344 394.977 115.379C394.439 113.413 393.331 111.652 391.793 110.316C390.254 108.98 388.355 108.131 386.333 107.874C383.619 107.533 380.881 108.284 378.72 109.961C376.559 111.639 375.153 114.106 374.811 116.82L374.395 116.765Z" fill="#175807"/>
<path d="M384.534 122.905C388.27 122.905 391.298 119.876 391.298 116.14C391.298 112.405 388.27 109.376 384.534 109.376C380.798 109.376 377.77 112.405 377.77 116.14C377.77 119.876 380.798 122.905 384.534 122.905Z" fill="#060203"/>
<path d="M380.226 114.836C381.485 114.836 382.506 113.815 382.506 112.556C382.506 111.296 381.485 110.275 380.226 110.275C378.967 110.275 377.946 111.296 377.946 112.556C377.946 113.815 378.967 114.836 380.226 114.836Z" fill="white"/>
<path d="M346.767 91.8463L375.457 108.346L378.571 139.13L350.658 122.17L341.68 95.3435L346.767 91.8463Z" fill="white"/>
<path d="M420.417 122.894L417.237 131.971L431.182 157.811L448.603 159.51L458.733 151.705L444.272 133.342L420.417 122.894Z" fill="white"/>
<path d="M530.552 172.535L337.186 92.8768L339.565 87.0116L532.931 166.669L530.552 172.535Z" fill="#131314"/>
<path d="M349.799 96.5157L337.566 91.5562L334.646 98.7594L346.878 103.719L349.799 96.5157Z" fill="#131314"/>
<path d="M352.6 105.257L340.367 100.297L337.447 107.501L349.679 112.46L352.6 105.257Z" fill="#131314"/>
<path d="M356.346 113.087L344.113 108.127L341.193 115.33L353.425 120.29L356.346 113.087Z" fill="#131314"/>
<path d="M407.095 132.818L372.491 118.788L369.571 125.991L404.175 140.021L407.095 132.818Z" fill="#131314"/>
<path d="M423.087 125.839L366.863 103.043L363.942 110.246L420.166 133.042L423.087 125.839Z" fill="#131314"/>
<path d="M420.681 131.983L369.658 111.296L366.738 118.5L417.76 139.187L420.681 131.983Z" fill="#131314"/>
<path d="M398.226 136.604L347.956 116.222L345.035 123.425L395.306 143.807L398.226 136.604Z" fill="#131314"/>
<path d="M391.158 139.62L351.779 123.654L348.858 130.857L388.238 146.823L391.158 139.62Z" fill="#131314"/>
<path d="M360.575 101.952L354.54 99.5056L352.093 105.54L358.128 107.987L360.575 101.952Z" fill="#131314"/>
<path d="M364.126 110.132L358.091 107.685L355.644 113.72L361.679 116.167L364.126 110.132Z" fill="#131314"/>
<path d="M367.407 118.093L361.373 115.646L358.926 121.681L364.961 124.128L367.407 118.093Z" fill="#131314"/>
<path d="M423.211 126.276L410.979 121.317L408.058 128.52L420.29 133.48L423.211 126.276Z" fill="#131314"/>
<path d="M426.003 135.019L413.771 130.059L411.155 136.511L423.387 141.47L426.003 135.019Z" fill="#131314"/>
<path d="M429.746 142.847L417.514 137.888L414.593 145.091L426.825 150.051L429.746 142.847Z" fill="#131314"/>
<path d="M480.497 162.579L445.893 148.549L442.972 155.752L477.576 169.782L480.497 162.579Z" fill="#131314"/>
<path d="M528.228 178.027L437.322 140.04L440.238 132.837L531.155 170.824L528.228 178.027Z" fill="#131314"/>
<path d="M494.082 161.744L443.06 141.057L440.139 148.26L491.161 168.947L494.082 161.744Z" fill="#131314"/>
<path d="M471.628 166.365L421.357 145.983L418.437 153.186L468.707 173.568L471.628 166.365Z" fill="#131314"/>
<path d="M464.55 169.377L425.171 153.411L422.25 160.614L461.63 176.58L464.55 169.377Z" fill="#131314"/>
<path d="M433.976 131.713L427.941 129.266L425.495 135.301L431.529 137.748L433.976 131.713Z" fill="#131314"/>
<path d="M437.527 139.893L431.492 137.446L429.045 143.481L435.08 145.927L437.527 139.893Z" fill="#131314"/>
<path d="M440.8 147.849L434.765 145.402L432.318 151.437L438.353 153.884L440.8 147.849Z" fill="#131314"/>
<path d="M384.809 193.123C384.676 193.121 384.543 193.103 384.414 193.068C377.57 191.139 371.201 187.809 365.711 183.289C365.562 183.166 365.439 183.015 365.348 182.844C365.258 182.674 365.202 182.487 365.183 182.294C365.165 182.102 365.185 181.908 365.242 181.723C365.298 181.538 365.391 181.366 365.514 181.217C365.637 181.068 365.788 180.945 365.959 180.854C366.13 180.764 366.317 180.708 366.509 180.69C366.701 180.671 366.896 180.691 367.08 180.748C367.265 180.804 367.437 180.897 367.586 181.02C372.755 185.28 378.755 188.416 385.204 190.229C385.539 190.332 385.827 190.551 386.016 190.847C386.205 191.143 386.283 191.496 386.235 191.844C386.188 192.192 386.019 192.511 385.757 192.746C385.496 192.98 385.16 193.114 384.809 193.123V193.123Z" fill="#5E5E5E"/>
<path d="M303.89 81.2998C303.516 81.3004 303.156 81.1594 302.882 80.9051C302.74 80.7739 302.627 80.616 302.547 80.4406C302.467 80.2651 302.423 80.0755 302.416 79.8828C302.41 79.6901 302.443 79.4981 302.511 79.3179C302.58 79.1378 302.683 78.973 302.816 78.8331L313.702 67.1684C313.91 66.9584 314.172 66.8103 314.459 66.7408C314.821 66.6641 323.383 64.7674 327.231 64.4385C327.354 64.4221 327.48 64.4221 327.604 64.4385C331.134 65.0306 341.044 66.3352 344.52 65.3375C345.221 65.1402 346.405 64.6359 346.438 63.5505C346.355 62.9139 346.079 62.3179 345.648 61.8419C345.217 61.3659 344.651 61.0327 344.026 60.8865C342.239 60.2945 339.246 59.0666 336.067 57.773C332.482 56.3039 328.393 54.6375 327.012 54.3087C325.29 53.9469 307.826 58.1128 298.508 63.9891C298.19 64.1231 297.836 64.1414 297.506 64.0406C297.177 63.9398 296.893 63.7265 296.705 63.4378C296.517 63.1491 296.436 62.8035 296.477 62.4614C296.518 62.1193 296.678 61.8024 296.929 61.5662C305.502 56.0847 324.271 50.7018 327.625 51.5131C329.237 51.8968 333.107 53.4645 337.098 55.109C340.09 56.3368 343.193 57.5976 344.881 58.1567C346.092 58.4997 347.166 59.2124 347.952 60.1951C348.738 61.1778 349.198 62.3816 349.267 63.6382C349.267 65.776 347.71 67.4863 345.221 68.1879C340.65 69.4925 329.237 67.7275 327.198 67.3876C323.909 67.7055 317.221 69.1417 315.434 69.5802L304.932 80.7845C304.803 80.9372 304.644 81.0617 304.465 81.1504C304.286 81.239 304.09 81.2899 303.89 81.2998V81.2998Z" fill="#175807"/>
<path d="M337.942 317.642C337.732 317.64 337.525 317.592 337.335 317.501C337.146 317.41 336.979 317.278 336.845 317.116C325.967 303.853 315.762 290.051 306.269 275.763C298.244 263.441 290.757 249.452 285.286 239.19C281.997 233.018 278.873 227.131 278.05 226.429C275.715 224.544 273.501 222.757 272.437 215.652C271.418 208.877 270.913 135.808 271.012 129.417C271.111 122.576 274.016 99.3012 275.069 95.5409C275.628 93.5785 277.151 88.8972 279.092 82.9662C280.616 78.285 282.381 72.9788 283.982 67.8372C287.479 56.8741 291.316 50.4387 300.558 50.4387C308.122 50.4387 329.325 47.3691 333.195 46.7661C334.004 46.6214 334.806 46.4348 335.596 46.207C337.92 45.5821 340.332 44.9353 341.998 46.1522C342.463 46.5181 342.836 46.9866 343.089 47.5212C343.342 48.0557 343.468 48.6415 343.456 49.2328C343.73 54.506 336.155 57.203 335.782 57.3126C335.413 57.4387 335.009 57.4139 334.657 57.2435C334.306 57.0731 334.037 56.7709 333.907 56.4027C333.782 56.0348 333.807 55.6321 333.977 55.2828C334.148 54.9335 334.45 54.666 334.817 54.5389C336.33 54.0017 340.606 51.9188 340.474 49.3863C340.492 49.0823 340.407 48.7811 340.233 48.5312C339.696 48.1365 337.657 48.6846 336.319 49.0464C335.424 49.3038 334.517 49.516 333.6 49.6823C333.37 49.6823 309.197 53.3768 300.514 53.3768C293.782 53.3768 290.428 57.1153 286.744 68.7252C285.1 73.8778 283.368 79.1949 281.844 83.8762C279.914 89.7743 278.401 94.4336 277.864 96.3302C276.976 99.4876 274.016 122.4 273.906 129.461C273.808 135.764 274.334 208.79 275.299 215.214C276.198 221.189 277.733 222.428 279.87 224.16C280.967 225.081 283.006 228.786 287.83 237.809C293.311 247.994 300.733 261.928 308.659 274.162C318.085 288.354 328.22 302.061 339.027 315.23C339.205 315.443 339.319 315.701 339.356 315.975C339.394 316.25 339.353 316.529 339.238 316.781C339.124 317.033 338.94 317.248 338.709 317.4C338.477 317.553 338.208 317.636 337.931 317.642H337.942Z" fill="#175807"/>
</g>
<defs>
<linearGradient id="paint0_linear_2690_90494" x1="456.78" y1="159.44" x2="459.356" y2="138.189" gradientUnits="userSpaceOnUse">
<stop stop-color="#E8AF15"/>
<stop offset="0.04" stop-color="#D69A16"/>
<stop offset="0.11" stop-color="#B87817"/>
<stop offset="0.19" stop-color="#9E5B18"/>
<stop offset="0.28" stop-color="#8A4319"/>
<stop offset="0.39" stop-color="#7A3119"/>
<stop offset="0.51" stop-color="#6E241A"/>
<stop offset="0.66" stop-color="#681C1A"/>
<stop offset="1" stop-color="#661A1A"/>
</linearGradient>
<linearGradient id="paint1_linear_2690_90494" x1="386.659" y1="130.115" x2="389.233" y2="108.875" gradientUnits="userSpaceOnUse">
<stop stop-color="#E8AF15"/>
<stop offset="0.04" stop-color="#D69A16"/>
<stop offset="0.11" stop-color="#B87817"/>
<stop offset="0.19" stop-color="#9E5B18"/>
<stop offset="0.28" stop-color="#8A4319"/>
<stop offset="0.39" stop-color="#7A3119"/>
<stop offset="0.51" stop-color="#6E241A"/>
<stop offset="0.66" stop-color="#681C1A"/>
<stop offset="1" stop-color="#661A1A"/>
</linearGradient>
<clipPath id="clip0_2690_90494">
<rect width="916" height="400" fill="white"/>
</clipPath>
</defs>
</svg>
