<svg xmlns="http://www.w3.org/2000/svg" xmlns:xlink="http://www.w3.org/1999/xlink" viewBox="0 0 400 400"><defs><style>.cls-1{fill:#64a934;}.cls-2{fill:#84e246;}.cls-3{fill:#175807;}.cls-4{fill:none;}.cls-5{fill:#feec30;}.cls-6{fill:#dbc62c;}.cls-7{fill:#05fadb;}.cls-8{fill:#05baa0;}.cls-9{fill:#64a835;}.cls-10{fill:#06fad6;}.cls-11{fill:#64a933;}.cls-12{fill:url(#linear-gradient);}.cls-13{fill:#060203;}.cls-14{fill:#fff;}.cls-15{fill:url(#linear-gradient-2);}.cls-16{fill:#29abe2;}.cls-17{fill:#0071bc;}.cls-18{fill:#d9e021;}.cls-19{fill:#8cc63f;}</style><linearGradient id="linear-gradient" x1="149.73" y1="136.47" x2="149.73" y2="114" gradientUnits="userSpaceOnUse"><stop offset="0" stop-color="#e8af15"/><stop offset="0.04" stop-color="#d69a16"/><stop offset="0.11" stop-color="#b87817"/><stop offset="0.19" stop-color="#9e5b18"/><stop offset="0.28" stop-color="#8a4319"/><stop offset="0.39" stop-color="#7a3119"/><stop offset="0.51" stop-color="#6e241a"/><stop offset="0.66" stop-color="#681c1a"/><stop offset="1" stop-color="#661a1a"/></linearGradient><linearGradient id="linear-gradient-2" x1="249.41" y1="130.28" x2="249.41" y2="107.82" xlink:href="#linear-gradient"/></defs><title>i</title><g id="Capa_4" data-name="Capa 4"><path class="cls-1" d="M135.51,304.33c-4.51,13-10.87,25.38-14.93,38.55l0,.06a5.7,5.7,0,0,0,1.87.46c4.07.29,7-3.69,9-7.26,14.24-25.89,21.49-55,27.39-83.95a47.35,47.35,0,0,0,1.29-10.05,12.28,12.28,0,0,0-2.3,2.48C145.25,261.9,142.49,284.15,135.51,304.33Z"/><path class="cls-2" d="M155.37,233.85c-10.06-2.83-20.38,15-23.83,21.87-11.51,22.94-15.8,49-16.13,74.61a21,21,0,0,0,1,8.1,8.3,8.3,0,0,0,4.14,4.51l0-.06c4.06-13.17,10.42-25.52,14.93-38.55,7-20.18,9.74-42.43,22.28-59.71a12.28,12.28,0,0,1,2.3-2.48C160,238.32,158.94,234.86,155.37,233.85Z"/><path class="cls-3" d="M122.92,344.86l-.5,0c-2.89-.2-5.59-2.4-6.88-5.6-1.06-2.66-1.11-5.54-1.08-8.5.37-29.06,5.83-54.31,16.24-75,2.69-5.36,12.21-22.74,22.54-22.74h.22a1,1,0,0,1,1,1,1,1,0,0,1-1,1h-.17c-3.64,0-7.87,2.84-12.25,8.22a79.31,79.31,0,0,0-8.48,13.39c-10.27,20.47-15.66,45.42-16,74.17,0,2.85,0,5.4.94,7.71.81,2,2.72,4.17,5.13,4.34,2.8.2,5.42-2,8-6.74,9.29-16.89,16.49-36.76,22.66-62.53a1,1,0,0,1,1.22-.75,1,1,0,0,1,.75,1.22c-6.21,26-13.47,46-22.85,63C129.47,342.3,126.38,344.86,122.92,344.86Z"/><path class="cls-1" d="M264.85,297c5.87,12.47,13.51,24.08,18.94,36.75l0,.05a6,6,0,0,1-1.81.66c-4,.71-7.36-2.93-9.69-6.27-16.91-24.24-27.2-52.4-36.15-80.57a48.33,48.33,0,0,1-2.35-9.86,12.64,12.64,0,0,1,2.55,2.22C250.66,255.85,255.77,277.68,264.85,297Z"/><path class="cls-2" d="M237.63,229c9.7-3.89,21.86,12.75,26,19.22,13.88,21.59,20.91,47,24,72.47a21,21,0,0,1-.15,8.17,8.29,8.29,0,0,1-3.64,4.92l0-.05c-5.43-12.67-13.07-24.28-18.94-36.75-9.08-19.33-14.19-41.16-28.49-57a12.64,12.64,0,0,0-2.55-2.22C233.48,234,234.19,230.41,237.63,229Z"/><path class="cls-3" d="M281,335.58c-3.19,0-6.3-2.24-9.48-6.8-11.14-16-20.48-35.11-29.41-60.26a1,1,0,0,1,.62-1.29,1,1,0,0,1,1.29.61c8.86,25,18.13,44,29.16,59.78,3.09,4.43,5.93,6.34,8.69,5.85,2.38-.42,4.05-2.74,4.65-4.86.67-2.39.45-4.94.11-7.77-3.41-28.55-11.42-52.79-23.8-72-2.21-3.44-13.7-20.52-23.07-19.28a1,1,0,0,1-1.14-.87,1,1,0,0,1,.87-1.14c10.33-1.35,21.78,15.11,25,20.19,12.55,19.52,20.66,44,24.11,72.9a22,22,0,0,1-.17,8.56c-.94,3.32-3.39,5.8-6.25,6.31A7.28,7.28,0,0,1,281,335.58Z"/><path class="cls-4" d="M229.21,252.61c.4.69.79,1.39,1.15,2.09C230,254,229.61,253.3,229.21,252.61Z"/><path class="cls-4" d="M184.4,241.36a26.23,26.23,0,0,1,3-1.5A26.23,26.23,0,0,0,184.4,241.36Z"/><path class="cls-4" d="M182.89,242.31c.49-.33,1-.65,1.51-.95C183.88,241.66,183.38,242,182.89,242.31Z"/><path class="cls-4" d="M239.57,326.71c0-.22,0-.44,0-.66h0C239.56,326.27,239.57,326.49,239.57,326.71Z"/><path class="cls-4" d="M179.44,245.09a28,28,0,0,1,3.45-2.78A28,28,0,0,0,179.44,245.09Z"/><path class="cls-4" d="M236,273.52c.29,1.87.53,3.75.73,5.62C236.52,277.27,236.28,275.39,236,273.52Z"/><path class="cls-4" d="M239.56,326.05h0q-.08-4.89-.23-9.78Q239.48,321.16,239.56,326.05Z"/><path class="cls-2" d="M163.86,322.56c.08-3.43.18-6.87.32-10.3q.3-7.72.83-15.44t1.28-15.4c.09-.95.19-1.9.29-2.85q.3-2.85.7-5.69.19-1.41.45-2.82a62.62,62.62,0,0,1,2.86-11,37.47,37.47,0,0,1,8.22-13.31l.63-.62a28,28,0,0,1,3.45-2.78c.49-.33,1-.65,1.51-.95a26.23,26.23,0,0,1,3-1.5c.34-.15.69-.28,1-.42a39.47,39.47,0,0,1,9.61-2.21,37.23,37.23,0,0,1,11.4.27c.86.17,1.71.39,2.55.64l.76.25c.5.17,1,.35,1.48.55a27.53,27.53,0,0,1,3.51,1.78q.67.41,1.32.84c.65.45,1.29.92,1.91,1.41s1.21,1,1.79,1.56,1.14,1.1,1.69,1.68,1.06,1.19,1.56,1.81c.34.42.67.84,1,1.26a38.42,38.42,0,0,1,2.21,3.33c.4.69.79,1.39,1.15,2.09.24.47.47,1,.7,1.43.44.95.86,1.92,1.24,2.91s.73,2,1.06,3c.48,1.5.91,3,1.28,4.57s.69,3.11,1,4.67c.14.75.26,1.51.38,2.26.29,1.87.53,3.75.73,5.62q1.72,15.71,2.39,31.45c.08,1.89.15,3.79.22,5.68q.15,4.89.23,9.78c1.73.68,3.46,1.4,5.18,2.13L246.21,304c.53-8.71,1.64-18.52,8-24.22-.62-19.73-2.82-37.58-8-46.45a9.56,9.56,0,0,0-6.65-4.48c-3.79-.84-7.88-.49-10.15-2.34a97.65,97.65,0,0,1-34.89,6.18c-11.82,0-24.11-1.62-35.12,2.7a35.6,35.6,0,0,0-11.46,7.38,36.13,36.13,0,0,0-2.13,14.44c.16,4.91.65,14.93,1.28,26.94,5.31,3.95,6.36,11.37,7,18q1.33,14.64,2.69,29.26c2.3-1.42,4.66-2.76,7.08-4C163.81,325.74,163.83,324.15,163.86,322.56Z"/><path class="cls-1" d="M163.75,332.87c0-1.85,0-3.7,0-5.54-2.42,1.24-4.78,2.58-7.08,4q.53,5.84,1.07,11.67c2-1.05,4-2.13,6-3.22,0-.58,0-1.17,0-1.76C163.75,336.3,163.74,334.58,163.75,332.87Z"/><path class="cls-1" d="M239.56,326.05c0,.22,0,.44,0,.66,0,1.76,0,3.52.05,5.29s0,3.53,0,5.29v0c0,.91,0,1.83,0,2.74,1.43.62,2.87,1.2,4.34,1.73q.36-6.44.76-12.86l0-.77C243,327.45,241.29,326.73,239.56,326.05Z"/><path class="cls-5" d="M239.11,310.59q-.69-15.73-2.39-31.45c-.2-1.87-.44-3.75-.73-5.62-.12-.75-.24-1.51-.38-2.26-.28-1.56-.6-3.12-1-4.67s-.8-3.07-1.28-4.57c-.33-1-.68-2-1.06-3s-.8-2-1.24-2.91c-.23-.48-.46-1-.7-1.43-.36-.7-.75-1.4-1.15-2.09a38.42,38.42,0,0,0-2.21-3.33c-.31-.42-.64-.84-1-1.26-.5-.62-1-1.22-1.56-1.81s-1.11-1.14-1.69-1.68-1.18-1.07-1.79-1.56-1.26-1-1.91-1.41q-.65-.44-1.32-.84a27.53,27.53,0,0,0-3.51-1.78c-.49-.2-1-.38-1.48-.55l-.76-.25c-.84-.25-1.69-.47-2.55-.64a37.23,37.23,0,0,0-11.4-.27,39.47,39.47,0,0,0-9.61,2.21c-.35.14-.7.27-1,.42a26.23,26.23,0,0,0-3,1.5c-.52.3-1,.62-1.51.95a28,28,0,0,0-3.45,2.78l-.63.62A37.47,37.47,0,0,0,170.59,259a62.62,62.62,0,0,0-2.86,11q-.25,1.41-.45,2.82-.41,2.83-.7,5.69c-.1.95-.2,1.9-.29,2.85q-.75,7.69-1.28,15.4t-.83,15.44c-.14,3.43-.24,6.87-.32,10.3,0,1.59-.05,3.18-.07,4.77a83.5,83.5,0,0,1,32.64-9.46c14.78-.95,29.24,2.7,43.13,8.18q-.08-4.89-.23-9.78C239.26,314.38,239.19,312.48,239.11,310.59Z"/><path class="cls-6" d="M239.62,337.29c0-1.76,0-3.53,0-5.29s0-3.53-.05-5.29c0-.22,0-.44,0-.66-13.89-5.48-28.35-9.13-43.13-8.18a83.5,83.5,0,0,0-32.64,9.46c0,1.84,0,3.69,0,5.54s0,3.43,0,5.15c0,.59,0,1.18,0,1.76,5.51-3,11-6.1,16.54-9,7-3.68,14.54-7.16,22.46-6.92,11.28.34,20.78,8,30.73,13.3,2,1.06,4,2,6.09,2.93,0-.91,0-1.83,0-2.74Z"/><path class="cls-5" d="M235.61,271.26c.14.75.26,1.51.38,2.26C235.87,272.77,235.75,272,235.61,271.26Z"/><path class="cls-5" d="M232.3,259c.38,1,.73,2,1.06,3C233,261,232.68,260,232.3,259Z"/><path class="cls-5" d="M231.06,256.13c.44.95.86,1.92,1.24,2.91C231.92,258.05,231.5,257.08,231.06,256.13Z"/><path class="cls-4" d="M239.62,332c0,1.76,0,3.53,0,5.29C239.63,335.53,239.63,333.76,239.62,332Z"/><path class="cls-4" d="M239.6,340.08c0-.91,0-1.83,0-2.74,0,.91,0,1.83,0,2.74Z"/><path class="cls-4" d="M239.49,347.88c0-2.6.08-5.2.11-7.8h0C239.57,342.68,239.54,345.28,239.49,347.88Z"/><path class="cls-4" d="M239.11,310.59c.08,1.89.15,3.79.22,5.68C239.26,314.38,239.19,312.48,239.11,310.59Z"/><path class="cls-4" d="M217.75,240.72q.67.41,1.32.84Q218.43,241.13,217.75,240.72Z"/><path class="cls-4" d="M221,243c.61.49,1.21,1,1.79,1.56C222.19,244,221.59,243.46,221,243Z"/><path class="cls-4" d="M226,248c.34.42.67.84,1,1.26C226.69,248.86,226.36,248.44,226,248Z"/><path class="cls-4" d="M224.46,246.21c-.55-.58-1.11-1.14-1.69-1.68C223.35,245.07,223.91,245.63,224.46,246.21Z"/><path class="cls-4" d="M164.3,358.62q-.23-5.14-.36-10.3Q164.08,353.48,164.3,358.62Z"/><path class="cls-4" d="M163.76,338c0,.59,0,1.18,0,1.76h0C163.78,339.2,163.76,338.61,163.76,338Z"/><path class="cls-4" d="M163.78,339.78h0q0,4.28.16,8.54Q163.82,344.06,163.78,339.78Z"/><path class="cls-2" d="M239.49,347.88c0,1.77-.08,3.53-.14,5.3q-.15,5.29-.38,10.59h4c.22-7.32.58-14.64,1-22-1.47-.53-2.91-1.11-4.34-1.73C239.57,342.68,239.54,345.28,239.49,347.88Z"/><path class="cls-2" d="M163.78,339.78c-2,1.09-4,2.17-6,3.22q.94,10.38,1.91,20.77h4.87c-.09-1.72-.18-3.43-.26-5.15q-.23-5.14-.36-10.3Q163.82,344.06,163.78,339.78Z"/><path class="cls-5" d="M239.6,340.08c-2.07-.89-4.11-1.87-6.09-2.93-9.95-5.33-19.45-13-30.73-13.3-7.92-.24-15.45,3.24-22.46,6.92-5.56,2.91-11,6-16.54,9q0,4.28.16,8.54.13,5.16.36,10.3c.08,1.72.17,3.43.26,5.15,0,0,7,4.08,36.31,4.08s38.1-4.08,38.1-4.08q.22-5.29.38-10.59c.06-1.77.1-3.53.14-5.3C239.54,345.28,239.57,342.68,239.6,340.08Z"/><path class="cls-5" d="M167.28,272.88q.19-1.41.45-2.82Q167.48,271.47,167.28,272.88Z"/><path class="cls-5" d="M163.75,332.87q0-5.16.11-10.31Q163.76,327.71,163.75,332.87Z"/><path class="cls-5" d="M163.86,322.56c.08-3.43.18-6.87.32-10.3C164,315.69,163.94,319.13,163.86,322.56Z"/><path class="cls-5" d="M164.18,312.26q.3-7.72.83-15.44Q164.49,304.53,164.18,312.26Z"/><path class="cls-5" d="M212.76,238.39c.5.17,1,.35,1.48.55C213.75,238.74,213.26,238.56,212.76,238.39Z"/><path class="cls-5" d="M188.44,239.44a26.61,26.61,0,0,0-9.63,6.27,26.61,26.61,0,0,1,9.63-6.27Z"/><path class="cls-5" d="M212.76,238.39l-.76-.25c-.84-.25-1.69-.47-2.55-.64.86.17,1.71.39,2.55.64Z"/><path class="cls-5" d="M166.58,278.57c-.1.95-.2,1.9-.29,2.85q-.75,7.69-1.28,15.4.54-7.71,1.28-15.4C166.38,280.47,166.48,279.52,166.58,278.57Z"/><path class="cls-5" d="M234.64,266.59a53.44,53.44,0,0,0-4.28-11.89c-.36-.7-.75-1.4-1.15-2.09.4.69.79,1.39,1.15,2.09A53.44,53.44,0,0,1,234.64,266.59Z"/><path class="cls-5" d="M239.11,310.59q-.69-15.73-2.39-31.45c-.29-2.63-.64-5.26-1.11-7.88.47,2.62.82,5.25,1.11,7.88Q238.45,294.85,239.11,310.59Z"/><path class="cls-5" d="M239.62,337.29v0Z"/><path class="cls-5" d="M239.33,316.27q.16,5.22.24,10.44Q239.5,321.49,239.33,316.27Z"/><path class="cls-1" d="M246.21,304q-.75,12.51-1.51,25c-.71,11.6-1.41,23.21-1.76,34.82l7.7-4.41s4.77-41.17,3.56-79.63C247.85,285.43,246.74,295.24,246.21,304Z"/><path class="cls-4" d="M147.9,242.72a43.55,43.55,0,0,0-11.33,18.12c-2.08,6.44-2.32,14.58,2.93,18.86,2.23,1.82,5.13,2.63,7.46,4.33l.09.07c-.63-12-1.12-22-1.28-26.94A36.13,36.13,0,0,1,147.9,242.72Z"/><path class="cls-1" d="M194.48,232.64a97.65,97.65,0,0,0,34.89-6.18c-1.36-1.11-2.06-3-1.67-6.44,4.2-36.1-40.84-63.25-56.78-16.82-4.36,12.71,4.19,20.42-6.16,24.06-7.06,2.48-13.61,7-16.86,15.46a35.6,35.6,0,0,1,11.46-7.38C170.37,231,182.66,232.68,194.48,232.64Z"/><path class="cls-1" d="M147.05,284.1c1.72,32.52,4.45,75.26,4.45,75.26l8.19,4.41L154,302.07C153.41,295.47,152.36,288.05,147.05,284.1Z"/><path class="cls-3" d="M153.5,235.06a1,1,0,0,1-.71-.3,1,1,0,0,1,0-1.43,30.73,30.73,0,0,1,11.64-7c5.24-1.84,5-4.58,4.47-9.55-.38-3.71-.85-8.32,1.06-13.88,6.4-18.64,18.59-27.86,32.61-24.68,7.55,1.71,14.73,7,19.7,14.55a41.26,41.26,0,0,1,6.44,27.4c-.36,3.07-.18,5,.55,5.81s2.17.83,4.19.87a26.2,26.2,0,0,1,6.39.72,1,1,0,1,1-.52,2,23.59,23.59,0,0,0-5.91-.65c-2.35,0-4.39-.09-5.68-1.57s-1.48-3.55-1-7.38a39.22,39.22,0,0,0-6.13-26.05c-4.67-7.1-11.4-12.09-18.45-13.69a20.69,20.69,0,0,0-16.64,3.18c-5.78,3.95-10.36,10.74-13.6,20.19-1.77,5.13-1.32,9.51-1,13,.51,5,.94,9.29-5.81,11.67a28.53,28.53,0,0,0-10.88,6.55A1,1,0,0,1,153.5,235.06Z"/><path class="cls-3" d="M250.64,360.37h-.08a1,1,0,0,1-.93-1.09c.05-.64,4.87-64.23,2.45-103.67a1,1,0,0,1,2-.12c1.26,20.69.53,47.85-.31,67-.91,20.73-2.14,36.79-2.15,36.95A1,1,0,0,1,250.64,360.37Z"/><path class="cls-3" d="M151.5,360.37a1,1,0,0,1-1-.95c0-.69-4.25-69.43-5.76-100a1,1,0,0,1,1-1.07,1,1,0,0,1,1.06,1c1.52,30.57,5.72,99.3,5.76,100a1,1,0,0,1-.95,1.07Z"/><path class="cls-7" d="M190.37,40.32c-4.36,6.54-3.38,7.18,0,10.17s-1.62,6.69-1.26,10.6,2.65,1.48,3.66,6-2,12.34-2,12.34c4,1.45,8.12-1.78,11-5,6.7-7.4,12.38-16,19.58-22.75-11.6-7.3-20.11-18.27-30.52-18.51A6.84,6.84,0,0,1,190.37,40.32Z"/><path class="cls-8" d="M163.25,59.06c9.36,2.55,16.64,9.77,23.2,16.92a11.78,11.78,0,0,0,4.35,3.45s3-7.81,2-12.34-3.31-2.1-3.66-6,4.64-7.6,1.26-10.6-4.36-3.63,0-10.17a6.84,6.84,0,0,0,.48-7.1,16.9,16.9,0,0,0-8.39,2.14c-11.54,6.09-20.35,22.37-23.09,23.58l.44.6C160.58,58.58,162.06,58.73,163.25,59.06Z"/><path class="cls-9" d="M150.05,82.1c2.88-11.21,16.72-18.85,24.73-12.34a64.1,64.1,0,0,0,16,9.67A11.78,11.78,0,0,1,186.45,76c-6.56-7.15-13.84-14.37-23.2-16.92-1.19-.33-2.67-.48-3.44.48l-.44-.6-.09,0c-2.63.88-12.59,5.79-18.07,12.4s-9.77,11.7-9.77,11.7l9-2.62A29,29,0,0,1,150.05,82.1Z"/><path class="cls-9" d="M284.29,124.88c1.1-3.57,1.33-10.73.17-18.55-1.62.65-3.8-.47-5.28-2.46-3-4-3.93-9.8-18.54-10.61s-29.16,12.89-34.57,19c-2.64,3-4.85,6.61-6.87,9a29.13,29.13,0,0,0-.29,4c19.09,40.38,56,13.06,56,13.06-.29,10,3.74,19.4,2.59,32.42s-20.73,32.46-44.19,38.19-61.46-.26-72.4-5.15S124.64,184.37,121.84,175s3.43-23.23,3.43-23.23c49.22,13.68,52.33-25.67,52.33-25.67l-2.42-8c-5.2-11.08-26.89-21-33.61-20.82-6.19.13-19.74,10.51-23.12,17.79-1.3,2.78-3.34,2.9-5.37,2a106.12,106.12,0,0,0,2.87,22c5.17,21.1-5.77,16.41-5.77,23.69,0,4.07,5.4,24.19,13.15,31.94s22.44,22.6,60.26,26.76,66-5.77,81.87-15.2S295,150.1,287.8,148.18C276.55,145.21,281.54,133.81,284.29,124.88Z"/><path class="cls-10" d="M187.76,120.92c-2-5.47-17.25-31.79-37.71-38.82a29,29,0,0,0-9.59-1.65l-9.24,1.47S119.9,88,116,97.91c-2.2,5.5-3.36,9.6-3.09,18,2,.92,4.08.8,5.37-2,3.39-7.28,10.94-12.46,16.81-14.42,14.62-4.88,24.75,2.27,35.57,12.38,2.66,2.49,6.22,6.66,7.4,7.6C183.2,123.72,190.07,127.21,187.76,120.92Z"/><path class="cls-2" d="M150.05,82.1c20.46,7,36.59,34.3,37.93,40,.45,1.94.24,4.06-9.76-1.37-1.33-.72-.08-1.68-3.3-3.4l2.68,8.83s-3.11,39.35-52.33,25.67c0,0-6.22,13.89-3.43,23.23S150,198.85,161,203.75s48.93,10.87,72.4,5.15,43-25.17,44.19-38.19-2.88-22.46-2.59-32.42c0,0-37,27.32-56-13.06a29.13,29.13,0,0,1,.29-4c-2.12,2.56-4,3.8-6.07,1.6-4-4.29,5-11.58,13.75-25.26s33.76-19.69,33.76-19.69S247,63.15,228.34,55.38a47,47,0,0,1-7-3.65c-7.2,6.78-12.88,15.35-19.58,22.75-2.87,3.17-7,6.4-11,5a64.1,64.1,0,0,1-16-9.67C166.77,63.25,152.93,70.89,150.05,82.1Z"/><path class="cls-10" d="M278.35,87.08c-2.58-4.6-2.75-3.68-7.12-5.81,0,0-9.26-1.15-11.48-1.84,0,0-24.07,4.51-32.87,18.18s-17.71,21-13.75,25.26c2,2.2,4,1,6.07-1.6s4.23-6.06,6.87-9c5.41-6.08,21.16-15.43,35.76-14.62s14.38,2.24,17.35,6.26c1.48,2,3.66,3.11,5.28,2.46A57.72,57.72,0,0,0,278.35,87.08Z"/><path class="cls-2" d="M136.28,107.82c-7.47,3.29-10.68,10.79-6.24,20.25s19.84,14.84,30.35,11,9-15.84,8.41-19.27S153,100.48,136.28,107.82Z"/><path class="cls-2" d="M259.13,101.83c-9.36,0-21.78,3-24.2,15s3.47,19,14.48,20.36,17.62-4.38,21-11.69S273.67,101.82,259.13,101.83Z"/><path class="cls-3" d="M188.21,223.16a1.09,1.09,0,0,1-.39-.08c-.26-.07-1.34-.21-2.48-.36a162.94,162.94,0,0,1-28.23-6c-15.06-4.79-26.37-11.6-33.63-20.26-10.83-12.91-15.45-27.1-14.3-33.89.57-3.37,2.67-4.94,4.52-6.33,2-1.53,3.52-2.63,3.08-5.79-.41-2.94-1.09-6.23-1.8-9.73-2.59-12.56-5.8-28.2,0-43.2A25.72,25.72,0,0,1,131.48,82c9.09-3,18.89-1.3,23.86,1.88l2.15,1.35c9.61,6,25.68,16,31.7,37.38a1,1,0,0,1-1.95.55c-5.81-20.59-21.47-30.37-30.82-36.21-.77-.48-1.5-.93-2.17-1.36-4.57-2.93-13.65-4.44-22.14-1.66A23.71,23.71,0,0,0,116.9,98.27c-5.62,14.45-2.47,29.76.06,42.07.73,3.52,1.41,6.85,1.83,9.85.6,4.34-1.78,6.12-3.87,7.69-1.7,1.28-3.3,2.48-3.74,5.05-1.09,6.43,3.8,20.25,13.86,32.25,11,13.07,31.34,21.66,60.57,25.53a12,12,0,0,1,3.07.54,1,1,0,0,1-.47,1.91Zm-.47-.12.06,0Z"/><path class="cls-3" d="M227.08,221.14a1,1,0,0,1-.11-2c27.2-2.87,42.11-16.75,49.84-27.89,8.51-12.27,12.13-26.78,11.95-35.73-.17-8.41-3-9-5.44-9.46-1.16-.24-2.36-.48-3.06-1.55-.57-.87-.64-2.11-.25-3.89.33-1.46.67-2.92,1-4.39,2.76-11.85,5.37-23.06,1.6-36.18-2.93-10.19-7.61-16.51-13.93-18.78-7.95-2.85-19,.49-32.7,9.94-17.23,11.85-23,31.17-23.05,31.36A1,1,0,1,1,211,122c.23-.82,6-20.22,23.84-32.46,14.31-9.85,25.93-13.27,34.54-10.18,7,2.49,12.07,9.27,15.19,20.13,3.91,13.62,1.12,25.61-1.58,37.19-.33,1.46-.67,2.91-1,4.37s-.2,2.09,0,2.35.94.5,1.76.66c3.48.69,6.88,2.15,7.07,11.41.17,8.59-3,23.42-12.32,36.93-8,11.49-23.33,25.8-51.29,28.74Z"/><path class="cls-3" d="M133,83.33a1,1,0,0,1-.47-.12,1,1,0,0,1-.43-1.37,58.62,58.62,0,0,1,24.13-22.9c4.14-2.07,8.85-7.35,13.41-12.45,6.52-7.3,12.67-14.2,18.58-14.33,10.21-.23,19.12,7.86,25.62,13.76,2.43,2.2,7.92,5.08,14.28,8.42,11.73,6.15,26.32,13.8,33.35,23a1,1,0,1,1-1.6,1.24c-6.76-8.81-21.14-16.35-32.69-22.4-6.48-3.41-12.08-6.34-14.7-8.72-6.5-5.91-14.58-13.24-23.83-13.24h-.39c-5,.12-11.17,7-17.11,13.65-4.68,5.25-9.53,10.68-14,12.92a57.56,57.56,0,0,0-23.24,22A1,1,0,0,1,133,83.33Z"/><path class="cls-3" d="M191.93,140.45s-7,3.34-5.42,6.22S191,147.09,191.93,140.45Z"/><path class="cls-3" d="M212.72,139.07s.75,5.76,3.76,6.33S221.11,142.53,212.72,139.07Z"/><path class="cls-3" d="M146.2,149.2a32,32,0,0,1-4.69-.34c-11.56-1.69-20-10.74-23.28-24.81a19.3,19.3,0,0,1,4-16.66C127.33,101,135,97.72,140,97.72c12.7,0,22.65,6.1,28.77,11.22a55.87,55.87,0,0,1,10.32,11.21,1,1,0,1,1-1.7,1.1s-.11-.17-.3-.43a23.06,23.06,0,0,1-7,18.84A34.44,34.44,0,0,1,146.2,149.2ZM140,99.75c-4.38,0-11.51,3.12-16.12,8.9a17.27,17.27,0,0,0-3.65,14.94c3,13.22,10.91,21.7,21.6,23.27,9.65,1.41,20.19-2,26.85-8.63A20.9,20.9,0,0,0,174.93,120a1,1,0,0,1,.66-1.1C171.11,113.24,158.4,99.75,140,99.75Z"/><path class="cls-3" d="M126.6,104.88a1,1,0,0,1-.64-.23,19.46,19.46,0,0,1-6.91-13.82,1,1,0,0,1,1-1h0a1,1,0,0,1,1,1,17.76,17.76,0,0,0,6.17,12.29,1,1,0,0,1-.64,1.79Z"/><path class="cls-3" d="M140,99.75a1,1,0,0,1-.87-.5c-4.64-7.91-1.11-17.74-1-18.16a1,1,0,0,1,1.9.7h0c0,.1-3.35,9.36.8,16.43a1,1,0,0,1-.36,1.39A1.1,1.1,0,0,1,140,99.75Z"/><path class="cls-3" d="M164,107.58a1,1,0,0,1-1-.73c-2.59-8.94,5.25-13.41,5.33-13.46a1,1,0,0,1,1.38.4,1,1,0,0,1-.4,1.37h0c-.26.15-6.5,3.76-4.37,11.13a1,1,0,0,1-.69,1.25A.9.9,0,0,1,164,107.58Z"/><path class="cls-3" d="M252,145.17c-10.58,0-18.24-2.67-22.77-7.94-4.07-4.73-5.67-11.62-4.79-20.49a37.85,37.85,0,0,0-2.71,3.6,1,1,0,0,1-1.72-1.07c.43-.69,10.75-16.9,29.95-21.08,12.43-2.71,21.42-2,26.74,2.16,3.24,2.53,4.95,6.24,5.1,11,.22,7-2.14,18-9.51,25.56C267,142.4,260.2,145.17,252,145.17Zm-25.18-31.1a.28.28,0,0,1,0,.09c-1.47,9.67-.14,17,4,21.75s11.27,7.23,21.23,7.23c7.61,0,14-2.55,18.84-7.6,6.93-7.15,9.15-17.44,8.94-24.09-.13-4.16-1.59-7.36-4.33-9.5-4.75-3.7-13.41-4.32-25.06-1.78C239.59,102.53,231.6,109.07,226.84,114.07Z"/><path class="cls-3" d="M248.29,100l-.2,0a1,1,0,0,1-.79-1.2c.74-3.6-2.24-7-3.56-8.27-1.57-1.54-3-2.22-4.2-2a1,1,0,0,1-.31-2c1.88-.3,3.88.57,5.93,2.58s5,5.72,4.12,10.13A1,1,0,0,1,248.29,100Z"/><path class="cls-3" d="M263.75,98.73a.92.92,0,0,1-.36-.07,1,1,0,0,1-.59-1.3,7.8,7.8,0,0,0,.38-2.54,23.13,23.13,0,0,0-1.94-9.6c-.8-1.8-2.2-4-4.34-4.44a1,1,0,0,1,.37-2c2.38.44,4.4,2.38,5.82,5.62a24.82,24.82,0,0,1,2.11,10.44,9.48,9.48,0,0,1-.5,3.22A1,1,0,0,1,263.75,98.73Z"/><path class="cls-3" d="M273.84,99.53a1,1,0,0,1-.57-.17A1,1,0,0,1,273,98a19.26,19.26,0,0,0,3-7.21A5.7,5.7,0,0,0,275.7,87a1,1,0,0,1,1.79-1,7.83,7.83,0,0,1,.46,5.12,21.26,21.26,0,0,1-3.28,8A1,1,0,0,1,273.84,99.53Z"/><path class="cls-3" d="M148.8,143.85c-12.25,0-22.22-8.51-22.22-19s10-19,22.22-19,22.21,8.51,22.21,19S161.05,143.85,148.8,143.85Zm0-37.13c-11.8,0-21.41,8.14-21.41,18.16S137,143,148.8,143s21.4-8.15,21.4-18.16S160.6,106.72,148.8,106.72Z"/><path class="cls-3" d="M252,139.48c-12.25,0-22.22-9.55-22.22-21.28,0-11.33,9.7-19.87,22.57-19.87,12.67,0,21.86,8.35,21.86,19.87C274.24,129.93,264.28,139.48,252,139.48Zm.35-40.34c-12.4,0-21.76,8.19-21.76,19.06,0,11.28,9.61,20.47,21.41,20.47s21.4-9.19,21.4-20.47C273.43,107.15,264.58,99.14,252.38,99.14Z"/><path class="cls-3" d="M250.63,135a16.11,16.11,0,1,1,16.11-16.11A16.13,16.13,0,0,1,250.63,135Zm0-31.4a15.3,15.3,0,1,0,15.3,15.29A15.31,15.31,0,0,0,250.63,103.57Z"/><path class="cls-3" d="M149.73,140.13c-8.88,0-16.1-6.78-16.1-15.1s7.22-15.1,16.1-15.1,16.11,6.77,16.11,15.1S158.61,140.13,149.73,140.13Zm0-29.39c-8.43,0-15.29,6.41-15.29,14.29s6.86,14.28,15.29,14.28S165,132.91,165,125,158.17,110.74,149.73,110.74Z"/><path class="cls-11" d="M167.43,185.9s12.23-9.07,27.35-10.87,40,.38,40.22,1-11.72,2.31-17.54,4.07-24.09,2.82-32.23,2.67C185.23,182.79,173.5,183,167.43,185.9Z"/><path class="cls-3" d="M147.75,178.65c-9.69,0-20.82-5.15-21.39-5.42a1,1,0,0,1-.49-1.34,1,1,0,0,1,1.35-.49c.16.08,16.4,7.59,26,4.47a66.54,66.54,0,0,0,7.57-3.31c8.72-4.19,21.91-10.53,42.74-10.79s31.38,3.26,39.17,5.83a74.19,74.19,0,0,0,7.21,2.12c15.88,3.45,27.21-10,27.32-10.12a1,1,0,1,1,1.56,1.29c-.12.15-12.24,14.52-29.31,10.81a73.52,73.52,0,0,1-7.41-2.18c-7.66-2.52-18.15-6-38.51-5.73s-32.82,6.24-41.9,10.6a68.59,68.59,0,0,1-7.81,3.4A19.69,19.69,0,0,1,147.75,178.65Z"/><circle class="cls-12" cx="149.73" cy="125.23" r="11.23"/><path class="cls-3" d="M149.73,137.48A12.25,12.25,0,1,1,162,125.23,12.25,12.25,0,0,1,149.73,137.48Zm0-22.46A10.22,10.22,0,1,0,160,125.23,10.22,10.22,0,0,0,149.73,115Z"/><circle class="cls-13" cx="150.52" cy="125.23" r="7.08"/><circle class="cls-14" cx="154.67" cy="119.69" r="2.38"/><circle class="cls-15" cx="249.41" cy="119.05" r="11.23"/><path class="cls-3" d="M249.41,131.29a12.25,12.25,0,1,1,12.24-12.24A12.25,12.25,0,0,1,249.41,131.29Zm0-22.46a10.22,10.22,0,1,0,10.22,10.22A10.23,10.23,0,0,0,249.41,108.83Z"/><circle class="cls-13" cx="250.2" cy="119.05" r="7.08"/><circle class="cls-14" cx="254.35" cy="113.5" r="2.38"/><path class="cls-3" d="M278.55,166.69a1,1,0,0,1-.49-.13,1,1,0,0,1-.39-1.38,3.72,3.72,0,0,0-4.61-5.28,1,1,0,1,1-.75-1.89,5.75,5.75,0,0,1,7.13,8.16A1,1,0,0,1,278.55,166.69Z"/><path class="cls-3" d="M126.2,177.08a1,1,0,0,1-.77-.35,6.44,6.44,0,0,1-1.53-6,4.61,4.61,0,0,1,2.61-2.76,3.71,3.71,0,0,1,3.16.06,1,1,0,0,1-.92,1.8,1.82,1.82,0,0,0-1.46,0,2.57,2.57,0,0,0-1.46,1.52,4.46,4.46,0,0,0,1.14,4.1,1,1,0,0,1-.77,1.67Z"/><path class="cls-1" d="M142,336.58c-5.49,3-11.13,6.1-17.34,6.91a20.56,20.56,0,0,1-6.86-.27,10.41,10.41,0,0,0,1.49,2.3,7.09,7.09,0,0,0,2.83,2.08,8.72,8.72,0,0,0,4.62.07c8-1.53,14.43-6.13,21.67-9.67,7.62-3.72,15.6-6.93,23.33-10.47l47.56-21.78a14.28,14.28,0,0,0,5.27-3.45c1.39-1.66,2-4.27.9-6.18a4,4,0,0,0-1.29-1.37c-.84.34-1.67.72-2.47,1.1Q181.24,315.08,142,336.58Z"/><path class="cls-1" d="M145.35,321.9c10.4-3.11,17.36-12.64,26.26-18.85.46-.32.93-.63,1.41-.94q-4.05,1.26-8.06,2.67c-8.69,3.06-17.21,6.62-25.59,10.51-3.93,1.82-8.18,3.47-12,5.76A29.29,29.29,0,0,0,145.35,321.9Z"/><path class="cls-2" d="M218.53,293.71a179.75,179.75,0,0,0-45.51,8.4c-.48.31-1,.62-1.41.94-8.9,6.21-15.86,15.74-26.26,18.85a29.29,29.29,0,0,1-18-.85,25,25,0,0,0-7.75,6.87c-3.05,4.29-4.13,10.61-1.87,15.3a20.56,20.56,0,0,0,6.86.27c6.21-.81,11.85-3.91,17.34-6.91q39.27-21.49,79.71-40.73c.8-.38,1.63-.76,2.47-1.1C222.59,293.72,220.42,293.62,218.53,293.71Z"/><path class="cls-3" d="M124.21,349a7.19,7.19,0,0,1-2.49-.41c-1.24-.45-5.37-2.4-6.5-8.39a1,1,0,0,1,2-.38c.9,4.81,3.93,6.41,5.2,6.87a7.73,7.73,0,0,0,4.08,0c5.64-1.07,10.42-3.69,15.49-6.45,1.91-1.05,3.89-2.13,5.92-3.13,4.63-2.26,9.46-4.36,14.13-6.4,3-1.32,6.18-2.69,9.23-4.08l47.55-21.78a13.42,13.42,0,0,0,4.92-3.18c1.07-1.27,1.71-3.46.81-5s-2.7-2.06-6-1.91c-16.74.75-34.67,4.46-53.28,11-8.23,2.9-16.57,6.32-25.5,10.47-1.09.51-2.23,1-3.33,1.49l-1.29.58a1,1,0,0,1-1.34-.52,1,1,0,0,1,.52-1.33l1.29-.58c1.1-.48,2.22-1,3.3-1.48,9-4.17,17.39-7.62,25.68-10.54,18.8-6.63,36.92-10.37,53.86-11.14,2.56-.11,6.15.07,7.82,2.92,1.45,2.49.5,5.55-1,7.34a15.08,15.08,0,0,1-5.63,3.72l-47.56,21.78c-3.06,1.4-6.21,2.77-9.26,4.1-4.65,2-9.46,4.12-14,6.36-2,1-3.94,2-5.84,3.08-5,2.73-10.13,5.54-16.08,6.68A15.06,15.06,0,0,1,124.21,349Z"/><path class="cls-1" d="M257,323.59c-18.77-6.12-38-10.57-57.26-15-12.36-2.86-25.7-5.6-37.79-3.07a24.1,24.1,0,0,0,4.71,1.64l56.89,15.28c9.25,2.49,18.73,4.59,27.89,7.28,8.7,2.56,16.63,6.36,25.89,6.7a10.54,10.54,0,0,0,5.17-.8,7.73,7.73,0,0,0,2.83-2.62,11.52,11.52,0,0,0,1.92-6.92,21.24,21.24,0,0,1-6.75,1.95C272.47,328.89,264.6,326.08,257,323.59Z"/><path class="cls-2" d="M257.83,304.56c-10-2.75-20.18-5.13-30.42-7-20.4-3.65-41.26-5.17-61.93-3.16-2.85.28-6.2,1-7.35,3.61-.94,2.17.19,4.8,2,6.31a9.71,9.71,0,0,0,1.77,1.14c12.09-2.53,25.43.21,37.79,3.07,19.23,4.45,38.49,8.9,57.26,15,7.64,2.49,15.51,5.3,23.5,4.42a21.24,21.24,0,0,0,6.75-1.95A17.23,17.23,0,0,0,282,314.65C275.57,308.39,266.17,306.84,257.83,304.56Z"/><path class="cls-3" d="M278.2,337.43l-.95,0c-6.84-.25-13.06-2.37-19.08-4.43-2.29-.79-4.66-1.6-7.06-2.3-5.52-1.63-11.25-3.06-16.8-4.45-3.64-.91-7.39-1.84-11.06-2.83l-56.89-15.28c-2.27-.61-4.84-1.3-6.86-3s-3.47-4.79-2.3-7.49c1.39-3.2,5.34-3.94,8.19-4.21,19.12-1.87,40.05-.8,62.2,3.16,9.77,1.75,19.75,4,30.51,7,1.29.36,2.64.7,3.94,1l1.55.4a1,1,0,0,1-.51,2l-1.54-.39-4-1c-10.69-2.93-20.61-5.2-30.33-6.94-22-3.93-42.71-5-61.65-3.15-2.34.23-5.55.79-6.52,3-.77,1.78.29,3.93,1.73,5.12,1.69,1.4,4,2,6.09,2.58l56.9,15.28c3.64,1,7.39,1.92,11,2.83,5.57,1.39,11.33,2.83,16.89,4.46,2.43.72,4.82,1.54,7.14,2.33,6.15,2.1,11.95,4.09,18.49,4.33a9.66,9.66,0,0,0,4.68-.7c1.36-.68,4.54-2.84,4.78-8a1,1,0,1,1,2,.1,11.15,11.15,0,0,1-5.88,9.74A10.35,10.35,0,0,1,278.2,337.43Z"/><path class="cls-2" d="M183.37,292.28c-2.56-3.17-13-5.79-16.77-6.22-7.43-.86-14.83,3.06-19.63,8.79-3.95,4.71-6.35,10.48-7.92,16.45,1.85-1.66,3.77-3.25,5.75-4.75,4.07-3.09,8.58-5.91,13.64-6.56,6.57-.86,12.87,2,18.73,5.32l.05,0C181.6,303.51,187.13,297,183.37,292.28Z"/><path class="cls-1" d="M158.44,300c-5.06.65-9.57,3.47-13.64,6.56-2,1.5-3.9,3.09-5.75,4.75-.34,1.29-.64,2.6-.91,3.9.37-1.92,17.81-6.8,20.22-7.71,6.43-2.43,12.49.36,18.81-2.18C171.31,302,165,299.13,158.44,300Z"/><path class="cls-3" d="M138.14,316.21a.68.68,0,0,1-.2,0,1,1,0,0,1-.8-1.18v0c1.85-8.93,4.81-15.73,9-20.78,5.43-6.48,13.29-10,20.52-9.15,3.85.44,15.88,4.36,18.69,7.86a1,1,0,1,1-1.57,1.27c-2.22-2.75-13.43-6.66-17.35-7.12-6.56-.75-13.74,2.48-18.74,8.44-3.6,4.3-6.24,10-8,17.34,2.33-1.12,6.68-2.66,14.69-5.15,1.72-.53,3.07-.95,3.6-1.15,1.71-.65,6.91-.85,9.67-.16a1,1,0,1,1-.49,2,21.8,21.8,0,0,0-8.46.09c-.59.22-1.9.63-3.72,1.2-4,1.26-14.72,4.57-15.91,5.91A1,1,0,0,1,138.14,316.21Z"/><path class="cls-2" d="M222.05,299.12c14.83,1.81,26.82,5.85,39,9.51a20.56,20.56,0,0,0,4.74,1c1.79.11,3.93-.22,4.37-.89.33-.51-.38-1-1.11-1.47-6.09-3.78-14.63-7-24.67-9.27q12,3.38,24.42,6.52a18.26,18.26,0,0,0,4,.67c1.47,0,3.13-.27,3.36-.82.15-.34-.27-.67-.7-1-6-4.3-15.47-7.9-26.82-10.21q12.21,3.24,24.74,6.33a7,7,0,0,0,3.22.2c1.07-.32.42-1-.32-1.39-8.65-5-21.29-9.32-36.76-10.59a44.24,44.24,0,0,0-9.35,0,18.53,18.53,0,0,0-7.31,2.53c-4.28,2.67-5.14,6.08-2.28,9"/><path class="cls-3" d="M266.44,310.63c-.39,0-.65,0-.7,0a21.48,21.48,0,0,1-5-1c-3.4-1-7.27-2.33-11.38-3.72-10.82-3.66-23.09-7.81-33.7-9.1a1,1,0,0,1-.88-1.13,1,1,0,0,1,1.13-.88c10.81,1.31,23.19,5.5,34.1,9.19,4.09,1.38,8,2.69,11.32,3.69a18.94,18.94,0,0,0,4.51.94,9.47,9.47,0,0,0,3-.27c-.09-.07-.21-.14-.34-.22a66.91,66.91,0,0,0-14.17-6.34q-5.18-1.38-10.24-2.81a1,1,0,0,1,.49-2c3.65.83,7.1,1.78,10.31,2.84,4.67,1.25,9.4,2.49,14.13,3.69a17.72,17.72,0,0,0,3.77.64,7.72,7.72,0,0,0,1.79-.14,56.39,56.39,0,0,0-14.54-6.83c-3.94-1-7.85-2-11.7-3.06a1,1,0,0,1,.46-2,107,107,0,0,1,11.77,3.08c4.32,1.1,8.67,2.19,13,3.26a11.23,11.23,0,0,0,1.41.26c-9.65-5.38-22.25-8.94-35.59-10a44.23,44.23,0,0,0-9.13,0c-1.43.2-9.29,3.73-12.25,5.05l-1.85.83a1,1,0,1,1-.79-1.87l1.81-.8c6.66-3,11.38-5,12.8-5.21a45.89,45.89,0,0,1,9.58-.05c14,1.15,27.18,5,37.17,10.72,1,.58,1.47,1.24,1.39,1.95a1.55,1.55,0,0,1-1.28,1.29,7.38,7.38,0,0,1-3.75-.19l-.62-.15a37.63,37.63,0,0,1,3.53,2.23c.42.29,1.52,1.08,1.05,2.2-.63,1.48-3.72,1.46-4.33,1.44a19.55,19.55,0,0,1-4.2-.71l-.89-.22c.67.37,1.31.74,1.93,1.13a3.14,3.14,0,0,1,1.63,1.74,1.47,1.47,0,0,1-.22,1.15C270.23,310.48,267.69,310.63,266.44,310.63Z"/><path class="cls-16" d="M73.61,226,57.7,250.71a4.4,4.4,0,0,0,3.7,6.78h3.92v32.83a4.4,4.4,0,0,0,4.4,4.4H84.9a4.4,4.4,0,0,0,4.4-4.4V257.49h3.92a4.4,4.4,0,0,0,3.7-6.78L81,226A4.4,4.4,0,0,0,73.61,226Z"/><path class="cls-17" d="M84.9,295.73H69.72a5.42,5.42,0,0,1-5.41-5.41V258.51H61.4a5.4,5.4,0,0,1-4.55-8.34l15.91-24.7h0A5.39,5.39,0,0,1,77.31,223h0a5.39,5.39,0,0,1,4.55,2.48l15.91,24.7a5.4,5.4,0,0,1-4.55,8.34H90.31v31.81A5.42,5.42,0,0,1,84.9,295.73ZM74.46,226.56l-15.91,24.7a3.39,3.39,0,0,0,2.85,5.22h3.92a1,1,0,0,1,1,1v32.83a3.39,3.39,0,0,0,3.39,3.39H84.9a3.39,3.39,0,0,0,3.39-3.39V257.49a1,1,0,0,1,1-1h3.92a3.39,3.39,0,0,0,2.85-5.22l-15.91-24.7a3.38,3.38,0,0,0-5.7,0Z"/><path class="cls-18" d="M303.94,63.62v.52a3.32,3.32,0,0,0,5.66,2.35l9.3-9.29a6.65,6.65,0,0,1,9.41,0L337.15,66a3.32,3.32,0,0,0,5.66-2.35h0a3.31,3.31,0,0,0-1-2.34L328,47.55a6.65,6.65,0,0,0-9.41,0L304.92,61.28A3.28,3.28,0,0,0,303.94,63.62Z"/><path class="cls-19" d="M307.29,68.69a4.54,4.54,0,0,1-1.76-.36,4.45,4.45,0,0,1-2.8-4.19v-.52a4.47,4.47,0,0,1,1.33-3.2l13.71-13.73a7.84,7.84,0,0,1,5.57-2.3h0a7.82,7.82,0,0,1,5.56,2.3l13.8,13.8a4.53,4.53,0,0,1-6.41,6.41l-8.84-8.84a5.43,5.43,0,0,0-7.69,0l-9.3,9.29A4.43,4.43,0,0,1,307.29,68.69Zm16-21.87h0a5.43,5.43,0,0,0-3.85,1.59L305.78,62.14a2.07,2.07,0,0,0-.62,1.48v.52a2.11,2.11,0,0,0,3.59,1.49L318,56.34a7.88,7.88,0,0,1,11.13,0L338,65.18a2.1,2.1,0,1,0,3-3l-13.8-13.8A5.37,5.37,0,0,0,323.34,46.82Z"/><path class="cls-18" d="M303.94,82.94v.52a3.32,3.32,0,0,0,5.66,2.34l9.3-9.29a6.65,6.65,0,0,1,9.41,0l8.84,8.84A3.31,3.31,0,0,0,342.81,83h0a3.33,3.33,0,0,0-1-2.35L328,66.87a6.65,6.65,0,0,0-9.41,0L304.92,80.59A3.3,3.3,0,0,0,303.94,82.94Z"/><path class="cls-19" d="M307.29,88a4.54,4.54,0,0,1-1.76-.36,4.44,4.44,0,0,1-2.8-4.18v-.53a4.5,4.5,0,0,1,1.33-3.2L317.77,66a7.81,7.81,0,0,1,5.57-2.31h0A7.79,7.79,0,0,1,328.9,66L342.7,79.8A4.51,4.51,0,0,1,344,83a4.54,4.54,0,0,1-7.74,3.2l-8.84-8.84a5.44,5.44,0,0,0-7.69,0l-9.3,9.29A4.43,4.43,0,0,1,307.29,88Zm16-21.87h0a5.4,5.4,0,0,0-3.85,1.6L305.78,81.45a2.07,2.07,0,0,0-.62,1.48v.53a2.1,2.1,0,0,0,3.59,1.48L318,75.65a7.88,7.88,0,0,1,11.13,0L338,84.49A2.1,2.1,0,0,0,341.6,83a2.1,2.1,0,0,0-.62-1.49l-13.8-13.79A5.38,5.38,0,0,0,323.34,66.13Z"/><path class="cls-18" d="M303.94,101.64v.52a3.32,3.32,0,0,0,5.66,2.35l9.3-9.3a6.65,6.65,0,0,1,9.41,0l8.84,8.84a3.31,3.31,0,0,0,5.66-2.34h0a3.35,3.35,0,0,0-1-2.35L328,85.57a6.65,6.65,0,0,0-9.41,0L304.92,99.29A3.32,3.32,0,0,0,303.94,101.64Z"/><path class="cls-19" d="M307.29,106.7a4.53,4.53,0,0,1-1.76-.35,4.46,4.46,0,0,1-2.8-4.19v-.52a4.51,4.51,0,0,1,1.33-3.21l13.71-13.72a7.81,7.81,0,0,1,5.57-2.31h0a7.79,7.79,0,0,1,5.56,2.31L342.7,98.5a4.53,4.53,0,1,1-6.41,6.41l-8.84-8.84a5.44,5.44,0,0,0-7.69,0l-9.3,9.29A4.43,4.43,0,0,1,307.29,106.7Zm16-21.86h0a5.39,5.39,0,0,0-3.85,1.59l-13.71,13.72a2.1,2.1,0,0,0-.62,1.49v.52a2.11,2.11,0,0,0,3.59,1.49l9.29-9.3a7.88,7.88,0,0,1,11.13,0l8.84,8.84a2.1,2.1,0,0,0,3.59-1.48,2.1,2.1,0,0,0-.62-1.49l-13.8-13.79A5.37,5.37,0,0,0,323.34,84.84Z"/></g></svg>