<svg xmlns="http://www.w3.org/2000/svg" xmlns:xlink="http://www.w3.org/1999/xlink" viewBox="0 0 400 400"><defs><style>.cls-1{fill:gray;}.cls-2{fill:#666;}.cls-3{fill:#333;}.cls-4{fill:#feec30;}.cls-5{fill:#5ea837;}.cls-6{fill:#7fe247;}.cls-7{fill:#175807;}.cls-8{fill:#0bab92;}.cls-9{fill:#06f5e2;}.cls-10{fill:#53a22f;}.cls-11{fill:#5fa835;}.cls-12{fill:#83e145;}.cls-13{fill:url(#linear-gradient);}.cls-14{fill:#060203;}.cls-15{fill:#fff;}.cls-16{fill:url(#linear-gradient-2);}.cls-17{fill:#1d1d1b;}</style><linearGradient id="linear-gradient" x1="-4560" y1="832.79" x2="-4560" y2="808.74" gradientTransform="matrix(-0.94, 0.34, 0.34, 0.94, -4378.96, 917.62)" gradientUnits="userSpaceOnUse"><stop offset="0" stop-color="#e8af15"/><stop offset="0.04" stop-color="#d69a16"/><stop offset="0.11" stop-color="#b87817"/><stop offset="0.19" stop-color="#9e5b18"/><stop offset="0.28" stop-color="#8a4319"/><stop offset="0.39" stop-color="#7a3119"/><stop offset="0.51" stop-color="#6e241a"/><stop offset="0.66" stop-color="#681c1a"/><stop offset="1" stop-color="#661a1a"/></linearGradient><linearGradient id="linear-gradient-2" x1="5760.94" y1="-1028.52" x2="5760.94" y2="-1049.1" gradientTransform="translate(-5570.21 -46.51) rotate(12.14)" xlink:href="#linear-gradient"/></defs><title>i</title><g id="Capa_7" data-name="Capa 7"><path class="cls-1" d="M262.7,351.27a237.28,237.28,0,0,0-27.06-89.79c5.62-18.72,9-11.79,14.71-9.27s13.13,24.3,16.57,42,6.91,44.95,7.18,78l-11.57-.28C262.83,365,263.34,358.2,262.7,351.27Z"/><path class="cls-2" d="M235.64,261.48a237.28,237.28,0,0,1,27.06,89.79c.64,6.93.13,13.69-.17,20.65l-12.18.28s-20.61-90.65-14.88-110.12C235.53,261.87,235.58,261.68,235.64,261.48Z"/><path class="cls-3" d="M273.28,372.94h-.07a1,1,0,0,1-.95-1.08c2.13-32.62-1.91-65.84-12-98.75-2.89-9.45-7.47-20.76-17.24-24.35a1,1,0,1,1,.7-1.9c10.61,3.9,15.45,15.76,18.48,25.66,10.15,33.14,14.22,66.61,12.08,99.47A1,1,0,0,1,273.28,372.94Z"/><path class="cls-3" d="M249.52,373a1,1,0,0,1-1-.82c-6.57-35.07-11.15-66.8-14-97-.75-8-1.09-16.4,3.68-22.7a1,1,0,1,1,1.61,1.22c-4.33,5.73-4,13.66-3.27,21.29,2.83,30.15,7.4,61.82,14,96.82a1,1,0,0,1-.81,1.19Z"/><path class="cls-4" d="M169.76,279c.46-7.1,1.36-14.48,5.24-20.44,5.88-9,18.08-12.86,28.52-10.17s18.86,11.09,23.07,21c2.91,6.82,4,14.25,4.88,21.61A459.31,459.31,0,0,1,234,371.45H170.7C171.93,340.82,167.76,309.71,169.76,279Z"/><path class="cls-5" d="M149.28,265.11c3.87,6.59,3.17-1.88,4.66,5.62,8.22,41.33.61,72.67.59,100.72H131s.13-64.95,2.17-88.77a98.54,98.54,0,0,1,5.63-25.38A17.27,17.27,0,0,1,149.28,265.11Z"/><path class="cls-6" d="M225.57,226.3c3.27,8.39,7.48,16,15.52,23.25,0,0,2.63,4.22,2.61,37.35s-1.64,59.26-5.54,84.55H234A459.31,459.31,0,0,0,231.47,291c-.89-7.36-2-14.79-4.88-21.61-4.21-9.92-12.64-18.31-23.07-21s-22.64,1.14-28.52,10.17c-3.88,6-4.78,13.34-5.24,20.44-2,30.73,2.17,61.84.94,92.47H154.53c-4.31-26.59,3.79-40.77-1.33-99.23-.67-7.61,0-.52-3.92-7.11a17.27,17.27,0,0,0-10.52-7.81c2.9-8.08,6.22-14.84,8.48-21.5,19.37-2.94,39.3-1.36,58.81-3.69C212.73,231.32,219.87,229.66,225.57,226.3Z"/><path class="cls-5" d="M159,199.49c4.71-5.5,14-21.11,34.58-15s24.63,20.37,28.67,32.51c1.07,3.2,2.12,6.29,3.3,9.29-5.7,3.36-12.84,5-19.52,5.81-19.51,2.33-36.84,10.7-56.22,13.64.46-1.36-6.26-4.19-5.25-5.17C150.36,235,154.3,205,159,199.49Z"/><path class="cls-7" d="M131,372.52a1,1,0,0,1-1-1c-.51-20.58-.13-38.29.41-59.3.59-22.79,2-46.82,11.46-68.11.65-1.46,1.34-2.92,2-4.33,1.3-2.73,2.64-5.55,3.68-8.41a97.78,97.78,0,0,0,3.24-12c1.3-5.82,2.65-11.83,5.49-17.23a34.89,34.89,0,0,1,61.21-1c2.78,4.88,4.31,10.34,5.79,15.62.85,3,1.73,6.13,2.82,9.08a57.6,57.6,0,0,0,16.32,23.5,1,1,0,0,1-1.33,1.54,59.66,59.66,0,0,1-16.89-24.33c-1.12-3-2-6.19-2.87-9.24-1.45-5.16-3-10.5-5.6-15.17a33.76,33.76,0,0,0-28.62-16.62h-.49A33.74,33.74,0,0,0,158,203.07c-2.72,5.17-4,11-5.31,16.73a98.27,98.27,0,0,1-3.31,12.28c-1.07,2.95-2.43,5.81-3.75,8.58-.67,1.4-1.36,2.85-2,4.29-9.35,20.94-10.7,44.75-11.28,67.34-.55,21-.92,38.66-.42,59.19a1,1,0,0,1-1,1Z"/><path class="cls-7" d="M240.88,267.21q.92,10,1.39,20.08c.3,6.6.46,13.2.44,19.8s-.2,13.11-.56,19.66-.91,13.21-1.63,19.79-1.63,13.11-2.72,19.66l-.42,2.48a1.52,1.52,0,1,0,2.93.81q1.74-10.07,2.94-20.21,1.16-9.88,1.78-19.81t.7-19.75q.11-9.93-.31-19.87t-1.28-20.13c-.07-.84-.14-1.67-.22-2.51a1.52,1.52,0,1,0-3,0Z"/><path class="cls-2" d="M160.29,345.43c2.06-7.08,6.33-14.09,4.78-21.3-.69-3.18-2.45-6-4-8.81-6.89-12.16-11.2-26.14-10-40.07,1-11.93,6.43-23.75,15.51-31.39-8.49-7.29-15.33-13.66-16.38-16.07-3-6.93-9.53,12.57-9.53,12.57s1.3-7.8-6.94,16.47S126.28,373,126.28,373h35.07l-.09-.3C158.63,363.85,157.72,354.28,160.29,345.43Z"/><path class="cls-1" d="M249.35,280.23c-.43-29.47-6.5-42-15.17-49l-29.9,43.34s-21.81-17-37.79-30.74C157.41,251.5,152,263.32,151,275.25c-1.16,13.93,3.15,27.91,10,40.07,1.6,2.82,3.36,5.63,4,8.81,1.55,7.21-2.72,14.22-4.78,21.3-2.57,8.85-1.66,18.42,1,27.24l.09.3h82.8S249.76,308.24,249.35,280.23Z"/><path class="cls-3" d="M244.33,373.85h-.09a1,1,0,0,1-.92-1.1c.06-.64,5.6-65,5.2-92.63-.08-5-.32-9.62-.72-13.8a1,1,0,1,1,2-.2c.41,4.24.65,8.94.72,14,.41,27.73-5.14,92.19-5.2,92.84A1,1,0,0,1,244.33,373.85Z"/><path class="cls-3" d="M126.45,373.85a1,1,0,0,1-1-1c0-3.76-.77-92.32,7.42-116.48,2.28-6.71,4-11.61,5.25-14.55,1.06-2.59,1.61-3.65,2.35-3.79.49-1.35,1.23-3.25,2.1-5.19,3-6.7,4.81-7.62,6.05-7.68.76,0,1.82.3,2.61,2.1,2.36,5.39,38.27,34.22,53,45.75l29.29-42.45a1,1,0,0,1,.69-.43,1,1,0,0,1,.78.21c4.11,3.29,11.2,13.19,13.36,24a1,1,0,1,1-2,.4,46.64,46.64,0,0,0-11.82-22.09L205.29,275a1,1,0,0,1-.68.43,1,1,0,0,1-.77-.2c-2.1-1.64-51.38-40.11-54.48-47.2-.28-.65-.55-.88-.65-.88h0c-1.37.06-4.64,6.3-7,13.36a1,1,0,0,1-1.16.67c-.83,1.87-2.49,6.12-5.78,15.8-8.08,23.83-7.32,114.9-7.31,115.81a1,1,0,0,1-1,1Z"/><path class="cls-6" d="M240.25,240.78c-19,1.09-46.87-2.19-46.43.65s66-31.94,70.66-25.25-1,7.87-38.1,13.19-69.62-19.22-83-50.93,3.43-78.14,6.13-92.53.59-12.18.22-15.92c3.37-.73,6.72-1.62,10.05-2.51l11.48-3.06a44.11,44.11,0,0,1,9.36-1.8c4.94-.23,9.8,1.2,14.55,2.6l22,6.53a2.78,2.78,0,0,0,1.5.16c1-.29,1.37-1.62,1.28-2.69-.27-3.3-2.58-6-4.85-8.43s-4.45-4.58-6.76-6.78c3.11,1.72,5.71,3.14,7.35,3.93,6.64,3.23,24.32,10,38.15,17.57a39.77,39.77,0,0,1,18,19.77c3.33,6.32,22.14,59.61,21.37,70.82s-2.31,37.14-2.31,37.14c7.33,2.26,3.66,10.14,3.66,10.14-.64,4-15,16.44-20.55,18.84C265.64,235.77,255,239.94,240.25,240.78Z"/><path class="cls-8" d="M149.31,39.24a18.66,18.66,0,0,1,7.2-2.9,4.68,4.68,0,0,1-1.39,3.22c-3,3.06-6.59,4.48-2.9,9.11s-.06,4.43-.89,7.26,2.47.71,1.66,5.92-3.67,4.4-3.3,8.14a72.13,72.13,0,0,1-10.18,1.54C141.05,58.2,143.51,43.19,149.31,39.24Z"/><path class="cls-9" d="M219.91,69.22c.09,1.07-.24,2.4-1.28,2.69a2.78,2.78,0,0,1-1.5-.16l-22-6.53c-4.75-1.4-9.61-2.83-14.55-2.6a44.11,44.11,0,0,0-9.36,1.8l-11.48,3.06c-3.33.89-6.68,1.78-10.05,2.51-.37-3.74,2.48-2.93,3.3-8.14s-2.48-3.09-1.66-5.92,4.58-2.64.89-7.26-.05-6.05,2.9-9.11a4.68,4.68,0,0,0,1.39-3.22c7.65-1.41,16.06,1.24,22.1,2.84S198.83,48.78,208.3,54q3.47,3.3,6.76,6.78C217.33,63.2,219.64,65.92,219.91,69.22Z"/><path class="cls-5" d="M149.47,85.91c-2.7,14.39-19.54,60.82-6.13,92.53s46,56.25,83,50.93,42.73-6.5,38.1-13.19-39.92-4.35-45-7.08c-2.52-1.37,20.41-8.28,54.69,1.27,14.23,4,14.75,7.19,12.81,11.43-16.34,18.84-38.64,19.27-63.31,20-38,1.11-91.19-15-98.62-54.74-2.71-14.53-.67-33.95.55-43.79s9.75-41.48,11.72-53.08c.71-4.18,1.28-11.15,2.15-18.66A72.13,72.13,0,0,0,149.69,70C150.06,73.73,152.17,71.51,149.47,85.91Z"/><path class="cls-10" d="M286.11,109.23s16,9.5,18.75,24.39.1,30.6-19.83,43.44C285,177.06,256.46,140.64,286.11,109.23Z"/><path class="cls-11" d="M232.71,125.5c-3,14.61-11.36,32.81-28.75,41.37s-37.76,5.73-47.12-3.15-12.71-23.52,2.62-44.78S240.23,88.93,232.71,125.5Z"/><path class="cls-9" d="M235.05,131.06c-1.84,8.1-13.34,13.4-15.27,2.39s-2.34-25.23-22.45-32-36.28,10.09-38.63,12.87-6.46,12.3-6.95,18.15-14.5,15-9.63-9.42c5.34-26.7,20.87-40.56,46-42.78C209.66,78.33,242.36,99,235.05,131.06Z"/><path class="cls-10" d="M197.8,101.18c11.85,3.9,21.68,13.44,24.86,21.78s1.06,31.19-22.06,39.36-38.21-6.74-42.36-12.63A30.74,30.74,0,0,1,158,116c8.17-13.19,24.06-19.63,38.91-15.13Z"/><path class="cls-7" d="M187.38,165.91a37.82,37.82,0,0,1-30.14-15.52,31.88,31.88,0,0,1-.24-35c8.55-13.82,25.12-20.25,40.29-15.65l.89.28h0c11.29,3.73,22.07,13.19,25.61,22.51,1.84,4.83,2,14-2,22.65-2.77,6-8.61,14-20.75,18.29A40.84,40.84,0,0,1,187.38,165.91Zm0-65.21a33.42,33.42,0,0,0-28.28,16,29.41,29.41,0,0,0,.16,32.32,37,37,0,0,0,13.6,11.19c8.5,4.08,17.71,4.41,27.37,1,11.34-4,16.78-11.47,19.35-17,3.73-8,3.63-16.4,2-20.76-2.84-7.46-12-17.09-24.1-21.07h0l-.83-.26A31.64,31.64,0,0,0,187.35,100.7Z"/><path class="cls-9" d="M298.47,118.57s-1.21-20.36-11-25.33-19.59-2.78-23.74,13.28-4.13,23.31-.32,30.08,6.77,15.61,10.65,12c0,0-1.26-17,3.55-24.15S291.23,106.25,298.47,118.57Z"/><path class="cls-11" d="M294.55,170.11s-.38,11.88-4.05,14.27-11.19-14-10.46-18.77S294.55,170.11,294.55,170.11Z"/><path class="cls-7" d="M161.12,229.59a.78.78,0,0,1-.26,0c-.52-.13-12.84-3.54-23.63-16.53A65.66,65.66,0,0,1,124,185.31c-3.05-13.42-3-29.15.12-46.75,1.05-5.85,2.45-10.92,3.94-16.28a247.94,247.94,0,0,0,8.64-44.81c4-35.78,7.69-38.78,14.47-41.35,15.72-6.24,39,7,52.86,14.85l2.54,1.44c6.43,3.62,14.31,6.76,21.93,9.8,8.76,3.49,17,6.78,22.71,10.6,10.57,7.11,20.07,20.08,20.47,20.63a1,1,0,0,1-.22,1.41,1,1,0,0,1-1.42-.22c-.1-.13-9.69-13.23-20-20.14-5.5-3.69-13.67-6.95-22.33-10.4-7.68-3.06-15.63-6.23-22.17-9.91L203,52.73C189.47,45,166.75,32.12,151.92,38c-6,2.29-9.37,5.09-13.19,39.68A249.18,249.18,0,0,1,130,122.83c-1.47,5.31-2.87,10.33-3.89,16.09-3.08,17.29-3.14,32.72-.16,45.85a63.64,63.64,0,0,0,12.74,26.86c10.37,12.54,22.55,15.93,22.67,16a1,1,0,0,1-.26,2Z"/><path class="cls-7" d="M263.88,137.81a1,1,0,0,1-.95-.65c-6.11-16.17.89-32.85,3.19-37.57,2.51-5.18,6.44-8.59,11.07-9.61a14.27,14.27,0,0,1,12.22,3.3c8,6.51,10.31,26.75,10.41,27.6a1,1,0,0,1-.9,1.12,1,1,0,0,1-1.12-.89c0-.2-2.35-20.27-9.67-26.26a12.34,12.34,0,0,0-10.5-2.9c-4,.89-7.46,3.91-9.69,8.52s-8.94,20.56-3.11,36a1,1,0,0,1-.59,1.31A1.13,1.13,0,0,1,263.88,137.81Z"/><path class="cls-7" d="M234.72,133.53a1.45,1.45,0,0,1-.29,0,1,1,0,0,1-.69-1.26,39.64,39.64,0,0,0-10.33-36.31c-16.09-16.76-38.49-18.3-52.31-11.17-14.64,7.56-22.56,16.65-27.34,31.37a1,1,0,1,1-1.92-.63c4.89-15.08,13.36-24.81,28.33-32.54,14.48-7.48,37.92-5.91,54.7,11.57a41.54,41.54,0,0,1,11.74,25.69,37.74,37.74,0,0,1-.92,12.59A1,1,0,0,1,234.72,133.53Z"/><path class="cls-7" d="M285,178.07a1,1,0,0,1-.39-1.95c.08,0,6.29-2.73,12-11s11.48-19.26,6.7-33.08A38.87,38.87,0,0,0,295,118a21.92,21.92,0,0,0-4.75-3.94,1,1,0,1,1,1-1.79c.37.2,9.08,5,14,19.18,5.09,14.68-1,26.36-6.94,34.89-6.06,8.76-12.59,11.56-12.87,11.67A.91.91,0,0,1,285,178.07Z"/><path class="cls-7" d="M289.71,203.78a1.25,1.25,0,0,1-.32-.05,1,1,0,0,1-.64-1.28c3.92-11.91,4.78-32.17,4.78-32.38a1,1,0,0,1,1.06-1,1,1,0,0,1,1,1.05c0,.85-.88,20.75-4.89,32.93A1,1,0,0,1,289.71,203.78Z"/><path class="cls-7" d="M215.68,242.47c-10.21,0-19.11-.39-23.85-.78a1,1,0,0,1,.17-2c6.82.56,19.58,1,32.71.66,11.31-.27,26.88-1.22,36.9-4.14,18.7-5.45,32.61-19.28,32.51-25.58-.05-3.08-.11-6.57-20.08-11-31.47-7.22-51.18-9.17-62.17-9.53-11.92-.39-16.47.94-16.51.95a1,1,0,0,1-1.27-.67,1,1,0,0,1,.67-1.26c.74-.23,18.74-5.46,79.72,8.53,18.31,4,21.57,7.37,21.66,12.91.13,7.91-15.51,22.17-34,27.55C250.56,241.52,231.53,242.47,215.68,242.47Z"/><path class="cls-7" d="M259,169.36s5.1,3.8,4,5.52S259,176.4,259,169.36Z"/><path class="cls-7" d="M243.68,168.08s-1.88,5.66-4,5.29S237.51,171.3,243.68,168.08Z"/><ellipse class="cls-10" cx="188.23" cy="132.49" rx="24.74" ry="26.54" transform="translate(39.7 308.35) rotate(-84.96)"/><path class="cls-7" d="M188.6,157.65c-.86,0-1.72,0-2.58-.11-14.8-1.31-25.85-13.6-24.63-27.41h0c1.22-13.81,14.25-24,29.05-22.68s25.84,13.6,24.62,27.41a24.18,24.18,0,0,1-9.43,17A27.57,27.57,0,0,1,188.6,157.65ZM162.19,130.2c-1.18,13.36,9.54,25.27,23.9,26.53a27,27,0,0,0,19-5.48,23.36,23.36,0,0,0,9.13-16.46c1.18-13.36-9.54-25.27-23.9-26.53s-27,8.57-28.17,21.94Z"/><ellipse class="cls-12" cx="188.39" cy="132.7" rx="18.91" ry="21.37" transform="translate(14.46 283.86) rotate(-76.15)"/><path class="cls-7" d="M189.63,152.17a24,24,0,0,1-5.86-.72c-11.66-2.87-19.07-13.62-16.53-24h0c2.55-10.34,14.11-16.42,25.77-13.55a23.15,23.15,0,0,1,13.59,9.16,17.81,17.81,0,0,1-6.55,26.56A22.48,22.48,0,0,1,189.63,152.17ZM168,127.68c-2.44,9.91,4.71,20.22,15.93,23a22.32,22.32,0,0,0,15.72-1.73,17,17,0,0,0,6.25-25.38,22.3,22.3,0,0,0-13.11-8.83c-11.22-2.76-22.35,3-24.79,13Z"/><path class="cls-10" d="M281.61,172.61s10.37-3,15.05-15.23,1.9-23-4.41-32.39c-8.27-12.3-12.14-6.25-12.14-6.25S265.53,135.8,281.61,172.61Z"/><path class="cls-7" d="M281.61,173a.4.4,0,0,1-.37-.24c-4.61-10.55-9.53-26.22-6.81-41,1.6-8.66,5.05-12.94,5.35-13.3a4,4,0,0,1,3.2-1.65h0c2.81,0,6,2.66,9.55,7.92,7.18,10.68,8.68,21.7,4.45,32.75A26,26,0,0,1,281.72,173ZM283,117.66h0a3.15,3.15,0,0,0-2.55,1.3l0,.05s-3.62,4.32-5.21,13c-2.63,14.38,2.11,29.68,6.62,40.1a25.42,25.42,0,0,0,14.45-14.88c4.18-10.94,2.75-21.41-4.37-32C287.72,119,284.77,117.66,283,117.66Z"/><path class="cls-7" d="M291,113.59a1,1,0,0,1-1-.94c-1.11-14.46-7.3-20.71-7.36-20.77A1,1,0,0,1,284,90.43c.28.28,6.79,6.86,8,22.07a1,1,0,0,1-.93,1.08Z"/><path class="cls-7" d="M280.26,120a1,1,0,0,1-1-.75c-3.82-14.13-13.09-16.81-13.18-16.83a1,1,0,0,1,.53-2c.43.12,10.48,3,14.61,18.27a1,1,0,0,1-.72,1.24A1.09,1.09,0,0,1,280.26,120Z"/><path class="cls-7" d="M217.68,112.88l-.23,0a1,1,0,0,1-.76-1.22c2.15-9.13,11.79-11.14,12.2-11.22a1,1,0,0,1,.4,2c-.13,0-8.78,1.87-10.62,9.7A1,1,0,0,1,217.68,112.88Z"/><path class="cls-7" d="M192.56,99.15a1,1,0,0,1-1-.92c-1.21-11.93,2.29-17.41,2.44-17.64a1,1,0,0,1,1.7,1.11c0,.07-3.25,5.2-2.12,16.33a1,1,0,0,1-.91,1.11Z"/><path class="cls-7" d="M166,107.43a1,1,0,0,1-.82-.41c-7.94-10.82-4.89-17.62-4.76-17.9a1,1,0,0,1,1.84.86c-.05.1-2.58,6.12,4.56,15.84a1,1,0,0,1-.82,1.61Z"/><path class="cls-12" d="M277.16,162.32c7,6.41,12.66.53,14.85-3.1s5.84-18.54-2.45-27.28-16.11-.51-16.11-.51S272.27,151.17,277.16,162.32Z"/><path class="cls-7" d="M283.42,165.58a9.76,9.76,0,0,1-6.54-3,.3.3,0,0,1-.09-.13c-4.88-11.11-3.76-30.88-3.75-31.07a.42.42,0,0,1,.12-.26,12.46,12.46,0,0,1,8.25-3.63h0c3,0,5.83,1.39,8.44,4.14,8.15,8.6,5.05,23.54,2.5,27.77-.77,1.27-3.61,5.46-7.89,6.07A7.42,7.42,0,0,1,283.42,165.58Zm-5.92-3.51c2.27,2.07,4.58,3,6.85,2.63,3.93-.56,6.59-4.5,7.32-5.69,1.82-3,6-17.94-2.4-26.79-2.45-2.58-5.09-3.89-7.84-3.89h0a11.72,11.72,0,0,0-7.56,3.28C273.75,133.47,273,151.64,277.5,162.07Z"/><path class="cls-7" d="M288.63,185.58a1,1,0,0,1-.87-.49l-.92-1.55c-10.57-17.63-17.56-29.28-14.22-50.81,2.64-17.06,18.06-21.07,18.22-21.11a1,1,0,1,1,.49,2A23.64,23.64,0,0,0,274.62,133c-3.22,20.8,3.61,32.2,14,49.46l.92,1.55a1,1,0,0,1-.35,1.39A1.07,1.07,0,0,1,288.63,185.58Z"/><circle class="cls-13" cx="187.76" cy="135.14" r="12.03"/><path class="cls-7" d="M187.78,147.58a12.45,12.45,0,0,1-11.7-8.2h0A12.43,12.43,0,1,1,192,146.83,12.25,12.25,0,0,1,187.78,147.58Zm-10.94-8.47a11.63,11.63,0,1,0,.4-8.89,11.63,11.63,0,0,0-.4,8.89Z"/><ellipse class="cls-14" cx="187.82" cy="134.12" rx="8.82" ry="8.74" transform="translate(-34.46 72.04) rotate(-19.93)"/><circle class="cls-15" cx="196.59" cy="135.53" r="2.55"/><path class="cls-12" d="M200,134.39s-12.06-3.66-23.81-2.32c0,0,3.05-10.57,13.21-8.85C189.35,123.22,198.23,123.89,200,134.39Z"/><path class="cls-7" d="M200,134.8l-.12,0c-.12,0-12.11-3.62-23.64-2.31a.4.4,0,0,1-.44-.51c0-.11,3.27-10.9,13.67-9.14.05,0,9.18.82,10.93,11.51a.41.41,0,0,1-.4.47Zm-18.42-3.43a72.25,72.25,0,0,1,17.9,2.46c-1.89-9.47-10-10.2-10.11-10.2-8.35-1.42-11.77,5.83-12.59,8C178.34,131.44,180,131.37,181.53,131.37Z"/><path class="cls-16" d="M273.59,143.48c-.11-.82-.24-1.64-.4-2.45a10.29,10.29,0,1,1,3.69,18.62q-.3-.83-.57-1.65c-.72-2.16-1.36-4.34-2-6.52a30.25,30.25,0,0,1-.35-3.3C273.88,146.64,273.83,145,273.59,143.48Z"/><path class="cls-7" d="M278.92,160.26a11,11,0,0,1-2.12-.21.4.4,0,0,1-.3-.26c-.2-.55-.39-1.11-.58-1.66-.72-2.19-1.38-4.44-2-6.54v0a32.28,32.28,0,0,1-.36-3.34c0-.29,0-.58-.05-.86a34.76,34.76,0,0,0-.33-3.81h0c-.11-.8-.24-1.62-.39-2.43a.39.39,0,0,1,.17-.41,10.7,10.7,0,0,1,16.43,11.13A10.75,10.75,0,0,1,278.92,160.26Zm-1.74-1a9.92,9.92,0,0,0,11.42-7.65,9.88,9.88,0,0,0-15-10.43c.13.73.25,1.47.35,2.2.2,1.29.27,2.61.34,3.88,0,.29,0,.57.05.86a27.55,27.55,0,0,0,.35,3.23c.59,2.09,1.24,4.32,2,6.48C276.85,158.35,277,158.82,277.18,159.3Z"/><path class="cls-14" d="M275.6,155.8c-.44-1.44-.86-2.88-1.27-4.32a30.25,30.25,0,0,1-.35-3.3c-.08-1.23-.12-2.51-.26-3.77a7.14,7.14,0,1,1,3.58,12A7.45,7.45,0,0,1,275.6,155.8Z"/><circle class="cls-15" cx="285.74" cy="150.98" r="2.06"/><path class="cls-12" d="M273.08,140.45c2.28-1.36,5.4-2,9.4-.31,7,3,6.69,7.86,6.87,11.12A91.08,91.08,0,0,1,274,147.7C273.6,145.29,273.3,142.87,273.08,140.45Z"/><path class="cls-7" d="M289.35,151.66h-.05a92.86,92.86,0,0,1-15.48-3.58.4.4,0,0,1-.27-.33c-.39-2.64-.67-5-.87-7.26a.4.4,0,0,1,.19-.39c2.93-1.75,6.22-1.86,9.77-.33,6.75,2.9,6.94,7.44,7.08,10.75,0,.25,0,.48,0,.71a.41.41,0,0,1-.4.43Zm-15-4.27a94.34,94.34,0,0,0,14.61,3.4c0-.08,0-.16,0-.24-.14-3.27-.31-7.34-6.59-10a9.51,9.51,0,0,0-8.81.16C273.7,142.76,274,145,274.31,147.39Z"/><path class="cls-17" d="M264.08,147.36s1.6-8.9,24.81-5.76,37.66,6.35,39,13.31-5.39,22.75-14.09,23.27-34.59-3.2-42.95-4.79-9.16-20.13-9.16-20.13-11.47-5-29.92-2.32c0,0-1.12,20.89-19,20.89s-59.28-3.18-64.76-7.22-7-20.77-7-20.77-32.32-9.75-38.88-14.5-1-11.11,8.93-7.73,31.72,12.3,31.72,12.3-.79-7.51,12-6.51,55.48,6,64.72,9.14,11,8.2,11,8.2S245.78,140.08,264.08,147.36Z"/><path class="cls-15" d="M302.61,154.35c2,1,4.14,2.22,4.63,4.35.68,3-2.41,6.35-.81,9a3.7,3.7,0,0,0,3.08,1.63,6.53,6.53,0,0,0,3.44-1.06c4.12-2.47,6.11-7.69,5.39-12.4a2.32,2.32,0,0,0-.33-1,2.65,2.65,0,0,0-.93-.72,35.89,35.89,0,0,0-14.75-4.41C296.55,149.29,298.53,152.26,302.61,154.35Z"/><path class="cls-15" d="M293.42,156.76c5.86,2.28,6.62,5.17,5.83,8.63s-6.25,1.7-7.43-4.11S293.42,156.76,293.42,156.76Z"/><path class="cls-15" d="M196.42,150.43c5.86,2.28,6.61,5.17,5.83,8.63s-6.25,1.7-7.44-4.11S196.42,150.43,196.42,150.43Z"/><path class="cls-15" d="M213.65,141.25a11.56,11.56,0,0,1,7.71,5,10.52,10.52,0,0,1,.53,8.83c-1.13,3.11-3.71,5.89-7,6.4a3.33,3.33,0,0,1-1.63-.09c-1.65-.59-1.92-2.74-2-4.48-.09-2.54-.4-5.28-2.1-7.18a17.47,17.47,0,0,0-3.67-2.68c-1.7-1.13-5-5.28-1.48-6.38.93-.3,2.71.14,3.71.14A27.88,27.88,0,0,1,213.65,141.25Z"/><path class="cls-1" d="M163.31,76.06c15-11.73,33.11-20.6,52.13-20.35,15,.2,29.41,6,42.76,12.95,4.63,2.4,9.25,5,13,8.61a25.81,25.81,0,0,1,3.4,4c0-12.81-7.88-27.8-43.5-40.2,0,0-59.37-16.9-71.07-13.87S116.27,48.47,97.2,84.87C83.88,110.3,76.48,122,73.83,130.11c8,4.36,12.37,14.95,21.37,16.32a12.17,12.17,0,0,0,12.34-6.31l14,37.59a74.9,74.9,0,0,1,2.86-40,81.5,81.5,0,0,1,8.13-25.52C139.79,98,150.77,85.88,163.31,76.06Z"/><path class="cls-2" d="M271.21,77.27c-3.76-3.63-8.38-6.21-13-8.61-13.35-6.91-27.73-12.75-42.76-12.95-19-.25-37.16,8.62-52.13,20.35-12.54,9.82-23.52,21.9-30.75,36.09a81.5,81.5,0,0,0-8.13,25.52,75,75,0,0,1,4.2-9.74c7.49-14.46,19.21-26.36,33-35.16,11.29-12.09,23.09-17.41,35.28-23.5,18.2-9.1,55.47-1.3,73.67,23.83,0,0,2.6,4.77,3.9-8.66.1-1,.15-2.08.16-3.14A25.81,25.81,0,0,0,271.21,77.27Z"/><path class="cls-2" d="M128.63,127.93a75.63,75.63,0,0,0-7.06,49.78l6.66,17.87a62.8,62.8,0,0,1-6.66-17.87l-14-37.59a12.17,12.17,0,0,1-12.34,6.31c-9-1.37-13.39-12-21.37-16.32a18.52,18.52,0,0,0-.9,9.36c1.74,10,2.17,14.3,26.44,29A35.94,35.94,0,0,0,98.94,198c6.93,15.6,19.93,22.53,35.1,29.9s38.13,22.1,64.57,44.64c0,0,1.71,6.37,8.88,1.51,15.36-10.4,25.21-32.09,25.21-32.09l-11.27.39s-12,19.79-18.05,25.42c0,0-53.74-43.34-60.67-66.31s-13.44-54.17,2.6-84.94A105.94,105.94,0,0,1,161.6,92.77C147.84,101.57,136.12,113.47,128.63,127.93Z"/><path class="cls-2" d="M121.57,177.71a62.8,62.8,0,0,0,6.66,17.87Z"/><path class="cls-3" d="M203.81,269.2a1,1,0,0,1-.66-.25c-28-24-44.09-39.26-54.44-55.65-10.67-16.89-14.71-34.53-14-60.85.61-21.25,10.75-43.59,27.8-61.3,16.2-16.81,36.23-26.8,53.71-26.8h.55A68,68,0,0,1,259,79.48a69.09,69.09,0,0,1,12.62,13.14c1.49-4.59,4.52-17-2.29-26.67-11-15.67-43-28.21-95.12-37.29C157.4,25.74,139.71,34.27,121.59,54c-18.68,20.35-31.95,46.25-38.2,59.87a1,1,0,0,1-1.84-.84c6.29-13.73,19.68-39.84,38.55-60.4,18.61-20.29,36.92-29,54.42-26,52.67,9.17,85.12,22,96.43,38.12,9.14,13,2.13,29.74,1.83,30.45a1,1,0,0,1-1.8.13A63,63,0,0,0,257.63,81,66,66,0,0,0,216.8,66.38C199.73,66.18,180,76,164,92.56c-16.71,17.35-26.64,39.2-27.24,59.94-1.47,51.07,15.33,69.91,67.69,114.92a1,1,0,0,1,.11,1.42A1,1,0,0,1,203.81,269.2Z"/><path class="cls-3" d="M98.21,169.5a1,1,0,0,1-.57-.18l-13-9a38.56,38.56,0,0,1-7.39-6.1c-4.89-5.6-6.58-14.13-4.54-22.8,1.82-7.7,6.15-14.6,10.56-20.91,2-2.81,3.66-5.29,5.16-7.47C98.32,88.75,101,84.9,124.7,64.17A1,1,0,0,1,126,65.7c-23.55,20.56-26.17,24.36-35.89,38.52-1.5,2.19-3.2,4.68-5.17,7.49-4.3,6.15-8.51,12.85-10.25,20.22-1.89,8-.36,15.89,4.09,21a36.78,36.78,0,0,0,7,5.76l13,9a1,1,0,0,1-.58,1.84Z"/><path class="cls-3" d="M199.14,274.29a1,1,0,0,1-.65-.24c-17.27-14.47-35.12-29.43-55.52-39.84-2.71-1.38-5.51-2.71-8.23-4-8.41-4-17.11-8.1-24.22-14.36A45.26,45.26,0,0,1,96,191.55a36.58,36.58,0,0,1,5-27.76,1,1,0,0,1,1.41-.27,1,1,0,0,1,.27,1.4,34.58,34.58,0,0,0-4.74,26.22,43.16,43.16,0,0,0,13.92,23.19c6.9,6.07,15.46,10.13,23.75,14,2.73,1.3,5.55,2.63,8.28,4,20.6,10.51,38.55,25.54,55.9,40.09a1,1,0,0,1,.12,1.43A1,1,0,0,1,199.14,274.29Z"/><path class="cls-3" d="M204.69,267.91a1.08,1.08,0,0,1-.61-.2,1,1,0,0,1-.2-1.42,252.46,252.46,0,0,0,16.39-23.81,1,1,0,0,1,1.75,1,258,258,0,0,1-16.52,24A1,1,0,0,1,204.69,267.91Z"/><path class="cls-3" d="M204.46,276.78a1,1,0,0,1-.77-.36,1,1,0,0,1,.12-1.43,139.72,139.72,0,0,0,27.54-32.7,1,1,0,1,1,1.74,1,141.84,141.84,0,0,1-28,33.21A1,1,0,0,1,204.46,276.78Z"/><path class="cls-3" d="M122.77,159.87a1,1,0,0,1-1-1c-.91-22.66,3-46.07,59.83-83.11a1,1,0,1,1,1.1,1.69c-56,36.46-59.79,59.28-58.91,81.33a1,1,0,0,1-1,1.06Z"/><path class="cls-3" d="M187.81,254.68a1,1,0,0,1-.58-.18l-30-21.06a95.33,95.33,0,0,1-13-10.29c-11.57-11.64-16.24-28.1-20.36-42.62a1,1,0,1,1,1.95-.55c4.05,14.28,8.65,30.47,19.85,41.74a93,93,0,0,0,12.69,10.06l30,21.06a1,1,0,0,1-.58,1.84Z"/><path class="cls-1" d="M115.31,341c.44-6.43,2.37-12.65,4.17-18.83q6.06-20.79,10.47-42c1.42-6.81,2.72-13.69,5.38-20.12a35.89,35.89,0,0,1,9.11-13.3c3.22,5.34,5.69,13.7,3.45,26.21-4.73,26.39-12.65,41.89-13.16,64.49s-1.53,23.36,2.52,36.46H120.6q-1.81-6.57-3.25-13.22C116,354.24,114.85,347.63,115.31,341Z"/><path class="cls-2" d="M103.71,340.28c3.24-17.51,6.85-30,8.63-47.25s2.86-46.26,29.5-56.2c0,0-1,4,2.6,9.94a35.89,35.89,0,0,0-9.11,13.3c-2.66,6.43-4,13.31-5.38,20.12q-4.39,21.19-10.47,42c-1.8,6.18-3.73,12.4-4.17,18.83-.46,6.6.65,13.21,2,19.68q1.43,6.65,3.25,13.22H109.51S100.48,357.79,103.71,340.28Z"/><path class="cls-3" d="M108.78,373.25a1,1,0,0,1-.92-.59c-5.1-11-5.78-27-4.18-37.93.85-5.8,2.14-11.6,3.38-17.21,1.21-5.42,2.45-11,3.29-16.57.68-4.52,1.11-9.17,1.53-13.67A159.46,159.46,0,0,1,114.82,266a42.74,42.74,0,0,1,5.23-13.44c3-4.66,10.17-9.33,16-13.09,2-1.27,3.79-2.46,5.24-3.5a1,1,0,0,1,1.18,1.64c-1.49,1.07-3.35,2.28-5.32,3.56-5.62,3.65-12.62,8.19-15.35,12.48a40.3,40.3,0,0,0-5,12.81,158.77,158.77,0,0,0-2.91,21c-.42,4.52-.85,9.2-1.54,13.78-.84,5.63-2.1,11.26-3.31,16.71s-2.52,11.33-3.36,17.06c-1.55,10.64-.91,26.14,4,36.79a1,1,0,0,1-.5,1.34A.9.9,0,0,1,108.78,373.25Z"/><path class="cls-3" d="M136.65,373a1,1,0,0,1-1-.69c-5.94-17.28-2.88-34.16,1.08-51.36,1-4.39,2.14-8.83,3.23-13.12,3.24-12.71,6.59-25.86,7.15-39.09a1,1,0,0,1,2,.09c-.57,13.44-3.94,26.69-7.2,39.5-1.09,4.28-2.22,8.71-3.23,13.07-3.89,16.91-6.9,33.48-1.14,50.25a1,1,0,0,1-.62,1.29A1,1,0,0,1,136.65,373Z"/></g></svg>