<svg xmlns="http://www.w3.org/2000/svg" xmlns:xlink="http://www.w3.org/1999/xlink" viewBox="0 0 400 400"><defs><style>.cls-1{fill:#e6e6e6;}.cls-2{fill:#141c29;}.cls-3{fill:url(#Degradado_sin_nombre_23);}.cls-4{fill:url(#Degradado_sin_nombre_23-2);}.cls-5{fill:url(#Degradado_sin_nombre_23-3);}.cls-6{fill:#fff;}.cls-7{fill:#c1a633;}.cls-8{fill:#fefdfd;}.cls-9{fill:#bd9f16;}.cls-10{fill:#c2a635;}.cls-11{fill:#f2b92c;}.cls-12{fill:#f2ba30;}.cls-13{fill:#fefdfb;}.cls-14{fill:#fefcf9;}.cls-15{fill:#fefefe;}.cls-16{fill:#f1b41d;}.cls-17{fill:#010101;}.cls-18{fill:#7785d5;}.cls-19{fill:#7685d4;}.cls-20{fill:#6b92d0;}.cls-21{fill:#47b6c0;}.cls-22{fill:#a952ea;}.cls-23{fill:#3bc2bc;}.cls-24{fill:#8478da;}.cls-25{fill:#5f9eca;}.cls-26{fill:#53aac6;}.cls-27{fill:#b448ee;}.cls-28{fill:#30ceb8;}.cls-29{fill:#c03bf3;}.cls-30{fill:#a953ea;}.cls-31{fill:#8e6dde;}.cls-32{fill:#24d9b1;}.cls-33{fill:#7e7fd8;}.cls-34{fill:#9f5ce5;}.cls-35{fill:#7588d4;}.cls-36{fill:#49b4c1;}.cls-37{fill:#8378d9;}.cls-38{fill:#41bcbd;}.cls-39{fill:#9765e3;}.cls-40{fill:#8675db;}.cls-41{fill:#cc2ff7;}.cls-42{fill:#d525fa;}.cls-43{fill:#16e8ac;}.cls-44{fill:#916bdf;}.cls-45{fill:#202322;}.cls-46{fill:#627eea;}.cls-47{fill:#252f58;}.cls-48{fill:#25305a;}.cls-49{fill:#c1ccf6;}.cls-50{fill:#8198ee;}.cls-51{fill:#feffff;}.cls-52{fill:#ff9416;}.cls-53{fill:#fffffe;}.cls-54{fill:#f3e3d1;}.cls-55{fill:#f2d9be;}.cls-56{fill:#efb777;}.cls-57{fill:#f3b166;}.cls-58{fill:#ff9417;}.cls-59{fill:#84e147;}.cls-60{fill:#64a835;}.cls-61{fill:#feec30;}.cls-62{fill:#175807;}.cls-63{fill:#4d4d4d;}.cls-64{fill:#666;}.cls-65{fill:#333;}.cls-66{fill:#999;}.cls-67{fill:#b3b3b3;}.cls-68{fill:none;}.cls-69{fill:#05fadb;}.cls-70{fill:#05baa0;}.cls-71{fill:#06fad6;}.cls-72{fill:#84e246;}.cls-73{fill:#64a933;}.cls-74{fill:url(#linear-gradient);}.cls-75{fill:#060203;}.cls-76{fill:url(#linear-gradient-2);}</style><linearGradient id="Degradado_sin_nombre_23" x1="365.63" y1="1114.89" x2="399.28" y2="1114.89" gradientTransform="matrix(0.97, -0.23, 0.23, 0.97, -603.37, -814.72)" gradientUnits="userSpaceOnUse"><stop offset="0" stop-color="#0168cd"/><stop offset="0.99" stop-color="#023287"/></linearGradient><linearGradient id="Degradado_sin_nombre_23-2" x1="370.41" y1="1114.89" x2="394.5" y2="1114.89" xlink:href="#Degradado_sin_nombre_23"/><linearGradient id="Degradado_sin_nombre_23-3" x1="374.95" y1="1114.89" x2="389.96" y2="1114.89" xlink:href="#Degradado_sin_nombre_23"/><linearGradient id="linear-gradient" x1="154.02" y1="164.13" x2="154.02" y2="142.44" gradientUnits="userSpaceOnUse"><stop offset="0" stop-color="#e8af15"/><stop offset="0.04" stop-color="#d69a16"/><stop offset="0.11" stop-color="#b87817"/><stop offset="0.19" stop-color="#9e5b18"/><stop offset="0.28" stop-color="#8a4319"/><stop offset="0.39" stop-color="#7a3119"/><stop offset="0.51" stop-color="#6e241a"/><stop offset="0.66" stop-color="#681c1a"/><stop offset="1" stop-color="#661a1a"/></linearGradient><linearGradient id="linear-gradient-2" x1="246.76" y1="159.92" x2="246.76" y2="138.23" xlink:href="#linear-gradient"/></defs><title>i</title><g id="Capa_4" data-name="Capa 4"><path class="cls-1" d="M121.48,277.51H94.55a1,1,0,0,1-1-1V247.92a1,1,0,0,1,2,0v27.56h25.92a1,1,0,0,1,0,2Z"/><path class="cls-1" d="M94.55,265.18H62.19a1,1,0,0,1-1-1V155.91a1,1,0,0,1,1-1h29V110.57a1,1,0,0,1,2,0v45.34a1,1,0,0,1-1,1h-29V263.15H94.55a1,1,0,0,1,0,2Z"/><path class="cls-1" d="M62.19,181.94H48.32a1,1,0,0,1,0-2H62.19a1,1,0,0,1,0,2Z"/><path class="cls-1" d="M316.43,275.13H291.57a1,1,0,0,1,0-2h23.85V180.93a1,1,0,1,1,2,0v93.19A1,1,0,0,1,316.43,275.13Z"/><path class="cls-1" d="M351.68,233.94H316.43a1,1,0,0,1,0-2h35.25a1,1,0,0,1,0,2Z"/><path class="cls-1" d="M370.75,161.94h0l-35.22-.21a1,1,0,0,1,0-2h0l34.2.2,0-57.51a1,1,0,0,1,1-1h0a1,1,0,0,1,1,1l0,58.52a1,1,0,0,1-1,1Z"/><circle class="cls-2" cx="29.23" cy="179.8" r="18.54"/><path class="cls-3" d="M29.23,164.56A15.26,15.26,0,0,1,40,169a15.26,15.26,0,0,1,3.27,16.72A15.43,15.43,0,0,1,40,190.59a15.25,15.25,0,0,1-21.56,0,15.43,15.43,0,0,1-3.27-4.85,15.22,15.22,0,0,1,14.05-21.18m0-1.57A16.82,16.82,0,1,0,46.05,179.8,16.82,16.82,0,0,0,29.23,163Z"/><path class="cls-4" d="M29.23,169.34a10.46,10.46,0,1,1-7.4,3.06,10.42,10.42,0,0,1,7.4-3.06m0-1.57a12,12,0,1,0,12,12,12,12,0,0,0-12-12Z"/><path class="cls-5" d="M29.23,173.87a5.92,5.92,0,1,1-4.2,1.74,5.89,5.89,0,0,1,4.2-1.74m0-1.57a7.51,7.51,0,1,0,7.5,7.5,7.5,7.5,0,0,0-7.5-7.5Z"/><path class="cls-6" d="M25.78,189.28c0-.11,0-.21.07-.32.16-1.32.32-2.63.49-4,.23-1.85.48-3.7.71-5.55s.43-3.46.65-5.19c.18-1.45.36-2.89.55-4.33a1.38,1.38,0,0,1,1.08-1.35,1.32,1.32,0,0,1,1.6,1.09c.19.89.36,1.8.54,2.69.65,3.13,1.29,6.26,1.94,9.38a.54.54,0,0,0,.13.28l.39-1c.49-1.27,1-2.54,1.47-3.81a2.06,2.06,0,0,1,1.91-1.47,2.09,2.09,0,0,1,2,1.29c.39.82.82,1.62,1.21,2.44a1.18,1.18,0,0,0,1.27.72c1.15-.05,2.3,0,3.45-.05a.84.84,0,0,1,.89,1,.77.77,0,0,1-.75.66c-1.54,0-3.08,0-4.63,0a1.34,1.34,0,0,1-1.06-.62,12.7,12.7,0,0,1-1.71-3,1.9,1.9,0,0,0-.17-.38.93.93,0,0,0-.38-.34c-.21-.05-.35.14-.43.32l-.35.9c-.58,1.54-1.16,3.09-1.75,4.63a1.53,1.53,0,0,1-1.53,1A1.59,1.59,0,0,1,32,183c-.17-.75-.32-1.5-.47-2.25q-.68-3.36-1.36-6.72c-.13-.65-.29-1.29-.46-1.94l-.15,1.19c-.39,3-.77,6-1.15,9.08-.18,1.45-.35,2.89-.53,4.34-.11.91-.23,1.83-.37,2.74A1.74,1.74,0,0,1,25.89,191,1.66,1.66,0,0,1,24,189.67q-.57-3-1.15-5.93c-.31-1.58-.64-3.16-1-4.74-.09-.46-.17-.92-.26-1.38,0-.07-.06-.13-.11-.25-.15.27-.26.49-.39.71-.56,1-1.11,2-1.68,3a1.31,1.31,0,0,1-1.28.72c-1.19,0-2.39,0-3.58,0-.46,0-.91,0-1.36.06a.83.83,0,0,1-.93-.89.84.84,0,0,1,.91-.88c1.11,0,2.22,0,3.33,0,.47,0,.94,0,1.4-.08a.42.42,0,0,0,.27-.2c.61-1.06,1.2-2.13,1.83-3.17a3.34,3.34,0,0,1,.77-.94,1.28,1.28,0,0,1,1.68.08,2.7,2.7,0,0,1,.85,1.64c.35,1.76.68,3.52,1,5.29.15.77.34,1.55.49,2.33.26,1.32.5,2.65.75,4a2.1,2.1,0,0,0,.06.24Z"/><path class="cls-7" d="M110.26,88.92v4.14a2.17,2.17,0,0,0-.17.42,18.53,18.53,0,0,1-14.48,15.68l-2,.44h-4a1.85,1.85,0,0,0-.42-.17A18.61,18.61,0,0,1,73.46,94.86c-.12-.6-.27-1.2-.41-1.8V88.92a1,1,0,0,0,.16-.34A18.33,18.33,0,0,1,82.8,74.65a12.25,12.25,0,0,1,5.47-1.82,4.91,4.91,0,0,0,1.32-.45h4a1,1,0,0,0,.34.16A18.58,18.58,0,0,1,109.78,86.8C109.93,87.51,110.1,88.22,110.26,88.92Zm-24.66.82L83.35,90v2l2.25.26a2.83,2.83,0,0,0-.13.63c0,2.47,0,4.94,0,7.41a3.45,3.45,0,0,0,.15.71c2,0,4,0,6,0a14.23,14.23,0,0,0,3.38-.2,8.14,8.14,0,0,0,6.31-5.76,15.11,15.11,0,0,0,.48-5.31c-.25-4.65-3-8-7.64-8.56A78.67,78.67,0,0,0,85.62,81a3.45,3.45,0,0,0-.15.71c0,2.47,0,4.94,0,7.41A3.56,3.56,0,0,0,85.6,89.74Z"/><path class="cls-8" d="M85.62,81a78.67,78.67,0,0,1,8.56.21c4.6.59,7.39,3.91,7.64,8.56a15.11,15.11,0,0,1-.48,5.31A8.14,8.14,0,0,1,95,100.83a14.23,14.23,0,0,1-3.38.2c-2,0-4,0-6,0,0-2.92,0-5.83,0-8.75L83.35,92V90l2.25-.25Zm3.86,16.24a34.67,34.67,0,0,0,3.82,0A4.88,4.88,0,0,0,98,92.77,10.94,10.94,0,0,0,98,90c-.27-2.42-1.47-4.27-3.87-4.93a29,29,0,0,0-4.66-.55V89.9h4.1v2.18h-4.1Z"/><path class="cls-9" d="M85.62,81l0,8.75a3.56,3.56,0,0,1-.14-.63c0-2.47,0-4.94,0-7.41A3.45,3.45,0,0,1,85.62,81Z"/><path class="cls-9" d="M85.6,92.24c0,2.92,0,5.83,0,8.75a3.45,3.45,0,0,1-.15-.71c0-2.47,0-4.94,0-7.41A2.83,2.83,0,0,1,85.6,92.24Z"/><path class="cls-10" d="M89.48,97.23V92.08h4.1V89.9h-4.1V84.49a29,29,0,0,1,4.66.55c2.4.66,3.6,2.51,3.87,4.93a10.94,10.94,0,0,1,0,2.8,4.88,4.88,0,0,1-4.67,4.44A34.67,34.67,0,0,1,89.48,97.23Z"/><path class="cls-11" d="M297.06,158.07a16.31,16.31,0,0,1,1.43-5.17,19.4,19.4,0,0,1,15-11.55c.13,0,.28,0,.42,0,.3.37.52.19.74-.09h.21a2.66,2.66,0,0,0,.71.29,12.92,12.92,0,0,0,1.76,0,2.66,2.66,0,0,0,.71-.29h.32c.2.35.44.45.74.1a16.38,16.38,0,0,1,5.26,1.47,19.4,19.4,0,0,1,11.45,14.94,2,2,0,0,1,0,.42c-.37.3-.19.53.09.74l0,.21a2.92,2.92,0,0,0-.24.78,11.09,11.09,0,0,0,0,1.63,2.85,2.85,0,0,0,.24.77l0,.21c-.28.22-.46.45-.09.74a16,16,0,0,1-1.37,5.13,19.4,19.4,0,0,1-15.05,11.69c-.1,0-.21,0-.31,0-.3-.35-.54-.26-.74.09l-.32,0a2.85,2.85,0,0,0-.77-.24,11.09,11.09,0,0,0-1.63,0,2.92,2.92,0,0,0-.78.24l-.21,0c-.22-.28-.44-.46-.74-.08a17.57,17.57,0,0,1-6.37-2,19.44,19.44,0,0,1-10.45-14.47,1.61,1.61,0,0,1,0-.31c.41-.37.4-.48-.1-.85v-.21c.1-.2.29-.39.3-.6a16.35,16.35,0,0,0,0-2c0-.2-.2-.4-.3-.6v-.21C297.46,158.54,297.47,158.44,297.06,158.07Zm19.13,9.85-5-5-3,3,8.29,8.29,8.23-8.22-3.07-3.09a3.92,3.92,0,0,1-.36.45l-4.58,4.54Zm0-14.42h.48l5,5,3-3-8.29-8.3-8.24,8.24,3.08,3.08a4.56,4.56,0,0,1,.33-.41Zm-13.31,7.2,3,3,2.93-2.93-3-3Zm13.64-3-3,3,2.91,2.9,3-3Zm13.49,3-3-3-3,3,3,3Z"/><path class="cls-12" d="M297,159.12c.1.2.29.4.3.6a16.35,16.35,0,0,1,0,2c0,.21-.2.4-.3.6Z"/><path class="cls-12" d="M318,141.23a2.66,2.66,0,0,1-.71.29,12.92,12.92,0,0,1-1.76,0,2.66,2.66,0,0,1-.71-.29Z"/><path class="cls-12" d="M335.92,162.3a2.85,2.85,0,0,1-.24-.77,11.09,11.09,0,0,1,0-1.63,2.92,2.92,0,0,1,.24-.78Z"/><path class="cls-12" d="M314.84,180.2a2.92,2.92,0,0,1,.78-.24,11.09,11.09,0,0,1,1.63,0,2.85,2.85,0,0,1,.77.24Z"/><path class="cls-12" d="M297.06,158.07c.41.37.4.47-.1.84Z"/><path class="cls-12" d="M297,162.51c.5.37.51.48.1.85Z"/><path class="cls-12" d="M319.08,141.34c-.3.35-.54.25-.74-.1Z"/><path class="cls-12" d="M318.34,180.18c.2-.35.44-.44.74-.09Z"/><path class="cls-12" d="M314.63,141.24c-.22.28-.44.46-.74.09Z"/><path class="cls-12" d="M335.9,158.91c-.28-.21-.46-.44-.09-.74Z"/><path class="cls-12" d="M335.81,163.25c-.37-.29-.19-.52.09-.74Z"/><path class="cls-12" d="M313.89,180.1c.3-.38.52-.2.74.08Z"/><path class="cls-13" d="M316.19,153.5l-4.61,4.58a4.56,4.56,0,0,0-.33.41l-3.08-3.08,8.24-8.24,8.29,8.3-3,3-5-5Q316.43,153.09,316.19,153.5Z"/><path class="cls-13" d="M316.67,167.92l4.58-4.54a3.92,3.92,0,0,0,.36-.45l3.07,3.09-8.23,8.22L308.16,166l3-3c1.66,1.64,3.35,3.3,5,5Q316.43,168.34,316.67,167.92Z"/><path class="cls-14" d="M302.88,160.7l2.93-2.93,3,3-2.93,2.93Z"/><path class="cls-15" d="M316.52,157.73l2.91,2.9-3,3-2.91-2.9Z"/><path class="cls-14" d="M330,160.73l-3,3-3-3,3-3Z"/><path class="cls-16" d="M316.19,153.5q.24-.41.48,0Z"/><path class="cls-16" d="M316.67,167.92q-.24.42-.48,0Z"/><path class="cls-17" d="M390.41,83.34a19.1,19.1,0,1,1-19.09-19.09A19.1,19.1,0,0,1,390.41,83.34Zm-26.78-4h14.48a.16.16,0,0,0,.15-.07l.32-.44.94-1.22a.32.32,0,0,0,0-.09s.07-.06.09-.1l1.13-1.47a.35.35,0,0,0,0-.11,1.13,1.13,0,0,0,.36-.44h-.72l-.24,0H364.52a.21.21,0,0,0-.15.07,5.48,5.48,0,0,0-.34.46l-.77,1-.71.93,0,0-1,1.37a.36.36,0,0,0-.05.09h2.18Zm16.5,9.5,1.05-1.37-.06,0H365a3.85,3.85,0,0,0-.48,0,.19.19,0,0,0-.14.07c-.16.2-.31.42-.47.63l-.83,1.09s0,0,0,0l-1.53,2a.36.36,0,0,0-.05.09h16.66a.19.19,0,0,0,.14-.07c.13-.16.25-.33.36-.49l.72-1Zm-3.19-7.42H363.11a10.54,10.54,0,0,0-1.66,0l3,3.91h16.73l0,0v0l-.09-.13-1.94-2.55-.84-1.11c-.05-.07-.09-.13-.19-.13Z"/><path class="cls-18" d="M373.63,85.31H371.8a.26.26,0,0,0-.09-.26.18.18,0,0,1-.06-.1.29.29,0,0,0-.14-.21c-.08-.08-.21-.14-.26-.24s-.37-.35-.43-.61a.22.22,0,0,0-.09-.1c-.22-.09-.32-.29-.46-.46s-.21-.27-.3-.41-.29-.27-.41-.44a8.42,8.42,0,0,0-.62-.72.52.52,0,0,1-.17-.39h1.8a.19.19,0,0,0,.08.19,2.43,2.43,0,0,1,.2.25.76.76,0,0,0,.2.24,1.6,1.6,0,0,1,.26.26c.11.15.2.31.32.46s.22.23.34.35l.12.15a1.56,1.56,0,0,0,.16.2s.09.09.11.14c.11.3.41.44.57.7.07.1.21.17.26.29a1.58,1.58,0,0,0,.29.34A.46.46,0,0,1,373.63,85.31Z"/><path class="cls-19" d="M364,75.88a5.48,5.48,0,0,1,.34-.46.21.21,0,0,1,.15-.07h1.1a1.45,1.45,0,0,0,.11.25c.1.14.23.27.34.41s.46.56.7.83a1.11,1.11,0,0,1,.27.37c0,.05.08.09.13.14a.58.58,0,0,1,.12.1l.45.55a9.2,9.2,0,0,0,.69.83,2.8,2.8,0,0,1,.3.46h-1.91a.34.34,0,0,0-.11-.28,3.63,3.63,0,0,1-.41-.47c-.2-.28-.45-.52-.64-.8A6.31,6.31,0,0,0,365,77a2.86,2.86,0,0,1-.36-.42,2.59,2.59,0,0,0-.42-.51Z"/><path class="cls-20" d="M373.63,85.31a.46.46,0,0,0-.15-.37,1.58,1.58,0,0,1-.29-.34c-.05-.12-.19-.19-.26-.29-.16-.26-.46-.4-.57-.7,0,0-.08-.09-.11-.14a1.56,1.56,0,0,1-.16-.2l-.12-.15c-.12-.12-.24-.23-.34-.35s-.21-.31-.32-.46a1.6,1.6,0,0,0-.26-.26.76.76,0,0,1-.2-.24,2.43,2.43,0,0,0-.2-.25.19.19,0,0,1-.08-.19h1.83a.53.53,0,0,0,.08.22,5.9,5.9,0,0,0,.5.62c.35.34.61.77,1,1.11.16.16.24.4.45.52.05.18.22.28.32.42s.29.35.43.52l.34.44s0,.06,0,.09Z"/><path class="cls-20" d="M368.73,79.29a2.8,2.8,0,0,0-.3-.46,9.2,9.2,0,0,1-.69-.83l-.45-.55a.58.58,0,0,0-.12-.1c-.05,0-.12-.09-.13-.14a1.11,1.11,0,0,0-.27-.37c-.24-.27-.47-.55-.7-.83s-.24-.27-.34-.41a1.45,1.45,0,0,1-.11-.25h1.76c0,.05,0,.1,0,.13a7.79,7.79,0,0,0,.51.63c.2.25.42.48.62.72s.4.53.65.77.32.39.49.59l.78,1s0,.1.07.15Z"/><path class="cls-21" d="M370.72,75.35h1.76a.66.66,0,0,0,0,.15l.19.27.55.63.53.6c.17.21.33.43.5.63a1.81,1.81,0,0,1,.44.55l0,0c.2.22.41.44.6.68s.24.2.22.38h-1.8a1.06,1.06,0,0,0-.39-.62.31.31,0,0,1-.09-.07c-.26-.32-.51-.64-.77-.95-.11-.15-.24-.28-.36-.42a.74.74,0,0,1-.12-.13,6.49,6.49,0,0,0-.71-.86.1.1,0,0,1-.05-.06,2.06,2.06,0,0,0-.46-.56A.4.4,0,0,1,370.72,75.35Z"/><path class="cls-22" d="M366.22,85.31h-1.81l-3-3.91a10.54,10.54,0,0,1,1.66,0,.4.4,0,0,0,.12.27c.07.06.16.12.19.2a3.13,3.13,0,0,0,.56.69c.18.25.41.46.59.71a5.08,5.08,0,0,0,.38.43s.11.1.13.17a.72.72,0,0,0,.25.32,3.76,3.76,0,0,1,.56.69,1,1,0,0,0,.19.22A.28.28,0,0,1,366.22,85.31Z"/><path class="cls-23" d="M375.59,79.29c0-.18-.14-.26-.22-.38s-.4-.46-.6-.68l0,0a1.81,1.81,0,0,0-.44-.55c-.17-.2-.33-.42-.5-.63l-.53-.6-.55-.63-.19-.27a.66.66,0,0,1,0-.15h1.75a.35.35,0,0,0,.1.29,5.94,5.94,0,0,1,.72.87.47.47,0,0,0,.1.1c.17.2.36.4.53.61a7.64,7.64,0,0,0,.51.62c.21.21.36.47.56.68l.22.25.16.18c.09.1.21.18.21.34Z"/><path class="cls-24" d="M368.77,81.37a.52.52,0,0,0,.17.39,8.42,8.42,0,0,1,.62.72c.12.17.31.26.41.44s.2.28.3.41.24.37.46.46a.22.22,0,0,1,.09.1c.06.26.32.38.43.61s.18.16.26.24a.29.29,0,0,1,.14.21.18.18,0,0,0,.06.1.26.26,0,0,1,.09.26h-1.63s-.05-.12-.08-.17-.3-.33-.44-.5l-.69-.82-.87-1.07-.91-1.07a.39.39,0,0,1-.12-.31Z"/><path class="cls-25" d="M375.51,85.31s0-.07,0-.09l-.34-.44c-.14-.17-.29-.34-.43-.52s-.27-.24-.32-.42c-.21-.12-.29-.36-.45-.52-.36-.34-.62-.77-1-1.11a5.9,5.9,0,0,1-.5-.62.53.53,0,0,1-.08-.22h1.71a.33.33,0,0,0,.2.35.29.29,0,0,1,.14.15.5.5,0,0,0,.19.29l.19.23c.21.25.41.52.64.75a5.83,5.83,0,0,0,.55.66l0,0,.22.22c.05.07.13.12.16.2a.81.81,0,0,0,.33.38s.08.06.09.1a.73.73,0,0,0,.26.36c.06.06.12.11.11.2Z"/><path class="cls-25" d="M370.53,79.29c0-.05,0-.11-.07-.15l-.78-1c-.17-.2-.31-.41-.49-.59s-.43-.52-.65-.77-.42-.47-.62-.72a7.79,7.79,0,0,1-.51-.63s0-.08,0-.13h1.67s0,.09,0,.12a5,5,0,0,0,.42.5,2.17,2.17,0,0,1,.35.39c.05.09.16.14.2.23a.88.88,0,0,0,.3.36.18.18,0,0,1,.08.09,1,1,0,0,0,.34.4s0,0,0,0a1.91,1.91,0,0,0,.43.51,3.73,3.73,0,0,1,.28.38,2.37,2.37,0,0,0,.3.39,1.65,1.65,0,0,1,.41.54Z"/><path class="cls-26" d="M372.2,79.29a1.65,1.65,0,0,0-.41-.54,2.37,2.37,0,0,1-.3-.39,3.73,3.73,0,0,0-.28-.38,1.91,1.91,0,0,1-.43-.51s0,0,0,0a1,1,0,0,1-.34-.4.18.18,0,0,0-.08-.09.88.88,0,0,1-.3-.36c0-.09-.15-.14-.2-.23a2.17,2.17,0,0,0-.35-.39,5,5,0,0,1-.42-.5s0-.08,0-.12h1.67a.4.4,0,0,0,.12.27,2.06,2.06,0,0,1,.46.56.1.1,0,0,0,.05.06,6.49,6.49,0,0,1,.71.86.74.74,0,0,0,.12.13c.12.14.25.27.36.42.26.31.51.63.77.95a.31.31,0,0,0,.09.07,1.06,1.06,0,0,1,.39.62Z"/><path class="cls-27" d="M365,87.4h1.71s0,.13,0,.16l.49.56s.06,0,.06.08.08.17.16.24a.78.78,0,0,1,.29.38c0,.05.06.09.09.13.2.21.41.42.6.63a3.72,3.72,0,0,1,.4.49c.17.29.47.46.62.76,0,0,0,.06.08.09a.65.65,0,0,1,.21.41h-1.57s0-.06,0-.08a5.47,5.47,0,0,0-.54-.65,1.12,1.12,0,0,1-.18-.2,1.39,1.39,0,0,0-.15-.19c-.25-.2-.33-.55-.62-.71,0,0,0,0,0,0a3,3,0,0,0-.22-.28l-.19-.23-.27-.28-.12-.16a.86.86,0,0,0-.1-.16c-.2-.24-.39-.46-.6-.69A.37.37,0,0,1,365,87.4Z"/><path class="cls-28" d="M377.34,79.29c0-.16-.12-.24-.21-.34l-.16-.18-.22-.25c-.2-.21-.35-.47-.56-.68a7.64,7.64,0,0,1-.51-.62c-.17-.21-.36-.41-.53-.61a.47.47,0,0,1-.1-.1,5.94,5.94,0,0,0-.72-.87.35.35,0,0,1-.1-.29h1.67l.13.28a.5.5,0,0,0,.16.22,1.66,1.66,0,0,1,.26.27c.18.22.35.44.54.65s.14.15.21.23.19.24.28.35l.15.19c.21.25.42.51.64.75a2,2,0,0,1,.31.5l-.32.44a.16.16,0,0,1-.15.07Z"/><path class="cls-26" d="M377.22,85.31c0-.09-.05-.14-.11-.2a.73.73,0,0,1-.26-.36s-.06-.07-.09-.1a.81.81,0,0,1-.33-.38c0-.08-.11-.13-.16-.2l-.22-.22,0,0a5.83,5.83,0,0,1-.55-.66c-.23-.23-.43-.5-.64-.75l-.19-.23a.5.5,0,0,1-.19-.29.29.29,0,0,0-.14-.15.33.33,0,0,1-.2-.35h1.56a1.21,1.21,0,0,0,.09.2l.9,1.06.41.49c.16.2.31.4.48.6l.79.91a1.66,1.66,0,0,0,.16.21,1,1,0,0,1,.31.47Z"/><path class="cls-29" d="M365,87.4a.37.37,0,0,0,.13.27c.21.23.4.45.6.69a.86.86,0,0,1,.1.16l.12.16.27.28.19.23a3,3,0,0,1,.22.28s0,0,0,0c.29.16.37.51.62.71a1.39,1.39,0,0,1,.15.19,1.12,1.12,0,0,0,.18.2,5.47,5.47,0,0,1,.54.65s0,.06,0,.08h-.36a.09.09,0,0,0-.15,0H365.9l.35,0c.07,0,.15,0,.22-.07a1.13,1.13,0,0,1-.1-.13,4.4,4.4,0,0,1-.38-.37c-.16-.2-.31-.42-.47-.63a3.49,3.49,0,0,0-.32-.35c-.11-.11-.14-.28-.31-.33a.13.13,0,0,1-.07-.09c-.07-.25-.34-.36-.44-.6a1.8,1.8,0,0,1-.48-.64c.16-.21.31-.43.47-.63a.19.19,0,0,1,.14-.07A3.85,3.85,0,0,1,365,87.4Z"/><path class="cls-30" d="M369.7,91.33a.65.65,0,0,0-.21-.41s-.07,0-.08-.09c-.15-.3-.45-.47-.62-.76a3.72,3.72,0,0,0-.4-.49c-.19-.21-.4-.42-.6-.63,0,0-.08-.08-.09-.13a.78.78,0,0,0-.29-.38c-.08-.07-.16-.13-.16-.24s0-.06-.06-.08l-.49-.56s0-.11,0-.16h1.51a.33.33,0,0,0,.19.37.36.36,0,0,1,.14.16,1.74,1.74,0,0,0,.36.45l.06.07.51.65c.09.12.19.22.28.33a5.74,5.74,0,0,1,.41.45,2.82,2.82,0,0,0,.38.46l.09.12c.18.23.36.45.55.67.05.06.12.11.1.2Z"/><path class="cls-31" d="M367.06,81.37a.39.39,0,0,0,.12.31l.91,1.07.87,1.07.69.82c.14.17.29.33.44.5s.05.12.08.17h-1.49c0-.1,0-.17-.09-.24s-.33-.39-.5-.59l-.68-.82-.2-.24c-.18-.22-.35-.44-.54-.65a3.06,3.06,0,0,0-.51-.57s0,0-.06-.08-.21-.23-.31-.36a.68.68,0,0,1-.18-.38Z"/><path class="cls-32" d="M378.58,78.79a2,2,0,0,0-.31-.5c-.22-.24-.43-.5-.64-.75l-.15-.19c-.09-.11-.18-.24-.28-.35s-.15-.15-.21-.23-.36-.43-.54-.65a1.66,1.66,0,0,0-.26-.27.5.5,0,0,1-.16-.22l-.13-.28h1.92a1,1,0,0,0,.09.24,9.19,9.19,0,0,1,.78,1s.07.08.11.12l.37.43c.11.12.21.24.32.35l.06,0a.32.32,0,0,1,0,.09Z"/><path class="cls-33" d="M373.16,87.4h1.27a.78.78,0,0,0,.09.21,2.65,2.65,0,0,0,.29.29l.13.15.2.27.21.28.27.29.14.16a5.33,5.33,0,0,0,.56.68,5.49,5.49,0,0,1,.48.6,3.68,3.68,0,0,0,.33.35c.2.16.25.42.44.58,0,0,0,0,0,.07h-1.36a1.27,1.27,0,0,0-.15-.31c-.1-.14-.22-.26-.33-.39l-.48-.55c-.18-.22-.36-.45-.55-.67l-.37-.44c-.12-.15-.23-.3-.36-.45s-.25-.28-.37-.43a2.83,2.83,0,0,0-.32-.37A.32.32,0,0,1,373.16,87.4Z"/><path class="cls-34" d="M366.22,85.31a.28.28,0,0,0-.14-.24,1,1,0,0,1-.19-.22,3.76,3.76,0,0,0-.56-.69.72.72,0,0,1-.25-.32c0-.07-.09-.12-.13-.17a5.08,5.08,0,0,1-.38-.43c-.18-.25-.41-.46-.59-.71a3.13,3.13,0,0,1-.56-.69c0-.08-.12-.14-.19-.2a.4.4,0,0,1-.12-.27h1.36a.41.41,0,0,0,.12.35,4.07,4.07,0,0,1,.55.62,3.47,3.47,0,0,0,.4.46c.21.24.38.52.6.75,0,0,.06.1.1.12a1,1,0,0,1,.28.33,1.3,1.3,0,0,0,.1.15c.21.22.43.44.64.68a.74.74,0,0,1,.24.48Z"/><path class="cls-35" d="M377.58,91.33s0-.06,0-.07c-.19-.16-.24-.42-.44-.58a3.68,3.68,0,0,1-.33-.35,5.49,5.49,0,0,0-.48-.6,5.33,5.33,0,0,1-.56-.68l-.14-.16-.27-.29-.21-.28-.2-.27-.13-.15a2.65,2.65,0,0,1-.29-.29.78.78,0,0,1-.09-.21h1.4c0,.06,0,.14.05.18a5.28,5.28,0,0,1,.42.5c.23.31.48.6.73.9.11.12.23.22.33.34l.62.79.22.23c.14.14.28.29.41.44-.11.16-.23.33-.36.49a.19.19,0,0,1-.14.07Z"/><path class="cls-34" d="M371.28,91.33c0-.09,0-.14-.1-.2-.19-.22-.37-.44-.55-.67l-.09-.12a2.82,2.82,0,0,1-.38-.46,5.74,5.74,0,0,0-.41-.45c-.09-.11-.19-.21-.28-.33l-.51-.65-.06-.07a1.74,1.74,0,0,1-.36-.45.36.36,0,0,0-.14-.16.33.33,0,0,1-.19-.37h1.2s0,.08,0,.11a2.13,2.13,0,0,1,.43.52c.17.07.23.25.34.38a6,6,0,0,0,.62.71.46.46,0,0,1,.07.07,1.08,1.08,0,0,0,.28.38l.33.37.83,1c.09.12.23.22.23.4Z"/><path class="cls-36" d="M378.81,85.31a1,1,0,0,0-.31-.47,1.66,1.66,0,0,1-.16-.21l-.79-.91c-.17-.2-.32-.4-.48-.6l-.41-.49-.9-1.06a1.21,1.21,0,0,1-.09-.2h1.27a.59.59,0,0,0,.06.16l.48.56c.1.13.23.24.32.38a1,1,0,0,0,.2.26,3.94,3.94,0,0,1,.49.51,5.12,5.12,0,0,0,.78,1h0c.24.25.41.56.66.8a.31.31,0,0,1,.15.3Z"/><path class="cls-37" d="M364,75.88l.21.2a2.59,2.59,0,0,1,.42.51A2.86,2.86,0,0,0,365,77a6.31,6.31,0,0,1,.64.73c.19.28.44.52.64.8a3.63,3.63,0,0,0,.41.47.34.34,0,0,1,.11.28h-1.67a1.36,1.36,0,0,0-.1-.21l-.72-.85-.09-.1-.72-.87-.26-.37Z"/><path class="cls-20" d="M378.61,90.78c-.13-.15-.27-.3-.41-.44l-.22-.23-.62-.79c-.1-.12-.22-.22-.33-.34-.25-.3-.5-.59-.73-.9a5.28,5.28,0,0,0-.42-.5s0-.12-.05-.18h1.63s0,.1.05.14a1.51,1.51,0,0,1,.1.17.8.8,0,0,0,.26.29,1.37,1.37,0,0,1,.16.18l.16.2.16.17c.18.22.33.46.52.67a2.51,2.51,0,0,1,.46.61Z"/><path class="cls-38" d="M380.09,85.31a.31.31,0,0,0-.15-.3c-.25-.24-.42-.55-.66-.8h0a5.12,5.12,0,0,1-.78-1,3.94,3.94,0,0,0-.49-.51,1,1,0,0,1-.2-.26c-.09-.14-.22-.25-.32-.38l-.48-.56a.59.59,0,0,1-.06-.16h1.17c.1,0,.14.06.19.13l.84,1.11,1.94,2.55.09.13v0l0,0Z"/><path class="cls-39" d="M367.5,85.31a.74.74,0,0,0-.24-.48c-.21-.24-.43-.46-.64-.68a1.3,1.3,0,0,1-.1-.15,1,1,0,0,0-.28-.33s-.06-.08-.1-.12c-.22-.23-.39-.51-.6-.75a3.47,3.47,0,0,1-.4-.46,4.07,4.07,0,0,0-.55-.62.41.41,0,0,1-.12-.35h1.14a.68.68,0,0,0,.18.38c.1.13.21.24.31.36s0,.07.06.08a3.06,3.06,0,0,1,.51.57c.19.21.36.43.54.65l.2.24.68.82c.17.2.33.4.5.59s.13.14.09.24Z"/><path class="cls-40" d="M373.16,87.4a.32.32,0,0,0,.13.32,2.83,2.83,0,0,1,.32.37c.12.15.25.29.37.43s.24.3.36.45l.37.44c.19.22.37.45.55.67l.48.55c.11.13.23.25.33.39a1.27,1.27,0,0,1,.15.31h-1.11A.28.28,0,0,0,375,91l-.16-.16c-.28-.32-.52-.68-.82-1a.18.18,0,0,1-.05-.07c-.2-.24-.39-.49-.6-.73s-.34-.37-.5-.56-.43-.52-.64-.79c-.08-.1-.2-.19-.18-.35Z"/><path class="cls-39" d="M372.56,91.33c0-.18-.14-.28-.23-.4l-.83-1-.33-.37a1.08,1.08,0,0,1-.28-.38.46.46,0,0,0-.07-.07,6,6,0,0,1-.62-.71c-.11-.13-.17-.31-.34-.38a2.13,2.13,0,0,0-.43-.52s0-.08,0-.11h1.12a.59.59,0,0,0,.2.37,6.1,6.1,0,0,1,.51.61s.06.05.08.08c.19.21.37.42.55.64s.4.49.6.73l.21.26.57.69a3.07,3.07,0,0,1,.28.35.76.76,0,0,1,.06.2Z"/><path class="cls-41" d="M363.9,88.09a1.8,1.8,0,0,0,.48.64c.1.24.37.35.44.6a.13.13,0,0,0,.07.09c.17,0,.2.22.31.33a3.49,3.49,0,0,1,.32.35c.16.21.31.43.47.63a4.4,4.4,0,0,0,.38.37,1.13,1.13,0,0,0,.1.13c-.07.1-.15.06-.22.07l-.35,0h-1.47l.23,0h.27v0l-.14-.15-.19-.23a1.2,1.2,0,0,0-.17-.21c-.19-.17-.32-.39-.49-.57a.43.43,0,0,1-.15-.18.86.86,0,0,0-.33-.42c-.13-.1-.21-.28-.4-.31Z"/><path class="cls-42" d="M363.07,89.18c.19,0,.27.21.4.31a.86.86,0,0,1,.33.42.43.43,0,0,0,.15.18c.17.18.3.4.49.57a1.2,1.2,0,0,1,.17.21l.19.23.14.15v0h-.27l-.23,0h-3a.36.36,0,0,1,.05-.09l1.53-2S363.06,89.2,363.07,89.18Z"/><path class="cls-43" d="M379.55,77.48l-.06,0c-.11-.11-.21-.23-.32-.35l-.37-.43s-.09-.07-.11-.12a9.19,9.19,0,0,0-.78-1,1,1,0,0,1-.09-.24h2.38l.24,0,.36.44a.35.35,0,0,1,0,.11l-1.13,1.47S379.58,77.44,379.55,77.48Z"/><path class="cls-31" d="M372,87.4c0,.16.1.25.18.35.21.27.42.53.64.79s.34.37.5.56.4.49.6.73a.18.18,0,0,0,.05.07c.3.3.54.66.82,1L375,91a.28.28,0,0,1,.12.29h-.84a.34.34,0,0,0-.17-.29A.9.9,0,0,1,374,91a.87.87,0,0,0-.37-.43s-.05-.08-.08-.11l-.63-.76a3.51,3.51,0,0,0-.46-.56c-.07,0-.1-.15-.16-.22l-.66-.74s0,0,0,0a1,1,0,0,0-.33-.41.22.22,0,0,1-.09-.29Z"/><path class="cls-25" d="M379.33,89.83a2.51,2.51,0,0,0-.46-.61c-.19-.21-.34-.45-.52-.67l-.16-.17-.16-.2a1.37,1.37,0,0,0-.16-.18.8.8,0,0,1-.26-.29,1.51,1.51,0,0,0-.1-.17s0-.1-.05-.14H379a.5.5,0,0,0,.18.31c.12.14.23.28.35.41l.63.67Z"/><path class="cls-31" d="M363.26,76.89l.26.37.72.87.09.1.72.85a1.36,1.36,0,0,1,.1.21h-1.52a.29.29,0,0,0-.12-.27c-.08-.08-.14-.18-.21-.26a8.71,8.71,0,0,0-.7-.8s0-.09-.05-.14Z"/><path class="cls-44" d="M371.2,87.4a.22.22,0,0,0,.09.29,1,1,0,0,1,.33.41s0,0,0,0l.66.74c.06.07.09.17.16.22a3.51,3.51,0,0,1,.46.56l.63.76s.05.08.08.11A.87.87,0,0,1,374,91a.9.9,0,0,0,.1.09.34.34,0,0,1,.17.29h-.68a.76.76,0,0,0-.06-.2,3.07,3.07,0,0,0-.28-.35l-.57-.69-.21-.26c-.2-.24-.39-.49-.6-.73s-.36-.43-.55-.64c0,0-.06,0-.08-.08a6.1,6.1,0,0,0-.51-.61.59.59,0,0,1-.2-.37Z"/><path class="cls-39" d="M362.55,77.82c0,.05,0,.12.05.14a8.71,8.71,0,0,1,.7.8c.07.08.13.18.21.26a.29.29,0,0,1,.12.27h-2.18a.36.36,0,0,1,.05-.09l1-1.37Z"/><path class="cls-26" d="M380.13,88.79l-.63-.67c-.12-.13-.23-.27-.35-.41a.5.5,0,0,1-.18-.31h2.15l.06,0Z"/><path class="cls-45" d="M380.8,75.8l-.36-.44h.72A1.13,1.13,0,0,1,380.8,75.8Z"/><path class="cls-27" d="M367.62,91.33a.09.09,0,0,1,.15,0Z"/><path class="cls-46" d="M351.68,231.71v-1.1a.8.8,0,0,0,0-.43s0,0,0,0V230l.05,0s0-.06,0-.09c.05-.46.09-.92.15-1.38a17.23,17.23,0,0,1,.65-2.93,19.07,19.07,0,0,1,13.82-13,17.77,17.77,0,0,1,3.15-.48l.13,0v0H372a.06.06,0,0,0,0,0h.12a18,18,0,0,1,2.43.32,19.12,19.12,0,0,1,15.26,16.71c0,.13,0,.26,0,.38s0,.08,0,0v3.18c-.05,0-.05,0-.05.11a17,17,0,0,1-.32,2.14,19.1,19.1,0,0,1-13.28,14.47,19,19,0,0,1-3.57.7l-.38,0s-.08,0-.05.05h-2.84s0,0,0,0l-.11,0a17.82,17.82,0,0,1-3.08-.5,19.06,19.06,0,0,1-12.74-10.59,18.79,18.79,0,0,1-1.44-4.64,20.51,20.51,0,0,1-.25-2.07s0-.06,0-.09l-.05,0v-.18s0,0,.05,0A.86.86,0,0,0,351.68,231.71Zm10.86,1.45h0l0,0,.09.15,7,9.66,1.76,2.43s0,0,.06,0a.73.73,0,0,0,.08-.09l2.13-3,6.54-9a1.19,1.19,0,0,0,.09-.15v0h0l-.17.09-2,1.15-5.84,3.38-.86.49-8.33-4.83Zm8.85,3.44.14-.06.76-.44,2-1.17,1.77-1,2-1.17c.61-.36,1.23-.71,1.84-1.08.13-.07.24-.16.36-.24a1,1,0,0,0-.07-.15l-2.54-4.14-3.39-5.53c-.94-1.53-1.88-3.07-2.83-4.6a.39.39,0,0,0-.08-.1.76.76,0,0,0-.11.14q-3,4.86-6,9.74l-2.83,4.62c0,.08.06.09.11.12l3.84,2.23,4.82,2.79A.69.69,0,0,0,371.39,236.6Z"/><path class="cls-47" d="M351.68,230.18s0,0,0,0a.8.8,0,0,1,0,.43Z"/><path class="cls-48" d="M351.68,231.71a.86.86,0,0,1,.05.42s0,0-.05,0Z"/><path class="cls-49" d="M371.39,216.89a.39.39,0,0,1,.08.1c.95,1.53,1.89,3.07,2.83,4.6l3.39,5.53,2.54,4.14a1,1,0,0,1,.07.15l-2.07-.92-1.88-.85-2.4-1.07-2.18-1-.39-.15V217S371.39,216.94,371.39,216.89Z"/><path class="cls-6" d="M371.39,216.89c0,.05,0,.1,0,.15v10.41h0l-.15.05-1.46.65-2.17,1-2.47,1.11-2.12.94-.53.22,2.83-4.62q3-4.87,6-9.74A.76.76,0,0,1,371.39,216.89Z"/><path class="cls-50" d="M371.38,227.45l.39.15,2.18,1,2.4,1.07,1.88.85,2.07.92c-.12.08-.23.17-.36.24-.61.37-1.23.72-1.84,1.08l-2,1.17-1.77,1-2,1.17-.76.44-.14.06c0-.08,0-.15,0-.23V227.7c0-.08,0-.17,0-.25Z"/><path class="cls-49" d="M371.37,227.45c0,.08,0,.17,0,.25v8.67c0,.08,0,.15,0,.23a.69.69,0,0,1-.15-.07l-4.82-2.79-3.84-2.23c-.05,0-.13,0-.11-.12l.53-.22,2.12-.94,2.47-1.11,2.17-1,1.46-.65Z"/><path class="cls-49" d="M380.25,233.19a1.19,1.19,0,0,1-.09.15l-6.54,9-2.13,3a.73.73,0,0,1-.08.09s0,0-.06,0a1.46,1.46,0,0,0,0-.22v-6.92l.86-.49,5.84-3.38,2-1.15.17-.09Z"/><path class="cls-51" d="M371.38,238.28v6.92a1.46,1.46,0,0,1,0,.22L369.59,243l-7-9.66-.09-.15,0,0,.51.29Z"/><path class="cls-51" d="M362.52,233.18l0,0h0Z"/><path class="cls-49" d="M380.23,233.17h0v0Z"/><path class="cls-52" d="M94.45,209l1.93.13c.37,0,.75.08,1.11.15.59.11,1.18.22,1.76.37a19.16,19.16,0,0,1,11.93,9.12,18.33,18.33,0,0,1,2.11,5.49c.07.35.1.7.18,1a13.87,13.87,0,0,1,.24,2.64,18.08,18.08,0,0,1-.69,5.43,19.11,19.11,0,0,1-8.26,11,18.62,18.62,0,0,1-6.3,2.55c-.5.11-1,.19-1.5.26a19.15,19.15,0,0,1-3.86.08c-.23,0-.47,0-.7-.05l-.66-.11-1.21-.22c-.29-.06-.59-.11-.88-.19-.47-.14-.94-.3-1.41-.46a19.19,19.19,0,0,1-11.71-11.56,21.47,21.47,0,0,1-.79-2.85q-.12-.63-.21-1.26a18.55,18.55,0,0,1-.12-3.33c0-.53,0-1.07.12-1.6a16.73,16.73,0,0,1,.47-2.32c.17-.6.34-1.21.56-1.79a18.75,18.75,0,0,1,5.27-7.73,19.08,19.08,0,0,1,5.85-3.55,18.1,18.1,0,0,1,4.21-1.08A23.42,23.42,0,0,1,94.45,209Zm-4.67,11.57,0,.12v.23l0,.13c-.32,1.33-.65,2.67-1,4l-1.65,6.75a.79.79,0,0,1-.63.62l-.08,0h-.25l-.09,0a.9.9,0,0,1-.16,0L84.44,232l-.22,0c-.41.93-.81,1.85-1.21,2.78l2.44.68,2.43.62-1,4.1,2.44.69,1-4a15,15,0,0,1,2,.44c0,.06,0,.1,0,.14l-.54,2.08c-.15.56-.31,1.12-.46,1.67,0,0,0,.09,0,.12s.07,0,.11,0l2.08.67.2,0c.12-.47.25-.92.38-1.37s.25-.9.37-1.35.24-.91.38-1.35c.63.09,1.24.19,1.84.23l.16,0h.36l.26,0h1l.19,0a4.6,4.6,0,0,0,1-.11,5.07,5.07,0,0,0,2.34-1.07,5.2,5.2,0,0,0,1.39-2,8.87,8.87,0,0,0,.51-1.61c0-.2.06-.41.09-.62l0-.15V232l0,0c0-.09,0-.19,0-.28a3.59,3.59,0,0,0-.9-1.84,5.19,5.19,0,0,0-1.34-1c-.12-.08-.26-.14-.4-.23l.16,0a4.22,4.22,0,0,0,1.35-.61,3.78,3.78,0,0,0,1.43-2.11,9.38,9.38,0,0,0,.2-1.18,3.9,3.9,0,0,0,0-1.08,3.54,3.54,0,0,0-.93-1.87,6.24,6.24,0,0,0-1.77-1.33,13.67,13.67,0,0,0-2.23-.94l-.2-.07,1-4-2.44-.7-1,3.92c-.67-.17-1.34-.26-2-.44l1-3.91-2.35-.6c-.36,1.34-.7,2.67-1,4l-.28-.05L89,216.76l-1.38-.35-.69,2.6.14,0c.56.14,1.13.29,1.7.42A1.22,1.22,0,0,1,89.78,220.57Z"/><path class="cls-53" d="M96.7,238.23c-.6,0-1.21-.14-1.84-.23-.14.44-.25.9-.38,1.35s-.25.9-.37,1.35-.26.9-.38,1.37l-.2,0-2.08-.67s-.09,0-.11,0-.06-.08,0-.12c.15-.55.31-1.11.46-1.67l.54-2.08s0-.08,0-.14a15,15,0,0,0-2-.44l-1,4-2.44-.69,1-4.1-2.43-.62L83,234.77c.4-.93.8-1.85,1.21-2.78l.22,0,1.47.36a.9.9,0,0,0,.16,0l.09,0h.25l.08,0a.79.79,0,0,0,.63-.62l1.65-6.75c.33-1.34.66-2.68,1-4l0-.13v-.23l0-.12a1.22,1.22,0,0,0-1-1.1c-.57-.13-1.14-.28-1.7-.42l-.14,0,.69-2.6,1.38.35,3.31.81.28.05c.35-1.32.69-2.65,1-4l2.35.6-1,3.91c.66.18,1.33.27,2,.44l1-3.92,2.44.7-1,4,.2.07a13.67,13.67,0,0,1,2.23.94,6.24,6.24,0,0,1,1.77,1.33,3.54,3.54,0,0,1,.93,1.87,3.9,3.9,0,0,1,0,1.08,9.38,9.38,0,0,1-.2,1.18,3.78,3.78,0,0,1-1.43,2.11,4.22,4.22,0,0,1-1.35.61l-.16,0c.14.09.28.15.4.23a5.19,5.19,0,0,1,1.34,1,3.59,3.59,0,0,1,.9,1.84c0,.09,0,.19,0,.28l0,0v.11a.58.58,0,0,0,0,.41v.18l0,.15c0,.21,0,.42-.09.62a8.87,8.87,0,0,1-.51,1.61,5.2,5.2,0,0,1-1.39,2,5.07,5.07,0,0,1-2.34,1.07,4.6,4.6,0,0,1-1,.11l-.19,0h-1l-.26,0h-.36Zm-5.5-4,.65.16a21.81,21.81,0,0,0,3,.59,6.84,6.84,0,0,0,1.63,0,3.45,3.45,0,0,0,1.09-.29,2.31,2.31,0,0,0,1.24-2.64,2.37,2.37,0,0,0-.75-1.16,5,5,0,0,0-1.19-.77,11.12,11.12,0,0,0-2.16-.77l-1.4-.34-.79-.18Zm3.22-12.79-1.22,5,.1,0a18.44,18.44,0,0,0,2.75.59,6.08,6.08,0,0,0,1.65,0,2.55,2.55,0,0,0,1.26-.57,2.17,2.17,0,0,0,.09-3,3.74,3.74,0,0,0-.87-.67,8.05,8.05,0,0,0-1.93-.78c-.26-.08-.52-.13-.78-.2Z"/><path class="cls-54" d="M104,232.54a.58.58,0,0,1,0-.41Z"/><path class="cls-55" d="M97.22,238.26l.26,0Z"/><path class="cls-55" d="M98.48,238.28l.19,0Z"/><path class="cls-54" d="M104,232.87l0-.15Z"/><path class="cls-56" d="M96.7,238.23l.16,0Z"/><path class="cls-57" d="M89.78,220.57l0,.12Z"/><path class="cls-57" d="M86.16,232.45l-.09,0Z"/><path class="cls-57" d="M86.49,232.43l-.08,0Z"/><path class="cls-57" d="M89.79,220.87v0Z"/><path class="cls-54" d="M104,232l0,0Z"/><path class="cls-58" d="M91.2,234.24l1.3-5.39.79.18,1.4.34a11.12,11.12,0,0,1,2.16.77,5,5,0,0,1,1.19.77,2.37,2.37,0,0,1,.75,1.16,2.31,2.31,0,0,1-1.24,2.64,3.45,3.45,0,0,1-1.09.29,6.84,6.84,0,0,1-1.63,0,21.81,21.81,0,0,1-3-.59Z"/><path class="cls-58" d="M94.42,221.45l1,.3c.26.07.52.12.78.2a8.05,8.05,0,0,1,1.93.78,3.74,3.74,0,0,1,.87.67,2.17,2.17,0,0,1-.09,3,2.55,2.55,0,0,1-1.26.57,6.08,6.08,0,0,1-1.65,0,18.44,18.44,0,0,1-2.75-.59l-.1,0Z"/><path class="cls-59" d="M269.13,251.49C260,241.66,243,246,237.07,234.73q-.19-3.47-.6-6.54c-16.87,8.67-36.95,10.07-55.18,16.05a111,111,0,0,0-31.11,16.05c-4.6,3.39-9.37,6.45-11.5,11.75-2.22,5.5-1.34,12.55-1.48,18.47,0,1.34-.12,2.68-.23,4H287.33S278.22,261.31,269.13,251.49Z"/><path class="cls-60" d="M139,272.94c2.13-5.3,1.73-5.69,6.33-9.08,9.43-6.95,24.88-16,36-19.62,18.23-6,38.31-7.38,55.18-16.05-2.85-22.07-13.27-29.55-30.19-29.29-18.49.29-25.71,12.14-26.87,21.67s-.58,11.85-6.35,18.49-25.72,7.51-35,13.87-17.39,41.6-17.39,41.6H137c.11-1.34.19-2.68.23-4C137.34,284.59,136.73,278.43,139,272.94Z"/><path class="cls-61" d="M170.53,294.53c.76-7.83,1.71-17.6,4.45-25s7.45-14.28,14.25-18.24a36,36,0,0,1,14.1-4.27,35.57,35.57,0,0,1,14.42.95c8.36,2.55,15,9.32,18.95,17.1s5.62,20.76,6.58,29.45Z"/><path class="cls-62" d="M287.33,295.55H120.71a1,1,0,0,1-.79-.39,1,1,0,0,1-.2-.85c.34-1.46,8.34-35.71,17.8-42.22,4.46-3.06,11.19-4.85,17.7-6.59,7.3-1.95,14.19-3.79,17.07-7.1,4.76-5.48,5-7.7,5.71-14.32.11-1.09.24-2.29.41-3.63a25.13,25.13,0,0,1,7.22-14.9c5-5,12-7.52,20.63-7.66,10-.15,17.4,2.44,22.51,7.94,5.46,5.9,8.5,15.25,9.3,28.62,3,5.44,9,6.93,15.28,8.52,5.94,1.48,12.07,3,16.52,7.83,3.87,4.17,8.15,12.77,12.72,25.55,3.39,9.46,5.69,17.83,5.72,17.92a1,1,0,0,1-1,1.28Zm-165.33-2H286c-1.78-6.18-9.79-32.9-17.6-41.35-4.05-4.37-9.88-5.83-15.53-7.24-6.55-1.64-13.33-3.33-16.68-9.73a1,1,0,0,1-.12-.41c-1.43-24.75-10.34-35.19-29.76-34.87-17.26.27-24.69,10.91-25.88,20.77-.16,1.33-.29,2.52-.41,3.61-.72,6.7-1,9.47-6.19,15.43-3.28,3.78-10.47,5.7-18.08,7.73-6.35,1.69-12.9,3.44-17.07,6.3C130.81,259.17,123.54,287.25,122,293.52Z"/><path class="cls-60" d="M125.2,326.6q3.9-23.14,9.35-46c1-4.25,2.12-8.59,4.58-12.2,1.64-2.4,4.41-3.67,7-5.07-1.38-3.44-4-6.73-7.17-8-8.33-3.43-11.55,15.85-13.41,21.4a181.34,181.34,0,0,0-8,35.11c-.9,7.26-1.35,14.74.56,21.79.78,2.88,2.37,6,5.28,6.66a6.42,6.42,0,0,0,.75.1A57.27,57.27,0,0,1,125.2,326.6Z"/><path class="cls-59" d="M139.2,268.62c-2.47,3.61-3.63,7.75-4.65,12q-5.45,22.81-9.35,46a57.27,57.27,0,0,0-1.1,13.79,8.13,8.13,0,0,0,4.32-1.24c7.13-4.08,10.1-12.68,12.18-20.62,2.59-9.92,11.24-40.72,5.28-55.67A19.34,19.34,0,0,0,139.2,268.62Z"/><path class="cls-62" d="M124.4,341.41a5.86,5.86,0,0,1-1.26-.13c-2.77-.6-4.92-3.22-6-7.38-2-7.46-1.43-15.4-.58-22.18a182.58,182.58,0,0,1,8-35.31c.31-.93.58-2.24.91-3.76,1.28-6,3.42-16.18,12.24-20.93a1,1,0,0,1,1,1.79c-8,4.3-9.93,13.48-11.22,19.56-.34,1.58-.63,2.95-1,4a180.94,180.94,0,0,0-8,34.92c-.82,6.58-1.4,14.28.53,21.4.53,2,1.83,5.35,4.52,5.93a6.36,6.36,0,0,0,4.35-1c6.69-3.83,9.58-11.88,11.7-20l.18-.69c1.79-6.84,6-22.86,6.73-36.82a1,1,0,1,1,2,.11c-.76,14.17-5,30.32-6.79,37.22l-.18.69c-2.24,8.55-5.32,17.05-12.66,21.25A9.23,9.23,0,0,1,124.4,341.41Z"/><path class="cls-59" d="M125.05,329.75c4.8-2.05,8.81-6.05,12.71-10,8.3-8.35,16.89-17.21,22.26-28.23-4.57-3.18-14.06,2.35-17.73,4.75C132.7,302.58,124.74,313,119.13,324a26,26,0,0,0-2.39,6.78A14.63,14.63,0,0,0,125.05,329.75Z"/><path class="cls-60" d="M160,291.55c-5.37,11-14,19.88-22.26,28.23-3.9,3.92-7.91,7.92-12.71,10a14.63,14.63,0,0,1-8.31,1.05c-.55,2.95-.35,5.86,1.34,8a6.72,6.72,0,0,0,6.81,2.24,17.94,17.94,0,0,0,6.68-3.54,103.93,103.93,0,0,0,28.66-33c1.25-2.28,2.48-4.84,2.27-7.56S161.36,292.48,160,291.55Z"/><path class="cls-62" d="M123.27,342.26a7.5,7.5,0,0,1-6-2.81c-2.19-2.8-2.3-10.79-1.53-14.05a1,1,0,0,1,2,.46c-.72,3.06-.42,10.32,1.16,12.34a5.76,5.76,0,0,0,5.8,1.88,17.22,17.22,0,0,0,6.29-3.37A103,103,0,0,0,159.34,304c1.14-2.08,2.35-4.5,2.15-7s-1-4.17-2.54-4.91c-1.12-.55-5.6-1.81-16.11,5.06-4.38,2.87-12.56,11.55-18.61,19.77a1,1,0,1,1-1.63-1.2c5.41-7.35,14.05-16.94,19.13-20.26,3.7-2.42,12.86-7.77,18.11-5.19,2.18,1.06,3.41,3.28,3.67,6.57.24,3.06-1.11,5.8-2.4,8.13a105.21,105.21,0,0,1-28.93,33.37,19.24,19.24,0,0,1-7.08,3.73A8.89,8.89,0,0,1,123.27,342.26Z"/><path class="cls-63" d="M195.31,291.12c-10.34-.46-20.22-3.86-29.84-7.87l5.07,58.4h67.23l3.81-60.92a110.34,110.34,0,0,1-20.9,7.06C212.37,289.85,203.86,291.5,195.31,291.12Z"/><path class="cls-64" d="M162.91,253.69l2.56,29.56c9.62,4,19.5,7.41,29.84,7.87,8.55.38,17.06-1.27,25.37-3.33a110.34,110.34,0,0,0,20.9-7.06l1.7-27Z"/><path class="cls-65" d="M237.77,342.66H170.54a1,1,0,0,1-1-.93l-7.63-88a1,1,0,0,1,1-1.1h80.37a1,1,0,0,1,1,1.08l-5.51,87.95A1,1,0,0,1,237.77,342.66Zm-66.3-2h65.35l5.38-85.92H164Z"/><polygon class="cls-66" points="243.28 253.02 241.7 249.88 164.75 249.88 162.91 253.69 243.28 253.02"/><path class="cls-65" d="M243.28,254.71H162.91a1,1,0,0,1-.86-.48,1,1,0,0,1-.05-1l1.84-3.82a1,1,0,0,1,.91-.57H241.7a1,1,0,0,1,.94.63l1.57,3.82a1,1,0,0,1-.09.95A1,1,0,0,1,243.28,254.71Zm-78.75-2h77.23l-.74-1.79H165.39Z"/><path class="cls-65" d="M174.48,285.56a5.32,5.32,0,0,1-5.27-4.87L167.87,264a5.28,5.28,0,0,1,5.27-5.71h.54a5.27,5.27,0,0,1,5.28,5l.8,16.69a5.28,5.28,0,0,1-5.28,5.54Zm-1.34-25.23a3.24,3.24,0,0,0-3.25,3.52l1.34,16.68a3.28,3.28,0,0,0,3.25,3,3.26,3.26,0,0,0,3.26-3.42l-.8-16.68a3.26,3.26,0,0,0-3.26-3.1Z"/><circle class="cls-67" cx="173.37" cy="264.71" r="2.33"/><circle class="cls-67" cx="174" cy="271.93" r="2.16"/><circle class="cls-67" cx="174.49" cy="278.77" r="2.27"/><path class="cls-60" d="M150.37,321.28a13.5,13.5,0,0,0,3.56,1.33,17.62,17.62,0,0,0-3.09,1.75,35.88,35.88,0,0,1,5.83,3.2l7.76-1.54.06-4a36.07,36.07,0,0,0,7.82-1.76c-1,.29-2.05.52-3.08.73C163,322.26,156.46,322.91,150.37,321.28Z"/><path class="cls-60" d="M148.26,335.93c-.47-.14-.94-.31-1.41-.49,2.05,5.55,7.68,7.32,16.12,5.54,9.4-2,13.51-5.74,12.81-8.88-.05-.23-.11-.47-.16-.71a24.35,24.35,0,0,1-9.83,5.22A32,32,0,0,1,148.26,335.93Z"/><path class="cls-60" d="M156.69,305.94c-1.52-.06-3.05-.15-4.58-.3l.95.14a44.62,44.62,0,0,0-4.08,2.27,39.81,39.81,0,0,1,6,2.22,36.4,36.4,0,0,1,12.42-4.08,15.24,15.24,0,0,0-2.6-.05l.58-.08Q161,306.12,156.69,305.94Z"/><path class="cls-60" d="M158,318.39a32.38,32.38,0,0,1-13.87-5,.34.34,0,0,0,0,.1,12.73,12.73,0,0,0,6.21,7.79c6.09,1.63,12.64,1,18.86-.28,1-.21,2.07-.44,3.08-.73,2.92-1,5.71-2.7,6.46-5.21a4.45,4.45,0,0,0-.13-3A26.92,26.92,0,0,1,158,318.39Z"/><path class="cls-60" d="M180.67,300.13c1.19-2.09,1.77-4.81.2-7a14.27,14.27,0,0,1-.85,1.19,21.77,21.77,0,0,1-11.82,7.09,50.42,50.42,0,0,1-13.93,1.09c-3.37-.1-6.74-.32-10.09-.65,1.67,2.28,4.88,3.23,7.93,3.75,1.53.15,3.06.24,4.58.3q4.32.18,8.64.12C167.93,305.69,178.46,304,180.67,300.13Z"/><path class="cls-68" d="M178.77,315.06c-.75,2.51-3.54,4.16-6.46,5.21a18,18,0,0,0,3.83-1.5,9.65,9.65,0,0,0,4.72-5.32c.28-.88.07-2.21-.85-2.21a1.76,1.76,0,0,0-1.08.6l-.29.26A4.45,4.45,0,0,1,178.77,315.06Z"/><path class="cls-68" d="M167.35,306.19c1.06-.15,2.12-.25,3.19-.3-1.74.09-3.47.15-5.21.17l-.58.08A15.24,15.24,0,0,1,167.35,306.19Z"/><path class="cls-59" d="M168.2,301.45A21.77,21.77,0,0,0,180,294.36a14.27,14.27,0,0,0,.85-1.19c-1.72-2.35-6-4-15-3.34v-3.36s-19.87.1-22.34,8.35c-1,3.22-.55,5.47.63,7.07,3.35.33,6.72.55,10.09.65A50.42,50.42,0,0,0,168.2,301.45Z"/><path class="cls-59" d="M150.84,324.36c-2.46,1.74-5.37,4.77-4.55,9.05a12,12,0,0,0,.56,2c.47.18.94.35,1.41.49a32,32,0,0,0,17.53.68,24.35,24.35,0,0,0,9.83-5.22c-.72-3-2.09-6.72-11.2-5V326l-7.76,1.54A35.88,35.88,0,0,0,150.84,324.36Z"/><path class="cls-59" d="M149,308.05c-2.49,1.56-5.13,3.65-4.83,5.34a32.38,32.38,0,0,0,13.87,5,26.92,26.92,0,0,0,20.62-6.29c-1.37-3.34-6.74-5.48-11.29-5.91a36.4,36.4,0,0,0-12.42,4.08A39.81,39.81,0,0,0,149,308.05Z"/><path class="cls-62" d="M157.5,342.6a18.5,18.5,0,0,1-2.76-.2,11.62,11.62,0,0,1-7.57-4.24,10.18,10.18,0,0,1-1.07-10,11.94,11.94,0,0,1,7.54-6.55,1,1,0,0,1,.58,1.94A9.89,9.89,0,0,0,148,329a8.12,8.12,0,0,0,.83,7.95,9.7,9.7,0,0,0,6.27,3.45,22.82,22.82,0,0,0,7.72-.4c3-.59,6.89-1.59,9.69-4.1,1.6-1.42,2.87-3.73,2.11-5.65-1-2.45-4.53-2.89-6-3A25.61,25.61,0,0,0,158,329a1,1,0,0,1-.74-1.88,27.84,27.84,0,0,1,11.46-1.84c4,.21,6.81,1.77,7.79,4.26,1.2,3-.67,6.15-2.64,7.9-3.17,2.84-7.36,3.94-10.66,4.58A30.24,30.24,0,0,1,157.5,342.6Z"/><path class="cls-62" d="M158.06,323.57h-.79a18.48,18.48,0,0,1-9-2.08,9.6,9.6,0,0,1-5.09-8c0-1.66,1.41-3.36,2.58-4.49,2.2-2.11,5.81-4.3,8.14-4.23a1,1,0,0,1,1,1.05,1,1,0,0,1-1.05,1c-1.45-.05-4.56,1.66-6.65,3.67-1.23,1.17-2,2.3-2,3a7.55,7.55,0,0,0,4.06,6.23,16.53,16.53,0,0,0,8.07,1.81,39,39,0,0,0,14.8-2.62,12,12,0,0,0,4.11-2.37,4.54,4.54,0,0,0,1.49-3.79c-.34-2.16-2.83-3.53-5-4.09-2.9-.73-11-1.19-16.36,2.23a1,1,0,0,1-1.1-1.71c5.92-3.8,14.65-3.31,17.95-2.48,3.68.93,6.13,3.07,6.55,5.73a6.46,6.46,0,0,1-2.07,5.55,13.8,13.8,0,0,1-4.79,2.82A41.33,41.33,0,0,1,158.06,323.57Z"/><path class="cls-62" d="M160.13,307.41a41.71,41.71,0,0,1-9.38-1.06c-4.22-1-6.89-2.67-8.14-5.18-1.66-3.33-.32-7.18,1.76-9.52s9.82-6.19,21.82-6.19a1,1,0,0,1,0,2c-11.67,0-18.72,3.7-20.31,5.5s-2.69,4.81-1.46,7.27c1,1.94,3.19,3.28,6.79,4.11a40.08,40.08,0,0,0,24.35-2.06A12.43,12.43,0,0,0,179.4,300a4.62,4.62,0,0,0,1.56-3.53c-.17-2.2-2.52-3.8-4.67-4.57-6.09-2.18-12.91-.93-18.92.17a1,1,0,0,1-.37-2c6-1.09,13.37-2.45,20-.09,3.55,1.27,5.79,3.63,6,6.32a6.58,6.58,0,0,1-2.17,5.14,14.22,14.22,0,0,1-4.47,2.71A42.09,42.09,0,0,1,160.13,307.41Z"/><path class="cls-59" d="M283.11,326.6q-3.9-23.14-9.35-46c-1-4.25-2.12-8.59-4.58-12.2-1.65-2.4-4.41-3.67-7-5.07,1.38-3.44,4-6.73,7.17-8,8.33-3.43,11.55,15.85,13.41,21.4a181.31,181.31,0,0,1,8,35.11c.91,7.26,1.36,14.74-.55,21.79-.78,2.88-2.37,6-5.28,6.66a6.42,6.42,0,0,1-.75.1A57.78,57.78,0,0,0,283.11,326.6Z"/><path class="cls-60" d="M269.11,268.62c2.47,3.61,3.63,7.75,4.65,12q5.44,22.81,9.35,46a57.78,57.78,0,0,1,1.1,13.79,8.13,8.13,0,0,1-4.32-1.24c-7.13-4.08-10.1-12.68-12.18-20.62-2.59-9.92-11.24-40.72-5.28-55.67A19.34,19.34,0,0,1,269.11,268.62Z"/><path class="cls-62" d="M283.91,341.41a9.2,9.2,0,0,1-4.52-1.38c-7.35-4.2-10.43-12.7-12.66-21.25l-.18-.69c-1.8-6.9-6-23-6.8-37.22a1,1,0,1,1,2-.11c.75,14,4.94,30,6.73,36.82l.18.69c2.12,8.12,5,16.17,11.7,20a6.31,6.31,0,0,0,4.35,1c2.69-.58,4-4,4.52-5.93,1.93-7.12,1.35-14.82.53-21.4a180.94,180.94,0,0,0-8-34.92l-.42-1.29c-1.94-6-7.08-21.89-16.48-26.95a1,1,0,1,1,1-1.78c10.12,5.45,15.44,21.91,17.45,28.1.15.49.29.92.41,1.28a182.58,182.58,0,0,1,8,35.31c.85,6.78,1.44,14.72-.58,22.18-1.13,4.16-3.28,6.78-6.05,7.38A5.86,5.86,0,0,1,283.91,341.41Z"/><path class="cls-59" d="M283.26,329.75c-4.8-2.05-8.81-6.05-12.71-10-8.3-8.35-16.89-17.21-22.26-28.23,4.57-3.18,14.06,2.35,17.73,4.75,9.58,6.28,17.55,16.65,23.15,27.72a26,26,0,0,1,2.4,6.78A14.63,14.63,0,0,1,283.26,329.75Z"/><path class="cls-60" d="M248.29,291.55c5.37,11,14,19.88,22.26,28.23,3.9,3.92,7.91,7.92,12.71,10a14.63,14.63,0,0,0,8.31,1.05c.55,2.95.35,5.86-1.34,8a6.72,6.72,0,0,1-6.81,2.24,17.94,17.94,0,0,1-6.68-3.54,103.81,103.81,0,0,1-28.66-33c-1.26-2.28-2.48-4.84-2.27-7.56S246.94,292.48,248.29,291.55Z"/><path class="cls-62" d="M285,342.26a8.89,8.89,0,0,1-1.83-.19,19.09,19.09,0,0,1-7.08-3.73A105.21,105.21,0,0,1,247.2,305c-1.38-2.5-2.63-5.22-2.4-8.13.26-3.29,1.49-5.51,3.66-6.57,5.25-2.58,14.42,2.77,18.11,5.19,5.09,3.32,13.73,12.91,19.14,20.26a1,1,0,1,1-1.63,1.2c-6.06-8.22-14.23-16.9-18.62-19.77-10.51-6.87-15-5.61-16.1-5.06-1.51.74-2.34,2.34-2.54,4.91s1,4.92,2.15,7a103,103,0,0,0,28.37,32.72,17.22,17.22,0,0,0,6.29,3.37,5.77,5.77,0,0,0,5.8-1.88c1.58-2,1.88-9.27,1.15-12.34a1,1,0,0,1,2-.46c.77,3.26.65,11.25-1.53,14.05A7.5,7.5,0,0,1,285,342.26Z"/><path class="cls-60" d="M257.94,321.28a13.63,13.63,0,0,1-3.56,1.33,17.62,17.62,0,0,1,3.09,1.75,35.46,35.46,0,0,0-5.83,3.2L243.88,326l-.06-4a36.22,36.22,0,0,1-7.83-1.76c1,.29,2.06.52,3.09.73C245.3,322.26,251.84,322.91,257.94,321.28Z"/><path class="cls-60" d="M260.05,335.93c.47-.14.94-.31,1.41-.49-2,5.55-7.68,7.32-16.12,5.54-9.4-2-13.51-5.74-12.81-8.88.05-.23.11-.47.16-.71a24.35,24.35,0,0,0,9.83,5.22A32,32,0,0,0,260.05,335.93Z"/><path class="cls-60" d="M251.62,305.94c1.52-.06,3-.15,4.58-.3l-.95.14a46.2,46.2,0,0,1,4.08,2.27,39.81,39.81,0,0,0-5.95,2.22A36.4,36.4,0,0,0,241,306.19a15.24,15.24,0,0,1,2.6-.05l-.58-.08Q247.3,306.12,251.62,305.94Z"/><path class="cls-60" d="M250.29,318.39a32.38,32.38,0,0,0,13.87-5,.34.34,0,0,0,0,.1,12.76,12.76,0,0,1-6.21,7.79c-6.1,1.63-12.64,1-18.86-.28-1-.21-2.07-.44-3.09-.73-2.91-1-5.71-2.7-6.45-5.21a4.38,4.38,0,0,1,.13-3A26.91,26.91,0,0,0,250.29,318.39Z"/><path class="cls-60" d="M227.64,300.13c-1.2-2.09-1.77-4.81-.2-7a12.28,12.28,0,0,0,.85,1.19,21.78,21.78,0,0,0,11.81,7.09A50.52,50.52,0,0,0,254,302.54c3.37-.1,6.74-.32,10.09-.65-1.67,2.28-4.89,3.23-7.93,3.75-1.53.15-3.06.24-4.58.3q-4.32.18-8.64.12C240.38,305.69,229.85,304,227.64,300.13Z"/><path class="cls-68" d="M229.54,315.06c.74,2.51,3.54,4.16,6.45,5.21a18.16,18.16,0,0,1-3.82-1.5,9.65,9.65,0,0,1-4.72-5.32c-.28-.88-.08-2.21.85-2.21a1.76,1.76,0,0,1,1.08.6l.29.26A4.38,4.38,0,0,0,229.54,315.06Z"/><path class="cls-68" d="M241,306.19c-1.06-.15-2.12-.25-3.19-.3,1.74.09,3.47.15,5.21.17l.58.08A15.24,15.24,0,0,0,241,306.19Z"/><path class="cls-59" d="M240.1,301.45a21.78,21.78,0,0,1-11.81-7.09,12.28,12.28,0,0,1-.85-1.19c1.72-2.35,6-4,15-3.34v-3.36s19.87.1,22.34,8.35c1,3.22.55,5.47-.63,7.07-3.35.33-6.72.55-10.09.65A50.52,50.52,0,0,1,240.1,301.45Z"/><path class="cls-59" d="M257.47,324.36c2.46,1.74,5.37,4.77,4.55,9.05a13.05,13.05,0,0,1-.56,2c-.47.18-.94.35-1.41.49a32,32,0,0,1-17.53.68,24.35,24.35,0,0,1-9.83-5.22c.72-3,2.09-6.72,11.19-5V326l7.76,1.54A35.46,35.46,0,0,1,257.47,324.36Z"/><path class="cls-59" d="M259.33,308.05c2.49,1.56,5.13,3.65,4.83,5.34a32.38,32.38,0,0,1-13.87,5,26.91,26.91,0,0,1-20.62-6.29c1.37-3.34,6.74-5.48,11.29-5.91a36.4,36.4,0,0,1,12.42,4.08A39.81,39.81,0,0,1,259.33,308.05Z"/><path class="cls-62" d="M250.81,342.6a30.24,30.24,0,0,1-5.66-.62c-3.3-.64-7.49-1.74-10.67-4.58-2-1.75-3.83-4.88-2.64-7.9,1-2.49,3.83-4.05,7.8-4.26a27.79,27.79,0,0,1,11.45,1.84,1,1,0,1,1-.73,1.88,25.63,25.63,0,0,0-10.62-1.69c-1.48.08-5,.52-6,3-.76,1.92.51,4.23,2.11,5.65,2.8,2.51,6.65,3.51,9.69,4.1a22.8,22.8,0,0,0,7.72.4,9.7,9.7,0,0,0,6.27-3.45,8.12,8.12,0,0,0,.83-7.95,9.89,9.89,0,0,0-6.27-5.41,1,1,0,1,1,.59-1.94,11.94,11.94,0,0,1,7.54,6.55,10.21,10.21,0,0,1-1.07,10,11.62,11.62,0,0,1-7.58,4.24A18.27,18.27,0,0,1,250.81,342.6Z"/><path class="cls-62" d="M250.25,323.57a41.07,41.07,0,0,1-14.79-2.77,13.83,13.83,0,0,1-4.8-2.82,6.51,6.51,0,0,1-2.07-5.55c.43-2.66,2.88-4.8,6.56-5.73,3.3-.83,12-1.32,17.95,2.48a1,1,0,0,1-1.1,1.71c-5.31-3.42-13.46-3-16.36-2.23-2.21.56-4.7,1.93-5,4.09a4.6,4.6,0,0,0,1.49,3.79,12.14,12.14,0,0,0,4.12,2.37,39,39,0,0,0,14.8,2.62,16.56,16.56,0,0,0,8.07-1.81,7.55,7.55,0,0,0,4.06-6.23c0-.72-.73-1.85-2-3-2.09-2-5.2-3.72-6.65-3.67h0a1,1,0,0,1,0-2c2.34-.09,5.94,2.12,8.14,4.23,1.17,1.14,2.58,2.83,2.58,4.49a9.6,9.6,0,0,1-5.09,8,18.48,18.48,0,0,1-9,2.08Z"/><path class="cls-62" d="M248.18,307.41A42.18,42.18,0,0,1,232,304.18a14.29,14.29,0,0,1-4.46-2.71,6.55,6.55,0,0,1-2.17-5.14c.21-2.69,2.45-5.05,6-6.32,6.61-2.36,14-1,20,.09a1,1,0,0,1-.37,2c-6-1.1-12.83-2.35-18.92-.17-2.15.77-4.5,2.37-4.67,4.57a4.62,4.62,0,0,0,1.56,3.53,12.43,12.43,0,0,0,3.84,2.29,40.07,40.07,0,0,0,24.35,2.06c3.6-.83,5.82-2.17,6.79-4.11,1.23-2.46.1-5.5-1.47-7.27s-8.63-5.5-20.3-5.5a1,1,0,0,1,0-2c12,0,19.63,3.7,21.82,6.19s3.42,6.19,1.76,9.52c-1.25,2.51-3.92,4.2-8.14,5.18A41.77,41.77,0,0,1,248.18,307.41Z"/><path class="cls-69" d="M190.92,65.26c-4.21,6.32-3.26,6.93,0,9.82s-1.56,6.46-1.22,10.23,2.56,1.43,3.53,5.8S191.34,103,191.34,103c3.88,1.4,7.84-1.72,10.6-4.77,6.48-7.15,12-15.42,18.91-22-11.2-7-19.42-17.65-29.46-17.87A6.61,6.61,0,0,1,190.92,65.26Z"/><path class="cls-70" d="M164.73,83.35c9,2.47,16.07,9.44,22.4,16.34a11.38,11.38,0,0,0,4.21,3.33s2.87-7.54,1.89-11.91-3.19-2-3.53-5.8,4.48-7.34,1.22-10.23-4.21-3.5,0-9.82a6.61,6.61,0,0,0,.47-6.85,16.27,16.27,0,0,0-8.11,2.07C172.14,66.35,163.63,82.07,161,83.24l.42.58C162.15,82.89,163.59,83,164.73,83.35Z"/><path class="cls-60" d="M152,105.6c2.79-10.82,16.15-18.19,23.89-11.91A61.9,61.9,0,0,0,191.34,103a11.38,11.38,0,0,1-4.21-3.33c-6.33-6.9-13.36-13.87-22.4-16.34-1.14-.31-2.58-.46-3.32.47l-.42-.58-.09,0c-2.54.85-12.16,5.59-17.45,12s-9.43,11.3-9.43,11.3l8.7-2.53A28,28,0,0,1,152,105.6Z"/><path class="cls-60" d="M283,147.25c1.06-3.44-.08-10.7-1.2-18.25-1.57.63-3.68-.45-5.1-2.38-2.87-3.88-3.8-9.46-17.9-10.25s-28.16,12.45-33.38,18.33c-2.55,2.87-4.68,6.37-6.63,8.73a27.83,27.83,0,0,0-.28,3.82c18.43,39,54.11,12.6,54.11,12.6-.28,9.62,3.62,18.74,2.5,31.31s-20,31.34-42.66,36.87-59.34-.25-69.9-5-35.08-18.71-37.78-27.73,3.31-22.43,3.31-22.43c47.53,13.21,50.53-24.79,50.53-24.79l-2.34-7.69c-8.53-16.23-33-15.58-37.6-15.77-6-.24-13.91,5.82-17.18,12.85-1.25,2.68-3.22,2.79-5.18,1.9-1.6,5.84-.72,14.11-.05,21.84,1.22,13.81-1.67,23.11-1.63,27s4.09,18.56,11.58,26.05,21.66,21.81,58.18,25.83,63.76-5.57,79.05-14.67,24.15-22.94,19.06-39.15C278.26,172.9,280.31,155.87,283,147.25Z"/><path class="cls-71" d="M188.61,144.2c-1.94-5.28-16.87-31.81-36.63-38.6a28,28,0,0,0-9.26-1.59l-8.7,2.53s-11.14,2.84-15,12.37c-2.13,5.32-3,12.34-2.78,20.49,2,.89,3.93.78,5.18-1.9,3.27-7,11.21-13.09,17.18-12.85,4.62.19,30.1-.33,37.26,15.13,1.48,3.2,2.14,2.18,3.28,3.09C184.2,146.9,190.84,150.27,188.61,144.2Z"/><path class="cls-72" d="M152,105.6c19.76,6.79,34.69,33.32,36.63,38.6,2.23,6.07-4.41,2.7-9.42-1.33-1.14-.91-.08-1.62-3.19-3.28l2.59,8.52s-3,38-50.53,24.79c0,0-6,13.41-3.31,22.43s27.21,23,37.78,27.73,47.24,10.5,69.9,5,41.55-24.3,42.66-36.87-2.78-21.69-2.5-31.31c0,0-35.68,26.39-54.11-12.6a27.83,27.83,0,0,1,.28-3.82c-2,2.46-3.9,3.67-5.86,1.54-3.83-4.15,1.76-15.38,10.26-28.58s30.72-19.13,30.72-19.13-8.25-10-26.3-17.45a45.71,45.71,0,0,1-6.73-3.53c-6.95,6.55-12.43,14.82-18.91,22-2.76,3-6.72,6.17-10.6,4.77a61.9,61.9,0,0,1-15.47-9.33C168.13,87.41,154.77,94.78,152,105.6Z"/><path class="cls-71" d="M275.86,110.41c-2.48-4.44-5.75-8.11-10-10.16,0,0-9.87-2.32-12-3,0,0-22.23,5.93-30.72,19.13S209.07,140.82,212.9,145c2,2.13,3.81.92,5.86-1.54s4.08-5.86,6.63-8.73c5.22-5.88,19.28-19.11,33.38-18.33s15,6.37,17.9,10.25c1.42,1.93,3.53,3,5.1,2.38A55.39,55.39,0,0,0,275.86,110.41Z"/><path class="cls-72" d="M138.69,130.43c-7.21,3.18-10.31,10.42-6,19.56s19.15,14.33,29.3,10.62,8.71-15.29,8.12-18.6S154.79,123.35,138.69,130.43Z"/><path class="cls-72" d="M257.31,124.65c-9,0-21,2.95-23.37,14.5s3.35,18.35,14,19.65,17-4.22,20.3-11.28S271.35,124.64,257.31,124.65Z"/><path class="cls-62" d="M188.83,241.84a1,1,0,0,1-.38-.08c-.26-.07-1.3-.2-2.39-.35a158.21,158.21,0,0,1-27.27-5.77c-14.54-4.63-25.47-11.21-32.48-19.57-14.75-17.6-13.28-27.45-11.86-37a57.76,57.76,0,0,0,.82-8.47c0-3.74-.29-7.67-.6-11.82-.87-11.56-1.86-24.66,3.45-38.31a24.9,24.9,0,0,1,15.92-15c8.79-2.87,18.26-1.25,23.08,1.82l2.07,1.31c9.28,5.79,24.8,15.49,30.62,36.11a1,1,0,0,1-1.95.55c-5.6-19.87-20.71-29.3-29.74-34.94L156,109c-4.42-2.82-13.17-4.27-21.36-1.6A22.89,22.89,0,0,0,120,121.23c-5.14,13.23-4.18,26.08-3.32,37.43.31,4.19.61,8.15.61,12a58.21,58.21,0,0,1-.85,8.77c-2.76,18.47,4.13,26.68,11.41,35.36,10.58,12.62,30.25,20.91,58.47,24.64a12.58,12.58,0,0,1,3,.52,1,1,0,0,1-.47,1.92Zm-.46-.12.06,0Z"/><path class="cls-62" d="M232.43,238.94a1,1,0,0,1-1-.76,1,1,0,0,1,.72-1.24C277.11,225.08,282,206.18,281.69,193a83.27,83.27,0,0,0-1.78-15.73,52.92,52.92,0,0,1-1.24-15.37c.24-4,.85-8,1.44-11.78,1.38-8.9,2.68-17.3-.15-27.18-3.53-12.28-10.18-20.82-18.25-23.44-7.84-2.55-17,.17-27.08,8.08-7.17,5.6-16.51,14.6-20.35,25.7-2.29,6.6-1.52,10.89-1.51,10.93a1,1,0,0,1-2,.39c0-.19-.88-4.74,1.53-11.82,4-11.64,13.64-21,21.07-26.8,10.69-8.35,20.43-11.18,28.95-8.41,8.73,2.84,15.86,11.88,19.57,24.81,3,10.3,1.56,19.32.21,28-.58,3.76-1.19,7.66-1.42,11.59a51.53,51.53,0,0,0,1.21,14.86A85.24,85.24,0,0,1,283.72,193c.44,22.05-15.77,36.65-51,46A1.09,1.09,0,0,1,232.43,238.94Z"/><path class="cls-62" d="M135.49,106.82a1.11,1.11,0,0,1-.46-.11,1,1,0,0,1-.43-1.37,56.51,56.51,0,0,1,23.31-22.13c4-2,8.54-7.09,12.94-12,6.29-7,12.24-13.72,18-13.84h.41c9.71,0,18.16,7.68,24.36,13.31,2.37,2.15,7.3,4.46,13,7.13,10.06,4.72,22.57,10.58,29.3,19.35a1,1,0,1,1-1.6,1.23c-6.43-8.37-18.7-14.12-28.56-18.74-5.85-2.75-10.91-5.12-13.5-7.47-6.28-5.7-14.07-12.78-23-12.78h-.37c-4.84.11-10.77,6.75-16.5,13.17-4.53,5.07-9.21,10.31-13.54,12.48a55.68,55.68,0,0,0-22.43,21.26A1,1,0,0,1,135.49,106.82Z"/><path class="cls-62" d="M192.42,162s-6.72,3.22-5.23,6S191.55,168.36,192.42,162Z"/><path class="cls-62" d="M212.5,160.61s.72,5.56,3.63,6.12S220.6,164,212.5,160.61Z"/><path class="cls-62" d="M148.83,170.47a35.37,35.37,0,0,1-5.09-.37c-11.17-1.62-19.38-10.36-22.51-24-1.38-6-.89-10.69,1.51-14.23,2.88-4.25,8.32-6.79,17.65-8.23,14.31-2.21,24.33,3,30.23,7.76a39,39,0,0,1,9.47,11,1,1,0,1,1-1.8.94,17.53,17.53,0,0,0-.94-1.55,26.28,26.28,0,0,1-7.56,20.4A29.27,29.27,0,0,1,148.83,170.47Zm-1.65-45.33a42.59,42.59,0,0,0-6.48.51C132,127,127,129.27,124.41,133c-2.06,3.05-2.46,7.19-1.2,12.65,2.93,12.77,10.52,20.94,20.82,22.43,9.44,1.37,18.3-1.31,24.32-7.34a24.43,24.43,0,0,0,6.75-21,1,1,0,0,1,.2-.76,39.47,39.47,0,0,0-6-6A34.43,34.43,0,0,0,147.18,125.14Z"/><path class="cls-62" d="M129.35,127.64a1,1,0,0,1-.64-.23A18.81,18.81,0,0,1,122,114a1,1,0,0,1,1-1h0a1,1,0,0,1,1,1,17.08,17.08,0,0,0,6,11.84,1,1,0,0,1-.64,1.8Z"/><path class="cls-62" d="M142.27,124.38a1,1,0,0,1-.88-.5c-4.47-7.63-1.08-18.74-.93-19.21a1,1,0,1,1,1.93.6c0,.11-3.27,10.74.75,17.58a1,1,0,0,1-.36,1.39A1.06,1.06,0,0,1,142.27,124.38Z"/><path class="cls-62" d="M166.74,130.86a1,1,0,0,1-1-.74,12.77,12.77,0,0,1,3.69-13.55,1,1,0,0,1,1.26,1.58,10.79,10.79,0,0,0-3,11.41,1,1,0,0,1-.69,1.25A1,1,0,0,1,166.74,130.86Z"/><path class="cls-62" d="M250.45,166.53c-9.63,0-16.82-2.67-21.35-7.94-4.13-4.8-5.86-11.6-5.16-20.23a49.11,49.11,0,0,0-2.66,4.14,1,1,0,0,1-1.78-1,64.46,64.46,0,0,1,8.1-11c4.78-5.28,12.52-12,22.26-14.14,9.46-2.06,17.28-1,22.61,3.2,4.19,3.27,6.6,8.35,6.79,14.31.21,6.81-2.07,17.36-9.2,24.71C265,163.86,258.35,166.53,250.45,166.53Zm-24.1-31.39c-1.43,9.72,0,17.16,4.29,22.13,4.13,4.8,10.79,7.24,19.81,7.24,7.34,0,13.45-2.47,18.16-7.33,6.68-6.9,8.82-16.83,8.62-23.23-.17-5.35-2.3-9.89-6-12.78-4.83-3.78-12.07-4.75-20.93-2.82C239.61,120.68,231.29,128.93,226.35,135.14Z"/><path class="cls-62" d="M238.11,123.48l-.2,0a1,1,0,0,1-.79-1.19c.71-3.46-2.16-6.72-3.42-8-1.51-1.48-2.86-2.13-4-2a1,1,0,1,1-.31-2c1.82-.29,3.76.55,5.76,2.5s4.86,5.54,4,9.82A1,1,0,0,1,238.11,123.48Z"/><path class="cls-62" d="M256.88,116.65a1.13,1.13,0,0,1-.36-.06,1,1,0,0,1-.59-1.31,7.16,7.16,0,0,0,.36-2.44,22.12,22.12,0,0,0-1.86-9.25c-.77-1.73-2.11-3.89-4.16-4.27a1,1,0,1,1,.37-2c2.31.43,4.26,2.31,5.64,5.45a24,24,0,0,1,2,10.1,9.45,9.45,0,0,1-.49,3.12A1,1,0,0,1,256.88,116.65Z"/><path class="cls-62" d="M268.22,117.45a1.11,1.11,0,0,1-.57-.17,1,1,0,0,1-.27-1.41,18.53,18.53,0,0,0,2.86-7,5.5,5.5,0,0,0-.24-3.63,1,1,0,1,1,1.78-1,7.64,7.64,0,0,1,.45,5,20.67,20.67,0,0,1-3.17,7.72A1,1,0,0,1,268.22,117.45Z"/><path class="cls-62" d="M150.78,165.24c-11.84,0-21.47-8.23-21.47-18.33s9.63-18.33,21.47-18.33,21.46,8.22,21.46,18.33S162.61,165.24,150.78,165.24Zm0-35.85c-11.39,0-20.65,7.86-20.65,17.52s9.26,17.52,20.65,17.52,20.65-7.86,20.65-17.52S162.17,129.39,150.78,129.39Z"/><path class="cls-62" d="M250.45,161c-11.83,0-21.46-9.23-21.46-20.56s9.63-20.57,21.46-20.57,21.46,9.23,21.46,20.57S262.29,161,250.45,161Zm0-40.31c-11.39,0-20.65,8.86-20.65,19.75s9.26,19.75,20.65,19.75,20.65-8.86,20.65-19.75S261.84,120.71,250.45,120.71Z"/><path class="cls-62" d="M249.1,160.56A15.57,15.57,0,1,1,264.67,145,15.58,15.58,0,0,1,249.1,160.56Zm0-30.32A14.76,14.76,0,1,0,263.86,145,14.77,14.77,0,0,0,249.1,130.24Z"/><path class="cls-62" d="M151.68,165.54c-8.58,0-15.56-6.54-15.56-14.59s7-14.59,15.56-14.59,15.57,6.54,15.57,14.59S160.26,165.54,151.68,165.54Zm0-28.37c-8.13,0-14.75,6.18-14.75,13.78s6.62,13.78,14.75,13.78,14.76-6.18,14.76-13.78S159.82,137.17,151.68,137.17Z"/><path class="cls-73" d="M168.77,205.83s11.81-8.76,26.41-10.5,38.6.37,38.83,1-11.32,2.24-16.94,3.93S193.82,203,186,202.82C186,202.82,174.63,203.05,168.77,205.83Z"/><path class="cls-62" d="M149,195.63a52.36,52.36,0,0,1-14.88-2.08,1,1,0,1,1,.63-1.92c.14,0,13.87,4.37,27.7,0,2.38-.75,4.73-1.58,7.23-2.47,12.54-4.45,26.74-9.5,50.89-6.41,3.49.44,6.71.88,9.55,1.26,21,2.84,27.41,3.7,37.55-4.08a1,1,0,1,1,1.23,1.61c-10.81,8.29-17.92,7.33-39.05,4.48-2.84-.38-6.06-.82-9.54-1.26-23.66-3-37.63,1.93-50,6.31-2.51.89-4.89,1.73-7.29,2.5A47,47,0,0,1,149,195.63Z"/><circle class="cls-74" cx="154.02" cy="153.28" r="10.84"/><path class="cls-62" d="M154,165.14a11.86,11.86,0,1,1,11.86-11.86A11.87,11.87,0,0,1,154,165.14Zm0-21.69a9.83,9.83,0,1,0,9.83,9.83A9.84,9.84,0,0,0,154,143.45Z"/><circle class="cls-75" cx="154.78" cy="153.28" r="6.84"/><circle class="cls-6" cx="158.79" cy="147.93" r="2.3"/><circle class="cls-76" cx="246.76" cy="149.08" r="10.84"/><path class="cls-62" d="M246.76,160.93a11.86,11.86,0,1,1,11.85-11.85A11.87,11.87,0,0,1,246.76,160.93Zm0-21.68a9.83,9.83,0,1,0,9.83,9.83A9.84,9.84,0,0,0,246.76,139.25Z"/><circle class="cls-75" cx="247.51" cy="149.08" r="6.84"/><circle class="cls-6" cx="251.52" cy="143.72" r="2.3"/></g></svg>