<svg xmlns="http://www.w3.org/2000/svg" viewBox="0 0 400 400"><defs><style>.cls-1{isolation:isolate;}.cls-2{fill:#f3f7ff;}.cls-3{fill:#ccc;}.cls-4{fill:#c7b299;}.cls-5{fill:#f0f0f0;}.cls-6{fill:#42352f;}.cls-7{fill:#534741;}.cls-8{fill:#736357;}.cls-9{fill:#b3b3b3;mix-blend-mode:multiply;}.cls-10{fill:#fced2e;}.cls-11{fill:#62a835;}.cls-12{fill:#84e146;}.cls-13{fill:#1b4a15;}.cls-14{fill:#64a835;}.cls-15{fill:#84e147;}.cls-16{fill:#175807;}.cls-17{fill:#feec30;}.cls-18{fill:#05fadb;}.cls-19{fill:#05baa0;}.cls-20{fill:#730e00;}.cls-21{fill:#eae8e9;}.cls-22{fill:#4b0d00;}.cls-23{fill:#918f8f;}.cls-24{fill:none;}</style></defs><title>i</title><g class="cls-1"><g id="Capa_5" data-name="Capa 5"><path class="cls-2" d="M40.23,169.87h92.26a17.4,17.4,0,0,0,1.24-6.43,17.21,17.21,0,0,0-27-14.13,17.22,17.22,0,0,0-31.55,9.55c0,.35,0,.71,0,1C59.68,160.13,46.42,164.15,40.23,169.87Z"/><path class="cls-3" d="M132.49,170.83H40.23a1,1,0,0,1-.9-.61,1,1,0,0,1,.25-1.07c6.43-6,19.63-9.82,34.6-10.19v-.1A18.19,18.19,0,0,1,106.94,148a18.18,18.18,0,0,1,26.44,22.25A1,1,0,0,1,132.49,170.83ZM43,168.9h88.82a16.25,16.25,0,0,0-24.58-18.8,1,1,0,0,1-.73.16,1,1,0,0,1-.63-.42,16.25,16.25,0,0,0-29.77,9c0,.3,0,.61,0,1a1,1,0,0,1-.26.71.93.93,0,0,1-.7.31C62,161.07,49.8,164.16,43,168.9Z"/><path class="cls-2" d="M235.53,136.56H349.85a15,15,0,0,0-23.2-9.93,25.46,25.46,0,0,0-22.24-13.06,25.49,25.49,0,0,0-51,0c0,.37,0,.74,0,1.1A25.52,25.52,0,0,0,235.53,136.56Z"/><path class="cls-3" d="M349.85,137.53H235.53a1,1,0,0,1-1-1.06A26.34,26.34,0,0,1,252.48,114c0-.13,0-.26,0-.4a26.45,26.45,0,0,1,52.89-.95A26.5,26.5,0,0,1,327,125.28,16,16,0,0,1,350.8,136.4a1,1,0,0,1-.95,1.13Zm-113.23-1.94h112a14,14,0,0,0-21.46-8.15,1,1,0,0,1-.77.14,1,1,0,0,1-.62-.47,24.57,24.57,0,0,0-21.4-12.57,1,1,0,0,1-1-1,24.52,24.52,0,0,0-49,0c0,.36,0,.71,0,1.06a1,1,0,0,1-.69,1A24.41,24.41,0,0,0,236.62,135.59Z"/><path class="cls-4" d="M265.82,252.55c-.07-.59-.13-1.18-.21-1.77A17.11,17.11,0,0,0,265.82,252.55Z"/><path class="cls-4" d="M298.63,341.14a6.29,6.29,0,0,0-.65-1.78C298.19,340,298.41,340.55,298.63,341.14Z"/><path class="cls-5" d="M267.74,255.26a2.24,2.24,0,0,1-4.18-.65c-4.64-25.85-12-44.81-26.93-65.43-8-11.12-23-19.73-36.72-19.73-8.09,0-22.42,2.36-27.17,6.93-9.49,9.17-14.2,13.73-21.39,24.8-19.88,30.61-30.26,39.92-39.49,75.24a2.25,2.25,0,0,1-4.13.54c-6.21-11-3.54-7.23-7-12-5.91-8.3-18.93-6.5-27.81-1.49-14.34,8.1-24.72,21.71-33.26,35.79a249.3,249.3,0,0,0-26.45,60.54A2.25,2.25,0,0,0,15,362.58c2.85.49,8.85,6.39,11.36,4.82,3.79-2.38,6.41-6.19,9-9.83,10.35-14.46,25.16-17.37,38-29.63a8.18,8.18,0,0,1,13.13,2.72l0,.1c1.57,3.53,5.23,6.92,8.86,5.63,2-.7,3.28-2.61,4.4-4.41.34-.54.67-1.08,1-1.62,5.17-8.4,18.46-14.29,28-16.63a11.51,11.51,0,0,0,1.72-.56c4.53-1.91,7.76-5.95,10.63-9.94,20.54-28.55,22.23-40.33,45.51-66.69,4.78-5.42,16.84-21.34,23.69-19,7.26,2.44,9.08,11.6,10.73,19.08,1.8,8.13-31.4,67.63-27.37,74.92a2.24,2.24,0,0,0,4-.22l0-.09a2.25,2.25,0,0,1,4.14,0c2.58,6.2,4.56-12.11,7.15-5.91,2.42,5.8.18,7,4.36,11.69,3.69,4.15,19.07,15.62,24.54,15.64,1.21,0,2.25-9.47,2.29-10.68.22-6,0,18.81-.66,12.86-.09-.58,0,15.65,0,15.06,0,40.76,7.89-10.72,7.95-10.13,1.28,7.91-.31-21.46,5.66-15.89,4.64,4.32,9.84,8.89,16.17,9.16,5.59.24,30,13.4,29.17,8.33a2.77,2.77,0,0,0-.12-.41c-.19-.53-.39-1.05-.57-1.58a6.71,6.71,0,0,1,.62,1.64,1.47,1.47,0,0,0,.08.28c6.88,18.71,11.13-4.37,24.42,10.49,2.34,2.62,6.52,4.89,9.46,4.45a2.2,2.2,0,0,1,2.58,2.1c.25,8.91,19.11-12,26.21-6.35,6.19,4.89,13.61,7.84,21.29,9.82a2.24,2.24,0,0,0,2.65-3c-12.78-34.76-35.15-58.76-60.46-93.6C294.78,223.85,275,241.8,267.74,255.26Z"/><path class="cls-6" d="M327.19,370.66a53,53,0,0,0-17-4.35c-13.7-1.13-28.07,3.17-40.92-1.69-25.3-9.55-29.73-48-55.12-57.3-15-5.48-31.87,1.77-43.94,12.19S149.06,343.41,137,353.9c-4,3.53-8.54,6.77-13.71,8.22-6.38,1.8-13.18.74-19.79,1.22-17.66,1.27-32.07,13-44.66,26H67.5l269.41-.17h14.85A71.1,71.1,0,0,0,327.19,370.66Z"/><path class="cls-7" d="M224.49,235c-3.75-6.83-7-14.65-13.85-18.39-7.18-3.92-18.81-3.87-25.52.87-3.42,2.41-6.14,5.67-8.78,8.91Q161.72,244.21,148,262.79q-7,9.48-13.78,19.14c-3.95,5.63-7.12,11.87-13.77,14.67a11.64,11.64,0,0,1-3.61.87,23.85,23.85,0,0,0-18.37,11.78q-1.86,3.15-3.8,6.25c-1.12,1.79-2.4,3.7-4.4,4.41-3.63,1.29-7.29-2.11-8.86-5.63l0-.1a8.17,8.17,0,0,0-13.13-2.72,280.93,280.93,0,0,0-34.95,40.2c-2.6,3.64-5.22,7.45-9,9.82-3.23,2-7.58,2.72-10.9,1.09-1,3.5-1.87,7-2.68,10.56a13.85,13.85,0,0,0,13.48,17l35.42,0c12.59-13,27-24.77,44.66-26,6.61-.47,13.41.58,19.79-1.21,5.17-1.46,9.66-4.7,13.71-8.23,12-10.48,21.14-24,33.21-34.39s29-17.66,43.94-12.18c25.39,9.29,29.82,47.74,55.12,57.3,12.85,4.85,27.22.55,40.92,1.68a53,53,0,0,1,17,4.35l-.25-.35.25.35a71.1,71.1,0,0,1,24.57,18.53l24.77,0a13.84,13.84,0,0,0,13-18.45c-.87-2.46-1.83-5.13-2.86-8,0,0-51.68-53.55-62.13-65.67-9.88-11.45-17.58-27.64-26.89-27.55-19.7.2-20.25,23.45-37.76,19.89S224.49,235,224.49,235Zm98.15,130.63.46.43Zm1.36,1.27.51.54Zm1.28,1.34c.18.19.35.4.52.6C325.63,368.6,325.46,368.39,325.28,368.2Zm1.21,1.4.51.65Z"/><path class="cls-8" d="M23.46,390.92A14.83,14.83,0,0,1,9,372.72c.82-3.54,1.72-7.1,2.69-10.61a1,1,0,0,1,1.87.52c-1,3.48-1.86,7-2.67,10.52A12.9,12.9,0,0,0,23.46,389h0l353.07-.23a12.86,12.86,0,0,0,12.13-17.16c-.87-2.46-1.77-5-2.68-7.5a2.71,2.71,0,0,1-1.34-1.16,3,3,0,0,1-.23-2.38,1.28,1.28,0,0,0,0-.82C374.59,333.12,359,312.68,341,289c-5.47-7.19-11.13-14.62-17-22.66-12.69-17.47-24.63-26-35.54-25.22s-17.6,10.83-19.92,15.13a3.21,3.21,0,0,1-6-.94c-4.76-26.48-12.52-45.32-26.77-65-7.66-10.6-22.44-20.83-35.86-19.88-8.28.58-22.19,3-26.56,7.21-9.37,9-14.07,13.57-21.25,24.63-4.21,6.47-8,12.07-11.42,17-12.92,18.86-20.71,30.25-28,57.94a3.21,3.21,0,0,1-5.9.78c-2.73-4.82-3.77-6.85-4.33-7.94a23.08,23.08,0,0,0-2.59-4c-3.13-4.4-8.12-5.34-11.83-5.34H88a31.25,31.25,0,0,0-14.55,4.13c-12,6.77-22.14,17.7-32.91,35.45a247.83,247.83,0,0,0-26.34,60.3,1,1,0,1,1-1.86-.54,249.6,249.6,0,0,1,26.55-60.77c7.37-12.15,17.85-27.23,33.61-36.13,9.86-5.57,23-6.75,29.08,1.77a26,26,0,0,1,2.74,4.26c.55,1.08,1.58,3.09,4.29,7.87a1.27,1.27,0,0,0,2.34-.31c7.33-28,15.2-39.51,28.23-58.55,3.37-4.93,7.2-10.51,11.39-17,7.31-11.24,12.06-15.83,21.53-25,5.11-4.93,19.86-7.2,27.77-7.76,14.79-1,29.84,10,37.57,20.69,14.44,20,22.29,39,27.11,65.82a1.21,1.21,0,0,0,1,1,1.27,1.27,0,0,0,1.33-.65c2.47-4.59,9.5-15.35,21.49-16.15,11.61-.78,24.13,8,37.23,26,5.83,8,11.48,15.45,16.95,22.62,18.11,23.79,33.75,44.34,43.64,71.22a3.16,3.16,0,0,1,.05,2.08,1.06,1.06,0,0,0,.07.82.78.78,0,0,0,.53.38l.08,0a1,1,0,0,1,.7.61c1,2.68,1.94,5.36,2.86,8a14.82,14.82,0,0,1-14,19.75l-353.06.23Z"/><ellipse class="cls-9" cx="198.95" cy="192.38" rx="36.4" ry="4.12"/><path class="cls-10" d="M177.56,137.77a24.07,24.07,0,0,1-6.46,1.08,19.65,19.65,0,0,1-11.73-4.12,31,31,0,0,1-8.14-9.58c-3.28-5.74-5.19-12.53-4.53-19a26.18,26.18,0,0,0-.74,6.16c-.14,14.75,8.62,29.1,25.58,30.47S205.84,123,205.84,123L202,118.78A42.77,42.77,0,0,1,177.56,137.77Z"/><path class="cls-11" d="M159.8,100.35a9,9,0,0,0-6.47,4.87,15.91,15.91,0,0,0-1.55,8.17,21.78,21.78,0,0,0,5.38,13.74,16.45,16.45,0,0,0,13.47,5.43c5.26-.54,9.82-3.94,13.41-7.84a34.77,34.77,0,0,0,4.25-5.61c-4.59,5.1-11.15,10.67-18.11,10.67-12.69,0-16.18-14.34-14.79-19.61,1.27-4.81,4.88-9.2,9.22-8.59A6.74,6.74,0,0,0,159.8,100.35Z"/><path class="cls-12" d="M194.72,110.84a87.48,87.48,0,0,1-6.43,8.27,34.77,34.77,0,0,1-4.25,5.61c-3.59,3.9-8.15,7.3-13.41,7.84a16.45,16.45,0,0,1-13.47-5.43,21.78,21.78,0,0,1-5.38-13.74,15.91,15.91,0,0,1,1.55-8.17,9,9,0,0,1,6.47-4.87,6.74,6.74,0,0,1,4.81,1.23,6.15,6.15,0,0,1,1.28.32c4.9,1.77,5,8.39.61,11.22s-6-1.29-4.56-2.91,1.79-2.39.69-3-4.83,1.6-5,5.31,4.06,9.61,11.15,6.58,10.64-10.33,6.22-17.43-9.57-8.53-14.21-8.13c-3.91.34-11.65,2.93-14.07,12.58-.66,6.5,1.25,13.29,4.53,19a31,31,0,0,0,8.14,9.58,19.65,19.65,0,0,0,11.73,4.12,24.07,24.07,0,0,0,6.46-1.08,42.77,42.77,0,0,0,24.44-19Z"/><path class="cls-13" d="M173.11,143.2c-.54,0-1.07,0-1.6-.07-18-1.45-26.07-17-25.94-30.86a27.17,27.17,0,0,1,.75-6.25c2.84-11.31,12.51-12.7,14.42-12.86,6-.52,10.77,2.2,14.57,8.3a11.6,11.6,0,0,1,1.5,9.84,13.63,13.63,0,0,1-7.9,8.16c-3.87,1.65-6.62.65-8.24-.48a8,8,0,0,1-3.45-6.48,6.62,6.62,0,0,1,3.35-5.29,2.46,2.46,0,0,1,2.25-.34,1.41,1.41,0,0,1,.82,1c.12.7-.4,1.45-1.41,2.6a2.11,2.11,0,0,0,.08,2.6c.81.94,2.26.84,4-.27a6.46,6.46,0,0,0,3-6.09,5.2,5.2,0,0,0-3.5-4.44,6.2,6.2,0,0,0-1.2-.3c-4.18-.58-7.59,3.74-8.8,8.31-.72,2.76-.09,9.06,3.59,13.83a13.21,13.21,0,0,0,10.82,5.29h0c6.89,0,13.5-5.73,17.82-10.53a78.66,78.66,0,0,0,5.89-7.52,5.57,5.57,0,0,1,.58-.79.38.38,0,0,1,.54,0l11.11,12.12a.39.39,0,0,1,0,.51C206,123.42,189.55,143.2,173.11,143.2Zm-11-49.33c-.44,0-.88,0-1.33.06-1.81.15-11,1.48-13.72,12.28a25.62,25.62,0,0,0-.73,6.07c-.13,13.5,7.71,28.67,25.22,30.08,15.55,1.25,31.7-17,33.75-19.38L201.71,119h0l-7-7.59-.23.33a76.26,76.26,0,0,1-5.94,7.59c-6.45,7.16-12.64,10.8-18.4,10.8h0a14,14,0,0,1-11.44-5.6c-2.7-3.5-4.89-10-3.72-14.5,1.29-4.9,5-9.52,9.66-8.87a6.34,6.34,0,0,1,1.35.33,6,6,0,0,1,4,5.08,7.24,7.24,0,0,1-3.32,6.83c-3,2-4.58.6-5,.13a2.84,2.84,0,0,1-.08-3.62c.65-.74,1.3-1.55,1.23-2,0,0,0-.22-.44-.44-.21-.12-.76-.06-1.49.34a5.8,5.8,0,0,0-2.95,4.65,7.24,7.24,0,0,0,3.11,5.81c1.46,1,3.95,1.91,7.5.39a12.82,12.82,0,0,0,7.46-7.67,10.84,10.84,0,0,0-1.42-9.2C171.31,96.5,167.2,93.87,162.13,93.87Z"/><path class="cls-14" d="M233.71,16.55a1.71,1.71,0,0,1-2.42.53,3.43,3.43,0,0,1-1.36-2.33L226,16.66l1.81.81a3.59,3.59,0,0,1-3.42.85c-.4.68.52,1.44,1.32,1.46a8.42,8.42,0,0,1,2.4,0,4.76,4.76,0,0,1,1.35,1,5.89,5.89,0,0,0,5.71,1,3.61,3.61,0,0,1-3.78,2.95c.89.46.86,1.68.72,2.65a105.65,105.65,0,0,1-3.71,17.63c-2,5.88-4.94,11.39-7.9,16.86q-3.51,6.47-7,12.92l-3.48,6.42c-1,1.87-2.11,3.82-4,4.95l-.08.05c1.49,2,3.58,2.22,5.3-1,4.4-8.09,19.42-34.2,20.92-44.7s2.22-15,2.22-15c1.76,0,2.94-2.13,2.75-3.83-.07-.62-.4-1.17-.52-1.78a3.49,3.49,0,0,1,0-1.12C235.26,18.87,233.72,17.92,233.71,16.55Z"/><path class="cls-15" d="M236.62,14.14a2.06,2.06,0,0,0-3,0,9.3,9.3,0,0,0-2-3.22,1.2,1.2,0,0,0-.63-.43c-.73-.13-1.05.85-1.07,1.57a5.71,5.71,0,0,0-1-2.18,2.07,2.07,0,0,0-2.17-.76,2.7,2.7,0,0,0-1.44,2.08,15.05,15.05,0,0,0-.33,5.51l-2.61-.09a1.27,1.27,0,0,0-.77.13,1.1,1.1,0,0,0-.29,1.12c.46,2.5,2.77,4.24,5,5.56a2.2,2.2,0,0,1,1,.87,1.94,1.94,0,0,1,.07,1,73.36,73.36,0,0,1-3.5,14.3A52,52,0,0,1,222,45a54.44,54.44,0,0,1-3.88,7c-3.56,5.69-10.91,17.11-11,16.72-4.3,6.6-3.44,14.27-1.12,17.44l.08-.05c1.84-1.13,2.94-3.08,4-4.95l3.48-6.42q3.5-6.47,7-12.92c3-5.47,5.94-11,7.9-16.86a105.65,105.65,0,0,0,3.71-17.63c.14-1,.17-2.19-.72-2.65a3.61,3.61,0,0,0,3.78-2.95,5.89,5.89,0,0,1-5.71-1,4.76,4.76,0,0,0-1.35-1,8.42,8.42,0,0,0-2.4,0c-.8,0-1.72-.78-1.32-1.46a3.59,3.59,0,0,0,3.42-.85L226,16.66l3.89-1.91a3.43,3.43,0,0,0,1.36,2.33,1.71,1.71,0,0,0,2.42-.53c0,1.37,1.55,2.32,2.94,2.18C236.81,17.09,237.68,15.35,236.62,14.14Z"/><path class="cls-16" d="M205,72.26a.33.33,0,0,1-.21-.07.39.39,0,0,1-.11-.54l9.24-13.84a101.3,101.3,0,0,0,6.18-10.1c3.73-7.34,5.15-14.31,6.8-22.38l.31-1.55a.39.39,0,0,1,.46-.3.38.38,0,0,1,.3.46l-.31,1.54c-1.66,8.13-3.1,15.15-6.87,22.59a102.26,102.26,0,0,1-6.22,10.17l-9.24,13.84A.39.39,0,0,1,205,72.26Z"/><path class="cls-16" d="M211.32,85.56a.45.45,0,0,1-.19,0A.4.4,0,0,1,211,85c4.4-7.77,9.13-17.21,13.31-25.55l.84-1.67c2.65-5.3,5.14-10.51,6.44-16A78.78,78.78,0,0,0,233,32.66c.27-2.29.55-4.65,1-7.27a.39.39,0,0,1,.77.14c-.49,2.6-.77,4.95-1,7.22a78.77,78.77,0,0,1-1.48,9.15c-1.31,5.61-3.82,10.87-6.5,16.2L225,59.78c-4.18,8.34-8.92,17.8-13.32,25.58A.38.38,0,0,1,211.32,85.56Z"/><path class="cls-16" d="M228,24.7h-.1c-3.58-.89-6.35-3.74-6.74-6.93a1.18,1.18,0,0,1,.25-1,1.45,1.45,0,0,1,1-.35,19.58,19.58,0,0,1,4.07.38,5.11,5.11,0,0,1,1.62.45,1.58,1.58,0,0,1,.94,1.52,1.81,1.81,0,0,1-1.29,1.3,3.42,3.42,0,0,1-3.26-.6.39.39,0,1,1,.51-.58,2.71,2.71,0,0,0,2.5.45c.43-.15.74-.42.77-.68a.84.84,0,0,0-.54-.72,4.27,4.27,0,0,0-1.37-.38,18.36,18.36,0,0,0-3.91-.36.83.83,0,0,0-.49.11c-.06.06-.05.23,0,.35.35,2.88,2.88,5.45,6.16,6.27a.38.38,0,0,1,.28.47A.38.38,0,0,1,228,24.7Z"/><path class="cls-16" d="M228,17.37a.4.4,0,0,1-.39-.35.39.39,0,0,1,.35-.42,1.25,1.25,0,0,0,1-.71,3.46,3.46,0,0,0,.25-1.3l.12-2.07c.08-1.41-.25-2.21-1-2.46a1.87,1.87,0,0,0-1.82.55,3.42,3.42,0,0,0-.74,1.81,12.7,12.7,0,0,0,0,4.08.39.39,0,1,1-.77.12,13.68,13.68,0,0,1,0-4.33,4.23,4.23,0,0,1,.94-2.2,2.61,2.61,0,0,1,2.63-.76c1.12.36,1.63,1.45,1.53,3.23L230,14.64a4.08,4.08,0,0,1-.32,1.6,2,2,0,0,1-1.57,1.13Z"/><path class="cls-16" d="M231.51,19.52h0a1.14,1.14,0,0,1-.71-.28A5,5,0,0,1,229,16.67a.39.39,0,0,1,.75-.21,4.19,4.19,0,0,0,1.52,2.16.58.58,0,0,0,.26.13h0c.11,0,.25-.15.3-.19a4.92,4.92,0,0,0,0-6.91,1,1,0,0,0-.55-.35.48.48,0,0,0-.37.09,1.71,1.71,0,0,0-.49,1.08.39.39,0,0,1-.44.34.38.38,0,0,1-.33-.43,2.46,2.46,0,0,1,.79-1.6,1.23,1.23,0,0,1,1-.25,1.77,1.77,0,0,1,1,.57,5.69,5.69,0,0,1,0,8A1.2,1.2,0,0,1,231.51,19.52Z"/><path class="cls-16" d="M234.88,20.66c-1.15,0-1.86-1.14-2.1-1.53a.39.39,0,0,1,.66-.41c.52.84,1,1.22,1.54,1.16a1.44,1.44,0,0,0,1-.68,4.44,4.44,0,0,0,.9-3.43,2.21,2.21,0,0,0-.77-1.48,1.53,1.53,0,0,0-1.63-.15.37.37,0,0,1-.53-.11.39.39,0,0,1,.1-.54,2.28,2.28,0,0,1,2.53.19,2.93,2.93,0,0,1,1.07,2,5.29,5.29,0,0,1-1,4,2.24,2.24,0,0,1-1.52,1Z"/><path class="cls-16" d="M233.24,25.59a4.44,4.44,0,0,1-.63,0,.39.39,0,0,1-.33-.44.39.39,0,0,1,.44-.33,3.68,3.68,0,0,0,3.53-1.45c.73-1.14.47-2.58.11-4.08a.4.4,0,0,1,.29-.47.39.39,0,0,1,.47.29c.4,1.67.68,3.28-.21,4.68A4.43,4.43,0,0,1,233.24,25.59Z"/><path class="cls-14" d="M189.82,134.8a3.78,3.78,0,0,0-1.52,2.51c-4,14.52-4.14,29.79-3.55,44.82.09,2.31-.1,5.14-2.17,6.15a8.42,8.42,0,0,1-3,.49,10.58,10.58,0,0,0-6.72,3.34c6.57-.49,13.7-1.56,14-2.42.44-1.28,1-3.18.25-15s4.06-40,4.06-40h.08v0A2,2,0,0,0,189.82,134.8Z"/><path class="cls-14" d="M185.32,94.27a91,91,0,0,1,1.88-10A11.77,11.77,0,0,1,189,79.64c1.25-1.63,3.23-2.47,5.06-3.4a37.31,37.31,0,0,0,8-5.53c.64-.58,1.46-3.58,2.08-6.61a5.25,5.25,0,0,0-1-.93c-2.31-1.49-7.67-4.72-13.67,1.25-2.72,2.7-1.43,8.18-4.47,11.13s-5.88,4.72-5.24,10.49,4.23,14.78,2.32,38.41c-.19,2.36-.41,4.83-.64,7.36a47.54,47.54,0,0,0,2.25-5.77C186.75,115.86,184.16,104.85,185.32,94.27Z"/><path class="cls-14" d="M213.23,188.31c-1.8-2.13-1.89-5.18-1.82-8,.21-8.47,1.12-17-.21-25.36s-4.76-16.68-2.26-24.65l-.16,0c-1.12.92-2.56,1.51-3.58,2.56l0,.05c.49,3,2.79,17.53,3.32,24.66.59,8,.38,19.22.48,24.84s-1.34,7.77,4,8.29c1.11.11,2.59.29,4.25.5l-1.26-.79A11.65,11.65,0,0,1,213.23,188.31Z"/><path class="cls-15" d="M232,187.4c-8.46-3.5-11.11-4.91-11.11-4.91s-4.49-32.11-5.33-46.1,1.58-17.22,1.4-26.75-1.06-31.35-7.38-37c-.7-.62-3.28-6.11-5.45-8.58-.62,3-1.44,6-2.08,6.61a37.31,37.31,0,0,1-8,5.53c-1.83.93-3.81,1.77-5.06,3.4a11.77,11.77,0,0,0-1.76,4.59,91,91,0,0,0-1.88,10c-1.16,10.58,1.43,21.59-1.64,31.77a47.54,47.54,0,0,1-2.25,5.77c-2.16,22.81-6,50.68-6,50.68l-16.53,7.68s-.84,1.78,5.51,2.16a68.52,68.52,0,0,0,8.4-.22,10.58,10.58,0,0,1,6.72-3.34,8.42,8.42,0,0,0,3-.49c2.07-1,2.26-3.84,2.17-6.15-.59-15-.42-30.3,3.55-44.82a3.78,3.78,0,0,1,1.52-2.51,2,2,0,0,1,1.41-.16,27.06,27.06,0,0,1-.12-5.62q1-19.73,2-39.45a35.87,35.87,0,0,1,.6-5.67,10.46,10.46,0,0,1,1.81-4.2,7.64,7.64,0,0,1,10.34-1.29c3.4,2.66,3.8,7.56,3.91,11.87q.47,17,.92,34c0,1.81.06,3.78-1,5.24a4.83,4.83,0,0,1-.87.88l.16,0c-2.5,8,.95,16.41,2.26,24.65s.42,16.89.21,25.36c-.07,2.79,0,5.84,1.82,8a11.65,11.65,0,0,0,2.75,2.18l1.26.79c6.41.8,15.63,2,17.65.61C237.44,190.17,240.47,190.89,232,187.4Z"/><path class="cls-17" d="M209.65,129.5c1.09-1.46,1.08-3.43,1-5.24q-.45-17-.92-34c-.11-4.31-.51-9.21-3.91-11.87a7.64,7.64,0,0,0-10.34,1.29,10.46,10.46,0,0,0-1.81,4.2,35.87,35.87,0,0,0-.6,5.67q-1,19.73-2,39.45a27.35,27.35,0,0,0,.12,5.65c.92,0,9.24,0,13.84-2.24,0,0,0,.2.09.56l0-.05C206.51,131.58,208.53,131,209.65,129.5Z"/><path class="cls-16" d="M215.2,127h-.07a.39.39,0,0,1-.31-.45c2.67-13.46,1.6-26.69,1.25-31l0-.68a65.54,65.54,0,0,0-2.86-13.71,29.47,29.47,0,0,0-4.6-8.75l-.66-1a29.78,29.78,0,0,1-1.73-3A18.06,18.06,0,0,0,203.42,64a9,9,0,0,0-15.37,4.25c-.13.6-.2,1.25-.28,1.87a10.74,10.74,0,0,1-.79,3.45,10.8,10.8,0,0,1-2.79,3.26c-.45.39-.91.8-1.32,1.23-4.39,4.54-3.08,9.8-1.68,15.36A50,50,0,0,1,182.36,99a110,110,0,0,1,.1,25.52.39.39,0,0,1-.43.35.38.38,0,0,1-.34-.42,109.62,109.62,0,0,0-.1-25.35,49.35,49.35,0,0,0-1.15-5.47c-1.39-5.53-2.82-11.24,1.87-16.09.43-.45.9-.87,1.36-1.27a10,10,0,0,0,2.61-3A9.78,9.78,0,0,0,187,70c.08-.64.15-1.3.29-2A9.79,9.79,0,0,1,204,63.46a18.88,18.88,0,0,1,2.87,4.5,31,31,0,0,0,1.68,3l.66,1c2,2.95,3.6,5.28,4.7,9a65.27,65.27,0,0,1,2.89,13.87l.05.68c.36,4.37,1.44,17.68-1.26,31.25A.38.38,0,0,1,215.2,127Z"/><path class="cls-16" d="M175.47,182.87h-.07a.39.39,0,0,1-.31-.45c3.38-18.36,6.2-45.14,6.57-62.3a.38.38,0,0,1,.38-.38h0a.38.38,0,0,1,.38.4c-.37,17.19-3.2,44-6.58,62.42A.38.38,0,0,1,175.47,182.87Z"/><path class="cls-16" d="M165,192.72a9.76,9.76,0,0,1-5.87-1.55,1,1,0,0,1-.52-1.13,1.08,1.08,0,0,1,.57-.54,125.52,125.52,0,0,1,17-7.2.38.38,0,0,1,.49.25.39.39,0,0,1-.24.49,123.49,123.49,0,0,0-16.94,7.15.5.5,0,0,0-.19.12,1,1,0,0,0,.24.23c2.31,1.65,5.39,1.52,8.61,1.23,1.8-.17,3.6-.32,5.4-.48,3.55-.3,7.22-.61,10.81-1,2.48-.27,2.52-.89,2.66-3.51v-.29a56.17,56.17,0,0,0-.12-6.36c0-.62-.07-1.24-.1-1.85-.69-14.57,1.93-31.9,3.95-43.68a.39.39,0,0,1,.77.13c-2,11.74-4.63,29-3.95,43.51,0,.62.07,1.23.1,1.84a60.3,60.3,0,0,1,.13,6.46l0,.28c-.14,2.59-.21,3.9-3.34,4.24-3.61.39-7.28.7-10.84,1-1.79.15-3.59.3-5.39.47C167.11,192.64,166,192.72,165,192.72Z"/><path class="cls-16" d="M220.9,182.87a.39.39,0,0,1-.38-.31,367.42,367.42,0,0,1-5.7-56,.38.38,0,0,1,.38-.39h0a.38.38,0,0,1,.39.38,365.87,365.87,0,0,0,5.7,55.83.4.4,0,0,1-.32.45Z"/><path class="cls-16" d="M231.42,192.72c-1.06,0-2.16-.08-3.27-.18-1.79-.17-3.59-.32-5.39-.47-3.55-.31-7.23-.62-10.83-1-3.14-.34-3.21-1.65-3.34-4.24l0-.28a60.31,60.31,0,0,1,.12-6.46c0-.61.07-1.22.1-1.84.71-15-2.27-35.09-4.1-45.75a.39.39,0,1,1,.76-.13c1.84,10.69,4.83,30.87,4.12,45.92,0,.61-.07,1.23-.1,1.85a58.6,58.6,0,0,0-.13,6.36l0,.29c.14,2.62.17,3.24,2.65,3.51,3.6.39,7.27.7,10.82,1,1.8.16,3.6.31,5.39.48,3.22.29,6.31.42,8.62-1.23.16-.12.23-.22.23-.25a.89.89,0,0,0-.18-.1A124.54,124.54,0,0,0,220,183a.39.39,0,0,1,.24-.74,125.11,125.11,0,0,1,17.05,7.2,1,1,0,0,1,.56.54,1,1,0,0,1-.51,1.13A9.78,9.78,0,0,1,231.42,192.72Z"/><path class="cls-16" d="M191.15,135.06a.39.39,0,0,1-.39-.38.38.38,0,0,1,.38-.4c5.12-.12,13.79-2,17.73-4.43a.39.39,0,0,1,.53.13.4.4,0,0,1-.13.54c-4,2.45-12.89,4.41-18.11,4.54Z"/><path class="cls-16" d="M162.75,192a.39.39,0,0,1-.35-.2.38.38,0,0,1,.16-.52,72.81,72.81,0,0,1,14.05-5.76.39.39,0,0,1,.48.26.4.4,0,0,1-.27.49A71.41,71.41,0,0,0,162.93,192,.39.39,0,0,1,162.75,192Z"/><path class="cls-16" d="M233.35,191.8a.34.34,0,0,1-.16,0,54.68,54.68,0,0,0-12-3.77.4.4,0,0,1-.31-.46.39.39,0,0,1,.46-.3,55.85,55.85,0,0,1,12.17,3.82.4.4,0,0,1,.2.52A.41.41,0,0,1,233.35,191.8Z"/><path class="cls-18" d="M175,22.7c-.68,2.3-.34,2.4.92,3s.12,2.1.58,3.2.9.2,1.6,1.43a8.65,8.65,0,0,1,.54,3.77c1.3.06,2.21-1.25,2.76-2.43,1.29-2.76,2.18-5.77,3.67-8.39-4-1.09-7.5-3.53-10.56-2.66A2.07,2.07,0,0,1,175,22.7Z"/><path class="cls-19" d="M168.81,30.6c3-.1,5.73,1.36,8.29,2.86a3.7,3.7,0,0,0,1.58.61,8.65,8.65,0,0,0-.54-3.77c-.7-1.23-1.15-.32-1.6-1.43s.67-2.63-.58-3.2-1.6-.67-.92-3a2.07,2.07,0,0,0-.49-2.11A5.2,5.2,0,0,0,172.29,22c-2.82,2.81-3.93,8.35-4.62,9l.18.14C168,30.7,168.44,30.61,168.81,30.6Z"/><path class="cls-14" d="M167,38.5c-.17-3.52,3.19-7,6.11-5.81a19.5,19.5,0,0,0,5.54,1.38,3.7,3.7,0,0,1-1.58-.61c-2.56-1.5-5.33-3-8.29-2.86-.37,0-.82.1-1,.45l-.18-.14,0,0a15.21,15.21,0,0,0-4.16,5.24c-1,2.42-1.8,4.29-1.8,4.29l2.39-1.58A8.93,8.93,0,0,1,167,38.5Z"/><path class="cls-14" d="M210.47,38.92c0-1.13-1-3.22-2.06-5.4a1.51,1.51,0,0,1-1.76-.24c-1.22-.91-2-2.51-6.36-1.44s-7.35,6.38-8.38,8.64c-.51,1.1-.82,2.36-1.2,3.25a10,10,0,0,0,.27,1.18c9.19,10.07,17.53-1.21,17.53-1.21.8,2.93,2.83,5.32,3.66,9.22s-3.68,11.64-10,15.41-17.41,5.13-21,4.68-12.33-2.39-14-4.87-1.08-7.08-1.08-7.08c15.58-.42,13-12.18,13-12.18l-1.42-2.11c-3.85-2.09-11.41-1.64-12.82-1.27-1.83.48-4.43,2.33-4,5.48.13.92-1.19.21-1.87.12.66,1.94,1.57,5.26,2.5,7.53,1.64,4.06-.83,3.25-.89,5.48-.1,4.1,5.86,8.07,8.82,9.64s8.57,4.58,20,2.4,18.75-7.6,22.52-11.77,7-15.34,4-19.76c-.92-.63-1.55-.91-3.56-.19C211.63,42.65,210.47,40.71,210.47,38.92Z"/><path class="cls-18" d="M181.68,46.76c-1.08-1.41-8.05-8-14.65-8.26a8.93,8.93,0,0,0-2.95.38l-2.39,1.58s-3.11,1.89-3.37,5.12A16.5,16.5,0,0,0,159.38,52c.68.09,1.43-.12,1.39-1.05a5.56,5.56,0,0,1,4-5.48c1.41-.37,7-1.08,11.56,1.15a11.16,11.16,0,0,0,2.38.59C180.6,48,182.91,48.39,181.68,46.76Z"/><path class="cls-15" d="M167,38.5c6.6.22,13.57,6.85,14.65,8.26,1.23,1.63-1.08,1.23-3,.48-.43-.17-.18-.48-1.27-.7L179,48.88s2.62,11.76-13,12.18c0,0-.57,4.61,1.08,7.08s10.36,4.43,14,4.87,15.25-1.21,21.58-5S215.39,53.16,215,49.19c-.45-4.74-3.75-1.81-4.15-3.61-.31-1.41-.86-2.65-2.36-1.88,0,0-8.34,11.28-17.53,1.21a10,10,0,0,1-.27-1.18c-.38.94-.83,1.47-1.62,1-1.54-.9-.9-4.81.44-9.58S197,26.52,197,26.52a22.66,22.66,0,0,0-9.57-2.83,14.24,14.24,0,0,1-2.36-.44c-1.49,2.62-2.38,5.63-3.67,8.39-.55,1.18-1.46,2.49-2.76,2.43a19.5,19.5,0,0,1-5.54-1.38C170.22,31.51,166.86,35,167,38.5Z"/><path class="cls-18" d="M204.9,28.45a7.51,7.51,0,0,0-4-2.14s-3.2.22-3.91.21c0,0-6.17,3.86-7.51,8.64s-2,8.68-.44,9.58c.79.46,1.24-.07,1.62-1s.69-2.15,1.2-3.25c1-2.26,4.05-7.56,8.38-8.64s5.14.53,6.36,1.44a1.51,1.51,0,0,0,1.76.24A17.7,17.7,0,0,0,204.9,28.45Z"/><path class="cls-15" d="M165.32,47.25c-1.88,1.63-2.15,4.1,0,6.47s7.11,2.55,9.83.49,1.22-5.43.73-6.38S169.52,43.61,165.32,47.25Z"/><path class="cls-15" d="M200.62,34.49c-2.73.84-6.08,2.84-5.71,6.55s2.71,5.23,6.05,4.64a5.86,5.86,0,0,0,5.08-5.3C206.38,37.94,204.86,33.18,200.62,34.49Z"/><path class="cls-16" d="M181.45,77.23c-5,0-9-1-12-2.9-6-3.87-9.43-7.84-9.27-10.63a3,3,0,0,1,1.6-2.42c-.34-1-.75-2.09-1.19-3.2-1.34-3.42-2.85-7.29-2.52-11.93a7.92,7.92,0,0,1,3.45-6.07,9.38,9.38,0,0,1,7.2-1.6l.74.2c3.35.89,9,2.38,12.64,8.1a.38.38,0,0,1-.11.53.39.39,0,0,1-.54-.11c-3.52-5.46-9-6.91-12.19-7.77l-.75-.2A8.54,8.54,0,0,0,162,40.72a7.19,7.19,0,0,0-3.11,5.49c-.33,4.46,1.16,8.24,2.47,11.59.48,1.23.94,2.4,1.29,3.56a.37.37,0,0,1-.2.46A2.25,2.25,0,0,0,161,63.75c-.15,2.43,3.35,6.32,8.92,9.93,4.35,2.82,11.05,3.49,19.9,2a4.39,4.39,0,0,1,1-.12.39.39,0,0,1-.1.77l-.74.12A51.5,51.5,0,0,1,181.45,77.23Z"/><path class="cls-16" d="M203.62,71.41a.4.4,0,0,1-.33-.19.38.38,0,0,1,.13-.53c11.5-7.15,13.14-18.26,13-20.84l0-.4c-.11-1.6-.29-4.27-1.51-4.87-.58-.29-1.41-.08-2.46.62a.36.36,0,0,1-.35,0,.37.37,0,0,1-.24-.26c-.11-.47-.22-.94-.34-1.43-.9-3.82-1.92-8.16-4.19-11.64s-5-5.31-7.64-5.36h-.09c-2.55,0-5,1.66-7.28,4.93-5.67,8.11-3.23,13-3.2,13a.38.38,0,0,1-.16.52.4.4,0,0,1-.53-.16c-.11-.21-2.71-5.3,3.25-13.83,2.44-3.49,5.1-5.26,7.92-5.26h.1c2.93,0,5.94,2.12,8.28,5.71s3.43,8.19,4.3,11.88l.21.9a3,3,0,0,1,2.77-.38c1.62.8,1.81,3.64,1.94,5.52l0,.39c.2,2.68-1.48,14.2-13.31,21.56A.42.42,0,0,1,203.62,71.41Z"/><path class="cls-16" d="M162.07,40.49H162a.39.39,0,0,1-.31-.45,17.84,17.84,0,0,1,5-8.89,17.38,17.38,0,0,0,2.78-4.81c1.26-2.73,2.44-5.31,4.18-5.89,3-1,6.33.57,8.77,1.72a19.27,19.27,0,0,0,4.57.94c3.49.49,7.82,1.11,10.68,3.14a.39.39,0,0,1,.1.54.41.41,0,0,1-.55.09c-2.7-1.92-6.93-2.52-10.33-3a19.9,19.9,0,0,1-4.8-1c-2.45-1.15-5.5-2.58-8.19-1.69-1.43.48-2.59,3-3.72,5.48a17.51,17.51,0,0,1-3,5.05,17.44,17.44,0,0,0-4.78,8.47A.39.39,0,0,1,162.07,40.49Z"/><path class="cls-16" d="M184.48,51.78s-1.73,1.6-1,2.3S184.81,53.8,184.48,51.78Z"/><path class="cls-16" d="M190.42,49.51s.74,1.62,1.66,1.51S193.18,49.77,190.42,49.51Z"/><path class="cls-16" d="M169.34,58.92c-3.1,0-5.93-1.87-7.9-5.28a5.77,5.77,0,0,1-.83-4.89c.57-1.58,2.11-2.85,4.6-3.78,4.21-1.58,13.25,1.77,13.64,1.91a.38.38,0,0,1,.22.5.39.39,0,0,1-.5.23h0a7.14,7.14,0,0,1-.45,5.94,10.62,10.62,0,0,1-7.57,5.29A8.18,8.18,0,0,1,169.34,58.92ZM168,45.32a7.51,7.51,0,0,0-2.54.37c-2.26.85-3.65,2-4.14,3.32a5,5,0,0,0,.77,4.24c2.06,3.56,5.09,5.31,8.31,4.81a9.77,9.77,0,0,0,7-4.88,6.3,6.3,0,0,0,.19-5.82l0-.1A34.88,34.88,0,0,0,168,45.32Z"/><path class="cls-16" d="M162.14,47.35a.32.32,0,0,1-.14,0,6.07,6.07,0,0,1-3.31-3.46.4.4,0,0,1,.25-.49.39.39,0,0,1,.49.25h0a5.33,5.33,0,0,0,2.86,3,.38.38,0,0,1,.21.5A.39.39,0,0,1,162.14,47.35Z"/><path class="cls-16" d="M165.74,45.17a.39.39,0,0,1-.26-.1c-2.08-1.91-2.09-5.61-2.09-5.77a.4.4,0,0,1,.39-.39h0a.4.4,0,0,1,.39.39s0,3.52,1.84,5.2a.39.39,0,0,1,0,.54A.37.37,0,0,1,165.74,45.17Z"/><path class="cls-16" d="M173.85,46.17a.4.4,0,0,1-.32-.18c-1.53-2.33-.35-5.6-.3-5.74a.39.39,0,0,1,.73.27s-1.1,3,.22,5a.39.39,0,0,1-.12.53A.38.38,0,0,1,173.85,46.17Z"/><path class="cls-16" d="M198.94,48.43a6.9,6.9,0,0,1-3.73-1A8.4,8.4,0,0,1,191.8,42a11.69,11.69,0,0,0-.34,1.26.39.39,0,0,1-.46.3.38.38,0,0,1-.3-.46c.06-.3,1.6-7.5,6.87-10.46,2.68-1.51,5.17-1.91,7.18-1.14a5.87,5.87,0,0,1,3.42,3.74,11.33,11.33,0,0,1-.48,8.37,8.41,8.41,0,0,1-5.23,4.25A12.05,12.05,0,0,1,198.94,48.43Zm-6.63-7.89c.47,3,1.59,5.13,3.32,6.22s3.89,1.17,6.6.34A7.62,7.62,0,0,0,207,43.23a10.56,10.56,0,0,0,.44-7.76,5,5,0,0,0-3-3.26c-1.8-.69-4-.31-6.53,1.08C195,35,193.22,38.22,192.31,40.54Z"/><path class="cls-16" d="M194.62,36a.39.39,0,0,1-.39-.36c-.1-1.07-1.25-1.78-1.73-2a1.55,1.55,0,0,0-1.34-.21.39.39,0,0,1-.34-.7,2.24,2.24,0,0,1,2,.22A3.64,3.64,0,0,1,195,35.57a.38.38,0,0,1-.35.42Z"/><path class="cls-16" d="M199.65,32.19h0a.38.38,0,0,1-.36-.41,2.36,2.36,0,0,0-.12-.75,6.76,6.76,0,0,0-1.41-2.59,2,2,0,0,0-1.59-.89.38.38,0,0,1-.43-.34.39.39,0,0,1,.34-.43,2.7,2.7,0,0,1,2.27,1.15,7.76,7.76,0,0,1,1.57,2.89,3.16,3.16,0,0,1,.14,1A.39.39,0,0,1,199.65,32.19Z"/><path class="cls-16" d="M203.16,31.38l-.12,0a.39.39,0,0,1-.26-.48,5.79,5.79,0,0,0,.22-2.34,1.65,1.65,0,0,0-.39-1,.39.39,0,0,1,0-.55.38.38,0,0,1,.55,0,2.48,2.48,0,0,1,.62,1.5,6.65,6.65,0,0,1-.24,2.66A.41.41,0,0,1,203.16,31.38Z"/><path class="cls-16" d="M169.9,57.06a7,7,0,0,1-2.8-.57A5.43,5.43,0,0,1,164,53.12c-.95-3.09,1.22-6.51,4.83-7.62s7.32.5,8.27,3.59h0a5.43,5.43,0,0,1-.71,4.56,7.34,7.34,0,0,1-4.12,3.05A7.79,7.79,0,0,1,169.9,57.06Zm1.19-11.52a7.72,7.72,0,0,0-2.2.33c-3.4,1.05-5.45,4.25-4.57,7.13a5.06,5.06,0,0,0,2.94,3.14A7.32,7.32,0,0,0,176,53.45a5.05,5.05,0,0,0,.67-4.25h0A5.63,5.63,0,0,0,171.09,45.54Z"/><path class="cls-16" d="M199.86,46.49a6.62,6.62,0,0,1-6.39-4.58,6.73,6.73,0,0,1,4.62-8.29,7,7,0,0,1,5.19.42,6.35,6.35,0,0,1,3.28,3.85A6.7,6.7,0,0,1,202,46.17,6.94,6.94,0,0,1,199.86,46.49Zm.33-12.8a6.81,6.81,0,0,0-2,.3,6.18,6.18,0,1,0,8,4,6,6,0,0,0-3.09-3.62A6.42,6.42,0,0,0,200.19,33.69Z"/><path class="cls-16" d="M199.66,45.21a5,5,0,0,1-4.76-3.53,5,5,0,0,1,9.53-2.93h0a5,5,0,0,1-4.77,6.46Zm0-9.59a4.85,4.85,0,0,0-1.35.2,4.61,4.61,0,0,0-3,5.75,4.6,4.6,0,0,0,8.79-2.7h0A4.59,4.59,0,0,0,199.67,35.62Z"/><path class="cls-16" d="M170.6,55.77a5,5,0,0,1-2.21-.51A4.48,4.48,0,0,1,166,52.53a5,5,0,0,1,9.53-2.93,4.52,4.52,0,0,1-.42,3.6,5.31,5.31,0,0,1-4.53,2.57Zm.36-9a4.78,4.78,0,0,0-1.43.22,4.46,4.46,0,0,0-3.14,5.45,4.14,4.14,0,0,0,2.17,2.51A4.85,4.85,0,0,0,174.79,53a4.1,4.1,0,0,0,.39-3.29h0A4.35,4.35,0,0,0,171,46.74Z"/><path class="cls-16" d="M170.8,54.75a3.66,3.66,0,0,1-3.46-2.56,3.64,3.64,0,0,1,2.4-4.53,3.62,3.62,0,0,1,4.53,2.4h0a3.63,3.63,0,0,1-.26,2.76,3.68,3.68,0,0,1-2.14,1.77A3.91,3.91,0,0,1,170.8,54.75Zm0-6.86a3.4,3.4,0,0,0-.94.14A3.23,3.23,0,0,0,168,49.61a3.2,3.2,0,0,0-.24,2.46,3.24,3.24,0,1,0,3.09-4.18Z"/><path class="cls-16" d="M199.33,44a3.62,3.62,0,0,1-3.46-2.55,3.62,3.62,0,1,1,6.92-2.13h0a3.61,3.61,0,0,1-2.4,4.52A3.54,3.54,0,0,1,199.33,44Zm0-6.85a3.08,3.08,0,0,0-1,.14,3.23,3.23,0,0,0-2.14,4,3.24,3.24,0,1,0,3.09-4.18Z"/><path class="cls-16" d="M167.68,52.81a.17.17,0,0,1-.12,0,.18.18,0,0,1,0-.27,8.18,8.18,0,0,1,6.56-2.58.21.21,0,0,1,.19.2.19.19,0,0,1-.2.19,8,8,0,0,0-6.25,2.43A.18.18,0,0,1,167.68,52.81Z"/><path class="cls-16" d="M196.17,42a.19.19,0,0,1-.12,0,.2.2,0,0,1,0-.28,8.16,8.16,0,0,1,6.56-2.57.19.19,0,0,1,.19.2.2.2,0,0,1-.2.19,8,8,0,0,0-6.25,2.43A.18.18,0,0,1,196.17,42Z"/><path class="cls-20" d="M165.43,63.36s4.91,0,14.17-3.9,13.45-5.42,21.92-7.2,10.94-4.46,10.94-4.46-3.59,16.74-18.07,21.64C177.9,75,165.43,63.36,165.43,63.36Z"/><path class="cls-21" d="M172.45,61.86a10.44,10.44,0,0,0,2.11,4c.76.93-.05,1.26,1.85,3.63,0,0,13.82,5.37,23.91-3.06,0,0,5.31-4.06,6.48-6.45a11.71,11.71,0,0,0,.16-1.93,7.23,7.23,0,0,0-.66-2s.1-.93.11-2.5a4.33,4.33,0,0,0-.72-2.33s-12.7,3.17-14.35,3.73-15,5.79-15,5.79Z"/><path class="cls-22" d="M205.8,51.37a11.21,11.21,0,0,1,.5,4.65,8,8,0,0,1,.5,4,37.75,37.75,0,0,0,3.88-6.91c1.16-3.1,1.78-5.28,1.78-5.28s-4,2.68-6.77,3.39"/><path class="cls-22" d="M172.81,62.14a11.12,11.12,0,0,0,2.2,4.13,8,8,0,0,0,1.82,3.56,37.4,37.4,0,0,1-7.09-3.54c-2.71-1.91-4.44-3.37-4.44-3.37s4.77,0,7.5-1"/><path class="cls-16" d="M185.42,71.32c-11.87,0-20.15-7.59-20.26-7.68a.39.39,0,0,1,.27-.67s5-.09,14-3.87,13.41-5.42,22-7.22c8.19-1.71,10.71-4.32,10.74-4.35a.39.39,0,0,1,.46-.08.42.42,0,0,1,.2.43c0,.17-3.8,17-18.33,21.92A28.2,28.2,0,0,1,185.42,71.32Zm-19-7.65c2.86,2.29,14,10.09,27.85,5.4,11.94-4,16.41-16.42,17.52-20.23-1.38,1-4.41,2.59-10.18,3.8-8.52,1.79-12.76,3.39-21.86,7.18C172.77,62.72,168.27,63.48,166.41,63.67Z"/><path class="cls-16" d="M165.63,65.82a.4.4,0,0,1-.27-.11,2.64,2.64,0,0,1,.49-4.17.38.38,0,0,1,.53.14.38.38,0,0,1-.14.53,1.86,1.86,0,0,0-.34,2.94.39.39,0,0,1-.27.67Z"/><path class="cls-16" d="M213.58,49.6h0a.39.39,0,0,1-.36-.41,1.69,1.69,0,0,0-1.85-1.82.39.39,0,0,1-.07-.78,2.49,2.49,0,0,1,2.7,2.65A.39.39,0,0,1,213.58,49.6Z"/><path class="cls-23" d="M175,66.27s3.08.12,10.24-1.54c0,0-.62.53-9.85,2.5Z"/><path class="cls-23" d="M206.25,55.9A55.41,55.41,0,0,1,197,60.71s1.31,0,9.48-4.12Z"/><path class="cls-24" d="M178.38,124a1.51,1.51,0,0,0-.21-.49l-.23-.11S178.13,123.67,178.38,124Z"/><path class="cls-14" d="M178.35,119s2.07-2,.74-2.35-4.47-.93-6,0c0,0-11.07-8.45-7.78-10.16,0,0,9.61-10.07,14.83-17.39A35.06,35.06,0,0,0,183.19,84c-5.69,6.84-14.52,11.94-18.85,19.6-1,1.71-2,3.75-4.13,4.15.6.59,1.73.46,2.5.88a3.26,3.26,0,0,1,1.2,1.56,20.74,20.74,0,0,0,6.07,7.23,5.71,5.71,0,0,0,1.57.91,13.07,13.07,0,0,0,2.18.38,7.42,7.42,0,0,1,5.74,4.36,3.14,3.14,0,0,1-1.72.06,1.62,1.62,0,0,1,.42.45c.64.26,2.37.83,2.78-.59C181.46,121.2,178.35,119,178.35,119Z"/><path class="cls-15" d="M178.09,125.38a2.19,2.19,0,0,1-2.6.42,8.93,8.93,0,0,1,1.88,3.47c.32-1.58-.48-.91,1.34-1.73,1.41-.63.35-2.53-.33-3.51A1.5,1.5,0,0,1,178.09,125.38Z"/><path class="cls-15" d="M179.47,123a7.42,7.42,0,0,0-5.74-4.36,13.07,13.07,0,0,1-2.18-.38,5.71,5.71,0,0,1-1.57-.91,20.74,20.74,0,0,1-6.07-7.23,3.26,3.26,0,0,0-1.2-1.56c-.77-.42-1.9-.29-2.5-.88,2.13-.4,3.16-2.44,4.13-4.15C168.67,95.9,177.5,90.8,183.19,84c2.46-5.16,2.21-8.82-2.55-5.69-6.27,4.13-19.77,20.23-21.74,24.4s-3,5.16.6,9.27a67,67,0,0,0,8.84,8.24c1.66,1.33,1.22,3.08,1.39,4a7.26,7.26,0,0,0,3.34,4.53c2.2,1.26,3.74,2.8,4.23.84,0-.11,0-.21.07-.3a8.93,8.93,0,0,0-1.88-3.47,2.19,2.19,0,0,0,2.6-.42,1.5,1.5,0,0,0,.29-1.35c-.25-.36-.44-.6-.44-.6l.23.11a1.62,1.62,0,0,0-.42-.45A3.14,3.14,0,0,0,179.47,123Z"/><path class="cls-16" d="M176,130.49a3.56,3.56,0,0,1-1.3-.27,9.6,9.6,0,0,1-3.52-2.8,12.86,12.86,0,0,1-1.65-2.09,5.36,5.36,0,0,1-.59-2.41,4.18,4.18,0,0,0-.44-1.92,6.29,6.29,0,0,0-2-1.58,12,12,0,0,1-1.26-.84,47.2,47.2,0,0,1-6.5-6.87l-.49-.58a6.59,6.59,0,0,1-1.79-3.49,6.65,6.65,0,0,1,1.22-3.79,92.5,92.5,0,0,1,23.32-26.41,5.61,5.61,0,0,1,1.84-1.06.39.39,0,1,1,.22.74,5.08,5.08,0,0,0-1.58.93,91.69,91.69,0,0,0-23.13,26.19,6,6,0,0,0-1.12,3.33,6,6,0,0,0,1.62,3.06l.48.59a46.8,46.8,0,0,0,6.4,6.75,11.48,11.48,0,0,0,1.18.79,6.81,6.81,0,0,1,2.22,1.83,4.91,4.91,0,0,1,.55,2.27,4.65,4.65,0,0,0,.49,2.08,12.47,12.47,0,0,0,1.55,2,9.06,9.06,0,0,0,3.24,2.6,2,2,0,0,0,1.8,0,1,1,0,0,0,.14-1.38,3.71,3.71,0,0,0-1.18-1.07l-.38-.24a.39.39,0,0,1-.11-.54.38.38,0,0,1,.53-.11l.37.23a9.57,9.57,0,0,0,1.44.7,1.68,1.68,0,0,0,.76.16.76.76,0,0,0,.6-.69,2.14,2.14,0,0,0-.37-1.14,12.41,12.41,0,0,0-1.43-2,.39.39,0,0,1,0-.51.37.37,0,0,1,.5-.07,3.77,3.77,0,0,0,1.37.65,1.48,1.48,0,0,0,1.27-.24,1,1,0,0,0,.2-1,3,3,0,0,0-.84-1.13,10.79,10.79,0,0,0-2.2-1.6.4.4,0,0,1-.15-.53.38.38,0,0,1,.53-.15,11.62,11.62,0,0,1,2.36,1.72,3.74,3.74,0,0,1,1,1.44,1.73,1.73,0,0,1-.43,1.86,2.23,2.23,0,0,1-1.94.42l-.12,0a8.39,8.39,0,0,1,.5.81,2.76,2.76,0,0,1,.47,1.58,1.5,1.5,0,0,1-1.26,1.39,1.72,1.72,0,0,1-.75-.06,1.77,1.77,0,0,1-.47,2.18A2.1,2.1,0,0,1,176,130.49Z"/><path class="cls-16" d="M164.4,107.83a.38.38,0,0,1-.26-.11.39.39,0,0,1,0-.55c4.76-5,14.32-15.89,18.6-21.21a.39.39,0,0,1,.55,0,.38.38,0,0,1,0,.54c-4.29,5.32-13.87,16.25-18.63,21.26A.4.4,0,0,1,164.4,107.83Z"/><path class="cls-16" d="M173.08,117.05a.38.38,0,0,1-.25-.09,62.9,62.9,0,0,1-8.62-8.65.39.39,0,0,1,.06-.55.37.37,0,0,1,.54.06,61.39,61.39,0,0,0,8.52,8.54.39.39,0,0,1-.25.69Z"/><path class="cls-16" d="M178.17,119.39a.39.39,0,0,1-.29-.13.38.38,0,0,1,0-.54,4.36,4.36,0,0,0,1.14-1.61.43.43,0,0,1,0,0l-.12,0a8.51,8.51,0,0,0-5.7-.07.39.39,0,1,1-.26-.73,9.32,9.32,0,0,1,6.23.07,1,1,0,0,1,.59.48.85.85,0,0,1,0,.63,5.14,5.14,0,0,1-1.35,1.91A.39.39,0,0,1,178.17,119.39Z"/></g></g></svg>