<svg id="Capa_2" data-name="Capa 2" xmlns="http://www.w3.org/2000/svg" xmlns:xlink="http://www.w3.org/1999/xlink" viewBox="0 0 400 400"><defs><style>.cls-1{fill:#84e147;}.cls-2{fill:#5ea837;}.cls-3{fill:#175807;}.cls-4{fill:#53a22f;}.cls-5{fill:#feec30;}.cls-6{fill:#7fe247;}.cls-7{fill:#84e246;}.cls-8{fill:#0bab92;}.cls-9{fill:#06f5e2;}.cls-10{fill:#64a835;}.cls-11{fill:url(#linear-gradient);}.cls-12{fill:#060203;}.cls-13{fill:#fff;}.cls-14{fill:url(#linear-gradient-2);}.cls-15{fill:#ffb100;}.cls-16{fill:#3e4349;}</style><linearGradient id="linear-gradient" x1="150.39" y1="396.02" x2="150.39" y2="376.62" gradientTransform="matrix(-0.94, 0.34, 0.34, 0.94, 188.21, -300.44)" gradientUnits="userSpaceOnUse"><stop offset="0" stop-color="#e8af15"/><stop offset="0.04" stop-color="#d69a16"/><stop offset="0.11" stop-color="#b87817"/><stop offset="0.19" stop-color="#9e5b18"/><stop offset="0.28" stop-color="#8a4319"/><stop offset="0.39" stop-color="#7a3119"/><stop offset="0.51" stop-color="#6e241a"/><stop offset="0.66" stop-color="#681c1a"/><stop offset="1" stop-color="#661a1a"/></linearGradient><linearGradient id="linear-gradient-2" x1="236.78" y1="387.64" x2="236.78" y2="369.24" xlink:href="#linear-gradient"/></defs><title>i</title><path class="cls-1" d="M98.33,275.73c-.78-3.62.29-7.78,1.68-11.78a100.36,100.36,0,0,1,16.81-30.57c5.35-6.5,20.74-21.1,28.05-14.57a7.63,7.63,0,0,1,0,.95c-.09,4.06-2.35,7.71-4.55,11.13-7.4,11.53-14.93,23.17-25,32.46-4.21,3.89-8.84,7.35-12.6,11.68a32.27,32.27,0,0,0-3,4A8.3,8.3,0,0,1,98.33,275.73Z"/><path class="cls-2" d="M115.37,263.35c10.06-9.29,17.59-20.93,25-32.46,2.2-3.42,4.46-7.07,4.55-11.13a7.63,7.63,0,0,0,0-.95c.19.18.39.37.57.57,1.7,1.91,1.84,4.81,1.57,7.63-1.56,15.74-14.08,31.3-26.31,45.25-3.9,4.44-8.82,9.38-14.26,9.74a7.5,7.5,0,0,1-6.62-3,32.27,32.27,0,0,1,3-4C106.53,270.7,111.16,267.24,115.37,263.35Z"/><path class="cls-3" d="M104.79,283.74a8.58,8.58,0,0,1-8.5-7c-.83-4,.47-8.52,1.85-12.39a104.16,104.16,0,0,1,17.45-31.22c3.71-4.46,15.25-16.18,24-16.85a7.65,7.65,0,0,1,5.9,1.84,1,1,0,0,1-1.3,1.47,5.76,5.76,0,0,0-4.45-1.35c-7.19.55-17.72,10.19-22.67,16.15A102,102,0,0,0,100,265c-1.29,3.61-2.51,7.79-1.77,11.33a6.59,6.59,0,0,0,7.12,5.45c5.06-.37,9.84-5.05,13.85-9.59,7.7-8.7,15.54-18.06,20.74-27.58a1,1,0,0,1,1.73.94c-5.3,9.69-13.22,19.16-21,28-4.27,4.83-9.41,9.82-15.18,10.25Z"/><path class="cls-4" d="M303.8,290.52c4.42-2.68,7.46-7.13,9.88-11.69C321.55,264,323.77,245.46,318,230c17.69,20.18,8.92,58.29-11.26,63.39-9,2.26-16.92,2-23.21-.17C290.52,293.9,297.85,294.11,303.8,290.52Z"/><path class="cls-1" d="M231.13,290.22s-6.79-33.05,10.74-52.59S288.05,207,312.6,225A33.87,33.87,0,0,1,318,230c5.79,15.49,3.57,34-4.3,48.86-2.42,4.56-5.46,9-9.88,11.69-5.95,3.59-13.28,3.38-20.29,2.67-9.13-3.14-14.73-10.26-14.72-19.33,0-12.52,7.32-18.86,11.89-18.47a22.18,22.18,0,0,0-.2,18.95c1.15,2.41,2.95,4.75,5.52,5.5a9.59,9.59,0,0,0,4.93-.12c10.72-2.59,18.16-14.29,16.57-25.21S296,234.66,285,233.57C269.44,232,255.27,245.05,250.67,260s-1.71,31.16,2.43,46.25c1.48,5.42,3.13,10.83,3.69,16.41,1.09,11-2.11,22-7.35,31.69-1.63,3-12.08,5.88-14,8.67l-40.65,3.69,24-25.63a21.5,21.5,0,0,0,4.36-9.33Z"/><path class="cls-5" d="M256.79,322.67c-.56-5.58-2.21-11-3.69-16.41-4.14-15.09-7-31.29-2.43-46.25s18.77-28,34.34-26.44c11,1.09,20.9,10,22.49,20.94s-5.85,22.62-16.57,25.21a9.59,9.59,0,0,1-4.93.12c-2.57-.75-4.37-3.09-5.52-5.5a22.18,22.18,0,0,1,.2-18.95,3.57,3.57,0,0,1,2.54,1.26c3.48,4.17-4.33,18.89,5.6,19.31s15.06-10.82,10.84-22.24-14.09-14.58-26.43-10.19S252,267,255.72,281.11s13.4,23.41,14,36.34c1.68,35.16-2.05,35.09-11.73,48.3L235.41,363c2-2.79,12.4-5.66,14-8.67C254.68,344.68,257.88,333.63,256.79,322.67Z"/><path class="cls-3" d="M258,366.73a1,1,0,0,1-.79-1.56c7.6-10.38,15.78-27.05,11.56-47.52-1.33-6.46-4-12.09-6.81-18a104.25,104.25,0,0,1-7.19-18.24c-3.88-14.62,5.27-34.18,18.13-38.76,13.31-4.73,23.4-.8,27.68,10.78,2.5,6.77,1.93,13.89-1.51,18.61a11.78,11.78,0,0,1-10.3,5,6.15,6.15,0,0,1-4.62-1.95c-2.09-2.42-1.66-6.45-1.25-10.35.32-3,.64-6.08-.43-7.37-.83-1-2.27-1.2-4-.59-4.2,1.52-8.73,7.55-8.73,17.17A18.32,18.32,0,0,0,277,288.6c6.94,5.41,17.71,6.8,29.53,3.8,9.19-2.32,16.52-12,19.12-25.35a48.34,48.34,0,0,0-.89-22.58A35.07,35.07,0,0,0,312,225.82c-24.24-17.82-52.33-6.58-69.42,12.47-8.86,9.87-9.31,22.65-9.88,38.84-.53,14.9-1.18,33.44-9,55.11-7.47,20.8-26.11,33.58-26.3,33.71a1,1,0,0,1-1.36-.26,1,1,0,0,1,.26-1.37c.18-.12,18.31-12.56,25.55-32.74,7.67-21.38,8.32-39.76,8.84-54.52.59-16.59,1.05-29.68,10.39-40.08s21.2-17.83,33.23-20.7a45.78,45.78,0,0,1,38.81,8,37,37,0,0,1,13.41,19.67,50.33,50.33,0,0,1,.94,23.52C324.78,281.5,316.9,291.8,307,294.31c-12.42,3.14-23.8,1.62-31.22-4.16a20.24,20.24,0,0,1-7.94-16.29A25.11,25.11,0,0,1,271,261a14.05,14.05,0,0,1,6.82-6.16c2.49-.9,4.78-.46,6.15,1.18,1.61,1.93,1.25,5.28.87,8.84s-.74,7.08.79,8.86a4.23,4.23,0,0,0,3.22,1.26,9.83,9.83,0,0,0,8.62-4.15c3-4.19,3.53-10.61,1.26-16.77-3.91-10.57-12.86-14-25.18-9.6-5.64,2-10.83,7.34-14.23,14.63s-4.39,15.27-2.66,21.77a102.4,102.4,0,0,0,7.07,17.9c2.87,6.07,5.58,11.8,7,18.49,4.36,21.18-4.07,38.38-11.91,49.08A1,1,0,0,1,258,366.73Z"/><path class="cls-5" d="M195.8,253.64c-.42-6.41-1.23-13.07-4.73-18.45-5.31-8.16-16.33-11.61-25.75-9.18s-17,10-20.84,19c-2.62,6.16-3.6,12.87-4.4,19.52-2.9,24.09-1.72,77.78-.36,102,0,0,1.81,5.86,25.32,5.86s31.87-5.86,31.87-5.86C195.8,338.84,197.61,281.4,195.8,253.64Z"/><path class="cls-2" d="M206.64,220.17c-3.13,6.15,4.79,19.26,3.44,26-7.42,37.32,1.41,95,1.43,120.3l21.28-2.72s-2.08-85.29-3.92-106.8a88.72,88.72,0,0,0-5.08-22.91C220.2,222.54,213.39,206.86,206.64,220.17Z"/><path class="cls-6" d="M145.41,206.08c-5.79,7.77-9.06,10.75-14,21,0,0-2.37,3.81-2.35,33.73s3.44,82.86,7,105.7h3.72c-1.36-24.23-2.54-77.92.36-102,.8-6.65,1.78-13.36,4.4-19.52,3.81-8.95,11.42-16.53,20.84-19s20.44,1,25.75,9.18c3.5,5.38,4.31,12,4.73,18.45,1.81,27.76,0,85.2,1.11,112.86h14.6c3.89-24-6-69.83-1.43-122.62.61-6.87-2-26.54-4.93-32-1.89-3.53,18.64,6.85,18.64,22.22-2.62-7.3-5.62-13.4-7.65-19.41-17.5-2.66-35.49-1.23-53.11-3.33C157,210.61,150.56,209.12,145.41,206.08Z"/><path class="cls-2" d="M205.5,181.87c-4.26-5-12.65-19.06-31.22-13.54s-22.25,18.4-25.9,29.36c-1,2.89-1.91,5.68-3,8.39,5.15,3,11.59,4.53,17.62,5.25,17.62,2.1,33.27,9.65,50.76,12.31-.41-1.23,5.66-3.78,4.74-4.67C213.31,213.92,209.75,186.85,205.5,181.87Z"/><path class="cls-3" d="M232.79,364.82h0a1,1,0,0,1-1-1c.31-12.63-.67-36.77-1.45-56.18-.38-9.2-.73-17.9-.88-23.91-.53-20.39-1.75-41.87-10.18-60.78-.58-1.29-1.21-2.6-1.81-3.87-1.19-2.5-2.42-5.08-3.39-7.75a88,88,0,0,1-3-11.1c-1.15-5.13-2.34-10.43-4.79-15.08a30.39,30.39,0,0,0-25.72-15.82h-.44a30.4,30.4,0,0,0-25.78,15c-2.39,4.21-3.75,9-5.06,13.68-.77,2.76-1.57,5.61-2.59,8.35-1.39,3.75-4.32,6.36-7.15,8.88-3.71,3.3-7.21,6.42-7.21,11.87a1,1,0,1,1-2,0c0-6.33,4-9.9,7.86-13.34,2.77-2.47,5.4-4.8,6.62-8.1,1-2.66,1.78-5.47,2.54-8.2,1.34-4.76,2.73-9.7,5.24-14.11a32.43,32.43,0,0,1,27.5-16h.46a32.43,32.43,0,0,1,27.43,16.87c2.57,4.89,3.79,10.32,5,15.57a88.13,88.13,0,0,0,2.92,10.85c.94,2.58,2.15,5.13,3.33,7.58.6,1.28,1.23,2.6,1.82,3.92,8.58,19.24,9.82,40.94,10.35,61.53.16,6,.51,14.69.88,23.89.79,19.43,1.76,43.61,1.45,56.3A1,1,0,0,1,232.79,364.82Z"/><path class="cls-3" d="M136,367.48a1,1,0,0,1-1-.81c-5.64-32.51-8.52-93.8-5.8-123.74a1,1,0,0,1,1.06-.89,1,1,0,0,1,.9,1.07c-2.71,29.8.16,90.84,5.77,123.22a1,1,0,0,1-.8,1.14Z"/><path class="cls-7" d="M140.46,213.45c17.31-.48,42.26-5.6,42.08-3s-62.24-23.81-65.91-17.39,1.55,7,35.5,9,61.53-22.78,71.22-52.52-9.14-70.46-12.7-83.28-1.48-11-1.43-14.39c-3.11-.4-6.21-.94-9.29-1.49L189.3,48.48a40.92,40.92,0,0,0-8.6-.9c-4.5.18-8.79,1.84-13,3.48l-19.4,7.61a2.56,2.56,0,0,1-1.35.26c-1-.18-1.36-1.35-1.37-2.33,0-3,1.88-5.66,3.74-8s3.67-4.49,5.59-6.66c-2.68,1.8-4.92,3.28-6.35,4.13-5.75,3.44-21.22,11-33.16,18.85A36.13,36.13,0,0,0,100.61,84.2c-2.52,6-15.42,55.67-13.85,65.75s5,33.44,5,33.44c-6.46,2.61-2.53,9.47-2.53,9.47.89,3.56,14.84,13.71,20,15.45C117.1,210.88,127,213.83,140.46,213.45Z"/><path class="cls-8" d="M207.19,24a17,17,0,0,0-6.75-2.07A4.25,4.25,0,0,0,202,24.74c2.9,2.54,6.32,3.55,3.33,8s.4,4,1.37,6.5-2.18.84-1,5.49,3.66,3.69,3.61,7.11a66.59,66.59,0,0,0,9.34.61C216.13,40.52,212.74,27.13,207.19,24Z"/><path class="cls-9" d="M145.6,56.6c0,1,.41,2.15,1.37,2.33a2.56,2.56,0,0,0,1.35-.26l19.4-7.61c4.19-1.64,8.48-3.3,13-3.48a40.92,40.92,0,0,1,8.6.9l10.63,1.89c3.08.55,6.18,1.09,9.29,1.49.05-3.42-2.47-2.45-3.61-7.11s2-3,1-5.49-4.36-2-1.37-6.5-.43-5.48-3.33-8a4.25,4.25,0,0,1-1.51-2.81c-7-.69-14.44,2.37-19.78,4.28S163.1,36.46,154.93,41.93q-2.88,3.26-5.59,6.66C147.48,50.94,145.59,53.59,145.6,56.6Z"/><path class="cls-10" d="M210.65,66.25c3.56,12.82,22.39,53.54,12.7,83.28S186.09,204,152.13,202.05s-39.17-2.58-35.5-9,35.8-7,40.15-9.89c2.17-1.44-19.11-5.92-49.4,5.38-12.58,4.7-12.8,7.66-10.71,11.34,16.24,15.78,36.47,11.8,58.84,13.2,35,2.18,90.61-29.2,94.26-65.78,1.33-13.37,4.66-27.89-9.2-28.49C238.71,110,224.62,79.54,222,69.19c-1-3.72-2-10-3.39-16.72a66.59,66.59,0,0,1-9.34-.61C209.17,55.28,207.09,53.43,210.65,66.25Z"/><path class="cls-7" d="M88.14,98.39s-13.73,9.84-15.09,23.53,2.28,27.7,21.31,37.78C94.36,159.7,117.4,124.53,88.14,98.39Z"/><path class="cls-10" d="M137.73,109c3.84,13,12.82,28.82,29.22,35.21s34.62,2.27,42.41-6.49,9.68-22.27-5.84-40.33S128.09,76.47,137.73,109Z"/><path class="cls-9" d="M136,114.2c2.29,7.19,13.11,11.1,14,1s.16-23,17.84-30.73,33.61,6.32,36,8.65,6.8,10.64,7.69,15.89,14.28,12.42,8-9.26c-6.9-23.76-22-35.1-44.91-35.17C155,64.51,126.94,85.7,136,114.2Z"/><path class="cls-10" d="M167.44,84.27c-10.42,4.45-18.58,13.84-20.81,21.64s1.45,28.32,23,33.92,34.07-9.06,37.37-14.71a27.94,27.94,0,0,0-2.42-30.48A31.12,31.12,0,0,0,168.2,84Z"/><path class="cls-3" d="M179,142.25a38.11,38.11,0,0,1-9.65-1.28C158,138,152.07,131.2,149.1,126c-4.32-7.56-4.9-15.88-3.6-20.4C148,96.86,157,87.44,167,83.19h0c.26-.12.53-.23.79-.33a32.33,32.33,0,0,1,37.77,11.08A29,29,0,0,1,208,125.72C204.05,132.52,194,142.25,179,142.25ZM167.91,85.36c-10.6,4.52-18.16,13.93-20.14,20.88-1.59,5.54.5,13.54,3.38,18.58,2.75,4.81,8.24,11.13,18.78,13.87,9,2.34,17.28,1.32,24.64-3A33.57,33.57,0,0,0,206,124.53a26.66,26.66,0,0,0-2.35-29.19,30,30,0,0,0-35-10.29l-.73.31Z"/><path class="cls-9" d="M77.67,107.8s-.48-18.52,8-23.78,17.53-4,22.52,10.19,5.55,20.78,2.62,27.2-4.92,14.65-8.7,11.72c0,0-.19-15.51-5.09-21.59S83.27,96.09,77.67,107.8Z"/><path class="cls-10" d="M85.21,154.15s1.26,10.72,4.77,12.6,9-13.5,8-17.8S85.21,154.15,85.21,154.15Z"/><path class="cls-3" d="M210.5,197.73a1,1,0,0,1-.85-.49,1,1,0,0,1,.35-1.34c.18-.11,18.57-11.12,29.28-27.69,9.95-15.42,14.3-35,9.69-43.55-1.7-3.17-4.53-4.8-8.41-4.85a1,1,0,0,1-.94-.73c-1.43-5.38-3.72-10.69-6.37-16.84C228.67,91.64,223,78.44,219,58.45c-6.13-31-9.34-33.25-14.95-34.84-13.86-4.18-33.41,9.25-45.09,17.27l-2.19,1.51c-5.64,3.84-12.59,7.32-19.31,10.69-7.57,3.79-14.71,7.37-19.4,11.13-8.75,7-16.42,19.63-16.49,19.75a1,1,0,1,1-1.69-1c.32-.53,7.92-13,17-20.27,4.85-3.9,12.09-7.52,19.75-11.36,6.66-3.34,13.55-6.79,19.08-10.56l2.19-1.5c12-8.22,32-22,46.76-17.53,6.35,1.8,10,4.23,16.32,36.34,3.91,19.78,9.56,32.87,14.09,43.39a133.29,133.29,0,0,1,6.28,16.41,10.85,10.85,0,0,1,9.38,5.86c2.51,4.68,2.78,12.08.77,20.85a79.7,79.7,0,0,1-10.55,24.69c-11,17-29.74,28.21-29.93,28.32A1,1,0,0,1,210.5,197.73Z"/><path class="cls-3" d="M110.39,122.61a.84.84,0,0,1-.27,0,1,1,0,0,1-.67-1.21c4.07-14.38-3.25-28.33-5.6-32.27s-5.7-6.44-9.38-6.93a11.13,11.13,0,0,0-9.23,3.42c-6.15,6-6.7,24.29-6.71,24.47a1,1,0,1,1-2,0c0-.79.58-19.3,7.31-25.83a13,13,0,0,1,10.85-4c4.29.57,8.13,3.37,10.81,7.87,2.45,4.11,10.09,18.68,5.8,33.81A1,1,0,0,1,110.39,122.61Z"/><path class="cls-3" d="M136.46,116.47a1,1,0,0,1-.92-.63,34.41,34.41,0,0,1-1.82-11.34,37.88,37.88,0,0,1,8.66-24.2c13.85-17.14,35-20.38,48.69-14.72,14.16,5.85,22.59,14,28.19,27.29a1,1,0,1,1-1.81.77C212,80.7,204.14,73.1,190.32,67.4c-13-5.38-33.17-2.25-46.41,14.13a36,36,0,0,0-6.54,33.61,1,1,0,0,1-.56,1.27A1.12,1.12,0,0,1,136.46,116.47Z"/><path class="cls-3" d="M94.36,160.68a1,1,0,0,1-.3,0c-.26-.09-6.4-2.12-12.58-9.59-6-7.28-12.47-17.4-9-31.1,3.36-13.26,10.89-18.27,11.21-18.48a1,1,0,1,1,1.07,1.65c-.07,0-7.21,4.85-10.38,17.31-3.25,12.85,2.89,22.44,8.61,29.36s11.6,9,11.66,9a1,1,0,0,1-.3,1.92Z"/><path class="cls-3" d="M92.11,184.31a1,1,0,0,1-.9-.59c-4.57-10.73-6.88-28.69-7-29.45a1,1,0,1,1,2-.24c0,.18,2.37,18.44,6.83,28.91a1,1,0,0,1-.52,1.29A.91.91,0,0,1,92.11,184.31Z"/><path class="cls-3" d="M138.74,214.71a101.74,101.74,0,0,1-19-1.44A60.85,60.85,0,0,1,97,203.48c-6.13-4.35-9.94-9-10.18-12.58-.35-5.05,2.35-8.35,18.65-13.42,43.88-14.1,60.37-14.19,70.22-14.24a56,56,0,0,0,6-.23c25.34-3,34.07-6,43.11-20a1,1,0,0,1,1.65,1.07c-9.4,14.55-18.89,17.83-44.53,20.88a56.33,56.33,0,0,1-6.21.24c-9.74.06-26,.15-69.63,14.15-17.7,5.51-17.48,8.65-17.29,11.42.39,5.69,14,17.09,31.34,20.57,17.48,3.52,52.48-.41,63.26-2.23a1,1,0,1,1,.32,1.94A319.31,319.31,0,0,1,138.74,214.71Z"/><path class="cls-3" d="M117,148.79s-4.32,3.84-3.22,5.31S117.5,155.17,117,148.79Z"/><path class="cls-3" d="M129.79,145.05s2.14,5,4,4.48S135.63,147.49,129.79,145.05Z"/><ellipse class="cls-10" cx="178.53" cy="111.88" rx="24.11" ry="22.47" transform="translate(-16.61 32.46) rotate(-9.93)"/><path class="cls-3" d="M178,134.79c-11.53,0-21.63-7.69-23.55-18.69-2.17-12.42,6.88-24.42,20.19-26.75s25.9,5.88,28.08,18.3a22,22,0,0,1-4.29,17.18,25.3,25.3,0,0,1-15.9,9.57A26,26,0,0,1,178,134.79Zm1.17-45a25.22,25.22,0,0,0-4.39.39C161.85,92.38,153.08,104,155.17,116s14.29,19.92,27.17,17.66a24.44,24.44,0,0,0,15.41-9.27,21.16,21.16,0,0,0,4.14-16.56h0C200,97.17,190.27,89.74,179.12,89.74Z"/><ellipse class="cls-7" cx="178.4" cy="112.07" rx="19.42" ry="17.18" transform="translate(-26.54 63.22) rotate(-18.73)"/><path class="cls-3" d="M177,129.9a20.19,20.19,0,0,1-7.81-1.55,16.53,16.53,0,0,1-9.51-9.91c-3.11-9.18,2.77-19.5,13.12-23s21.29,1.11,24.4,10.28h0a16.51,16.51,0,0,1-1.52,13.65,21,21,0,0,1-11.6,9.36A22,22,0,0,1,177,129.9ZM179.81,95a21.18,21.18,0,0,0-6.8,1.14c-9.93,3.37-15.6,13.24-12.62,22a15.71,15.71,0,0,0,9.06,9.44A20.84,20.84,0,0,0,195,119a15.74,15.74,0,0,0,1.46-13h0C194.12,99.2,187.35,95,179.81,95Z"/><path class="cls-10" d="M97.11,155.41a23,23,0,0,1-14.79-12.63c-5.18-10.69-3.5-20.66,1.48-29.65,6.54-11.78,10.51-6.59,10.51-6.59S108.82,120.85,97.11,155.41Z"/><path class="cls-3" d="M97.11,155.8H97A23.66,23.66,0,0,1,82,143c-4.68-9.68-4.18-19.78,1.5-30,2.81-5.07,5.54-7.73,8.1-7.92a3.64,3.64,0,0,1,3,1.25c.31.32,3.77,3.92,5.88,11.64,3.61,13.15.36,27.72-3,37.63A.4.4,0,0,1,97.11,155.8Zm-5.27-50H91.6c-1.56.13-4.13,1.53-7.45,7.52C78.52,123.46,78,133,82.67,142.61a23,23,0,0,0,14.19,12.33c3.27-9.77,6.37-24,2.88-36.76-2.11-7.73-5.67-11.33-5.71-11.36l0,0A2.79,2.79,0,0,0,91.84,105.79Z"/><path class="cls-3" d="M84,102.78a1,1,0,0,1-1-1c-.11-13.87,5.29-20.36,5.52-20.62a1,1,0,0,1,1.38-.11A1,1,0,0,1,90,82.45c-.07.07-5.16,6.27-5,19.34a1,1,0,0,1-1,1Z"/><path class="cls-3" d="M94.19,107.76H94a1,1,0,0,1-.79-1.14C95.78,92.45,104.69,89,105.07,88.9a1,1,0,0,1,.68,1.84C105.4,90.87,97.5,94,95.16,107A1,1,0,0,1,94.19,107.76Z"/><path class="cls-3" d="M150.28,96.47a1,1,0,0,1-.94-.68c-2.27-7-10.23-7.9-10.31-7.91a1,1,0,0,1,.22-2c.38,0,9.3,1.12,12,9.26a1,1,0,0,1-.63,1.24A1,1,0,0,1,150.28,96.47Z"/><path class="cls-3" d="M172,82.09h0a1,1,0,0,1-1-1c.16-10.14-3.14-14.53-3.17-14.57a1,1,0,0,1,1.55-1.21c.15.19,3.76,4.89,3.59,15.82A1,1,0,0,1,172,82.09Z"/><path class="cls-3" d="M196.68,87.54a1,1,0,0,1-.51-.15,1,1,0,0,1-.33-1.35c5.77-9.45,2.93-14.57,2.9-14.62a1,1,0,0,1,.36-1.35,1,1,0,0,1,1.34.36c.15.25,3.45,6.2-2.92,16.64A1,1,0,0,1,196.68,87.54Z"/><path class="cls-7" d="M100.35,145.75c-5.83,6.34-11.42,1.46-13.69-1.66s-6.72-16.32.11-24.87,14.54-1.71,14.54-1.71S103.91,135.28,100.35,145.75Z"/><path class="cls-3" d="M94.36,149.23H94c-3.94-.22-6.84-3.8-7.64-4.9-2.64-3.63-6.6-16.93.12-25.35,2.15-2.7,4.62-4.18,7.34-4.42a11.37,11.37,0,0,1,7.77,2.66.38.38,0,0,1,.13.24c0,.18,2.57,18-1,28.42a.47.47,0,0,1-.08.14C98.67,148.15,96.56,149.23,94.36,149.23Zm.18-33.92-.68,0c-2.49.21-4.77,1.6-6.78,4.12-6.9,8.64-2,21.81-.1,24.4.74,1,3.45,4.37,7,4.58,2.07.11,4.09-.86,6-2.9,3.28-9.77,1.18-26.1,1-27.83A11,11,0,0,0,94.54,115.31Zm5.81,30.44Z"/><path class="cls-3" d="M91.68,167.76a1,1,0,0,1-.43-.1,1,1,0,0,1-.45-1.32l.72-1.47c8-16.41,13.32-27.25,8.8-45.81A21.39,21.39,0,0,0,83.74,102.8a1,1,0,0,1,.31-1.94,23.74,23.74,0,0,1,18.18,17.74c4.69,19.25-.74,30.34-9,47.14l-.71,1.47A1,1,0,0,1,91.68,167.76Z"/><path class="cls-3" d="M231.42,147.44a1,1,0,0,1-1-.85c-.48-3.44-1.57-5.56-3.23-6.28-2.39-1-5.42,1.05-5.45,1.07a1,1,0,1,1-1.13-1.6c.16-.12,3.94-2.75,7.35-1.28,2.35,1,3.83,3.65,4.4,7.82a1,1,0,0,1-.83,1.11Z"/><path class="cls-3" d="M234.1,120.4a1,1,0,0,1-.93-.65,1,1,0,0,1,.58-1.25c.09,0,2.14-.76,6.85-.66a1,1,0,0,1,1,1,1,1,0,0,1-1,1,19.21,19.21,0,0,0-6.12.54A1.26,1.26,0,0,1,234.1,120.4Z"/><circle class="cls-11" cx="179.62" cy="114.03" r="9.7"/><path class="cls-3" d="M179.61,124.72a10.69,10.69,0,1,1,4.51-20.38,10.69,10.69,0,0,1-4.51,20.38Zm0-19.41A8.72,8.72,0,0,0,171.43,117h0a8.72,8.72,0,1,0,11.86-10.9A8.71,8.71,0,0,0,179.62,105.31Z"/><circle class="cls-12" cx="179.72" cy="113.87" r="6.73"/><circle class="cls-13" cx="186.45" cy="113.51" r="2.06"/><path class="cls-7" d="M169.5,115.61A78.4,78.4,0,0,0,187.38,108s-5.19-7.94-13.17-3.1C168.37,108.46,169.26,112.7,169.5,115.61Z"/><path class="cls-3" d="M169.5,116.59a.94.94,0,0,1-.56-.18,1,1,0,0,1-.42-.72q0-.3-.06-.63c-.28-2.93-.71-7.37,5.24-11,8.69-5.27,14.45,3.31,14.51,3.4a1,1,0,0,1,.13.75,1,1,0,0,1-.45.63,78.54,78.54,0,0,1-18.14,7.7A1,1,0,0,1,169.5,116.59Zm9.82-12.24a8.85,8.85,0,0,0-4.61,1.41c-4.58,2.78-4.59,5.83-4.34,8.57a78.63,78.63,0,0,0,15.56-6.6A9.09,9.09,0,0,0,179.32,104.35Z"/><path class="cls-14" d="M101,129.8c0-.74,0-1.48,0-2.22a9.2,9.2,0,1,0-1,16.94c.11-.51.21-1,.31-1.53.36-2,.66-4,.94-6a26.79,26.79,0,0,0-.09-3A41.92,41.92,0,0,1,101,129.8Z"/><path class="cls-3" d="M97,146a10.18,10.18,0,0,1-9.26-14.47,10.19,10.19,0,0,1,13.7-4.86,1,1,0,0,1,.55.93c0,.72,0,1.45,0,2.17v0c0,1.1.08,2.24.17,3.35,0,.25,0,.51.07.76a27.58,27.58,0,0,1,.09,3.07v.11c-.32,2.26-.61,4.15-1,6.06-.09.52-.2,1-.3,1.55a1,1,0,0,1-.64.73A10.17,10.17,0,0,1,97,146Zm0-18.4a8.34,8.34,0,0,0-2.82.5,8.22,8.22,0,0,0,5,15.63l.18-.95c.34-1.86.62-3.71.93-5.91a28,28,0,0,0-.09-2.81c0-.25,0-.5-.07-.76-.09-1.15-.19-2.34-.17-3.53,0-.53,0-1.06,0-1.59A8.14,8.14,0,0,0,97,127.63Z"/><path class="cls-12" d="M100.77,138.05c0-.21,0-.42,0-.63.1-1.86.27-3.79.21-5.7,0-.33,0-.66,0-1v-.09a6.38,6.38,0,1,0-1.69,11.06,6,6,0,0,0,1-.5C100.49,140.16,100.64,139.1,100.77,138.05Z"/><path class="cls-13" d="M100.9,135.67a.48.48,0,0,1,.07-.3c0-.2,0-.4,0-.59a1.8,1.8,0,0,0-.6.1,2,2,0,0,0-1.17,2.51,1.94,1.94,0,0,0,1.43,1.22A14.5,14.5,0,0,0,100.9,135.67Z"/><path class="cls-7" d="M101.05,127.06a8.8,8.8,0,0,0-8.37.88c-5.83,3.54-5,7.79-4.7,10.69a81,81,0,0,0,13.19-5C101.19,131.41,101.15,129.23,101.05,127.06Z"/><path class="cls-3" d="M88,139.62a1.07,1.07,0,0,1-.57-.18,1,1,0,0,1-.41-.72l-.06-.63c-.28-2.94-.71-7.38,5.23-11a9.78,9.78,0,0,1,9.26-.95,1,1,0,0,1,.6.86c.1,2,.14,4.18.12,6.58a1,1,0,0,1-.55.87,80.9,80.9,0,0,1-13.37,5.12A1.09,1.09,0,0,1,88,139.62Zm9.81-12.25a8.9,8.9,0,0,0-4.6,1.41c-4.59,2.79-4.59,5.83-4.34,8.58a84.3,84.3,0,0,0,11.34-4.4c0-1.87,0-3.58-.1-5.21A7,7,0,0,0,97.79,127.37Z"/><path class="cls-13" d="M259.25,329.23l-1.49-2.88a3.64,3.64,0,1,0-6.47,3.34l1.49,2.88a41,41,0,0,1-50.09-16.1l2.79-1.44a3.64,3.64,0,0,0-3.33-6.47L199.37,310a41,41,0,0,1,16-49.92l1.38,2.68a3.64,3.64,0,0,0,6.47-3.33l-1.38-2.68a41,41,0,0,1,50,15.9l-2.78,1.43a3.64,3.64,0,1,0,3.34,6.47l2.79-1.43A41,41,0,0,1,259.25,329.23Z"/><path class="cls-15" d="M217.12,255.42a44.13,44.13,0,1,0,59.45,19A44.14,44.14,0,0,0,217.12,255.42Zm42,73.61-1.48-2.87a3.62,3.62,0,1,0-6.43,3.32l1.47,2.86a40.77,40.77,0,0,1-49.78-16l2.77-1.43a3.62,3.62,0,1,0-3.31-6.43l-2.76,1.42a40.77,40.77,0,0,1,16-49.62l1.37,2.66a3.62,3.62,0,0,0,6.44-3.31L222,257a40.78,40.78,0,0,1,49.67,15.81l-2.76,1.42a3.62,3.62,0,0,0,3.32,6.44L275,279.2A40.77,40.77,0,0,1,259.12,329Z"/><path class="cls-16" d="M245.12,266.45l-8.07,27.42-.1,0a4.28,4.28,0,0,0-.61.4L216,290.78a2.5,2.5,0,0,0-.84,4.92l20.39,3.53a3.74,3.74,0,0,0,6.5-3.7l-.15-.26,8.07-27.41a2.5,2.5,0,0,0-4.8-1.41Z"/><path class="cls-1" d="M266.9,248.77c-.62-3.65-3.16-7.12-5.92-10.32A100.44,100.44,0,0,0,234,216.27c-7.37-4.05-27.07-11.91-31.45-3.14a8.67,8.67,0,0,0,.31.9c1.59,3.74,5,6.29,8.35,8.65,11.14,8,22.45,16,35.23,20.9,5.35,2.06,10.94,3.55,16,6.18a31.7,31.7,0,0,1,4.22,2.6A8.19,8.19,0,0,0,266.9,248.77Z"/><path class="cls-2" d="M246.48,243.58c-12.78-4.9-24.09-12.93-35.23-20.9-3.3-2.36-6.76-4.91-8.35-8.65a8.67,8.67,0,0,1-.31-.9c-.11.24-.22.49-.32.75-.87,2.39.07,5.14,1.37,7.66,7.28,14.05,24.66,23.86,41.2,32.29,5.26,2.68,11.66,5.45,16.85,3.76a7.46,7.46,0,0,0,5-5.23,31.7,31.7,0,0,0-4.22-2.6C257.42,247.13,251.83,245.64,246.48,243.58Z"/><path class="cls-3" d="M259.48,259.38c-4.62,0-9.66-2.17-14.17-4.44-10.47-5.29-21.33-11.15-29.84-18.18a1,1,0,1,1,1.25-1.52c8.36,6.91,19.11,12.71,29.48,17.94,5.4,2.73,11.58,5.31,16.42,3.78a6.6,6.6,0,0,0,4.59-7.7c-.63-3.56-3.3-7-5.84-9.88a102.23,102.23,0,0,0-27.23-22.1c-6.8-3.7-20.16-8.76-27-6.6a5.7,5.7,0,0,0-3.63,2.9,1,1,0,0,1-1.76-.89,7.67,7.67,0,0,1,4.81-3.89c8.4-2.63,23.46,4,28.56,6.75a104.06,104.06,0,0,1,27.77,22.54c2.71,3.08,5.59,6.79,6.3,10.82a8.6,8.6,0,0,1-5.94,9.93A12.51,12.51,0,0,1,259.48,259.38Z"/><path class="cls-1" d="M269.2,344.09a1.83,1.83,0,0,0-.32,1.9A14,14,0,0,0,269.2,344.09Z"/><path class="cls-1" d="M258.77,347.86a8.3,8.3,0,0,0,1.56-2.78A3.07,3.07,0,0,0,258.77,347.86Z"/><path class="cls-2" d="M267.78,310.61c3.87-4,3.33-10.36,2.19-15.77-3.52-16.64-10.25-32.38-17.11-47.95a11.09,11.09,0,0,0-4.2,10.78c0,.14.05.29.07.43,2.56,14.52,15,30.27,15.64,40.24.64,9.49,4.16,8.12-5.2,16.31C262.34,313.79,265.53,312.91,267.78,310.61Z"/><path class="cls-1" d="M253.14,351a8.92,8.92,0,0,0,5.63-3.16,3.07,3.07,0,0,1,1.56-2.78,8.3,8.3,0,0,1-1.56,2.78,3.72,3.72,0,0,0,1.36,3c1.83,1.41,4.64.95,6.35-.59a8.31,8.31,0,0,0,2.4-4.3,1.83,1.83,0,0,1,.32-1.9,14,14,0,0,1-.32,1.9,3.48,3.48,0,0,0,3.81,2.14c2.29-.6,3.62-2.92,4.68-5q1.45-2.94,2.86-5.93c5.4-23.88,4.26-56-5.63-78a29.24,29.24,0,0,0-6.32-10.94,11.2,11.2,0,0,0-15.42-1.3c6.86,15.57,13.59,31.31,17.11,47.95,1.14,5.41,1.68,11.8-2.19,15.77-2.25,2.3-5.44,3.18-8.61,4-.47.41-1,.85-1.5,1.31-11.24,9.68-15.72,34.18-7.31,27.54,0,0-1,1.84-2.15,4.36a38.08,38.08,0,0,0,5.43-8.17A17.27,17.27,0,0,0,253.14,351Z"/><path class="cls-4" d="M277.37,343.09c-1.06,2.12-2.39,4.44-4.68,5a3.48,3.48,0,0,1-3.81-2.14,8.31,8.31,0,0,1-2.4,4.3c-1.71,1.54-4.52,2-6.35.59a3.72,3.72,0,0,1-1.36-3,8.92,8.92,0,0,1-5.63,3.16,17.27,17.27,0,0,1,.5-11.33,38.08,38.08,0,0,1-5.43,8.17c-3.57,7.67-9.05,21.61,5.15,8.87,0,0-1.67,12.57,5.82,3.28,0,0,13.64,5.21,20.09-19,.34-1.27.66-2.57,1-3.89Q278.82,340.15,277.37,343.09Z"/><path class="cls-3" d="M248,344.43a3.73,3.73,0,0,1-1.11-.17,2.93,2.93,0,0,1-1.76-1.44A4.33,4.33,0,0,1,245,340a51.5,51.5,0,0,1,16.12-28.86l.41-.36a11.35,11.35,0,0,0,3-3.41c1.19-2.54.17-5.67-1-8.65L246.64,255.2a1,1,0,1,1,1.84-.7L265.29,298c1.31,3.38,2.45,6.95.93,10.19a13,13,0,0,1-3.44,4.05l-.4.35a49.59,49.59,0,0,0-15.5,27.76,2.79,2.79,0,0,0,0,1.6.93.93,0,0,0,.59.45,1.93,1.93,0,0,0,1.45-.14,6.58,6.58,0,0,0,2.14-2.51l10-16.5a1,1,0,1,1,1.69,1l-10,16.51a8.27,8.27,0,0,1-2.88,3.22A4,4,0,0,1,248,344.43Z"/><path class="cls-3" d="M262.13,361.37q-.42,0-.84,0a1,1,0,0,1,.15-2c3.38.26,7.08-1.39,9.88-4.41s4.4-6.8,5.63-10.15c4.36-11.8,6.23-25.17,5.57-39.72a175.17,175.17,0,0,0-7.14-40.34c-1.72-5.95-5.41-12.14-8.37-17.1-1-1.62-1.87-3.14-2.61-4.5a1,1,0,1,1,1.72-.94c.73,1.32,1.63,2.83,2.58,4.43,3,5.06,6.77,11.37,8.57,17.56a177,177,0,0,1,7.21,40.8c.68,14.81-1.24,28.44-5.68,40.49-1.3,3.53-3,7.57-6,10.81A14.89,14.89,0,0,1,262.13,361.37Z"/><path class="cls-3" d="M247.13,362.12a2.69,2.69,0,0,1-1.45-.43c-1.23-.78-1.66-2.3-1.27-4.52A44.18,44.18,0,0,1,249.5,343a1,1,0,0,1,1.71,1,41.88,41.88,0,0,0-4.86,13.53c-.13.77-.26,2.11.38,2.52.86.54,2.23-.94,2.83-1.81,6.11-8.8,12.07-17.89,17.71-27a1,1,0,0,1,1.67,1c-5.66,9.14-11.64,18.26-17.77,27.09C249.92,361.15,248.47,362.12,247.13,362.12Z"/><path class="cls-3" d="M255.66,363.38a3.1,3.1,0,0,1-.73-.09,3.7,3.7,0,0,1-2.45-3.26,11.29,11.29,0,0,1-.06-1.73,9.7,9.7,0,0,0,0-1.44,1,1,0,0,1,2-.25,11.29,11.29,0,0,1,.06,1.73,9.66,9.66,0,0,0,0,1.44c.08.66.43,1.45,1,1.61s1.26-.26,2.21-1.21c8.38-8.47,10.91-13.71,16.55-27.71a1,1,0,0,1,1.83.74c-5.65,14-8.39,19.66-17,28.35A5.17,5.17,0,0,1,255.66,363.38Z"/><path class="cls-1" d="M100.34,359.9a1.83,1.83,0,0,1,.33,1.9A12.18,12.18,0,0,1,100.34,359.9Z"/><path class="cls-1" d="M110.79,363.6a8.74,8.74,0,0,1-1.59-2.78A3.08,3.08,0,0,1,110.79,363.6Z"/><path class="cls-2" d="M101.5,326.41c-3.9-3.93-3.42-10.33-2.31-15.75,3.38-16.66,10-32.45,16.74-48.07a11.07,11.07,0,0,1,4.28,10.74c0,.14,0,.29-.07.43-2.44,14.54-14.74,30.39-15.33,40.36-.57,9.49-4.1,8.15,5.32,16.27C107,329.55,103.77,328.7,101.5,326.41Z"/><path class="cls-1" d="M116.44,366.71a8.93,8.93,0,0,1-5.65-3.11,3.08,3.08,0,0,0-1.59-2.78,8.74,8.74,0,0,0,1.59,2.78,3.75,3.75,0,0,1-1.33,3c-1.83,1.41-4.63,1-6.37-.55a8.31,8.31,0,0,1-2.42-4.28,1.83,1.83,0,0,0-.33-1.9,12.18,12.18,0,0,0,.33,1.9,3.49,3.49,0,0,1-3.8,2.17c-2.29-.58-3.64-2.89-4.71-5q-1.48-2.93-2.91-5.9c-5.58-23.84-4.69-55.94,5-78.07a29.09,29.09,0,0,1,6.23-11,11.2,11.2,0,0,1,15.42-1.41c-6.74,15.62-13.36,31.41-16.74,48.07-1.11,5.42-1.59,11.82,2.31,15.75,2.27,2.29,5.45,3.14,8.63,4l1.52,1.3c11.31,9.59,16,34.06,7.52,27.48,0,0,1,1.83,2.18,4.34a37.84,37.84,0,0,1-5.49-8.13A17.28,17.28,0,0,1,116.44,366.71Z"/><path class="cls-4" d="M92.16,359c1.07,2.12,2.42,4.43,4.71,5a3.49,3.49,0,0,0,3.8-2.17,8.31,8.31,0,0,0,2.42,4.28c1.74,1.53,4.54,2,6.37.55a3.75,3.75,0,0,0,1.33-3,8.93,8.93,0,0,0,5.65,3.11,17.28,17.28,0,0,0-.58-11.33,37.84,37.84,0,0,0,5.49,8.13c3.63,7.64,9.21,21.54-5.08,8.92,0,0,1.77,12.55-5.79,3.32,0,0-13.6,5.32-20.25-18.81-.34-1.27-.67-2.56-1-3.88Q90.68,356,92.16,359Z"/><path class="cls-3" d="M121.5,360.08a3.9,3.9,0,0,1-1.83-.45,8.11,8.11,0,0,1-2.91-3.2L106.66,340a1,1,0,0,1,1.68-1l10.1,16.43a6.62,6.62,0,0,0,2.15,2.49,2,2,0,0,0,1.46.13.91.91,0,0,0,.58-.45,2.75,2.75,0,0,0,0-1.61,49.51,49.51,0,0,0-15.71-27.63l-.41-.36a13,13,0,0,1-3.47-4c-1.54-3.24-.42-6.81.86-10.2l16.48-43.62a1,1,0,0,1,1.84.7l-16.48,43.62c-1.13,3-2.13,6.11-.92,8.65a11.26,11.26,0,0,0,3,3.38l.41.37a51.46,51.46,0,0,1,16.34,28.73,4.39,4.39,0,0,1-.16,2.85,2.87,2.87,0,0,1-1.74,1.45A3.74,3.74,0,0,1,121.5,360.08Z"/><path class="cls-3" d="M107.44,377.13a14.91,14.91,0,0,1-10.58-5c-3-3.22-4.79-7.24-6.12-10.76-4.53-12-6.55-25.63-6-40.45a177.24,177.24,0,0,1,6.9-40.85c2.22-7.88,5-14.15,12-21a1,1,0,1,1,1.37,1.4c-6.71,6.55-9.38,12.56-11.5,20.13A175,175,0,0,0,86.72,321c-.55,14.55,1.42,27.9,5.86,39.68,1.26,3.33,2.92,7.14,5.72,10.1s6.52,4.62,9.91,4.34a1,1,0,0,1,1.06.89,1,1,0,0,1-.9,1.07Z"/><path class="cls-3" d="M122.51,377.77c-1.32,0-2.77-1-4-2.75-6.2-8.79-12.25-17.86-18-27a1,1,0,0,1,1.66-1.05c5.71,9.08,11.74,18.12,17.92,26.88.61.85,2,2.33,2.84,1.78.64-.41.5-1.76.36-2.52a42,42,0,0,0-5-13.49,1,1,0,0,1,1.7-1,43.69,43.69,0,0,1,5.2,14.12c.4,2.21,0,3.74-1.24,4.53A2.72,2.72,0,0,1,122.51,377.77Z"/><path class="cls-3" d="M114,379.09a5.24,5.24,0,0,1-3.37-1.79C102,368.67,99.18,363,93.43,349.07a1,1,0,0,1,1.82-.75c5.75,14,8.32,19.18,16.76,27.58,1,1,1.68,1.34,2.22,1.19s.91-.94,1-1.61a9.71,9.71,0,0,0,0-1.44,12.67,12.67,0,0,1,0-1.73,1,1,0,1,1,1.95.24,9.77,9.77,0,0,0,0,1.44,12.49,12.49,0,0,1,0,1.72,3.69,3.69,0,0,1-2.43,3.28A2.89,2.89,0,0,1,114,379.09Z"/></svg>