<svg id="Capa_2" data-name="Capa 2" xmlns="http://www.w3.org/2000/svg" xmlns:xlink="http://www.w3.org/1999/xlink" viewBox="0 0 400 400"><defs><style>.cls-1{fill:#7fe247;}.cls-2{fill:#5ea837;}.cls-3{fill:#175807;}.cls-4{fill:#feec30;}.cls-5{fill:#0bab92;}.cls-6{fill:#06f5e2;}.cls-7{fill:#53a22f;}.cls-8{fill:#5fa835;}.cls-9{fill:#83e145;}.cls-10{fill:url(#linear-gradient);}.cls-11{fill:#060203;}.cls-12{fill:#fff;}.cls-13{fill:url(#linear-gradient-2);}.cls-14{fill:#e6e6e6;}.cls-15{fill:#b3b3b3;}.cls-16{fill:#333;}.cls-17{fill:#1b1464;}.cls-18{fill:#1a1a1a;}.cls-19{fill:#141c29;}.cls-20{fill:url(#Degradado_sin_nombre_23);}.cls-21{fill:url(#Degradado_sin_nombre_23-2);}.cls-22{fill:url(#Degradado_sin_nombre_23-3);}</style><linearGradient id="linear-gradient" x1="-6400.09" y1="1606.65" x2="-6400.09" y2="1582.59" gradientTransform="matrix(-0.89, 0.45, 0.45, 0.89, -6208.43, 1636.61)" gradientUnits="userSpaceOnUse"><stop offset="0" stop-color="#e8af15"/><stop offset="0.04" stop-color="#d69a16"/><stop offset="0.11" stop-color="#b87817"/><stop offset="0.19" stop-color="#9e5b18"/><stop offset="0.28" stop-color="#8a4319"/><stop offset="0.39" stop-color="#7a3119"/><stop offset="0.51" stop-color="#6e241a"/><stop offset="0.66" stop-color="#681c1a"/><stop offset="1" stop-color="#661a1a"/></linearGradient><linearGradient id="linear-gradient-2" x1="-1517.77" y1="-716.13" x2="-1517.77" y2="-736.72" gradientTransform="matrix(-1, -0.06, -0.06, 1, -1428, 779.38)" xlink:href="#linear-gradient"/><linearGradient id="Degradado_sin_nombre_23" x1="152.08" y1="-383.23" x2="175.49" y2="-383.23" gradientTransform="translate(-5.07 411.81) rotate(6.87)" gradientUnits="userSpaceOnUse"><stop offset="0" stop-color="#0168cd"/><stop offset="0.99" stop-color="#023287"/></linearGradient><linearGradient id="Degradado_sin_nombre_23-2" x1="155.41" y1="-383.23" x2="172.16" y2="-383.23" xlink:href="#Degradado_sin_nombre_23"/><linearGradient id="Degradado_sin_nombre_23-3" x1="158.56" y1="-383.23" x2="169.01" y2="-383.23" xlink:href="#Degradado_sin_nombre_23"/></defs><title>i</title><path class="cls-1" d="M143.74,359a202.73,202.73,0,0,1,23.1-76.65c-4.79-16-7.65-10.07-12.55-7.92s-11.21,20.75-14.15,35.82-5.9,38.37-6.13,66.61l9.88,1.28C143.63,372.21,143.19,364.92,143.74,359Z"/><path class="cls-2" d="M166.84,282.36A202.73,202.73,0,0,0,143.74,359c-.55,5.91-.11,13.2.15,19.14l10.4-1.28s17.59-77.39,12.7-94Z"/><path class="cls-3" d="M134.71,377.65a1,1,0,0,1-1-.95,237.08,237.08,0,0,1,10.32-85c2.6-8.48,6.75-18.65,15.86-22a1,1,0,0,1,.7,1.91c-8.27,3-12.16,12.65-14.62,20.69a234.6,234.6,0,0,0-10.23,84.24,1,1,0,0,1-.95,1.08Z"/><path class="cls-3" d="M155,377.68l-.19,0a1,1,0,0,1-.81-1.18c5.6-29.88,9.5-56.91,11.92-82.64.61-6.49.9-13.23-2.77-18.07a1,1,0,0,1,1.62-1.23c4.1,5.43,3.81,12.61,3.17,19.49-2.43,25.79-6.33,52.88-11.95,82.82A1,1,0,0,1,155,377.68Z"/><path class="cls-4" d="M218.4,297.79c-.4-6.07-1.16-12.36-4.48-17.45-5-7.71-15.43-11-24.34-8.68s-16.1,9.46-19.7,17.93c-2.48,5.82-3.41,12.17-4.16,18.45a392.19,392.19,0,0,0-2.2,68.69s4.64,4,25,4,29-4,29-4C216.55,350.57,220.1,324,218.4,297.79Z"/><path class="cls-2" d="M235.88,285.94c-3.31,5.63-2.71-1.6-4,4.8-7,35.29-.52,62-.5,86h20.12s-.12-55.45-1.86-75.79a83.77,83.77,0,0,0-4.81-21.66A14.77,14.77,0,0,0,235.88,285.94Z"/><path class="cls-1" d="M170.76,252.82c-2.8,7.16-6.39,13.69-13.26,19.84,0,0-2.24,3.6-2.22,31.89s1.4,50.58,4.73,72.18h3.51a392.19,392.19,0,0,1,2.2-68.69c.75-6.28,1.68-12.63,4.16-18.45,3.6-8.47,10.79-15.63,19.7-17.93s19.32,1,24.34,8.68c3.32,5.09,4.08,11.38,4.48,17.45,1.7,26.23-1.85,52.78-.8,78.94h13.8c3.68-22.7-3.88-38.26.5-88.17.57-6.5.67,3,4-2.62a14.77,14.77,0,0,1,9-6.66c-2.47-6.9-5.3-12.67-7.23-18.35-16.54-2.51-33.55-1.17-50.21-3.15C181.72,257.1,175.62,255.69,170.76,252.82Z"/><path class="cls-2" d="M227.57,229.93c-4-4.7-12-18-29.52-12.8s-21,17.39-24.48,27.75c-.91,2.73-1.81,5.38-2.81,7.94,4.86,2.87,11,4.28,16.65,5,16.66,2,31.45,9.13,48,11.64-.39-1.16,5.35-3.58,4.49-4.41C235,260.23,231.59,234.63,227.57,229.93Z"/><path class="cls-3" d="M251.52,377.79h0a1,1,0,0,1-1-1c.43-17.53.11-32.62-.35-50.53-.5-19.26-1.65-39.57-9.62-57.42-.54-1.23-1.13-2.47-1.7-3.66-1.13-2.37-2.3-4.82-3.22-7.34a85.82,85.82,0,0,1-2.83-10.5c-1.08-4.85-2.2-9.85-4.51-14.24A28.65,28.65,0,0,0,204,218.15h-.41a28.68,28.68,0,0,0-24.3,14.12c-2.26,4-3.54,8.51-4.77,12.91-.74,2.61-1.49,5.31-2.46,7.9a50.91,50.91,0,0,1-14.46,20.83,1,1,0,0,1-1.42-.1,1,1,0,0,1,.1-1.43,49.08,49.08,0,0,0,13.88-20c.94-2.52,1.68-5.18,2.41-7.75,1.27-4.51,2.58-9.18,5-13.36a29.93,29.93,0,0,1,52.51.85c2.44,4.63,3.59,9.77,4.7,14.75a84.07,84.07,0,0,0,2.76,10.24c.89,2.44,2,4.84,3.14,7.16.57,1.21,1.17,2.46,1.73,3.71,8.11,18.2,9.28,38.73,9.79,58.2.46,17.94.78,33.06.35,50.63A1,1,0,0,1,251.52,377.79Z"/><path class="cls-3" d="M160,377.74a1,1,0,0,1-1-.84,342.15,342.15,0,0,1-3.64-89.25,1,1,0,1,1,2,.18A340.26,340.26,0,0,0,161,376.55a1,1,0,0,1-.82,1.18Z"/><path class="cls-1" d="M141.27,242c16.66,6.68,42.5,12.11,41.26,14.51S133.15,208.14,127,212.72s-1.43,7.33,30.06,23.2,67.93,3.73,89.42-20.56,20.38-70.8,22.28-84.46,3.13-11,4.58-14.28c-2.79-1.66-5.52-3.46-8.22-5.25l-9.33-6.18a41.85,41.85,0,0,0-7.82-4.41c-4.35-1.69-9.11-1.87-13.77-2L212.61,98a2.63,2.63,0,0,1-1.39-.31c-.84-.57-.74-1.85-.34-2.78,1.23-2.87,4.12-4.61,6.87-6.08s5.34-2.75,8.06-4c-3.29.6-6,1.09-7.74,1.31-6.9.89-24.72,1.66-39.33,4.24a37.45,37.45,0,0,0-22,12.24c-4.87,4.64-37.64,46.58-40.31,56.82s-9.08,33.85-9.08,33.85c-7.22-.18-6.31,8-6.31,8-.63,3.76,8.45,19.18,12.69,23C120.11,229.86,128.35,236.77,141.27,242Z"/><path class="cls-5" d="M282.91,89.28a17.59,17.59,0,0,0-5.56-4.75,4.39,4.39,0,0,0,.28,3.3c1.71,3.61,4.54,6-.15,9s-1.27,4-1.38,6.75-2.42-.11-3.25,4.79,1.95,5,.5,8.25a68.28,68.28,0,0,0,8.63,4.44C284.6,108.69,286.9,94.55,282.91,89.28Z"/><path class="cls-6" d="M210.88,94.88c-.4.93-.5,2.21.34,2.78a2.63,2.63,0,0,0,1.39.31l21.6.77c4.66.17,9.42.35,13.77,2a41.85,41.85,0,0,1,7.82,4.41l9.33,6.18c2.7,1.79,5.43,3.59,8.22,5.25,1.45-3.23-1.34-3.35-.5-8.25s3.14-2,3.25-4.79-3.3-3.73,1.38-6.75,1.86-5.39.15-9a4.39,4.39,0,0,1-.28-3.3c-6.41-3.55-14.71-3.71-20.58-4.09s-20.93,2.5-31,4.34q-4.08,1.91-8.06,4C215,90.27,212.11,92,210.88,94.88Z"/><path class="cls-2" d="M268.77,130.9c-1.9,13.66-.79,60.17-22.28,84.46s-57.93,36.43-89.42,20.56-36.2-18.62-30.06-23.2,37,8.09,42.27,7.16c2.66-.47-15.74-13.51-49.21-15.26-13.9-.73-15.33,2-14.86,6.36,8.93,21.72,28.71,28.79,50.52,36.84,33.64,12.41,85.91,14,104.47-19.29,6.78-12.16,10.78-30.12,12.64-39.27s3.74-39.95,5.46-50.9c.62-3.94,2.2-10.34,3.68-17.3a68.28,68.28,0,0,1-8.63-4.44C271.9,119.86,270.68,117.24,268.77,130.9Z"/><path class="cls-7" d="M139.78,110.75s-17.12,3.68-24.06,16.15-9.27,27.29,4.68,44.73C120.4,171.63,156.83,147.68,139.78,110.75Z"/><path class="cls-8" d="M182.57,141.29c-1.7,13.94.31,32.7,13.27,45.55s32,16.45,43,11.33S257.26,181,250,157.4,186.83,106.38,182.57,141.29Z"/><path class="cls-6" d="M178.82,145.55c-.79,7.78,7.89,16,12.92,6.71s7.2-16.79,27.2-16.83,31.81,14.85,33.09,18,2.07,12.93.75,18.29,8.46,17.71,11.43-5.52c3.24-25.44-11.56-51.26-28.22-52C200.81,112.74,181.93,114.68,178.82,145.55Z"/><path class="cls-7" d="M192.31,142c-7.23,4.29-10.3,27.53,7.89,41.75s36.14,5.44,41.61,1.43a28.94,28.94,0,0,0,10.28-30c-3.33-14.22-10.5-20.17-25.1-20.6C226.7,134.62,204,135.12,192.31,142Z"/><path class="cls-3" d="M221.77,192.81a35.66,35.66,0,0,1-22.32-8.06c-9.47-7.41-14.69-18.6-14-29.94.42-6.5,2.8-11.79,6.21-13.82h0c5-3,12.41-5.13,22.06-6.46A120.8,120.8,0,0,1,227,133.42c15.17.44,22.77,6.68,26.26,21.53a30.08,30.08,0,0,1-10.75,31.25A36.29,36.29,0,0,1,221.77,192.81Zm5.18-57a119.49,119.49,0,0,0-13,1.12c-9.11,1.27-16.36,3.38-21,6.11h0c-2.64,1.57-4.66,6.35-5,11.89-.68,10.53,4.2,20.95,13,27.87,7.58,5.93,15.88,8.38,24.68,7.3a34.71,34.71,0,0,0,15.46-5.9,27.61,27.61,0,0,0,9.82-28.73C247.69,141.77,241,136.26,227,135.85ZM192.31,142h0Z"/><path class="cls-6" d="M125.94,115.38s7.19-17.82,17.43-19.32,18.34,3.4,17.22,19-3.3,22-8.74,27-10.73,11.9-13.11,7.56c0,0,6.22-14.84,4.07-22.64S136.1,106.54,125.94,115.38Z"/><path class="cls-8" d="M114,162.57s-3.23,10.72-.67,14,14.17-9.11,15-13.63S114,162.57,114,162.57Z"/><path class="cls-3" d="M216.5,255.82c-.57,0-.91,0-1,0a1,1,0,1,1,.13-2c.11,0,12,.63,25-7.45a60.09,60.09,0,0,0,19.41-20.15c6.59-10.82,11.16-24.6,13.6-41,.81-5.44,1.07-10.34,1.34-15.53a235.5,235.5,0,0,1,5.77-42.92c7-32,4.84-35.48.16-39.31-11.47-9.7-35.61-5-50-2.19l-2.71.53c-6.95,1.33-15,1.77-22.77,2.2-8.76.48-17,.94-23,2.59-11.23,3.08-23.71,11.89-23.84,12a1,1,0,1,1-1.17-1.65c.52-.37,12.9-9.11,24.48-12.28,6.22-1.71,14.6-2.17,23.47-2.66,7.71-.43,15.69-.87,22.5-2.17l2.7-.52c14.78-2.89,39.52-7.71,51.71,2.61,5.3,4.33,7.73,8.14.53,41.3A233.46,233.46,0,0,0,277,169.8c-.28,5.24-.54,10.18-1.37,15.72-2.48,16.67-7.16,30.73-13.92,41.8a61.78,61.78,0,0,1-20.13,20.79A49.41,49.41,0,0,1,216.5,255.82Z"/><path class="cls-3" d="M151.36,143a1,1,0,0,1-.79-1.66c9.82-12,8.61-28.29,8-33s-2.77-8.48-6.07-10.47a11.54,11.54,0,0,0-10.19-.55c-8.32,3.14-16.4,20.33-16.48,20.51A1,1,0,1,1,124,117c.34-.74,8.52-18.12,17.61-21.55a13.5,13.5,0,0,1,11.94.72c3.85,2.31,6.35,6.55,7,11.94.63,4.92,1.89,21.93-8.44,34.55A1,1,0,0,1,151.36,143Z"/><path class="cls-3" d="M265.76,160.61h0a1,1,0,0,1-1-1c.15-14.56-4.19-25-15-36.17-9.54-9.84-22.69-11.3-50.25-5.61-8.72,1.8-14.7,7.22-17.78,16.1a38.89,38.89,0,0,0-2,13,1,1,0,0,1-2,.1,40,40,0,0,1,2.15-13.75c3.28-9.47,10-15.49,19.28-17.42,28.37-5.87,42-4.25,52.12,6.18,11.06,11.41,15.71,22.65,15.55,37.6A1,1,0,0,1,265.76,160.61Z"/><path class="cls-3" d="M120.4,172.64a1,1,0,0,1-.67-.25c-.21-.19-5.21-4.65-8-14.31C109,148.68,107,136.39,116,124.8c8.67-11.23,17.9-12.89,18.29-13a1,1,0,1,1,.33,2c-.08,0-8.86,1.63-17,12.18-8.41,10.88-6.52,22.54-3.94,31.49s7.35,13.3,7.4,13.35a1,1,0,0,1,.09,1.43A1,1,0,0,1,120.4,172.64Z"/><path class="cls-3" d="M108.51,194.19h0a1,1,0,0,1-1-1c.07-12.09,5.29-30.12,5.51-30.88a1,1,0,0,1,1.95.57c0,.18-5.36,18.52-5.44,30.32A1,1,0,0,1,108.51,194.19Z"/><path class="cls-3" d="M184.45,257.37a1,1,0,0,1-.24,0c-11.1-2.73-46.36-13.57-61.76-24.28a63.14,63.14,0,0,1-17.58-18.69c-4-6.67-5.72-12.71-4.5-16.16,1.75-5,5.69-7,23.28-5.07,58.65,5.8,73.17,15.87,73.76,16.3a1,1,0,1,1-1.19,1.64c-.07-.05-3.75-2.59-14.45-5.8-9.92-3-28.09-7.14-58.33-10.13-19.11-2.06-20.2,1-21.16,3.73-2,5.58,6.29,22.06,21.33,32.52,8.06,5.61,21.68,11.12,31.69,14.76,11.62,4.22,23.14,7.67,29.4,9.21a1,1,0,0,1-.25,2Z"/><path class="cls-3" d="M146,172.56s-5.7,1.87-5.26,3.72S143.85,178.85,146,172.56Z"/><path class="cls-3" d="M160,176s0,5.61,2,5.91S164.55,180.74,160,176Z"/><ellipse class="cls-7" cx="220.2" cy="160.87" rx="23.3" ry="25" transform="translate(12.29 337.34) rotate(-76.47)"/><path class="cls-3" d="M221,184.68a27.18,27.18,0,0,1-6.34-.76A26.16,26.16,0,0,1,198.82,173a22.6,22.6,0,0,1,7.85-32.61,26.71,26.71,0,0,1,34.9,8.39,22.77,22.77,0,0,1,3.32,18.05C242.31,177.54,232.25,184.68,221,184.68Zm-1.63-46.81a25,25,0,0,0-12.29,3.2,21.79,21.79,0,0,0-7.57,31.46,25.31,25.31,0,0,0,15.34,10.6c13.18,3.17,26.31-4.23,29.26-16.51a22,22,0,0,0-3.2-17.41,25.41,25.41,0,0,0-15.35-10.6A26.78,26.78,0,0,0,219.36,137.87Z"/><ellipse class="cls-9" cx="219.99" cy="161.01" rx="17.81" ry="20.13" transform="translate(41.42 366.99) rotate(-85.28)"/><path class="cls-3" d="M220.41,179.24c-.64,0-1.28,0-1.92-.08a21.83,21.83,0,0,1-14-6.49,17.14,17.14,0,0,1-4.95-13.35c.83-10,10.69-17.39,22-16.47s19.79,9.84,19,19.85h0C239.67,172.14,230.87,179.24,220.41,179.24Zm-.84-35.66c-10,0-18.5,6.79-19.24,15.8a16.35,16.35,0,0,0,4.73,12.73,21,21,0,0,0,13.49,6.24c10.84.9,20.31-6.15,21.1-15.72h0c.79-9.56-7.39-18.08-18.23-19C220.8,143.61,220.18,143.58,219.57,143.58Zm20.48,19.08Z"/><path class="cls-7" d="M124.79,168.69s-8.36-5.81-8.87-18.12,5.2-21.1,13.65-27.59c11.08-8.51,12.71-1.94,12.71-1.94S150.19,140.64,124.79,168.69Z"/><path class="cls-3" d="M124.79,169.09a.44.44,0,0,1-.24-.07,24.54,24.54,0,0,1-9-18.44c-.46-11.13,4.18-20.53,13.81-27.92,4.76-3.66,8.45-5.08,11-4.2a3.79,3.79,0,0,1,2.37,2.45c.17.42,2,5.28.79,13.49-2,14-11.09,26.52-18.37,34.56A.43.43,0,0,1,124.79,169.09ZM138.73,119c-1.75,0-4.55.93-8.91,4.28-9.54,7.32-13.95,16.24-13.49,27.25a23.91,23.91,0,0,0,8.41,17.59c7.16-8,16-20.22,17.92-33.85,1.17-8.21-.73-13-.75-13.1s0,0,0,0a3,3,0,0,0-1.87-1.92A4,4,0,0,0,138.73,119Z"/><path class="cls-3" d="M134.43,113.28a.92.92,0,0,1-.4-.08,1,1,0,0,1-.54-1.33c5.62-13.24,13.43-17.18,13.76-17.34a1,1,0,0,1,1.35.47,1,1,0,0,1-.46,1.35c-.08,0-7.49,3.83-12.78,16.31A1,1,0,0,1,134.43,113.28Z"/><path class="cls-3" d="M142.07,122.23a1,1,0,0,1-.56-.17,1,1,0,0,1-.28-1.4c8.27-12.41,18.15-12,18.57-12a1,1,0,0,1,.95,1.07,1,1,0,0,1-1.07,1c-.38,0-9.18-.32-16.76,11A1,1,0,0,1,142.07,122.23Z"/><path class="cls-3" d="M200.31,139.51h-.1a1,1,0,0,1-.91-1.1c.72-7.75-7-16.79-7-16.88a1,1,0,1,1,1.53-1.32c.34.4,8.32,9.77,7.52,18.39A1,1,0,0,1,200.31,139.51Z"/><path class="cls-3" d="M227.16,135.88a1,1,0,0,1-.93-1.43c4.39-9.69,2.48-21.12,2.46-21.23a1,1,0,0,1,2-.35c.08.49,2,12.14-2.61,22.41A1,1,0,0,1,227.16,135.88Z"/><path class="cls-3" d="M247.91,145.29a1,1,0,0,1-.59-1.84c4.88-3.44,7-6.73,7.94-8.88a8.67,8.67,0,0,0,.86-3.85,1,1,0,0,1,.9-1.11,1,1,0,0,1,1.11.88c0,.3.72,7.32-9.64,14.61A1,1,0,0,1,247.91,145.29Z"/><path class="cls-9" d="M131.85,160.83c-8.16,3.63-11.46-3.33-12.33-7.23s.34-18.3,10.36-23.61,14.54,4.37,14.54,4.37S139.56,152.34,131.85,160.83Z"/><path class="cls-3" d="M127.58,162.25a7.06,7.06,0,0,1-3.22-.75c-3.65-1.83-4.93-6.44-5.24-7.81-1-4.54.7-18.82,10.57-24.06,3.16-1.68,6.12-2.07,8.8-1.17a11.76,11.76,0,0,1,6.3,5.73.45.45,0,0,1,0,.28c0,.18-5,18.17-12.67,26.63a.5.5,0,0,1-.14.1A10.93,10.93,0,0,1,127.58,162.25Zm8-33.45a11.86,11.86,0,0,0-5.53,1.55c-10.13,5.37-10.88,19.93-10.16,23.17.29,1.28,1.48,5.58,4.81,7.26,1.93,1,4.24.87,6.89-.29,7.15-7.94,11.89-24.35,12.38-26.08a11.05,11.05,0,0,0-5.76-5.19A8.32,8.32,0,0,0,135.6,128.8Zm-3.75,32Z"/><path class="cls-3" d="M114.93,178.27a1,1,0,0,1-.77-.36,1,1,0,0,1,.11-1.43l1.29-1.1c14.41-12.3,23.92-20.42,27.28-39.94a22.49,22.49,0,0,0-9.06-22.32,1,1,0,0,1,1.09-1.71c.13.08,12.73,8.31,10,24.37-3.48,20.24-13.22,28.56-28,41.14l-1.29,1.1A1,1,0,0,1,114.93,178.27Z"/><circle class="cls-10" cx="220.15" cy="161.06" r="12.03"/><path class="cls-3" d="M220.17,174.11a13.16,13.16,0,0,1-4.06-.65,13,13,0,1,1,15.67-18.3,13,13,0,0,1-11.61,19Zm0-24.07a11,11,0,0,0-9.81,16h0a11,11,0,1,0,13.24-15.46A11.23,11.23,0,0,0,220.14,150Z"/><ellipse class="cls-11" cx="220.08" cy="160.04" rx="8.82" ry="8.74" transform="translate(-48.61 116.97) rotate(-26.92)"/><circle class="cls-12" cx="212.2" cy="158.94" r="2.55"/><path class="cls-9" d="M232.15,158.83s-12.41-2.17-23.91.6c0,0,1.74-10.87,12-10.39C220.28,149,229.17,148.62,232.15,158.83Z"/><path class="cls-3" d="M208.24,160.44a1,1,0,0,1-.69-.27,1,1,0,0,1-.31-.9c0-.12,2-11.73,13-11.25h.06c1.15,0,9.8.35,12.78,10.53a1,1,0,0,1-.22,1,1,1,0,0,1-.93.32c-.12,0-12.35-2.1-23.5.58A1,1,0,0,1,208.24,160.44ZM219.63,150a9.46,9.46,0,0,0-8.35,4.51,14.44,14.44,0,0,0-1.65,3.53,68.27,68.27,0,0,1,21-.49c-3.07-7.74-10-7.56-10.34-7.54h-.69Z"/><path class="cls-13" d="M140.15,144.21c.33-.76.68-1.51,1-2.25a10.29,10.29,0,1,0-8.58,16.93c.33-.47.67-.95,1-1.44,1.28-1.88,2.48-3.8,3.67-5.74a29.49,29.49,0,0,0,1.23-3.08C139,147.17,139.49,145.64,140.15,144.21Z"/><path class="cls-3" d="M132.61,159.9h-.08a11.31,11.31,0,0,1-6.66-19.75A11.31,11.31,0,0,1,142,141.3a1,1,0,0,1,.13,1.11c-.36.73-.7,1.47-1,2.21v0c-.51,1.11-.93,2.33-1.33,3.5-.09.28-.18.55-.28.83a30.25,30.25,0,0,1-1.27,3.17l-.06.11c-1.15,1.86-2.39,3.85-3.69,5.77-.33.49-.67,1-1,1.46A1,1,0,0,1,132.61,159.9Zm.73-20.56a9.29,9.29,0,0,0-9.25,8.71,9.32,9.32,0,0,0,8,9.77l.65-.93c1.26-1.87,2.48-3.83,3.61-5.66.4-.86.78-1.82,1.17-2.93l.27-.81c.42-1.22.85-2.48,1.4-3.69.24-.55.5-1.11.76-1.67a9.2,9.2,0,0,0-6-2.77Zm6.81,4.87Z"/><path class="cls-11" d="M134.88,155.52c.81-1.26,1.6-2.53,2.39-3.81a29.49,29.49,0,0,0,1.23-3.08c.41-1.17.8-2.38,1.27-3.55a7.14,7.14,0,1,0-6.69,10.57A7.64,7.64,0,0,0,134.88,155.52Z"/><circle class="cls-12" cx="126.42" cy="148.15" r="2.06"/><path class="cls-9" d="M141.46,141.43c-1.83-1.93-4.64-3.42-9-2.84-7.57,1-8.56,5.76-9.62,8.84a90.51,90.51,0,0,0,15.79.74C139.65,146,140.59,143.71,141.46,141.43Z"/><path class="cls-3" d="M135.08,149.26a90.17,90.17,0,0,1-12.36-.82A1,1,0,0,1,122,148a1,1,0,0,1-.09-.85c.07-.22.14-.44.22-.67,1-3.12,2.56-7.84,10.22-8.86,4-.53,7.35.53,9.84,3.16a1,1,0,0,1,.21,1.06c-.81,2.12-1.73,4.34-2.82,6.79a1,1,0,0,1-.88.6C137.46,149.24,136.24,149.26,135.08,149.26Zm-10.86-2.67a92.74,92.74,0,0,0,13.77.6c.86-2,1.62-3.77,2.29-5.5a9,9,0,0,0-7.65-2.1C126.57,140.4,125.17,143.73,124.22,146.59Z"/><circle class="cls-1" cx="242.98" cy="295.1" r="30.84"/><path class="cls-3" d="M243,327a31.86,31.86,0,1,1,31.86-31.86A31.89,31.89,0,0,1,243,327Zm0-61.69a29.83,29.83,0,1,0,29.84,29.83A29.87,29.87,0,0,0,243,265.27Z"/><path class="cls-2" d="M224,308.14c-6.62-3.29-11.61-9.14-15.69-15.3a99.36,99.36,0,0,1-14.76-36.19c-.51,3.43-.44,9.1.71,18.35,3.27,26.28,23.91,41,28.1,43.81s27.62,3.73,37.91-5.17c3.08-2.66,5.73-7.05,6.72-14.16-1.1.88-2.23,1.71-3.38,2.5C252,309.87,236.56,314.37,224,308.14Z"/><path class="cls-1" d="M266.5,248.75c.43-12.92-2.16-28.07-11.42-31.84s-9.34,9.57-9.34,9.57-2.54-17.88-12.29-17.57-9.06,22.33-9.06,22.33-5.78-20.91-13.8-13.1-1.62,45.7-1.62,45.7-7.18-10.8-9.85-11.67c-1.72-.56-4.62-1.84-5.56,4.48a99.36,99.36,0,0,0,14.76,36.19c4.08,6.16,9.07,12,15.69,15.3,12.55,6.23,28,1.73,39.61-6.16,1.15-.79,2.28-1.62,3.38-2.5C267,282.42,266.19,257.75,266.5,248.75Zm-23.84,16.31-18.36.63c-7.69.27-8.31.4-5.75-6.7,3.14-8.72,5.43-20.7,4.5-30,.81,8,2.07,16.29,6.34,23.14,1.61,2.58,3.77,5,6.65,6s6.58-.08,7.82-2.86a9.81,9.81,0,0,0,.62-3.41q.89-13.78,1.78-27.59,4.25,20.88,9.9,41.44C251.73,264.75,247.17,264.9,242.66,265.06Z"/><path class="cls-2" d="M244.48,251.82a9.81,9.81,0,0,1-.62,3.41c-1.24,2.78-4.93,3.81-7.82,2.86s-5-3.38-6.65-6c-4.27-6.85-5.53-15.11-6.34-23.14.93,9.3-1.36,21.28-4.5,30-2.56,7.1-1.94,7,5.75,6.7l18.36-.63c4.51-.16,9.07-.31,13.5.61q-5.66-20.55-9.9-41.44Q245.38,238,244.48,251.82Z"/><path class="cls-3" d="M233.69,321.51A32.11,32.11,0,0,1,222,319.75a24.7,24.7,0,0,1-8.4-6.08,76.08,76.08,0,0,1-17.23-27.1,68.13,68.13,0,0,1-3.79-30.77,5.88,5.88,0,0,1,.72-2.53c1.19-2,3.94-2.54,6-2.09a9.91,9.91,0,0,1,5.07,3.14c3.75,4,5.21,9.22,6.63,14.25,1.75,6.18,3.39,12,9,15.26a30.82,30.82,0,0,0,7.8,2.73,33.64,33.64,0,0,1,8.08,2.8,1,1,0,0,1-1,1.78,31.52,31.52,0,0,0-7.6-2.62,32.6,32.6,0,0,1-8.31-2.93c-6.34-3.66-8.17-10.17-9.95-16.47-1.35-4.8-2.75-9.77-6.16-13.42a7.82,7.82,0,0,0-4-2.54c-1.58-.33-3.28.17-3.88,1.16a4.2,4.2,0,0,0-.44,1.7,66.11,66.11,0,0,0,3.69,29.86,73.66,73.66,0,0,0,16.77,26.37,22.82,22.82,0,0,0,7.69,5.62c7.87,3.1,21.57.94,26.08.23a1,1,0,1,1,.31,2A101,101,0,0,1,233.69,321.51Z"/><path class="cls-3" d="M210,270.57a1,1,0,0,1-1-.81,149.63,149.63,0,0,1-2.28-44.42c.26-2.55.66-5.21,2.55-7.34s6-3.51,9-2a7.61,7.61,0,0,1,3.07,3.31c4.73,8.47,5,17.85,5.21,26.92.16,6.09.32,12.38,1.85,18.31a1,1,0,1,1-2,.51c-1.59-6.15-1.75-12.57-1.92-18.77-.24-9.23-.46-17.95-5-26a5.67,5.67,0,0,0-2.23-2.5c-2.1-1.09-5.13-.07-6.54,1.52s-1.81,3.88-2,6.19A147.29,147.29,0,0,0,211,269.36a1,1,0,0,1-.8,1.19A.65.65,0,0,1,210,270.57Z"/><path class="cls-3" d="M247.69,264.85a1,1,0,0,1-1-.7c-2.56-7.78-2.45-16-2.34-23.92.1-7.53.2-15.32-2-22.6a13.17,13.17,0,0,0-2.92-5.52,7.28,7.28,0,0,0-5.87-2.2c-4.15.56-5.75,5.11-6.33,7.77-.8,3.64-1.27,14.78-1.16,18.5a1,1,0,1,1-2,.07c-.12-3.91.36-15.16,1.2-19,1.19-5.4,4.12-8.81,8-9.33a9.18,9.18,0,0,1,7.58,2.78,15.19,15.19,0,0,1,3.42,6.35c2.31,7.58,2.21,15.53,2.1,23.21s-.21,15.81,2.24,23.27a1,1,0,0,1-.64,1.28A.93.93,0,0,1,247.69,264.85Z"/><path class="cls-3" d="M247.74,320.33a1,1,0,0,1-.1-2,20,20,0,0,0,12.72-6.2c4.86-5.47,5.19-12.69,5.11-20.86l-.37-38.37c-.09-9.52-.19-19.36-4.08-28.39-1.47-3.4-5.49-8.22-10-6.72-2.74.91-4.08,3.69-4.23,8.75a1,1,0,0,1-2-.06c.07-2.19.26-8.83,5.62-10.61,5.2-1.72,10.33,2.75,12.53,7.84,4.06,9.4,4.16,19.9,4.25,29.17l.37,38.37c.06,6.63.15,15.72-5.62,22.22a21.75,21.75,0,0,1-14,6.88Z"/><path class="cls-3" d="M256.49,267.89a1.26,1.26,0,0,1-.33-.05c-12.15-4.16-25.66-2.26-37.58-.57a1,1,0,1,1-.28-2c12.14-1.71,25.91-3.65,38.52.66a1,1,0,0,1-.33,2Z"/><path class="cls-14" d="M275.64,104.94c4.73-5.66,8.88-12,10.51-19.22.2-.88.35-1.78.47-2.68C268.28,68.28,249,54.69,231.68,38.73c-5-4.61-9.83-9.44-15.56-13.08s-12.53-6-19.27-5.19a14.88,14.88,0,0,0-7.72,3.09c-4.46,3.7-5.42,10.12-5.52,15.92a116.86,116.86,0,0,0,3.75,32.19c2.41,8.7,10.66,8.23,18.23,11.17a310.29,310.29,0,0,1,49.57,24.51,119.8,119.8,0,0,1,10,7.25A45.3,45.3,0,0,0,275.64,104.94Z"/><path class="cls-15" d="M297.39,93.23a23.16,23.16,0,0,0-5.71-6.06c-1.67-1.39-3.37-2.76-5.06-4.13-.12.9-.27,1.8-.47,2.68-1.63,7.18-5.78,13.56-10.51,19.22a45.3,45.3,0,0,1-10.53,9.65c4.29,3.31,8.67,6.55,13,8.23,5.7,2.19,8.12-2.7,12-6.33A29.88,29.88,0,0,0,297.81,106C299.41,101.87,299.55,97.05,297.39,93.23Z"/><path class="cls-16" d="M269.31,117.88a116.76,116.76,0,0,0-14.14-5.74c-37.06-10.91-76-13.38-113.86-21.26-2.47-.51-5.55-1.81-5.39-4.33a212.41,212.41,0,0,1,55.32-9.13S258.06,101.49,269.31,117.88Z"/><path class="cls-17" d="M280.82,124.38a8.5,8.5,0,0,1-3.06-.62c-4.93-1.9-9.84-5.7-14.58-9.38a98.62,98.62,0,0,0-8.55-6.18,310.38,310.38,0,0,0-49.41-24.43A56.46,56.46,0,0,0,199.61,82c-5.79-1.56-11.27-3-13.23-10.11a118.23,118.23,0,0,1-3.78-32.48c.08-5.13.78-12.45,5.88-16.68a15.94,15.94,0,0,1,8.25-3.32c7.94-1,15.23,2.35,19.93,5.35,5,3.15,9.3,7.2,13.5,11.13l2.21,2c11.57,10.69,24.28,20.48,36.57,30,7.74,6,15.74,12.12,23.39,18.46a23.8,23.8,0,0,1,5.94,6.34c2.15,3.8,2.33,8.88.48,13.6-1.44,3.68-4,7.15-7.95,10.9-.78.73-1.52,1.54-2.22,2.31C286.4,121.93,284.16,124.38,280.82,124.38ZM199.64,21.3a21.82,21.82,0,0,0-2.66.16,13.92,13.92,0,0,0-7.2,2.87c-4.46,3.7-5.08,10.42-5.15,15.15h0a116,116,0,0,0,3.7,31.91c1.66,6,6.36,7.23,11.81,8.7A56.65,56.65,0,0,1,206,81.88a313.65,313.65,0,0,1,49.74,24.59,100.91,100.91,0,0,1,8.73,6.31c4.63,3.59,9.42,7.3,14.07,9.09,3.86,1.49,5.84-.68,8.59-3.69.73-.81,1.49-1.64,2.33-2.43,3.76-3.54,6.13-6.77,7.46-10.16,1.62-4.15,1.49-8.59-.36-11.86A22.26,22.26,0,0,0,291,88c-7.63-6.31-15.61-12.47-23.33-18.42C255.38,60,242.63,50.22,231,39.47l-2.22-2.06c-4.13-3.86-8.41-7.85-13.2-10.9C211.69,24,206,21.3,199.64,21.3Zm-16,18.17h0Z"/><path class="cls-18" d="M269.31,118.9a1,1,0,0,1-.54-.16c-4.36-2.7-9.45-4.32-13.88-5.63-22.55-6.64-46.25-10.21-69.16-13.66-14.68-2.21-29.86-4.5-44.62-7.58-4.11-.85-6.36-2.81-6.2-5.38a1,1,0,0,1,.72-.9,212.59,212.59,0,0,1,55.58-9.18,1,1,0,0,1,1,1,1,1,0,0,1-1,1A210.61,210.61,0,0,0,137,87.28c.58,1.71,3.79,2.46,4.5,2.61C156.23,93,171.38,95.24,186,97.44c23,3.47,46.75,7,69.43,13.73,4.56,1.34,9.8,3,14.38,5.85a1,1,0,0,1-.53,1.88Z"/><path class="cls-17" d="M261.25,113.05a1,1,0,0,1-.85-.45,1,1,0,0,1,.29-1.41c6.58-4.36,11.27-8.49,14.77-13,4.3-5.55,6.75-11.88,6.89-17.84a1,1,0,0,1,1-1,1,1,0,0,1,1,1c-.15,6.39-2.75,13.15-7.32,19-3.64,4.69-8.49,9-15.25,13.45A1,1,0,0,1,261.25,113.05Z"/><ellipse class="cls-19" cx="203.38" cy="50.92" rx="12.83" ry="17.23"/><path class="cls-20" d="M205.84,37.15a9.49,9.49,0,0,1,3.8,2.37,13.34,13.34,0,0,1,2.73,4,17.14,17.14,0,0,1,1.42,5.09,18.59,18.59,0,0,1-.16,5.62,16.47,16.47,0,0,1-1.76,5.1,12.66,12.66,0,0,1-3,3.67,9.11,9.11,0,0,1-3.79,1.9,7.86,7.86,0,0,1-4.19-.21,9.55,9.55,0,0,1-3.8-2.37,13.34,13.34,0,0,1-2.73-4A17.45,17.45,0,0,1,193,53.23a18.92,18.92,0,0,1,.16-5.62,16.48,16.48,0,0,1,1.77-5.1,12.5,12.5,0,0,1,3-3.67,9.05,9.05,0,0,1,3.79-1.9,7.83,7.83,0,0,1,4.18.21m.26-1.42c-6.25-2-12.53,3.15-14,11.54s2.35,16.83,8.6,18.85,12.53-3.15,14-11.54-2.34-16.83-8.59-18.85Z"/><path class="cls-21" d="M205.07,41.47a7.71,7.71,0,0,1,4.48,4.38,12.55,12.55,0,0,1,.87,7.35,9.94,9.94,0,0,1-3.26,6,5.66,5.66,0,0,1-5.48,1.16A7.71,7.71,0,0,1,197.2,56a12.55,12.55,0,0,1-.87-7.35,10,10,0,0,1,3.26-6,5.66,5.66,0,0,1,5.48-1.16m.26-1.42c-4.48-1.45-9,2.25-10.05,8.26s1.68,12,6.15,13.49,9-2.25,10-8.26-1.68-12-6.15-13.49Z"/><path class="cls-22" d="M204.34,45.56a4.42,4.42,0,0,1,2.54,2.49,7.16,7.16,0,0,1,.49,4.16,5.65,5.65,0,0,1-1.85,3.42,3.22,3.22,0,0,1-3.1.66,4.39,4.39,0,0,1-2.54-2.49,7,7,0,0,1-.49-4.16,5.64,5.64,0,0,1,1.84-3.42,3.23,3.23,0,0,1,3.11-.66m.25-1.41c-2.79-.91-5.59,1.4-6.26,5.14s1,7.51,3.83,8.41,5.59-1.4,6.26-5.14-1-7.51-3.83-8.41Z"/><path class="cls-12" d="M199.53,58.74l.09-.28c.32-1.15.64-2.31,1-3.46L202,50.14c.42-1.51.85-3,1.27-4.55.36-1.26.71-2.53,1.07-3.79.19-.67.52-1,.95-1s.91.57.9,1.34,0,1.7-.07,2.55c-.07,3-.15,5.93-.22,8.89a.58.58,0,0,0,0,.28l.42-.83L208,49.92c.36-.72.86-1.08,1.52-.92a1.82,1.82,0,0,1,1.12,1.61c.13.82.29,1.64.42,2.46a1,1,0,0,0,.73.93c.79.2,1.56.46,2.34.7a.85.85,0,0,1,.43,1.12c-.11.32-.35.51-.61.43-1-.33-2.08-.67-3.11-1-.32-.1-.49-.42-.62-.8a15.12,15.12,0,0,1-.66-3.1c0-.13,0-.26,0-.38a.86.86,0,0,0-.21-.39c-.13-.09-.25,0-.33.2s-.26.49-.38.74c-.65,1.27-1.28,2.54-1.93,3.8a.94.94,0,0,1-1.19.57,1.52,1.52,0,0,1-.74-1.45c0-.71,0-1.42.06-2.14q.07-3.18.17-6.36c0-.62,0-1.23,0-1.86-.1.35-.19.7-.29,1l-2.25,8-1.05,3.8c-.23.8-.46,1.6-.7,2.4s-.74,1.19-1.31,1.09a1.48,1.48,0,0,1-1-1.64c.06-1.87.13-3.74.19-5.61,0-1.5.07-3,.12-4.5,0-.44,0-.87,0-1.31a1.52,1.52,0,0,0,0-.24c-.14.21-.26.38-.37.56L196.62,50a.78.78,0,0,1-1,.37c-.8-.29-1.61-.54-2.41-.8-.31-.09-.62-.15-.92-.24a.79.79,0,0,1-.49-1c.09-.49.38-.73.76-.6l2.24.73a7.47,7.47,0,0,0,1,.23c.06,0,.16-.05.21-.12.58-.82,1.15-1.66,1.74-2.47a3.09,3.09,0,0,1,.67-.68c.41-.27.85,0,1.12.44a3.33,3.33,0,0,1,.31,1.66c-.05,1.67-.11,3.34-.17,5,0,.73,0,1.47,0,2.21-.05,1.25-.1,2.51-.14,3.76a1.92,1.92,0,0,0,0,.24Z"/></svg>