<svg xmlns="http://www.w3.org/2000/svg" viewBox="0 0 400 400"><defs><style>.cls-1{fill:#84e147;}.cls-2{fill:#64a835;}.cls-3{fill:#feec30;}.cls-4{fill:#175807;}.cls-5{fill:#05fadb;}.cls-6{fill:#05baa0;}.cls-7{fill:#730e00;}.cls-8{fill:#eae8e9;}.cls-9{fill:#4b0d00;}.cls-10{fill:#918f8f;}.cls-11{fill:#fff2e6;}.cls-12{fill:#666;}.cls-13{fill:#ffe5cf;}.cls-14{fill:none;}.cls-15{fill:#fff;}.cls-16{fill:#2a6cff;}</style></defs><title>i</title><g id="Capa_4" data-name="Capa 4"><path class="cls-1" d="M270.16,237.31c-10.11-10.92-29.1-6.1-35.66-18.64-.15-2.57-.38-5-.67-7.27-18.77,9.64-41.12,11.2-61.4,17.86a123.62,123.62,0,0,0-34.61,17.85c-5.11,3.77-10.12,8.17-12.49,14.07-2.47,6.11-1.78,13-2,19.55,0,1.49-.12,3-.25,4.48H290.41S280.27,248.24,270.16,237.31Z"/><path class="cls-2" d="M125.33,261.18c2.37-5.9,7.38-10.3,12.49-14.07a123.62,123.62,0,0,1,34.61-17.85c20.28-6.66,42.63-8.22,61.4-17.86-3.17-24.56-14.77-32.88-33.59-32.58-20.57.32-28.61,13.5-29.89,24.1s-.65,13.18-7.07,20.57-28.61,8.36-38.9,15.43S105,285.21,105,285.21h18.09c.13-1.49.21-3,.25-4.48C123.55,274.14,122.86,267.29,125.33,261.18Z"/><path class="cls-3" d="M160.47,285.21c.85-8.72,1.9-19.59,4.94-27.81s8.29-15.89,15.86-20.29a45.42,45.42,0,0,1,31.73-3.7c9.3,2.84,16.65,10.37,21.09,19s6.25,23.1,7.31,32.77Z"/><path class="cls-4" d="M290.41,286.24H105a1.07,1.07,0,0,1-.81-.39A1,1,0,0,1,104,285c.37-1.62,9.26-39.69,19.76-46.91,4.94-3.39,12.42-5.39,19.65-7.32,8.14-2.17,15.83-4.22,19.05-7.93,5.31-6.11,5.58-8.6,6.37-16,.13-1.19.27-2.54.45-4a27.91,27.91,0,0,1,8-16.52c5.58-5.49,13.28-8.34,22.88-8.49,11.14-.18,19.31,2.7,25,8.8,6.07,6.54,9.45,16.94,10.33,31.8,3.32,6.1,10,7.77,17.07,9.54,6.59,1.65,13.4,3.35,18.34,8.69,4.29,4.63,9,14.18,14.13,28.39,3.76,10.52,6.33,19.83,6.35,19.92a1,1,0,0,1-1,1.31Zm-184.06-2.06h182.7c-1.91-6.64-10.88-36.69-19.64-46.17-4.52-4.88-11-6.51-17.33-8.08-7.27-1.82-14.79-3.7-18.5-10.78a1.19,1.19,0,0,1-.11-.42c-1.59-27.59-11.52-39.24-33.22-38.89-19.26.31-27.55,12.19-28.88,23.21-.18,1.48-.33,2.82-.45,4-.8,7.44-1.13,10.52-6.86,17.12-3.64,4.18-11.62,6.31-20.08,8.57-7.06,1.89-14.37,3.83-19,7C116.14,245.84,108,277.44,106.35,284.18Z"/><path class="cls-5" d="M191.24,34.46c-4.45,6.66-3.44,7.31,0,10.37s-1.65,6.81-1.29,10.79,2.7,1.51,3.73,6.12-2,12.57-2,12.57c4.09,1.48,8.27-1.81,11.2-5,6.83-7.54,12.61-16.27,20-23.18-11.82-7.44-20.49-18.62-31.1-18.86A7,7,0,0,1,191.24,34.46Z"/><path class="cls-6" d="M163.6,53.55c9.54,2.61,17,10,23.64,17.25a12,12,0,0,0,4.44,3.51s3-8,2-12.57-3.37-2.13-3.73-6.12,4.73-7.74,1.29-10.79-4.45-3.71,0-10.37a7,7,0,0,0,.49-7.23,17.17,17.17,0,0,0-8.56,2.18c-11.75,6.2-20.73,22.8-23.52,24l.45.61C160.88,53.07,162.39,53.23,163.6,53.55Z"/><path class="cls-2" d="M150.15,77c2.93-11.42,17-19.2,25.2-12.57a65.19,65.19,0,0,0,16.33,9.85,12,12,0,0,1-4.44-3.51c-6.69-7.29-14.1-14.64-23.64-17.25-1.21-.32-2.72-.48-3.5.49l-.45-.61-.09,0c-2.68.89-12.83,5.9-18.42,12.63S131.19,78,131.19,78l9.18-2.67A29.56,29.56,0,0,1,150.15,77Z"/><path class="cls-2" d="M288.39,121c1.12-3.63-.09-11.29-1.27-19.26-1.66.66-3.88-.48-5.38-2.51-3-4.09-4-10-18.89-10.82s-29.72,13.14-35.23,19.34c-2.7,3-4.94,6.73-7,9.22a29.35,29.35,0,0,0-.3,4c19.45,41.15,57.12,13.3,57.12,13.3-.3,10.16,3.81,19.77,2.64,33S256.92,200.87,233,206.71,172.42,206,161.27,201s-37-19.74-39.86-29.26,3.49-23.68,3.49-23.68c50.16,13.94,53.33-26.16,53.33-26.16l-2.47-8.12C165.51,103.34,141,97.34,136.07,97.14c-6.3-.26-16.4,3.09-18.12,13.56-.51,3.08-4-.48-6.1-1.42.22,6.82-.14,18.32.58,26.47,1.28,14.58-5.83,9.57-8.19,16.61-4.36,13,10.78,31.52,18.68,39.42s22.87,23,61.41,27.27,67.29-5.88,83.43-15.49,37.46-42.05,32.09-59.16c-2.31-2.92-4.06-4.43-11.17-4.1C288.43,134,286.64,126.68,288.39,121Z"/><path class="cls-5" d="M188.8,117.77c-2-5.57-17.8-33.57-38.65-40.74a29.56,29.56,0,0,0-9.78-1.67L131.19,78s-11.76,3-15.79,13c-2.24,5.61-3.2,13-2.93,21.63,2.07.94,4.68,1,5.48-2,2.54-9.65,11.82-13.82,18.12-13.56,4.88.2,23.58,3.48,35.77,15,2.7,2.55,5.82,3.25,7,4.22C184.15,120.62,191.15,124.18,188.8,117.77Z"/><path class="cls-1" d="M150.15,77C171,84.2,186.76,112.2,188.8,117.77c2.35,6.41-4.65,2.85-9.94-1.4-1.2-1-.09-1.71-3.36-3.46l2.73,9s-3.17,40.1-53.33,26.16c0,0-6.34,14.16-3.49,23.68S150.13,196,161.27,201s49.86,11.08,73.77,5.25,55.09-35,57.8-48.05c3.22-15.56-10.19-9.42-9.69-15.56.38-4.81-.17-9.31-5.71-8.35,0,0-37.67,27.85-57.12-13.3a29.35,29.35,0,0,1,.3-4c-2.16,2.6-4.12,3.87-6.19,1.63-4-4.38,1.87-16.23,10.83-30.17s32.43-20.19,32.43-20.19S249,57.72,229.93,49.81a47.35,47.35,0,0,1-7.1-3.72c-7.34,6.91-13.12,15.64-20,23.18-2.93,3.23-7.11,6.52-11.2,5a65.19,65.19,0,0,1-16.33-9.85C167.19,57.83,153.08,65.61,150.15,77Z"/><path class="cls-5" d="M280.89,82.11c-2.62-4.68-6.08-8.55-10.53-10.72,0,0-10.42-2.45-12.67-3.16,0,0-23.46,6.26-32.43,20.19s-14.86,25.79-10.83,30.17c2.07,2.24,4,1,6.19-1.63s4.3-6.19,7-9.22c5.51-6.2,20.34-20.16,35.23-19.34s15.86,6.73,18.89,10.82c1.5,2,3.72,3.17,5.38,2.51A58.94,58.94,0,0,0,280.89,82.11Z"/><path class="cls-1" d="M136.12,103.27c-7.61,3.35-10.88,11-6.36,20.64S150,139,160.68,135.12s9.2-16.15,8.58-19.64S153.11,95.79,136.12,103.27Z"/><path class="cls-1" d="M261.31,97.17c-9.54,0-22.2,3.11-24.67,15.3s3.54,19.36,14.76,20.74,18-4.46,21.42-11.91S276.13,97.15,261.31,97.17Z"/><path class="cls-4" d="M189,220.8a.92.92,0,0,1-.4-.08c-.27-.07-1.37-.21-2.52-.37a166.16,166.16,0,0,1-28.78-6.09c-15.34-4.88-26.87-11.82-34.26-20.64-15-17.86-22.3-34.24-19.12-42.75,1.18-3.15,3.75-5.22,7.48-6,0-3.7-.33-7.56-.64-11.63-.91-12.19-2-26,3.65-40.42A26.24,26.24,0,0,1,131.22,77c9.27-3,19.25-1.32,24.32,1.92l2.19,1.38c9.79,6.11,26.17,16.34,32.3,38.08a1,1,0,0,1-.71,1.27,1,1,0,0,1-1.27-.71c-5.92-21-21.87-30.94-31.41-36.9-.78-.49-1.52-.95-2.2-1.39-4.67-3-13.92-4.52-22.58-1.69a24.26,24.26,0,0,0-15.5,14.63c-5.43,14-4.41,27.54-3.5,39.52.33,4.42.64,8.6.64,12.63a1,1,0,0,1-.87,1c-3.47.55-5.74,2.19-6.74,4.88-2.88,7.7,4.49,23.68,18.77,40.71,11.17,13.32,31.94,22.07,61.73,26a12.46,12.46,0,0,1,3.12.55,1,1,0,0,1-.47,1.94Zm-.48-.11.06,0Z"/><path class="cls-4" d="M235,217.74a1,1,0,0,1-.26-2c18.95-5,35.32-15,47.32-28.78,9.91-11.44,13.95-22.08,14.66-25.22.1-.41.2-.84.3-1.3,1.24-5.26,3.3-14.06-.11-17.28-1.65-1.56-4.58-1.73-8.72-.51a1,1,0,0,1-.93-.18,1,1,0,0,1-.39-.87c.1-1.58.2-3.22.32-4.89.87-13.1,1.86-27.95-2-41.34-3.73-13-10.76-22-19.29-24.77-8.29-2.69-17.92.18-28.62,8.54-7.56,5.91-17.44,15.41-21.49,27.14-2.41,7-1.6,11.51-1.59,11.55a1,1,0,0,1-.82,1.21,1,1,0,0,1-1.2-.81c0-.2-.93-5,1.61-12.45C218,93.47,228.24,83.6,236.08,77.48c11.27-8.8,21.53-11.78,30.52-8.87,9.19,3,16.71,12.52,20.63,26.16s2.89,29.43,2,42c-.08,1.18-.15,2.33-.23,3.46,4.19-1,7.31-.53,9.31,1.36,4.28,4,2.13,13.19.71,19.25q-.17.68-.3,1.29c0,.12-2.83,11.94-15.12,26.1s-29,24.33-48.34,29.43A.84.84,0,0,1,235,217.74Z"/><path class="cls-4" d="M132.74,78.31a1,1,0,0,1-.47-.12,1,1,0,0,1-.44-1.39,59.62,59.62,0,0,1,24.59-23.33c4.22-2.12,9-7.5,13.66-12.7C176.72,33.33,183,26.31,189,26.17h.43c10.24,0,19.15,8.09,25.69,14,2.5,2.27,7.71,4.71,13.73,7.54,10.61,5,23.81,11.16,30.91,20.4a1,1,0,1,1-1.63,1.26c-6.79-8.85-19.75-14.92-30.15-19.8-6.18-2.89-11.51-5.39-14.25-7.88-6.72-6.1-15.1-13.7-24.68-13.49-5.12.11-11.39,7.13-17.44,13.91-4.77,5.35-9.71,10.88-14.28,13.17a58.65,58.65,0,0,0-23.68,22.44A1,1,0,0,1,132.74,78.31Z"/><path class="cls-4" d="M192.83,136.53s-7.09,3.4-5.53,6.33S191.9,143.29,192.83,136.53Z"/><path class="cls-4" d="M214,135.12s.77,5.87,3.83,6.45S222.57,138.64,214,135.12Z"/><path class="cls-4" d="M146.23,145.43a33.1,33.1,0,0,1-4.78-.34c-11.78-1.72-20.42-10.94-23.72-25.28-1.56-6.81-.86-12.27,2.1-16.22,3.31-4.42,9.42-6.93,18.19-7.45,14.87-.89,40.39,18.61,41.47,19.44a1,1,0,1,1-1.26,1.63l-.52-.39a23.47,23.47,0,0,1-7.14,18.89A35.07,35.07,0,0,1,146.23,145.43ZM139,98.17l-.9,0c-8.13.49-13.74,2.72-16.67,6.64-2.57,3.44-3.16,8.32-1.73,14.52,3.09,13.47,11.12,22.11,22,23.7,9.84,1.45,20.58-2,27.37-8.79a21.33,21.33,0,0,0,6.39-18.63.94.94,0,0,1,0-.41C168.7,110.35,150.52,98.17,139,98.17Z"/><path class="cls-4" d="M126.26,100.27a1,1,0,0,1-.66-.23,19.81,19.81,0,0,1-7-14.08,1,1,0,0,1,1-1h0a1,1,0,0,1,1,1,18.06,18.06,0,0,0,6.29,12.52,1,1,0,0,1,.14,1.45A1,1,0,0,1,126.26,100.27Z"/><path class="cls-4" d="M139.89,96.84a1,1,0,0,1-.89-.51c-2-3.4-2.76-7.84-2.28-13.22a36.4,36.4,0,0,1,1.3-7,1,1,0,1,1,2,.61c0,.11-3.45,11.35.8,18.59a1,1,0,0,1-.37,1.41A1.07,1.07,0,0,1,139.89,96.84Z"/><path class="cls-4" d="M164.8,108a1,1,0,0,1-1-.74c-1.07-3.68-.6-8,1.35-12.59a29.22,29.22,0,0,1,3.28-5.79,1,1,0,0,1,1.44-.2,1,1,0,0,1,.2,1.45c-.07.08-6.56,8.74-4.3,16.56a1,1,0,0,1-.7,1.27A.9.9,0,0,1,164.8,108Z"/><path class="cls-4" d="M254.07,141.33c-10.16,0-17.73-2.82-22.5-8.37-4.38-5.09-6.2-12.3-5.43-21.47-1.86,2.63-2.87,4.43-2.9,4.49a1,1,0,1,1-1.8-1A67.45,67.45,0,0,1,230,103.37c5-5.56,13.21-12.66,23.48-14.9,10-2.18,18.21-1,23.82,3.37,4.42,3.44,7,8.79,7.15,15.07.22,7.17-2.18,18.3-9.69,26C269.35,138.51,262.4,141.33,254.07,141.33Zm-25.48-33.11c-1.51,10.27,0,18.14,4.54,23.4,4.36,5.08,11.41,7.65,20.94,7.65,7.75,0,14.21-2.61,19.19-7.75,7.06-7.28,9.32-17.78,9.11-24.55-.17-5.65-2.43-10.45-6.35-13.51-5.12-4-12.77-5-22.13-3C242.6,92.94,233.81,101.66,228.59,108.22Z"/><path class="cls-4" d="M241.05,95.88a.75.75,0,0,1-.21,0,1,1,0,0,1-.8-1.21c.75-3.67-2.28-7.12-3.62-8.44-1.61-1.57-3-2.26-4.29-2.07a1,1,0,0,1-1.17-.85,1,1,0,0,1,.85-1.18c1.92-.3,3.95.58,6.05,2.63s5.12,5.83,4.19,10.32A1,1,0,0,1,241.05,95.88Z"/><path class="cls-4" d="M260.85,88.69a1.15,1.15,0,0,1-.36-.07,1,1,0,0,1-.6-1.33,7.79,7.79,0,0,0,.38-2.59,23.27,23.27,0,0,0-2-9.77c-.81-1.85-2.24-4.13-4.42-4.53a1,1,0,0,1,.38-2c2.42.45,4.47,2.43,5.92,5.72a25.34,25.34,0,0,1,2.15,10.65,9.63,9.63,0,0,1-.51,3.28A1,1,0,0,1,260.85,88.69Z"/><path class="cls-4" d="M272.82,89.53a1,1,0,0,1-.57-.18,1,1,0,0,1-.28-1.43,19.68,19.68,0,0,0,3-7.35,5.77,5.77,0,0,0-.26-3.86,1,1,0,0,1,1.81-1A7.94,7.94,0,0,1,277,81a21.53,21.53,0,0,1-3.33,8.12A1,1,0,0,1,272.82,89.53Z"/><path class="cls-4" d="M148.87,140c-12.48,0-22.63-8.67-22.63-19.33s10.15-19.33,22.63-19.33,22.64,8.68,22.64,19.33S161.36,140,148.87,140Zm0-37.83c-12,0-21.81,8.3-21.81,18.5s9.79,18.51,21.81,18.51,21.82-8.3,21.82-18.51S160.9,102.15,148.87,102.15Z"/><path class="cls-4" d="M254.07,135.53c-12.48,0-22.64-9.73-22.64-21.68s10.16-21.69,22.64-21.69,22.63,9.73,22.63,21.69S266.55,135.53,254.07,135.53Zm0-42.55c-12,0-21.81,9.36-21.81,20.87s9.78,20.86,21.81,20.86,21.81-9.36,21.81-20.86S266.1,93,254.07,93Z"/><path class="cls-4" d="M252.64,130.94a16.42,16.42,0,1,1,16.42-16.42A16.44,16.44,0,0,1,252.64,130.94Zm0-32a15.59,15.59,0,1,0,15.59,15.58A15.6,15.6,0,0,0,252.64,98.94Z"/><path class="cls-4" d="M149.83,136.19c-9.05,0-16.41-6.9-16.41-15.38s7.36-15.39,16.41-15.39,16.41,6.9,16.41,15.39S158.88,136.19,149.83,136.19Zm0-29.95c-8.6,0-15.59,6.54-15.59,14.57s7,14.56,15.59,14.56,15.59-6.54,15.59-14.56S158.42,106.24,149.83,106.24Z"/><path class="cls-4" d="M149.83,133.49A12.48,12.48,0,1,1,162.3,121,12.49,12.49,0,0,1,149.83,133.49Zm0-22.89A10.42,10.42,0,1,0,160.24,121,10.43,10.43,0,0,0,149.83,110.6Z"/><path class="cls-4" d="M251.4,127.19a12.48,12.48,0,1,1,12.48-12.48A12.49,12.49,0,0,1,251.4,127.19Zm0-22.89a10.42,10.42,0,1,0,10.42,10.41A10.42,10.42,0,0,0,251.4,104.3Z"/><path class="cls-4" d="M138.38,123.76a1,1,0,0,1-.57-1.88c.4-.28,10-6.59,23.8-1.84a1,1,0,0,1,.64,1.31,1,1,0,0,1-1.31.64,27.92,27.92,0,0,0-15.83-.88,21.2,21.2,0,0,0-6.15,2.47A1,1,0,0,1,138.38,123.76Z"/><path class="cls-4" d="M240,117.1a1,1,0,0,1-.58-1.88c.4-.28,10-6.59,23.8-1.83a1,1,0,1,1-.67,1.94,27.92,27.92,0,0,0-15.83-.88,21.2,21.2,0,0,0-6.15,2.47A1,1,0,0,1,240,117.1Z"/><path class="cls-7" d="M120.67,154.78s15.72,4.7,49,1.47,48.28-4.11,77-1.47S286,151.26,286,151.26s-27.86,49.92-78.91,51.34C149,204.21,120.67,154.78,120.67,154.78Z"/><path class="cls-8" d="M144.54,156.89s-.63,6.25,2.82,14.86c1.49,3.73-1.4,4,2.33,13.4,0,0,38.84,30.69,79.33,13.71,0,0,20.92-7.75,27-14.23a38,38,0,0,0,2.39-6,23.87,23.87,0,0,0-.1-7.14s1.25-2.9,2.8-7.9a14.5,14.5,0,0,0,0-8.14s-43.63-2.34-49.47-2.16-53.4,3.82-53.4,3.82Z"/><path class="cls-9" d="M261.29,156.13a37.28,37.28,0,0,1-3,15.35A26.64,26.64,0,0,1,256,184.63s12.39-9.49,19.15-18.25S286,151.26,286,151.26s-15.25,4.69-24.93,4.18"/><path class="cls-9" d="M145.41,158.14a37.41,37.41,0,0,0,3,15.34,26.68,26.68,0,0,0,2.29,13.16s-12.39-9.49-19.15-18.25-10.87-15.12-10.87-15.12,15.25,4.68,24.93,4.17"/><path class="cls-4" d="M204.37,203.66a94,94,0,0,1-35.65-6.9,101.43,101.43,0,0,1-27.27-16.68,105.65,105.65,0,0,1-21.67-24.79A1,1,0,0,1,121,153.8c.16,0,16,4.59,48.64,1.42,32.92-3.18,48.1-4.14,77.22-1.46,14.61,1.34,24.36.35,30-.72,6.07-1.16,8.71-2.65,8.74-2.67a1,1,0,0,1,1.41,1.39,120.6,120.6,0,0,1-20.5,25.38c-12.31,11.68-32.59,25.74-59.28,26.49Zm-81.48-47.29a108.44,108.44,0,0,0,20,22.19,99.37,99.37,0,0,0,26.7,16.31,92.34,92.34,0,0,0,37.55,6.7c26-.72,45.83-14.47,57.87-25.88a123.67,123.67,0,0,0,18.53-22.25c-5,1.7-16.3,4.25-36.86,2.37-28.94-2.66-44-1.71-76.83,1.46C143.78,159.79,128.54,157.55,122.89,156.37Z"/><path class="cls-4" d="M119.27,162.64a1,1,0,0,1-.89-.53,8.5,8.5,0,0,1,5.49-12.45,1,1,0,0,1,.47,2,6.46,6.46,0,0,0-4.17,9.44,1,1,0,0,1-.9,1.54Z"/><path class="cls-4" d="M288.21,157.92a1,1,0,0,1-.37-.08,1,1,0,0,1-.58-1.33,6,6,0,0,0-4.33-8,1,1,0,0,1,.43-2,8,8,0,0,1,5.81,10.75A1,1,0,0,1,288.21,157.92Z"/><path class="cls-10" d="M148.4,173.48s9.7,3.42,34.19,5.14c0,0-2.51,1.09-33.89-1.67Z"/><path class="cls-10" d="M258.28,171s-12.62,4-34.19,6.32c0,0,4.15,1.37,34.31-3.86Z"/><path class="cls-2" d="M122.11,286.67c1.77-12.91,5.58-26,13.36-36.3a35.5,35.5,0,0,0-3.28-5.84c-8.14-11.71-16,3.32-18.81,10.92a220.1,220.1,0,0,0-12.63,53.23c-.67,6.17-1.07,12.47.36,18.51s5.75,12.48,12.07,13.17a10.41,10.41,0,0,0,2.95-.11,35.26,35.26,0,0,0,2-8C120.36,317.14,120,301.77,122.11,286.67Z"/><path class="cls-1" d="M122.11,286.67c-2.08,15.1-1.75,30.47-4,45.54a35.26,35.26,0,0,1-2,8,15,15,0,0,0,9.1-6c8.07-10.95,9.61-29.4,12-42.4,2.48-13.81,3.88-29-1.71-41.49C127.69,260.65,123.88,273.76,122.11,286.67Z"/><path class="cls-4" d="M114.28,341.45a10,10,0,0,1-1.22-.07c-6.84-.74-11.44-7.55-13-14-1.47-6.17-1-12.71-.38-18.85a220.65,220.65,0,0,1,12.69-53.48c1.49-4,7.4-13.67,11.07-17a1,1,0,1,1,1.38,1.54c-3.41,3.06-9.13,12.44-10.52,16.15a219,219,0,0,0-12.58,53c-.75,6.88-1,12.6.34,18.15,1.35,5.71,5.33,11.75,11.18,12.39,3.88.42,8.25-1.81,11.11-5.69,6.5-8.81,8.66-22.53,10.56-34.63.41-2.59.79-5,1.21-7.34,1.08-6,2.47-15,2.09-23.69a1,1,0,0,1,2.06-.09c.38,8.9-1,18-2.13,24.14-.41,2.29-.79,4.72-1.2,7.3-1.94,12.34-4.13,26.31-10.94,35.53C123,339,118.58,341.45,114.28,341.45Z"/><path class="cls-1" d="M272,286.22c-1.77-12.91-5.58-26-13.36-36.3a36.58,36.58,0,0,1,3.28-5.84c8.14-11.71,16,3.32,18.81,10.92a220.1,220.1,0,0,1,12.63,53.23c.67,6.17,1.07,12.47-.35,18.51s-5.76,12.48-12.07,13.17a10.46,10.46,0,0,1-3-.11,35.26,35.26,0,0,1-2-8C273.79,316.69,274.12,301.32,272,286.22Z"/><path class="cls-2" d="M272,286.22c2.08,15.1,1.75,30.47,4,45.54a35.26,35.26,0,0,0,2,8,15,15,0,0,1-9.09-6c-8.08-10.95-9.62-29.4-12-42.4-2.48-13.81-3.88-29,1.71-41.49C266.46,260.2,270.27,273.31,272,286.22Z"/><path class="cls-4" d="M279.88,341c-4.31,0-8.73-2.44-11.78-6.58-6.8-9.22-9-23.2-10.94-35.53-.41-2.58-.79-5-1.2-7.3-1.1-6.1-2.51-15.24-2.13-24.14a1,1,0,0,1,1.07-1,1,1,0,0,1,1,1.07c-.38,8.69,1,17.68,2.1,23.69.41,2.3.79,4.75,1.2,7.34,1.91,12.1,4.06,25.82,10.56,34.63,2.87,3.88,7.23,6.11,11.12,5.69,5.84-.64,9.82-6.69,11.17-12.39s1.09-11.27.34-18.16a219,219,0,0,0-12.58-53c-1.48-4-6.93-14.11-10.22-17.06a1,1,0,1,1,1.38-1.53c3.83,3.44,9.36,14.1,10.77,17.87a221.13,221.13,0,0,1,12.7,53.48c.66,6.14,1.08,12.67-.38,18.85-1.52,6.41-6.12,13.21-13,14A9.82,9.82,0,0,1,279.88,341Z"/><rect class="cls-11" x="140.41" y="240.24" width="111.01" height="132.56" rx="10.47"/><path class="cls-12" d="M241,373.83H150.89a11.51,11.51,0,0,1-11.5-11.5V250.71a11.51,11.51,0,0,1,11.5-11.5H241a11.51,11.51,0,0,1,11.5,11.5V362.33A11.51,11.51,0,0,1,241,373.83ZM150.89,241.27a9.46,9.46,0,0,0-9.45,9.44V362.33a9.45,9.45,0,0,0,9.45,9.44H241a9.45,9.45,0,0,0,9.45-9.44V250.71a9.46,9.46,0,0,0-9.45-9.44Z"/><rect class="cls-13" x="148.31" y="254.44" width="96.04" height="4.06" rx="1.69"/><rect class="cls-13" x="148.31" y="264.82" width="96.04" height="4.06" rx="1.69"/><rect class="cls-13" x="148.31" y="275.19" width="96.04" height="4.06" rx="1.69"/><rect class="cls-13" x="148.31" y="285.56" width="96.04" height="4.06" rx="1.69"/><rect class="cls-13" x="148.31" y="295.93" width="96.04" height="4.06" rx="1.69"/><rect class="cls-13" x="148.31" y="306.3" width="96.04" height="4.06" rx="1.69"/><rect class="cls-13" x="148.31" y="316.67" width="96.04" height="4.06" rx="1.69"/><rect class="cls-13" x="148.31" y="327.04" width="96.04" height="4.06" rx="1.69"/><rect class="cls-13" x="148.31" y="337.41" width="96.04" height="4.06" rx="1.69"/><rect class="cls-13" x="148.31" y="347.78" width="96.04" height="4.06" rx="1.69"/><rect class="cls-13" x="148.31" y="358.15" width="96.04" height="4.06" rx="1.69"/><path class="cls-2" d="M123.75,315.15a15.75,15.75,0,0,0,4.16,1.54,20.18,20.18,0,0,0-3.61,2.05,40.86,40.86,0,0,1,6.8,3.74l9.06-1.8.07-4.66a42.09,42.09,0,0,0,9.14-2c-1.19.33-2.4.6-3.61.85C138.51,316.29,130.86,317,123.75,315.15Z"/><path class="cls-2" d="M121.29,332.25q-.83-.25-1.65-.57c2.39,6.47,9,8.54,18.82,6.46,11-2.31,15.77-6.7,14.95-10.37-.06-.26-.12-.54-.19-.82A28.38,28.38,0,0,1,141.76,333,37.43,37.43,0,0,1,121.29,332.25Z"/><path class="cls-2" d="M131.12,297.24c-1.77-.07-3.56-.18-5.34-.36l1.11.17a51.85,51.85,0,0,0-4.77,2.64,47.59,47.59,0,0,1,6.95,2.6,42.81,42.81,0,0,1,14.51-4.77,18.37,18.37,0,0,0-3,0l.68-.09C137.85,297.43,134.49,297.37,131.12,297.24Z"/><path class="cls-2" d="M132.68,311.77a37.75,37.75,0,0,1-16.19-5.84.49.49,0,0,0,0,.12,14.92,14.92,0,0,0,7.25,9.1c7.11,1.89,14.76,1.14,22-.33,1.21-.25,2.42-.52,3.61-.85,3.41-1.24,6.66-3.16,7.53-6.09a5.07,5.07,0,0,0-.15-3.45A31.45,31.45,0,0,1,132.68,311.77Z"/><path class="cls-2" d="M159.12,290.45c1.4-2.44,2.07-5.62.24-8.12a16.83,16.83,0,0,1-1,1.39c-3.41,4.25-8.5,6.94-13.79,8.27a59.13,59.13,0,0,1-16.27,1.28q-5.9-.18-11.78-.76c2,2.65,5.71,3.77,9.26,4.37,1.78.18,3.57.29,5.34.36,3.37.13,6.73.19,10.1.14C144.25,296.94,156.55,294.94,159.12,290.45Z"/><path class="cls-14" d="M156.9,307.88c-.87,2.93-4.12,4.85-7.53,6.09a21.45,21.45,0,0,0,4.46-1.76,11.22,11.22,0,0,0,5.51-6.21c.33-1,.09-2.57-1-2.57a2,2,0,0,0-1.26.7c-.11.1-.23.19-.34.3A5.07,5.07,0,0,1,156.9,307.88Z"/><path class="cls-14" d="M143.58,297.52c1.23-.17,2.47-.29,3.71-.35-2,.11-4,.18-6.07.21l-.68.09A18.37,18.37,0,0,1,143.58,297.52Z"/><path class="cls-1" d="M144.57,292c5.29-1.33,10.38-4,13.79-8.27a16.83,16.83,0,0,0,1-1.39c-2-2.75-7.05-4.68-17.5-3.9v-3.92s-23.19.11-26.07,9.75c-1.12,3.75-.64,6.38.73,8.25q5.88.57,11.78.76A59.13,59.13,0,0,0,144.57,292Z"/><path class="cls-1" d="M124.3,318.74c-2.87,2-6.27,5.57-5.32,10.56a16.18,16.18,0,0,0,.66,2.38q.83.31,1.65.57a37.43,37.43,0,0,0,20.47.79A28.38,28.38,0,0,0,153.22,327c-.83-3.56-2.43-7.85-13.06-5.87v-.4l-9.06,1.8A40.86,40.86,0,0,0,124.3,318.74Z"/><path class="cls-1" d="M122.12,299.69c-2.9,1.83-6,4.27-5.63,6.24a37.75,37.75,0,0,0,16.19,5.84,31.45,31.45,0,0,0,24.07-7.34c-1.6-3.9-7.87-6.41-13.17-6.91a42.81,42.81,0,0,0-14.51,4.77A47.59,47.59,0,0,0,122.12,299.69Z"/><path class="cls-4" d="M132.07,339.88a20.33,20.33,0,0,1-3.19-.24,13.33,13.33,0,0,1-8.74-4.89,11.71,11.71,0,0,1-1.23-11.48,13.79,13.79,0,0,1,8.7-7.56,1,1,0,1,1,.6,2,11.68,11.68,0,0,0-7.41,6.4,9.64,9.64,0,0,0,1,9.44,11.51,11.51,0,0,0,7.43,4.09,26.69,26.69,0,0,0,9.06-.48c3.57-.69,8.09-1.86,11.39-4.81,1.9-1.7,3.41-4.46,2.5-6.77-1.16-2.94-5.4-3.48-7.16-3.57a30.14,30.14,0,0,0-12.46,2,1,1,0,1,1-.74-1.92,32.33,32.33,0,0,1,13.31-2.13c4.57.25,7.83,2,9,4.87,1.37,3.46-.78,7-3,9.06-3.68,3.29-8.54,4.56-12.37,5.3A34.46,34.46,0,0,1,132.07,339.88Z"/><path class="cls-4" d="M132.72,317.66h-.91c-4.43-.09-7.76-.85-10.47-2.4-3.57-2-5.87-5.66-5.86-9.21,0-1.87,1.61-3.82,3-5.12,2.55-2.45,6.71-5,9.39-4.89a1,1,0,1,1-.08,2.05c-1.78-.06-5.37,1.92-7.88,4.33-1.46,1.4-2.33,2.76-2.34,3.64,0,2.82,1.89,5.73,4.83,7.41,2.4,1.37,5.42,2.05,9.49,2.13a45.66,45.66,0,0,0,17.34-3.07,14.27,14.27,0,0,0,4.85-2.81,5.44,5.44,0,0,0,1.78-4.55c-.41-2.6-3.37-4.23-6-4.9-3.41-.86-13-1.39-19.22,2.62a1,1,0,1,1-1.11-1.73c6.87-4.42,17-3.85,20.83-2.88,4.23,1.07,7.05,3.52,7.54,6.57a7.41,7.41,0,0,1-2.38,6.34,16,16,0,0,1-5.55,3.26A47.9,47.9,0,0,1,132.72,317.66Z"/><path class="cls-4" d="M135.15,298.8a48.38,48.38,0,0,1-10.92-1.24c-4.89-1.13-8-3.08-9.4-6-1.91-3.82-.36-8.25,2-11,2.54-2.88,11.4-7.17,25.36-7.17a1,1,0,1,1,0,2.06,52.14,52.14,0,0,0-16.17,2.36c-4.19,1.39-6.7,3-7.65,4.11-1.87,2.11-3.2,5.72-1.73,8.67,1.15,2.29,3.77,3.89,8,4.88a46.94,46.94,0,0,0,28.52-2.42,14.59,14.59,0,0,0,4.53-2.71,5.57,5.57,0,0,0,1.86-4.24c-.26-3.32-4.31-5-5.55-5.47-7.14-2.55-15.13-1.09-22.17.19a1,1,0,0,1-.37-2c6.94-1.27,15.57-2.85,23.24-.1,4.08,1.46,6.66,4.16,6.9,7.24a7.49,7.49,0,0,1-2.48,5.88A16.21,16.21,0,0,1,154,295,48.84,48.84,0,0,1,135.15,298.8Z"/><path class="cls-2" d="M270,315.15a15.54,15.54,0,0,1-4.15,1.54,20.31,20.31,0,0,1,3.6,2.05,41.26,41.26,0,0,0-6.8,3.74l-9.06-1.8-.07-4.66a42.06,42.06,0,0,1-9.13-2c1.18.33,2.39.6,3.6.85C255.29,316.29,262.93,317,270,315.15Z"/><path class="cls-2" d="M272.51,332.25q.83-.25,1.65-.57c-2.39,6.47-9,8.54-18.82,6.46-11-2.31-15.78-6.7-15-10.37.06-.26.12-.54.18-.82A28.48,28.48,0,0,0,252,333,37.43,37.43,0,0,0,272.51,332.25Z"/><path class="cls-2" d="M262.67,297.24c1.77-.07,3.56-.18,5.34-.36l-1.1.17a52.49,52.49,0,0,1,4.76,2.64,48,48,0,0,0-6.95,2.6,42.69,42.69,0,0,0-14.5-4.77,18.36,18.36,0,0,1,3,0l-.68-.09C255.94,297.43,259.3,297.37,262.67,297.24Z"/><path class="cls-2" d="M261.12,311.77a37.85,37.85,0,0,0,16.19-5.84s0,.08,0,.12a14.85,14.85,0,0,1-7.25,9.1c-7.11,1.89-14.75,1.14-22-.33-1.21-.25-2.42-.52-3.6-.85-3.41-1.24-6.67-3.16-7.54-6.09a5.12,5.12,0,0,1,.16-3.45A31.44,31.44,0,0,0,261.12,311.77Z"/><path class="cls-2" d="M234.68,290.45c-1.4-2.44-2.07-5.62-.24-8.12.31.48.64.94,1,1.39,3.41,4.25,8.5,6.94,13.8,8.27a59.13,59.13,0,0,0,16.27,1.28q5.89-.18,11.77-.76c-1.95,2.65-5.7,3.77-9.26,4.37-1.78.18-3.57.29-5.34.36-3.37.13-6.73.19-10.09.14C249.55,296.94,237.25,294.94,234.68,290.45Z"/><path class="cls-14" d="M236.89,307.88c.87,2.93,4.13,4.85,7.54,6.09a21.23,21.23,0,0,1-4.46-1.76,11.28,11.28,0,0,1-5.52-6.21c-.32-1-.09-2.57,1-2.57a1.94,1.94,0,0,1,1.26.7l.35.3A5.12,5.12,0,0,0,236.89,307.88Z"/><path class="cls-14" d="M250.22,297.52c-1.23-.17-2.47-.29-3.72-.35,2,.11,4.05.18,6.08.21l.68.09A18.36,18.36,0,0,0,250.22,297.52Z"/><path class="cls-1" d="M249.23,292c-5.3-1.33-10.39-4-13.8-8.27-.35-.45-.68-.91-1-1.39,2-2.75,7.05-4.68,17.49-3.9v-3.92s23.19.11,26.07,9.75c1.13,3.75.65,6.38-.73,8.25q-5.86.57-11.77.76A59.13,59.13,0,0,1,249.23,292Z"/><path class="cls-1" d="M269.49,318.74c2.88,2,6.28,5.57,5.32,10.56a15,15,0,0,1-.65,2.38q-.82.31-1.65.57A37.43,37.43,0,0,1,252,333,28.48,28.48,0,0,1,240.57,327c.83-3.56,2.44-7.85,13.07-5.87v-.4l9.06,1.8A41.26,41.26,0,0,1,269.49,318.74Z"/><path class="cls-1" d="M271.67,299.69c2.91,1.83,6,4.27,5.64,6.24a37.85,37.85,0,0,1-16.19,5.84,31.44,31.44,0,0,1-24.07-7.34c1.59-3.9,7.87-6.41,13.17-6.91a42.69,42.69,0,0,1,14.5,4.77A48,48,0,0,1,271.67,299.69Z"/><path class="cls-4" d="M261.72,339.88a34.35,34.35,0,0,1-6.58-.73c-3.83-.74-8.7-2-12.37-5.3-2.26-2-4.41-5.6-3.05-9.06,1.13-2.85,4.4-4.62,9-4.87A32.36,32.36,0,0,1,262,322.05a1,1,0,0,1-.75,1.92,30.07,30.07,0,0,0-12.45-2c-1.77.09-6,.63-7.16,3.57-.91,2.31.6,5.07,2.5,6.77,3.3,2.95,7.82,4.12,11.39,4.81a26.68,26.68,0,0,0,9.06.48,11.46,11.46,0,0,0,7.42-4.09,9.64,9.64,0,0,0,1-9.44,11.71,11.71,0,0,0-7.41-6.4,1,1,0,1,1,.59-2,13.79,13.79,0,0,1,8.71,7.56,11.71,11.71,0,0,1-1.23,11.48,13.35,13.35,0,0,1-8.75,4.89A20.24,20.24,0,0,1,261.72,339.88Z"/><path class="cls-4" d="M261.07,317.66a48,48,0,0,1-17.21-3.22,16,16,0,0,1-5.55-3.26,7.43,7.43,0,0,1-2.37-6.34c.49-3,3.31-5.5,7.53-6.57,3.84-1,14-1.54,20.84,2.88a1,1,0,0,1-1.11,1.73c-6.25-4-15.81-3.48-19.22-2.62-2.63.67-5.59,2.3-6,4.9a5.44,5.44,0,0,0,1.78,4.55,14.31,14.31,0,0,0,4.86,2.81,45.61,45.61,0,0,0,17.33,3.07c4.08-.08,7.09-.76,9.5-2.13,2.93-1.68,4.83-4.59,4.82-7.41,0-.88-.87-2.24-2.33-3.64-2.47-2.37-6-4.33-7.8-4.33H266A1,1,0,0,1,266,296h.15c2.69,0,6.73,2.5,9.23,4.9,1.36,1.3,3,3.25,3,5.12,0,3.55-2.29,7.17-5.86,9.21-2.71,1.55-6,2.31-10.48,2.4Z"/><path class="cls-4" d="M258.65,298.8A48.89,48.89,0,0,1,239.78,295a16.43,16.43,0,0,1-5.17-3.12,7.56,7.56,0,0,1-2.48-5.88c.24-3.08,2.82-5.78,6.91-7.24,7.67-2.75,16.3-1.17,23.23.1a1,1,0,0,1,.83,1.2,1,1,0,0,1-1.2.82c-7-1.28-15-2.74-22.17-.19-1.23.45-5.29,2.15-5.54,5.47a5.53,5.53,0,0,0,1.86,4.24,14.59,14.59,0,0,0,4.53,2.71,47,47,0,0,0,28.52,2.42c4.25-1,6.88-2.58,8-4.88,1.47-2.95.13-6.56-1.73-8.67s-10.15-6.47-23.82-6.47a1,1,0,1,1,0-2.06c14,0,22.81,4.29,25.36,7.17,2.38,2.7,3.94,7.13,2,11-1.44,2.88-4.52,4.83-9.4,6A48.38,48.38,0,0,1,258.65,298.8Z"/><path class="cls-15" d="M221.47,353.18a1,1,0,0,1-.25.21A1.64,1.64,0,0,0,221.47,353.18Z"/><path class="cls-16" d="M224.66,291.56l-23.9,23.9a5.83,5.83,0,0,1-.66.55,4.11,4.11,0,0,1-2.34.72,4.34,4.34,0,0,1-3-1.24L184.23,305a4.23,4.23,0,1,1,6-6l7.57,7.5,20.9-20.93a4.24,4.24,0,0,1,6,6Z"/><path class="cls-16" d="M197.72,340.69a34.19,34.19,0,1,1,0-68.37,33.88,33.88,0,0,1,14.64,3.29,4.22,4.22,0,0,1,2,5.64,4.26,4.26,0,0,1-5.64,2,25.79,25.79,0,1,0,14.51,20.08,4.24,4.24,0,1,1,8.41-1,34.12,34.12,0,0,1-33.94,38.4Z"/></g></svg>