<svg id="Capa_2" data-name="Capa 2" xmlns="http://www.w3.org/2000/svg" viewBox="0 0 400 400"><defs><style>.cls-1{fill:none;}.cls-2{fill:#ffb100;}.cls-3{fill:#a4582e;}.cls-4{fill:#ffce00;}.cls-5{fill:#53a22f;}.cls-6{fill:#83e145;}.cls-7{fill:#feec30;}.cls-8{fill:#175807;}.cls-9{fill:#0ef5dc;}.cls-10{fill:#08b99e;}.cls-11{fill:#05fadb;}.cls-12{fill:#60a92b;}.cls-13{fill:#bf0604;}.cls-14{fill:#7fe247;}.cls-15{fill:#63aa35;}</style></defs><title>i</title><rect class="cls-1" x="53.21" y="-80.12" width="154.24" height="154.24"/><path class="cls-2" d="M142.21,304.45v7c0,5.09,12.62,9.21,28.18,9.21s28.18-4.12,28.18-9.21v-7Z"/><path class="cls-3" d="M170.39,321.69a67.51,67.51,0,0,1-20.24-2.75c-7.4-2.41-9-5.4-9-7.47v-7a1,1,0,0,1,1-1h56.36a1,1,0,0,1,1,1v7c0,2.07-1.56,5.06-9,7.47A67.63,67.63,0,0,1,170.39,321.69Zm-27.16-16.23v6c0,3.88,11.15,8.2,27.16,8.2s27.17-4.32,27.17-8.2v-6Z"/><ellipse class="cls-4" cx="170.39" cy="304.45" rx="28.18" ry="9.21"/><path class="cls-3" d="M170.39,314.67a67.86,67.86,0,0,1-20.24-2.74c-7.4-2.42-9-5.4-9-7.48s1.55-5.06,9-7.48a67.86,67.86,0,0,1,20.24-2.74A68,68,0,0,1,190.64,297c7.39,2.42,9,5.4,9,7.48s-1.56,5.06-9,7.48A68,68,0,0,1,170.39,314.67Zm0-18.42c-16,0-27.16,4.32-27.16,8.2s11.15,8.2,27.16,8.2,27.17-4.32,27.17-8.2S186.4,296.25,170.39,296.25Z"/><path class="cls-2" d="M46.16,282.08v7c0,5.09,12.61,9.21,28.18,9.21s28.18-4.12,28.18-9.21v-7Z"/><path class="cls-3" d="M74.34,299.32a67.86,67.86,0,0,1-20.24-2.74c-7.4-2.42-9-5.41-9-7.48v-7a1,1,0,0,1,1-1h56.36a1,1,0,0,1,1,1v7c0,2.07-1.55,5.06-9,7.48A67.86,67.86,0,0,1,74.34,299.32ZM47.17,283.09v6c0,3.88,11.16,8.2,27.17,8.2s27.16-4.32,27.16-8.2v-6Z"/><ellipse class="cls-4" cx="74.34" cy="282.08" rx="28.18" ry="9.21"/><path class="cls-3" d="M74.34,292.3a67.86,67.86,0,0,1-20.24-2.74c-7.4-2.42-9-5.4-9-7.48s1.56-5.06,9-7.48a67.86,67.86,0,0,1,20.24-2.74,67.86,67.86,0,0,1,20.24,2.74c7.4,2.42,9,5.4,9,7.48s-1.55,5.06-9,7.48A67.86,67.86,0,0,1,74.34,292.3Zm0-18.42c-16,0-27.17,4.32-27.17,8.2s11.16,8.2,27.17,8.2,27.16-4.32,27.16-8.2S90.35,273.88,74.34,273.88Z"/><path class="cls-2" d="M87.82,300.5v7c0,5.09,12.62,9.21,28.19,9.21s28.18-4.12,28.18-9.21v-7Z"/><path class="cls-3" d="M116,317.74A67.93,67.93,0,0,1,95.76,315c-7.4-2.42-9-5.4-9-7.48v-7a1,1,0,0,1,1-1h56.37a1,1,0,0,1,1,1v7c0,2.08-1.55,5.06-8.95,7.48A67.86,67.86,0,0,1,116,317.74ZM88.84,301.52v6c0,3.88,11.16,8.2,27.17,8.2s27.16-4.32,27.16-8.2v-6Z"/><ellipse class="cls-4" cx="116.01" cy="300.5" rx="28.18" ry="9.21"/><path class="cls-3" d="M116,310.73A67.9,67.9,0,0,1,95.76,308c-7.4-2.42-9-5.4-9-7.48s1.55-5.05,9-7.47A67.58,67.58,0,0,1,116,290.28,67.51,67.51,0,0,1,136.25,293c7.4,2.42,8.95,5.4,8.95,7.47s-1.55,5.06-8.95,7.48A67.83,67.83,0,0,1,116,310.73Zm0-18.43c-16,0-27.17,4.33-27.17,8.2S100,308.7,116,308.7s27.16-4.32,27.16-8.2S132,292.3,116,292.3Z"/><path class="cls-2" d="M40,305.33v7c0,5.08,12.61,9.21,28.18,9.21s28.18-4.13,28.18-9.21v-7Z"/><path class="cls-3" d="M68.2,322.57A67.9,67.9,0,0,1,48,319.82c-7.39-2.42-9-5.4-9-7.47v-7a1,1,0,0,1,1-1H96.38a1,1,0,0,1,1,1v7c0,2.07-1.55,5-9,7.47A67.83,67.83,0,0,1,68.2,322.57ZM41,306.34v6c0,3.87,11.16,8.19,27.17,8.19s27.16-4.32,27.16-8.19v-6Z"/><ellipse class="cls-4" cx="68.2" cy="305.33" rx="28.18" ry="9.21"/><path class="cls-3" d="M68.2,315.55A67.58,67.58,0,0,1,48,312.8c-7.39-2.41-9-5.4-9-7.47s1.56-5.06,9-7.48A67.9,67.9,0,0,1,68.2,295.1a67.83,67.83,0,0,1,20.24,2.75c7.4,2.42,9,5.4,9,7.48s-1.55,5.06-9,7.47A67.51,67.51,0,0,1,68.2,315.55Zm0-18.42c-16,0-27.17,4.32-27.17,8.2s11.16,8.2,27.17,8.2,27.16-4.33,27.16-8.2S84.21,297.13,68.2,297.13Z"/><path class="cls-2" d="M87.82,282.08v7c0,5.09,12.62,9.21,28.19,9.21s28.18-4.12,28.18-9.21v-7Z"/><path class="cls-3" d="M116,299.32a67.93,67.93,0,0,1-20.25-2.74c-7.4-2.42-9-5.41-9-7.48v-7a1,1,0,0,1,1-1h56.37a1,1,0,0,1,1,1v7c0,2.07-1.55,5.06-8.95,7.48A67.86,67.86,0,0,1,116,299.32ZM88.84,283.09v6c0,3.88,11.16,8.2,27.17,8.2s27.16-4.32,27.16-8.2v-6Z"/><ellipse class="cls-4" cx="116.01" cy="282.08" rx="28.18" ry="9.21"/><path class="cls-3" d="M116,292.3a67.93,67.93,0,0,1-20.25-2.74c-7.4-2.42-9-5.4-9-7.48s1.55-5.06,9-7.48A67.93,67.93,0,0,1,116,271.86a67.86,67.86,0,0,1,20.24,2.74c7.4,2.42,8.95,5.4,8.95,7.48s-1.55,5.06-8.95,7.48A67.86,67.86,0,0,1,116,292.3Zm0-18.42c-16,0-27.17,4.32-27.17,8.2s11.16,8.2,27.17,8.2,27.16-4.32,27.16-8.2S132,273.88,116,273.88Z"/><path class="cls-2" d="M119,292.61v7c0,5.08,12.61,9.21,28.18,9.21s28.18-4.13,28.18-9.21v-7Z"/><path class="cls-3" d="M147.15,309.85a67.83,67.83,0,0,1-20.24-2.75c-7.4-2.42-9-5.4-9-7.47v-7a1,1,0,0,1,1-1h56.36a1,1,0,0,1,1,1v7c0,2.07-1.55,5.05-9,7.47A67.83,67.83,0,0,1,147.15,309.85ZM120,293.62v6c0,3.87,11.16,8.19,27.17,8.19s27.16-4.32,27.16-8.19v-6Z"/><ellipse class="cls-4" cx="147.15" cy="292.61" rx="28.18" ry="9.21"/><path class="cls-3" d="M147.15,302.83a67.51,67.51,0,0,1-20.24-2.75c-7.4-2.41-9-5.4-9-7.47s1.56-5.06,9-7.48a67.83,67.83,0,0,1,20.24-2.75,67.83,67.83,0,0,1,20.24,2.75c7.4,2.42,9,5.4,9,7.48s-1.55,5.06-9,7.47A67.51,67.51,0,0,1,147.15,302.83Zm0-18.42c-16,0-27.17,4.32-27.17,8.2s11.16,8.2,27.17,8.2,27.16-4.32,27.16-8.2S163.16,284.41,147.15,284.41Z"/><path class="cls-2" d="M237.39,300.94v7c0,5.09,12.62,9.21,28.18,9.21s28.18-4.12,28.18-9.21v-7Z"/><path class="cls-3" d="M265.57,318.18a67.86,67.86,0,0,1-20.24-2.74c-7.4-2.42-9-5.4-9-7.48v-7a1,1,0,0,1,1-1h56.36a1,1,0,0,1,1,1v7c0,2.08-1.56,5.06-9,7.48A67.86,67.86,0,0,1,265.57,318.18ZM238.41,302v6c0,3.88,11.15,8.2,27.16,8.2s27.17-4.32,27.17-8.2v-6Z"/><ellipse class="cls-4" cx="265.57" cy="300.94" rx="28.18" ry="9.21"/><path class="cls-3" d="M265.57,311.17a67.83,67.83,0,0,1-20.24-2.75c-7.4-2.42-9-5.4-9-7.48s1.55-5.06,9-7.47a75.86,75.86,0,0,1,40.48,0c7.4,2.41,9,5.4,9,7.47s-1.56,5.06-9,7.48A67.83,67.83,0,0,1,265.57,311.17Zm0-18.43c-16,0-27.16,4.32-27.16,8.2s11.15,8.2,27.16,8.2,27.17-4.32,27.17-8.2S281.58,292.74,265.57,292.74Z"/><path class="cls-2" d="M292.66,301.82v7c0,5.08,12.61,9.21,28.18,9.21S349,313.92,349,308.84v-7Z"/><path class="cls-3" d="M320.84,319.06a67.83,67.83,0,0,1-20.24-2.75c-7.4-2.42-9-5.4-9-7.47v-7a1,1,0,0,1,1-1H349a1,1,0,0,1,1,1v7c0,2.07-1.55,5.05-8.95,7.47A67.83,67.83,0,0,1,320.84,319.06Zm-27.17-16.23v6c0,3.87,11.16,8.19,27.17,8.19S348,312.71,348,308.84v-6Z"/><ellipse class="cls-4" cx="320.84" cy="301.82" rx="28.18" ry="9.21"/><path class="cls-3" d="M320.84,312a67.51,67.51,0,0,1-20.24-2.75c-7.4-2.41-9-5.4-9-7.47s1.56-5.06,9-7.48a75.86,75.86,0,0,1,40.48,0c7.4,2.42,8.95,5.4,8.95,7.48s-1.55,5.06-8.95,7.47A67.51,67.51,0,0,1,320.84,312Zm0-18.42c-16,0-27.17,4.32-27.17,8.2s11.16,8.2,27.17,8.2S348,305.7,348,301.82,336.85,293.62,320.84,293.62Z"/><path class="cls-2" d="M256.69,291.73v7c0,5.09,12.62,9.21,28.18,9.21s28.18-4.12,28.18-9.21v-7Z"/><path class="cls-3" d="M284.87,309a67.51,67.51,0,0,1-20.24-2.75c-7.4-2.41-8.95-5.4-8.95-7.47v-7a1,1,0,0,1,1-1h56.36a1,1,0,0,1,1,1v7c0,2.07-1.56,5.06-9,7.47A67.51,67.51,0,0,1,284.87,309ZM257.7,292.74v6c0,3.88,11.16,8.2,27.17,8.2s27.17-4.32,27.17-8.2v-6Z"/><ellipse class="cls-4" cx="284.87" cy="291.73" rx="28.18" ry="9.21"/><path class="cls-3" d="M284.87,302a67.86,67.86,0,0,1-20.24-2.74c-7.4-2.42-8.95-5.4-8.95-7.48s1.55-5.06,8.95-7.48a76.13,76.13,0,0,1,40.48,0c7.4,2.42,9,5.4,9,7.48s-1.56,5.06-9,7.48A67.86,67.86,0,0,1,284.87,302Zm0-18.42c-16,0-27.17,4.32-27.17,8.2s11.16,8.2,27.17,8.2,27.17-4.32,27.17-8.2S300.88,283.53,284.87,283.53Z"/><path class="cls-2" d="M303.62,286.47v7c0,5.09,12.62,9.22,28.18,9.22S360,298.57,360,293.48v-7Z"/><path class="cls-3" d="M331.8,303.71A67.83,67.83,0,0,1,311.56,301c-7.4-2.42-8.95-5.4-8.95-7.48v-7a1,1,0,0,1,1-1H360a1,1,0,0,1,1,1v7c0,2.08-1.56,5.06-8.95,7.48A68,68,0,0,1,331.8,303.71Zm-27.16-16.23v6c0,3.88,11.15,8.2,27.16,8.2s27.17-4.32,27.17-8.2v-6Z"/><ellipse class="cls-4" cx="331.8" cy="286.47" rx="28.18" ry="9.21"/><path class="cls-3" d="M331.8,296.69a67.51,67.51,0,0,1-20.24-2.75c-7.4-2.42-8.95-5.4-8.95-7.47s1.55-5.06,8.95-7.48a75.9,75.9,0,0,1,40.49,0c7.39,2.42,8.95,5.4,8.95,7.48s-1.56,5-8.95,7.47A67.63,67.63,0,0,1,331.8,296.69Zm0-18.42c-16,0-27.16,4.32-27.16,8.2s11.15,8.19,27.16,8.19S359,290.34,359,286.47,347.81,278.27,331.8,278.27Z"/><path class="cls-2" d="M267,278.94l1,6.95c.69,5,13.75,7.4,29.17,5.28s27.36-7.92,26.66-13l-1-6.95Z"/><path class="cls-3" d="M286.2,293a52.55,52.55,0,0,1-9.36-.76c-7.66-1.39-9.6-4.13-9.89-6.18l-.95-7a1,1,0,0,1,.19-.75,1.08,1.08,0,0,1,.67-.39l55.84-7.68a1,1,0,0,1,.75.2,1,1,0,0,1,.39.67l1,6.95c.28,2.06-.85,5.22-7.85,8.63a67.94,67.94,0,0,1-19.68,5.48A82.84,82.84,0,0,1,286.2,293ZM268.14,279.8l.82,5.95c.26,1.91,3.35,3.58,8.24,4.47a73.92,73.92,0,0,0,38.86-5.35c4.48-2.17,7-4.61,6.73-6.52l-.82-6Z"/><ellipse class="cls-4" cx="294.92" cy="275.1" rx="28.18" ry="9.21" transform="translate(-34.73 42.75) rotate(-7.83)"/><path class="cls-3" d="M285.25,286a53.38,53.38,0,0,1-9.36-.75c-7.66-1.39-9.61-4.13-9.89-6.19s.85-5.22,7.85-8.62a76,76,0,0,1,40.1-5.52c7.66,1.39,9.61,4.13,9.89,6.19s-.85,5.22-7.85,8.62a67.63,67.63,0,0,1-19.68,5.48A81.18,81.18,0,0,1,285.25,286ZM304.6,266.2a80.69,80.69,0,0,0-10.8.77c-15.86,2.19-26.32,8-25.79,11.83.26,1.91,3.34,3.58,8.24,4.47a73.92,73.92,0,0,0,38.86-5.35c4.47-2.17,7-4.61,6.72-6.53h0c-.26-1.91-3.34-3.58-8.24-4.46A50.26,50.26,0,0,0,304.6,266.2Z"/><path class="cls-2" d="M234.23,288.16l4,5.78c2.89,4.19,15.62.43,28.44-8.4s20.87-19.38,18-23.57l-4-5.78Z"/><path class="cls-3" d="M242.67,296.67c-3,0-4.53-1.05-5.29-2.16l-4-5.78a1,1,0,0,1,.26-1.41l46.42-32a1,1,0,0,1,1.41.26l4,5.78c1.17,1.71,1.59,5-3.14,11.23a76,76,0,0,1-33.34,23A22.87,22.87,0,0,1,242.67,296.67Zm-7-8.25,3.41,4.94c2.2,3.2,13.83.43,27-8.65a65.73,65.73,0,0,0,14.65-13.31c3-4,4.17-7.27,3.08-8.85l-3.41-4.95Z"/><ellipse class="cls-4" cx="257.44" cy="272.17" rx="28.18" ry="9.21" transform="translate(-108.95 194.01) rotate(-34.55)"/><path class="cls-3" d="M238.69,290.89c-3,0-4.53-1.05-5.29-2.16-1.18-1.71-1.59-5.05,3.13-11.23a75.75,75.75,0,0,1,33.34-23c7.47-2.21,10.44-.63,11.62,1.08h0c1.17,1.71,1.59,5-3.14,11.23a76,76,0,0,1-33.34,23A22.87,22.87,0,0,1,238.69,290.89Zm37.5-35.4a21,21,0,0,0-5.74,1,66,66,0,0,0-17.66,8.94c-13.18,9.08-19.92,19-17.72,22.16s13.83.43,27-8.65,19.93-19,17.73-22.16h0C279.24,255.92,278,255.49,276.19,255.49Z"/><path class="cls-2" d="M178.9,344.38v7c0,5.08,12.62,9.21,28.18,9.21s28.18-4.13,28.18-9.21v-7Z"/><path class="cls-3" d="M207.08,361.62a67.83,67.83,0,0,1-20.24-2.75c-7.4-2.42-9-5.4-9-7.47v-7a1,1,0,0,1,1-1h56.36a1,1,0,0,1,1,1v7c0,2.07-1.56,5.05-9,7.47A67.83,67.83,0,0,1,207.08,361.62Zm-27.17-16.23v6c0,3.87,11.16,8.19,27.17,8.19s27.17-4.32,27.17-8.19v-6Z"/><ellipse class="cls-4" cx="207.08" cy="344.38" rx="28.18" ry="9.21"/><path class="cls-3" d="M207.08,354.6a67.51,67.51,0,0,1-20.24-2.75c-7.4-2.41-9-5.4-9-7.47s1.55-5.06,9-7.48a67.83,67.83,0,0,1,20.24-2.75,67.83,67.83,0,0,1,20.24,2.75c7.4,2.42,9,5.4,9,7.48s-1.56,5.06-9,7.47A67.51,67.51,0,0,1,207.08,354.6Zm0-18.42c-16,0-27.17,4.32-27.17,8.2s11.16,8.2,27.17,8.2,27.17-4.32,27.17-8.2S223.09,336.18,207.08,336.18Z"/><path class="cls-2" d="M59.75,269.36v7c0,5.09,12.62,9.21,28.18,9.21s28.19-4.12,28.19-9.21v-7Z"/><path class="cls-3" d="M87.93,286.6a67.86,67.86,0,0,1-20.24-2.74c-7.4-2.42-8.95-5.41-8.95-7.48v-7a1,1,0,0,1,1-1h56.37a1,1,0,0,1,1,1v7c0,2.07-1.55,5.06-8.95,7.48A67.93,67.93,0,0,1,87.93,286.6ZM60.77,270.37v6c0,3.88,11.15,8.2,27.16,8.2s27.17-4.32,27.17-8.2v-6Z"/><ellipse class="cls-4" cx="87.93" cy="269.36" rx="28.18" ry="9.21"/><path class="cls-3" d="M87.93,279.59a67.83,67.83,0,0,1-20.24-2.75c-7.4-2.42-8.95-5.4-8.95-7.48s1.55-5.06,8.95-7.48a67.86,67.86,0,0,1,20.24-2.74,67.93,67.93,0,0,1,20.25,2.74c7.4,2.42,8.95,5.41,8.95,7.48s-1.55,5.06-8.95,7.48A67.9,67.9,0,0,1,87.93,279.59Zm0-18.43c-16,0-27.16,4.32-27.16,8.2s11.15,8.2,27.16,8.2,27.17-4.32,27.17-8.2S103.94,261.16,87.93,261.16Z"/><path class="cls-2" d="M124.23,270.68v7c0,5.09,12.62,9.22,28.18,9.22s28.18-4.13,28.18-9.22v-7Z"/><path class="cls-3" d="M152.41,287.92a67.83,67.83,0,0,1-20.24-2.75c-7.4-2.42-8.95-5.4-8.95-7.48v-7a1,1,0,0,1,1-1h56.36a1,1,0,0,1,1,1v7c0,2.08-1.55,5.06-8.95,7.48A67.83,67.83,0,0,1,152.41,287.92Zm-27.17-16.23v6c0,3.88,11.16,8.2,27.17,8.2s27.17-4.32,27.17-8.2v-6Z"/><ellipse class="cls-4" cx="152.41" cy="270.68" rx="28.18" ry="9.21"/><path class="cls-3" d="M152.41,280.9a67.83,67.83,0,0,1-20.24-2.75c-7.4-2.42-8.95-5.4-8.95-7.47s1.55-5.06,8.95-7.48a67.83,67.83,0,0,1,20.24-2.75,67.83,67.83,0,0,1,20.24,2.75c7.4,2.42,8.95,5.4,8.95,7.48s-1.55,5.05-8.95,7.47A67.83,67.83,0,0,1,152.41,280.9Zm0-18.42c-16,0-27.17,4.32-27.17,8.2s11.16,8.19,27.17,8.19,27.17-4.32,27.17-8.19S168.42,262.48,152.41,262.48Z"/><path class="cls-5" d="M158.09,250.17a130.89,130.89,0,0,0-5,34.41c.28,9.46-.27,38.09,2.23,44.76.53,1.43,5.28,2.59,12.44,3.48C159.24,306.41,157.13,278.12,158.09,250.17Z"/><path class="cls-5" d="M236.81,217.16c-4.21-7.5.59-14.79-4.74-20.78-11.92-2.18-30.63-4.45-39.52-1.59-3,1-11.49,2.83-13.88,4-3,5,.09,14.07-3.15,21.12-2.64,5.73-8.9,8.33-11.88,14.95-1.23,2.73-2.32,5.48-3.28,8.21a59.91,59.91,0,0,1,10.78-10.43c10.85-8.07,19.13-9.32,34.87-9.66,10.47-.24,23.86,1.05,33.35-.86C238.63,220.88,237.6,218.58,236.81,217.16Z"/><path class="cls-6" d="M257.61,284.31c-.28-10-5.31-34.29-6.44-43.27-1.31-10.35-12.85-10.9-14.36-23.88-2-17.14-13.17-32.17-31.75-32.1-16.59.05-21,12.78-29.47,31.13-2.64,5.73-9,12-12,18.63a113,113,0,0,0-5.55,15.35c-1,28,1.15,56.24,9.65,82.65l1.77.2a15.45,15.45,0,0,1-.17-2.27V271.68a36.31,36.31,0,0,1,36.31-36.3h0a36.3,36.3,0,0,1,36.3,36.3v59.07a15.33,15.33,0,0,1-.34,3.21c8-.65,13.51-1.62,14.33-2.95C259.55,325.17,257.89,294.31,257.61,284.31Z"/><path class="cls-7" d="M242,271.68a36.3,36.3,0,0,0-36.3-36.3h0a36.31,36.31,0,0,0-36.31,36.3v59.07a15.45,15.45,0,0,0,.17,2.27c19.13,2.13,52.88,2.49,72.1.94a15.33,15.33,0,0,0,.34-3.21Z"/><path class="cls-8" d="M212.5,335.93c-14.83,0-30-.6-40.69-1.65-16.34-1.6-17.13-3.69-17.46-4.58-2-5.31-2.1-23.07-2.18-36.05,0-3.69,0-6.87-.11-9,0-.25-.42-25.59,10.65-50.21,1.4-3.09,4-5.73,6.48-8.28,3-3,5.8-5.92,6.1-9.06,1-10.68,4.1-18.94,9.17-24.54s12-8.45,20.6-8.48h0c10.42,0,17.31,2,22.37,6.73,5.53,5.13,8.83,13.47,10.38,26.26.79,6.5,4.22,9.73,7.53,12.84,3,2.86,6.17,5.81,6.83,11,.4,3.14,1.26,8.09,2.26,13.83,1.79,10.23,4,23,4.19,29.54,0,1.27.09,2.88.16,4.74.65,18,1.08,37.58-2,42.53-.61,1-2.4,2.11-11.1,3.05-5.62.61-13.34,1-22.3,1.22C219.83,335.89,216.18,335.93,212.5,335.93Zm-7.43-149.86c-16.23.05-25.83,10.84-27.76,31.18-.37,3.86-3.43,7-6.67,10.29-2.38,2.42-4.83,4.93-6.08,7.7-10.89,24.19-10.48,49.07-10.47,49.31.06,2.19.08,5.39.1,9.09.08,12.1.19,30.38,2.06,35.35.12.22,1.8,2.34,22,3.8,14.05,1,32.61,1.37,48.46.92,21-.6,27.72-2.32,28.4-3.24,3-4.82,2.1-29.51,1.68-41.38-.07-1.86-.13-3.48-.17-4.76-.17-6.41-2.38-19.07-4.15-29.25-1-5.76-1.88-10.73-2.28-13.92-.57-4.51-3.18-7-6.21-9.81-3.41-3.21-7.27-6.84-8.15-14.07-1.49-12.29-4.59-20.24-9.75-25-4.61-4.28-11-6.19-20.73-6.19Z"/><path class="cls-6" d="M230,219.37c15.5-5.57,25.94-15.88,33.78-24.65C279,177.67,282.37,159,279.71,140.41c6.33-36-10.5-53.5-15.68-62.13s-24.73-12.8-39.84-23.59-13.51-15.85-24.45-15.82c-11.25,0-18.26,14.38-23.87,18.7s-29.56,13.06-39.71,33.07c-9.92,19.56-12.19,21.63-10,45.47,1.71,18.95-2.11,41.12,26.69,65.34,7.43,6.25,16.24,13.78,28.8,20.07"/><path class="cls-9" d="M227.68,57.67c-1.62,1.41-20.6,19.31-22.11,22.76s-7.23,1.62-10.14-2.69S182,59.48,171.92,60.55c9.38-4.93,15.24-21.67,27.15-21.68C210.21,38.86,224.66,56.49,227.68,57.67Z"/><path class="cls-5" d="M254.76,205.19c-11.09,1.05-30.31-4.1-42.93-2.22a358.78,358.78,0,0,1-43,2.16c-16.9-.43-25.61-19.85-31.2-28.91S132.87,157,135,158s28.07,14.56,44.72-7.08c5.43-7.06,8.25-15.2,6.44-27.37S155.74,85,161.42,76.77s19.56-7.34,26.46-2.59,15.53,12.51,13.81,8.06-1.51-4.61.43-10.44-2.16-3.23-4.34-6.9,2-5,2.94-7.76-4-4.75-4-4.75-.64-3.88,3.08-9.49a6,6,0,0,0,.87-4h-.93c-11.25,0-18.26,14.38-23.87,18.7s-29.56,13.06-39.71,33.07c-9.92,19.56-12.19,21.63-10,45.47,1.72,19-4.73,43.48,25.85,66.72,7.7,5.86,16.28,13.4,29.64,18.69l44.17-.86c6.77-1.43,12.45-5.93,17.74-7.34C248.58,211.29,250.9,207.87,254.76,205.19Z"/><path class="cls-10" d="M195.43,77.74a10.34,10.34,0,0,0,6.22,4.4c-1.69-4.36-1.46-4.55.47-10.34s-2.16-3.23-4.34-6.9,2-5,2.94-7.76-4-4.75-4-4.75-.64-3.88,3.08-9.49a5.94,5.94,0,0,0,.88-3.9q-.65-.09-1.29-.12c-6.13.19-11,4.61-15.06,9.25-1.81,2.12-3.57,4.34-5.37,6.37q-.63.72-1.23,1.35l-.16.18-.12.12a22.39,22.39,0,0,1-5.53,4.4C182,59.48,192.52,73.42,195.43,77.74Z"/><path class="cls-11" d="M190.47,137c6.28-3-4-33.37-12.73-43.64-10.79-12.73-38.18-5.12-46.6,13.43S127.91,128,127.91,128s10.56-20.57,22.5-21.29,25.82,3,29.88,16.74C182.54,131.07,189,137.67,190.47,137Z"/><path class="cls-8" d="M192,133.29a1,1,0,0,1-1-1c0-10.61-5.88-31.28-16.51-40.88-4.79-4.33-13-5.32-21.39-2.59a38,38,0,0,0-16.2,10.61,43.92,43.92,0,0,0-10.44,20.9,1,1,0,0,1-2-.42,46,46,0,0,1,10.93-21.84,39.91,39.91,0,0,1,17.08-11.17c9.09-3,18-1.8,23.36,3,11.06,10,17.18,31.41,17.18,42.39A1,1,0,0,1,192,133.29Z"/><path class="cls-8" d="M177.74,118.82a1,1,0,0,1-.46-.11,1,1,0,0,1-.44-1.36,30.32,30.32,0,0,1,8.7-10.06,1,1,0,0,1,1.41.25,1,1,0,0,1-.24,1.41,28.86,28.86,0,0,0-8.07,9.32A1,1,0,0,1,177.74,118.82Z"/><path class="cls-8" d="M156.82,107.77a1,1,0,0,1-1-.81c-.09-.44-2.21-10.89,1.94-21.07a1,1,0,0,1,1.32-.55,1,1,0,0,1,.56,1.32c-3.91,9.59-1.85,19.78-1.83,19.89a1,1,0,0,1-.79,1.19A.76.76,0,0,1,156.82,107.77Z"/><path class="cls-8" d="M137.63,114.31a1,1,0,0,1-.74-.32c-.24-.26-5.87-6.4-5.61-11.53a1,1,0,0,1,2,.1c-.21,4.28,5,10,5.08,10a1,1,0,0,1-.06,1.43A1,1,0,0,1,137.63,114.31Z"/><ellipse class="cls-5" cx="155.45" cy="131.2" rx="26.18" ry="24.45"/><path class="cls-8" d="M155.45,156.87c-15.11,0-27.39-11.52-27.39-25.67s12.28-25.66,27.39-25.66,27.39,11.51,27.39,25.66S170.55,156.87,155.45,156.87Zm0-48.9c-13.76,0-25,10.42-25,23.23s11.2,23.24,25,23.24,25-10.43,25-23.24S169.21,108,155.45,108Z"/><ellipse class="cls-5" cx="156.83" cy="131.63" rx="20.91" ry="19.27"/><path class="cls-8" d="M156.83,151.31c-11.76,0-21.32-8.83-21.32-19.68S145.07,112,156.83,112s21.32,8.82,21.32,19.67S168.58,151.31,156.83,151.31Zm0-38.54c-11.31,0-20.51,8.46-20.51,18.86s9.2,18.87,20.51,18.87,20.51-8.46,20.51-18.87S168.13,112.77,156.83,112.77Z"/><ellipse class="cls-6" cx="159.61" cy="132.28" rx="15.52" ry="14.74"/><path class="cls-8" d="M159.61,147.43c-8.78,0-15.93-6.8-15.93-15.15s7.15-15.15,15.93-15.15,15.93,6.8,15.93,15.15S168.39,147.43,159.61,147.43Zm0-29.48c-8.34,0-15.12,6.43-15.12,14.33s6.78,14.34,15.12,14.34,15.12-6.43,15.12-14.34S168,118,159.61,118Z"/><path class="cls-12" d="M256.35,97.39c-21,7.21-24.93,5.77-30.09,18.14s-2,5.28-4,19.52c-1.75,12,14,21.51,24.42,21.75,11.21.26,24.15-4.49,27.54-9.78,3.69-5.75,6.47-34.14,1.3-37.74S256.35,97.39,256.35,97.39Z"/><path class="cls-11" d="M219.69,136.67c-5.93-3,3.81-33.37,12-43.64,10.19-12.72,36.8-6.8,44.74,11.75s2.33,23,2.33,23-10-20.56-21.26-21.28-24.38,3-28.22,16.73C227.18,130.79,221.12,137.39,219.69,136.67Z"/><path class="cls-8" d="M218.26,133a1,1,0,0,1-1-1c0-11,5.78-32.37,16.22-42.36,5.57-5.33,14.89-6.87,23.75-3.92,12.95,4.32,22,16.69,24.89,34a1,1,0,0,1-2,.33c-2.74-16.5-11.32-28.29-23.53-32.35-8.16-2.72-16.68-1.36-21.71,3.45-10,9.61-15.59,30.28-15.59,40.9A1,1,0,0,1,218.26,133Z"/><path class="cls-8" d="M233.71,116.54a1,1,0,0,1-.92-.58,28.52,28.52,0,0,0-7.61-9.31,1,1,0,0,1,1.21-1.63,30.07,30.07,0,0,1,8.23,10.07,1,1,0,0,1-.48,1.35A1,1,0,0,1,233.71,116.54Z"/><path class="cls-8" d="M249.68,107.48h-.08a1,1,0,0,1-.93-1.09,51.39,51.39,0,0,0-3-19.75,1,1,0,1,1,1.89-.73,52.42,52.42,0,0,1,3.12,20.64A1,1,0,0,1,249.68,107.48Z"/><path class="cls-8" d="M265.47,107.77a1,1,0,0,1-.7-1.75c.05,0,4.49-4.34,4.29-8.58a1,1,0,1,1,2-.09c.24,5.17-4.71,9.94-4.92,10.14A1.05,1.05,0,0,1,265.47,107.77Z"/><ellipse class="cls-5" cx="252.43" cy="127.39" rx="26.18" ry="24.45"/><path class="cls-8" d="M252.43,153.06c-15.1,0-27.39-11.52-27.39-25.67s12.29-25.66,27.39-25.66,27.4,11.51,27.4,25.66S267.54,153.06,252.43,153.06Zm0-48.9c-13.76,0-25,10.42-25,23.23s11.2,23.24,25,23.24,25-10.43,25-23.24S266.2,104.16,252.43,104.16Z"/><ellipse class="cls-5" cx="251.06" cy="127.82" rx="20.91" ry="19.27"/><path class="cls-8" d="M251.06,147.5c-11.76,0-21.32-8.83-21.32-19.68s9.56-19.67,21.32-19.67,21.32,8.82,21.32,19.67S262.81,147.5,251.06,147.5Zm0-38.54c-11.31,0-20.51,8.46-20.51,18.86s9.2,18.87,20.51,18.87,20.51-8.46,20.51-18.87S262.37,109,251.06,109Z"/><ellipse class="cls-6" cx="248.27" cy="128.47" rx="15.52" ry="14.74"/><path class="cls-8" d="M248.27,143.62c-8.78,0-15.93-6.8-15.93-15.15s7.15-15.15,15.93-15.15,15.93,6.8,15.93,15.15S257.05,143.62,248.27,143.62Zm0-29.49c-8.33,0-15.12,6.44-15.12,14.34s6.79,14.34,15.12,14.34,15.12-6.43,15.12-14.34S256.61,114.13,248.27,114.13Z"/><path class="cls-8" d="M181.62,222.54a1,1,0,0,1-.37-.08c-12.42-4.92-19.19-10.1-28.08-17.44-26.29-21.69-27-41.64-27.56-59.25-.11-3.34-.21-6.49-.49-9.57-2-22.29-.1-26,8-41.77l2.17-4.25c8-15.73,24.15-24.52,33.81-29.78a54.51,54.51,0,0,0,6.18-3.64A40.39,40.39,0,0,0,180.59,51c4.81-5.85,10.8-13.12,19.15-13.14h.11c7.1,0,9.36,2.22,13.46,6.25a87.85,87.85,0,0,0,11.47,9.76c6.55,4.67,14.06,8.14,20.69,11.21,8.78,4.06,16.36,7.56,19.43,12.68.68,1.12,1.57,2.42,2.59,3.91,6.55,9.55,18.73,27.31,13.25,58.75,3.11,22.06-2.34,41-16.19,56.39-8.17,9.06-18,18.17-34.21,23.52a1,1,0,0,1-.64-1.93c15.8-5.19,25.36-14.1,33.34-23,13.47-14.92,18.74-33.4,15.67-54.9a.86.86,0,0,1,0-.32c5.41-30.73-6.49-48.09-12.89-57.41-1-1.52-1.95-2.84-2.66-4-2.74-4.58-10.06-8-18.54-11.88-6.71-3.1-14.31-6.62-21-11.41a90.5,90.5,0,0,1-11.73-10c-4.06-4-5.76-5.67-12-5.67h-.11c-7.4,0-13.06,6.89-17.6,12.4a40.22,40.22,0,0,1-5.66,6.09A57,57,0,0,1,170,62.18c-9.46,5.14-25.28,13.75-33,28.92-.76,1.51-1.49,2.92-2.17,4.25-8,15.7-9.72,19-7.75,40.67.28,3.13.39,6.31.5,9.68.58,17.18,1.23,36.65,26.82,57.76,8.75,7.22,15.39,12.31,27.54,17.12a1,1,0,0,1-.38,2Z"/><path class="cls-8" d="M221.7,156.08a13.54,13.54,0,0,0-1.78-2,4.31,4.31,0,0,0-2.39-1.09,1.71,1.71,0,0,0-1.07.21.91.91,0,0,0-.43,1,1.35,1.35,0,0,0,.31.51,43.24,43.24,0,0,0,3.32,3.45,2,2,0,0,0,1.62.8,1.38,1.38,0,0,0,.87-1.78,3.91,3.91,0,0,0-1.4-1.73,9.54,9.54,0,0,0-2-1.36,2.52,2.52,0,0,0-.7-.24.65.65,0,0,0-.71.22c-.16.29.1.62.34.85l2.43,2.27.84.79a9.37,9.37,0,0,0-2.46-3.13,3.35,3.35,0,0,1,1.47,1.39,1,1,0,0,0-.29-.48l.13.22"/><path class="cls-8" d="M197.8,154.86a22.94,22.94,0,0,0-5.81,3.62,5.3,5.3,0,0,0-1.07,1.33.69.69,0,0,0-.08.28c0,.2.2.33.38.41a3.05,3.05,0,0,0,2.6-.19,8.84,8.84,0,0,0,2.11-1.66l1.46-1.41a3.5,3.5,0,0,0,1.19-1.72.44.44,0,0,0-.59-.58,4.49,4.49,0,0,0-1.86,1.48A11.06,11.06,0,0,1,194.2,158a6.56,6.56,0,0,0-2,1.6c.18.26.57.08.81-.1l4.3-3.37"/><path class="cls-13" d="M211.93,189.49c3.59-2.19,3.49-6.93,1.1-9.89-1.76-2.18-4-2.3-6.56-1.78-2.17.43-3.31,2.26-3.9,4.31a6.78,6.78,0,0,0,0,4.68,5.49,5.49,0,0,0,1.35,1.76A6.89,6.89,0,0,0,211.93,189.49Z"/><path class="cls-6" d="M212.54,190.54a7.26,7.26,0,0,0,3.35-7.13c-.37-2.91-2.15-5.85-5-6.76a9.3,9.3,0,0,0-4.54,0,5.82,5.82,0,0,0-3.7,2.51A10.28,10.28,0,0,0,201,183.7a6.49,6.49,0,0,0,1.53,5.18,8.16,8.16,0,0,0,10,1.66,1.21,1.21,0,0,0-1.22-2.1,5.65,5.65,0,0,1-6.28-.54,4,4,0,0,1-1.65-3.22,7.88,7.88,0,0,1,.3-2.05,7.75,7.75,0,0,1,.56-1.52,4.27,4.27,0,0,1,.85-1.23,3.05,3.05,0,0,1,1.08-.72,6.8,6.8,0,0,1,1.72-.34,8.38,8.38,0,0,1,.86,0h.42l.29,0a4.1,4.1,0,0,1,2.7,1.64,1.74,1.74,0,0,1,.12.17l.21.32c.15.23.28.47.41.72a7,7,0,0,1,.45,1.32l.09.43,0,.18c0-.13,0,0,0,.05,0,.31,0,.62,0,.94l0,.43s0,.2,0,.08,0,.12,0,.14a7.79,7.79,0,0,1-.22.83,2.66,2.66,0,0,1-.26.62c-.12.21-.33.54-.42.66a5,5,0,0,1-1.24,1.09C210,189.27,211.21,191.38,212.54,190.54Z"/><path class="cls-8" d="M208.68,191.38a8.1,8.1,0,0,1-5.4-2.06,6.42,6.42,0,0,1-1.59-2.09,7.72,7.72,0,0,1-.1-5.38c1-3.59,3.12-4.71,4.68-5,2.34-.46,5.3-.64,7.55,2.15a8.52,8.52,0,0,1,1.82,6.71,6.78,6.78,0,0,1-3.18,4.68h0A7.25,7.25,0,0,1,208.68,191.38Zm3.25-1.89Zm-3.22-10.91a10.78,10.78,0,0,0-2,.23c-1.47.29-2.53,1.51-3.13,3.6a5.76,5.76,0,0,0,0,4,4.51,4.51,0,0,0,1.11,1.44,5.89,5.89,0,0,0,6.76.81h0a4.74,4.74,0,0,0,2.24-3.3,6.54,6.54,0,0,0-1.4-5.09A4.13,4.13,0,0,0,208.71,178.58Z"/><path class="cls-8" d="M160.7,142.33a9.91,9.91,0,1,1,9.9-9.9A9.92,9.92,0,0,1,160.7,142.33Zm0-17.78a7.88,7.88,0,1,0,7.87,7.88A7.88,7.88,0,0,0,160.7,124.55Z"/><path class="cls-8" d="M152.44,133.7a1,1,0,0,1-.91-.57,1,1,0,0,1,.46-1.36,21.31,21.31,0,0,1,18.1-.2,1,1,0,0,1,.5,1.35,1,1,0,0,1-1.35.49,19.27,19.27,0,0,0-16.36.18A1,1,0,0,1,152.44,133.7Z"/><path class="cls-8" d="M246.71,140.08a9.91,9.91,0,1,1,9.9-9.91A9.92,9.92,0,0,1,246.71,140.08Zm0-17.78a7.88,7.88,0,1,0,7.87,7.87A7.88,7.88,0,0,0,246.71,122.3Z"/><path class="cls-8" d="M238.45,131.44a1,1,0,0,1-.45-1.92,21.31,21.31,0,0,1,18.1-.2,1,1,0,0,1,.49,1.35,1,1,0,0,1-1.34.49,19.27,19.27,0,0,0-16.36.18A1,1,0,0,1,238.45,131.44Z"/><path class="cls-14" d="M285.33,192.78a28.35,28.35,0,0,1-3.09,4.56,208.49,208.49,0,0,0-18.17,27.94c-3.09,5.7-5.94,11.58-9.93,16.74a34.1,34.1,0,0,1-10.22,9.1c-3.49-6.34-7.11-16-2.09-23.28,8.12-11.74,26.72-33,31.76-37.86,3.52-3.42,8.4-8.13,12.89-9.14a21,21,0,0,1,.31,6.66A16,16,0,0,1,285.33,192.78Z"/><path class="cls-15" d="M290,203.85c-4,5.67-3.81,6.75-12.42,19.74-4.95,7.46-13.37,25-24.44,31.23a47.31,47.31,0,0,0-1.15-9.9c3.63-4.62-.64.71,2.14-2.9,4-5.16,6.84-11,9.93-16.74a208.49,208.49,0,0,1,18.17-27.94,28.35,28.35,0,0,0,3.09-4.56,16,16,0,0,0,1.46-5.28,21,21,0,0,0-.31-6.66A6.08,6.08,0,0,1,292,182C297.43,186.6,294,198.17,290,203.85Z"/><path class="cls-8" d="M241.87,228.66a1,1,0,0,1-.52-.15,1,1,0,0,1-.34-1.39c4.53-7.5,11.94-16.36,17.35-22.47,6.29-7.09,13.51-14.57,19.8-20.51a1,1,0,1,1,1.39,1.47c-19,17.91-32.4,35.27-36.81,42.56A1,1,0,0,1,241.87,228.66Z"/><path class="cls-8" d="M252.22,257.13a1,1,0,0,1-.68-1.76h0c6.65-5.92,10.31-9.18,15.21-17.14s8.59-13.52,11.78-18.31c2.6-3.93,4.86-7.32,7.09-11a76.81,76.81,0,0,0,5.52-10.3,23.32,23.32,0,0,1,1.61-3.21c2.18-3.66,1.69-7.48-1.64-12.77a1,1,0,0,1,1.71-1.08c2.53,4,5,9.32,1.66,14.89a22.6,22.6,0,0,0-1.48,3,80.15,80.15,0,0,1-5.64,10.55c-2.26,3.76-4.52,7.17-7.15,11.12-3.17,4.78-6.78,10.2-11.73,18.25-5.07,8.22-8.8,11.55-15.59,17.59A1,1,0,0,1,252.22,257.13Z"/><path class="cls-14" d="M298.41,167.47c-1.47,3.77-8.93,17.78-14.82,28.21-4.69-1.25-7.92-5.39-2.27-16.87,11.4-23.16,36-71.9,36-71.9s10.84,1.61,13.55,1.77C321.63,132.32,307.69,143.83,298.41,167.47Z"/><path class="cls-15" d="M328.58,109.53c4.75.28,4.3.1-.62,14.59-7.72,22.77-23.79,66.08-33.32,71.14,0,0-6.28,1.7-11.05.42,5.89-10.43,13.35-24.44,14.82-28.21C307.69,143.83,319.31,133.17,328.58,109.53Z"/><path class="cls-8" d="M292,197.42a1,1,0,0,1-1-.7,1,1,0,0,1,.66-1.28c6.47-2.07,10-8.74,13.08-15.39,11.59-25.12,15.65-34.35,23.79-61.36a1,1,0,0,1,1.94.59c-8.18,27.13-12.25,36.4-23.89,61.62-3.26,7.06-7.05,14.15-14.3,16.47A.84.84,0,0,1,292,197.42Z"/><path class="cls-8" d="M278.61,186.38a1,1,0,0,1-.45-.11,1,1,0,0,1-.45-1.36c3-5.93,5.81-11.58,8.57-17.06C296.77,147,305.83,129,316.44,106.47a1,1,0,1,1,1.83.87c-10.62,22.56-19.68,40.57-30.18,61.42-2.76,5.48-5.6,11.13-8.57,17.06A1,1,0,0,1,278.61,186.38Z"/><path class="cls-14" d="M332.46,97.45c-.61.08-.91-.71-.95-1.31A15.3,15.3,0,0,1,341,80.85a11.73,11.73,0,0,0-8.45-4s0-.19-.14-.51a10.63,10.63,0,0,0-2.09.43A11.82,11.82,0,0,0,325,80.83a21,21,0,0,0-3.74,7.46c-.16.58-.64,1.33-1.15,1a.94.94,0,0,1-.35-.51,13,13,0,0,1-1.26-6,10,10,0,0,1,1.59-4,15.23,15.23,0,0,1,5.17-5.32,9.57,9.57,0,0,1,5.23-1.31,6.19,6.19,0,0,0-8-2.37c-7.81,3.07-9.55,5.35-10.1,15.8,0,0-7.22-1-8,5.58s5.76,26.2,5.76,26.2,6.38,8.6,12.49,7.77a2.69,2.69,0,0,1-.64-1.58c-.21-2.7,2.33-4.76,4.71-6.06,3.24-1.78,6.7-3.15,9.88-5s6.14-4.38,7.72-7.72c.27-.57.7-2.22.08-2.73-1-.81-1.47.78-2.12,1.34-1.87,1.62-3.46,3.1-6.07,3.39a2.27,2.27,0,0,1-1.39-.18,1.84,1.84,0,0,1-.53-2.37,5.45,5.45,0,0,1,1.84-1.89q2.52-1.82,5-3.65c2-1.49,4.63-3,6.94-2a4.58,4.58,0,0,1,2.47,3.6,8.83,8.83,0,0,1-.74,4.46c-2.07,5.12-6.5,8.89-11,12.14q-4.32,3.14-8.9,5.87c7.05-2.76,16.31-7.55,21.17-16.39,6.52-11.85,5.19-23.2-7.61-19.57,0,0,0-.21-.08-.56-.59.26-1.17.53-1.75.83C337.45,89.23,333.72,92.84,332.46,97.45Zm-4.9,6.18a8.38,8.38,0,0,1-8.71.37c-3-1.69-4.55-5-5.53-8.26-.74-2.46.21-7.16,2.28-2.91,2.18,4.45,7.11,6.82,11.87,8.23a1.72,1.72,0,0,1,.92.49C328.91,102.21,328.25,103.15,327.56,103.63Z"/><path class="cls-15" d="M325.23,73.46a15.23,15.23,0,0,0-5.17,5.32,10,10,0,0,0-1.59,4,13,13,0,0,0,1.26,6,.94.94,0,0,0,.35.51c.51.31,1-.44,1.15-1A21,21,0,0,1,325,80.83a11.82,11.82,0,0,1,5.36-4.11,10.63,10.63,0,0,1,2.09-.43,13.82,13.82,0,0,0-2-4.14A9.57,9.57,0,0,0,325.23,73.46Z"/><path class="cls-15" d="M335.56,84.61a15.55,15.55,0,0,0-4.05,11.53c0,.6.34,1.39.95,1.31,1.26-4.61,5-8.22,9.22-10.45.58-.3,1.16-.57,1.75-.83A11.61,11.61,0,0,0,341,80.85,15.49,15.49,0,0,0,335.56,84.61Z"/><path class="cls-15" d="M327.47,101.06c-4.76-1.41-9.69-3.78-11.87-8.23-2.07-4.25-3,.45-2.28,2.91,1,3.25,2.58,6.57,5.53,8.26a8.38,8.38,0,0,0,8.71-.37c.69-.48,1.35-1.42.83-2.08A1.72,1.72,0,0,0,327.47,101.06Z"/><path class="cls-1" d="M322.66,125.13a1.89,1.89,0,0,0,.48.36c.91.45,2,0,2.87-.53q2-1.09,3.94-2.27c-2.41.94-4.56,1.65-6.2,2.19A5.93,5.93,0,0,1,322.66,125.13Z"/><path class="cls-15" d="M349.83,104.68a8.83,8.83,0,0,0,.74-4.46,4.58,4.58,0,0,0-2.47-3.6c-2.31-1-4.89.53-6.94,2q-2.51,1.83-5,3.65a5.45,5.45,0,0,0-1.84,1.89,1.84,1.84,0,0,0,.53,2.37,2.27,2.27,0,0,0,1.39.18c2.61-.29,4.2-1.77,6.07-3.39.65-.56,1.13-2.15,2.12-1.34.62.51.19,2.16-.08,2.73-1.58,3.34-4.54,5.84-7.72,7.72s-6.64,3.26-9.88,5c-2.38,1.3-4.92,3.36-4.71,6.06a2.69,2.69,0,0,0,.64,1.58,5.93,5.93,0,0,0,1.09-.25c1.64-.54,3.79-1.25,6.2-2.19q4.57-2.75,8.9-5.87C343.33,113.57,347.76,109.8,349.83,104.68Z"/><path class="cls-8" d="M311.58,121.06a1,1,0,0,1-.88-.52A68.19,68.19,0,0,1,303.49,101c-.63-3.11-1.13-6.75,0-10.17,1.22-3.83,4.47-6.56,7.91-6.63,3.1-.07,5.76,1.87,7.71,3.28l5.5,4a17.63,17.63,0,0,1,4.74,4.45,6.63,6.63,0,0,1,.49,6.9c-1.72,2.89-5.59,3.26-8.45,2.38a12.89,12.89,0,0,1-8.89-11.74,1,1,0,0,1,1-1h0a1,1,0,0,1,1,1,10.83,10.83,0,0,0,7.46,9.86c2.19.67,5,.37,6.11-1.49a4.69,4.69,0,0,0-.45-4.76,15.84,15.84,0,0,0-4.23-3.91l-5.49-4c-2.24-1.61-4.27-2.94-6.48-2.9-2.89.07-5.22,2.68-6,5.22-.95,3-.49,6.3.09,9.15a66.42,66.42,0,0,0,7,19,1,1,0,0,1-.4,1.37A1,1,0,0,1,311.58,121.06Z"/><path class="cls-8" d="M320.91,90.14a1,1,0,0,1-1-1c-.16-2.94,1.64-5.44,3.51-7.75a13.82,13.82,0,0,1,4.26-3.94,11.59,11.59,0,0,1,5.64-.94,14.49,14.49,0,0,1,7.09,1.81,7.78,7.78,0,0,1,4,6.47,1,1,0,0,1-1,1h0a1,1,0,0,1-1-1,5.78,5.78,0,0,0-3-4.72,12.57,12.57,0,0,0-6.12-1.53,9.63,9.63,0,0,0-4.64.73,12.14,12.14,0,0,0-3.6,3.4c-1.69,2.09-3.19,4.14-3.07,6.37a1,1,0,0,1-.95,1.07Z"/><path class="cls-8" d="M312.4,86.6a1,1,0,0,1-1-.75c-1.23-4.56,1.13-8.89,2.64-11.06,1.63-2.34,4.38-5.28,8.25-6a9.59,9.59,0,0,1,11.25,7.85,1,1,0,0,1-2,.34,7.56,7.56,0,0,0-8.87-6.2c-3.2.61-5.55,3.15-7,5.18-1.31,1.88-3.36,5.6-2.35,9.37a1,1,0,0,1-.72,1.24A1.09,1.09,0,0,1,312.4,86.6Z"/><path class="cls-8" d="M323.75,125.89a1,1,0,0,1-.27-2,51.37,51.37,0,0,0,25.07-16c3.87-4.54,5.69-8.64,5.55-12.54s-1.65-6.32-4.39-7.35c-3.84-1.46-9.6.3-13.12,4A16.06,16.06,0,0,0,333,97.52a8.3,8.3,0,0,0,0,6.11,4.09,4.09,0,0,0,2.41,2.36c1.86.53,3.9-1,5.47-2.34a8.2,8.2,0,0,0,2.41-2.85,1,1,0,0,1,1.88.76,10,10,0,0,1-3,3.62c-2,1.7-4.56,3.55-7.35,2.76a6,6,0,0,1-3.71-3.49,10.31,10.31,0,0,1-.06-7.62,17.86,17.86,0,0,1,4.07-6.19c4.11-4.32,10.69-6.25,15.31-4.5,3.51,1.33,5.53,4.59,5.69,9.18.16,4.43-1.81,9-6,13.92A53.42,53.42,0,0,1,324,125.86Z"/><path class="cls-14" d="M124.2,195.69a27,27,0,0,0,3.3,4.42,210,210,0,0,1,19.49,27c3.36,5.55,6.48,11.28,10.71,16.25a34.2,34.2,0,0,0,10.64,8.6c3.19-6.5,6.34-16.35,1-23.36-8.68-11.33-28.27-31.64-33.54-36.3-3.67-3.24-8.78-7.71-13.31-8.5a21.25,21.25,0,0,0,0,6.66A15.77,15.77,0,0,0,124.2,195.69Z"/><path class="cls-15" d="M120.05,207c4.27,5.48,4.13,6.56,13.35,19.13,5.3,7.22,15.29,24.17,26.64,29.83a20,20,0,0,1,1.92-8.1,32,32,0,0,1-4.26-4.44c-4.23-5-7.35-10.7-10.71-16.25a210,210,0,0,0-19.49-27,27,27,0,0,1-3.3-4.42,15.77,15.77,0,0,1-1.72-5.2,21.25,21.25,0,0,1,0-6.66,6.05,6.05,0,0,0-5.43,1.46C111.81,190.1,115.77,201.49,120.05,207Z"/><path class="cls-8" d="M169.27,229.46a1,1,0,0,1-.85-.45c-4.75-7.08-19-23.77-38.8-40.75a1,1,0,0,1-.11-1.43,1,1,0,0,1,1.43-.11c6.57,5.63,14.14,12.76,20.76,19.55,5.7,5.84,13.52,14.33,18.41,21.61a1,1,0,0,1-.28,1.4A1,1,0,0,1,169.27,229.46Z"/><path class="cls-8" d="M160.27,257.14a.94.94,0,0,1-.63-.23c-1.57-1.26-2.94-2.31-4.26-3.32-4.57-3.49-7.87-6-12.14-12.25-5.34-7.8-9.19-13.05-12.6-17.67-2.8-3.82-5.23-7.12-7.67-10.77a78.43,78.43,0,0,1-6.13-10.26,22.2,22.2,0,0,0-1.63-2.9c-3.59-5.41-1.38-10.83,1-15a1,1,0,0,1,1.76,1c-3.08,5.44-3.38,9.28-1,12.83a23.91,23.91,0,0,1,1.76,3.13,78,78,0,0,0,6,10c2.41,3.62,4.82,6.9,7.62,10.7,3.41,4.64,7.28,9.89,12.64,17.73,4.08,6,7.1,8.28,11.69,11.78,1.27,1,2.72,2.08,4.3,3.36a1,1,0,0,1-.64,1.8Z"/><path class="cls-14" d="M109.66,170.64c1.66,3.69,9.77,17.33,16.15,27.48,4.63-1.48,7.66-5.77,1.46-17-12.49-22.59-39.43-70.09-39.43-70.09s-10.75,2.13-13.45,2.41C84.78,136.64,99.26,147.48,109.66,170.64Z"/><path class="cls-15" d="M76.75,114.21c-4.73.51-4.29.3,1.32,14.55,8.8,22.37,26.92,64.87,36.69,69.46,0,0,6.35,1.4,11-.1-6.38-10.15-14.49-23.79-16.15-27.48C99.26,147.48,87.15,137.38,76.75,114.21Z"/><path class="cls-8" d="M117.44,200.26a1.17,1.17,0,0,1-.26,0c-7.36-2-11.48-8.87-15.07-15.77C89.27,159.82,84.76,150.75,75.3,124a1,1,0,0,1,.61-1.29,1,1,0,0,1,1.3.62C86.63,150,91.12,159,103.9,183.52c3.39,6.49,7.24,13,13.8,14.74a1,1,0,0,1,.72,1.25A1,1,0,0,1,117.44,200.26Z"/><path class="cls-8" d="M130.77,189.15a1,1,0,0,1-.88-.52c-4.06-7.21-7.94-14-11.69-20.67-10.46-18.44-20.34-35.86-31.26-56.43a1,1,0,1,1,1.79-1c10.91,20.55,20.78,38,31.23,56.38,3.75,6.62,7.64,13.46,11.69,20.68a1,1,0,0,1-.88,1.51Z"/><path class="cls-14" d="M62.15,91.93c-.64-.29-1.28-.56-1.94-.81,0,.38-.05.61-.05.61-14-3.26-14.89,9.08-7.22,21.57,5.71,9.31,16,14,23.76,16.64q-5.1-2.74-10-5.9c-5-3.27-10-7.12-12.5-12.56a9.53,9.53,0,0,1-1-4.78,5,5,0,0,1,2.49-4c2.44-1.24,5.32.32,7.61,1.82l5.61,3.7a5.8,5.8,0,0,1,2.1,2,2,2,0,0,1-.45,2.59,2.48,2.48,0,0,1-1.5.26c-2.83-.17-4.63-1.7-6.74-3.35-.74-.58-1.34-2.27-2.37-1.34-.64.58-.09,2.35.23,3,1.88,3.53,5.22,6.08,8.76,8s7.35,3.18,11,4.94c2.64,1.29,5.49,3.38,5.4,6.32a2.85,2.85,0,0,1-.61,1.74c6.66.58,13.12-9.06,13.12-9.06s6-21.57,4.87-28.65-8.93-5.62-8.93-5.62C92.63,77.59,90.62,75.22,82,72.3c-4.31-1.47-6.94.57-8.49,3a10.4,10.4,0,0,1,5.73,1.16,16.34,16.34,0,0,1,5.87,5.49,10.91,10.91,0,0,1,1.93,4.28c.36,2.2-.36,4.42-1.06,6.53a1,1,0,0,1-.34.58c-.55.36-1.1-.43-1.3-1a22.71,22.71,0,0,0-4.44-7.88,12.81,12.81,0,0,0-6-4.16,10.5,10.5,0,0,0-2.29-.36c-.08.35-.12.56-.12.56-4.58.62-7.31,2.65-8.93,4.82A16.59,16.59,0,0,1,68.65,89a16.85,16.85,0,0,1,5,12.26c0,.65-.3,1.52-1,1.47C71.06,97.84,66.84,94.12,62.15,91.93Zm15.13,15a2,2,0,0,1,1-.58c5.07-1.76,10.28-4.59,12.41-9.52,2-4.7,3.3.34,2.62,3-.89,3.57-2.45,7.24-5.56,9.22a9.08,9.08,0,0,1-9.44,0C77.52,108.71,76.75,107.72,77.28,107Z"/><path class="cls-15" d="M79.25,76.43a16.34,16.34,0,0,1,5.87,5.49,10.91,10.91,0,0,1,1.93,4.28c.36,2.2-.36,4.42-1.06,6.53a1,1,0,0,1-.34.58c-.55.36-1.1-.43-1.3-1a22.71,22.71,0,0,0-4.44-7.88,12.81,12.81,0,0,0-6-4.16,10.5,10.5,0,0,0-2.29-.36,15.25,15.25,0,0,1,1.91-4.59A10.4,10.4,0,0,1,79.25,76.43Z"/><path class="cls-15" d="M68.65,89a16.85,16.85,0,0,1,5,12.26c0,.65-.3,1.52-1,1.47-1.61-4.92-5.83-8.64-10.52-10.83-.64-.29-1.28-.56-1.94-.81a12.61,12.61,0,0,1,2.35-5.88A16.59,16.59,0,0,1,68.65,89Z"/><path class="cls-15" d="M78.26,106.4c5.07-1.76,10.28-4.59,12.41-9.52,2-4.7,3.3.34,2.62,3-.89,3.57-2.45,7.24-5.56,9.22a9.08,9.08,0,0,1-9.44,0c-.77-.48-1.54-1.47-1-2.21A2,2,0,0,1,78.26,106.4Z"/><path class="cls-1" d="M84.7,132.2a1.94,1.94,0,0,1-.49.41c-1,.53-2.15.06-3.13-.42-1.48-.72-2.94-1.48-4.38-2.25,2.65.89,5,1.54,6.81,2.05A7.25,7.25,0,0,0,84.7,132.2Z"/><path class="cls-15" d="M54.25,111.48a9.53,9.53,0,0,1-1-4.78,5,5,0,0,1,2.49-4c2.44-1.24,5.32.32,7.61,1.82l5.61,3.7a5.8,5.8,0,0,1,2.1,2,2,2,0,0,1-.45,2.59,2.48,2.48,0,0,1-1.5.26c-2.83-.17-4.63-1.7-6.74-3.35-.74-.58-1.34-2.27-2.37-1.34-.64.58-.09,2.35.23,3,1.88,3.53,5.22,6.08,8.76,8s7.35,3.18,11,4.94c2.64,1.29,5.49,3.38,5.4,6.32a2.85,2.85,0,0,1-.61,1.74,7.25,7.25,0,0,1-1.19-.21c-1.79-.51-4.16-1.16-6.81-2.05q-5.1-2.74-10-5.9C61.74,120.77,56.76,116.92,54.25,111.48Z"/><path class="cls-8" d="M96.43,127.14A1,1,0,0,1,96,127a1,1,0,0,1-.46-1.35,72,72,0,0,0,6.59-20.89c.49-3.12.82-6.75-.37-9.94-1-2.7-3.63-5.4-6.74-5.4h-.14C92.44,89.52,90.3,91.07,88,93l-5.74,4.58A17.22,17.22,0,0,0,77.82,102c-.87,1.5-1.28,3.71-.24,5.27,1.33,2,4.42,2.18,6.79,1.32A11.8,11.8,0,0,0,92,97.45a1,1,0,0,1,1-1h0a1,1,0,0,1,1,1,13.87,13.87,0,0,1-9,13.09c-3,1.09-7.17.89-9.17-2.11a7.08,7.08,0,0,1,.18-7.4,18.93,18.93,0,0,1,4.88-5l5.74-4.58c2-1.62,4.82-3.84,8.12-3.93,3.69-.11,7.32,2.66,8.83,6.71,1.35,3.63,1,7.58.48,11a74.23,74.23,0,0,1-6.78,21.47A1,1,0,0,1,96.43,127.14Z"/><path class="cls-8" d="M84.73,94.16h0a1,1,0,0,1-1-1c0-2.44-1.72-4.6-3.66-6.79A13.42,13.42,0,0,0,76,82.84a10.48,10.48,0,0,0-5.1-.55,13.7,13.7,0,0,0-6.58,2,6.34,6.34,0,0,0-3,5.33,1,1,0,0,1-1,1.07,1,1,0,0,1-1.06-1,8.28,8.28,0,0,1,3.9-7.13,15.55,15.55,0,0,1,7.53-2.32,12.36,12.36,0,0,1,6.11.72,14.78,14.78,0,0,1,4.79,4c2.13,2.39,4.2,5,4.17,8.15A1,1,0,0,1,84.73,94.16Z"/><path class="cls-8" d="M93.76,89.89a.83.83,0,0,1-.22,0,1,1,0,0,1-.77-1.2c.91-4.16-1.52-8.11-3-10.09s-4.34-4.78-7.86-5.27a8.28,8.28,0,0,0-9.37,7.24,1,1,0,0,1-2-.24,10.33,10.33,0,0,1,11.67-9c4.2.59,7.31,3.61,9.18,6,1.74,2.27,4.5,6.8,3.42,11.76A1,1,0,0,1,93.76,89.89Z"/><path class="cls-8" d="M83.51,133a.83.83,0,0,1-.22,0,57.74,57.74,0,0,1-29-16.6c-4.81-5.11-7.17-9.91-7.23-14.7S49,93.14,52.67,91.53c4.88-2.12,12.07-.38,16.71,4.06a19.3,19.3,0,0,1,4.7,6.45,11.12,11.12,0,0,1,.34,8.19,6.43,6.43,0,0,1-3.79,3.92c-2.94,1-5.83-.87-8-2.6a10.54,10.54,0,0,1-3.37-3.73,1,1,0,0,1,1.84-.85,8.86,8.86,0,0,0,2.78,3c1.79,1.41,4.1,3,6.12,2.27a4.54,4.54,0,0,0,2.54-2.73,9.11,9.11,0,0,0-.32-6.68A17.45,17.45,0,0,0,68,97.05c-4-3.84-10.39-5.45-14.5-3.66-2.94,1.28-4.47,4.13-4.41,8.26s2.23,8.61,6.67,13.33a55.74,55.74,0,0,0,28,16,1,1,0,0,1,.77,1.21A1,1,0,0,1,83.51,133Z"/><path class="cls-2" d="M302.87,310.61v7c0,5.09-12.61,9.21-28.18,9.21s-28.18-4.12-28.18-9.21v-7Z"/><path class="cls-3" d="M274.69,327.85a67.83,67.83,0,0,1-20.24-2.75c-7.4-2.42-8.95-5.4-8.95-7.48v-7a1,1,0,0,1,1-1h56.36a1,1,0,0,1,1,1v7c0,2.08-1.56,5.06-8.95,7.48A68,68,0,0,1,274.69,327.85Zm-27.16-16.23v6c0,3.88,11.15,8.2,27.16,8.2s27.17-4.32,27.17-8.2v-6Z"/><ellipse class="cls-4" cx="274.69" cy="310.61" rx="28.18" ry="9.21"/><path class="cls-3" d="M274.69,320.83a67.83,67.83,0,0,1-20.24-2.75c-7.4-2.42-8.95-5.4-8.95-7.47s1.55-5.06,8.95-7.48a75.9,75.9,0,0,1,40.49,0c7.39,2.42,8.95,5.4,8.95,7.48s-1.56,5.05-8.95,7.47A68,68,0,0,1,274.69,320.83Zm0-18.42c-16,0-27.16,4.32-27.16,8.2s11.15,8.19,27.16,8.19,27.17-4.32,27.17-8.19S290.7,302.41,274.69,302.41Z"/><path class="cls-2" d="M261.21,329v7c0,5.09-12.62,9.22-28.18,9.22s-28.19-4.13-28.19-9.22v-7Z"/><path class="cls-3" d="M233,346.27a67.86,67.86,0,0,1-20.25-2.75c-7.4-2.42-8.95-5.4-8.95-7.48v-7a1,1,0,0,1,1-1h56.37a1,1,0,0,1,1,1v7c0,2.08-1.55,5.06-9,7.48A67.83,67.83,0,0,1,233,346.27ZM205.86,330v6c0,3.88,11.15,8.2,27.17,8.2s27.16-4.32,27.16-8.2v-6Z"/><ellipse class="cls-4" cx="233.03" cy="329.03" rx="28.18" ry="9.21"/><path class="cls-3" d="M233,339.25a67.86,67.86,0,0,1-20.25-2.75c-7.4-2.42-8.95-5.4-8.95-7.47s1.55-5.06,8.95-7.48a75.9,75.9,0,0,1,40.49,0c7.4,2.42,9,5.4,9,7.48s-1.55,5.05-9,7.47A67.83,67.83,0,0,1,233,339.25Zm0-18.42c-16,0-27.17,4.32-27.17,8.2S217,337.22,233,337.22s27.16-4.32,27.16-8.19S249,320.83,233,320.83Z"/><path class="cls-2" d="M312.41,331.13v7c0,5.09-12.62,9.21-28.18,9.21s-28.18-4.12-28.18-9.21v-7Z"/><path class="cls-3" d="M284.23,348.38A67.83,67.83,0,0,1,264,345.63c-7.4-2.42-9-5.4-9-7.48v-7a1,1,0,0,1,1-1h56.36a1,1,0,0,1,1,1v7c0,2.08-1.55,5.06-8.95,7.48A67.83,67.83,0,0,1,284.23,348.38Zm-27.17-16.23v6c0,3.88,11.16,8.2,27.17,8.2s27.17-4.32,27.17-8.2v-6Z"/><ellipse class="cls-4" cx="284.23" cy="331.13" rx="28.18" ry="9.21"/><path class="cls-3" d="M284.23,341.36A67.83,67.83,0,0,1,264,338.61c-7.4-2.42-9-5.4-9-7.48s1.55-5.05,9-7.47a75.86,75.86,0,0,1,40.48,0c7.4,2.42,8.95,5.4,8.95,7.47s-1.55,5.06-8.95,7.48A67.83,67.83,0,0,1,284.23,341.36Zm0-18.42c-16,0-27.17,4.32-27.17,8.19s11.16,8.2,27.17,8.2,27.17-4.32,27.17-8.2S300.24,322.94,284.23,322.94Z"/><path class="cls-2" d="M261.21,310.61v7c0,5.09-12.62,9.21-28.18,9.21s-28.19-4.12-28.19-9.21v-7Z"/><path class="cls-3" d="M233,327.85a67.86,67.86,0,0,1-20.25-2.75c-7.4-2.42-8.95-5.4-8.95-7.48v-7a1,1,0,0,1,1-1h56.37a1,1,0,0,1,1,1v7c0,2.08-1.55,5.06-9,7.48A67.83,67.83,0,0,1,233,327.85Zm-27.17-16.23v6c0,3.88,11.15,8.2,27.17,8.2s27.16-4.32,27.16-8.2v-6Z"/><ellipse class="cls-4" cx="233.03" cy="310.61" rx="28.18" ry="9.21"/><path class="cls-3" d="M233,320.83a67.86,67.86,0,0,1-20.25-2.75c-7.4-2.42-8.95-5.4-8.95-7.47s1.55-5.06,8.95-7.48a75.9,75.9,0,0,1,40.49,0c7.4,2.42,9,5.4,9,7.48s-1.55,5.05-9,7.47A67.83,67.83,0,0,1,233,320.83Zm0-18.42c-16,0-27.17,4.32-27.17,8.2S217,318.8,233,318.8s27.16-4.32,27.16-8.19S249,302.41,233,302.41Z"/><path class="cls-2" d="M338,336.28l-4.69,5.22c-3.41,3.78-15.54-1.59-27.12-12S288,307.59,291.35,303.81l4.69-5.22Z"/><path class="cls-3" d="M329.89,343.73a19.35,19.35,0,0,1-7.54-2,76.14,76.14,0,0,1-30.1-27.08c-3.88-6.74-3-10-1.65-11.54l4.69-5.22a1,1,0,0,1,.7-.33,1,1,0,0,1,.73.25l41.91,37.7a1,1,0,0,1,.07,1.43L334,342.17A5.22,5.22,0,0,1,329.89,343.73ZM296.12,300l-4,4.46c-1.29,1.44-.57,4.87,1.91,9.18a65.65,65.65,0,0,0,12.81,15.09c11.9,10.7,23.09,14.95,25.68,12.07l4-4.47Z"/><ellipse class="cls-4" cx="317" cy="317.43" rx="9.21" ry="28.18" transform="translate(-131 340.85) rotate(-48.03)"/><path class="cls-3" d="M334.58,338.51a19.27,19.27,0,0,1-7.53-2A76,76,0,0,1,297,309.46c-3.89-6.75-3.05-10-1.66-11.55h0c1.39-1.54,4.54-2.72,11.66.43a76,76,0,0,1,30.1,27.07c3.88,6.75,3,10,1.65,11.55A5.23,5.23,0,0,1,334.58,338.51ZM296.8,299.27c-2.6,2.88,2.81,13.55,14.71,24.26a66,66,0,0,0,16.36,11.15c4.55,2,8,2.36,9.33.92,2.59-2.88-2.82-13.55-14.72-24.26s-23.09-15-25.68-12.07Z"/><path class="cls-2" d="M289.28,297.89v7c0,5.09-12.62,9.21-28.18,9.21s-28.18-4.12-28.18-9.21v-7Z"/><path class="cls-3" d="M261.1,315.13a67.9,67.9,0,0,1-20.25-2.75c-7.39-2.42-8.95-5.4-8.95-7.48v-7a1,1,0,0,1,1-1h56.36a1,1,0,0,1,1,1v7c0,2.08-1.55,5.06-9,7.48A67.83,67.83,0,0,1,261.1,315.13ZM233.93,298.9v6c0,3.88,11.16,8.2,27.17,8.2s27.16-4.32,27.16-8.2v-6Z"/><ellipse class="cls-4" cx="261.1" cy="297.89" rx="28.18" ry="9.21"/><path class="cls-3" d="M261.1,308.11a67.9,67.9,0,0,1-20.25-2.75c-7.39-2.42-8.95-5.4-8.95-7.47s1.56-5.06,8.95-7.48a75.9,75.9,0,0,1,40.49,0c7.4,2.42,9,5.4,9,7.48s-1.55,5.05-9,7.47A67.83,67.83,0,0,1,261.1,308.11Zm0-18.42c-16,0-27.17,4.32-27.17,8.2s11.16,8.19,27.17,8.19,27.16-4.32,27.16-8.19S277.11,289.69,261.1,289.69Z"/><path class="cls-2" d="M214.59,315.2v7c0,5.09-12.62,9.21-28.19,9.21s-28.18-4.12-28.18-9.21v-7Z"/><path class="cls-3" d="M186.4,332.45a67.83,67.83,0,0,1-20.24-2.75c-7.4-2.42-8.95-5.4-8.95-7.48v-7a1,1,0,0,1,1-1h56.37a1,1,0,0,1,1,1v7c0,2.08-1.55,5.06-8.95,7.48A67.86,67.86,0,0,1,186.4,332.45Zm-27.16-16.23v6c0,3.88,11.15,8.2,27.16,8.2s27.17-4.32,27.17-8.2v-6Z"/><ellipse class="cls-4" cx="186.4" cy="315.2" rx="28.18" ry="9.21"/><path class="cls-3" d="M186.4,325.43a67.83,67.83,0,0,1-20.24-2.75c-7.4-2.42-8.95-5.4-8.95-7.48s1.55-5.05,8.95-7.47A67.83,67.83,0,0,1,186.4,305a67.86,67.86,0,0,1,20.25,2.75c7.4,2.42,8.95,5.4,8.95,7.47s-1.55,5.06-8.95,7.48A67.86,67.86,0,0,1,186.4,325.43Zm0-18.42c-16,0-27.16,4.32-27.16,8.19s11.15,8.2,27.16,8.2,27.17-4.32,27.17-8.2S202.42,307,186.4,307Z"/><path class="cls-2" d="M159.32,316.08v7c0,5.09-12.62,9.21-28.18,9.21S103,328.19,103,323.1v-7Z"/><path class="cls-3" d="M131.14,333.32a67.51,67.51,0,0,1-20.24-2.75c-7.4-2.41-9-5.4-9-7.47v-7a1,1,0,0,1,1-1h56.36a1,1,0,0,1,1,1v7c0,2.07-1.55,5.06-9,7.47A67.51,67.51,0,0,1,131.14,333.32ZM104,317.09v6c0,3.88,11.16,8.2,27.17,8.2s27.17-4.32,27.17-8.2v-6Z"/><ellipse class="cls-4" cx="131.14" cy="316.08" rx="28.18" ry="9.21"/><path class="cls-3" d="M131.14,326.3a67.86,67.86,0,0,1-20.24-2.74c-7.4-2.42-9-5.4-9-7.48s1.55-5.06,9-7.48a67.86,67.86,0,0,1,20.24-2.74,67.86,67.86,0,0,1,20.24,2.74c7.4,2.42,9,5.4,9,7.48s-1.55,5.06-9,7.48A67.86,67.86,0,0,1,131.14,326.3Zm0-18.42c-16,0-27.17,4.32-27.17,8.2s11.16,8.2,27.17,8.2,27.17-4.32,27.17-8.2S147.15,307.88,131.14,307.88Z"/><path class="cls-2" d="M195.29,306v7c0,5.09-12.62,9.21-28.18,9.21s-28.19-4.12-28.19-9.21v-7Z"/><path class="cls-3" d="M167.11,323.23a67.93,67.93,0,0,1-20.25-2.74c-7.4-2.42-9-5.4-9-7.48v-7a1,1,0,0,1,1-1h56.36a1,1,0,0,1,1,1v7c0,2.08-1.55,5.06-9,7.48A67.86,67.86,0,0,1,167.11,323.23ZM139.94,307v6c0,3.88,11.16,8.2,27.17,8.2s27.16-4.32,27.16-8.2v-6Z"/><ellipse class="cls-4" cx="167.11" cy="305.99" rx="28.18" ry="9.21"/><path class="cls-3" d="M167.11,316.22a67.9,67.9,0,0,1-20.25-2.75c-7.4-2.42-9-5.4-9-7.48s1.55-5.06,9-7.47a67.58,67.58,0,0,1,20.25-2.75,67.51,67.51,0,0,1,20.24,2.75c7.4,2.41,9,5.4,9,7.47s-1.55,5.06-9,7.48A67.83,67.83,0,0,1,167.11,316.22Zm0-18.43c-16,0-27.17,4.33-27.17,8.2s11.16,8.2,27.17,8.2,27.16-4.32,27.16-8.2S183.12,297.79,167.11,297.79Z"/><path class="cls-2" d="M148.36,300.73v7c0,5.08-12.62,9.21-28.19,9.21S92,312.83,92,307.75v-7Z"/><path class="cls-3" d="M120.17,318a67.83,67.83,0,0,1-20.24-2.75c-7.4-2.42-9-5.4-9-7.47v-7a1,1,0,0,1,1-1h56.37a1,1,0,0,1,1,1v7c0,2.07-1.55,5.05-9,7.47A67.9,67.9,0,0,1,120.17,318ZM93,301.74v6c0,3.87,11.15,8.19,27.16,8.19s27.17-4.32,27.17-8.19v-6Z"/><ellipse class="cls-4" cx="120.17" cy="300.73" rx="28.18" ry="9.21"/><path class="cls-3" d="M120.17,311a67.86,67.86,0,0,1-20.24-2.74c-7.4-2.42-9-5.4-9-7.48s1.55-5.06,9-7.48a67.83,67.83,0,0,1,20.24-2.75,67.9,67.9,0,0,1,20.25,2.75c7.4,2.42,9,5.4,9,7.48s-1.55,5.06-9,7.48A67.93,67.93,0,0,1,120.17,311Zm0-18.42c-16,0-27.16,4.32-27.16,8.2s11.15,8.2,27.16,8.2,27.17-4.32,27.17-8.2S136.18,292.53,120.17,292.53Z"/><path class="cls-2" d="M185,293.2l-1,6.95c-.69,5-13.76,7.41-29.17,5.29s-27.36-7.93-26.67-13l1-7Z"/><path class="cls-3" d="M165.77,307.23a81.18,81.18,0,0,1-11.06-.79A67.94,67.94,0,0,1,135,301c-7-3.4-8.13-6.57-7.85-8.63l1-6.95a1,1,0,0,1,1.14-.87l55.83,7.68a1,1,0,0,1,.87,1.15l-1,7c-.28,2-2.23,4.8-9.88,6.18A52.58,52.58,0,0,1,165.77,307.23ZM130,286.66l-.81,5.95c-.53,3.84,9.93,9.64,25.79,11.82a65.78,65.78,0,0,0,19.79.05c4.9-.89,8-2.56,8.25-4.47l.81-5.95Z"/><ellipse class="cls-4" cx="157.06" cy="289.36" rx="9.21" ry="28.18" transform="translate(-151 405.53) rotate(-82.17)"/><path class="cls-3" d="M166.73,300.28a83,83,0,0,1-11.07-.79A67.87,67.87,0,0,1,136,294c-7-3.41-8.14-6.57-7.85-8.63s2.22-4.8,9.88-6.19a68,68,0,0,1,20.43,0,67.94,67.94,0,0,1,19.68,5.48c7,3.4,8.13,6.57,7.85,8.63s-2.23,4.79-9.89,6.18A53.41,53.41,0,0,1,166.73,300.28Zm-19.35-19.81a51.37,51.37,0,0,0-9,.72c-4.89.88-8,2.56-8.24,4.47h0c-.26,1.91,2.26,4.35,6.73,6.52a65.5,65.5,0,0,0,19.07,5.3,65.78,65.78,0,0,0,19.79,0c4.9-.89,8-2.56,8.24-4.47s-2.25-4.35-6.73-6.53a65.74,65.74,0,0,0-19.07-5.29A78.81,78.81,0,0,0,147.38,280.47Zm-18.24,5Z"/><path class="cls-2" d="M149.1,324.87v7c0,5.09,12.62,9.22,28.18,9.22s28.18-4.13,28.18-9.22v-7Z"/><path class="cls-3" d="M177.28,342.11A67.83,67.83,0,0,1,157,339.36c-7.4-2.42-8.95-5.4-8.95-7.48v-7a1,1,0,0,1,1-1h56.37a1,1,0,0,1,1,1v7c0,2.08-1.55,5.06-8.95,7.48A67.9,67.9,0,0,1,177.28,342.11Zm-27.16-16.23v6c0,3.88,11.15,8.2,27.16,8.2s27.17-4.32,27.17-8.2v-6Z"/><ellipse class="cls-4" cx="177.28" cy="324.87" rx="28.18" ry="9.21"/><path class="cls-3" d="M177.28,335.09A67.51,67.51,0,0,1,157,332.34c-7.4-2.42-8.95-5.4-8.95-7.47s1.55-5.06,8.95-7.48a67.83,67.83,0,0,1,20.24-2.75,67.9,67.9,0,0,1,20.25,2.75c7.4,2.42,8.95,5.4,8.95,7.48s-1.55,5.05-8.95,7.47A67.58,67.58,0,0,1,177.28,335.09Zm0-18.42c-16,0-27.16,4.32-27.16,8.2s11.15,8.19,27.16,8.19,27.17-4.32,27.17-8.19S193.29,316.67,177.28,316.67Z"/><path class="cls-2" d="M104.25,331.47v7c0,5.09,12.62,9.21,28.18,9.21s28.18-4.12,28.18-9.21v-7Z"/><path class="cls-3" d="M132.43,348.72A67.83,67.83,0,0,1,112.19,346c-7.4-2.42-9-5.4-9-7.48v-7a1,1,0,0,1,1-1h56.36a1,1,0,0,1,1,1v7c0,2.08-1.56,5.06-9,7.48A67.83,67.83,0,0,1,132.43,348.72Zm-27.17-16.23v6c0,3.88,11.16,8.2,27.17,8.2s27.17-4.32,27.17-8.2v-6Z"/><ellipse class="cls-4" cx="132.43" cy="331.47" rx="28.18" ry="9.21"/><path class="cls-3" d="M132.43,341.7A67.83,67.83,0,0,1,112.19,339c-7.4-2.42-9-5.4-9-7.48s1.55-5.05,9-7.47a67.83,67.83,0,0,1,20.24-2.75A67.83,67.83,0,0,1,152.67,324c7.4,2.42,9,5.4,9,7.47s-1.56,5.06-9,7.48A67.83,67.83,0,0,1,132.43,341.7Zm0-18.42c-16,0-27.17,4.32-27.17,8.19s11.16,8.2,27.17,8.2,27.17-4.32,27.17-8.2S148.44,323.28,132.43,323.28Z"/><path class="cls-2" d="M226.87,344.9v7c0,5.09,12.61,9.21,28.18,9.21s28.18-4.12,28.18-9.21v-7Z"/><path class="cls-3" d="M255.05,362.14a67.93,67.93,0,0,1-20.25-2.74c-7.4-2.42-9-5.4-9-7.48v-7a1,1,0,0,1,1-1h56.37a1,1,0,0,1,1,1v7c0,2.08-1.55,5.06-8.95,7.48A67.86,67.86,0,0,1,255.05,362.14Zm-27.17-16.23v6c0,3.88,11.16,8.2,27.17,8.2s27.16-4.32,27.16-8.2v-6Z"/><ellipse class="cls-4" cx="255.05" cy="344.9" rx="28.18" ry="9.21"/><path class="cls-3" d="M255.05,355.13a67.9,67.9,0,0,1-20.25-2.75c-7.4-2.42-9-5.4-9-7.48s1.55-5.06,9-7.47a75.9,75.9,0,0,1,40.49,0c7.4,2.41,8.95,5.4,8.95,7.47s-1.55,5.06-8.95,7.48A67.83,67.83,0,0,1,255.05,355.13Zm0-18.43c-16,0-27.17,4.32-27.17,8.2s11.16,8.2,27.17,8.2,27.16-4.32,27.16-8.2S271.06,336.7,255.05,336.7Z"/><path class="cls-2" d="M136.17,341.66v7c0,5.09,12.62,9.21,28.18,9.21s28.18-4.12,28.18-9.21v-7Z"/><path class="cls-3" d="M164.35,358.9a67.86,67.86,0,0,1-20.24-2.74c-7.4-2.42-9-5.4-9-7.48v-7a1,1,0,0,1,1-1h56.36a1,1,0,0,1,1,1v7c0,2.08-1.56,5.06-9,7.48A67.86,67.86,0,0,1,164.35,358.9Zm-27.17-16.23v6c0,3.88,11.16,8.2,27.17,8.2s27.17-4.32,27.17-8.2v-6Z"/><ellipse class="cls-4" cx="164.35" cy="341.66" rx="28.18" ry="9.21"/><path class="cls-3" d="M164.35,351.89a67.83,67.83,0,0,1-20.24-2.75c-7.4-2.42-9-5.4-9-7.48s1.55-5.06,9-7.47a67.51,67.51,0,0,1,20.24-2.75,67.51,67.51,0,0,1,20.24,2.75c7.4,2.41,9,5.4,9,7.47s-1.56,5.06-9,7.48A67.83,67.83,0,0,1,164.35,351.89Zm0-18.43c-16,0-27.17,4.32-27.17,8.2s11.16,8.2,27.17,8.2,27.17-4.32,27.17-8.2S180.36,333.46,164.35,333.46Z"/><path class="cls-2" d="M70.08,336.74l5.39,4.49c3.91,3.25,15.15-3.8,25.11-15.77s14.86-24.29,11-27.55l-5.4-4.49Z"/><path class="cls-3" d="M78,343a4.79,4.79,0,0,1-3.16-1l-5.39-4.5a1,1,0,0,1-.36-.68,1,1,0,0,1,.23-.74l36.06-43.31a1,1,0,0,1,1.43-.13l5.39,4.49c1.6,1.32,2.9,4.43,0,11.66a67.86,67.86,0,0,1-10.84,17.31,67.55,67.55,0,0,1-15.06,13.8C82.56,342.25,79.89,343,78,343Zm-6.48-6.43,4.62,3.84c3,2.48,13.44-3.33,23.68-15.63a65.82,65.82,0,0,0,10.52-16.77c1.84-4.62,2.05-8.12.57-9.36l-4.62-3.84Z"/><ellipse class="cls-4" cx="88.11" cy="315.08" rx="28.18" ry="9.21" transform="translate(-210.4 181.17) rotate(-50.22)"/><path class="cls-3" d="M72.59,338.55a4.74,4.74,0,0,1-3.16-1c-1.6-1.32-2.89-4.42,0-11.66a67.86,67.86,0,0,1,10.84-17.31,67.8,67.8,0,0,1,15.07-13.8c6.59-4.14,9.88-3.42,11.47-2.09s2.89,4.43,0,11.66A67.86,67.86,0,0,1,96,321.62a67.8,67.8,0,0,1-15.07,13.8C77.17,337.76,74.49,338.55,72.59,338.55Zm31.06-44.9c-1.78,0-4.32,1-7.26,2.81a65.85,65.85,0,0,0-14.58,13.37A65.75,65.75,0,0,0,71.3,326.6c-1.84,4.63-2.06,8.12-.57,9.36s4.88.39,9.1-2.26a65.85,65.85,0,0,0,14.58-13.37c10.24-12.31,14.06-23.65,11.08-26.13A2.82,2.82,0,0,0,103.65,293.65Z"/><path class="cls-2" d="M162.7,312.15v7c0,5.08,12.62,9.21,28.18,9.21s28.18-4.13,28.18-9.21v-7Z"/><path class="cls-3" d="M190.88,329.39a67.83,67.83,0,0,1-20.24-2.75c-7.4-2.42-8.95-5.4-8.95-7.48v-7a1,1,0,0,1,1-1h56.36a1,1,0,0,1,1,1v7c0,2.08-1.56,5.06-9,7.48A67.83,67.83,0,0,1,190.88,329.39Zm-27.17-16.23v6c0,3.88,11.16,8.2,27.17,8.2s27.17-4.32,27.17-8.2v-6Z"/><ellipse class="cls-4" cx="190.88" cy="312.15" rx="28.18" ry="9.21"/><path class="cls-3" d="M190.88,322.37a67.51,67.51,0,0,1-20.24-2.75c-7.4-2.41-8.95-5.4-8.95-7.47s1.55-5.06,8.95-7.48a67.83,67.83,0,0,1,20.24-2.75,67.83,67.83,0,0,1,20.24,2.75c7.4,2.42,9,5.4,9,7.48s-1.56,5.06-9,7.47A67.51,67.51,0,0,1,190.88,322.37Zm0-18.42c-16,0-27.17,4.32-27.17,8.2s11.16,8.19,27.17,8.19,27.17-4.32,27.17-8.19S206.89,304,190.88,304Z"/><path class="cls-2" d="M256.31,247.18l-6.26,3.15c-4.55,2.29-2.56,15.41,4.43,29.32s16.34,23.32,20.89,21l6.27-3.15Z"/><path class="cls-3" d="M273.84,302c-2,0-4.81-1.15-8.72-5.09a75.93,75.93,0,0,1-18.19-36.17c-1.16-7.69.81-10.42,2.66-11.35l6.27-3.16a1,1,0,0,1,1.36.45l25.32,50.36a1,1,0,0,1-.45,1.36l-6.27,3.15A4.29,4.29,0,0,1,273.84,302Zm-18-53.5-5.36,2.7c-3.46,1.74-2.31,13.65,4.88,27.95s16.07,22.33,19.53,20.59l5.37-2.7Z"/><ellipse class="cls-4" cx="268.98" cy="272.35" rx="9.21" ry="28.18" transform="translate(-93.69 149.89) rotate(-26.7)"/><path class="cls-3" d="M280.11,298.89c-2,0-4.81-1.15-8.72-5.09a75.93,75.93,0,0,1-18.19-36.17c-1.16-7.7.81-10.42,2.66-11.36s5.22-.88,10.7,4.64a75.93,75.93,0,0,1,18.19,36.17c1.16,7.7-.8,10.42-2.66,11.36A4.45,4.45,0,0,1,280.11,298.89Zm-22.27-51a2.44,2.44,0,0,0-1.07.23c-1.72.87-2.31,4.33-1.56,9.25a73.83,73.83,0,0,0,17.62,35c3.51,3.53,6.63,5.12,8.35,4.26,3.47-1.75,2.31-13.66-4.88-28C269.76,255.66,261.83,247.85,257.84,247.85Z"/></svg>