<svg id="Capa_2" data-name="Capa 2" xmlns="http://www.w3.org/2000/svg" xmlns:xlink="http://www.w3.org/1999/xlink" viewBox="0 0 400 400"><defs><style>.cls-1{fill:#53a22f;}.cls-2{fill:#84e147;}.cls-3{fill:#feec30;}.cls-4{fill:#175807;}.cls-5{fill:#83e145;}.cls-6{fill:#0ef5dc;}.cls-7{fill:#08b99e;}.cls-8{fill:#05fadb;}.cls-9{fill:#60a92b;}.cls-10{fill:#ff663e;}.cls-11{fill:url(#linear-gradient);}.cls-12{fill:#060203;}.cls-13{fill:#fff;}.cls-14{fill:url(#linear-gradient-2);}.cls-15{fill:#bf0604;}.cls-16{fill:#84e246;}.cls-17{fill:#06002e;opacity:0.83;}.cls-18{fill:#f2f2f2;}.cls-19{fill:#ccc;}.cls-20{fill:#ed1e79;}.cls-21{fill:#d4145a;}.cls-22{fill:#c1272d;}.cls-23{fill:none;}.cls-24{fill:#b3b3b3;}.cls-25{fill:#e6e6e6;}.cls-26{fill:#666;}</style><linearGradient id="linear-gradient" x1="166.51" y1="136.13" x2="166.51" y2="113.36" gradientUnits="userSpaceOnUse"><stop offset="0" stop-color="#e8af15"/><stop offset="0.04" stop-color="#d69a16"/><stop offset="0.11" stop-color="#b87817"/><stop offset="0.19" stop-color="#9e5b18"/><stop offset="0.28" stop-color="#8a4319"/><stop offset="0.39" stop-color="#7a3119"/><stop offset="0.51" stop-color="#6e241a"/><stop offset="0.66" stop-color="#681c1a"/><stop offset="1" stop-color="#661a1a"/></linearGradient><linearGradient id="linear-gradient-2" x1="261.66" y1="131.91" x2="261.66" y2="109.14" xlink:href="#linear-gradient"/></defs><title>i</title><path class="cls-1" d="M89,252.23c-3.08-3.79-4.36-8.73-5-13.57-2.25-15.75,1.71-32.94,11.82-44.87-22.21,12.3-26.61,49-10.28,60,7.26,4.89,14.43,7.19,20.72,7.28C99.7,259.5,93.11,257.35,89,252.23Z"/><path class="cls-2" d="M153.76,275.25S170.4,248,161,225s-31.3-42.09-58.94-33.88a31.86,31.86,0,0,0-6.37,2.68c-10.11,11.93-14.07,29.12-11.82,44.87.69,4.84,2,9.78,5,13.57,4.15,5.12,10.74,7.27,17.21,8.88,9.14.13,16.4-4.41,19.3-12.49,4-11.15-.48-19.14-4.67-20.26a21,21,0,0,1-5.89,16.94c-1.8,1.78-4.15,3.29-6.68,3.13a9.08,9.08,0,0,1-4.35-1.68C95.16,241,92.29,228.2,97.2,219s16.61-14,26.73-11.44c14.37,3.6,22.81,19.75,22.1,34.54s-8.45,28.29-17,40.41c-3,4.34-6.25,8.63-8.54,13.43-4.48,9.4-5.17,20.27-3.61,30.57.49,3.19,5.85,35.93,6.69,39l42.12-1.6-17.27-39.45a20.38,20.38,0,0,1-.9-9.7Z"/><path class="cls-3" d="M120.52,295.93c2.29-4.8,5.49-9.09,8.54-13.43,8.52-12.12,16.27-25.61,17-40.41s-7.73-30.94-22.1-34.54C113.81,205,102.12,209.78,97.2,219s-2,22,6.68,27.76a9.08,9.08,0,0,0,4.35,1.68c2.53.16,4.88-1.35,6.68-3.13a21,21,0,0,0,5.89-16.94,3.43,3.43,0,0,0-2.67.31c-4.43,2.6-2.2,18.21-11.16,15.41s-10-14.47-2.54-23.28,17.21-8.47,26.8-.61,11.41,27.72,3.56,39.07-18,17.24-24.12,27.87c-17.54,30.62-13.06,55.31-5.35,78.84l22.91-.05c-2.46-10.24-10.83-36.23-11.32-39.42C115.35,316.2,116,305.33,120.52,295.93Z"/><path class="cls-4" d="M105.32,367a1,1,0,0,1-1-.72c-.47-1.6-1-3.34-1.65-5.19-2.6-7.85-5.82-17.63-5.94-30-.13-14.61,4.13-29.16,13-44.46,3.32-5.7,7.68-10,12.3-14.56A92.36,92.36,0,0,0,134,258.69c7.5-10.84,5.77-30.23-3.36-37.71-9.53-7.82-18.55-7.65-25.38.47-4,4.73-5.61,10.58-4.24,15.26a9.13,9.13,0,0,0,6.3,6.4,4,4,0,0,0,3.2-.08c1.91-1.08,2.72-4.39,3.5-7.59s1.57-6.42,3.65-7.64c1.77-1,4-.69,5.95.93,3.75,3.12,6.25,10.78,2.86,20.23a19.25,19.25,0,0,1-12.34,12c-8.49,2.78-19.13.48-29.21-6.31-8.06-5.44-11.8-17.16-9.74-30.61a47.84,47.84,0,0,1,8.39-20.67,35.07,35.07,0,0,1,18.29-13.25A43.38,43.38,0,0,1,139,195.49c9.81,6.42,18,16.76,23,29.11s1.21,24.11-3.59,39.07c-4.26,13.31-9.57,29.87-9.58,51.36,0,20.3,17.59,48.08,17.76,48.36a1,1,0,1,1-1.7,1.09c-.74-1.15-18.1-28.55-18.09-49.46,0-21.79,5.38-38.52,9.68-52,4.67-14.58,8.36-26.1,3.65-37.69C151,203,129.63,184,102.39,192.08a33.12,33.12,0,0,0-17.23,12.51,45.76,45.76,0,0,0-8,19.78C75.21,237,78.61,248,86,253c9.55,6.44,19.55,8.64,27.44,6.06a17,17,0,0,0,11.06-10.77c3.07-8.54,1-15.31-2.25-18-1.29-1.07-2.61-1.34-3.63-.74-1.34.78-2,3.62-2.7,6.37-.89,3.62-1.8,7.36-4.47,8.87a5.93,5.93,0,0,1-4.81.26A11.21,11.21,0,0,1,99,237.28c-1.56-5.33.22-11.89,4.63-17.13,7.55-9,17.84-9.25,28.21-.74,10,8.21,11.91,28.62,3.75,40.43a94,94,0,0,1-12.1,13.66c-4.52,4.46-8.79,8.67-12,14.14-19.76,33.94-12,57.33-6.93,72.8.62,1.86,1.2,3.62,1.68,5.24a1,1,0,0,1-.69,1.26A.9.9,0,0,1,105.32,367Z"/><path class="cls-1" d="M164.28,261.42a141.38,141.38,0,0,0-5.45,37.39c.25,8.78-1.78,46-2,61.41a5.67,5.67,0,0,0,5.63,5.76l16,.12C169.23,337.41,163.23,291.78,164.28,261.42Z"/><path class="cls-5" d="M272.42,298.5c-.31-10.87-5.77-37.25-7-47-1.42-11.24-6-14.61-12.94-27-9-16-17-33.9-37.16-33.84-18,.07-22.84,13.89-32,33.84-2.87,6.23-9.76,13-13,20.24a121.88,121.88,0,0,0-6,16.69c-1.05,30.36,4.95,76,14.18,104.68,29.51,0,92.17,1,92.17,1C274.56,360.75,272.72,309.38,272.42,298.5Z"/><path class="cls-1" d="M253,224.84c-4.57-8.14-8.89-16.77-14.68-23.28-12.95-2.37-26.42-3.08-36.07,0a73.14,73.14,0,0,0-8.79,3.42c-3.23,5.43-6.11,12.18-9.64,19.84-2.87,6.23-9.76,13-13,20.24-1.34,3-2.52,6-3.57,8.92A65.42,65.42,0,0,1,179,242.66c11.78-8.76,20.78-10.12,37.88-10.49,11.38-.26,28.3-1,38.61-3.09C254.72,227.79,253.9,226.38,253,224.84Z"/><path class="cls-4" d="M271.25,366.85a1,1,0,0,1-.29-2c.36-.44,1.34-2.86,1.41-16,.05-8.81-.3-19.7-.61-29.3-.3-9.39-.56-17.51-.36-21.09.4-7.18-2.34-21.47-4.54-32.95-1.09-5.72-2-10.66-2.45-13.89-1-7.71-3.49-11.63-7.3-17.56-1.62-2.53-3.46-5.4-5.52-9.06l-2.25-4.07c-7.91-14.38-16.1-29.25-33.91-29.25h-.11c-16,.05-21.22,11.5-29.09,28.83-.65,1.43-1.32,2.91-2,4.41a59,59,0,0,1-6.13,9.48,63.35,63.35,0,0,0-6.86,10.76c-11.84,26.31-11.4,53.36-11.39,53.63.08,2.68-.26,8.28-.69,15.36-1,17.1-2.77,45.72,1.11,49.83a.72.72,0,0,0,.53.29h0a1,1,0,0,1,1,1,1,1,0,0,1-1,1h0a2.72,2.72,0,0,1-2-.92c-4.13-4.38-3.14-26.78-1.65-51.34.42-7,.76-12.59.68-15.18,0-.27-.46-27.8,11.57-54.52a64.51,64.51,0,0,1,7.08-11.13,57.53,57.53,0,0,0,5.92-9.12q1-2.26,2-4.41c7.91-17.39,13.62-30,30.93-30h.13c19,0,27.48,15.4,35.67,30.3q1.13,2,2.25,4.05c2,3.62,3.85,6.46,5.46,9,4,6.17,6.57,10.24,7.6,18.41.4,3.17,1.34,8.08,2.43,13.76,2.22,11.59,5,26,4.58,33.44-.2,3.5.06,11.57.36,20.92.32,10.08.69,21.5.6,30.55-.15,15.17-1.5,16.61-3,16.81Z"/><path class="cls-5" d="M243.38,215.94c17.17-6.16,28.73-17.58,37.4-27.28,16.88-18.89,20.57-39.53,17.62-60.15,7-39.81-11.62-59.24-17.36-68.79S253.65,45.55,236.93,33.6s-15-17.55-27.07-17.51c-12.46,0-20.22,15.92-26.44,20.7s-32.72,14.46-44,36.62c-11,21.65-13.5,24-11.12,50.34,1.9,21-2.33,45.53,29.56,72.36,8.23,6.91,18,15.25,31.89,22.22"/><path class="cls-6" d="M240.79,36.91C239,38.46,218,58.29,216.31,62.11s-8,1.79-11.23-3-14.93-20.22-26-19c10.39-5.46,16.87-24,30.06-24C221.44,16.07,237.45,35.59,240.79,36.91Z"/><path class="cls-1" d="M270.77,200.24c-12.28,1.16-44-3.79-47.53-2.45-3.83,1.43-28.91,2.86-47.61,2.39s-28.35-22-34.54-32-5.28-21.26-3-20.19,31.09,16.13,49.52-7.84c6-7.81,9.14-16.83,7.14-30.31s-33.65-42.71-27.36-51.78,21.66-8.12,29.3-2.87S213.92,69,212,64.11s-1.67-5.11.48-11.56-2.39-3.58-4.81-7.64,2.18-5.49,3.26-8.6-4.42-5.25-4.42-5.25-.72-4.3,3.4-10.52a6.64,6.64,0,0,0,1-4.44c-.33,0-.68,0-1,0-12.46,0-20.22,15.92-26.44,20.7s-32.72,14.46-44,36.62c-11,21.65-13.5,24-11.12,50.34,1.91,21.09-5.22,48.15,28.64,73.89,8.52,6.48,18,14.83,32.81,20.69l48.91-1c7.5-1.57,13.78-6.56,19.64-8.12C263.93,207,266.5,203.21,270.77,200.24Z"/><path class="cls-7" d="M205.08,59.12A11.5,11.5,0,0,0,212,64c-1.87-4.83-1.62-5,.52-11.45s-2.39-3.58-4.81-7.64,2.18-5.49,3.26-8.6-4.42-5.25-4.42-5.25-.72-4.3,3.4-10.52a6.58,6.58,0,0,0,1-4.31,14.07,14.07,0,0,0-1.43-.13c-6.79.21-12.18,5.1-16.68,10.23-2,2.35-3.95,4.82-5.94,7.07-.47.53-.92,1-1.36,1.49l-.19.19a.8.8,0,0,1-.13.13,24.84,24.84,0,0,1-6.12,4.89C190.15,38.9,201.86,54.34,205.08,59.12Z"/><path class="cls-8" d="M199.59,124.69c6.95-3.31-4.46-36.95-14.1-48.31-11.94-14.1-42.28-5.67-51.59,14.87s-3.58,23.57-3.58,23.57S142,92.05,155.24,91.25s28.58,3.34,33.08,18.53C190.81,118.18,197.92,125.49,199.59,124.69Z"/><path class="cls-4" d="M201.26,120.53a1,1,0,0,1-1-1c0-11.78-6.53-34.7-18.32-45.35-5.33-4.81-14.44-5.92-23.78-2.89a42.1,42.1,0,0,0-18,11.78,48.89,48.89,0,0,0-11.59,23.19,1,1,0,0,1-2-.42,50.8,50.8,0,0,1,12.07-24.14,44.14,44.14,0,0,1,18.86-12.33c10-3.26,19.91-2,25.77,3.3,12.22,11,19,34.72,19,46.86A1,1,0,0,1,201.26,120.53Z"/><path class="cls-4" d="M185.49,104.51a1.06,1.06,0,0,1-.45-.11,1,1,0,0,1-.45-1.36,33.46,33.46,0,0,1,9.61-11.11,1,1,0,1,1,1.16,1.66,32.13,32.13,0,0,0-9,10.36A1,1,0,0,1,185.49,104.51Z"/><path class="cls-4" d="M162.34,92.26a1,1,0,0,1-1-.8c-.11-.49-2.44-12,2.13-23.27a1,1,0,0,1,1.32-.55,1,1,0,0,1,.56,1.32c-4.34,10.65-2.05,22-2,22.08a1,1,0,0,1-.79,1.2A.71.71,0,0,1,162.34,92.26Z"/><path class="cls-4" d="M141.09,99.51a1,1,0,0,1-.75-.33c-.26-.28-6.46-7-6.18-12.68a1,1,0,1,1,2,.1c-.23,4.79,5.59,11.14,5.65,11.21a1,1,0,0,1-.06,1.43A1,1,0,0,1,141.09,99.51Z"/><ellipse class="cls-1" cx="160.81" cy="118.32" rx="28.98" ry="27.07"/><path class="cls-4" d="M160.81,146.41c-16.54,0-30-12.6-30-28.09s13.45-28.08,30-28.08,30,12.6,30,28.08S177.35,146.41,160.81,146.41Zm0-54.15c-15.42,0-28,11.69-28,26.06s12.55,26.06,28,26.06,28-11.69,28-26.06S176.23,92.26,160.81,92.26Z"/><ellipse class="cls-1" cx="162.34" cy="118.8" rx="23.16" ry="21.34"/><path class="cls-4" d="M162.34,140.54c-13,0-23.57-9.75-23.57-21.74s10.57-21.74,23.57-21.74,23.56,9.75,23.56,21.74S175.33,140.54,162.34,140.54Zm0-42.67c-12.55,0-22.75,9.39-22.75,20.93s10.2,20.93,22.75,20.93,22.75-9.39,22.75-20.93S174.88,97.87,162.34,97.87Z"/><ellipse class="cls-5" cx="165.42" cy="119.52" rx="17.19" ry="16.32"/><path class="cls-4" d="M165.42,136.24c-9.7,0-17.59-7.5-17.59-16.72s7.89-16.73,17.59-16.73,17.6,7.5,17.6,16.73S175.12,136.24,165.42,136.24Zm0-32.64c-9.25,0-16.78,7.14-16.78,15.92s7.53,15.91,16.78,15.91,16.78-7.14,16.78-15.91S174.68,103.6,165.42,103.6Z"/><path class="cls-9" d="M272.54,80.89c-23.27,8-27.61,6.38-33.32,20.07s-2.17,5.86-4.48,21.62c-2,13.26,15.49,23.82,27,24.09,12.42.29,26.75-5,30.5-10.83,4.09-6.37,7.17-37.81,1.43-41.79S272.54,80.89,272.54,80.89Z"/><path class="cls-8" d="M231.94,124.37c-6.56-3.31,4.22-36.94,13.31-48.31C256.54,62,286,68.52,294.8,89.07s2.57,25.43,2.57,25.43-11-22.77-23.54-23.57-27,3.35-31.24,18.53C240.24,117.86,233.52,125.17,231.94,124.37Z"/><path class="cls-4" d="M230.36,120.21a1,1,0,0,1-1-1c0-12.13,6.39-35.79,17.93-46.84,6.14-5.86,16.41-7.55,26.18-4.3,14.3,4.76,24.32,18.43,27.49,37.5a1,1,0,0,1-2,.33c-3-18.31-12.58-31.39-26.14-35.91-9.06-3-18.54-1.51-24.14,3.85-11.14,10.65-17.3,33.59-17.3,45.37A1,1,0,0,1,230.36,120.21Z"/><path class="cls-4" d="M247.47,102a1,1,0,0,1-.92-.58,31.77,31.77,0,0,0-8.46-10.35,1,1,0,0,1,1.21-1.63,33.11,33.11,0,0,1,9.08,11.11,1,1,0,0,1-.48,1.35A1,1,0,0,1,247.47,102Z"/><path class="cls-4" d="M265.15,92h-.08a1,1,0,0,1-.93-1.09,56.88,56.88,0,0,0-3.31-21.91,1,1,0,1,1,1.89-.73A58.07,58.07,0,0,1,266.16,91,1,1,0,0,1,265.15,92Z"/><path class="cls-4" d="M282.64,92.26a1,1,0,0,1-.7-1.74c.06-.07,5-4.85,4.78-9.59a1,1,0,1,1,2-.09c.27,5.67-5.17,10.92-5.41,11.14A1,1,0,0,1,282.64,92.26Z"/><ellipse class="cls-1" cx="268.2" cy="114.1" rx="28.98" ry="27.07"/><path class="cls-4" d="M268.2,142.19c-16.54,0-30-12.6-30-28.09S251.66,86,268.2,86s30,12.6,30,28.08S284.74,142.19,268.2,142.19Zm0-54.15c-15.42,0-28,11.69-28,26.06s12.55,26.06,28,26.06,28-11.69,28-26.06S283.62,88,268.2,88Z"/><ellipse class="cls-1" cx="266.67" cy="114.58" rx="23.16" ry="21.34"/><path class="cls-4" d="M266.67,136.32c-13,0-23.56-9.75-23.56-21.74s10.57-21.74,23.56-21.74,23.57,9.75,23.57,21.74S279.67,136.32,266.67,136.32Zm0-42.67c-12.54,0-22.75,9.39-22.75,20.93s10.21,20.93,22.75,20.93,22.76-9.39,22.76-20.93S279.22,93.65,266.67,93.65Z"/><ellipse class="cls-5" cx="263.59" cy="115.3" rx="17.19" ry="16.32"/><path class="cls-4" d="M263.59,132c-9.7,0-17.59-7.51-17.59-16.73s7.89-16.73,17.59-16.73,17.6,7.5,17.6,16.73S273.29,132,263.59,132Zm0-32.65c-9.25,0-16.78,7.14-16.78,15.92s7.53,15.91,16.78,15.91,16.78-7.14,16.78-15.91S272.85,99.38,263.59,99.38Z"/><path class="cls-4" d="M189.79,219.34a1,1,0,0,1-.37-.07c-13.74-5.44-21.22-11.17-31.07-19.3-29.06-24-29.81-46.05-30.46-65.52-.13-3.7-.25-7.19-.55-10.61-2.23-24.64-.11-28.78,8.81-46.19l2.4-4.7C147.37,55.56,165.26,45.83,176,40a61.62,61.62,0,0,0,6.86-4,44.62,44.62,0,0,0,5.92-6.4c5.31-6.45,11.93-14.48,21.13-14.51H210c7.82,0,10.31,2.46,14.82,6.89a96.82,96.82,0,0,0,12.72,10.82c7.26,5.18,15.58,9,22.93,12.42,9.7,4.49,18.08,8.37,21.46,14,.75,1.25,1.74,2.68,2.87,4.34,7.25,10.56,20.72,30.2,14.65,65,3.44,24.4-2.58,45.38-17.9,62.37-9,10-19.87,20.09-37.83,26a1,1,0,1,1-.64-1.92c17.52-5.76,28.12-15.63,37-25.44C295,173,300.8,152.5,297.4,128.66a.86.86,0,0,1,0-.32c2.6-14.76,1.88-28.42-2.15-40.61-3.41-10.32-8.45-17.67-12.14-23C282,63,281,61.55,280.17,60.24,277.12,55.14,269,51.39,259.6,47c-7.43-3.43-15.85-7.32-23.26-12.61a98.85,98.85,0,0,1-13-11c-4.55-4.47-6.44-6.32-13.52-6.3-8.25,0-14.52,7.65-19.57,13.77A44.33,44.33,0,0,1,184,37.59a63.49,63.49,0,0,1-7.12,4.21c-10.48,5.7-28,15.24-36.56,32.06q-1.28,2.52-2.41,4.71c-8.92,17.41-10.77,21-8.6,45.09.32,3.47.44,7,.56,10.72.64,19,1.37,40.63,29.73,64,9.7,8,17.06,13.64,30.53,19a1,1,0,0,1-.38,2Z"/><ellipse class="cls-10" cx="165.42" cy="166.04" rx="13.64" ry="7.75"/><ellipse class="cls-10" cx="273.16" cy="162.66" rx="13.64" ry="7.75"/><path class="cls-4" d="M234.17,145.87a14.28,14.28,0,0,0-2-2.21,4.76,4.76,0,0,0-2.65-1.21,2,2,0,0,0-1.19.23,1,1,0,0,0-.47,1,1.53,1.53,0,0,0,.34.56,47.54,47.54,0,0,0,3.68,3.83,2.26,2.26,0,0,0,1.79.88,1.53,1.53,0,0,0,1-2,4.35,4.35,0,0,0-1.55-1.91,9.94,9.94,0,0,0-2.19-1.51,3.14,3.14,0,0,0-.78-.27.75.75,0,0,0-.79.24c-.17.33.12.7.39.95l2.69,2.52.92.86a10.4,10.4,0,0,0-2.72-3.46,3.68,3.68,0,0,1,1.63,1.54,1.14,1.14,0,0,0-.33-.53l.15.24"/><path class="cls-4" d="M207.71,144.52a25.33,25.33,0,0,0-6.43,4,5.83,5.83,0,0,0-1.19,1.48.69.69,0,0,0-.09.31c0,.22.22.37.42.46a3.43,3.43,0,0,0,2.88-.22,10,10,0,0,0,2.33-1.83l1.63-1.57a3.88,3.88,0,0,0,1.31-1.9.6.6,0,0,0-.14-.6.57.57,0,0,0-.51,0,4.91,4.91,0,0,0-2.06,1.63,11.88,11.88,0,0,1-2.14,1.8,7.17,7.17,0,0,0-2.26,1.77c.2.28.63.09.9-.12l4.76-3.72"/><circle class="cls-11" cx="166.51" cy="124.74" r="11.39"/><path class="cls-4" d="M166.51,137.14a12.4,12.4,0,1,1,12.4-12.4A12.41,12.41,0,0,1,166.51,137.14Zm0-22.77a10.38,10.38,0,1,0,10.37,10.37A10.38,10.38,0,0,0,166.51,114.37Z"/><circle class="cls-12" cx="167.3" cy="124.74" r="7.18"/><circle class="cls-13" cx="171.51" cy="119.12" r="2.42"/><circle class="cls-14" cx="261.66" cy="120.52" r="11.39"/><path class="cls-4" d="M261.66,132.92a12.4,12.4,0,1,1,12.39-12.4A12.41,12.41,0,0,1,261.66,132.92Zm0-22.77A10.38,10.38,0,1,0,272,120.52,10.39,10.39,0,0,0,261.66,110.15Z"/><circle class="cls-12" cx="262.45" cy="120.52" r="7.18"/><circle class="cls-13" cx="266.66" cy="114.9" r="2.42"/><path class="cls-15" d="M219.91,188.36c3.31-2,3.22-6.4,1-9.13-1.63-2-3.68-2.12-6.06-1.65-2,.4-3.06,2.09-3.61,4a6.32,6.32,0,0,0,0,4.31,5,5,0,0,0,1.25,1.63A6.38,6.38,0,0,0,219.91,188.36Z"/><path class="cls-5" d="M216.91,190.19a7.55,7.55,0,0,1-5-1.93,5.91,5.91,0,0,1-1.49-2,7.09,7.09,0,0,1-.09-5c1-3.36,2.91-4.41,4.38-4.7,2.17-.44,4.94-.6,7,2a7.93,7.93,0,0,1,1.7,6.25,6.35,6.35,0,0,1-3,4.38h0A6.83,6.83,0,0,1,216.91,190.19Zm0-11.83a9.53,9.53,0,0,0-1.86.21c-1.34.27-2.29,1.37-2.83,3.27a5.25,5.25,0,0,0,0,3.62,4.17,4.17,0,0,0,1,1.3,5.38,5.38,0,0,0,6.16.74h0a4.27,4.27,0,0,0,2-3,6,6,0,0,0-1.27-4.64A3.78,3.78,0,0,0,216.93,178.36Z"/><path class="cls-4" d="M216.91,190.19a7.55,7.55,0,0,1-5-1.93,5.91,5.91,0,0,1-1.49-2,7.09,7.09,0,0,1-.09-5c1-3.36,2.91-4.41,4.38-4.7,2.17-.44,4.94-.6,7,2a7.93,7.93,0,0,1,1.7,6.25,6.35,6.35,0,0,1-3,4.38h0A6.83,6.83,0,0,1,216.91,190.19Zm0-11.83a9.53,9.53,0,0,0-1.86.21c-1.34.27-2.29,1.37-2.83,3.27a5.25,5.25,0,0,0,0,3.62,4.17,4.17,0,0,0,1,1.3,5.38,5.38,0,0,0,6.16.74h0a4.27,4.27,0,0,0,2-3,6,6,0,0,0-1.27-4.64A3.78,3.78,0,0,0,216.93,178.36Z"/><path class="cls-16" d="M178.46,233.6s-29.52,15.71-36.81,35-16.06,97.45-16.06,97.45l35.2-.18s-2.88-46.22-2-54.07,2.43-32.33,2.43-32.33"/><path class="cls-1" d="M141.65,268c-3.2,8.49-13.15,78.91-16.06,98.11l17.57-.13s-.65-80.46,8.87-92.54c8-10.19,12.93-19.08,21.33-26.87L181,231.21S148.94,248.66,141.65,268Z"/><path class="cls-4" d="M160.79,366.28a1,1,0,0,1-1-.95c-.12-1.89-2.88-46.4-2-54.25s2.41-32,2.42-32.27a1,1,0,0,1,1.08-.95,1,1,0,0,1,.94,1.07c0,.25-1.53,24.59-2.43,32.38s2,53.43,2,53.9a1,1,0,0,1-.94,1.07Z"/><path class="cls-4" d="M125.6,366.22h-.12a1,1,0,0,1-.89-1.12c0-.2,2.23-19.74,5.29-41.39,4.13-29.12,7.77-48,10.82-56.08S151,251,162.18,242.42A128.65,128.65,0,0,1,178,232.05a1,1,0,1,1,.95,1.79c-.29.16-29.27,15.76-36.34,34.51-7.17,19-15.91,96.2-16,97A1,1,0,0,1,125.6,366.22Z"/><path class="cls-1" d="M279,304.56a121,121,0,0,0-10.38-27c1.49,10.57,4,28.73,4.65,34.19.91,7.85-2.6,55.33-2.6,55.33h15.83c-.13-4-.93-9.81-1.13-13.77C284.52,336.92,283.08,320.45,279,304.56Z"/><path class="cls-16" d="M290.4,268.56c-7.3-19.34-33.31-36.18-33.31-36.18l10.39,37.39s.45,3.17,1.1,7.8a121,121,0,0,1,10.38,27c4.12,15.89,5.56,32.36,6.37,48.76.2,4,.33,9.81.45,13.77h20.67S297.69,287.89,290.4,268.56Z"/><path class="cls-4" d="M271.25,366.85h-.06a1,1,0,0,1-.95-1.08c0-.46,2.87-46.22,2-53.89s-5.7-41.63-5.75-42a1,1,0,1,1,2-.29c0,.35,4.86,34.25,5.76,42s-1.86,52.37-2,54.26A1,1,0,0,1,271.25,366.85Z"/><path class="cls-4" d="M306.45,367.11a1,1,0,0,1-1-.9l-.2-1.75a1,1,0,0,1,2-.23l.2,1.76a1,1,0,0,1-.9,1.12Z"/><path class="cls-4" d="M306.25,365.36a1,1,0,0,1-1-.9c-1.48-12.9-9.23-78.14-15.79-95.54-2-5.41-7-14.13-19.12-24.94a127.69,127.69,0,0,0-13.79-10.75,1,1,0,0,1,1.1-1.7c1.07.7,26.38,17.25,33.7,36.67,6.65,17.63,14.43,83.09,15.92,96a1,1,0,0,1-.89,1.12Z"/><rect class="cls-17" x="145.45" y="246.99" width="141.62" height="99.97" rx="15.38"/><path class="cls-18" d="M215.2,260.2h-.61c-27.56.13-50.08,9-42.62,13.53s27.1-3.6,42.93-3.71c15.83.11,35.47,8.25,42.93,3.71S242.77,260.33,215.2,260.2Z"/><path class="cls-19" d="M178.41,276.32a13.58,13.58,0,0,1-7.08-1.55c-2.21-1.35-2.15-3-1.91-3.84,1.68-6,23.57-11.83,45.09-11.94h.78c21.52.11,43.41,5.91,45.09,11.94.23.86.3,2.49-1.92,3.84-4.76,2.9-13.34,1.21-23.27-.76-6.81-1.34-13.85-2.73-20.3-2.77s-13.48,1.43-20.28,2.77C188.51,275.22,182.92,276.32,178.41,276.32Zm36.48-7.51c6.7,0,13.85,1.45,20.77,2.82,9,1.78,17.58,3.47,21.54,1.06,1-.59.87-1,.83-1.11-.95-3.42-18.37-10.05-42.83-10.16h-.6c-24.46.11-41.88,6.74-42.84,10.16,0,.13-.14.52.84,1.11,4,2.41,12.5.72,21.53-1.06C201.05,270.26,208.21,268.85,214.89,268.81Z"/><path class="cls-18" d="M215.2,279.23h-.61c-27.56.13-50.08,9-42.62,13.52s27.1-3.6,42.93-3.7c15.83.1,35.47,8.24,42.93,3.7S242.77,279.36,215.2,279.23Z"/><path class="cls-19" d="M178.41,295.35a13.58,13.58,0,0,1-7.08-1.56c-2.21-1.35-2.15-3-1.91-3.83,1.68-6,23.57-11.83,45.08-11.95h.8c21.51.12,43.4,5.92,45.08,11.95.23.85.3,2.48-1.92,3.83-4.76,2.9-13.34,1.21-23.27-.75-6.81-1.35-13.85-2.74-20.3-2.78s-13.48,1.43-20.28,2.78C188.51,294.24,182.92,295.35,178.41,295.35Zm36.27-14.91h-.08c-24.46.12-41.88,6.74-42.84,10.17,0,.12-.14.51.84,1.1,4,2.41,12.5.73,21.53-1.06,6.92-1.36,14.08-2.78,20.76-2.82s13.85,1.46,20.77,2.82c9,1.79,17.58,3.47,21.54,1.06,1-.59.87-1,.83-1.1-.95-3.43-18.37-10.05-42.83-10.17h-.52Z"/><path class="cls-18" d="M215.2,298.25h-.61c-27.56.13-50.08,9-42.62,13.53s27.1-3.61,42.93-3.71c15.83.1,35.47,8.24,42.93,3.71S242.77,298.38,215.2,298.25Z"/><path class="cls-19" d="M178.41,314.37a13.58,13.58,0,0,1-7.08-1.56c-2.21-1.34-2.15-3-1.91-3.83C171.1,303,193,297.15,214.5,297h.8c21.51.11,43.4,5.91,45.08,11.94.23.85.3,2.49-1.92,3.83-4.76,2.9-13.34,1.21-23.27-.75-6.81-1.34-13.85-2.73-20.3-2.77s-13.48,1.43-20.28,2.77C188.51,313.27,182.92,314.37,178.41,314.37Zm36.48-7.52c6.7,0,13.85,1.46,20.77,2.83,9,1.78,17.58,3.47,21.54,1.06,1-.6.87-1,.83-1.11-.95-3.43-18.37-10.05-42.83-10.16h-.6c-24.46.11-41.88,6.73-42.84,10.16,0,.13-.14.51.84,1.11,4,2.41,12.5.72,21.53-1.06C201.05,308.31,208.21,306.9,214.89,306.85Z"/><path class="cls-18" d="M215.16,317.27h-.53c-24.14.13-43.87,9-37.34,13.53s23.74-3.6,37.61-3.71c13.86.11,31.07,8.25,37.61,3.71S239.31,317.4,215.16,317.27Z"/><path class="cls-19" d="M246.86,333.39c-4,0-8.89-1.1-14.25-2.31-6-1.34-12.1-2.73-17.72-2.77s-11.76,1.43-17.71,2.77c-8.76,2-16.32,3.68-20.58.72a3.39,3.39,0,0,1-1.63-4c1.22-3.95,9.55-6.89,13.08-8a95.07,95.07,0,0,1,26.49-3.8h.72a95.07,95.07,0,0,1,26.49,3.8c3.53,1.08,11.86,4,13.08,8a3.39,3.39,0,0,1-1.63,4A10.92,10.92,0,0,1,246.86,333.39Zm-32-7.51c5.9,0,12.18,1.46,18.26,2.83,7.86,1.77,15.28,3.44,18.66,1.09.9-.62.76-1.05.7-1.25-1-3.39-16.42-9.95-37.35-10.06h-.52c-20.94.11-36.3,6.67-37.35,10.06-.07.2-.2.63.69,1.25,3.39,2.35,10.81.68,18.67-1.09C202.72,327.34,209,325.92,214.89,325.88Z"/><rect class="cls-18" x="209.11" y="247.5" width="10.97" height="101.05"/><path class="cls-19" d="M220.09,349.77h-11a1.22,1.22,0,0,1-1.21-1.22V247.5a1.22,1.22,0,0,1,1.21-1.22h11a1.22,1.22,0,0,1,1.21,1.22V348.55A1.22,1.22,0,0,1,220.09,349.77Zm-9.76-2.44h8.54V248.71h-8.54Z"/><path class="cls-19" d="M220.28,261.21H209.5a1,1,0,0,1,0-2h10.78a1,1,0,1,1,0,2Z"/><path class="cls-19" d="M220.28,275.62H209.5a1,1,0,0,1,0-2h10.78a1,1,0,0,1,0,2Z"/><path class="cls-19" d="M220.28,290H209.5a1,1,0,0,1,0-2h10.78a1,1,0,0,1,0,2Z"/><path class="cls-19" d="M220.28,304.44H209.5a1,1,0,0,1,0-2h10.78a1,1,0,1,1,0,2Z"/><path class="cls-19" d="M220.28,318.85H209.5a1,1,0,1,1,0-2h10.78a1,1,0,1,1,0,2Z"/><path class="cls-19" d="M220.28,333.26H209.5a1,1,0,0,1,0-2h10.78a1,1,0,0,1,0,2Z"/><path class="cls-20" d="M211.27,284.88c6.71,2.34,14.42-.76,19.21-6,.37-.41.72-.83,1.06-1.25,1-3.63.82-7.25-1.45-10.1-7.31-9.24-15.2.57-15.2.57s-7.89-9.81-15.21-.57a9.16,9.16,0,0,0-1.41,2.5,18.77,18.77,0,0,0,3.56,7.3C204.3,280.58,207.41,283.53,211.27,284.88Z"/><path class="cls-21" d="M230.48,278.87c-4.79,5.25-12.5,8.35-19.21,6-3.86-1.35-7-4.3-9.44-7.56a18.77,18.77,0,0,1-3.56-7.3c-3.56,9.51,8.87,23.86,16.62,23.86,5.85,0,14.36-8.17,16.65-16.26C231.2,278,230.85,278.46,230.48,278.87Z"/><path class="cls-22" d="M214.89,294.9c-5.38,0-12.68-6-16.28-13.49-2.74-5.67-2.65-10.83.28-14.52,2.27-2.88,4.86-4.34,7.68-4.35h0c3.79,0,6.89,2.63,8.29,4,1.39-1.42,4.5-4,8.28-4h0c2.83,0,5.41,1.47,7.69,4.35,2.92,3.69,3,8.85.28,14.52C227.57,288.85,220.27,294.9,214.89,294.9Zm-8.29-30.33h0c-2.17,0-4.22,1.21-6.09,3.57-3.26,4.12-1.43,9.53,0,12.39,3.19,6.57,9.94,12.34,14.46,12.34s11.27-5.77,14.45-12.34c1.39-2.86,3.22-8.27,0-12.39-1.87-2.36-3.92-3.56-6.1-3.57h0c-4.08,0-7.46,4.12-7.49,4.16a1,1,0,0,1-.79.38h0a1,1,0,0,1-.79-.38S210.69,264.57,206.6,264.57Z"/><path class="cls-23" d="M214.07,322.92c-17.56-.14-34.83-4.5-51.46-10.13-4.27-1.44-8.54-3-12.74-4.7a3.21,3.21,0,0,0-4.42,3v29.72a7.8,7.8,0,0,0,7.8,7.8H279.31a7.75,7.75,0,0,0,7.76-7.76V307.64a3.21,3.21,0,0,0-4.66-2.87q-2,1-4.05,2C258.28,316.45,236.36,323.1,214.07,322.92Z"/><path class="cls-23" d="M145.45,250.2v53.91a3.23,3.23,0,0,0,2,3c5,2.12,10.08,4,15.19,5.72,16.63,5.63,33.9,10,51.46,10.13,22.29.18,44.21-6.47,64.29-16.15q3.52-1.69,7-3.53a3.21,3.21,0,0,0,1.71-2.84V258.27A11.28,11.28,0,0,0,275.79,247H148.67A3.22,3.22,0,0,0,145.45,250.2Z"/><path class="cls-24" d="M287.07,302.34V342a6.61,6.61,0,0,1-6.6,6.6H152.24a6.79,6.79,0,0,1-6.79-6.79V306.23l-6.47-3a0,0,0,0,0,0,0v48a3.9,3.9,0,0,0,3.9,3.9H289.28a4.28,4.28,0,0,0,4.28-4.28V298.82Z"/><path class="cls-25" d="M153,247H278.57a8.5,8.5,0,0,1,8.5,8.5V302.4l6.49-3.64V248.52a8.1,8.1,0,0,0-8.09-8.1H145.65a6.7,6.7,0,0,0-6.7,6.7v56l6.5,3.18V254.52A7.53,7.53,0,0,1,153,247Z"/><path class="cls-26" d="M280.26,349.6h-128a7.83,7.83,0,0,1-7.82-7.82v-88a7.83,7.83,0,0,1,7.82-7.83h128a7.83,7.83,0,0,1,7.82,7.83v88A7.83,7.83,0,0,1,280.26,349.6ZM152.26,248a5.81,5.81,0,0,0-5.8,5.8v88a5.82,5.82,0,0,0,5.8,5.8h128a5.82,5.82,0,0,0,5.8-5.8v-88a5.81,5.81,0,0,0-5.8-5.8Z"/><path class="cls-26" d="M286.75,356.16h-141a7.83,7.83,0,0,1-7.83-7.82V247.24a7.84,7.84,0,0,1,7.83-7.83h141a7.84,7.84,0,0,1,7.83,7.83v101.1A7.83,7.83,0,0,1,286.75,356.16Zm-141-114.72a5.8,5.8,0,0,0-5.8,5.8v101.1a5.8,5.8,0,0,0,5.8,5.8h141a5.8,5.8,0,0,0,5.8-5.8V247.24a5.8,5.8,0,0,0-5.8-5.8Z"/></svg>