<svg xmlns="http://www.w3.org/2000/svg" xmlns:xlink="http://www.w3.org/1999/xlink" viewBox="0 0 400 400"><defs><style>.cls-1{fill:#5ea837;}.cls-2{fill:#7fe247;}.cls-3{fill:#175807;}.cls-4{fill:#ccc;}.cls-5{fill:#f2f2f2;}.cls-6{fill:#4d4d4d;}.cls-7{fill:#0bab92;}.cls-8{fill:#06f5e2;}.cls-9{fill:#53a22f;}.cls-10{fill:#295654;}.cls-11{fill:#83e145;}.cls-12{fill:url(#linear-gradient);}.cls-13{fill:#060203;}.cls-14,.cls-16{fill:#fff;}.cls-15{fill:url(#linear-gradient-2);}.cls-16{opacity:0.33;}.cls-17{fill:#333;}.cls-18{fill:#1a1a1a;}.cls-19{fill:#63aa35;}</style><linearGradient id="linear-gradient" x1="948.58" y1="-1097.22" x2="948.58" y2="-1117.73" gradientTransform="matrix(-1, -0.02, -0.02, 1, 1166.97, 1242.35)" gradientUnits="userSpaceOnUse"><stop offset="0" stop-color="#e8af15"/><stop offset="0.04" stop-color="#d69a16"/><stop offset="0.11" stop-color="#b87817"/><stop offset="0.19" stop-color="#9e5b18"/><stop offset="0.28" stop-color="#8a4319"/><stop offset="0.39" stop-color="#7a3119"/><stop offset="0.51" stop-color="#6e241a"/><stop offset="0.66" stop-color="#681c1a"/><stop offset="1" stop-color="#661a1a"/></linearGradient><linearGradient id="linear-gradient-2" x1="1039.93" y1="-1106.08" x2="1039.93" y2="-1125.54" xlink:href="#linear-gradient"/></defs><title>i</title><g id="Capa_3" data-name="Capa 3"><path class="cls-1" d="M120.33,210.82c-2.25-.61-3.59-2.89-4.14-5.19a13.83,13.83,0,0,1,.39,5.19,5.17,5.17,0,0,1-3.38,4.24,5.91,5.91,0,0,1-4.55-1.06,12.75,12.75,0,0,1-4.67-5.31,18.73,18.73,0,0,1-1,7.11,3.93,3.93,0,0,1-1.33,2.06c-1.4.94-3.3,0-4.51-1.18a12.47,12.47,0,0,1-3.49-6.54c.27,2.67-.54,5.44.12,8,1,4,5.36,6.46,9.5,7,2.52.3,5.26.14,7.36,1.57a5.13,5.13,0,0,0,.31,3.28,10.89,10.89,0,0,1,5.59-4.44c2.24-.94,4.62-1.54,6.78-2.64A16.5,16.5,0,0,0,131.93,211c.34-2.19.23-4.42.39-6.62a27.62,27.62,0,0,0-2.59,6.13s-.49,3.1-1.77-4.25q-.09-.54-.21-1.14a10.59,10.59,0,0,1-1.46,3.14C125,210.12,122.56,211.43,120.33,210.82Z"/><path class="cls-2" d="M116.19,205.63c0-.16-.06-.32-.1-.47C116.12,205.31,116.16,205.47,116.19,205.63Z"/><path class="cls-1" d="M120.32,258.66c-5.48,1.79-11.62.25-16.41-3,4.25,8.06,9,12.68,15.79,12.71,8.31.05,12.45-8,10.9-13.94-.34-1.34-.75-2.69-1.15-4,0,0,0,0,0,.06A15.3,15.3,0,0,1,120.32,258.66Z"/><path class="cls-2" d="M137.92,198a18.73,18.73,0,0,0-5.6,6.38c-.16,2.2,0,4.43-.39,6.62a16.5,16.5,0,0,1-8.66,11.94c-2.16,1.1-4.54,1.7-6.78,2.64A10.89,10.89,0,0,0,110.9,230a5.13,5.13,0,0,1-.31-3.28c-2.1-1.43-4.84-1.27-7.36-1.57-4.14-.51-8.46-2.92-9.5-7-.66-2.6.15-5.37-.12-8a12.47,12.47,0,0,0,3.49,6.54c1.21,1.18,3.11,2.12,4.51,1.18a3.93,3.93,0,0,0,1.33-2.06,18.73,18.73,0,0,0,1-7.11,12.75,12.75,0,0,0,4.67,5.31,5.91,5.91,0,0,0,4.55,1.06,5.17,5.17,0,0,0,3.38-4.24,13.83,13.83,0,0,0-.39-5.19c0-.16-.07-.32-.1-.47,0,.15.07.31.1.47.55,2.3,1.89,4.58,4.14,5.19s4.62-.7,6-2.58a10.59,10.59,0,0,0,1.46-3.14c-1.43-7.48-4.92-19.2-11.33-14.37l-3.24,4.86s-3.89-5.08-8.73-1.79-4.67,6-4.67,6-7.89-3.34-13.1,5.68c0,0-4.71,8.54.59,20.9S96,237.7,101,249.51q1.41,3.33,2.88,6.14c4.79,3.26,10.93,4.8,16.41,3a15.3,15.3,0,0,0,9.11-8.23s0,0,0-.06c-1.37-4.71-2.55-9.38-.16-12.87,3.08-4.48,6.47-9.06,6.89-14.14S137.74,213,142.54,206,146.25,196,137.92,198Z"/><path class="cls-3" d="M119.46,269.38a13.66,13.66,0,0,1-4.3-.68c-5.72-1.9-9-7.87-11.82-13.13-.67-1.24-1.31-2.41-2-3.48-.92-1.53-1.82-3.07-2.73-4.6-2.09-3.54-4.24-7.19-6.49-10.69-3.47-5.41-7.41-11.54-8.57-18.45-1.06-6.31.77-14.83,7.31-18.63a10.85,10.85,0,0,1,7.93-1.34,8,8,0,0,1,5.87,5.66,12.76,12.76,0,0,1,.12,3.84c0,.58-.09,1.13-.09,1.67a25,25,0,0,0,.24,2.93,23.2,23.2,0,0,1,.26,3.36c0,2.9-1.26,5.23-3.24,6.25a5.11,5.11,0,0,1-4,.24,7.31,7.31,0,0,1-4.17-3.63c-1.39-2.78-1.18-6-1-8.62a1,1,0,0,1,1.08-.94,1,1,0,0,1,.94,1.07c-.16,2.49-.34,5.3.8,7.58a5.36,5.36,0,0,0,3,2.61,3.17,3.17,0,0,0,2.44-.11c1.54-.79,2.12-2.83,2.14-4.48a22,22,0,0,0-.24-3.08,25.42,25.42,0,0,1-.26-3.19c0-.61.05-1.22.09-1.81a10.5,10.5,0,0,0-.07-3.23,5.89,5.89,0,0,0-4.38-4.15,8.83,8.83,0,0,0-6.42,1.13c-5.71,3.31-7.28,10.89-6.33,16.54,1.09,6.5,4.91,12.44,8.28,17.68,2.26,3.54,4.43,7.21,6.53,10.76.9,1.53,1.8,3.06,2.72,4.58.66,1.11,1.31,2.3,2,3.56,2.68,4.93,5.72,10.53,10.68,12.17a11.86,11.86,0,0,0,9.79-1.1,7.15,7.15,0,0,0,2-1.76,8.4,8.4,0,0,0,1.29-2.89,17.78,17.78,0,0,0,0-9.87c-.2-.6-.41-1.19-.61-1.76-1-2.71-1.89-5.27-1.28-8.56.57-3.11,2.35-5.71,4.07-8.22a22.83,22.83,0,0,0,3.63-6.83,22.44,22.44,0,0,0,.52-4.19c.07-1,.13-2,.29-3.05.85-5.63,4.18-10.36,7.41-14.93.29-.43.59-.85.88-1.27.8-1.14,1.06-1.93.8-2.41a1.81,1.81,0,0,0-.92-.68c-2.55-1.11-6-.24-8.41,2.11s-3.69,5.93-4.44,8.69l-.18.67a15.91,15.91,0,0,1-2,5.11c-1.76,2.55-4.71,3.85-7.09,4.68l-1.56.54a21.91,21.91,0,0,0-5.57,2.43c-1.79,1.23-3.42,3.48-3,5.73a1,1,0,1,1-2,.36c-.61-3.36,1.7-6.28,3.86-7.76a23.54,23.54,0,0,1,6.06-2.69l1.54-.52c2.08-.73,4.66-1.85,6.1-3.92a14.3,14.3,0,0,0,1.74-4.49l.18-.68c.83-3,2.14-6.8,5-9.59,3.5-3.43,7.86-3.74,10.64-2.53a3.73,3.73,0,0,1,1.89,1.57c1,1.82-.4,3.8-.92,4.55l-.89,1.26c-3.09,4.39-6.28,8.92-7.06,14.07-.14.94-.2,1.88-.26,2.88a18.46,18.46,0,0,1-4.51,12c-1.67,2.45-3.25,4.76-3.75,7.45s.28,5,1.19,7.5c.22.6.43,1.2.64,1.82a19.85,19.85,0,0,1,0,11,10.44,10.44,0,0,1-1.62,3.58,9.1,9.1,0,0,1-2.62,2.27A13.89,13.89,0,0,1,119.46,269.38Z"/><path class="cls-3" d="M112.73,219.64a8.15,8.15,0,0,1-1.19-.09,9,9,0,0,1-7.38-9.82,1,1,0,1,1,2,.26,7,7,0,0,0,5.68,7.56,4.06,4.06,0,0,0,5-4,13.81,13.81,0,0,0-.57-5,80.16,80.16,0,0,0-3.71-11.19,7.5,7.5,0,0,0-1.64-2.74c-1.59-1.46-4.21-1.09-5.88,0-2,1.28-3.24,3.44-4.32,5.58a1,1,0,0,1-1.37.44,1,1,0,0,1-.44-1.36c1.15-2.28,2.65-4.81,5-6.36s6-2,8.36.2a9.5,9.5,0,0,1,2.14,3.46,81.67,81.67,0,0,1,3.8,11.48,16,16,0,0,1,.63,5.72,6.64,6.64,0,0,1-3.29,5.19A6.05,6.05,0,0,1,112.73,219.64Z"/><path class="cls-3" d="M122.65,215.39a6.53,6.53,0,0,1-2.44-.44,5.21,5.21,0,0,1-3.4-4.46,1,1,0,0,1,2-.08,3.23,3.23,0,0,0,2.12,2.66,5.8,5.8,0,0,0,4-.11,3.46,3.46,0,0,0,1.5-.89,4.59,4.59,0,0,0,.69-3,35.87,35.87,0,0,0-2.73-13.25,11.44,11.44,0,0,0-2.14-3.59,4.26,4.26,0,0,0-3.27-1.43,4.4,4.4,0,0,0-2.92,1.72,13.73,13.73,0,0,0-1.92,3.5,1,1,0,0,1-1.86-.8,15.7,15.7,0,0,1,2.22-4,6.32,6.32,0,0,1,4.32-2.45,6.25,6.25,0,0,1,4.89,2,13.2,13.2,0,0,1,2.55,4.22,38.06,38.06,0,0,1,2.89,14,6.39,6.39,0,0,1-1.2,4.39,5.34,5.34,0,0,1-2.34,1.46A8.8,8.8,0,0,1,122.65,215.39Z"/><path class="cls-3" d="M94.31,217.7h-.15a6.76,6.76,0,0,1-4.71-3.07,1,1,0,1,1,1.72-1.07,4.71,4.71,0,0,0,3.28,2.13,1,1,0,0,1-.14,2Z"/><path class="cls-4" d="M147.44,283.92c10-14.38,20-28.81,28.14-44.3,2.53-4.81,4.86-10.65,2.88-15.52,6.26,2.59,6.69,13.77,5.56,19.28-1,4.83-3.22,9.31-5.59,13.63a202.09,202.09,0,0,1-16.18,24.93c-2.62,3.45-5.79,6.58-8.25,10.05-2.75,3.85-4.53,7.9-8.46,10.83s-10,4.09-14.17,1.43C137.53,298.18,142.5,291,147.44,283.92Z"/><path class="cls-5" d="M127,288.51c1.85-9.09,6.85-17.21,12.1-24.86,4.87-7.09,10-14,15.19-20.86l6.9-9.21a34.43,34.43,0,0,1,6.83-7.46c2.73-2,6.26-3.18,9.54-2.33a7.1,7.1,0,0,1,.92.31c2,4.87-.35,10.71-2.88,15.52-8.15,15.49-18.16,29.92-28.14,44.3-4.94,7.11-9.91,14.26-16.07,20.33-.26-.16-.51-.34-.76-.53C126.3,300.31,125.88,293.89,127,288.51Z"/><path class="cls-6" d="M136.86,306.78a10.89,10.89,0,0,1-6.88-2.27c-1.89-1.49-6.06-6.06-4-16.2,2-9.67,7.36-18.1,12.25-25.23s10.14-14.12,15.22-20.9l6.9-9.21a35.5,35.5,0,0,1,7-7.67c3.32-2.43,7.11-3.34,10.39-2.5,3.51.91,6,4,7.09,9a1,1,0,0,1-.77,1.21,1,1,0,0,1-1.21-.77c-.66-2.93-2.17-6.62-5.61-7.5-2.7-.7-5.86.1-8.69,2.17a33.65,33.65,0,0,0-6.62,7.25l-6.9,9.2c-5.07,6.76-10.31,13.76-15.17,20.83s-10,15.19-11.94,24.49c-.48,2.35-1.66,10.32,3.27,14.21,3,2.37,8.67,2.82,13.69-.92,2.7-2,4.35-4.61,6.1-7.36.68-1.06,1.37-2.16,2.14-3.24,1.38-1.93,3-3.77,4.52-5.56,1.27-1.46,2.58-3,3.75-4.51a200.18,200.18,0,0,0,12.17-18,1,1,0,1,1,1.74,1,202.32,202.32,0,0,1-12.3,18.16c-1.21,1.59-2.54,3.13-3.83,4.61-1.51,1.75-3.08,3.55-4.4,5.41-.74,1-1.42,2.11-2.08,3.15-1.77,2.79-3.6,5.67-6.6,7.9A16,16,0,0,1,136.86,306.78Z"/><path class="cls-5" d="M247.49,291.76c4.47-10.59,11.32-20.26,14-31.44,1.53-6.49,1.52-13.57-1.41-19.56-.56-1.15-1.42-2.38-2.69-2.5a4.15,4.15,0,0,0-2.68,1.1l-21,15.26a4.84,4.84,0,0,1-3,1.25c-2.83-.16-3.2-4.49-5.61-6a288.07,288.07,0,0,0-6.55,77.3c.2,4.11.44,8.5-1.66,12.05-1.5,2.53-4,4.28-6.45,5.91a256.88,256.88,0,0,1-22.61,13.4c-4-10.11,2.14-21.05,5.71-31.34,4.62-13.29,4.88-27.62,6.5-41.59a212.39,212.39,0,0,1,11.67-49c-6.2.07-12.07,3.11-16.72,7.22s-8.24,9.25-11.79,14.34c-4.47-8.52-6.14-17.38-8.84-26.62-4,4.42-6.89,18.17-8.3,25.29-6.27,31.89-9.41,71.76-5.76,104.05,0,0,13.6,8.9,44.76,8.9,30.52,0,48.7-8.77,48.7-8.77-.39-6.42-13.61-12.87-13.77-19.31C239.62,324.79,240.89,307.41,247.49,291.76Z"/><path class="cls-4" d="M274.41,238c-1.65-3-4.33-9.28-6-12.33-4.51-8.52-58.19,13.95-86.23-1.85-2.08-1.17-7,5-8.3,6.46,2.7,9.23,4.83,19.48,9.3,28,3.55-5.09,7.14-10.23,11.79-14.34s10.52-7.15,16.72-7.22a212.39,212.39,0,0,0-11.67,49c-1.62,14-1.88,28.3-6.5,41.59-3.57,10.29-9.75,21.23-5.71,31.34a256.88,256.88,0,0,0,22.61-13.4c2.45-1.63,4.95-3.38,6.45-5.91,2.1-3.55,1.86-7.94,1.66-12.05a288.07,288.07,0,0,1,6.55-77.3c2.41,1.48,2.78,5.81,5.61,6a4.84,4.84,0,0,0,3-1.25l21-15.26a4.15,4.15,0,0,1,2.68-1.1c1.27.12,2.13,1.35,2.69,2.5,2.93,6,2.94,13.07,1.41,19.56-2.65,11.18-9.5,20.85-14,31.44-6.6,15.65-7.87,33-7.47,50,.16,6.44,1.27,16.91,1.65,23.34l12.12-4a229.3,229.3,0,0,1,15.14-76.24c2.91-7.6,6.26-15.11,7.91-23.08S278.3,245.11,274.41,238Z"/><path class="cls-2" d="M235.87,191.69c-7.08,5.38-10.05,16.88-17.46,21.55-3.9,2.45-8.48,2.62-12.84,2.19a36.27,36.27,0,0,1-10.32-2.54,8.67,8.67,0,0,0-.32,3.05c4.52,56.94,62.46.15,62.46.15,0-10.93,0-22.14-2.43-32.58a34.23,34.23,0,0,1-6.1,2.89C244.46,188,239.76,188.73,235.87,191.69Z"/><path class="cls-1" d="M248.25,168.66A16.23,16.23,0,0,0,242,165.6c-4-1.22-8.14-2.21-12.26-1.78-8.07.85-15.21,7.14-20.16,15s-8,17.13-11.06,26.3c-.87,2.64-2.53,5.13-3.25,7.8a36.27,36.27,0,0,0,10.32,2.54c4.36.43,8.94.26,12.84-2.19,7.41-4.67,10.38-16.17,17.46-21.55,3.89-3,8.59-3.73,13-5.29a34.23,34.23,0,0,0,6.1-2.89,61.42,61.42,0,0,0-1.78-6.31C252.07,173.94,250.6,170.72,248.25,168.66Z"/><path class="cls-3" d="M213.22,242.31a17.62,17.62,0,0,1-6.22-1.06c-7.58-2.84-12-11.33-13.08-25.23-.23-2.86,1-5.38,2.14-7.81a28.75,28.75,0,0,0,1.48-3.44c3-9.11,6.11-18.54,11.16-26.52,5.7-9,13.32-14.63,20.91-15.43,4.38-.47,8.67.6,12.66,1.81a17.09,17.09,0,0,1,6.65,3.27c2.76,2.42,4.3,6.28,5.22,9,4.26,12.5,4.26,26.69,4.27,39.22a1,1,0,0,1-.31.72,148.13,148.13,0,0,1-18.28,14.79C229.29,238.73,220.38,242.31,213.22,242.31Zm-17.28-26.45c1,13,5,20.95,11.77,23.49,16.6,6.21,45.39-20.57,48.67-23.69,0-12.26-.05-26.1-4.16-38.13-.84-2.48-2.24-6-4.64-8.11a15.14,15.14,0,0,0-5.9-2.85c-3.78-1.15-7.84-2.16-11.86-1.74-7,.74-14,6-19.41,14.5-4.92,7.77-8,17.08-10.95,26.08a32.28,32.28,0,0,1-1.57,3.68C196.79,211.38,195.75,213.54,195.94,215.86Z"/><path class="cls-2" d="M162.93,200.22c17.25,6.13,43.8,10.6,42.64,13.1S153.29,166.09,147.22,171s-1.17,7.53,31.57,22.42,69.37,1,90.28-24.59,17.89-73,19.27-87,2.74-11.38,4.09-14.74c-2.92-1.58-5.77-3.3-8.59-5l-9.76-5.92A42.68,42.68,0,0,0,265.93,52c-4.5-1.54-9.36-1.54-14.12-1.52l-22,.1a2.68,2.68,0,0,1-1.43-.27c-.88-.54-.82-1.85-.45-2.82,1.13-3,4-4.85,6.74-6.46s5.33-3,8.06-4.44c-3.33.75-6.11,1.36-7.84,1.65-7,1.19-25.12,2.71-39.9,5.93a38.23,38.23,0,0,0-22,13.37c-4.77,4.92-39.3,48-41.6,58.5s-5,35.9-5,35.9c-7.36.11-6.1,8.37-6.1,8.37-.49,3.86,9.39,19.2,13.87,22.9C140.87,188.76,149.55,195.47,162.93,200.22Z"/><path class="cls-7" d="M301.06,38.88a18,18,0,0,0-5.86-4.61,4.48,4.48,0,0,0,.41,3.34c1.89,3.62,4.88,5.91.22,9.18s-1.13,4.1-1.13,6.94-2.47,0-3.12,5,2.2,5,.85,8.39a70.75,70.75,0,0,0,9,4.17C303.57,58.59,305.34,44.09,301.06,38.88Z"/><path class="cls-8" d="M227.89,47.51c-.37,1-.43,2.28.45,2.82a2.68,2.68,0,0,0,1.43.27l22-.1c4.76,0,9.62,0,14.12,1.52a42.68,42.68,0,0,1,8.15,4.18l9.76,5.92c2.82,1.71,5.67,3.43,8.59,5,1.35-3.35-1.51-3.36-.85-8.39s3.12-2.18,3.12-5-3.52-3.67,1.13-6.94,1.67-5.56-.22-9.18a4.48,4.48,0,0,1-.41-3.34c-6.68-3.36-15.15-3.18-21.14-3.33s-21.23,3.4-31.37,5.67c-2.73,1.41-5.41,2.88-8.06,4.44S229,44.55,227.89,47.51Z"/><path class="cls-1" d="M288.34,81.87c-1.38,14,1.64,61.34-19.27,87s-57.55,39.48-90.28,24.59-37.65-17.5-31.57-22.42,38,6.74,43.36,5.58C193.27,176,174,163.46,139.81,163c-14.19-.18-15.54,2.66-14.89,7.08,10,21.77,31.46,25.57,53,35.49,33.66,15.51,100.49,5.8,118.06-28.88,6.42-12.67,15.24-25.71,1.8-31.6,1.53-9.4-.72-44.82.59-56,.47-4,1.82-10.63,3-17.78a70.75,70.75,0,0,1-9-4.17C291.08,70.49,289.73,67.87,288.34,81.87Z"/><path class="cls-9" d="M155.27,66.78S138,71.24,131.41,84.23s-8.34,28.18,6.58,45.38C138,129.61,174.14,103.73,155.27,66.78Z"/><path class="cls-3" d="M138,130a.41.41,0,0,1-.3-.14c-6.94-8-10.79-16.25-11.45-24.51-.55-6.87,1-13.85,4.8-21.33,6.58-13,24-17.6,24.13-17.65a.42.42,0,0,1,.46.21c9.83,19.25,4.57,35.46-1.57,45.66a65.53,65.53,0,0,1-15.83,17.68A.41.41,0,0,1,138,130Zm17.07-62.76c-2.36.69-17.37,5.43-23.29,17.15-3.71,7.34-5.26,14.18-4.72,20.9.63,8,4.33,16,11,23.75a65.38,65.38,0,0,0,15.33-17.24,46.78,46.78,0,0,0,6.75-19.69A45.18,45.18,0,0,0,155.06,67.26Z"/><path class="cls-1" d="M200.12,96.17c-1.17,14.27,1.64,33.31,15.37,45.88s33.27,15.46,44.29,9.79,18.05-18.26,9.65-42S203,60.43,200.12,96.17Z"/><path class="cls-8" d="M196.46,100.67c-.48,8,8.69,15.94,13.44,6.31S216.64,96,237,95.19s32.94,7.37,34.37,10.56,2.86,5.68,1.74,11.2,10.37,6.46,11.19,1.32C288.42,92.44,281,71,263.89,73.41c-3.73.52-9-.6-12.47-.2C217.3,77.15,198.21,71.83,196.46,100.67Z"/><path class="cls-9" d="M236.08,95c-12,.4-20.9-6-26.07,1s-9.35,28.8,9.79,42.74,37.06,4.17,42.46-.19a30,30,0,0,0,9.22-31.34C267.49,92.59,236.37,95,236.08,95Z"/><path class="cls-3" d="M240.79,147.07a36.4,36.4,0,0,1-21.71-7.43c-10.05-7.32-13.29-16.41-14.24-22.74-1.39-9.2,1.2-17.71,4.2-21.72,3.72-5,9.07-3.93,15.28-2.73A51.23,51.23,0,0,0,236,93.75h.05a83.82,83.82,0,0,1,17.1.74c11.16,1.76,17.71,5.9,19.48,12.32A31.16,31.16,0,0,1,263,139.41,36.62,36.62,0,0,1,240.79,147.07ZM216.9,93.9A6.65,6.65,0,0,0,211,96.64c-3.69,4.93-4.68,13.74-3.75,19.9.88,5.87,3.9,14.31,13.27,21.13,8,5.82,16.55,8,25.47,6.55a35.21,35.21,0,0,0,15.52-6.7,28.69,28.69,0,0,0,8.81-30.07c-1.85-6.75-10.54-9.47-17.51-10.57a80.9,80.9,0,0,0-16.57-.71h-.11a53.53,53.53,0,0,1-12.27-1.34A38.63,38.63,0,0,0,216.9,93.9ZM236.08,95Zm0,0Z"/><path class="cls-8" d="M141.35,72.07s6.6-18.45,17-20.39,18.82,2.71,18.31,18.64-2.46,22.61-7.8,27.82-10.45,12.57-13.06,8.24c0,0,5.74-15.37,3.23-23.23S151.35,62.65,141.35,72.07Z"/><path class="cls-1" d="M131.09,120.65s-2.85,11-.11,14.24,14.07-9.86,14.69-14.49S131.09,120.65,131.09,120.65Z"/><path class="cls-3" d="M238.37,211.5a1,1,0,0,1-1-.85,1,1,0,0,1,.83-1.17c.23,0,22.57-3.87,39.45-16.13A82,82,0,0,0,297,173.55c5.06-7.47,7.49-14.38,6.87-19.46-.47-3.79-2.65-6.48-6.46-8a1,1,0,0,1-.63-1c.63-5.85.4-12,.14-19-.46-12.2-1-27.38,2.7-48.59,5.79-32.91,3.48-36.38-1.45-40.09-12.08-9.43-36.49-3.65-51.08-.2l-2.74.65c-7,1.64-15.2,2.42-23.12,3.17-8.9.85-17.32,1.65-23.38,3.57C186.51,48.1,174.15,57.58,174,57.68a1,1,0,0,1-1.24-1.61c.52-.39,12.77-9.8,24.44-13.51,6.27-2,14.78-2.8,23.8-3.66,7.85-.75,16-1.52,22.85-3.13l2.73-.64c14.94-3.53,39.95-9.45,52.79.56,5.56,4.2,8.2,8,2.2,42.05-3.69,21-3.12,36.06-2.67,48.17a141.38,141.38,0,0,1-.07,18.59,11.45,11.45,0,0,1,7,9.34c1.53,12.38-12.54,30.64-27,41.15-17.29,12.55-40.09,16.46-40.31,16.49Z"/><path class="cls-3" d="M168.34,99.2a1,1,0,0,1-.61-.2,1,1,0,0,1-.2-1.42c9.51-12.63,7.62-29.19,6.81-34s-3.17-8.55-6.62-10.44A11.82,11.82,0,0,0,157.29,53c-8.35,3.54-15.89,21.4-16,21.58a1,1,0,1,1-1.87-.78c.32-.76,7.94-18.8,17.05-22.67a13.76,13.76,0,0,1,12.19.25c4,2.19,6.72,6.41,7.65,11.87.84,5,2.81,22.25-7.19,35.53A1,1,0,0,1,168.34,99.2Z"/><path class="cls-3" d="M285.63,112.45a1,1,0,0,1-1-1c-.22-7.4-.76-15.89-3.13-22.69-2.57-7.36-6.87-11.72-13.17-13.32-9.9-2.51-16.49-1.47-25.61,0a186.11,186.11,0,0,1-23.42,2.51c-9.06.37-15.49,4.52-19.11,12.35a31.84,31.84,0,0,0-2.79,11.81,1,1,0,0,1-1,1h0a1,1,0,0,1-1-1,33.17,33.17,0,0,1,3-12.66c2.73-5.9,8.57-13,20.86-13.52a182.75,182.75,0,0,0,23.2-2.49c9.36-1.47,16.12-2.54,26.42.08,14.79,3.76,17.31,20.44,17.82,37.91a1,1,0,0,1-1,1Z"/><path class="cls-3" d="M138,130.63a1,1,0,0,1-.63-.23c-.23-.18-5.5-4.52-8.74-14.24-3.15-9.47-5.65-21.9,3-34.08,8.38-11.78,17.71-13.85,18.1-13.93a1,1,0,1,1,.41,2c-.08,0-9,2-16.85,13.13-8.13,11.43-5.73,23.24-2.73,32.26s8,13.27,8.08,13.31a1,1,0,0,1-.64,1.8Z"/><path class="cls-3" d="M126.75,153.07a1,1,0,0,1-1-1c-.41-12.32,4.17-30.9,4.37-31.69a1,1,0,0,1,2,.49c0,.19-4.71,19.1-4.3,31.13a1,1,0,0,1-1,1Z"/><path class="cls-3" d="M206.71,214.36l-.2,0c-11.42-2.33-47.79-11.93-63.92-22.23a64.3,64.3,0,0,1-18.67-18.32c-4.38-6.63-6.34-12.71-5.24-16.27,1.58-5.1,5.5-7.32,23.5-6.1,48.64,2.86,64.93,9.06,74.66,12.77a59.29,59.29,0,0,0,6,2.06c25.75,6.6,40,5.2,54.56-5.35a1,1,0,1,1,1.19,1.64c-9.08,6.59-18,9.76-29.47,9.76-7.58,0-16.25-1.39-26.78-4.09a59.24,59.24,0,0,1-6.22-2.13c-9.62-3.66-25.73-9.8-74.07-12.64-19.57-1.32-20.56,1.87-21.43,4.68-1.79,5.77,7.31,22.23,23.06,32.29s51.91,19.63,63.24,21.94a1,1,0,0,1,.79,1.2A1,1,0,0,1,206.71,214.36Z"/><path class="cls-10" d="M164.44,127.49s-5.73,2.13-5.21,4S162.54,134,164.44,127.49Z"/><path class="cls-10" d="M178.52,128.7s.21,5.73,2.26,6S183.34,133.33,178.52,128.7Z"/><path class="cls-9" d="M264.25,119.56c-2.55,12.88-15.82,21.09-29.63,18.34s-22.93-15.4-20.37-28.27,9.41-13.11,23.48-13.28C255.87,96.13,266.81,106.69,264.25,119.56Z"/><path class="cls-3" d="M239.94,138.83a27.76,27.76,0,0,1-5.4-.53A26.72,26.72,0,0,1,218,127.8a23.2,23.2,0,0,1-4.12-18.25C216.5,96.21,224,96.11,237.73,95.94c10-.13,18.48,3.1,23.25,8.84a17.46,17.46,0,0,1,3.67,14.86h0C262.39,131,251.87,138.83,239.94,138.83Zm-1.65-42.08h-.55c-13.7.17-20.57.25-23.09,12.95a22.42,22.42,0,0,0,4,17.62A25.84,25.84,0,0,0,234.7,137.5c13.57,2.7,26.65-5.38,29.16-18a16.5,16.5,0,0,0-3.5-14.18C255.83,99.85,247.81,96.75,238.29,96.75Zm26,22.81h0Z"/><ellipse class="cls-11" cx="239.04" cy="114.74" rx="18.17" ry="20.53" transform="translate(114.25 348.69) rotate(-87.56)"/><path class="cls-3" d="M239.27,133.32c-.34,0-.67,0-1,0a22.2,22.2,0,0,1-14.55-6,17.48,17.48,0,0,1-5.58-13.4c.43-10.23,10.16-18.15,21.7-17.66S260.4,105.4,260,115.63h0C259.54,125.56,250.35,133.32,239.27,133.32ZM238.82,97c-10.65,0-19.48,7.42-19.88,16.91a16.65,16.65,0,0,0,5.34,12.78,21.36,21.36,0,0,0,14,5.82c11.07.47,20.45-7.1,20.86-16.88S250.89,97.47,239.8,97Zm20.74,18.64Z"/><path class="cls-9" d="M142.34,126.44s-8.74-5.58-9.76-18.1S137,86.62,145.36,79.67c10.94-9.12,12.88-2.5,12.88-2.5S167.09,96.83,142.34,126.44Z"/><path class="cls-3" d="M142.34,126.84a.39.39,0,0,1-.21-.06,25,25,0,0,1-10-18.41c-.92-11.33,3.43-21.09,12.93-29,4.71-3.92,8.41-5.51,11-4.71A3.83,3.83,0,0,1,158.62,77c.18.42,2.21,5.3,1.35,13.71-1.46,14.34-10.22,27.47-17.32,36A.4.4,0,0,1,142.34,126.84Zm12.39-51.59c-1.78,0-4.64,1-9.11,4.73C136.2,87.83,132.07,97.1,133,108.3a24.36,24.36,0,0,0,9.29,17.59c7-8.39,15.44-21.21,16.89-35.17.87-8.42-1.27-13.33-1.29-13.38l0,0a3,3,0,0,0-2-1.88A3.64,3.64,0,0,0,154.73,75.25Z"/><path class="cls-3" d="M149.87,69.57a.92.92,0,0,1-.36-.07,1,1,0,0,1-.59-1.3c5.18-13.72,13-18.05,13.31-18.22a1,1,0,0,1,1,1.78h0c-.07,0-7.48,4.21-12.37,17.15A1,1,0,0,1,149.87,69.57Z"/><path class="cls-3" d="M158,78.38a1,1,0,0,1-.87-1.54c7.72-12.63,17.47-12.93,18.37-12.93h.05a1,1,0,0,1,0,2h0c-.63,0-9.47.22-16.64,12A1,1,0,0,1,158,78.38Z"/><path class="cls-3" d="M221.15,92.28h-.05a1,1,0,0,1-1-1.06c.41-7.7-7.08-11.72-7.16-11.76a1,1,0,0,1-.43-1.37,1,1,0,0,1,1.37-.43c.35.18,8.72,4.64,8.24,13.67A1,1,0,0,1,221.15,92.28Z"/><path class="cls-3" d="M248.41,93.83a.83.83,0,0,1-.34-.07,1,1,0,0,1-.61-1.29C251.57,81.15,250,74.78,250,74.72a1,1,0,0,1,2-.53c.08.28,1.81,7-2.54,19A1,1,0,0,1,248.41,93.83Z"/><path class="cls-3" d="M265.62,100.06a1,1,0,0,1-.79-.37,1,1,0,0,1,.14-1.42c6-5,8.58-9.57,9.65-12.56a12.51,12.51,0,0,0,.88-5.35,1,1,0,0,1,2-.28c.05.38,1.22,9.53-11.25,19.75A1,1,0,0,1,265.62,100.06Z"/><path class="cls-11" d="M149.22,118.14c-8.16,4-11.81-2.92-12.86-6.86S136,92.62,146,86.8s15,3.86,15,3.86S156.73,109.18,149.22,118.14Z"/><path class="cls-3" d="M144.61,119.77a7.27,7.27,0,0,1-3-.64c-3.79-1.72-5.28-6.36-5.65-7.74-1.22-4.59-.05-19.21,9.79-24.94,3.15-1.84,6.15-2.36,8.91-1.56a12,12,0,0,1,6.65,5.59.36.36,0,0,1,0,.27c0,.19-4.33,18.72-11.82,27.65a.32.32,0,0,1-.13.1A10.76,10.76,0,0,1,144.61,119.77Zm7.48-34.43a11.76,11.76,0,0,0-5.92,1.81c-10.11,5.89-10.29,20.76-9.42,24,.35,1.29,1.73,5.64,5.2,7.21,2,.91,4.37.72,7-.57,7-8.39,11.14-25.32,11.56-27.1a11.3,11.3,0,0,0-6.09-5A8.39,8.39,0,0,0,152.09,85.34Zm-2.87,32.8h0Z"/><path class="cls-3" d="M132.65,136.58a1,1,0,0,1-.69-1.76l1.27-1.17c14.18-13.12,23.55-21.79,26.18-41.83a22.64,22.64,0,0,0-10.15-22.39,1,1,0,0,1,1-1.75c.14.07,13.3,7.94,11.14,24.41-2.73,20.76-12.31,29.63-26.81,43l-1.27,1.17A1,1,0,0,1,132.65,136.58Z"/><path class="cls-3" d="M278.2,169.9a.85.85,0,0,1-.23,0,1,1,0,0,1-.76-1.22c.85-3.59.58-6.1-.79-7.45-2-1.93-5.76-1-5.8-1a1,1,0,0,1-.5-2c.2-.05,4.93-1.2,7.72,1.54,1.91,1.89,2.37,5,1.34,9.37A1,1,0,0,1,278.2,169.9Z"/><path class="cls-3" d="M297.77,146.15a1,1,0,0,1-.38-.08,21.1,21.1,0,0,0-6.26-1.81,1,1,0,0,1,0-2h0c.1,0,2.39.06,7,2a1,1,0,0,1,.55,1.32A1,1,0,0,1,297.77,146.15Z"/><circle class="cls-12" cx="239.5" cy="117.13" r="10.26"/><path class="cls-10" d="M239.5,128.4h-.21a11.28,11.28,0,0,1-11.06-11.48h0A11.27,11.27,0,1,1,239.5,128.4ZM230.26,117a9.24,9.24,0,0,0,15.65,6.83A9.24,9.24,0,1,0,230.26,117Z"/><circle class="cls-13" cx="239.66" cy="117.02" r="7.11"/><circle class="cls-14" cx="234.48" cy="113.59" r="2.66"/><path class="cls-15" d="M155.92,102.66c.28-.73.58-1.46.9-2.17a9.73,9.73,0,1,0-7.42,16.33c.3-.46.6-.92.88-1.39,1.13-1.83,2.19-3.7,3.23-5.57a28.06,28.06,0,0,0,1-3C155,105.5,155.36,104,155.92,102.66Z"/><path class="cls-10" d="M149.4,117.84h0a10.74,10.74,0,0,1,.32-21.48h.2a10.67,10.67,0,0,1,7.67,3.44,1,1,0,0,1,.18,1.1c-.3.69-.6,1.41-.87,2.12v0a35,35,0,0,0-1.11,3.37c-.08.26-.15.52-.23.78a30.62,30.62,0,0,1-1.07,3.06l0,.1c-1,1.81-2.11,3.75-3.25,5.61-.3.47-.6,1-.9,1.41A1,1,0,0,1,149.4,117.84Zm.29-19.46a8.72,8.72,0,0,0-.82,17.4c.18-.3.37-.59.55-.88,1.12-1.82,2.19-3.71,3.18-5.49a28.83,28.83,0,0,0,1-2.8l.23-.77a35,35,0,0,1,1.17-3.55c.2-.53.41-1.05.64-1.58a8.67,8.67,0,0,0-5.77-2.32Zm6.23,4.28h0Z"/><path class="cls-13" d="M152.58,110.71l.28-.6c.81-1.8,1.71-3.64,2.38-5.54l.33-1,0-.09a6.75,6.75,0,1,0-5.89,10.26,6,6,0,0,0,1.2-.1C151.5,112.68,152.05,111.7,152.58,110.71Z"/><circle class="cls-14" cx="145.78" cy="104.06" r="2.66"/><path class="cls-16" d="M144.88,131.73l-28.58-3.79a12.19,12.19,0,0,1-10.73-13.65l1.21-8.51a12.47,12.47,0,0,1,14.13-10.36l28.58,3.78a12.2,12.2,0,0,1,10.72,13.65l-1.2,8.51A12.48,12.48,0,0,1,144.88,131.73Z"/><path class="cls-16" d="M227.57,142.53,199,138.74a12.19,12.19,0,0,1-10.73-13.65l1.21-8.51a12.47,12.47,0,0,1,14.13-10.36L232.18,110a12.2,12.2,0,0,1,10.72,13.65l-1.2,8.51A12.48,12.48,0,0,1,227.57,142.53Z"/><path d="M146.59,132.85a14.33,14.33,0,0,1-1.84-.12L116.16,129a13.54,13.54,0,0,1-9.08-5.23,12.79,12.79,0,0,1-2.51-9.57l1.21-8.51A13.5,13.5,0,0,1,121,94.41l28.58,3.79a13.5,13.5,0,0,1,9.09,5.23,12.75,12.75,0,0,1,2.51,9.56L160,121.51A13.44,13.44,0,0,1,146.59,132.85Zm-27.4-36.53a11.41,11.41,0,0,0-11.41,9.6l-1.2,8.51a10.72,10.72,0,0,0,2.11,8.06,11.5,11.5,0,0,0,7.74,4.45L145,130.72h0a11.46,11.46,0,0,0,13-9.5l1.21-8.51a10.74,10.74,0,0,0-2.12-8.06,11.55,11.55,0,0,0-7.73-4.45l-28.59-3.78A12,12,0,0,0,119.19,96.32Z"/><path d="M229.28,143.65a14.33,14.33,0,0,1-1.84-.12l-28.59-3.78a13.57,13.57,0,0,1-9.08-5.23,12.79,12.79,0,0,1-2.51-9.57l1.21-8.51a13.5,13.5,0,0,1,15.26-11.23L232.31,109a13.5,13.5,0,0,1,9.09,5.23,12.75,12.75,0,0,1,2.51,9.56l-1.21,8.52A13.44,13.44,0,0,1,229.28,143.65Zm-27.4-36.53a11.41,11.41,0,0,0-11.41,9.6l-1.2,8.51a10.72,10.72,0,0,0,2.11,8.06,11.5,11.5,0,0,0,7.74,4.45l28.58,3.78h0a11.46,11.46,0,0,0,13-9.5l1.21-8.51a10.74,10.74,0,0,0-2.12-8.06,11.55,11.55,0,0,0-7.73-4.45l-28.59-3.78A12.08,12.08,0,0,0,201.88,107.12Z"/><path d="M188.08,117.88a1,1,0,0,1-.66-.25,28.89,28.89,0,0,0-26.08-5.78,1,1,0,1,1-.54-1.95,31,31,0,0,1,27.95,6.2,1,1,0,0,1-.67,1.78Z"/><path d="M299.12,145.11a1,1,0,0,1-1-1c0-1.17-1.73-2-3.17-2.46-17.15-5.68-35.18-9.52-52.6-13.25a1,1,0,0,1-.78-1.2,1,1,0,0,1,1.2-.78c17.48,3.74,35.56,7.6,52.82,13.31,3,1,4.55,2.47,4.56,4.37a1,1,0,0,1-1,1Z"/><path class="cls-6" d="M253.79,362.1h0a1,1,0,0,1-1-1A229.42,229.42,0,0,1,268,284.48q.87-2.25,1.77-4.51c2.35-6,4.79-12.1,6.09-18.42a41.1,41.1,0,0,0-2.37-23.23c-.68-1.73-1.25-3.32-1.76-4.72-2.63-7.25-3.61-10-9.48-10-2.25,0-6.53,1.11-11.94,2.51-17,4.4-45.48,11.76-66.94-.33a2.8,2.8,0,0,0-2.76-.11c-6.08,2.8-11.72,22.36-13.5,31.39-7,35.31-9.1,74.09-5.75,103.75a1,1,0,0,1-2,.22c-3.37-29.84-1.21-68.86,5.78-104.36,1.57-8,7.27-29.45,14.64-32.84a4.87,4.87,0,0,1,4.6.18c20.75,11.69,48.73,4.46,65.44.14,5.77-1.5,9.94-2.57,12.45-2.57,7.29,0,8.74,4,11.39,11.3.5,1.39,1.07,3,1.74,4.67A43.24,43.24,0,0,1,277.83,262c-1.34,6.49-3.81,12.73-6.2,18.76-.59,1.5-1.18,3-1.76,4.49a227.22,227.22,0,0,0-15.07,75.9A1,1,0,0,1,253.79,362.1Z"/><path class="cls-17" d="M214.25,228.91a18,18,0,0,0-5.43-1.59c-4.92-.4-12,2.16-14.28,6.91-2.43,5,1.54,13.13,3.16,18.33a24.05,24.05,0,0,1,6.64-1,31.52,31.52,0,0,1,1.24-5.16C207.64,240.22,211.55,234.82,214.25,228.91Z"/><path class="cls-18" d="M214.25,228.91c-2.7,5.91-6.61,11.31-8.67,17.49a31.52,31.52,0,0,0-1.24,5.16,24.15,24.15,0,0,1,8,1.23c2.11-4.22,9.77-11.51,9.55-15.88C221.72,233.51,218,230.61,214.25,228.91Z"/><path d="M212.34,253.8a1.13,1.13,0,0,1-.32-.05,23.48,23.48,0,0,0-14-.22,1,1,0,0,1-1.26-.67c-.32-1-.73-2.15-1.16-3.36-1.82-5.05-4.08-11.32-1.94-15.71a13.15,13.15,0,0,1,6.67-5.87,18.28,18.28,0,0,1,8.6-1.61c4.77.4,13.71,4.7,14,10.55C223.06,240,220,244,217,247.92a40.26,40.26,0,0,0-3.72,5.32A1,1,0,0,1,212.34,253.8Zm-7.68-3.26a25.35,25.35,0,0,1,7.19,1,51.51,51.51,0,0,1,3.51-4.89c2.51-3.25,5.64-7.3,5.52-9.72-.22-4.42-8.12-8.29-12.15-8.63-4.63-.38-11.22,2.13-13.28,6.35-1.76,3.61.34,9.45,2,14.13.32.88.62,1.72.89,2.52A25.24,25.24,0,0,1,204.66,250.54Z"/><path class="cls-5" d="M255.92,219.79a14.35,14.35,0,0,0,.22-12.76c-14.95,7.27-32.83,14.33-46.93,20.2,3.94,6.36,14,11.86,18,18.22a166.69,166.69,0,0,0,24.06-20A25.63,25.63,0,0,0,255.92,219.79Z"/><path class="cls-4" d="M262.46,222.85a154.64,154.64,0,0,0-3.22-18.44h0c-3.08,1.7.37.93-3.1,2.62a14.35,14.35,0,0,1-.22,12.76,25.63,25.63,0,0,1-4.61,5.68,166.69,166.69,0,0,1-24.06,20l.05.07a2.58,2.58,0,0,0,1.39,1.31,3,3,0,0,0,2.13-.52l35.92-19.55c1-.54-2.53-1.15-2-2.06S262.6,224,262.46,222.85Z"/><path class="cls-6" d="M226.7,247.9a2.16,2.16,0,0,1-.66-.1,3.3,3.3,0,0,1-1.82-1.71c-1.66-2.9-4.75-5.73-7.75-8.46s-6.33-5.77-8.14-8.95a1,1,0,0,1-.09-.81,1,1,0,0,1,.55-.61c2.59-1.17,5.32-2.39,8.15-3.65,14-6.22,29.81-13.27,41.65-20.37a1,1,0,0,1,1.39.35,1,1,0,0,1,.1.79c.24,1.11.47,2.17.69,3.21a136.11,136.11,0,0,1,2.61,14.79,6.46,6.46,0,0,1-.47,3.92,6.6,6.6,0,0,1-2.64,2.3l-31.56,18.61A4.1,4.1,0,0,1,226.7,247.9Zm-16-19.27a47.12,47.12,0,0,0,7.16,7.51c3.11,2.83,6.33,5.77,8.14,8.94.14.25.41.71.63.78s.83-.26,1.07-.4l31.56-18.6a5.24,5.24,0,0,0,1.91-1.56,4.62,4.62,0,0,0,.21-2.7A132.2,132.2,0,0,0,258.79,208q-.24-1.09-.48-2.25c-11.78,6.89-27,13.69-40.55,19.7Z"/><path class="cls-4" d="M194.85,211l-.11-.14-.4.54a81.9,81.9,0,0,1,4.39,11.52,6.9,6.9,0,0,1,.4,2.29,6.49,6.49,0,0,1-1.06,2.91c-2.81,4.86-6.45,9-10.07,13.12-.53.6-1.08,1.21-1.66,1.8.59,1.21,1.18,2.42,1.76,3.63,6.89-6.47,15.24-12.3,21.34-19.56C204.64,222.63,198.51,216.51,194.85,211Z"/><path class="cls-5" d="M198.07,228.12a6.49,6.49,0,0,0,1.06-2.91,6.9,6.9,0,0,0-.4-2.29,81.9,81.9,0,0,0-4.39-11.52c-4.11,5.48-9.49,11.59-13.27,17.21a3.37,3.37,0,0,0-.68,1.52,3.41,3.41,0,0,0,.47,1.66L186.34,243c.58-.59,1.13-1.2,1.66-1.8C191.62,237.13,195.26,233,198.07,228.12Z"/><path class="cls-6" d="M188.1,247.69l-.18,0a1,1,0,0,1-.73-.55L180,232.23a3.44,3.44,0,0,1,.28-4.19c2.34-3.48,5.29-7.15,8.15-10.7,2-2.48,3.87-4.82,5.55-7.08a1,1,0,0,1,1.42-.21.94.94,0,0,1,.24.25l.1.14c2.87,4.31,7.72,9.67,14.44,15.92a1,1,0,0,1,.08,1.4c-4,4.72-8.87,8.86-13.63,12.86-2.62,2.2-5.33,4.48-7.78,6.79A1,1,0,0,1,188.1,247.69Zm6.61-35.1c-1.47,1.94-3.07,3.93-4.75,6-2.83,3.52-5.76,7.15-8.05,10.56a2.64,2.64,0,0,0-.51,1,2.81,2.81,0,0,0,.37,1.14L188.42,245c2.21-2,4.57-4,6.86-5.93A114.49,114.49,0,0,0,208,227.18,103.65,103.65,0,0,1,194.71,212.59Z"/><path class="cls-18" d="M205.3,252.34c1.63,5.38.45,11.15-.52,16.68a213.28,213.28,0,0,0-2.95,47.07c.25,5.12.66,10.38-.91,15.26-1.24,3.86-3.65,7.23-6,10.52L186,354.28l3.06,4.33,22-23.48s-4.77-54.49,1.3-82.35c0,0-2.34-5.26-6.3-5.84a5.32,5.32,0,0,0-1.26,2A6.36,6.36,0,0,0,205.3,252.34Z"/><path class="cls-17" d="M197.71,252.58s-15.75,34-24,84.33L186,354.28l8.94-12.41c2.37-3.29,4.78-6.66,6-10.52,1.57-4.88,1.16-10.14.91-15.26A213.28,213.28,0,0,1,204.78,269c1-5.53,2.15-11.3.52-16.68a6.36,6.36,0,0,1-.51-3.36,5.32,5.32,0,0,1,1.26-2C203.76,246.6,200.93,247.84,197.71,252.58Z"/><path d="M189,359.62H189a1,1,0,0,1-.75-.43L172.85,337.5a1.05,1.05,0,0,1-.17-.75c8.2-49.88,23.95-84.26,24.11-84.6a.64.64,0,0,1,.08-.14c2.95-4.33,6-6.39,9-6.12,4.66.42,7.3,6.23,7.41,6.48a1,1,0,0,1,.06.63c-6,27.38-1.33,81.5-1.28,82a1,1,0,0,1-.27.78l-22,23.48A1,1,0,0,1,189,359.62Zm-14.27-22.95L189.13,357,210,334.76c-.43-5.3-4.35-55.42,1.29-81.85-.54-1.06-2.62-4.74-5.61-5-2.21-.19-4.6,1.54-7.08,5.17C197.78,254.88,182.74,288.41,174.75,336.67Z"/><path class="cls-4" d="M293.56,283.05c-10-14.38-20-28.8-28.14-44.29-2.53-4.81-4.86-10.66-2.87-15.52-6.27,2.59-6.69,13.77-5.57,19.27,1,4.83,3.23,9.31,5.6,13.63a201.05,201.05,0,0,0,16.18,24.94c2.62,3.45,5.78,6.58,8.25,10.05,2.74,3.85,4.52,7.9,8.45,10.82s10,4.1,14.17,1.44C303.48,297.31,298.5,290.16,293.56,283.05Z"/><path class="cls-5" d="M314,287.65c-1.85-9.1-6.85-17.21-12.1-24.86-4.86-7.1-10-14-15.19-20.87l-6.9-9.21a34.61,34.61,0,0,0-6.83-7.45c-2.73-2-6.26-3.18-9.54-2.34a5.44,5.44,0,0,0-.91.32c-2,4.86.34,10.71,2.87,15.52,8.15,15.49,18.16,29.91,28.14,44.29,4.94,7.11,9.92,14.26,16.07,20.34a7.55,7.55,0,0,0,.76-.54C314.7,299.45,315.12,293,314,287.65Z"/><path class="cls-6" d="M304.14,305.92a16,16,0,0,1-9.28-3.16c-3-2.23-4.83-5.11-6.6-7.9-.66-1-1.34-2.11-2.08-3.15-1.32-1.85-2.89-3.66-4.4-5.4-1.29-1.49-2.62-3-3.83-4.62a202.06,202.06,0,0,1-12.29-18.15,1,1,0,1,1,1.73-1,203.78,203.78,0,0,0,12.17,18c1.17,1.54,2.48,3,3.75,4.51,1.55,1.78,3.15,3.63,4.52,5.56.77,1.08,1.47,2.18,2.14,3.24,1.75,2.75,3.4,5.35,6.1,7.36,5,3.74,10.69,3.29,13.69.92,4.93-3.89,3.75-11.86,3.27-14.21-1.9-9.3-7.16-17.52-11.94-24.49s-10.1-14.07-15.17-20.83l-6.9-9.21a33.88,33.88,0,0,0-6.62-7.25c-2.82-2.07-6-2.86-8.68-2.17-3.45.89-5,4.57-5.61,7.51a1,1,0,0,1-1.22.76,1,1,0,0,1-.76-1.21c1.12-5,3.57-8.12,7.08-9,3.28-.84,7.07.07,10.39,2.5a35.27,35.27,0,0,1,7,7.67l6.91,9.2c5.08,6.78,10.33,13.79,15.21,20.9S313,277.77,315,287.44c2.06,10.15-2.11,14.72-4,16.21A11,11,0,0,1,304.14,305.92Z"/><path class="cls-2" d="M244.87,346.63c2.79-.3,5.74-.43,8.09-2s3.77-4.47,5.58-6.79c2.67-3.42,6.48-5.72,10.14-8.06a219.4,219.4,0,0,0,26.87-20.21c4.19-3.69,8.48-8,9.23-13.53a17.61,17.61,0,0,0-1.41-8.76c-4.67.66-9.75,4.94-14.53,8.1,0,0-23.51,19.72-29.94,24.25s-14.31,1.54-23.51,0-23,11.43-26.57,14.37-5.65,7.35-6.63,11.29,6.21-.26,5.31,5,4.78,6.62,4.78,6.62a14.81,14.81,0,0,0,.57,4.34,43.34,43.34,0,0,1,3.33-2.89A56.09,56.09,0,0,1,244.87,346.63Z"/><path class="cls-19" d="M312.51,293.26c-2.66-5-7.93-7.08-11.29-6.61,1.12,2.84,4,6.44,3.56,9.42-.75,5.54-5,9.84-9.23,13.53a219.4,219.4,0,0,1-26.87,20.21c-3.66,2.34-7.47,4.64-10.14,8.06-1.81,2.32-3.12,5.17-5.58,6.79s-5.3,1.67-8.09,2a56.09,56.09,0,0,0-28.69,11.72,43.34,43.34,0,0,0-3.33,2.89,11.92,11.92,0,0,0,1.14,2.69c1.91,3.21,13.4-4.74,22.81-7.9s18-.26,21.58-1.09,12.95-12.09,18.3-18.47S318.86,305.3,312.51,293.26Z"/><path class="cls-3" d="M205,349.34h-.23a3.28,3.28,0,0,1-3-1.52c-1-1.84-.81-4.21.45-6.87,2.64-5.6,7.73-9.54,12.84-13,6.63-4.46,14.59-9,23.25-8.62a45,45,0,0,1,6,.77c3.06.54,5.95,1,8.83.58,4.17-.68,7.7-3.28,11.57-6.36,9.7-7.74,19.32-15.85,28.59-24.11a1,1,0,0,1,1.35,1.51c-9.3,8.29-18.95,16.42-28.68,24.18-3.15,2.52-7.47,6-12.51,6.78-3.21.52-6.41,0-9.49-.58a44.42,44.42,0,0,0-5.71-.75c-8.07-.33-15.67,4-22,8.28-4.87,3.28-9.71,7-12.14,12.16-.68,1.44-1.31,3.49-.49,5.07.13.24.61.41,1.25.43,1.58.06,3.39-.71,3.82-1.4a1,1,0,0,1,1.72,1.07C209.44,348.47,206.91,349.34,205,349.34Z"/><path class="cls-3" d="M211.68,357.62c-2.66,0-3.51-.75-4.81-3.06-1.48-2.64-.08-5.7.88-7.29A26.14,26.14,0,0,1,219,337.65a75.79,75.79,0,0,1,13.88-4.6,1,1,0,0,1,1.24.73,1,1,0,0,1-.73,1.23,75.06,75.06,0,0,0-13.51,4.47,24.16,24.16,0,0,0-10.44,8.84c-.59,1-1.86,3.44-.84,5.25s1.26,2.05,3.2,2h0a1,1,0,0,1,1,1,1,1,0,0,1-1,1Z"/><path class="cls-3" d="M216.88,364.85a6.16,6.16,0,0,1-4.77-2,6.32,6.32,0,0,1-.77-6.32,12.52,12.52,0,0,1,3.71-4.76c6-5.16,13.86-7.75,20.78-10a1,1,0,0,1,1.28.64,1,1,0,0,1-.65,1.28c-6.74,2.22-14.38,4.75-20.09,9.65a10.45,10.45,0,0,0-3.15,4,4.27,4.27,0,0,0,.44,4.27c1.19,1.41,3.33,1.46,4.8,1.07a17.54,17.54,0,0,0,4.42-2.12c.32-.2.65-.39,1-.58a43.06,43.06,0,0,1,22.93-5.76l2.67.15a24.36,24.36,0,0,0,8.26-.35c5.15-1.45,8.63-6.13,12-10.65.73-1,1.47-2,2.22-2.93,4.83-6.13,10.93-11.24,16.83-16.19,7.34-6.15,14.93-12.51,19.84-20.74,2.41-4,4.3-11.87,1.41-15.5a1,1,0,0,1,1.58-1.26c3.66,4.59,1.42,13.34-1.25,17.8-5.09,8.52-12.81,15-20.28,21.25-5.82,4.88-11.83,9.93-16.53,15.89-.74.93-1.48,1.93-2.19,2.89-3.57,4.79-7.27,9.75-13.08,11.39a26.67,26.67,0,0,1-8.94.43c-.86-.06-1.75-.12-2.61-.15a41,41,0,0,0-21.84,5.48q-.48.27-1,.57a18.77,18.77,0,0,1-4.95,2.34A8,8,0,0,1,216.88,364.85Z"/><path class="cls-4" d="M267.63,317.08a4.46,4.46,0,0,1,3.62-2.8,8.7,8.7,0,0,1,4.69.8,79.94,79.94,0,0,0,21-28.31l-.57.34c-8.91,5.38-24.35,21.83-24.35,21.83l-4.6-2.36L254.92,319s5.84-1.45,11.85,6.93a18.26,18.26,0,0,1,1.68,3,7.74,7.74,0,0,0,1-3.17C269.55,322.74,266.7,319.94,267.63,317.08Z"/><path class="cls-5" d="M312.77,285.34c-3.22-2.37-7.34-3.56-15.86,1.43a79.94,79.94,0,0,1-21,28.31,8.7,8.7,0,0,0-4.69-.8,4.46,4.46,0,0,0-3.62,2.8c-.93,2.86,1.92,5.66,1.82,8.66a7.74,7.74,0,0,1-1,3.17c4.13,9,3.33,23.14,3.33,23.14l14.27-17.17-1.64-3.3c11.56-7.6,22.14-21.35,27.34-28.43S316.05,287.77,312.77,285.34Z"/><path class="cls-6" d="M271.78,353.06a.92.92,0,0,1-.36-.07,1,1,0,0,1-.65-1A60.62,60.62,0,0,0,269,334.5c-1.14-4.52-2.59-7.74-4.57-10.13-2.43-2.95-5.84-4.53-8.89-4.15a1,1,0,0,1-.73-.19,1,1,0,0,1-.58-.28,1,1,0,0,1,0-1.43l11.32-11.67a3.19,3.19,0,0,1,1.7-1.07,3.15,3.15,0,0,1,2.35.79c9.09,6.86,13.71,18.66,17.42,28.15a1,1,0,0,1-.16,1l-14.27,17.16A1,1,0,0,1,271.78,353.06Zm-14.61-34.89a13,13,0,0,1,8.81,4.91c2.86,3.45,4.21,7.89,5,10.92a62.55,62.55,0,0,1,1.9,15.17l12-14.47c-3.58-9.15-8.08-20.33-16.54-26.71-.49-.37-.69-.43-.78-.41s-.45.33-.6.48Z"/><path class="cls-6" d="M284.41,332.59a1,1,0,0,1-.58-1.84,102,102,0,0,0,26.62-27.45c1.77-2.7,3.48-5.63,4-8.8a9.64,9.64,0,0,0-1.54-7.49,1,1,0,1,1,1.61-1.23,11.7,11.7,0,0,1,1.93,9.07c-.62,3.53-2.45,6.68-4.34,9.56a103.93,103.93,0,0,1-27.15,28A1,1,0,0,1,284.41,332.59Z"/><path class="cls-6" d="M272,310a1,1,0,0,1-.77-1.67A120.94,120.94,0,0,1,293.28,288a1,1,0,0,1,1.41.22,1,1,0,0,1-.22,1.42,118.84,118.84,0,0,0-21.71,19.93A1,1,0,0,1,272,310Z"/><path class="cls-4" d="M125.89,250.63a4.46,4.46,0,0,1,1,4.47,8.69,8.69,0,0,1-2.77,3.88,80.21,80.21,0,0,0,16.38,31.2c0-.22,0-.44-.05-.66-1-10.37-9.07-31.43-9.07-31.43l4.12-3.11-5.79-16.64s-1.23,5.88-11.39,7.65a17.87,17.87,0,0,1-3.39.24,7.81,7.81,0,0,0,2.42,2.27C120,249.9,123.73,248.55,125.89,250.63Z"/><path class="cls-5" d="M134.86,305.07c3.53-1.86,6.39-5.05,5.6-14.89A80.21,80.21,0,0,1,124.08,259a8.69,8.69,0,0,0,2.77-3.88,4.46,4.46,0,0,0-1-4.47c-2.16-2.08-5.93-.73-8.58-2.13a7.81,7.81,0,0,1-2.42-2.27C105,246,92.6,239.17,92.6,239.17l9.26,20.31,3.69,0c1.81,13.71,9.59,29.21,13.71,37S131.24,307,134.86,305.07Z"/><path class="cls-6" d="M114.2,261.11c-4.32,0-8.55-.33-12.42-.63a1,1,0,0,1-.85-.59l-9.25-20.3a1,1,0,0,1,.23-1.16,1,1,0,0,1,1.17-.16,60.88,60.88,0,0,0,16.54,6c4.57.94,8.1,1,11.11.29,3.71-.91,6.62-3.29,7.59-6.2a1,1,0,0,1,.49-.58,1,1,0,0,1,1.81.2l5.59,15.27a3.27,3.27,0,0,1,.22,2A3.11,3.11,0,0,1,134.7,257C128.43,260.25,121.2,261.11,114.2,261.11Zm-11.67-2.6c9.79.75,21.81,1.56,31.24-3.28.55-.28.69-.44.71-.53a1.85,1.85,0,0,0-.18-.74l-4.83-13.23a13.07,13.07,0,0,1-8.26,5.81c-4.35,1.07-8.93.35-12-.28a62.94,62.94,0,0,1-14.49-4.88Z"/><path class="cls-6" d="M131.76,306.69a12.33,12.33,0,0,1-7.08-2.41c-2.91-2.09-5-5.1-6.73-8.06a104,104,0,0,1-13.4-36.62,1,1,0,0,1,2-.33,101.93,101.93,0,0,0,13.14,35.91c1.66,2.77,3.56,5.58,6.17,7.46a9.68,9.68,0,0,0,7.41,1.87,1,1,0,0,1,.42,2A9.43,9.43,0,0,1,131.76,306.69Z"/><path class="cls-6" d="M139.91,287.55a1,1,0,0,1-1-.84,119.51,119.51,0,0,0-8.51-28.21,1,1,0,0,1,1.85-.82,120.86,120.86,0,0,1,8.65,28.68,1,1,0,0,1-.82,1.17Z"/></g></svg>