<svg id="Capa_2" data-name="Capa 2" xmlns="http://www.w3.org/2000/svg" xmlns:xlink="http://www.w3.org/1999/xlink" viewBox="0 0 400 400"><defs><style>.cls-1{fill:#84e147;}.cls-2{fill:#64a835;}.cls-3{fill:#feec30;}.cls-4{fill:#175807;}.cls-5{fill:#05fadb;}.cls-6{fill:#05baa0;}.cls-7{fill:#06fad6;}.cls-8{fill:#84e246;}.cls-9{fill:#64a933;}.cls-10{fill:url(#linear-gradient);}.cls-11{fill:#060203;}.cls-12{fill:#fff;}.cls-13{fill:url(#linear-gradient-2);}</style><linearGradient id="linear-gradient" x1="147.46" y1="139.57" x2="147.46" y2="115.7" gradientUnits="userSpaceOnUse"><stop offset="0" stop-color="#e8af15"/><stop offset="0.04" stop-color="#d69a16"/><stop offset="0.11" stop-color="#b87817"/><stop offset="0.19" stop-color="#9e5b18"/><stop offset="0.28" stop-color="#8a4319"/><stop offset="0.39" stop-color="#7a3119"/><stop offset="0.51" stop-color="#6e241a"/><stop offset="0.66" stop-color="#681c1a"/><stop offset="1" stop-color="#661a1a"/></linearGradient><linearGradient id="linear-gradient-2" x1="254.82" y1="134.46" x2="254.82" y2="110.58" xlink:href="#linear-gradient"/></defs><title>i</title><path class="cls-1" d="M269.75,248c-9.62-10.4-27.7-5.81-33.95-17.74-.14-2.45-.35-4.75-.63-6.93-17.87,9.18-39.14,10.66-58.44,17a117.61,117.61,0,0,0-32.94,17c-4.87,3.59-9.63,7.78-11.89,13.4-2.35,5.81-1.7,12.33-1.86,18.6,0,1.43-.12,2.85-.24,4.27h11.91l3.91,69.63s28.18,6.37,56.84,6.37a295.29,295.29,0,0,0,54.21-5.4l5.8-71.59,26.55,1S279.37,258.43,269.75,248Z"/><path class="cls-2" d="M131.9,271.83c2.26-5.61,7-9.81,11.89-13.4a117.58,117.58,0,0,1,32.94-17c19.3-6.34,40.57-7.82,58.44-17-3-23.37-14.06-31.29-32-31-19.58.31-27.23,12.85-28.46,22.95s-1.53,11.48-7.65,18.52-28.52,8.07-38.31,14.81-16.2,45-16.2,45H129.8c.12-1.42.21-2.84.24-4.26C130.2,284.16,129.55,277.65,131.9,271.83Z"/><path class="cls-3" d="M163.87,366.66c2.28-77,3.28-92.59,6.18-100.41s7.89-15.13,15.09-19.32a38.19,38.19,0,0,1,14.93-4.52,37.76,37.76,0,0,1,15.27,1c8.85,2.71,15.85,9.87,20.07,18.11s6,27.27,5.57,105.14c0,0-12.61,4.54-40.18,4.54S163.87,366.66,163.87,366.66Z"/><path class="cls-4" d="M256.67,364.3h-.08a1,1,0,0,1-.9-1.06l5.8-71.59a1,1,0,0,1,1-.9l25.2.93c-1.85-6.42-10.36-34.89-18.68-43.88-4.3-4.65-10.5-6.2-16.49-7.7-6.92-1.73-14.08-3.52-17.61-10.26a1.08,1.08,0,0,1-.11-.4c-1.51-26.26-10.95-37.33-31.61-37-18.33.29-26.22,11.6-27.49,22.08-.17,1.41-.31,2.69-.43,3.82-.76,7.08-1.07,10-6.53,16.29-3.45,4-11.14,5.92-19.27,8-6.85,1.73-13.94,3.53-18.38,6.58-8.4,5.77-15.81,36.14-17.29,42.56h27.89a1,1,0,0,1,1,.93l3.92,69.63a1,1,0,1,1-2,.11l-3.86-68.7h-28.2a1,1,0,0,1-1-1.2C112,291,120,254.42,130,247.55c4.73-3.26,12-5.09,19-6.87,7.82-2,15.22-3.84,18.27-7.35,5.05-5.82,5.3-8.18,6.06-15.21.12-1.14.26-2.42.43-3.84a26.55,26.55,0,0,1,7.63-15.73c5.31-5.22,12.64-7.94,21.78-8.08,10.61-.16,18.38,2.57,23.76,8.38,5.77,6.22,9,16.13,9.83,30.26,3.16,5.81,9.52,7.4,16.25,9.09,6.27,1.56,12.75,3.18,17.45,8.26,4.08,4.41,8.61,13.51,13.45,27,3.58,10,6,18.87,6.05,19a1,1,0,0,1-1,1.25l-25.6-.95-5.73,70.65A1,1,0,0,1,256.67,364.3Z"/><path class="cls-5" d="M190.64,37.39c-4.63,7-3.58,7.63,0,10.81s-1.72,7.11-1.34,11.26,2.82,1.57,3.89,6.38S191.1,79,191.1,79c4.27,1.54,8.63-1.89,11.68-5.26,7.12-7.86,13.15-17,20.81-24.18-12.33-7.75-21.37-19.42-32.43-19.67A7.3,7.3,0,0,1,190.64,37.39Z"/><path class="cls-6" d="M161.82,57.3c10,2.71,17.68,10.39,24.66,18A12.39,12.39,0,0,0,191.1,79s3.17-8.3,2.09-13.11-3.51-2.23-3.89-6.38,4.93-8.08,1.34-11.26-4.63-3.86,0-10.81a7.3,7.3,0,0,0,.52-7.55,18,18,0,0,0-8.93,2.28C170,38.59,160.61,55.89,157.7,57.17l.47.64C159,56.79,160.56,57,161.82,57.3Z"/><path class="cls-2" d="M147.79,81.79c3.06-11.92,17.77-20,26.28-13.11A68.28,68.28,0,0,0,191.1,79a12.39,12.39,0,0,1-4.62-3.66c-7-7.6-14.71-15.28-24.66-18-1.26-.34-2.84-.51-3.65.51l-.47-.64-.09,0c-2.8.93-13.39,6.16-19.21,13.18S128,82.83,128,82.83L137.6,80A30.7,30.7,0,0,1,147.79,81.79Z"/><path class="cls-2" d="M290.69,125.35c1.17-3.79,1.18-9.5-.05-17.81-1.73.69-4-.5-5.61-2.61-3.16-4.27-4.18-10.42-19.71-11.28s-31,13.7-36.74,20.17c-2.81,3.15-5.15,7-7.3,9.6a30,30,0,0,0-.3,4.21c20.28,42.91,59.56,13.88,59.56,13.88-.31,10.58,4,20.61,2.75,34.45s-22,34.5-47,40.58-65.31-.27-76.94-5.47-38.6-20.59-41.58-30.51,3.64-24.7,3.64-24.7c52.32,14.54,55.62-27.28,55.62-27.28l-2.57-8.47c-10.69-10.88-36.31-17.14-41.39-17.35-6.57-.27-16.25,4.5-18.9,14.14-.87,3.14-5.41,2.74-7.57,1.77.22,7.11,1.06,15.85,1.81,24.36,1.34,15.2-1.85,25.43-1.8,29.76s4.51,20.43,12.75,28.67,23.84,24,64,28.44,70.18-6.13,87-16.15,25.07-30.83,19.46-48.68C285.26,150.28,287.76,134.84,290.69,125.35Z"/><path class="cls-7" d="M188.1,124.27c-2.13-5.81-18.56-35-40.31-42.48A30.7,30.7,0,0,0,137.6,80L128,82.83s-12.26,3.11-16.45,13.61c-2.35,5.85-3.34,13.59-3.06,22.56,2.16,1,4.84,1,5.71-2.1,2.65-9.64,12.33-14.41,18.9-14.14,5.08.21,24.59,3.63,37.31,15.65,2.81,2.66,6.06,3.39,7.31,4.4C183.25,127.25,190.55,131,188.1,124.27Z"/><path class="cls-8" d="M147.79,81.79c21.75,7.47,38.18,36.67,40.31,42.48,2.45,6.69-4.85,3-10.37-1.46-1.25-1-.09-1.78-3.5-3.61l2.84,9.38s-3.3,41.82-55.62,27.28c0,0-6.61,14.77-3.64,24.7s30,25.31,41.58,30.51,52,11.56,76.94,5.47,45.74-26.75,47-40.58-3.06-23.87-2.75-34.45c0,0-39.28,29-59.56-13.88a30,30,0,0,1,.3-4.21c-2.25,2.72-4.29,4-6.45,1.7-4.21-4.56,1.95-16.92,11.3-31.45s33.81-21.06,33.81-21.06-9.07-11-28.95-19.21a50,50,0,0,1-7.4-3.89c-7.66,7.21-13.69,16.32-20.81,24.18-3.05,3.37-7.41,6.8-11.68,5.26a68.28,68.28,0,0,1-17-10.27C165.56,61.76,150.85,69.87,147.79,81.79Z"/><path class="cls-7" d="M284.14,87.08c-2.73-4.88-6.34-8.92-11-11.17,0,0-10.87-2.57-13.22-3.3,0,0-24.46,6.53-33.81,21.06s-15.51,26.89-11.3,31.45c2.16,2.34,4.2,1,6.45-1.7s4.49-6.45,7.3-9.6c5.75-6.47,21.22-21,36.74-20.17s16.55,7,19.71,11.28c1.57,2.11,3.88,3.3,5.61,2.61C289.61,100.61,287.56,93.18,284.14,87.08Z"/><path class="cls-8" d="M133.16,109.12c-7.94,3.5-11.35,11.47-6.63,21.53s21.08,15.77,32.25,11.69,9.58-16.84,8.94-20.48S150.88,101.32,133.16,109.12Z"/><path class="cls-8" d="M263.72,102.76c-10,0-23.15,3.25-25.72,16s3.69,20.19,15.39,21.63,18.72-4.65,22.34-12.43S279.17,102.75,263.72,102.76Z"/><path class="cls-4" d="M188.35,231.61a1.09,1.09,0,0,1-.39-.08c-.27-.08-1.43-.23-2.65-.39a173.88,173.88,0,0,1-30-6.34c-16-5.09-28-12.32-35.69-21.51-16.2-19.32-14.59-30.13-13-40.58a62.64,62.64,0,0,0,.91-9.34c0-4.13-.32-8.45-.66-13-1-12.71-2-27.12,3.79-42.12a27.25,27.25,0,0,1,17.44-16.47c9.64-3.14,20-1.38,25.29,2l2.28,1.44c10.2,6.37,27.26,17,33.64,39.67a1,1,0,0,1-.67,1.21,1,1,0,0,1-1.22-.68c-6.18-21.91-22.84-32.32-32.79-38.53l-2.3-1.45c-4.88-3.12-14.56-4.73-23.62-1.78A25.37,25.37,0,0,0,112.47,99c-5.67,14.58-4.6,28.75-3.66,41.25.34,4.61.67,9,.67,13.17a64.17,64.17,0,0,1-.93,9.63c-1.57,10.48-3,20.39,12.59,39,7.45,8.89,19.16,15.92,34.78,20.89a171.48,171.48,0,0,0,29.65,6.27,13.32,13.32,0,0,1,3.23.56,1,1,0,0,1,.42,1.33A1,1,0,0,1,188.35,231.61Zm-.45-.11,0,0Z"/><path class="cls-4" d="M236.33,228.42a1,1,0,0,1-1-.74,1,1,0,0,1,.7-1.2c49.56-13.07,54.9-33.95,54.6-48.51a91.09,91.09,0,0,0-2-17.33,58.2,58.2,0,0,1-1.36-16.89c.26-4.43.93-8.76,1.58-13,1.52-9.8,3-19.07-.17-30-3.89-13.56-11.24-23-20.17-25.89-8.68-2.82-18.75.18-29.93,8.91C230.76,90,220.45,100,216.22,112.22c-2.52,7.3-1.66,12-1.66,12.08a1,1,0,0,1-.78,1.15,1,1,0,0,1-1.15-.78c0-.21-1-5.18,1.68-12.93,4.35-12.78,15-23.06,23.15-29.44,11.73-9.16,22.41-12.27,31.75-9.23,9.56,3.1,17.38,13,21.45,27.21,3.25,11.32,1.71,21.23.23,30.82-.65,4.14-1.31,8.44-1.57,12.76a56.86,56.86,0,0,0,1.33,16.4,93,93,0,0,1,2,17.67c.22,10.69-3,19.56-10,27.12-9.06,9.9-24.15,17.54-46.11,23.33A1.09,1.09,0,0,1,236.33,228.42Z"/><path class="cls-4" d="M129.64,83a.91.91,0,0,1-.45-.11,1,1,0,0,1-.42-1.33,62.21,62.21,0,0,1,25.6-24.3c4.42-2.21,9.43-7.82,14.28-13.26,6.91-7.74,13.44-15,19.68-15.19,10.82-.26,20.27,8.34,27.17,14.6,2.62,2.39,8.05,4.93,14.34,7.88,11.06,5.18,24.82,11.63,32.21,21.26a1,1,0,0,1-.19,1.37,1,1,0,0,1-1.37-.18c-7.1-9.24-20.62-15.58-31.48-20.67-6.44-3-12-5.62-14.84-8.2-7-6.38-15.76-14.32-25.8-14.1-5.38.12-11.93,7.45-18.25,14.54-5,5.57-10.12,11.33-14.87,13.71a61.19,61.19,0,0,0-24.74,23.45A1,1,0,0,1,129.64,83Z"/><path class="cls-4" d="M192.3,143.81s-7.4,3.55-5.76,6.61S191.33,150.87,192.3,143.81Z"/><path class="cls-4" d="M214.39,142.34s.8,6.12,4,6.73S223.32,146,214.39,142.34Z"/><path class="cls-4" d="M143.7,153a34.31,34.31,0,0,1-5-.36c-12.24-1.79-21.23-11.38-24.66-26.3-1.63-7.08-.9-12.74,2.17-16.84,3.43-4.58,9.79-7.19,18.9-7.73,15.48-.94,42.07,19.39,43.19,20.25a1,1,0,1,1-1.2,1.56s-.25-.2-.7-.53A24.45,24.45,0,0,1,169,142.9,36.53,36.53,0,0,1,143.7,153Zm-7.52-49.3c-.31,0-.62,0-.92,0-8.51.51-14.37,2.85-17.45,7-2.7,3.61-3.31,8.73-1.82,15.22C119.22,140,127.62,149,139,150.7c10.29,1.51,21.52-2.1,28.62-9.19A22.35,22.35,0,0,0,174.33,122a.86.86,0,0,1,0-.45c-2.78-2-7.4-5.17-12.69-8.27C151,107,142.23,103.71,136.18,103.71Z"/><path class="cls-4" d="M122.87,105.91a1,1,0,0,1-.62-.22,16.92,16.92,0,0,1-6.17-14.48,1,1,0,1,1,2,.25h0a15,15,0,0,0,5.47,12.71,1,1,0,0,1,.13,1.38A1,1,0,0,1,122.87,105.91Z"/><path class="cls-4" d="M137.09,102.33a1,1,0,0,1-.84-.49c-2.07-3.52-2.87-8.14-2.37-13.73a38,38,0,0,1,1.35-7.31,1,1,0,0,1,1.87.59c0,.12-3.61,11.87.84,19.45a1,1,0,0,1-.35,1.35A1,1,0,0,1,137.09,102.33Z"/><path class="cls-4" d="M163.07,113.94a1,1,0,0,1-.95-.71c-1.1-3.82-.61-8.33,1.41-13.07a30.73,30.73,0,0,1,3.41-6,1,1,0,1,1,1.56,1.19c-.07.09-6.86,9.15-4.49,17.35a1,1,0,0,1-.67,1.22A.84.84,0,0,1,163.07,113.94Z"/><path class="cls-4" d="M256.17,148.73c-10.57,0-18.44-2.93-23.4-8.7-4.59-5.35-6.48-13-5.61-22.66a57.18,57.18,0,0,0-3.22,5,1,1,0,0,1-1.72-1,70.12,70.12,0,0,1,8.9-12.1c5.25-5.79,13.74-13.19,24.43-15.52,10.37-2.26,18.94-1,24.77,3.5,4.58,3.57,7.22,9.13,7.42,15.65.24,7.47-2.26,19-10.08,27.1C272.06,145.8,264.83,148.73,256.17,148.73Zm-26.66-34.48c-1.58,10.75,0,19,4.75,24.5,4.57,5.31,11.94,8,21.91,8,8.11,0,14.87-2.73,20.08-8.11,7.39-7.62,9.75-18.59,9.53-25.66-.19-5.93-2.55-11-6.66-14.17-5.36-4.18-13.37-5.26-23.15-3.13C244.16,98.27,235,107.4,229.51,114.25Z"/><path class="cls-4" d="M242.59,101.33l-.2,0a1,1,0,0,1-.76-1.16c.79-3.87-2.4-7.5-3.81-8.88-1.69-1.66-3.22-2.39-4.54-2.18a1,1,0,1,1-.31-2c2-.31,4.07.61,6.23,2.73s5.31,6,4.35,10.68A1,1,0,0,1,242.59,101.33Z"/><path class="cls-4" d="M263.25,93.82a1,1,0,0,1-.35-.06,1,1,0,0,1-.57-1.27,8.15,8.15,0,0,0,.4-2.73,24.48,24.48,0,0,0-2.06-10.23c-.86-2-2.37-4.35-4.68-4.78a1,1,0,1,1,.36-1.93c2.5.46,4.61,2.51,6.12,5.91a26.62,26.62,0,0,1,2.23,11.06,10.3,10.3,0,0,1-.53,3.4A1,1,0,0,1,263.25,93.82Z"/><path class="cls-4" d="M275.73,94.7a.94.94,0,0,1-.55-.17,1,1,0,0,1-.26-1.36,20.56,20.56,0,0,0,3.16-7.7,6.25,6.25,0,0,0-.28-4.09,1,1,0,1,1,1.73-.93,8.16,8.16,0,0,1,.48,5.38,22.51,22.51,0,0,1-3.47,8.44A1,1,0,0,1,275.73,94.7Z"/><path class="cls-4" d="M146.46,147.38c-13,0-23.57-9-23.57-20.13s10.57-20.12,23.57-20.12,23.57,9,23.57,20.12S159.46,147.38,146.46,147.38Zm0-39.46c-12.56,0-22.78,8.67-22.78,19.33s10.22,19.34,22.78,19.34,22.79-8.68,22.79-19.34S159,107.92,146.46,107.92Z"/><path class="cls-4" d="M256.17,142.73c-13,0-23.57-10.13-23.57-22.58s10.57-22.58,23.57-22.58,23.57,10.13,23.57,22.58S269.17,142.73,256.17,142.73Zm0-44.37c-12.56,0-22.78,9.78-22.78,21.79S243.61,142,256.17,142,279,132.17,279,120.15,268.73,98.36,256.17,98.36Z"/><path class="cls-4" d="M254.68,137.94a17.08,17.08,0,1,1,17.08-17.08A17.1,17.1,0,0,1,254.68,137.94Zm0-33.37A16.3,16.3,0,1,0,271,120.86,16.31,16.31,0,0,0,254.68,104.57Z"/><path class="cls-4" d="M147.46,143.42c-9.42,0-17.08-7.18-17.08-16s7.66-16,17.08-16,17.08,7.18,17.08,16S156.87,143.42,147.46,143.42Zm0-31.23c-9,0-16.3,6.83-16.3,15.22s7.31,15.22,16.3,15.22,16.29-6.82,16.29-15.22S156.44,112.19,147.46,112.19Z"/><path class="cls-9" d="M166.26,192.1s13-9.63,29.07-11.54,42.49.39,42.74,1.07-12.46,2.47-18.64,4.33-25.6,3-34.25,2.84C185.18,188.8,172.72,189,166.26,192.1Z"/><path class="cls-4" d="M140.39,183.87c-4,0-5.56-1.09-5.85-1.31a1,1,0,0,1,1.2-1.56c.12.08,4.94,3.18,20.68-2.82,2.79-1.06,5.57-2.25,8.5-3.51,7.45-3.19,15.15-6.48,24.74-8.52a96.07,96.07,0,0,1,35.1-.57c4.1.64,7.89,1.25,11.24,1.8,24.77,4,32.24,5.24,44.21-5.83a1,1,0,1,1,1.34,1.44c-12.67,11.73-21,10.37-45.87,6.33-3.34-.55-7.13-1.16-11.22-1.79-27.84-4.29-44.27,2.74-58.76,8.95-3,1.26-5.75,2.46-8.58,3.54C149.22,183,143.89,183.87,140.39,183.87Z"/><circle class="cls-10" cx="147.46" cy="127.63" r="11.94"/><path class="cls-4" d="M147.46,140.55a12.92,12.92,0,1,1,12.91-12.92A12.93,12.93,0,0,1,147.46,140.55Zm0-23.87a11,11,0,1,0,10.95,10.95A11,11,0,0,0,147.46,116.68Z"/><circle class="cls-11" cx="148.29" cy="127.63" r="7.52"/><circle class="cls-12" cx="153.88" cy="128.82" r="2.53"/><path class="cls-8" d="M135.18,124.57h24.55s-1.24-9.74-12.27-9.74S135.16,123.7,135.18,124.57Z"/><path class="cls-4" d="M159.73,125.55H135.18a1,1,0,0,1-1-1,11.53,11.53,0,0,1,3.21-7c2.4-2.47,5.78-3.72,10.05-3.72,11.76,0,13.23,10.49,13.25,10.59a1.06,1.06,0,0,1-.24.78A1,1,0,0,1,159.73,125.55Zm-23.42-2h22.2c-.68-2.38-3.1-7.76-11-7.76-3.68,0-6.57,1-8.58,3.06A10,10,0,0,0,136.31,123.58Z"/><circle class="cls-13" cx="254.82" cy="122.52" r="11.94"/><path class="cls-4" d="M254.82,135.44a12.92,12.92,0,1,1,12.92-12.92A12.94,12.94,0,0,1,254.82,135.44Zm0-23.87a11,11,0,1,0,10.95,11A11,11,0,0,0,254.82,111.57Z"/><circle class="cls-11" cx="255.65" cy="122.52" r="7.52"/><circle class="cls-12" cx="261.25" cy="123.7" r="2.53"/><path class="cls-8" d="M242.55,120.4h24.54s-1.23-9.74-12.27-9.74S242.52,119.53,242.55,120.4Z"/><path class="cls-4" d="M267.09,121.38H242.55a1,1,0,0,1-1-.95,11.53,11.53,0,0,1,3.21-7c2.4-2.47,5.78-3.72,10-3.72,11.77,0,13.24,10.49,13.25,10.59a1,1,0,0,1-.24.78A1,1,0,0,1,267.09,121.38Zm-23.42-2h22.2c-.68-2.38-3.1-7.76-11.05-7.76-3.68,0-6.56,1-8.58,3.06A10.12,10.12,0,0,0,243.67,119.41Z"/><path class="cls-4" d="M280.87,168.44a1,1,0,0,1-.64-.23,1,1,0,0,1-.11-1.39,3.7,3.7,0,0,0-3.63-6,1,1,0,0,1-1.18-.75,1,1,0,0,1,.75-1.17,5.66,5.66,0,0,1,5.55,9.2A1,1,0,0,1,280.87,168.44Z"/><path class="cls-2" d="M116.05,327.9q4.15-24.66,10-49c1.08-4.53,2.25-9.16,4.88-13,1.75-2.56,4.69-3.92,7.41-5.4-1.46-3.67-4.3-7.18-7.63-8.56-8.88-3.65-12.32,16.9-14.3,22.81a193.58,193.58,0,0,0-8.52,37.42c-1,7.74-1.45,15.7.6,23.22.83,3.07,2.52,6.42,5.63,7.09a5.18,5.18,0,0,0,.79.11C114.5,337.76,115.24,332.74,116.05,327.9Z"/><path class="cls-1" d="M131,266.12c-2.63,3.85-3.87,8.26-5,12.79q-5.82,24.32-10,49c-.81,4.84-1.55,9.86-1.17,14.7a8.58,8.58,0,0,0,4.6-1.32c7.6-4.34,10.77-13.51,13-22,2.76-10.56,12-43.38,5.63-59.32A20.68,20.68,0,0,0,131,266.12Z"/><path class="cls-4" d="M115.2,343.59a6.29,6.29,0,0,1-1.32-.13c-2.92-.63-5.18-3.4-6.37-7.8-2.16-7.93-1.52-16.38-.62-23.6a194.73,194.73,0,0,1,8.56-37.61c.34-1,.65-2.42,1-4,1.39-6.31,3.48-15.84,11.78-21.53a1,1,0,1,1,1.11,1.63c-7.65,5.24-9.65,14.32-11,20.32a42,42,0,0,1-1.06,4.24,192.34,192.34,0,0,0-8.47,37.22c-.88,7-1.5,15.24.56,22.85.58,2.11,2,5.75,4.89,6.38a6.77,6.77,0,0,0,4.71-1.11c7.16-4.09,10.24-12.69,12.51-21.36l.19-.74c1.91-7.29,6.38-24.37,7.18-39.26a1,1,0,0,1,1-.93,1,1,0,0,1,.93,1c-.82,15.1-5.32,32.31-7.25,39.66l-.19.73c-2.37,9.1-5.64,18.13-13.44,22.58A9.75,9.75,0,0,1,115.2,343.59Z"/><path class="cls-1" d="M284.33,327.9q-4.14-24.66-10-49c-1.09-4.53-2.26-9.16-4.89-13-1.75-2.56-4.69-3.92-7.41-5.4,1.47-3.67,4.3-7.18,7.64-8.56,8.88-3.65,12.31,16.9,14.29,22.81a193.58,193.58,0,0,1,8.52,37.42c1,7.74,1.45,15.7-.59,23.22-.83,3.07-2.52,6.42-5.63,7.09a5.36,5.36,0,0,1-.79.11C285.88,337.76,285.14,332.74,284.33,327.9Z"/><path class="cls-2" d="M269.42,266.12c2.62,3.85,3.86,8.26,4.95,12.79q5.81,24.32,10,49c.81,4.84,1.55,9.86,1.18,14.7a8.61,8.61,0,0,1-4.61-1.32c-7.59-4.34-10.77-13.51-13-22-2.76-10.56-12-43.38-5.62-59.32A20.77,20.77,0,0,1,269.42,266.12Z"/><path class="cls-4" d="M285.19,343.59a9.78,9.78,0,0,1-4.78-1.46c-7.79-4.45-11.06-13.48-13.44-22.58l-.19-.73c-1.92-7.35-6.43-24.56-7.24-39.66a1,1,0,1,1,2-.1c.81,14.89,5.27,32,7.18,39.26l.19.74c2.27,8.67,5.35,17.27,12.52,21.36a6.73,6.73,0,0,0,4.7,1.11c2.92-.63,4.32-4.27,4.89-6.38,2.06-7.61,1.44-15.82.57-22.85a193.11,193.11,0,0,0-8.48-37.22l-.45-1.38c-2.06-6.39-7.55-23.36-17.6-28.77a1,1,0,1,1,.93-1.73c10.75,5.78,16.41,23.3,18.54,29.89.17.52.32,1,.45,1.36a194.73,194.73,0,0,1,8.56,37.61c.9,7.22,1.53,15.67-.62,23.6-1.19,4.4-3.46,7.17-6.37,7.8A6.42,6.42,0,0,1,285.19,343.59Z"/><path class="cls-1" d="M129.05,334.37c8-5.08,13.39-13.24,18.18-21.38,3-5.13,5.89-10.4,8.42-15.81a24.92,24.92,0,0,0-8-4.45c-7.51-2.61-14.86,1.47-20.14,6.77-7.34,7.39-12.37,16.7-16.16,26.32-1.69,4.32-3.86,7.64-2.58,12.16C115.44,339.78,123.13,338.14,129.05,334.37Z"/><path class="cls-2" d="M155.65,297.18c-2.53,5.41-5.4,10.68-8.42,15.81-4.79,8.14-10.21,16.3-18.18,21.38-5.92,3.77-13.61,5.41-20.23,3.61a6.43,6.43,0,0,0,.22.71A15.25,15.25,0,0,0,118,348a20.46,20.46,0,0,0,7.49,1.06,33.38,33.38,0,0,0,23.73-10.86,54.35,54.35,0,0,0,5.77-8A48.62,48.62,0,0,0,161.07,317c1.21-4.71,1.17-9.88-1-14.23A17.69,17.69,0,0,0,155.65,297.18Z"/><path class="cls-4" d="M124.76,350a20.74,20.74,0,0,1-7.14-1.12,16.26,16.26,0,0,1-9.51-9.87,101.3,101.3,0,0,1-2-12,1,1,0,0,1,1-1h0a1,1,0,0,1,1,1,107.44,107.44,0,0,0,1.85,11.3,14.21,14.21,0,0,0,8.32,8.68,19.51,19.51,0,0,0,7.13,1,32.51,32.51,0,0,0,23-10.54,53.92,53.92,0,0,0,5.66-7.88,47.66,47.66,0,0,0,6-12.88c1.28-5,1-9.77-.91-13.54-2.09-4.23-6.29-7.62-11.84-9.54-3.5-1.22-10.63-2-19.11,6.54-5.29,5.32-9.74,12-13.59,20.43a1,1,0,0,1-1.79-.82c4-8.64,8.53-15.51,14-21,9.23-9.29,17.21-8.38,21.15-7,6,2.1,10.63,5.84,12.95,10.52A21.62,21.62,0,0,1,162,317.23a49.59,49.59,0,0,1-6.25,13.42,56.4,56.4,0,0,1-5.88,8.17A34.51,34.51,0,0,1,125.46,350Z"/><path class="cls-1" d="M270.9,334.37c-8-5.08-13.39-13.24-18.18-21.38-3-5.13-5.89-10.4-8.42-15.81a24.92,24.92,0,0,1,7.95-4.45c7.51-2.61,14.86,1.47,20.14,6.77,7.34,7.39,12.37,16.7,16.16,26.32,1.69,4.32,3.86,7.64,2.58,12.16C284.51,339.78,276.82,338.14,270.9,334.37Z"/><path class="cls-2" d="M244.3,297.18c2.53,5.41,5.4,10.68,8.42,15.81,4.79,8.14,10.21,16.3,18.18,21.38,5.92,3.77,13.61,5.41,20.23,3.61a6.43,6.43,0,0,1-.22.71A15.25,15.25,0,0,1,282,348a20.46,20.46,0,0,1-7.49,1.06,33.38,33.38,0,0,1-23.73-10.86,54.35,54.35,0,0,1-5.77-8A48.62,48.62,0,0,1,238.88,317c-1.22-4.71-1.17-9.88,1-14.23A17.69,17.69,0,0,1,244.3,297.18Z"/><path class="cls-4" d="M275.19,350h-.7a34.51,34.51,0,0,1-24.44-11.18,56.4,56.4,0,0,1-5.88-8.17,49.59,49.59,0,0,1-6.25-13.42A21.62,21.62,0,0,1,239,302.32c2.32-4.68,6.92-8.42,13-10.52,3.94-1.37,11.92-2.28,21.15,7,5.46,5.49,10,12.36,14,21a1,1,0,0,1-1.79.82c-3.85-8.43-8.3-15.11-13.59-20.43-8.48-8.53-15.61-7.76-19.11-6.54-5.55,1.92-9.75,5.31-11.84,9.54-1.87,3.77-2.19,8.58-.91,13.54a47.66,47.66,0,0,0,6,12.88,53.18,53.18,0,0,0,5.66,7.88,32.51,32.51,0,0,0,23,10.54,19.48,19.48,0,0,0,7.13-1,14.23,14.23,0,0,0,8.32-8.68,105.3,105.3,0,0,0,1.85-11.3,1,1,0,0,1,1-1,1,1,0,0,1,1,1,101.63,101.63,0,0,1-2,12,16.26,16.26,0,0,1-9.51,9.87A20.74,20.74,0,0,1,275.19,350Z"/><path class="cls-2" d="M132.86,326.17c.21-1.47.43-2.94.65-4.41l.3.94a23.5,23.5,0,0,1,1.37-3.61c1.28-2.57,3.44-4.9,6.25-5.51-3.23.29-6.72.68-9.1,2.89-2.65,2.46-3.12,6.39-4,9.89a32.42,32.42,0,0,1-3.43,8.25c-1.18,2-2.79,4-5.08,4.5l-.45.06a2.33,2.33,0,0,0,1.74,1.65c4.22.73,8.21-4.48,11.13-13.28,0,0,0,.16.13.44l.21-.69C132.66,326.92,132.76,326.54,132.86,326.17Z"/><path class="cls-2" d="M150.11,362.08c-1,.95-2.93.9-3.37-.38q-6.65-19.44-12.93-39c-.34,1.15-.64,2.31-.95,3.47-.12.81-.23,1.62-.35,2.43.91,3.13,3.72,12.71,6.94,22.39,3.94,11.79,6.15,17.88,10.15,14.64a7,7,0,0,0,2.67-3.82c-.26-1.16-.53-2.31-.81-3.46A6.07,6.07,0,0,1,150.11,362.08Z"/><path class="cls-1" d="M132.86,326.17c.31-1.16.61-2.32.95-3.47l-.3-.94C133.29,323.23,133.07,324.7,132.86,326.17Z"/><path class="cls-1" d="M132.55,327.29l-.21.69c0,.17.1.37.17.62.12-.81.23-1.62.35-2.43C132.76,326.54,132.66,326.92,132.55,327.29Z"/><path class="cls-2" d="M172,353.75a12,12,0,0,0,1-3.33c-.19-.56-.39-1.12-.61-1.67a3.07,3.07,0,0,1-3.79,3.21c-1.83-.6-2.57-2.74-3.07-4.6q-3.44-12.81-6.86-25.62L154.72,324a78,78,0,0,1,6.33,17c1.08,4.37,1.79,8.88,3.27,13.1C166,355.87,169.52,358.71,172,353.75Z"/><path class="cls-1" d="M154.72,324l3.92-2.25q3.44,12.81,6.86,25.62c.5,1.86,1.24,4,3.07,4.6a3.07,3.07,0,0,0,3.79-3.21c.22.55.42,1.11.61,1.67,1.17-6.92-1.86-16.7-3.39-22.14-1.81-6.4-6.72-38.77-20.78-38.12-16.44.77-13.4-2.82-22.58,4.62s-5.68,17.28-6.06,25.34c-.3,6.46-2.23,15.38-.82,19.05l.45-.06c2.29-.47,3.9-2.49,5.08-4.5a32.42,32.42,0,0,0,3.43-8.25c.91-3.5,1.38-7.43,4-9.89,2.38-2.21,5.87-2.6,9.1-2.89-2.81.61-5,2.94-6.25,5.51a23.5,23.5,0,0,0-1.37,3.61q6.28,19.56,12.93,39c.44,1.28,2.41,1.33,3.37.38a6.07,6.07,0,0,0,1.35-3.73c.28,1.15.55,2.3.81,3.46a4,4,0,0,0-.17-2.45s.38.64,1,1.52c-3.8-11.34-2.32-24.95-9.82-34.34a6.73,6.73,0,0,1,4.22-1.67,94.66,94.66,0,0,1,7.82,29.21,15.13,15.13,0,0,0,1.05,5.05,4.7,4.7,0,0,0,4,2.89c1.73,0,3.36-1.86,2.74-3.47a3.8,3.8,0,0,1,.67,1.65,25.56,25.56,0,0,0-.37-7.26,13.57,13.57,0,0,0,.94,1.13c-1.48-4.22-2.19-8.73-3.27-13.1A78,78,0,0,0,154.72,324Z"/><path class="cls-2" d="M160.34,362a4.7,4.7,0,0,1-4-2.89,15.13,15.13,0,0,1-1.05-5.05,94.66,94.66,0,0,0-7.82-29.21,6.73,6.73,0,0,0-4.22,1.67c7.5,9.39,6,23,9.82,34.34,1.55,2.26,4.6,6.09,6.67,5a6.56,6.56,0,0,0,4-5.68,3.8,3.8,0,0,0-.67-1.65C163.7,360.16,162.07,362,160.34,362Z"/><path class="cls-4" d="M122.4,342.08a4.41,4.41,0,0,1-1.71-.36c-2.57-1.11-3.47-4.16-2.68-9.05A92.79,92.79,0,0,0,119.13,314l-.06-1.42a30.62,30.62,0,0,1,.54-9.63c2.07-7.56,9.28-12,15.34-13.72a1,1,0,0,1,.52,1.9c-8.45,2.33-12.75,7.9-14,12.34a29.15,29.15,0,0,0-.48,9c0,.48,0,1,.07,1.44A94.61,94.61,0,0,1,120,333c-.63,3.88-.12,6.21,1.52,6.92,2.19.95,4.59-1.82,5.66-3.6a43.93,43.93,0,0,0,4.48-10.14l.48-1.67c1.11-3.93,2.25-8,5.68-10.36a17,17,0,0,1,4.3-1.92,21.7,21.7,0,0,0,2.78-1.07,10.73,10.73,0,0,0,5.42-6.37,1,1,0,0,1,1.88.58,12.7,12.7,0,0,1-6.43,7.55,22.38,22.38,0,0,1-3,1.17,15,15,0,0,0-3.81,1.68c-2.85,2-3.89,5.68-4.91,9.27-.16.57-.32,1.14-.49,1.7a45.52,45.52,0,0,1-4.67,10.59C127.39,339.7,125,342.08,122.4,342.08Z"/><path class="cls-4" d="M148.29,366.87a5.58,5.58,0,0,1-2-.4c-3.44-1.35-4.86-5.06-5.92-8.43l-9.09-28.94a1,1,0,0,1,1.88-.59l9.08,28.94c.93,2.94,2.13,6.16,4.77,7.19a3,3,0,0,0,2.23.08c1.69-.71,2-3.29,1.89-5.33a75,75,0,0,0-9.13-33.1,1,1,0,1,1,1.72-1,76.79,76.79,0,0,1,9.37,34c.18,4.82-1.59,6.59-3.1,7.22A4.35,4.35,0,0,1,148.29,366.87Z"/><path class="cls-4" d="M158.93,367.64a4,4,0,0,1-1.23-.19,6.28,6.28,0,0,1-2.89-2.23c-.43-.52-.81-1-1.16-1.33a9.62,9.62,0,0,1-2.56-4.37,1,1,0,0,1,.68-1.22A1,1,0,0,1,153,359a7.55,7.55,0,0,0,2.14,3.6c.35.4.76.85,1.21,1.41a4.77,4.77,0,0,0,2,1.6,3.27,3.27,0,0,0,3.47-1.71,9.78,9.78,0,0,0,1-4.83c.11-11.75-4.05-23.21-8.7-34.89a1,1,0,0,1,1.83-.72c4.72,11.87,8.95,23.52,8.83,35.63a11.29,11.29,0,0,1-1.22,5.81A5.57,5.57,0,0,1,158.93,367.64Z"/><path class="cls-4" d="M168.75,356.81c-2,0-3.78-1.29-5.34-2.63a1,1,0,1,1,1.28-1.5c1.49,1.28,3.23,2.53,4.77,2.06,1.95-.59,2.4-3.58,2.5-4.84.65-7.91-1.65-15.69-3.88-23.22l-4.42-14.95c-1.4-4.74-2.85-9.64-5.63-13.76-3-4.45-7.34-7.25-11.62-7.51a1,1,0,0,1-.92-1,1,1,0,0,1,1-.92c4.88.29,9.79,3.42,13.13,8.37,3,4.37,4.44,9.42,5.89,14.3L170,326.12c2.17,7.34,4.63,15.66,3.95,23.94-.29,3.56-1.67,5.89-3.89,6.57A4.4,4.4,0,0,1,168.75,356.81Z"/><path class="cls-4" d="M139.91,327.28a8.62,8.62,0,0,1-3.21-.56,1,1,0,0,1-.54-1.28,1,1,0,0,1,1.27-.55c1.59.64,3.41.44,5.46.15s4-.62,6-1c4.08-.7,8.29-1.64,10.85-4.6a1,1,0,0,1,1.49,1.28c-3,3.46-7.77,4.53-12,5.26-2,.34-4.08.67-6.09,1A22.84,22.84,0,0,1,139.91,327.28Z"/><path class="cls-2" d="M262.11,322.68c-.21-1.47-.42-2.94-.64-4.41l-.31.94a23.5,23.5,0,0,0-1.37-3.61c-1.28-2.57-3.44-4.9-6.25-5.51,3.23.29,6.72.68,9.1,2.89,2.65,2.46,3.12,6.39,4,9.89a32.4,32.4,0,0,0,3.42,8.25c1.19,2,2.8,4,5.08,4.5l.45.06a2.32,2.32,0,0,1-1.74,1.65c-4.21.73-8.2-4.48-11.12-13.28l-.13.44c-.07-.23-.15-.46-.22-.69Z"/><path class="cls-2" d="M244.86,358.59c1,1,2.93.9,3.37-.38q6.65-19.44,12.93-39c.34,1.15.64,2.31.95,3.47.12.81.24,1.62.35,2.43-.91,3.13-3.71,12.71-6.94,22.39-3.93,11.8-6.14,17.88-10.15,14.64a6.92,6.92,0,0,1-2.66-3.82c.26-1.16.52-2.31.81-3.46A6.06,6.06,0,0,0,244.86,358.59Z"/><path class="cls-1" d="M262.11,322.68c-.31-1.16-.61-2.32-.95-3.47l.31-.94C261.69,319.74,261.9,321.21,262.11,322.68Z"/><path class="cls-1" d="M262.42,323.8c.07.23.15.46.22.69l-.18.62c-.11-.81-.23-1.62-.35-2.43Z"/><path class="cls-2" d="M223,350.26a12,12,0,0,1-1-3.33c.19-.56.4-1.12.61-1.67a3.07,3.07,0,0,0,3.79,3.21c1.83-.6,2.57-2.74,3.07-4.6q3.43-12.81,6.86-25.62l3.92,2.25a78,78,0,0,0-6.33,17c-1.07,4.37-1.79,8.88-3.27,13.1C229,352.38,225.46,355.22,223,350.26Z"/><path class="cls-1" d="M240.25,320.5l-3.92-2.25q-3.42,12.81-6.86,25.62c-.5,1.86-1.24,4-3.07,4.6a3.07,3.07,0,0,1-3.79-3.21c-.21.55-.42,1.11-.61,1.67-1.16-6.92,1.86-16.7,3.4-22.14,1.8-6.4,6.71-38.77,20.78-38.12,16.43.77,13.39-2.82,22.57,4.62s5.69,17.29,6.06,25.34c.3,6.46,2.23,15.39.82,19.05l-.45-.06c-2.28-.47-3.89-2.49-5.08-4.5a32.4,32.4,0,0,1-3.42-8.25c-.92-3.5-1.39-7.43-4-9.89-2.38-2.21-5.87-2.6-9.1-2.89,2.81.61,5,2.94,6.25,5.51a23.5,23.5,0,0,1,1.37,3.61q-6.28,19.56-12.93,39c-.44,1.28-2.41,1.33-3.37.38a6.06,6.06,0,0,1-1.34-3.73c-.29,1.15-.55,2.3-.81,3.46a3.94,3.94,0,0,1,.16-2.45s-.38.64-1,1.52c3.8-11.34,2.33-24.95,9.82-34.34a6.74,6.74,0,0,0-4.22-1.67,94.92,94.92,0,0,0-7.81,29.21,15.39,15.39,0,0,1-1.06,5.05,4.67,4.67,0,0,1-4,2.89c-1.73,0-3.36-1.86-2.74-3.47a3.82,3.82,0,0,0-.68,1.65,26.34,26.34,0,0,1,.37-7.26,13.57,13.57,0,0,1-.94,1.13c1.48-4.22,2.2-8.73,3.27-13.1A78,78,0,0,1,240.25,320.5Z"/><path class="cls-2" d="M234.64,358.53a4.67,4.67,0,0,0,4-2.89,15.39,15.39,0,0,0,1.06-5.05,94.92,94.92,0,0,1,7.81-29.21,6.74,6.74,0,0,1,4.22,1.67c-7.49,9.39-6,23-9.82,34.34-1.55,2.26-4.59,6.09-6.67,5a6.56,6.56,0,0,1-4-5.68,3.82,3.82,0,0,1,.68-1.65C231.28,356.67,232.91,358.51,234.64,358.53Z"/><path class="cls-4" d="M272.58,338.59c-2.6,0-5-2.38-6.42-4.75a46.24,46.24,0,0,1-4.68-10.6c-.17-.56-.33-1.13-.49-1.7-1-3.59-2.06-7.31-4.9-9.27a15.14,15.14,0,0,0-3.81-1.68,22.5,22.5,0,0,1-3-1.17,12.71,12.71,0,0,1-6.42-7.55,1,1,0,1,1,1.88-.58,10.68,10.68,0,0,0,5.41,6.37,22.28,22.28,0,0,0,2.78,1.07,16.67,16.67,0,0,1,4.3,1.92c3.43,2.36,4.58,6.43,5.68,10.36l.48,1.67a44.36,44.36,0,0,0,4.48,10.14c1.07,1.78,3.47,4.55,5.66,3.6,1.64-.71,2.15-3,1.52-6.92a94.61,94.61,0,0,1-1.14-19.09l.06-1.44a29.15,29.15,0,0,0-.48-9c-1.21-4.44-5.51-10-13.95-12.34a1,1,0,0,1-.69-1.21,1,1,0,0,1,1.21-.69c6.06,1.68,13.27,6.16,15.33,13.72a30.93,30.93,0,0,1,.55,9.63c0,.47-.05.95-.07,1.42A92.79,92.79,0,0,0,277,329.18c.8,4.89-.1,7.94-2.68,9.05A4.19,4.19,0,0,1,272.58,338.59Z"/><path class="cls-4" d="M246.69,363.38a4.4,4.4,0,0,1-1.7-.33c-1.51-.63-3.27-2.4-3.1-7.22a77,77,0,0,1,9.37-34,1,1,0,1,1,1.72.94,75,75,0,0,0-9.12,33.1c-.08,2,.19,4.63,1.89,5.33a3,3,0,0,0,2.22-.08c2.64-1,3.85-4.25,4.77-7.19L261.83,325a1,1,0,1,1,1.87.59l-9.08,28.94c-1.06,3.37-2.48,7.08-5.93,8.43A5.57,5.57,0,0,1,246.69,363.38Z"/><path class="cls-4" d="M236.05,364.15a5.59,5.59,0,0,1-4.53-2.77,11.5,11.5,0,0,1-1.22-5.81c-.11-12.11,4.11-23.76,8.83-35.63a1,1,0,0,1,1.83.72c-4.64,11.68-8.8,23.14-8.69,34.9a9.65,9.65,0,0,0,.95,4.82,3.26,3.26,0,0,0,3.46,1.71,4.65,4.65,0,0,0,2-1.6c.46-.56.86-1,1.22-1.41a7.62,7.62,0,0,0,2.13-3.6,1,1,0,0,1,1.89.55,9.53,9.53,0,0,1-2.56,4.37c-.34.38-.73.81-1.15,1.33a6.33,6.33,0,0,1-2.89,2.23A4.09,4.09,0,0,1,236.05,364.15Z"/><path class="cls-4" d="M226.22,353.33a4.35,4.35,0,0,1-1.27-.19c-2.23-.68-3.61-3-3.9-6.57-.67-8.28,1.79-16.6,4-23.94l4.42-14.95c1.44-4.88,2.93-9.93,5.88-14.3,3.34-4.95,8.25-8.08,13.13-8.37a1,1,0,0,1,1,.92,1,1,0,0,1-.92,1c-4.28.26-8.62,3.06-11.62,7.51-2.78,4.12-4.23,9-5.63,13.76l-4.42,14.95c-2.22,7.53-4.52,15.31-3.88,23.22.1,1.26.55,4.25,2.51,4.84,1.54.47,3.27-.78,4.77-2.06a1,1,0,0,1,1.28,1.5C230,352,228.18,353.33,226.22,353.33Z"/><path class="cls-4" d="M255.06,323.79a23.11,23.11,0,0,1-3.26-.3c-2-.29-4.06-.62-6.08-1-4.25-.73-9-1.8-12-5.26a1,1,0,0,1,1.49-1.28c2.57,3,6.77,3.9,10.86,4.6,2,.34,4,.67,6,1s3.86.49,5.45-.15a1,1,0,0,1,.73,1.83A8.59,8.59,0,0,1,255.06,323.79Z"/></svg>