<svg width="24" height="24" viewBox="0 0 24 24" fill="none" xmlns="http://www.w3.org/2000/svg">
<path d="M12 23C18.0751 23 23 18.0751 23 12C23 5.92487 18.0751 1 12 1C5.92487 1 1 5.92487 1 12C1 18.0751 5.92487 23 12 23Z" fill="#D80027"/>
<path d="M7.01992 7.6945L7.96953 10.6164H11.0418L8.5582 12.4254L9.50781 15.3472L7.01992 13.5425L4.53203 15.3472L5.48594 12.4254L2.99805 10.6164H6.07031L7.01992 7.6945Z" fill="#FFDA44"/>
<path d="M14.041 18.0371L13.3148 17.1433L12.2406 17.5601L12.8636 16.5933L12.1375 15.6953L13.2503 15.9918L13.8777 15.025L13.9378 16.1766L15.055 16.473L13.9765 16.8855L14.041 18.0371Z" fill="#FFDA44"/>
<path d="M15.4847 15.416L15.8285 14.316L14.8875 13.65L16.039 13.6328L16.3785 12.5328L16.7523 13.6242L17.9039 13.6113L16.98 14.2988L17.3496 15.3902L16.4085 14.7242L15.4847 15.416Z" fill="#FFDA44"/>
<path d="M17.4313 9.07382L16.9243 10.1094L17.7493 10.9129L16.6106 10.7496L16.1036 11.7808L15.9059 10.6465L14.7629 10.4832L15.7856 9.94608L15.5879 8.80741L16.4129 9.61093L17.4313 9.07382Z" fill="#FFDA44"/>
<path d="M14.0711 5.9371L13.9852 7.08436L15.0551 7.51835L13.9336 7.79335L13.852 8.94491L13.2461 7.96522L12.1246 8.24022L12.868 7.35936L12.2578 6.38397L13.3278 6.81795L14.0711 5.9371Z" fill="#FFDA44"/>
</svg>
