<svg width="24" height="24" viewBox="0 0 24 24" fill="none" xmlns="http://www.w3.org/2000/svg">
<path d="M12 23C18.0751 23 23 18.0751 23 12C23 5.92487 18.0751 1 12 1C5.92487 1 1 5.92487 1 12C1 18.0751 5.92487 23 12 23Z" fill="#F5F5F5"/>
<path d="M3.27387 5.30298C2.40981 6.42717 1.75828 7.72289 1.37891 9.1305H7.1014L3.27387 5.30298Z" fill="#0052B4"/>
<path d="M22.6211 9.13052C22.2417 7.72295 21.5901 6.42723 20.7261 5.30303L16.8987 9.13052H22.6211Z" fill="#0052B4"/>
<path d="M1.37891 14.8696C1.75832 16.2772 2.40986 17.5729 3.27387 18.6971L7.10127 14.8696H1.37891Z" fill="#0052B4"/>
<path d="M18.697 3.27395C17.5728 2.4099 16.2771 1.75836 14.8695 1.37895V7.1014L18.697 3.27395Z" fill="#0052B4"/>
<path d="M5.30298 20.7261C6.42717 21.5901 7.72289 22.2417 9.13046 22.6211V16.8987L5.30298 20.7261Z" fill="#0052B4"/>
<path d="M9.13042 1.37895C7.72285 1.75836 6.42713 2.4099 5.30298 3.27391L9.13042 7.10135V1.37895Z" fill="#0052B4"/>
<path d="M14.8695 22.6211C16.2771 22.2417 17.5728 21.5901 18.6969 20.7261L14.8695 16.8987V22.6211Z" fill="#0052B4"/>
<path d="M16.8987 14.8696L20.7261 18.6971C21.5901 17.573 22.2417 16.2772 22.6211 14.8696H16.8987Z" fill="#0052B4"/>
<path d="M22.9069 10.5652H13.4349H13.4348V1.09311C12.9651 1.03197 12.4863 1 12 1C11.5136 1 11.0349 1.03197 10.5652 1.09311V10.5651V10.5652H1.09311C1.03197 11.0349 1 11.5137 1 12C1 12.4864 1.03197 12.9651 1.09311 13.4348H10.5651H10.5652V22.9069C11.0349 22.968 11.5136 23 12 23C12.4863 23 12.9651 22.9681 13.4348 22.9069V13.4349V13.4348H22.9069C22.968 12.9651 23 12.4864 23 12C23 11.5137 22.968 11.0349 22.9069 10.5652V10.5652Z" fill="#D80027"/>
<path d="M14.8696 14.8696L19.7782 19.7782C20.004 19.5525 20.2193 19.3166 20.4248 19.072L16.2224 14.8696H14.8696V14.8696Z" fill="#D80027"/>
<path d="M9.13042 14.8696H9.13034L4.2218 19.7782C4.44747 20.0039 4.68342 20.2193 4.92799 20.4247L9.13042 16.2222V14.8696Z" fill="#D80027"/>
<path d="M9.13037 9.13049V9.13041L4.22179 4.22179C3.99603 4.44746 3.78067 4.6834 3.5752 4.92798L7.77767 9.13045H9.13037V9.13049Z" fill="#D80027"/>
<path d="M14.8696 9.13052L19.7782 4.22185C19.5526 3.99609 19.3166 3.78073 19.0721 3.5753L14.8696 7.77777V9.13052Z" fill="#D80027"/>
</svg>
