<svg width="24" height="24" viewBox="0 0 24 24" fill="none" xmlns="http://www.w3.org/2000/svg">
<path d="M1 12C1 13.3455 1.24204 14.6344 1.68419 15.8261L12 16.7826L22.3158 15.8261C22.758 14.6344 23 13.3455 23 12C23 10.6545 22.758 9.36559 22.3158 8.17393L12 7.21741L1.68419 8.17393C1.24204 9.36559 1 10.6545 1 12V12Z" fill="#FFDA44"/>
<path d="M22.3158 8.17393C20.7616 3.98517 16.7296 1 12 1C7.2704 1 3.23843 3.98517 1.6842 8.17393H22.3158Z" fill="#D80027"/>
<path d="M1.6842 15.8261C3.23843 20.0148 7.2704 23 12 23C16.7296 23 20.7616 20.0148 22.3158 15.8261H1.6842Z" fill="#D80027"/>
</svg>
