<svg width="24" height="24" viewBox="0 0 24 24" fill="none" xmlns="http://www.w3.org/2000/svg">
<path d="M12 23C13.3455 23 14.6344 22.758 15.8261 22.3158L16.7826 12L15.8261 1.68419C14.6344 1.24204 13.3455 1 12 1C10.6545 1 9.36559 1.24204 8.17393 1.68419L7.21741 12L8.17393 22.3158C9.36559 22.758 10.6545 23 12 23V23Z" fill="white"/>
<path d="M8.17393 1.68419C3.98517 3.23841 1 7.27039 1 12C1 16.7296 3.98517 20.7616 8.17393 22.3158V1.68419Z" fill="#0052B4"/>
<path d="M15.826 22.3158C20.0148 20.7616 23 16.7296 23 12C23 7.27039 20.0148 3.23842 15.826 1.68419L15.826 22.3158Z" fill="#ED4C5C"/>
</svg>
