<svg width="20" height="20" viewBox="0 0 20 20" fill="none" xmlns="http://www.w3.org/2000/svg">
<g clip-path="url(#clip0_1649_78215)">
<path d="M0 0H20V20H0V0Z" fill="white"/>
<path d="M7.77778 0H1.11111L7.77778 6.11111V0ZM12.2222 0V6.66667L19.4444 0H12.2222ZM20 5L16.6667 7.77778H20V5ZM20 12.2222H15.5556L20 16.1111V12.2222ZM18.8889 20L12.2222 13.8889V20H18.8889ZM7.77778 20V13.3333L0.555556 20H7.77778ZM0 15L3.33333 12.2222H0V15ZM0 7.77778H4.44444L0 3.88889V7.77778Z" fill="#0D47A1"/>
<path d="M7.77778 7.77767L-7.22222 -5.55566V-3.00011L5.55555 7.77767H7.77778ZM8.88889 8.88878V-0.000108719H11.1111V8.88878H20V11.111H11.1111V19.9999H8.88889V11.111H-9.53674e-07V8.88878H8.88889ZM-10 25.5554L5.55555 12.2221H7.77778L-7.22222 25.5554H-10ZM12.2222 7.77767L25.5556 -4.44455H28L14.4444 7.77767H12.2222ZM14.4444 12.2221H12.2222L25 23.3332V21.111L14.4444 12.2221Z" fill="#EF5350"/>
</g>
<defs>
<clipPath id="clip0_1649_78215">
<path d="M0 10C0 4.47715 4.47715 0 10 0C15.5228 0 20 4.47715 20 10C20 15.5228 15.5228 20 10 20C4.47715 20 0 15.5228 0 10Z" fill="white"/>
</clipPath>
</defs>
</svg>
