<svg width="20" height="20" viewBox="0 0 20 20" fill="none" xmlns="http://www.w3.org/2000/svg">
<path d="M0 0H20V6.66667H0V0Z" fill="#FF9800"/>
<path d="M0 6.66675H20V13.3334H0V6.66675Z" fill="#F8F9FD"/>
<path d="M0 13.3333H20V19.9999H0V13.3333Z" fill="#4CAF50"/>
<path d="M10.0001 12.2223C10.5894 12.2223 11.1547 11.9882 11.5714 11.5714C11.9882 11.1547 12.2223 10.5894 12.2223 10.0001C12.2223 9.41068 11.9882 8.84545 11.5714 8.42871C11.1547 8.01196 10.5894 7.77783 10.0001 7.77783C9.41068 7.77783 8.84545 8.01196 8.42871 8.42871C8.01196 8.84545 7.77783 9.41068 7.77783 10.0001C7.77783 10.5894 8.01196 11.1547 8.42871 11.5714C8.84545 11.9882 9.41068 12.2223 10.0001 12.2223Z" fill="#1565C0"/>
<path d="M10 11.1111C10.2947 11.1111 10.5773 10.9941 10.7857 10.7857C10.9941 10.5773 11.1111 10.2947 11.1111 10C11.1111 9.70534 10.9941 9.42273 10.7857 9.21435C10.5773 9.00598 10.2947 8.88892 10 8.88892C9.70534 8.88892 9.42273 9.00598 9.21435 9.21435C9.00598 9.42273 8.88892 9.70534 8.88892 10C8.88892 10.2947 9.00598 10.5773 9.21435 10.7857C9.42273 10.9941 9.70534 11.1111 10 11.1111Z" fill="#F8F9FD"/>
</svg>
