<svg width="20" height="20" viewBox="0 0 20 20" fill="none" xmlns="http://www.w3.org/2000/svg">
<path d="M14.4443 0H19.9999V20H14.4443V0Z" fill="#EF5350"/>
<path d="M5.55566 0H14.4446V20H5.55566V0Z" fill="#F8F9FD"/>
<path d="M13.3334 8.61117H10.8334C10.8334 8.39015 10.7456 8.17819 10.5893 8.02191C10.4331 7.86563 10.2211 7.77783 10.0001 7.77783C9.77907 7.77783 9.56711 7.86563 9.41083 8.02191C9.25455 8.17819 9.16675 8.39015 9.16675 8.61117H6.66675C6.66675 9.06672 7.06675 9.4445 7.5223 9.4445H7.50008C7.50008 9.90005 7.87786 10.2778 8.33341 10.2778C8.33341 10.7334 8.71119 11.1112 9.16675 11.1112H10.8334C11.289 11.1112 11.6667 10.7334 11.6667 10.2778C12.1223 10.2778 12.5001 9.90005 12.5001 9.4445H12.4667C12.9334 9.4445 13.3334 9.06672 13.3334 8.61117Z" fill="#FF9800"/>
<path d="M0 0H5.55556V20H0V0Z" fill="#4CAF50"/>
</svg>
