<svg width="20" height="20" viewBox="0 0 20 20" fill="none" xmlns="http://www.w3.org/2000/svg">
<path d="M0 0H20V20H0V0Z" fill="#F0F3FA"/>
<path d="M0 14.4444H20V20H0V14.4444ZM0 0H20V5.55556H0V0Z" fill="#1565C0"/>
<path d="M8 10.4443L10 6.94434L12 10.4221H8V10.4443Z" fill="#FDD835"/>
<path d="M12.6111 11.5889L10 12.8889L7.38892 11.5889V9.84448H12.6111V11.5889Z" fill="#4CAF50"/>
<path d="M12.4557 7.11108L11.5334 8.03331C11.8408 8.33572 12.051 8.72297 12.137 9.14551C12.223 9.56804 12.181 10.0066 12.0164 10.4052C11.8517 10.8037 11.5719 11.144 11.2127 11.3826C10.8535 11.6212 10.4313 11.7472 10.0001 11.7444C9.5713 11.7418 9.15279 11.6127 8.79706 11.3732C8.44134 11.1338 8.16423 10.7946 8.00047 10.3983C7.83672 10.002 7.79362 9.56612 7.87658 9.1454C7.95953 8.72468 8.16484 8.33781 8.46678 8.03331L7.54455 7.11108C7.05416 7.59533 6.71923 8.21475 6.58254 8.89025C6.44585 9.56575 6.51361 10.2667 6.77715 10.9035C7.0407 11.5403 7.48808 12.0841 8.06215 12.4654C8.63622 12.8468 9.31093 13.0483 10.0001 13.0444C10.6869 13.043 11.3579 12.8383 11.9285 12.456C12.4991 12.0738 12.9437 11.5312 13.2064 10.8966C13.469 10.262 13.5379 9.56382 13.4043 8.89014C13.2707 8.21647 12.9406 7.59743 12.4557 7.11108Z" fill="#FDD835"/>
</svg>
