<svg width="20" height="20" viewBox="0 0 20 20" fill="none" xmlns="http://www.w3.org/2000/svg">
<path d="M0 0H20V20H0V0Z" fill="#F8F9FD"/>
<path d="M12.2222 4.44444H20V0H12.2222V4.44444ZM0 20H20V15.5556H0V20ZM12.2222 12.2222H20V7.77778H12.2222V12.2222Z" fill="#EF5350"/>
<path d="M0 0H12.2222V12.2222H0V0Z" fill="#1E88E5"/>
<path d="M2.68889 1.35546C2.6973 1.33913 2.71005 1.32544 2.72573 1.31588C2.7414 1.30633 2.75941 1.30127 2.77778 1.30127C2.79614 1.30127 2.81415 1.30633 2.82983 1.31588C2.84551 1.32544 2.85825 1.33913 2.86667 1.35546L3.16667 2.14435C3.17778 2.18879 3.22222 2.21101 3.25555 2.21101L4.1 2.25546C4.18889 2.25546 4.22222 2.36657 4.15555 2.43324L3.48889 2.95546C3.47438 2.96956 3.46449 2.98772 3.46052 3.00756C3.45655 3.0274 3.4587 3.04797 3.46667 3.06657L3.68889 3.86657C3.69565 3.88686 3.69574 3.90878 3.68912 3.92912C3.68251 3.94946 3.66955 3.96714 3.65215 3.97958C3.63474 3.99201 3.61381 3.99853 3.59243 3.99819C3.57104 3.99785 3.55033 3.99066 3.53333 3.97768L2.83333 3.52212C2.81689 3.51114 2.79755 3.50527 2.77778 3.50527C2.758 3.50527 2.73867 3.51114 2.72222 3.52212L2.02222 3.97768C2.00522 3.99066 1.98451 3.99785 1.96313 3.99819C1.94174 3.99853 1.92081 3.99201 1.90341 3.97958C1.886 3.96714 1.87304 3.94946 1.86643 3.92912C1.85982 3.90878 1.8599 3.88686 1.86667 3.86657L2.08889 3.05546C2.09557 3.03577 2.09595 3.01449 2.08998 2.99457C2.084 2.97466 2.07197 2.9571 2.05555 2.94435L1.4 2.43324C1.3843 2.42065 1.37277 2.40363 1.3669 2.38439C1.36103 2.36515 1.3611 2.34459 1.3671 2.32538C1.3731 2.30618 1.38475 2.28924 1.40053 2.27677C1.41631 2.26429 1.43549 2.25686 1.45555 2.25546L2.3 2.21101C2.33333 2.21101 2.37778 2.18879 2.38889 2.14435L2.68889 1.36657V1.35546ZM2.68889 4.68879C2.6973 4.67247 2.71005 4.65878 2.72573 4.64922C2.7414 4.63966 2.75941 4.6346 2.77778 4.6346C2.79614 4.6346 2.81415 4.63966 2.82983 4.64922C2.84551 4.65878 2.85825 4.67247 2.86667 4.68879L3.16667 5.47768C3.17778 5.52212 3.22222 5.54435 3.25555 5.54435L4.1 5.58879C4.18889 5.58879 4.22222 5.6999 4.15555 5.76657L3.48889 6.28879C3.47438 6.30289 3.46449 6.32106 3.46052 6.3409C3.45655 6.36073 3.4587 6.38131 3.46667 6.3999L3.68889 7.1999C3.69565 7.22019 3.69574 7.24212 3.68912 7.26245C3.68251 7.28279 3.66955 7.30048 3.65215 7.31291C3.63474 7.32534 3.61381 7.33186 3.59243 7.33152C3.57104 7.33118 3.55033 7.32399 3.53333 7.31101L2.83333 6.85546C2.81689 6.84447 2.79755 6.83861 2.77778 6.83861C2.758 6.83861 2.73867 6.84447 2.72222 6.85546L2.02222 7.31101C2.00522 7.32399 1.98451 7.33118 1.96313 7.33152C1.94174 7.33186 1.92081 7.32534 1.90341 7.31291C1.886 7.30048 1.87304 7.28279 1.86643 7.26245C1.85982 7.24212 1.8599 7.22019 1.86667 7.1999L2.08889 6.38879C2.09557 6.3691 2.09595 6.34782 2.08998 6.32791C2.084 6.30799 2.07197 6.29044 2.05555 6.27768L1.4 5.76657C1.3843 5.75399 1.37277 5.73696 1.3669 5.71772C1.36103 5.69848 1.3611 5.67792 1.3671 5.65872C1.3731 5.63952 1.38475 5.62257 1.40053 5.6101C1.41631 5.59762 1.43549 5.5902 1.45555 5.58879L2.3 5.54435C2.33333 5.54435 2.37778 5.52212 2.38889 5.47768L2.68889 4.6999V4.68879ZM2.68889 8.02212C2.6973 8.0058 2.71005 7.99211 2.72573 7.98255C2.7414 7.97299 2.75941 7.96794 2.77778 7.96794C2.79614 7.96794 2.81415 7.97299 2.82983 7.98255C2.84551 7.99211 2.85825 8.0058 2.86667 8.02212L3.16667 8.81101C3.17778 8.85546 3.22222 8.87768 3.25555 8.87768L4.1 8.92212C4.18889 8.92212 4.22222 9.03323 4.15555 9.0999L3.48889 9.62212C3.47438 9.63622 3.46449 9.65439 3.46052 9.67423C3.45655 9.69407 3.4587 9.71464 3.46667 9.73324L3.68889 10.5332C3.69565 10.5535 3.69574 10.5754 3.68912 10.5958C3.68251 10.6161 3.66955 10.6338 3.65215 10.6462C3.63474 10.6587 3.61381 10.6652 3.59243 10.6649C3.57104 10.6645 3.55033 10.6573 3.53333 10.6443L2.83333 10.1888C2.81689 10.1778 2.79755 10.1719 2.77778 10.1719C2.758 10.1719 2.73867 10.1778 2.72222 10.1888L2.02222 10.6443C2.00522 10.6573 1.98451 10.6645 1.96313 10.6649C1.94174 10.6652 1.92081 10.6587 1.90341 10.6462C1.886 10.6338 1.87304 10.6161 1.86643 10.5958C1.85982 10.5754 1.8599 10.5535 1.86667 10.5332L2.08889 9.72212C2.09557 9.70244 2.09595 9.68116 2.08998 9.66124C2.084 9.64133 2.07197 9.62377 2.05555 9.61101L1.4 9.0999C1.3843 9.08732 1.37277 9.0703 1.3669 9.05106C1.36103 9.03181 1.3611 9.01125 1.3671 8.99205C1.3731 8.97285 1.38475 8.95591 1.40053 8.94343C1.41631 8.93096 1.43549 8.92353 1.45555 8.92212L2.3 8.87768C2.33333 8.87768 2.37778 8.85546 2.38889 8.81101L2.68889 8.03324V8.02212ZM6.02222 1.35546C6.03063 1.33913 6.04338 1.32544 6.05906 1.31588C6.07474 1.30633 6.09275 1.30127 6.11111 1.30127C6.12947 1.30127 6.14748 1.30633 6.16316 1.31588C6.17884 1.32544 6.19159 1.33913 6.2 1.35546L6.5 2.14435C6.51111 2.18879 6.55555 2.21101 6.58889 2.21101L7.43333 2.25546C7.52222 2.25546 7.55555 2.36657 7.48889 2.43324L6.82222 2.95546C6.80771 2.96956 6.79782 2.98772 6.79385 3.00756C6.78989 3.0274 6.79203 3.04797 6.8 3.06657L7.02222 3.86657C7.02899 3.88686 7.02907 3.90878 7.02246 3.92912C7.01584 3.94946 7.00288 3.96714 6.98548 3.97958C6.96808 3.99201 6.94715 3.99853 6.92576 3.99819C6.90438 3.99785 6.88366 3.99066 6.86667 3.97768L6.16667 3.52212C6.15022 3.51114 6.13089 3.50527 6.11111 3.50527C6.09133 3.50527 6.072 3.51114 6.05555 3.52212L5.35556 3.97768C5.33856 3.99066 5.31784 3.99785 5.29646 3.99819C5.27507 3.99853 5.25414 3.99201 5.23674 3.97958C5.21934 3.96714 5.20638 3.94946 5.19976 3.92912C5.19315 3.90878 5.19323 3.88686 5.2 3.86657L5.42222 3.05546C5.42891 3.03577 5.42929 3.01449 5.42331 2.99457C5.41734 2.97466 5.40531 2.9571 5.38889 2.94435L4.73333 2.43324C4.71764 2.42065 4.7061 2.40363 4.70023 2.38439C4.69436 2.36515 4.69443 2.34459 4.70043 2.32538C4.70643 2.30618 4.71809 2.28924 4.73387 2.27677C4.74965 2.26429 4.76882 2.25686 4.78889 2.25546L5.63333 2.21101C5.66667 2.21101 5.71111 2.18879 5.72222 2.14435L6.02222 1.36657V1.35546ZM6.02222 4.68879C6.03063 4.67247 6.04338 4.65878 6.05906 4.64922C6.07474 4.63966 6.09275 4.6346 6.11111 4.6346C6.12947 4.6346 6.14748 4.63966 6.16316 4.64922C6.17884 4.65878 6.19159 4.67247 6.2 4.68879L6.5 5.47768C6.51111 5.52212 6.55555 5.54435 6.58889 5.54435L7.43333 5.58879C7.52222 5.58879 7.55555 5.6999 7.48889 5.76657L6.82222 6.28879C6.80771 6.30289 6.79782 6.32106 6.79385 6.3409C6.78989 6.36073 6.79203 6.38131 6.8 6.3999L7.02222 7.1999C7.02899 7.22019 7.02907 7.24212 7.02246 7.26245C7.01584 7.28279 7.00288 7.30048 6.98548 7.31291C6.96808 7.32534 6.94715 7.33186 6.92576 7.33152C6.90438 7.33118 6.88366 7.32399 6.86667 7.31101L6.16667 6.85546C6.15022 6.84447 6.13089 6.83861 6.11111 6.83861C6.09133 6.83861 6.072 6.84447 6.05555 6.85546L5.35556 7.31101C5.33856 7.32399 5.31784 7.33118 5.29646 7.33152C5.27507 7.33186 5.25414 7.32534 5.23674 7.31291C5.21934 7.30048 5.20638 7.28279 5.19976 7.26245C5.19315 7.24212 5.19323 7.22019 5.2 7.1999L5.42222 6.38879C5.42891 6.3691 5.42929 6.34782 5.42331 6.32791C5.41734 6.30799 5.40531 6.29044 5.38889 6.27768L4.73333 5.76657C4.71764 5.75399 4.7061 5.73696 4.70023 5.71772C4.69436 5.69848 4.69443 5.67792 4.70043 5.65872C4.70643 5.63952 4.71809 5.62257 4.73387 5.6101C4.74965 5.59762 4.76882 5.5902 4.78889 5.58879L5.63333 5.54435C5.66667 5.54435 5.71111 5.52212 5.72222 5.47768L6.02222 4.6999V4.68879ZM6.02222 8.02212C6.03063 8.0058 6.04338 7.99211 6.05906 7.98255C6.07474 7.97299 6.09275 7.96794 6.11111 7.96794C6.12947 7.96794 6.14748 7.97299 6.16316 7.98255C6.17884 7.99211 6.19159 8.0058 6.2 8.02212L6.5 8.81101C6.51111 8.85546 6.55555 8.87768 6.58889 8.87768L7.43333 8.92212C7.52222 8.92212 7.55555 9.03323 7.48889 9.0999L6.82222 9.62212C6.80771 9.63622 6.79782 9.65439 6.79385 9.67423C6.78989 9.69407 6.79203 9.71464 6.8 9.73324L7.02222 10.5332C7.02899 10.5535 7.02907 10.5754 7.02246 10.5958C7.01584 10.6161 7.00288 10.6338 6.98548 10.6462C6.96808 10.6587 6.94715 10.6652 6.92576 10.6649C6.90438 10.6645 6.88366 10.6573 6.86667 10.6443L6.16667 10.1888C6.15022 10.1778 6.13089 10.1719 6.11111 10.1719C6.09133 10.1719 6.072 10.1778 6.05555 10.1888L5.35556 10.6443C5.33856 10.6573 5.31784 10.6645 5.29646 10.6649C5.27507 10.6652 5.25414 10.6587 5.23674 10.6462C5.21934 10.6338 5.20638 10.6161 5.19976 10.5958C5.19315 10.5754 5.19323 10.5535 5.2 10.5332L5.42222 9.72212C5.42891 9.70244 5.42929 9.68116 5.42331 9.66124C5.41734 9.64133 5.40531 9.62377 5.38889 9.61101L4.73333 9.0999C4.71764 9.08732 4.7061 9.0703 4.70023 9.05106C4.69436 9.03181 4.69443 9.01125 4.70043 8.99205C4.70643 8.97285 4.71809 8.95591 4.73387 8.94343C4.74965 8.93096 4.76882 8.92353 4.78889 8.92212L5.63333 8.87768C5.66667 8.87768 5.71111 8.85546 5.72222 8.81101L6.02222 8.03324V8.02212ZM9.35556 1.35546C9.36397 1.33913 9.37671 1.32544 9.39239 1.31588C9.40807 1.30633 9.42608 1.30127 9.44444 1.30127C9.46281 1.30127 9.48082 1.30633 9.4965 1.31588C9.51218 1.32544 9.52492 1.33913 9.53333 1.35546L9.83333 2.14435C9.84444 2.18879 9.88889 2.21101 9.92222 2.21101L10.7667 2.25546C10.8556 2.25546 10.8889 2.36657 10.8222 2.43324L10.1556 2.95546C10.141 2.96956 10.1312 2.98772 10.1272 3.00756C10.1232 3.0274 10.1254 3.04797 10.1333 3.06657L10.3556 3.86657C10.3623 3.88686 10.3624 3.90878 10.3558 3.92912C10.3492 3.94946 10.3362 3.96714 10.3188 3.97958C10.3014 3.99201 10.2805 3.99853 10.2591 3.99819C10.2377 3.99785 10.217 3.99066 10.2 3.97768L9.5 3.52212C9.48356 3.51114 9.46422 3.50527 9.44444 3.50527C9.42467 3.50527 9.40533 3.51114 9.38889 3.52212L8.68889 3.97768C8.67189 3.99066 8.65118 3.99785 8.62979 3.99819C8.60841 3.99853 8.58748 3.99201 8.57007 3.97958C8.55267 3.96714 8.53971 3.94946 8.5331 3.92912C8.52648 3.90878 8.52657 3.88686 8.53333 3.86657L8.75556 3.05546C8.76224 3.03577 8.76262 3.01449 8.75665 2.99457C8.75067 2.97466 8.73864 2.9571 8.72222 2.94435L8.06667 2.43324C8.05097 2.42065 8.03944 2.40363 8.03357 2.38439C8.0277 2.36515 8.02777 2.34459 8.03377 2.32538C8.03977 2.30618 8.05142 2.28924 8.0672 2.27677C8.08298 2.26429 8.10216 2.25686 8.12222 2.25546L8.96667 2.21101C9 2.21101 9.04444 2.18879 9.05555 2.14435L9.35556 1.36657V1.35546ZM9.35556 4.68879C9.36397 4.67247 9.37671 4.65878 9.39239 4.64922C9.40807 4.63966 9.42608 4.6346 9.44444 4.6346C9.46281 4.6346 9.48082 4.63966 9.4965 4.64922C9.51218 4.65878 9.52492 4.67247 9.53333 4.68879L9.83333 5.47768C9.84444 5.52212 9.88889 5.54435 9.92222 5.54435L10.7667 5.58879C10.8556 5.58879 10.8889 5.6999 10.8222 5.76657L10.1556 6.28879C10.141 6.30289 10.1312 6.32106 10.1272 6.3409C10.1232 6.36073 10.1254 6.38131 10.1333 6.3999L10.3556 7.1999C10.3623 7.22019 10.3624 7.24212 10.3558 7.26245C10.3492 7.28279 10.3362 7.30048 10.3188 7.31291C10.3014 7.32534 10.2805 7.33186 10.2591 7.33152C10.2377 7.33118 10.217 7.32399 10.2 7.31101L9.5 6.85546C9.48356 6.84447 9.46422 6.83861 9.44444 6.83861C9.42467 6.83861 9.40533 6.84447 9.38889 6.85546L8.68889 7.31101C8.67189 7.32399 8.65118 7.33118 8.62979 7.33152C8.60841 7.33186 8.58748 7.32534 8.57007 7.31291C8.55267 7.30048 8.53971 7.28279 8.5331 7.26245C8.52648 7.24212 8.52657 7.22019 8.53333 7.1999L8.75556 6.38879C8.76224 6.3691 8.76262 6.34782 8.75665 6.32791C8.75067 6.30799 8.73864 6.29044 8.72222 6.27768L8.06667 5.76657C8.05097 5.75399 8.03944 5.73696 8.03357 5.71772C8.0277 5.69848 8.02777 5.67792 8.03377 5.65872C8.03977 5.63952 8.05142 5.62257 8.0672 5.6101C8.08298 5.59762 8.10216 5.5902 8.12222 5.58879L8.96667 5.54435C9 5.54435 9.04444 5.52212 9.05555 5.47768L9.35556 4.6999V4.68879ZM9.35556 8.02212C9.36397 8.0058 9.37671 7.99211 9.39239 7.98255C9.40807 7.97299 9.42608 7.96794 9.44444 7.96794C9.46281 7.96794 9.48082 7.97299 9.4965 7.98255C9.51218 7.99211 9.52492 8.0058 9.53333 8.02212L9.83333 8.81101C9.84444 8.85546 9.88889 8.87768 9.92222 8.87768L10.7667 8.92212C10.8556 8.92212 10.8889 9.03323 10.8222 9.0999L10.1556 9.62212C10.141 9.63622 10.1312 9.65439 10.1272 9.67423C10.1232 9.69407 10.1254 9.71464 10.1333 9.73324L10.3556 10.5332C10.3623 10.5535 10.3624 10.5754 10.3558 10.5958C10.3492 10.6161 10.3362 10.6338 10.3188 10.6462C10.3014 10.6587 10.2805 10.6652 10.2591 10.6649C10.2377 10.6645 10.217 10.6573 10.2 10.6443L9.5 10.1888C9.48356 10.1778 9.46422 10.1719 9.44444 10.1719C9.42467 10.1719 9.40533 10.1778 9.38889 10.1888L8.68889 10.6443C8.67189 10.6573 8.65118 10.6645 8.62979 10.6649C8.60841 10.6652 8.58748 10.6587 8.57007 10.6462C8.55267 10.6338 8.53971 10.6161 8.5331 10.5958C8.52648 10.5754 8.52657 10.5535 8.53333 10.5332L8.75556 9.72212C8.76224 9.70244 8.76262 9.68116 8.75665 9.66124C8.75067 9.64133 8.73864 9.62377 8.72222 9.61101L8.06667 9.0999C8.05097 9.08732 8.03944 9.0703 8.03357 9.05106C8.0277 9.03181 8.02777 9.01125 8.03377 8.99205C8.03977 8.97285 8.05142 8.95591 8.0672 8.94343C8.08298 8.93096 8.10216 8.92353 8.12222 8.92212L8.96667 8.87768C9 8.87768 9.04444 8.85546 9.05555 8.81101L9.35556 8.03324V8.02212Z" fill="#F8F9FD"/>
</svg>
