<?xml version="1.0" encoding="utf-8"?>
<!-- Generator: Adobe Illustrator 26.3.1, SVG Export Plug-In . SVG Version: 6.00 Build 0)  -->
<svg version="1.1" id="Capa_1" xmlns="http://www.w3.org/2000/svg" xmlns:xlink="http://www.w3.org/1999/xlink" x="0px" y="0px"
	 viewBox="0 0 512 512" style="enable-background:new 0 0 512 512;" xml:space="preserve">
<style type="text/css">
	.st0{fill:#FFFFCA;}
	.st1{fill:#75D357;}
	.st2{fill:none;stroke:#5E9E4C;stroke-width:4;stroke-miterlimit:10;}
	.st3{opacity:0.28;fill:#66664A;}
	.st4{fill:none;stroke:#686434;stroke-width:4;stroke-linecap:round;stroke-linejoin:round;}
	.st5{fill:#84E146;}
	.st6{fill:#FCED2E;}
	.st7{fill:none;stroke:#175807;stroke-width:4;stroke-linecap:round;stroke-linejoin:round;}
	.st8{fill:#53A22F;}
	.st9{fill:#0BAB92;}
	.st10{fill:#06F5E2;}
	.st11{fill:#05FADB;}
	.st12{fill:none;stroke:#1B5C0A;stroke-width:4;stroke-linecap:round;stroke-linejoin:round;}
	.st13{fill:#53A22F;stroke:#175807;stroke-width:5;stroke-linecap:round;stroke-linejoin:round;}
	.st14{fill:#53A22F;stroke:#175807;stroke-width:2.0003;stroke-linecap:round;stroke-linejoin:round;stroke-miterlimit:4.0003;}
	.st15{fill:#83E145;stroke:#175807;stroke-width:2;stroke-linecap:round;stroke-linejoin:round;stroke-miterlimit:4;}
	.st16{fill:#53A22F;stroke:#175807;stroke-width:2;stroke-linecap:round;stroke-linejoin:round;}
	.st17{fill:#83E145;stroke:#175807;stroke-width:2;stroke-linecap:round;stroke-linejoin:round;}
	.st18{fill:#175807;}
	.st19{fill:url(#SVGID_1_);stroke:#175807;stroke-width:2;stroke-linecap:round;stroke-linejoin:round;}
	.st20{fill:#060203;}
	.st21{fill:#FFFFFF;}
	
		.st22{fill:url(#SVGID_00000088118805833868194080000011002496640202322074_);stroke:#175807;stroke-width:2;stroke-linecap:round;stroke-linejoin:round;}
	.st23{fill:#83FCFF;}
	.st24{fill:none;stroke:#31CFDB;stroke-miterlimit:10;}
	.st25{fill:none;stroke:#084D56;stroke-width:4;stroke-linecap:round;stroke-linejoin:round;}
	.st26{fill:none;stroke:#5E9E4C;stroke-width:4.0002;stroke-miterlimit:10.0004;}
</style>
<g>
	<g id="Capa_2_00000124880338955368599240000016478933247053628040_">
		<g>
			<path class="st0" d="M317,381.5c0,32.2,18.2,45.2,40.7,45.2s40.7-13,40.7-45.2s-18.2-71.4-40.7-71.4S317,349.3,317,381.5z"/>
			<circle class="st1" cx="375.5" cy="394" r="17.8"/>
			<path class="st1" d="M370,314.1c0,0,16.6,9.6,23.4,38.5c0,0-14,11.5-27.2-0.8s-6.7-26.4-6.7-26.4S362.9,316.1,370,314.1
				L370,314.1z"/>
			<path class="st2" d="M370,314.1c-7.3,3.7-12.3,11.3-12.3,20.1c0,12.5,10.1,22.6,22.6,22.6c5.1,0,9.8-1.7,13.6-4.6"/>
			<circle class="st2" cx="375.5" cy="394" r="17.8"/>
			<path class="st1" d="M323.3,346.5c8.9-3.9,18.3-5.7,26.9,6.1c8.6,11.8,7.8,29.2,0.5,39.1c-7.4,10-22.5,15.9-32.7,1.8
				C318,393.5,313.4,373.2,323.3,346.5L323.3,346.5z"/>
			<path class="st2" d="M318,393.5c4.1,5.1,9.6,8.2,15.7,8.2c12.5,0,22.6-13.1,22.6-29.2s-10.1-29.2-22.6-29.2s-7.3,1.2-10.4,3.2"/>
			<path class="st3" d="M397.2,366.8c0,0-40.7,29.9-79,0c0,0-12.3,59.1,39.5,59.9S397.2,366.8,397.2,366.8z"/>
			<path class="st4" d="M317,381.5c0,32.2,18.2,45.2,40.7,45.2s40.7-13,40.7-45.2s-18.2-71.4-40.7-71.4S317,349.3,317,381.5z"/>
		</g>
		<g>
			<path class="st0" d="M382.4,376c0,41,23.2,57.6,51.8,57.6S486,417,486,376s-23.2-91-51.8-91S382.4,334.9,382.4,376z"/>
			<circle class="st1" cx="457" cy="391.9" r="22.7"/>
			<path class="st1" d="M449.9,290.1c0,0,21.2,12.2,29.8,49.1c0,0-17.9,14.7-34.7-1c-16.8-15.7-8.6-33.6-8.6-33.6
				S440.7,292.7,449.9,290.1L449.9,290.1z"/>
			<path class="st2" d="M449.9,290.1c-9.3,4.8-15.7,14.5-15.7,25.6c0,15.9,12.9,28.8,28.8,28.8s12.5-2.2,17.4-5.8"/>
			<circle class="st2" cx="457" cy="391.9" r="22.7"/>
			<path class="st1" d="M390.5,331.5c11.3-5,23.3-7.3,34.3,7.8c11,15.1,10,37.2,0.6,49.9c-9.4,12.7-28.7,20.3-41.7,2.3
				C383.7,391.5,377.8,365.6,390.5,331.5L390.5,331.5z"/>
			<path class="st2" d="M383.7,391.4c5.2,6.5,12.2,10.4,20,10.4c15.9,0,28.8-16.7,28.8-37.3s-12.9-37.3-28.8-37.3
				c-4.8,0-9.2,1.5-13.2,4.1"/>
			<path class="st3" d="M484.6,357.3c0,0-51.9,38.1-100.7,0c0,0-15.7,75.4,50.3,76.4c66.1,1,50.3-76.4,50.3-76.4H484.6z"/>
			<path class="st4" d="M382.4,376c0,41,23.2,57.6,51.8,57.6S486,417,486,376s-23.2-91-51.8-91S382.4,334.9,382.4,376z"/>
		</g>
		<g>
			<path class="st0" d="M190.5,381.5c0,32.2-18.2,45.2-40.7,45.2s-40.7-13-40.7-45.2s18.2-71.4,40.7-71.4S190.5,349.3,190.5,381.5z"
				/>
			<circle class="st1" cx="132" cy="394" r="17.8"/>
			<path class="st1" d="M137.5,314.1c0,0-16.6,9.6-23.4,38.5c0,0,14,11.5,27.2-0.8s6.7-26.4,6.7-26.4s-3.4-9.3-10.6-11.4
				L137.5,314.1z"/>
			<path class="st2" d="M137.5,314.1c7.3,3.7,12.3,11.3,12.3,20.1c0,12.5-10.1,22.6-22.6,22.6s-9.8-1.7-13.6-4.6"/>
			<circle class="st2" cx="132" cy="394" r="17.8"/>
			<path class="st1" d="M184.2,346.5c-8.9-3.9-18.3-5.7-26.9,6.1c-8.6,11.8-7.8,29.2-0.5,39.1c7.4,10,22.5,15.9,32.7,1.8
				C189.5,393.5,194.1,373.2,184.2,346.5z"/>
			<path class="st2" d="M189.5,393.5c-4.1,5.1-9.6,8.2-15.7,8.2c-12.5,0-22.6-13.1-22.6-29.2s10.1-29.2,22.6-29.2s7.3,1.2,10.4,3.2"
				/>
			<path class="st3" d="M110.3,366.8c0,0,40.7,29.9,79,0c0,0,12.3,59.1-39.5,59.9S110.3,366.8,110.3,366.8z"/>
			<path class="st4" d="M190.5,381.5c0,32.2-18.2,45.2-40.7,45.2s-40.7-13-40.7-45.2s18.2-71.4,40.7-71.4S190.5,349.3,190.5,381.5z"
				/>
		</g>
		<path class="st5" d="M175.7,422.8c-5.5-3.2-10-8-13.8-13.2c-5.5-7.5-10-16.1-11.2-25.3c-1.2-9.3,1.2-19.3,7.7-25.9
			s17.5-9.1,25.6-4.6s11.6,16.5,6,24c-0.5,0.6-1,1.2-1.7,1.5c-2.1,0.8-4-1.8-4.4-4s-0.4-4.9-2.1-6.3c-1.5-1.2-3.9-0.9-5.4,0.3
			s-2.3,3.1-2.7,5c-1.5,7.8,4,16.2,11.8,17.9c6.1,1.3,12.8-1.1,18.6,1.2c5.5,2.1,8.7,7.7,11.1,13.1c4.1,9.4,3.8,19.4-7.5,20.6
			C197,428.3,185.3,428.2,175.7,422.8L175.7,422.8z"/>
		<path class="st6" d="M181.1,357.8c-2.8-1.3-6.1-1.8-8.9-0.6c-1.7,0.7-3.2,1.9-4.6,3.1c-2.6,2.2-5.2,4.4-6.8,7.4
			c-1.9,3.6-2,7.9-1.9,12c0.1,5.1,0.5,10.4,2.5,15.1c1.3,3,3.3,5.7,5.4,8.2c4.7,5.7,10.3,11.1,17.5,12.6c7.6,1.6,15.3-1.3,23.1-2.2
			c3-0.3,6.7,0,7.9,2.9c0.5,1.2,0.4,2.5,0,3.8c-0.8,2.6-2.9,4.8-5.5,5.8c-1.6,0.6-3.3,0.8-4.9,0.9c-6.1,0.6-12.2,1.2-18.3,0.5
			c-6.1-0.6-12.2-2.6-16.9-6.6c-1.5-1.2-2.8-2.7-4-4.1c-8.1-9.7-13.3-21.8-15-34.3c-0.6-4.8-0.8-9.8,0.6-14.4s4.4-9,8.8-11.1
			c2.6-1.2,3.5-3.5,6.4-3.6c1,0,2.5-1.1,3.4-1.7c0.7-0.4,3.8,0.5,4.4,0c2.3-2,5-0.3,7.7,1.2s4.7,4,6.4,6.5c2.9,4.2,5.6,9.2,4.7,14.3
			c-0.3,1.5-1.6,4-2.9,2.3s-0.2-5.2-0.5-6.7C188.7,364.4,185.6,360,181.1,357.8L181.1,357.8z"/>
		<path class="st7" d="M175.7,422.8c-5.5-3.2-10-8-13.8-13.2c-5.5-7.5-10-16.1-11.2-25.3c-1.2-9.3,1.2-19.3,7.7-25.9
			s17.5-9.1,25.6-4.6s11.6,16.5,6,24c-0.5,0.6-1,1.2-1.7,1.5c-2.1,0.8-4-1.8-4.4-4s-0.4-4.9-2.1-6.3c-1.5-1.2-3.9-0.9-5.4,0.3
			s-2.3,3.1-2.7,5c-1.5,7.8,4,16.2,11.8,17.9c6.1,1.3,12.8-1.1,18.6,1.2c5.5,2.1,8.7,7.7,11.1,13.1c4.1,9.4,3.8,19.4-7.5,20.6
			C197,428.3,185.3,428.2,175.7,422.8L175.7,422.8z"/>
		<g>
			<g>
				<path class="st5" d="M306,342.8c-10.2,3.5-15,5.9-20.5,0s-5.1-19.1,7.8-27.2s24.8-11.8,31-16.5c6.2-4.6,9.3-8,11.4-21
					c2.1-13.1,4.8-20.8,11.1-10.2c6.3,10.7,3.7,8.8,3.7,8.8s8.7-20.5,13.4-19.5s8.5,3.9,0,20.9c0,0,16-15.7,18.5-9.1
					c2.6,6.7-5,18.4-15.3,23.5c0,0,16.3-8.3,20.3-2.7s-1.2,11.4-10.9,14.6c-9.7,3.2-22.8,6.2-29.5,11s-29.8,23.5-41.1,27.4
					L306,342.8z"/>
				<path class="st8" d="M305.5,326.1c12.8-6.2,25.4-12.9,37.1-21.1c1.9-1.4,3.9-2.8,5.3-4.6c3.9-4.9,3.9-11.8,3.2-18.1
					c-0.2-2-0.5-4,0-5.9s1.7-3.8,3.6-4.3c2.9-0.8,5.6,1.8,7.6,4.1c2.1,2.4,4.1,4.8,6.1,7.3c3.1,3.9,6.1,8.2,6.6,13.2
					c0.2,2,0,4.1-1.1,5.8c-1.6,2.3-4.4,3.2-7.1,4c-10.5,3.4-20.3,8.9-28.7,16c-3.7,3.1-7.2,6.6-11.2,9.5c-7,5.1-15.1,8.3-23.2,11.5
					c-3.6,1.4-18.1,4.1-15.6-3.8s11.7-10.7,17.4-13.5L305.5,326.1z"/>
			</g>
			<g>
				<path class="st7" d="M299,345.3c12-3.7,22.8-10.4,32.6-18.1c6.9-5.4,13.6-11.5,21.6-15.1c11.8-5.3,26.8-5.6,34.9-15.7
					c0.6-0.8,1.2-1.6,1.3-2.5c0.6-3.5-3.8-5.6-7.3-5.7c-5.5-0.1-11.1,1.7-15.4,5.1"/>
				<path class="st7" d="M286.6,322.9c7.7-11.3,21.5-16.3,33.9-22c3.7-1.7,7.4-3.5,10-6.5c6.1-6.9,4.6-17.3,6.2-26.4
					c0.2-1.1,0.4-2.2,1.1-3.1c1.5-1.9,4.7-1.7,6.6-0.2s2.9,3.9,3.6,6.3c2.5,8.2,3.3,17,2.4,25.6c-0.1,1-0.3,2.2-1.1,2.8"/>
				<path class="st7" d="M365.6,292.9c4.2-0.7,7.6-3.7,10.6-6.7c3.9-3.8,7.8-8.4,7.5-13.9c0-1.2-0.4-2.5-1.3-3.3
					c-2-1.9-5.3-0.7-7.6,0.9c-5.2,3.5-9.7,8-13.1,13.2c3.9-5.8,5.9-12.5,7.3-19.3c0.5-2.7,0.4-6.2-2.2-7c-2.3-0.7-4.3,1.4-5.7,3.3
					c-3.9,5.3-7.4,10.9-10.5,16.7"/>
				<path class="st7" d="M367.1,301.6c-2.9-8.5-6-17.4-12.5-23.6"/>
			</g>
		</g>
		<path class="st5" d="M199.5,335c1.7,24,4.6,45.7,4.7,57.9s-3.6,28.2,12.6,41.3s42.2,32.4,62.2,28s19.9-22.7,19.9-22.7
			s5.4,7.9,18.2-1.1c0,0,23.6-9.6,29.3-5.2s14.3,17.9,25.9,13.6s19.4-2.2,19.4-23.5s3.3-51.6-5-59.7c-8.3-8.2-15.3-11.9-21.8,0.2
			c-6.5,12.2-11.3,26.7-11.3,26.7s-18-9-31.1-2.7c0,0-1.9-2-6.9-8.1c-5-6-10.2-9.7-10.3-28.3s0.4-37.9-18.8-44.4
			c-19.2-6.5-91.5-36.6-87.1,27.9L199.5,335z"/>
		<path class="st6" d="M228.9,369.6c-2-11.3-4-24.1,3.1-33.1c6.9-8.7,19.4-10.1,30.5-10.5c4.8-0.2,9.7-0.3,14.3,0.7
			s9.2,3.5,11.9,7.4c5.1,7.5,2.2,17.7,5,26.3c1.8,5.6,5.8,10.1,9.5,14.6c5.6,6.8,10.7,14.1,13.9,22.4c3.2,8.2,4.2,17.5,1.6,25.9
			c-1.8,5.8-5.9,11.5-11.8,13c-4.8,1.2-10-0.4-14.8,0.9c-3.1,0.9-5.7,3-8.5,4.6c-9.7,5.7-22.4,5.8-32.2,0.3
			c-10.3-5.8-15.4-16.2-16.5-27.6c-1.5-15.1-3.4-30-6-45L228.9,369.6z"/>
		<path class="st5" d="M297.5,440.1c-6.1,28.7-27,25.8-42.1,18.2s-18.5-29.5-14.5-49.6c4.1-20,9.8-30.7,28.9-37.4
			c33.3-11.5,33.8,40,27.7,68.7V440.1z"/>
		<path class="st8" d="M237.5,313.3c-4.6,4.6-10.5,8.3-13.2,14.2c-2.5,5.6-2.3,13-7.5,16.3c-1,0.6-2.1,1-2.9,1.8
			c-1.4,1.4-1.6,3.5-1.8,5.4c-0.7,10.6-0.2,21.2,0.7,31.8c1.5,17.2,4.3,35.3,15.1,48.7c4.1,5.1,9.5,9.5,15.9,10.9
			c1.3,0.3,2.8,0.4,3.8-0.6c0.7-0.7,0.9-1.8,1-2.9c1-8.3,1.2-16.6,0.8-25c-0.4-8.2-1.2-17.4,3.8-23.9c1.6,10.2,3.9,21.2,11.9,27.7
			c5.7,4.7,14,6.1,21,3.5c7-2.5,12.4-8.9,13.7-16.2l0.6,21.9c0,1.8,0.2,3.8,1.4,5.1c1.2,1.3,3.1,1.6,4.9,1.5c7-0.4,13.3-6.4,14-13.3
			c0-0.9,0.1-1.8,0.6-2.6c1-1.4,3.2-1.2,4.9-0.5c3.6,1.4,6.8,4,10.7,4.4c3.8,0.4,7.5-1.6,11.1-2.8s8.3-1.5,10.8,1.4l0.2-26.7
			c3.2,4.5,2.9,11.8,7.9,14.1c4,1.8,8.7-1.1,11-4.8s3.2-8.2,5.4-12c1.5-2.7,4.8-5.2,7.4-3.5c1.5,1,2,3,2.3,4.8
			c2.4,15.4,0.3,31.5-6,45.8c-1.3,2.9-2.8,5.8-5.4,7.7c-4.4,3.1-10.4,2.2-15.4,0.3c-5.5-2-10.6-5.1-15.1-8.8c-2.4-2-4.7-4.3-7.8-5
			c-2.4-0.5-4.9,0-7.3,0.6l-35.6,8.3c-0.8,0.2-1.5,0.4-2.2,0.8c-1.6,1.1-1.8,3.2-2.2,5c-1.3,6.3-5.6,11.8-11.4,14.7
			c-1.1,0.6-2.4,1.1-3.6,1.1c-1.5,0-3-0.6-4.5-0.9c-5.8-1.5-12.1,0.4-18-0.4c-5.5-0.7-10.4-3.7-15.2-6.5
			c-11.9-7.2-24.2-14.9-31.6-26.7c-6.3-10.2-8.4-22.4-8.8-34.4c-0.4-12,0.8-24,0.3-35.9c-0.7-16.4-4.5-33.3,1.1-48.7
			c1.6-4.5,4.3-9,8.5-11.3c3.8-2.1,8.2-2.2,12.5-2.3c4.4,0,15.6-2.5,17.7,2c2.5,5.4-1.9,12.3-5.6,15.9H237.5z"/>
		<g>
			<path class="st7" d="M325.4,403.5c0,0-2.3-16.8-12.8-27.9s-6.4-24.4-7-37.2s-2.3-20.7-10.4-26.9c-8.1-6.2-60.4-25.4-80.7-13.8
				c-1.5,0.9-18.6,9.9-14.5,41.2s4.4,48.8,4.2,65.6s11.5,33.1,35.8,46.4s50.3,19.7,57.9-10.4c0,0,22.7,7.5,27.4-18"/>
			<path class="st7" d="M320.9,388.5c0,0,11.1-8.2,32.9,1.7c0,0,4.1-16.5,11.3-26.7c7.3-10.2,14.8-11.9,20.9-2s12.5,83-9.3,85
				s-24.1-12.5-30.2-13.6s-29.3,5.2-29.3,5.2"/>
			<path class="st7" d="M264,461c-11-6.7-14.2-19.2-15.3-43.2s12.5-43,19.7-45.9c7.3-2.9,25-6.1,29.1,21.5s3.1,35.4,0.5,47.3"/>
			<path class="st7" d="M377.8,355.3c-1.7-0.8-3.3,1.2-4.2,2.9c-11,22.1-17.6,47.7-10.8,71.5c1.2,4.4,3,8.7,6.1,12.1
				c3.1,3.3,7.8,5.5,12.2,4.6"/>
			<path class="st7" d="M268.8,373.8c0.8,13.8,1.1,27.6,1,41.4"/>
			<path class="st7" d="M282,373.8c0.8,14.8,2.1,29.7,3.9,44.4"/>
			<path class="st7" d="M261.5,376.4c-15.4,11.8-24,32.1-21.6,51.4"/>
			<path class="st7" d="M372.1,360.7c0.4,14.4,0.4,28.7-0.2,43.1"/>
			<path class="st7" d="M383.8,358.5c0.4,13.9,0,27.9-1.3,41.8"/>
		</g>
		<g>
			<g>
				<path class="st8" d="M360,219.5c0,0,7.3-5,12.5-17.3s8.7-30.9-1-47s-21-16.6-21-16.6S307.5,163.7,360,219.5"/>
				<g>
					<g>
						<path class="st5" d="M262.8,322.3c0.6,1.5,2.6,0,4.4-2.4C264.2,320.7,262.5,321.5,262.8,322.3z"/>
						<path class="st5" d="M373.6,249.6c0,0-0.9-34-6.8-46.8c-6-13-39.2-75.5-45-82.5c0,0-8.4-14.1-27.6-19.9s-42.9-9.6-52-11.9
							c0,0-19.9-4.6-38.7-7.1S165,90,159.2,98.2s-2.1,36.7-2.1,36.7l1.3,8.4c0.4,18.6-15.3,90.4,9.6,126.3s40.3,33.2,47.2,34.4
							c46.8,8.5,46.5,1.9,54.9,7.9c1.4,1-0.7,5.2-3,8.1c10.1-2.7,35.1-5.7,53.1-10.5h0.2c18.1-4.9,30.2-12.8,39.7-19.4
							c6.3-4.4,11-21.1,10.8-26.2C371,263.8,371.4,256.7,373.6,249.6z"/>
					</g>
					<path class="st9" d="M154.7,82.6c2.4-2.5,5.2-4.2,8.2-5.5c0.2,1.3,7.9,1.2,6.9,2.8c-2.9,4.6-6.6,4.9-0.8,9.6
						c5.8,4.8,2,7.3,1.7,11s7.5-1.9,7.9,4.8c0.3,6.7-1.3,3.2,0.2,7.8c-4,1.8-23.2,12-27.8,12.2C149.4,108.3,148.6,89,154.7,82.6
						L154.7,82.6z"/>
					<path class="st10" d="M250.3,101.5c0.4,1.3,0.3,3-0.9,3.7c-0.6,0.3-1.3,0.3-1.9,0.2c-9.7-0.8-19.4-1.6-29-2.4
						c-6.3-0.5-12.7-1-18.8,0.6c-3.9,1-7.6,2.8-11.2,4.7c-4.5,2.3-9,4.5-13.5,6.8c-3.9,2-7.8,3.9-11.8,5.7c-1.4-4.6,2.3-4.3,2-11
						s-3.9-3.2-3.6-6.9c0.3-3.7,5-4.5-0.8-9.3s-1.6-7.5,1.2-12.1c1-1.6,1.1-3.1,0.9-4.4c9.1-3.8,20.3-2.6,28.2-2.2
						s27.6,6.7,40.8,10.7c3.4,2.1,6.8,4.4,10.2,6.7C245.5,94.7,249.1,97.5,250.3,101.5L250.3,101.5z"/>
					<path class="st8" d="M167.1,140.6c0.4,18.6-8.4,80.7,16.5,116.6s71.8,57.9,116.5,41.7c44.7-16.3,49.8-20.6,57.6-27.4
						c20-17.4,9,2.4,7.7,8.2c-15.4,27.7-36,24.5-65.4,35.4c-46,17-127.7,0.2-145.2-47.7c-3.9-10.8-8.6-19-6.6-44.3
						c-1-12.5,5.6-59,5-73.9c-0.2-5.4-1.3-14.2-2.2-23.8c4.2-1.2,8.3-2.8,12.3-4.6c1.4,4.6,3.5,1.2,3.9,19.8H167.1z"/>
				</g>
				<path class="st8" d="M281.9,168.5c2.1,18.8-5.6,43.7-25,58.9s-45.4,17-59.4,8.4c-13.9-8.6-21.9-25.9-8.4-56.3
					S278.4,138.4,281.9,168.5L281.9,168.5z"/>
				<g>
					<path class="st11" d="M187.5,179.5c0.9,22.5-5.9,25.5-9.8,17.4c-6.2-12.9-6.7-24.8,0.6-44.6s39.5-42.8,69.6-30.6
						c30,12.2,52.5,52.3,29,67.4c-3.2,2.1-2.4-11.6-5.3-18c-2.8-6.4-22.5-26.6-44.6-24.7s-40.6,8.4-39.6,33.1H187.5z"/>
					<path class="st12" d="M172,177.8c0.1-0.8-0.2-30,25.3-48s48.8-10.9,61.9-2.4s25.4,24,26.8,43.1"/>
					<path class="st12" d="M196.7,158.4c0,0-11.1-7.1-9.5-19.6"/>
					<path class="st12" d="M228.2,144c0,0-8-12.7-0.5-25.4"/>
					<path class="st12" d="M259.4,154.3c0,0-1.9-8.6,11.2-17.4"/>
				</g>
				<path class="st13" d="M251.3,223.4c13-9,22.9-19.1,22.4-35.5c-0.6-22.1-12.3-39.6-43.4-41.2c-31.1-1.6-41.8,23.2-44.7,31.8
					c-2.3,6.8-5,26,11.9,41.1c14.7,13.1,36.4,15.3,52.8,4.4C250.6,223.8,250.9,223.6,251.3,223.4L251.3,223.4z"/>
				<path class="st11" d="M361.8,142.7c0,0-6.8-25-20.3-28.6s-24.6,4.6-25.6,25.7c-1,21,3.7,25.8,8.5,34.5s11,17.7,14.9,12.2
					c0,0-6-20.8-1.9-30.9s9.8-19.7,24.4-12.8V142.7z"/>
				<path class="st8" d="M368.9,201.1c0,0,4.1,21.6,0.1,25.5c-3.9,3.9-17.5-14.4-17.9-20.6C350.8,199.8,368.9,201.1,368.9,201.1z"/>
				
					<ellipse transform="matrix(0.993 -0.1184 0.1184 0.993 -20.7472 28.3704)" class="st14" cx="228.4" cy="188.8" rx="33.7" ry="31.4"/>
				
					<ellipse transform="matrix(3.489854e-02 -0.9994 0.9994 3.489854e-02 31.7799 410.8357)" class="st15" cx="228.6" cy="189" rx="24" ry="27.1"/>
				<path class="st16" d="M354.9,214.3c0,0,12.1-6.5,14.7-22.9s-3.6-29.1-13.9-39.1c-13.5-13.1-16.7-4.6-16.7-4.6
					S325.3,172.7,354.9,214.3L354.9,214.3z"/>
				<path class="st17" d="M346.7,202.7c10.3,6.2,15.9-2.6,17.7-7.7c1.8-5.1,2.4-24.6-10.1-33.3c-12.6-8.7-18.8,4.2-18.8,4.2"/>
				<path class="st7" d="M322,119.3c0,0-15.5-14-30.4-20.1c-15-6.1-41.5-7.6-60.7-13.7s-53.5-18.2-72-6c-7.4,4.7-10.9,9.5-6.6,53.9
					c4.3,44.5-19.9,123.1,17.5,156C191,308,220.7,315,220.7,315"/>
				<path class="st7" d="M362.7,142.6c0,0-7.2-22.1-18.4-27.9c-11.3-5.8-22.2,0.2-25.5,13.1c-3.2,12.9-3.8,31.6,5.7,46.5"/>
				<path class="st7" d="M371.2,207.7c0,0,4.3,25.6,2.5,41.8"/>
				<path class="st7" d="M250.5,320.2c36.6,2.8,75.9-9.1,97.6-20.6c21.7-11.6,24.6-46.8,25.3-49.9"/>
				<path class="st18" d="M326.6,213.3c0,0,7.3,3.4,6.5,5.8C332.2,221.5,328.5,222,326.6,213.3z"/>
				<path class="st18" d="M307.9,213.4c0,0-0.9,7.5-3.6,7.6S301.1,219,307.9,213.4z"/>
				<path class="st7" d="M336.7,112.5c0,0,9.8,6.3,15.1,24.6"/>
				<path class="st7" d="M318.3,129.7c0,0,13,0.8,21.8,18.2"/>
				<path class="st7" d="M338.7,151c3.6-12.2,19.5-15.3,27.4-5.4c3.3,4.1,6.3,8.8,8.5,14c7.3,17.8,8.1,38-13.3,59.1
					c0,0-34.5-27-22.5-67.8L338.7,151z"/>
				<path class="st7" d="M367.6,227.2c-18.3-19.8-32.3-32.3-32.1-60.3c0.1-29.2,17.4-27.2,17.4-27.2"/>
			</g>
			<g>
				
					<linearGradient id="SVGID_1_" gradientUnits="userSpaceOnUse" x1="5068.6431" y1="-432.3976" x2="5068.6431" y2="-469.8015" gradientTransform="matrix(0.9893 0.1461 -0.1461 0.9893 -4849.1113 -104.1116)">
					<stop  offset="0" style="stop-color:#E8AF15"/>
					<stop  offset="0" style="stop-color:#D59A15"/>
					<stop  offset="0.1" style="stop-color:#B77716"/>
					<stop  offset="0.2" style="stop-color:#9E5A17"/>
					<stop  offset="0.3" style="stop-color:#894218"/>
					<stop  offset="0.4" style="stop-color:#793019"/>
					<stop  offset="0.5" style="stop-color:#6E2319"/>
					<stop  offset="0.7" style="stop-color:#671C19"/>
					<stop  offset="1" style="stop-color:#661A1A"/>
				</linearGradient>
				<circle class="st19" cx="231.8" cy="186.1" r="18.7"/>
				<circle class="st20" cx="233.1" cy="186.3" r="11.8"/>
				<circle class="st21" cx="241.3" cy="178.1" r="4"/>
			</g>
			<g>
				
					<linearGradient id="SVGID_00000048472059228129507000000018261979460161586861_" gradientUnits="userSpaceOnUse" x1="5184.2827" y1="-456.8976" x2="5184.2827" y2="-494.2977" gradientTransform="matrix(0.9893 0.1461 -0.1461 0.9893 -4849.1113 -104.1116)">
					<stop  offset="0" style="stop-color:#E8AF15"/>
					<stop  offset="0" style="stop-color:#D59A15"/>
					<stop  offset="0.1" style="stop-color:#B77716"/>
					<stop  offset="0.2" style="stop-color:#9E5A17"/>
					<stop  offset="0.3" style="stop-color:#894218"/>
					<stop  offset="0.4" style="stop-color:#793019"/>
					<stop  offset="0.5" style="stop-color:#6E2319"/>
					<stop  offset="0.7" style="stop-color:#671C19"/>
					<stop  offset="1" style="stop-color:#661A1A"/>
				</linearGradient>
				
					<path style="fill:url(#SVGID_00000048472059228129507000000018261979460161586861_);stroke:#175807;stroke-width:2;stroke-linecap:round;stroke-linejoin:round;" d="
					M338.2,172.5c0.5,8.2,2.7,16.6,6.5,23.9c8.9-0.2,16.7-6.8,18-15.9c1.5-10.2-5.6-19.7-15.8-21.2c-2.5-0.4-5-0.2-7.4,0.4
					C338.7,163.8,338.2,168.2,338.2,172.5L338.2,172.5z"/>
				<path class="st20" d="M338.2,172.4c0.3,5.6,1.4,11.3,3.3,16.6c0.7,0.3,1.5,0.5,2.3,0.6c6.4,0.9,12.4-3.5,13.4-9.9
					c0.9-6.4-3.5-12.4-9.9-13.4c-3.3-0.5-6.4,0.4-8.8,2.3C338.5,169.9,338.3,171.1,338.2,172.4L338.2,172.4z"/>
				<circle class="st21" cx="353.7" cy="169.9" r="4"/>
			</g>
			<g>
				<path class="st23" d="M323.4,240.4c-9.5,1.7-24.4-17.7-38.7-9.4s-16.5,36.6-1.7,50.5s44.8,15.5,61.4,3.6
					c16.5-11.9,22.6-36.1,7.8-49.4C337.4,222.3,334.3,238.5,323.4,240.4L323.4,240.4z"/>
				<path class="st9" d="M275.9,241.2c0,0-2.7,13.2,23.5,15.4h4c0,0-0.4,13.5,10.9,16.6c11.3,3,27,2.5,25.3-8.6s-0.7-13.9-0.7-13.9
					s11.3,11,19.7-6.1c0,0,13.2,39.1-34.3,48.4S266.2,260.1,275.9,241.2L275.9,241.2z"/>
				<path class="st24" d="M323.4,240.4c-9.5,1.7-24.4-17.7-38.7-9.4s-16.5,36.6-1.7,50.5s44.8,15.5,61.4,3.6
					c16.5-11.9,22.6-36.1,7.8-49.4C337.4,222.3,334.3,238.5,323.4,240.4L323.4,240.4z"/>
				<path class="st25" d="M323.4,240.4c-9.5,1.7-24.4-17.7-38.7-9.4s-16.5,36.6-1.7,50.5s44.8,15.5,61.4,3.6
					c16.5-11.9,22.6-36.1,7.8-49.4C337.4,222.3,334.3,238.5,323.4,240.4L323.4,240.4z"/>
				<path class="st25" d="M312.3,250.8c5.8,0.4,0,9.4,2.6,14.6c2.6,5.2,13.3,8.3,18.1,1.7c4.1-5.5-5.7-8.5-5-13.5s5-8.7,10.9-2.8
					c5.9,5.9,11.5,26.5-11.1,30.2s-29-12.3-26.3-21.2s7.4-9.1,10.9-8.9L312.3,250.8z"/>
				<path class="st25" d="M296,237.6c-5.7,0.5-9.9,5.8-11.7,11.2c-2.4,7-1.8,15,1.5,21.6s9.4,11.9,16.4,14.2"/>
			</g>
		</g>
		<g>
			<g>
				<path class="st5" d="M201.4,341c10.2,3.5,15,5.9,20.5,0s5.1-19.1-7.8-27.2c-12.9-8.1-24.8-11.8-31-16.5s-9.3-8-11.4-21
					c-2.1-13.1-4.8-20.8-11.1-10.2c-6.3,10.6-3.7,8.8-3.7,8.8s-8.7-20.5-13.4-19.5s-8.5,3.9,0,20.9c0,0-16-15.7-18.5-9.1
					s5,18.4,15.3,23.5c0,0-16.3-8.3-20.3-2.7c-4,5.6,1.2,11.4,10.9,14.6s22.8,6.2,29.5,11s29.8,23.5,41.1,27.4L201.4,341z"/>
				<path class="st8" d="M201.9,324.4c-12.8-6.2-25.4-12.9-37.1-21.1c-1.9-1.4-3.9-2.8-5.3-4.6c-3.9-4.9-3.9-11.8-3.2-18.1
					c0.2-2,0.5-4,0-5.9s-1.7-3.8-3.6-4.3c-2.9-0.8-5.6,1.8-7.6,4.1c-2.1,2.4-4.1,4.8-6.1,7.3c-3.1,3.9-6.1,8.2-6.6,13.2
					c-0.2,2,0,4.1,1.1,5.8c1.6,2.3,4.4,3.2,7.1,4c10.5,3.4,20.3,8.9,28.7,16c3.7,3.1,7.2,6.6,11.2,9.5c7,5.1,19,9.9,27.1,13.1
					c3.6,1.4,13.2,3,11.7-5.4s-11.7-10.7-17.4-13.5L201.9,324.4z"/>
			</g>
			<g>
				<path class="st7" d="M208.4,343.6c-12-3.7-22.8-10.4-32.6-18.1c-6.9-5.4-13.6-11.5-21.6-15.1c-11.8-5.3-26.8-5.6-34.9-15.7
					c-0.6-0.8-1.2-1.6-1.3-2.5c-0.6-3.5,3.8-5.6,7.3-5.7c5.5-0.1,11.1,1.7,15.4,5.1"/>
				<path class="st7" d="M220.8,321.2c-7.7-11.3-21.5-16.3-33.9-22c-3.7-1.7-7.4-3.5-10-6.5c-6.1-6.9-4.6-17.3-6.2-26.4
					c-0.2-1.1-0.4-2.2-1.1-3.1c-1.5-1.9-4.7-1.7-6.6-0.2s-2.9,3.9-3.6,6.3c-2.5,8.2-3.3,17-2.4,25.6c0.1,1,0.3,2.2,1.1,2.8"/>
				<path class="st7" d="M141.8,291.2c-4.2-0.7-7.6-3.7-10.6-6.7c-3.9-3.8-7.8-8.4-7.5-13.9c0-1.2,0.4-2.5,1.3-3.3
					c2-1.9,5.3-0.7,7.6,0.9c5.2,3.5,9.7,8,13.1,13.2c-3.9-5.8-5.9-12.5-7.3-19.3c-0.5-2.7-0.4-6.2,2.2-7c2.3-0.7,4.3,1.4,5.7,3.3
					c3.9,5.3,7.4,10.9,10.5,16.7"/>
				<path class="st7" d="M140.3,299.9c2.9-8.5,6-17.4,12.5-23.6"/>
			</g>
		</g>
		<path class="st0" d="M128.4,145.3c2.8-4.6,4.7-10,7-14.5c3.2-6,7.4-13.9,14.5-15.9c6.8-2,14.1,3.4,19.2,7.1
			c4.8,3.4,9.1,7.6,13.8,11.2c1-4.3,1.1-9.1,1.8-13.2c0.9-5.4,1.9-12.2,6-16.2c8-7.9,21.4,0.1,31.2,4.9c-0.6-7.1-3.2-14.3-1.3-21.3
			c2.7-9.7,12.2-11.2,20.8-10.1c1.6,0.2,3.2,0.5,4.7,0.8c-24.8-21.7-51.8-33.2-75-25.9c-26.7,8.5-43.1,40.4-49.3,79.5
			c2.4,4.4,4.4,9.1,6.5,13.6L128.4,145.3z"/>
		<path class="st1" d="M128.4,145.3c2.8-4.6,4.7-10,7-14.5c3.2-6,7.4-13.9,14.5-15.9c6.8-2,14.1,3.4,19.2,7.1
			c4.8,3.4,9.1,7.6,13.8,11.2c1-4.3,1.1-9.1,1.8-13.2c0.7-4,1.4-8.9,3.4-12.7c-3.6-11.7-9.9-18.7-9.9-18.7s-14.4-18.9-32.3-18.3
			c0,0-18.2,20-24.2,61.3c2.5,4.4,4.5,9.2,6.6,13.8L128.4,145.3z"/>
		<path class="st2" d="M146,70.1c18.4,3.1,35.8,18.9,42.8,36.2"/>
		<path class="st4" d="M128.4,145.3c2.8-4.6,4.7-10,7-14.5c3.2-6,7.4-13.9,14.5-15.9c6.8-2,14.1,3.4,19.2,7.1
			c4.8,3.4,9.1,7.6,13.8,11.2c1-4.3,1.1-9.1,1.8-13.2c0.9-5.4,1.9-12.2,6-16.2c8-7.9,21.4,0.1,31.2,4.9c-0.6-7.1-3.2-14.3-1.3-21.3
			c2.7-9.7,12.2-11.2,20.8-10.1c1.6,0.2,3.2,0.5,4.7,0.8c-24.8-21.7-51.8-33.2-75-25.9c-26.7,8.5-43.1,40.4-49.3,79.5
			c2.4,4.4,4.4,9.1,6.5,13.6L128.4,145.3z"/>
		<g>
			<path class="st0" d="M132.9,375.2c0,41-23.2,57.6-51.8,57.6s-51.8-16.6-51.8-57.6s23.2-91,51.8-91S132.9,334.1,132.9,375.2z"/>
			
				<ellipse transform="matrix(0.9863 -0.1652 0.1652 0.9863 -63.8058 15.0185)" class="st1" cx="58.4" cy="391.1" rx="22.7" ry="22.7"/>
			<path class="st1" d="M65.4,289.3c0,0-21.2,12.2-29.8,49.1c0,0,17.9,14.7,34.7-1s8.6-33.6,8.6-33.6S74.6,291.9,65.4,289.3z"/>
			<path class="st2" d="M65.4,289.3c9.3,4.8,15.7,14.5,15.7,25.6c0,15.9-12.9,28.8-28.8,28.8s-12.5-2.2-17.4-5.8"/>
			
				<ellipse transform="matrix(0.9863 -0.1652 0.1652 0.9863 -63.8058 15.0185)" class="st26" cx="58.4" cy="391.1" rx="22.7" ry="22.7"/>
			<path class="st1" d="M124.9,330.6c-11.3-5-23.3-7.3-34.3,7.8c-11,15.1-10,37.2-0.6,49.9s28.7,20.3,41.7,2.3
				C131.7,390.6,137.6,364.7,124.9,330.6L124.9,330.6z"/>
			<path class="st2" d="M131.7,390.6c-5.2,6.5-12.2,10.4-20,10.4c-15.9,0-28.8-16.7-28.8-37.3s12.9-37.3,28.8-37.3s9.2,1.5,13.2,4.1
				"/>
			<path class="st3" d="M30.8,356.5c0,0,51.9,38.1,100.7,0c0,0,15.7,75.4-50.3,76.4C15.1,433.9,30.9,356.5,30.8,356.5L30.8,356.5z"
				/>
			<path class="st4" d="M132.9,375.2c0,41-23.2,57.6-51.8,57.6s-51.8-16.6-51.8-57.6s23.2-91,51.8-91S132.9,334.1,132.9,375.2z"/>
		</g>
	</g>
</g>
</svg>
