<svg width="24" height="24" viewBox="0 0 24 24" fill="none" xmlns="http://www.w3.org/2000/svg">
<path d="M15.04 4.05193C16.05 4.45193 16.359 5.85193 16.772 6.30393C17.1206 6.6697 17.5981 6.88498 18.103 6.90393C18.9376 6.90393 19.7381 7.23549 20.3283 7.82566C20.9184 8.41584 21.25 9.21629 21.25 10.0509V15.8509C21.2495 16.97 20.8047 18.043 20.0134 18.8343C19.2221 19.6256 18.1491 20.0704 17.03 20.0709H6.97C5.85079 20.0709 4.77741 19.6263 3.98601 18.8349C3.19461 18.0435 2.75 16.9701 2.75 15.8509V10.0509C2.75133 9.21664 3.08388 8.41702 3.67456 7.82783C4.26524 7.23865 5.06571 6.90813 5.9 6.90893C6.40489 6.88998 6.88245 6.6747 7.231 6.30893C7.644 5.85193 7.953 4.45193 8.962 4.05193C10.9681 3.65033 13.0339 3.65033 15.04 4.05193Z" stroke="white" stroke-width="1.5" stroke-linecap="round" stroke-linejoin="round"/>
<path d="M11.9993 16.309C13.755 16.309 15.1783 14.8858 15.1783 13.13C15.1783 11.3743 13.755 9.95105 11.9993 9.95105C10.2436 9.95105 8.82031 11.3743 8.82031 13.13C8.82031 14.8858 10.2436 16.309 11.9993 16.309Z" stroke="white" stroke-width="1.5" stroke-linecap="round" stroke-linejoin="round"/>
<path d="M18 10.02V10" stroke="white" stroke-width="2" stroke-linecap="round" stroke-linejoin="round"/>
</svg>
