<?xml version="1.0" encoding="utf-8"?>
<!-- Generator: Adobe Illustrator 26.3.1, SVG Export Plug-In . SVG Version: 6.00 Build 0)  -->
<svg version="1.1" id="Capa_1" xmlns="http://www.w3.org/2000/svg" xmlns:xlink="http://www.w3.org/1999/xlink" x="0px" y="0px"
	 viewBox="0 0 512 512" style="enable-background:new 0 0 512 512;" xml:space="preserve">
<style type="text/css">
	.st0{fill:#84E246;}
	.st1{fill:#64A835;}
	.st2{fill:#F2F2F2;}
	.st3{opacity:0.2;fill:url(#SVGID_1_);enable-background:new    ;}
	.st4{fill:#CCCCCC;}
	.st5{fill:#4D4D4D;}
	.st6{fill:#333333;}
	.st7{fill:#151615;}
	.st8{fill:#05FADB;}
	.st9{fill:#05BAA0;}
	.st10{fill:#06FAD6;}
	.st11{fill:#175807;stroke:#175807;stroke-miterlimit:10;}
	.st12{fill:#175807;}
	.st13{fill:url(#SVGID_00000123425366120942262910000006065440060814903975_);}
	.st14{fill:#060203;}
	.st15{fill:#FFFFFF;}
	.st16{fill:url(#SVGID_00000173852752993651629010000014126037558394821518_);}
	.st17{fill:#730E00;}
	.st18{fill:#EAE8E9;}
	.st19{fill:#4B0D00;}
	.st20{fill:#918F8F;}
	.st21{fill:#63AA35;}
</style>
<path class="st0" d="M237.7,29.9c0,0-7-2.8-11.9,2.1c-4.9,4.9-30.7,32.3-30.7,32.3s-25.5,19.9-31.5,26.3
	c-5.9,6.5-11.6,15.5-11.6,15.5s-16.8,4.6-21.4,23.2s1.5,44.6,4.1,55c2.6,10.3,3.9,17.5,3.1,20.6c-0.8,3.1-10.3,6.5-10.8,11.9
	c-0.5,5.4,13.7,38.2,23,46.7c9.3,8.5,23.5,19.9,46.7,25.5s39.2,8.5,40.3,8.8s56,0.5,93.7-15.7s49.3-56,49.3-71.5s-1.8-26.3-6.7-26.3
	s-4.9-7.5-1.8-19.1c3.1-11.6,3.4-38.2-5.4-53.9s-25-18.6-25-18.6l-5.7-2.3c0,0-5.2-10.6-33.3-24.5S269.7,48,256.3,39.5
	C242.8,31,237.7,29.9,237.7,29.9z"/>
<path class="st1" d="M215,343.3c0,0-15.3-57.9,32.3-75.8s79.1,38.1,78,73.5c0,0-60.3,19.8-110.3,2.4V343.3z"/>
<path class="st2" d="M329.4,470.4c0,0-3.8,13.1-65.9,13.1s-69-13.1-69-13.1l-4.3-157.6c0,0,81-7.9,140.9-2.2l8,52.9l-9.7,106.8
	L329.4,470.4z"/>
<linearGradient id="SVGID_1_" gradientUnits="userSpaceOnUse" x1="263.45" y1="196.8" x2="263.45" y2="159.5" gradientTransform="matrix(1 0 0 1 0 258)">
	<stop  offset="0" style="stop-color:#FFFFFF"/>
	<stop  offset="1" style="stop-color:#000000"/>
</linearGradient>
<path class="st3" d="M193.6,427.6l64.6-20l4.5,5.6l5.8-3.4l64.8,23.3l-3.9,27.6H193.8l-0.2-33V427.6z"/>
<path class="st4" d="M197.2,312.6c0,0,24.4,26.7,35.6,32.2s19.5-16.9,19.5-16.9l-40.8-24.7l-14.4,9.5L197.2,312.6z"/>
<path class="st4" d="M329.7,312.6c0,0-24.4,26.7-35.6,32.2s-19.5-16.9-19.5-16.9l40.8-24.7l14.4,9.5L329.7,312.6z"/>
<path class="st2" d="M129.9,422.7c0,0,26.7-93.1,33.2-100.7s35.8-12,35.8-12s-6.2,38.3-6.8,49c-0.6,10.6,0.6,36.8,0.6,36.8
	S147.5,431,129.9,422.7L129.9,422.7z"/>
<path class="st4" d="M192.6,397l-2-66.6c0,0-23,39.3-19.5,75.5L192.6,397z"/>
<path class="st2" d="M200.1,310.3c0,0,5.6-11.1,10-17.7c0,0,23,1.3,43.8,12.1c-4.2,10-10.7,18.8-18.9,25.8
	C235,330.5,215,323.1,200.1,310.3L200.1,310.3z"/>
<path class="st2" d="M326.3,310.3c0,0-5.6-11.1-10-17.7c0,0-23,1.3-43.8,12.1c4.2,10,10.7,18.8,19,25.8c0,0,20-7.4,34.9-20.2
	L326.3,310.3z"/>
<path class="st5" d="M328.6,472h-0.2c-0.5,0-1-0.3-1.3-0.7c-0.3-0.4-0.5-0.9-0.4-1.4l9.7-108.8c0-0.3,0-0.5,0.2-0.7
	c0.1-0.2,0.3-0.4,0.5-0.6s0.4-0.3,0.7-0.4c0.2,0,0.5-0.1,0.8,0c0.3,0,0.5,0,0.7,0.2c0.2,0.1,0.4,0.3,0.6,0.5s0.3,0.4,0.4,0.7
	c0,0.2,0.1,0.5,0,0.8l-9.7,108.8c0,0.5-0.3,0.9-0.6,1.3c-0.4,0.3-0.8,0.5-1.3,0.5L328.6,472z"/>
<path class="st5" d="M194.1,470.8c-0.5,0-1-0.2-1.4-0.6s-0.6-0.8-0.6-1.3l-2.9-122.1c0-0.3,0-0.5,0.1-0.8c0-0.2,0.2-0.5,0.4-0.6
	c0.2-0.2,0.4-0.3,0.6-0.4c0.2-0.1,0.5-0.2,0.7-0.2c0.5,0,1,0.2,1.4,0.6s0.6,0.8,0.6,1.3l2.9,122.1c0,0.3,0,0.5-0.1,0.7
	c0,0.2-0.2,0.5-0.4,0.6c-0.2,0.2-0.4,0.3-0.6,0.4S194.3,470.7,194.1,470.8L194.1,470.8z"/>
<path class="st6" d="M265,470l24.1-24.1c0.1-0.1,0.2-0.2,0.2-0.4c0-0.1,0-0.3,0-0.4l-18.5-111.4c0-0.2,0-0.3,0-0.5s0.2-0.3,0.3-0.4
	l11.6-9.9c0.2-0.1,0.3-0.4,0.3-0.6s0-0.4-0.1-0.6l-7.2-11.3c0-0.1-0.2-0.2-0.3-0.3c-0.1,0-0.3-0.1-0.4-0.1l-10.3-0.5h-1.3l-10.3,0.5
	c-0.1,0-0.3,0-0.4,0.1c-0.1,0-0.2,0.2-0.3,0.3l-7.2,11.3c-0.1,0.2-0.2,0.4-0.1,0.6c0,0.2,0.1,0.4,0.3,0.6l11.6,9.9
	c0.1,0.1,0.2,0.2,0.3,0.4c0,0.2,0,0.3,0,0.5l-18.6,111.4c0,0.1,0,0.3,0,0.4s0.1,0.3,0.2,0.4L263,470c0.2,0.2,0.3,0.4,0.3,0.7v0.9
	c0.2-0.2,0.4-0.3,0.7-0.3s0.5,0,0.7,0.3v-0.9c0-0.1,0-0.2,0.1-0.4C264.8,470.2,264.9,470.1,265,470L265,470z"/>
<path class="st7" d="M264.8,473.6c-0.2,0-0.4,0-0.7-0.1c-0.3,0.1-0.6,0.2-0.9,0.1c-0.3,0-0.6-0.2-0.9-0.3c-0.3-0.2-0.5-0.4-0.6-0.7
	c-0.1-0.3-0.2-0.6-0.2-0.9v-0.5l-23.7-23.8c-0.3-0.3-0.6-0.7-0.7-1.2c-0.1-0.4-0.2-0.9,0-1.4l18.5-110.9l-11.2-9.6
	c-0.5-0.5-0.9-1.1-1-1.8c-0.1-0.7,0-1.4,0.4-2l7.2-11.3c0.2-0.4,0.6-0.7,1-0.9c0.4-0.2,0.8-0.4,1.3-0.4l9.8-0.5c0.2,0,0.4,0,0.7,0
	h1.1c0.2,0,0.4,0,0.7,0l9.8,0.5c0.5,0,0.9,0.2,1.3,0.4c0.4,0.2,0.7,0.6,1,0.9l7.2,11.3c0.4,0.6,0.5,1.3,0.4,2s-0.4,1.3-1,1.8
	l-11.2,9.6l18.5,110.9c0,0.5,0,0.9-0.1,1.4c-0.1,0.4-0.4,0.8-0.7,1.2L267,471.2v0.5c0,0.4-0.1,0.8-0.3,1.1c-0.2,0.3-0.5,0.6-0.9,0.7
	c-0.3,0.1-0.5,0.2-0.8,0.1L264.8,473.6z M240.8,445l23.3,23.3l23.3-23.3l-18.5-111c0-0.5,0-1,0.1-1.5c0.2-0.5,0.5-0.9,0.8-1.2
	l10.9-9.3l-6.4-10.1l-9.7-0.5c-0.1,0-0.2,0-0.3,0h-0.5c-0.1,0-0.2,0-0.3,0l-9.7,0.5l-6.4,10.1l10.9,9.3c0.4,0.3,0.7,0.7,0.8,1.2
	c0.2,0.5,0.2,1,0.1,1.5l-18.5,111H240.8z"/>
<path class="st8" d="M235.9,39.9c-5.9,9.4-4.5,10.3,0.4,14.4s-2,9.5-1.3,15s3.8,2,5.4,8.3c1.6,6.4-2.2,17.5-2.2,17.5
	c5.7,1.9,11.4-2.9,15.3-7.5c9.2-10.8,16.8-23.1,26.7-33c-16.7-9.8-29.3-25-43.9-24.9c0.9,1.6,1.3,3.3,1.2,5.1S236.9,38.3,235.9,39.9
	L235.9,39.9z"/>
<path class="st9" d="M198.4,67.6c13.3,3.2,24,13.1,33.6,22.9c1.7,2,3.9,3.7,6.3,4.7c0,0,3.9-11.2,2.2-17.5c-1.6-6.3-4.8-2.8-5.4-8.3
	c-0.7-5.5,6.2-11,1.3-15c-4.9-4.1-6.3-4.9-0.4-14.4c1-1.5,1.5-3.2,1.6-5c0-1.8-0.4-3.5-1.2-5.1c-4.2,0-8.2,1.3-11.8,3.4
	c-16.1,9.1-27.8,32.5-31.6,34.4l0.6,0.8C194.7,67.1,196.8,67.3,198.4,67.6L198.4,67.6z"/>
<path class="st1" d="M180.7,100.8c3.6-16,22.8-27.4,34.5-18.5c7,5.4,14.8,9.8,23.1,13c-2.4-1-4.6-2.6-6.3-4.7
	c-9.6-9.8-20.2-19.7-33.6-22.9c-1.7-0.4-3.8-0.6-4.8,0.8l-0.6-0.8h-0.1c-3.7,1.3-17.6,8.7-25,18.3c-7.5,9.6-13.3,17-13.3,17
	l12.6-4.1C171.8,98.8,176.4,99.5,180.7,100.8L180.7,100.8z"/>
<path class="st1" d="M359.8,174.8c0,14.1,6.1,27.3,5.1,45.8c-1.1,18.5-27.9,46.8-60.9,55.9c-32.9,9.1-87,2.3-102.7-4.2
	s-52.2-25.8-56.6-38.9c-4.4-13.1,3.8-33,3.8-33c83.1,11.7,72.3-46.3,72.3-46.3l-3.2-3.5c-7.8-15.4-35.8-26.2-49.9-26.1
	c-8.8,0.5-25.7,9-30.1,19.5c-1.7,4-5.4,3.7-8.3,2.5c0.6,10.5,2.7,26.2,5.4,36.3c8.2,29.6-7.5,23.5-7.1,33.8c0.2,5.8,8.7,34,20,44.6
	c11.3,10.6,32.7,31,86.5,35.2c53.8,4.3,90.5-8.9,111.8-24c37.7-26.7,41.4-87.6,30.8-87c-12.4,0.7-7.8-17.2-4.3-29.9v0
	c1.4-5.1,1.4-15.2-0.6-26.3c-2.3,1-5.4-0.5-7.6-3.2c-4.4-5.6-6-13.7-26.7-14.2s-40.7,19.5-48.1,28.3c-3.6,4.3-3.2,5.9-5.9,9.4
	c0,0-2.7,29.7,20.9,38.2C326.2,195.6,348.6,190.5,359.8,174.8z"/>
<path class="st10" d="M235.7,154.1c-3.1-7.7-25.8-44.2-55-53.3c-4.4-1.4-9-2-13.6-1.9l-13,2.5c0,0-15.8,9.1-20.9,23.3
	c-2.9,7.9-4.3,13.7-3.6,25.7c2.9,1.2,5.8,1,7.5-3c4.5-10.4,14.9-18.1,23.2-21.1c20.5-7.5,39.3,5.7,50.8,16
	c3.9,3.4,9.1,9.1,10.8,10.4C229.4,158.4,239.3,163,235.7,154.1L235.7,154.1z"/>
<path class="st0" d="M400.3,203.3"/>
<path class="st10" d="M362.4,102.3c-3.8-6.4-4-5.1-10.3-7.9c0,0-13.2-1.2-16.3-2.1c0,0-33.9,7.4-45.7,27.1
	c-11.9,19.7-24.1,30.4-18.3,36.3c3,3,5.6,1.2,8.5-2.5s5.7-8.8,9.3-13.1c7.4-8.8,29.3-22.7,50-22.2s20.5,2.5,24.8,8.1
	c2.2,2.8,5.3,4.2,7.6,3.2c-1.6-9.2-4.7-19-9.5-27L362.4,102.3z"/>
<path class="st0" d="M162.3,137.8c-10.4,5-14.6,15.7-8,28.9c6.7,13.2,28.7,20.1,43.5,14.3s12.1-22.8,11.1-27.6
	S185.6,126.7,162.3,137.8L162.3,137.8z"/>
<path class="st0" d="M335.9,124c-13.3,0.4-30.7,5.3-33.6,22.3s5.7,26.7,21.4,28.2c15.6,1.4,24.7-6.9,29.3-17.4
	c4.5-10.5,3.5-33.7-17-33L335.9,124z"/>
<path class="st11" d="M240.7,298.7c-0.2,0-0.3,0-0.5,0c-0.4,0-1.9-0.3-3.5-0.4c-13.6-1.2-27.1-3.6-40.2-7.2
	c-21.5-6.1-37.8-15.3-48.4-27.2c-15.9-17.8-23-37.6-21.7-47.3c0.7-4.8,3.6-7.1,6.1-9.1c2.8-2.3,4.9-3.9,4.1-8.4
	c-0.7-4.1-1.8-8.8-3-13.7c-4.2-17.7-9.4-39.6-1.8-61.1c1.8-5.3,4.8-10,8.7-14c3.9-3.9,8.7-6.9,13.9-8.7c12.7-4.6,26.6-2.7,33.8,1.6
	l3.1,1.8c13.8,8.1,37,21.6,46.4,51.5c0.1,0.4,0,0.7,0,1.1c-0.2,0.3-0.5,0.6-0.8,0.7c-0.4,0.1-0.7,0-1.1,0c-0.3-0.2-0.6-0.5-0.7-0.8
	c-9.1-28.9-31.7-42.1-45.2-49.9l-3.1-1.8c-6.7-4-19.5-5.7-31.5-1.4c-4.9,1.7-9.3,4.4-12.9,8.1c-3.6,3.6-6.4,8.1-8,12.9
	c-7.3,20.7-2.2,42.2,1.9,59.5c1.2,4.9,2.3,9.6,3,13.9c1,6.1-2.2,8.7-5.1,11c-2.4,1.9-4.6,3.6-5.1,7.3c-1.3,9.2,6.2,28.5,21,45.1
	c10.3,11.5,26.1,20.4,47.1,26.4c13,3.5,26.3,5.9,39.7,7.1c1.5,0,2.9,0.2,4.4,0.6c0.2,0,0.3,0.2,0.4,0.3c0.1,0.1,0.2,0.3,0.3,0.5
	s0,0.4,0,0.5s0,0.4-0.2,0.5c-0.1,0.2-0.3,0.4-0.5,0.6c-0.2,0.1-0.5,0.2-0.7,0.2L240.7,298.7z M240.1,298.6L240.1,298.6z"/>
<path class="st11" d="M295.6,294.1c-0.2,0-0.4,0-0.5,0c-0.2,0-0.3-0.2-0.5-0.3c-0.1-0.1-0.3-0.3-0.3-0.4c0-0.2-0.1-0.3-0.1-0.5
	s0-0.4,0-0.5c0-0.2,0.2-0.3,0.3-0.5c0.1-0.1,0.3-0.3,0.4-0.3c0.2,0,0.3-0.1,0.5-0.1c38.4-5.2,58.9-25.5,69.3-41.6
	c11.5-17.7,16-38.4,15.4-51.1c-0.6-12-4.6-12.6-8.1-13.2c-1.6-0.3-3.4-0.6-4.4-2c-0.8-1.2-1-2.9-0.5-5.5c0.4-2.1,0.8-4.2,1.2-6.2
	c3.4-16.9,6.7-32.9,0.7-51.3c-4.6-14.3-11.5-23.1-20.5-26c-11.4-3.7-26.8,1.5-45.9,15.5c-23.8,17.5-31.2,45.1-31.3,45.4
	c0,0.4-0.3,0.7-0.6,0.8c-0.3,0.2-0.7,0.2-1.1,0.2c-0.2,0-0.4-0.1-0.5-0.2c-0.2-0.1-0.3-0.2-0.4-0.4c0-0.2-0.2-0.3-0.2-0.5
	s0-0.4,0-0.5c0.3-1.2,7.7-28.8,32.3-46.9c19.8-14.5,36.1-19.9,48.4-15.9c10,3.2,17.4,12.5,22.3,27.8c6.1,19.1,2.7,36.2-0.6,52.7
	c-0.4,2.1-0.8,4.1-1.2,6.2c-0.4,2.1-0.2,3,0,3.4c0.3,0.4,1.3,0.7,2.5,0.9c4.9,0.8,9.8,2.7,10.5,15.8c0.6,12.1-3.2,33.3-15.8,52.8
	c-10.8,16.6-31.9,37.5-71.3,42.9h-0.2L295.6,294.1z"/>
<path class="st11" d="M156.6,103.2c-0.2,0-0.4,0-0.6-0.1c-0.3-0.2-0.6-0.4-0.7-0.8c-0.1-0.3-0.1-0.7,0-1.1
	c7.6-14.1,19.1-25.7,33.1-33.4c5.8-3.1,12.2-10.8,18.4-18.2c8.9-10.6,17.3-20.6,25.6-21.1c14.4-0.8,27.4,10.3,36.8,18.4
	c3.5,3,11.4,6.9,20.6,11.3c16.8,8.2,37.8,18.4,48.2,31c0.1,0.1,0.2,0.3,0.3,0.5c0,0.2,0,0.4,0,0.5c0,0.2,0,0.4-0.2,0.5
	c0,0.2-0.2,0.3-0.3,0.4c-0.1,0.1-0.3,0.2-0.5,0.3c-0.2,0-0.4,0-0.5,0c-0.2,0-0.4,0-0.5-0.2c-0.2,0-0.3-0.2-0.4-0.3
	c-10-12.2-30.6-22.2-47.2-30.3c-9.3-4.5-17.3-8.4-21.2-11.7c-9.6-8.2-21.5-18.4-34.9-17.7c-7.1,0.4-15.5,10.4-23.7,20.1
	c-6.4,7.6-13,15.5-19.3,18.9c-13.5,7.5-24.5,18.7-31.9,32.2c-0.1,0.2-0.3,0.4-0.5,0.6c-0.2,0.1-0.5,0.2-0.7,0.2L156.6,103.2z"/>
<path class="st12" d="M242.5,181.5c0,0-9.7,5-7.4,9S241.5,190.9,242.5,181.5z"/>
<path class="st12" d="M271.8,178.7c0,0,1.3,8.1,5.6,8.8C281.7,188.2,283.8,183.2,271.8,178.7z"/>
<path class="st12" d="M176.7,195.9c-1.7,0-3.5,0-5.2-0.3c-16.4-1.9-28.8-14.3-34-34.1c-1.1-4.1-1.2-8.3-0.3-12.4
	c0.9-4.1,2.7-8,5.3-11.3c6.9-9.2,17.6-14.2,24.6-14.4c17.9-0.5,32.3,7.7,41.2,14.6c5.7,4.4,10.8,9.6,15.1,15.4
	c0.2,0.3,0.3,0.7,0.2,1c0,0.4-0.3,0.7-0.6,0.9s-0.7,0.3-1,0.2c-0.4,0-0.7-0.3-0.9-0.6c0,0-0.2-0.3-0.5-0.7c0.6,4.9,0.2,9.9-1.4,14.6
	c-1.6,4.7-4.2,9-7.6,12.5c-8.6,9.1-21.8,14.5-34.8,14.5L176.7,195.9z M218,159.6c0.1-5.5-0.5-9.2-0.5-9.2
	c-6.4-7.4-23.3-24.3-48.5-24.3l-0.1,0.1h-1.6c-6.2,0.2-16.2,4.9-22.5,13.3c-2.3,3-4,6.4-4.8,10.1c-0.8,3.7-0.7,7.5,0.2,11.2
	c4.9,18.6,16.4,30.3,31.6,32c13.7,1.6,28.5-3.7,37.7-13.4c3.4-3.4,5.8-7.5,7.3-12.1C216.7,167.3,217.9,164.2,218,159.6z"/>
<path class="st12" d="M148.4,134c-0.3,0-0.6,0-0.9-0.3c-2.9-2.3-5.4-5.2-7.2-8.5s-2.9-6.9-3.2-10.7c0-0.4,0.1-0.7,0.4-1
	c0.2-0.3,0.6-0.4,1-0.5c0.2,0,0.4,0,0.5,0c0.2,0,0.3,0.2,0.5,0.3c0.1,0.1,0.2,0.3,0.3,0.4c0,0.2,0.1,0.4,0.1,0.5
	c0.3,3.3,1.3,6.6,2.9,9.5c1.6,2.9,3.8,5.5,6.4,7.6c0.2,0.1,0.3,0.2,0.4,0.4c0,0.2,0.2,0.3,0.2,0.5s0,0.4,0,0.5
	c0,0.2-0.1,0.3-0.3,0.5c-0.1,0.2-0.3,0.3-0.5,0.4c-0.2,0-0.4,0.1-0.6,0.1L148.4,134z"/>
<path class="st12" d="M167.2,126.1c-0.2,0-0.5,0-0.7-0.2c-0.2-0.1-0.4-0.3-0.5-0.5c-6.9-11-2.3-25-2.1-25.6c0.1-0.4,0.4-0.6,0.7-0.8
	c0.2,0,0.3-0.1,0.5-0.1s0.4,0,0.5,0c0.2,0,0.3,0.1,0.5,0.3c0.1,0.1,0.3,0.3,0.3,0.4c0,0.2,0.1,0.3,0.1,0.5s0,0.4,0,0.5
	s-4.3,13.4,1.8,23.2c0.1,0.2,0.2,0.3,0.2,0.5s0,0.4,0,0.5c0,0.2-0.1,0.4-0.2,0.5c-0.1,0.1-0.3,0.3-0.4,0.4c-0.2,0.1-0.5,0.2-0.8,0.2
	L167.2,126.1z"/>
<path class="st12" d="M201.4,136.2c-0.3,0-0.6,0-0.8-0.2s-0.4-0.4-0.5-0.7c-4-12.5,6.8-19.1,6.9-19.2c0.2,0,0.3-0.2,0.5-0.2
	s0.4,0,0.5,0c0.2,0,0.3,0.1,0.5,0.2c0.1,0.1,0.3,0.2,0.4,0.4s0.2,0.3,0.2,0.5s0,0.4,0,0.5c0,0.2-0.1,0.3-0.2,0.5
	c-0.1,0.1-0.2,0.3-0.4,0.4c-0.4,0.2-9.1,5.6-5.7,16c0,0.2,0,0.4,0,0.5c0,0.2,0,0.4-0.1,0.5c0,0.2-0.2,0.3-0.3,0.4
	c-0.1,0.1-0.3,0.2-0.5,0.2C201.8,136,201.6,136.1,201.4,136.2L201.4,136.2z"/>
<path class="st12" d="M325.1,185.6c-13.6,0-23.7-3.4-29.9-10.3c-6-6.5-8.5-16.2-7.6-28.9c-1.4,1.7-2.6,3.5-3.8,5.3
	c0,0.2-0.2,0.3-0.3,0.4c-0.1,0.1-0.3,0.2-0.5,0.2s-0.4,0-0.5,0c-0.2,0-0.4,0-0.5-0.2c-0.2,0-0.3-0.2-0.4-0.4
	c-0.1-0.1-0.2-0.3-0.2-0.5s0-0.4,0-0.5c0-0.2,0-0.4,0.2-0.5c0.6-1,14.5-24.3,41.4-31.1c17.4-4.3,30.2-3.7,37.9,1.9
	c4.7,3.4,7.3,8.6,7.7,15.4c0.6,9.9-2.2,25.5-12.3,36.5c-7.2,8-16.8,12.1-28.3,12.5h-2.6L325.1,185.6z M290.7,142.7L290.7,142.7
	c-1.7,13.9,0.5,24.2,6.5,30.7s16.3,9.8,30.4,9.3c10.8-0.3,19.6-4.2,26.3-11.6c9.5-10.4,12.2-25.1,11.6-34.5
	c-0.4-5.9-2.6-10.4-6.5-13.3c-6.9-5-19.2-5.5-35.6-1.5c-15.2,3.9-26.3,13.5-32.8,20.8L290.7,142.7z"/>
<path class="st12" d="M320.4,121.8h-0.2c-0.2,0-0.4,0-0.5-0.2c-0.2,0-0.3-0.2-0.4-0.4c-0.1-0.2-0.2-0.3-0.2-0.5s0-0.4,0-0.5
	c0.9-5.1-3.5-9.8-5.4-11.6c-2.3-2.1-4.4-3-6.1-2.7c-0.4,0-0.7,0-1-0.2s-0.5-0.5-0.6-0.9c0-0.4,0-0.7,0.2-1s0.5-0.5,0.9-0.6
	c2.7-0.5,5.5,0.6,8.5,3.4s7.3,7.9,6.3,14.1c0,0.3-0.2,0.6-0.5,0.8C321.1,121.7,320.8,121.8,320.4,121.8L320.4,121.8z"/>
<path class="st12" d="M340.6,99.5c-2.1-4.5-5-7.2-8.4-7.7c-0.1,0-0.3,0-0.5,0s-0.4,0.1-0.5,0.2c-0.2,0.1-0.4,0.2-0.4,0.4
	c-0.2,0.1-0.2,0.3-0.2,0.5c-0.1,0.3,0,0.7,0.2,1c0.2,0.3,0.5,0.6,0.9,0.6c3.1,0.4,5.2,3.6,6.4,6.1c2.1,4.2,3.2,8.8,3.2,13.5
	c0.1,1.2,0,2.4-0.4,3.6c0,0.1,0,0.3,0,0.5c0,0.2,0.1,0.4,0.1,0.5h2.4c0.5-1.5,0.6-3.1,0.6-4.6C343.9,109.1,342.8,104.1,340.6,99.5z"
	/>
<path class="st12" d="M356.5,120.1c-0.3,0-0.5,0-0.7-0.2c-0.2,0-0.3-0.2-0.4-0.4c-0.1-0.1-0.2-0.3-0.2-0.5s0-0.4,0-0.5
	s0.1-0.4,0.2-0.5c2-3.1,3.3-6.7,3.9-10.3c0.4-1.8,0.3-3.7-0.5-5.3c-0.2-0.3-0.2-0.7-0.1-1.1c0-0.4,0.3-0.7,0.6-0.8
	c0.3-0.2,0.7-0.2,1.1-0.1c0.4,0,0.7,0.3,0.8,0.6c1.1,2.2,1.4,4.8,0.9,7.2c-0.6,4.1-2.1,7.9-4.3,11.4c-0.1,0.2-0.3,0.3-0.5,0.4
	S356.9,120.2,356.5,120.1L356.5,120.1z"/>
<path class="st12" d="M180.4,188.2c-7.7,0-15.2-2.4-21.3-7.2c-2.9-2.2-5.4-5-7.1-8.2c-1.7-3.2-2.6-6.8-2.7-10.5
	c-0.1-3.7,0.6-7.3,2.1-10.6s3.7-6.3,6.5-8.6c6.1-5.3,13.9-8.3,21.9-8.5c17.3-0.5,31.8,11.1,32.2,25.9c0.5,14.8-13.3,27.3-30.6,27.8
	h-1.1L180.4,188.2z M181.1,135.7H180c-7.8,0.1-15.3,3-21.2,8.2c-2.7,2.2-4.8,5.1-6.3,8.3c-1.4,3.2-2.1,6.7-2,10.2s1,6.9,2.6,10
	s3.9,5.8,6.8,7.9c6.2,4.8,13.9,7.3,21.7,6.9c16.7-0.5,30-12.5,29.5-26.6C210.7,146.7,197.3,135.8,181.1,135.7L181.1,135.7z"/>
<path class="st12" d="M326.4,177.6c-16.9,0-30.8-12.9-31.3-29.2c-0.5-16,12.9-28.5,31-29.1c17.9-0.6,31.3,10.9,31.8,27.1
	c0.5,16.6-13.2,30.5-30.5,31.1L326.4,177.6L326.4,177.6z M327.4,120.5h-1.2c-17.6,0.5-30.4,12.5-30,27.9c0.5,16,14.5,28.6,31.2,28
	c16.7-0.5,29.9-13.9,29.4-29.9C356.3,131.2,344,120.4,327.4,120.5L327.4,120.5z"/>
<path class="st12" d="M324.6,171.2c-3,0-6-0.5-8.7-1.6s-5.3-2.7-7.5-4.8c-2.1-2.1-3.9-4.6-5-7.3c-1.2-2.7-1.8-5.7-1.9-8.7
	c0-3,0.5-6,1.6-8.7c1.1-2.8,2.7-5.3,4.8-7.5c2.1-2.1,4.6-3.9,7.3-5c2.7-1.2,5.7-1.8,8.7-1.9h0.7c6,0,11.9,2.2,16.2,6.4
	c4.3,4.2,6.8,10,6.9,16c0,6-2.2,11.9-6.4,16.2c-4.2,4.3-10,6.8-16,6.9L324.6,171.2L324.6,171.2z M324.6,126.7h-0.7
	c-5.7,0-11.1,2.4-15,6.5c-4,4-6.1,9.5-6.1,15.2s2.3,11.1,6.3,15.1s9.4,6.2,15.1,6.2s11.1-2.2,15.1-6.2s6.3-9.4,6.3-15.1
	c0-5.7-2.1-11.1-6.1-15.2c-4-4-9.3-6.4-15-6.5H324.6z"/>
<path class="st12" d="M182,182.9c-12.2,0-22.3-9.1-22.6-20.7c-0.4-11.8,9.6-21.6,22.1-22s23.1,8.9,23.4,20.7c0,2.8-0.4,5.7-1.5,8.3
	s-2.7,5-4.7,7c-4.2,4.2-9.9,6.6-15.9,6.7H182z M182.2,141.3h-0.7c-12,0.4-21.4,9.7-21,20.9c0.3,10.9,9.9,19.6,21.6,19.6h0.7
	c5.7-0.2,11.1-2.4,15.1-6.4c1.9-1.9,3.5-4.1,4.5-6.6s1.5-5.2,1.4-7.9c-0.3-10.9-9.9-19.6-21.5-19.6H182.2z"/>
<linearGradient id="SVGID_00000053508716229270060620000012493432885962394302_" gradientUnits="userSpaceOnUse" x1="182.5998" y1="-80.3077" x2="181.6003" y2="-112.0923" gradientTransform="matrix(1 0 0 1 0 258)">
	<stop  offset="0" style="stop-color:#E8AF15"/>
	<stop  offset="0" style="stop-color:#D69A16"/>
	<stop  offset="0.1" style="stop-color:#B87817"/>
	<stop  offset="0.2" style="stop-color:#9E5B18"/>
	<stop  offset="0.3" style="stop-color:#8A4319"/>
	<stop  offset="0.4" style="stop-color:#7A3119"/>
	<stop  offset="0.5" style="stop-color:#6E241A"/>
	<stop  offset="0.7" style="stop-color:#681C1A"/>
	<stop  offset="1" style="stop-color:#661A1A"/>
</linearGradient>
<path style="fill:url(#SVGID_00000053508716229270060620000012493432885962394302_);" d="M182.1,177.7c8.8,0,15.9-7.1,15.9-15.9
	s-7.1-15.9-15.9-15.9s-15.9,7.1-15.9,15.9S173.3,177.7,182.1,177.7z"/>
<path class="st12" d="M182.1,178.3c-4.3,0-8.4-1.8-11.5-4.8c-3-3-4.8-7.1-4.9-11.4c0-4.3,1.6-8.4,4.5-11.6c3-3.1,7-5,11.3-5.1h0.5
	c4.3,0,8.4,1.7,11.4,4.7c3.1,3,4.9,7,5,11.3c0.1,4.4-1.5,8.6-4.5,11.8s-7.1,5-11.5,5.2h-0.5L182.1,178.3z M182.1,146.5h-0.5
	c-3,0-6,1.1-8.4,2.8s-4.4,4.2-5.4,7.1c-1.1,2.8-1.3,5.9-0.6,8.9s2.2,5.6,4.4,7.7c2.2,2.1,5,3.5,8,4s6.1,0.1,8.8-1.1
	c2.8-1.2,5.1-3.3,6.7-5.9c1.6-2.6,2.4-5.6,2.3-8.6c-0.1-4-1.8-7.7-4.6-10.5C189.9,148.1,186.1,146.6,182.1,146.5L182.1,146.5
	L182.1,146.5z"/>
<path class="st14" d="M183.2,171.8c5.5,0,10-4.5,10-10s-4.5-10-10-10s-10,4.5-10,10S177.7,171.8,183.2,171.8z"/>
<path class="st15" d="M188.8,157.1c1.9,0,3.4-1.5,3.4-3.4s-1.5-3.4-3.4-3.4s-3.4,1.5-3.4,3.4S186.9,157.1,188.8,157.1z"/>
<linearGradient id="SVGID_00000051376101401187391300000010948804413674673581_" gradientUnits="userSpaceOnUse" x1="323.3498" y1="-93.3062" x2="322.4502" y2="-125.0938" gradientTransform="matrix(1 0 0 1 0 258)">
	<stop  offset="0" style="stop-color:#E8AF15"/>
	<stop  offset="0" style="stop-color:#D69A16"/>
	<stop  offset="0.1" style="stop-color:#B87817"/>
	<stop  offset="0.2" style="stop-color:#9E5B18"/>
	<stop  offset="0.3" style="stop-color:#8A4319"/>
	<stop  offset="0.4" style="stop-color:#7A3119"/>
	<stop  offset="0.5" style="stop-color:#6E241A"/>
	<stop  offset="0.7" style="stop-color:#681C1A"/>
	<stop  offset="1" style="stop-color:#661A1A"/>
</linearGradient>
<path style="fill:url(#SVGID_00000051376101401187391300000010948804413674673581_);" d="M322.9,164.7c8.8,0,15.9-7.1,15.9-15.9
	s-7.1-15.9-15.9-15.9S307,140,307,148.8S314.1,164.7,322.9,164.7z"/>
<path class="st12" d="M322.9,165.2c-4.3,0-8.4-1.8-11.5-4.8c-3-3-4.8-7.1-4.9-11.4c0-4.3,1.6-8.4,4.5-11.6c3-3.1,7-5,11.3-5.1
	c2.2-0.1,4.4,0.2,6.5,0.9s4,1.9,5.6,3.4s2.9,3.3,3.8,5.3s1.4,4.2,1.5,6.4c0,2.2-0.3,4.4-1.1,6.4c-0.8,2-2,3.9-3.5,5.5
	s-3.4,2.8-5.4,3.7s-4.2,1.3-6.4,1.3h-0.5L322.9,165.2z M322.9,133.4h-0.5c-3.9,0.3-7.5,2.1-10.1,5s-4,6.6-4,10.5s1.6,7.6,4.3,10.4
	c2.7,2.8,6.3,4.5,10.2,4.7h0.5c4.1-0.1,7.9-1.9,10.7-4.8c2.8-3,4.3-6.9,4.2-11c-0.1-4-1.8-7.7-4.7-10.5
	C330.6,134.9,326.8,133.4,322.9,133.4L322.9,133.4z"/>
<path class="st14" d="M324,158.8c5.5,0,10-4.5,10-10s-4.5-10-10-10s-10,4.5-10,10S318.5,158.8,324,158.8z"/>
<path class="st15" d="M329.6,144.1c1.9,0,3.4-1.5,3.4-3.4s-1.5-3.4-3.4-3.4s-3.4,1.5-3.4,3.4S327.7,144.1,329.6,144.1z"/>
<path class="st17" d="M145.9,215.3c0,0,20.2,6,63.1,1.9c42.8-4.2,62.1-5.3,99-1.9c37,3.4,50.6-4.5,50.6-4.5s-35.8,64.2-101.5,66
	C182.3,278.9,145.9,215.3,145.9,215.3L145.9,215.3z"/>
<path class="st18" d="M176.5,218.1c0,0-0.8,8,3.6,19.1c1.9,4.8-1.8,5.1,3,17.2c0,0,50.9,36.4,102,17.6c0,0,26.9-10,34.7-18.3
	c1.2-2.5,2.3-5.1,3.1-7.7c0.4-3.1,0.4-6.2-0.1-9.2c0,0,1.6-3.7,3.6-10.2c1-3.4,1-7.1,0-10.5c0,0-56.1-3-63.6-2.8s-68.7,4.9-68.7,4.9
	l-17.6-0.3L176.5,218.1z"/>
<path class="st19" d="M326.7,217.1c0.1,6.8-1.2,13.5-3.8,19.7c0.5,5.8-0.5,11.6-2.9,16.9c0,0,16-12.2,24.6-23.5
	c8.7-11.3,14-19.4,14-19.4s-19.6,6-32.1,5.3"/>
<path class="st19" d="M177.7,219.7c-0.1,6.8,1.2,13.5,3.8,19.7c-0.5,5.8,0.6,11.6,3,16.9c0,0-16-12.2-24.6-23.5
	c-8.7-11.3-14-19.4-14-19.4s19.6,6,32.1,5.3"/>
<path class="st12" d="M253.5,278.3c-37.3,0-64.5-16.4-81-30.4c-18.4-15.6-27.5-31.2-27.9-31.9c-0.1-0.2-0.2-0.5-0.2-0.8
	s0.1-0.5,0.3-0.8c0.2-0.2,0.4-0.4,0.7-0.5c0.3,0,0.5,0,0.8,0c0.2,0,20.5,5.9,62.5,1.8c42.3-4.1,61.9-5.3,99.3-1.9
	c18.8,1.7,31.3,0.5,38.5-0.9c7.8-1.5,11.2-3.4,11.2-3.4c0.2-0.3,0.6-0.4,0.9-0.4c0.4,0,0.7,0.1,1,0.4c0.3,0.2,0.4,0.6,0.4,0.9
	c0,0.4-0.1,0.7-0.4,1c-7.3,12-16.2,23-26.4,32.7c-15.8,15-41.9,33.1-76.3,34.1c-1.2,0-2.4,0-3.6,0L253.5,278.3z M148.8,217.5
	c7.2,10.6,15.8,20.1,25.5,28.4c16.6,14.1,44.5,30.6,82.6,29.6c33.4-0.9,58.9-18.6,74.4-33.3c9-8.5,16.9-18.1,23.7-28.4
	c-6.5,2.2-21.1,5.3-47.2,3c-37.3-3.4-56.6-2.2-98.8,1.9C175.8,221.9,156.2,219.1,148.8,217.5L148.8,217.5z"/>
<path class="st12" d="M144.1,225.5c-0.2,0-0.5,0-0.7-0.2c-0.2-0.1-0.4-0.3-0.5-0.5c-0.8-1.5-1.3-3.1-1.4-4.8c0-1.7,0.2-3.4,0.9-5
	s1.7-2.9,3-4s2.9-1.9,4.5-2.3c0.4,0,0.7,0,1,0.2s0.5,0.5,0.6,0.8c0,0.4,0,0.7-0.2,1s-0.5,0.5-0.8,0.6c-1.2,0.3-2.4,0.9-3.4,1.7
	s-1.8,1.8-2.3,3s-0.8,2.4-0.7,3.7c0,1.3,0.4,2.5,1,3.6c0,0.2,0.2,0.3,0.2,0.5s0,0.4,0,0.5c0,0.2-0.1,0.3-0.3,0.5
	c-0.1,0.1-0.3,0.3-0.4,0.3C144.4,225.2,144.2,225.3,144.1,225.5L144.1,225.5z"/>
<path class="st12" d="M361.3,219.4c-0.2,0-0.3,0-0.5,0s-0.3-0.2-0.5-0.3c-0.1-0.1-0.2-0.3-0.3-0.4c0-0.2-0.1-0.4-0.1-0.5
	c0-0.2,0-0.4,0.1-0.5c0.4-1,0.6-2.1,0.5-3.2c0-1.1-0.4-2.2-0.9-3.1c-0.5-1-1.3-1.8-2.1-2.5c-0.9-0.7-1.9-1.1-3-1.3
	c-0.4,0-0.7-0.3-0.9-0.6c-0.2-0.3-0.3-0.7-0.2-1c0-0.4,0.3-0.7,0.6-0.9c0.3-0.2,0.7-0.3,1-0.2c1.5,0.3,2.9,0.9,4.1,1.8
	c1.2,0.9,2.2,2.1,2.9,3.4c0.7,1.3,1.1,2.8,1.2,4.3c0,1.5-0.1,3-0.7,4.4c-0.1,0.3-0.3,0.5-0.5,0.6s-0.5,0.2-0.8,0.2L361.3,219.4z"/>
<path class="st20" d="M181.5,239.4c0,0,12.5,4.4,44,6.7c0,0-3.2,1.4-43.6-2.2L181.5,239.4z"/>
<path class="st20" d="M322.9,236.2c0,0-16.2,5.2-44,8.1c0,0,5.3,1.8,44.1-5v-3.2L322.9,236.2z"/>
<path class="st5" d="M235.1,332.5c-0.2,0-0.5,0-0.7-0.1c-0.8-0.3-20.5-7.7-35.5-20.6c-0.3-0.3-0.6-0.7-0.6-1.1s0-0.9,0.2-1.3
	c0.2-0.5,5.7-11.2,10.2-17.9c0.2-0.3,0.4-0.5,0.8-0.7c0.3-0.2,0.6-0.2,1-0.2c0.9,0,23.6,1.4,44.6,12.3c0.4,0.2,0.7,0.6,0.9,1
	c0.2,0.4,0.2,0.9,0,1.4c-0.2,0.6-5.2,14.3-19.5,26.6c-0.3,0.3-0.8,0.5-1.3,0.5L235.1,332.5z M202.6,309.8
	c12.4,10.2,27.9,16.8,32.1,18.5c7.1-6.3,12.8-14.1,16.9-22.7c-17.3-8.5-35.7-10.5-40.3-11c-3.3,5.1-7.1,12.2-8.6,15.1l0,0
	L202.6,309.8z"/>
<path class="st5" d="M291.4,332.5c-0.5,0-0.9-0.2-1.3-0.5c-14.3-12.4-19.3-26.1-19.5-26.6c-0.2-0.4-0.2-0.9,0-1.4
	c0.2-0.4,0.5-0.8,0.9-1c21-10.8,43.6-12.2,44.6-12.3c0.3,0,0.7,0,1,0.2s0.6,0.4,0.7,0.7c4.5,6.7,10,17.4,10.2,17.9
	c0.2,0.4,0.3,0.8,0.2,1.3c0,0.4-0.3,0.8-0.6,1.1c-15,12.9-34.6,20.3-35.5,20.6C291.9,332.5,291.6,332.5,291.4,332.5L291.4,332.5z
	 M274.9,305.6c4,8.6,9.8,16.3,16.9,22.6c4.2-1.7,19.7-8.3,32.1-18.5c-1.5-3-5.3-10.1-8.6-15.1c-4.6,0.5-23.1,2.6-40.3,11H274.9z"/>
<path class="st5" d="M132.4,416.9l-3.7-1.3c1.8-5.2,4.3-13.4,7.3-23c14.2-45.9,22.4-69.8,27.9-72.6c7.9-4.1,34.6-11.3,35.7-11.6
	l1,3.8c-0.3,0-27.5,7.5-34.9,11.3c-0.7,0.4-3.7,3.3-11.4,25.1c-4.9,13.9-10.2,31.3-14.6,45.2C136.8,403.4,134.2,411.7,132.4,416.9
	L132.4,416.9z"/>
<path class="st2" d="M288.3,395.9c0,0,11.6,5.6,18.1,7.3s14.2,1.6,18.5,3.2s4.2,2.2,9.6,3c5.5,0.9,14.8-2.9,14.8-2.9l-25.7-92.8
	l2.7-3.4c13.9,3,26.2,10.9,34.8,22.3c13.7,18.8,25.1,80.6,23.4,93.5s-2.6,20-10.2,19.7S271,411,271,411l17.7-6.3
	C288.1,401.8,287.9,398.9,288.3,395.9L288.3,395.9z"/>
<path class="st5" d="M351.7,413.6c-0.4,0-0.9-0.2-1.2-0.4c-0.3-0.3-0.6-0.6-0.7-1.1c-4.2-16.8-18.4-70.3-18.5-70.9
	c-0.1-0.5,0-1,0.2-1.4c0.3-0.4,0.7-0.7,1.2-0.9c0.5-0.1,1,0,1.4,0.2s0.8,0.6,0.9,1.1s14.3,54.1,18.5,70.9c0,0.2,0,0.5,0,0.8
	s-0.1,0.5-0.3,0.7c-0.1,0.2-0.3,0.4-0.5,0.6s-0.4,0.3-0.7,0.3c-0.2,0-0.3,0-0.5,0L351.7,413.6z"/>
<path class="st5" d="M384.4,427.4c-0.5,0-1-0.2-1.3-0.5c-0.4-0.3-0.6-0.8-0.6-1.3c-5.8-68.2-19.2-86.5-27.3-97.4l-1.7-2.3
	c-7.6-10.6-28.3-15.1-28.5-15.2c-0.5-0.1-0.9-0.4-1.1-0.9c-0.3-0.4-0.3-0.9-0.2-1.4c0.1-0.5,0.4-0.9,0.8-1.2
	c0.4-0.3,0.9-0.4,1.4-0.3c0.9,0.2,22.4,4.8,30.9,16.7c0.5,0.7,1.1,1.5,1.6,2.2c8.3,11.2,22.1,30,28,99.3c0,0.3,0,0.5,0,0.8
	c0,0.2-0.2,0.5-0.4,0.7c-0.2,0.2-0.4,0.4-0.6,0.5s-0.5,0.2-0.7,0.2L384.4,427.4L384.4,427.4z"/>
<path class="st5" d="M374.3,447.7c-8.5,0-41-12.2-75.4-25.1c-9.8-3.7-20-7.4-29.2-10.8c-0.2,0-0.5-0.2-0.6-0.4
	c-0.2-0.2-0.3-0.4-0.4-0.6s-0.2-0.5-0.2-0.7c0-0.3,0-0.5,0.1-0.7c0-0.2,0.2-0.5,0.4-0.6c0.2-0.2,0.4-0.3,0.6-0.5
	c0.2-0.1,0.5-0.2,0.7-0.2s0.5,0,0.8,0.1c9.3,3.4,19.4,7.2,29.2,10.8c32.5,12.2,66.2,24.8,74,24.8c0.9,0,1.9-0.1,2.7-0.5
	c0.9-0.4,1.6-0.9,2.2-1.7c4.1-4.7,3.5-16,2.9-20c0-0.5,0.1-1,0.4-1.4s0.8-0.6,1.2-0.7c0.5,0,1,0,1.4,0.3s0.7,0.7,0.8,1.2
	c0,0.7,2.3,16.1-3.8,23.1c-1,1.1-2.2,2-3.5,2.7C377.2,447.4,375.8,447.7,374.3,447.7L374.3,447.7z"/>
<path class="st0" d="M290.3,379.1c-1.1,3.2-2,6.5-2.6,9.9c-0.4,2.8-1.2,5.5-2.1,8.2c0,0,12,2.6,15.5,4.2s9.2,2.2,16.8,3.7
	c7.6,1.6,8.9,4.6,14.8,5.2s17.7,1.2,20.3-8c2.6-9.1-1.6-15.2-12.1-19.4c-9.1-3.6-19-4.9-28.7-3.8
	C304.9,379.5,297.6,379.5,290.3,379.1L290.3,379.1z"/>
<path class="st12" d="M336.8,411c-3.2,0.1-6.4-0.5-9.3-1.8c-3.6-1.9-7.9-2.6-12.5-3.3c-4.5-0.5-9-1.6-13.3-3.1
	c-4.8-2-9.7-3.7-14.6-5.1c-0.4,0-0.7-0.3-0.8-0.6c-0.2-0.3-0.2-0.7-0.1-1c0-0.4,0.3-0.7,0.6-0.8c0.3-0.2,0.7-0.2,1-0.1
	c5.1,1.4,10.1,3.2,15,5.2c4.1,1.5,8.3,2.5,12.6,3c4.8,0.7,9.3,1.4,13.3,3.6c4.5,2.4,15.9,2.2,20.9-2.5c2.9-2.7,3.4-6.5,1.3-11.4
	c-2.8-6.7-16.5-11.7-27-12.1s-34.1,0.2-34.4,0.2c-0.2,0-0.4,0-0.5,0c-0.2,0-0.3-0.2-0.5-0.3c-0.1-0.1-0.2-0.3-0.3-0.4
	c0-0.2-0.1-0.3-0.1-0.5c0-0.4,0.1-0.7,0.4-1c0.2-0.3,0.6-0.4,1-0.4c0.2,0,23.9-0.6,34.6-0.2c6,0.3,11.9,1.7,17.5,4
	c4.3,1.8,9.9,5,12,9.8c3.3,7.5,0.8,12.1-1.9,14.6C345.9,411.6,336.8,411,336.8,411z"/>
<path class="st2" d="M290.3,374.3l-25.4,0.5l-3.9,3.7c0,0-20.9,3-22.2,3.2s-61,7.3-86.4,17.4s-29.3,26.9-16.6,34.7
	c12.7,7.8,29.9,4.7,43.5-0.4c13.6-5.2,79.5-26.9,79.5-26.9s3.7,7.3,4.5,6.9c0.9-0.4,24.6-8.6,24.6-8.6c-2.4-10.1-1.6-20.8,2.4-30.4
	V374.3z"/>
<path class="st5" d="M153,441.2c-2.7,0-5.4-0.3-8-0.9c-8-1.9-13.3-5.3-15.9-10.3c-3.8-7.3-0.2-16,1.5-20.2c0.2-0.5,0.6-0.9,1-1.1
	c0.5-0.2,1-0.2,1.5,0c0.2,0,0.5,0.2,0.6,0.4c0.2,0.2,0.3,0.4,0.4,0.6c0.1,0.2,0.2,0.5,0.2,0.7c0,0.3,0,0.5-0.1,0.7
	c-1.6,4-4.6,11.3-1.6,17c2,3.8,6.4,6.7,13.3,8.2c11.7,2.8,24.3-2,45.2-9.9c22-8.6,44.4-15.9,67.1-22c0.2,0,0.5,0,0.8,0
	s0.5,0.1,0.7,0.2s0.4,0.3,0.6,0.5s0.3,0.4,0.3,0.7c0,0.2,0,0.5,0,0.8s-0.1,0.5-0.2,0.7s-0.3,0.4-0.5,0.6s-0.4,0.3-0.7,0.3
	c-22.6,6.1-44.9,13.4-66.7,21.9c-17.2,6.5-29,10.9-39.6,10.9L153,441.2z"/>
<path class="st5" d="M172,395.8c-0.5,0-1-0.2-1.3-0.5c-0.4-0.3-0.6-0.8-0.6-1.2c0-0.5,0-1,0.4-1.4c0.3-0.4,0.7-0.7,1.2-0.8
	c28.9-6.3,58.1-10.9,87.6-13.8c0.5,0,1,0.1,1.4,0.4s0.6,0.8,0.7,1.3c0,0.5-0.1,1-0.4,1.4s-0.8,0.6-1.3,0.7
	c-29.3,2.9-58.3,7.5-87.1,13.8h-0.4L172,395.8z"/>
<path class="st5" d="M262.2,414.8c-0.3,0-0.6,0-0.9-0.2s-0.5-0.4-0.7-0.6c-2.4-3.9-4.1-8.2-5-12.7c-1-4.8-1-9.8,0-14.7
	c1.1-4.8,3.2-9.4,6.1-13.3c0.2-0.2,0.4-0.4,0.7-0.6c0.3-0.1,0.6-0.2,0.9-0.2h27c0.3,0,0.6,0,0.9,0.2c0.3,0.1,0.5,0.3,0.7,0.6
	c0.2,0.2,0.3,0.5,0.4,0.8c0,0.3,0,0.6,0,0.9c-1.8,5.5-5.5,21.4-1.9,28.1c0.1,0.2,0.2,0.5,0.2,0.8s0,0.6-0.1,0.8
	c-0.1,0.3-0.3,0.5-0.5,0.7s-0.5,0.3-0.7,0.4l-26.4,8.9c-0.2,0-0.4,0.1-0.6,0.1L262.2,414.8z M264.4,376.3
	c-10.4,15.1-3.7,29.8-1.3,34.2l23-7.7c-2.7-8,0.3-21,1.7-26.5H264.4L264.4,376.3z"/>
<path class="st0" d="M229,381.6l-16.6,1.8c-5.4,1.6-10.5,4.1-15.1,7.4c-7.2,5.3-8.9,5.6-11.8,8.9c-2.9,3.3-7.1,8.4-10.9,8.2
	c0,0-2.5-0.9-2.8-1.1c-1.6-0.3-3.2-0.5-4.8-0.5c-1.8-0.1-4.2-2.5-4.6-2.9c-0.4-0.4,0-3.4,0-3.4s-3.8-0.7-4.4-1.9
	c-0.7-1.3,3.3-14.3,10.2-19.3c6.9-4.9,19.6-7.7,35.9-6.5s24.8,9.3,24.8,9.3H229z"/>
<path class="st21" d="M174.2,400.6c0,0-1.1,1.4,3.7,0.3c4.9-1.1,19.5-21,26.7-23.3s10.6-2.3,12.6-1.1c2,1.1,12.5,5.6,12.5,5.6
	s-22,2.2-24.8,4.2c-2.9,2-12.6,7.8-16.7,11.2c-2.2,2-4.3,4.1-6.2,6.5c-1.3,1.3-3.6,4.7-7.5,4.2c-4-0.6-4.5-3.4-3.4-5.2
	c0.7-1.1,1.8-1.9,3-2.3L174.2,400.6z"/>
<path class="st12" d="M174.2,409.1c-0.6,0-1.2,0-1.8-0.2c-0.8-0.1-1.5-0.5-2.1-1s-1-1.2-1.2-2c0-0.6-0.3-3.7,5.1-9.8
	c0.2-0.3,0.6-0.4,1-0.5c0.4,0,0.7,0.1,1,0.3c0.3,0.2,0.4,0.6,0.5,1c0,0.4-0.1,0.7-0.3,1c-2.3,2.6-4.6,6.2-4.4,7.5
	c0,0.2,0.4,0.5,1.2,0.7c2,0.5,6.5-0.2,10.8-6.1c6.4-8.8,26.4-18.9,27.2-19.4c0.3-0.2,0.7-0.2,1.1,0c0.4,0.1,0.6,0.4,0.8,0.7
	s0.2,0.7,0,1.1c-0.1,0.4-0.4,0.6-0.7,0.8c-0.2,0.1-20.2,10.3-26.2,18.5c-4,5.5-8.5,7.3-11.9,7.3L174.2,409.1z"/>
<path class="st12" d="M166.9,407.8c-1.8,0-3.6-0.5-5-1.6c-3.8-2.8-0.4-8.3,2.9-13.6c0.7-1.2,1.5-2.4,2.2-3.5c0-0.2,0.2-0.3,0.3-0.4
	s0.3-0.2,0.5-0.2s0.4,0,0.5,0c0.2,0,0.4,0,0.5,0.2c0.2,0,0.3,0.2,0.4,0.3c0.1,0.1,0.2,0.3,0.2,0.5s0,0.4,0,0.5c0,0.2,0,0.4-0.2,0.5
	c-0.7,1.2-1.5,2.4-2.2,3.6c-2.5,4-5.3,8.5-3.6,9.8c2.8,2.1,6.3,0.5,6.4,0.5c0.3-0.2,0.7-0.2,1.1,0c0.3,0.1,0.6,0.4,0.8,0.7
	c0.2,0.3,0.2,0.7,0,1.1c-0.1,0.3-0.4,0.6-0.7,0.8C169.7,407.6,168.3,407.8,166.9,407.8L166.9,407.8z"/>
<path class="st12" d="M162.1,401.9H162c-1.7-0.2-3.4-0.8-4.8-1.8c-2.2-1.7-0.3-5.2,2.1-9.8c0.7-1.3,1.4-2.7,2-4
	c2-4.3,8.3-12.7,18.5-13.9l2.6-0.3c10.2-1.3,29.2-4,47.9,8.8c0.2,0.1,0.3,0.2,0.4,0.4c0.1,0.2,0.2,0.3,0.2,0.5s0,0.4,0,0.5
	c0,0.2-0.1,0.3-0.2,0.5c-0.1,0.2-0.2,0.3-0.4,0.4s-0.3,0.2-0.5,0.2s-0.4,0-0.5,0c-0.2,0-0.3-0.1-0.5-0.2c-17.9-12.1-36.2-9.6-46-8.3
	l-2.7,0.3c-9,1.1-14.6,8.5-16.3,12.3c-0.6,1.3-1.3,2.8-2.1,4.2c-1.1,2-2.8,5.3-2.7,6.3c1,0.6,2.1,1,3.3,1.1c0.4,0,0.7,0.2,1,0.5
	c0.2,0.3,0.4,0.6,0.4,1s-0.2,0.7-0.5,1c-0.3,0.2-0.6,0.4-1,0.4l0,0L162.1,401.9z"/>
</svg>
