<?xml version="1.0" encoding="UTF-8"?><svg id="Capa_2" xmlns="http://www.w3.org/2000/svg" xmlns:xlink="http://www.w3.org/1999/xlink" viewBox="0 0 512 512"><defs><style>.cls-1{fill:#8c6239;}.cls-2{fill:#fff;}.cls-3{fill:#fdffcc;}.cls-4{fill:#06f5e2;}.cls-5{fill:#fced2e;}.cls-6{fill:#060203;}.cls-7,.cls-8,.cls-9,.cls-10,.cls-11,.cls-12,.cls-13{stroke-width:4px;}.cls-7,.cls-9,.cls-10,.cls-14,.cls-15,.cls-11,.cls-16,.cls-12,.cls-17,.cls-18{stroke-linecap:round;stroke-linejoin:round;}.cls-7,.cls-14,.cls-15,.cls-11,.cls-16,.cls-17,.cls-18{stroke:#175807;}.cls-7,.cls-19,.cls-18{fill:#53a22f;}.cls-8,.cls-9,.cls-10,.cls-11,.cls-12,.cls-13,.cls-17,.cls-20{fill:none;}.cls-8,.cls-9,.cls-20{stroke:#534741;}.cls-8,.cls-13,.cls-20{stroke-miterlimit:10;}.cls-21{fill:#175807;}.cls-22{fill:#fff6a6;}.cls-10{stroke:#603813;}.cls-23{fill:#a67c52;}.cls-14{fill:url(#linear-gradient-2);}.cls-14,.cls-15,.cls-16,.cls-18{stroke-width:2px;}.cls-24{fill:#5e504a;}.cls-15{fill:url(#linear-gradient);}.cls-25{fill:#7fe247;}.cls-26{fill:#e0e09b;}.cls-27{fill:#05fadb;}.cls-16{fill:#83e145;}.cls-28{fill:#5ea837;}.cls-29{fill:#55a630;}.cls-12,.cls-13{stroke:#736357;}.cls-17,.cls-20{stroke-width:5px;}.cls-30{fill:#84e146;}.cls-31{fill:#f4e051;}.cls-32{fill:#e2d46d;}.cls-33{fill:#0bab92;}</style><linearGradient id="linear-gradient" x1="5237.89" y1="157.03" x2="5237.89" y2="138.73" gradientTransform="translate(-4640.37 -1550.75) rotate(17.81)" gradientUnits="userSpaceOnUse"><stop offset="0" stop-color="#e8af15"/><stop offset=".04" stop-color="#d59a15"/><stop offset=".11" stop-color="#b77716"/><stop offset=".19" stop-color="#9e5a17"/><stop offset=".28" stop-color="#894218"/><stop offset=".39" stop-color="#793019"/><stop offset=".51" stop-color="#6e2319"/><stop offset=".66" stop-color="#671c19"/><stop offset="1" stop-color="#661a1a"/></linearGradient><linearGradient id="linear-gradient-2" x1="5146.88" y1="174.91" x2="5146.88" y2="155.28" xlink:href="#linear-gradient"/></defs><g><path class="cls-23" d="M167.7,276.79s-12.37-13.18-35.47-11.33c-23.11,1.85-33.2,28.86-37.75,41.88-4.56,13.02,1.63,38.73,5.21,54.35s3.58,48.82,7.16,59.23,22.07,23.11,42.11,19.85,22.21-16.86,22.98-31.51-6.43-52.13-9.72-80.77,5.49-51.7,5.49-51.7Z"/><path class="cls-1" d="M147.69,268.11c-1.07,.6-1.38,1.97-1.58,3.18-6.71,40.66,.81,82.26-.65,123.45-.09,2.59-.24,5.26-1.36,7.6-1.58,3.3-4.89,5.46-8.3,6.77-4.69,1.8-9.87,2.3-14.81,1.42-4.6-.81-9.72-2.69-13.62-.13-2.9,1.9-2.04,2.69-1.61,6.13,1.1,8.75,7.85,17.38,15.99,20.74,4.82,1.99,9.16,2.18,14.21,3.5,5.3,1.38,15,.08,20.13-1.84,4.56-1.71,7.76-3.97,10.55-7.96,3.88-5.54,3.79-9.6,4.71-16.3,.73-5.3,.16-10.69-.49-16-1.03-8.42-2.26-16.81-3.67-25.18-2.56-15.12-3.67-29.72-4.97-45-.9-10.58-1.02-21.58,.73-32.07,.88-5.27,2.91-12.97,4.23-18.12,.89-3.45-2.24-3.11-5.27-4.97-2.67-1.63-11.33-6.86-14.2-5.23Z"/><path class="cls-10" d="M167.7,276.79s-12.37-13.18-35.47-11.33c-23.11,1.85-33.2,28.86-37.75,41.88-4.56,13.02,1.63,38.73,5.21,54.35s3.58,48.82,7.16,59.23,22.07,23.11,42.11,19.85,22.21-16.86,22.98-31.51-6.43-52.13-9.72-80.77,5.49-51.7,5.49-51.7Z"/><path class="cls-10" d="M141.75,265.54s-13.43,6.33-20.91,25.86c-7.49,19.53,2.01,83.97-20.15,75.67"/><path class="cls-10" d="M153.23,268.1s-15.73,7.34-20.81,45.75c-5.08,38.4,5.37,137.98,31.39,120.41"/><path class="cls-10" d="M145.45,441.19s-23.86-1.39-24.24-80.47c0,0-3.09,15.5-19.31,16.38"/></g><g><g><path class="cls-25" d="M349.49,312.42c5.55,2.65,7.74,9.43,4.79,14.83l-.11,.2c-5.97-3.42-11.67-6.93-18.04-9.49-28.81-11.62-59.96-17.37-91.02-16.88-13.89-13.4-6.29-13.2-1.48-17.09,4.86-3.94,27.26-.53,44.31,4.44,15.04,4.38,36.66,12.14,61.54,24.01"/><path class="cls-28" d="M245.11,301.07c31.06-.48,62.21,5.26,91.02,16.88,6.37,2.57,12.07,6.07,18.04,9.49l-1.36,2.79c-2.28,4.68-7.56,7.07-12.58,5.71-22.7-6.16-82.97-23.28-94.68-34.45-.15-.14-.3-.28-.44-.43Z"/></g><g><path class="cls-11" d="M347.86,311.68c-25.27-13.49-52.86-22.82-81.22-27.94-10.33-1.87-22.28-2.74-30.02,4.36"/><path class="cls-11" d="M239.24,294.3c3.25,6.77,10.76,10.2,17.73,13,26.59,10.69,53.72,20.03,80.83,28.39"/></g></g><g><g><path class="cls-30" d="M265.16,328.07c-2.61-20.34-2.04-38.84-15.34-44.8-3.2-1.43-5.27-2.89-6.58-4.4-14.16,1.16-19.99-11.11-33.91-13.95-4.37-.89-17.12-2.65-21.26-.98-2.88,1.16-13.61,7.49-15.73,9.76-3.36,3.61-8.57,8.79-1.97,18.98,.64,.99-6.19-1.27-6.71-.21-.87,1.79-1.98,7.45-1.84,9.44,1.32,19.14,4.01,40.67,7.34,59.56,3.33,18.89,8.33,32.28,3.62,50.88-1,3.94-2.81,5.85-5.1,9.22-2.15,3.16,.14,10.52-3.2,12.36-.5,7.34,.8,9.81,3.64,10.88,8.59,3.23,15.7,2.85,23.3,3.73s22.73,1.12,33.45-2.72c10.72-3.84,30.34-6.42,30.34-6.42,0,0,1.83-9.31,3.21-15.82,1.38-6.52,5.8-31.89,5.8-31.89,4.43-29.54,.95-63.61,.95-63.61Z"/><path class="cls-19" d="M167.29,444.43c3.2,2.31,12.73,4.09,13.73,.14,4.71-18.59-.62-67.6-3.95-86.49-3.33-18.89-8.17-37.58-9.48-56.72-.14-1.99-.22-4.07,.65-5.86,.52-1.06,1.33-1.94,2.14-2.81,3.36-3.61,6.72-7.23,10.08-10.84,2.12-2.27,4.33-4.62,7.21-5.78,4.14-1.67,8.8-.61,13.18,.29,13.92,2.84,28.24,3.68,42.4,2.51-4.14-4.78-.74-10.17-1.38-17.61-.84-9.79-8.25-50.32-48.48-35.02-12.76,4.85-21.99,14.64-22.32,22.92-.33,8.28-.24,17.62-.7,21.94-.46,4.32-6.35,8.53-12.41,13.17-5.7,4.36-2.52,13.96-.23,20.23,0,0,5.5,16.98,8.28,44.96,2.78,27.98,2.16,59.19-.3,74.53-.65,4.05-1.05,7.3-1.23,9.93-.81,4.35-.28,8.26,2.82,10.5Z"/></g><path class="cls-5" d="M186.96,447.59c5.95-51.34,3.25-115.38,2.58-142.62-.07-2.65-.11-5.41,.99-7.83,1.1-2.43,3.24-4.22,5.45-5.71,10.26-6.87,23.93-8.49,35.39-3.89,11.46,4.6,20.29,15.41,22.17,27.61,0,0,11.92,78.89-16.75,126.59,0,0-7.94,4.6-19.98,6.46-12.05,1.86-21.34,.75-29.84-.61Z"/><path class="cls-11" d="M255.79,433.6c13.15-52.18,12.27-98.21,6.16-129.03-1.08-5.45-2.43-11.22-5.56-15.9-3.57-5.34-6.97-5-12.03-7.96-5.23-3.05-2.9-9.16-2.8-14.09,.12-6.16-.16-12.37-1.64-18.38-2.03-8.27-6.56-16.23-13.76-20.79-5.69-3.6-12.66-4.83-19.37-4.29s-13.19,2.74-19.3,5.56c-4.03,1.86-8.04,4.09-10.78,7.58-2.35,2.98-3.6,6.67-4.5,10.36-1.33,5.43-2.12,11.17-1.94,16.78,.14,4.42,2.96,7.88-.36,12.02-5.7,7.12-13.73,4.84-14.7,16.39-.62,7.33,3.11,13.3,5.2,20.02,2.5,8.02,3.45,16.45,4.27,24.78,1.51,15.39,3.53,73.73,.06,94.34,0,0-2.68,10.95,4.41,15.18"/></g><g><path class="cls-23" d="M185.47,277.25c-20.18-18.6-36.75,3.73-34.48,11.54s14.31-13.99,27.65,0,15.6,52.07,.65,93.4-20.41,35.15-19.16,39.38,5.49,21.81,20.13-5.86c14.65-27.66,40.36-106.07,5.21-138.47Z"/><path class="cls-1" d="M151.78,286.93c-.7,.48-.78,1.55-.56,2.36,4.04,.37,7.78-1.87,11.49-3.52,4.86-2.17,11.22-3.14,14.97,.63,1.27,1.27,2.06,2.93,2.81,4.56,4.22,9.14,8.09,18.63,9.13,28.65,1.02,9.79-.7,19.64-2.41,29.33-2.48,14.06-5.03,28.33-11.34,41.13-1.55,3.15-3.33,6.21-4.6,9.48-1.11,2.86-1.82,5.87-3.05,8.68-1.31,2.99-3.21,5.73-5.56,8-1.11,1.07-2.35,2.09-2.92,3.52-1.02,2.56,.45,5.42,2.22,7.53,1.53,1.83,3.53,3.53,5.91,3.6,2.52,.08,4.77-1.77,6.01-3.97s3.95-5.39,4.52-7.85c1.19-5.12,4.42-9.25,6.86-13.9,3.43-6.52,8.29-19.69,9.66-26.93,5.32-28.17,8.79-47.92,2.28-65.93-6.51-18.01-19.46-43.21-45.42-25.4Z"/><path class="cls-10" d="M185.47,277.25c-20.18-18.6-36.75,3.73-34.48,11.54s14.31-13.99,27.65,0,15.6,52.07,.65,93.4-20.41,35.15-19.16,39.38,5.49,21.81,20.13-5.86c14.65-27.66,40.36-106.07,5.21-138.47Z"/></g><g><g><path class="cls-30" d="M181.35,319.35c-2.61-8.97-4.03-22.71-9.78-30.23-3.73-4.06-18.1-2.94-21.2,3.34-3.18,6.42-2.75,20.94-1.1,27.91,6.62,27.88,18.92,60.11,27.7,87.38h0c6.85,3.04,14.79-.82,16.64-8.08l.15-.57c.95-3.73,1.23-7.59,.83-11.41-1.24-11.78-4.8-39.38-13.24-68.33Z"/><path class="cls-29" d="M152.4,298.38c3.11-6.27,10.4-9.5,17.41-9.05-5.02-6.58-10.33-7.16-20.44,.53-9.51,7.23-4.58,24.05-.64,42.95,3.94,18.9,20.15,67.44,20.15,67.44l2.49,3.21c1.49,1.92,3.41,3.48,5.59,4.56l1.79,.88c-8.78-27.28-19.73-61.62-26.36-89.5-1.65-6.96-3.17-14.61,0-21.02Z"/></g><path class="cls-11" d="M178.04,305.51c-1.06-4.44-2.15-8.95-4.43-12.93-3.67-6.42-9.97-10.31-17.25-7.38-6.07,2.44-10.99,7.9-12.11,14.29-.69,3.92-.09,7.94,.55,11.87,5.1,30.99,21.01,84.85,26.02,92,7.37,10.52,23.93,6.56,23.52-8.36-.75-27.13-8.28-55.95-12.99-75.64"/></g><polygon class="cls-3" points="195.11 291.56 204.38 371.13 209.16 434.27 204.38 480.97 296.75 491.71 392.82 475.16 428.94 446.15 423.73 401.4 431.87 342.82 474.83 231.02 399.65 286.73 296.75 302.3 195.11 291.56"/><path class="cls-26" d="M272.36,402.86c39.91,17.09,61.39,17.71,80.43,5.93,19.04-11.78,92.81-101.7,92.81-101.7l-13.73,35.73-8.14,58.58,5.21,44.75-36.12,29.01-96.07,16.55-92.37-10.74,4.78-46.7-10.4-111.38s33.7,62.89,73.6,79.97Z"/><path class="cls-19" d="M303.56,213.78s6.57-3.06,12.36-12.24c5.8-9.17,11.12-23.66,5.5-37.92-5.62-14.27-14.7-16.2-14.7-16.2,0,0-37.92,14.4-3.17,66.36"/><g><path class="cls-30" d="M259.55,280.77c-19.64,1.95-48.58-.24-48,2.67s9.15-5.7,7.36-7.49c-5.96-5.96-6.61-.62-43.11-13.67-5.41-1.93-18.11-1.78-33.36-34.01-15.24-32.23,7.04-87.83,9.22-102.84,2.18-15.01,2.19-12.37,1.64-16.22,3.46-.9,12.09-3.17,15.49-4.23,3.92-1.22,7.83-2.45,11.75-3.67,3.15-.98,6.32-1.97,9.6-2.26,5.11-.45,10.2,.81,15.17,2.07,7.68,1.93,15.36,3.87,23.03,5.8,.51,.13,1.06,.26,1.56,.1,1.06-.34,1.34-1.73,1.21-2.83-.42-3.4-2.93-6.12-5.38-8.51-2.36-2.31-4.79-4.55-7.28-6.72,3.29,1.64,6.04,3,7.78,3.76,7,3.05,25.58,9.33,40.21,16.53,14.63,7.2,19.52,19.68,19.52,19.68,3.72,6.39,22.06,61.12,25.15,72.33,3.06,11.11-.79,38.52-.79,38.52,7.68,2.02,4.22,10.34,4.22,10.34-.49,4.16-14.8,17.65-20.44,20.37-8.51,4.04-19.33,8.8-34.56,10.31Z"/><path class="cls-33" d="M156.79,76.21c2.25-1.68,4.74-2.72,7.32-3.31,.02,1.06,6.18,2,5.16,3.14-2.91,3.29-5.95,3.02-1.93,7.65,4.02,4.63,.64,6.14-.09,9.11-.73,2.97,6.31-.54,5.7,4.88-.62,5.43-1.44,2.42-.89,6.28-3.46,.9-20.26,6.58-24.01,6.08,1.02-13.86,2.92-29.49,8.75-33.83Z"/><path class="cls-4" d="M231.11,104.18c.14,1.11-.14,2.49-1.21,2.83-.5,.16-1.05,.03-1.56-.1-7.68-1.93-15.36-3.87-23.03-5.8-4.97-1.25-10.06-2.52-15.17-2.07-3.28,.29-6.46,1.28-9.6,2.26-3.92,1.22-7.83,2.45-11.75,3.67-3.4,1.06-6.83,2.13-10.28,3.03-.55-3.86,2.44-3.13,3.06-8.56,.62-5.43-2.7-3.09-1.96-6.06,.73-2.97,4.63-2.93,.6-7.55-4.02-4.63-.31-6.25,2.61-9.55,1.01-1.15,1.32-2.33,1.3-3.39,7.86-1.79,16.67,.59,22.98,1.98,6.32,1.4,21.33,9.06,31.35,14.06,2.49,2.18,4.92,4.42,7.28,6.72,2.45,2.39,4.96,5.11,5.38,8.51Z"/><path class="cls-19" d="M158.97,124.48c-2.18,15.01-17.59,63.76-2.35,95.99,15.24,32.23,49.99,56.21,88.1,49.1,38.1-7.1,43.92-8.57,38.84-15.29-5.08-6.72-41.49-2.78-46.82-5.39-2.67-1.31,20.75-9.44,56.63-1.04,14.9,3.49,15.57,6.81,13.74,11.27-16.08,20.19-39.53,18.61-64.62,23.42-39.24,7.51-103.85-22.59-115.82-62.4-4.41-14.66-9.53-29.23,6.05-31.9,.84-10.23,12.37-46.72,13.9-58.8,.55-4.35,.85-11.59,1.42-19.39,3.52-.4,7.01-1.14,10.47-2.03,.55,3.86,2.64,1.47,.46,16.47Z"/></g><path class="cls-19" d="M247.58,162.28c-.8,15.41-10.34,34.43-27.97,44.03-17.63,9.6-38.81,7.56-48.87-1.22-10.06-8.78-14.16-23.78,.77-46.44s77.34-21.09,76.06,3.63Z"/><path class="cls-7" d="M215.65,202.36c11.68-5.51,20.58-16.55,22.79-25.53,2.21-8.98-4.5-26.63-29.29-32.11-24.79-5.48-36.76,6.2-40.28,12.78-2.78,5.19-7.5,20.24,4.04,34.62,10.06,12.52,27.21,17.14,41.89,10.63,.28-.13,.57-.26,.85-.39Z"/><path class="cls-27" d="M315.3,152.27s-2.13-21.01-12.49-25.73c-10.36-4.72-20.42,.42-24.02,17.22-3.59,16.8-.48,21.27,2.19,28.86s6.48,15.67,10.33,11.82c0,0-2.03-17.57,2.63-25.14,4.66-7.57,10.51-14.51,21.34-7.02Z"/><path class="cls-19" d="M313.22,200.14s.37,17.92-3.32,20.55c-3.69,2.63-12.17-13.96-11.63-18.96,.55-5.01,14.95-1.59,14.95-1.59Z"/><ellipse class="cls-18" cx="201.86" cy="171.43" rx="25.61" ry="27.48" transform="translate(21.26 365.12) rotate(-87.34)"/><ellipse class="cls-16" cx="202.04" cy="171.63" rx="19.58" ry="22.13" transform="translate(-6.31 335.54) rotate(-78.54)"/><path class="cls-18" d="M300.19,208.9s10.6-3.57,14.91-16.41c4.31-12.84,.97-23.87-5.96-33.31-9.08-12.37-12.83-5.94-12.83-5.94,0,0-14.35,18.27,3.88,55.66Z"/><path class="cls-16" d="M295.14,198.44c7.5,6.34,13.12,0,15.23-3.85,2.11-3.85,5.24-19.42-3.71-28.11-8.95-8.68-15.72,.83-15.72,.83"/><path class="cls-11" d="M286.38,128.08s-10.57-13.33-21.79-20.21c-11.22-6.88-32.39-11.69-46.98-19.14-14.59-7.44-40.6-21.81-57.12-14.43-6.62,2.82-10.06,6.16-12.55,42.5-2.49,36.33-12.17,54.03-14.53,71.44-19.54,2.74-10.04,35.28,7.73,56.37,14.84,17.61,37.51,27.39,37.51,27.39"/><path class="cls-11" d="M315.98,152.27s-2.81-18.72-11.09-24.93c-8.28-6.21-17.91-2.84-22.23,7.11-4.32,9.94-7.32,24.93-1.67,38.17"/><path class="cls-4" d="M250.24,167.93c2,8.36-9.76,14.8-12.24,3.5-2.48-11.3-15.38-4.38-36.13-7.93-9.98-1.7-29.01-12.62-31.33-9.65-2.32,2.97-8.57,1.92-8.82,7.99-.25,6.07-8.91,3.72-5.35-9.57,7.3-27.23,37.4-13.57,44.65-12.2,22.03,4.15,40.03-10.58,49.22,27.85Z"/><path class="cls-11" d="M250.64,169.44s-1.83-30.88-26.35-28.72c-18.06,1.59-29.45-4.13-44.59-4.78-16.35-.7-19.85,3.97-22.46,16.71"/><path class="cls-17" d="M314.15,205.76s.03,21.2-3.59,33.99"/><path class="cls-11" d="M211.03,283.18c13.28,.55,53.26-.25,72.24-6.65,18.98-6.4,33.65-21.59,33.23-28.91-.25-4.29-1.73-7.85-22.11-11.45-64.14-11.93-77.51-5.44-88.04-5.35-29.89,.25-40.17-2.18-52.49-16.79"/><path class="cls-21" d="M277.49,204.28s5.44,3.71,4.41,5.54c-1.03,1.83-4.11,1.75-4.41-5.54Z"/><path class="cls-21" d="M262.43,201.91s-1.7,5.93-3.9,5.64-2.34-2.04,3.9-5.64Z"/><path class="cls-11" d="M299.13,124.56s7.01,6.36,8.85,21.83"/><path class="cls-11" d="M282.04,135.94s10.33,2.36,15.13,17.56"/><path class="cls-11" d="M236.68,143.16s-8.66,7-7.19,19.67"/><path class="cls-11" d="M205,140.89s-3.83,10.71-2.1,22.78"/><path class="cls-11" d="M179.15,135.99s-6.08,4.1-4.81,17.47"/><path class="cls-11" d="M308.65,220.97c-12.1-18.42-21.61-30.32-17.76-52.82,4.01-23.42,17.62-19.54,17.62-19.54"/><path class="cls-17" d="M160.82,210.8s-10.55-5.63-10.7,8.12"/><path class="cls-17" d="M140.82,187.97s-2.25-.52-7.41,.26"/><path class="cls-11" d="M295.59,155.81c4.5-9.31,17.69-9.67,22.72-.64,2.08,3.73,3.91,7.94,4.93,12.4,3.51,15.29,1.42,31.64-18.64,45.78,0,0-24.09-26.36-9.01-57.54Z"/><path class="cls-11" d="M160.82,163.83s4.2-12.79,17.56-8.92,18.64,10.93,33.45,9.63,22.89-3.33,27.65,12.4"/><g><circle class="cls-15" cx="301.39" cy="191.77" r="9.15"/><circle class="cls-6" cx="302" cy="191.97" r="5.77"/><circle class="cls-2" cx="306.6" cy="188.7" r="1.94"/></g><g><circle class="cls-14" cx="209.47" cy="180.33" r="9.81"/><circle class="cls-6" cx="210.13" cy="180.54" r="6.19"/><circle class="cls-2" cx="215.06" cy="177.04" r="2.08"/></g><polygon class="cls-13" points="195.11 291.56 204.38 371.13 209.16 434.27 204.38 480.97 296.75 491.71 392.82 475.16 428.94 446.15 423.73 401.4 431.87 342.82 474.83 231.02 399.65 286.73 296.75 302.3 195.11 291.56"/><g><line class="cls-12" x1="392.55" y1="367.06" x2="427.48" y2="345.09"/><line class="cls-12" x1="300.5" y1="382.81" x2="377.98" y2="371.78"/><line class="cls-12" x1="211.06" y1="371.78" x2="286.54" y2="384.8"/><line class="cls-12" x1="388.52" y1="427.78" x2="419.02" y2="404.98"/><line class="cls-12" x1="300.5" y1="442.84" x2="375.06" y2="433.76"/><line class="cls-12" x1="215.94" y1="435.89" x2="286.61" y2="443.02"/><line class="cls-12" x1="293.41" y1="453.14" x2="293.41" y2="478.53"/><line class="cls-12" x1="294.35" y1="393.59" x2="293.56" y2="435.89"/><line class="cls-12" x1="297.95" y1="309.29" x2="295.08" y2="371.75"/><line class="cls-12" x1="389.08" y1="360.06" x2="401.77" y2="292.37"/><line class="cls-12" x1="382.57" y1="421.93" x2="386.52" y2="377.3"/><line class="cls-12" x1="388.75" y1="462.58" x2="383.84" y2="442.26"/></g><g><g><path class="cls-30" d="M188.33,387.15c-5.08-1.84-10.05-6.74-14.97-11.91,.56-2.14,1.28-3.78,2.05-4.8,1.61-2.13,3.43-2.03,5.21-1.79,8.86,1.2,17.77,5.4,26.66,9.59,1.28,.6,3.39,.28,4.3,5.12,.15,.79,.25,1.8,.32,2.95,.02,.28,.03,.57,.05,.86-4.39,.27-9.17,.56-13.17,.81-3.47,.21-6.96,.42-10.45-.84Z"/><path class="cls-29" d="M207.47,407.01c-7.94,.71-15.87,1.43-23.81,2.14-2.42,.22-7.1,1.69-9.44-2.15-.95-1.56-3.7-3.09-4.43-6.02-1.06-4.28,.87-13.17,1.48-15.5,4.92,5.17,8.55,10.02,13.62,11.86,3.49,1.26,10.4-9.15,13.87-9.36,4.39-.27,8.78-.54,13.17-.81,.25,5.43-.18,13.24-.83,15.91-.85,3.48-2.31,3.8-3.65,3.92Z"/></g><path class="cls-11" d="M174.28,378.34c.15-.04,.51-.32,.99-.77,5.7-5.28,13.87-6.89,21.13-4.11,3.47,1.33,6.99,2.94,10.89,4.78,1.28,.6,3.39,.28,4.3,5.13,.84,4.48,.37,16.32-.46,19.72-.85,3.48-2.31,3.8-3.65,3.92l-23.81,2.14c-2.42,.22-11.68,1.14-16.93-15"/></g><g><g><g><path class="cls-30" d="M200.54,415.97c4.05,.78,9.97,.84,14.07,.47,4.11-.36,8.93-1.77,12.25-4.21,1.46-1.08,1.04-5.16,2.32-6.45-1.06-4.08-3.88-6.13-6.72-6.3-3-.18-7.96,1.74-11.66,1.41-16.25-1.43-18.37-2.65-20.32,3.71-.4,1.31-.55,2.62-.4,3.88,.44,.3,.33,2.33,.79,2.6,3.03,1.72,6.24,4.23,9.66,4.89Z"/><path class="cls-29" d="M229.18,405.78c-1.27,1.29-2.56,2.58-4.03,3.66-3.32,2.44-7.41,3.7-11.52,4.06-4.11,.36-8.25-.12-12.3-.9-3.42-.66-6.85-1.54-9.89-3.26-.46-.26-.91-.55-1.35-.85,.58,4.88,5.69,9.09,18.59,10.07,16.25,1.24,21.55-7.42,20.67-12.01-.05-.26-.11-.52-.17-.77Z"/></g><path class="cls-11" d="M210.81,400.9c-16.25-1.43-18.37-2.65-20.32,3.71s1.94,12.72,18.2,13.96c16.25,1.24,21.55-7.42,20.67-12.01s-3.89-6.89-6.89-7.07-7.96,1.74-11.66,1.41Z"/></g><g><g><path class="cls-29" d="M222.8,390.06c-2.98,.7-5.77,.96-8.83,.91-6.6-.1-11.73,.09-17.67-2.8-2.12-1.03-7.53,4.19-9.28,2.61-.77,5.69,4.54,10.98,21.5,12.1,16.94,1.11,23.59-5.8,23.99-10.54-1.08,.8-2.79-3.55-4-2.93-2.46,1.25-3.03,.02-5.71,.65Z"/><path class="cls-30" d="M232.43,390.87c-1.02-4.59-4.5-6.89-7.97-7.07s-9.21,1.74-13.49,1.41c-18.8-1.43-21.25-2.65-23.5,3.71-.22,.62-.37,1.24-.46,1.86,1.75,1.58,3.72,2.91,5.84,3.94,5.94,2.88,12.75,3.31,19.35,3.41,3.06,.04,6.16,.02,9.14-.68,2.68-.63,5.21-1.8,7.66-3.05,1.21-.61,2.42-1.26,3.5-2.07,.04-.52,.02-1.02-.08-1.47Z"/></g><path class="cls-11" d="M210.97,385.22c-18.8-1.43-21.25-2.65-23.5,3.71s2.25,12.72,21.05,13.96c18.8,1.24,24.93-7.42,23.91-12.01-1.02-4.59-4.5-6.89-7.97-7.07s-9.21,1.74-13.49,1.41Z"/></g><g><g><path class="cls-29" d="M220.39,372.04c-1.8,.28-2.95,1.19-4.77,1.12-1.42-.06-4.06-.69-5.48-.77-3.76-.19-7.24,2.27-10.72,.82-2.93-1.21-7.25,2.11-9.1-.45-1.52,6.15,2.62,12.16,18.36,13.36,16.25,1.24,21.55-7.42,20.67-12.01-.02-.11-.05-.21-.07-.32-2.65,3.49-4.58-2.41-8.9-1.74Z"/><path class="cls-30" d="M222.47,367.04c-3-.18-7.96,1.74-11.66,1.41-16.25-1.43-18.37-2.65-20.32,3.71-.06,.2-.12,.4-.17,.6,1.85,2.57,4.41,4.63,7.33,5.84,3.48,1.44,7.31,1.7,11.07,1.89,1.42,.07,2.83,.14,4.25,.19,1.82,.07,3.65,.13,5.45-.15,4.32-.66,8.2-3.27,10.85-6.76-.96-4.37-3.89-6.57-6.82-6.74Z"/></g><path class="cls-11" d="M210.81,368.46c-16.25-1.43-18.37-2.65-20.32,3.71s1.94,12.72,18.2,13.96c16.25,1.24,21.55-7.42,20.67-12.01s-3.89-6.89-6.89-7.07-7.96,1.74-11.66,1.41Z"/></g></g><g><path class="cls-30" d="M438.73,356.61c-4.78-4.07-21.02,7.23-23.48,12.01s-1.5,11.46,7.37,9.28,24.29-14.33,16.11-21.29Z"/><path class="cls-29" d="M414.09,376.16s2.17,5.53,12.02,1.46c9.84-4.07,18.85-15.82,14.24-20.18,0,0-5.24,15.87-26.25,18.71Z"/><path class="cls-11" d="M438.73,356.61c-4.78-4.07-21.02,7.23-23.48,12.01s-1.5,11.46,7.37,9.28,24.29-14.33,16.11-21.29Z"/></g><g><path class="cls-30" d="M445.31,336.94c-5.7-4.85-25.06,8.62-27.99,14.32-2.93,5.7-1.79,13.67,8.79,11.07s28.96-17.09,19.2-25.39Z"/><path class="cls-29" d="M416.67,360.86s4.31,6.43,16.92-.73c12.61-7.16,16.69-16.03,14.49-20.18,0,0-10.91,18.47-31.41,20.91Z"/><path class="cls-11" d="M445.31,336.94c-5.7-4.85-25.06,8.62-27.99,14.32-2.93,5.7-1.79,13.67,8.79,11.07s28.96-17.09,19.2-25.39Z"/></g><g><path class="cls-30" d="M450.03,320.67c-5.7-4.85-25.06,8.62-27.99,14.32s-1.79,13.67,8.79,11.07c10.58-2.6,28.96-17.09,19.2-25.39Z"/><path class="cls-29" d="M452.79,322.46s-17,22.46-32.15,21.59c0,0,4.33,8.79,20.41-1.63,16.08-10.41,11.74-19.96,11.74-19.96Z"/><path class="cls-11" d="M450.03,320.67c-5.7-4.85-25.06,8.62-27.99,14.32s-1.79,13.67,8.79,11.07c10.58-2.6,28.96-17.09,19.2-25.39Z"/></g><g><g><path class="cls-22" d="M143.22,98.28s-27.29,8.48-31.19,15.51,59.31,27.46,154.51,21.92c95.2-5.54,84.59-29.8,31.78-37.04,0,0-9.98-72.18-69.65-73.23-59.68-1.05-80.42,55.66-85.46,72.85Z"/><path class="cls-32" d="M155.81,68.96s37.39,36.59,87.92,34.82,46.95-31.36,46.95-31.36l7.65,26.25s8.39,.68,16.63,3.17-8.27,9.75-58.15,16.53c-39.49,5.37-157.85-3.08-113.59-20.08,0,0,8.86-25.66,12.59-29.32Z"/></g><path class="cls-24" d="M199.18,135.43l22.37,1.13s19.75-12.87,55.04-20.9,55.36-6.63,55.36-6.63c0,0-16.4-9.64-31.69-9.28,0,0-33.01,1.7-66.95,15.55-33.94,13.85-34.13,20.13-34.13,20.13Z"/><g><path class="cls-8" d="M143.22,98.28s-27.29,8.48-31.19,15.51,59.31,27.46,154.51,21.92c95.2-5.54,84.59-29.8,31.78-37.04,0,0-9.98-72.18-69.65-73.23-59.68-1.05-80.42,55.66-85.46,72.85Z"/><path class="cls-8" d="M143.22,98.28s74.96,20.84,155.11,.38"/><path class="cls-9" d="M228.68,25.43s30.11,2.79,47.59,61.58"/><path class="cls-9" d="M161.21,60.6s53.28,22.21,115.06,26.41c14.81-10.48,11.56-20.83,11.56-20.83"/><path class="cls-8" d="M333,108.97s-55.47-2.17-111.39,27.51"/><path class="cls-8" d="M199.18,135.43s31.66-29.74,104.54-35.95"/></g><path class="cls-31" d="M250.29,121.45c-.78,.04-1.56-.25-2.14-.8l-2.94-2.83c-.76-.73-1.06-1.77-.8-2.79,.26-1.02,1.01-1.79,2.02-2.08l16.83-4.72c.91-.26,1.9-.05,2.63,.56l2.77,2.3c.81,.68,1.19,1.74,.99,2.78s-.96,1.88-1.97,2.2l-16.66,5.26c-.24,.08-.49,.12-.73,.13Zm-3.5-5.28l2.94,2.83c.16,.15,.39,.21,.6,.14l16.66-5.26c.31-.1,.39-.36,.41-.46,.02-.11,.04-.38-.21-.58l-2.77-2.3c-.15-.13-.36-.17-.55-.12l-16.83,4.72c-.31,.09-.4,.33-.42,.44-.03,.1-.06,.36,.17,.58h0Z"/><path class="cls-31" d="M292.94,110.31c-.86,.04-1.68-.35-2.19-1.05l-1.95-2.68c-.55-.75-.65-1.71-.26-2.55,.38-.85,1.16-1.41,2.09-1.5l14.11-1.37c.84-.08,1.66,.25,2.2,.9l1.88,2.23c.6,.72,.77,1.7,.43,2.58-.34,.87-1.13,1.49-2.06,1.61l-14.05,1.82c-.07,0-.14,.02-.21,.02Zm12.03-6.88h-.01l-14.11,1.37c-.13,.01-.2,.09-.23,.16s-.05,.17,.03,.28h0l1.95,2.68c.06,.08,.15,.12,.26,.11l14.05-1.82c.13-.02,.19-.1,.22-.17,.03-.07,.04-.17-.05-.28l-1.88-2.23c-.06-.07-.14-.1-.22-.1Z"/><path class="cls-22" d="M218.59,25.72s5.6-12.86,14.02-.11c0,0-6.36,3.62-14.02,.11Z"/><path class="cls-20" d="M232.61,25.61s-6.36,3.62-14.02,.11c0,0,5.6-12.86,14.02-.11"/></g></svg>