<?xml version="1.0" encoding="utf-8"?>
<!-- Generator: Adobe Illustrator 25.4.1, SVG Export Plug-In . SVG Version: 6.00 Build 0)  -->
<svg version="1.1" id="Capa_1" xmlns="http://www.w3.org/2000/svg" xmlns:xlink="http://www.w3.org/1999/xlink" x="0px" y="0px"
	 viewBox="0 0 512 512" style="enable-background:new 0 0 512 512;" xml:space="preserve">
<style type="text/css">
	.st0{fill:#8E553F;}
	.st1{fill:#513021;}
	.st2{fill:none;stroke:#301B12;stroke-width:3;stroke-linecap:round;stroke-linejoin:round;}
	.st3{fill:none;stroke:#301B12;stroke-width:3;stroke-miterlimit:10;}
	.st4{fill:#F7991D;}
	.st5{fill:url(#SVGID_1_);}
	.st6{fill:#FED150;}
	.st7{fill:none;stroke:#CC7915;stroke-width:2;stroke-miterlimit:10;}
	.st8{fill:#F6B735;}
	.st9{fill:#FDFFF3;}
	.st10{fill:#F7DC83;}
	.st11{fill:#F3A43D;}
	.st12{fill:#B88325;}
	.st13{fill:url(#SVGID_00000144340198962076935900000003555447403733669304_);}
	.st14{fill:#F7F7FC;}
	.st15{fill:url(#SVGID_00000090273735461352014700000017794725621743427769_);}
	.st16{fill:url(#SVGID_00000011722109978731215940000001473894090922908308_);}
	.st17{fill:url(#SVGID_00000026144331647349476030000008011142378380498592_);}
	.st18{fill:url(#SVGID_00000163071216558374413790000002334611811415840955_);}
	.st19{fill:url(#SVGID_00000095313228192371658490000009508544523011455107_);}
	.st20{fill:url(#SVGID_00000090273112589517702350000015146653257969745042_);}
	.st21{fill:#A1CA6E;}
	.st22{fill:none;stroke:#375B1E;stroke-width:3;stroke-linecap:round;stroke-linejoin:round;}
	.st23{fill:#C8DD98;}
	.st24{opacity:0.5;enable-background:new    ;}
	.st25{fill:none;stroke:#C16952;stroke-width:2;stroke-linecap:round;stroke-linejoin:round;stroke-dasharray:7,7,7,7,7,7;}
	.st26{fill:none;stroke:#FCF6A8;stroke-width:2;stroke-linecap:round;stroke-linejoin:round;}
	.st27{fill:none;stroke:#FCF6A8;stroke-linecap:round;stroke-linejoin:round;}
	.st28{fill:#FCF6A8;}
	.st29{fill:#8E563F;}
	.st30{fill:#7C4936;}
	.st31{fill:#593223;}
	.st32{opacity:0.64;}
	.st33{fill:#3D88CC;}
	.st34{fill:#3D88CC;stroke:#2A6EA0;stroke-width:2;stroke-miterlimit:10;}
	.st35{fill:#5DE5FD;stroke:#29C6D6;stroke-width:2;stroke-miterlimit:10;}
	.st36{fill:#3D9BFD;}
	.st37{fill:#2E6AA9;stroke:#1F5484;stroke-width:2;stroke-miterlimit:10;}
	.st38{fill:#2E6AA9;}
	.st39{fill:#5CA5F2;}
	.st40{fill:#5CA5F2;stroke:#3D8CD3;stroke-width:2;stroke-miterlimit:10;}
	.st41{fill:#793703;}
	.st42{fill:#E5780F;}
	.st43{fill:#E07819;}
	.st44{fill:#F88319;}
	.st45{fill:#E4771A;}
	.st46{fill:#E3771C;}
	.st47{fill:#F78419;}
	.st48{fill:#FA7F22;}
	.st49{fill:#CD6504;}
	.st50{fill:#D06201;}
	.st51{fill:#F3840E;}
	.st52{fill:#E3771D;}
	.st53{fill:#F78417;}
	.st54{fill:#E27226;}
	.st55{fill:#E7761A;}
	.st56{fill:#CC6307;}
	.st57{fill:#E67819;}
	.st58{fill:#010300;}
	.st59{fill:#E3C263;}
	.st60{fill:#D7C1B3;}
	.st61{fill:#262835;}
	.st62{fill:#3E2B27;}
	.st63{fill:none;stroke:#8E4A1B;stroke-width:2;stroke-miterlimit:10;}
</style>
<g>
	<g id="billetera_debajo_a">
		<path class="st0" d="M452.8,264c0,0-34.5,11.3-43.2,20.2c-2.5,2.5-5.1,7.5-7.5,13.2c-57.5,30.5-114.4,55.2-171.3,88.8
			c-2,1-6,0-9-2c-23-22-42-46-64-69c-29.1-30-52.5-63.8-85.7-89.5l0,0c-1.5-1.9-3.1-3.7-4.9-5.5c-7.6,4.2-9.7,7.5-9.7,20.8
			c0,3.3,4.2,16.4,9,18.5c0,0.6,0.1,1.2,0.1,1.8c26.3,43,102,131.6,121.7,145.6c29.9,21.3,33.4,14.6,55.8,6.5
			c43.5-15.8,68.3-39.2,68.3-39.2s7.6,0,19.8-4.8s30.4-16.3,40.5-22.1s8.9-9.9,15.8-13.2s22.6-9.2,22.6-9.2l0.3-2.4
			c25.1-11.8,63.7-30.6,64-34.5C475.8,282.4,452.8,264,452.8,264z"/>
		<path class="st1" d="M64.8,240l-3.8,2.3c0,0,137.5,169.1,153,170.5c11.5,1.1,45.8-19.1,45.8-19.1l-31.9,9.1
			C209.3,410.1,76.8,256.4,64.8,240z"/>
		<path class="st2" d="M64.8,240c0,0,141,162.6,152.1,165.9c11.6,3.5,41.2-15.3,47.4-17.9l17.3-10c0,0,183.8-89.1,183.4-93.1
			S446.4,265,446.4,265"/>
		<path class="st3" d="M61.8,222c-4.1,2.9-4.4,21.3-4.4,21.3c0.3,2.4,1.3,4.6,2.8,6.5c0,0,61,93,111.2,141.7
			c22.6,22,40.4,32.4,50.6,29.7c7.3-1.8,14.5-4.2,21.5-7.1l42.5-20.7c10.8-5.6,20.5-15.9,23.7-17.6c10.1-5.5,7.7-0.8,28.9-8.2
			s38-22,40.3-26.3s14.5-9.5,19.9-11.9"/>
		<path class="st1" d="M73.6,238.2c0,0-4.9-6.9-6,4.1l-5.2-3.1c0,0,1.7-15.3,4.4-15.6s5.3,1.8,5.3,1.8L73.6,238.2z"/>
		<path class="st2" d="M68.9,222.7c-3.3-0.3-4.7,5.5-6.6,17.2c-0.6,2.7,0,5.6,1.6,7.8"/>
		<path class="st2" d="M409.6,284.2c8.7-8.9,43.2-20.2,43.2-20.2s23,18.4,22.6,24.1s-85,44.3-85,44.3"/>
	</g>
	<g id="monedas">
		<polygon class="st4" points="409.3,287.6 477.7,287.6 477.7,297 409.5,297.4 		"/>
		<path class="st4" d="M419.3,308.9c13.3,7.7,35,7.6,48.3-0.1s13.5-16.4,0.1-24.1s-35-7.6-48.3,0.1S406,301.2,419.3,308.9z"/>
		
			<linearGradient id="SVGID_1_" gradientUnits="userSpaceOnUse" x1="-601.8752" y1="129.2719" x2="-533.5361" y2="129.2719" gradientTransform="matrix(-1 0 0 -1 -124.17 416.04)">
			<stop  offset="0" style="stop-color:#FDEAA6"/>
			<stop  offset="1" style="stop-color:#FAD445"/>
		</linearGradient>
		<path class="st5" d="M419.3,300.8c13.3,7.7,35,7.6,48.3-0.1s13.5-20.2,0.1-27.9s-35-7.6-48.3,0.1S406,293.1,419.3,300.8z"/>
		<path class="st6" d="M413.1,304.5v-8.6c2.5,2.7,5.6,4.9,9.1,6.4v8.1C418.8,309,415.7,307,413.1,304.5z"/>
		<path class="st6" d="M430.4,313.3v-7.9c3,0.7,6.1,1.1,9.2,1.2v8.1C436.6,314.3,433.5,313.9,430.4,313.3z"/>
		<polygon class="st6" points="425.1,303.6 425.1,311.6 427,312.2 427,304.1 		"/>
		<path class="st7" d="M477.7,285.7c-0.4-4.7-3.7-9.3-9.9-12.9c-13.3-7.7-35-7.6-48.3,0.1c-6.5,3.7-9.8,8.6-10.1,13.4v11.6
			c0,0,2.2,14.9,31.4,16.6h7.1c0,0,8.1-0.1,18.5-5.1s11-12,11-12L477.7,285.7z"/>
		<path class="st4" d="M413.3,288.9c0.7,3.8,3.6,7.5,8.6,10.4c11.9,6.8,31.1,6.8,43-0.1c5.1-3,8-6.7,8.8-10.5
			c1-5.1-1.9-10.4-8.6-14.3c-11.9-6.8-31.1-6.8-43,0.1C415.3,278.3,412.3,283.7,413.3,288.9z"/>
		<path class="st8" d="M413.3,288.9c0.7,3.8,3.6,7.5,8.6,10.4c11.9,6.8,31.1,6.8,43-0.1c5.1-3,8-6.7,8.8-10.5
			c-0.7-3.8-3.6-7.5-8.6-10.4c-11.9-6.8-31.1-6.8-43,0.1C417,281.3,414.1,285,413.3,288.9z"/>
		<path class="st9" d="M419.1,300.8c7.2,4.5,15.8,6.1,24.2,6.2c8.4-0.1,17-1.8,24.2-6.2c-3.7,1.9-7.7,3.3-11.8,4.1
			c-4.1,0.9-8.2,1.3-12.4,1.3c-4.2,0-8.3-0.4-12.4-1.2C426.8,304,422.8,302.7,419.1,300.8z"/>
		<path class="st10" d="M414.6,292.3l44.2,9.7l4.2-1.8l-49.7-11.4C413.6,290.1,414,291.2,414.6,292.3z"/>
		<path class="st10" d="M417.1,282c0,0,4.5-3.8,7.4-4.9l49.3,11.2c-0.1,2.1-1,4.1-2.6,5.6L417.1,282z"/>
		<path class="st11" d="M420.4,298.2l30.9,5.6C451.3,303.8,432.5,306.8,420.4,298.2z"/>
		<path class="st11" d="M431.1,274.7l41.2,10.2c-0.8-1.2-1.7-2.4-2.8-3.4c-4.4-4.2-14.5-10.4-33.5-7.8
			C434.5,273.9,432.8,274.3,431.1,274.7z"/>
		<path class="st4" d="M459.7,295.7l-3.2-1.8l-1.8,1.1l3.2,0.2v1.7l-3.1,1.8l-3.2-1.8l-2.5,1.5l-23.6-13.6v-1.7l2.5,0.2l-3.3-1.9
			v-1.7l3.1-0.1l3.3,1.9l1.8-1.1l-3.3-1.9v-1.7l3.1-0.1l3.5,2c3.1-1.5,6.7-1.3,9.6,0.5l0.8,0.5c2.4,1.4,3.1,2.8,1.9,4.4
			c2.8-0.9,5.8-0.5,8.3,1l1.9,1.1c1.7,1,2.5,2,2.5,3.1s-0.6,1.9-1.9,2.9l3.3,0.2v1.7L459.7,295.7z M450,293.7l4.3-2.5
			c1.5-0.9,1.7-1.6,0-2.7l-2.1-1.2c-1.7-1.2-4-1.2-5.7,0l-3.8,2.2L450,293.7L450,293.7z M439.4,287.6l3.5-2.1c1.6-1,2-1.9,0.1-3
			l-1.3-0.7c-1.4-1-3.2-1-4.7-0.1l-3.9,2.3L439.4,287.6L439.4,287.6z"/>
		<rect x="460" y="287.4" class="st12" width="1.3" height="1.7"/>
		<rect x="447.9" y="280.9" class="st12" width="1.3" height="1.7"/>
		
			<linearGradient id="SVGID_00000095332993781623231730000006018573267489571501_" gradientUnits="userSpaceOnUse" x1="462.99" y1="129.37" x2="503.3" y2="129.37" gradientTransform="matrix(1 0 0 -1 -40.55 416.04)">
			<stop  offset="0" style="stop-color:#FDEAA6"/>
			<stop  offset="1" style="stop-color:#FAD445"/>
		</linearGradient>
		<path style="fill:url(#SVGID_00000095332993781623231730000006018573267489571501_);" d="M459.7,294l3.1-1.8l-3.3-1.9
			c1.2-1,1.9-2,1.9-2.9c0-1.1-0.8-2.1-2.5-3.1l-1.9-1c-2.5-1.5-5.5-1.9-8.3-1c1.2-1.6,0.5-3-1.9-4.4l-0.8-0.5
			c-2.9-1.8-6.5-2-9.6-0.5l-3.5-2l-3.1,1.8l3.3,1.9l-1.8,1.1l-3.3-1.9l-3.1,1.8l3.3,1.9l-2.5,1.5l2.4,1.4l-5.4,3.2l4,2.4l5.5-3.3
			l9.9,5.7l-5.9,3.5l4,2.4l6-3.6l3.1,1.8l2.5-1.5l3.2,1.8l3.1-1.8l-3.1-1.8l1.8-1.1L459.7,294z M433.2,282.3l3.9-2.3
			c1.4-0.9,3.3-0.9,4.7,0.1l1.3,0.8c1.9,1.1,1.5,2-0.1,3l-3.5,2.1L433.2,282.3z M454.4,289.5L450,292l-7.3-4.1l3.8-2.2
			c1.7-1.2,4-1.2,5.7,0l2,1.2C456.1,287.9,455.9,288.7,454.4,289.5L454.4,289.5z"/>
		<polygon class="st4" points="422.4,287.5 422.4,289.4 426.4,291.8 432.2,288.4 432,286.7 426.5,290 		"/>
		<polygon class="st4" points="435.9,295.9 435.9,297.8 440,300.2 446.3,296.4 445.4,295.1 439.9,298.3 		"/>
		<polygon class="st14" points="427.8,277.8 424.7,279.6 428.1,279.1 431.1,279.7 		"/>
		<polygon class="st14" points="429.6,276.7 432.8,276 436.2,276.9 432.7,274.9 		"/>
		<path class="st14" d="M448.6,282.3c1.2-0.4,2.5-0.6,3.7-0.5c2,0.2,3.7,0.8,7.8,3.4c-2.2-0.9-4.4-1.7-6.6-2.3
			C451.8,282.5,450.2,282.3,448.6,282.3z"/>
		<path class="st14" d="M436.2,276.9c1.6-0.7,3.3-1,5-1c2.6,0.2,5,1.2,6.9,3c-1.7-0.9-3.5-1.6-5.4-1.8
			C440.5,276.7,438.3,276.7,436.2,276.9z"/>
		<polygon class="st4" points="364.6,305.4 433,305.4 433,314.8 364.8,315.2 		"/>
		<path class="st4" d="M374.6,326.7c13.3,7.7,34.9,7.6,48.3-0.1s13.5-16.4,0.2-24.1s-35-7.6-48.3,0.1S361.3,319,374.6,326.7z"/>
		
			<linearGradient id="SVGID_00000032649872189306876620000012531418013096655262_" gradientUnits="userSpaceOnUse" x1="-557.1889" y1="111.4669" x2="-488.8323" y2="111.4669" gradientTransform="matrix(-1 0 0 -1 -124.17 416.04)">
			<stop  offset="0" style="stop-color:#FDEAA6"/>
			<stop  offset="1" style="stop-color:#FAD445"/>
		</linearGradient>
		<path style="fill:url(#SVGID_00000032649872189306876620000012531418013096655262_);" d="M374.6,318.6c13.3,7.7,34.9,7.6,48.3-0.1
			s13.5-20.2,0.2-27.9s-35-7.6-48.3,0.1S361.3,310.9,374.6,318.6z"/>
		<path class="st6" d="M368.4,322.3v-8.6c2.5,2.7,5.6,4.9,9.1,6.4v8.1C374.1,326.8,371,324.8,368.4,322.3z"/>
		<path class="st6" d="M385.8,331.1v-7.9c3,0.7,6.1,1.1,9.2,1.2v8.1C391.9,332.2,388.8,331.7,385.8,331.1z"/>
		<polygon class="st6" points="380.4,321.4 380.4,329.4 382.3,330.1 382.3,321.9 		"/>
		<path class="st7" d="M433,303.5c-0.4-4.7-3.7-9.3-9.9-12.9c-13.3-7.7-35-7.6-48.3,0.1c-6.5,3.7-9.8,8.6-10.1,13.4v11.6
			c0,0,2.2,14.9,31.4,16.6h7.1c0,0,8.1-0.1,18.5-5.2s11-12,11-12L433,303.5z"/>
		<path class="st4" d="M368.6,306.7c0.7,3.8,3.6,7.5,8.6,10.4c11.8,6.8,31.1,6.8,43-0.1c5.1-3,8-6.7,8.8-10.5
			c1-5.1-1.9-10.4-8.6-14.3c-11.9-6.8-31.1-6.8-43,0.1C370.6,296.2,367.6,301.5,368.6,306.7z"/>
		<path class="st8" d="M368.6,306.7c0.7,3.8,3.6,7.5,8.6,10.4c11.8,6.8,31.1,6.8,43-0.1c5.1-3,8-6.7,8.8-10.5
			c-0.7-3.8-3.6-7.5-8.6-10.3c-11.9-6.9-31.1-6.8-43,0.1C372.3,299.1,369.4,302.8,368.6,306.7z"/>
		<path class="st9" d="M374.4,318.6c7.2,4.4,15.8,6.1,24.2,6.2c8.4-0.1,17-1.8,24.1-6.2c-3.7,1.9-7.7,3.3-11.8,4.1
			c-4.1,0.9-8.2,1.3-12.4,1.3c-4.2,0-8.3-0.4-12.4-1.2C382,321.8,378.1,320.5,374.4,318.6z"/>
		<path class="st10" d="M369.9,310.1l44.2,9.7l4.2-1.8l-49.7-11.4C368.9,307.9,369.3,309.1,369.9,310.1z"/>
		<path class="st10" d="M372.4,299.8c0,0,4.6-3.7,7.4-4.9l49.3,11.2c-0.1,2.1-1,4.1-2.6,5.6L372.4,299.8z"/>
		<path class="st11" d="M375.7,316l30.9,5.6C406.6,321.6,387.8,324.6,375.7,316z"/>
		<path class="st11" d="M386.4,292.5l41.2,10.2c-0.8-1.2-1.7-2.4-2.8-3.3c-4.4-4.2-14.5-10.4-33.5-7.8
			C389.8,291.7,388.1,292.1,386.4,292.5z"/>
		<path class="st4" d="M415,313.5l-3.2-1.8l-1.8,1.1l3.2,0.2v1.7l-3.1,1.8l-3.2-1.8l-2.5,1.5l-23.6-13.6v-1.7l2.5,0.2l-3.3-1.9v-1.7
			l3.1-0.1l3.3,1.9l1.8-1.1l-3.3-1.9v-1.7l3.1-0.1l3.4,2c3.1-1.5,6.7-1.3,9.6,0.5l0.8,0.5c2.4,1.4,3.1,2.8,1.9,4.4
			c2.8-0.9,5.8-0.5,8.3,1l1.9,1.1c1.6,1,2.5,2,2.5,3.1c0,0.9-0.6,1.9-1.9,2.9l3.3,0.2v1.7L415,313.5z M405.3,311.5l4.4-2.5
			c1.5-0.9,1.7-1.6,0-2.7l-2.1-1.2c-1.7-1.2-4-1.2-5.7,0l-3.8,2.2L405.3,311.5L405.3,311.5z M394.8,305.4l3.5-2.1c1.6-1,2-1.9,0.1-3
			l-1.3-0.8c-1.4-1-3.2-1-4.7-0.1l-4,2.3L394.8,305.4L394.8,305.4z"/>
		<rect x="415.3" y="305.3" class="st12" width="1.3" height="1.7"/>
		<rect x="403.2" y="298.7" class="st12" width="1.3" height="1.7"/>
		
			<linearGradient id="SVGID_00000016797479785145958900000014893096575507870354_" gradientUnits="userSpaceOnUse" x1="418.32" y1="111.62" x2="458.6" y2="111.62" gradientTransform="matrix(1 0 0 -1 -40.55 416.04)">
			<stop  offset="0" style="stop-color:#FDEAA6"/>
			<stop  offset="1" style="stop-color:#FAD445"/>
		</linearGradient>
		<path style="fill:url(#SVGID_00000016797479785145958900000014893096575507870354_);" d="M415,311.9l3.1-1.8l-3.3-1.9
			c1.2-1,1.9-2,1.9-2.9s-0.8-2.1-2.5-3.1l-1.9-1.1c-2.5-1.5-5.5-1.9-8.3-1c1.2-1.6,0.5-3-1.9-4.4l-0.8-0.5c-2.9-1.8-6.6-1.9-9.6-0.5
			l-3.4-2l-3.1,1.8l3.3,1.9l-1.8,1.1l-3.3-1.9l-3.1,1.8l3.3,1.9l-2.5,1.5l2.4,1.4l-5.4,3.2l4,2.4l5.4-3.3l9.9,5.7l-5.9,3.5l4,2.4
			l6-3.6l3.1,1.8l2.5-1.5l3.2,1.8l3.1-1.8l-3.2-1.8l1.9-1L415,311.9z M388.5,300.1l4-2.3c1.4-0.9,3.3-0.9,4.7,0.1l1.3,0.8
			c1.9,1.1,1.5,2-0.1,3l-3.5,2L388.5,300.1z M409.7,307.3l-4.4,2.5l-7.2-4.2l3.8-2.2c1.7-1.2,4-1.2,5.7,0l2.1,1.2
			C411.4,305.7,411.1,306.5,409.7,307.3z"/>
		<polygon class="st4" points="377.7,305.3 377.7,307.2 381.7,309.6 387.5,306.3 387.2,304.5 381.8,307.8 		"/>
		<polygon class="st4" points="391.1,313.7 391.1,315.6 395.3,318 401.6,314.2 400.7,312.9 395.2,316.1 		"/>
		<polygon class="st14" points="383.1,295.6 380,297.4 383.4,296.9 386.4,297.5 		"/>
		<polygon class="st14" points="384.9,294.5 388.1,293.8 391.5,294.7 388,292.7 		"/>
		<path class="st14" d="M403.9,300.1c1.2-0.4,2.5-0.6,3.8-0.5c2,0.2,3.7,0.8,7.7,3.4c-2.2-0.9-4.4-1.7-6.6-2.3
			C407.1,300.3,405.5,300.1,403.9,300.1z"/>
		<path class="st14" d="M391.5,294.7c1.6-0.7,3.3-1,5-1c2.6,0.2,5,1.3,6.9,3c-1.7-1-3.5-1.6-5.4-1.8
			C395.8,294.6,393.6,294.5,391.5,294.7z"/>
		<polygon class="st4" points="243.4,365.5 319.8,365.5 319.8,376 243.6,376.5 		"/>
		<path class="st4" d="M254.5,389.3c14.9,8.6,39,8.5,54-0.1s15-18.3,0.2-26.9s-39-8.5-54,0.1C239.8,371.1,239.7,380.7,254.5,389.3z"
			/>
		
			<linearGradient id="SVGID_00000085222139803926948040000012962998265002527668_" gradientUnits="userSpaceOnUse" x1="-443.9027" y1="51.4456" x2="-367.6098" y2="51.4456" gradientTransform="matrix(-1 0 0 -1 -124.17 416.04)">
			<stop  offset="0" style="stop-color:#FDEAA6"/>
			<stop  offset="1" style="stop-color:#FAD445"/>
		</linearGradient>
		<path style="fill:url(#SVGID_00000085222139803926948040000012962998265002527668_);" d="M254.5,380.2c14.9,8.6,39,8.5,54-0.1
			s15-22.6,0.2-31.1s-39-8.5-54,0.1C239.8,357.7,239.7,371.6,254.5,380.2z"/>
		<path class="st6" d="M247.6,384.3v-9.6c2.8,3.1,6.3,5.5,10.1,7.2v9.1C254,389.4,250.6,387.1,247.6,384.3z"/>
		<path class="st6" d="M267,394.1v-8.8c3.4,0.8,6.8,1.2,10.3,1.3v9C273.8,395.4,270.4,394.9,267,394.1z"/>
		<polygon class="st6" points="261,383.3 261,392.3 263.1,393 263.1,383.9 		"/>
		<path class="st7" d="M319.7,363.4c-0.5-5.2-4.1-10.4-11-14.4c-14.9-8.6-39-8.5-54,0.1c-7.2,4.2-11,9.6-11.2,15v13
			c0,0,2.4,16.6,35,18.6h8c0,0,9.1-0.1,20.6-5.8s12.3-13.4,12.3-13.4L319.7,363.4z"/>
		<path class="st4" d="M247.9,366.9c0.8,4.2,4,8.3,9.6,11.6c13.2,7.6,34.7,7.6,48-0.1c5.7-3.3,9-7.5,9.8-11.7
			c1.1-5.7-2.1-11.6-9.6-16c-13.2-7.6-34.7-7.6-48,0.1C250,355.2,246.8,361.2,247.9,366.9z"/>
		<path class="st8" d="M247.9,366.9c0.8,4.2,4,8.3,9.6,11.6c13.2,7.6,34.7,7.6,48-0.1c5.7-3.3,9-7.5,9.8-11.7
			c-0.8-4.2-4-8.3-9.6-11.5c-13.2-7.6-34.7-7.6-48,0.1C252,358.5,248.7,362.7,247.9,366.9z"/>
		<path class="st9" d="M254.3,380.2c8,5,17.6,6.8,27,6.9c9.4-0.1,19-2,27-7c-4.2,2.1-8.6,3.7-13.1,4.6c-9.1,1.9-18.5,1.9-27.6,0.1
			C262.9,383.9,258.4,382.3,254.3,380.2z"/>
		<path class="st10" d="M249.2,370.8l49.4,10.8l4.7-2l-55.4-12.7C248.1,368.3,248.6,369.6,249.2,370.8z"/>
		<path class="st10" d="M252,359.2c0,0,5.1-4.2,8.3-5.4l55,12.5c-0.1,2.4-1.2,4.6-2.9,6.2L252,359.2z"/>
		<path class="st11" d="M255.8,377.3l34.5,6.2C290.2,383.5,269.3,387,255.8,377.3z"/>
		<path class="st11" d="M267.8,351.1l46,11.4c-0.8-1.4-1.9-2.7-3.1-3.7c-4.9-4.6-16.2-11.6-37.4-8.7
			C271.5,350.3,269.6,350.7,267.8,351.1z"/>
		<path class="st4" d="M299.6,374.6l-3.5-2l-2,1.2l3.5,0.2v1.9l-3.5,2l-3.5-2l-2.8,1.5l-26.3-15.2v-1.8l2.8,0.2l-3.7-2.1v-1.9
			l3.5-0.1l3.7,2.1l2.1-1.2l-3.7-2.1v-1.9l3.5-0.1l3.9,2.2c3.5-1.6,7.5-1.4,10.8,0.5l0.9,0.5c2.7,1.6,3.5,3.1,2.1,4.9
			c3.1-1,6.5-0.6,9.3,1.1l2.1,1.2c1.9,1.1,2.8,2.2,2.8,3.4c0,1-0.7,2.1-2.1,3.2l3.7,0.3v1.9L299.6,374.6z M288.8,372.3l4.9-2.8
			c1.6-1,1.9-1.8,0-3l-2.3-1.3c-1.9-1.4-4.4-1.4-6.4,0l-4.3,2.5L288.8,372.3L288.8,372.3z M277,365.5l4-2.3c1.8-1.1,2.3-2.1,0.2-3.3
			l-1.5-0.9c-1.6-1.1-3.6-1.1-5.2-0.1l-4.4,2.6L277,365.5L277,365.5z"/>
		<rect x="300" y="365.3" class="st12" width="1.4" height="1.9"/>
		<rect x="286.4" y="358" class="st12" width="1.4" height="1.9"/>
		
			<linearGradient id="SVGID_00000110437956340497423060000015490221946677301429_" gradientUnits="userSpaceOnUse" x1="298.59" y1="51.615" x2="343.57" y2="51.615" gradientTransform="matrix(1 0 0 -1 -40.55 416.04)">
			<stop  offset="0" style="stop-color:#FDEAA6"/>
			<stop  offset="1" style="stop-color:#FAD445"/>
		</linearGradient>
		<path style="fill:url(#SVGID_00000110437956340497423060000015490221946677301429_);" d="M299.6,372.7l3.5-2l-3.7-2.1
			c1.4-1.1,2.1-2.2,2.1-3.2c0-1.2-0.9-2.4-2.8-3.4l-2.1-1.2c-2.8-1.7-6.2-2.1-9.3-1.1c1.3-1.8,0.6-3.3-2.1-4.9l-0.9-0.5
			c-3.3-2-7.3-2.2-10.8-0.5l-3.8-2.3l-3.5,2l3.7,2.1l-2.1,1.2l-3.7-2.1l-3.5,2l3.7,2.1l-2.8,1.7l2.6,1.5l-6,3.6l4.5,2.7l6.1-3.7
			l11,6.4l-6.6,4l4.5,2.7l6.7-4l3.5,2l2.8-1.6l3.5,2l3.5-2l-3.5-2l2-1.2L299.6,372.7z M270,359.6l4.4-2.6c1.6-1,3.6-1,5.2,0.1
			l1.5,0.9c2.1,1.2,1.7,2.2-0.2,3.3l-4,2.3L270,359.6z M293.7,367.6l-4.9,2.8l-8.1-4.6l4.2-2.5c1.9-1.4,4.4-1.4,6.4,0l2.3,1.3
			C295.6,365.8,295.3,366.7,293.7,367.6L293.7,367.6z"/>
		<polygon class="st4" points="258,365.5 258,367.5 262.5,370.2 268.9,366.5 268.7,364.5 262.5,368.1 		"/>
		<polygon class="st4" points="273,374.8 273,376.9 277.6,379.6 284.7,375.4 283.6,373.8 277.5,377.5 		"/>
		<polygon class="st14" points="264,354.6 260.5,356.6 264.3,356 267.7,356.7 		"/>
		<polygon class="st14" points="266,353.4 269.6,352.6 273.4,353.6 269.5,351.4 		"/>
		<path class="st14" d="M287.2,359.6c1.3-0.5,2.8-0.7,4.2-0.6c2.2,0.2,4.1,0.9,8.6,3.8c-2.4-1-4.9-1.9-7.4-2.5
			C290.8,359.8,289,359.6,287.2,359.6z"/>
		<path class="st14" d="M273.4,353.6c1.8-0.8,3.7-1.2,5.6-1.1c2.9,0.2,5.6,1.4,7.7,3.3c-1.9-1.1-3.9-1.7-6.1-2
			C278.2,353.4,275.8,353.3,273.4,353.6z"/>
		<polygon class="st4" points="229.8,391.1 306.1,391.1 306.1,401.6 230,402.1 		"/>
		<path class="st4" d="M240.9,414.9c14.9,8.6,39,8.5,54-0.1s15-18.3,0.2-26.9s-39-8.5-54,0.1C226.2,396.7,226.1,406.3,240.9,414.9z"
			/>
		
			<linearGradient id="SVGID_00000110430195194025799440000016483237699787552918_" gradientUnits="userSpaceOnUse" x1="-430.3613" y1="25.7919" x2="-354.0246" y2="25.7919" gradientTransform="matrix(-1 0 0 -1 -124.17 416.04)">
			<stop  offset="0" style="stop-color:#FDEAA6"/>
			<stop  offset="1" style="stop-color:#FAD445"/>
		</linearGradient>
		<path style="fill:url(#SVGID_00000110430195194025799440000016483237699787552918_);" d="M240.9,405.9c14.9,8.6,39,8.5,54-0.1
			s15-22.6,0.2-31.1s-39-8.5-54,0.1C226.2,383.4,226.1,397.3,240.9,405.9z"/>
		<path class="st6" d="M234,410v-9.6c2.8,3.1,6.3,5.5,10.1,7.1v9.1C240.4,415,237,412.8,234,410z"/>
		<path class="st6" d="M253.3,419.8V411c3.4,0.8,6.8,1.3,10.3,1.4v9C260.2,421.1,256.8,420.5,253.3,419.8z"/>
		<polygon class="st6" points="247.4,409 247.4,418 249.5,418.7 249.5,409.6 		"/>
		<path class="st7" d="M306.1,389c-0.5-5.2-4.1-10.4-11-14.4c-14.9-8.6-39-8.5-54,0.1c-7.2,4.2-10.9,9.5-11.2,15v13
			c0,0,2.4,16.6,35,18.6h8c0,0,9-0.1,20.6-5.8s12.2-13.4,12.2-13.4L306.1,389z"/>
		<path class="st4" d="M234.3,392.6c0.8,4.2,4,8.3,9.6,11.6c13.2,7.6,34.7,7.6,48-0.1c5.7-3.3,9-7.5,9.8-11.7
			c1.1-5.7-2.1-11.6-9.6-16c-13.2-7.6-34.7-7.6-48,0.1C236.4,380.8,233.1,386.8,234.3,392.6z"/>
		<path class="st8" d="M234.3,392.6c0.8,4.2,4,8.3,9.6,11.6c13.2,7.6,34.7,7.6,48-0.1c5.7-3.3,9-7.5,9.8-11.7
			c-0.8-4.2-4-8.3-9.6-11.5c-13.2-7.6-34.7-7.6-48,0.1C238.4,384.2,235.1,388.3,234.3,392.6z"/>
		<path class="st9" d="M240.7,405.9c8,5,17.6,6.8,27,6.9c9.4-0.1,19-2,27-7c-4.2,2.1-8.6,3.7-13.1,4.6c-9.1,1.9-18.5,1.9-27.7,0.1
			C249.3,409.5,244.8,408,240.7,405.9z"/>
		<path class="st10" d="M235.6,396.5l49.4,10.9l4.7-2l-55.4-12.7C234.5,394,235,395.3,235.6,396.5z"/>
		<path class="st10" d="M238.4,384.9c0,0,5.1-4.2,8.3-5.4l55,12.5c-0.1,2.4-1.2,4.6-2.9,6.2L238.4,384.9z"/>
		<path class="st11" d="M242.2,403l34.5,6.2C276.6,409.2,255.7,412.6,242.2,403z"/>
		<path class="st11" d="M254.1,376.8l46,11.4c-0.8-1.4-1.9-2.7-3.1-3.7c-4.9-4.6-16.2-11.6-37.4-8.7
			C257.9,375.9,256,376.4,254.1,376.8z"/>
		<path class="st4" d="M286,400.2l-3.6-2.1l-2,1.2l3.6,0.2v1.9l-3.5,2l-3.6-2l-2.8,1.6l-26.3-15.2V386l2.8,0.2l-3.7-2.1v-1.9
			l3.5-0.1l3.7,2.1l2-1.2l-3.7-2.1V379l3.5-0.1l3.9,2.2c3.4-1.6,7.5-1.4,10.8,0.5l0.9,0.5c2.7,1.6,3.5,3.1,2.1,4.9
			c3.1-1,6.5-0.6,9.3,1.1l2.1,1.2c1.8,1.1,2.8,2.2,2.8,3.4c0,1-0.7,2.1-2.1,3.2l3.7,0.3v1.9L286,400.2z M275.2,398l4.8-2.8
			c1.6-1,1.9-1.8,0-3l-2.2-1.3c-1.9-1.4-4.4-1.4-6.4,0l-4.3,2.4L275.2,398L275.2,398z M263.4,391.2l4-2.3c1.8-1.1,2.3-2.1,0.2-3.3
			l-1.5-0.9c-1.6-1.1-3.6-1.1-5.2-0.1l-4.4,2.5L263.4,391.2L263.4,391.2z"/>
		<rect x="286.4" y="391" class="st12" width="1.4" height="1.9"/>
		<rect x="272.8" y="383.7" class="st12" width="1.4" height="1.9"/>
		
			<linearGradient id="SVGID_00000175320054001854564520000006491000652353970363_" gradientUnits="userSpaceOnUse" x1="284.97" y1="25.95" x2="329.97" y2="25.95" gradientTransform="matrix(1 0 0 -1 -40.55 416.04)">
			<stop  offset="0" style="stop-color:#FDEAA6"/>
			<stop  offset="1" style="stop-color:#FAD445"/>
		</linearGradient>
		<path style="fill:url(#SVGID_00000175320054001854564520000006491000652353970363_);" d="M286,398.4l3.5-2l-3.7-2.1
			c1.4-1.1,2.1-2.2,2.1-3.2c0-1.2-0.9-2.4-2.8-3.4l-2.1-1.3c-2.8-1.7-6.2-2.1-9.3-1.1c1.3-1.8,0.6-3.3-2.1-4.9l-0.9-0.5
			c-3.3-2-7.3-2.2-10.8-0.5l-3.9-2.2l-3.5,2l3.7,2.1l-2,1.2l-3.7-2.1l-3.5,2l3.7,2.1l-2.9,1.7l2.6,1.5l-6,3.6l4.5,2.7l6.1-3.7
			l11,6.4l-6.6,4l4.5,2.7l6.7-4l3.5,2l2.8-1.6l3.6,2l3.5-2l-3.6-2.1l2-1.2L286,398.4z M256.4,385.3l4.4-2.6c1.6-1,3.6-1,5.2,0.1
			l1.5,0.8c2.1,1.2,1.7,2.3-0.2,3.3l-4,2.3L256.4,385.3z M280.1,393.3l-4.8,2.8l-8.1-4.7l4.2-2.5c1.9-1.4,4.4-1.4,6.4,0l2.3,1.3
			C282,391.5,281.7,392.4,280.1,393.3z"/>
		<polygon class="st4" points="244.4,391.1 244.4,393.2 248.9,395.8 255.3,392.1 255,390.1 248.9,393.8 		"/>
		<polygon class="st4" points="259.4,400.5 259.4,402.5 264,405.3 271,401 270,399.5 263.9,403.2 		"/>
		<polygon class="st14" points="250.4,380.2 246.9,382.2 250.7,381.7 254.1,382.3 		"/>
		<polygon class="st14" points="252.4,379 256,378.2 259.7,379.2 255.9,377 		"/>
		<path class="st14" d="M273.6,385.2c1.3-0.5,2.8-0.7,4.2-0.6c2.2,0.2,4.1,0.9,8.6,3.8c-2.4-1-4.9-1.9-7.4-2.5
			C277.2,385.5,275.4,385.3,273.6,385.2z"/>
		<path class="st14" d="M259.8,379.2c1.8-0.8,3.7-1.2,5.6-1.1c2.9,0.2,5.6,1.4,7.7,3.3c-1.9-1.1-3.9-1.7-6.1-2
			C264.6,379,262.2,379,259.8,379.2z"/>
	</g>
	<g id="billete2">
		<path class="st21" d="M59,277.7c0,0-17.6,17-24.1,34.1c0,0,26.2,9,49.3,18.6s82.2,53.2,114.5,83.4l23.3-19L88,257.1L59,277.7z"/>
		<path class="st22" d="M59,277.7c0,0-17.6,17-24.1,34.1c0,0,26.2,9,49.3,18.6s82.2,53.2,114.5,83.4l23.3-19L88,257.1L59,277.7z"/>
		<path class="st23" d="M88.4,275.9l-22.5,18.6c2.6,4.5,4,9.7,4.1,14.9c0,0,32.5,7.8,80.4,46.8s49.7,41.7,49.7,41.7
			s11.6-11.3,9.6-10.9S88.4,275.9,88.4,275.9z"/>
		<path class="st24" d="M81.3,252l-29.3,30.8c0,0,33.9,13.9,75.2,53.7s68.7,65.3,68.7,65.3l21.3-13.4L81.3,252z"/>
	</g>
	<g id="billete1">
		<path class="st21" d="M74,231.7c0,0,59.8,70.4,96.7,110.7s42.3,43.6,42.3,43.6l-15.4,9.2l-48.2-46c0,0-26.6-27.5-35.3-34.4
			s-57.3-39.6-65.8-46.4s-9.4-5.9-9.4-5.9L74,231.7z"/>
		<path class="st22" d="M72.9,231.7c-12.1,9.5-23.4,19.8-34.1,30.9c0,0,72,44.1,97.5,72.6s61.3,60,61.3,60l15.4-9.2"/>
		<path class="st23" d="M78.1,274.5c0,0,4.3-10.4-2.1-25.3l7.3-7.1l80,92l33.2,36l-4.3,2.3c0,0-15.8-16.2-40.4-39.4
			S93.9,283.7,78.1,274.5z"/>
	</g>
	<g id="billetera_arriba">
		<path class="st0" d="M457.7,249.3c-7.9-7.7-132.6-117.2-141.4-124c-8.8-6.8-7.8-8.3-25.7-1.6c-17.9,6.7-161.5,61.9-202.8,85.9
			c-9.4,5.4-16,8.3-20.6,10.8c1.7,1.7,3.3,3.6,4.8,5.5c33.3,25.7,56.7,59.5,85.8,89.5c22,23,41,47,64,69c3,2,7,3,9,2
			c66-39,132-66,199-104c3.9-2,7.9-4.8,12.3-5.9l0.7-0.7c0,0,21-8.4,21.6-11.8S465.6,257,457.7,249.3z"/>
		<path class="st0" d="M463.2,272.5l-230,123.2c-10.2,4.6-14-0.1-17-2.6L68.2,232.5l1.9-7.2c0,0,151.5,161.8,156.1,161.9
			s17.3-7.5,26.9-11.6c9.6-4.1,73.1-40.6,73.1-40.6l136.4-69.5l2.5,2.2C466.5,268.4,466.9,271.2,463.2,272.5z"/>
		<path class="st24" d="M61.7,236c0.4,4,149.6,157.3,149.6,157.4c2.4,3.5,9.9,13.7,25.4,6.5c5.5-2.6,216-111.8,226.3-119
			c1.9-1.2,2.6-3.6,1.4-5.6c0,0,0,0,0,0c0,0,5.2-3.7,3-5.1l-4.8-4.8l-61.2,30.7l-169.7,90l-8.2,2.5
			c-8.8-8.2-140.6-149.9-155.6-166.1c-0.4-0.5-1.1-0.5-1.6,0c-0.2,0.1-0.3,0.3-0.3,0.5L61.7,236z"/>
		<path class="st2" d="M64.4,229.5l3.3,3.4c44.4,44.9,140.8,149.7,147.4,157.4c7.1,8.3,9.4,10.7,34.9-4.9
			c9.4-5.8,45.5-24.1,81.3-42.7"/>
		<path class="st2" d="M371.1,321.3c28.9-14.9,57.7-30,86.9-44.4c3-1.5,6.7-3.1,8.9-5.6s-3.2-4-2.6-7.3"/>
		<path class="st2" d="M372.9,311.7c43.4-22.4,83.1-42.8,89.6-46.3c12.6-6.8-27.2-35.4-37.7-44.4s-21.3-18.9-21.3-18.9
			s-91.4-82-96.1-83.7S158.5,174.5,61.8,222c0,0,4.4-2.1,7.7,1.2c44.4,44.9,140.8,149.7,147.4,157.4c7.1,8.3,9.4,10.7,35-4.9
			c9.4-5.7,40.8-22.3,76.6-41"/>
		<polyline class="st25" points="372.6,302.8 440.2,267.8 455.8,260.8 306.1,124.8 		"/>
		<path class="st25" d="M318.7,328.6c-9.8,5-88.4,43.4-90.7,44.4c-2.5,1.1-66.3-67.6-66.3-67.6l-75.6-84.8"/>
	</g>
	<g id="circuíto_central">
		<polyline class="st26" points="116.4,229.1 176.6,200.2 169.2,193.1 		"/>
		<line class="st26" x1="157.3" y1="198.4" x2="208.5" y2="174.6"/>
		<line class="st26" x1="200" y1="167.2" x2="256.9" y2="214.9"/>
		<line class="st27" x1="222.2" y1="208.7" x2="238.8" y2="222.1"/>
		<line class="st26" x1="248.4" y1="184.3" x2="284.5" y2="216.4"/>
		<line class="st26" x1="299.4" y1="137.4" x2="275.5" y2="147.3"/>
		<polyline class="st26" points="266.9,140.7 305.3,173.8 257.9,192.7 		"/>
		
			<ellipse transform="matrix(0.1668 -0.986 0.986 0.1668 -9.3035 474.7816)" class="st26" cx="276.3" cy="242.9" rx="27.4" ry="46.9"/>
		<ellipse transform="matrix(0.1668 -0.986 0.986 0.1668 -98.2457 374.8384)" class="st28" cx="172.7" cy="245.5" rx="2" ry="2.3"/>
		
			<ellipse transform="matrix(0.1668 -0.986 0.986 0.1668 -130.5838 305.7304)" class="st28" cx="115.6" cy="230.1" rx="2" ry="2.3"/>
		<ellipse transform="matrix(0.1668 -0.986 0.986 0.1668 -64.9745 320.8275)" class="st28" cx="157.3" cy="198.9" rx="2" ry="2.3"/>
		<ellipse transform="matrix(0.1668 -0.986 0.986 0.1668 1.96 335.8026)" class="st28" cx="199.7" cy="166.7" rx="2" ry="2.3"/>
		<ellipse transform="matrix(0.1668 -0.986 0.986 0.1668 -20.7855 390.4592)" class="st28" cx="220.6" cy="207.5" rx="2" ry="3.1"/>
		
			<ellipse transform="matrix(0.1668 -0.986 0.986 0.1668 -126.7159 404.7485)" class="st28" cx="176.1" cy="277.3" rx="2" ry="3.1"/>
		<ellipse transform="matrix(0.1668 -0.986 0.986 0.1668 -112.134 443.7397)" class="st28" cx="206.5" cy="288.2" rx="2" ry="3.1"/>
		<ellipse transform="matrix(0.1668 -0.986 0.986 0.1668 25.1912 398.5112)" class="st28" cx="248.4" cy="184.4" rx="2" ry="3.1"/>
		<ellipse transform="matrix(0.1668 -0.986 0.986 0.1668 83.4871 380.2431)" class="st28" cx="266.7" cy="140.7" rx="2" ry="3.1"/>
		<ellipse transform="matrix(0.1668 -0.986 0.986 0.1668 115.0737 409.9036)" class="st28" cx="300.1" cy="136.9" rx="2" ry="3.1"/>
		<ellipse transform="matrix(0.1668 -0.986 0.986 0.1668 91.4354 459.4495)" class="st28" cx="317.6" cy="175.6" rx="2" ry="3.1"/>
		<ellipse transform="matrix(0.1668 -0.986 0.986 0.1668 77.9197 519.4079)" class="st28" cx="346.3" cy="213.6" rx="2" ry="3.1"/>
		<ellipse transform="matrix(0.1668 -0.986 0.986 0.1668 41.7822 604.0245)" class="st28" cx="378.3" cy="277.3" rx="2" ry="3.1"/>
		<ellipse transform="matrix(0.1668 -0.986 0.986 0.1668 -81.096 554.6516)" class="st28" cx="287.6" cy="325.3" rx="2" ry="3.1"/>
		<ellipse transform="matrix(0.1668 -0.986 0.986 0.1668 98.0742 601.1707)" class="st28" cx="404.7" cy="242.6" rx="2" ry="3.1"/>
		<ellipse transform="matrix(0.1668 -0.986 0.986 0.1668 47.2678 530.8045)" class="st28" cx="337.7" cy="237.4" rx="2" ry="3.1"/>
		<line class="st26" x1="142.8" y1="216.5" x2="171.5" y2="244.2"/>
		<line class="st26" x1="175.2" y1="277.3" x2="235.7" y2="251.9"/>
		<line class="st26" x1="206.5" y1="288.2" x2="188.8" y2="271.6"/>
		<polyline class="st26" points="276.5,270.6 296.4,288.5 278.5,294.7 303.1,319 287.7,325.3 		"/>
		<line class="st26" x1="289.5" y1="217.8" x2="320.6" y2="204.8"/>
		<polyline class="st26" points="378.5,277.3 394.6,271.5 306.8,192.4 328.6,184.5 318,175.8 		"/>
		<line class="st26" x1="404.7" y1="242.5" x2="375.6" y2="254.4"/>
		<line class="st26" x1="322.1" y1="243.7" x2="338.5" y2="237.4"/>
		<line class="st26" x1="310.4" y1="227.9" x2="345.6" y2="214.3"/>
		<path class="st28" d="M290.8,227.3l0.4,6.9c0,0.4-0.1,0.8-0.3,1.2c-0.2,0.4-0.6,0.7-0.9,1c-0.5,0.3-0.9,0.5-1.5,0.6
			c-0.6,0.1-1.2,0.2-1.8,0.1h-0.1c-0.7-0.1-1.4-0.2-2.1-0.5c-0.6-0.3-1.2-0.6-1.7-1.1l-2-1.9c-1,0.4-1.7,1.2-1.9,2.3
			c-0.1,1.1,0.4,2.1,1.2,2.8l15,14.2c1.8,1.7,1.7,4-0.3,5.2c-0.5,0.3-1.1,0.5-1.7,0.6c-0.7,0.1-1.3,0.1-2,0c-0.7-0.1-1.4-0.3-2-0.6
			c-0.6-0.3-1.1-0.6-1.6-1.1l-15.3-14.6c-1.3-1.2-2.3-2.6-3-4.2c-0.6-1.4-0.9-2.9-0.7-4.4c0.2-1.4,0.8-2.8,1.7-3.9
			c1.1-1.2,2.4-2.2,3.9-2.8l8.1-3.5c2.5-1,5.3-0.5,7.3,1.4C290.2,225.7,290.6,226.5,290.8,227.3z"/>
		<path class="st28" d="M256.1,235.4l-6.1,2.9c-2.2,1-2.4,3.3-0.4,5.2l0.1,0.1c2,1.8,4.8,2.4,7.3,1.4l6-2.9c2.1-1,2.4-3.3,0.5-5.1
			l-0.1-0.1C261.4,235.1,258.6,234.5,256.1,235.4z"/>
		
			<image style="overflow:visible;enable-background:new    ;" width="1528" height="1104" xlink:href="5F921B07.png"  transform="matrix(0.24 0 0 0.24 77.17 98.595)">
		</image>
		
			<image style="overflow:visible;enable-background:new    ;" width="502" height="449" xlink:href="5F921B05.png"  transform="matrix(0.24 0 0 0.24 212.05 187.155)">
		</image>
	</g>
	<g id="seguro">
		<path class="st29" d="M325.9,255.7c-18.8,9.1-33.2,15.8-34.8,19.3s0.8,7.6,7.8,16.2s23.6,32.6,27,38.9s6.4,11.9,6.4,20.1
			s9.1,7.7-8.1,11.6c0,0,0.4,9.6,8.1,7.9c15.6-3.4,36.1-19.2,40.4-22.1s8.9-14.9,0.2-35.8S340.9,248.5,325.9,255.7z"/>
		<polygon class="st30" points="325.5,316.9 364.7,295.2 372,309.6 333.8,331.4 		"/>
		<path class="st31" d="M332.7,330l37.7-20.7l0,0c0.8,1.7,1.7,3.4,2.7,5.1c4.3,7.7,5.6,16.6,3.6,25.2l-0.9,3.9L337.3,367l1.2-20
			c-0.4-5.1-2-10-4.5-14.5L332.7,330z"/>
		<path class="st1" d="M305.8,264.7c0,0-9.2,6.3-7.7,12s26.5,35.9,34.3,48.7s7.1,31.9,3.5,38c0,0,27.7-14.6,41.8-27.3
			c0,0,4.3,8.4-13.9,18.4c0,0-19.7,12.8-32.7,16c-4.6,1.1-8.2-6.4-6.9-8.8s-2.4-1.2,3.2-4.8s6.1-5.2,2.5-15.6s-19.7-34-21.6-36.4
			s-16-19.5-17.2-23.6s-4-7,3.1-10.3C298.2,269.2,302,267.1,305.8,264.7z"/>
		<path class="st2" d="M325.9,255.7c-18.8,9.1-33.2,15.8-34.8,19.3s0.8,7.6,7.8,16.2s23.6,32.6,27,38.9s6.4,11.9,6.4,20.1
			c0,3.6-1.9,5.8-4.9,7.5c-6.5,3.7-2.9,13.6,4.4,12.1l0.5-0.1c15.6-3.5,36.1-19.2,40.4-22.1s8.9-14.9,0.2-35.8
			S340.9,248.5,325.9,255.7z"/>
		<path class="st2" d="M292.6,273.1c0,0-1.4,0.8,22,32.3s26.2,43.7,19.5,63.7"/>
		<path class="st25" d="M341.7,361.2c0,0,3.4-19.6-10.1-39.5c-10.1-14.8-23.7-33.9-29.9-42.7c-1.6-2.2-1.1-5.3,1.1-6.8
			c0.2-0.2,0.5-0.3,0.7-0.4l23.4-11.2c3.3-1.6,7.2-0.7,9.4,2.1c10.5,12.9,38.5,45.6,35.1,85.7"/>
	</g>
	<g id="escudo">
		<g class="st32">
			
				<image style="overflow:visible;enable-background:new    ;" width="582" height="493" xlink:href="5F921B0B.png"  transform="matrix(0.24 0 0 0.24 172.69 141.315)">
			</image>
		</g>
		<g>
			<path class="st33" d="M278.7,102.3c0-0.3,0-0.6,0-0.8l-5.5-3.2c0,0.2,0,0.5,0,0.8c0,6.8,0.2,13.4-0.1,20.3
				c-0.2,8.5-1.8,16.9-4.5,25c-3.1,9-7.8,17.4-13.8,24.8c-2.8,3.4-5.8,6.5-8.7,9.8c-0.1,0.2-0.3,0.3-0.5,0.4
				c-0.1,0.1-0.2,0.1-0.3,0.1c-5.6,0.9-10.7,0.7-15.2-1.4c-0.5-0.2-0.9-0.4-1.3-0.7l5.5,3.2c0.4,0.2,0.9,0.5,1.3,0.7
				c4.4,2.1,9.6,2.2,15.2,1.4c0.1,0,0.2-0.1,0.3-0.1c0.2-0.1,0.3-0.2,0.5-0.4c2.9-3.2,5.9-6.3,8.7-9.8c6-7.4,10.7-15.8,13.8-24.8
				c2.8-8.1,4.3-16.5,4.5-25C278.9,115.7,278.7,109,278.7,102.3z"/>
			<path class="st34" d="M230.4,187.4l-5.6-3.2c-5.2-3-8.9-8.6-10.8-16.6c-1.2-4.8-1.8-9.7-1.9-14.7c-0.1-7.5-0.1-15.1-0.1-22.7
				c0.1-2.1,1.2-4,3-5c2-1.3,4-2.5,6-3.9c8.6-6.2,15.8-14,21.2-23.1l1-1.6c0.5-0.9,1.2-1.6,2-2.2c0.6-0.4,1.4-0.5,2.1-0.2
				c1.7,0.8,3.5,1.4,5.3,1.8c4.7,1.1,10,0.1,15.7-2.3c2.3-1,4.6-2.2,7-3.4c1.1-0.6,2-0.8,2.5-0.5l5.5,3.2c-0.5-0.3-1.4-0.2-2.5,0.4
				c-2.3,1.2-4.7,2.4-7,3.4c-5.7,2.4-10.9,3.3-15.6,2.3c-1.8-0.5-3.6-1.1-5.3-1.9c-0.7-0.3-1.5-0.2-2.1,0.2c-0.8,0.6-1.5,1.3-2,2.2
				c-0.3,0.5-0.6,1.1-1,1.6c-5.4,9.1-12.7,17-21.3,23.1c-2,1.4-4,2.6-6,3.9c-1.8,1-2.9,2.9-3,5c0,7.6-0.1,15.2,0.1,22.7
				c0.1,4.9,0.7,9.9,1.9,14.7C221.6,178.9,225.2,184.4,230.4,187.4z"/>
			<path class="st35" d="M284.2,95.6c0.1,6,0.2,11.9,0.2,17.9c0,7.6-0.7,15.1-2.2,22.5c-3.3,16.1-10.7,30.8-22.1,43.9
				c-2.7,3.1-5.5,6-8.3,8.9l-1.2,0.7c-2.6,0.2-5.3,0.6-7.8,0.7c-12.1,0.2-19.8-6.2-23.1-19.4c-1.2-4.8-1.8-9.7-1.8-14.7
				c-0.1-7.5-0.1-15.1-0.1-22.7c0.1-2.1,1.2-4,3-5c2-1.3,4-2.5,6-3.9c8.6-6.1,15.9-14,21.3-23.1c0.3-0.5,0.6-1.1,1-1.6
				c0.5-0.9,1.2-1.6,2-2.2c0.6-0.4,1.4-0.5,2.1-0.2c1.7,0.8,3.5,1.4,5.3,1.9c4.7,1,10,0.1,15.6-2.3c2.3-1,4.6-2.2,7-3.4
				S284.2,93,284.2,95.6z M278.6,122.6c0.2-6.9,0.1-13.6,0.1-20.3c0-0.3,0-0.6,0-0.8c-2,0.9-4,1.8-5.9,2.7c-7.9,3.3-14.9,3.8-21,1.5
				c-0.3-0.1-0.6-0.1-0.8,0c-0.3,0.3-0.6,0.6-0.8,1c-5.3,8.5-12.1,16-20.1,22.1c-2.2,1.7-4.5,3.2-6.8,4.9c0,0.3,0,0.6,0,0.9
				c0,3.9-0.1,7.8-0.1,11.6c-0.2,6.7,0.4,13.4,1.8,19.9c1.7,7.4,5.1,12.8,10.7,15.4c4.4,2.1,9.6,2.2,15.2,1.4c0.1,0,0.2-0.1,0.3-0.1
				c0.2-0.1,0.3-0.2,0.5-0.4c2.9-3.2,5.9-6.3,8.7-9.8c6-7.4,10.7-15.8,13.8-24.8C276.9,139.6,278.4,131.2,278.6,122.6"/>
		</g>
	</g>
	<g id="w">
		<g>
			<path class="st36" d="M389.8,227.2l-5.9-3.4l0,0L389.8,227.2L389.8,227.2z"/>
			<polygon class="st36" points="407.2,182.7 401.4,179.3 407.6,182.9 413.5,186.3 			"/>
			<polygon class="st37" points="385.7,204.8 391.6,208.2 405.8,183.6 399.9,180.2 			"/>
			<path class="st37" d="M401.4,179.3c-0.2-0.1-0.5-0.1-0.7,0.1c-0.3,0.2-0.6,0.5-0.7,0.8l5.9,3.4c0.2-0.3,0.4-0.6,0.7-0.8
				c0.2-0.2,0.5-0.2,0.7-0.1L401.4,179.3z"/>
			<path class="st38" d="M390.1,209l-5.9-3.4c0.2,0.1,0.5,0.1,0.7-0.1c0.3-0.2,0.6-0.5,0.7-0.8l5.9,3.4c-0.2,0.3-0.4,0.6-0.7,0.8
				C390.6,209.1,390.4,209.1,390.1,209z"/>
			<polygon class="st36" points="389.8,227.2 384,223.7 370.7,214.9 376.6,218.3 			"/>
			<path class="st36" d="M370.7,214.9l5.9,3.4l0,0L370.7,214.9L370.7,214.9z"/>
			<path class="st37" d="M370.6,196.5c-0.2-0.1-0.5-0.1-0.7,0.1c-0.3,0.2-0.6,0.5-0.8,0.8l-13.9,25.4c-0.2,0.3-0.4,0.6-0.8,0.8
				c-0.2,0.1-0.5,0.2-0.7,0.1l5.9,3.4c0.2,0.1,0.5,0.1,0.7-0.1c0.3-0.2,0.6-0.5,0.8-0.8l13.9-25.4c0.2-0.3,0.4-0.6,0.8-0.8
				c0.2-0.2,0.5-0.2,0.7-0.1L370.6,196.5z"/>
			<polygon class="st36" points="344.7,218.6 338.9,215.1 353.8,223.7 359.7,227.1 			"/>
			<path class="st39" d="M375.8,200c0.2-0.1,0.5-0.1,0.8,0l13.6,9.1c0.2,0.1,0.5,0.1,0.8-0.1c0.3-0.2,0.6-0.5,0.7-0.8l14.2-24.7
				c0.2-0.3,0.4-0.6,0.7-0.8c0.2-0.2,0.5-0.2,0.7-0.1l6.2,3.6c0.4,0.2,0.4,1,0,1.7l-22.1,38.4c-0.2,0.3-0.4,0.6-0.7,0.8
				c-0.2,0.2-0.5,0.2-0.8,0.1l-13.3-8.8c-0.2-0.1-0.5-0.1-0.8,0.1c-0.3,0.2-0.6,0.5-0.8,0.8L361.5,244c-0.2,0.3-0.4,0.6-0.8,0.8
				c-0.2,0.2-0.5,0.2-0.7,0.1l-22.9-13.1c-0.4-0.2-0.4-1,0-1.7l6.2-10.7c0.2-0.3,0.4-0.6,0.7-0.8c0.2-0.2,0.5-0.2,0.7-0.1l14.9,8.5
				c0.2,0.1,0.5,0.1,0.7-0.1c0.3-0.2,0.6-0.5,0.8-0.8l13.9-25.4C375.2,200.5,375.4,200.2,375.8,200z"/>
			<path class="st37" d="M338.9,215.1c-0.2-0.1-0.5-0.1-0.7,0.1c-0.3,0.2-0.6,0.5-0.7,0.8l-6.2,10.7c-0.4,0.7-0.4,1.4,0,1.7l5.9,3.4
				c-0.4-0.2-0.4-1,0-1.7l6.2-10.7c0.2-0.3,0.4-0.6,0.7-0.8c0.2-0.2,0.5-0.2,0.7-0.1L338.9,215.1z"/>
			<path class="st37" d="M395.5,174.4L395.5,174.4c-7.9-4.2-16.4-3.7-25.3,1.4l-1,0.6c-12.9,7.9-22.3,23.2-24.9,27.8
				c-0.4,0.7-0.4,1.4,0,1.7l5.9,3.4c-0.4-0.2-0.4-0.9,0-1.6c2.6-4.6,12-19.9,24.9-27.8c0.3-0.2,0.7-0.4,1-0.6
				c8.9-5.1,17.4-5.6,25.3-1.4l0,0L395.5,174.4z"/>
			<path class="st39" d="M376,179.2c8.9-5.1,17.4-5.6,25.3-1.4c0.4,0.2,0.4,1,0,1.7l-6.2,10.7c-0.2,0.3-0.4,0.6-0.7,0.8
				c-0.2,0.2-0.5,0.2-0.7,0.1c-5.8-3-11.7-2.8-17.7,0.6l-0.6,0.3c-8.6,5.2-15.2,15.8-17.3,19.3c-0.2,0.3-0.4,0.6-0.7,0.8
				c-0.2,0.1-0.5,0.2-0.7,0.1l-6.6-2.9c-0.4-0.2-0.5-0.9-0.1-1.7c2.6-4.6,12-19.9,24.9-27.8C375.3,179.6,375.7,179.4,376,179.2z"/>
			<path class="st40" d="M375.8,200c0.2-0.1,0.5-0.1,0.8,0l13.6,9.1c0.2,0.1,0.5,0.1,0.8-0.1c0.3-0.2,0.6-0.5,0.7-0.8l14.2-24.7
				c0.2-0.3,0.4-0.6,0.7-0.8c0.2-0.2,0.5-0.2,0.7-0.1l6.2,3.6c0.4,0.2,0.4,1,0,1.7l-22.1,38.4c-0.2,0.3-0.4,0.6-0.7,0.8
				c-0.2,0.2-0.5,0.2-0.8,0.1l-13.3-8.8c-0.2-0.1-0.5-0.1-0.8,0.1c-0.3,0.2-0.6,0.5-0.8,0.8L361.5,244c-0.2,0.3-0.4,0.6-0.8,0.8
				c-0.2,0.2-0.5,0.2-0.7,0.1l-22.9-13.1c-0.4-0.2-0.4-1,0-1.7l6.2-10.7c0.2-0.3,0.4-0.6,0.7-0.8c0.2-0.2,0.5-0.2,0.7-0.1l14.9,8.5
				c0.2,0.1,0.5,0.1,0.7-0.1c0.3-0.2,0.6-0.5,0.8-0.8l13.9-25.4C375.2,200.5,375.4,200.2,375.8,200z"/>
			<path class="st40" d="M376,179.2c8.9-5.1,17.4-5.6,25.3-1.4c0.4,0.2,0.4,1,0,1.7l-6.2,10.7c-0.2,0.3-0.4,0.6-0.7,0.8
				c-0.2,0.2-0.5,0.2-0.7,0.1c-5.8-3-11.7-2.8-17.7,0.6l-0.6,0.3c-8.6,5.2-15.2,15.8-17.3,19.3c-0.2,0.3-0.4,0.6-0.7,0.8
				c-0.2,0.1-0.5,0.2-0.7,0.1l-6.6-2.9c-0.4-0.2-0.5-0.9-0.1-1.7c2.6-4.6,12-19.9,24.9-27.8C375.3,179.6,375.7,179.4,376,179.2z"/>
			
				<image style="overflow:visible;enable-background:new    ;" width="458" height="408" xlink:href="5F921B0D.png"  transform="matrix(0.24 0 0 0.24 323.47 217.225)">
			</image>
		</g>
	</g>
	<g id="metamask">
		
			<image style="overflow:visible;enable-background:new    ;" width="494" height="427" xlink:href="5F921B0F.png"  transform="matrix(0.24 0 0 0.24 182.05 291.795)">
		</image>
		<polygon class="st41" points="209.3,257.2 200.5,273.5 202.7,292.2 204.5,293.5 203.6,295.7 205.8,297.2 205.6,299.8 208.1,301.1 
			209.5,303.3 223.6,292.1 225.3,292.3 241,278 		"/>
		<polygon class="st41" points="276.7,246 250.6,273.5 257.7,281.3 269.9,281.9 270.4,279.9 272.2,277.6 271.3,275.6 272.5,274.3 
			271.5,272.3 273.3,270.1 271.7,267.3 277.1,257.2 		"/>
		<polygon class="st42" points="209.3,257.2 227.9,260.2 241,278 		"/>
		<polygon class="st43" points="276.7,246 250.6,273.5 249.4,262.7 246.7,256.5 		"/>
		<polygon class="st44" points="227.9,260.2 235.6,257.2 246.7,256.5 249.4,262.7 250.6,273.5 260.2,301.2 274.1,317.7 268,320.9 
			254.8,307.4 241,278 		"/>
		<polygon class="st45" points="225.3,292.3 231.5,303.7 251,299.3 241,278 		"/>
		<polygon class="st46" points="258.5,296.1 268.5,289.3 257.7,281.3 250.6,273.5 		"/>
		<polygon class="st47" points="209.5,303.3 203.3,325.8 242.4,317.7 231.5,303.7 225.3,292.3 223.6,292.1 		"/>
		<polygon class="st48" points="269.9,281.9 268.5,289.3 257.7,281.3 		"/>
		<polygon class="st49" points="251,299.3 250.6,308.9 246.7,304.6 242.4,308.9 231.5,303.7 		"/>
		<polygon class="st50" points="268.5,289.3 265.5,300.4 261.7,298.8 262,303.3 260.2,301.2 258.5,296.1 		"/>
		<polygon class="st51" points="269.2,285.9 271.5,301.2 267.2,306.8 274.1,317.7 262,303.3 265.5,300.4 		"/>
		<polygon class="st52" points="242.4,317.7 241.3,310.2 242.4,308.9 231.5,303.7 		"/>
		<polygon class="st53" points="250.6,308.9 242.4,308.9 241.3,310.2 242.4,317.7 266.2,323.4 268,320.9 254.8,307.4 		"/>
		<polygon class="st54" points="251,299.3 250.6,308.9 254.8,307.4 		"/>
		<polygon class="st55" points="203.3,325.8 210.3,339.2 234.9,327.8 230.2,320.2 		"/>
		<polygon class="st56" points="242.4,317.7 234.9,327.8 230.2,320.2 		"/>
		<polygon class="st57" points="266.2,323.4 234.9,327.8 242.4,317.7 		"/>
		<polygon class="st58" points="265.7,329.1 266.2,323.4 268,320.9 274.1,317.7 278.3,320.9 276.3,324.9 268,329.7 		"/>
		<polygon class="st59" points="278.3,320.9 267.2,306.8 274.1,317.7 		"/>
		<polygon class="st60" points="276.3,324.9 264.7,332.9 234.9,327.8 266.2,323.4 265.7,329.1 268,329.7 		"/>
		<polygon class="st61" points="242.4,308.9 250.6,308.9 246.7,304.6 		"/>
		<polygon class="st62" points="265.5,300.4 261.7,298.8 262,303.3 		"/>
		<polygon class="st63" points="209.5,303.3 203.3,325.8 210.3,339.2 234.9,327.8 264.7,332.9 276.3,324.9 278.3,320.9 267.2,306.8 
			271.5,301.2 269.2,285.9 270.4,279.9 272.2,277.6 271.3,275.6 272.5,274.3 271.5,272.3 273.3,270.1 271.7,267.3 277.1,257.2 
			276.7,246 246.7,256.5 235.6,257.2 227.9,260.2 209.3,257.2 200.5,273.5 202.4,292.2 204.5,293.5 203.6,295.7 206,297.1 
			205.8,300 208,300.9 		"/>
	</g>
</g>
</svg>
