<?xml version="1.0" encoding="utf-8"?>
<!-- Generator: Adobe Illustrator 26.3.1, SVG Export Plug-In . SVG Version: 6.00 Build 0)  -->
<svg version="1.1" id="Capa_1" xmlns="http://www.w3.org/2000/svg" xmlns:xlink="http://www.w3.org/1999/xlink" x="0px" y="0px"
	 viewBox="0 0 512 512" style="enable-background:new 0 0 512 512;" xml:space="preserve">
<style type="text/css">
	.st0{fill:#84E146;}
	.st1{fill:#175807;}
	.st2{fill:url(#SVGID_1_);}
	.st3{fill:#D1D6D0;}
	.st4{fill:#313B47;}
	.st5{fill:#DFF2F9;}
	.st6{fill:#B2C9EA;}
	.st7{fill:#3C3C3B;}
	.st8{fill:#FCED2E;}
	.st9{fill:#62A835;}
	.st10{fill:#84E147;}
	.st11{fill:#64A835;}
	.st12{fill:#FEEC30;}
	.st13{fill:#53A22F;}
	.st14{fill:#0BAB92;}
	.st15{fill:#06F5E2;}
	.st16{fill:#05FADB;}
	.st17{fill:#175807;stroke:#175807;stroke-width:0.8;stroke-miterlimit:10;}
	.st18{fill:#83E145;}
	.st19{fill:#295654;}
	.st20{fill:url(#SVGID_00000028306424385985158230000004614720342155384198_);}
	.st21{fill:#060203;}
	.st22{fill:#FFFFFF;}
	.st23{fill:url(#SVGID_00000000222313589292638600000005476881926755002020_);}
	.st24{fill:url(#SVGID_00000092437040594365177940000007862043426226569864_);}
	.st25{fill:#686868;}
	.st26{fill:#939286;}
	.st27{fill:#E5E4C8;}
	.st28{fill:#999698;}
	.st29{fill:#575756;}
	.st30{fill:#D9D7DA;}
	.st31{fill:#27273D;}
	.st32{fill:url(#SVGID_00000101100300773539355850000009355175437240013988_);}
	.st33{opacity:0.9;fill:url(#SVGID_00000013189896262373819710000013153958158379596976_);enable-background:new    ;}
	.st34{fill:url(#SVGID_00000139978408700802302830000008669496543028453256_);}
	.st35{fill:url(#SVGID_00000154403818824141243040000001959450952371811973_);}
	.st36{fill:url(#SVGID_00000074435648094861664790000015964547956020414636_);}
	.st37{fill:url(#SVGID_00000045606210843104256410000016952737669995197068_);}
	.st38{fill:url(#SVGID_00000118367783605947314220000012961640771149856648_);}
	.st39{fill:url(#SVGID_00000032644056872970584100000017797819823153428383_);}
</style>
<path class="st0" d="M319.7,210.2c-7.7,7.8-8.6,5.1-23.7,6s-65.5,1-65.5,1l-3-15.2l66.3-2.9C307.4,198.6,332.2,197.7,319.7,210.2
	L319.7,210.2z"/>
<path class="st1" d="M254.5,218.9c-8.1,0-16.1-0.2-24-0.5c-0.1,0-0.3,0-0.4-0.1c-0.1-0.1-0.2-0.1-0.3-0.2c-0.1-0.1-0.2-0.2-0.2-0.3
	s-0.1-0.3-0.1-0.4s0-0.3,0.1-0.4c0.1-0.1,0.1-0.2,0.2-0.3c0.1-0.1,0.2-0.2,0.3-0.2s0.3-0.1,0.4-0.1c24.3,1.1,48.6,0.5,72.8-1.6
	c3.1-0.2,6.1-0.7,9.1-1.5c4.4-1.4,8.1-4.3,9.4-7.4c0.2-0.4,0.3-0.9,0.3-1.4s-0.1-0.9-0.3-1.4c-0.8-1.5-3.2-2.6-6.5-3.1
	c-3.4-0.4-6.8-0.4-10.3-0.2l-77.4,3.4c-0.3,0-0.5-0.1-0.7-0.3s-0.3-0.4-0.3-0.7s0.1-0.5,0.2-0.7c0.2-0.2,0.4-0.3,0.6-0.4l77.4-3.4
	c3.6-0.3,7.1-0.2,10.7,0.2c4,0.6,6.8,2.1,8,4.1c0.4,0.7,0.6,1.4,0.6,2.2s-0.1,1.6-0.5,2.3c-1.5,3.7-5.6,7-10.6,8.6
	c-3.1,0.9-6.3,1.4-9.5,1.6C287.1,218.1,270.7,218.9,254.5,218.9L254.5,218.9z"/>
<linearGradient id="SVGID_1_" gradientUnits="userSpaceOnUse" x1="271.3149" y1="288.6156" x2="296.9149" y2="264.1156" gradientTransform="matrix(1 0 0 -1 0 514)">
	<stop  offset="0" style="stop-color:#797D86"/>
	<stop  offset="0.5" style="stop-color:#A8ABB0"/>
	<stop  offset="0.8" style="stop-color:#CBCCCF"/>
	<stop  offset="1" style="stop-color:#D8D9DB"/>
</linearGradient>
<path class="st2" d="M311.8,234.1c-14.5-2.2-28.9-5.2-43-9c-5-1.3-9.7-3.6-13.8-6.9s-7.4-7.2-9.9-11.8c-4.5-8.4-8.9-17.8-12.6-23.2
	c-6.1-9.2-11.6-6.7-10.3,1.5c1.2,8.3,10.2,38.8,25.8,47.2s62.1,16.2,62.1,16.2L311.8,234.1z"/>
<path class="st3" d="M318.6,254.1c0,0.1-0.1,0.2-0.1,0.4C318.4,254.2,318.6,254.1,318.6,254.1z"/>
<path class="st4" d="M309.9,249.3c-1.9-0.3-46.9-8-62.4-16.4c-15.6-8.4-24.9-38.5-26.3-47.9c-0.6-4.3,0.4-7.4,2.8-8.3
	c2.7-1.1,6.2,1.2,9.5,6.1c2.6,4,5.6,9.8,8.8,16c1.2,2.4,2.5,4.9,3.8,7.3c2.4,4.5,5.6,8.4,9.6,11.5s8.5,5.4,13.4,6.7
	c14.1,3.7,28.5,6.7,42.9,8.9l-0.3,2c-14.5-2.2-28.9-5.2-43.1-9c-5.1-1.3-9.9-3.7-14.1-7c-4.2-3.3-7.6-7.4-10.1-12.1
	c-1.3-2.3-2.6-4.9-3.8-7.3c-2.6-5.4-5.6-10.7-8.7-15.8c-3.1-4.7-5.7-5.8-7-5.3s-1.9,2.9-1.5,6.1c1.2,7.9,10.1,38.3,25.2,46.4
	c15.1,8.1,61.3,16.1,61.8,16.1L309.9,249.3L309.9,249.3z"/>
<path class="st5" d="M317.2,231.8c0.9-0.6,3.6-3.3,5-4.1c2.9-1.7,5.8-3.2,8.9-4.6c2-0.7,5.5-2.5,6.8-4.6s1.6-5.5,2.5-6.8
	c0.7-1.1,1.8-2,3.1-2.5c1.3-0.5,2.6-0.6,3.9-0.2c1.2,0.3,2.4,0.9,3.3,1.7c1,0.8,1.7,1.9,2.2,3c0.4,1.1,0.9,5.6-0.8,7.4
	c-1.6,1.8-5.1,3.3-6.4,4.2s-3.1,2.3-3.4,3.5s-0.2,2.1,0.4,2.3c1.4,0.8,2.9,1.2,4.4,1.4c3,0.1,6.1-0.3,9-1.2
	c2.3-0.9,9.2-3.6,11.7-3.7s5.5,0.8,7,2.8c1.4,1.9,2.5,6.5-0.8,9.5c1.7,1.2,2.3,4.9,1.8,6.7s-1.9,5.1-4,5.9c0.1,0.6,1.2,3.1,0,5
	s-3.1,4.8-8.9,4.3s-13-2.6-16-2.6s-19.9,0.4-26-2.8c-6.1-3.2-4.9-3.9-4.9-3.9c-0.2,0.8-0.5,1.4-1.1,2c-0.9,0.9-1.9,1.7-2.9,1.4
	s-4-2.6-4.8-10.7c-0.8-8.1,2.2-16.6,4.4-17.2c2.2-0.6,3.4,2.2,3.7,2.9C315.7,231.6,316.8,232.1,317.2,231.8L317.2,231.8z"/>
<path class="st6" d="M363.1,261.9c-0.9-0.1-1.8-0.2-2.8-0.3c4.7,0.3,8.3-1.3,6.9-4.7c-1.3-3.4-11.8-4.1-19.4-4.6
	c2.9-0.8,5.9-1.1,8.8-0.8c4.9,0.3,11.4,1.6,14.4-1.3c0.5-0.6,0.9-1.4,0.9-2.2s-0.2-1.6-0.7-2.3c-2.7-2.8-7.3-2.5-10.6-2.9
	c-4.3-0.5-8.7-0.2-12.9,0.9c2.7-1.8,5.9-2.9,9.1-3.1c3.8-0.2,8,0.5,13.9-0.9c3-0.7,2.9-5.3,1-7.5c-2.2-2.5-7.3-2-10.4-0.3
	c-7,5-19.9,4.4-22.7-0.7c-1.9-5.4,10.8-9,8.2-16.1c-0.6-2.3-3.8-3.7-7-3l0.3-0.6c0.7-1.1,1.8-2,3.1-2.5c1.3-0.5,2.6-0.6,3.9-0.2
	c1.2,0.3,2.4,0.9,3.3,1.7c1,0.8,1.7,1.9,2.2,3c0.4,1.1,0.9,5.6-0.8,7.4c-1.6,1.8-5.1,3.3-6.4,4.2s-3.1,2.3-3.4,3.5s-0.2,2.1,0.4,2.3
	c1.4,0.8,2.9,1.2,4.4,1.4c3,0.1,6.1-0.3,9-1.2c2.3-0.9,9.2-3.6,11.7-3.7c2.5-0.1,5.5,0.8,7,2.8c1.4,1.9,2.5,6.5-0.8,9.5
	c1.7,1.2,2.3,4.9,1.8,6.7s-1.9,5.1-4,5.9c0.1,0.6,1.2,3.1,0,5C370.8,259.4,369,262.3,363.1,261.9L363.1,261.9z"/>
<path class="st6" d="M328.3,226.4c-8.9,4.3-11.3,13.7-19.3,5.8c0.8-2.3,1.9-4,2.8-4.2c2.2-0.6,3.4,2.2,3.7,2.9
	c0.3,0.7,1.3,1.2,1.7,0.9c0.9-0.6,3.6-3.3,5-4.1c2.9-1.7,5.8-3.2,8.9-4.6c2-0.7,5.5-2.5,6.8-4.6C337.4,221.8,333.3,224,328.3,226.4
	L328.3,226.4z"/>
<path class="st6" d="M315.2,230.6c0,0-5.8,9.9-1.9,12.3c0-3.9,2.6-10.2,3.9-11.1c-0.4,0.1-0.9,0-1.2-0.2
	C315.6,231.4,315.3,231,315.2,230.6L315.2,230.6z"/>
<path class="st7" d="M363.6,262.9c-3.5-0.2-7-0.7-10.4-1.6c-4.4-0.9-8.9-1.4-13.4-1.3c-2.9-0.1-6.2-0.1-10.4-0.5
	c-8-0.7-11.7-3.6-13.1-5.4c-1,1.8-2.2,2.7-3.5,2.7c-1.9,0-3.7-2.1-5-5.9c-1.2-3.8-1.6-7.8-1.4-11.7c0.1-2.2,0.5-7.5,2.6-9.7
	c1.6-1.7,3.2-2.5,4.5-2.3c0.5,0.1,1.1,0.3,1.5,0.7s0.8,0.8,1,1.3c0.1,0.2,0.2,0.5,0.3,0.7s0.2,0.5,0.3,0.7c0.6-0.4,1.2-0.9,1.8-1.4
	c2.4-2.2,7.3-4.6,11.9-6.9l3-1.5c3.2-1.7,4.2-4.5,5.1-7c0.3-1.2,0.8-2.3,1.5-3.3c0.7-0.9,1.6-1.5,2.6-2s2.1-0.8,3.2-0.8
	c1.1-0.1,2.3,0.1,3.4,0.5s2,1.1,2.8,1.9s1.7,2.2,2.2,3.5s0.6,2.7,0.4,4.1c-0.2,1.3-0.6,2.6-1.4,3.7c-0.7,1.1-1.7,2-2.8,2.7l-0.7,0.4
	c-3.6,2.1-7,4.1-6.1,5.8c1.1,1.9,7.5,2.5,16.4-1.2c8.2-3.4,13.2-4.1,16.4,1.9c0.8,1.4,1.1,3.1,0.9,4.7c-0.2,1.6-0.9,3.2-2,4.4
	c1.3,1.8,1.9,4,1.8,6.2c-0.1,1.3-0.6,2.6-1.2,3.8c-0.7,1.2-1.6,2.1-2.8,2.9c0.5,1.3,0.5,2.8,0.2,4.1c-0.4,1.4-1.2,2.5-2.3,3.4
	C369,262.2,366.3,263.1,363.6,262.9z M317,252.2c0,0.1,2.4,4.9,12.6,5.7c4.2,0.4,7.4,0.4,10.3,0.5c4.6-0.1,9.2,0.4,13.7,1.4
	c8.5,1.9,12.8,2.4,16.2-0.6c0.9-0.7,1.6-1.7,1.8-2.9c0.3-1.1,0.1-2.3-0.4-3.4c-0.1-0.1-0.1-0.2-0.1-0.3v-0.3c0-0.1,0.1-0.2,0.2-0.3
	s0.2-0.2,0.3-0.2c0,0,3.7-2.1,3.8-5.7c0.1-1,0-2-0.3-3s-0.8-1.8-1.5-2.6c-0.2-0.2-0.3-0.4-0.3-0.6s0-0.2,0.1-0.3
	c0-0.1,0.1-0.2,0.2-0.3c1.1-0.9,1.8-2.2,2-3.6c0.3-1.4,0-2.8-0.6-4.1c-2.1-3.9-4.7-5.1-14.3-1.2c-8.5,3.5-16.6,3.7-18.5,0.5
	c-1.8-3.1,2.3-5.5,6.7-8l0.7-0.4c0.9-0.5,1.7-1.3,2.3-2.2c0.6-0.9,1-1.9,1.1-3s0-2.3-0.4-3.4c-0.4-1.1-1-2-1.8-2.8
	c-0.6-0.7-1.4-1.2-2.2-1.5c-0.8-0.3-1.8-0.5-2.7-0.4c-0.9,0-1.8,0.3-2.6,0.7c-0.8,0.4-1.5,0.9-2.1,1.6c-0.6,0.9-1,1.8-1.3,2.8
	c-0.9,2.6-2.1,5.9-5.9,7.9c-1,0.5-2.1,1-3.1,1.6c-4.4,2.2-9.4,4.7-11.6,6.7c-1.6,1.5-2.4,2-3.3,1.9c-0.8-0.2-1.1-0.9-1.4-1.7
	l-0.3-0.6c-0.3-0.7-0.8-1.1-1.2-1.2c-0.8-0.1-1.8,0.5-3.1,1.8c-2.4,2.5-2.9,14-0.8,19.7c1.2,3.4,2.6,4.7,3.5,4.7s1.8-1.1,2.6-3
	c0.1-0.1,0.2-0.3,0.3-0.4c0.1-0.1,0.3-0.1,0.4-0.1c0.2,0,0.3,0.1,0.5,0.2C316.8,251.9,316.9,252,317,252.2L317,252.2L317,252.2z"/>
<path class="st7" d="M366.8,253.8c-2.2,0-4.3-0.2-6.5-0.6c-4.3-0.7-8.6-1.2-12.9-1.5c-0.2,0-0.4-0.1-0.5-0.3s-0.2-0.4-0.2-0.6
	s0.1-0.4,0.2-0.5s0.3-0.2,0.5-0.2c4.4,0.3,8.8,0.8,13.1,1.5c10,1.8,12.5-0.9,12.5-1c0.1-0.2,0.3-0.3,0.6-0.3s0.4,0,0.6,0.2
	c0.2,0.1,0.3,0.3,0.3,0.6s0,0.4-0.2,0.6C374.3,251.9,372.5,253.8,366.8,253.8z"/>
<path class="st7" d="M349.8,242.6c-0.2,0-0.4-0.1-0.6-0.2c-0.2-0.1-0.3-0.3-0.3-0.5s0-0.4,0.1-0.6c0.1-0.2,0.3-0.3,0.5-0.3
	c6.3-1.7,11.7-1.4,16.8-1.1c2.8,0.2,5.7-0.3,8.3-1.5c0.2-0.1,0.4-0.1,0.6-0.1c0.2,0.1,0.4,0.2,0.5,0.4s0.1,0.4,0.1,0.6
	c-0.1,0.2-0.2,0.4-0.4,0.5c-2.8,1.4-6,2-9.2,1.7c-5.3-0.3-10.3-0.6-16.3,1.1L349.8,242.6L349.8,242.6z"/>
<path class="st7" d="M342.4,226.8c0,7.5-1.7,14.9-5.1,21.6c-0.6,1.2,1.2,2.2,1.8,1c3.6-7,5.4-14.7,5.4-22.6s-0.1-0.5-0.3-0.7
	c-0.2-0.2-0.5-0.3-0.7-0.3c-0.3,0-0.5,0.1-0.7,0.3C342.5,226.3,342.4,226.5,342.4,226.8L342.4,226.8L342.4,226.8z"/>
<path class="st7" d="M347.9,239.5c0.2,4.4-0.4,8.7-1.8,12.9c-0.4,1.3,1.6,1.8,2,0.6c1.4-4.3,2-8.9,1.9-13.5
	C349.9,238.2,347.9,238.2,347.9,239.5L347.9,239.5z"/>
<path class="st8" d="M390.8,344.2c4.7,1.5,9.6,2.3,14.5,2.4c9.5,0,18.8-3.6,26.3-9.2c7.5-5.8,13.7-13.1,18.3-21.5
	c7.4-12.9,11.6-28.1,10.2-42.7c1.1,4.5,1.6,9.2,1.7,13.8c0.3,33.1-19.3,65.3-57.4,68.3c-38,3.1-77-44.3-77-44.3l8.6-9.4
	C348.3,322.2,367.8,337.4,390.8,344.2L390.8,344.2z"/>
<path class="st9" d="M430.6,260.3c6.2,0.8,11.6,5.4,14.5,10.9c2.9,5.6,3.8,12,3.5,18.3c-0.5,11.3-4.5,22.5-12.1,30.8
	s-19,13.3-30.2,12.2c-11.8-1.2-22-8.8-30.1-17.6c-3.6-3.9-6.8-8.1-9.5-12.6c10.3,11.4,25,23.9,40.6,23.9c28.5,0,36.3-32.2,33.2-44
	c-2.8-10.8-10.9-20.6-20.7-19.3C422.9,260.8,426.8,259.9,430.6,260.3L430.6,260.3L430.6,260.3z"/>
<path class="st10" d="M371.2,302.9c0,0,12.8,18.9,27.9,22.6c15.1,3.7,25.4-0.3,32.2-8.8c6.8-8.5,12.6-26.7,6.6-40.2
	c-6-13.6-21-12.5-21-12.5c-11,4-11.2,18.8-1.4,25.2c9.9,6.3,13.4-2.9,10.2-6.5c-3.2-3.7-4-5.3-1.5-6.7c2.5-1.4,10.8,3.6,11.3,11.9
	c0.4,8.3-9.1,21.6-25,14.8s-23.9-23.2-14-39.1s21.5-19.1,31.9-18.2c8.8,0.8,26.1,6.6,31.6,28.2c1.5,14.6-2.8,29.8-10.2,42.7
	c-4.6,8.3-10.8,15.6-18.3,21.5c-7.6,5.7-16.9,9.3-26.3,9.2c-4.9-0.2-9.7-1-14.4-2.4c-23-6.8-42.5-22-54.9-42.5L371.2,302.9z"/>
<path class="st1" d="M400.7,357c-18.9,0-37.5-11.5-50.1-21.5c-8.9-7.1-17-14.9-24.4-23.5c-0.2-0.3-0.3-0.6-0.3-0.9s0.1-0.7,0.4-0.9
	l24.9-27.2c0.3-0.3,0.6-0.4,1-0.5c0.4,0,0.7,0.1,1,0.4c0.5,0.6,1,1.2,1.4,1.9c4,5.9,8.4,11.5,13.2,16.8
	c17.4,19.4,31.1,23.4,39.5,23.4c4.6,0.1,9.2-0.9,13.3-2.9c4.1-2,7.7-5,10.5-8.7c8.1-10.5,9.5-24.4,7.9-30.5
	c-3.5-13.2-12.2-19.2-19.1-18.2c-0.9,0.1-1.7,0.3-2.6,0.6c-2,0.7-3.8,1.9-5.1,3.6c-1.3,1.7-2.1,3.7-2.3,5.8
	c-0.2,2.6,0.2,5.2,1.4,7.5c1.1,2.3,2.9,4.3,5.1,5.7c3.6,2.3,6.6,2.6,8.2,0.7c0.6-0.7,0.9-1.6,1-2.5c0-0.9-0.2-1.8-0.8-2.6
	c-2.3-2.7-3.6-4.5-3.3-6.3c0.1-0.6,0.4-1.1,0.8-1.6s0.8-0.8,1.4-1.1c1.3-0.7,3.4-0.5,5.6,0.8c2.2,1.2,4.1,3,5.5,5.2
	c1.4,2.1,2.2,4.6,2.3,7.1c0.3,5.4-3,11.6-8,15c-5.3,3.7-12.1,4.1-19,1.2c-8.9-3.8-15.5-10.6-18-18.6c-2.3-7.4-1.2-15.2,3.4-22.5
	c8.7-13.9,19.5-20.1,33.2-18.9c6.3,0.6,12.4,2.8,17.7,6.4c7.5,5.3,12.6,12.9,15.1,22.8c1.1,4.6,1.7,9.4,1.7,14.1
	c0.2,17.4-5,33.8-14.6,46.3c-10.6,13.9-25.9,22-44.1,23.4C403.1,356.9,401.9,357,400.7,357L400.7,357z M329.2,311.1
	c7.1,8.1,14.8,15.5,23.2,22.2c13,10.3,32.5,22.3,51.7,20.7c17.4-1.4,31.9-9.1,42-22.3c9.2-12,14.2-27.8,14-44.5
	c0-4.5-0.5-9.1-1.6-13.5c-6-23.9-26.3-26.8-30.3-27.1c-12.5-1.1-22.5,4.7-30.5,17.6c-4.1,6.6-5.2,13.6-3.1,20.1
	c2.3,7.2,8.2,13.4,16.4,16.9c7.7,3.3,13.1,1.4,16.2-0.8c4.7-3.3,6.9-8.8,6.7-12.5c-0.1-2-0.8-4-1.9-5.7s-2.6-3.2-4.4-4.2
	c-0.8-0.6-1.8-0.9-2.9-0.8c-0.5,0.3-0.7,0.5-0.7,0.6c-0.1,0.4,0.3,1.3,2.6,3.9c1,1.3,1.5,2.8,1.5,4.5s-0.6,3.2-1.7,4.4
	c-3.8,4.5-10.1,1-11.9-0.2c-2.6-1.7-4.7-4-6.1-6.8s-1.9-5.9-1.6-9c0.3-2.7,1.3-5.2,3-7.3c1.7-2.1,3.9-3.7,6.4-4.6
	c1-0.4,2.1-0.6,3.1-0.8c10.7-1.5,19.3,9.1,22.3,20.3c2.1,8.1-0.5,22.6-8.4,33c-3,4-7,7.3-11.5,9.5s-9.5,3.3-14.6,3.2l0,0
	c-13.1,0-27.1-8.2-41.7-24.4c-4.8-5.4-9.3-11.1-13.4-17.1v-0.2l-15,16.4l-1.1-1l1.1,1L329.2,311.1L329.2,311.1z"/>
<path class="st11" d="M363.2,337.6c2,1.1,2.8,3.5,3.4,5.6c8.9,32.6,9.3,66.8,8,100.5c-0.2,5.2,0.2,11.5,4.9,13.8
	c2.1,1,4.5,0.9,6.8,1.1c5.8,0.6,11.1,3.2,15.1,7.5c-14.7-1.1-30.7-3.5-31.4-5.4c-1-2.9-2.1-7.1-0.6-33.7c1.6-26.6-9-89.7-9-89.7
	h-0.2C361.2,337,362.3,337.1,363.2,337.6L363.2,337.6L363.2,337.6z"/>
<path class="st11" d="M373.3,246.7c-1-7.6-2.4-15.1-4.2-22.5c-0.8-3.6-1.7-7.3-4-10.3c-2.8-3.7-7.3-5.5-11.4-7.6
	c-6.5-3.3-12.6-7.5-18-12.4c-1.4-1.3-3.3-8-4.7-14.8c0.7-0.8,1.4-1.5,2.3-2.1c5.2-3.4,17.2-10.5,30.7,2.8c6.1,6.1,3.2,18.4,10,25
	s13.2,10.5,11.7,23.5s-9.5,33.1-5.2,86.1c0.4,5.3,0.9,10.8,1.5,16.5c-2-4.2-3.6-8.5-5.1-12.9C370.1,295.1,375.9,270.4,373.3,246.7
	L373.3,246.7z"/>
<path class="st11" d="M310.7,457.6c4-4.8,4.3-11.6,4.1-17.9c-0.5-19-2.5-38.1,0.5-56.9c2.9-18.5,10.7-37.4,5.1-55.3h0.4
	c2.5,2.2,5.7,3.5,8,5.8h0.1c-1.1,6.8-6.3,39.4-7.4,55.4c-1.3,17.9-0.9,43.1-1.1,55.7s3,17.4-9,18.6c-2.5,0.2-5.9,0.6-9.5,1.2
	c0.9-0.6,1.9-1.2,2.8-1.8C306.9,461.2,308.9,459.6,310.7,457.6L310.7,457.6z"/>
<path class="st10" d="M375,463.4c-6.1-1.5-5.2-11.6-5.3-17c-0.1-5.4,0.9-42.5-2.3-59.2c-3.2-16.8-7.3-50.2-7.3-50.2
	s-10,0.6-22.6-3.5c-12.5-4.1-18.7-8-18.7-8c0.6,0.7,1.2,1.4,2,2h-0.4c5.6,17.8-2.1,36.7-5.1,55.2c-3,18.8-0.9,37.9-0.5,56.9
	c0.2,6.3-0.1,13.1-4.1,17.9c-1.8,1.9-3.9,3.6-6.2,4.9c-0.9,0.6-1.9,1.2-2.8,1.8c-14.4,1.8-35,4.4-39.6,1.4c-5.6-3.7-12.4-2.1,6.5-10
	l0,0c19-7.8,24.9-11,24.9-11s10.1-72,12-103.4s-3.5-38.6-3.1-60s2.3-70.3,16.5-82.9c1.6-1.4,7.3-13.7,12.2-19.2
	c1.4,6.8,3.2,13.5,4.7,14.8c5.4,4.9,11.5,9.1,18,12.4c4.1,2.1,8.6,4,11.4,7.6c2.3,3,3.1,6.7,4,10.3c1.8,7.4,3.2,14.9,4.2,22.5
	c2.6,23.7-3.2,48.4,3.7,71.2c1.4,4.4,3.1,8.7,5.1,12.9c4.8,51.1,13.4,113.6,13.4,113.6l37.1,17.2c0,0,1.9,4-12.4,4.8
	C416.9,466.5,381,464.9,375,463.4z"/>
<path class="st10" d="M318.6,237.5"/>
<path class="st12" d="M318.8,325.7c-2.4-3.3-2.4-7.7-2.3-11.7c0.7-25.4,1.4-50.8,2.1-76.2c0.3-9.7,1.2-20.7,8.8-26.6
	c6.8-5.3,17.9-4,23.2,2.9c2,2.8,3.4,6,4,9.4c0.8,4.2,1.2,8.5,1.3,12.7c1.5,29.5,3,59,4.5,88.4c0.3,4.2,0.2,8.5-0.3,12.7
	c-2.1,0-20.7,0.1-31-5c0,0-0.5-1-0.6-0.2l-0.5-0.5C324.9,328.5,321.3,329.1,318.8,325.7L318.8,325.7z"/>
<path class="st1" d="M306.3,320.6c-0.3,0-0.7-0.1-0.9-0.3c-0.3-0.2-0.4-0.5-0.5-0.8c-6.1-30.5-3.6-60.4-2.8-70.2
	c0-0.6,0.1-1.1,0.1-1.5c0.9-11.3,3.8-22.1,6.5-31.2c2.5-8.3,6.1-13.6,10.6-20.3l1.5-2.2c1.4-2.1,2.6-4.3,3.7-6.6
	c1.7-3.7,3.9-7.1,6.5-10.2c2.8-3,6.4-5.1,10.3-6.3c3.9-1.1,8.1-1.1,12.1,0s7.5,3.2,10.3,6.2s4.8,6.7,5.6,10.7c0.3,1.5,0.5,3,0.7,4.4
	c0.1,2.4,0.7,4.8,1.6,7c1.2,2.6,3.4,4.5,5.7,6.6c1,0.9,2.1,1.9,3.1,2.9c10.7,11.1,7.5,24.1,4.3,36.6c-1.1,4-2,8.1-2.6,12.2
	c-2.3,17.3-2.3,35.8-0.2,56.7v0.6c0,0.2-0.1,0.4-0.3,0.5c-0.1,0.2-0.3,0.3-0.4,0.4c-0.2,0.1-0.4,0.2-0.6,0.2s-0.4,0-0.6-0.1
	s-0.4-0.2-0.5-0.3c-0.1-0.1-0.3-0.3-0.4-0.5s-0.1-0.4-0.1-0.6c-2.1-21.1-2.1-39.9,0.2-57.4c0.6-4.2,1.5-8.4,2.6-12.5
	c3.1-12.3,6-24-3.6-33.9c-0.9-0.9-1.9-1.9-2.9-2.7c-2.4-2.2-4.9-4.4-6.4-7.5c-1-2.5-1.7-5.2-1.8-7.9c-0.1-1.4-0.3-2.8-0.6-4.1
	c-0.8-3.5-2.5-6.7-4.9-9.3c-2.5-2.6-5.6-4.5-9-5.4c-3.4-1-7.1-0.9-10.5,0c-3.4,1-6.6,2.9-9,5.5c-2.5,2.9-4.5,6.1-6.1,9.6
	c-1.2,2.4-2.5,4.7-3.9,6.9l-1.5,2.2c-4.4,6.4-7.9,11.5-10.2,19.5c-2.7,8.9-5.5,19.6-6.4,30.6c0,0.4-0.1,0.9-0.1,1.5
	c-0.8,9.7-3.2,39.3,2.8,69.4v0.6c0,0.2-0.1,0.4-0.2,0.5c-0.1,0.2-0.2,0.3-0.4,0.4c-0.2,0.1-0.3,0.2-0.5,0.2h-0.3L306.3,320.6z"/>
<path class="st1" d="M395.4,446c-0.3,0-0.7-0.1-0.9-0.3c-0.3-0.2-0.4-0.5-0.5-0.8c-7.6-41.3-13.9-101.5-14.8-140.1
	c0-0.4,0.2-0.7,0.4-0.9c0.3-0.2,0.6-0.4,1-0.4s0.7,0.1,1,0.4s0.4,0.6,0.5,0.9c0.8,38.5,7.2,98.5,14.7,139.6v0.6
	c0,0.2-0.1,0.4-0.2,0.5c-0.1,0.2-0.2,0.3-0.4,0.4c-0.2,0.1-0.3,0.2-0.5,0.2h-0.3L395.4,446z"/>
<path class="st1" d="M419,468.1c-2.4,0-4.9-0.2-7.4-0.4c-4-0.4-8.1-0.7-12.1-1.1c-8-0.7-16.2-1.4-24.3-2.3c-7.5-0.8-7.7-4.1-8-10
	v-0.6c-0.2-4.9-0.1-9.7,0.3-14.5c0.1-1.4,0.2-2.7,0.2-4.1c1.5-32.4-4.3-71.2-8.8-97.5V337c0-0.2,0.1-0.4,0.2-0.5
	c0.1-0.2,0.2-0.3,0.4-0.4c0.2-0.1,0.3-0.2,0.5-0.2h0.6c0.2,0,0.4,0.1,0.5,0.2c0.2,0.1,0.3,0.3,0.4,0.4c0.1,0.2,0.2,0.4,0.2,0.6
	c9.5,55.2,9.6,82.4,8.9,98.1c0,1.4-0.1,2.8-0.2,4.1c-0.4,4.7-0.4,9.5-0.3,14.2v0.6c0.3,5.9,0.4,6.8,5.5,7.3c8,0.9,16.3,1.6,24.2,2.3
	l12.1,1.1c7,0.6,13.9,0.9,18.9-2.6c-12.1-6.2-24.7-11.5-37.6-15.9c-0.2-0.1-0.3-0.2-0.5-0.3c-0.1-0.1-0.3-0.3-0.3-0.4
	c-0.1-0.2-0.1-0.4-0.1-0.5c0-0.2,0-0.4,0.1-0.6s0.2-0.3,0.3-0.5c0.1-0.1,0.3-0.3,0.4-0.3c0.2-0.1,0.4-0.1,0.5-0.1
	c0.2,0,0.4,0,0.6,0.1c13.1,4.4,26,9.8,38.3,16.2c0.7,0.3,1.3,0.8,1.5,1.5c0.2,0.6,0.1,1.3-0.1,1.8c-0.2,0.6-0.7,1.1-1.2,1.4
	C428.6,467.3,424,468.1,419,468.1L419,468.1z"/>
<path class="st1" d="M293.5,446h-0.3c-0.2,0-0.4-0.1-0.5-0.2c-0.2-0.1-0.3-0.2-0.4-0.4c-0.1-0.2-0.2-0.3-0.2-0.5v-0.6
	c7.5-41.3,11.7-83.2,12.8-125.1c0-0.4,0.2-0.7,0.4-1c0.3-0.3,0.6-0.4,1-0.4l0,0c0.4,0,0.7,0.2,1,0.4c0.3,0.3,0.4,0.6,0.4,1
	c-1.1,42.1-5.3,84.1-12.8,125.6c-0.1,0.3-0.2,0.6-0.5,0.8C294.2,445.8,293.8,446,293.5,446L293.5,446L293.5,446z"/>
<path class="st1" d="M269.9,468.1c-4.9,0-9.6-0.8-13.5-3.6c-0.6-0.3-1-0.8-1.2-1.4s-0.3-1.2-0.1-1.8c0.3-0.7,0.8-1.3,1.5-1.5
	c12.4-6.3,25.2-11.8,38.3-16.2c0.2-0.1,0.4-0.1,0.6-0.1s0.4,0.1,0.5,0.1c0.2,0.1,0.3,0.2,0.4,0.3c0.1,0.1,0.2,0.3,0.3,0.5
	c0.1,0.2,0.1,0.4,0.1,0.6s-0.1,0.4-0.1,0.5c-0.1,0.2-0.2,0.3-0.3,0.4c-0.1,0.1-0.3,0.2-0.5,0.3c-12.9,4.4-25.5,9.7-37.7,15.9
	c5,3.5,11.8,3.2,18.9,2.6l12.1-1.1c7.9-0.7,16.2-1.4,24.2-2.3c5.1-0.6,5.1-1.5,5.5-7.3v-0.6c0.2-4.7,0.1-9.5-0.3-14.2
	c-0.1-1.4-0.2-2.8-0.2-4.1c-0.7-14.5-0.4-47.2,9.2-103.1c0.1-0.4,0.3-0.7,0.6-0.9c0.3-0.2,0.7-0.3,1-0.2c0.4,0.1,0.7,0.3,0.9,0.6
	c0.2,0.3,0.3,0.7,0.3,1c-9.6,55.7-9.9,88.1-9.2,102.5c0.1,1.4,0.1,2.7,0.2,4.1c0.4,4.8,0.5,9.7,0.3,14.5v0.6c-0.3,5.9-0.5,9.2-8,10
	c-8.1,0.9-16.3,1.6-24.3,2.3c-4,0.3-8.1,0.7-12.1,1.1C274.8,467.9,272.4,468.1,269.9,468.1L269.9,468.1z"/>
<path class="st1" d="M360.3,338.7c-11.7-0.3-31.8-4.7-40.9-10.3c-0.2-0.1-0.3-0.2-0.5-0.4c-0.1-0.2-0.2-0.3-0.3-0.5
	c-0.1-0.2-0.1-0.4,0-0.6c0-0.2,0.1-0.4,0.2-0.6s0.2-0.3,0.4-0.4c0.2-0.1,0.4-0.2,0.5-0.2h0.6c0.2,0,0.4,0.1,0.5,0.2
	c7.2,4.4,25.6,9.5,39.5,9.8c0.4,0,0.8,0.2,1,0.4c0.3,0.3,0.4,0.6,0.4,1s-0.2,0.7-0.4,1C361.1,338.6,360.8,338.7,360.3,338.7
	L360.3,338.7L360.3,338.7z"/>
<path class="st1" d="M424,466.5c-0.2,0-0.5-0.1-0.7-0.2c-9.9-5.3-20.3-9.6-31-12.7c-0.2-0.1-0.3-0.1-0.5-0.3l-0.4-0.4
	c-0.1-0.2-0.1-0.3-0.2-0.5v-0.6c0.1-0.2,0.1-0.3,0.3-0.5l0.4-0.4c0.2-0.1,0.3-0.1,0.5-0.2c0.2,0,0.4,0,0.6,0.1
	c11,3.2,21.6,7.5,31.6,13c0.3,0.2,0.6,0.5,0.7,0.9s0.1,0.8-0.1,1.1c-0.1,0.2-0.3,0.4-0.5,0.6C424.5,466.5,424.2,466.5,424,466.5
	L424,466.5z"/>
<path class="st1" d="M265.6,466c-0.3,0-0.6-0.1-0.9-0.3c-0.3-0.2-0.4-0.5-0.5-0.8s0-0.7,0.1-0.9c0.1-0.3,0.4-0.5,0.7-0.7
	c8.8-3.9,18-6.8,27.4-8.6c0.2-0.1,0.4-0.1,0.6,0c0.2,0,0.4,0.1,0.6,0.2s0.3,0.2,0.4,0.4c0.1,0.2,0.2,0.3,0.2,0.5v0.6
	c0,0.2-0.1,0.4-0.2,0.5c-0.1,0.2-0.3,0.3-0.4,0.4c-0.2,0.1-0.4,0.2-0.6,0.2c-9.2,1.8-18.2,4.6-26.8,8.4
	C266,465.9,265.8,465.9,265.6,466L265.6,466L265.6,466z"/>
<path class="st11" d="M389,302.2c0,0-4.7-4.4-1.7-5.3s10-2.1,13.5,0c0,0,24.8-19,17.5-22.8c0,0-21.6-22.6-33.3-39
	c-2.6-3.6-4.9-7.5-6.9-11.5c12.8,15.3,32.6,26.8,42.3,44c2.2,3.8,4.5,8.4,9.3,9.3c-1.3,1.3-3.9,1-5.6,2c-1.2,0.9-2.2,2.1-2.7,3.5
	c-3.2,6.4-7.9,11.9-13.6,16.2c-1.1,0.9-2.2,1.6-3.5,2.1c-1.6,0.4-3.2,0.7-4.9,0.9c-5.9,0.9-11,4.8-12.9,9.8c1.2,0.4,2.6,0.4,3.8,0.1
	c-0.4,0.3-0.7,0.6-0.9,1c-1.4,0.6-5.3,1.9-6.2-1.3C382,307.1,389,302.2,389,302.2L389,302.2z"/>
<path class="st10" d="M389.5,316.5c0.7,0.8,1.7,1.3,2.8,1.4c1.1,0.2,2.1,0,3.1-0.5c-2,2.3-3.4,4.9-4.2,7.8c-0.7-3.5,1.1-2-3-3.9
	c-3.2-1.4-0.8-5.7,0.7-7.9c-0.1,0.5-0.2,1.1-0.1,1.6C389,315.6,389.2,316.1,389.5,316.5L389.5,316.5z"/>
<path class="st10" d="M406.3,318.2c-2.1,3.9-8.4,10.1-12.3,9.8c-3.9-0.3-2.8-6.3-2.8-6.3s-1.1,1.3-3.7,0c-2.6-1.3,2-8.9,2-8.9
	s-2.1,0.5-2.5,0.1c-0.4-0.4-0.4-1.7-0.4-1.7l0,0h0c1.9-4.9,7-8.8,12.9-9.8c1.6-0.1,3.3-0.4,4.9-0.9c1.3-0.5,2.5-1.2,3.5-2.1
	c5.7-4.3,10.4-9.8,13.6-16.2c0.5-1.4,1.5-2.7,2.7-3.5c1.7-0.9,3.7-0.5,5-1.9c-4.8-0.9-7.1-5.6-9.4-9.4
	c-9.7-17.2-24.4-22.6-41.6-44.1c-5.5-11.6-5-19.8,5.7-12.7c14.1,9.2,44.3,45.3,48.7,54.7c4.4,9.4,6.8,11.6-1.3,20.8
	c-6,6.7-12.7,12.9-19.8,18.5C411.4,304.7,408.4,314.3,406.3,318.2z"/>
<path class="st1" d="M394.1,328.5c-1.1,0-2.2-0.3-3.2-0.9c-0.7-0.5-1.2-1.3-1.5-2.1c-0.3-0.8-0.3-1.7-0.1-2.5h-0.9
	c-0.9-0.1-1.7-0.6-2.3-1.2c-0.6-0.7-1-1.5-1-2.4c0-1.4,0.4-2.7,1.2-3.9l0.5-0.8c-1.4,0.1-2.8-0.3-3.9-1.2c-0.6-0.6-1.1-1.4-1.3-2.2
	c-0.2-0.8-0.1-1.7,0.2-2.6c0.5-1.4,1.4-2.6,2.5-3.5c1.6-1.5,3.4-2.9,5.4-3.9c0.3-0.2,0.7-0.2,1.1-0.1s0.6,0.3,0.8,0.7
	c0.2,0.3,0.2,0.7,0.1,1c-0.1,0.4-0.3,0.7-0.6,0.9c-1.7,1-3.4,2.1-4.8,3.5c-0.7,0.6-1.3,1.4-1.7,2.3c-0.1,0.3-0.1,0.6-0.1,0.9
	c0.1,0.3,0.2,0.6,0.4,0.8c0.3,0.2,0.7,0.4,1.1,0.5s0.8,0.1,1.2-0.1c1-0.3,2-0.7,2.9-1.4c0.3-0.2,0.6-0.3,1-0.2
	c0.3,0,0.7,0.2,0.9,0.5c0.2,0.3,0.4,0.6,0.4,0.9s-0.1,0.7-0.3,0.9c-1.2,1.4-2.2,2.8-3.1,4.4c-0.4,0.7-0.7,1.4-0.8,2.2
	c0,0.2,0.1,0.5,0.3,0.6c0.2,0.2,0.4,0.3,0.6,0.4c0.5,0,1-0.1,1.4-0.3c1.1-0.4,2.1-0.9,3.1-1.5l0.8-0.5c0.3-0.2,0.7-0.3,1.1-0.2
	c0.4,0.1,0.7,0.3,0.9,0.6c0.2,0.3,0.3,0.7,0.2,1.1c-0.1,0.4-0.3,0.7-0.6,0.9l-0.9,0.6c-1,0.6-1.8,1.3-2.5,2.2
	c-0.3,0.3-0.4,0.8-0.4,1.2s0.2,0.8,0.5,1.1c0.5,0.3,1.1,0.4,1.8,0.4s1.2-0.1,1.8-0.4c2.9-1.2,5.1-3.5,7-5.7c1.3-1.3,2.4-2.8,3.4-4.3
	c0.7-1.4,1-2.9,1-4.4s0.5-3.7,1.3-5.3c1.1-1.8,3.2-3,5.2-4.3c0.9-0.5,1.7-1.1,2.6-1.7c5.5-4.4,10-9.8,14.3-15.1l1.1-1.3
	c1.6-1.9,3.3-4.2,3.5-6.6s-1-4.7-2.4-7.1c-13.3-22.7-30.9-42.6-51.7-58.6c-1-0.9-2.1-1.6-3.4-2c-0.2-0.1-0.4-0.1-0.5-0.3l-0.4-0.4
	c-0.1-0.2-0.1-0.3-0.2-0.5c0-0.2,0-0.4,0.1-0.6c0.1-0.4,0.4-0.7,0.7-0.9c0.3-0.2,0.7-0.2,1.1-0.1c1.6,0.5,3,1.4,4.3,2.5
	c21.1,16.2,38.9,36.4,52.4,59.4c1.6,2.7,3.1,5.6,2.8,8.8c-0.3,3.2-2.2,5.7-4.2,8.1l-1.1,1.3c-4.4,5.4-9,10.9-14.7,15.5
	c-0.9,0.7-1.9,1.4-2.9,1.9c-1.6,1-3.5,2.2-4.2,3.4c-0.6,1.3-0.9,2.7-0.9,4.1c0,2-0.5,3.9-1.4,5.7c-1.1,1.7-2.4,3.3-3.8,4.8
	c-2,2.3-4.6,5.1-8.1,6.4C396.3,328.3,395.2,328.5,394.1,328.5L394.1,328.5L394.1,328.5z"/>
<path class="st1" d="M420.2,277.7c-0.2,0-0.4,0-0.6-0.1s-0.3-0.2-0.5-0.3c-10.7-11.2-32.2-35.8-41.8-47.7c-0.1-0.1-0.2-0.3-0.3-0.5
	c-0.1-0.2-0.1-0.4-0.1-0.6s0.1-0.4,0.2-0.6c0.1-0.2,0.2-0.3,0.4-0.5c0.2-0.1,0.3-0.2,0.5-0.3s0.4-0.1,0.6,0c0.2,0,0.4,0.1,0.6,0.2
	c0.2,0.1,0.3,0.2,0.4,0.4c9.6,11.9,31,36.3,41.7,47.5c0.2,0.2,0.3,0.5,0.4,0.7c0,0.3,0,0.6-0.1,0.8c-0.1,0.3-0.3,0.5-0.5,0.6
	C420.8,277.6,420.5,277.7,420.2,277.7L420.2,277.7z"/>
<path class="st1" d="M400.8,298.4c-0.3,0-0.6-0.1-0.8-0.3s-0.4-0.4-0.5-0.7c-0.1-0.3-0.1-0.6,0-0.9s0.2-0.5,0.5-0.7
	c7-5.7,13.3-12.1,19-19.1c0.1-0.2,0.3-0.3,0.4-0.4c0.2-0.1,0.4-0.2,0.5-0.2c0.2,0,0.4,0,0.6,0.1s0.4,0.1,0.5,0.3l0.4,0.4
	c0.1,0.2,0.1,0.4,0.2,0.5c0,0.2,0,0.4-0.1,0.6s-0.1,0.4-0.3,0.5c-5.8,7.1-12.3,13.6-19.4,19.5C401.5,298.2,401.1,298.4,400.8,298.4
	L400.8,298.4z"/>
<path class="st1" d="M389.4,303.6c-0.4,0-0.7-0.1-1-0.4c-1.4-1.2-2.5-2.8-3.2-4.5c-0.1-0.3-0.2-0.6-0.2-0.9s0-0.6,0.2-0.9
	s0.4-0.6,0.7-0.9c0.3-0.2,0.6-0.4,1-0.5c4.6-1.7,9.7-1.8,14.4-0.2c0.3,0.1,0.6,0.4,0.8,0.7c0.2,0.3,0.2,0.7,0,1.1
	c-0.1,0.3-0.4,0.6-0.7,0.8c-0.3,0.2-0.7,0.2-1.1,0.1c-3.9-1.3-8.2-1.3-12.1,0c0.5,1.1,1.3,2.1,2.2,3c0.1,0.1,0.3,0.3,0.3,0.5
	c0.1,0.2,0.1,0.4,0.1,0.5c0,0.2,0,0.4-0.1,0.6s-0.2,0.3-0.3,0.5c-0.1,0.2-0.3,0.3-0.5,0.4C389.9,303.5,389.6,303.5,389.4,303.6
	L389.4,303.6L389.4,303.6z"/>
<path class="st13" d="M281,123.6c0,0-4.3-4-6.6-12.6s-2.7-21.2,5.2-30.9c7.9-9.7,15.5-8.9,15.5-8.9S321,91.8,281,123.6"/>
<path class="st0" d="M298.5,186.6c14.8,6.4,37.8,11.9,36.6,14.1c-1.2,2.1-43.1-44.5-48.7-40.6s-1.5,6.6,26.4,21.6
	c27.8,15,60.8,5.1,80.7-16.2c19.9-21.2,20.1-62.9,22.1-75.2s3.1-9.8,4.5-12.7c-2.5-1.6-4.9-3.2-7.2-4.9l-8.2-5.8
	c-2.1-1.6-4.4-3-6.9-4.1c-3.9-1.6-8.1-1.9-12.3-2.2l-19.3-1.2c-0.4,0-0.9,0-1.2-0.3c-0.7-0.5-0.6-1.7-0.2-2.5c1.2-2.5,3.8-4,6.3-5.3
	s4.9-2.3,7.3-3.4c-3,0.5-5.5,0.8-7,1c-6.2,0.6-22.2,0.9-35.4,2.8c-7.7,1-14.8,4.7-20.1,10.4c-4.5,4-32.4,42-37.6,49.9
	s-9,30.1-9,30.1c-6.5-0.3-5.9,7-5.9,7c-0.7,3.4,7.1,17.4,10.8,20.9C279.8,175.2,287,181.6,298.5,186.6L298.5,186.6z"/>
<path class="st14" d="M429.5,53.2c-1.3-1.8-3-3.3-4.9-4.4c-0.3,1-0.3,2,0.2,3c1.4,3.3,3.9,5.5-0.4,8.1c-4.3,2.6-1.2,3.5-1.4,6
	c-0.2,2.5-2.2-0.2-3,4.2c-0.9,4.4,1.6,4.5,0.2,7.4c2.4,1.6,5,3,7.6,4.2C430.4,70.7,432.9,58.1,429.5,53.2L429.5,53.2z"/>
<path class="st15" d="M364.7,56.4c-0.4,0.8-0.5,2,0.2,2.5c0.4,0.2,0.8,0.3,1.2,0.3l19.4,1.2c4.2,0.3,8.5,0.6,12.3,2.2
	c2.4,1.1,4.7,2.5,6.9,4.1l8.2,5.8c2.3,1.7,4.8,3.4,7.2,4.9c1.4-2.9-1.2-3-0.2-7.4c0.9-4.4,2.9-1.7,3-4.2c0.2-2.5-2.9-3.4,1.4-6
	s1.8-4.8,0.4-8.1c-0.4-0.9-0.5-2-0.2-3c-5.6-3.4-13.1-3.7-18.4-4.2s-18.8,1.7-27.9,3.1c-2.5,1.1-4.9,2.2-7.3,3.4
	C368.5,52.4,365.9,53.9,364.7,56.4L364.7,56.4z"/>
<path class="st13" d="M415.7,90.2c-2.1,12.2-2.2,53.9-22.1,75.2s-52.9,31.2-80.7,16.2s-32-17.6-26.4-21.6s32.9,8.2,37.7,7.5
	c2.4-0.4-13.8-12.5-43.8-14.9c-12.4-1-13.8,1.4-13.5,5.3c7.5,19.7,26.1,24.3,44.4,34.3c28.6,15.6,87.9,11.1,105.4-18.3
	c6.4-10.7,14.9-21.7,3.5-27.6c1.9-8.2,2.1-39.4,3.9-49.2c0.7-3.5,2.2-9.2,3.7-15.4c-2.6-1.2-5.2-2.6-7.6-4.2
	C418.8,80.4,417.8,78,415.7,90.2L415.7,90.2z"/>
<path class="st13" d="M337.4,97.5c-1.9,12.5-0.6,29.3,10.7,41.2c11.3,11.9,28.3,15.6,38.3,11.3s16.9-14.9,11-36.3
	C391.5,92.2,342.1,66.3,337.4,97.5z"/>
<path class="st15" d="M333.9,101.2c-0.9,7,6.7,14.5,11.4,6.4s9.2-19.3,27.2-18.9c17.9,0.5,25.8,18.6,26.9,21.5s1.5,11.6,0.2,16.4
	c-1.3,4.8,7.1,16.1,10.4-4.7c3.5-22.7-4.7-38.3-24-47.3C369.4,66.8,337.5,73.6,333.9,101.2z"/>
<path class="st13" d="M352.2,136.6c-7.7-7.2-11.9-18-11.3-25.5c0.5-7.5,10.2-24.3,30.9-22.4c6.7,0.5,13.1,3.2,18.2,7.6
	c5.1,4.5,8.5,10.5,9.8,17.1c0.8,5,0.1,10.1-2,14.7s-5.5,8.5-9.7,11.2c-5.3,3.6-11.6,5.3-18,4.9c-6.4-0.4-12.4-2.9-17.2-7.1
	L352.2,136.6L352.2,136.6z"/>
<path class="st1" d="M371.6,145.2c-7.2,0-14.2-2.6-19.6-7.4c-0.2-0.2-0.4-0.4-0.6-0.5c-7.3-6.9-12.2-17.9-11.7-26.3
	c0.3-4.4,3.4-11.4,9.6-16.7c3.1-2.6,6.7-4.5,10.5-5.7c3.9-1.1,7.9-1.5,11.9-1c7,0.5,13.6,3.3,18.8,7.9c5.2,4.6,8.8,10.8,10.1,17.7
	c0.8,5.2,0.1,10.5-2.1,15.3s-5.7,8.8-10.1,11.7C383.5,143.5,377.6,145.2,371.6,145.2L371.6,145.2L371.6,145.2z M368.5,89.6
	c-6.5,0-12.8,2.1-17.8,6.3c-5.7,4.8-8.6,11.3-8.9,15.2c-0.5,6.7,3.2,17.4,11,24.7c0.2,0.2,0.4,0.3,0.6,0.5c4.6,4,10.5,6.5,16.6,6.8
	c6.1,0.4,12.2-1.3,17.4-4.7c4.1-2.6,7.4-6.3,9.4-10.7c2-4.4,2.7-9.3,1.9-14.1c-1-4.9-3.3-9.5-6.5-13.4c-5.1-6.1-12-9.7-20.6-10.5
	C370.6,89.6,369.5,89.6,368.5,89.6L368.5,89.6z"/>
<path class="st16" d="M287.2,72.8c0,0,6.9-15.8,16.1-16.9c9.2-1.1,16.4,3.5,15,17.5c-1.5,13.9-3.5,19.7-8.5,24
	c-5,4.3-9.9,10.4-12,6.4c0,0,6-13.2,4.2-20.2S297.5,69.6,287.2,72.8L287.2,72.8z"/>
<path class="st13" d="M276.9,110.5c0,0-4.8,13.8-2.5,16.8c2.2,3,12.9-7.8,13.8-11.8C289,111.5,276.9,110.5,276.9,110.5z"/>
<path class="st17" d="M364.1,201.1c-0.3,0-0.5-0.1-0.7-0.3s-0.3-0.4-0.3-0.7s0.1-0.5,0.2-0.7c0.2-0.2,0.4-0.3,0.6-0.4
	c0.2,0,20-2,35.5-11.7c14.4-9,25.8-23.7,25.3-32.8c-0.1-1.6-0.6-3.1-1.5-4.4c-0.9-1.3-2.2-2.3-3.6-2.9c-0.2-0.1-0.4-0.3-0.5-0.5
	s-0.1-0.4-0.1-0.6c0.8-5.5,1.2-11.1,1.3-16.7c0.3-10.7,0.7-24.1,5.3-42.5c7-28.5,5.2-31.6,1.2-35.2c-10-9-31.7-5.4-44.7-3.2
	l-2.4,0.4c-6.8,0.9-13.6,1.4-20.5,1.4c-7.9,0.2-15.3,0.4-20.7,1.7c-10.1,2.5-21.5,10-21.6,10.1c-0.1,0-0.2,0-0.4,0.2h-0.4
	c-0.1,0-0.3,0-0.4-0.2l-0.3-0.3c-0.1,0-0.1-0.2-0.2-0.4V61c0,0,0.1-0.3,0.2-0.4l0.3-0.3c0.5-0.3,11.8-7.9,22.3-10.4
	c5.6-1.4,13.2-1.6,21.1-1.8c6.8,0,13.5-0.5,20.2-1.4l2.4-0.4c13.4-2.2,35.7-5.9,46.4,3.7c5.1,4.4,6.4,9-0.5,37.2
	c-4.4,18.3-4.8,31.5-5.2,42.1c0,5.4-0.4,10.9-1.2,16.2c1.6,0.8,3,2.1,4,3.6s1.5,3.3,1.6,5.1c0.3,5-2.4,11.3-7.6,18
	c-5.2,6.6-11.5,12.2-18.7,16.7C384.6,199,364.4,201.1,364.1,201.1L364.1,201.1L364.1,201.1z"/>
<path class="st17" d="M309.4,98.4c-0.3,0-0.5,0-0.7-0.3c-0.2-0.2-0.3-0.4-0.3-0.7s0.1-0.5,0.2-0.7c9.1-10.5,8.4-25.1,8-29.3
	s-2.2-7.6-5.1-9.5c-1.3-0.8-2.9-1.3-4.4-1.4c-1.6,0-3.1,0-4.6,0.7c-7.5,2.6-14.2,16-14.3,16.1c-0.1,0.2-0.3,0.4-0.6,0.5
	c-0.2,0-0.5,0-0.7,0s-0.4-0.3-0.5-0.6c-0.1-0.2-0.1-0.5,0-0.7c0.3-0.6,7.1-14.3,15.4-17.1c1.8-0.7,3.6-0.9,5.5-0.8
	c1.9,0.2,3.7,0.8,5.3,1.7c3.4,2.2,5.6,6.1,6.1,11c0.4,4.4,1.2,19.8-8.5,30.9c-0.1,0-0.2,0.2-0.4,0.3c0-0.1-0.3,0-0.4,0V98.4z"/>
<path class="st1" d="M411.5,117c-0.1,0-0.3,0-0.4,0s-0.2,0-0.3-0.2c-0.1,0-0.2-0.2-0.2-0.3s-0.1-0.3-0.1-0.4
	c0.5-13-3.1-22.5-12.5-32.7c-8.8-9.6-27-14.9-44.5-6.4c-5,2.4-9.4,6-12.6,10.4s-5.4,9.7-6.1,15.2c0,0.3-0.2,0.5-0.4,0.7
	c-0.2,0.2-0.5,0.2-0.7,0.2c-0.3,0-0.5,0-0.7-0.3c-0.2-0.2-0.3-0.4-0.3-0.7c0.8-5.9,3-11.4,6.5-16.2c3.5-4.8,8.1-8.6,13.4-11.2
	c18.5-9,37.6-3.4,47,6.8c9.6,10.5,13.5,20.8,13,34.2c0,0.3-0.1,0.5-0.3,0.7C412,117,411.8,117.1,411.5,117L411.5,117z"/>
<path class="st17" d="M269.6,143.2c-0.1,0-0.3,0-0.4-0.1s-0.2-0.1-0.3-0.2c-0.1-0.1-0.2-0.2-0.2-0.3s-0.1-0.3-0.1-0.4
	c0.4-10.9,5.5-27,5.7-27.6c0,0,0.1-0.2,0.2-0.3c0.1,0,0.2-0.2,0.3-0.2c0.1,0,0.3,0,0.4,0h0.4c0.3,0,0.5,0.3,0.6,0.5s0.2,0.5,0.1,0.8
	c-0.1,0.2-5.3,16.4-5.6,27c0,0.1,0,0.3-0.1,0.4c-0.1,0.1-0.1,0.2-0.2,0.3s-0.2,0.2-0.3,0.2C269.9,143.3,269.8,143.3,269.6,143.2
	L269.6,143.2L269.6,143.2z"/>
<path class="st17" d="M336.1,201.7h-0.3c-9.9-2.7-41.3-13.4-54.8-23.4c-6.2-4.7-11.5-10.6-15.3-17.3c-3.5-6.1-4.8-11.6-3.6-14.7
	c1.7-4.5,5.3-6.2,21.1-4c42.5,5.4,56.5,11.9,64.8,15.7c1.7,0.8,3.4,1.5,5.1,2.2c22.5,7.4,31,8.4,44.1,0.2c0.2-0.1,0.5-0.1,0.7-0.1
	c0.2,0.1,0.5,0.2,0.6,0.4s0.2,0.5,0.1,0.7c0,0.3-0.2,0.5-0.4,0.6c-13.7,8.6-23,7.6-45.9,0c-1.8-0.7-3.6-1.4-5.3-2.2
	c-8.2-3.8-22-10.1-64.2-15.5c-17-2.3-18,0.4-19,2.7c-1.9,4.9,5.1,19.8,18.3,29.6c13.2,9.7,44.4,20.4,54.2,23.1
	c0.3,0.1,0.5,0.2,0.6,0.5c0.1,0.2,0.2,0.5,0.1,0.8c-0.1,0.2-0.2,0.4-0.4,0.5C336.6,201.7,336.4,201.7,336.1,201.7L336.1,201.7
	L336.1,201.7z"/>
<path class="st1" d="M304.2,122.8c0,0-5.2,1.5-4.8,3.2C299.7,127.7,302.1,128.4,304.2,122.8z"/>
<path class="st1" d="M316.5,124.7c0,0-0.2,5,1.6,5.4C319.9,130.4,320.5,129.1,316.5,124.7z"/>
<path class="st13" d="M392.3,121.8c3-11.1-4.2-22.8-16.2-26S352,99,349,110.1s4.2,22.8,16.2,26C377.1,139.4,389.3,133,392.3,121.8z"
	/>
<path class="st1" d="M371.5,138c-2.2,0-4.4-0.3-6.6-0.9c-12.5-3.4-20.1-15.6-16.9-27.3s15.8-18.4,28.4-15.1
	c5.9,1.6,11.1,5.3,14.3,10.5c1.6,2.5,2.6,5.2,3.1,8.1c0.4,2.9,0.3,5.8-0.5,8.7l0,0c-0.8,2.8-2.1,5.4-4,7.7c-1.8,2.3-4.1,4.1-6.7,5.4
	C379.2,137.1,375.3,138,371.5,138L371.5,138L371.5,138z M369.8,96c-9.2,0-17.5,5.7-19.9,14.4c-2.9,10.5,4.1,21.7,15.5,24.8
	c5.4,1.5,11.2,0.9,16.2-1.7c2.4-1.2,4.4-2.9,6.1-4.9c1.7-2.1,2.9-4.4,3.6-7l0,0c0.7-2.6,0.8-5.2,0.4-7.8c-0.4-2.6-1.3-5.1-2.8-7.3
	c-3-4.7-7.7-8.2-13.1-9.6C373.8,96.3,371.8,96,369.8,96L369.8,96L369.8,96z"/>
<path class="st18" d="M388.4,118.1c1-8.8-6.3-16.8-16.2-17.9c-9.9-1.1-18.7,5.1-19.7,13.9s6.3,16.8,16.2,17.9
	S387.4,126.9,388.4,118.1z"/>
<path class="st1" d="M371,133.1c-0.8,0-1.6,0-2.4-0.1c-4.9-0.5-9.5-2.8-12.8-6.4c-1.6-1.7-2.8-3.7-3.5-5.8c-0.7-2.2-1-4.5-0.8-6.8
	c1-9.4,10.4-16,20.9-14.8c4.9,0.5,9.5,2.8,12.8,6.4c1.6,1.7,2.8,3.7,3.5,5.8c0.7,2.2,1,4.5,0.7,6.8s-1,4.5-2.2,6.5s-2.8,3.6-4.7,4.9
	C379.1,131.9,375.1,133.2,371,133.1L371,133.1L371,133.1z M369.9,101.1c-8.4,0-15.6,5.5-16.4,13.1c-0.2,2,0,4,0.7,5.9
	c0.6,1.9,1.7,3.6,3.1,5.1c3,3.2,7.1,5.2,11.5,5.7s8.8-0.6,12.5-3.1c1.7-1.1,3.1-2.6,4.2-4.3c1.1-1.7,1.7-3.6,1.9-5.6
	c0.2-2,0-4-0.6-5.9s-1.7-3.6-3.1-5.1c-3-3.3-7.2-5.3-11.6-5.7c-0.8,0-1.5,0-2.2,0l0,0V101.1z"/>
<path class="st13" d="M284.8,120.6c-2.4-2-4.3-4.5-5.6-7.4s-2-5.9-1.9-9c-0.1-11.1,5.2-18.8,12.9-24.4c10.2-7.3,11.5-1.4,11.5-1.4
	S308.3,96.1,284.8,120.6z"/>
<path class="st1" d="M284.8,121c-0.1,0-0.2,0-0.2,0c-2.4-2.1-4.3-4.7-5.7-7.6c-1.3-2.9-2-6.1-2-9.2c-0.1-10,4.3-18.3,13.1-24.7
	c4.4-3.2,7.7-4.3,10-3.5c0.5,0.2,1,0.5,1.3,0.9c0.4,0.4,0.6,0.9,0.8,1.4c0.2,0.4,1.6,4.8,0.4,12.1c-1.2,6.9-5.2,17.8-17.4,30.6
	C285.1,121,285.1,121,284.8,121L284.8,121L284.8,121z M298.5,76.4c-1.6,0-4.1,0.8-7.9,3.6c-8.7,6.3-12.9,14.2-12.8,24.1
	c0,3,0.6,6,1.8,8.7c1.2,2.7,3,5.2,5.2,7.2c6.6-6.9,14.8-17.7,16.9-29.8c1.3-7.3-0.3-11.7-0.3-11.8c-0.1-0.4-0.3-0.8-0.6-1.1
	c-0.3-0.3-0.6-0.5-1-0.7C299.3,76.6,298.9,76.4,298.5,76.4L298.5,76.4L298.5,76.4z"/>
<path class="st1" d="M294.9,71.2c-0.1,0-0.3,0-0.4,0s-0.2,0-0.3-0.2c-0.1,0-0.2-0.2-0.2-0.3s-0.1-0.3-0.1-0.4s0-0.3,0.1-0.4
	c5.4-11.8,12.5-15.1,12.8-15.2c0.1,0,0.3,0,0.4,0s0.3,0,0.4,0s0.2,0,0.3,0.2c0.1,0,0.2,0.2,0.2,0.3c0.1,0.2,0.1,0.5,0,0.8
	s-0.3,0.5-0.5,0.6l0,0c-0.1,0-6.8,3.2-11.8,14.3c-0.1,0.2-0.2,0.3-0.4,0.4L294.9,71.2L294.9,71.2z"/>
<path class="st1" d="M301.6,79.5c-0.2,0-0.4,0-0.6-0.2s-0.4-0.4-0.4-0.7s0-0.5,0.2-0.8c7.8-11,16.7-10.3,17.1-10.3s0.3,0,0.4,0
	s0.2,0,0.3,0.2c0.1,0,0.2,0.2,0.2,0.3s0.1,0.3,0,0.4c0,0,0,0.3-0.1,0.4s-0.1,0.2-0.2,0.3c-0.1,0-0.2,0.2-0.4,0.2s-0.3,0-0.4,0
	c-1.7,0-3.4,0.3-4.9,0.9c-4.2,1.7-7.8,4.7-10.3,8.5c-0.1,0-0.2,0.3-0.4,0.3C301.9,79.3,301.7,79.4,301.6,79.5L301.6,79.5L301.6,79.5
	z"/>
<path class="st1" d="M353.3,92.1h-0.1c-0.1,0-0.3,0-0.4,0l-0.3-0.3c-0.1,0-0.1-0.2-0.2-0.4V91c0.8-6.6-5.3-10.5-5.5-10.6
	s-0.4-0.4-0.5-0.6c-0.1-0.3,0-0.5,0.1-0.8c0.1-0.2,0.4-0.4,0.6-0.5c0.3,0,0.5,0,0.8,0c0.3,0.2,7.5,4.7,6.5,12.6
	c0,0.3-0.1,0.5-0.3,0.7C353.8,92,353.5,92.1,353.3,92.1C353.3,92.1,353.3,92.1,353.3,92.1z"/>
<path class="st1" d="M377.2,88.5c-0.2,0-0.3,0-0.5,0c-0.1,0-0.2,0-0.3-0.2c-0.1,0-0.2-0.2-0.2-0.3s-0.1-0.3-0.1-0.4s0-0.3,0.1-0.4
	c4.1-8.4,3.1-13.4,3.1-13.5c-0.1-0.3,0-0.5,0.1-0.8c0.1-0.2,0.4-0.4,0.6-0.5c0.1,0,0.3,0,0.4,0s0.3,0,0.4,0l0.3,0.3
	c0.1,0,0.1,0.3,0.2,0.4c0,0.2,1.2,5.6-3.2,14.8c-0.1,0.2-0.2,0.3-0.4,0.4C377.6,88.5,377.4,88.5,377.2,88.5z"/>
<path class="st19" d="M395.9,102.8c-0.2,0-0.4,0-0.6-0.2s-0.3-0.3-0.4-0.5s-0.1-0.4,0-0.6s0.2-0.4,0.4-0.5c4.4-2.9,6.4-5.9,7.3-7.7
	c0.5-1,0.8-2.2,0.9-3.4c0-0.3,0.1-0.5,0.2-0.7c0.2-0.2,0.4-0.3,0.7-0.4c0.3,0,0.5,0,0.7,0.2s0.3,0.4,0.4,0.7c0,0.3,0.5,6.7-9.1,13
	C396.3,102.7,396.1,102.7,395.9,102.8L395.9,102.8L395.9,102.8z"/>
<path class="st18" d="M291.4,113.7c-7.4,3.1-10.2-3.3-10.9-6.8c-0.7-3.5,0.8-16.4,9.9-20.9s12.9,4.3,12.9,4.3
	S298.5,106.3,291.4,113.7z"/>
<path class="st1" d="M287.7,114.9c-1.1,0-2.2-0.3-3.1-0.8c-3.2-1.7-4.3-5.9-4.5-7.2c-0.8-4.1,1.1-16.9,10.1-21.4
	c1.2-0.7,2.5-1.1,3.9-1.3c1.4,0,2.8,0,4.1,0.4c2.4,1,4.4,2.9,5.5,5.3v0.3c0,0-1.2,4.1-3.3,9c-1.9,4.5-5,10.7-8.7,14.6h-0.1
	C290.3,114.6,289,114.9,287.7,114.9L287.7,114.9z M295.3,85.1c-1.7,0-3.3,0.5-4.7,1.2c-9.2,4.5-10.2,17.6-9.7,20.5
	c0.2,1.2,1.2,5,4.1,6.6c1,0.5,2,0.7,3.1,0.7s2.1-0.3,3.1-0.7c6.6-6.9,11.2-21.4,11.7-23c-1.1-2.1-2.8-3.8-5-4.7
	C297.1,85.3,296.2,85.1,295.3,85.1L295.3,85.1z"/>
<path class="st17" d="M275.8,128.6c-0.1,0-0.2,0-0.3-0.1c-0.1,0-0.2-0.1-0.2-0.2c-0.1-0.1-0.1-0.1-0.1-0.2v-0.2c0,0,0-0.2,0.1-0.2
	c0,0,0.1,0,0.2-0.2l1.2-1c13.3-10.7,22-17.8,25.6-35.3c0.8-3.8,0.5-7.7-0.9-11.4c-1.4-3.6-3.7-6.8-6.8-9.2c-0.1,0-0.2-0.2-0.2-0.4
	s0-0.3,0.1-0.4s0.2-0.2,0.4-0.3h0.4c3.3,2.5,5.8,5.9,7.3,9.7c1.5,3.9,1.8,8.1,0.9,12.1c-3.6,18-12.5,25.2-26,36l-1.2,1
	C276.1,128.6,275.9,128.6,275.8,128.6L275.8,128.6z"/>
<path class="st1" d="M399.5,167h-0.3c-0.3-0.1-0.5-0.3-0.6-0.5s-0.2-0.5-0.1-0.8c0.7-2.1,1.2-4.9-0.2-6.5c-1.6-1.8-4.9-1.2-4.9-1.2
	c-0.3,0-0.5,0-0.8-0.2c-0.2-0.2-0.4-0.4-0.4-0.7s0-0.5,0.2-0.8c0.2-0.2,0.4-0.4,0.7-0.4s4.5-0.8,6.8,1.9c1.6,1.8,1.8,4.7,0.6,8.4
	c-0.1,0.2-0.2,0.4-0.4,0.5C399.9,167,399.7,167,399.5,167L399.5,167L399.5,167z"/>
<path class="st17" d="M420.2,147.3c-0.2,0-0.3,0-0.5-0.1c-1.7-0.9-3.5-1.6-5.3-1.9c-0.1,0-0.3-0.1-0.4-0.1l-0.3-0.3
	c-0.1-0.1-0.2-0.2-0.2-0.4v-0.4c0-0.3,0.2-0.5,0.4-0.7c0.2-0.2,0.5-0.3,0.7-0.2c2.1,0.4,4.2,1.1,6.1,2.2c0.2,0.1,0.4,0.3,0.5,0.5
	s0.1,0.4,0.1,0.7c-0.1,0.2-0.2,0.4-0.4,0.6C420.6,147.2,420.4,147.2,420.2,147.3L420.2,147.3L420.2,147.3z"/>
<path class="st17" d="M280.8,124.1c-0.2,0-0.3,0-0.5,0c-0.1,0-0.3-0.2-0.4-0.3c-10.4-13.8-11.5-27.4-3.1-41.4
	c1.9-3.2,4.3-6.1,7.1-8.6c1.5-1.4,3.4-2.4,5.5-2.8s4.2-0.3,6.2,0.4c2,0.7,3.7,1.9,5.1,3.5c1.3,1.6,2.2,3.6,2.5,5.7
	c0.8,5.8,0.4,11.7-1.2,17.3s-4.4,10.8-8.2,15.2c-3.5,4.3-7.7,8-12.4,11C281.2,124.2,281,124.2,280.8,124.1L280.8,124.1L280.8,124.1z
	 M291.8,72.7c-2.4,0-4.6,0.9-6.4,2.5c-2.6,2.4-4.9,5.2-6.7,8.2c-7.8,13.1-7,25.4,2.4,38.3c4.2-2.8,8-6.2,11.2-10.1
	c7.5-9.2,10.5-19.6,8.9-30.9c-0.2-1.7-0.9-3.3-2-4.7c-1.1-1.3-2.5-2.3-4.2-2.9C294,72.9,292.9,72.7,291.8,72.7L291.8,72.7
	L291.8,72.7z"/>
<linearGradient id="SVGID_00000014633907281716815600000004293890657783704241_" gradientUnits="userSpaceOnUse" x1="288.2" y1="401.3" x2="288.2" y2="417.3" gradientTransform="matrix(1 0 0 -1 0 514)">
	<stop  offset="0" style="stop-color:#E8AF15"/>
	<stop  offset="0" style="stop-color:#D69A16"/>
	<stop  offset="0.1" style="stop-color:#B87817"/>
	<stop  offset="0.2" style="stop-color:#9E5B18"/>
	<stop  offset="0.3" style="stop-color:#8A4319"/>
	<stop  offset="0.4" style="stop-color:#7A3119"/>
	<stop  offset="0.5" style="stop-color:#6E241A"/>
	<stop  offset="0.7" style="stop-color:#681C1A"/>
	<stop  offset="1" style="stop-color:#661A1A"/>
</linearGradient>
<path style="fill:url(#SVGID_00000014633907281716815600000004293890657783704241_);" d="M288.2,112.7c4.4,0,8-3.6,8-8s-3.6-8-8-8
	s-8,3.6-8,8S283.8,112.7,288.2,112.7z"/>
<path class="st1" d="M288.2,113.1c-1.7,0-3.3-0.5-4.7-1.4c-1.4-0.9-2.5-2.2-3.1-3.8c-0.6-1.5-0.8-3.2-0.5-4.9
	c0.3-1.6,1.1-3.1,2.3-4.3c1.2-1.2,2.7-2,4.3-2.3c1.6-0.3,3.3-0.2,4.9,0.5c1.5,0.6,2.9,1.7,3.8,3.1s1.4,3,1.4,4.7s-0.9,4.4-2.5,6
	C292.6,112.2,290.4,113.1,288.2,113.1L288.2,113.1L288.2,113.1z M288.2,97.1c-1.5,0-3,0.5-4.2,1.3s-2.2,2-2.8,3.4
	c-0.6,1.4-0.7,2.9-0.4,4.4c0.3,1.5,1,2.8,2.1,3.9s2.4,1.8,3.9,2.1c1.5,0.3,3,0,4.4-0.4c1.4-0.6,2.6-1.6,3.4-2.8
	c0.8-1.2,1.3-2.7,1.3-4.2s-0.2-2-0.6-2.9s-1-1.8-1.7-2.5s-1.6-1.3-2.5-1.6C290.2,97.3,289.2,97.1,288.2,97.1L288.2,97.1L288.2,97.1z
	"/>
<path class="st21" d="M287.6,109.8c2.8,0,5.1-2.3,5.1-5.1s-2.3-5.1-5.1-5.1s-5.1,2.3-5.1,5.1C282.6,107.5,284.8,109.8,287.6,109.8z"
	/>
<path class="st22" d="M284.7,102.4c0.9,0,1.7-0.8,1.7-1.7s-0.8-1.7-1.7-1.7s-1.7,0.8-1.7,1.7S283.7,102.4,284.7,102.4z"/>
<linearGradient id="SVGID_00000088110876771154343430000016299873549868057733_" gradientUnits="userSpaceOnUse" x1="360.4" y1="386.8" x2="360.4" y2="402.8" gradientTransform="matrix(1 0 0 -1 0 514)">
	<stop  offset="0" style="stop-color:#E8AF15"/>
	<stop  offset="0" style="stop-color:#D69A16"/>
	<stop  offset="0.1" style="stop-color:#B87817"/>
	<stop  offset="0.2" style="stop-color:#9E5B18"/>
	<stop  offset="0.3" style="stop-color:#8A4319"/>
	<stop  offset="0.4" style="stop-color:#7A3119"/>
	<stop  offset="0.5" style="stop-color:#6E241A"/>
	<stop  offset="0.7" style="stop-color:#681C1A"/>
	<stop  offset="1" style="stop-color:#661A1A"/>
</linearGradient>
<path style="fill:url(#SVGID_00000088110876771154343430000016299873549868057733_);" d="M360.4,127.2c4.4,0,8-3.6,8-8s-3.6-8-8-8
	s-8,3.6-8,8S356,127.2,360.4,127.2z"/>
<path class="st1" d="M360.4,127.6c-1.7,0-3.3-0.5-4.7-1.4c-1.4-0.9-2.5-2.2-3.1-3.8c-0.6-1.5-0.8-3.2-0.5-4.9
	c0.3-1.6,1.1-3.1,2.3-4.3c1.2-1.2,2.7-2,4.3-2.3c1.6-0.3,3.3-0.2,4.9,0.5c1.5,0.6,2.9,1.7,3.8,3.1s1.4,3,1.4,4.7s-0.9,4.4-2.5,6
	C364.8,126.7,362.6,127.6,360.4,127.6L360.4,127.6L360.4,127.6z M360.4,111.6c-1.5,0-3,0.4-4.2,1.3c-1.3,0.8-2.2,2-2.8,3.4
	c-0.6,1.4-0.7,2.9-0.4,4.4c0.3,1.5,1,2.8,2.1,3.9s2.4,1.8,3.9,2.1s3,0,4.4-0.4c1.4-0.6,2.6-1.6,3.4-2.8c0.8-1.3,1.3-2.7,1.3-4.2
	s-0.8-3.9-2.2-5.4C364.3,112.4,362.4,111.6,360.4,111.6L360.4,111.6L360.4,111.6z"/>
<path class="st21" d="M359.8,124.2c2.8,0,5.1-2.3,5.1-5.1s-2.3-5.1-5.1-5.1s-5.1,2.3-5.1,5.1C354.8,121.9,357,124.2,359.8,124.2z"/>
<path class="st22" d="M356.9,116.9c0.9,0,1.7-0.8,1.7-1.7s-0.8-1.7-1.7-1.7s-1.7,0.8-1.7,1.7C355.2,116.1,355.9,116.9,356.9,116.9z"
	/>
<path class="st4" d="M134.2,317.8c-46.3,0-83.8-51.8-83.8-115.7S87.9,86.4,134.2,86.4h44.9l-13.4,232.1L134.2,317.8L134.2,317.8z"/>
<path class="st4" d="M165.7,319l-31.5-0.2c-22.9,0-44.3-12.2-60.4-34.3C57.7,262.4,49,233.3,49,202.1s8.8-60.5,24.8-82.6
	S111.4,85,134.2,85h29.3c0.4,0,0.7,0.2,1,0.4c0.3,0.3,0.4,0.6,0.4,1l2.2,231.1c0,0.2,0,0.4-0.1,0.6s-0.2,0.3-0.3,0.5
	C166.5,318.8,166.1,319,165.7,319L165.7,319L165.7,319z M134.2,87.8C88.8,87.8,51.8,139,51.8,202s8.6,59.3,24.3,80.7
	c15.7,21.5,36.2,33.1,58.1,33.1l30.1,0.2l-2.2-228.2L134.2,87.8L134.2,87.8z"/>
<linearGradient id="SVGID_00000013180266231598224850000001308908704694993830_" gradientUnits="userSpaceOnUse" x1="219.8" y1="154.3297" x2="178.9" y2="154.3297" gradientTransform="matrix(1 0 0 -1 0 514)">
	<stop  offset="0" style="stop-color:#797D86"/>
	<stop  offset="0.5" style="stop-color:#A8ABB0"/>
	<stop  offset="0.8" style="stop-color:#CBCCCF"/>
	<stop  offset="1" style="stop-color:#D8D9DB"/>
</linearGradient>
<path style="fill:url(#SVGID_00000013180266231598224850000001308908704694993830_);" d="M181.4,290.3c2.3-1.4,5.4-0.4,7.3,1.4
	c1.7,2,3,4.4,3.7,7c2.3,6.5,4.4,13,6.5,19.6c4.9,15.6,9.2,31.4,13,47.4c1.9,8,3.6,16,5.1,24c0.7,3.5,1.3,9.5,1.8,13
	c0,0,0.7,15.2,0.9,18.8c0.1,3.6,0.3,7.5,0.3,7.5l-13.1,0.7v-19.1c-1.1-5-1.2-10.1-2-15.1c-5.2-31.9-13.4-63.3-24.5-93.8
	C178.8,297.9,177.8,292.5,181.4,290.3L181.4,290.3z"/>
<path class="st25" d="M187.3,297.6c0,0,27.8,84.9,25.9,133.9c0,0-5.7,0.6-5.7-2.6c-0.4-16-4-43.4-10.8-72.8
	c-4.4-18.7-9.9-37.1-16.4-55.1L187.3,297.6L187.3,297.6z"/>
<path class="st4" d="M206.4,429.5c-0.3-9-2.3-30-2.8-33.2c-5.2-32-13.4-63.5-24.5-94c-2.3-6.3-1.7-10.9,1.7-13
	c2.9-1.8,6.6-0.5,8.8,1.6c2.1,2.1,3.2,5.1,4,7.4c1.7,4.9,3.4,10,5,14.9c5,15.6,9.5,31.5,13.4,47.4c1.9,8,3.7,16.1,5.3,24.1
	c0.7,3.3,5.1,31.4,3.2,44.1l-2.4-0.4c1.8-11.6-2.2-38.4-3.1-43.2c-1.6-8-3.4-16-5.3-24c-3.8-15.8-8.3-31.7-13.3-47.2
	c-1.6-5-3.3-10-5-14.9c-0.9-2.7-1.8-4.9-3.4-6.5c-1.4-1.4-3.9-2.3-5.8-1.3c-3,1.8-1.7,7-0.6,10c11.1,30.6,19.4,62.2,24.6,94.4
	c0.5,3.3,2.6,24.3,2.9,33.6L206.4,429.5L206.4,429.5z"/>
<path d="M193.3,301.2c0,0-1.6-10.7-7.6-11.4c-5.9-0.7-7,4.5-5.7,9.9c1.4,5.4,5.1,15.4,5.1,15.4S181.6,297.2,193.3,301.2z"/>
<path class="st26" d="M229.5,452.2c6.5,1.7,13.2,2.3,19.8,1.8l0.6-0.9c0.4-0.8,0.7-1.5,1-2.3l-9.6-11.5l-40.9-0.4c0,0-0.9,0.6,0,2.1
	c-0.4,0.2-0.7,0.5-0.9,0.9s-0.3,0.8-0.2,1.3c6.2,3.3,13.5,4.1,20.4,5.9C222.9,450.2,226.2,451.3,229.5,452.2z"/>
<path class="st27" d="M249.3,454c-6.7,0.5-13.4-0.1-19.8-1.8c-3.3-0.9-6.5-2.1-9.8-3c-6.8-1.9-14.2-2.6-20.4-5.9v0.2
	c0,1.2-0.5,2.4-1.3,3.3c2.8,1.5,5.8,2.5,8.9,3.2c3.9,0.9,8,1.4,11.9,2.4c2.7,0.7,5.3,1.6,7.9,2.2c7,1.8,14.2,2,21.3,0.8
	C248.3,455.1,248.8,454.5,249.3,454L249.3,454z"/>
<path class="st22" d="M226.6,454.6c-2.7-0.7-5.3-1.6-7.9-2.2c-3.9-1-7.9-1.5-11.9-2.4c-3.1-0.6-6.1-1.7-8.9-3.2
	c-0.1,0.2-0.3,0.4-0.4,0.6c-0.1,0.3-1.1,2.6,3.4,4.3c4.5,1.7,10.1,1.1,17.2,3.6c7.2,2.6,19.6,3.3,24.1,2.3c4.6-1,5.3-1.9,5.3-1.9
	l0.3-0.3C240.9,456.7,233.6,456.4,226.6,454.6L226.6,454.6L226.6,454.6z"/>
<path class="st28" d="M201.9,426.2c-0.8,1.7-1,3.5-0.7,5.4c0.6,2.5-1.8,1.2-0.5,7.3c0,0,13.4,3.8,17.5,6.6c4,2.8,15.1,3.5,21.3,5.5
	c3.8,1.2,7.9,1,11.5-0.6c0,0,1-4.1,4.5-4.5s3.8,0.2,3.8,0.2s-0.3-2.6-6.7-5.1c-5.5-2.3-10.7-5.2-15.5-8.7
	c-1.9-1.5-9.8-9.7-10.8-10.3c-1-0.7-2.9-3.6-8.3,2.3c-5.4,5.9-7.2,8.7-10.2,3.6C205.9,424.5,206.2,422.4,201.9,426.2L201.9,426.2z"
	/>
<path class="st29" d="M254.7,445.9c-3,1.2-3,1.5-3.6,4.3s-2.7,3.6-3.1,5.2c-0.4,1.6,1.2,2,4.5,0.8c3.3-1.3,6.1-1.4,7-5.4
	S260.1,443.8,254.7,445.9z"/>
<path class="st30" d="M201.2,431.9l3.4,3c0,0,1.6-1.3,5.8,0.7s17.1,4.9,18.9,5.6c1.8,0.6,12,3.5,13.3,4.1s6.5,2.7,6.5,2.7
	s-15.4-1-20.8-1.7c-5.4-0.7-11.5-1.4-11.5-1.4s-4.2-3.5-16.5-5.9C200,436.6,200.3,434.1,201.2,431.9L201.2,431.9L201.2,431.9z"/>
<path class="st30" d="M228.3,427.7c0,0-6.3,0.4-6.5,1.1c-0.3,0.7,3.3,1,5.2,0.6s-1.3,2.8-1.6,3.4c-0.3,0.7,0.2,2.1,2.5-0.8
	s2.3-2.5,2.3-2.5l4.7,0.2l-2.3-2.1l-2.5-1.9L228.3,427.7L228.3,427.7z"/>
<path class="st30" d="M233.7,432.3c0,0-5.9,0.4-6.1,1.1s3.1,1,4.9,0.6c1.8-0.4-1.3,2.8-1.5,3.4c-0.3,0.7,0.2,2.1,2.3-0.8
	s1.6-2.5,1.6-2.5l5,0.3l-2.2-2.1l-2.3-1.9L233.7,432.3z"/>
<path class="st30" d="M239.6,436.1c0,0-5.6,0.4-5.9,1.1c-0.2,0.7,3,0.9,4.7,0.6s-1.2,2.7-1.4,3.3c-0.3,0.6,0.2,2.1,2.2-0.8
	c2-2.8,2-2.4,2-2.4l4.2,0.2l-2.1-2l-2.3-1.9L239.6,436.1L239.6,436.1z"/>
<path class="st31" d="M201.1,438.7c-0.5-1.4-0.6-3-0.1-4.5c0.2-0.7,0.4-1.5,0.5-2.2v-2.4c-0.1-0.7,0-1.5,0.2-2.2s0.7-1.3,1.2-1.8
	c0.2-0.2,0.5-0.4,0.8-0.5s0.6-0.1,0.9-0.1s0.6,0.2,0.9,0.3c0.3,0.2,0.5,0.4,0.7,0.7c0.6,1.1,1.4,2.2,2.2,3.2c0.4,0.5,0.9,0.8,1.5,1
	s1.2,0.3,1.8,0.3c2.4-0.2,3.8-2.7,5-4.5c0.8-1.2,1.9-2.3,3-3.2c1.1-1,2.4-1.6,3.8-1.8c0.5,0,1,0.2,1.5,0.4c0.5,0.2,0.9,0.6,1.2,1
	c0.9,0.9,1.6,1.9,2.5,2.8c4.4,4.7,9.5,8.7,15.1,11.9c2.6,1.5,5.4,2.8,8.2,3.9c2.1,0.8,4.4,1.5,5.9,3.3c0.4,0.5,0.6,1.1,0.8,1.6
	c0.2,0.5,1,0.3,0.8-0.2c-0.4-1.1-1-2.1-1.9-2.9c-0.9-0.7-1.9-1.3-2.9-1.7c-1.2-0.5-2.4-0.9-3.6-1.4c-1.6-0.7-3.1-1.4-4.6-2.2
	c-6-3.1-11.5-7.1-16.2-12c-1-1-1.9-2.1-2.9-3.2c-0.7-0.9-1.5-1.6-2.5-2c-0.6-0.2-1.2-0.2-1.8-0.2c-0.6,0.1-1.2,0.3-1.7,0.6
	c-1.3,0.7-2.5,1.6-3.6,2.6c-0.9,1-1.8,2.1-2.6,3.3c-0.6,1.1-1.5,2-2.6,2.6c-0.6,0.3-1.3,0.3-2,0.1c-0.7-0.2-1.3-0.6-1.7-1.1
	c-1-1-1.4-2.3-2.3-3.3c-1.9-2.2-5-0.6-5.7,1.8c-0.5,1.6-0.1,3.3-0.3,4.9s-0.9,3-0.9,4.7s0.2,1.5,0.5,2.3
	C200.6,439.4,201.4,439.2,201.1,438.7L201.1,438.7L201.1,438.7z"/>
<path class="st31" d="M251.5,448.1c-0.4,0.8-0.7,1.6-0.9,2.4c-0.2,0.9-0.5,1.7-1,2.4c-0.7,0.8-2,1.4-2.3,2.5v0.6
	c0,0.2,0.1,0.4,0.2,0.5c0.1,0.2,0.2,0.3,0.4,0.4s0.3,0.2,0.5,0.2c1,0.2,1.9,0.1,2.8-0.2c1.9-0.4,3.7-1.1,5.4-1.9
	c0.8-0.4,1.5-0.9,2.1-1.6c0.5-0.7,0.8-1.5,1-2.3c0.2-1,0.4-2,0.4-3c0.1-0.8,0-1.7-0.4-2.4c-0.9-1.1-2.8-0.7-3.9-0.4
	c-0.9,0.2-1.7,0.5-2.5,1C252.6,446.7,251.9,447.4,251.5,448.1c-0.1,0.1-0.1,0.2-0.1,0.3s0.1,0.2,0.2,0.2c0.1,0.1,0.2,0.1,0.3,0
	c0.1,0,0.2-0.1,0.2-0.2c0.8-1.2,2.1-2.1,3.6-2.4c0.5-0.1,1-0.2,1.5-0.3c0.5-0.1,1.1,0,1.6,0.2c0.6,0.4,0.5,1.5,0.4,2.1
	c0,0.9-0.2,1.8-0.4,2.7c-0.1,0.8-0.5,1.5-0.9,2.1c-0.6,0.6-1.2,1-2,1.3c-1.4,0.7-2.9,1.2-4.4,1.6c-0.5,0.1-3.8,1-3.6-0.3
	c0.1-0.5,0.8-1,1.1-1.2c0.4-0.3,0.8-0.7,1.2-1.1c1-1.4,1.1-3.3,1.9-4.8C252.5,448.1,251.8,447.6,251.5,448.1L251.5,448.1z"/>
<path class="st31" d="M200.7,438.4c-0.2,0.1-0.5,0.3-0.6,0.6c-0.2,0.2-0.3,0.5-0.3,0.8c-0.1,0.3-0.1,0.6,0,0.8
	c0.1,0.3,0.2,0.5,0.3,0.8l0.2-0.6c-0.4,0.2-0.7,0.5-0.9,0.9s-0.3,0.8-0.3,1.2s-0.1,1.1-0.2,1.6c-0.1,0.5-0.4,0.9-0.7,1.3
	c-0.6,0.7-0.9,1.5-1.1,2.3c0,0.4,0.1,0.9,0.3,1.3s0.4,0.8,0.7,1.1c1,1,2.3,1.6,3.8,1.9c1.6,0.4,3.2,0.6,4.8,0.8
	c4.1,0.7,8.1,1.6,12.1,2.7c4.6,1.2,9.3,2,14,2.4c5.1,0.5,10.3,0,15.2-1.6c0.5-0.2,0.3-1-0.2-0.8c-8.5,2.8-17.6,1.7-26.1-0.3
	c-2.3-0.5-4.5-1.1-6.8-1.7c-1.9-0.5-3.9-1.1-5.9-1.4c-2.9-0.5-6-0.5-8.7-1.7c-0.6-0.3-1.2-0.7-1.7-1.2s-0.6-0.9-0.7-1.4
	c0-0.5,0.1-1,0.4-1.3c0.6-0.8,1.1-1.6,1.3-2.5c0.2-1-0.1-2.4,1-2.9c0.1-0.1,0.2-0.1,0.2-0.3v-0.3c-0.1-0.1-0.2-0.3-0.2-0.5v-0.5
	c0-0.2,0.1-0.3,0.2-0.5c0.1-0.1,0.2-0.3,0.4-0.3l0.2-0.2v-0.3c-0.1-0.1-0.1-0.2-0.2-0.2L200.7,438.4L200.7,438.4z"/>
<path class="st31" d="M200.4,439.4l5.1,1.5c1.7,0.5,3.4,0.9,5,1.5s3.2,1.3,4.7,2.1c1.5,0.7,3,1.4,4.5,2c3.1,1.1,6.4,2.1,9.6,2.8
	c3.4,0.8,6.7,1.5,10.1,2.1c3.8,0.8,7.7,0.7,11.5-0.1c0.5-0.1,0.3-0.9-0.2-0.8c-3.4,0.7-6.9,0.8-10.4,0.2c-3.3-0.5-6.7-1.3-10-2
	c-3.2-0.7-6.5-1.6-9.6-2.6c-1.6-0.5-3.1-1.2-4.6-1.9c-1.5-0.7-2.9-1.5-4.4-2.1c-1.8-0.7-3.6-1.3-5.4-1.7l-5.9-1.7
	c-0.1,0-0.2,0-0.3,0.1l-0.2,0.2v0.3C200.2,439.3,200.3,439.3,200.4,439.4L200.4,439.4L200.4,439.4z"/>
<path class="st31" d="M205.6,440.3c-0.8-1.1-1.4-2.3-1.6-3.7c-0.1-1.5,1.3-2,2.6-1.8c1.5,0.3,3,0.8,4.5,1.4c1.7,0.6,3.5,1.2,5.2,1.7
	c7,2.1,14.1,3.7,21,5.9c3.9,1.2,7.8,2.7,11.5,4.5l0.2-0.8c-8.3-0.4-16.5-1.2-24.8-2.2c-2.3-0.3-4.7-0.6-7.1-1
	c-0.5-0.1-0.7,0.7-0.2,0.8c8.3,1.3,16.6,2.2,24.9,2.8c2.3,0.2,4.8,0.3,7.2,0.4c0.1,0,0.2,0,0.2-0.1c0.1-0.1,0.1-0.1,0.1-0.2v-0.3
	c0-0.1-0.1-0.2-0.2-0.2c-6.9-3.4-14.4-5.5-21.8-7.4c-3.8-1-7.6-2-11.3-3.2c-1.8-0.6-3.7-1.2-5.5-1.8c-1.5-0.7-3.1-1.1-4.7-1.3
	c-0.3,0-0.7,0-1,0.1s-0.6,0.3-0.9,0.5c-0.3,0.2-0.5,0.5-0.6,0.8c-0.2,0.3-0.2,0.6-0.3,1c0.1,1.6,0.7,3.1,1.7,4.3
	C205.2,441.2,206,440.7,205.6,440.3L205.6,440.3L205.6,440.3z"/>
<path class="st31" d="M204.9,434l-3.4-2.8H201c-0.1-0.1-0.1,0-0.1,0h-0.1v0.5c0,0.1,0.1,0.1,0.1,0.1l3.4,2.8
	c0.1,0.1,0.2,0.1,0.3,0.1s0.2,0,0.3-0.1s0.1-0.2,0.1-0.3S204.9,434.1,204.9,434L204.9,434L204.9,434z"/>
<path class="st31" d="M232.1,427.6c-1.7-0.2-3.4-0.3-5.1-0.2c-0.9,0-1.7,0.1-2.6,0.2c-0.8,0-1.6,0.2-2.3,0.4
	c-0.2,0.1-0.4,0.3-0.5,0.5s-0.1,0.5-0.1,0.7c0.1,0.3,0.3,0.5,0.5,0.6c0.2,0.2,0.5,0.2,0.8,0.2c0.8,0.1,1.7-0.1,2.6-0.1h2.6
	c2,0,4,0.2,6,0.5c0.5,0.1,0.8-0.7,0.2-0.8c-1.8-0.3-3.6-0.5-5.5-0.5c-1.9-0.1-3.7,0.1-5.5,0.1h-0.5c-0.2-0.1-0.5-0.3-0.2-0.5
	c0.5-0.1,0.9-0.2,1.4-0.2c0.9-0.1,1.8-0.2,2.8-0.2c1.8-0.1,3.7,0,5.5,0.2C232.6,428.4,232.6,427.6,232.1,427.6L232.1,427.6
	L232.1,427.6z"/>
<path class="st31" d="M228.7,427.6C228.7,427.5,228.7,427.6,228.7,427.6L228.7,427.6v-0.2l0.4-0.3c0.1-0.2,0.3-0.3,0.4-0.4l0.5-0.4
	h0.1c0.1-0.1,0-0.1,0-0.1h0.1l0.3-0.2c0.1-0.1,0.2-0.1,0.2-0.3v-0.3h-0.1v-0.2h-0.3c-0.1,0-0.1,0-0.2,0.1c-0.8,0.5-1.4,1.2-2,1.9
	v0.3c0,0.1,0.1,0.2,0.2,0.2c0.1,0.1,0.2,0.1,0.3,0c0,0,0,0,0-0.1l0,0H228.7z"/>
<path class="st31" d="M227.3,429.5c-1.1,1.3-1.9,2.7-2.3,4.3v0.3c0,0.1,0.1,0.2,0.2,0.2c0.2,0.1,0.5,0.2,0.7,0.2
	c0.3,0,0.5,0,0.8-0.2c0.5-0.3,0.9-0.6,1.2-1.1c0.8-1,1.5-2,2.2-3c0.1-0.1,0.1-0.2,0-0.3c0-0.1-0.1-0.2-0.2-0.3
	c-0.1-0.1-0.2-0.1-0.3,0c-0.1,0-0.2,0.1-0.3,0.2l-1.9,2.6c-0.4,0.5-1.1,1.6-1.8,1.1l0.2,0.5c0.4-1.4,1.2-2.8,2.1-3.9h0.1v-0.5
	c0-0.1-0.1-0.1-0.1-0.1L227.3,429.5L227.3,429.5z"/>
<path class="st31" d="M238,432.3c-1.7-0.2-3.4-0.3-5.2-0.2c-0.9,0-1.8,0.1-2.6,0.2c-0.8,0-1.6,0.1-2.3,0.4c-0.1,0.1-0.3,0.2-0.4,0.3
	c-0.1,0.1-0.1,0.3-0.2,0.4c0,0.2,0,0.3,0.1,0.5s0.1,0.3,0.3,0.4c0.5,0.5,1.4,0.4,2.1,0.3c1.7-0.1,3.3-0.1,5,0c1.8,0,3.7,0.2,5.5,0.5
	c0.5,0.1,0.7-0.7,0.2-0.8c-2.8-0.4-5.6-0.6-8.4-0.5h-2.9c-0.2,0-1.3,0-0.9-0.4c0.3-0.1,0.7-0.2,1-0.2h1.2c0.8-0.2,1.5-0.2,2.3-0.2
	c1.7-0.1,3.4,0,5.1,0.2C238.4,433.2,238.6,432.3,238,432.3L238,432.3L238,432.3z"/>
<path class="st31" d="M233.7,432.3l0.2-0.2l0,0v-0.2c0.2-0.1,0.3-0.3,0.5-0.4l0.4-0.4l0.2-0.2c-0.1,0,0,0,0,0h0.1
	c0.1-0.1,0.2-0.1,0.2-0.2v-0.4h-0.1v-0.2h-0.3c-0.1,0-0.1,0-0.2,0.1c-0.7,0.5-1.2,1.1-1.7,1.8c-0.1,0.1-0.1,0.2,0,0.3
	c0,0.1,0.1,0.2,0.2,0.3c0.1,0.1,0.2,0.1,0.3,0C233.6,432.6,233.7,432.5,233.7,432.3L233.7,432.3L233.7,432.3z"/>
<path class="st31" d="M232.5,434c-0.9,1.2-1.6,2.5-2,4v0.3c0,0.1,0.1,0.2,0.2,0.2c0.2,0.1,0.4,0.2,0.7,0.2s0.5,0,0.7-0.2
	c0.4-0.2,0.8-0.6,1-1c0.6-0.9,1.3-1.8,1.9-2.7c0.1-0.1,0.1-0.2,0-0.3c0-0.1-0.1-0.2-0.2-0.2c-0.1-0.1-0.2-0.1-0.3,0
	c-0.1,0-0.2,0.1-0.3,0.2l-1.7,2.3c-0.3,0.4-0.9,1.5-1.5,1l0.2,0.5c0.4-1.3,1-2.5,1.8-3.5c0.1-0.1,0.1-0.2,0.1-0.3s0-0.2-0.1-0.3
	c-0.1-0.1-0.2-0.1-0.3-0.1C232.7,433.9,232.5,433.9,232.5,434L232.5,434L232.5,434z"/>
<path class="st31" d="M244.4,436.3c-1.7-0.2-3.4-0.2-5.1-0.2s-3.4,0.1-5,0.4c-0.7,0.1-1.3,0.6-0.9,1.3c0.4,0.7,1.4,0.6,2.1,0.6
	c1.7-0.1,3.4-0.1,5.1-0.1s3.8,0.1,5.6,0.3c0.5,0.1,0.5-0.8,0-0.8c-2.9-0.3-5.9-0.4-8.9-0.3c-0.7,0-1.3,0-2,0.1
	c-0.4,0.1-0.7,0.1-1.1,0c-0.5-0.2,0.4-0.3,0.6-0.3c3.1-0.4,6.3-0.4,9.5-0.1C244.9,437.2,244.9,436.4,244.4,436.3L244.4,436.3
	L244.4,436.3z"/>
<path class="st31" d="M239.6,436.5c0.2-0.3,0.5-0.5,0.7-0.8l0.2-0.2h0.1c-0.1,0,0-0.1,0-0.1c0.1-0.1,0.3-0.2,0.4-0.3
	c0.1-0.1,0.2-0.1,0.2-0.2v-0.3c-0.1-0.1-0.1-0.2-0.2-0.2h-0.3c-0.6,0.4-1.2,0.9-1.7,1.5c-0.1,0.1-0.1,0.2-0.1,0.3v0.2
	c0,0.1,0.1,0.1,0.1,0.1c0.1,0.1,0.2,0.1,0.3,0.1C239.3,436.7,239.5,436.6,239.6,436.5L239.6,436.5z"/>
<path class="st31" d="M238.4,437.8c-0.9,1-1.6,2.2-2,3.5v0.3c0,0.1,0.1,0.2,0.2,0.2c0.2,0.1,0.4,0.2,0.6,0.2s0.4,0,0.6-0.1
	c0.4-0.2,0.8-0.5,1-0.8c0.7-0.8,1.3-1.6,1.9-2.3c0.1-0.1,0.1-0.2,0.1-0.3s0-0.2-0.1-0.3c-0.1-0.1-0.2-0.1-0.3-0.1s-0.2,0-0.3,0.1
	l-1.7,2.1c-0.3,0.4-0.9,1.3-1.5,0.9l0.2,0.5c0.4-1.2,1-2.2,1.8-3.1C239.4,438.1,238.9,437.6,238.4,437.8L238.4,437.8L238.4,437.8z"
	/>
<path class="st31" d="M206.5,440.7h-0.1c0,0-0.1,0-0.1-0.1c0,0-0.2-0.4-0.5-0.9v-0.2h0.4c0.2,0.5,0.4,0.9,0.4,0.9l0,0v0.2l0,0
	C206.6,440.6,206.6,440.7,206.5,440.7L206.5,440.7L206.5,440.7z"/>
<path class="st31" d="M245.7,447.5L245.7,447.5l-2.1-0.5c-0.1,0-0.1-0.1-0.1-0.1v-0.2c0-0.1,0.1-0.1,0.1-0.1h0.2l2,0.5
	c0.1,0,0.1,0,0.1,0.1h0.1c0,0.1,0,0.2-0.1,0.2C245.9,447.5,245.9,447.5,245.7,447.5L245.7,447.5z M241.7,446.5l-2-0.5h-0.2v-0.2l0,0
	c0-0.2,0.1-0.2,0.1-0.2h0.2l2,0.5c0.1,0,0.1,0.1,0.1,0.1v0.2h-0.1c0.1,0.1,0,0.1,0,0.1l0,0H241.7z M237.8,445.4h-0.3
	c-0.3-0.2-0.8-0.3-1.7-0.6h-0.2v-0.2l0,0v-0.2h0.3c0.9,0.1,1.5,0.3,1.8,0.4h0.2c0,0.1,0.1,0.1,0.1,0.2l0,0c0,0.1,0,0.2-0.1,0.2
	C237.9,445.4,237.8,445.4,237.8,445.4L237.8,445.4z M233.8,444.3l-2-0.5c-0.1,0-0.1,0-0.1-0.1v-0.2l0,0v-0.2h0.3l2,0.5
	c0.1,0,0.1,0,0.1,0.1v0.2l0,0v0.2C233.9,444.3,233.9,444.4,233.8,444.3C233.8,444.4,233.8,444.4,233.8,444.3L233.8,444.3z
	 M229.8,443.4l-2-0.5c-0.1,0-0.1,0-0.1-0.1v-0.2l0,0v-0.2h0.3l2,0.5c0.1,0,0.1,0,0.1,0.1v0.2l0,0v0.2H229.8z M225.7,442.4l-2-0.5
	h-0.2v-0.2l0,0v-0.2h0.3l2,0.4h0.2v0.2l0,0c0,0.1,0,0.2-0.1,0.2C225.8,442.3,225.8,442.3,225.7,442.4L225.7,442.4z M221.7,441.4
	c-0.7-0.2-1.4-0.4-2-0.6h-0.2v-0.2l0,0v-0.2h0.3c0.6,0.1,1.3,0.3,2,0.5c0.1,0,0.1,0.1,0.1,0.1v0.2l0,0v0.2H221.7
	C221.8,441.4,221.8,441.4,221.7,441.4L221.7,441.4L221.7,441.4z M217.8,440.2L217.8,440.2l-0.6-0.2l-1.4-0.6h-0.1v-0.2l0,0V439h0.3
	l1.4,0.6l0.5,0.2h0.1v0.2l0,0C218,440.1,217.9,440.1,217.8,440.2L217.8,440.2L217.8,440.2z M214,438.6L214,438.6
	c-0.7-0.3-1.3-0.5-2-0.8h-0.1v-0.3c0-0.1,0.1-0.1,0.1-0.1h0.2c0.6,0.2,1.3,0.5,1.9,0.8c0,0,0.1,0,0.1,0.1l0,0
	C214.2,438.4,214.2,438.5,214,438.6C214.1,438.6,214.1,438.6,214,438.6L214,438.6L214,438.6z M205.4,437.9c0,0-0.1,0-0.1-0.1h-0.1
	v-0.6c0-0.2,0-0.5,0.1-0.7s0.3-0.4,0.4-0.5c0.1-0.1,0.3-0.1,0.4-0.2h0.3v0.2l0,0v0.2h-0.2c-0.1,0.1-0.2,0.1-0.3,0.2
	s-0.2,0.2-0.3,0.4c-0.1,0.2-0.1,0.3-0.1,0.5v0.5l0,0v0.2h-0.1C205.5,437.9,205.5,437.9,205.4,437.9L205.4,437.9L205.4,437.9z
	 M210.2,437.1L210.2,437.1c-0.8-0.3-1.5-0.5-2-0.6c-0.1,0-0.1,0-0.1-0.1v-0.2l0,0V436h0.3c0.7,0.2,1.3,0.4,2,0.6h0.1v0.2l0,0
	c0,0.1,0,0.2-0.1,0.2h-0.2V437.1z"/>
<path class="st31" d="M248.7,448.2l-1-0.2c-0.1,0-0.1-0.1-0.1-0.1v-0.2l0,0v-0.2h0.3l1,0.2h0.2v0.2l0,0c0,0.1,0,0.2-0.1,0.2
	C248.8,448.2,248.7,448.2,248.7,448.2L248.7,448.2L248.7,448.2z"/>
<path class="st31" d="M202.5,438.5h-0.2c-0.2-0.7-0.3-1.3-0.2-2v-0.2c0-0.1,0-0.1,0.1-0.1h0.1c0.1-0.1,0.1-0.1,0.1,0
	c0,0.1,0.1,0.1,0.1,0.2v0.2c0,0.6,0.1,1.2,0.3,1.8l0,0v0.2h-0.3L202.5,438.5z M202.4,434.5h-0.1c-0.6-0.5-1-1-1.4-1.6l0,0v-0.2l0,0
	v-0.2h0.5c0.3,0.7,0.8,1.1,1.3,1.6h0.1v0.3C202.6,434.5,202.5,434.5,202.4,434.5L202.4,434.5L202.4,434.5z"/>
<linearGradient id="SVGID_00000151534970793869276560000005038082570034868146_" gradientUnits="userSpaceOnUse" x1="164.3" y1="964.7" x2="164.3" y2="204.5" gradientTransform="matrix(1 0 0 -1 0 514)">
	<stop  offset="0" style="stop-color:#FFFFFF"/>
	<stop  offset="0.1" style="stop-color:#C9CBCE"/>
	<stop  offset="0.3" style="stop-color:#92969C"/>
	<stop  offset="0.5" style="stop-color:#656A73"/>
	<stop  offset="0.6" style="stop-color:#424853"/>
	<stop  offset="0.8" style="stop-color:#29303C"/>
	<stop  offset="0.9" style="stop-color:#19212E"/>
	<stop  offset="1" style="stop-color:#141C29"/>
</linearGradient>
<path style="fill:url(#SVGID_00000151534970793869276560000005038082570034868146_);" d="M164.3,320.8c49,0,88.6-52.9,88.6-118.2
	S213.2,84.4,164.3,84.4s-88.6,52.9-88.6,118.2S115.3,320.8,164.3,320.8L164.3,320.8z"/>
<linearGradient id="SVGID_00000086662772929732472300000003231042321994822575_" gradientUnits="userSpaceOnUse" x1="82.3" y1="311.4" x2="246.3" y2="311.4" gradientTransform="matrix(1 0 0 -1 0 514)">
	<stop  offset="0" style="stop-color:#E340A1"/>
	<stop  offset="0.5" style="stop-color:#664AD6"/>
	<stop  offset="1" style="stop-color:#14B2F5"/>
</linearGradient>
<path style="opacity:0.9;fill:url(#SVGID_00000086662772929732472300000003231042321994822575_);enable-background:new    ;" d="
	M164.3,311.9c45.3,0,82-48.9,82-109.3s-36.7-109.3-82-109.3s-82,48.9-82,109.3S119,311.9,164.3,311.9z"/>
<linearGradient id="SVGID_00000011734521246356698460000007768736095083291563_" gradientUnits="userSpaceOnUse" x1="164.3" y1="862" x2="164.3" y2="221.3" gradientTransform="matrix(1 0 0 -1 0 514)">
	<stop  offset="0" style="stop-color:#FFFFFF"/>
	<stop  offset="0.1" style="stop-color:#C9CBCE"/>
	<stop  offset="0.3" style="stop-color:#92969C"/>
	<stop  offset="0.5" style="stop-color:#656A73"/>
	<stop  offset="0.6" style="stop-color:#424853"/>
	<stop  offset="0.8" style="stop-color:#29303C"/>
	<stop  offset="0.9" style="stop-color:#19212E"/>
	<stop  offset="1" style="stop-color:#141C29"/>
</linearGradient>
<path style="fill:url(#SVGID_00000011734521246356698460000007768736095083291563_);" d="M164.3,302.2c41.3,0,74.7-44.6,74.7-99.6
	S205.5,103,164.3,103s-74.7,44.6-74.7,99.6S123,302.2,164.3,302.2z"/>
<linearGradient id="SVGID_00000013192561170322317850000016917446952673603501_" gradientUnits="userSpaceOnUse" x1="108.5309" y1="221.6805" x2="152.5309" y2="291.2805" gradientTransform="matrix(1 0 0 -1 0 514)">
	<stop  offset="0.3" style="stop-color:#1C222B;stop-opacity:0.7"/>
	<stop  offset="0.9" style="stop-color:#152745;stop-opacity:0"/>
</linearGradient>
<path style="fill:url(#SVGID_00000013192561170322317850000016917446952673603501_);" d="M240,252.4
	c-20.3,55.5-70.6,78.5-112.2,51.4C86.2,276.6,69,209.7,89.3,154.2c2.1-5.8,4.6-11.4,7.6-16.8c0,0-0.9,61,52.9,101.1
	C200.7,276.4,240,252.4,240,252.4L240,252.4z"/>
<linearGradient id="SVGID_00000163781781258877847590000011990910761066314404_" gradientUnits="userSpaceOnUse" x1="207.7878" y1="282.1878" x2="146.4878" y2="343.4878" gradientTransform="matrix(1 0 0 -1 0 514)">
	<stop  offset="0" style="stop-color:#797D86"/>
	<stop  offset="0.5" style="stop-color:#A8ABB0"/>
	<stop  offset="0.8" style="stop-color:#CBCCCF"/>
	<stop  offset="1" style="stop-color:#D8D9DB"/>
</linearGradient>
<path style="fill:url(#SVGID_00000163781781258877847590000011990910761066314404_);" d="M217.5,171.6l-12.8,22.8
	c-0.7,1.4-1.7,2.5-2.9,3.5c-1.1,0.9-2.3,1.5-3.7,1.7c-1.3,0.2-2.7,0.2-3.9-0.3c-1.3-0.5-2.5-1.3-3.5-2.3l-0.2-0.2
	c-1.3-1.3-2.3-2.9-3-4.7c-0.7-1.9-1.1-3.9-1.1-6v-8.8c-1.6,0.1-3.1,0.5-4.5,1.3s-2.5,1.8-3.4,3.1c-2.2,3.1-3.3,6.8-3.3,10.5v65.9
	c0,8-4.7,14.8-10.6,15c-1.5,0.1-3-0.3-4.3-1c-1.5-0.8-2.7-1.8-3.7-3.1c-1.1-1.4-2-3.1-2.5-4.8c-0.6-1.9-0.9-3.8-0.9-5.7v-66.3
	c0-5.7,0.8-11.5,2.5-17c1.6-5.2,4-10,7.2-14.3c2.9-3.9,6.6-7.2,10.8-9.6c3.9-2.2,8.3-3.3,12.7-3.4h22c6.5,0,11,6.1,11,14.7
	C219.6,165.9,218.9,168.9,217.5,171.6L217.5,171.6L217.5,171.6z"/>
<linearGradient id="SVGID_00000096757859315687636460000011683884747848025505_" gradientUnits="userSpaceOnUse" x1="164.9939" y1="325.0915" x2="108.4939" y2="365.3915" gradientTransform="matrix(1 0 0 -1 0 514)">
	<stop  offset="0" style="stop-color:#797D86"/>
	<stop  offset="0" style="stop-color:#95999F"/>
	<stop  offset="0.2" style="stop-color:#AEB0B5"/>
	<stop  offset="0.3" style="stop-color:#C1C2C6"/>
	<stop  offset="0.5" style="stop-color:#CECFD2"/>
	<stop  offset="0.7" style="stop-color:#D6D7D9"/>
	<stop  offset="1" style="stop-color:#D8D9DB"/>
</linearGradient>
<path style="fill:url(#SVGID_00000096757859315687636460000011683884747848025505_);" d="M136.7,148h-16.9c-6,0-10.9,6.5-10.9,14.5
	v0.4c0,8,4.9,14.5,10.9,14.5h16.9c6,0,10.9-6.5,10.9-14.5v-0.4C147.6,154.5,142.7,148,136.7,148z"/>
<linearGradient id="SVGID_00000014607802105262873100000010336412100425133202_" gradientUnits="userSpaceOnUse" x1="94.5" y1="154.5297" x2="135.4" y2="154.5297" gradientTransform="matrix(1 0 0 -1 0 514)">
	<stop  offset="0" style="stop-color:#797D86"/>
	<stop  offset="0.5" style="stop-color:#A8ABB0"/>
	<stop  offset="0.8" style="stop-color:#CBCCCF"/>
	<stop  offset="1" style="stop-color:#D8D9DB"/>
</linearGradient>
<path style="fill:url(#SVGID_00000014607802105262873100000010336412100425133202_);" d="M132.9,290.1c-2.3-1.4-5.4-0.4-7.3,1.4
	c-1.7,2-3,4.4-3.7,7c-2.3,6.5-4.4,13-6.5,19.6c-4.9,15.6-9.2,31.4-13,47.4c-1.9,8-3.6,16-5.1,24c-0.7,3.5-1.3,9.5-1.8,13
	c0,0-0.7,15.2-0.9,18.8c-0.2,3.6-0.3,7.5-0.3,7.5l13.1,0.7v-19.1c1.1-5,1.2-10.1,2-15.1c5.2-31.9,13.4-63.3,24.5-93.8
	C135.5,297.6,136.5,292.2,132.9,290.1z"/>
<path class="st25" d="M127,297.4c0,0-27.8,84.9-25.9,133.9c0,0,5.7,0.6,5.8-2.6c0.4-16,4-43.4,10.8-72.8
	c4.4-18.7,9.9-37.1,16.4-55.1L127,297.4L127,297.4z"/>
<path class="st4" d="M107.9,429.2h-2.5c0.3-9.4,2.3-30.3,2.9-33.7c5.3-32.2,13.5-63.8,24.6-94.4c1.1-3,2.4-8.2-0.6-10
	c-1.8-1.1-4.3-0.2-5.8,1.3c-1.6,1.6-2.5,3.8-3.4,6.5c-1.7,4.9-3.4,9.9-5,14.9c-5,15.5-9.5,31.4-13.3,47.2c-1.9,7.9-3.7,16-5.3,24
	c-1,4.9-4.9,31.6-3.1,43.2l-2.4,0.4c-1.9-12.7,2.5-40.8,3.1-44.1c1.6-8,3.4-16.1,5.3-24.1c3.8-15.9,8.3-31.9,13.4-47.4
	c1.6-5,3.3-10,5-14.9c0.8-2.8,2.1-5.3,4-7.4c2.1-2.1,5.9-3.4,8.8-1.6c3.4,2,4,6.6,1.7,13c-11.1,30.5-19.3,61.9-24.5,94
	C110.2,399.1,108.2,420.2,107.9,429.2L107.9,429.2z"/>
<path d="M121,301c0,0,1.6-10.7,7.6-11.4c5.9-0.7,7,4.5,5.7,9.9c-1.4,5.4-5.1,15.4-5.1,15.4S132.7,296.9,121,301z"/>
<path class="st26" d="M116.1,452c6.5,1.7,13.2,2.3,19.8,1.8l0.6-0.9c0.4-0.8,0.7-1.5,1-2.3l-9.6-11.5L87,438.7c0,0-0.9,0.6,0,2.1
	c-0.4,0.2-0.7,0.5-0.9,0.9c-0.2,0.4-0.3,0.8-0.2,1.3c6.2,3.3,13.5,4.1,20.4,5.9C109.5,449.9,112.8,451.1,116.1,452z"/>
<path class="st27" d="M135.9,453.8c-6.7,0.5-13.4-0.1-19.8-1.8c-3.3-0.9-6.5-2.1-9.8-3c-6.8-1.9-14.2-2.6-20.4-5.9v0.2
	c0,1.2-0.5,2.4-1.3,3.3c2.8,1.5,5.8,2.5,8.9,3.2c4,0.9,8,1.4,11.9,2.4c2.7,0.7,5.3,1.6,7.9,2.2c7,1.7,14.3,2,21.3,0.8
	C134.9,454.8,135.5,454.3,135.9,453.8L135.9,453.8z"/>
<path class="st22" d="M113.2,454.4c-2.7-0.7-5.3-1.6-7.9-2.2c-3.9-1-7.9-1.5-11.9-2.4c-3.1-0.6-6.1-1.7-8.9-3.2
	c0,0.2-0.3,0.4-0.4,0.6c0,0.3-1.1,2.6,3.4,4.3c4.5,1.7,10.1,1.1,17.2,3.6c7.2,2.6,19.6,3.3,24.1,2.3c4.6-1,5.3-1.9,5.3-1.9l0.3-0.3
	C127.5,456.4,120.2,456.1,113.2,454.4L113.2,454.4z"/>
<path class="st28" d="M88.5,426c-0.8,1.7-1,3.5-0.7,5.4c0.6,2.5-1.8,1.2-0.5,7.3c0,0,13.4,3.8,17.4,6.6c4,2.8,15.1,3.5,21.3,5.5
	c3.8,1.2,7.9,1,11.5-0.6c0,0,1-4.1,4.5-4.5s3.8,0.2,3.8,0.2s-0.3-2.6-6.7-5.1c-5.5-2.3-10.7-5.3-15.5-8.8
	c-1.8-1.5-9.8-9.7-10.8-10.3c-1-0.7-2.9-3.6-8.3,2.3s-7.1,8.7-10.2,3.6C92.5,424.2,92.8,422.2,88.5,426z"/>
<path class="st29" d="M141.3,445.7c-3,1.2-3,1.5-3.6,4.3s-2.8,3.6-3.1,5.2c-0.4,1.6,1.2,2,4.5,0.8c3.3-1.3,6.1-1.4,7-5.4
	C146.8,446.6,146.7,443.5,141.3,445.7L141.3,445.7z"/>
<path class="st30" d="M87.8,431.6l3.4,3c0,0,1.6-1.3,5.8,0.7c4.2,2,17.1,4.9,18.9,5.6c1.8,0.6,12,3.5,13.3,4.1s6.5,2.7,6.5,2.7
	s-15.3-1-20.8-1.7c-5.4-0.7-11.5-1.4-11.5-1.4s-4.2-3.5-16.5-5.9C86.6,436.3,86.9,433.9,87.8,431.6L87.8,431.6L87.8,431.6z"/>
<path class="st30" d="M114.9,427.5c0,0-6.3,0.4-6.5,1.1c-0.3,0.7,3.3,1,5.2,0.6c1.9-0.4-1.3,2.8-1.6,3.4c-0.3,0.7,0.2,2.1,2.5-0.8
	s2.3-2.5,2.3-2.5l4.7,0.2l-2.3-2.1l-2.5-1.9L114.9,427.5L114.9,427.5z"/>
<path class="st30" d="M120.3,432.1c0,0-5.9,0.4-6.1,1.1s3.1,1,4.9,0.6s-1.3,2.8-1.5,3.4c-0.3,0.7,0.2,2.1,2.3-0.8
	c2.1-2.9,1.6-2.6,1.6-2.6l5,0.3l-2.2-2.1l-2.3-1.9C122,430.1,120.3,432.1,120.3,432.1z"/>
<path class="st30" d="M126.2,435.8c0,0-5.6,0.4-5.9,1.1c-0.2,0.7,3,0.9,4.7,0.6s-1.2,2.7-1.4,3.3c-0.3,0.6,0.2,2.1,2.2-0.8
	c2.1-2.8,2-2.4,2-2.4l4.2,0.2l-2.1-2l-2.3-1.9L126.2,435.8L126.2,435.8z"/>
<path class="st31" d="M87.7,438.4c-0.5-1.4-0.6-3,0-4.5c0.2-0.7,0.4-1.5,0.5-2.2v-2.4c0-0.7,0-1.5,0.2-2.2c0.3-0.7,0.7-1.3,1.2-1.8
	c0.2-0.2,0.5-0.4,0.8-0.5s0.6-0.1,0.9-0.1s0.6,0.2,0.9,0.3c0.3,0.2,0.5,0.4,0.7,0.7c0.6,1.1,1.4,2.2,2.2,3.2c0.4,0.5,0.9,0.8,1.5,1
	s1.2,0.3,1.8,0.3c2.4-0.2,3.8-2.7,5-4.5c0.8-1.2,1.9-2.3,3-3.2c1.1-1,2.4-1.6,3.8-1.8c0.5,0,1,0.2,1.5,0.4c0.5,0.2,0.9,0.6,1.2,1
	c0.9,0.9,1.6,1.9,2.5,2.8c4.4,4.7,9.5,8.7,15.1,11.9c2.6,1.5,5.4,2.8,8.2,3.9c2.1,0.8,4.4,1.5,5.8,3.3c0.4,0.5,0.6,1,0.9,1.6
	c0.2,0.5,1,0.3,0.8-0.2c-0.4-1.1-1-2.1-1.9-2.9c-0.9-0.7-1.9-1.3-2.9-1.7c-1.2-0.5-2.4-0.9-3.6-1.4c-1.6-0.6-3.1-1.4-4.6-2.1
	c-6-3.1-11.5-7.1-16.2-12c-1-1-1.9-2.1-2.9-3.2c-0.7-0.9-1.5-1.6-2.6-2c-0.6-0.2-1.2-0.2-1.8-0.2c-0.6,0.1-1.2,0.3-1.7,0.6
	c-1.3,0.7-2.5,1.6-3.6,2.6c-0.9,1-1.8,2.1-2.6,3.3c-0.6,1.1-1.5,2-2.6,2.6c-0.6,0.3-1.4,0.3-2,0.1c-0.7-0.2-1.3-0.6-1.7-1.1
	c-1-1-1.4-2.3-2.3-3.3c-1.9-2.2-5-0.6-5.7,1.8c-0.5,1.6-0.2,3.3-0.3,4.9c-0.2,1.6-0.9,3-0.9,4.7s0.2,1.5,0.5,2.3
	c0.4,0.8,1.2,0.6,1,0l0,0L87.7,438.4z"/>
<path class="st31" d="M138.1,447.9c-0.4,0.8-0.7,1.6-0.9,2.4c-0.2,0.9-0.5,1.7-1,2.4c-0.7,0.8-2,1.4-2.3,2.5v0.6
	c0,0.2,0.1,0.4,0.2,0.5c0.1,0.2,0.2,0.3,0.4,0.4s0.3,0.2,0.5,0.2c1,0.2,1.9,0.1,2.8-0.2c1.9-0.4,3.6-1.1,5.3-1.9
	c0.8-0.3,1.5-0.8,2.1-1.5s0.9-1.5,1-2.3c0.2-1,0.4-2,0.4-3c0.1-0.8,0-1.7-0.4-2.4c-0.9-1.1-2.7-0.7-3.9-0.4c-0.9,0.2-1.7,0.5-2.5,1
	C139.2,446.5,138.5,447.1,138.1,447.9c-0.1,0-0.1,0.1-0.1,0.2v0.2c0,0.1,0,0.1,0.1,0.1h0.1c0,0.1,0.1,0.1,0.2,0.2h0.2
	c0.1,0,0.1,0,0.1-0.1h0.1c0.8-1.3,2.1-2.2,3.5-2.5c0.5-0.1,1-0.2,1.5-0.3c0.5-0.1,1.1-0.1,1.6,0.2c0.6,0.4,0.5,1.5,0.4,2.1
	c0,0.9-0.2,1.8-0.4,2.7c-0.1,0.8-0.5,1.5-0.9,2.1c-0.6,0.6-1.2,1-2,1.3c-1.4,0.7-2.9,1.2-4.4,1.6c-0.5,0.1-3.8,1-3.6-0.3
	c0-0.5,0.8-1,1.1-1.2c0.4-0.3,0.8-0.7,1.2-1.1c1-1.4,1.1-3.3,1.9-4.8C139.1,447.8,138.4,447.4,138.1,447.9L138.1,447.9z"/>
<path class="st31" d="M87.3,438.2c-0.2,0.1-0.5,0.3-0.6,0.5c-0.2,0.2-0.3,0.5-0.3,0.8s0,0.6,0,0.8c0,0.3,0.2,0.5,0.3,0.8l0.2-0.6
	c-0.4,0.2-0.7,0.5-0.9,0.9c-0.2,0.4-0.3,0.8-0.4,1.2c0,0.5,0,1.1-0.2,1.6s-0.4,0.9-0.7,1.3c-0.6,0.7-0.9,1.5-1.1,2.3
	c0,0.4,0,0.9,0.3,1.3c0.2,0.4,0.4,0.8,0.7,1.1c1,1,2.3,1.6,3.8,1.9c1.6,0.4,3.2,0.6,4.8,0.8c4.1,0.7,8.1,1.6,12.1,2.7
	c4.6,1.2,9.3,2,14,2.5c5.1,0.5,10.3,0,15.2-1.6c0.5-0.2,0.3-1-0.2-0.8c-8.5,2.8-17.6,1.7-26.1-0.3c-2.3-0.5-4.5-1.1-6.8-1.7
	c-1.9-0.5-3.9-1.1-5.9-1.4c-2.9-0.5-6-0.5-8.7-1.7c-0.6-0.3-1.2-0.7-1.7-1.2c-0.4-0.4-0.6-0.9-0.7-1.4c0-0.5,0-0.9,0.4-1.3
	c0.6-0.8,1.1-1.6,1.3-2.5c0.2-1,0-2.4,1-2.9l0,0v-0.4c0-0.1,0-0.1,0-0.2c0-0.1-0.2-0.3-0.2-0.5v-0.5c0-0.2,0-0.3,0.2-0.5
	c0-0.1,0.2-0.3,0.4-0.3l0.2-0.2v-0.3c0-0.1,0-0.2-0.2-0.2L87.3,438.2L87.3,438.2z"/>
<path class="st31" d="M87,439.1l5.1,1.5c1.7,0.5,3.4,0.9,5,1.5s3.2,1.3,4.7,2.1c1.5,0.7,3,1.4,4.5,2c3.1,1.1,6.4,2.1,9.6,2.8
	c3.4,0.8,6.7,1.5,10.1,2.1c3.8,0.8,7.7,0.7,11.5-0.1c0.5-0.1,0.3-0.9-0.2-0.8c-3.4,0.7-6.9,0.8-10.4,0.2c-3.3-0.5-6.7-1.3-10-2
	c-3.2-0.7-6.5-1.6-9.6-2.6c-1.6-0.5-3.1-1.2-4.6-1.9c-1.5-0.7-2.9-1.5-4.4-2.1c-1.8-0.7-3.6-1.2-5.4-1.7l-5.9-1.7c0,0-0.2,0-0.3,0.1
	l-0.2,0.2v0.3C86.8,439.1,86.9,439.1,87,439.1L87,439.1z"/>
<path class="st31" d="M92.2,440c-0.8-1.1-1.4-2.3-1.6-3.7c0-1.5,1.3-2,2.6-1.8c1.5,0.3,3,0.8,4.5,1.4c1.7,0.6,3.5,1.2,5.2,1.7
	c7,2.1,14.1,3.7,21,5.9c3.9,1.2,7.8,2.7,11.5,4.5l0.2-0.8c-8.3-0.4-16.5-1.2-24.8-2.2c-2.3-0.3-4.7-0.6-7-1
	c-0.5-0.1-0.8,0.7-0.2,0.8c8.3,1.3,16.6,2.2,24.9,2.8c2.4,0.2,4.8,0.3,7.2,0.4c0.1,0,0.2,0,0.2-0.1c0.1-0.1,0.1-0.1,0.1-0.2v-0.3
	c0-0.1-0.1-0.2-0.2-0.2c-6.9-3.4-14.4-5.5-21.8-7.4c-3.8-1-7.6-2-11.3-3.2c-1.8-0.6-3.7-1.2-5.5-1.8c-1.5-0.7-3.1-1.1-4.7-1.3
	c-0.3,0-0.7,0-1,0.1s-0.6,0.3-0.9,0.5s-0.5,0.5-0.6,0.8c-0.2,0.3-0.2,0.7-0.3,1c0,1.6,0.7,3.1,1.7,4.3
	C91.8,440.8,92.5,440.4,92.2,440L92.2,440L92.2,440z"/>
<path class="st31" d="M91.5,433.8l-3.4-2.8c0-0.1-0.2-0.1-0.3-0.1s-0.2,0-0.3,0.1c0,0.1,0,0.2,0,0.3s0,0.2,0,0.3l3.4,2.8
	c0,0.1,0.2,0.1,0.3,0.1s0.2,0,0.3-0.1l0,0V433.8L91.5,433.8L91.5,433.8L91.5,433.8z"/>
<path class="st31" d="M118.7,427.3c-1.7-0.2-3.4-0.3-5.1-0.2c-0.9,0-1.7,0.1-2.6,0.2c-0.8,0-1.6,0.2-2.3,0.4c0,0-0.2,0.1-0.3,0.2
	s-0.2,0.2-0.2,0.3c0,0.1,0,0.2,0,0.4s0,0.3,0,0.4c0,0.3,0.3,0.5,0.5,0.6c0.2,0.2,0.5,0.2,0.8,0.2c0.8,0,1.7-0.1,2.6-0.1h2.6
	c2,0.1,4,0.2,6,0.5c0.5,0.1,0.7-0.7,0.2-0.8c-1.8-0.3-3.6-0.5-5.5-0.5c-1.9-0.1-3.7,0.1-5.5,0.1h-0.5c-0.2-0.1-0.5-0.3-0.2-0.5
	c0.5-0.1,0.9-0.2,1.4-0.2c0.9-0.1,1.8-0.2,2.8-0.2c1.8-0.1,3.7,0,5.5,0.2C119.2,428.3,119.2,427.4,118.7,427.3
	C118.7,427.3,118.7,427.3,118.7,427.3z"/>
<path class="st31" d="M115.3,427.3L115.3,427.3v-0.2l0.3-0.2c0-0.2,0.3-0.3,0.4-0.4l0.5-0.4l0,0c0-0.1,0-0.1,0-0.1l0,0l0.3-0.2
	c0-0.1,0.2-0.1,0.2-0.3v-0.3c0-0.1,0-0.2-0.3-0.2h-0.3c-0.8,0.5-1.4,1.2-2,1.9v0.3c0,0.1,0,0.2,0.2,0.2c0,0.1,0.2,0.1,0.3,0
	c0.1,0.2,0.2,0.1,0.2,0l0,0L115.3,427.3z"/>
<path class="st31" d="M113.9,429.2c-1.1,1.3-1.9,2.7-2.3,4.3v0.3c0,0.1,0,0.2,0.2,0.2c0.2,0.1,0.5,0.2,0.7,0.2c0.3,0,0.5,0,0.7-0.2
	c0.5-0.3,0.9-0.6,1.2-1.1c0.8-1,1.5-2,2.2-3c0,0,0-0.1,0-0.2v-0.2c0-0.1,0-0.1,0-0.1l0,0c0-0.2-0.2-0.2-0.3-0.1c0,0-0.2,0.1-0.3,0.2
	l-1.9,2.6c-0.4,0.5-1.1,1.6-1.8,1.1l0.2,0.5c0.4-1.4,1.2-2.8,2.1-3.9c0-0.1,0-0.2,0-0.3s0-0.2,0-0.3c0-0.1-0.2-0.1-0.3-0.1
	S114.1,429.1,113.9,429.2L113.9,429.2L113.9,429.2z"/>
<path class="st31" d="M124.6,432c-1.7-0.2-3.5-0.3-5.2-0.2c-0.9,0-1.8,0.1-2.6,0.2c-0.8,0-1.6,0.1-2.3,0.4c0,0.1-0.3,0.2-0.4,0.3
	c0,0.1,0,0.3-0.2,0.4c0,0.2,0,0.3,0,0.5s0,0.3,0.3,0.4c0.6,0.5,1.4,0.4,2.1,0.3c1.7-0.1,3.3-0.1,5,0c1.8,0,3.7,0.2,5.5,0.5
	c0.5,0.1,0.7-0.7,0.2-0.8c-2.8-0.4-5.6-0.6-8.4-0.5h-2.9c-0.2,0-1.3,0-0.9-0.4c0.3-0.1,0.6-0.2,1-0.2h1.2c0.8-0.2,1.5-0.2,2.3-0.2
	c1.7-0.1,3.4,0,5.1,0.2c0.5,0,0.7-0.9,0.1-0.9l0,0L124.6,432z"/>
<path class="st31" d="M120.3,432.1l0.2-0.2l0,0c0-0.2,0.2-0.4,0.4-0.5l0.4-0.4l0.2-0.2l0,0l0,0c0-0.1,0.2-0.1,0.2-0.2v-0.3l0,0v-0.2
	h-0.3c0,0-0.1,0-0.2,0.1c-0.7,0.5-1.2,1.1-1.7,1.8c0,0.1,0,0.2,0,0.3c0,0.1,0,0.2,0.2,0.3c0,0,0.2,0.1,0.3,0c0,0,0.2-0.1,0.3-0.2
	V432.1L120.3,432.1z"/>
<path class="st31" d="M119,433.7c-0.9,1.2-1.6,2.5-2,3.9v0.3c0,0.1,0,0.2,0.2,0.2c0.2,0.1,0.4,0.2,0.7,0.2s0.5,0,0.7-0.2
	c0.4-0.2,0.8-0.6,1-1c0.6-0.9,1.3-1.8,1.9-2.7c0-0.1,0-0.2,0-0.3c0-0.1,0-0.2-0.2-0.3c0-0.1-0.2-0.1-0.3,0c0,0-0.2,0.1-0.3,0.2
	l-1.7,2.3c-0.3,0.4-0.9,1.5-1.5,1l0.2,0.5c0.4-1.3,1-2.5,1.8-3.6c0-0.1,0-0.2,0-0.3s0-0.2,0-0.3c0-0.1-0.2-0.1-0.3-0.1
	C119.2,433.5,119.2,433.5,119,433.7L119,433.7L119,433.7z"/>
<path class="st31" d="M131,436.1c-1.7-0.2-3.4-0.2-5.1-0.2s-3.4,0.1-5,0.4c-0.7,0.1-1.3,0.6-0.8,1.3c0.4,0.7,1.3,0.6,2.1,0.6
	c1.7-0.1,3.4-0.1,5.1-0.1c1.7,0,3.8,0.1,5.6,0.3c0.5,0.1,0.5-0.8,0-0.8c-2.9-0.3-5.9-0.4-8.8-0.3c-0.7,0-1.3,0-2,0.1
	c-0.4,0.1-0.7,0.1-1.1,0c-0.5-0.2,0.4-0.3,0.6-0.3c1.5-0.2,3-0.3,4.5-0.3s3.3,0,5,0.2C131.5,437,131.5,436.1,131,436.1L131,436.1
	L131,436.1z"/>
<path class="st31" d="M126.3,436.3c0.2-0.3,0.5-0.5,0.7-0.8l0.2-0.2l0,0c0-0.2,0.3-0.3,0.4-0.4l0,0v-0.4c0-0.1,0-0.1,0-0.2
	c0-0.1,0-0.2-0.3-0.2H127c-0.6,0.4-1.2,0.9-1.7,1.5c0,0.1,0,0.2,0,0.3s0,0.2,0,0.3c0,0.1,0.2,0.1,0.3,0.1c0.2,0.1,0.3,0.1,0.5,0l0,0
	L126.3,436.3z"/>
<path class="st31" d="M125.1,437.6c-0.9,1-1.6,2.2-2,3.5v0.3c0,0.1,0,0.2,0.2,0.2c0.2,0.1,0.4,0.2,0.6,0.2s0.4,0,0.6-0.1
	c0.4-0.2,0.8-0.5,1-0.8l1.9-2.3c0-0.1,0-0.2,0-0.3s0-0.2,0-0.3c0-0.1-0.2-0.1-0.3-0.1s-0.2,0-0.3,0.1l-1.7,2.1
	c-0.3,0.4-0.9,1.3-1.5,0.9l0.2,0.5c0.4-1.1,1-2.2,1.8-3.1C126,437.9,125.4,437.3,125.1,437.6L125.1,437.6L125.1,437.6z"/>
<path class="st31" d="M93.1,440.5L93.1,440.5c0,0,0,0,0-0.1c0,0-0.2-0.4-0.5-0.9l0,0v-0.2H93c0.2,0.5,0.4,0.9,0.4,0.9l0,0v0.2l0,0
	c0,0,0,0,0,0.1c0-0.1,0,0,0,0H93.1z"/>
<path class="st31" d="M132.3,447.2l-2-0.5c-0.1,0-0.1-0.1-0.1-0.1v-0.2l0,0v-0.2h0.3l2,0.5c0.1,0,0.1,0,0.1,0.1h0.1
	c0,0.1,0,0.2-0.1,0.2S132.4,447.1,132.3,447.2L132.3,447.2z M128.3,446.2l-2-0.5h-0.2v-0.2l0,0v-0.2h0.3l2,0.4h0.2v0.2l0,0
	c0,0.1,0,0.2-0.1,0.2C128.4,446.1,128.4,446.2,128.3,446.2L128.3,446.2z M124.4,445.1h-0.3c-0.3-0.2-0.8-0.3-1.7-0.6c0,0,0,0,0-0.1
	v-0.2l0,0V444h0.3c0.9,0.2,1.5,0.4,1.8,0.5h0.3v0.2l0,0v0.2v0.1c-0.2,0.1-0.3,0.1-0.3,0.1H124.4z M120.4,444.1l-2-0.5c0,0,0,0,0-0.1
	v-0.2l0,0v-0.2c0.2-0.1,0,0,0.2,0l0,0l2,0.5c0,0,0,0,0,0.1l0,0v0.2c0,0.2-0.2,0.2-0.3,0.2l0,0H120.4z M116.4,443.1l-2-0.5l0,0
	c0,0,0,0,0-0.1l0,0v-0.2l0,0v-0.2h0.3l2,0.5c0,0,0,0,0,0.1v0.2l0,0v0.2h-0.2H116.4z M112.3,442.2L112.3,442.2l-2.1-0.5H110v-0.2l0,0
	v-0.2h0.3l2,0.4c0,0,0,0,0,0.1l0,0v0.2C112.3,442.1,112.3,442.2,112.3,442.2C112.3,442.2,112.3,442.2,112.3,442.2z M108.3,441.2
	c-0.7-0.2-1.4-0.4-2-0.6h-0.2v-0.2l0,0v-0.2h0.3c0.6,0.1,1.3,0.3,2,0.5h0.2v0.2l0,0c0,0.2,0,0.2,0,0.2c0,0.1-0.1,0.1-0.2,0.1H108.3z
	 M104.4,440L104.4,440l-0.6-0.2l-1.4-0.7l0,0v-0.3h0.3l1.4,0.5l0.5,0.2l0,0v0.2l0,0v0.2C104.6,439.9,104.4,439.9,104.4,440
	L104.4,440L104.4,440z M100.6,438.4L100.6,438.4c-0.7-0.3-1.4-0.5-2-0.8l0,0v-0.3c0-0.1,0-0.1,0-0.1h0.2c0.6,0.2,1.3,0.5,1.9,0.8
	v0.1L100.6,438.4C100.7,438.3,100.6,438.3,100.6,438.4L100.6,438.4L100.6,438.4z M91.9,437.6c0,0,0,0,0-0.1l0,0v-0.6
	c0-0.2,0-0.5,0-0.7s0.3-0.4,0.4-0.5s0.3-0.1,0.4-0.1h0.2v0.2l0,0c0,0.1-0.2,0.1-0.3,0.2c0,0.1-0.2,0.2-0.3,0.4c0,0.2,0,0.3,0,0.5
	v0.5l0,0v0.2l0,0c0,0.1,0,0.1,0,0l0,0H91.9z M96.7,436.9L96.7,436.9c-0.8-0.3-1.5-0.5-2-0.6c0,0,0,0,0-0.1V436l0,0v-0.2H95
	c0.6,0.1,1.2,0.4,2,0.6v0.1v0.2l0,0c0,0.1-0.1,0.1-0.2,0.2l0,0H96.7z"/>
<path class="st31" d="M135.3,448l-1-0.3h-0.2v-0.2l0,0c0-0.1,0-0.2,0.1-0.2h0.2l1,0.3c0,0,0.1,0,0.1,0.1l0,0v0.2h-0.2L135.3,448z"/>
<path class="st31" d="M89.1,438.3h-0.2c-0.2-0.7-0.3-1.3-0.3-2V436c0-0.1,0-0.1,0-0.1h0.3v0.4c0,0.6,0,1.2,0.3,1.8l0,0v0.2l0,0
	c0-0.1,0-0.1,0,0l0,0H89.1z M88.9,434.4L88.9,434.4c-0.6-0.5-1-1-1.4-1.6v-0.2c0-0.1,0-0.1,0-0.1h0.4c0.4,0.6,0.8,1.1,1.3,1.6l0,0
	v0.2l0,0v0.2C89,434.3,89,434.4,88.9,434.4C88.8,434.4,88.8,434.4,88.9,434.4L88.9,434.4L88.9,434.4z"/>
<linearGradient id="SVGID_00000118361960747522409040000006647266548678697382_" gradientUnits="userSpaceOnUse" x1="71.3095" y1="291.5029" x2="93.2095" y2="219.2029" gradientTransform="matrix(1 0 0 -1 0 514)">
	<stop  offset="0" style="stop-color:#797D86"/>
	<stop  offset="0.5" style="stop-color:#A8ABB0"/>
	<stop  offset="0.8" style="stop-color:#CBCCCF"/>
	<stop  offset="1" style="stop-color:#D8D9DB"/>
</linearGradient>
<path style="fill:url(#SVGID_00000118361960747522409040000006647266548678697382_);" d="M120.8,297.3c-12.7-7.3-25.1-15.2-37-23.8
	c-4.2-3-7.8-6.9-10.4-11.3c-2.6-4.5-4.3-9.4-5-14.6c-1.2-9.5-2-19.8-3.4-26.2c-2.4-10.8-8.4-10.4-10.2-2.3
	c-1.8,8.2-4.4,39.9,7.2,53.3s52.2,37.5,52.2,37.5S120.8,297.3,120.8,297.3z"/>
<path class="st3" d="M51.7,335.2c0,0-0.2,0.1-0.4,0.1c0-0.1,0-0.1,0.2-0.1H51.7z"/>
<path class="st4" d="M113.5,310.9c-1.7-1-40.9-24.3-52.5-37.7c-11.5-13.4-9.5-45-7.4-54.4c1-4.4,3.1-7,5.8-7s5.5,3.4,6.8,9.2
	c1,4.7,1.8,11.2,2.5,18.2c0.3,2.7,0.6,5.5,0.9,8.2c0.6,5,2.2,9.8,4.8,14.1c2.6,4.3,6,8.1,10.1,11c11.9,8.6,24.2,16.5,36.9,23.7
	l-1.2,2.2c-12.8-7.3-25.1-15.3-37.1-23.9c-4.4-3.1-8-7.1-10.8-11.7c-2.7-4.6-4.5-9.7-5.1-15.1c-0.3-2.7-0.6-5.5-0.9-8.2
	c-0.8-6.9-1.5-13.4-2.5-17.9c-1.2-5-3-7.3-4.4-7.3s-2.6,1.6-3.4,5c-1.7,7.8-4.3,39.3,6.9,52.2c11.2,12.9,51.5,36.9,51.9,37.2
	L113.5,310.9L113.5,310.9z"/>
<path class="st5" d="M166.4,289.7c0.2-0.4,0.2-0.9,0.2-1.3s0-0.7-0.2-1c-0.1-0.3-0.3-0.6-0.5-0.9c-0.2-0.2-0.8-0.8-1.4-1.6
	c-1.6-1.9-4.1-4.7-6.2-6.6l-4.5-1.7c-4.7-0.9-7.4,4.4-7.7,6.8c-2.4-1-4-1.8-5.8-2.4l-3.2-1.3c-3.8-1.3-7.2-2.3-5.3-7.8
	c0.4-1,0.6-2.7,1-3.9c2.2-6,6.2-13.3,3.7-20.3c-1.8-5-5.6-6.3-8.6-5.9c-3,0.4-5,2.4-5.2,4.8c-0.4,6.5-2.8,24.8-9.6,30.7
	c-1.4,1.2-2.6,2.5-3.8,3.9c-1-0.3-2.1-0.3-3.2-0.1c-1,0.2-2,0.7-2.8,1.4c-3.5,2.6-6.8,9.3-5.6,17.6c1.5,10.7,5.7,11.5,7,11.5h0.2
	c2.1,2.9,4.7,5.3,7.7,7.2c3.5,2.3,6.6,4.2,9.4,5.9c3.1,1.7,6,3.6,8.7,5.9c1.7,1.7,4.1,2.7,6.5,2.8c2.2-0.1,4.2-0.7,6.1-1.8
	c2-1.2,5-2.6,7.6-3.8c3.6-1.6,5.9-2.7,6.7-3.5c1.8-1.6,2.1-5.9,2.1-7.1c0.5-0.3,0.8-0.6,1.2-0.8c3-2.2,5-5.5,5.9-9.1
	c0.5-1.8,0.5-3.6,0.1-5.4c1.1-1.2,1.8-2.8,2-4.4C169.1,294.8,167.2,291.2,166.4,289.7L166.4,289.7z"/>
<path class="st7" d="M137.1,335c-2.9,0-5.6-1.1-7.6-3.1c-2.6-2.1-5.5-4-8.5-5.7c-2.8-1.7-5.9-3.6-9.4-5.9c-2.9-1.9-5.5-4.2-7.6-7
	c-2.3-0.3-6.4-2.3-8-12.9c-0.6-3.9-0.2-8,1.1-11.7c1-2.9,2.8-5.5,5.1-7.4c0.9-0.7,1.9-1.2,3-1.6c1.1-0.3,2.2-0.4,3.4-0.3
	c1-1.2,2.1-2.3,3.3-3.3c5.6-5,8.5-20.8,9-29.6c0.2-3.1,2.9-5.9,6.6-6.3c5.5-0.8,9.1,3.2,10.4,6.9c2.3,6.5-0.2,12.8-2.4,18.4
	c-0.4,1.1-0.8,2.1-1.2,3.1c-0.2,0.6-0.4,1.3-0.5,2c-0.1,0.6-0.3,1.3-0.5,1.9c-1.3,3.8,0.1,4.3,3.9,5.6l0.5,0.2l3.2,1.3
	c1,0.4,1.9,0.8,2.9,1.2l1.2,0.5c0.7-1.9,1.9-3.6,3.5-4.9c0.8-0.6,1.7-1,2.7-1.3c1-0.2,2-0.2,3,0h0.2l4.9,1.9l0.2,0.2
	c2.2,2,4.7,4.9,6.3,6.7c0.6,0.7,1.2,1.3,1.3,1.5c0.4,0.4,0.7,0.9,0.9,1.4s0.3,1.1,0.3,1.7s-0.1,0.7-0.1,1.1c1.1,2.1,2.6,5.4,2.3,8.1
	c-0.2,1.7-0.8,3.3-1.9,4.7c0.3,1.8,0.2,3.6-0.3,5.4c-0.9,4-3.2,7.6-6.5,10l-0.6,0.4c-0.2,2.3-0.7,5.9-2.6,7.5
	c-1.1,0.9-3.3,2-7.1,3.7c-2.6,1.2-5.6,2.6-7.5,3.7C142,334.2,139.6,335,137.1,335L137.1,335L137.1,335z M105.7,310l0.6,0.8
	c2,2.7,4.4,5,7.2,6.8c3.4,2.3,6.6,4.2,9.3,5.9c3.2,1.7,6.2,3.8,9,6.1c1.4,1.4,3.4,2.2,5.4,2.2c1.9-0.1,3.7-0.6,5.2-1.6
	c2-1.2,5.1-2.6,7.8-3.8c2.2-0.9,4.3-2,6.4-3.2c0.8-0.7,1.5-3.2,1.5-5.9v-0.9l0.8-0.5c0.4-0.3,0.8-0.5,1-0.7c2.7-2,4.6-4.9,5.3-8.1
	c0.4-1.5,0.5-3.1,0.1-4.6l-0.3-0.8l0.6-0.7c0.9-1,1.5-2.2,1.6-3.5c0.2-1.8-1.1-4.7-2.3-6.8l-0.4-0.7l0.3-0.7
	c0.1-0.3,0.1-0.5,0.2-0.8c0-0.3-0.1-0.5-0.2-0.7c-0.2-0.2-0.7-0.8-1.5-1.6c-1.6-1.8-3.9-4.4-5.9-6.3l-4.1-1.5
	c-0.5-0.1-1-0.1-1.5,0.1c-0.5,0.1-1,0.4-1.4,0.7c-1.4,1.2-2.4,2.8-2.7,4.7l-0.2,2.2l-2.1-0.8c-1.2-0.5-2.2-0.9-3-1.3
	c-0.9-0.4-1.8-0.8-2.7-1.2h-0.1l-3.2-1.4H136c-3.5-1.3-8.3-2.9-6-9.8c0.1-0.4,0.3-1,0.4-1.6c0.2-0.8,0.4-1.6,0.6-2.3
	c0.4-1,0.8-2.1,1.3-3.2c2.1-5.3,4.3-10.7,2.3-16c-1.8-5.1-5.7-4.9-6.8-4.8c-2.1,0.3-3.7,1.7-3.8,3.3c0,0.2-1.4,24.2-10.1,31.9
	c-1.3,1.1-2.5,2.4-3.6,3.7l-0.7,0.9l-1.1-0.3c-0.8-0.2-1.6-0.2-2.4,0s-1.5,0.5-2.2,1.1c-3.2,2.3-6.1,8.4-5,16.1
	c1.4,9.8,4.9,10.1,5.3,10.1l0,0L105.7,310L105.7,310z"/>
<path class="st7" d="M104,312.7c-1.4,0-5.9-0.9-7.6-12.2c-1.3-8.7,2.1-15.6,5.9-18.4c1-0.9,2.2-1.4,3.6-1.6c1.3-0.2,2.7,0,3.9,0.5
	c0.3,0.2,0.6,0.4,0.8,0.8c0,0.4,0,0.7,0,1.1c-0.2,0.3-0.4,0.6-0.8,0.8c-0.4,0.1-0.7,0.1-1.1,0c-0.7-0.3-1.6-0.4-2.4-0.3
	s-1.5,0.5-2.1,1c-3.1,2.3-5.9,8.2-4.8,15.7c1.2,8,3.8,9.7,4.7,9.7l0.4,2.8H104V312.7z"/>
<path class="st7" d="M103.6,294.6h-0.3c-0.2,0-0.4-0.1-0.5-0.2c-0.2-0.1-0.3-0.2-0.4-0.4c0-0.2-0.2-0.3-0.2-0.5v-0.6
	c1.7-6.2,5.3-11.8,10.2-16.1c6.8-6,9.3-24.5,9.6-31.1c0.2-2.7,2.5-4.9,5.7-5.3c4.9-0.7,8.1,2.9,9.3,6.2c2.7,7.4-0.2,15.1-2.4,21.4
	c-0.4,1.2-0.8,2.2-1.2,3.2c-1.8,5.2,0.4,6,4.3,7.3h0.4c3.5,1.3,10.4,4.1,12.2,4.8l6.8-1.6c0.4-0.1,0.7,0,1.1,0.2
	c0.3,0.2,0.5,0.5,0.6,0.9s0,0.7-0.2,1.1c-0.2,0.3-0.5,0.6-0.8,0.7l-7.2,1.7c-0.3,0.1-0.6,0.1-0.9,0c-0.1,0-8.6-3.5-12.5-4.8h-0.4
	c-3.7-1.4-8.8-3.1-6.1-11.1c0.4-1.1,0.8-2.2,1.2-3.3c2.2-6.1,4.8-13,2.4-19.4c-1.7-4.7-5.1-4.5-6.2-4.4c-1.8,0.3-3.1,1.4-3.2,2.6
	c0,0.3-1.5,25.1-10.5,33.1c-4.4,3.8-7.7,8.9-9.3,14.5c0,0.3-0.2,0.6-0.5,0.8C104.2,294.5,103.9,294.6,103.6,294.6
	C103.6,294.6,103.6,294.6,103.6,294.6z"/>
<path class="st7" d="M155.9,298c-0.3,0-0.7-0.1-0.9-0.3c-0.3-0.2-0.4-0.5-0.5-0.8s0-0.7,0.2-1s0.4-0.5,0.7-0.6
	c4.7-1.8,6.8-3.2,8.4-4.8c1.2-1.1,1.2-2.1,1.1-2.2c-0.3-0.3-0.8-0.9-1.5-1.7c-1.7-1.9-4.1-4.7-6.2-6.6c-1.4-1.4-3.3-2.2-5.3-2.3
	c-4.9,1-4.5,5.1-4.4,5.5s0,0.7-0.3,1c-0.2,0.3-0.5,0.5-0.9,0.6s-0.8,0-1.1-0.3s-0.5-0.5-0.6-0.9c-0.4-2.5,0.6-7.6,6.8-8.8h0.2
	c2.8,0,5.5,1.1,7.5,3.1c2.2,2.1,4.7,4.9,6.4,6.8c0.7,0.7,1.2,1.4,1.4,1.6c0.3,0.3,0.5,0.7,0.7,1c0.1,0.4,0.2,0.8,0.2,1.2
	c-0.1,1.6-0.8,3-2,4.1c-1.9,1.8-4.2,3.4-9.4,5.4C156.4,298,156.1,298,155.9,298L155.9,298L155.9,298z"/>
<path class="st7" d="M150.9,314.1c-0.3,0-0.6-0.1-0.9-0.3c-0.3-0.2-0.4-0.5-0.5-0.8s0-0.7,0.1-0.9c0.1-0.3,0.4-0.5,0.7-0.7
	c3.4-1.7,6.7-3.6,9.8-5.8c4.8-3.5,7-5.9,7.1-8.1c0.2-1.8-1.5-5.3-2.5-7c-0.1-0.2-0.2-0.3-0.2-0.5v-0.6c0-0.2,0.1-0.4,0.2-0.5
	c0.1-0.2,0.3-0.3,0.4-0.4c0.2-0.1,0.3-0.2,0.5-0.2h0.6c0.2,0,0.4,0.1,0.5,0.2c0.2,0.1,0.3,0.3,0.4,0.4c0.3,0.5,3.2,5.4,2.9,8.7
	c-0.3,3.9-4.2,7.2-8.3,10.2c-3.3,2.3-6.7,4.3-10.3,6.1C151.4,314.1,151.1,314.1,150.9,314.1L150.9,314.1L150.9,314.1z"/>
<path class="st7" d="M148.8,324.3c-0.3,0-0.6-0.1-0.9-0.3c-0.3-0.2-0.4-0.5-0.5-0.8s0-0.7,0.1-1s0.4-0.5,0.7-0.7
	c2.6-1.3,9.8-4.9,11.8-6.4c2.6-1.9,4.4-4.7,5.1-7.9c0.7-3.1,0.1-4.4,0.1-4.4l0,0l2.5-1.3c0.2,0.3,1,2.2,0.2,6.4
	c-0.9,3.8-3.1,7.2-6.2,9.6c-2.6,2-11.9,6.5-12.3,6.7C149.2,324.2,149,324.2,148.8,324.3L148.8,324.3z"/>
<path class="st7" d="M137.2,334.9c-2.6,0-5.1-1.1-7-2.9c-2.8-2.3-5.7-4.3-8.8-6c-2.8-1.7-6.1-3.7-9.6-6
	c-10.2-6.8-10.7-13.4-10.7-14.7s0.2-0.7,0.4-1c0.3-0.3,0.6-0.4,1-0.4s0.7,0.2,1,0.4c0.3,0.3,0.4,0.6,0.4,1s0,6.1,9.4,12.3
	c3.5,2.3,6.7,4.3,9.5,6c3.3,1.8,6.5,3.9,9.4,6.4c2.7,2.6,6.2,2.8,10,0.6c2.1-1.3,5.3-2.7,8-4c2.2-0.9,4.3-2,6.3-3.2
	c0.8-0.7,1.3-3.7,1.3-5.7s0.2-0.7,0.4-1s0.6-0.4,1-0.4s0.4,0,0.5,0.1c0.2,0.1,0.3,0.2,0.5,0.3c0.1,0.1,0.2,0.3,0.3,0.5
	s0.1,0.4,0.1,0.6c0,1-0.2,6-2.3,7.8c-1,0.9-3.3,1.9-7,3.6c-2.7,1.2-5.8,2.6-7.7,3.8C141.7,334.2,139.5,334.9,137.2,334.9
	L137.2,334.9z"/>
<path class="st7" d="M139.5,330.3c-0.3,0-0.6-0.1-0.9-0.3c-0.3-0.2-0.5-0.6-0.5-1s0.1-0.8,0.3-1.1l0,0c2.2-3,3.7-6.5,4.3-10.1
	c0.3-2.1,0.4-4.2,0.5-6.3c0.1-3.4,0.2-6.7,1.8-9.9c2.3-4.6,2.1-9,1.3-10.7c-0.1-0.2-0.1-0.4-0.2-0.5c0-0.2,0-0.4,0.1-0.6
	s0.2-0.4,0.3-0.5s0.3-0.3,0.4-0.3c0.2-0.1,0.4-0.1,0.5-0.1c0.2,0,0.4,0,0.6,0.1c0.2,0.1,0.3,0.2,0.5,0.3c0.1,0.1,0.3,0.3,0.3,0.5
	c1.7,3.5,0.7,9.3-1.3,13.2c-1.3,2.7-1.4,5.5-1.5,8.8c0,2.2-0.2,4.4-0.5,6.6c-0.7,4.2-2.4,8.1-4.9,11.5c-0.1,0.2-0.3,0.3-0.5,0.4
	C139.9,330.3,139.7,330.3,139.5,330.3L139.5,330.3z"/>
</svg>
